<?xml version="1.0" encoding="UTF-8" standalone="no"?>
<!-- Created with PhysiCell (http://PhysiCell.MathCancer.org/) -->
<svg 
 xmlns:dc="http://purl.org/dc/elements/1.1/" 
 xmlns:cc="http://creativecommons.org/ns#" 
 xmlns:rdf="http://www.w3.org/1999/02/22-rdf-syntax-ns#" 
 xmlns:svg="http://www.w3.org/2000/svg" 
 xmlns="http://www.w3.org/2000/svg" 
 version="1.1" 
 width="1000" 
 height="1070" 
 id="svg2">
  <rect x="0" y="0" width="1000" height="1070" stroke-width="2" stroke="white" fill="white"/>
  <text x="12.5" y="30"
   font-family="Arial" font-size="25" fill="black" >
   Current time: 0 days, 5 hours, and 10.00 minutes, z = 0.00 &#956;m
  </text>
  <text x="12.5" y="57.5"
   font-family="Arial" font-size="23.75" fill="black" >
   190 agents
  </text>
 <g id="tissue" 
    transform="translate(0,1070) scale(1,-1)">
  <g id="ECM">
  </g>
  <g id="cells">
   <g id="cell0">
  <circle cx="427.394" cy="447.533" r="8.41271" stroke-width="0.5" stroke="black" fill="yellow"/>
  <circle cx="427.394" cy="447.533" r="5.05167" stroke-width="0.5" stroke="yellow" fill="yellow"/>
   </g>
   <g id="cell1">
  <circle cx="426.032" cy="470.84" r="7.30216" stroke-width="0.5" stroke="black" fill="yellow"/>
  <circle cx="426.032" cy="470.84" r="4.43696" stroke-width="0.5" stroke="yellow" fill="yellow"/>
   </g>
   <g id="cell2">
  <circle cx="428.288" cy="483.237" r="8.41271" stroke-width="0.5" stroke="black" fill="blue"/>
  <circle cx="428.288" cy="483.237" r="5.05167" stroke-width="0.5" stroke="blue" fill="blue"/>
   </g>
   <g id="cell3">
  <circle cx="423.933" cy="497.725" r="7.49456" stroke-width="0.5" stroke="black" fill="Red"/>
  <circle cx="423.933" cy="497.725" r="4.55548" stroke-width="0.5" stroke="Red" fill="Red"/>
   </g>
   <g id="cell4">
  <circle cx="428.923" cy="508.592" r="8.41271" stroke-width="0.5" stroke="black" fill="Red"/>
  <circle cx="428.923" cy="508.592" r="5.05167" stroke-width="0.5" stroke="Red" fill="Red"/>
   </g>
   <g id="cell5">
  <circle cx="416.301" cy="528.706" r="7.41548" stroke-width="0.5" stroke="black" fill="blue"/>
  <circle cx="416.301" cy="528.706" r="4.50723" stroke-width="0.5" stroke="blue" fill="blue"/>
   </g>
   <g id="cell6">
  <circle cx="425.243" cy="540.211" r="8.41271" stroke-width="0.5" stroke="black" fill="yellow"/>
  <circle cx="425.243" cy="540.211" r="5.05167" stroke-width="0.5" stroke="yellow" fill="yellow"/>
   </g>
   <g id="cell7">
  <circle cx="442.353" cy="446.958" r="7.89373" stroke-width="0.5" stroke="black" fill="Red"/>
  <circle cx="442.353" cy="446.958" r="4.78957" stroke-width="0.5" stroke="Red" fill="Red"/>
   </g>
   <g id="cell8">
  <circle cx="434.194" cy="460.54" r="8.41271" stroke-width="0.5" stroke="black" fill="Red"/>
  <circle cx="434.194" cy="460.54" r="5.05167" stroke-width="0.5" stroke="Red" fill="Red"/>
   </g>
   <g id="cell9">
  <circle cx="439.745" cy="473.806" r="8.41271" stroke-width="0.5" stroke="black" fill="Red"/>
  <circle cx="439.745" cy="473.806" r="5.05167" stroke-width="0.5" stroke="Red" fill="Red"/>
   </g>
   <g id="cell10">
  <circle cx="442.572" cy="485.837" r="8.41271" stroke-width="0.5" stroke="black" fill="Red"/>
  <circle cx="442.572" cy="485.837" r="5.05167" stroke-width="0.5" stroke="Red" fill="Red"/>
   </g>
   <g id="cell11">
  <circle cx="439.265" cy="503.383" r="8.41271" stroke-width="0.5" stroke="black" fill="Red"/>
  <circle cx="439.265" cy="503.383" r="5.05167" stroke-width="0.5" stroke="Red" fill="Red"/>
   </g>
   <g id="cell12">
  <circle cx="434.92" cy="519.881" r="7.7401" stroke-width="0.5" stroke="black" fill="Red"/>
  <circle cx="434.92" cy="519.881" r="4.70142" stroke-width="0.5" stroke="Red" fill="Red"/>
   </g>
   <g id="cell13">
  <circle cx="439.87" cy="533.8" r="8.41271" stroke-width="0.5" stroke="black" fill="Red"/>
  <circle cx="439.87" cy="533.8" r="5.05167" stroke-width="0.5" stroke="Red" fill="Red"/>
   </g>
   <g id="cell14">
  <circle cx="438.253" cy="547.228" r="8.41271" stroke-width="0.5" stroke="black" fill="yellow"/>
  <circle cx="438.253" cy="547.228" r="5.05167" stroke-width="0.5" stroke="yellow" fill="yellow"/>
   </g>
   <g id="cell15">
  <circle cx="440.662" cy="561.09" r="8.41271" stroke-width="0.5" stroke="black" fill="blue"/>
  <circle cx="440.662" cy="561.09" r="5.05167" stroke-width="0.5" stroke="blue" fill="blue"/>
   </g>
   <g id="cell16">
  <circle cx="452.208" cy="427.993" r="7.28808" stroke-width="0.5" stroke="black" fill="Red"/>
  <circle cx="452.208" cy="427.993" r="4.46226" stroke-width="0.5" stroke="Red" fill="Red"/>
   </g>
   <g id="cell17">
  <circle cx="451.975" cy="439.234" r="6.95901" stroke-width="0.5" stroke="black" fill="Red"/>
  <circle cx="451.975" cy="439.234" r="4.21341" stroke-width="0.5" stroke="Red" fill="Red"/>
   </g>
   <g id="cell18">
  <circle cx="446.919" cy="459.652" r="8.41271" stroke-width="0.5" stroke="black" fill="blue"/>
  <circle cx="446.919" cy="459.652" r="5.05167" stroke-width="0.5" stroke="blue" fill="blue"/>
   </g>
   <g id="cell19">
  <circle cx="451.779" cy="471.527" r="8.41271" stroke-width="0.5" stroke="black" fill="blue"/>
  <circle cx="451.779" cy="471.527" r="5.05167" stroke-width="0.5" stroke="blue" fill="blue"/>
   </g>
   <g id="cell20">
  <circle cx="454.932" cy="482.505" r="8.41271" stroke-width="0.5" stroke="black" fill="Red"/>
  <circle cx="454.932" cy="482.505" r="5.05167" stroke-width="0.5" stroke="Red" fill="Red"/>
   </g>
   <g id="cell21">
  <circle cx="448.286" cy="495.821" r="8.41271" stroke-width="0.5" stroke="black" fill="Red"/>
  <circle cx="448.286" cy="495.821" r="5.05167" stroke-width="0.5" stroke="Red" fill="Red"/>
   </g>
   <g id="cell22">
  <circle cx="453.262" cy="506.499" r="8.41271" stroke-width="0.5" stroke="black" fill="Red"/>
  <circle cx="453.262" cy="506.499" r="5.05167" stroke-width="0.5" stroke="Red" fill="Red"/>
   </g>
   <g id="cell23">
  <circle cx="447.885" cy="522.873" r="8.41271" stroke-width="0.5" stroke="black" fill="Red"/>
  <circle cx="447.885" cy="522.873" r="5.05167" stroke-width="0.5" stroke="Red" fill="Red"/>
   </g>
   <g id="cell24">
  <circle cx="450.813" cy="539.68" r="8.41271" stroke-width="0.5" stroke="black" fill="blue"/>
  <circle cx="450.813" cy="539.68" r="5.05167" stroke-width="0.5" stroke="blue" fill="blue"/>
   </g>
   <g id="cell25">
  <circle cx="451.463" cy="554.174" r="8.41271" stroke-width="0.5" stroke="black" fill="yellow"/>
  <circle cx="451.463" cy="554.174" r="5.05167" stroke-width="0.5" stroke="yellow" fill="yellow"/>
   </g>
   <g id="cell26">
  <circle cx="452.244" cy="568.962" r="8.41271" stroke-width="0.5" stroke="black" fill="Red"/>
  <circle cx="452.244" cy="568.962" r="5.05167" stroke-width="0.5" stroke="Red" fill="Red"/>
   </g>
   <g id="cell27">
  <circle cx="464.11" cy="409.55" r="8.41271" stroke-width="0.5" stroke="black" fill="yellow"/>
  <circle cx="464.11" cy="409.55" r="5.05167" stroke-width="0.5" stroke="yellow" fill="yellow"/>
   </g>
   <g id="cell28">
  <circle cx="465.981" cy="423.186" r="8.41271" stroke-width="0.5" stroke="black" fill="Red"/>
  <circle cx="465.981" cy="423.186" r="5.05167" stroke-width="0.5" stroke="Red" fill="Red"/>
   </g>
   <g id="cell29">
  <circle cx="456.376" cy="448.522" r="7.44242" stroke-width="0.5" stroke="black" fill="Red"/>
  <circle cx="456.376" cy="448.522" r="4.52373" stroke-width="0.5" stroke="Red" fill="Red"/>
   </g>
   <g id="cell30">
  <circle cx="460.088" cy="459.977" r="8.41271" stroke-width="0.5" stroke="black" fill="Red"/>
  <circle cx="460.088" cy="459.977" r="5.05167" stroke-width="0.5" stroke="Red" fill="Red"/>
   </g>
   <g id="cell31">
  <circle cx="463.767" cy="470.871" r="8.41271" stroke-width="0.5" stroke="black" fill="Red"/>
  <circle cx="463.767" cy="470.871" r="5.05167" stroke-width="0.5" stroke="Red" fill="Red"/>
   </g>
   <g id="cell32">
  <circle cx="467.607" cy="482.421" r="8.41271" stroke-width="0.5" stroke="black" fill="Red"/>
  <circle cx="467.607" cy="482.421" r="5.05167" stroke-width="0.5" stroke="Red" fill="Red"/>
   </g>
   <g id="cell33">
  <circle cx="460.426" cy="493.667" r="8.41271" stroke-width="0.5" stroke="black" fill="blue"/>
  <circle cx="460.426" cy="493.667" r="5.05167" stroke-width="0.5" stroke="blue" fill="blue"/>
   </g>
   <g id="cell34">
  <circle cx="458.016" cy="516.235" r="6.69288" stroke-width="0.5" stroke="black" fill="Red"/>
  <circle cx="458.016" cy="516.235" r="4.02051" stroke-width="0.5" stroke="Red" fill="Red"/>
   </g>
   <g id="cell35">
  <circle cx="462.792" cy="534.34" r="6.95901" stroke-width="0.5" stroke="black" fill="blue"/>
  <circle cx="462.792" cy="534.34" r="4.21341" stroke-width="0.5" stroke="blue" fill="blue"/>
   </g>
   <g id="cell36">
  <circle cx="462.192" cy="546.549" r="8.41271" stroke-width="0.5" stroke="black" fill="Red"/>
  <circle cx="462.192" cy="546.549" r="5.05167" stroke-width="0.5" stroke="Red" fill="Red"/>
   </g>
   <g id="cell37">
  <circle cx="464.339" cy="561.225" r="8.41271" stroke-width="0.5" stroke="black" fill="blue"/>
  <circle cx="464.339" cy="561.225" r="5.05167" stroke-width="0.5" stroke="blue" fill="blue"/>
   </g>
   <g id="cell38">
  <circle cx="466.884" cy="575.212" r="8.41271" stroke-width="0.5" stroke="black" fill="yellow"/>
  <circle cx="466.884" cy="575.212" r="5.05167" stroke-width="0.5" stroke="yellow" fill="yellow"/>
   </g>
   <g id="cell39">
  <circle cx="466.168" cy="587.649" r="7.24243" stroke-width="0.5" stroke="black" fill="blue"/>
  <circle cx="466.168" cy="587.649" r="4.39934" stroke-width="0.5" stroke="blue" fill="blue"/>
   </g>
   <g id="cell40">
  <circle cx="475.274" cy="402.045" r="8.41271" stroke-width="0.5" stroke="black" fill="blue"/>
  <circle cx="475.274" cy="402.045" r="5.05167" stroke-width="0.5" stroke="blue" fill="blue"/>
   </g>
   <g id="cell41">
  <circle cx="478.282" cy="415.921" r="8.41271" stroke-width="0.5" stroke="black" fill="Red"/>
  <circle cx="478.282" cy="415.921" r="5.05167" stroke-width="0.5" stroke="Red" fill="Red"/>
   </g>
   <g id="cell42">
  <circle cx="478.274" cy="442.451" r="6.80881" stroke-width="0.5" stroke="black" fill="Red"/>
  <circle cx="478.274" cy="442.451" r="4.10709" stroke-width="0.5" stroke="Red" fill="Red"/>
   </g>
   <g id="cell43">
  <circle cx="472.574" cy="454.349" r="8.41271" stroke-width="0.5" stroke="black" fill="Red"/>
  <circle cx="472.574" cy="454.349" r="5.05167" stroke-width="0.5" stroke="Red" fill="Red"/>
   </g>
   <g id="cell44">
  <circle cx="474.601" cy="466.85" r="8.41271" stroke-width="0.5" stroke="black" fill="blue"/>
  <circle cx="474.601" cy="466.85" r="5.05167" stroke-width="0.5" stroke="blue" fill="blue"/>
   </g>
   <g id="cell45">
  <circle cx="478.603" cy="478.354" r="8.41271" stroke-width="0.5" stroke="black" fill="Red"/>
  <circle cx="478.603" cy="478.354" r="5.05167" stroke-width="0.5" stroke="Red" fill="Red"/>
   </g>
   <g id="cell46">
  <circle cx="474.228" cy="494.61" r="8.41271" stroke-width="0.5" stroke="black" fill="Red"/>
  <circle cx="474.228" cy="494.61" r="5.05167" stroke-width="0.5" stroke="Red" fill="Red"/>
   </g>
   <g id="cell47">
  <circle cx="466.038" cy="506.527" r="7.87851" stroke-width="0.5" stroke="black" fill="Red"/>
  <circle cx="466.038" cy="506.527" r="4.78096" stroke-width="0.5" stroke="Red" fill="Red"/>
   </g>
   <g id="cell48">
  <circle cx="481.36" cy="519.933" r="7.61469" stroke-width="0.5" stroke="black" fill="Red"/>
  <circle cx="481.36" cy="519.933" r="4.62762" stroke-width="0.5" stroke="Red" fill="Red"/>
   </g>
   <g id="cell49">
  <circle cx="474.488" cy="540.874" r="8.41271" stroke-width="0.5" stroke="black" fill="Red"/>
  <circle cx="474.488" cy="540.874" r="5.05167" stroke-width="0.5" stroke="Red" fill="Red"/>
   </g>
   <g id="cell50">
  <circle cx="483.386" cy="553.644" r="6.86652" stroke-width="0.5" stroke="black" fill="blue"/>
  <circle cx="483.386" cy="553.644" r="4.14883" stroke-width="0.5" stroke="blue" fill="blue"/>
   </g>
   <g id="cell51">
  <circle cx="476.669" cy="565.466" r="8.41271" stroke-width="0.5" stroke="black" fill="Red"/>
  <circle cx="476.669" cy="565.466" r="5.05167" stroke-width="0.5" stroke="Red" fill="Red"/>
   </g>
   <g id="cell52">
  <circle cx="478.138" cy="583.794" r="8.41271" stroke-width="0.5" stroke="black" fill="Red"/>
  <circle cx="478.138" cy="583.794" r="5.05167" stroke-width="0.5" stroke="Red" fill="Red"/>
   </g>
   <g id="cell53">
  <circle cx="489.519" cy="406.589" r="8.41271" stroke-width="0.5" stroke="black" fill="yellow"/>
  <circle cx="489.519" cy="406.589" r="5.05167" stroke-width="0.5" stroke="yellow" fill="yellow"/>
   </g>
   <g id="cell54">
  <circle cx="483.779" cy="430.261" r="8.41271" stroke-width="0.5" stroke="black" fill="Red"/>
  <circle cx="483.779" cy="430.261" r="5.05167" stroke-width="0.5" stroke="Red" fill="Red"/>
   </g>
   <g id="cell55">
  <circle cx="486.382" cy="447.422" r="7.44242" stroke-width="0.5" stroke="black" fill="Red"/>
  <circle cx="486.382" cy="447.422" r="4.52373" stroke-width="0.5" stroke="Red" fill="Red"/>
   </g>
   <g id="cell56">
  <circle cx="495.988" cy="458.987" r="7.70049" stroke-width="0.5" stroke="black" fill="blue"/>
  <circle cx="495.988" cy="458.987" r="4.67828" stroke-width="0.5" stroke="blue" fill="blue"/>
   </g>
   <g id="cell57">
  <circle cx="487.908" cy="469.633" r="8.41271" stroke-width="0.5" stroke="black" fill="Red"/>
  <circle cx="487.908" cy="469.633" r="5.05167" stroke-width="0.5" stroke="Red" fill="Red"/>
   </g>
   <g id="cell58">
  <circle cx="484.865" cy="487.767" r="8.41271" stroke-width="0.5" stroke="black" fill="Red"/>
  <circle cx="484.865" cy="487.767" r="5.05167" stroke-width="0.5" stroke="Red" fill="Red"/>
   </g>
   <g id="cell59">
  <circle cx="485.715" cy="499.002" r="6.89675" stroke-width="0.5" stroke="black" fill="Red"/>
  <circle cx="485.715" cy="499.002" r="4.17024" stroke-width="0.5" stroke="Red" fill="Red"/>
   </g>
   <g id="cell60">
  <circle cx="489.704" cy="512.876" r="8.41271" stroke-width="0.5" stroke="black" fill="Red"/>
  <circle cx="489.704" cy="512.876" r="5.05167" stroke-width="0.5" stroke="Red" fill="Red"/>
   </g>
   <g id="cell61">
  <circle cx="484.705" cy="530.741" r="8.41271" stroke-width="0.5" stroke="black" fill="blue"/>
  <circle cx="484.705" cy="530.741" r="5.05167" stroke-width="0.5" stroke="blue" fill="blue"/>
   </g>
   <g id="cell62">
  <circle cx="486.187" cy="543.993" r="8.41271" stroke-width="0.5" stroke="black" fill="Red"/>
  <circle cx="486.187" cy="543.993" r="5.05167" stroke-width="0.5" stroke="Red" fill="Red"/>
   </g>
   <g id="cell63">
  <circle cx="490.033" cy="561.483" r="8.41271" stroke-width="0.5" stroke="black" fill="Red"/>
  <circle cx="490.033" cy="561.483" r="5.05167" stroke-width="0.5" stroke="Red" fill="Red"/>
   </g>
   <g id="cell64">
  <circle cx="486.047" cy="574.129" r="8.41271" stroke-width="0.5" stroke="black" fill="blue"/>
  <circle cx="486.047" cy="574.129" r="5.05167" stroke-width="0.5" stroke="blue" fill="blue"/>
   </g>
   <g id="cell65">
  <circle cx="486.084" cy="594.519" r="6.73287" stroke-width="0.5" stroke="black" fill="Red"/>
  <circle cx="486.084" cy="594.519" r="4.05039" stroke-width="0.5" stroke="Red" fill="Red"/>
   </g>
   <g id="cell66">
  <circle cx="503.254" cy="412.258" r="8.41271" stroke-width="0.5" stroke="black" fill="blue"/>
  <circle cx="503.254" cy="412.258" r="5.05167" stroke-width="0.5" stroke="blue" fill="blue"/>
   </g>
   <g id="cell67">
  <circle cx="492.662" cy="420.532" r="8.41271" stroke-width="0.5" stroke="black" fill="Red"/>
  <circle cx="492.662" cy="420.532" r="5.05167" stroke-width="0.5" stroke="Red" fill="Red"/>
   </g>
   <g id="cell68">
  <circle cx="500.72" cy="428.504" r="8.41271" stroke-width="0.5" stroke="black" fill="Red"/>
  <circle cx="500.72" cy="428.504" r="5.05167" stroke-width="0.5" stroke="Red" fill="Red"/>
   </g>
   <g id="cell69">
  <circle cx="498.474" cy="447.711" r="8.41271" stroke-width="0.5" stroke="black" fill="Red"/>
  <circle cx="498.474" cy="447.711" r="5.05167" stroke-width="0.5" stroke="Red" fill="Red"/>
   </g>
   <g id="cell70">
  <circle cx="501.418" cy="467.277" r="8.41271" stroke-width="0.5" stroke="black" fill="blue"/>
  <circle cx="501.418" cy="467.277" r="5.05167" stroke-width="0.5" stroke="blue" fill="blue"/>
   </g>
   <g id="cell71">
  <circle cx="494.024" cy="479.547" r="8.41271" stroke-width="0.5" stroke="black" fill="Red"/>
  <circle cx="494.024" cy="479.547" r="5.05167" stroke-width="0.5" stroke="Red" fill="Red"/>
   </g>
   <g id="cell72">
  <circle cx="497.23" cy="492.494" r="8.41271" stroke-width="0.5" stroke="black" fill="Red"/>
  <circle cx="497.23" cy="492.494" r="5.05167" stroke-width="0.5" stroke="Red" fill="Red"/>
   </g>
   <g id="cell73">
  <circle cx="502.808" cy="509.059" r="8.41271" stroke-width="0.5" stroke="black" fill="Red"/>
  <circle cx="502.808" cy="509.059" r="5.05167" stroke-width="0.5" stroke="Red" fill="Red"/>
   </g>
   <g id="cell74">
  <circle cx="496.256" cy="522.816" r="8.41271" stroke-width="0.5" stroke="black" fill="Red"/>
  <circle cx="496.256" cy="522.816" r="5.05167" stroke-width="0.5" stroke="Red" fill="Red"/>
   </g>
   <g id="cell75">
  <circle cx="497.243" cy="536.608" r="8.41271" stroke-width="0.5" stroke="black" fill="Red"/>
  <circle cx="497.243" cy="536.608" r="5.05167" stroke-width="0.5" stroke="Red" fill="Red"/>
   </g>
   <g id="cell76">
  <circle cx="495.917" cy="550.151" r="8.41271" stroke-width="0.5" stroke="black" fill="Red"/>
  <circle cx="495.917" cy="550.151" r="5.05167" stroke-width="0.5" stroke="Red" fill="Red"/>
   </g>
   <g id="cell77">
  <circle cx="499.518" cy="568.438" r="7.59183" stroke-width="0.5" stroke="black" fill="Red"/>
  <circle cx="499.518" cy="568.438" r="4.61399" stroke-width="0.5" stroke="Red" fill="Red"/>
   </g>
   <g id="cell78">
  <circle cx="501.303" cy="580.145" r="8.41271" stroke-width="0.5" stroke="black" fill="Red"/>
  <circle cx="501.303" cy="580.145" r="5.05167" stroke-width="0.5" stroke="Red" fill="Red"/>
   </g>
   <g id="cell79">
  <circle cx="501.615" cy="594.114" r="8.41271" stroke-width="0.5" stroke="black" fill="blue"/>
  <circle cx="501.615" cy="594.114" r="5.05167" stroke-width="0.5" stroke="blue" fill="blue"/>
   </g>
   <g id="cell80">
  <circle cx="516.911" cy="411.673" r="7.08639" stroke-width="0.5" stroke="black" fill="Red"/>
  <circle cx="516.911" cy="411.673" r="4.29876" stroke-width="0.5" stroke="Red" fill="Red"/>
   </g>
   <g id="cell81">
  <circle cx="514.405" cy="433.1" r="8.41271" stroke-width="0.5" stroke="black" fill="Red"/>
  <circle cx="514.405" cy="433.1" r="5.05167" stroke-width="0.5" stroke="Red" fill="Red"/>
   </g>
   <g id="cell82">
  <circle cx="511.396" cy="444.74" r="6.78181" stroke-width="0.5" stroke="black" fill="Red"/>
  <circle cx="511.396" cy="444.74" r="4.08714" stroke-width="0.5" stroke="Red" fill="Red"/>
   </g>
   <g id="cell83">
  <circle cx="509.032" cy="455.501" r="8.41271" stroke-width="0.5" stroke="black" fill="Red"/>
  <circle cx="509.032" cy="455.501" r="5.05167" stroke-width="0.5" stroke="Red" fill="Red"/>
   </g>
   <g id="cell84">
  <circle cx="515.906" cy="466.774" r="8.41271" stroke-width="0.5" stroke="black" fill="Red"/>
  <circle cx="515.906" cy="466.774" r="5.05167" stroke-width="0.5" stroke="Red" fill="Red"/>
   </g>
   <g id="cell85">
  <circle cx="506.299" cy="477.479" r="8.41271" stroke-width="0.5" stroke="black" fill="Red"/>
  <circle cx="506.299" cy="477.479" r="5.05167" stroke-width="0.5" stroke="Red" fill="Red"/>
   </g>
   <g id="cell86">
  <circle cx="510.284" cy="497.349" r="8.41271" stroke-width="0.5" stroke="black" fill="Red"/>
  <circle cx="510.284" cy="497.349" r="5.05167" stroke-width="0.5" stroke="Red" fill="Red"/>
   </g>
   <g id="cell87">
  <circle cx="514.787" cy="509.91" r="7.65871" stroke-width="0.5" stroke="black" fill="Red"/>
  <circle cx="514.787" cy="509.91" r="4.6537" stroke-width="0.5" stroke="Red" fill="Red"/>
   </g>
   <g id="cell88">
  <circle cx="509.736" cy="532.656" r="8.41271" stroke-width="0.5" stroke="black" fill="Red"/>
  <circle cx="509.736" cy="532.656" r="5.05167" stroke-width="0.5" stroke="Red" fill="Red"/>
   </g>
   <g id="cell89">
  <circle cx="507.576" cy="545.821" r="8.41271" stroke-width="0.5" stroke="black" fill="Red"/>
  <circle cx="507.576" cy="545.821" r="5.05167" stroke-width="0.5" stroke="Red" fill="Red"/>
   </g>
   <g id="cell90">
  <circle cx="516.037" cy="556.246" r="8.41271" stroke-width="0.5" stroke="black" fill="Red"/>
  <circle cx="516.037" cy="556.246" r="5.05167" stroke-width="0.5" stroke="Red" fill="Red"/>
   </g>
   <g id="cell91">
  <circle cx="512.799" cy="570.499" r="8.41271" stroke-width="0.5" stroke="black" fill="yellow"/>
  <circle cx="512.799" cy="570.499" r="5.05167" stroke-width="0.5" stroke="yellow" fill="yellow"/>
   </g>
   <g id="cell92">
  <circle cx="513.281" cy="585.525" r="8.41271" stroke-width="0.5" stroke="black" fill="yellow"/>
  <circle cx="513.281" cy="585.525" r="5.05167" stroke-width="0.5" stroke="yellow" fill="yellow"/>
   </g>
   <g id="cell93">
  <circle cx="530.867" cy="411.921" r="8.41271" stroke-width="0.5" stroke="black" fill="blue"/>
  <circle cx="530.867" cy="411.921" r="5.05167" stroke-width="0.5" stroke="blue" fill="blue"/>
   </g>
   <g id="cell94">
  <circle cx="537.184" cy="423.035" r="7.67987" stroke-width="0.5" stroke="black" fill="Red"/>
  <circle cx="537.184" cy="423.035" r="4.66617" stroke-width="0.5" stroke="Red" fill="Red"/>
   </g>
   <g id="cell95">
  <circle cx="527.782" cy="433.754" r="8.41271" stroke-width="0.5" stroke="black" fill="Red"/>
  <circle cx="527.782" cy="433.754" r="5.05167" stroke-width="0.5" stroke="Red" fill="Red"/>
   </g>
   <g id="cell96">
  <circle cx="521.924" cy="444.044" r="7.1075" stroke-width="0.5" stroke="black" fill="blue"/>
  <circle cx="521.924" cy="444.044" r="4.35322" stroke-width="0.5" stroke="blue" fill="blue"/>
   </g>
   <g id="cell97">
  <circle cx="530.132" cy="463.005" r="8.41271" stroke-width="0.5" stroke="black" fill="Red"/>
  <circle cx="530.132" cy="463.005" r="5.05167" stroke-width="0.5" stroke="Red" fill="Red"/>
   </g>
   <g id="cell98">
  <circle cx="520.49" cy="492.173" r="6.69099" stroke-width="0.5" stroke="black" fill="blue"/>
  <circle cx="520.49" cy="492.173" r="4.10569" stroke-width="0.5" stroke="blue" fill="blue"/>
   </g>
   <g id="cell99">
  <circle cx="531.235" cy="496.467" r="8.41271" stroke-width="0.5" stroke="black" fill="Red"/>
  <circle cx="531.235" cy="496.467" r="5.05167" stroke-width="0.5" stroke="Red" fill="Red"/>
   </g>
   <g id="cell100">
  <circle cx="523.329" cy="503.218" r="6.95901" stroke-width="0.5" stroke="black" fill="blue"/>
  <circle cx="523.329" cy="503.218" r="4.21341" stroke-width="0.5" stroke="blue" fill="blue"/>
   </g>
   <g id="cell101">
  <circle cx="521.193" cy="527.744" r="8.41271" stroke-width="0.5" stroke="black" fill="Red"/>
  <circle cx="521.193" cy="527.744" r="5.05167" stroke-width="0.5" stroke="Red" fill="Red"/>
   </g>
   <g id="cell102">
  <circle cx="531.699" cy="536.501" r="7.83019" stroke-width="0.5" stroke="black" fill="Red"/>
  <circle cx="531.699" cy="536.501" r="4.75343" stroke-width="0.5" stroke="Red" fill="Red"/>
   </g>
   <g id="cell103">
  <circle cx="530.196" cy="550.125" r="8.41271" stroke-width="0.5" stroke="black" fill="Red"/>
  <circle cx="530.196" cy="550.125" r="5.05167" stroke-width="0.5" stroke="Red" fill="Red"/>
   </g>
   <g id="cell104">
  <circle cx="527.245" cy="565.026" r="8.41271" stroke-width="0.5" stroke="black" fill="yellow"/>
  <circle cx="527.245" cy="565.026" r="5.05167" stroke-width="0.5" stroke="yellow" fill="yellow"/>
   </g>
   <g id="cell105">
  <circle cx="526.046" cy="580.159" r="8.41271" stroke-width="0.5" stroke="black" fill="blue"/>
  <circle cx="526.046" cy="580.159" r="5.05167" stroke-width="0.5" stroke="blue" fill="blue"/>
   </g>
   <g id="cell106">
  <circle cx="544.712" cy="413.377" r="6.99069" stroke-width="0.5" stroke="black" fill="yellow"/>
  <circle cx="544.712" cy="413.377" r="4.23498" stroke-width="0.5" stroke="yellow" fill="yellow"/>
   </g>
   <g id="cell107">
  <circle cx="541.414" cy="435.65" r="8.41271" stroke-width="0.5" stroke="black" fill="Red"/>
  <circle cx="541.414" cy="435.65" r="5.05167" stroke-width="0.5" stroke="Red" fill="Red"/>
   </g>
   <g id="cell108">
  <circle cx="533.268" cy="446.881" r="8.41271" stroke-width="0.5" stroke="black" fill="Red"/>
  <circle cx="533.268" cy="446.881" r="5.05167" stroke-width="0.5" stroke="Red" fill="Red"/>
   </g>
   <g id="cell109">
  <circle cx="546.49" cy="467.342" r="8.41271" stroke-width="0.5" stroke="black" fill="Red"/>
  <circle cx="546.49" cy="467.342" r="5.05167" stroke-width="0.5" stroke="Red" fill="Red"/>
   </g>
   <g id="cell110">
  <circle cx="527.267" cy="483.293" r="8.41271" stroke-width="0.5" stroke="black" fill="Red"/>
  <circle cx="527.267" cy="483.293" r="5.05167" stroke-width="0.5" stroke="Red" fill="Red"/>
   </g>
   <g id="cell111">
  <circle cx="539.618" cy="488.168" r="8.41271" stroke-width="0.5" stroke="black" fill="Red"/>
  <circle cx="539.618" cy="488.168" r="5.05167" stroke-width="0.5" stroke="Red" fill="Red"/>
   </g>
   <g id="cell112">
  <circle cx="539.88" cy="504.901" r="8.41271" stroke-width="0.5" stroke="black" fill="Red"/>
  <circle cx="539.88" cy="504.901" r="5.05167" stroke-width="0.5" stroke="Red" fill="Red"/>
   </g>
   <g id="cell113">
  <circle cx="530.203" cy="512.674" r="8.41271" stroke-width="0.5" stroke="black" fill="Red"/>
  <circle cx="530.203" cy="512.674" r="5.05167" stroke-width="0.5" stroke="Red" fill="Red"/>
   </g>
   <g id="cell114">
  <circle cx="533.551" cy="524.248" r="8.41271" stroke-width="0.5" stroke="black" fill="Red"/>
  <circle cx="533.551" cy="524.248" r="5.05167" stroke-width="0.5" stroke="Red" fill="Red"/>
   </g>
   <g id="cell115">
  <circle cx="542.315" cy="543.026" r="8.41271" stroke-width="0.5" stroke="black" fill="blue"/>
  <circle cx="542.315" cy="543.026" r="5.05167" stroke-width="0.5" stroke="blue" fill="blue"/>
   </g>
   <g id="cell116">
  <circle cx="540.71" cy="557.68" r="8.41271" stroke-width="0.5" stroke="black" fill="Red"/>
  <circle cx="540.71" cy="557.68" r="5.05167" stroke-width="0.5" stroke="Red" fill="Red"/>
   </g>
   <g id="cell117">
  <circle cx="540.211" cy="571.613" r="8.41271" stroke-width="0.5" stroke="black" fill="Red"/>
  <circle cx="540.211" cy="571.613" r="5.05167" stroke-width="0.5" stroke="Red" fill="Red"/>
   </g>
   <g id="cell118">
  <circle cx="551.526" cy="426.404" r="8.41271" stroke-width="0.5" stroke="black" fill="yellow"/>
  <circle cx="551.526" cy="426.404" r="5.05167" stroke-width="0.5" stroke="yellow" fill="yellow"/>
   </g>
   <g id="cell119">
  <circle cx="555.92" cy="439.679" r="8.41271" stroke-width="0.5" stroke="black" fill="Red"/>
  <circle cx="555.92" cy="439.679" r="5.05167" stroke-width="0.5" stroke="Red" fill="Red"/>
   </g>
   <g id="cell120">
  <circle cx="553.464" cy="458.419" r="7.65871" stroke-width="0.5" stroke="black" fill="Red"/>
  <circle cx="553.464" cy="458.419" r="4.6537" stroke-width="0.5" stroke="Red" fill="Red"/>
   </g>
   <g id="cell121">
  <circle cx="558.51" cy="472.51" r="8.41271" stroke-width="0.5" stroke="black" fill="Red"/>
  <circle cx="558.51" cy="472.51" r="5.05167" stroke-width="0.5" stroke="Red" fill="Red"/>
   </g>
   <g id="cell122">
  <circle cx="548.616" cy="480.369" r="8.41271" stroke-width="0.5" stroke="black" fill="Red"/>
  <circle cx="548.616" cy="480.369" r="5.05167" stroke-width="0.5" stroke="Red" fill="Red"/>
   </g>
   <g id="cell123">
  <circle cx="549.586" cy="495.774" r="8.41271" stroke-width="0.5" stroke="black" fill="Red"/>
  <circle cx="549.586" cy="495.774" r="5.05167" stroke-width="0.5" stroke="Red" fill="Red"/>
   </g>
   <g id="cell124">
  <circle cx="552.982" cy="509.231" r="8.41271" stroke-width="0.5" stroke="black" fill="Red"/>
  <circle cx="552.982" cy="509.231" r="5.05167" stroke-width="0.5" stroke="Red" fill="Red"/>
   </g>
   <g id="cell125">
  <circle cx="544.306" cy="519.136" r="7.67987" stroke-width="0.5" stroke="black" fill="blue"/>
  <circle cx="544.306" cy="519.136" r="4.66617" stroke-width="0.5" stroke="blue" fill="blue"/>
   </g>
   <g id="cell126">
  <circle cx="546.1" cy="531.239" r="8.41271" stroke-width="0.5" stroke="black" fill="Red"/>
  <circle cx="546.1" cy="531.239" r="5.05167" stroke-width="0.5" stroke="Red" fill="Red"/>
   </g>
   <g id="cell127">
  <circle cx="552.09" cy="550.748" r="8.41271" stroke-width="0.5" stroke="black" fill="Red"/>
  <circle cx="552.09" cy="550.748" r="5.05167" stroke-width="0.5" stroke="Red" fill="Red"/>
   </g>
   <g id="cell128">
  <circle cx="554.178" cy="563.121" r="8.41271" stroke-width="0.5" stroke="black" fill="blue"/>
  <circle cx="554.178" cy="563.121" r="5.05167" stroke-width="0.5" stroke="blue" fill="blue"/>
   </g>
   <g id="cell129">
  <circle cx="575.744" cy="454.419" r="7.63698" stroke-width="0.5" stroke="black" fill="Red"/>
  <circle cx="575.744" cy="454.419" r="4.64085" stroke-width="0.5" stroke="Red" fill="Red"/>
   </g>
   <g id="cell130">
  <circle cx="564.721" cy="462.21" r="8.41271" stroke-width="0.5" stroke="black" fill="Red"/>
  <circle cx="564.721" cy="462.21" r="5.05167" stroke-width="0.5" stroke="Red" fill="Red"/>
   </g>
   <g id="cell131">
  <circle cx="569.127" cy="478.383" r="8.41271" stroke-width="0.5" stroke="black" fill="Red"/>
  <circle cx="569.127" cy="478.383" r="5.05167" stroke-width="0.5" stroke="Red" fill="Red"/>
   </g>
   <g id="cell132">
  <circle cx="558.864" cy="486.655" r="8.41271" stroke-width="0.5" stroke="black" fill="Red"/>
  <circle cx="558.864" cy="486.655" r="5.05167" stroke-width="0.5" stroke="Red" fill="Red"/>
   </g>
   <g id="cell133">
  <circle cx="563.021" cy="499.426" r="8.41271" stroke-width="0.5" stroke="black" fill="blue"/>
  <circle cx="563.021" cy="499.426" r="5.05167" stroke-width="0.5" stroke="blue" fill="blue"/>
   </g>
   <g id="cell134">
  <circle cx="565.904" cy="514.016" r="8.41271" stroke-width="0.5" stroke="black" fill="yellow"/>
  <circle cx="565.904" cy="514.016" r="5.05167" stroke-width="0.5" stroke="yellow" fill="yellow"/>
   </g>
   <g id="cell135">
  <circle cx="569.38" cy="528.592" r="8.41271" stroke-width="0.5" stroke="black" fill="Red"/>
  <circle cx="569.38" cy="528.592" r="5.05167" stroke-width="0.5" stroke="Red" fill="Red"/>
   </g>
   <g id="cell136">
  <circle cx="557.349" cy="537.586" r="8.41271" stroke-width="0.5" stroke="black" fill="Red"/>
  <circle cx="557.349" cy="537.586" r="5.05167" stroke-width="0.5" stroke="Red" fill="Red"/>
   </g>
   <g id="cell137">
  <circle cx="566.596" cy="558.584" r="6.71158" stroke-width="0.5" stroke="black" fill="Red"/>
  <circle cx="566.596" cy="558.584" r="4.03435" stroke-width="0.5" stroke="Red" fill="Red"/>
   </g>
   <g id="cell138">
  <circle cx="576.874" cy="467.863" r="8.41271" stroke-width="0.5" stroke="black" fill="blue"/>
  <circle cx="576.874" cy="467.863" r="5.05167" stroke-width="0.5" stroke="blue" fill="blue"/>
   </g>
   <g id="cell139">
  <circle cx="582.96" cy="480.33" r="8.41271" stroke-width="0.5" stroke="black" fill="Red"/>
  <circle cx="582.96" cy="480.33" r="5.05167" stroke-width="0.5" stroke="Red" fill="Red"/>
   </g>
   <g id="cell140">
  <circle cx="572.885" cy="491.052" r="7.89373" stroke-width="0.5" stroke="black" fill="yellow"/>
  <circle cx="572.885" cy="491.052" r="4.78957" stroke-width="0.5" stroke="yellow" fill="yellow"/>
   </g>
   <g id="cell141">
  <circle cx="576.31" cy="504.812" r="8.41271" stroke-width="0.5" stroke="black" fill="yellow"/>
  <circle cx="576.31" cy="504.812" r="5.05167" stroke-width="0.5" stroke="yellow" fill="yellow"/>
   </g>
   <g id="cell142">
  <circle cx="579.502" cy="517.733" r="7.49456" stroke-width="0.5" stroke="black" fill="blue"/>
  <circle cx="579.502" cy="517.733" r="4.55548" stroke-width="0.5" stroke="blue" fill="blue"/>
   </g>
   <g id="cell143">
  <circle cx="574.073" cy="541.49" r="8.41271" stroke-width="0.5" stroke="black" fill="blue"/>
  <circle cx="574.073" cy="541.49" r="5.05167" stroke-width="0.5" stroke="blue" fill="blue"/>
   </g>
   <g id="cell144">
  <circle cx="432.052" cy="435.098" r="6.72462" stroke-width="0.5" stroke="black" fill="blue"/>
  <circle cx="432.052" cy="435.098" r="4.11507" stroke-width="0.5" stroke="blue" fill="blue"/>
   </g>
   <g id="cell145">
  <circle cx="586.023" cy="495.628" r="7.89373" stroke-width="0.5" stroke="black" fill="blue"/>
  <circle cx="586.023" cy="495.628" r="4.78957" stroke-width="0.5" stroke="blue" fill="blue"/>
   </g>
   <g id="cell146">
  <circle cx="478.544" cy="507.224" r="7.16462" stroke-width="0.5" stroke="black" fill="blue"/>
  <circle cx="478.544" cy="507.224" r="4.38758" stroke-width="0.5" stroke="blue" fill="blue"/>
   </g>
   <g id="cell147">
  <circle cx="539.914" cy="457.934" r="7.52964" stroke-width="0.5" stroke="black" fill="Red"/>
  <circle cx="539.914" cy="457.934" r="4.60108" stroke-width="0.5" stroke="Red" fill="Red"/>
   </g>
   <g id="cell148">
  <circle cx="519.4" cy="540.727" r="7.83019" stroke-width="0.5" stroke="black" fill="blue"/>
  <circle cx="519.4" cy="540.727" r="4.75343" stroke-width="0.5" stroke="blue" fill="blue"/>
   </g>
   <g id="cell149">
  <circle cx="536.368" cy="474.234" r="7.52964" stroke-width="0.5" stroke="black" fill="blue"/>
  <circle cx="536.368" cy="474.234" r="4.60108" stroke-width="0.5" stroke="blue" fill="blue"/>
   </g>
   <g id="cell150">
  <circle cx="443.672" cy="512.221" r="7.7401" stroke-width="0.5" stroke="black" fill="blue"/>
  <circle cx="443.672" cy="512.221" r="4.70142" stroke-width="0.5" stroke="blue" fill="blue"/>
   </g>
   <g id="cell151">
  <circle cx="452.061" cy="415.688" r="7.7401" stroke-width="0.5" stroke="black" fill="blue"/>
  <circle cx="452.061" cy="415.688" r="4.70142" stroke-width="0.5" stroke="blue" fill="blue"/>
   </g>
   <g id="cell152">
  <circle cx="484.843" cy="457.822" r="7.70049" stroke-width="0.5" stroke="black" fill="Red"/>
  <circle cx="484.843" cy="457.822" r="4.67828" stroke-width="0.5" stroke="Red" fill="Red"/>
   </g>
   <g id="cell153">
  <circle cx="522.873" cy="422.594" r="7.67987" stroke-width="0.5" stroke="black" fill="yellow"/>
  <circle cx="522.873" cy="422.594" r="4.66617" stroke-width="0.5" stroke="yellow" fill="yellow"/>
   </g>
   <g id="cell154">
  <circle cx="557.262" cy="523.302" r="7.67987" stroke-width="0.5" stroke="black" fill="blue"/>
  <circle cx="557.262" cy="523.302" r="4.66617" stroke-width="0.5" stroke="blue" fill="blue"/>
   </g>
   <g id="cell155">
  <circle cx="440.713" cy="423.127" r="7.28808" stroke-width="0.5" stroke="black" fill="yellow"/>
  <circle cx="440.713" cy="423.127" r="4.46226" stroke-width="0.5" stroke="yellow" fill="yellow"/>
   </g>
   <g id="cell156">
  <circle cx="509.199" cy="521.564" r="7.65871" stroke-width="0.5" stroke="black" fill="blue"/>
  <circle cx="509.199" cy="521.564" r="4.6537" stroke-width="0.5" stroke="blue" fill="blue"/>
   </g>
   <g id="cell157">
  <circle cx="546.488" cy="448.68" r="7.65871" stroke-width="0.5" stroke="black" fill="blue"/>
  <circle cx="546.488" cy="448.68" r="4.6537" stroke-width="0.5" stroke="blue" fill="blue"/>
   </g>
   <g id="cell158">
  <circle cx="558.345" cy="450.194" r="5.39553" stroke-width="0.5" stroke="black" fill="Red"/>
  <circle cx="558.345" cy="450.194" r="3.31296" stroke-width="0.5" stroke="Red" fill="Red"/>
   </g>
   <g id="cell159">
  <circle cx="473.332" cy="529.01" r="7.61469" stroke-width="0.5" stroke="black" fill="Red"/>
  <circle cx="473.332" cy="529.01" r="4.62762" stroke-width="0.5" stroke="Red" fill="Red"/>
   </g>
   <g id="cell160">
  <circle cx="504.66" cy="558.874" r="7.59183" stroke-width="0.5" stroke="black" fill="blue"/>
  <circle cx="504.66" cy="558.874" r="4.61399" stroke-width="0.5" stroke="blue" fill="blue"/>
   </g>
   <g id="cell161">
  <circle cx="516.96" cy="479.188" r="6.58243" stroke-width="0.5" stroke="black" fill="Red"/>
  <circle cx="516.96" cy="479.188" r="4.0383" stroke-width="0.5" stroke="Red" fill="Red"/>
   </g>
   <g id="cell162">
  <circle cx="582.34" cy="531.419" r="7.49456" stroke-width="0.5" stroke="black" fill="yellow"/>
  <circle cx="582.34" cy="531.419" r="4.55548" stroke-width="0.5" stroke="yellow" fill="yellow"/>
   </g>
   <g id="cell163">
  <circle cx="471.894" cy="516.596" r="7.16462" stroke-width="0.5" stroke="black" fill="Red"/>
  <circle cx="471.894" cy="516.596" r="4.38758" stroke-width="0.5" stroke="Red" fill="Red"/>
   </g>
   <g id="cell164">
  <circle cx="434.172" cy="494.056" r="7.49456" stroke-width="0.5" stroke="black" fill="Red"/>
  <circle cx="434.172" cy="494.056" r="4.55548" stroke-width="0.5" stroke="Red" fill="Red"/>
   </g>
   <g id="cell165">
  <circle cx="467.124" cy="444.786" r="7.44242" stroke-width="0.5" stroke="black" fill="blue"/>
  <circle cx="467.124" cy="444.786" r="4.52373" stroke-width="0.5" stroke="blue" fill="blue"/>
   </g>
   <g id="cell166">
  <circle cx="491.632" cy="437.417" r="7.44242" stroke-width="0.5" stroke="black" fill="blue"/>
  <circle cx="491.632" cy="437.417" r="4.52373" stroke-width="0.5" stroke="blue" fill="blue"/>
   </g>
   <g id="cell167">
  <circle cx="520.381" cy="453.95" r="7.1075" stroke-width="0.5" stroke="black" fill="Red"/>
  <circle cx="520.381" cy="453.95" r="4.35322" stroke-width="0.5" stroke="Red" fill="Red"/>
   </g>
   <g id="cell168">
  <circle cx="428.379" cy="528.637" r="6.58909" stroke-width="0.5" stroke="black" fill="Red"/>
  <circle cx="428.379" cy="528.637" r="4.04392" stroke-width="0.5" stroke="Red" fill="Red"/>
   </g>
   <g id="cell169">
  <circle cx="418.48" cy="458.531" r="7.30216" stroke-width="0.5" stroke="black" fill="blue"/>
  <circle cx="418.48" cy="458.531" r="4.43696" stroke-width="0.5" stroke="blue" fill="blue"/>
   </g>
   <g id="cell170">
  <circle cx="512.472" cy="487.151" r="5.36477" stroke-width="0.5" stroke="black" fill="Red"/>
  <circle cx="512.472" cy="487.151" r="3.29554" stroke-width="0.5" stroke="Red" fill="Red"/>
   </g>
   <g id="cell171">
  <circle cx="454.8" cy="582.395" r="7.24243" stroke-width="0.5" stroke="black" fill="Red"/>
  <circle cx="454.8" cy="582.395" r="4.39934" stroke-width="0.5" stroke="Red" fill="Red"/>
   </g>
   <g id="cell172">
  <circle cx="568.922" cy="443.287" r="6.73053" stroke-width="0.5" stroke="black" fill="blue"/>
  <circle cx="568.922" cy="443.287" r="4.12812" stroke-width="0.5" stroke="blue" fill="blue"/>
   </g>
   <g id="cell173">
  <circle cx="422.639" cy="519.192" r="6.58909" stroke-width="0.5" stroke="black" fill="Red"/>
  <circle cx="422.639" cy="519.192" r="4.04392" stroke-width="0.5" stroke="Red" fill="Red"/>
   </g>
   <g id="cell174">
  <circle cx="525.242" cy="472.449" r="6.58243" stroke-width="0.5" stroke="black" fill="blue"/>
  <circle cx="525.242" cy="472.449" r="4.0383" stroke-width="0.5" stroke="blue" fill="blue"/>
   </g>
   <g id="cell175">
  <circle cx="511.205" cy="421.86" r="7.08639" stroke-width="0.5" stroke="black" fill="Red"/>
  <circle cx="511.205" cy="421.86" r="4.29876" stroke-width="0.5" stroke="Red" fill="Red"/>
   </g>
   <g id="cell176">
  <circle cx="441.876" cy="435.268" r="6.72462" stroke-width="0.5" stroke="black" fill="Red"/>
  <circle cx="441.876" cy="435.268" r="4.11507" stroke-width="0.5" stroke="Red" fill="Red"/>
   </g>
   <g id="cell177">
  <circle cx="556.766" cy="415.08" r="6.99069" stroke-width="0.5" stroke="black" fill="blue"/>
  <circle cx="556.766" cy="415.08" r="4.23498" stroke-width="0.5" stroke="blue" fill="blue"/>
   </g>
   <g id="cell178">
  <circle cx="520.297" cy="518.662" r="6.95901" stroke-width="0.5" stroke="black" fill="Red"/>
  <circle cx="520.297" cy="518.662" r="4.21341" stroke-width="0.5" stroke="Red" fill="Red"/>
   </g>
   <g id="cell179">
  <circle cx="456.396" cy="528.129" r="6.95901" stroke-width="0.5" stroke="black" fill="Red"/>
  <circle cx="456.396" cy="528.129" r="4.21341" stroke-width="0.5" stroke="Red" fill="Red"/>
   </g>
   <g id="cell180">
  <circle cx="461.411" cy="435.348" r="6.95901" stroke-width="0.5" stroke="black" fill="Red"/>
  <circle cx="461.411" cy="435.348" r="4.21341" stroke-width="0.5" stroke="Red" fill="Red"/>
   </g>
   <g id="cell181">
  <circle cx="495.119" cy="502.414" r="6.89675" stroke-width="0.5" stroke="black" fill="blue"/>
  <circle cx="495.119" cy="502.414" r="4.17024" stroke-width="0.5" stroke="blue" fill="blue"/>
   </g>
   <g id="cell182">
  <circle cx="473.611" cy="552.971" r="6.86652" stroke-width="0.5" stroke="black" fill="Red"/>
  <circle cx="473.611" cy="552.971" r="4.14883" stroke-width="0.5" stroke="Red" fill="Red"/>
   </g>
   <g id="cell183">
  <circle cx="473.042" cy="433.75" r="6.80881" stroke-width="0.5" stroke="black" fill="blue"/>
  <circle cx="473.042" cy="433.75" r="4.10709" stroke-width="0.5" stroke="blue" fill="blue"/>
   </g>
   <g id="cell184">
  <circle cx="502.785" cy="438.551" r="6.78181" stroke-width="0.5" stroke="black" fill="Red"/>
  <circle cx="502.785" cy="438.551" r="4.08714" stroke-width="0.5" stroke="Red" fill="Red"/>
   </g>
   <g id="cell185">
  <circle cx="490.759" cy="585.721" r="6.73287" stroke-width="0.5" stroke="black" fill="yellow"/>
  <circle cx="490.759" cy="585.721" r="4.05039" stroke-width="0.5" stroke="yellow" fill="yellow"/>
   </g>
   <g id="cell186">
  <circle cx="504.758" cy="487.164" r="5.36477" stroke-width="0.5" stroke="black" fill="blue"/>
  <circle cx="504.758" cy="487.164" r="3.29554" stroke-width="0.5" stroke="blue" fill="blue"/>
   </g>
   <g id="cell187">
  <circle cx="566.284" cy="451.561" r="5.39553" stroke-width="0.5" stroke="black" fill="Red"/>
  <circle cx="566.284" cy="451.561" r="3.31296" stroke-width="0.5" stroke="Red" fill="Red"/>
   </g>
   <g id="cell188">
  <circle cx="563.005" cy="548.936" r="6.71158" stroke-width="0.5" stroke="black" fill="Red"/>
  <circle cx="563.005" cy="548.936" r="4.03435" stroke-width="0.5" stroke="Red" fill="Red"/>
   </g>
   <g id="cell189">
  <circle cx="464.642" cy="523.144" r="6.69288" stroke-width="0.5" stroke="black" fill="Red"/>
  <circle cx="464.642" cy="523.144" r="4.02051" stroke-width="0.5" stroke="Red" fill="Red"/>
   </g>
  </g>
 </g>
  <rect x="775" y="1035" width="200" height="10" stroke-width="2" stroke="rgb(255,255,255)" fill="rgb(0,0,0)"/>
  <text x="781.25" y="1028.75"
   font-family="Arial" font-size="25" fill="black" >
   200 &#956;m
  </text>
  <text x="25" y="1045"
   font-family="Arial" font-size="18.75" fill="black" >
   0 days, 0 hours, 1 minutes, and 54.1859 seconds
  </text>
  <rect x="0" y="70" width="1000" height="1000" stroke-width="2" stroke="rgb(0,0,0)" fill="none"/>
</svg>
