<?xml version="1.0" encoding="UTF-8" standalone="no"?>
<!-- Created with PhysiCell (http://PhysiCell.MathCancer.org/) -->
<svg 
 xmlns:dc="http://purl.org/dc/elements/1.1/" 
 xmlns:cc="http://creativecommons.org/ns#" 
 xmlns:rdf="http://www.w3.org/1999/02/22-rdf-syntax-ns#" 
 xmlns:svg="http://www.w3.org/2000/svg" 
 xmlns="http://www.w3.org/2000/svg" 
 version="1.1" 
 width="1000" 
 height="1070" 
 id="svg2">
  <rect x="0" y="0" width="1000" height="1070" stroke-width="2" stroke="white" fill="white"/>
  <text x="12.5" y="30"
   font-family="Arial" font-size="25" fill="black" >
   Current time: 0 days, 0 hours, and 50.00 minutes, z = 0.00 &#956;m
  </text>
  <text x="12.5" y="57.5"
   font-family="Arial" font-size="23.75" fill="black" >
   150 agents
  </text>
 <g id="tissue" 
    transform="translate(0,1070) scale(1,-1)">
  <g id="ECM">
  </g>
  <g id="cells">
   <g id="cell0">
  <circle cx="422.283" cy="455.22" r="8.41271" stroke-width="0.5" stroke="black" fill="blue"/>
  <circle cx="422.283" cy="455.22" r="5.05167" stroke-width="0.5" stroke="blue" fill="blue"/>
   </g>
   <g id="cell1">
  <circle cx="423.201" cy="469.17" r="8.41271" stroke-width="0.5" stroke="black" fill="Red"/>
  <circle cx="423.201" cy="469.17" r="5.05167" stroke-width="0.5" stroke="Red" fill="Red"/>
   </g>
   <g id="cell2">
  <circle cx="422.233" cy="482.389" r="8.41271" stroke-width="0.5" stroke="black" fill="blue"/>
  <circle cx="422.233" cy="482.389" r="5.05167" stroke-width="0.5" stroke="blue" fill="blue"/>
   </g>
   <g id="cell3">
  <circle cx="424.633" cy="496.245" r="8.41271" stroke-width="0.5" stroke="black" fill="Red"/>
  <circle cx="424.633" cy="496.245" r="5.05167" stroke-width="0.5" stroke="Red" fill="Red"/>
   </g>
   <g id="cell4">
  <circle cx="424.591" cy="508.883" r="8.41271" stroke-width="0.5" stroke="black" fill="blue"/>
  <circle cx="424.591" cy="508.883" r="5.05167" stroke-width="0.5" stroke="blue" fill="blue"/>
   </g>
   <g id="cell5">
  <circle cx="423.867" cy="522.765" r="8.41271" stroke-width="0.5" stroke="black" fill="Red"/>
  <circle cx="423.867" cy="522.765" r="5.05167" stroke-width="0.5" stroke="Red" fill="Red"/>
   </g>
   <g id="cell6">
  <circle cx="425.317" cy="536.591" r="8.41271" stroke-width="0.5" stroke="black" fill="blue"/>
  <circle cx="425.317" cy="536.591" r="5.05167" stroke-width="0.5" stroke="blue" fill="blue"/>
   </g>
   <g id="cell7">
  <circle cx="434.912" cy="448.452" r="6.80881" stroke-width="0.5" stroke="black" fill="Red"/>
  <circle cx="434.912" cy="448.452" r="4.10709" stroke-width="0.5" stroke="Red" fill="Red"/>
   </g>
   <g id="cell8">
  <circle cx="434.573" cy="461.416" r="8.41271" stroke-width="0.5" stroke="black" fill="Red"/>
  <circle cx="434.573" cy="461.416" r="5.05167" stroke-width="0.5" stroke="Red" fill="Red"/>
   </g>
   <g id="cell9">
  <circle cx="435.588" cy="475.651" r="8.41271" stroke-width="0.5" stroke="black" fill="Red"/>
  <circle cx="435.588" cy="475.651" r="5.05167" stroke-width="0.5" stroke="Red" fill="Red"/>
   </g>
   <g id="cell10">
  <circle cx="436.188" cy="489.637" r="8.41271" stroke-width="0.5" stroke="black" fill="Red"/>
  <circle cx="436.188" cy="489.637" r="5.05167" stroke-width="0.5" stroke="Red" fill="Red"/>
   </g>
   <g id="cell11">
  <circle cx="436.917" cy="503.231" r="8.41271" stroke-width="0.5" stroke="black" fill="Red"/>
  <circle cx="436.917" cy="503.231" r="5.05167" stroke-width="0.5" stroke="Red" fill="Red"/>
   </g>
   <g id="cell12">
  <circle cx="437.915" cy="515.362" r="8.41271" stroke-width="0.5" stroke="black" fill="Red"/>
  <circle cx="437.915" cy="515.362" r="5.05167" stroke-width="0.5" stroke="Red" fill="Red"/>
   </g>
   <g id="cell13">
  <circle cx="437.379" cy="529.409" r="8.41271" stroke-width="0.5" stroke="black" fill="yellow"/>
  <circle cx="437.379" cy="529.409" r="5.05167" stroke-width="0.5" stroke="yellow" fill="yellow"/>
   </g>
   <g id="cell14">
  <circle cx="436.928" cy="544.537" r="8.41271" stroke-width="0.5" stroke="black" fill="yellow"/>
  <circle cx="436.928" cy="544.537" r="5.05167" stroke-width="0.5" stroke="yellow" fill="yellow"/>
   </g>
   <g id="cell15">
  <circle cx="437.525" cy="558.36" r="8.41271" stroke-width="0.5" stroke="black" fill="blue"/>
  <circle cx="437.525" cy="558.36" r="5.05167" stroke-width="0.5" stroke="blue" fill="blue"/>
   </g>
   <g id="cell16">
  <circle cx="448.657" cy="427.463" r="8.41271" stroke-width="0.5" stroke="black" fill="blue"/>
  <circle cx="448.657" cy="427.463" r="5.05167" stroke-width="0.5" stroke="blue" fill="blue"/>
   </g>
   <g id="cell17">
  <circle cx="450.392" cy="440.832" r="8.41271" stroke-width="0.5" stroke="black" fill="Red"/>
  <circle cx="450.392" cy="440.832" r="5.05167" stroke-width="0.5" stroke="Red" fill="Red"/>
   </g>
   <g id="cell18">
  <circle cx="447.222" cy="453.699" r="8.41271" stroke-width="0.5" stroke="black" fill="Red"/>
  <circle cx="447.222" cy="453.699" r="5.05167" stroke-width="0.5" stroke="Red" fill="Red"/>
   </g>
   <g id="cell19">
  <circle cx="448.546" cy="466.619" r="8.41271" stroke-width="0.5" stroke="black" fill="blue"/>
  <circle cx="448.546" cy="466.619" r="5.05167" stroke-width="0.5" stroke="blue" fill="blue"/>
   </g>
   <g id="cell20">
  <circle cx="448.296" cy="480.89" r="8.41271" stroke-width="0.5" stroke="black" fill="Red"/>
  <circle cx="448.296" cy="480.89" r="5.05167" stroke-width="0.5" stroke="Red" fill="Red"/>
   </g>
   <g id="cell21">
  <circle cx="448.571" cy="495.304" r="8.41271" stroke-width="0.5" stroke="black" fill="Red"/>
  <circle cx="448.571" cy="495.304" r="5.05167" stroke-width="0.5" stroke="Red" fill="Red"/>
   </g>
   <g id="cell22">
  <circle cx="450.61" cy="509.506" r="8.41271" stroke-width="0.5" stroke="black" fill="blue"/>
  <circle cx="450.61" cy="509.506" r="5.05167" stroke-width="0.5" stroke="blue" fill="blue"/>
   </g>
   <g id="cell23">
  <circle cx="450.663" cy="523.215" r="8.41271" stroke-width="0.5" stroke="black" fill="Red"/>
  <circle cx="450.663" cy="523.215" r="5.05167" stroke-width="0.5" stroke="Red" fill="Red"/>
   </g>
   <g id="cell24">
  <circle cx="450.624" cy="537.401" r="8.41271" stroke-width="0.5" stroke="black" fill="Red"/>
  <circle cx="450.624" cy="537.401" r="5.05167" stroke-width="0.5" stroke="Red" fill="Red"/>
   </g>
   <g id="cell25">
  <circle cx="450.023" cy="551.212" r="8.41271" stroke-width="0.5" stroke="black" fill="yellow"/>
  <circle cx="450.023" cy="551.212" r="5.05167" stroke-width="0.5" stroke="yellow" fill="yellow"/>
   </g>
   <g id="cell26">
  <circle cx="450.833" cy="564.932" r="8.41271" stroke-width="0.5" stroke="black" fill="Red"/>
  <circle cx="450.833" cy="564.932" r="5.05167" stroke-width="0.5" stroke="Red" fill="Red"/>
   </g>
   <g id="cell27">
  <circle cx="460.463" cy="418.731" r="8.41271" stroke-width="0.5" stroke="black" fill="yellow"/>
  <circle cx="460.463" cy="418.731" r="5.05167" stroke-width="0.5" stroke="yellow" fill="yellow"/>
   </g>
   <g id="cell28">
  <circle cx="462.597" cy="433.328" r="8.41271" stroke-width="0.5" stroke="black" fill="yellow"/>
  <circle cx="462.597" cy="433.328" r="5.05167" stroke-width="0.5" stroke="yellow" fill="yellow"/>
   </g>
   <g id="cell29">
  <circle cx="461.803" cy="447.546" r="8.41271" stroke-width="0.5" stroke="black" fill="blue"/>
  <circle cx="461.803" cy="447.546" r="5.05167" stroke-width="0.5" stroke="blue" fill="blue"/>
   </g>
   <g id="cell30">
  <circle cx="461.447" cy="460.848" r="8.41271" stroke-width="0.5" stroke="black" fill="Red"/>
  <circle cx="461.447" cy="460.848" r="5.05167" stroke-width="0.5" stroke="Red" fill="Red"/>
   </g>
   <g id="cell31">
  <circle cx="460.613" cy="474.139" r="8.41271" stroke-width="0.5" stroke="black" fill="Red"/>
  <circle cx="460.613" cy="474.139" r="5.05167" stroke-width="0.5" stroke="Red" fill="Red"/>
   </g>
   <g id="cell32">
  <circle cx="460.842" cy="488.379" r="8.41271" stroke-width="0.5" stroke="black" fill="Red"/>
  <circle cx="460.842" cy="488.379" r="5.05167" stroke-width="0.5" stroke="Red" fill="Red"/>
   </g>
   <g id="cell33">
  <circle cx="460.879" cy="501.935" r="8.41271" stroke-width="0.5" stroke="black" fill="Red"/>
  <circle cx="460.879" cy="501.935" r="5.05167" stroke-width="0.5" stroke="Red" fill="Red"/>
   </g>
   <g id="cell34">
  <circle cx="464.392" cy="515.77" r="8.41271" stroke-width="0.5" stroke="black" fill="Red"/>
  <circle cx="464.392" cy="515.77" r="5.05167" stroke-width="0.5" stroke="Red" fill="Red"/>
   </g>
   <g id="cell35">
  <circle cx="462.969" cy="529.775" r="8.41271" stroke-width="0.5" stroke="black" fill="Red"/>
  <circle cx="462.969" cy="529.775" r="5.05167" stroke-width="0.5" stroke="Red" fill="Red"/>
   </g>
   <g id="cell36">
  <circle cx="464.544" cy="543.49" r="8.41271" stroke-width="0.5" stroke="black" fill="Red"/>
  <circle cx="464.544" cy="543.49" r="5.05167" stroke-width="0.5" stroke="Red" fill="Red"/>
   </g>
   <g id="cell37">
  <circle cx="464.861" cy="557.779" r="8.41271" stroke-width="0.5" stroke="black" fill="Red"/>
  <circle cx="464.861" cy="557.779" r="5.05167" stroke-width="0.5" stroke="Red" fill="Red"/>
   </g>
   <g id="cell38">
  <circle cx="462.922" cy="571.971" r="8.41271" stroke-width="0.5" stroke="black" fill="yellow"/>
  <circle cx="462.922" cy="571.971" r="5.05167" stroke-width="0.5" stroke="yellow" fill="yellow"/>
   </g>
   <g id="cell39">
  <circle cx="461.157" cy="585.474" r="8.41271" stroke-width="0.5" stroke="black" fill="blue"/>
  <circle cx="461.157" cy="585.474" r="5.05167" stroke-width="0.5" stroke="blue" fill="blue"/>
   </g>
   <g id="cell40">
  <circle cx="473.573" cy="410.683" r="8.41271" stroke-width="0.5" stroke="black" fill="blue"/>
  <circle cx="473.573" cy="410.683" r="5.05167" stroke-width="0.5" stroke="blue" fill="blue"/>
   </g>
   <g id="cell41">
  <circle cx="475.242" cy="424.839" r="8.41271" stroke-width="0.5" stroke="black" fill="yellow"/>
  <circle cx="475.242" cy="424.839" r="5.05167" stroke-width="0.5" stroke="yellow" fill="yellow"/>
   </g>
   <g id="cell42">
  <circle cx="474.27" cy="438.882" r="8.41271" stroke-width="0.5" stroke="black" fill="Red"/>
  <circle cx="474.27" cy="438.882" r="5.05167" stroke-width="0.5" stroke="Red" fill="Red"/>
   </g>
   <g id="cell43">
  <circle cx="474.707" cy="452.274" r="8.41271" stroke-width="0.5" stroke="black" fill="Red"/>
  <circle cx="474.707" cy="452.274" r="5.05167" stroke-width="0.5" stroke="Red" fill="Red"/>
   </g>
   <g id="cell44">
  <circle cx="474.425" cy="466.37" r="8.41271" stroke-width="0.5" stroke="black" fill="blue"/>
  <circle cx="474.425" cy="466.37" r="5.05167" stroke-width="0.5" stroke="blue" fill="blue"/>
   </g>
   <g id="cell45">
  <circle cx="473.434" cy="479.932" r="8.41271" stroke-width="0.5" stroke="black" fill="Red"/>
  <circle cx="473.434" cy="479.932" r="5.05167" stroke-width="0.5" stroke="Red" fill="Red"/>
   </g>
   <g id="cell46">
  <circle cx="473.232" cy="494.256" r="8.41271" stroke-width="0.5" stroke="black" fill="Red"/>
  <circle cx="473.232" cy="494.256" r="5.05167" stroke-width="0.5" stroke="Red" fill="Red"/>
   </g>
   <g id="cell47">
  <circle cx="472.815" cy="506.432" r="6.78181" stroke-width="0.5" stroke="black" fill="Red"/>
  <circle cx="472.815" cy="506.432" r="4.08714" stroke-width="0.5" stroke="Red" fill="Red"/>
   </g>
   <g id="cell48">
  <circle cx="475.694" cy="524.404" r="8.41271" stroke-width="0.5" stroke="black" fill="Red"/>
  <circle cx="475.694" cy="524.404" r="5.05167" stroke-width="0.5" stroke="Red" fill="Red"/>
   </g>
   <g id="cell49">
  <circle cx="476.865" cy="537.171" r="8.41271" stroke-width="0.5" stroke="black" fill="Red"/>
  <circle cx="476.865" cy="537.171" r="5.05167" stroke-width="0.5" stroke="Red" fill="Red"/>
   </g>
   <g id="cell50">
  <circle cx="476.676" cy="551.103" r="8.41271" stroke-width="0.5" stroke="black" fill="Red"/>
  <circle cx="476.676" cy="551.103" r="5.05167" stroke-width="0.5" stroke="Red" fill="Red"/>
   </g>
   <g id="cell51">
  <circle cx="477.076" cy="565.075" r="8.41271" stroke-width="0.5" stroke="black" fill="blue"/>
  <circle cx="477.076" cy="565.075" r="5.05167" stroke-width="0.5" stroke="blue" fill="blue"/>
   </g>
   <g id="cell52">
  <circle cx="475.625" cy="580.118" r="8.41271" stroke-width="0.5" stroke="black" fill="yellow"/>
  <circle cx="475.625" cy="580.118" r="5.05167" stroke-width="0.5" stroke="yellow" fill="yellow"/>
   </g>
   <g id="cell53">
  <circle cx="487.311" cy="416.303" r="8.41271" stroke-width="0.5" stroke="black" fill="yellow"/>
  <circle cx="487.311" cy="416.303" r="5.05167" stroke-width="0.5" stroke="yellow" fill="yellow"/>
   </g>
   <g id="cell54">
  <circle cx="487.917" cy="431.665" r="8.41271" stroke-width="0.5" stroke="black" fill="blue"/>
  <circle cx="487.917" cy="431.665" r="5.05167" stroke-width="0.5" stroke="blue" fill="blue"/>
   </g>
   <g id="cell55">
  <circle cx="487.355" cy="444.747" r="8.41271" stroke-width="0.5" stroke="black" fill="Red"/>
  <circle cx="487.355" cy="444.747" r="5.05167" stroke-width="0.5" stroke="Red" fill="Red"/>
   </g>
   <g id="cell56">
  <circle cx="487.054" cy="459.394" r="8.41271" stroke-width="0.5" stroke="black" fill="Red"/>
  <circle cx="487.054" cy="459.394" r="5.05167" stroke-width="0.5" stroke="Red" fill="Red"/>
   </g>
   <g id="cell57">
  <circle cx="487.229" cy="474.258" r="8.41271" stroke-width="0.5" stroke="black" fill="Red"/>
  <circle cx="487.229" cy="474.258" r="5.05167" stroke-width="0.5" stroke="Red" fill="Red"/>
   </g>
   <g id="cell58">
  <circle cx="485.858" cy="488.733" r="8.41271" stroke-width="0.5" stroke="black" fill="blue"/>
  <circle cx="485.858" cy="488.733" r="5.05167" stroke-width="0.5" stroke="blue" fill="blue"/>
   </g>
   <g id="cell59">
  <circle cx="485.685" cy="502.708" r="8.41271" stroke-width="0.5" stroke="black" fill="Red"/>
  <circle cx="485.685" cy="502.708" r="5.05167" stroke-width="0.5" stroke="Red" fill="Red"/>
   </g>
   <g id="cell60">
  <circle cx="489.362" cy="516.186" r="8.41271" stroke-width="0.5" stroke="black" fill="Red"/>
  <circle cx="489.362" cy="516.186" r="5.05167" stroke-width="0.5" stroke="Red" fill="Red"/>
   </g>
   <g id="cell61">
  <circle cx="490.095" cy="529.753" r="8.41271" stroke-width="0.5" stroke="black" fill="Red"/>
  <circle cx="490.095" cy="529.753" r="5.05167" stroke-width="0.5" stroke="Red" fill="Red"/>
   </g>
   <g id="cell62">
  <circle cx="489.84" cy="543.161" r="8.41271" stroke-width="0.5" stroke="black" fill="Red"/>
  <circle cx="489.84" cy="543.161" r="5.05167" stroke-width="0.5" stroke="Red" fill="Red"/>
   </g>
   <g id="cell63">
  <circle cx="489.169" cy="558.555" r="8.41271" stroke-width="0.5" stroke="black" fill="Red"/>
  <circle cx="489.169" cy="558.555" r="5.05167" stroke-width="0.5" stroke="Red" fill="Red"/>
   </g>
   <g id="cell64">
  <circle cx="489.085" cy="572.662" r="8.41271" stroke-width="0.5" stroke="black" fill="Red"/>
  <circle cx="489.085" cy="572.662" r="5.05167" stroke-width="0.5" stroke="Red" fill="Red"/>
   </g>
   <g id="cell65">
  <circle cx="488.589" cy="587.249" r="8.41271" stroke-width="0.5" stroke="black" fill="yellow"/>
  <circle cx="488.589" cy="587.249" r="5.05167" stroke-width="0.5" stroke="yellow" fill="yellow"/>
   </g>
   <g id="cell66">
  <circle cx="500.194" cy="410.541" r="8.41271" stroke-width="0.5" stroke="black" fill="blue"/>
  <circle cx="500.194" cy="410.541" r="5.05167" stroke-width="0.5" stroke="blue" fill="blue"/>
   </g>
   <g id="cell67">
  <circle cx="500.532" cy="423.771" r="8.41271" stroke-width="0.5" stroke="black" fill="Red"/>
  <circle cx="500.532" cy="423.771" r="5.05167" stroke-width="0.5" stroke="Red" fill="Red"/>
   </g>
   <g id="cell68">
  <circle cx="500.787" cy="437.852" r="8.41271" stroke-width="0.5" stroke="black" fill="Red"/>
  <circle cx="500.787" cy="437.852" r="5.05167" stroke-width="0.5" stroke="Red" fill="Red"/>
   </g>
   <g id="cell69">
  <circle cx="500.661" cy="452.311" r="8.41271" stroke-width="0.5" stroke="black" fill="Red"/>
  <circle cx="500.661" cy="452.311" r="5.05167" stroke-width="0.5" stroke="Red" fill="Red"/>
   </g>
   <g id="cell70">
  <circle cx="500.385" cy="467.094" r="8.41271" stroke-width="0.5" stroke="black" fill="blue"/>
  <circle cx="500.385" cy="467.094" r="5.05167" stroke-width="0.5" stroke="blue" fill="blue"/>
   </g>
   <g id="cell71">
  <circle cx="500.777" cy="481.166" r="8.41271" stroke-width="0.5" stroke="black" fill="Red"/>
  <circle cx="500.777" cy="481.166" r="5.05167" stroke-width="0.5" stroke="Red" fill="Red"/>
   </g>
   <g id="cell72">
  <circle cx="500.067" cy="495.195" r="8.41271" stroke-width="0.5" stroke="black" fill="Red"/>
  <circle cx="500.067" cy="495.195" r="5.05167" stroke-width="0.5" stroke="Red" fill="Red"/>
   </g>
   <g id="cell73">
  <circle cx="500.878" cy="509.61" r="8.41271" stroke-width="0.5" stroke="black" fill="blue"/>
  <circle cx="500.878" cy="509.61" r="5.05167" stroke-width="0.5" stroke="blue" fill="blue"/>
   </g>
   <g id="cell74">
  <circle cx="501.72" cy="523.854" r="8.41271" stroke-width="0.5" stroke="black" fill="Red"/>
  <circle cx="501.72" cy="523.854" r="5.05167" stroke-width="0.5" stroke="Red" fill="Red"/>
   </g>
   <g id="cell75">
  <circle cx="502.357" cy="538.082" r="8.41271" stroke-width="0.5" stroke="black" fill="Red"/>
  <circle cx="502.357" cy="538.082" r="5.05167" stroke-width="0.5" stroke="Red" fill="Red"/>
   </g>
   <g id="cell76">
  <circle cx="502.42" cy="551.428" r="8.41271" stroke-width="0.5" stroke="black" fill="Red"/>
  <circle cx="502.42" cy="551.428" r="5.05167" stroke-width="0.5" stroke="Red" fill="Red"/>
   </g>
   <g id="cell77">
  <circle cx="502.173" cy="565.071" r="8.41271" stroke-width="0.5" stroke="black" fill="Red"/>
  <circle cx="502.173" cy="565.071" r="5.05167" stroke-width="0.5" stroke="Red" fill="Red"/>
   </g>
   <g id="cell78">
  <circle cx="500.896" cy="579.625" r="8.41271" stroke-width="0.5" stroke="black" fill="yellow"/>
  <circle cx="500.896" cy="579.625" r="5.05167" stroke-width="0.5" stroke="yellow" fill="yellow"/>
   </g>
   <g id="cell79">
  <circle cx="500.482" cy="594.168" r="8.41271" stroke-width="0.5" stroke="black" fill="blue"/>
  <circle cx="500.482" cy="594.168" r="5.05167" stroke-width="0.5" stroke="blue" fill="blue"/>
   </g>
   <g id="cell80">
  <circle cx="513.556" cy="416.83" r="8.41271" stroke-width="0.5" stroke="black" fill="yellow"/>
  <circle cx="513.556" cy="416.83" r="5.05167" stroke-width="0.5" stroke="yellow" fill="yellow"/>
   </g>
   <g id="cell81">
  <circle cx="514.585" cy="431.263" r="8.41271" stroke-width="0.5" stroke="black" fill="blue"/>
  <circle cx="514.585" cy="431.263" r="5.05167" stroke-width="0.5" stroke="blue" fill="blue"/>
   </g>
   <g id="cell82">
  <circle cx="512.489" cy="445.127" r="8.41271" stroke-width="0.5" stroke="black" fill="blue"/>
  <circle cx="512.489" cy="445.127" r="5.05167" stroke-width="0.5" stroke="blue" fill="blue"/>
   </g>
   <g id="cell83">
  <circle cx="515.059" cy="459.137" r="8.41271" stroke-width="0.5" stroke="black" fill="Red"/>
  <circle cx="515.059" cy="459.137" r="5.05167" stroke-width="0.5" stroke="Red" fill="Red"/>
   </g>
   <g id="cell84">
  <circle cx="513.913" cy="473.475" r="8.41271" stroke-width="0.5" stroke="black" fill="Red"/>
  <circle cx="513.913" cy="473.475" r="5.05167" stroke-width="0.5" stroke="Red" fill="Red"/>
   </g>
   <g id="cell85">
  <circle cx="514.566" cy="488.197" r="8.41271" stroke-width="0.5" stroke="black" fill="blue"/>
  <circle cx="514.566" cy="488.197" r="5.05167" stroke-width="0.5" stroke="blue" fill="blue"/>
   </g>
   <g id="cell86">
  <circle cx="514.273" cy="502.577" r="8.41271" stroke-width="0.5" stroke="black" fill="Red"/>
  <circle cx="514.273" cy="502.577" r="5.05167" stroke-width="0.5" stroke="Red" fill="Red"/>
   </g>
   <g id="cell87">
  <circle cx="514.409" cy="516.741" r="8.41271" stroke-width="0.5" stroke="black" fill="Red"/>
  <circle cx="514.409" cy="516.741" r="5.05167" stroke-width="0.5" stroke="Red" fill="Red"/>
   </g>
   <g id="cell88">
  <circle cx="514.009" cy="530.142" r="8.41271" stroke-width="0.5" stroke="black" fill="blue"/>
  <circle cx="514.009" cy="530.142" r="5.05167" stroke-width="0.5" stroke="blue" fill="blue"/>
   </g>
   <g id="cell89">
  <circle cx="515.635" cy="544.719" r="8.41271" stroke-width="0.5" stroke="black" fill="Red"/>
  <circle cx="515.635" cy="544.719" r="5.05167" stroke-width="0.5" stroke="Red" fill="Red"/>
   </g>
   <g id="cell90">
  <circle cx="515.539" cy="559.14" r="8.41271" stroke-width="0.5" stroke="black" fill="blue"/>
  <circle cx="515.539" cy="559.14" r="5.05167" stroke-width="0.5" stroke="blue" fill="blue"/>
   </g>
   <g id="cell91">
  <circle cx="514.614" cy="572.861" r="8.41271" stroke-width="0.5" stroke="black" fill="Red"/>
  <circle cx="514.614" cy="572.861" r="5.05167" stroke-width="0.5" stroke="Red" fill="Red"/>
   </g>
   <g id="cell92">
  <circle cx="513.574" cy="587.478" r="8.41271" stroke-width="0.5" stroke="black" fill="yellow"/>
  <circle cx="513.574" cy="587.478" r="5.05167" stroke-width="0.5" stroke="yellow" fill="yellow"/>
   </g>
   <g id="cell93">
  <circle cx="527.44" cy="412.33" r="8.41271" stroke-width="0.5" stroke="black" fill="blue"/>
  <circle cx="527.44" cy="412.33" r="5.05167" stroke-width="0.5" stroke="blue" fill="blue"/>
   </g>
   <g id="cell94">
  <circle cx="527.198" cy="425.617" r="8.41271" stroke-width="0.5" stroke="black" fill="Red"/>
  <circle cx="527.198" cy="425.617" r="5.05167" stroke-width="0.5" stroke="Red" fill="Red"/>
   </g>
   <g id="cell95">
  <circle cx="527.283" cy="438.765" r="8.41271" stroke-width="0.5" stroke="black" fill="Red"/>
  <circle cx="527.283" cy="438.765" r="5.05167" stroke-width="0.5" stroke="Red" fill="Red"/>
   </g>
   <g id="cell96">
  <circle cx="523.699" cy="450.275" r="6.78181" stroke-width="0.5" stroke="black" fill="Red"/>
  <circle cx="523.699" cy="450.275" r="4.08714" stroke-width="0.5" stroke="Red" fill="Red"/>
   </g>
   <g id="cell97">
  <circle cx="526.294" cy="467.158" r="8.41271" stroke-width="0.5" stroke="black" fill="Red"/>
  <circle cx="526.294" cy="467.158" r="5.05167" stroke-width="0.5" stroke="Red" fill="Red"/>
   </g>
   <g id="cell98">
  <circle cx="527.841" cy="481.307" r="8.41271" stroke-width="0.5" stroke="black" fill="Red"/>
  <circle cx="527.841" cy="481.307" r="5.05167" stroke-width="0.5" stroke="Red" fill="Red"/>
   </g>
   <g id="cell99">
  <circle cx="527.614" cy="495.35" r="8.41271" stroke-width="0.5" stroke="black" fill="Red"/>
  <circle cx="527.614" cy="495.35" r="5.05167" stroke-width="0.5" stroke="Red" fill="Red"/>
   </g>
   <g id="cell100">
  <circle cx="527.394" cy="509.745" r="8.41271" stroke-width="0.5" stroke="black" fill="Red"/>
  <circle cx="527.394" cy="509.745" r="5.05167" stroke-width="0.5" stroke="Red" fill="Red"/>
   </g>
   <g id="cell101">
  <circle cx="528.113" cy="523.021" r="8.41271" stroke-width="0.5" stroke="black" fill="Red"/>
  <circle cx="528.113" cy="523.021" r="5.05167" stroke-width="0.5" stroke="Red" fill="Red"/>
   </g>
   <g id="cell102">
  <circle cx="533.468" cy="538.141" r="6.71158" stroke-width="0.5" stroke="black" fill="blue"/>
  <circle cx="533.468" cy="538.141" r="4.03435" stroke-width="0.5" stroke="blue" fill="blue"/>
   </g>
   <g id="cell103">
  <circle cx="529.195" cy="550.345" r="8.41271" stroke-width="0.5" stroke="black" fill="Red"/>
  <circle cx="529.195" cy="550.345" r="5.05167" stroke-width="0.5" stroke="Red" fill="Red"/>
   </g>
   <g id="cell104">
  <circle cx="527.856" cy="565.414" r="8.41271" stroke-width="0.5" stroke="black" fill="Red"/>
  <circle cx="527.856" cy="565.414" r="5.05167" stroke-width="0.5" stroke="Red" fill="Red"/>
   </g>
   <g id="cell105">
  <circle cx="526.36" cy="579.175" r="8.41271" stroke-width="0.5" stroke="black" fill="blue"/>
  <circle cx="526.36" cy="579.175" r="5.05167" stroke-width="0.5" stroke="blue" fill="blue"/>
   </g>
   <g id="cell106">
  <circle cx="541.381" cy="417.707" r="8.41271" stroke-width="0.5" stroke="black" fill="yellow"/>
  <circle cx="541.381" cy="417.707" r="5.05167" stroke-width="0.5" stroke="yellow" fill="yellow"/>
   </g>
   <g id="cell107">
  <circle cx="540.018" cy="433.392" r="8.41271" stroke-width="0.5" stroke="black" fill="yellow"/>
  <circle cx="540.018" cy="433.392" r="5.05167" stroke-width="0.5" stroke="yellow" fill="yellow"/>
   </g>
   <g id="cell108">
  <circle cx="538.004" cy="447.743" r="8.41271" stroke-width="0.5" stroke="black" fill="Red"/>
  <circle cx="538.004" cy="447.743" r="5.05167" stroke-width="0.5" stroke="Red" fill="Red"/>
   </g>
   <g id="cell109">
  <circle cx="544.107" cy="461.375" r="8.41271" stroke-width="0.5" stroke="black" fill="Red"/>
  <circle cx="544.107" cy="461.375" r="5.05167" stroke-width="0.5" stroke="Red" fill="Red"/>
   </g>
   <g id="cell110">
  <circle cx="541.121" cy="473.972" r="8.41271" stroke-width="0.5" stroke="black" fill="Red"/>
  <circle cx="541.121" cy="473.972" r="5.05167" stroke-width="0.5" stroke="Red" fill="Red"/>
   </g>
   <g id="cell111">
  <circle cx="540.061" cy="488.213" r="8.41271" stroke-width="0.5" stroke="black" fill="Red"/>
  <circle cx="540.061" cy="488.213" r="5.05167" stroke-width="0.5" stroke="Red" fill="Red"/>
   </g>
   <g id="cell112">
  <circle cx="541.361" cy="502.327" r="8.41271" stroke-width="0.5" stroke="black" fill="Red"/>
  <circle cx="541.361" cy="502.327" r="5.05167" stroke-width="0.5" stroke="Red" fill="Red"/>
   </g>
   <g id="cell113">
  <circle cx="541.646" cy="515.698" r="8.41271" stroke-width="0.5" stroke="black" fill="Red"/>
  <circle cx="541.646" cy="515.698" r="5.05167" stroke-width="0.5" stroke="Red" fill="Red"/>
   </g>
   <g id="cell114">
  <circle cx="540.693" cy="530.011" r="8.41271" stroke-width="0.5" stroke="black" fill="Red"/>
  <circle cx="540.693" cy="530.011" r="5.05167" stroke-width="0.5" stroke="Red" fill="Red"/>
   </g>
   <g id="cell115">
  <circle cx="542.301" cy="545.968" r="8.41271" stroke-width="0.5" stroke="black" fill="Red"/>
  <circle cx="542.301" cy="545.968" r="5.05167" stroke-width="0.5" stroke="Red" fill="Red"/>
   </g>
   <g id="cell116">
  <circle cx="541.29" cy="559.235" r="8.41271" stroke-width="0.5" stroke="black" fill="Red"/>
  <circle cx="541.29" cy="559.235" r="5.05167" stroke-width="0.5" stroke="Red" fill="Red"/>
   </g>
   <g id="cell117">
  <circle cx="540.156" cy="573.961" r="8.41271" stroke-width="0.5" stroke="black" fill="blue"/>
  <circle cx="540.156" cy="573.961" r="5.05167" stroke-width="0.5" stroke="blue" fill="blue"/>
   </g>
   <g id="cell118">
  <circle cx="551.284" cy="425.988" r="8.41271" stroke-width="0.5" stroke="black" fill="blue"/>
  <circle cx="551.284" cy="425.988" r="5.05167" stroke-width="0.5" stroke="blue" fill="blue"/>
   </g>
   <g id="cell119">
  <circle cx="551.277" cy="440.283" r="8.41271" stroke-width="0.5" stroke="black" fill="yellow"/>
  <circle cx="551.277" cy="440.283" r="5.05167" stroke-width="0.5" stroke="yellow" fill="yellow"/>
   </g>
   <g id="cell120">
  <circle cx="554.681" cy="454.063" r="8.41271" stroke-width="0.5" stroke="black" fill="Red"/>
  <circle cx="554.681" cy="454.063" r="5.05167" stroke-width="0.5" stroke="Red" fill="Red"/>
   </g>
   <g id="cell121">
  <circle cx="555.969" cy="468.55" r="8.41271" stroke-width="0.5" stroke="black" fill="blue"/>
  <circle cx="555.969" cy="468.55" r="5.05167" stroke-width="0.5" stroke="blue" fill="blue"/>
   </g>
   <g id="cell122">
  <circle cx="553.855" cy="482.205" r="8.41271" stroke-width="0.5" stroke="black" fill="Red"/>
  <circle cx="553.855" cy="482.205" r="5.05167" stroke-width="0.5" stroke="Red" fill="Red"/>
   </g>
   <g id="cell123">
  <circle cx="554.311" cy="496.309" r="8.41271" stroke-width="0.5" stroke="black" fill="Red"/>
  <circle cx="554.311" cy="496.309" r="5.05167" stroke-width="0.5" stroke="Red" fill="Red"/>
   </g>
   <g id="cell124">
  <circle cx="554.894" cy="509.599" r="8.41271" stroke-width="0.5" stroke="black" fill="Red"/>
  <circle cx="554.894" cy="509.599" r="5.05167" stroke-width="0.5" stroke="Red" fill="Red"/>
   </g>
   <g id="cell125">
  <circle cx="554.942" cy="523.369" r="8.41271" stroke-width="0.5" stroke="black" fill="Red"/>
  <circle cx="554.942" cy="523.369" r="5.05167" stroke-width="0.5" stroke="Red" fill="Red"/>
   </g>
   <g id="cell126">
  <circle cx="552.457" cy="537.32" r="8.41271" stroke-width="0.5" stroke="black" fill="blue"/>
  <circle cx="552.457" cy="537.32" r="5.05167" stroke-width="0.5" stroke="blue" fill="blue"/>
   </g>
   <g id="cell127">
  <circle cx="553.651" cy="552.858" r="8.41271" stroke-width="0.5" stroke="black" fill="Red"/>
  <circle cx="553.651" cy="552.858" r="5.05167" stroke-width="0.5" stroke="Red" fill="Red"/>
   </g>
   <g id="cell128">
  <circle cx="552.345" cy="567.862" r="8.41271" stroke-width="0.5" stroke="black" fill="Red"/>
  <circle cx="552.345" cy="567.862" r="5.05167" stroke-width="0.5" stroke="Red" fill="Red"/>
   </g>
   <g id="cell129">
  <circle cx="565.736" cy="444.64" r="8.41271" stroke-width="0.5" stroke="black" fill="blue"/>
  <circle cx="565.736" cy="444.64" r="5.05167" stroke-width="0.5" stroke="blue" fill="blue"/>
   </g>
   <g id="cell130">
  <circle cx="567.505" cy="459.622" r="8.41271" stroke-width="0.5" stroke="black" fill="yellow"/>
  <circle cx="567.505" cy="459.622" r="5.05167" stroke-width="0.5" stroke="yellow" fill="yellow"/>
   </g>
   <g id="cell131">
  <circle cx="568.104" cy="472.921" r="8.41271" stroke-width="0.5" stroke="black" fill="Red"/>
  <circle cx="568.104" cy="472.921" r="5.05167" stroke-width="0.5" stroke="Red" fill="Red"/>
   </g>
   <g id="cell132">
  <circle cx="566.327" cy="488.593" r="8.41271" stroke-width="0.5" stroke="black" fill="Red"/>
  <circle cx="566.327" cy="488.593" r="5.05167" stroke-width="0.5" stroke="Red" fill="Red"/>
   </g>
   <g id="cell133">
  <circle cx="568.767" cy="502.023" r="8.41271" stroke-width="0.5" stroke="black" fill="Red"/>
  <circle cx="568.767" cy="502.023" r="5.05167" stroke-width="0.5" stroke="Red" fill="Red"/>
   </g>
   <g id="cell134">
  <circle cx="567.858" cy="516.048" r="8.41271" stroke-width="0.5" stroke="black" fill="Red"/>
  <circle cx="567.858" cy="516.048" r="5.05167" stroke-width="0.5" stroke="Red" fill="Red"/>
   </g>
   <g id="cell135">
  <circle cx="567.148" cy="530.737" r="8.41271" stroke-width="0.5" stroke="black" fill="yellow"/>
  <circle cx="567.148" cy="530.737" r="5.05167" stroke-width="0.5" stroke="yellow" fill="yellow"/>
   </g>
   <g id="cell136">
  <circle cx="566.54" cy="545.551" r="8.41271" stroke-width="0.5" stroke="black" fill="yellow"/>
  <circle cx="566.54" cy="545.551" r="5.05167" stroke-width="0.5" stroke="yellow" fill="yellow"/>
   </g>
   <g id="cell137">
  <circle cx="565.715" cy="559.796" r="8.41271" stroke-width="0.5" stroke="black" fill="blue"/>
  <circle cx="565.715" cy="559.796" r="5.05167" stroke-width="0.5" stroke="blue" fill="blue"/>
   </g>
   <g id="cell138">
  <circle cx="581.216" cy="466.143" r="8.41271" stroke-width="0.5" stroke="black" fill="blue"/>
  <circle cx="581.216" cy="466.143" r="5.05167" stroke-width="0.5" stroke="blue" fill="blue"/>
   </g>
   <g id="cell139">
  <circle cx="580.726" cy="480.212" r="8.41271" stroke-width="0.5" stroke="black" fill="yellow"/>
  <circle cx="580.726" cy="480.212" r="5.05167" stroke-width="0.5" stroke="yellow" fill="yellow"/>
   </g>
   <g id="cell140">
  <circle cx="579.156" cy="494.659" r="6.80881" stroke-width="0.5" stroke="black" fill="Red"/>
  <circle cx="579.156" cy="494.659" r="4.10709" stroke-width="0.5" stroke="Red" fill="Red"/>
   </g>
   <g id="cell141">
  <circle cx="580.196" cy="509.115" r="8.41271" stroke-width="0.5" stroke="black" fill="yellow"/>
  <circle cx="580.196" cy="509.115" r="5.05167" stroke-width="0.5" stroke="yellow" fill="yellow"/>
   </g>
   <g id="cell142">
  <circle cx="579.698" cy="523.863" r="8.41271" stroke-width="0.5" stroke="black" fill="Red"/>
  <circle cx="579.698" cy="523.863" r="5.05167" stroke-width="0.5" stroke="Red" fill="Red"/>
   </g>
   <g id="cell143">
  <circle cx="581.221" cy="537.732" r="8.41271" stroke-width="0.5" stroke="black" fill="blue"/>
  <circle cx="581.221" cy="537.732" r="5.05167" stroke-width="0.5" stroke="blue" fill="blue"/>
   </g>
   <g id="cell144">
  <circle cx="438.664" cy="438.061" r="6.80881" stroke-width="0.5" stroke="black" fill="Red"/>
  <circle cx="438.664" cy="438.061" r="4.10709" stroke-width="0.5" stroke="Red" fill="Red"/>
   </g>
   <g id="cell145">
  <circle cx="588.768" cy="499.464" r="6.80881" stroke-width="0.5" stroke="black" fill="blue"/>
  <circle cx="588.768" cy="499.464" r="4.10709" stroke-width="0.5" stroke="blue" fill="blue"/>
   </g>
   <g id="cell146">
  <circle cx="478.013" cy="514.139" r="6.78181" stroke-width="0.5" stroke="black" fill="blue"/>
  <circle cx="478.013" cy="514.139" r="4.08714" stroke-width="0.5" stroke="blue" fill="blue"/>
   </g>
   <g id="cell147">
  <circle cx="529.402" cy="455.367" r="5.43543" stroke-width="0.5" stroke="black" fill="Red"/>
  <circle cx="529.402" cy="455.367" r="3.2816" stroke-width="0.5" stroke="Red" fill="Red"/>
   </g>
   <g id="cell148">
  <circle cx="524.685" cy="535.62" r="6.71158" stroke-width="0.5" stroke="black" fill="blue"/>
  <circle cx="524.685" cy="535.62" r="4.03435" stroke-width="0.5" stroke="blue" fill="blue"/>
   </g>
   <g id="cell149">
  <circle cx="534.399" cy="460.893" r="5.43543" stroke-width="0.5" stroke="black" fill="blue"/>
  <circle cx="534.399" cy="460.893" r="3.2816" stroke-width="0.5" stroke="blue" fill="blue"/>
   </g>
  </g>
 </g>
  <rect x="775" y="1035" width="200" height="10" stroke-width="2" stroke="rgb(255,255,255)" fill="rgb(0,0,0)"/>
  <text x="781.25" y="1028.75"
   font-family="Arial" font-size="25" fill="black" >
   200 &#956;m
  </text>
  <text x="25" y="1045"
   font-family="Arial" font-size="18.75" fill="black" >
   0 days, 0 hours, 0 minutes, and 14.1362 seconds
  </text>
  <rect x="0" y="70" width="1000" height="1000" stroke-width="2" stroke="rgb(0,0,0)" fill="none"/>
</svg>
