<?xml version="1.0" encoding="UTF-8" standalone="no"?>
<!-- Created with PhysiCell (http://PhysiCell.MathCancer.org/) -->
<svg 
 xmlns:dc="http://purl.org/dc/elements/1.1/" 
 xmlns:cc="http://creativecommons.org/ns#" 
 xmlns:rdf="http://www.w3.org/1999/02/22-rdf-syntax-ns#" 
 xmlns:svg="http://www.w3.org/2000/svg" 
 xmlns="http://www.w3.org/2000/svg" 
 version="1.1" 
 width="1000" 
 height="1070" 
 id="svg2">
  <rect x="0" y="0" width="1000" height="1070" stroke-width="2" stroke="white" fill="white"/>
  <text x="12.5" y="30"
   font-family="Arial" font-size="25" fill="black" >
   Current time: 0 days, 2 hours, and 45.00 minutes, z = 0.00 &#956;m
  </text>
  <text x="12.5" y="57.5"
   font-family="Arial" font-size="23.75" fill="black" >
   169 agents
  </text>
 <g id="tissue" 
    transform="translate(0,1070) scale(1,-1)">
  <g id="ECM">
  </g>
  <g id="cells">
   <g id="cell0">
  <circle cx="429.469" cy="448.823" r="8.41271" stroke-width="0.5" stroke="black" fill="blue"/>
  <circle cx="429.469" cy="448.823" r="5.05167" stroke-width="0.5" stroke="blue" fill="blue"/>
   </g>
   <g id="cell1">
  <circle cx="426.267" cy="464.164" r="8.41271" stroke-width="0.5" stroke="black" fill="Red"/>
  <circle cx="426.267" cy="464.164" r="5.05167" stroke-width="0.5" stroke="Red" fill="Red"/>
   </g>
   <g id="cell2">
  <circle cx="427.246" cy="477.849" r="8.41271" stroke-width="0.5" stroke="black" fill="blue"/>
  <circle cx="427.246" cy="477.849" r="5.05167" stroke-width="0.5" stroke="blue" fill="blue"/>
   </g>
   <g id="cell3">
  <circle cx="426.332" cy="490.461" r="6.78181" stroke-width="0.5" stroke="black" fill="Red"/>
  <circle cx="426.332" cy="490.461" r="4.08714" stroke-width="0.5" stroke="Red" fill="Red"/>
   </g>
   <g id="cell4">
  <circle cx="431.225" cy="512.545" r="8.41271" stroke-width="0.5" stroke="black" fill="Red"/>
  <circle cx="431.225" cy="512.545" r="5.05167" stroke-width="0.5" stroke="Red" fill="Red"/>
   </g>
   <g id="cell5">
  <circle cx="419.86" cy="522.917" r="6.71158" stroke-width="0.5" stroke="black" fill="Red"/>
  <circle cx="419.86" cy="522.917" r="4.03435" stroke-width="0.5" stroke="Red" fill="Red"/>
   </g>
   <g id="cell6">
  <circle cx="427.654" cy="536.12" r="8.41271" stroke-width="0.5" stroke="black" fill="blue"/>
  <circle cx="427.654" cy="536.12" r="5.05167" stroke-width="0.5" stroke="blue" fill="blue"/>
   </g>
   <g id="cell7">
  <circle cx="441.054" cy="445.728" r="7.38797" stroke-width="0.5" stroke="black" fill="Red"/>
  <circle cx="441.054" cy="445.728" r="4.49029" stroke-width="0.5" stroke="Red" fill="Red"/>
   </g>
   <g id="cell8">
  <circle cx="439.154" cy="459.628" r="8.41271" stroke-width="0.5" stroke="black" fill="Red"/>
  <circle cx="439.154" cy="459.628" r="5.05167" stroke-width="0.5" stroke="Red" fill="Red"/>
   </g>
   <g id="cell9">
  <circle cx="439.469" cy="473.932" r="8.41271" stroke-width="0.5" stroke="black" fill="yellow"/>
  <circle cx="439.469" cy="473.932" r="5.05167" stroke-width="0.5" stroke="yellow" fill="yellow"/>
   </g>
   <g id="cell10">
  <circle cx="439.361" cy="488.588" r="8.41271" stroke-width="0.5" stroke="black" fill="yellow"/>
  <circle cx="439.361" cy="488.588" r="5.05167" stroke-width="0.5" stroke="yellow" fill="yellow"/>
   </g>
   <g id="cell11">
  <circle cx="442.182" cy="502.386" r="8.41271" stroke-width="0.5" stroke="black" fill="Red"/>
  <circle cx="442.182" cy="502.386" r="5.05167" stroke-width="0.5" stroke="Red" fill="Red"/>
   </g>
   <g id="cell12">
  <circle cx="438.894" cy="522.186" r="7.11815" stroke-width="0.5" stroke="black" fill="Red"/>
  <circle cx="438.894" cy="522.186" r="4.31954" stroke-width="0.5" stroke="Red" fill="Red"/>
   </g>
   <g id="cell13">
  <circle cx="441.267" cy="533.015" r="8.41271" stroke-width="0.5" stroke="black" fill="Red"/>
  <circle cx="441.267" cy="533.015" r="5.05167" stroke-width="0.5" stroke="Red" fill="Red"/>
   </g>
   <g id="cell14">
  <circle cx="437.495" cy="547.013" r="8.41271" stroke-width="0.5" stroke="black" fill="yellow"/>
  <circle cx="437.495" cy="547.013" r="5.05167" stroke-width="0.5" stroke="yellow" fill="yellow"/>
   </g>
   <g id="cell15">
  <circle cx="438.839" cy="560.718" r="8.41271" stroke-width="0.5" stroke="black" fill="blue"/>
  <circle cx="438.839" cy="560.718" r="5.05167" stroke-width="0.5" stroke="blue" fill="blue"/>
   </g>
   <g id="cell16">
  <circle cx="454.194" cy="426.809" r="6.11768" stroke-width="0.5" stroke="black" fill="yellow"/>
  <circle cx="454.194" cy="426.809" r="3.74909" stroke-width="0.5" stroke="yellow" fill="yellow"/>
   </g>
   <g id="cell17">
  <circle cx="452.196" cy="438.54" r="8.41271" stroke-width="0.5" stroke="black" fill="Red"/>
  <circle cx="452.196" cy="438.54" r="5.05167" stroke-width="0.5" stroke="Red" fill="Red"/>
   </g>
   <g id="cell18">
  <circle cx="451.323" cy="453.099" r="8.41271" stroke-width="0.5" stroke="black" fill="Red"/>
  <circle cx="451.323" cy="453.099" r="5.05167" stroke-width="0.5" stroke="Red" fill="Red"/>
   </g>
   <g id="cell19">
  <circle cx="452.417" cy="467.146" r="8.41271" stroke-width="0.5" stroke="black" fill="blue"/>
  <circle cx="452.417" cy="467.146" r="5.05167" stroke-width="0.5" stroke="blue" fill="blue"/>
   </g>
   <g id="cell20">
  <circle cx="452.632" cy="480.158" r="8.41271" stroke-width="0.5" stroke="black" fill="Red"/>
  <circle cx="452.632" cy="480.158" r="5.05167" stroke-width="0.5" stroke="Red" fill="Red"/>
   </g>
   <g id="cell21">
  <circle cx="452.082" cy="493.599" r="8.41271" stroke-width="0.5" stroke="black" fill="blue"/>
  <circle cx="452.082" cy="493.599" r="5.05167" stroke-width="0.5" stroke="blue" fill="blue"/>
   </g>
   <g id="cell22">
  <circle cx="455.387" cy="508.197" r="8.41271" stroke-width="0.5" stroke="black" fill="Red"/>
  <circle cx="455.387" cy="508.197" r="5.05167" stroke-width="0.5" stroke="Red" fill="Red"/>
   </g>
   <g id="cell23">
  <circle cx="451.57" cy="523.336" r="8.41271" stroke-width="0.5" stroke="black" fill="Red"/>
  <circle cx="451.57" cy="523.336" r="5.05167" stroke-width="0.5" stroke="Red" fill="Red"/>
   </g>
   <g id="cell24">
  <circle cx="451.199" cy="541.463" r="8.41271" stroke-width="0.5" stroke="black" fill="blue"/>
  <circle cx="451.199" cy="541.463" r="5.05167" stroke-width="0.5" stroke="blue" fill="blue"/>
   </g>
   <g id="cell25">
  <circle cx="452.077" cy="553.978" r="8.41271" stroke-width="0.5" stroke="black" fill="yellow"/>
  <circle cx="452.077" cy="553.978" r="5.05167" stroke-width="0.5" stroke="yellow" fill="yellow"/>
   </g>
   <g id="cell26">
  <circle cx="452.632" cy="568.46" r="8.41271" stroke-width="0.5" stroke="black" fill="yellow"/>
  <circle cx="452.632" cy="568.46" r="5.05167" stroke-width="0.5" stroke="yellow" fill="yellow"/>
   </g>
   <g id="cell27">
  <circle cx="464.02" cy="416.962" r="8.41271" stroke-width="0.5" stroke="black" fill="yellow"/>
  <circle cx="464.02" cy="416.962" r="5.05167" stroke-width="0.5" stroke="yellow" fill="yellow"/>
   </g>
   <g id="cell28">
  <circle cx="465.619" cy="431.229" r="8.41271" stroke-width="0.5" stroke="black" fill="Red"/>
  <circle cx="465.619" cy="431.229" r="5.05167" stroke-width="0.5" stroke="Red" fill="Red"/>
   </g>
   <g id="cell29">
  <circle cx="461.19" cy="447.276" r="6.73287" stroke-width="0.5" stroke="black" fill="Red"/>
  <circle cx="461.19" cy="447.276" r="4.05039" stroke-width="0.5" stroke="Red" fill="Red"/>
   </g>
   <g id="cell30">
  <circle cx="463.367" cy="460.294" r="8.41271" stroke-width="0.5" stroke="black" fill="Red"/>
  <circle cx="463.367" cy="460.294" r="5.05167" stroke-width="0.5" stroke="Red" fill="Red"/>
   </g>
   <g id="cell31">
  <circle cx="464.957" cy="474.224" r="8.41271" stroke-width="0.5" stroke="black" fill="Red"/>
  <circle cx="464.957" cy="474.224" r="5.05167" stroke-width="0.5" stroke="Red" fill="Red"/>
   </g>
   <g id="cell32">
  <circle cx="464.978" cy="487.103" r="8.41271" stroke-width="0.5" stroke="black" fill="Red"/>
  <circle cx="464.978" cy="487.103" r="5.05167" stroke-width="0.5" stroke="Red" fill="Red"/>
   </g>
   <g id="cell33">
  <circle cx="463.662" cy="499.616" r="8.41271" stroke-width="0.5" stroke="black" fill="blue"/>
  <circle cx="463.662" cy="499.616" r="5.05167" stroke-width="0.5" stroke="blue" fill="blue"/>
   </g>
   <g id="cell34">
  <circle cx="463.954" cy="518.936" r="8.41271" stroke-width="0.5" stroke="black" fill="Red"/>
  <circle cx="463.954" cy="518.936" r="5.05167" stroke-width="0.5" stroke="Red" fill="Red"/>
   </g>
   <g id="cell35">
  <circle cx="461.239" cy="532.278" r="8.41271" stroke-width="0.5" stroke="black" fill="Red"/>
  <circle cx="461.239" cy="532.278" r="5.05167" stroke-width="0.5" stroke="Red" fill="Red"/>
   </g>
   <g id="cell36">
  <circle cx="465.564" cy="544.172" r="8.41271" stroke-width="0.5" stroke="black" fill="Red"/>
  <circle cx="465.564" cy="544.172" r="5.05167" stroke-width="0.5" stroke="Red" fill="Red"/>
   </g>
   <g id="cell37">
  <circle cx="465.289" cy="558.862" r="8.41271" stroke-width="0.5" stroke="black" fill="Red"/>
  <circle cx="465.289" cy="558.862" r="5.05167" stroke-width="0.5" stroke="Red" fill="Red"/>
   </g>
   <g id="cell38">
  <circle cx="466.824" cy="571.375" r="8.41271" stroke-width="0.5" stroke="black" fill="Red"/>
  <circle cx="466.824" cy="571.375" r="5.05167" stroke-width="0.5" stroke="Red" fill="Red"/>
   </g>
   <g id="cell39">
  <circle cx="460.659" cy="582.191" r="8.41271" stroke-width="0.5" stroke="black" fill="blue"/>
  <circle cx="460.659" cy="582.191" r="5.05167" stroke-width="0.5" stroke="blue" fill="blue"/>
   </g>
   <g id="cell40">
  <circle cx="476.524" cy="408.727" r="8.41271" stroke-width="0.5" stroke="black" fill="blue"/>
  <circle cx="476.524" cy="408.727" r="5.05167" stroke-width="0.5" stroke="blue" fill="blue"/>
   </g>
   <g id="cell41">
  <circle cx="476.972" cy="423.91" r="8.41271" stroke-width="0.5" stroke="black" fill="yellow"/>
  <circle cx="476.972" cy="423.91" r="5.05167" stroke-width="0.5" stroke="yellow" fill="yellow"/>
   </g>
   <g id="cell42">
  <circle cx="479.398" cy="439.512" r="8.41271" stroke-width="0.5" stroke="black" fill="Red"/>
  <circle cx="479.398" cy="439.512" r="5.05167" stroke-width="0.5" stroke="Red" fill="Red"/>
   </g>
   <g id="cell43">
  <circle cx="473.789" cy="452.514" r="8.41271" stroke-width="0.5" stroke="black" fill="Red"/>
  <circle cx="473.789" cy="452.514" r="5.05167" stroke-width="0.5" stroke="Red" fill="Red"/>
   </g>
   <g id="cell44">
  <circle cx="476.739" cy="466.905" r="8.41271" stroke-width="0.5" stroke="black" fill="Red"/>
  <circle cx="476.739" cy="466.905" r="5.05167" stroke-width="0.5" stroke="Red" fill="Red"/>
   </g>
   <g id="cell45">
  <circle cx="477.342" cy="481.083" r="8.41271" stroke-width="0.5" stroke="black" fill="Red"/>
  <circle cx="477.342" cy="481.083" r="5.05167" stroke-width="0.5" stroke="Red" fill="Red"/>
   </g>
   <g id="cell46">
  <circle cx="476.803" cy="496.254" r="8.41271" stroke-width="0.5" stroke="black" fill="Red"/>
  <circle cx="476.803" cy="496.254" r="5.05167" stroke-width="0.5" stroke="Red" fill="Red"/>
   </g>
   <g id="cell47">
  <circle cx="471.312" cy="507.924" r="7.3599" stroke-width="0.5" stroke="black" fill="Red"/>
  <circle cx="471.312" cy="507.924" r="4.47294" stroke-width="0.5" stroke="Red" fill="Red"/>
   </g>
   <g id="cell48">
  <circle cx="480.848" cy="521.83" r="6.92764" stroke-width="0.5" stroke="black" fill="Red"/>
  <circle cx="480.848" cy="521.83" r="4.1918" stroke-width="0.5" stroke="Red" fill="Red"/>
   </g>
   <g id="cell49">
  <circle cx="476.697" cy="537.585" r="8.41271" stroke-width="0.5" stroke="black" fill="Red"/>
  <circle cx="476.697" cy="537.585" r="5.05167" stroke-width="0.5" stroke="Red" fill="Red"/>
   </g>
   <g id="cell50">
  <circle cx="478.103" cy="551.502" r="8.41271" stroke-width="0.5" stroke="black" fill="Red"/>
  <circle cx="478.103" cy="551.502" r="5.05167" stroke-width="0.5" stroke="Red" fill="Red"/>
   </g>
   <g id="cell51">
  <circle cx="477.893" cy="564.981" r="8.41271" stroke-width="0.5" stroke="black" fill="blue"/>
  <circle cx="477.893" cy="564.981" r="5.05167" stroke-width="0.5" stroke="blue" fill="blue"/>
   </g>
   <g id="cell52">
  <circle cx="476.763" cy="581.495" r="8.41271" stroke-width="0.5" stroke="black" fill="Red"/>
  <circle cx="476.763" cy="581.495" r="5.05167" stroke-width="0.5" stroke="Red" fill="Red"/>
   </g>
   <g id="cell53">
  <circle cx="488.94" cy="416.649" r="8.41271" stroke-width="0.5" stroke="black" fill="yellow"/>
  <circle cx="488.94" cy="416.649" r="5.05167" stroke-width="0.5" stroke="yellow" fill="yellow"/>
   </g>
   <g id="cell54">
  <circle cx="488.577" cy="430.794" r="8.41271" stroke-width="0.5" stroke="black" fill="blue"/>
  <circle cx="488.577" cy="430.794" r="5.05167" stroke-width="0.5" stroke="blue" fill="blue"/>
   </g>
   <g id="cell55">
  <circle cx="485.601" cy="450.872" r="6.73287" stroke-width="0.5" stroke="black" fill="Red"/>
  <circle cx="485.601" cy="450.872" r="4.05039" stroke-width="0.5" stroke="Red" fill="Red"/>
   </g>
   <g id="cell56">
  <circle cx="495.333" cy="464.24" r="7.0545" stroke-width="0.5" stroke="black" fill="blue"/>
  <circle cx="495.333" cy="464.24" r="4.27772" stroke-width="0.5" stroke="blue" fill="blue"/>
   </g>
   <g id="cell57">
  <circle cx="489.331" cy="474.271" r="8.41271" stroke-width="0.5" stroke="black" fill="Red"/>
  <circle cx="489.331" cy="474.271" r="5.05167" stroke-width="0.5" stroke="Red" fill="Red"/>
   </g>
   <g id="cell58">
  <circle cx="489.345" cy="489.033" r="8.41271" stroke-width="0.5" stroke="black" fill="blue"/>
  <circle cx="489.345" cy="489.033" r="5.05167" stroke-width="0.5" stroke="blue" fill="blue"/>
   </g>
   <g id="cell59">
  <circle cx="488.383" cy="503.371" r="8.41271" stroke-width="0.5" stroke="black" fill="Red"/>
  <circle cx="488.383" cy="503.371" r="5.05167" stroke-width="0.5" stroke="Red" fill="Red"/>
   </g>
   <g id="cell60">
  <circle cx="491.159" cy="516.685" r="8.41271" stroke-width="0.5" stroke="black" fill="Red"/>
  <circle cx="491.159" cy="516.685" r="5.05167" stroke-width="0.5" stroke="Red" fill="Red"/>
   </g>
   <g id="cell61">
  <circle cx="488.518" cy="530.18" r="8.41271" stroke-width="0.5" stroke="black" fill="Red"/>
  <circle cx="488.518" cy="530.18" r="5.05167" stroke-width="0.5" stroke="Red" fill="Red"/>
   </g>
   <g id="cell62">
  <circle cx="487.993" cy="543.779" r="8.41271" stroke-width="0.5" stroke="black" fill="blue"/>
  <circle cx="487.993" cy="543.779" r="5.05167" stroke-width="0.5" stroke="blue" fill="blue"/>
   </g>
   <g id="cell63">
  <circle cx="490.097" cy="558.839" r="8.41271" stroke-width="0.5" stroke="black" fill="Red"/>
  <circle cx="490.097" cy="558.839" r="5.05167" stroke-width="0.5" stroke="Red" fill="Red"/>
   </g>
   <g id="cell64">
  <circle cx="487.986" cy="574.435" r="8.41271" stroke-width="0.5" stroke="black" fill="Red"/>
  <circle cx="487.986" cy="574.435" r="5.05167" stroke-width="0.5" stroke="Red" fill="Red"/>
   </g>
   <g id="cell65">
  <circle cx="491.114" cy="588.107" r="8.41271" stroke-width="0.5" stroke="black" fill="Red"/>
  <circle cx="491.114" cy="588.107" r="5.05167" stroke-width="0.5" stroke="Red" fill="Red"/>
   </g>
   <g id="cell66">
  <circle cx="501.575" cy="410.541" r="8.41271" stroke-width="0.5" stroke="black" fill="blue"/>
  <circle cx="501.575" cy="410.541" r="5.05167" stroke-width="0.5" stroke="blue" fill="blue"/>
   </g>
   <g id="cell67">
  <circle cx="501.12" cy="425.789" r="8.41271" stroke-width="0.5" stroke="black" fill="yellow"/>
  <circle cx="501.12" cy="425.789" r="5.05167" stroke-width="0.5" stroke="yellow" fill="yellow"/>
   </g>
   <g id="cell68">
  <circle cx="502.005" cy="440.181" r="8.41271" stroke-width="0.5" stroke="black" fill="Red"/>
  <circle cx="502.005" cy="440.181" r="5.05167" stroke-width="0.5" stroke="Red" fill="Red"/>
   </g>
   <g id="cell69">
  <circle cx="498.352" cy="452.723" r="8.41271" stroke-width="0.5" stroke="black" fill="Red"/>
  <circle cx="498.352" cy="452.723" r="5.05167" stroke-width="0.5" stroke="Red" fill="Red"/>
   </g>
   <g id="cell70">
  <circle cx="503.88" cy="471.059" r="8.41271" stroke-width="0.5" stroke="black" fill="Red"/>
  <circle cx="503.88" cy="471.059" r="5.05167" stroke-width="0.5" stroke="Red" fill="Red"/>
   </g>
   <g id="cell71">
  <circle cx="500.602" cy="483.399" r="8.41271" stroke-width="0.5" stroke="black" fill="Red"/>
  <circle cx="500.602" cy="483.399" r="5.05167" stroke-width="0.5" stroke="Red" fill="Red"/>
   </g>
   <g id="cell72">
  <circle cx="501.49" cy="496.293" r="8.41271" stroke-width="0.5" stroke="black" fill="Red"/>
  <circle cx="501.49" cy="496.293" r="5.05167" stroke-width="0.5" stroke="Red" fill="Red"/>
   </g>
   <g id="cell73">
  <circle cx="502.006" cy="508.965" r="8.41271" stroke-width="0.5" stroke="black" fill="Red"/>
  <circle cx="502.006" cy="508.965" r="5.05167" stroke-width="0.5" stroke="Red" fill="Red"/>
   </g>
   <g id="cell74">
  <circle cx="502.319" cy="523.657" r="8.41271" stroke-width="0.5" stroke="black" fill="Red"/>
  <circle cx="502.319" cy="523.657" r="5.05167" stroke-width="0.5" stroke="Red" fill="Red"/>
   </g>
   <g id="cell75">
  <circle cx="499.214" cy="537.115" r="8.41271" stroke-width="0.5" stroke="black" fill="blue"/>
  <circle cx="499.214" cy="537.115" r="5.05167" stroke-width="0.5" stroke="blue" fill="blue"/>
   </g>
   <g id="cell76">
  <circle cx="500.366" cy="550.472" r="8.41271" stroke-width="0.5" stroke="black" fill="Red"/>
  <circle cx="500.366" cy="550.472" r="5.05167" stroke-width="0.5" stroke="Red" fill="Red"/>
   </g>
   <g id="cell77">
  <circle cx="499.077" cy="568.044" r="6.89675" stroke-width="0.5" stroke="black" fill="blue"/>
  <circle cx="499.077" cy="568.044" r="4.17024" stroke-width="0.5" stroke="blue" fill="blue"/>
   </g>
   <g id="cell78">
  <circle cx="503.099" cy="579.251" r="8.41271" stroke-width="0.5" stroke="black" fill="yellow"/>
  <circle cx="503.099" cy="579.251" r="5.05167" stroke-width="0.5" stroke="yellow" fill="yellow"/>
   </g>
   <g id="cell79">
  <circle cx="503.174" cy="592.736" r="8.41271" stroke-width="0.5" stroke="black" fill="blue"/>
  <circle cx="503.174" cy="592.736" r="5.05167" stroke-width="0.5" stroke="blue" fill="blue"/>
   </g>
   <g id="cell80">
  <circle cx="513.058" cy="416.947" r="8.41271" stroke-width="0.5" stroke="black" fill="yellow"/>
  <circle cx="513.058" cy="416.947" r="5.05167" stroke-width="0.5" stroke="yellow" fill="yellow"/>
   </g>
   <g id="cell81">
  <circle cx="514.213" cy="432.155" r="8.41271" stroke-width="0.5" stroke="black" fill="blue"/>
  <circle cx="514.213" cy="432.155" r="5.05167" stroke-width="0.5" stroke="blue" fill="blue"/>
   </g>
   <g id="cell82">
  <circle cx="513.437" cy="446.227" r="8.41271" stroke-width="0.5" stroke="black" fill="Red"/>
  <circle cx="513.437" cy="446.227" r="5.05167" stroke-width="0.5" stroke="Red" fill="Red"/>
   </g>
   <g id="cell83">
  <circle cx="508.712" cy="459.365" r="8.41271" stroke-width="0.5" stroke="black" fill="Red"/>
  <circle cx="508.712" cy="459.365" r="5.05167" stroke-width="0.5" stroke="Red" fill="Red"/>
   </g>
   <g id="cell84">
  <circle cx="514.418" cy="474.938" r="8.41271" stroke-width="0.5" stroke="black" fill="Red"/>
  <circle cx="514.418" cy="474.938" r="5.05167" stroke-width="0.5" stroke="Red" fill="Red"/>
   </g>
   <g id="cell85">
  <circle cx="512.451" cy="486.509" r="8.41271" stroke-width="0.5" stroke="black" fill="blue"/>
  <circle cx="512.451" cy="486.509" r="5.05167" stroke-width="0.5" stroke="blue" fill="blue"/>
   </g>
   <g id="cell86">
  <circle cx="514.557" cy="497.546" r="8.41271" stroke-width="0.5" stroke="black" fill="Red"/>
  <circle cx="514.557" cy="497.546" r="5.05167" stroke-width="0.5" stroke="Red" fill="Red"/>
   </g>
   <g id="cell87">
  <circle cx="512.451" cy="508.41" r="6.99069" stroke-width="0.5" stroke="black" fill="Red"/>
  <circle cx="512.451" cy="508.41" r="4.23498" stroke-width="0.5" stroke="Red" fill="Red"/>
   </g>
   <g id="cell88">
  <circle cx="512.125" cy="532.4" r="8.41271" stroke-width="0.5" stroke="black" fill="Red"/>
  <circle cx="512.125" cy="532.4" r="5.05167" stroke-width="0.5" stroke="Red" fill="Red"/>
   </g>
   <g id="cell89">
  <circle cx="511.271" cy="545.602" r="8.41271" stroke-width="0.5" stroke="black" fill="Red"/>
  <circle cx="511.271" cy="545.602" r="5.05167" stroke-width="0.5" stroke="Red" fill="Red"/>
   </g>
   <g id="cell90">
  <circle cx="513.637" cy="557.605" r="8.41271" stroke-width="0.5" stroke="black" fill="Red"/>
  <circle cx="513.637" cy="557.605" r="5.05167" stroke-width="0.5" stroke="Red" fill="Red"/>
   </g>
   <g id="cell91">
  <circle cx="512.851" cy="569.795" r="8.41271" stroke-width="0.5" stroke="black" fill="Red"/>
  <circle cx="512.851" cy="569.795" r="5.05167" stroke-width="0.5" stroke="Red" fill="Red"/>
   </g>
   <g id="cell92">
  <circle cx="515.66" cy="585.366" r="8.41271" stroke-width="0.5" stroke="black" fill="Red"/>
  <circle cx="515.66" cy="585.366" r="5.05167" stroke-width="0.5" stroke="Red" fill="Red"/>
   </g>
   <g id="cell93">
  <circle cx="528.441" cy="413.187" r="8.41271" stroke-width="0.5" stroke="black" fill="blue"/>
  <circle cx="528.441" cy="413.187" r="5.05167" stroke-width="0.5" stroke="blue" fill="blue"/>
   </g>
   <g id="cell94">
  <circle cx="533.267" cy="425.756" r="7.02257" stroke-width="0.5" stroke="black" fill="Red"/>
  <circle cx="533.267" cy="425.756" r="4.25644" stroke-width="0.5" stroke="Red" fill="Red"/>
   </g>
   <g id="cell95">
  <circle cx="527.752" cy="437.169" r="8.41271" stroke-width="0.5" stroke="black" fill="Red"/>
  <circle cx="527.752" cy="437.169" r="5.05167" stroke-width="0.5" stroke="Red" fill="Red"/>
   </g>
   <g id="cell96">
  <circle cx="524.871" cy="448.235" r="5.91404" stroke-width="0.5" stroke="black" fill="blue"/>
  <circle cx="524.871" cy="448.235" r="3.60138" stroke-width="0.5" stroke="blue" fill="blue"/>
   </g>
   <g id="cell97">
  <circle cx="520.554" cy="464.598" r="8.41271" stroke-width="0.5" stroke="black" fill="Red"/>
  <circle cx="520.554" cy="464.598" r="5.05167" stroke-width="0.5" stroke="Red" fill="Red"/>
   </g>
   <g id="cell98">
  <circle cx="524.001" cy="487.153" r="6.80881" stroke-width="0.5" stroke="black" fill="blue"/>
  <circle cx="524.001" cy="487.153" r="4.10709" stroke-width="0.5" stroke="blue" fill="blue"/>
   </g>
   <g id="cell99">
  <circle cx="526.999" cy="498.537" r="8.41271" stroke-width="0.5" stroke="black" fill="Red"/>
  <circle cx="526.999" cy="498.537" r="5.05167" stroke-width="0.5" stroke="Red" fill="Red"/>
   </g>
   <g id="cell100">
  <circle cx="523.875" cy="510.356" r="8.41271" stroke-width="0.5" stroke="black" fill="Red"/>
  <circle cx="523.875" cy="510.356" r="5.05167" stroke-width="0.5" stroke="Red" fill="Red"/>
   </g>
   <g id="cell101">
  <circle cx="521.491" cy="524.059" r="8.41271" stroke-width="0.5" stroke="black" fill="Red"/>
  <circle cx="521.491" cy="524.059" r="5.05167" stroke-width="0.5" stroke="Red" fill="Red"/>
   </g>
   <g id="cell102">
  <circle cx="530.409" cy="532.011" r="7.27253" stroke-width="0.5" stroke="black" fill="Red"/>
  <circle cx="530.409" cy="532.011" r="4.41835" stroke-width="0.5" stroke="Red" fill="Red"/>
   </g>
   <g id="cell103">
  <circle cx="524.392" cy="548.785" r="8.41271" stroke-width="0.5" stroke="black" fill="Red"/>
  <circle cx="524.392" cy="548.785" r="5.05167" stroke-width="0.5" stroke="Red" fill="Red"/>
   </g>
   <g id="cell104">
  <circle cx="526.05" cy="562.15" r="8.41271" stroke-width="0.5" stroke="black" fill="Red"/>
  <circle cx="526.05" cy="562.15" r="5.05167" stroke-width="0.5" stroke="Red" fill="Red"/>
   </g>
   <g id="cell105">
  <circle cx="524.566" cy="575.671" r="8.41271" stroke-width="0.5" stroke="black" fill="blue"/>
  <circle cx="524.566" cy="575.671" r="5.05167" stroke-width="0.5" stroke="blue" fill="blue"/>
   </g>
   <g id="cell106">
  <circle cx="542.256" cy="418.538" r="8.41271" stroke-width="0.5" stroke="black" fill="yellow"/>
  <circle cx="542.256" cy="418.538" r="5.05167" stroke-width="0.5" stroke="yellow" fill="yellow"/>
   </g>
   <g id="cell107">
  <circle cx="541.843" cy="434.667" r="8.41271" stroke-width="0.5" stroke="black" fill="yellow"/>
  <circle cx="541.843" cy="434.667" r="5.05167" stroke-width="0.5" stroke="yellow" fill="yellow"/>
   </g>
   <g id="cell108">
  <circle cx="536.177" cy="447.341" r="8.41271" stroke-width="0.5" stroke="black" fill="Red"/>
  <circle cx="536.177" cy="447.341" r="5.05167" stroke-width="0.5" stroke="Red" fill="Red"/>
   </g>
   <g id="cell109">
  <circle cx="541.79" cy="464.235" r="8.41271" stroke-width="0.5" stroke="black" fill="Red"/>
  <circle cx="541.79" cy="464.235" r="5.05167" stroke-width="0.5" stroke="Red" fill="Red"/>
   </g>
   <g id="cell110">
  <circle cx="536.725" cy="477.623" r="8.41271" stroke-width="0.5" stroke="black" fill="Red"/>
  <circle cx="536.725" cy="477.623" r="5.05167" stroke-width="0.5" stroke="Red" fill="Red"/>
   </g>
   <g id="cell111">
  <circle cx="537.845" cy="490.715" r="8.41271" stroke-width="0.5" stroke="black" fill="blue"/>
  <circle cx="537.845" cy="490.715" r="5.05167" stroke-width="0.5" stroke="blue" fill="blue"/>
   </g>
   <g id="cell112">
  <circle cx="538.934" cy="504.004" r="8.41271" stroke-width="0.5" stroke="black" fill="Red"/>
  <circle cx="538.934" cy="504.004" r="5.05167" stroke-width="0.5" stroke="Red" fill="Red"/>
   </g>
   <g id="cell113">
  <circle cx="534.297" cy="516.074" r="8.41271" stroke-width="0.5" stroke="black" fill="blue"/>
  <circle cx="534.297" cy="516.074" r="5.05167" stroke-width="0.5" stroke="blue" fill="blue"/>
   </g>
   <g id="cell114">
  <circle cx="540.831" cy="528.958" r="8.41271" stroke-width="0.5" stroke="black" fill="Red"/>
  <circle cx="540.831" cy="528.958" r="5.05167" stroke-width="0.5" stroke="Red" fill="Red"/>
   </g>
   <g id="cell115">
  <circle cx="538.175" cy="541.62" r="8.41271" stroke-width="0.5" stroke="black" fill="Red"/>
  <circle cx="538.175" cy="541.62" r="5.05167" stroke-width="0.5" stroke="Red" fill="Red"/>
   </g>
   <g id="cell116">
  <circle cx="537.753" cy="555.609" r="8.41271" stroke-width="0.5" stroke="black" fill="Red"/>
  <circle cx="537.753" cy="555.609" r="5.05167" stroke-width="0.5" stroke="Red" fill="Red"/>
   </g>
   <g id="cell117">
  <circle cx="537.741" cy="569.143" r="8.41271" stroke-width="0.5" stroke="black" fill="Red"/>
  <circle cx="537.741" cy="569.143" r="5.05167" stroke-width="0.5" stroke="Red" fill="Red"/>
   </g>
   <g id="cell118">
  <circle cx="552.915" cy="427.408" r="8.41271" stroke-width="0.5" stroke="black" fill="blue"/>
  <circle cx="552.915" cy="427.408" r="5.05167" stroke-width="0.5" stroke="blue" fill="blue"/>
   </g>
   <g id="cell119">
  <circle cx="552.379" cy="443.299" r="8.41271" stroke-width="0.5" stroke="black" fill="Red"/>
  <circle cx="552.379" cy="443.299" r="5.05167" stroke-width="0.5" stroke="Red" fill="Red"/>
   </g>
   <g id="cell120">
  <circle cx="556.102" cy="456.362" r="6.99069" stroke-width="0.5" stroke="black" fill="Red"/>
  <circle cx="556.102" cy="456.362" r="4.23498" stroke-width="0.5" stroke="Red" fill="Red"/>
   </g>
   <g id="cell121">
  <circle cx="554.312" cy="469.067" r="8.41271" stroke-width="0.5" stroke="black" fill="Red"/>
  <circle cx="554.312" cy="469.067" r="5.05167" stroke-width="0.5" stroke="Red" fill="Red"/>
   </g>
   <g id="cell122">
  <circle cx="549.105" cy="480.605" r="8.41271" stroke-width="0.5" stroke="black" fill="blue"/>
  <circle cx="549.105" cy="480.605" r="5.05167" stroke-width="0.5" stroke="blue" fill="blue"/>
   </g>
   <g id="cell123">
  <circle cx="551.02" cy="494.558" r="8.41271" stroke-width="0.5" stroke="black" fill="Red"/>
  <circle cx="551.02" cy="494.558" r="5.05167" stroke-width="0.5" stroke="Red" fill="Red"/>
   </g>
   <g id="cell124">
  <circle cx="550.662" cy="507.987" r="8.41271" stroke-width="0.5" stroke="black" fill="Red"/>
  <circle cx="550.662" cy="507.987" r="5.05167" stroke-width="0.5" stroke="Red" fill="Red"/>
   </g>
   <g id="cell125">
  <circle cx="545.898" cy="519.214" r="7.02257" stroke-width="0.5" stroke="black" fill="Red"/>
  <circle cx="545.898" cy="519.214" r="4.25644" stroke-width="0.5" stroke="Red" fill="Red"/>
   </g>
   <g id="cell126">
  <circle cx="551.356" cy="534.739" r="8.41271" stroke-width="0.5" stroke="black" fill="Red"/>
  <circle cx="551.356" cy="534.739" r="5.05167" stroke-width="0.5" stroke="Red" fill="Red"/>
   </g>
   <g id="cell127">
  <circle cx="550.182" cy="547.742" r="8.41271" stroke-width="0.5" stroke="black" fill="Red"/>
  <circle cx="550.182" cy="547.742" r="5.05167" stroke-width="0.5" stroke="Red" fill="Red"/>
   </g>
   <g id="cell128">
  <circle cx="550.766" cy="562.089" r="8.41271" stroke-width="0.5" stroke="black" fill="Red"/>
  <circle cx="550.766" cy="562.089" r="5.05167" stroke-width="0.5" stroke="Red" fill="Red"/>
   </g>
   <g id="cell129">
  <circle cx="576.232" cy="455.959" r="6.95901" stroke-width="0.5" stroke="black" fill="blue"/>
  <circle cx="576.232" cy="455.959" r="4.21341" stroke-width="0.5" stroke="blue" fill="blue"/>
   </g>
   <g id="cell130">
  <circle cx="566.456" cy="462.231" r="8.41271" stroke-width="0.5" stroke="black" fill="yellow"/>
  <circle cx="566.456" cy="462.231" r="5.05167" stroke-width="0.5" stroke="yellow" fill="yellow"/>
   </g>
   <g id="cell131">
  <circle cx="568.084" cy="475.376" r="8.41271" stroke-width="0.5" stroke="black" fill="Red"/>
  <circle cx="568.084" cy="475.376" r="5.05167" stroke-width="0.5" stroke="Red" fill="Red"/>
   </g>
   <g id="cell132">
  <circle cx="561.913" cy="486.063" r="8.41271" stroke-width="0.5" stroke="black" fill="Red"/>
  <circle cx="561.913" cy="486.063" r="5.05167" stroke-width="0.5" stroke="Red" fill="Red"/>
   </g>
   <g id="cell133">
  <circle cx="563.27" cy="500.77" r="8.41271" stroke-width="0.5" stroke="black" fill="blue"/>
  <circle cx="563.27" cy="500.77" r="5.05167" stroke-width="0.5" stroke="blue" fill="blue"/>
   </g>
   <g id="cell134">
  <circle cx="563.076" cy="514.84" r="8.41271" stroke-width="0.5" stroke="black" fill="Red"/>
  <circle cx="563.076" cy="514.84" r="5.05167" stroke-width="0.5" stroke="Red" fill="Red"/>
   </g>
   <g id="cell135">
  <circle cx="565.785" cy="529.741" r="8.41271" stroke-width="0.5" stroke="black" fill="yellow"/>
  <circle cx="565.785" cy="529.741" r="5.05167" stroke-width="0.5" stroke="yellow" fill="yellow"/>
   </g>
   <g id="cell136">
  <circle cx="561.921" cy="542.391" r="8.41271" stroke-width="0.5" stroke="black" fill="Red"/>
  <circle cx="561.921" cy="542.391" r="5.05167" stroke-width="0.5" stroke="Red" fill="Red"/>
   </g>
   <g id="cell137">
  <circle cx="564.617" cy="556.002" r="8.41271" stroke-width="0.5" stroke="black" fill="blue"/>
  <circle cx="564.617" cy="556.002" r="5.05167" stroke-width="0.5" stroke="blue" fill="blue"/>
   </g>
   <g id="cell138">
  <circle cx="580.076" cy="467.261" r="8.41271" stroke-width="0.5" stroke="black" fill="Red"/>
  <circle cx="580.076" cy="467.261" r="5.05167" stroke-width="0.5" stroke="Red" fill="Red"/>
   </g>
   <g id="cell139">
  <circle cx="580.312" cy="482.672" r="8.41271" stroke-width="0.5" stroke="black" fill="Red"/>
  <circle cx="580.312" cy="482.672" r="5.05167" stroke-width="0.5" stroke="Red" fill="Red"/>
   </g>
   <g id="cell140">
  <circle cx="572.749" cy="493.228" r="7.38797" stroke-width="0.5" stroke="black" fill="Red"/>
  <circle cx="572.749" cy="493.228" r="4.49029" stroke-width="0.5" stroke="Red" fill="Red"/>
   </g>
   <g id="cell141">
  <circle cx="575.26" cy="507.076" r="8.41271" stroke-width="0.5" stroke="black" fill="yellow"/>
  <circle cx="575.26" cy="507.076" r="5.05167" stroke-width="0.5" stroke="yellow" fill="yellow"/>
   </g>
   <g id="cell142">
  <circle cx="574.04" cy="520.67" r="6.78181" stroke-width="0.5" stroke="black" fill="blue"/>
  <circle cx="574.04" cy="520.67" r="4.08714" stroke-width="0.5" stroke="blue" fill="blue"/>
   </g>
   <g id="cell143">
  <circle cx="573.911" cy="542.876" r="8.41271" stroke-width="0.5" stroke="black" fill="blue"/>
  <circle cx="573.911" cy="542.876" r="5.05167" stroke-width="0.5" stroke="blue" fill="blue"/>
   </g>
   <g id="cell144">
  <circle cx="435.803" cy="435.726" r="7.38797" stroke-width="0.5" stroke="black" fill="Red"/>
  <circle cx="435.803" cy="435.726" r="4.49029" stroke-width="0.5" stroke="Red" fill="Red"/>
   </g>
   <g id="cell145">
  <circle cx="584.844" cy="497.238" r="7.38797" stroke-width="0.5" stroke="black" fill="blue"/>
  <circle cx="584.844" cy="497.238" r="4.49029" stroke-width="0.5" stroke="blue" fill="blue"/>
   </g>
   <g id="cell146">
  <circle cx="480.961" cy="510.545" r="5.97725" stroke-width="0.5" stroke="black" fill="blue"/>
  <circle cx="480.961" cy="510.545" r="3.64646" stroke-width="0.5" stroke="blue" fill="blue"/>
   </g>
   <g id="cell147">
  <circle cx="530.64" cy="457.617" r="6.59067" stroke-width="0.5" stroke="black" fill="yellow"/>
  <circle cx="530.64" cy="457.617" r="4.04529" stroke-width="0.5" stroke="yellow" fill="yellow"/>
   </g>
   <g id="cell148">
  <circle cx="522.876" cy="537.805" r="7.27253" stroke-width="0.5" stroke="black" fill="blue"/>
  <circle cx="522.876" cy="537.805" r="4.41835" stroke-width="0.5" stroke="blue" fill="blue"/>
   </g>
   <g id="cell149">
  <circle cx="530.897" cy="468.243" r="6.59067" stroke-width="0.5" stroke="black" fill="blue"/>
  <circle cx="530.897" cy="468.243" r="4.04529" stroke-width="0.5" stroke="blue" fill="blue"/>
   </g>
   <g id="cell150">
  <circle cx="444.335" cy="513.257" r="7.11815" stroke-width="0.5" stroke="black" fill="blue"/>
  <circle cx="444.335" cy="513.257" r="4.31954" stroke-width="0.5" stroke="blue" fill="blue"/>
   </g>
   <g id="cell151">
  <circle cx="449.932" cy="416.967" r="7.11815" stroke-width="0.5" stroke="black" fill="blue"/>
  <circle cx="449.932" cy="416.967" r="4.31954" stroke-width="0.5" stroke="blue" fill="blue"/>
   </g>
   <g id="cell152">
  <circle cx="486.025" cy="460.149" r="7.0545" stroke-width="0.5" stroke="black" fill="blue"/>
  <circle cx="486.025" cy="460.149" r="4.27772" stroke-width="0.5" stroke="blue" fill="blue"/>
   </g>
   <g id="cell153">
  <circle cx="522.94" cy="424.509" r="7.02257" stroke-width="0.5" stroke="black" fill="yellow"/>
  <circle cx="522.94" cy="424.509" r="4.25644" stroke-width="0.5" stroke="yellow" fill="yellow"/>
   </g>
   <g id="cell154">
  <circle cx="554.618" cy="524.642" r="7.02257" stroke-width="0.5" stroke="black" fill="blue"/>
  <circle cx="554.618" cy="524.642" r="4.25644" stroke-width="0.5" stroke="blue" fill="blue"/>
   </g>
   <g id="cell155">
  <circle cx="443.29" cy="427.547" r="6.11768" stroke-width="0.5" stroke="black" fill="yellow"/>
  <circle cx="443.29" cy="427.547" r="3.74909" stroke-width="0.5" stroke="yellow" fill="yellow"/>
   </g>
   <g id="cell156">
  <circle cx="512.552" cy="517.901" r="6.99069" stroke-width="0.5" stroke="black" fill="blue"/>
  <circle cx="512.552" cy="517.901" r="4.23498" stroke-width="0.5" stroke="blue" fill="blue"/>
   </g>
   <g id="cell157">
  <circle cx="545.986" cy="454.409" r="6.99069" stroke-width="0.5" stroke="black" fill="blue"/>
  <circle cx="545.986" cy="454.409" r="4.23498" stroke-width="0.5" stroke="blue" fill="blue"/>
   </g>
   <g id="cell158">
  <circle cx="565.847" cy="450.067" r="6.95901" stroke-width="0.5" stroke="black" fill="yellow"/>
  <circle cx="565.847" cy="450.067" r="4.21341" stroke-width="0.5" stroke="yellow" fill="yellow"/>
   </g>
   <g id="cell159">
  <circle cx="471.468" cy="527.476" r="6.92764" stroke-width="0.5" stroke="black" fill="blue"/>
  <circle cx="471.468" cy="527.476" r="4.1918" stroke-width="0.5" stroke="blue" fill="blue"/>
   </g>
   <g id="cell160">
  <circle cx="503.364" cy="560.449" r="6.89675" stroke-width="0.5" stroke="black" fill="blue"/>
  <circle cx="503.364" cy="560.449" r="4.17024" stroke-width="0.5" stroke="blue" fill="blue"/>
   </g>
   <g id="cell161">
  <circle cx="525.617" cy="477.147" r="6.80881" stroke-width="0.5" stroke="black" fill="Red"/>
  <circle cx="525.617" cy="477.147" r="4.10709" stroke-width="0.5" stroke="Red" fill="Red"/>
   </g>
   <g id="cell162">
  <circle cx="578.99" cy="530.902" r="6.78181" stroke-width="0.5" stroke="black" fill="Red"/>
  <circle cx="578.99" cy="530.902" r="4.08714" stroke-width="0.5" stroke="Red" fill="Red"/>
   </g>
   <g id="cell163">
  <circle cx="474.268" cy="517.242" r="5.97725" stroke-width="0.5" stroke="black" fill="Red"/>
  <circle cx="474.268" cy="517.242" r="3.64646" stroke-width="0.5" stroke="Red" fill="Red"/>
   </g>
   <g id="cell164">
  <circle cx="429.858" cy="500.823" r="6.78181" stroke-width="0.5" stroke="black" fill="blue"/>
  <circle cx="429.858" cy="500.823" r="4.08714" stroke-width="0.5" stroke="blue" fill="blue"/>
   </g>
   <g id="cell165">
  <circle cx="468.321" cy="441.337" r="6.73287" stroke-width="0.5" stroke="black" fill="blue"/>
  <circle cx="468.321" cy="441.337" r="4.05039" stroke-width="0.5" stroke="blue" fill="blue"/>
   </g>
   <g id="cell166">
  <circle cx="491.48" cy="442.778" r="6.73287" stroke-width="0.5" stroke="black" fill="Red"/>
  <circle cx="491.48" cy="442.778" r="4.05039" stroke-width="0.5" stroke="Red" fill="Red"/>
   </g>
   <g id="cell167">
  <circle cx="519.567" cy="454.864" r="5.91404" stroke-width="0.5" stroke="black" fill="blue"/>
  <circle cx="519.567" cy="454.864" r="3.60138" stroke-width="0.5" stroke="blue" fill="blue"/>
   </g>
   <g id="cell168">
  <circle cx="429.318" cy="524.38" r="6.71158" stroke-width="0.5" stroke="black" fill="Red"/>
  <circle cx="429.318" cy="524.38" r="4.03435" stroke-width="0.5" stroke="Red" fill="Red"/>
   </g>
  </g>
 </g>
  <rect x="775" y="1035" width="200" height="10" stroke-width="2" stroke="rgb(255,255,255)" fill="rgb(0,0,0)"/>
  <text x="781.25" y="1028.75"
   font-family="Arial" font-size="25" fill="black" >
   200 &#956;m
  </text>
  <text x="25" y="1045"
   font-family="Arial" font-size="18.75" fill="black" >
   0 days, 0 hours, 0 minutes, and 56.3073 seconds
  </text>
  <rect x="0" y="70" width="1000" height="1000" stroke-width="2" stroke="rgb(0,0,0)" fill="none"/>
</svg>
