<?xml version="1.0" encoding="UTF-8" standalone="no"?>
<!-- Created with PhysiCell (http://PhysiCell.MathCancer.org/) -->
<svg 
 xmlns:dc="http://purl.org/dc/elements/1.1/" 
 xmlns:cc="http://creativecommons.org/ns#" 
 xmlns:rdf="http://www.w3.org/1999/02/22-rdf-syntax-ns#" 
 xmlns:svg="http://www.w3.org/2000/svg" 
 xmlns="http://www.w3.org/2000/svg" 
 version="1.1" 
 width="1000" 
 height="1070" 
 id="svg2">
  <rect x="0" y="0" width="1000" height="1070" stroke-width="2" stroke="white" fill="white"/>
  <text x="12.5" y="30"
   font-family="Arial" font-size="25" fill="black" >
   Current time: 0 days, 4 hours, and 10.00 minutes, z = 0.00 &#956;m
  </text>
  <text x="12.5" y="57.5"
   font-family="Arial" font-size="23.75" fill="black" >
   181 agents
  </text>
 <g id="tissue" 
    transform="translate(0,1070) scale(1,-1)">
  <g id="ECM">
  </g>
  <g id="cells">
   <g id="cell0">
  <circle cx="425.816" cy="448.657" r="8.41271" stroke-width="0.5" stroke="black" fill="yellow"/>
  <circle cx="425.816" cy="448.657" r="5.05167" stroke-width="0.5" stroke="yellow" fill="yellow"/>
   </g>
   <g id="cell1">
  <circle cx="425.38" cy="469.837" r="6.99069" stroke-width="0.5" stroke="black" fill="yellow"/>
  <circle cx="425.38" cy="469.837" r="4.23498" stroke-width="0.5" stroke="yellow" fill="yellow"/>
   </g>
   <g id="cell2">
  <circle cx="428.558" cy="483.521" r="8.41271" stroke-width="0.5" stroke="black" fill="blue"/>
  <circle cx="428.558" cy="483.521" r="5.05167" stroke-width="0.5" stroke="blue" fill="blue"/>
   </g>
   <g id="cell3">
  <circle cx="424.162" cy="496.003" r="7.21189" stroke-width="0.5" stroke="black" fill="Red"/>
  <circle cx="424.162" cy="496.003" r="4.37993" stroke-width="0.5" stroke="Red" fill="Red"/>
   </g>
   <g id="cell4">
  <circle cx="431.371" cy="508.114" r="8.41271" stroke-width="0.5" stroke="black" fill="Red"/>
  <circle cx="431.371" cy="508.114" r="5.05167" stroke-width="0.5" stroke="Red" fill="Red"/>
   </g>
   <g id="cell5">
  <circle cx="419.448" cy="528.049" r="7.11815" stroke-width="0.5" stroke="black" fill="blue"/>
  <circle cx="419.448" cy="528.049" r="4.31954" stroke-width="0.5" stroke="blue" fill="blue"/>
   </g>
   <g id="cell6">
  <circle cx="426.469" cy="539.608" r="8.41271" stroke-width="0.5" stroke="black" fill="Red"/>
  <circle cx="426.469" cy="539.608" r="5.05167" stroke-width="0.5" stroke="Red" fill="Red"/>
   </g>
   <g id="cell7">
  <circle cx="442.773" cy="444.271" r="7.72056" stroke-width="0.5" stroke="black" fill="yellow"/>
  <circle cx="442.773" cy="444.271" r="4.69003" stroke-width="0.5" stroke="yellow" fill="yellow"/>
   </g>
   <g id="cell8">
  <circle cx="434.449" cy="460.147" r="8.41271" stroke-width="0.5" stroke="black" fill="yellow"/>
  <circle cx="434.449" cy="460.147" r="5.05167" stroke-width="0.5" stroke="yellow" fill="yellow"/>
   </g>
   <g id="cell9">
  <circle cx="438.799" cy="473.087" r="8.41271" stroke-width="0.5" stroke="black" fill="Red"/>
  <circle cx="438.799" cy="473.087" r="5.05167" stroke-width="0.5" stroke="Red" fill="Red"/>
   </g>
   <g id="cell10">
  <circle cx="441.599" cy="485.9" r="8.41271" stroke-width="0.5" stroke="black" fill="Red"/>
  <circle cx="441.599" cy="485.9" r="5.05167" stroke-width="0.5" stroke="Red" fill="Red"/>
   </g>
   <g id="cell11">
  <circle cx="443.652" cy="503.771" r="8.41271" stroke-width="0.5" stroke="black" fill="Red"/>
  <circle cx="443.652" cy="503.771" r="5.05167" stroke-width="0.5" stroke="Red" fill="Red"/>
   </g>
   <g id="cell12">
  <circle cx="436.852" cy="520.319" r="7.51976" stroke-width="0.5" stroke="black" fill="Red"/>
  <circle cx="436.852" cy="520.319" r="4.57072" stroke-width="0.5" stroke="Red" fill="Red"/>
   </g>
   <g id="cell13">
  <circle cx="438.391" cy="533.063" r="8.41271" stroke-width="0.5" stroke="black" fill="Red"/>
  <circle cx="438.391" cy="533.063" r="5.05167" stroke-width="0.5" stroke="Red" fill="Red"/>
   </g>
   <g id="cell14">
  <circle cx="438.93" cy="546.482" r="8.41271" stroke-width="0.5" stroke="black" fill="yellow"/>
  <circle cx="438.93" cy="546.482" r="5.05167" stroke-width="0.5" stroke="yellow" fill="yellow"/>
   </g>
   <g id="cell15">
  <circle cx="437.326" cy="561.263" r="8.41271" stroke-width="0.5" stroke="black" fill="blue"/>
  <circle cx="437.326" cy="561.263" r="5.05167" stroke-width="0.5" stroke="blue" fill="blue"/>
   </g>
   <g id="cell16">
  <circle cx="457.49" cy="424.924" r="6.89042" stroke-width="0.5" stroke="black" fill="Red"/>
  <circle cx="457.49" cy="424.924" r="4.22719" stroke-width="0.5" stroke="Red" fill="Red"/>
   </g>
   <g id="cell17">
  <circle cx="451.917" cy="434.097" r="6.69288" stroke-width="0.5" stroke="black" fill="Red"/>
  <circle cx="451.917" cy="434.097" r="4.02051" stroke-width="0.5" stroke="Red" fill="Red"/>
   </g>
   <g id="cell18">
  <circle cx="446.827" cy="457.493" r="8.41271" stroke-width="0.5" stroke="black" fill="blue"/>
  <circle cx="446.827" cy="457.493" r="5.05167" stroke-width="0.5" stroke="blue" fill="blue"/>
   </g>
   <g id="cell19">
  <circle cx="451.13" cy="469.393" r="8.41271" stroke-width="0.5" stroke="black" fill="blue"/>
  <circle cx="451.13" cy="469.393" r="5.05167" stroke-width="0.5" stroke="blue" fill="blue"/>
   </g>
   <g id="cell20">
  <circle cx="453.332" cy="482.055" r="8.41271" stroke-width="0.5" stroke="black" fill="Red"/>
  <circle cx="453.332" cy="482.055" r="5.05167" stroke-width="0.5" stroke="Red" fill="Red"/>
   </g>
   <g id="cell21">
  <circle cx="451.277" cy="494.692" r="8.41271" stroke-width="0.5" stroke="black" fill="Red"/>
  <circle cx="451.277" cy="494.692" r="5.05167" stroke-width="0.5" stroke="Red" fill="Red"/>
   </g>
   <g id="cell22">
  <circle cx="456.179" cy="508.618" r="8.41271" stroke-width="0.5" stroke="black" fill="Red"/>
  <circle cx="456.179" cy="508.618" r="5.05167" stroke-width="0.5" stroke="Red" fill="Red"/>
   </g>
   <g id="cell23">
  <circle cx="448.819" cy="526.328" r="8.41271" stroke-width="0.5" stroke="black" fill="Red"/>
  <circle cx="448.819" cy="526.328" r="5.05167" stroke-width="0.5" stroke="Red" fill="Red"/>
   </g>
   <g id="cell24">
  <circle cx="451.469" cy="540.471" r="8.41271" stroke-width="0.5" stroke="black" fill="blue"/>
  <circle cx="451.469" cy="540.471" r="5.05167" stroke-width="0.5" stroke="blue" fill="blue"/>
   </g>
   <g id="cell25">
  <circle cx="451.199" cy="554.544" r="8.41271" stroke-width="0.5" stroke="black" fill="Red"/>
  <circle cx="451.199" cy="554.544" r="5.05167" stroke-width="0.5" stroke="Red" fill="Red"/>
   </g>
   <g id="cell26">
  <circle cx="451.897" cy="568.216" r="8.41271" stroke-width="0.5" stroke="black" fill="Red"/>
  <circle cx="451.897" cy="568.216" r="5.05167" stroke-width="0.5" stroke="Red" fill="Red"/>
   </g>
   <g id="cell27">
  <circle cx="465.311" cy="414.84" r="8.41271" stroke-width="0.5" stroke="black" fill="yellow"/>
  <circle cx="465.311" cy="414.84" r="5.05167" stroke-width="0.5" stroke="yellow" fill="yellow"/>
   </g>
   <g id="cell28">
  <circle cx="468.53" cy="429.854" r="8.41271" stroke-width="0.5" stroke="black" fill="Red"/>
  <circle cx="468.53" cy="429.854" r="5.05167" stroke-width="0.5" stroke="Red" fill="Red"/>
   </g>
   <g id="cell29">
  <circle cx="455.055" cy="446.029" r="7.1497" stroke-width="0.5" stroke="black" fill="Red"/>
  <circle cx="455.055" cy="446.029" r="4.34001" stroke-width="0.5" stroke="Red" fill="Red"/>
   </g>
   <g id="cell30">
  <circle cx="460.769" cy="458.054" r="8.41271" stroke-width="0.5" stroke="black" fill="Red"/>
  <circle cx="460.769" cy="458.054" r="5.05167" stroke-width="0.5" stroke="Red" fill="Red"/>
   </g>
   <g id="cell31">
  <circle cx="463.924" cy="473.634" r="8.41271" stroke-width="0.5" stroke="black" fill="Red"/>
  <circle cx="463.924" cy="473.634" r="5.05167" stroke-width="0.5" stroke="Red" fill="Red"/>
   </g>
   <g id="cell32">
  <circle cx="466.39" cy="486.956" r="8.41271" stroke-width="0.5" stroke="black" fill="blue"/>
  <circle cx="466.39" cy="486.956" r="5.05167" stroke-width="0.5" stroke="blue" fill="blue"/>
   </g>
   <g id="cell33">
  <circle cx="462.625" cy="497.211" r="8.41271" stroke-width="0.5" stroke="black" fill="blue"/>
  <circle cx="462.625" cy="497.211" r="5.05167" stroke-width="0.5" stroke="blue" fill="blue"/>
   </g>
   <g id="cell34">
  <circle cx="462.368" cy="520.998" r="8.41271" stroke-width="0.5" stroke="black" fill="Red"/>
  <circle cx="462.368" cy="520.998" r="5.05167" stroke-width="0.5" stroke="Red" fill="Red"/>
   </g>
   <g id="cell35">
  <circle cx="466.045" cy="535.871" r="6.69288" stroke-width="0.5" stroke="black" fill="Red"/>
  <circle cx="466.045" cy="535.871" r="4.02051" stroke-width="0.5" stroke="Red" fill="Red"/>
   </g>
   <g id="cell36">
  <circle cx="464.045" cy="546.775" r="8.41271" stroke-width="0.5" stroke="black" fill="Red"/>
  <circle cx="464.045" cy="546.775" r="5.05167" stroke-width="0.5" stroke="Red" fill="Red"/>
   </g>
   <g id="cell37">
  <circle cx="463.304" cy="560.335" r="8.41271" stroke-width="0.5" stroke="black" fill="Red"/>
  <circle cx="463.304" cy="560.335" r="5.05167" stroke-width="0.5" stroke="Red" fill="Red"/>
   </g>
   <g id="cell38">
  <circle cx="465.926" cy="574.36" r="8.41271" stroke-width="0.5" stroke="black" fill="yellow"/>
  <circle cx="465.926" cy="574.36" r="5.05167" stroke-width="0.5" stroke="yellow" fill="yellow"/>
   </g>
   <g id="cell39">
  <circle cx="464.771" cy="587.883" r="6.92764" stroke-width="0.5" stroke="black" fill="blue"/>
  <circle cx="464.771" cy="587.883" r="4.1918" stroke-width="0.5" stroke="blue" fill="blue"/>
   </g>
   <g id="cell40">
  <circle cx="477.596" cy="407.7" r="8.41271" stroke-width="0.5" stroke="black" fill="blue"/>
  <circle cx="477.596" cy="407.7" r="5.05167" stroke-width="0.5" stroke="blue" fill="blue"/>
   </g>
   <g id="cell41">
  <circle cx="477.709" cy="421.963" r="8.41271" stroke-width="0.5" stroke="black" fill="yellow"/>
  <circle cx="477.709" cy="421.963" r="5.05167" stroke-width="0.5" stroke="yellow" fill="yellow"/>
   </g>
   <g id="cell42">
  <circle cx="477.941" cy="438.715" r="8.41271" stroke-width="0.5" stroke="black" fill="Red"/>
  <circle cx="477.941" cy="438.715" r="5.05167" stroke-width="0.5" stroke="Red" fill="Red"/>
   </g>
   <g id="cell43">
  <circle cx="472.216" cy="452.403" r="8.41271" stroke-width="0.5" stroke="black" fill="Red"/>
  <circle cx="472.216" cy="452.403" r="5.05167" stroke-width="0.5" stroke="Red" fill="Red"/>
   </g>
   <g id="cell44">
  <circle cx="473.481" cy="465.586" r="8.41271" stroke-width="0.5" stroke="black" fill="blue"/>
  <circle cx="473.481" cy="465.586" r="5.05167" stroke-width="0.5" stroke="blue" fill="blue"/>
   </g>
   <g id="cell45">
  <circle cx="475.698" cy="479.684" r="8.41271" stroke-width="0.5" stroke="black" fill="Red"/>
  <circle cx="475.698" cy="479.684" r="5.05167" stroke-width="0.5" stroke="Red" fill="Red"/>
   </g>
   <g id="cell46">
  <circle cx="475.796" cy="495.157" r="8.41271" stroke-width="0.5" stroke="black" fill="Red"/>
  <circle cx="475.796" cy="495.157" r="5.05167" stroke-width="0.5" stroke="Red" fill="Red"/>
   </g>
   <g id="cell47">
  <circle cx="468.289" cy="507.425" r="7.70049" stroke-width="0.5" stroke="black" fill="Red"/>
  <circle cx="468.289" cy="507.425" r="4.67828" stroke-width="0.5" stroke="Red" fill="Red"/>
   </g>
   <g id="cell48">
  <circle cx="482.853" cy="522.53" r="7.3599" stroke-width="0.5" stroke="black" fill="Red"/>
  <circle cx="482.853" cy="522.53" r="4.47294" stroke-width="0.5" stroke="Red" fill="Red"/>
   </g>
   <g id="cell49">
  <circle cx="478.428" cy="539.698" r="8.41271" stroke-width="0.5" stroke="black" fill="Red"/>
  <circle cx="478.428" cy="539.698" r="5.05167" stroke-width="0.5" stroke="Red" fill="Red"/>
   </g>
   <g id="cell50">
  <circle cx="477.232" cy="553.004" r="8.41271" stroke-width="0.5" stroke="black" fill="blue"/>
  <circle cx="477.232" cy="553.004" r="5.05167" stroke-width="0.5" stroke="blue" fill="blue"/>
   </g>
   <g id="cell51">
  <circle cx="477.909" cy="566.089" r="8.41271" stroke-width="0.5" stroke="black" fill="blue"/>
  <circle cx="477.909" cy="566.089" r="5.05167" stroke-width="0.5" stroke="blue" fill="blue"/>
   </g>
   <g id="cell52">
  <circle cx="477.618" cy="581.503" r="8.41271" stroke-width="0.5" stroke="black" fill="Red"/>
  <circle cx="477.618" cy="581.503" r="5.05167" stroke-width="0.5" stroke="Red" fill="Red"/>
   </g>
   <g id="cell53">
  <circle cx="490.259" cy="413.951" r="8.41271" stroke-width="0.5" stroke="black" fill="yellow"/>
  <circle cx="490.259" cy="413.951" r="5.05167" stroke-width="0.5" stroke="yellow" fill="yellow"/>
   </g>
   <g id="cell54">
  <circle cx="488.343" cy="427.969" r="8.41271" stroke-width="0.5" stroke="black" fill="Red"/>
  <circle cx="488.343" cy="427.969" r="5.05167" stroke-width="0.5" stroke="Red" fill="Red"/>
   </g>
   <g id="cell55">
  <circle cx="485.068" cy="449.009" r="7.1497" stroke-width="0.5" stroke="black" fill="Red"/>
  <circle cx="485.068" cy="449.009" r="4.34001" stroke-width="0.5" stroke="Red" fill="Red"/>
   </g>
   <g id="cell56">
  <circle cx="492.202" cy="460.556" r="7.46878" stroke-width="0.5" stroke="black" fill="Red"/>
  <circle cx="492.202" cy="460.556" r="4.53982" stroke-width="0.5" stroke="Red" fill="Red"/>
   </g>
   <g id="cell57">
  <circle cx="485.856" cy="471.218" r="8.41271" stroke-width="0.5" stroke="black" fill="Red"/>
  <circle cx="485.856" cy="471.218" r="5.05167" stroke-width="0.5" stroke="Red" fill="Red"/>
   </g>
   <g id="cell58">
  <circle cx="486.224" cy="486.435" r="8.41271" stroke-width="0.5" stroke="black" fill="blue"/>
  <circle cx="486.224" cy="486.435" r="5.05167" stroke-width="0.5" stroke="blue" fill="blue"/>
   </g>
   <g id="cell59">
  <circle cx="488.515" cy="499.539" r="8.41271" stroke-width="0.5" stroke="black" fill="Red"/>
  <circle cx="488.515" cy="499.539" r="5.05167" stroke-width="0.5" stroke="Red" fill="Red"/>
   </g>
   <g id="cell60">
  <circle cx="489.721" cy="514.028" r="8.41271" stroke-width="0.5" stroke="black" fill="Red"/>
  <circle cx="489.721" cy="514.028" r="5.05167" stroke-width="0.5" stroke="Red" fill="Red"/>
   </g>
   <g id="cell61">
  <circle cx="488.445" cy="531.897" r="8.41271" stroke-width="0.5" stroke="black" fill="Red"/>
  <circle cx="488.445" cy="531.897" r="5.05167" stroke-width="0.5" stroke="Red" fill="Red"/>
   </g>
   <g id="cell62">
  <circle cx="488.857" cy="546.704" r="8.41271" stroke-width="0.5" stroke="black" fill="blue"/>
  <circle cx="488.857" cy="546.704" r="5.05167" stroke-width="0.5" stroke="blue" fill="blue"/>
   </g>
   <g id="cell63">
  <circle cx="489" cy="560.066" r="8.41271" stroke-width="0.5" stroke="black" fill="Red"/>
  <circle cx="489" cy="560.066" r="5.05167" stroke-width="0.5" stroke="Red" fill="Red"/>
   </g>
   <g id="cell64">
  <circle cx="488.977" cy="573.977" r="8.41271" stroke-width="0.5" stroke="black" fill="Red"/>
  <circle cx="488.977" cy="573.977" r="5.05167" stroke-width="0.5" stroke="Red" fill="Red"/>
   </g>
   <g id="cell65">
  <circle cx="490.958" cy="587.595" r="8.41271" stroke-width="0.5" stroke="black" fill="Red"/>
  <circle cx="490.958" cy="587.595" r="5.05167" stroke-width="0.5" stroke="Red" fill="Red"/>
   </g>
   <g id="cell66">
  <circle cx="503.931" cy="410.942" r="8.41271" stroke-width="0.5" stroke="black" fill="blue"/>
  <circle cx="503.931" cy="410.942" r="5.05167" stroke-width="0.5" stroke="blue" fill="blue"/>
   </g>
   <g id="cell67">
  <circle cx="500.441" cy="424.4" r="8.41271" stroke-width="0.5" stroke="black" fill="Red"/>
  <circle cx="500.441" cy="424.4" r="5.05167" stroke-width="0.5" stroke="Red" fill="Red"/>
   </g>
   <g id="cell68">
  <circle cx="500.36" cy="436.499" r="8.41271" stroke-width="0.5" stroke="black" fill="Red"/>
  <circle cx="500.36" cy="436.499" r="5.05167" stroke-width="0.5" stroke="Red" fill="Red"/>
   </g>
   <g id="cell69">
  <circle cx="497.42" cy="449.328" r="8.41271" stroke-width="0.5" stroke="black" fill="Red"/>
  <circle cx="497.42" cy="449.328" r="5.05167" stroke-width="0.5" stroke="Red" fill="Red"/>
   </g>
   <g id="cell70">
  <circle cx="499.672" cy="467.267" r="8.41271" stroke-width="0.5" stroke="black" fill="blue"/>
  <circle cx="499.672" cy="467.267" r="5.05167" stroke-width="0.5" stroke="blue" fill="blue"/>
   </g>
   <g id="cell71">
  <circle cx="495.129" cy="478.066" r="8.41271" stroke-width="0.5" stroke="black" fill="Red"/>
  <circle cx="495.129" cy="478.066" r="5.05167" stroke-width="0.5" stroke="Red" fill="Red"/>
   </g>
   <g id="cell72">
  <circle cx="499.183" cy="491.688" r="8.41271" stroke-width="0.5" stroke="black" fill="Red"/>
  <circle cx="499.183" cy="491.688" r="5.05167" stroke-width="0.5" stroke="Red" fill="Red"/>
   </g>
   <g id="cell73">
  <circle cx="501.49" cy="506.498" r="8.41271" stroke-width="0.5" stroke="black" fill="Red"/>
  <circle cx="501.49" cy="506.498" r="5.05167" stroke-width="0.5" stroke="Red" fill="Red"/>
   </g>
   <g id="cell74">
  <circle cx="499.218" cy="523.218" r="8.41271" stroke-width="0.5" stroke="black" fill="Red"/>
  <circle cx="499.218" cy="523.218" r="5.05167" stroke-width="0.5" stroke="Red" fill="Red"/>
   </g>
   <g id="cell75">
  <circle cx="501.454" cy="537.833" r="8.41271" stroke-width="0.5" stroke="black" fill="blue"/>
  <circle cx="501.454" cy="537.833" r="5.05167" stroke-width="0.5" stroke="blue" fill="blue"/>
   </g>
   <g id="cell76">
  <circle cx="500.038" cy="553.119" r="8.41271" stroke-width="0.5" stroke="black" fill="Red"/>
  <circle cx="500.038" cy="553.119" r="5.05167" stroke-width="0.5" stroke="Red" fill="Red"/>
   </g>
   <g id="cell77">
  <circle cx="498.821" cy="567.571" r="7.33129" stroke-width="0.5" stroke="black" fill="Red"/>
  <circle cx="498.821" cy="567.571" r="4.45516" stroke-width="0.5" stroke="Red" fill="Red"/>
   </g>
   <g id="cell78">
  <circle cx="501.839" cy="579.367" r="8.41271" stroke-width="0.5" stroke="black" fill="yellow"/>
  <circle cx="501.839" cy="579.367" r="5.05167" stroke-width="0.5" stroke="yellow" fill="yellow"/>
   </g>
   <g id="cell79">
  <circle cx="503.472" cy="594.317" r="8.41271" stroke-width="0.5" stroke="black" fill="blue"/>
  <circle cx="503.472" cy="594.317" r="5.05167" stroke-width="0.5" stroke="blue" fill="blue"/>
   </g>
   <g id="cell80">
  <circle cx="517.685" cy="411.124" r="6.78181" stroke-width="0.5" stroke="black" fill="yellow"/>
  <circle cx="517.685" cy="411.124" r="4.08714" stroke-width="0.5" stroke="yellow" fill="yellow"/>
   </g>
   <g id="cell81">
  <circle cx="513.558" cy="433.171" r="8.41271" stroke-width="0.5" stroke="black" fill="Red"/>
  <circle cx="513.558" cy="433.171" r="5.05167" stroke-width="0.5" stroke="Red" fill="Red"/>
   </g>
   <g id="cell82">
  <circle cx="509.703" cy="445.215" r="8.41271" stroke-width="0.5" stroke="black" fill="Red"/>
  <circle cx="509.703" cy="445.215" r="5.05167" stroke-width="0.5" stroke="Red" fill="Red"/>
   </g>
   <g id="cell83">
  <circle cx="507.202" cy="457.688" r="8.41271" stroke-width="0.5" stroke="black" fill="Red"/>
  <circle cx="507.202" cy="457.688" r="5.05167" stroke-width="0.5" stroke="Red" fill="Red"/>
   </g>
   <g id="cell84">
  <circle cx="512.817" cy="469.339" r="8.41271" stroke-width="0.5" stroke="black" fill="Red"/>
  <circle cx="512.817" cy="469.339" r="5.05167" stroke-width="0.5" stroke="Red" fill="Red"/>
   </g>
   <g id="cell85">
  <circle cx="506.025" cy="480.297" r="8.41271" stroke-width="0.5" stroke="black" fill="Red"/>
  <circle cx="506.025" cy="480.297" r="5.05167" stroke-width="0.5" stroke="Red" fill="Red"/>
   </g>
   <g id="cell86">
  <circle cx="512.268" cy="495.578" r="8.41271" stroke-width="0.5" stroke="black" fill="Red"/>
  <circle cx="512.268" cy="495.578" r="5.05167" stroke-width="0.5" stroke="Red" fill="Red"/>
   </g>
   <g id="cell87">
  <circle cx="513.988" cy="506.827" r="7.41548" stroke-width="0.5" stroke="black" fill="Red"/>
  <circle cx="513.988" cy="506.827" r="4.50723" stroke-width="0.5" stroke="Red" fill="Red"/>
   </g>
   <g id="cell88">
  <circle cx="511.816" cy="530.165" r="8.41271" stroke-width="0.5" stroke="black" fill="Red"/>
  <circle cx="511.816" cy="530.165" r="5.05167" stroke-width="0.5" stroke="Red" fill="Red"/>
   </g>
   <g id="cell89">
  <circle cx="508.574" cy="545.718" r="8.41271" stroke-width="0.5" stroke="black" fill="Red"/>
  <circle cx="508.574" cy="545.718" r="5.05167" stroke-width="0.5" stroke="Red" fill="Red"/>
   </g>
   <g id="cell90">
  <circle cx="515.485" cy="555.256" r="8.41271" stroke-width="0.5" stroke="black" fill="Red"/>
  <circle cx="515.485" cy="555.256" r="5.05167" stroke-width="0.5" stroke="Red" fill="Red"/>
   </g>
   <g id="cell91">
  <circle cx="514.039" cy="570.876" r="8.41271" stroke-width="0.5" stroke="black" fill="Red"/>
  <circle cx="514.039" cy="570.876" r="5.05167" stroke-width="0.5" stroke="Red" fill="Red"/>
   </g>
   <g id="cell92">
  <circle cx="515.094" cy="585.49" r="8.41271" stroke-width="0.5" stroke="black" fill="Red"/>
  <circle cx="515.094" cy="585.49" r="5.05167" stroke-width="0.5" stroke="Red" fill="Red"/>
   </g>
   <g id="cell93">
  <circle cx="531.143" cy="412.505" r="8.41271" stroke-width="0.5" stroke="black" fill="blue"/>
  <circle cx="531.143" cy="412.505" r="5.05167" stroke-width="0.5" stroke="blue" fill="blue"/>
   </g>
   <g id="cell94">
  <circle cx="537.18" cy="425.8" r="7.44242" stroke-width="0.5" stroke="black" fill="Red"/>
  <circle cx="537.18" cy="425.8" r="4.52373" stroke-width="0.5" stroke="Red" fill="Red"/>
   </g>
   <g id="cell95">
  <circle cx="527.023" cy="435.78" r="8.41271" stroke-width="0.5" stroke="black" fill="Red"/>
  <circle cx="527.023" cy="435.78" r="5.05167" stroke-width="0.5" stroke="Red" fill="Red"/>
   </g>
   <g id="cell96">
  <circle cx="519.918" cy="444.822" r="6.66512" stroke-width="0.5" stroke="black" fill="blue"/>
  <circle cx="519.918" cy="444.822" r="4.08555" stroke-width="0.5" stroke="blue" fill="blue"/>
   </g>
   <g id="cell97">
  <circle cx="523.831" cy="461.707" r="8.41271" stroke-width="0.5" stroke="black" fill="Red"/>
  <circle cx="523.831" cy="461.707" r="5.05167" stroke-width="0.5" stroke="Red" fill="Red"/>
   </g>
   <g id="cell98">
  <circle cx="523.423" cy="488.561" r="6.12028" stroke-width="0.5" stroke="black" fill="blue"/>
  <circle cx="523.423" cy="488.561" r="3.74877" stroke-width="0.5" stroke="blue" fill="blue"/>
   </g>
   <g id="cell99">
  <circle cx="525.555" cy="497.354" r="8.41271" stroke-width="0.5" stroke="black" fill="Red"/>
  <circle cx="525.555" cy="497.354" r="5.05167" stroke-width="0.5" stroke="Red" fill="Red"/>
   </g>
   <g id="cell100">
  <circle cx="525.253" cy="507.403" r="6.69288" stroke-width="0.5" stroke="black" fill="Red"/>
  <circle cx="525.253" cy="507.403" r="4.02051" stroke-width="0.5" stroke="Red" fill="Red"/>
   </g>
   <g id="cell101">
  <circle cx="523.556" cy="526.202" r="8.41271" stroke-width="0.5" stroke="black" fill="Red"/>
  <circle cx="523.556" cy="526.202" r="5.05167" stroke-width="0.5" stroke="Red" fill="Red"/>
   </g>
   <g id="cell102">
  <circle cx="528.738" cy="535.525" r="7.63698" stroke-width="0.5" stroke="black" fill="Red"/>
  <circle cx="528.738" cy="535.525" r="4.64085" stroke-width="0.5" stroke="Red" fill="Red"/>
   </g>
   <g id="cell103">
  <circle cx="526.41" cy="549.474" r="8.41271" stroke-width="0.5" stroke="black" fill="Red"/>
  <circle cx="526.41" cy="549.474" r="5.05167" stroke-width="0.5" stroke="Red" fill="Red"/>
   </g>
   <g id="cell104">
  <circle cx="525.945" cy="563.717" r="8.41271" stroke-width="0.5" stroke="black" fill="Red"/>
  <circle cx="525.945" cy="563.717" r="5.05167" stroke-width="0.5" stroke="Red" fill="Red"/>
   </g>
   <g id="cell105">
  <circle cx="527.854" cy="578.783" r="8.41271" stroke-width="0.5" stroke="black" fill="blue"/>
  <circle cx="527.854" cy="578.783" r="5.05167" stroke-width="0.5" stroke="blue" fill="blue"/>
   </g>
   <g id="cell106">
  <circle cx="543.32" cy="415.588" r="6.71158" stroke-width="0.5" stroke="black" fill="yellow"/>
  <circle cx="543.32" cy="415.588" r="4.03435" stroke-width="0.5" stroke="yellow" fill="yellow"/>
   </g>
   <g id="cell107">
  <circle cx="541.02" cy="438.848" r="8.41271" stroke-width="0.5" stroke="black" fill="Red"/>
  <circle cx="541.02" cy="438.848" r="5.05167" stroke-width="0.5" stroke="Red" fill="Red"/>
   </g>
   <g id="cell108">
  <circle cx="530.819" cy="449.158" r="8.41271" stroke-width="0.5" stroke="black" fill="yellow"/>
  <circle cx="530.819" cy="449.158" r="5.05167" stroke-width="0.5" stroke="yellow" fill="yellow"/>
   </g>
   <g id="cell109">
  <circle cx="547.057" cy="465.817" r="8.41271" stroke-width="0.5" stroke="black" fill="Red"/>
  <circle cx="547.057" cy="465.817" r="5.05167" stroke-width="0.5" stroke="Red" fill="Red"/>
   </g>
   <g id="cell110">
  <circle cx="529.092" cy="479.969" r="8.41271" stroke-width="0.5" stroke="black" fill="Red"/>
  <circle cx="529.092" cy="479.969" r="5.05167" stroke-width="0.5" stroke="Red" fill="Red"/>
   </g>
   <g id="cell111">
  <circle cx="536.62" cy="489.395" r="8.41271" stroke-width="0.5" stroke="black" fill="Red"/>
  <circle cx="536.62" cy="489.395" r="5.05167" stroke-width="0.5" stroke="Red" fill="Red"/>
   </g>
   <g id="cell112">
  <circle cx="537.971" cy="504.243" r="8.41271" stroke-width="0.5" stroke="black" fill="Red"/>
  <circle cx="537.971" cy="504.243" r="5.05167" stroke-width="0.5" stroke="Red" fill="Red"/>
   </g>
   <g id="cell113">
  <circle cx="533.763" cy="515.226" r="8.41271" stroke-width="0.5" stroke="black" fill="blue"/>
  <circle cx="533.763" cy="515.226" r="5.05167" stroke-width="0.5" stroke="blue" fill="blue"/>
   </g>
   <g id="cell114">
  <circle cx="537.813" cy="527.964" r="8.41271" stroke-width="0.5" stroke="black" fill="Red"/>
  <circle cx="537.813" cy="527.964" r="5.05167" stroke-width="0.5" stroke="Red" fill="Red"/>
   </g>
   <g id="cell115">
  <circle cx="536.82" cy="543.771" r="8.41271" stroke-width="0.5" stroke="black" fill="Red"/>
  <circle cx="536.82" cy="543.771" r="5.05167" stroke-width="0.5" stroke="Red" fill="Red"/>
   </g>
   <g id="cell116">
  <circle cx="537.972" cy="557.479" r="8.41271" stroke-width="0.5" stroke="black" fill="Red"/>
  <circle cx="537.972" cy="557.479" r="5.05167" stroke-width="0.5" stroke="Red" fill="Red"/>
   </g>
   <g id="cell117">
  <circle cx="539.421" cy="570.977" r="8.41271" stroke-width="0.5" stroke="black" fill="Red"/>
  <circle cx="539.421" cy="570.977" r="5.05167" stroke-width="0.5" stroke="Red" fill="Red"/>
   </g>
   <g id="cell118">
  <circle cx="551.419" cy="426.18" r="8.41271" stroke-width="0.5" stroke="black" fill="blue"/>
  <circle cx="551.419" cy="426.18" r="5.05167" stroke-width="0.5" stroke="blue" fill="blue"/>
   </g>
   <g id="cell119">
  <circle cx="554.346" cy="442.39" r="8.41271" stroke-width="0.5" stroke="black" fill="yellow"/>
  <circle cx="554.346" cy="442.39" r="5.05167" stroke-width="0.5" stroke="yellow" fill="yellow"/>
   </g>
   <g id="cell120">
  <circle cx="554.175" cy="455.899" r="7.41548" stroke-width="0.5" stroke="black" fill="Red"/>
  <circle cx="554.175" cy="455.899" r="4.50723" stroke-width="0.5" stroke="Red" fill="Red"/>
   </g>
   <g id="cell121">
  <circle cx="557.374" cy="472.384" r="8.41271" stroke-width="0.5" stroke="black" fill="Red"/>
  <circle cx="557.374" cy="472.384" r="5.05167" stroke-width="0.5" stroke="Red" fill="Red"/>
   </g>
   <g id="cell122">
  <circle cx="545.405" cy="480.112" r="8.41271" stroke-width="0.5" stroke="black" fill="Red"/>
  <circle cx="545.405" cy="480.112" r="5.05167" stroke-width="0.5" stroke="Red" fill="Red"/>
   </g>
   <g id="cell123">
  <circle cx="548.588" cy="494.876" r="8.41271" stroke-width="0.5" stroke="black" fill="Red"/>
  <circle cx="548.588" cy="494.876" r="5.05167" stroke-width="0.5" stroke="Red" fill="Red"/>
   </g>
   <g id="cell124">
  <circle cx="550.798" cy="509.174" r="8.41271" stroke-width="0.5" stroke="black" fill="Red"/>
  <circle cx="550.798" cy="509.174" r="5.05167" stroke-width="0.5" stroke="Red" fill="Red"/>
   </g>
   <g id="cell125">
  <circle cx="544.522" cy="518.2" r="7.44242" stroke-width="0.5" stroke="black" fill="Red"/>
  <circle cx="544.522" cy="518.2" r="4.52373" stroke-width="0.5" stroke="Red" fill="Red"/>
   </g>
   <g id="cell126">
  <circle cx="547.574" cy="536.218" r="8.41271" stroke-width="0.5" stroke="black" fill="Red"/>
  <circle cx="547.574" cy="536.218" r="5.05167" stroke-width="0.5" stroke="Red" fill="Red"/>
   </g>
   <g id="cell127">
  <circle cx="548.641" cy="549.448" r="8.41271" stroke-width="0.5" stroke="black" fill="Red"/>
  <circle cx="548.641" cy="549.448" r="5.05167" stroke-width="0.5" stroke="Red" fill="Red"/>
   </g>
   <g id="cell128">
  <circle cx="550.498" cy="562.277" r="8.41271" stroke-width="0.5" stroke="black" fill="blue"/>
  <circle cx="550.498" cy="562.277" r="5.05167" stroke-width="0.5" stroke="blue" fill="blue"/>
   </g>
   <g id="cell129">
  <circle cx="571.928" cy="453.579" r="7.38797" stroke-width="0.5" stroke="black" fill="Red"/>
  <circle cx="571.928" cy="453.579" r="4.49029" stroke-width="0.5" stroke="Red" fill="Red"/>
   </g>
   <g id="cell130">
  <circle cx="564.039" cy="463.065" r="8.41271" stroke-width="0.5" stroke="black" fill="Red"/>
  <circle cx="564.039" cy="463.065" r="5.05167" stroke-width="0.5" stroke="Red" fill="Red"/>
   </g>
   <g id="cell131">
  <circle cx="568.703" cy="476.617" r="8.41271" stroke-width="0.5" stroke="black" fill="Red"/>
  <circle cx="568.703" cy="476.617" r="5.05167" stroke-width="0.5" stroke="Red" fill="Red"/>
   </g>
   <g id="cell132">
  <circle cx="559.186" cy="486.396" r="8.41271" stroke-width="0.5" stroke="black" fill="Red"/>
  <circle cx="559.186" cy="486.396" r="5.05167" stroke-width="0.5" stroke="Red" fill="Red"/>
   </g>
   <g id="cell133">
  <circle cx="561.902" cy="499.766" r="8.41271" stroke-width="0.5" stroke="black" fill="blue"/>
  <circle cx="561.902" cy="499.766" r="5.05167" stroke-width="0.5" stroke="blue" fill="blue"/>
   </g>
   <g id="cell134">
  <circle cx="562.356" cy="514.468" r="8.41271" stroke-width="0.5" stroke="black" fill="yellow"/>
  <circle cx="562.356" cy="514.468" r="5.05167" stroke-width="0.5" stroke="yellow" fill="yellow"/>
   </g>
   <g id="cell135">
  <circle cx="566.687" cy="529.32" r="8.41271" stroke-width="0.5" stroke="black" fill="yellow"/>
  <circle cx="566.687" cy="529.32" r="5.05167" stroke-width="0.5" stroke="yellow" fill="yellow"/>
   </g>
   <g id="cell136">
  <circle cx="559.531" cy="541.56" r="8.41271" stroke-width="0.5" stroke="black" fill="Red"/>
  <circle cx="559.531" cy="541.56" r="5.05167" stroke-width="0.5" stroke="Red" fill="Red"/>
   </g>
   <g id="cell137">
  <circle cx="564.059" cy="554.086" r="8.41271" stroke-width="0.5" stroke="black" fill="yellow"/>
  <circle cx="564.059" cy="554.086" r="5.05167" stroke-width="0.5" stroke="yellow" fill="yellow"/>
   </g>
   <g id="cell138">
  <circle cx="575.647" cy="466.36" r="8.41271" stroke-width="0.5" stroke="black" fill="Red"/>
  <circle cx="575.647" cy="466.36" r="5.05167" stroke-width="0.5" stroke="Red" fill="Red"/>
   </g>
   <g id="cell139">
  <circle cx="582.35" cy="479.658" r="8.41271" stroke-width="0.5" stroke="black" fill="yellow"/>
  <circle cx="582.35" cy="479.658" r="5.05167" stroke-width="0.5" stroke="yellow" fill="yellow"/>
   </g>
   <g id="cell140">
  <circle cx="572.578" cy="490.528" r="7.72056" stroke-width="0.5" stroke="black" fill="Red"/>
  <circle cx="572.578" cy="490.528" r="4.69003" stroke-width="0.5" stroke="Red" fill="Red"/>
   </g>
   <g id="cell141">
  <circle cx="575.62" cy="504.227" r="8.41271" stroke-width="0.5" stroke="black" fill="yellow"/>
  <circle cx="575.62" cy="504.227" r="5.05167" stroke-width="0.5" stroke="yellow" fill="yellow"/>
   </g>
   <g id="cell142">
  <circle cx="575.899" cy="517.746" r="7.21189" stroke-width="0.5" stroke="black" fill="blue"/>
  <circle cx="575.899" cy="517.746" r="4.37993" stroke-width="0.5" stroke="blue" fill="blue"/>
   </g>
   <g id="cell143">
  <circle cx="573.983" cy="541.789" r="8.41271" stroke-width="0.5" stroke="black" fill="blue"/>
  <circle cx="573.983" cy="541.789" r="5.05167" stroke-width="0.5" stroke="blue" fill="blue"/>
   </g>
   <g id="cell144">
  <circle cx="432.915" cy="438.854" r="6.25149" stroke-width="0.5" stroke="black" fill="blue"/>
  <circle cx="432.915" cy="438.854" r="3.81051" stroke-width="0.5" stroke="blue" fill="blue"/>
   </g>
   <g id="cell145">
  <circle cx="588.148" cy="494.956" r="7.72056" stroke-width="0.5" stroke="black" fill="blue"/>
  <circle cx="588.148" cy="494.956" r="4.69003" stroke-width="0.5" stroke="blue" fill="blue"/>
   </g>
   <g id="cell146">
  <circle cx="479.16" cy="507.145" r="6.73654" stroke-width="0.5" stroke="black" fill="blue"/>
  <circle cx="479.16" cy="507.145" r="4.1303" stroke-width="0.5" stroke="blue" fill="blue"/>
   </g>
   <g id="cell147">
  <circle cx="535.731" cy="460.293" r="7.21782" stroke-width="0.5" stroke="black" fill="Red"/>
  <circle cx="535.731" cy="460.293" r="4.42127" stroke-width="0.5" stroke="Red" fill="Red"/>
   </g>
   <g id="cell148">
  <circle cx="518.79" cy="539.739" r="7.63698" stroke-width="0.5" stroke="black" fill="blue"/>
  <circle cx="518.79" cy="539.739" r="4.64085" stroke-width="0.5" stroke="blue" fill="blue"/>
   </g>
   <g id="cell149">
  <circle cx="535.649" cy="470.444" r="7.21782" stroke-width="0.5" stroke="black" fill="blue"/>
  <circle cx="535.649" cy="470.444" r="4.42127" stroke-width="0.5" stroke="blue" fill="blue"/>
   </g>
   <g id="cell150">
  <circle cx="446.082" cy="515.504" r="7.51976" stroke-width="0.5" stroke="black" fill="blue"/>
  <circle cx="446.082" cy="515.504" r="4.57072" stroke-width="0.5" stroke="blue" fill="blue"/>
   </g>
   <g id="cell151">
  <circle cx="452.542" cy="414.74" r="7.51976" stroke-width="0.5" stroke="black" fill="blue"/>
  <circle cx="452.542" cy="414.74" r="4.57072" stroke-width="0.5" stroke="blue" fill="blue"/>
   </g>
   <g id="cell152">
  <circle cx="482.921" cy="458.687" r="7.46878" stroke-width="0.5" stroke="black" fill="blue"/>
  <circle cx="482.921" cy="458.687" r="4.53982" stroke-width="0.5" stroke="blue" fill="blue"/>
   </g>
   <g id="cell153">
  <circle cx="523.454" cy="422.49" r="7.44242" stroke-width="0.5" stroke="black" fill="Red"/>
  <circle cx="523.454" cy="422.49" r="4.52373" stroke-width="0.5" stroke="Red" fill="Red"/>
   </g>
   <g id="cell154">
  <circle cx="553.785" cy="524.172" r="7.44242" stroke-width="0.5" stroke="black" fill="blue"/>
  <circle cx="553.785" cy="524.172" r="4.52373" stroke-width="0.5" stroke="blue" fill="blue"/>
   </g>
   <g id="cell155">
  <circle cx="445.858" cy="424.167" r="6.89042" stroke-width="0.5" stroke="black" fill="Red"/>
  <circle cx="445.858" cy="424.167" r="4.22719" stroke-width="0.5" stroke="Red" fill="Red"/>
   </g>
   <g id="cell156">
  <circle cx="510.136" cy="518.021" r="7.41548" stroke-width="0.5" stroke="black" fill="blue"/>
  <circle cx="510.136" cy="518.021" r="4.50723" stroke-width="0.5" stroke="blue" fill="blue"/>
   </g>
   <g id="cell157">
  <circle cx="543.323" cy="451.778" r="7.41548" stroke-width="0.5" stroke="black" fill="blue"/>
  <circle cx="543.323" cy="451.778" r="4.50723" stroke-width="0.5" stroke="blue" fill="blue"/>
   </g>
   <g id="cell158">
  <circle cx="562.714" cy="451.456" r="6.18323" stroke-width="0.5" stroke="black" fill="Red"/>
  <circle cx="562.714" cy="451.456" r="3.78566" stroke-width="0.5" stroke="Red" fill="Red"/>
   </g>
   <g id="cell159">
  <circle cx="472.8" cy="528.125" r="7.3599" stroke-width="0.5" stroke="black" fill="blue"/>
  <circle cx="472.8" cy="528.125" r="4.47294" stroke-width="0.5" stroke="blue" fill="blue"/>
   </g>
   <g id="cell160">
  <circle cx="505.991" cy="561.301" r="7.33129" stroke-width="0.5" stroke="black" fill="blue"/>
  <circle cx="505.991" cy="561.301" r="4.45516" stroke-width="0.5" stroke="blue" fill="blue"/>
   </g>
   <g id="cell161">
  <circle cx="518.933" cy="477.628" r="5.99994" stroke-width="0.5" stroke="black" fill="Red"/>
  <circle cx="518.933" cy="477.628" r="3.6685" stroke-width="0.5" stroke="Red" fill="Red"/>
   </g>
   <g id="cell162">
  <circle cx="582.145" cy="529.774" r="7.21189" stroke-width="0.5" stroke="black" fill="yellow"/>
  <circle cx="582.145" cy="529.774" r="4.37993" stroke-width="0.5" stroke="yellow" fill="yellow"/>
   </g>
   <g id="cell163">
  <circle cx="474.263" cy="516.59" r="6.73654" stroke-width="0.5" stroke="black" fill="Red"/>
  <circle cx="474.263" cy="516.59" r="4.1303" stroke-width="0.5" stroke="Red" fill="Red"/>
   </g>
   <g id="cell164">
  <circle cx="435.32" cy="494.781" r="7.21189" stroke-width="0.5" stroke="black" fill="Red"/>
  <circle cx="435.32" cy="494.781" r="4.37993" stroke-width="0.5" stroke="Red" fill="Red"/>
   </g>
   <g id="cell165">
  <circle cx="465.504" cy="443.846" r="7.1497" stroke-width="0.5" stroke="black" fill="blue"/>
  <circle cx="465.504" cy="443.846" r="4.34001" stroke-width="0.5" stroke="blue" fill="blue"/>
   </g>
   <g id="cell166">
  <circle cx="489.712" cy="438.768" r="7.1497" stroke-width="0.5" stroke="black" fill="blue"/>
  <circle cx="489.712" cy="438.768" r="4.34001" stroke-width="0.5" stroke="blue" fill="blue"/>
   </g>
   <g id="cell167">
  <circle cx="517.157" cy="454.277" r="6.66512" stroke-width="0.5" stroke="black" fill="blue"/>
  <circle cx="517.157" cy="454.277" r="4.08555" stroke-width="0.5" stroke="blue" fill="blue"/>
   </g>
   <g id="cell168">
  <circle cx="429.181" cy="527.147" r="5.99171" stroke-width="0.5" stroke="black" fill="yellow"/>
  <circle cx="429.181" cy="527.147" r="3.66666" stroke-width="0.5" stroke="yellow" fill="yellow"/>
   </g>
   <g id="cell169">
  <circle cx="419.027" cy="459.627" r="6.99069" stroke-width="0.5" stroke="black" fill="blue"/>
  <circle cx="419.027" cy="459.627" r="4.23498" stroke-width="0.5" stroke="blue" fill="blue"/>
   </g>
   <g id="cell170">
  <circle cx="514.146" cy="485.965" r="6.12028" stroke-width="0.5" stroke="black" fill="blue"/>
  <circle cx="514.146" cy="485.965" r="3.74877" stroke-width="0.5" stroke="blue" fill="blue"/>
   </g>
   <g id="cell171">
  <circle cx="455.287" cy="581.584" r="6.92764" stroke-width="0.5" stroke="black" fill="yellow"/>
  <circle cx="455.287" cy="581.584" r="4.1918" stroke-width="0.5" stroke="yellow" fill="yellow"/>
   </g>
   <g id="cell172">
  <circle cx="566.87" cy="441.649" r="6.18323" stroke-width="0.5" stroke="black" fill="blue"/>
  <circle cx="566.87" cy="441.649" r="3.78566" stroke-width="0.5" stroke="blue" fill="blue"/>
   </g>
   <g id="cell173">
  <circle cx="425.096" cy="518.801" r="5.99171" stroke-width="0.5" stroke="black" fill="Red"/>
  <circle cx="425.096" cy="518.801" r="3.66666" stroke-width="0.5" stroke="Red" fill="Red"/>
   </g>
   <g id="cell174">
  <circle cx="524.77" cy="470.667" r="5.99994" stroke-width="0.5" stroke="black" fill="Red"/>
  <circle cx="524.77" cy="470.667" r="3.6685" stroke-width="0.5" stroke="Red" fill="Red"/>
   </g>
   <g id="cell175">
  <circle cx="511.868" cy="421.021" r="6.78181" stroke-width="0.5" stroke="black" fill="yellow"/>
  <circle cx="511.868" cy="421.021" r="4.08714" stroke-width="0.5" stroke="yellow" fill="yellow"/>
   </g>
   <g id="cell176">
  <circle cx="440.665" cy="432.979" r="6.25149" stroke-width="0.5" stroke="black" fill="yellow"/>
  <circle cx="440.665" cy="432.979" r="3.81051" stroke-width="0.5" stroke="yellow" fill="yellow"/>
   </g>
   <g id="cell177">
  <circle cx="553.488" cy="413.182" r="6.71158" stroke-width="0.5" stroke="black" fill="blue"/>
  <circle cx="553.488" cy="413.182" r="4.03435" stroke-width="0.5" stroke="blue" fill="blue"/>
   </g>
   <g id="cell178">
  <circle cx="520.968" cy="516.468" r="6.69288" stroke-width="0.5" stroke="black" fill="Red"/>
  <circle cx="520.968" cy="516.468" r="4.02051" stroke-width="0.5" stroke="Red" fill="Red"/>
   </g>
   <g id="cell179">
  <circle cx="458.789" cy="531.494" r="6.69288" stroke-width="0.5" stroke="black" fill="Red"/>
  <circle cx="458.789" cy="531.494" r="4.02051" stroke-width="0.5" stroke="Red" fill="Red"/>
   </g>
   <g id="cell180">
  <circle cx="461.131" cy="435.646" r="6.69288" stroke-width="0.5" stroke="black" fill="Red"/>
  <circle cx="461.131" cy="435.646" r="4.02051" stroke-width="0.5" stroke="Red" fill="Red"/>
   </g>
  </g>
 </g>
  <rect x="775" y="1035" width="200" height="10" stroke-width="2" stroke="rgb(255,255,255)" fill="rgb(0,0,0)"/>
  <text x="781.25" y="1028.75"
   font-family="Arial" font-size="25" fill="black" >
   200 &#956;m
  </text>
  <text x="25" y="1045"
   font-family="Arial" font-size="18.75" fill="black" >
   0 days, 0 hours, 1 minutes, and 29.3668 seconds
  </text>
  <rect x="0" y="70" width="1000" height="1000" stroke-width="2" stroke="rgb(0,0,0)" fill="none"/>
</svg>
