<?xml version="1.0" encoding="UTF-8" standalone="no"?>
<!-- Created with PhysiCell (http://PhysiCell.MathCancer.org/) -->
<svg 
 xmlns:dc="http://purl.org/dc/elements/1.1/" 
 xmlns:cc="http://creativecommons.org/ns#" 
 xmlns:rdf="http://www.w3.org/1999/02/22-rdf-syntax-ns#" 
 xmlns:svg="http://www.w3.org/2000/svg" 
 xmlns="http://www.w3.org/2000/svg" 
 version="1.1" 
 width="1000" 
 height="1070" 
 id="svg2">
  <rect x="0" y="0" width="1000" height="1070" stroke-width="2" stroke="white" fill="white"/>
  <text x="12.5" y="30"
   font-family="Arial" font-size="25" fill="black" >
   Current time: 0 days, 2 hours, and 10.00 minutes, z = 0.00 &#956;m
  </text>
  <text x="12.5" y="57.5"
   font-family="Arial" font-size="23.75" fill="black" >
   162 agents
  </text>
 <g id="tissue" 
    transform="translate(0,1070) scale(1,-1)">
  <g id="ECM">
  </g>
  <g id="cells">
   <g id="cell0">
  <circle cx="428.35" cy="447.844" r="8.41271" stroke-width="0.5" stroke="black" fill="blue"/>
  <circle cx="428.35" cy="447.844" r="5.05167" stroke-width="0.5" stroke="blue" fill="blue"/>
   </g>
   <g id="cell1">
  <circle cx="426.563" cy="466.058" r="8.41271" stroke-width="0.5" stroke="black" fill="yellow"/>
  <circle cx="426.563" cy="466.058" r="5.05167" stroke-width="0.5" stroke="yellow" fill="yellow"/>
   </g>
   <g id="cell2">
  <circle cx="428.917" cy="480.702" r="8.41271" stroke-width="0.5" stroke="black" fill="blue"/>
  <circle cx="428.917" cy="480.702" r="5.05167" stroke-width="0.5" stroke="blue" fill="blue"/>
   </g>
   <g id="cell3">
  <circle cx="429.143" cy="494.438" r="8.41271" stroke-width="0.5" stroke="black" fill="Red"/>
  <circle cx="429.143" cy="494.438" r="5.05167" stroke-width="0.5" stroke="Red" fill="Red"/>
   </g>
   <g id="cell4">
  <circle cx="431.944" cy="509.479" r="8.41271" stroke-width="0.5" stroke="black" fill="blue"/>
  <circle cx="431.944" cy="509.479" r="5.05167" stroke-width="0.5" stroke="blue" fill="blue"/>
   </g>
   <g id="cell5">
  <circle cx="423.337" cy="521.153" r="8.41271" stroke-width="0.5" stroke="black" fill="Red"/>
  <circle cx="423.337" cy="521.153" r="5.05167" stroke-width="0.5" stroke="Red" fill="Red"/>
   </g>
   <g id="cell6">
  <circle cx="426.122" cy="534.497" r="8.41271" stroke-width="0.5" stroke="black" fill="blue"/>
  <circle cx="426.122" cy="534.497" r="5.05167" stroke-width="0.5" stroke="blue" fill="blue"/>
   </g>
   <g id="cell7">
  <circle cx="440.477" cy="446.395" r="7.21189" stroke-width="0.5" stroke="black" fill="Red"/>
  <circle cx="440.477" cy="446.395" r="4.37993" stroke-width="0.5" stroke="Red" fill="Red"/>
   </g>
   <g id="cell8">
  <circle cx="437.903" cy="458.799" r="8.41271" stroke-width="0.5" stroke="black" fill="Red"/>
  <circle cx="437.903" cy="458.799" r="5.05167" stroke-width="0.5" stroke="Red" fill="Red"/>
   </g>
   <g id="cell9">
  <circle cx="439.141" cy="472.102" r="8.41271" stroke-width="0.5" stroke="black" fill="Red"/>
  <circle cx="439.141" cy="472.102" r="5.05167" stroke-width="0.5" stroke="Red" fill="Red"/>
   </g>
   <g id="cell10">
  <circle cx="441.133" cy="487.248" r="8.41271" stroke-width="0.5" stroke="black" fill="yellow"/>
  <circle cx="441.133" cy="487.248" r="5.05167" stroke-width="0.5" stroke="yellow" fill="yellow"/>
   </g>
   <g id="cell11">
  <circle cx="442.233" cy="501.295" r="8.41271" stroke-width="0.5" stroke="black" fill="Red"/>
  <circle cx="442.233" cy="501.295" r="5.05167" stroke-width="0.5" stroke="Red" fill="Red"/>
   </g>
   <g id="cell12">
  <circle cx="435.148" cy="521.455" r="6.92764" stroke-width="0.5" stroke="black" fill="yellow"/>
  <circle cx="435.148" cy="521.455" r="4.1918" stroke-width="0.5" stroke="yellow" fill="yellow"/>
   </g>
   <g id="cell13">
  <circle cx="440.812" cy="531.411" r="8.41271" stroke-width="0.5" stroke="black" fill="Red"/>
  <circle cx="440.812" cy="531.411" r="5.05167" stroke-width="0.5" stroke="Red" fill="Red"/>
   </g>
   <g id="cell14">
  <circle cx="436.986" cy="546.389" r="8.41271" stroke-width="0.5" stroke="black" fill="Red"/>
  <circle cx="436.986" cy="546.389" r="5.05167" stroke-width="0.5" stroke="Red" fill="Red"/>
   </g>
   <g id="cell15">
  <circle cx="438.959" cy="561.6" r="8.41271" stroke-width="0.5" stroke="black" fill="blue"/>
  <circle cx="438.959" cy="561.6" r="5.05167" stroke-width="0.5" stroke="blue" fill="blue"/>
   </g>
   <g id="cell16">
  <circle cx="454.68" cy="426.622" r="5.73015" stroke-width="0.5" stroke="black" fill="yellow"/>
  <circle cx="454.68" cy="426.622" r="3.4926" stroke-width="0.5" stroke="yellow" fill="yellow"/>
   </g>
   <g id="cell17">
  <circle cx="451.005" cy="438.487" r="8.41271" stroke-width="0.5" stroke="black" fill="Red"/>
  <circle cx="451.005" cy="438.487" r="5.05167" stroke-width="0.5" stroke="Red" fill="Red"/>
   </g>
   <g id="cell18">
  <circle cx="450.986" cy="452.606" r="8.41271" stroke-width="0.5" stroke="black" fill="Red"/>
  <circle cx="450.986" cy="452.606" r="5.05167" stroke-width="0.5" stroke="Red" fill="Red"/>
   </g>
   <g id="cell19">
  <circle cx="450.44" cy="465.605" r="8.41271" stroke-width="0.5" stroke="black" fill="blue"/>
  <circle cx="450.44" cy="465.605" r="5.05167" stroke-width="0.5" stroke="blue" fill="blue"/>
   </g>
   <g id="cell20">
  <circle cx="451.634" cy="480.063" r="8.41271" stroke-width="0.5" stroke="black" fill="Red"/>
  <circle cx="451.634" cy="480.063" r="5.05167" stroke-width="0.5" stroke="Red" fill="Red"/>
   </g>
   <g id="cell21">
  <circle cx="453.68" cy="494.105" r="8.41271" stroke-width="0.5" stroke="black" fill="blue"/>
  <circle cx="453.68" cy="494.105" r="5.05167" stroke-width="0.5" stroke="blue" fill="blue"/>
   </g>
   <g id="cell22">
  <circle cx="455.326" cy="508.88" r="8.41271" stroke-width="0.5" stroke="black" fill="blue"/>
  <circle cx="455.326" cy="508.88" r="5.05167" stroke-width="0.5" stroke="blue" fill="blue"/>
   </g>
   <g id="cell23">
  <circle cx="451.059" cy="522.75" r="8.41271" stroke-width="0.5" stroke="black" fill="Red"/>
  <circle cx="451.059" cy="522.75" r="5.05167" stroke-width="0.5" stroke="Red" fill="Red"/>
   </g>
   <g id="cell24">
  <circle cx="449.958" cy="540.039" r="8.41271" stroke-width="0.5" stroke="black" fill="blue"/>
  <circle cx="449.958" cy="540.039" r="5.05167" stroke-width="0.5" stroke="blue" fill="blue"/>
   </g>
   <g id="cell25">
  <circle cx="451.714" cy="553.902" r="8.41271" stroke-width="0.5" stroke="black" fill="yellow"/>
  <circle cx="451.714" cy="553.902" r="5.05167" stroke-width="0.5" stroke="yellow" fill="yellow"/>
   </g>
   <g id="cell26">
  <circle cx="453.002" cy="567.851" r="8.41271" stroke-width="0.5" stroke="black" fill="yellow"/>
  <circle cx="453.002" cy="567.851" r="5.05167" stroke-width="0.5" stroke="yellow" fill="yellow"/>
   </g>
   <g id="cell27">
  <circle cx="462.514" cy="418.891" r="8.41271" stroke-width="0.5" stroke="black" fill="yellow"/>
  <circle cx="462.514" cy="418.891" r="5.05167" stroke-width="0.5" stroke="yellow" fill="yellow"/>
   </g>
   <g id="cell28">
  <circle cx="463.707" cy="433.585" r="8.41271" stroke-width="0.5" stroke="black" fill="Red"/>
  <circle cx="463.707" cy="433.585" r="5.05167" stroke-width="0.5" stroke="Red" fill="Red"/>
   </g>
   <g id="cell29">
  <circle cx="463.178" cy="446.55" r="8.41271" stroke-width="0.5" stroke="black" fill="blue"/>
  <circle cx="463.178" cy="446.55" r="5.05167" stroke-width="0.5" stroke="blue" fill="blue"/>
   </g>
   <g id="cell30">
  <circle cx="463.25" cy="460.346" r="8.41271" stroke-width="0.5" stroke="black" fill="Red"/>
  <circle cx="463.25" cy="460.346" r="5.05167" stroke-width="0.5" stroke="Red" fill="Red"/>
   </g>
   <g id="cell31">
  <circle cx="464.482" cy="474.36" r="8.41271" stroke-width="0.5" stroke="black" fill="Red"/>
  <circle cx="464.482" cy="474.36" r="5.05167" stroke-width="0.5" stroke="Red" fill="Red"/>
   </g>
   <g id="cell32">
  <circle cx="464.956" cy="487.292" r="8.41271" stroke-width="0.5" stroke="black" fill="blue"/>
  <circle cx="464.956" cy="487.292" r="5.05167" stroke-width="0.5" stroke="blue" fill="blue"/>
   </g>
   <g id="cell33">
  <circle cx="464.655" cy="500.158" r="8.41271" stroke-width="0.5" stroke="black" fill="Red"/>
  <circle cx="464.655" cy="500.158" r="5.05167" stroke-width="0.5" stroke="Red" fill="Red"/>
   </g>
   <g id="cell34">
  <circle cx="464.258" cy="519.206" r="8.41271" stroke-width="0.5" stroke="black" fill="Red"/>
  <circle cx="464.258" cy="519.206" r="5.05167" stroke-width="0.5" stroke="Red" fill="Red"/>
   </g>
   <g id="cell35">
  <circle cx="459.964" cy="531.691" r="8.41271" stroke-width="0.5" stroke="black" fill="Red"/>
  <circle cx="459.964" cy="531.691" r="5.05167" stroke-width="0.5" stroke="Red" fill="Red"/>
   </g>
   <g id="cell36">
  <circle cx="463.969" cy="544.315" r="8.41271" stroke-width="0.5" stroke="black" fill="Red"/>
  <circle cx="463.969" cy="544.315" r="5.05167" stroke-width="0.5" stroke="Red" fill="Red"/>
   </g>
   <g id="cell37">
  <circle cx="465.578" cy="557.599" r="8.41271" stroke-width="0.5" stroke="black" fill="Red"/>
  <circle cx="465.578" cy="557.599" r="5.05167" stroke-width="0.5" stroke="Red" fill="Red"/>
   </g>
   <g id="cell38">
  <circle cx="466.809" cy="571.181" r="8.41271" stroke-width="0.5" stroke="black" fill="Red"/>
  <circle cx="466.809" cy="571.181" r="5.05167" stroke-width="0.5" stroke="Red" fill="Red"/>
   </g>
   <g id="cell39">
  <circle cx="460.231" cy="583.064" r="8.41271" stroke-width="0.5" stroke="black" fill="blue"/>
  <circle cx="460.231" cy="583.064" r="5.05167" stroke-width="0.5" stroke="blue" fill="blue"/>
   </g>
   <g id="cell40">
  <circle cx="476.23" cy="412.824" r="8.41271" stroke-width="0.5" stroke="black" fill="blue"/>
  <circle cx="476.23" cy="412.824" r="5.05167" stroke-width="0.5" stroke="blue" fill="blue"/>
   </g>
   <g id="cell41">
  <circle cx="475.883" cy="426.174" r="8.41271" stroke-width="0.5" stroke="black" fill="Red"/>
  <circle cx="475.883" cy="426.174" r="5.05167" stroke-width="0.5" stroke="Red" fill="Red"/>
   </g>
   <g id="cell42">
  <circle cx="476.189" cy="440.269" r="8.41271" stroke-width="0.5" stroke="black" fill="Red"/>
  <circle cx="476.189" cy="440.269" r="5.05167" stroke-width="0.5" stroke="Red" fill="Red"/>
   </g>
   <g id="cell43">
  <circle cx="474.593" cy="453.337" r="8.41271" stroke-width="0.5" stroke="black" fill="Red"/>
  <circle cx="474.593" cy="453.337" r="5.05167" stroke-width="0.5" stroke="Red" fill="Red"/>
   </g>
   <g id="cell44">
  <circle cx="475.583" cy="467.053" r="8.41271" stroke-width="0.5" stroke="black" fill="Red"/>
  <circle cx="475.583" cy="467.053" r="5.05167" stroke-width="0.5" stroke="Red" fill="Red"/>
   </g>
   <g id="cell45">
  <circle cx="476.798" cy="481.447" r="8.41271" stroke-width="0.5" stroke="black" fill="Red"/>
  <circle cx="476.798" cy="481.447" r="5.05167" stroke-width="0.5" stroke="Red" fill="Red"/>
   </g>
   <g id="cell46">
  <circle cx="477.498" cy="496.747" r="8.41271" stroke-width="0.5" stroke="black" fill="Red"/>
  <circle cx="477.498" cy="496.747" r="5.05167" stroke-width="0.5" stroke="Red" fill="Red"/>
   </g>
   <g id="cell47">
  <circle cx="470.934" cy="509.869" r="7.18097" stroke-width="0.5" stroke="black" fill="Red"/>
  <circle cx="470.934" cy="509.869" r="4.36015" stroke-width="0.5" stroke="Red" fill="Red"/>
   </g>
   <g id="cell48">
  <circle cx="478.285" cy="520.863" r="6.75639" stroke-width="0.5" stroke="black" fill="Red"/>
  <circle cx="478.285" cy="520.863" r="4.06813" stroke-width="0.5" stroke="Red" fill="Red"/>
   </g>
   <g id="cell49">
  <circle cx="476.349" cy="537.833" r="8.41271" stroke-width="0.5" stroke="black" fill="Red"/>
  <circle cx="476.349" cy="537.833" r="5.05167" stroke-width="0.5" stroke="Red" fill="Red"/>
   </g>
   <g id="cell50">
  <circle cx="476.766" cy="550.458" r="8.41271" stroke-width="0.5" stroke="black" fill="blue"/>
  <circle cx="476.766" cy="550.458" r="5.05167" stroke-width="0.5" stroke="blue" fill="blue"/>
   </g>
   <g id="cell51">
  <circle cx="477.855" cy="564.349" r="8.41271" stroke-width="0.5" stroke="black" fill="blue"/>
  <circle cx="477.855" cy="564.349" r="5.05167" stroke-width="0.5" stroke="blue" fill="blue"/>
   </g>
   <g id="cell52">
  <circle cx="477.117" cy="578.94" r="8.41271" stroke-width="0.5" stroke="black" fill="Red"/>
  <circle cx="477.117" cy="578.94" r="5.05167" stroke-width="0.5" stroke="Red" fill="Red"/>
   </g>
   <g id="cell53">
  <circle cx="487.688" cy="418.543" r="8.41271" stroke-width="0.5" stroke="black" fill="yellow"/>
  <circle cx="487.688" cy="418.543" r="5.05167" stroke-width="0.5" stroke="yellow" fill="yellow"/>
   </g>
   <g id="cell54">
  <circle cx="488.631" cy="433.361" r="8.41271" stroke-width="0.5" stroke="black" fill="blue"/>
  <circle cx="488.631" cy="433.361" r="5.05167" stroke-width="0.5" stroke="blue" fill="blue"/>
   </g>
   <g id="cell55">
  <circle cx="487.908" cy="447.932" r="8.41271" stroke-width="0.5" stroke="black" fill="Red"/>
  <circle cx="487.908" cy="447.932" r="5.05167" stroke-width="0.5" stroke="Red" fill="Red"/>
   </g>
   <g id="cell56">
  <circle cx="492.578" cy="462.337" r="6.86652" stroke-width="0.5" stroke="black" fill="blue"/>
  <circle cx="492.578" cy="462.337" r="4.14883" stroke-width="0.5" stroke="blue" fill="blue"/>
   </g>
   <g id="cell57">
  <circle cx="488.214" cy="473.402" r="8.41271" stroke-width="0.5" stroke="black" fill="Red"/>
  <circle cx="488.214" cy="473.402" r="5.05167" stroke-width="0.5" stroke="Red" fill="Red"/>
   </g>
   <g id="cell58">
  <circle cx="489.017" cy="488.531" r="8.41271" stroke-width="0.5" stroke="black" fill="blue"/>
  <circle cx="489.017" cy="488.531" r="5.05167" stroke-width="0.5" stroke="blue" fill="blue"/>
   </g>
   <g id="cell59">
  <circle cx="490.999" cy="501.727" r="8.41271" stroke-width="0.5" stroke="black" fill="Red"/>
  <circle cx="490.999" cy="501.727" r="5.05167" stroke-width="0.5" stroke="Red" fill="Red"/>
   </g>
   <g id="cell60">
  <circle cx="490.934" cy="516.052" r="8.41271" stroke-width="0.5" stroke="black" fill="Red"/>
  <circle cx="490.934" cy="516.052" r="5.05167" stroke-width="0.5" stroke="Red" fill="Red"/>
   </g>
   <g id="cell61">
  <circle cx="487.141" cy="529.588" r="8.41271" stroke-width="0.5" stroke="black" fill="Red"/>
  <circle cx="487.141" cy="529.588" r="5.05167" stroke-width="0.5" stroke="Red" fill="Red"/>
   </g>
   <g id="cell62">
  <circle cx="488.568" cy="543.539" r="8.41271" stroke-width="0.5" stroke="black" fill="blue"/>
  <circle cx="488.568" cy="543.539" r="5.05167" stroke-width="0.5" stroke="blue" fill="blue"/>
   </g>
   <g id="cell63">
  <circle cx="490.412" cy="557.188" r="8.41271" stroke-width="0.5" stroke="black" fill="Red"/>
  <circle cx="490.412" cy="557.188" r="5.05167" stroke-width="0.5" stroke="Red" fill="Red"/>
   </g>
   <g id="cell64">
  <circle cx="490.427" cy="571.005" r="8.41271" stroke-width="0.5" stroke="black" fill="Red"/>
  <circle cx="490.427" cy="571.005" r="5.05167" stroke-width="0.5" stroke="Red" fill="Red"/>
   </g>
   <g id="cell65">
  <circle cx="490.656" cy="585.538" r="8.41271" stroke-width="0.5" stroke="black" fill="Red"/>
  <circle cx="490.656" cy="585.538" r="5.05167" stroke-width="0.5" stroke="Red" fill="Red"/>
   </g>
   <g id="cell66">
  <circle cx="498.94" cy="409.799" r="8.41271" stroke-width="0.5" stroke="black" fill="blue"/>
  <circle cx="498.94" cy="409.799" r="5.05167" stroke-width="0.5" stroke="blue" fill="blue"/>
   </g>
   <g id="cell67">
  <circle cx="500.697" cy="425.078" r="8.41271" stroke-width="0.5" stroke="black" fill="yellow"/>
  <circle cx="500.697" cy="425.078" r="5.05167" stroke-width="0.5" stroke="yellow" fill="yellow"/>
   </g>
   <g id="cell68">
  <circle cx="499.945" cy="439.485" r="8.41271" stroke-width="0.5" stroke="black" fill="Red"/>
  <circle cx="499.945" cy="439.485" r="5.05167" stroke-width="0.5" stroke="Red" fill="Red"/>
   </g>
   <g id="cell69">
  <circle cx="500.159" cy="453.679" r="8.41271" stroke-width="0.5" stroke="black" fill="Red"/>
  <circle cx="500.159" cy="453.679" r="5.05167" stroke-width="0.5" stroke="Red" fill="Red"/>
   </g>
   <g id="cell70">
  <circle cx="502.309" cy="469.512" r="8.41271" stroke-width="0.5" stroke="black" fill="blue"/>
  <circle cx="502.309" cy="469.512" r="5.05167" stroke-width="0.5" stroke="blue" fill="blue"/>
   </g>
   <g id="cell71">
  <circle cx="500.205" cy="481.628" r="8.41271" stroke-width="0.5" stroke="black" fill="Red"/>
  <circle cx="500.205" cy="481.628" r="5.05167" stroke-width="0.5" stroke="Red" fill="Red"/>
   </g>
   <g id="cell72">
  <circle cx="501.831" cy="494.803" r="8.41271" stroke-width="0.5" stroke="black" fill="Red"/>
  <circle cx="501.831" cy="494.803" r="5.05167" stroke-width="0.5" stroke="Red" fill="Red"/>
   </g>
   <g id="cell73">
  <circle cx="502.668" cy="509.084" r="8.41271" stroke-width="0.5" stroke="black" fill="Red"/>
  <circle cx="502.668" cy="509.084" r="5.05167" stroke-width="0.5" stroke="Red" fill="Red"/>
   </g>
   <g id="cell74">
  <circle cx="501.278" cy="522.454" r="8.41271" stroke-width="0.5" stroke="black" fill="Red"/>
  <circle cx="501.278" cy="522.454" r="5.05167" stroke-width="0.5" stroke="Red" fill="Red"/>
   </g>
   <g id="cell75">
  <circle cx="500.715" cy="535.845" r="8.41271" stroke-width="0.5" stroke="black" fill="blue"/>
  <circle cx="500.715" cy="535.845" r="5.05167" stroke-width="0.5" stroke="blue" fill="blue"/>
   </g>
   <g id="cell76">
  <circle cx="501.877" cy="547.888" r="8.41271" stroke-width="0.5" stroke="black" fill="Red"/>
  <circle cx="501.877" cy="547.888" r="5.05167" stroke-width="0.5" stroke="Red" fill="Red"/>
   </g>
   <g id="cell77">
  <circle cx="501.869" cy="568.874" r="6.73287" stroke-width="0.5" stroke="black" fill="blue"/>
  <circle cx="501.869" cy="568.874" r="4.05039" stroke-width="0.5" stroke="blue" fill="blue"/>
   </g>
   <g id="cell78">
  <circle cx="502.791" cy="580.398" r="8.41271" stroke-width="0.5" stroke="black" fill="Red"/>
  <circle cx="502.791" cy="580.398" r="5.05167" stroke-width="0.5" stroke="Red" fill="Red"/>
   </g>
   <g id="cell79">
  <circle cx="502.628" cy="594.051" r="8.41271" stroke-width="0.5" stroke="black" fill="blue"/>
  <circle cx="502.628" cy="594.051" r="5.05167" stroke-width="0.5" stroke="blue" fill="blue"/>
   </g>
   <g id="cell80">
  <circle cx="512.886" cy="416.709" r="8.41271" stroke-width="0.5" stroke="black" fill="yellow"/>
  <circle cx="512.886" cy="416.709" r="5.05167" stroke-width="0.5" stroke="yellow" fill="yellow"/>
   </g>
   <g id="cell81">
  <circle cx="512.404" cy="433.254" r="8.41271" stroke-width="0.5" stroke="black" fill="blue"/>
  <circle cx="512.404" cy="433.254" r="5.05167" stroke-width="0.5" stroke="blue" fill="blue"/>
   </g>
   <g id="cell82">
  <circle cx="512.571" cy="445.947" r="8.41271" stroke-width="0.5" stroke="black" fill="Red"/>
  <circle cx="512.571" cy="445.947" r="5.05167" stroke-width="0.5" stroke="Red" fill="Red"/>
   </g>
   <g id="cell83">
  <circle cx="511.862" cy="459.386" r="8.41271" stroke-width="0.5" stroke="black" fill="Red"/>
  <circle cx="511.862" cy="459.386" r="5.05167" stroke-width="0.5" stroke="Red" fill="Red"/>
   </g>
   <g id="cell84">
  <circle cx="513.188" cy="473.819" r="8.41271" stroke-width="0.5" stroke="black" fill="blue"/>
  <circle cx="513.188" cy="473.819" r="5.05167" stroke-width="0.5" stroke="blue" fill="blue"/>
   </g>
   <g id="cell85">
  <circle cx="512.564" cy="486.768" r="8.41271" stroke-width="0.5" stroke="black" fill="blue"/>
  <circle cx="512.564" cy="486.768" r="5.05167" stroke-width="0.5" stroke="blue" fill="blue"/>
   </g>
   <g id="cell86">
  <circle cx="513.324" cy="500.053" r="8.41271" stroke-width="0.5" stroke="black" fill="Red"/>
  <circle cx="513.324" cy="500.053" r="5.05167" stroke-width="0.5" stroke="Red" fill="Red"/>
   </g>
   <g id="cell87">
  <circle cx="514.591" cy="509.932" r="6.80881" stroke-width="0.5" stroke="black" fill="Red"/>
  <circle cx="514.591" cy="509.932" r="4.10709" stroke-width="0.5" stroke="Red" fill="Red"/>
   </g>
   <g id="cell88">
  <circle cx="512.908" cy="530.685" r="8.41271" stroke-width="0.5" stroke="black" fill="Red"/>
  <circle cx="512.908" cy="530.685" r="5.05167" stroke-width="0.5" stroke="Red" fill="Red"/>
   </g>
   <g id="cell89">
  <circle cx="512.732" cy="542.95" r="8.41271" stroke-width="0.5" stroke="black" fill="blue"/>
  <circle cx="512.732" cy="542.95" r="5.05167" stroke-width="0.5" stroke="blue" fill="blue"/>
   </g>
   <g id="cell90">
  <circle cx="512.623" cy="557.277" r="8.41271" stroke-width="0.5" stroke="black" fill="Red"/>
  <circle cx="512.623" cy="557.277" r="5.05167" stroke-width="0.5" stroke="Red" fill="Red"/>
   </g>
   <g id="cell91">
  <circle cx="513.427" cy="571.002" r="8.41271" stroke-width="0.5" stroke="black" fill="Red"/>
  <circle cx="513.427" cy="571.002" r="5.05167" stroke-width="0.5" stroke="Red" fill="Red"/>
   </g>
   <g id="cell92">
  <circle cx="516.028" cy="586.021" r="8.41271" stroke-width="0.5" stroke="black" fill="Red"/>
  <circle cx="516.028" cy="586.021" r="5.05167" stroke-width="0.5" stroke="Red" fill="Red"/>
   </g>
   <g id="cell93">
  <circle cx="527.779" cy="415.299" r="8.41271" stroke-width="0.5" stroke="black" fill="blue"/>
  <circle cx="527.779" cy="415.299" r="5.05167" stroke-width="0.5" stroke="blue" fill="blue"/>
   </g>
   <g id="cell94">
  <circle cx="532.083" cy="426.866" r="6.83713" stroke-width="0.5" stroke="black" fill="Red"/>
  <circle cx="532.083" cy="426.866" r="4.12773" stroke-width="0.5" stroke="Red" fill="Red"/>
   </g>
   <g id="cell95">
  <circle cx="525.746" cy="438.638" r="8.41271" stroke-width="0.5" stroke="black" fill="Red"/>
  <circle cx="525.746" cy="438.638" r="5.05167" stroke-width="0.5" stroke="Red" fill="Red"/>
   </g>
   <g id="cell96">
  <circle cx="523.655" cy="451.481" r="7.18097" stroke-width="0.5" stroke="black" fill="blue"/>
  <circle cx="523.655" cy="451.481" r="4.36015" stroke-width="0.5" stroke="blue" fill="blue"/>
   </g>
   <g id="cell97">
  <circle cx="523.659" cy="466.21" r="8.41271" stroke-width="0.5" stroke="black" fill="yellow"/>
  <circle cx="523.659" cy="466.21" r="5.05167" stroke-width="0.5" stroke="yellow" fill="yellow"/>
   </g>
   <g id="cell98">
  <circle cx="523.478" cy="485.191" r="6.67717" stroke-width="0.5" stroke="black" fill="Red"/>
  <circle cx="523.478" cy="485.191" r="4.00951" stroke-width="0.5" stroke="Red" fill="Red"/>
   </g>
   <g id="cell99">
  <circle cx="525.182" cy="495.515" r="8.41271" stroke-width="0.5" stroke="black" fill="Red"/>
  <circle cx="525.182" cy="495.515" r="5.05167" stroke-width="0.5" stroke="Red" fill="Red"/>
   </g>
   <g id="cell100">
  <circle cx="525.965" cy="508.811" r="8.41271" stroke-width="0.5" stroke="black" fill="Red"/>
  <circle cx="525.965" cy="508.811" r="5.05167" stroke-width="0.5" stroke="Red" fill="Red"/>
   </g>
   <g id="cell101">
  <circle cx="525.753" cy="523.157" r="8.41271" stroke-width="0.5" stroke="black" fill="Red"/>
  <circle cx="525.753" cy="523.157" r="5.05167" stroke-width="0.5" stroke="Red" fill="Red"/>
   </g>
   <g id="cell102">
  <circle cx="532.044" cy="533.703" r="7.08639" stroke-width="0.5" stroke="black" fill="blue"/>
  <circle cx="532.044" cy="533.703" r="4.29876" stroke-width="0.5" stroke="blue" fill="blue"/>
   </g>
   <g id="cell103">
  <circle cx="526.088" cy="549.01" r="8.41271" stroke-width="0.5" stroke="black" fill="Red"/>
  <circle cx="526.088" cy="549.01" r="5.05167" stroke-width="0.5" stroke="Red" fill="Red"/>
   </g>
   <g id="cell104">
  <circle cx="525.7" cy="563.214" r="8.41271" stroke-width="0.5" stroke="black" fill="Red"/>
  <circle cx="525.7" cy="563.214" r="5.05167" stroke-width="0.5" stroke="Red" fill="Red"/>
   </g>
   <g id="cell105">
  <circle cx="527.243" cy="577.032" r="8.41271" stroke-width="0.5" stroke="black" fill="blue"/>
  <circle cx="527.243" cy="577.032" r="5.05167" stroke-width="0.5" stroke="blue" fill="blue"/>
   </g>
   <g id="cell106">
  <circle cx="542.261" cy="419.344" r="8.41271" stroke-width="0.5" stroke="black" fill="yellow"/>
  <circle cx="542.261" cy="419.344" r="5.05167" stroke-width="0.5" stroke="yellow" fill="yellow"/>
   </g>
   <g id="cell107">
  <circle cx="540.738" cy="435.544" r="8.41271" stroke-width="0.5" stroke="black" fill="Red"/>
  <circle cx="540.738" cy="435.544" r="5.05167" stroke-width="0.5" stroke="Red" fill="Red"/>
   </g>
   <g id="cell108">
  <circle cx="535.797" cy="448.292" r="8.41271" stroke-width="0.5" stroke="black" fill="Red"/>
  <circle cx="535.797" cy="448.292" r="5.05167" stroke-width="0.5" stroke="Red" fill="Red"/>
   </g>
   <g id="cell109">
  <circle cx="543.12" cy="462.707" r="8.41271" stroke-width="0.5" stroke="black" fill="Red"/>
  <circle cx="543.12" cy="462.707" r="5.05167" stroke-width="0.5" stroke="Red" fill="Red"/>
   </g>
   <g id="cell110">
  <circle cx="539.919" cy="476.364" r="8.41271" stroke-width="0.5" stroke="black" fill="yellow"/>
  <circle cx="539.919" cy="476.364" r="5.05167" stroke-width="0.5" stroke="yellow" fill="yellow"/>
   </g>
   <g id="cell111">
  <circle cx="537.124" cy="488.251" r="8.41271" stroke-width="0.5" stroke="black" fill="blue"/>
  <circle cx="537.124" cy="488.251" r="5.05167" stroke-width="0.5" stroke="blue" fill="blue"/>
   </g>
   <g id="cell112">
  <circle cx="539.783" cy="501.583" r="8.41271" stroke-width="0.5" stroke="black" fill="blue"/>
  <circle cx="539.783" cy="501.583" r="5.05167" stroke-width="0.5" stroke="blue" fill="blue"/>
   </g>
   <g id="cell113">
  <circle cx="538.493" cy="514.771" r="8.41271" stroke-width="0.5" stroke="black" fill="blue"/>
  <circle cx="538.493" cy="514.771" r="5.05167" stroke-width="0.5" stroke="blue" fill="blue"/>
   </g>
   <g id="cell114">
  <circle cx="541.195" cy="527.659" r="8.41271" stroke-width="0.5" stroke="black" fill="Red"/>
  <circle cx="541.195" cy="527.659" r="5.05167" stroke-width="0.5" stroke="Red" fill="Red"/>
   </g>
   <g id="cell115">
  <circle cx="538.95" cy="542.44" r="8.41271" stroke-width="0.5" stroke="black" fill="Red"/>
  <circle cx="538.95" cy="542.44" r="5.05167" stroke-width="0.5" stroke="Red" fill="Red"/>
   </g>
   <g id="cell116">
  <circle cx="538.668" cy="556.653" r="8.41271" stroke-width="0.5" stroke="black" fill="Red"/>
  <circle cx="538.668" cy="556.653" r="5.05167" stroke-width="0.5" stroke="Red" fill="Red"/>
   </g>
   <g id="cell117">
  <circle cx="538.599" cy="570.632" r="8.41271" stroke-width="0.5" stroke="black" fill="blue"/>
  <circle cx="538.599" cy="570.632" r="5.05167" stroke-width="0.5" stroke="blue" fill="blue"/>
   </g>
   <g id="cell118">
  <circle cx="553.01" cy="428.791" r="8.41271" stroke-width="0.5" stroke="black" fill="blue"/>
  <circle cx="553.01" cy="428.791" r="5.05167" stroke-width="0.5" stroke="blue" fill="blue"/>
   </g>
   <g id="cell119">
  <circle cx="552.281" cy="443.025" r="8.41271" stroke-width="0.5" stroke="black" fill="yellow"/>
  <circle cx="552.281" cy="443.025" r="5.05167" stroke-width="0.5" stroke="yellow" fill="yellow"/>
   </g>
   <g id="cell120">
  <circle cx="558.838" cy="454.348" r="6.80881" stroke-width="0.5" stroke="black" fill="Red"/>
  <circle cx="558.838" cy="454.348" r="4.10709" stroke-width="0.5" stroke="Red" fill="Red"/>
   </g>
   <g id="cell121">
  <circle cx="555.173" cy="465.814" r="8.41271" stroke-width="0.5" stroke="black" fill="Red"/>
  <circle cx="555.173" cy="465.814" r="5.05167" stroke-width="0.5" stroke="Red" fill="Red"/>
   </g>
   <g id="cell122">
  <circle cx="551.481" cy="479.511" r="8.41271" stroke-width="0.5" stroke="black" fill="Red"/>
  <circle cx="551.481" cy="479.511" r="5.05167" stroke-width="0.5" stroke="Red" fill="Red"/>
   </g>
   <g id="cell123">
  <circle cx="550.492" cy="493.804" r="8.41271" stroke-width="0.5" stroke="black" fill="Red"/>
  <circle cx="550.492" cy="493.804" r="5.05167" stroke-width="0.5" stroke="Red" fill="Red"/>
   </g>
   <g id="cell124">
  <circle cx="551.097" cy="510.246" r="8.41271" stroke-width="0.5" stroke="black" fill="Red"/>
  <circle cx="551.097" cy="510.246" r="5.05167" stroke-width="0.5" stroke="Red" fill="Red"/>
   </g>
   <g id="cell125">
  <circle cx="548.759" cy="521.07" r="6.83713" stroke-width="0.5" stroke="black" fill="Red"/>
  <circle cx="548.759" cy="521.07" r="4.12773" stroke-width="0.5" stroke="Red" fill="Red"/>
   </g>
   <g id="cell126">
  <circle cx="552.294" cy="535.609" r="8.41271" stroke-width="0.5" stroke="black" fill="Red"/>
  <circle cx="552.294" cy="535.609" r="5.05167" stroke-width="0.5" stroke="Red" fill="Red"/>
   </g>
   <g id="cell127">
  <circle cx="551.712" cy="549.744" r="8.41271" stroke-width="0.5" stroke="black" fill="Red"/>
  <circle cx="551.712" cy="549.744" r="5.05167" stroke-width="0.5" stroke="Red" fill="Red"/>
   </g>
   <g id="cell128">
  <circle cx="551.259" cy="563.961" r="8.41271" stroke-width="0.5" stroke="black" fill="yellow"/>
  <circle cx="551.259" cy="563.961" r="5.05167" stroke-width="0.5" stroke="yellow" fill="yellow"/>
   </g>
   <g id="cell129">
  <circle cx="576.819" cy="447.543" r="6.78181" stroke-width="0.5" stroke="black" fill="blue"/>
  <circle cx="576.819" cy="447.543" r="4.08714" stroke-width="0.5" stroke="blue" fill="blue"/>
   </g>
   <g id="cell130">
  <circle cx="570.089" cy="458.948" r="8.41271" stroke-width="0.5" stroke="black" fill="yellow"/>
  <circle cx="570.089" cy="458.948" r="5.05167" stroke-width="0.5" stroke="yellow" fill="yellow"/>
   </g>
   <g id="cell131">
  <circle cx="565.687" cy="474.486" r="8.41271" stroke-width="0.5" stroke="black" fill="yellow"/>
  <circle cx="565.687" cy="474.486" r="5.05167" stroke-width="0.5" stroke="yellow" fill="yellow"/>
   </g>
   <g id="cell132">
  <circle cx="562.296" cy="486.607" r="8.41271" stroke-width="0.5" stroke="black" fill="blue"/>
  <circle cx="562.296" cy="486.607" r="5.05167" stroke-width="0.5" stroke="blue" fill="blue"/>
   </g>
   <g id="cell133">
  <circle cx="562.317" cy="501.747" r="8.41271" stroke-width="0.5" stroke="black" fill="Red"/>
  <circle cx="562.317" cy="501.747" r="5.05167" stroke-width="0.5" stroke="Red" fill="Red"/>
   </g>
   <g id="cell134">
  <circle cx="564.88" cy="516.271" r="8.41271" stroke-width="0.5" stroke="black" fill="Red"/>
  <circle cx="564.88" cy="516.271" r="5.05167" stroke-width="0.5" stroke="Red" fill="Red"/>
   </g>
   <g id="cell135">
  <circle cx="566.687" cy="530.49" r="8.41271" stroke-width="0.5" stroke="black" fill="Red"/>
  <circle cx="566.687" cy="530.49" r="5.05167" stroke-width="0.5" stroke="Red" fill="Red"/>
   </g>
   <g id="cell136">
  <circle cx="565.231" cy="544.563" r="8.41271" stroke-width="0.5" stroke="black" fill="yellow"/>
  <circle cx="565.231" cy="544.563" r="5.05167" stroke-width="0.5" stroke="yellow" fill="yellow"/>
   </g>
   <g id="cell137">
  <circle cx="564.835" cy="558.345" r="8.41271" stroke-width="0.5" stroke="black" fill="blue"/>
  <circle cx="564.835" cy="558.345" r="5.05167" stroke-width="0.5" stroke="blue" fill="blue"/>
   </g>
   <g id="cell138">
  <circle cx="577.497" cy="470.11" r="8.41271" stroke-width="0.5" stroke="black" fill="blue"/>
  <circle cx="577.497" cy="470.11" r="5.05167" stroke-width="0.5" stroke="blue" fill="blue"/>
   </g>
   <g id="cell139">
  <circle cx="578.398" cy="483.765" r="8.41271" stroke-width="0.5" stroke="black" fill="yellow"/>
  <circle cx="578.398" cy="483.765" r="5.05167" stroke-width="0.5" stroke="yellow" fill="yellow"/>
   </g>
   <g id="cell140">
  <circle cx="573.443" cy="494.97" r="7.21189" stroke-width="0.5" stroke="black" fill="yellow"/>
  <circle cx="573.443" cy="494.97" r="4.37993" stroke-width="0.5" stroke="yellow" fill="yellow"/>
   </g>
   <g id="cell141">
  <circle cx="575.484" cy="507.831" r="8.41271" stroke-width="0.5" stroke="black" fill="Red"/>
  <circle cx="575.484" cy="507.831" r="5.05167" stroke-width="0.5" stroke="Red" fill="Red"/>
   </g>
   <g id="cell142">
  <circle cx="577.87" cy="521.111" r="8.41271" stroke-width="0.5" stroke="black" fill="Red"/>
  <circle cx="577.87" cy="521.111" r="5.05167" stroke-width="0.5" stroke="Red" fill="Red"/>
   </g>
   <g id="cell143">
  <circle cx="577.906" cy="535.878" r="8.41271" stroke-width="0.5" stroke="black" fill="blue"/>
  <circle cx="577.906" cy="535.878" r="5.05167" stroke-width="0.5" stroke="blue" fill="blue"/>
   </g>
   <g id="cell144">
  <circle cx="437.014" cy="435.904" r="7.21189" stroke-width="0.5" stroke="black" fill="Red"/>
  <circle cx="437.014" cy="435.904" r="4.37993" stroke-width="0.5" stroke="Red" fill="Red"/>
   </g>
   <g id="cell145">
  <circle cx="585.018" cy="498.373" r="7.21189" stroke-width="0.5" stroke="black" fill="blue"/>
  <circle cx="585.018" cy="498.373" r="4.37993" stroke-width="0.5" stroke="blue" fill="blue"/>
   </g>
   <g id="cell146">
  <circle cx="480.811" cy="509.071" r="7.18097" stroke-width="0.5" stroke="black" fill="blue"/>
  <circle cx="480.811" cy="509.071" r="4.36015" stroke-width="0.5" stroke="blue" fill="blue"/>
   </g>
   <g id="cell147">
  <circle cx="531.618" cy="458.759" r="6.24287" stroke-width="0.5" stroke="black" fill="Red"/>
  <circle cx="531.618" cy="458.759" r="3.82881" stroke-width="0.5" stroke="Red" fill="Red"/>
   </g>
   <g id="cell148">
  <circle cx="523.228" cy="537.036" r="7.08639" stroke-width="0.5" stroke="black" fill="blue"/>
  <circle cx="523.228" cy="537.036" r="4.29876" stroke-width="0.5" stroke="blue" fill="blue"/>
   </g>
   <g id="cell149">
  <circle cx="533.204" cy="468.372" r="6.24287" stroke-width="0.5" stroke="black" fill="blue"/>
  <circle cx="533.204" cy="468.372" r="3.82881" stroke-width="0.5" stroke="blue" fill="blue"/>
   </g>
   <g id="cell150">
  <circle cx="443.363" cy="514.157" r="6.92764" stroke-width="0.5" stroke="black" fill="Red"/>
  <circle cx="443.363" cy="514.157" r="4.1918" stroke-width="0.5" stroke="Red" fill="Red"/>
   </g>
   <g id="cell151">
  <circle cx="448.782" cy="418.35" r="6.92764" stroke-width="0.5" stroke="black" fill="blue"/>
  <circle cx="448.782" cy="418.35" r="4.1918" stroke-width="0.5" stroke="blue" fill="blue"/>
   </g>
   <g id="cell152">
  <circle cx="484.083" cy="459.771" r="6.86652" stroke-width="0.5" stroke="black" fill="blue"/>
  <circle cx="484.083" cy="459.771" r="4.14883" stroke-width="0.5" stroke="blue" fill="blue"/>
   </g>
   <g id="cell153">
  <circle cx="521.509" cy="425.993" r="6.83713" stroke-width="0.5" stroke="black" fill="yellow"/>
  <circle cx="521.509" cy="425.993" r="4.12773" stroke-width="0.5" stroke="yellow" fill="yellow"/>
   </g>
   <g id="cell154">
  <circle cx="557.142" cy="524.015" r="6.83713" stroke-width="0.5" stroke="black" fill="blue"/>
  <circle cx="557.142" cy="524.015" r="4.12773" stroke-width="0.5" stroke="blue" fill="blue"/>
   </g>
   <g id="cell155">
  <circle cx="445.565" cy="428.799" r="5.73015" stroke-width="0.5" stroke="black" fill="yellow"/>
  <circle cx="445.565" cy="428.799" r="3.4926" stroke-width="0.5" stroke="yellow" fill="yellow"/>
   </g>
   <g id="cell156">
  <circle cx="513.915" cy="519.555" r="6.80881" stroke-width="0.5" stroke="black" fill="blue"/>
  <circle cx="513.915" cy="519.555" r="4.10709" stroke-width="0.5" stroke="blue" fill="blue"/>
   </g>
   <g id="cell157">
  <circle cx="547.266" cy="453.465" r="6.80881" stroke-width="0.5" stroke="black" fill="blue"/>
  <circle cx="547.266" cy="453.465" r="4.10709" stroke-width="0.5" stroke="blue" fill="blue"/>
   </g>
   <g id="cell158">
  <circle cx="565.57" cy="445.061" r="6.78181" stroke-width="0.5" stroke="black" fill="yellow"/>
  <circle cx="565.57" cy="445.061" r="4.08714" stroke-width="0.5" stroke="yellow" fill="yellow"/>
   </g>
   <g id="cell159">
  <circle cx="471.232" cy="528.152" r="6.75639" stroke-width="0.5" stroke="black" fill="blue"/>
  <circle cx="471.232" cy="528.152" r="4.06813" stroke-width="0.5" stroke="blue" fill="blue"/>
   </g>
   <g id="cell160">
  <circle cx="501.567" cy="559.762" r="6.73287" stroke-width="0.5" stroke="black" fill="blue"/>
  <circle cx="501.567" cy="559.762" r="4.05039" stroke-width="0.5" stroke="blue" fill="blue"/>
   </g>
   <g id="cell161">
  <circle cx="527.291" cy="477.125" r="6.67717" stroke-width="0.5" stroke="black" fill="Red"/>
  <circle cx="527.291" cy="477.125" r="4.00951" stroke-width="0.5" stroke="Red" fill="Red"/>
   </g>
  </g>
 </g>
  <rect x="775" y="1035" width="200" height="10" stroke-width="2" stroke="rgb(255,255,255)" fill="rgb(0,0,0)"/>
  <text x="781.25" y="1028.75"
   font-family="Arial" font-size="25" fill="black" >
   200 &#956;m
  </text>
  <text x="25" y="1045"
   font-family="Arial" font-size="18.75" fill="black" >
   0 days, 0 hours, 0 minutes, and 41.9714 seconds
  </text>
  <rect x="0" y="70" width="1000" height="1000" stroke-width="2" stroke="rgb(0,0,0)" fill="none"/>
</svg>
