<?xml version="1.0" encoding="UTF-8" standalone="no"?>
<!-- Created with PhysiCell (http://PhysiCell.MathCancer.org/) -->
<svg 
 xmlns:dc="http://purl.org/dc/elements/1.1/" 
 xmlns:cc="http://creativecommons.org/ns#" 
 xmlns:rdf="http://www.w3.org/1999/02/22-rdf-syntax-ns#" 
 xmlns:svg="http://www.w3.org/2000/svg" 
 xmlns="http://www.w3.org/2000/svg" 
 version="1.1" 
 width="1000" 
 height="1070" 
 id="svg2">
  <rect x="0" y="0" width="1000" height="1070" stroke-width="2" stroke="white" fill="white"/>
  <text x="12.5" y="30"
   font-family="Arial" font-size="25" fill="black" >
   Current time: 0 days, 7 hours, and 50.00 minutes, z = 0.00 &#956;m
  </text>
  <text x="12.5" y="57.5"
   font-family="Arial" font-size="23.75" fill="black" >
   220 agents
  </text>
 <g id="tissue" 
    transform="translate(0,1070) scale(1,-1)">
  <g id="ECM">
  </g>
  <g id="cells">
   <g id="cell0">
  <circle cx="422.858" cy="440.33" r="8.41271" stroke-width="0.5" stroke="black" fill="Red"/>
  <circle cx="422.858" cy="440.33" r="5.05167" stroke-width="0.5" stroke="Red" fill="Red"/>
   </g>
   <g id="cell1">
  <circle cx="419.498" cy="467.352" r="7.89373" stroke-width="0.5" stroke="black" fill="Red"/>
  <circle cx="419.498" cy="467.352" r="4.78957" stroke-width="0.5" stroke="Red" fill="Red"/>
   </g>
   <g id="cell2">
  <circle cx="418.322" cy="480.65" r="8.41271" stroke-width="0.5" stroke="black" fill="yellow"/>
  <circle cx="418.322" cy="480.65" r="5.05167" stroke-width="0.5" stroke="yellow" fill="yellow"/>
   </g>
   <g id="cell3">
  <circle cx="410.692" cy="494.132" r="7.98892" stroke-width="0.5" stroke="black" fill="blue"/>
  <circle cx="410.692" cy="494.132" r="4.84272" stroke-width="0.5" stroke="blue" fill="blue"/>
   </g>
   <g id="cell4">
  <circle cx="419.027" cy="508.337" r="8.41271" stroke-width="0.5" stroke="black" fill="yellow"/>
  <circle cx="419.027" cy="508.337" r="5.05167" stroke-width="0.5" stroke="yellow" fill="yellow"/>
   </g>
   <g id="cell5">
  <circle cx="408.519" cy="531.174" r="6.83316" stroke-width="0.5" stroke="black" fill="yellow"/>
  <circle cx="408.519" cy="531.174" r="4.18116" stroke-width="0.5" stroke="yellow" fill="yellow"/>
   </g>
   <g id="cell6">
  <circle cx="424.518" cy="544.806" r="8.41271" stroke-width="0.5" stroke="black" fill="yellow"/>
  <circle cx="424.518" cy="544.806" r="5.05167" stroke-width="0.5" stroke="yellow" fill="yellow"/>
   </g>
   <g id="cell7">
  <circle cx="434.134" cy="447.029" r="8.17502" stroke-width="0.5" stroke="black" fill="Red"/>
  <circle cx="434.134" cy="447.029" r="4.94236" stroke-width="0.5" stroke="Red" fill="Red"/>
   </g>
   <g id="cell8">
  <circle cx="422.421" cy="455.189" r="8.41271" stroke-width="0.5" stroke="black" fill="yellow"/>
  <circle cx="422.421" cy="455.189" r="5.05167" stroke-width="0.5" stroke="yellow" fill="yellow"/>
   </g>
   <g id="cell9">
  <circle cx="431.174" cy="471.858" r="8.41271" stroke-width="0.5" stroke="black" fill="Red"/>
  <circle cx="431.174" cy="471.858" r="5.05167" stroke-width="0.5" stroke="Red" fill="Red"/>
   </g>
   <g id="cell10">
  <circle cx="430.537" cy="485.303" r="8.41271" stroke-width="0.5" stroke="black" fill="Red"/>
  <circle cx="430.537" cy="485.303" r="5.05167" stroke-width="0.5" stroke="Red" fill="Red"/>
   </g>
   <g id="cell11">
  <circle cx="433.403" cy="500.966" r="8.41271" stroke-width="0.5" stroke="black" fill="Red"/>
  <circle cx="433.403" cy="500.966" r="5.05167" stroke-width="0.5" stroke="Red" fill="Red"/>
   </g>
   <g id="cell12">
  <circle cx="430.151" cy="515.997" r="8.10448" stroke-width="0.5" stroke="black" fill="Red"/>
  <circle cx="430.151" cy="515.997" r="4.90539" stroke-width="0.5" stroke="Red" fill="Red"/>
   </g>
   <g id="cell13">
  <circle cx="436.044" cy="537.722" r="8.41271" stroke-width="0.5" stroke="black" fill="Red"/>
  <circle cx="436.044" cy="537.722" r="5.05167" stroke-width="0.5" stroke="Red" fill="Red"/>
   </g>
   <g id="cell14">
  <circle cx="435.757" cy="552.508" r="8.41271" stroke-width="0.5" stroke="black" fill="Red"/>
  <circle cx="435.757" cy="552.508" r="5.05167" stroke-width="0.5" stroke="Red" fill="Red"/>
   </g>
   <g id="cell15">
  <circle cx="437.504" cy="564.72" r="8.41271" stroke-width="0.5" stroke="black" fill="blue"/>
  <circle cx="437.504" cy="564.72" r="5.05167" stroke-width="0.5" stroke="blue" fill="blue"/>
   </g>
   <g id="cell16">
  <circle cx="446.477" cy="425.609" r="6.49269" stroke-width="0.5" stroke="black" fill="Red"/>
  <circle cx="446.477" cy="425.609" r="3.9691" stroke-width="0.5" stroke="Red" fill="Red"/>
   </g>
   <g id="cell17">
  <circle cx="446.944" cy="445.702" r="7.70049" stroke-width="0.5" stroke="black" fill="blue"/>
  <circle cx="446.944" cy="445.702" r="4.67828" stroke-width="0.5" stroke="blue" fill="blue"/>
   </g>
   <g id="cell18">
  <circle cx="443.368" cy="455.263" r="6.89675" stroke-width="0.5" stroke="black" fill="Red"/>
  <circle cx="443.368" cy="455.263" r="4.17024" stroke-width="0.5" stroke="Red" fill="Red"/>
   </g>
   <g id="cell19">
  <circle cx="443.58" cy="467.302" r="8.41271" stroke-width="0.5" stroke="black" fill="Red"/>
  <circle cx="443.58" cy="467.302" r="5.05167" stroke-width="0.5" stroke="Red" fill="Red"/>
   </g>
   <g id="cell20">
  <circle cx="451.76" cy="482.281" r="6.99069" stroke-width="0.5" stroke="black" fill="Red"/>
  <circle cx="451.76" cy="482.281" r="4.23498" stroke-width="0.5" stroke="Red" fill="Red"/>
   </g>
   <g id="cell21">
  <circle cx="441.792" cy="490.654" r="8.41271" stroke-width="0.5" stroke="black" fill="Red"/>
  <circle cx="441.792" cy="490.654" r="5.05167" stroke-width="0.5" stroke="Red" fill="Red"/>
   </g>
   <g id="cell22">
  <circle cx="447.349" cy="502.713" r="8.41271" stroke-width="0.5" stroke="black" fill="Red"/>
  <circle cx="447.349" cy="502.713" r="5.05167" stroke-width="0.5" stroke="Red" fill="Red"/>
   </g>
   <g id="cell23">
  <circle cx="440.614" cy="525.822" r="8.41271" stroke-width="0.5" stroke="black" fill="Red"/>
  <circle cx="440.614" cy="525.822" r="5.05167" stroke-width="0.5" stroke="Red" fill="Red"/>
   </g>
   <g id="cell24">
  <circle cx="446.995" cy="543.674" r="8.41271" stroke-width="0.5" stroke="black" fill="Red"/>
  <circle cx="446.995" cy="543.674" r="5.05167" stroke-width="0.5" stroke="Red" fill="Red"/>
   </g>
   <g id="cell25">
  <circle cx="448.198" cy="557.456" r="8.41271" stroke-width="0.5" stroke="black" fill="yellow"/>
  <circle cx="448.198" cy="557.456" r="5.05167" stroke-width="0.5" stroke="yellow" fill="yellow"/>
   </g>
   <g id="cell26">
  <circle cx="439.509" cy="577.62" r="7.27253" stroke-width="0.5" stroke="black" fill="Red"/>
  <circle cx="439.509" cy="577.62" r="4.41835" stroke-width="0.5" stroke="Red" fill="Red"/>
   </g>
   <g id="cell27">
  <circle cx="466.97" cy="401.981" r="8.41271" stroke-width="0.5" stroke="black" fill="blue"/>
  <circle cx="466.97" cy="401.981" r="5.05167" stroke-width="0.5" stroke="blue" fill="blue"/>
   </g>
   <g id="cell28">
  <circle cx="466.553" cy="418.59" r="7.18097" stroke-width="0.5" stroke="black" fill="Red"/>
  <circle cx="466.553" cy="418.59" r="4.36015" stroke-width="0.5" stroke="Red" fill="Red"/>
   </g>
   <g id="cell29">
  <circle cx="458.266" cy="446.055" r="7.96365" stroke-width="0.5" stroke="black" fill="Red"/>
  <circle cx="458.266" cy="446.055" r="4.82873" stroke-width="0.5" stroke="Red" fill="Red"/>
   </g>
   <g id="cell30">
  <circle cx="454.812" cy="458.148" r="8.41271" stroke-width="0.5" stroke="black" fill="Red"/>
  <circle cx="454.812" cy="458.148" r="5.05167" stroke-width="0.5" stroke="Red" fill="Red"/>
   </g>
   <g id="cell31">
  <circle cx="456.336" cy="471.816" r="8.41271" stroke-width="0.5" stroke="black" fill="Red"/>
  <circle cx="456.336" cy="471.816" r="5.05167" stroke-width="0.5" stroke="Red" fill="Red"/>
   </g>
   <g id="cell32">
  <circle cx="464.66" cy="488.254" r="8.41271" stroke-width="0.5" stroke="black" fill="blue"/>
  <circle cx="464.66" cy="488.254" r="5.05167" stroke-width="0.5" stroke="blue" fill="blue"/>
   </g>
   <g id="cell33">
  <circle cx="454.137" cy="492.551" r="8.41271" stroke-width="0.5" stroke="black" fill="Red"/>
  <circle cx="454.137" cy="492.551" r="5.05167" stroke-width="0.5" stroke="Red" fill="Red"/>
   </g>
   <g id="cell34">
  <circle cx="450.333" cy="519.977" r="6.79592" stroke-width="0.5" stroke="black" fill="Red"/>
  <circle cx="450.333" cy="519.977" r="4.17027" stroke-width="0.5" stroke="Red" fill="Red"/>
   </g>
   <g id="cell35">
  <circle cx="457.309" cy="545.13" r="6.66512" stroke-width="0.5" stroke="black" fill="blue"/>
  <circle cx="457.309" cy="545.13" r="4.08555" stroke-width="0.5" stroke="blue" fill="blue"/>
   </g>
   <g id="cell36">
  <circle cx="461.287" cy="554.948" r="8.41271" stroke-width="0.5" stroke="black" fill="Red"/>
  <circle cx="461.287" cy="554.948" r="5.05167" stroke-width="0.5" stroke="Red" fill="Red"/>
   </g>
   <g id="cell37">
  <circle cx="462.692" cy="567.19" r="8.41271" stroke-width="0.5" stroke="black" fill="blue"/>
  <circle cx="462.692" cy="567.19" r="5.05167" stroke-width="0.5" stroke="blue" fill="blue"/>
   </g>
   <g id="cell38">
  <circle cx="460.642" cy="579.572" r="8.41271" stroke-width="0.5" stroke="black" fill="Red"/>
  <circle cx="460.642" cy="579.572" r="5.05167" stroke-width="0.5" stroke="Red" fill="Red"/>
   </g>
   <g id="cell39">
  <circle cx="462.999" cy="592.365" r="7.86286" stroke-width="0.5" stroke="black" fill="blue"/>
  <circle cx="462.999" cy="592.365" r="4.77207" stroke-width="0.5" stroke="blue" fill="blue"/>
   </g>
   <g id="cell40">
  <circle cx="481.577" cy="399.599" r="8.41271" stroke-width="0.5" stroke="black" fill="Red"/>
  <circle cx="481.577" cy="399.599" r="5.05167" stroke-width="0.5" stroke="Red" fill="Red"/>
   </g>
   <g id="cell41">
  <circle cx="476.05" cy="410.976" r="8.41271" stroke-width="0.5" stroke="black" fill="Red"/>
  <circle cx="476.05" cy="410.976" r="5.05167" stroke-width="0.5" stroke="Red" fill="Red"/>
   </g>
   <g id="cell42">
  <circle cx="478.598" cy="434.964" r="7.59183" stroke-width="0.5" stroke="black" fill="Red"/>
  <circle cx="478.598" cy="434.964" r="4.61399" stroke-width="0.5" stroke="Red" fill="Red"/>
   </g>
   <g id="cell43">
  <circle cx="469.275" cy="453.466" r="8.41271" stroke-width="0.5" stroke="black" fill="Red"/>
  <circle cx="469.275" cy="453.466" r="5.05167" stroke-width="0.5" stroke="Red" fill="Red"/>
   </g>
   <g id="cell44">
  <circle cx="474.376" cy="470.409" r="7.08639" stroke-width="0.5" stroke="black" fill="Red"/>
  <circle cx="474.376" cy="470.409" r="4.29876" stroke-width="0.5" stroke="Red" fill="Red"/>
   </g>
   <g id="cell45">
  <circle cx="466.528" cy="477.609" r="8.41271" stroke-width="0.5" stroke="black" fill="Red"/>
  <circle cx="466.528" cy="477.609" r="5.05167" stroke-width="0.5" stroke="Red" fill="Red"/>
   </g>
   <g id="cell46">
  <circle cx="471.991" cy="496.48" r="8.41271" stroke-width="0.5" stroke="black" fill="Red"/>
  <circle cx="471.991" cy="496.48" r="5.05167" stroke-width="0.5" stroke="Red" fill="Red"/>
   </g>
   <g id="cell47">
  <circle cx="461.688" cy="502.872" r="8.16806" stroke-width="0.5" stroke="black" fill="Red"/>
  <circle cx="461.688" cy="502.872" r="4.93877" stroke-width="0.5" stroke="Red" fill="Red"/>
   </g>
   <g id="cell48">
  <circle cx="475.102" cy="519.32" r="8.04604" stroke-width="0.5" stroke="black" fill="blue"/>
  <circle cx="475.102" cy="519.32" r="4.87399" stroke-width="0.5" stroke="blue" fill="blue"/>
   </g>
   <g id="cell49">
  <circle cx="468.543" cy="542.291" r="6.95901" stroke-width="0.5" stroke="black" fill="Red"/>
  <circle cx="468.543" cy="542.291" r="4.21341" stroke-width="0.5" stroke="Red" fill="Red"/>
   </g>
   <g id="cell50">
  <circle cx="474.64" cy="563.04" r="7.63698" stroke-width="0.5" stroke="black" fill="Red"/>
  <circle cx="474.64" cy="563.04" r="4.64085" stroke-width="0.5" stroke="Red" fill="Red"/>
   </g>
   <g id="cell51">
  <circle cx="474.695" cy="574.691" r="8.41271" stroke-width="0.5" stroke="black" fill="Red"/>
  <circle cx="474.695" cy="574.691" r="5.05167" stroke-width="0.5" stroke="Red" fill="Red"/>
   </g>
   <g id="cell52">
  <circle cx="482.784" cy="585.36" r="6.80881" stroke-width="0.5" stroke="black" fill="Red"/>
  <circle cx="482.784" cy="585.36" r="4.10709" stroke-width="0.5" stroke="Red" fill="Red"/>
   </g>
   <g id="cell53">
  <circle cx="488.705" cy="407.884" r="6.95901" stroke-width="0.5" stroke="black" fill="yellow"/>
  <circle cx="488.705" cy="407.884" r="4.21341" stroke-width="0.5" stroke="yellow" fill="yellow"/>
   </g>
   <g id="cell54">
  <circle cx="476.354" cy="425.102" r="8.41271" stroke-width="0.5" stroke="black" fill="Red"/>
  <circle cx="476.354" cy="425.102" r="5.05167" stroke-width="0.5" stroke="Red" fill="Red"/>
   </g>
   <g id="cell55">
  <circle cx="479.841" cy="446.977" r="7.96365" stroke-width="0.5" stroke="black" fill="Red"/>
  <circle cx="479.841" cy="446.977" r="4.82873" stroke-width="0.5" stroke="Red" fill="Red"/>
   </g>
   <g id="cell56">
  <circle cx="490.119" cy="453.91" r="8.08613" stroke-width="0.5" stroke="black" fill="blue"/>
  <circle cx="490.119" cy="453.91" r="4.8956" stroke-width="0.5" stroke="blue" fill="blue"/>
   </g>
   <g id="cell57">
  <circle cx="485.57" cy="472.647" r="8.41271" stroke-width="0.5" stroke="black" fill="Red"/>
  <circle cx="485.57" cy="472.647" r="5.05167" stroke-width="0.5" stroke="Red" fill="Red"/>
   </g>
   <g id="cell58">
  <circle cx="477.34" cy="483.402" r="8.41271" stroke-width="0.5" stroke="black" fill="blue"/>
  <circle cx="477.34" cy="483.402" r="5.05167" stroke-width="0.5" stroke="blue" fill="blue"/>
   </g>
   <g id="cell59">
  <circle cx="484.264" cy="496.639" r="7.65871" stroke-width="0.5" stroke="black" fill="Red"/>
  <circle cx="484.264" cy="496.639" r="4.6537" stroke-width="0.5" stroke="Red" fill="Red"/>
   </g>
   <g id="cell60">
  <circle cx="487.185" cy="517.461" r="8.41271" stroke-width="0.5" stroke="black" fill="Red"/>
  <circle cx="487.185" cy="517.461" r="5.05167" stroke-width="0.5" stroke="Red" fill="Red"/>
   </g>
   <g id="cell61">
  <circle cx="481.8" cy="530.426" r="8.41271" stroke-width="0.5" stroke="black" fill="Red"/>
  <circle cx="481.8" cy="530.426" r="5.05167" stroke-width="0.5" stroke="Red" fill="Red"/>
   </g>
   <g id="cell62">
  <circle cx="484.269" cy="550.634" r="8.41271" stroke-width="0.5" stroke="black" fill="Red"/>
  <circle cx="484.269" cy="550.634" r="5.05167" stroke-width="0.5" stroke="Red" fill="Red"/>
   </g>
   <g id="cell63">
  <circle cx="492.727" cy="561.472" r="6.73287" stroke-width="0.5" stroke="black" fill="Red"/>
  <circle cx="492.727" cy="561.472" r="4.05039" stroke-width="0.5" stroke="Red" fill="Red"/>
   </g>
   <g id="cell64">
  <circle cx="490.44" cy="579.354" r="6.95901" stroke-width="0.5" stroke="black" fill="blue"/>
  <circle cx="490.44" cy="579.354" r="4.21341" stroke-width="0.5" stroke="blue" fill="blue"/>
   </g>
   <g id="cell65">
  <circle cx="476.865" cy="595.826" r="7.51976" stroke-width="0.5" stroke="black" fill="Red"/>
  <circle cx="476.865" cy="595.826" r="4.57072" stroke-width="0.5" stroke="Red" fill="Red"/>
   </g>
   <g id="cell66">
  <circle cx="502.022" cy="408.484" r="8.41271" stroke-width="0.5" stroke="black" fill="Red"/>
  <circle cx="502.022" cy="408.484" r="5.05167" stroke-width="0.5" stroke="Red" fill="Red"/>
   </g>
   <g id="cell67">
  <circle cx="487.913" cy="418.797" r="8.41271" stroke-width="0.5" stroke="black" fill="Red"/>
  <circle cx="487.913" cy="418.797" r="5.05167" stroke-width="0.5" stroke="Red" fill="Red"/>
   </g>
   <g id="cell68">
  <circle cx="499.152" cy="426.237" r="6.67717" stroke-width="0.5" stroke="black" fill="Red"/>
  <circle cx="499.152" cy="426.237" r="4.00951" stroke-width="0.5" stroke="Red" fill="Red"/>
   </g>
   <g id="cell69">
  <circle cx="497.064" cy="445.118" r="7.08639" stroke-width="0.5" stroke="black" fill="Red"/>
  <circle cx="497.064" cy="445.118" r="4.29876" stroke-width="0.5" stroke="Red" fill="Red"/>
   </g>
   <g id="cell70">
  <circle cx="494.699" cy="465.146" r="8.41271" stroke-width="0.5" stroke="black" fill="blue"/>
  <circle cx="494.699" cy="465.146" r="5.05167" stroke-width="0.5" stroke="blue" fill="blue"/>
   </g>
   <g id="cell71">
  <circle cx="490.389" cy="484.219" r="8.41271" stroke-width="0.5" stroke="black" fill="Red"/>
  <circle cx="490.389" cy="484.219" r="5.05167" stroke-width="0.5" stroke="Red" fill="Red"/>
   </g>
   <g id="cell72">
  <circle cx="497.227" cy="494.623" r="8.41271" stroke-width="0.5" stroke="black" fill="Red"/>
  <circle cx="497.227" cy="494.623" r="5.05167" stroke-width="0.5" stroke="Red" fill="Red"/>
   </g>
   <g id="cell73">
  <circle cx="498.603" cy="513.953" r="8.41271" stroke-width="0.5" stroke="black" fill="Red"/>
  <circle cx="498.603" cy="513.953" r="5.05167" stroke-width="0.5" stroke="Red" fill="Red"/>
   </g>
   <g id="cell74">
  <circle cx="495.468" cy="527.878" r="8.41271" stroke-width="0.5" stroke="black" fill="Red"/>
  <circle cx="495.468" cy="527.878" r="5.05167" stroke-width="0.5" stroke="Red" fill="Red"/>
   </g>
   <g id="cell75">
  <circle cx="491.33" cy="539.886" r="8.41271" stroke-width="0.5" stroke="black" fill="Red"/>
  <circle cx="491.33" cy="539.886" r="5.05167" stroke-width="0.5" stroke="Red" fill="Red"/>
   </g>
   <g id="cell76">
  <circle cx="501.591" cy="547.363" r="7.02257" stroke-width="0.5" stroke="black" fill="Red"/>
  <circle cx="501.591" cy="547.363" r="4.25644" stroke-width="0.5" stroke="Red" fill="Red"/>
   </g>
   <g id="cell77">
  <circle cx="496.66" cy="570.907" r="8.03527" stroke-width="0.5" stroke="black" fill="Red"/>
  <circle cx="496.66" cy="570.907" r="4.86813" stroke-width="0.5" stroke="Red" fill="Red"/>
   </g>
   <g id="cell78">
  <circle cx="501.188" cy="584.512" r="8.41271" stroke-width="0.5" stroke="black" fill="yellow"/>
  <circle cx="501.188" cy="584.512" r="5.05167" stroke-width="0.5" stroke="yellow" fill="yellow"/>
   </g>
   <g id="cell79">
  <circle cx="504.322" cy="598.062" r="8.41271" stroke-width="0.5" stroke="black" fill="blue"/>
  <circle cx="504.322" cy="598.062" r="5.05167" stroke-width="0.5" stroke="blue" fill="blue"/>
   </g>
   <g id="cell80">
  <circle cx="516.479" cy="410.033" r="7.77763" stroke-width="0.5" stroke="black" fill="Red"/>
  <circle cx="516.479" cy="410.033" r="4.7232" stroke-width="0.5" stroke="Red" fill="Red"/>
   </g>
   <g id="cell81">
  <circle cx="516.684" cy="433.266" r="8.41271" stroke-width="0.5" stroke="black" fill="Red"/>
  <circle cx="516.684" cy="433.266" r="5.05167" stroke-width="0.5" stroke="Red" fill="Red"/>
   </g>
   <g id="cell82">
  <circle cx="509.172" cy="444.413" r="7.56839" stroke-width="0.5" stroke="black" fill="Red"/>
  <circle cx="509.172" cy="444.413" r="4.59998" stroke-width="0.5" stroke="Red" fill="Red"/>
   </g>
   <g id="cell83">
  <circle cx="503.761" cy="456.616" r="8.41271" stroke-width="0.5" stroke="black" fill="Red"/>
  <circle cx="503.761" cy="456.616" r="5.05167" stroke-width="0.5" stroke="Red" fill="Red"/>
   </g>
   <g id="cell84">
  <circle cx="509.071" cy="466.008" r="7.33129" stroke-width="0.5" stroke="black" fill="Red"/>
  <circle cx="509.071" cy="466.008" r="4.45516" stroke-width="0.5" stroke="Red" fill="Red"/>
   </g>
   <g id="cell85">
  <circle cx="499.946" cy="474.946" r="8.41271" stroke-width="0.5" stroke="black" fill="Red"/>
  <circle cx="499.946" cy="474.946" r="5.05167" stroke-width="0.5" stroke="Red" fill="Red"/>
   </g>
   <g id="cell86">
  <circle cx="506.566" cy="504.404" r="8.41271" stroke-width="0.5" stroke="black" fill="Red"/>
  <circle cx="506.566" cy="504.404" r="5.05167" stroke-width="0.5" stroke="Red" fill="Red"/>
   </g>
   <g id="cell87">
  <circle cx="511.968" cy="513.914" r="6.54532" stroke-width="0.5" stroke="black" fill="Red"/>
  <circle cx="511.968" cy="513.914" r="3.98003" stroke-width="0.5" stroke="Red" fill="Red"/>
   </g>
   <g id="cell88">
  <circle cx="506.483" cy="538.087" r="8.41271" stroke-width="0.5" stroke="black" fill="Red"/>
  <circle cx="506.483" cy="538.087" r="5.05167" stroke-width="0.5" stroke="Red" fill="Red"/>
   </g>
   <g id="cell89">
  <circle cx="512.927" cy="551.435" r="8.41271" stroke-width="0.5" stroke="black" fill="Red"/>
  <circle cx="512.927" cy="551.435" r="5.05167" stroke-width="0.5" stroke="Red" fill="Red"/>
   </g>
   <g id="cell90">
  <circle cx="518.541" cy="561.73" r="8.41271" stroke-width="0.5" stroke="black" fill="Red"/>
  <circle cx="518.541" cy="561.73" r="5.05167" stroke-width="0.5" stroke="Red" fill="Red"/>
   </g>
   <g id="cell91">
  <circle cx="508.691" cy="572.509" r="8.41271" stroke-width="0.5" stroke="black" fill="Red"/>
  <circle cx="508.691" cy="572.509" r="5.05167" stroke-width="0.5" stroke="Red" fill="Red"/>
   </g>
   <g id="cell92">
  <circle cx="514.22" cy="586.851" r="8.41271" stroke-width="0.5" stroke="black" fill="yellow"/>
  <circle cx="514.22" cy="586.851" r="5.05167" stroke-width="0.5" stroke="yellow" fill="yellow"/>
   </g>
   <g id="cell93">
  <circle cx="530.11" cy="408.469" r="8.41271" stroke-width="0.5" stroke="black" fill="blue"/>
  <circle cx="530.11" cy="408.469" r="5.05167" stroke-width="0.5" stroke="blue" fill="blue"/>
   </g>
   <g id="cell94">
  <circle cx="537.181" cy="421.048" r="8.07654" stroke-width="0.5" stroke="black" fill="Red"/>
  <circle cx="537.181" cy="421.048" r="4.89046" stroke-width="0.5" stroke="Red" fill="Red"/>
   </g>
   <g id="cell95">
  <circle cx="529.894" cy="432.64" r="8.41271" stroke-width="0.5" stroke="black" fill="Red"/>
  <circle cx="529.894" cy="432.64" r="5.05167" stroke-width="0.5" stroke="Red" fill="Red"/>
   </g>
   <g id="cell96">
  <circle cx="522.319" cy="444.619" r="7.8288" stroke-width="0.5" stroke="black" fill="blue"/>
  <circle cx="522.319" cy="444.619" r="4.7662" stroke-width="0.5" stroke="blue" fill="blue"/>
   </g>
   <g id="cell97">
  <circle cx="529.051" cy="457.614" r="8.41271" stroke-width="0.5" stroke="black" fill="Red"/>
  <circle cx="529.051" cy="457.614" r="5.05167" stroke-width="0.5" stroke="Red" fill="Red"/>
   </g>
   <g id="cell98">
  <circle cx="523.86" cy="489.698" r="7.64845" stroke-width="0.5" stroke="black" fill="blue"/>
  <circle cx="523.86" cy="489.698" r="4.66769" stroke-width="0.5" stroke="blue" fill="blue"/>
   </g>
   <g id="cell99">
  <circle cx="530.156" cy="499.304" r="8.41271" stroke-width="0.5" stroke="black" fill="Red"/>
  <circle cx="530.156" cy="499.304" r="5.05167" stroke-width="0.5" stroke="Red" fill="Red"/>
   </g>
   <g id="cell100">
  <circle cx="518.113" cy="498.552" r="7.70049" stroke-width="0.5" stroke="black" fill="Red"/>
  <circle cx="518.113" cy="498.552" r="4.67828" stroke-width="0.5" stroke="Red" fill="Red"/>
   </g>
   <g id="cell101">
  <circle cx="517.566" cy="529.172" r="8.41271" stroke-width="0.5" stroke="black" fill="Red"/>
  <circle cx="517.566" cy="529.172" r="5.05167" stroke-width="0.5" stroke="Red" fill="Red"/>
   </g>
   <g id="cell102">
  <circle cx="528.57" cy="532.14" r="8.14594" stroke-width="0.5" stroke="black" fill="Red"/>
  <circle cx="528.57" cy="532.14" r="4.92726" stroke-width="0.5" stroke="Red" fill="Red"/>
   </g>
   <g id="cell103">
  <circle cx="526.947" cy="551.18" r="8.41271" stroke-width="0.5" stroke="black" fill="Red"/>
  <circle cx="526.947" cy="551.18" r="5.05167" stroke-width="0.5" stroke="Red" fill="Red"/>
   </g>
   <g id="cell104">
  <circle cx="530.389" cy="564.243" r="8.41271" stroke-width="0.5" stroke="black" fill="Red"/>
  <circle cx="530.389" cy="564.243" r="5.05167" stroke-width="0.5" stroke="Red" fill="Red"/>
   </g>
   <g id="cell105">
  <circle cx="522.623" cy="575.907" r="8.41271" stroke-width="0.5" stroke="black" fill="blue"/>
  <circle cx="522.623" cy="575.907" r="5.05167" stroke-width="0.5" stroke="blue" fill="blue"/>
   </g>
   <g id="cell106">
  <circle cx="543.848" cy="409.823" r="7.72056" stroke-width="0.5" stroke="black" fill="yellow"/>
  <circle cx="543.848" cy="409.823" r="4.69003" stroke-width="0.5" stroke="yellow" fill="yellow"/>
   </g>
   <g id="cell107">
  <circle cx="543.479" cy="434.841" r="8.41271" stroke-width="0.5" stroke="black" fill="blue"/>
  <circle cx="543.479" cy="434.841" r="5.05167" stroke-width="0.5" stroke="blue" fill="blue"/>
   </g>
   <g id="cell108">
  <circle cx="536.156" cy="445.686" r="8.41271" stroke-width="0.5" stroke="black" fill="Red"/>
  <circle cx="536.156" cy="445.686" r="5.05167" stroke-width="0.5" stroke="Red" fill="Red"/>
   </g>
   <g id="cell109">
  <circle cx="549.607" cy="465.64" r="8.41271" stroke-width="0.5" stroke="black" fill="Red"/>
  <circle cx="549.607" cy="465.64" r="5.05167" stroke-width="0.5" stroke="Red" fill="Red"/>
   </g>
   <g id="cell110">
  <circle cx="533.291" cy="482.42" r="8.41271" stroke-width="0.5" stroke="black" fill="Red"/>
  <circle cx="533.291" cy="482.42" r="5.05167" stroke-width="0.5" stroke="Red" fill="Red"/>
   </g>
   <g id="cell111">
  <circle cx="539.059" cy="491.829" r="6.83713" stroke-width="0.5" stroke="black" fill="Red"/>
  <circle cx="539.059" cy="491.829" r="4.12773" stroke-width="0.5" stroke="Red" fill="Red"/>
   </g>
   <g id="cell112">
  <circle cx="540.881" cy="505.927" r="8.41271" stroke-width="0.5" stroke="black" fill="Red"/>
  <circle cx="540.881" cy="505.927" r="5.05167" stroke-width="0.5" stroke="Red" fill="Red"/>
   </g>
   <g id="cell113">
  <circle cx="529.135" cy="512.496" r="8.41271" stroke-width="0.5" stroke="black" fill="Red"/>
  <circle cx="529.135" cy="512.496" r="5.05167" stroke-width="0.5" stroke="Red" fill="Red"/>
   </g>
   <g id="cell114">
  <circle cx="534.772" cy="523.642" r="8.41271" stroke-width="0.5" stroke="black" fill="blue"/>
  <circle cx="534.772" cy="523.642" r="5.05167" stroke-width="0.5" stroke="blue" fill="blue"/>
   </g>
   <g id="cell115">
  <circle cx="534.667" cy="542.101" r="8.41271" stroke-width="0.5" stroke="black" fill="Red"/>
  <circle cx="534.667" cy="542.101" r="5.05167" stroke-width="0.5" stroke="Red" fill="Red"/>
   </g>
   <g id="cell116">
  <circle cx="543.89" cy="566.022" r="7.38797" stroke-width="0.5" stroke="black" fill="blue"/>
  <circle cx="543.89" cy="566.022" r="4.49029" stroke-width="0.5" stroke="blue" fill="blue"/>
   </g>
   <g id="cell117">
  <circle cx="534.683" cy="581.971" r="6.67717" stroke-width="0.5" stroke="black" fill="Red"/>
  <circle cx="534.683" cy="581.971" r="4.00951" stroke-width="0.5" stroke="Red" fill="Red"/>
   </g>
   <g id="cell118">
  <circle cx="550.534" cy="423.029" r="8.41271" stroke-width="0.5" stroke="black" fill="yellow"/>
  <circle cx="550.534" cy="423.029" r="5.05167" stroke-width="0.5" stroke="yellow" fill="yellow"/>
   </g>
   <g id="cell119">
  <circle cx="558.257" cy="434.596" r="8.41271" stroke-width="0.5" stroke="black" fill="Red"/>
  <circle cx="558.257" cy="434.596" r="5.05167" stroke-width="0.5" stroke="Red" fill="Red"/>
   </g>
   <g id="cell120">
  <circle cx="556.424" cy="457.321" r="8.06667" stroke-width="0.5" stroke="black" fill="Red"/>
  <circle cx="556.424" cy="457.321" r="4.88515" stroke-width="0.5" stroke="Red" fill="Red"/>
   </g>
   <g id="cell121">
  <circle cx="557.426" cy="475.171" r="8.41271" stroke-width="0.5" stroke="black" fill="Red"/>
  <circle cx="557.426" cy="475.171" r="5.05167" stroke-width="0.5" stroke="Red" fill="Red"/>
   </g>
   <g id="cell122">
  <circle cx="544.668" cy="476.78" r="8.41271" stroke-width="0.5" stroke="black" fill="Red"/>
  <circle cx="544.668" cy="476.78" r="5.05167" stroke-width="0.5" stroke="Red" fill="Red"/>
   </g>
   <g id="cell123">
  <circle cx="550.446" cy="497.702" r="8.41271" stroke-width="0.5" stroke="black" fill="Red"/>
  <circle cx="550.446" cy="497.702" r="5.05167" stroke-width="0.5" stroke="Red" fill="Red"/>
   </g>
   <g id="cell124">
  <circle cx="555.19" cy="510.202" r="8.41271" stroke-width="0.5" stroke="black" fill="blue"/>
  <circle cx="555.19" cy="510.202" r="5.05167" stroke-width="0.5" stroke="blue" fill="blue"/>
   </g>
   <g id="cell125">
  <circle cx="544.077" cy="516.442" r="8.07654" stroke-width="0.5" stroke="black" fill="Red"/>
  <circle cx="544.077" cy="516.442" r="4.89046" stroke-width="0.5" stroke="Red" fill="Red"/>
   </g>
   <g id="cell126">
  <circle cx="544.3" cy="531.739" r="8.41271" stroke-width="0.5" stroke="black" fill="Red"/>
  <circle cx="544.3" cy="531.739" r="5.05167" stroke-width="0.5" stroke="Red" fill="Red"/>
   </g>
   <g id="cell127">
  <circle cx="549.216" cy="557.242" r="6.95901" stroke-width="0.5" stroke="black" fill="Red"/>
  <circle cx="549.216" cy="557.242" r="4.21341" stroke-width="0.5" stroke="Red" fill="Red"/>
   </g>
   <g id="cell128">
  <circle cx="559.27" cy="564.349" r="8.41271" stroke-width="0.5" stroke="black" fill="Red"/>
  <circle cx="559.27" cy="564.349" r="5.05167" stroke-width="0.5" stroke="Red" fill="Red"/>
   </g>
   <g id="cell129">
  <circle cx="579.06" cy="457.029" r="8.05651" stroke-width="0.5" stroke="black" fill="yellow"/>
  <circle cx="579.06" cy="457.029" r="4.87966" stroke-width="0.5" stroke="yellow" fill="yellow"/>
   </g>
   <g id="cell130">
  <circle cx="566.075" cy="465.956" r="8.41271" stroke-width="0.5" stroke="black" fill="Red"/>
  <circle cx="566.075" cy="465.956" r="5.05167" stroke-width="0.5" stroke="Red" fill="Red"/>
   </g>
   <g id="cell131">
  <circle cx="569.275" cy="481.257" r="8.41271" stroke-width="0.5" stroke="black" fill="Red"/>
  <circle cx="569.275" cy="481.257" r="5.05167" stroke-width="0.5" stroke="Red" fill="Red"/>
   </g>
   <g id="cell132">
  <circle cx="559.842" cy="488.816" r="8.41271" stroke-width="0.5" stroke="black" fill="Red"/>
  <circle cx="559.842" cy="488.816" r="5.05167" stroke-width="0.5" stroke="Red" fill="Red"/>
   </g>
   <g id="cell133">
  <circle cx="566.421" cy="500.665" r="8.41271" stroke-width="0.5" stroke="black" fill="Red"/>
  <circle cx="566.421" cy="500.665" r="5.05167" stroke-width="0.5" stroke="Red" fill="Red"/>
   </g>
   <g id="cell134">
  <circle cx="567.977" cy="514.532" r="8.41271" stroke-width="0.5" stroke="black" fill="yellow"/>
  <circle cx="567.977" cy="514.532" r="5.05167" stroke-width="0.5" stroke="yellow" fill="yellow"/>
   </g>
   <g id="cell135">
  <circle cx="569.032" cy="527.902" r="8.41271" stroke-width="0.5" stroke="black" fill="Red"/>
  <circle cx="569.032" cy="527.902" r="5.05167" stroke-width="0.5" stroke="Red" fill="Red"/>
   </g>
   <g id="cell136">
  <circle cx="558.392" cy="536.398" r="8.41271" stroke-width="0.5" stroke="black" fill="Red"/>
  <circle cx="558.392" cy="536.398" r="5.05167" stroke-width="0.5" stroke="Red" fill="Red"/>
   </g>
   <g id="cell137">
  <circle cx="569.578" cy="556.437" r="7.49456" stroke-width="0.5" stroke="black" fill="blue"/>
  <circle cx="569.578" cy="556.437" r="4.55548" stroke-width="0.5" stroke="blue" fill="blue"/>
   </g>
   <g id="cell138">
  <circle cx="578.069" cy="471.647" r="8.41271" stroke-width="0.5" stroke="black" fill="blue"/>
  <circle cx="578.069" cy="471.647" r="5.05167" stroke-width="0.5" stroke="blue" fill="blue"/>
   </g>
   <g id="cell139">
  <circle cx="584.1" cy="482.761" r="8.41271" stroke-width="0.5" stroke="black" fill="yellow"/>
  <circle cx="584.1" cy="482.761" r="5.05167" stroke-width="0.5" stroke="yellow" fill="yellow"/>
   </g>
   <g id="cell140">
  <circle cx="575.956" cy="491.591" r="8.17502" stroke-width="0.5" stroke="black" fill="Red"/>
  <circle cx="575.956" cy="491.591" r="4.94236" stroke-width="0.5" stroke="Red" fill="Red"/>
   </g>
   <g id="cell141">
  <circle cx="578.883" cy="505.671" r="8.41271" stroke-width="0.5" stroke="black" fill="Red"/>
  <circle cx="578.883" cy="505.671" r="5.05167" stroke-width="0.5" stroke="Red" fill="Red"/>
   </g>
   <g id="cell142">
  <circle cx="580.313" cy="520.204" r="7.98892" stroke-width="0.5" stroke="black" fill="blue"/>
  <circle cx="580.313" cy="520.204" r="4.84272" stroke-width="0.5" stroke="blue" fill="blue"/>
   </g>
   <g id="cell143">
  <circle cx="570.695" cy="542.612" r="8.41271" stroke-width="0.5" stroke="black" fill="yellow"/>
  <circle cx="570.695" cy="542.612" r="5.05167" stroke-width="0.5" stroke="yellow" fill="yellow"/>
   </g>
   <g id="cell144">
  <circle cx="430.767" cy="429.468" r="7.64006" stroke-width="0.5" stroke="black" fill="blue"/>
  <circle cx="430.767" cy="429.468" r="4.65935" stroke-width="0.5" stroke="blue" fill="blue"/>
   </g>
   <g id="cell145">
  <circle cx="588.493" cy="495.482" r="7.11454" stroke-width="0.5" stroke="black" fill="yellow"/>
  <circle cx="588.493" cy="495.482" r="4.34447" stroke-width="0.5" stroke="yellow" fill="yellow"/>
   </g>
   <g id="cell146">
  <circle cx="474.528" cy="508.428" r="7.85494" stroke-width="0.5" stroke="black" fill="blue"/>
  <circle cx="474.528" cy="508.428" r="4.78063" stroke-width="0.5" stroke="blue" fill="blue"/>
   </g>
   <g id="cell147">
  <circle cx="541.061" cy="458.87" r="8.01721" stroke-width="0.5" stroke="black" fill="blue"/>
  <circle cx="541.061" cy="458.87" r="4.86778" stroke-width="0.5" stroke="blue" fill="blue"/>
   </g>
   <g id="cell148">
  <circle cx="519.539" cy="541.318" r="8.14594" stroke-width="0.5" stroke="black" fill="blue"/>
  <circle cx="519.539" cy="541.318" r="4.92726" stroke-width="0.5" stroke="blue" fill="blue"/>
   </g>
   <g id="cell149">
  <circle cx="534.368" cy="469.26" r="8.01721" stroke-width="0.5" stroke="black" fill="Red"/>
  <circle cx="534.368" cy="469.26" r="4.86778" stroke-width="0.5" stroke="Red" fill="Red"/>
   </g>
   <g id="cell150">
  <circle cx="441.47" cy="512.513" r="8.10448" stroke-width="0.5" stroke="black" fill="blue"/>
  <circle cx="441.47" cy="512.513" r="4.90539" stroke-width="0.5" stroke="blue" fill="blue"/>
   </g>
   <g id="cell151">
  <circle cx="448.429" cy="414.478" r="8.10448" stroke-width="0.5" stroke="black" fill="blue"/>
  <circle cx="448.429" cy="414.478" r="4.90539" stroke-width="0.5" stroke="blue" fill="blue"/>
   </g>
   <g id="cell152">
  <circle cx="479.865" cy="460.647" r="8.08613" stroke-width="0.5" stroke="black" fill="Red"/>
  <circle cx="479.865" cy="460.647" r="4.8956" stroke-width="0.5" stroke="Red" fill="Red"/>
   </g>
   <g id="cell153">
  <circle cx="523.858" cy="420.829" r="8.07654" stroke-width="0.5" stroke="black" fill="Red"/>
  <circle cx="523.858" cy="420.829" r="4.89046" stroke-width="0.5" stroke="Red" fill="Red"/>
   </g>
   <g id="cell154">
  <circle cx="556.176" cy="523.347" r="8.07654" stroke-width="0.5" stroke="black" fill="Red"/>
  <circle cx="556.176" cy="523.347" r="4.89046" stroke-width="0.5" stroke="Red" fill="Red"/>
   </g>
   <g id="cell155">
  <circle cx="436.76" cy="419.213" r="7.91205" stroke-width="0.5" stroke="black" fill="Red"/>
  <circle cx="436.76" cy="419.213" r="4.81231" stroke-width="0.5" stroke="Red" fill="Red"/>
   </g>
   <g id="cell156">
  <circle cx="507.983" cy="523.094" r="8.06667" stroke-width="0.5" stroke="black" fill="blue"/>
  <circle cx="507.983" cy="523.094" r="4.88515" stroke-width="0.5" stroke="blue" fill="blue"/>
   </g>
   <g id="cell157">
  <circle cx="548.985" cy="447.501" r="8.06667" stroke-width="0.5" stroke="black" fill="Red"/>
  <circle cx="548.985" cy="447.501" r="4.88515" stroke-width="0.5" stroke="Red" fill="Red"/>
   </g>
   <g id="cell158">
  <circle cx="560.839" cy="446.158" r="7.03519" stroke-width="0.5" stroke="black" fill="Red"/>
  <circle cx="560.839" cy="446.158" r="4.32339" stroke-width="0.5" stroke="Red" fill="Red"/>
   </g>
   <g id="cell159">
  <circle cx="468.833" cy="529.864" r="8.04604" stroke-width="0.5" stroke="black" fill="Red"/>
  <circle cx="468.833" cy="529.864" r="4.87399" stroke-width="0.5" stroke="Red" fill="Red"/>
   </g>
   <g id="cell160">
  <circle cx="503.305" cy="560.271" r="8.03527" stroke-width="0.5" stroke="black" fill="blue"/>
  <circle cx="503.305" cy="560.271" r="4.86813" stroke-width="0.5" stroke="blue" fill="blue"/>
   </g>
   <g id="cell161">
  <circle cx="514.931" cy="484.341" r="7.59714" stroke-width="0.5" stroke="black" fill="Red"/>
  <circle cx="514.931" cy="484.341" r="4.63862" stroke-width="0.5" stroke="Red" fill="Red"/>
   </g>
   <g id="cell162">
  <circle cx="581.986" cy="531.931" r="6.45654" stroke-width="0.5" stroke="black" fill="yellow"/>
  <circle cx="581.986" cy="531.931" r="3.92673" stroke-width="0.5" stroke="yellow" fill="yellow"/>
   </g>
   <g id="cell163">
  <circle cx="463.425" cy="515.535" r="7.85494" stroke-width="0.5" stroke="black" fill="Red"/>
  <circle cx="463.425" cy="515.535" r="4.78063" stroke-width="0.5" stroke="Red" fill="Red"/>
   </g>
   <g id="cell164">
  <circle cx="423.626" cy="495.097" r="7.98892" stroke-width="0.5" stroke="black" fill="Red"/>
  <circle cx="423.626" cy="495.097" r="4.84272" stroke-width="0.5" stroke="Red" fill="Red"/>
   </g>
   <g id="cell165">
  <circle cx="469.026" cy="441.022" r="7.96365" stroke-width="0.5" stroke="black" fill="Red"/>
  <circle cx="469.026" cy="441.022" r="4.82873" stroke-width="0.5" stroke="Red" fill="Red"/>
   </g>
   <g id="cell166">
  <circle cx="489.232" cy="431.264" r="7.96365" stroke-width="0.5" stroke="black" fill="Red"/>
  <circle cx="489.232" cy="431.264" r="4.82873" stroke-width="0.5" stroke="Red" fill="Red"/>
   </g>
   <g id="cell167">
  <circle cx="516.155" cy="454.713" r="7.8288" stroke-width="0.5" stroke="black" fill="Red"/>
  <circle cx="516.155" cy="454.713" r="4.7662" stroke-width="0.5" stroke="Red" fill="Red"/>
   </g>
   <g id="cell168">
  <circle cx="428.231" cy="528.702" r="6.4511" stroke-width="0.5" stroke="black" fill="Red"/>
  <circle cx="428.231" cy="528.702" r="3.96588" stroke-width="0.5" stroke="Red" fill="Red"/>
   </g>
   <g id="cell169">
  <circle cx="409.791" cy="460.022" r="6.54763" stroke-width="0.5" stroke="black" fill="blue"/>
  <circle cx="409.791" cy="460.022" r="3.99933" stroke-width="0.5" stroke="blue" fill="blue"/>
   </g>
   <g id="cell170">
  <circle cx="510.02" cy="493.516" r="7.02691" stroke-width="0.5" stroke="black" fill="Red"/>
  <circle cx="510.02" cy="493.516" r="4.31907" stroke-width="0.5" stroke="Red" fill="Red"/>
   </g>
   <g id="cell171">
  <circle cx="449.615" cy="584.712" r="7.86286" stroke-width="0.5" stroke="black" fill="Red"/>
  <circle cx="449.615" cy="584.712" r="4.77207" stroke-width="0.5" stroke="Red" fill="Red"/>
   </g>
   <g id="cell172">
  <circle cx="571.708" cy="441.213" r="7.66242" stroke-width="0.5" stroke="black" fill="blue"/>
  <circle cx="571.708" cy="441.213" r="4.67493" stroke-width="0.5" stroke="blue" fill="blue"/>
   </g>
   <g id="cell173">
  <circle cx="417.943" cy="522.467" r="7.60412" stroke-width="0.5" stroke="black" fill="blue"/>
  <circle cx="417.943" cy="522.467" r="4.64302" stroke-width="0.5" stroke="blue" fill="blue"/>
   </g>
   <g id="cell174">
  <circle cx="522.665" cy="475.645" r="7.59714" stroke-width="0.5" stroke="black" fill="Red"/>
  <circle cx="522.665" cy="475.645" r="4.63862" stroke-width="0.5" stroke="Red" fill="Red"/>
   </g>
   <g id="cell175">
  <circle cx="511.587" cy="420.842" r="7.77763" stroke-width="0.5" stroke="black" fill="blue"/>
  <circle cx="511.587" cy="420.842" r="4.7232" stroke-width="0.5" stroke="blue" fill="blue"/>
   </g>
   <g id="cell176">
  <circle cx="439.884" cy="435.553" r="7.64006" stroke-width="0.5" stroke="black" fill="yellow"/>
  <circle cx="439.884" cy="435.553" r="4.65935" stroke-width="0.5" stroke="yellow" fill="yellow"/>
   </g>
   <g id="cell177">
  <circle cx="556.351" cy="412.736" r="7.72056" stroke-width="0.5" stroke="black" fill="blue"/>
  <circle cx="556.351" cy="412.736" r="4.69003" stroke-width="0.5" stroke="blue" fill="blue"/>
   </g>
   <g id="cell178">
  <circle cx="520.742" cy="519.094" r="7.70049" stroke-width="0.5" stroke="black" fill="Red"/>
  <circle cx="520.742" cy="519.094" r="4.67828" stroke-width="0.5" stroke="Red" fill="Red"/>
   </g>
   <g id="cell179">
  <circle cx="450.083" cy="532.807" r="7.70049" stroke-width="0.5" stroke="black" fill="Red"/>
  <circle cx="450.083" cy="532.807" r="4.67828" stroke-width="0.5" stroke="Red" fill="Red"/>
   </g>
   <g id="cell180">
  <circle cx="453.693" cy="435.061" r="7.70049" stroke-width="0.5" stroke="black" fill="Red"/>
  <circle cx="453.693" cy="435.061" r="4.67828" stroke-width="0.5" stroke="Red" fill="Red"/>
   </g>
   <g id="cell181">
  <circle cx="484.413" cy="507.033" r="6.67351" stroke-width="0.5" stroke="black" fill="Red"/>
  <circle cx="484.413" cy="507.033" r="4.09207" stroke-width="0.5" stroke="Red" fill="Red"/>
   </g>
   <g id="cell182">
  <circle cx="472.826" cy="552.635" r="7.63698" stroke-width="0.5" stroke="black" fill="Red"/>
  <circle cx="472.826" cy="552.635" r="4.64085" stroke-width="0.5" stroke="Red" fill="Red"/>
   </g>
   <g id="cell183">
  <circle cx="464.931" cy="431.33" r="7.59183" stroke-width="0.5" stroke="black" fill="blue"/>
  <circle cx="464.931" cy="431.33" r="4.61399" stroke-width="0.5" stroke="blue" fill="blue"/>
   </g>
   <g id="cell184">
  <circle cx="505.947" cy="432.881" r="6.35019" stroke-width="0.5" stroke="black" fill="Red"/>
  <circle cx="505.947" cy="432.881" r="3.88823" stroke-width="0.5" stroke="Red" fill="Red"/>
   </g>
   <g id="cell185">
  <circle cx="490.951" cy="593.659" r="7.51976" stroke-width="0.5" stroke="black" fill="Red"/>
  <circle cx="490.951" cy="593.659" r="4.57072" stroke-width="0.5" stroke="Red" fill="Red"/>
   </g>
   <g id="cell186">
  <circle cx="503.912" cy="484.87" r="7.02691" stroke-width="0.5" stroke="black" fill="blue"/>
  <circle cx="503.912" cy="484.87" r="4.31907" stroke-width="0.5" stroke="blue" fill="blue"/>
   </g>
   <g id="cell187">
  <circle cx="568.328" cy="453.645" r="7.03519" stroke-width="0.5" stroke="black" fill="Red"/>
  <circle cx="568.328" cy="453.645" r="4.32339" stroke-width="0.5" stroke="Red" fill="Red"/>
   </g>
   <g id="cell188">
  <circle cx="557.983" cy="549.722" r="7.49456" stroke-width="0.5" stroke="black" fill="yellow"/>
  <circle cx="557.983" cy="549.722" r="4.55548" stroke-width="0.5" stroke="yellow" fill="yellow"/>
   </g>
   <g id="cell189">
  <circle cx="458.886" cy="525.679" r="7.46878" stroke-width="0.5" stroke="black" fill="Red"/>
  <circle cx="458.886" cy="525.679" r="4.53982" stroke-width="0.5" stroke="Red" fill="Red"/>
   </g>
   <g id="cell190">
  <circle cx="453.173" cy="511.127" r="6.79592" stroke-width="0.5" stroke="black" fill="Red"/>
  <circle cx="453.173" cy="511.127" r="4.17027" stroke-width="0.5" stroke="Red" fill="Red"/>
   </g>
   <g id="cell191">
  <circle cx="538.026" cy="554.325" r="7.38797" stroke-width="0.5" stroke="black" fill="Red"/>
  <circle cx="538.026" cy="554.325" r="4.49029" stroke-width="0.5" stroke="Red" fill="Red"/>
   </g>
   <g id="cell192">
  <circle cx="512.207" cy="475.038" r="6.46025" stroke-width="0.5" stroke="black" fill="Red"/>
  <circle cx="512.207" cy="475.038" r="3.96459" stroke-width="0.5" stroke="Red" fill="Red"/>
   </g>
   <g id="cell193">
  <circle cx="595.154" cy="484.622" r="7.11454" stroke-width="0.5" stroke="black" fill="blue"/>
  <circle cx="595.154" cy="484.622" r="4.34447" stroke-width="0.5" stroke="blue" fill="blue"/>
   </g>
   <g id="cell194">
  <circle cx="449.833" cy="571.018" r="7.27253" stroke-width="0.5" stroke="black" fill="yellow"/>
  <circle cx="449.833" cy="571.018" r="4.41835" stroke-width="0.5" stroke="yellow" fill="yellow"/>
   </g>
   <g id="cell195">
  <circle cx="494.05" cy="504.248" r="6.67351" stroke-width="0.5" stroke="black" fill="blue"/>
  <circle cx="494.05" cy="504.248" r="4.09207" stroke-width="0.5" stroke="blue" fill="blue"/>
   </g>
   <g id="cell196">
  <circle cx="459.855" cy="410.66" r="7.18097" stroke-width="0.5" stroke="black" fill="blue"/>
  <circle cx="459.855" cy="410.66" r="4.36015" stroke-width="0.5" stroke="blue" fill="blue"/>
   </g>
   <g id="cell197">
  <circle cx="520.09" cy="464.857" r="6.46025" stroke-width="0.5" stroke="black" fill="blue"/>
  <circle cx="520.09" cy="464.857" r="3.96459" stroke-width="0.5" stroke="blue" fill="blue"/>
   </g>
   <g id="cell198">
  <circle cx="460.076" cy="536.523" r="6.66512" stroke-width="0.5" stroke="black" fill="blue"/>
  <circle cx="460.076" cy="536.523" r="4.08555" stroke-width="0.5" stroke="blue" fill="blue"/>
   </g>
   <g id="cell199">
  <circle cx="409.924" cy="543.567" r="6.83316" stroke-width="0.5" stroke="black" fill="blue"/>
  <circle cx="409.924" cy="543.567" r="4.18116" stroke-width="0.5" stroke="blue" fill="blue"/>
   </g>
   <g id="cell200">
  <circle cx="488.168" cy="441.234" r="7.08639" stroke-width="0.5" stroke="black" fill="blue"/>
  <circle cx="488.168" cy="441.234" r="4.29876" stroke-width="0.5" stroke="blue" fill="blue"/>
   </g>
   <g id="cell201">
  <circle cx="465.865" cy="464.593" r="7.08639" stroke-width="0.5" stroke="black" fill="blue"/>
  <circle cx="465.865" cy="464.593" r="4.29876" stroke-width="0.5" stroke="blue" fill="blue"/>
   </g>
   <g id="cell202">
  <circle cx="419.302" cy="534.414" r="6.4511" stroke-width="0.5" stroke="black" fill="yellow"/>
  <circle cx="419.302" cy="534.414" r="3.96588" stroke-width="0.5" stroke="yellow" fill="yellow"/>
   </g>
   <g id="cell203">
  <circle cx="494.758" cy="552.477" r="7.02257" stroke-width="0.5" stroke="black" fill="Red"/>
  <circle cx="494.758" cy="552.477" r="4.25644" stroke-width="0.5" stroke="Red" fill="Red"/>
   </g>
   <g id="cell204">
  <circle cx="441.431" cy="478.882" r="6.99069" stroke-width="0.5" stroke="black" fill="blue"/>
  <circle cx="441.431" cy="478.882" r="4.23498" stroke-width="0.5" stroke="blue" fill="blue"/>
   </g>
   <g id="cell205">
  <circle cx="498.36" cy="436.201" r="6.35019" stroke-width="0.5" stroke="black" fill="blue"/>
  <circle cx="498.36" cy="436.201" r="3.88823" stroke-width="0.5" stroke="blue" fill="blue"/>
   </g>
   <g id="cell206">
  <circle cx="493.829" cy="398.219" r="6.95901" stroke-width="0.5" stroke="black" fill="blue"/>
  <circle cx="493.829" cy="398.219" r="4.21341" stroke-width="0.5" stroke="blue" fill="blue"/>
   </g>
   <g id="cell207">
  <circle cx="478.394" cy="541.48" r="6.95901" stroke-width="0.5" stroke="black" fill="blue"/>
  <circle cx="478.394" cy="541.48" r="4.21341" stroke-width="0.5" stroke="blue" fill="blue"/>
   </g>
   <g id="cell208">
  <circle cx="546.778" cy="545.782" r="6.95901" stroke-width="0.5" stroke="black" fill="blue"/>
  <circle cx="546.778" cy="545.782" r="4.21341" stroke-width="0.5" stroke="blue" fill="blue"/>
   </g>
   <g id="cell209">
  <circle cx="484.796" cy="570.127" r="6.95901" stroke-width="0.5" stroke="black" fill="blue"/>
  <circle cx="484.796" cy="570.127" r="4.21341" stroke-width="0.5" stroke="blue" fill="blue"/>
   </g>
   <g id="cell210">
  <circle cx="411.986" cy="448.338" r="6.54763" stroke-width="0.5" stroke="black" fill="Red"/>
  <circle cx="411.986" cy="448.338" r="3.99933" stroke-width="0.5" stroke="Red" fill="Red"/>
   </g>
   <g id="cell211">
  <circle cx="433.129" cy="460.162" r="6.89675" stroke-width="0.5" stroke="black" fill="blue"/>
  <circle cx="433.129" cy="460.162" r="4.17024" stroke-width="0.5" stroke="blue" fill="blue"/>
   </g>
   <g id="cell212">
  <circle cx="456.391" cy="422.974" r="6.49269" stroke-width="0.5" stroke="black" fill="Red"/>
  <circle cx="456.391" cy="422.974" r="3.9691" stroke-width="0.5" stroke="Red" fill="Red"/>
   </g>
   <g id="cell213">
  <circle cx="548.923" cy="486.214" r="6.83713" stroke-width="0.5" stroke="black" fill="blue"/>
  <circle cx="548.923" cy="486.214" r="4.12773" stroke-width="0.5" stroke="blue" fill="blue"/>
   </g>
   <g id="cell214">
  <circle cx="519.866" cy="507.751" r="6.54532" stroke-width="0.5" stroke="black" fill="blue"/>
  <circle cx="519.866" cy="507.751" r="3.98003" stroke-width="0.5" stroke="blue" fill="blue"/>
   </g>
   <g id="cell215">
  <circle cx="471.163" cy="586.171" r="6.80881" stroke-width="0.5" stroke="black" fill="Red"/>
  <circle cx="471.163" cy="586.171" r="4.10709" stroke-width="0.5" stroke="Red" fill="Red"/>
   </g>
   <g id="cell216">
  <circle cx="584.693" cy="542.497" r="6.45654" stroke-width="0.5" stroke="black" fill="blue"/>
  <circle cx="584.693" cy="542.497" r="3.92673" stroke-width="0.5" stroke="blue" fill="blue"/>
   </g>
   <g id="cell217">
  <circle cx="483.397" cy="560.693" r="6.73287" stroke-width="0.5" stroke="black" fill="Red"/>
  <circle cx="483.397" cy="560.693" r="4.05039" stroke-width="0.5" stroke="Red" fill="Red"/>
   </g>
   <g id="cell218">
  <circle cx="501.866" cy="417.523" r="6.67717" stroke-width="0.5" stroke="black" fill="blue"/>
  <circle cx="501.866" cy="417.523" r="4.00951" stroke-width="0.5" stroke="blue" fill="blue"/>
   </g>
   <g id="cell219">
  <circle cx="537.357" cy="572.308" r="6.67717" stroke-width="0.5" stroke="black" fill="Red"/>
  <circle cx="537.357" cy="572.308" r="4.00951" stroke-width="0.5" stroke="Red" fill="Red"/>
   </g>
  </g>
 </g>
  <rect x="775" y="1035" width="200" height="10" stroke-width="2" stroke="rgb(255,255,255)" fill="rgb(0,0,0)"/>
  <text x="781.25" y="1028.75"
   font-family="Arial" font-size="25" fill="black" >
   200 &#956;m
  </text>
  <text x="25" y="1045"
   font-family="Arial" font-size="18.75" fill="black" >
   0 days, 0 hours, 3 minutes, and 13.0671 seconds
  </text>
  <rect x="0" y="70" width="1000" height="1000" stroke-width="2" stroke="rgb(0,0,0)" fill="none"/>
</svg>
