<?xml version="1.0" encoding="UTF-8" standalone="no"?>
<!-- Created with PhysiCell (http://PhysiCell.MathCancer.org/) -->
<svg 
 xmlns:dc="http://purl.org/dc/elements/1.1/" 
 xmlns:cc="http://creativecommons.org/ns#" 
 xmlns:rdf="http://www.w3.org/1999/02/22-rdf-syntax-ns#" 
 xmlns:svg="http://www.w3.org/2000/svg" 
 xmlns="http://www.w3.org/2000/svg" 
 version="1.1" 
 width="1000" 
 height="1070" 
 id="svg2">
  <rect x="0" y="0" width="1000" height="1070" stroke-width="2" stroke="white" fill="white"/>
  <text x="12.5" y="30"
   font-family="Arial" font-size="25" fill="black" >
   Current time: 0 days, 3 hours, and 30.00 minutes, z = 0.00 &#956;m
  </text>
  <text x="12.5" y="57.5"
   font-family="Arial" font-size="23.75" fill="black" >
   175 agents
  </text>
 <g id="tissue" 
    transform="translate(0,1070) scale(1,-1)">
  <g id="ECM">
  </g>
  <g id="cells">
   <g id="cell0">
  <circle cx="429.919" cy="447.625" r="8.41271" stroke-width="0.5" stroke="black" fill="Red"/>
  <circle cx="429.919" cy="447.625" r="5.05167" stroke-width="0.5" stroke="Red" fill="Red"/>
   </g>
   <g id="cell1">
  <circle cx="427.372" cy="467.052" r="6.78181" stroke-width="0.5" stroke="black" fill="yellow"/>
  <circle cx="427.372" cy="467.052" r="4.08714" stroke-width="0.5" stroke="yellow" fill="yellow"/>
   </g>
   <g id="cell2">
  <circle cx="425.021" cy="480.045" r="8.41271" stroke-width="0.5" stroke="black" fill="blue"/>
  <circle cx="425.021" cy="480.045" r="5.05167" stroke-width="0.5" stroke="blue" fill="blue"/>
   </g>
   <g id="cell3">
  <circle cx="425.034" cy="492.224" r="6.99069" stroke-width="0.5" stroke="black" fill="Red"/>
  <circle cx="425.034" cy="492.224" r="4.23498" stroke-width="0.5" stroke="Red" fill="Red"/>
   </g>
   <g id="cell4">
  <circle cx="433.068" cy="513.118" r="8.41271" stroke-width="0.5" stroke="black" fill="Red"/>
  <circle cx="433.068" cy="513.118" r="5.05167" stroke-width="0.5" stroke="Red" fill="Red"/>
   </g>
   <g id="cell5">
  <circle cx="419.579" cy="529.258" r="6.89675" stroke-width="0.5" stroke="black" fill="blue"/>
  <circle cx="419.579" cy="529.258" r="4.17024" stroke-width="0.5" stroke="blue" fill="blue"/>
   </g>
   <g id="cell6">
  <circle cx="428.224" cy="539.595" r="8.41271" stroke-width="0.5" stroke="black" fill="blue"/>
  <circle cx="428.224" cy="539.595" r="5.05167" stroke-width="0.5" stroke="blue" fill="blue"/>
   </g>
   <g id="cell7">
  <circle cx="442.607" cy="446.553" r="7.56839" stroke-width="0.5" stroke="black" fill="Red"/>
  <circle cx="442.607" cy="446.553" r="4.59998" stroke-width="0.5" stroke="Red" fill="Red"/>
   </g>
   <g id="cell8">
  <circle cx="438.153" cy="459.862" r="8.41271" stroke-width="0.5" stroke="black" fill="Red"/>
  <circle cx="438.153" cy="459.862" r="5.05167" stroke-width="0.5" stroke="Red" fill="Red"/>
   </g>
   <g id="cell9">
  <circle cx="439.597" cy="474.152" r="8.41271" stroke-width="0.5" stroke="black" fill="yellow"/>
  <circle cx="439.597" cy="474.152" r="5.05167" stroke-width="0.5" stroke="yellow" fill="yellow"/>
   </g>
   <g id="cell10">
  <circle cx="437.788" cy="487.849" r="8.41271" stroke-width="0.5" stroke="black" fill="yellow"/>
  <circle cx="437.788" cy="487.849" r="5.05167" stroke-width="0.5" stroke="yellow" fill="yellow"/>
   </g>
   <g id="cell11">
  <circle cx="445.443" cy="504.638" r="8.41271" stroke-width="0.5" stroke="black" fill="yellow"/>
  <circle cx="445.443" cy="504.638" r="5.05167" stroke-width="0.5" stroke="yellow" fill="yellow"/>
   </g>
   <g id="cell12">
  <circle cx="436.35" cy="524.53" r="7.33129" stroke-width="0.5" stroke="black" fill="Red"/>
  <circle cx="436.35" cy="524.53" r="4.45516" stroke-width="0.5" stroke="Red" fill="Red"/>
   </g>
   <g id="cell13">
  <circle cx="441.85" cy="533.709" r="8.41271" stroke-width="0.5" stroke="black" fill="Red"/>
  <circle cx="441.85" cy="533.709" r="5.05167" stroke-width="0.5" stroke="Red" fill="Red"/>
   </g>
   <g id="cell14">
  <circle cx="439.459" cy="548.161" r="8.41271" stroke-width="0.5" stroke="black" fill="yellow"/>
  <circle cx="439.459" cy="548.161" r="5.05167" stroke-width="0.5" stroke="yellow" fill="yellow"/>
   </g>
   <g id="cell15">
  <circle cx="439.643" cy="562.05" r="8.41271" stroke-width="0.5" stroke="black" fill="blue"/>
  <circle cx="439.643" cy="562.05" r="5.05167" stroke-width="0.5" stroke="blue" fill="blue"/>
   </g>
   <g id="cell16">
  <circle cx="455.243" cy="426.482" r="6.53595" stroke-width="0.5" stroke="black" fill="Red"/>
  <circle cx="455.243" cy="426.482" r="4.01165" stroke-width="0.5" stroke="Red" fill="Red"/>
   </g>
   <g id="cell17">
  <circle cx="451.535" cy="438.163" r="8.41271" stroke-width="0.5" stroke="black" fill="Red"/>
  <circle cx="451.535" cy="438.163" r="5.05167" stroke-width="0.5" stroke="Red" fill="Red"/>
   </g>
   <g id="cell18">
  <circle cx="451.109" cy="455.102" r="8.41271" stroke-width="0.5" stroke="black" fill="Red"/>
  <circle cx="451.109" cy="455.102" r="5.05167" stroke-width="0.5" stroke="Red" fill="Red"/>
   </g>
   <g id="cell19">
  <circle cx="451.637" cy="467.892" r="8.41271" stroke-width="0.5" stroke="black" fill="blue"/>
  <circle cx="451.637" cy="467.892" r="5.05167" stroke-width="0.5" stroke="blue" fill="blue"/>
   </g>
   <g id="cell20">
  <circle cx="451.582" cy="482.607" r="8.41271" stroke-width="0.5" stroke="black" fill="Red"/>
  <circle cx="451.582" cy="482.607" r="5.05167" stroke-width="0.5" stroke="Red" fill="Red"/>
   </g>
   <g id="cell21">
  <circle cx="450.206" cy="494.653" r="8.41271" stroke-width="0.5" stroke="black" fill="Red"/>
  <circle cx="450.206" cy="494.653" r="5.05167" stroke-width="0.5" stroke="Red" fill="Red"/>
   </g>
   <g id="cell22">
  <circle cx="455.783" cy="511.291" r="8.41271" stroke-width="0.5" stroke="black" fill="Red"/>
  <circle cx="455.783" cy="511.291" r="5.05167" stroke-width="0.5" stroke="Red" fill="Red"/>
   </g>
   <g id="cell23">
  <circle cx="451.796" cy="525.584" r="8.41271" stroke-width="0.5" stroke="black" fill="Red"/>
  <circle cx="451.796" cy="525.584" r="5.05167" stroke-width="0.5" stroke="Red" fill="Red"/>
   </g>
   <g id="cell24">
  <circle cx="451.885" cy="540.759" r="8.41271" stroke-width="0.5" stroke="black" fill="blue"/>
  <circle cx="451.885" cy="540.759" r="5.05167" stroke-width="0.5" stroke="blue" fill="blue"/>
   </g>
   <g id="cell25">
  <circle cx="451.987" cy="554.783" r="8.41271" stroke-width="0.5" stroke="black" fill="Red"/>
  <circle cx="451.987" cy="554.783" r="5.05167" stroke-width="0.5" stroke="Red" fill="Red"/>
   </g>
   <g id="cell26">
  <circle cx="451.372" cy="568.411" r="8.41271" stroke-width="0.5" stroke="black" fill="yellow"/>
  <circle cx="451.372" cy="568.411" r="5.05167" stroke-width="0.5" stroke="yellow" fill="yellow"/>
   </g>
   <g id="cell27">
  <circle cx="463.626" cy="416.1" r="8.41271" stroke-width="0.5" stroke="black" fill="yellow"/>
  <circle cx="463.626" cy="416.1" r="5.05167" stroke-width="0.5" stroke="yellow" fill="yellow"/>
   </g>
   <g id="cell28">
  <circle cx="465.424" cy="431.24" r="8.41271" stroke-width="0.5" stroke="black" fill="Red"/>
  <circle cx="465.424" cy="431.24" r="5.05167" stroke-width="0.5" stroke="Red" fill="Red"/>
   </g>
   <g id="cell29">
  <circle cx="458.648" cy="447.069" r="6.92764" stroke-width="0.5" stroke="black" fill="Red"/>
  <circle cx="458.648" cy="447.069" r="4.1918" stroke-width="0.5" stroke="Red" fill="Red"/>
   </g>
   <g id="cell30">
  <circle cx="463.943" cy="459.28" r="8.41271" stroke-width="0.5" stroke="black" fill="Red"/>
  <circle cx="463.943" cy="459.28" r="5.05167" stroke-width="0.5" stroke="Red" fill="Red"/>
   </g>
   <g id="cell31">
  <circle cx="463.132" cy="473.827" r="8.41271" stroke-width="0.5" stroke="black" fill="Red"/>
  <circle cx="463.132" cy="473.827" r="5.05167" stroke-width="0.5" stroke="Red" fill="Red"/>
   </g>
   <g id="cell32">
  <circle cx="464.848" cy="487.939" r="8.41271" stroke-width="0.5" stroke="black" fill="blue"/>
  <circle cx="464.848" cy="487.939" r="5.05167" stroke-width="0.5" stroke="blue" fill="blue"/>
   </g>
   <g id="cell33">
  <circle cx="461.136" cy="499.425" r="8.41271" stroke-width="0.5" stroke="black" fill="Red"/>
  <circle cx="461.136" cy="499.425" r="5.05167" stroke-width="0.5" stroke="Red" fill="Red"/>
   </g>
   <g id="cell34">
  <circle cx="464.47" cy="520.231" r="8.41271" stroke-width="0.5" stroke="black" fill="Red"/>
  <circle cx="464.47" cy="520.231" r="5.05167" stroke-width="0.5" stroke="Red" fill="Red"/>
   </g>
   <g id="cell35">
  <circle cx="461.705" cy="534.034" r="8.41271" stroke-width="0.5" stroke="black" fill="Red"/>
  <circle cx="461.705" cy="534.034" r="5.05167" stroke-width="0.5" stroke="Red" fill="Red"/>
   </g>
   <g id="cell36">
  <circle cx="464.643" cy="546.287" r="8.41271" stroke-width="0.5" stroke="black" fill="Red"/>
  <circle cx="464.643" cy="546.287" r="5.05167" stroke-width="0.5" stroke="Red" fill="Red"/>
   </g>
   <g id="cell37">
  <circle cx="464.543" cy="560.79" r="8.41271" stroke-width="0.5" stroke="black" fill="Red"/>
  <circle cx="464.543" cy="560.79" r="5.05167" stroke-width="0.5" stroke="Red" fill="Red"/>
   </g>
   <g id="cell38">
  <circle cx="464.252" cy="573.868" r="8.41271" stroke-width="0.5" stroke="black" fill="yellow"/>
  <circle cx="464.252" cy="573.868" r="5.05167" stroke-width="0.5" stroke="yellow" fill="yellow"/>
   </g>
   <g id="cell39">
  <circle cx="464.49" cy="587.199" r="6.73287" stroke-width="0.5" stroke="black" fill="blue"/>
  <circle cx="464.49" cy="587.199" r="4.05039" stroke-width="0.5" stroke="blue" fill="blue"/>
   </g>
   <g id="cell40">
  <circle cx="475.605" cy="407.136" r="8.41271" stroke-width="0.5" stroke="black" fill="blue"/>
  <circle cx="475.605" cy="407.136" r="5.05167" stroke-width="0.5" stroke="blue" fill="blue"/>
   </g>
   <g id="cell41">
  <circle cx="476.311" cy="422.584" r="8.41271" stroke-width="0.5" stroke="black" fill="yellow"/>
  <circle cx="476.311" cy="422.584" r="5.05167" stroke-width="0.5" stroke="yellow" fill="yellow"/>
   </g>
   <g id="cell42">
  <circle cx="477.833" cy="437.376" r="8.41271" stroke-width="0.5" stroke="black" fill="Red"/>
  <circle cx="477.833" cy="437.376" r="5.05167" stroke-width="0.5" stroke="Red" fill="Red"/>
   </g>
   <g id="cell43">
  <circle cx="474.237" cy="451.394" r="8.41271" stroke-width="0.5" stroke="black" fill="Red"/>
  <circle cx="474.237" cy="451.394" r="5.05167" stroke-width="0.5" stroke="Red" fill="Red"/>
   </g>
   <g id="cell44">
  <circle cx="475.987" cy="466.703" r="8.41271" stroke-width="0.5" stroke="black" fill="Red"/>
  <circle cx="475.987" cy="466.703" r="5.05167" stroke-width="0.5" stroke="Red" fill="Red"/>
   </g>
   <g id="cell45">
  <circle cx="475.491" cy="480.673" r="8.41271" stroke-width="0.5" stroke="black" fill="Red"/>
  <circle cx="475.491" cy="480.673" r="5.05167" stroke-width="0.5" stroke="Red" fill="Red"/>
   </g>
   <g id="cell46">
  <circle cx="475.513" cy="496.757" r="8.41271" stroke-width="0.5" stroke="black" fill="Red"/>
  <circle cx="475.513" cy="496.757" r="5.05167" stroke-width="0.5" stroke="Red" fill="Red"/>
   </g>
   <g id="cell47">
  <circle cx="469.4" cy="508.881" r="7.54436" stroke-width="0.5" stroke="black" fill="Red"/>
  <circle cx="469.4" cy="508.881" r="4.58555" stroke-width="0.5" stroke="Red" fill="Red"/>
   </g>
   <g id="cell48">
  <circle cx="480.86" cy="525.115" r="7.1497" stroke-width="0.5" stroke="black" fill="Red"/>
  <circle cx="480.86" cy="525.115" r="4.34001" stroke-width="0.5" stroke="Red" fill="Red"/>
   </g>
   <g id="cell49">
  <circle cx="476.377" cy="540.611" r="8.41271" stroke-width="0.5" stroke="black" fill="Red"/>
  <circle cx="476.377" cy="540.611" r="5.05167" stroke-width="0.5" stroke="Red" fill="Red"/>
   </g>
   <g id="cell50">
  <circle cx="476.457" cy="554.146" r="8.41271" stroke-width="0.5" stroke="black" fill="Red"/>
  <circle cx="476.457" cy="554.146" r="5.05167" stroke-width="0.5" stroke="Red" fill="Red"/>
   </g>
   <g id="cell51">
  <circle cx="477.446" cy="566.724" r="8.41271" stroke-width="0.5" stroke="black" fill="Red"/>
  <circle cx="477.446" cy="566.724" r="5.05167" stroke-width="0.5" stroke="Red" fill="Red"/>
   </g>
   <g id="cell52">
  <circle cx="477.361" cy="580.558" r="8.41271" stroke-width="0.5" stroke="black" fill="yellow"/>
  <circle cx="477.361" cy="580.558" r="5.05167" stroke-width="0.5" stroke="yellow" fill="yellow"/>
   </g>
   <g id="cell53">
  <circle cx="488.749" cy="414.619" r="8.41271" stroke-width="0.5" stroke="black" fill="yellow"/>
  <circle cx="488.749" cy="414.619" r="5.05167" stroke-width="0.5" stroke="yellow" fill="yellow"/>
   </g>
   <g id="cell54">
  <circle cx="489.201" cy="428.284" r="8.41271" stroke-width="0.5" stroke="black" fill="Red"/>
  <circle cx="489.201" cy="428.284" r="5.05167" stroke-width="0.5" stroke="Red" fill="Red"/>
   </g>
   <g id="cell55">
  <circle cx="485.732" cy="448.925" r="6.92764" stroke-width="0.5" stroke="black" fill="blue"/>
  <circle cx="485.732" cy="448.925" r="4.1918" stroke-width="0.5" stroke="blue" fill="blue"/>
   </g>
   <g id="cell56">
  <circle cx="493.526" cy="462.613" r="7.27253" stroke-width="0.5" stroke="black" fill="blue"/>
  <circle cx="493.526" cy="462.613" r="4.41835" stroke-width="0.5" stroke="blue" fill="blue"/>
   </g>
   <g id="cell57">
  <circle cx="487.154" cy="473.48" r="8.41271" stroke-width="0.5" stroke="black" fill="Red"/>
  <circle cx="487.154" cy="473.48" r="5.05167" stroke-width="0.5" stroke="Red" fill="Red"/>
   </g>
   <g id="cell58">
  <circle cx="486.747" cy="488.054" r="8.41271" stroke-width="0.5" stroke="black" fill="blue"/>
  <circle cx="486.747" cy="488.054" r="5.05167" stroke-width="0.5" stroke="blue" fill="blue"/>
   </g>
   <g id="cell59">
  <circle cx="489.592" cy="501.909" r="8.41271" stroke-width="0.5" stroke="black" fill="Red"/>
  <circle cx="489.592" cy="501.909" r="5.05167" stroke-width="0.5" stroke="Red" fill="Red"/>
   </g>
   <g id="cell60">
  <circle cx="489.147" cy="516.839" r="8.41271" stroke-width="0.5" stroke="black" fill="Red"/>
  <circle cx="489.147" cy="516.839" r="5.05167" stroke-width="0.5" stroke="Red" fill="Red"/>
   </g>
   <g id="cell61">
  <circle cx="489.66" cy="532.353" r="8.41271" stroke-width="0.5" stroke="black" fill="Red"/>
  <circle cx="489.66" cy="532.353" r="5.05167" stroke-width="0.5" stroke="Red" fill="Red"/>
   </g>
   <g id="cell62">
  <circle cx="488.015" cy="544.65" r="8.41271" stroke-width="0.5" stroke="black" fill="blue"/>
  <circle cx="488.015" cy="544.65" r="5.05167" stroke-width="0.5" stroke="blue" fill="blue"/>
   </g>
   <g id="cell63">
  <circle cx="490.471" cy="559.435" r="8.41271" stroke-width="0.5" stroke="black" fill="Red"/>
  <circle cx="490.471" cy="559.435" r="5.05167" stroke-width="0.5" stroke="Red" fill="Red"/>
   </g>
   <g id="cell64">
  <circle cx="490.251" cy="572.972" r="8.41271" stroke-width="0.5" stroke="black" fill="Red"/>
  <circle cx="490.251" cy="572.972" r="5.05167" stroke-width="0.5" stroke="Red" fill="Red"/>
   </g>
   <g id="cell65">
  <circle cx="489.467" cy="588.813" r="8.41271" stroke-width="0.5" stroke="black" fill="Red"/>
  <circle cx="489.467" cy="588.813" r="5.05167" stroke-width="0.5" stroke="Red" fill="Red"/>
   </g>
   <g id="cell66">
  <circle cx="501.336" cy="409.906" r="8.41271" stroke-width="0.5" stroke="black" fill="blue"/>
  <circle cx="501.336" cy="409.906" r="5.05167" stroke-width="0.5" stroke="blue" fill="blue"/>
   </g>
   <g id="cell67">
  <circle cx="502.753" cy="423.777" r="8.41271" stroke-width="0.5" stroke="black" fill="yellow"/>
  <circle cx="502.753" cy="423.777" r="5.05167" stroke-width="0.5" stroke="yellow" fill="yellow"/>
   </g>
   <g id="cell68">
  <circle cx="501.865" cy="437.136" r="8.41271" stroke-width="0.5" stroke="black" fill="Red"/>
  <circle cx="501.865" cy="437.136" r="5.05167" stroke-width="0.5" stroke="Red" fill="Red"/>
   </g>
   <g id="cell69">
  <circle cx="497.764" cy="451.101" r="8.41271" stroke-width="0.5" stroke="black" fill="Red"/>
  <circle cx="497.764" cy="451.101" r="5.05167" stroke-width="0.5" stroke="Red" fill="Red"/>
   </g>
   <g id="cell70">
  <circle cx="503.211" cy="469.47" r="8.41271" stroke-width="0.5" stroke="black" fill="blue"/>
  <circle cx="503.211" cy="469.47" r="5.05167" stroke-width="0.5" stroke="blue" fill="blue"/>
   </g>
   <g id="cell71">
  <circle cx="498.494" cy="480.352" r="8.41271" stroke-width="0.5" stroke="black" fill="Red"/>
  <circle cx="498.494" cy="480.352" r="5.05167" stroke-width="0.5" stroke="Red" fill="Red"/>
   </g>
   <g id="cell72">
  <circle cx="500.384" cy="495.493" r="8.41271" stroke-width="0.5" stroke="black" fill="Red"/>
  <circle cx="500.384" cy="495.493" r="5.05167" stroke-width="0.5" stroke="Red" fill="Red"/>
   </g>
   <g id="cell73">
  <circle cx="501.802" cy="510.261" r="8.41271" stroke-width="0.5" stroke="black" fill="Red"/>
  <circle cx="501.802" cy="510.261" r="5.05167" stroke-width="0.5" stroke="Red" fill="Red"/>
   </g>
   <g id="cell74">
  <circle cx="501.308" cy="524.113" r="8.41271" stroke-width="0.5" stroke="black" fill="Red"/>
  <circle cx="501.308" cy="524.113" r="5.05167" stroke-width="0.5" stroke="Red" fill="Red"/>
   </g>
   <g id="cell75">
  <circle cx="501.992" cy="537.434" r="8.41271" stroke-width="0.5" stroke="black" fill="blue"/>
  <circle cx="501.992" cy="537.434" r="5.05167" stroke-width="0.5" stroke="blue" fill="blue"/>
   </g>
   <g id="cell76">
  <circle cx="499.455" cy="550.386" r="8.41271" stroke-width="0.5" stroke="black" fill="Red"/>
  <circle cx="499.455" cy="550.386" r="5.05167" stroke-width="0.5" stroke="Red" fill="Red"/>
   </g>
   <g id="cell77">
  <circle cx="501.272" cy="567.905" r="7.11815" stroke-width="0.5" stroke="black" fill="Red"/>
  <circle cx="501.272" cy="567.905" r="4.31954" stroke-width="0.5" stroke="Red" fill="Red"/>
   </g>
   <g id="cell78">
  <circle cx="501.163" cy="580.936" r="8.41271" stroke-width="0.5" stroke="black" fill="yellow"/>
  <circle cx="501.163" cy="580.936" r="5.05167" stroke-width="0.5" stroke="yellow" fill="yellow"/>
   </g>
   <g id="cell79">
  <circle cx="502.517" cy="597.326" r="8.41271" stroke-width="0.5" stroke="black" fill="blue"/>
  <circle cx="502.517" cy="597.326" r="5.05167" stroke-width="0.5" stroke="blue" fill="blue"/>
   </g>
   <g id="cell80">
  <circle cx="515.249" cy="415.183" r="8.41271" stroke-width="0.5" stroke="black" fill="yellow"/>
  <circle cx="515.249" cy="415.183" r="5.05167" stroke-width="0.5" stroke="yellow" fill="yellow"/>
   </g>
   <g id="cell81">
  <circle cx="514.598" cy="433.033" r="8.41271" stroke-width="0.5" stroke="black" fill="Red"/>
  <circle cx="514.598" cy="433.033" r="5.05167" stroke-width="0.5" stroke="Red" fill="Red"/>
   </g>
   <g id="cell82">
  <circle cx="511.66" cy="445.865" r="8.41271" stroke-width="0.5" stroke="black" fill="Red"/>
  <circle cx="511.66" cy="445.865" r="5.05167" stroke-width="0.5" stroke="Red" fill="Red"/>
   </g>
   <g id="cell83">
  <circle cx="508.139" cy="458.252" r="8.41271" stroke-width="0.5" stroke="black" fill="Red"/>
  <circle cx="508.139" cy="458.252" r="5.05167" stroke-width="0.5" stroke="Red" fill="Red"/>
   </g>
   <g id="cell84">
  <circle cx="514.056" cy="472.482" r="8.41271" stroke-width="0.5" stroke="black" fill="Red"/>
  <circle cx="514.056" cy="472.482" r="5.05167" stroke-width="0.5" stroke="Red" fill="Red"/>
   </g>
   <g id="cell85">
  <circle cx="508.663" cy="485.075" r="8.41271" stroke-width="0.5" stroke="black" fill="Red"/>
  <circle cx="508.663" cy="485.075" r="5.05167" stroke-width="0.5" stroke="Red" fill="Red"/>
   </g>
   <g id="cell86">
  <circle cx="512.995" cy="497.215" r="8.41271" stroke-width="0.5" stroke="black" fill="Red"/>
  <circle cx="512.995" cy="497.215" r="5.05167" stroke-width="0.5" stroke="Red" fill="Red"/>
   </g>
   <g id="cell87">
  <circle cx="513.308" cy="507.723" r="7.21189" stroke-width="0.5" stroke="black" fill="Red"/>
  <circle cx="513.308" cy="507.723" r="4.37993" stroke-width="0.5" stroke="Red" fill="Red"/>
   </g>
   <g id="cell88">
  <circle cx="513.9" cy="531.79" r="8.41271" stroke-width="0.5" stroke="black" fill="Red"/>
  <circle cx="513.9" cy="531.79" r="5.05167" stroke-width="0.5" stroke="Red" fill="Red"/>
   </g>
   <g id="cell89">
  <circle cx="511.686" cy="546.486" r="8.41271" stroke-width="0.5" stroke="black" fill="Red"/>
  <circle cx="511.686" cy="546.486" r="5.05167" stroke-width="0.5" stroke="Red" fill="Red"/>
   </g>
   <g id="cell90">
  <circle cx="519.033" cy="556.524" r="8.41271" stroke-width="0.5" stroke="black" fill="Red"/>
  <circle cx="519.033" cy="556.524" r="5.05167" stroke-width="0.5" stroke="Red" fill="Red"/>
   </g>
   <g id="cell91">
  <circle cx="513.78" cy="570.7" r="8.41271" stroke-width="0.5" stroke="black" fill="yellow"/>
  <circle cx="513.78" cy="570.7" r="5.05167" stroke-width="0.5" stroke="yellow" fill="yellow"/>
   </g>
   <g id="cell92">
  <circle cx="514.491" cy="586.584" r="8.41271" stroke-width="0.5" stroke="black" fill="Red"/>
  <circle cx="514.491" cy="586.584" r="5.05167" stroke-width="0.5" stroke="Red" fill="Red"/>
   </g>
   <g id="cell93">
  <circle cx="530.296" cy="411.697" r="8.41271" stroke-width="0.5" stroke="black" fill="blue"/>
  <circle cx="530.296" cy="411.697" r="5.05167" stroke-width="0.5" stroke="blue" fill="blue"/>
   </g>
   <g id="cell94">
  <circle cx="537.354" cy="425.393" r="7.24243" stroke-width="0.5" stroke="black" fill="yellow"/>
  <circle cx="537.354" cy="425.393" r="4.39934" stroke-width="0.5" stroke="yellow" fill="yellow"/>
   </g>
   <g id="cell95">
  <circle cx="528.807" cy="434.395" r="8.41271" stroke-width="0.5" stroke="black" fill="Red"/>
  <circle cx="528.807" cy="434.395" r="5.05167" stroke-width="0.5" stroke="Red" fill="Red"/>
   </g>
   <g id="cell96">
  <circle cx="521.625" cy="441.667" r="6.29521" stroke-width="0.5" stroke="black" fill="blue"/>
  <circle cx="521.625" cy="441.667" r="3.85304" stroke-width="0.5" stroke="blue" fill="blue"/>
   </g>
   <g id="cell97">
  <circle cx="520.784" cy="463.142" r="8.41271" stroke-width="0.5" stroke="black" fill="Red"/>
  <circle cx="520.784" cy="463.142" r="5.05167" stroke-width="0.5" stroke="Red" fill="Red"/>
   </g>
   <g id="cell98">
  <circle cx="524.956" cy="485.745" r="5.68656" stroke-width="0.5" stroke="black" fill="Red"/>
  <circle cx="524.956" cy="485.745" r="3.45898" stroke-width="0.5" stroke="Red" fill="Red"/>
   </g>
   <g id="cell99">
  <circle cx="525.28" cy="497.34" r="8.41271" stroke-width="0.5" stroke="black" fill="Red"/>
  <circle cx="525.28" cy="497.34" r="5.05167" stroke-width="0.5" stroke="Red" fill="Red"/>
   </g>
   <g id="cell100">
  <circle cx="523.773" cy="510.484" r="8.41271" stroke-width="0.5" stroke="black" fill="Red"/>
  <circle cx="523.773" cy="510.484" r="5.05167" stroke-width="0.5" stroke="Red" fill="Red"/>
   </g>
   <g id="cell101">
  <circle cx="523.469" cy="523.281" r="8.41271" stroke-width="0.5" stroke="black" fill="Red"/>
  <circle cx="523.469" cy="523.281" r="5.05167" stroke-width="0.5" stroke="Red" fill="Red"/>
   </g>
   <g id="cell102">
  <circle cx="528.787" cy="533.125" r="7.46878" stroke-width="0.5" stroke="black" fill="Red"/>
  <circle cx="528.787" cy="533.125" r="4.53982" stroke-width="0.5" stroke="Red" fill="Red"/>
   </g>
   <g id="cell103">
  <circle cx="528.367" cy="550.334" r="8.41271" stroke-width="0.5" stroke="black" fill="Red"/>
  <circle cx="528.367" cy="550.334" r="5.05167" stroke-width="0.5" stroke="Red" fill="Red"/>
   </g>
   <g id="cell104">
  <circle cx="528.045" cy="564.059" r="8.41271" stroke-width="0.5" stroke="black" fill="Red"/>
  <circle cx="528.045" cy="564.059" r="5.05167" stroke-width="0.5" stroke="Red" fill="Red"/>
   </g>
   <g id="cell105">
  <circle cx="526.029" cy="577.372" r="8.41271" stroke-width="0.5" stroke="black" fill="blue"/>
  <circle cx="526.029" cy="577.372" r="5.05167" stroke-width="0.5" stroke="blue" fill="blue"/>
   </g>
   <g id="cell106">
  <circle cx="544.5" cy="414.397" r="8.41271" stroke-width="0.5" stroke="black" fill="yellow"/>
  <circle cx="544.5" cy="414.397" r="5.05167" stroke-width="0.5" stroke="yellow" fill="yellow"/>
   </g>
   <g id="cell107">
  <circle cx="541.402" cy="438.344" r="8.41271" stroke-width="0.5" stroke="black" fill="yellow"/>
  <circle cx="541.402" cy="438.344" r="5.05167" stroke-width="0.5" stroke="yellow" fill="yellow"/>
   </g>
   <g id="cell108">
  <circle cx="529.713" cy="446.544" r="8.41271" stroke-width="0.5" stroke="black" fill="Red"/>
  <circle cx="529.713" cy="446.544" r="5.05167" stroke-width="0.5" stroke="Red" fill="Red"/>
   </g>
   <g id="cell109">
  <circle cx="542.285" cy="464.39" r="8.41271" stroke-width="0.5" stroke="black" fill="yellow"/>
  <circle cx="542.285" cy="464.39" r="5.05167" stroke-width="0.5" stroke="yellow" fill="yellow"/>
   </g>
   <g id="cell110">
  <circle cx="532.628" cy="477.901" r="8.41271" stroke-width="0.5" stroke="black" fill="Red"/>
  <circle cx="532.628" cy="477.901" r="5.05167" stroke-width="0.5" stroke="Red" fill="Red"/>
   </g>
   <g id="cell111">
  <circle cx="535.613" cy="490.411" r="8.41271" stroke-width="0.5" stroke="black" fill="blue"/>
  <circle cx="535.613" cy="490.411" r="5.05167" stroke-width="0.5" stroke="blue" fill="blue"/>
   </g>
   <g id="cell112">
  <circle cx="537.474" cy="504.193" r="8.41271" stroke-width="0.5" stroke="black" fill="Red"/>
  <circle cx="537.474" cy="504.193" r="5.05167" stroke-width="0.5" stroke="Red" fill="Red"/>
   </g>
   <g id="cell113">
  <circle cx="534.278" cy="515.868" r="8.41271" stroke-width="0.5" stroke="black" fill="blue"/>
  <circle cx="534.278" cy="515.868" r="5.05167" stroke-width="0.5" stroke="blue" fill="blue"/>
   </g>
   <g id="cell114">
  <circle cx="539.088" cy="528.156" r="8.41271" stroke-width="0.5" stroke="black" fill="Red"/>
  <circle cx="539.088" cy="528.156" r="5.05167" stroke-width="0.5" stroke="Red" fill="Red"/>
   </g>
   <g id="cell115">
  <circle cx="537.546" cy="541.951" r="8.41271" stroke-width="0.5" stroke="black" fill="Red"/>
  <circle cx="537.546" cy="541.951" r="5.05167" stroke-width="0.5" stroke="Red" fill="Red"/>
   </g>
   <g id="cell116">
  <circle cx="539.031" cy="556.363" r="8.41271" stroke-width="0.5" stroke="black" fill="Red"/>
  <circle cx="539.031" cy="556.363" r="5.05167" stroke-width="0.5" stroke="Red" fill="Red"/>
   </g>
   <g id="cell117">
  <circle cx="540.828" cy="570.122" r="8.41271" stroke-width="0.5" stroke="black" fill="Red"/>
  <circle cx="540.828" cy="570.122" r="5.05167" stroke-width="0.5" stroke="Red" fill="Red"/>
   </g>
   <g id="cell118">
  <circle cx="550.086" cy="428.683" r="8.41271" stroke-width="0.5" stroke="black" fill="blue"/>
  <circle cx="550.086" cy="428.683" r="5.05167" stroke-width="0.5" stroke="blue" fill="blue"/>
   </g>
   <g id="cell119">
  <circle cx="556.132" cy="442.41" r="8.41271" stroke-width="0.5" stroke="black" fill="Red"/>
  <circle cx="556.132" cy="442.41" r="5.05167" stroke-width="0.5" stroke="Red" fill="Red"/>
   </g>
   <g id="cell120">
  <circle cx="553.124" cy="456.084" r="7.21189" stroke-width="0.5" stroke="black" fill="Red"/>
  <circle cx="553.124" cy="456.084" r="4.37993" stroke-width="0.5" stroke="Red" fill="Red"/>
   </g>
   <g id="cell121">
  <circle cx="554.336" cy="471.245" r="8.41271" stroke-width="0.5" stroke="black" fill="Red"/>
  <circle cx="554.336" cy="471.245" r="5.05167" stroke-width="0.5" stroke="Red" fill="Red"/>
   </g>
   <g id="cell122">
  <circle cx="545.63" cy="481.325" r="8.41271" stroke-width="0.5" stroke="black" fill="blue"/>
  <circle cx="545.63" cy="481.325" r="5.05167" stroke-width="0.5" stroke="blue" fill="blue"/>
   </g>
   <g id="cell123">
  <circle cx="547.096" cy="495.542" r="8.41271" stroke-width="0.5" stroke="black" fill="Red"/>
  <circle cx="547.096" cy="495.542" r="5.05167" stroke-width="0.5" stroke="Red" fill="Red"/>
   </g>
   <g id="cell124">
  <circle cx="549.887" cy="508.8" r="8.41271" stroke-width="0.5" stroke="black" fill="Red"/>
  <circle cx="549.887" cy="508.8" r="5.05167" stroke-width="0.5" stroke="Red" fill="Red"/>
   </g>
   <g id="cell125">
  <circle cx="545.966" cy="519.746" r="7.24243" stroke-width="0.5" stroke="black" fill="Red"/>
  <circle cx="545.966" cy="519.746" r="4.39934" stroke-width="0.5" stroke="Red" fill="Red"/>
   </g>
   <g id="cell126">
  <circle cx="549.232" cy="534.778" r="8.41271" stroke-width="0.5" stroke="black" fill="blue"/>
  <circle cx="549.232" cy="534.778" r="5.05167" stroke-width="0.5" stroke="blue" fill="blue"/>
   </g>
   <g id="cell127">
  <circle cx="549.75" cy="548.08" r="8.41271" stroke-width="0.5" stroke="black" fill="Red"/>
  <circle cx="549.75" cy="548.08" r="5.05167" stroke-width="0.5" stroke="Red" fill="Red"/>
   </g>
   <g id="cell128">
  <circle cx="552.425" cy="561.842" r="8.41271" stroke-width="0.5" stroke="black" fill="blue"/>
  <circle cx="552.425" cy="561.842" r="5.05167" stroke-width="0.5" stroke="blue" fill="blue"/>
   </g>
   <g id="cell129">
  <circle cx="577.141" cy="453.668" r="7.18097" stroke-width="0.5" stroke="black" fill="blue"/>
  <circle cx="577.141" cy="453.668" r="4.36015" stroke-width="0.5" stroke="blue" fill="blue"/>
   </g>
   <g id="cell130">
  <circle cx="565.236" cy="461.419" r="8.41271" stroke-width="0.5" stroke="black" fill="Red"/>
  <circle cx="565.236" cy="461.419" r="5.05167" stroke-width="0.5" stroke="Red" fill="Red"/>
   </g>
   <g id="cell131">
  <circle cx="567.125" cy="475.224" r="8.41271" stroke-width="0.5" stroke="black" fill="Red"/>
  <circle cx="567.125" cy="475.224" r="5.05167" stroke-width="0.5" stroke="Red" fill="Red"/>
   </g>
   <g id="cell132">
  <circle cx="558.818" cy="485.391" r="8.41271" stroke-width="0.5" stroke="black" fill="Red"/>
  <circle cx="558.818" cy="485.391" r="5.05167" stroke-width="0.5" stroke="Red" fill="Red"/>
   </g>
   <g id="cell133">
  <circle cx="559.864" cy="499.294" r="8.41271" stroke-width="0.5" stroke="black" fill="blue"/>
  <circle cx="559.864" cy="499.294" r="5.05167" stroke-width="0.5" stroke="blue" fill="blue"/>
   </g>
   <g id="cell134">
  <circle cx="562.546" cy="513.838" r="8.41271" stroke-width="0.5" stroke="black" fill="yellow"/>
  <circle cx="562.546" cy="513.838" r="5.05167" stroke-width="0.5" stroke="yellow" fill="yellow"/>
   </g>
   <g id="cell135">
  <circle cx="566.482" cy="528.948" r="8.41271" stroke-width="0.5" stroke="black" fill="yellow"/>
  <circle cx="566.482" cy="528.948" r="5.05167" stroke-width="0.5" stroke="yellow" fill="yellow"/>
   </g>
   <g id="cell136">
  <circle cx="559.748" cy="539.551" r="8.41271" stroke-width="0.5" stroke="black" fill="Red"/>
  <circle cx="559.748" cy="539.551" r="5.05167" stroke-width="0.5" stroke="Red" fill="Red"/>
   </g>
   <g id="cell137">
  <circle cx="562.935" cy="552.878" r="8.41271" stroke-width="0.5" stroke="black" fill="Red"/>
  <circle cx="562.935" cy="552.878" r="5.05167" stroke-width="0.5" stroke="Red" fill="Red"/>
   </g>
   <g id="cell138">
  <circle cx="578.645" cy="466.714" r="8.41271" stroke-width="0.5" stroke="black" fill="Red"/>
  <circle cx="578.645" cy="466.714" r="5.05167" stroke-width="0.5" stroke="Red" fill="Red"/>
   </g>
   <g id="cell139">
  <circle cx="579.19" cy="481.401" r="8.41271" stroke-width="0.5" stroke="black" fill="yellow"/>
  <circle cx="579.19" cy="481.401" r="5.05167" stroke-width="0.5" stroke="yellow" fill="yellow"/>
   </g>
   <g id="cell140">
  <circle cx="571.025" cy="491.609" r="7.56839" stroke-width="0.5" stroke="black" fill="Red"/>
  <circle cx="571.025" cy="491.609" r="4.59998" stroke-width="0.5" stroke="Red" fill="Red"/>
   </g>
   <g id="cell141">
  <circle cx="574.114" cy="505.444" r="8.41271" stroke-width="0.5" stroke="black" fill="yellow"/>
  <circle cx="574.114" cy="505.444" r="5.05167" stroke-width="0.5" stroke="yellow" fill="yellow"/>
   </g>
   <g id="cell142">
  <circle cx="575.357" cy="519.056" r="6.99069" stroke-width="0.5" stroke="black" fill="blue"/>
  <circle cx="575.357" cy="519.056" r="4.23498" stroke-width="0.5" stroke="blue" fill="blue"/>
   </g>
   <g id="cell143">
  <circle cx="572.667" cy="542.779" r="8.41271" stroke-width="0.5" stroke="black" fill="blue"/>
  <circle cx="572.667" cy="542.779" r="5.05167" stroke-width="0.5" stroke="blue" fill="blue"/>
   </g>
   <g id="cell144">
  <circle cx="435.818" cy="434.705" r="7.56839" stroke-width="0.5" stroke="black" fill="blue"/>
  <circle cx="435.818" cy="434.705" r="4.59998" stroke-width="0.5" stroke="blue" fill="blue"/>
   </g>
   <g id="cell145">
  <circle cx="583.639" cy="493.736" r="7.56839" stroke-width="0.5" stroke="black" fill="blue"/>
  <circle cx="583.639" cy="493.736" r="4.59998" stroke-width="0.5" stroke="blue" fill="blue"/>
   </g>
   <g id="cell146">
  <circle cx="481.373" cy="508.805" r="6.37134" stroke-width="0.5" stroke="black" fill="blue"/>
  <circle cx="481.373" cy="508.805" r="3.9031" stroke-width="0.5" stroke="blue" fill="blue"/>
   </g>
   <g id="cell147">
  <circle cx="531.291" cy="457.242" r="6.93569" stroke-width="0.5" stroke="black" fill="Red"/>
  <circle cx="531.291" cy="457.242" r="4.25431" stroke-width="0.5" stroke="Red" fill="Red"/>
   </g>
   <g id="cell148">
  <circle cx="521.96" cy="541.294" r="7.46878" stroke-width="0.5" stroke="black" fill="blue"/>
  <circle cx="521.96" cy="541.294" r="4.53982" stroke-width="0.5" stroke="blue" fill="blue"/>
   </g>
   <g id="cell149">
  <circle cx="530.948" cy="467.3" r="6.93569" stroke-width="0.5" stroke="black" fill="blue"/>
  <circle cx="530.948" cy="467.3" r="4.25431" stroke-width="0.5" stroke="blue" fill="blue"/>
   </g>
   <g id="cell150">
  <circle cx="444.881" cy="517.403" r="7.33129" stroke-width="0.5" stroke="black" fill="blue"/>
  <circle cx="444.881" cy="517.403" r="4.45516" stroke-width="0.5" stroke="blue" fill="blue"/>
   </g>
   <g id="cell151">
  <circle cx="449.722" cy="416.588" r="7.33129" stroke-width="0.5" stroke="black" fill="blue"/>
  <circle cx="449.722" cy="416.588" r="4.45516" stroke-width="0.5" stroke="blue" fill="blue"/>
   </g>
   <g id="cell152">
  <circle cx="484.659" cy="458.999" r="7.27253" stroke-width="0.5" stroke="black" fill="blue"/>
  <circle cx="484.659" cy="458.999" r="4.41835" stroke-width="0.5" stroke="blue" fill="blue"/>
   </g>
   <g id="cell153">
  <circle cx="524.206" cy="422.521" r="7.24243" stroke-width="0.5" stroke="black" fill="Red"/>
  <circle cx="524.206" cy="422.521" r="4.39934" stroke-width="0.5" stroke="Red" fill="Red"/>
   </g>
   <g id="cell154">
  <circle cx="554.886" cy="523.437" r="7.24243" stroke-width="0.5" stroke="black" fill="blue"/>
  <circle cx="554.886" cy="523.437" r="4.39934" stroke-width="0.5" stroke="blue" fill="blue"/>
   </g>
   <g id="cell155">
  <circle cx="444.942" cy="426.77" r="6.53595" stroke-width="0.5" stroke="black" fill="yellow"/>
  <circle cx="444.942" cy="426.77" r="4.01165" stroke-width="0.5" stroke="yellow" fill="yellow"/>
   </g>
   <g id="cell156">
  <circle cx="512.187" cy="517.987" r="7.21189" stroke-width="0.5" stroke="black" fill="blue"/>
  <circle cx="512.187" cy="517.987" r="4.37993" stroke-width="0.5" stroke="blue" fill="blue"/>
   </g>
   <g id="cell157">
  <circle cx="542.592" cy="450.829" r="7.21189" stroke-width="0.5" stroke="black" fill="blue"/>
  <circle cx="542.592" cy="450.829" r="4.37993" stroke-width="0.5" stroke="blue" fill="blue"/>
   </g>
   <g id="cell158">
  <circle cx="564.59" cy="451.267" r="5.77561" stroke-width="0.5" stroke="black" fill="Red"/>
  <circle cx="564.59" cy="451.267" r="3.51453" stroke-width="0.5" stroke="Red" fill="Red"/>
   </g>
   <g id="cell159">
  <circle cx="471.828" cy="529.972" r="7.1497" stroke-width="0.5" stroke="black" fill="blue"/>
  <circle cx="471.828" cy="529.972" r="4.34001" stroke-width="0.5" stroke="blue" fill="blue"/>
   </g>
   <g id="cell160">
  <circle cx="506.181" cy="558.659" r="7.11815" stroke-width="0.5" stroke="black" fill="blue"/>
  <circle cx="506.181" cy="558.659" r="4.31954" stroke-width="0.5" stroke="blue" fill="blue"/>
   </g>
   <g id="cell161">
  <circle cx="519.239" cy="480.276" r="5.59632" stroke-width="0.5" stroke="black" fill="Red"/>
  <circle cx="519.239" cy="480.276" r="3.3938" stroke-width="0.5" stroke="Red" fill="Red"/>
   </g>
   <g id="cell162">
  <circle cx="578.92" cy="530.387" r="6.99069" stroke-width="0.5" stroke="black" fill="yellow"/>
  <circle cx="578.92" cy="530.387" r="4.23498" stroke-width="0.5" stroke="yellow" fill="yellow"/>
   </g>
   <g id="cell163">
  <circle cx="475.461" cy="517.485" r="6.37134" stroke-width="0.5" stroke="black" fill="Red"/>
  <circle cx="475.461" cy="517.485" r="3.9031" stroke-width="0.5" stroke="Red" fill="Red"/>
   </g>
   <g id="cell164">
  <circle cx="435.513" cy="500.41" r="6.99069" stroke-width="0.5" stroke="black" fill="blue"/>
  <circle cx="435.513" cy="500.41" r="4.23498" stroke-width="0.5" stroke="blue" fill="blue"/>
   </g>
   <g id="cell165">
  <circle cx="467.524" cy="442.686" r="6.92764" stroke-width="0.5" stroke="black" fill="blue"/>
  <circle cx="467.524" cy="442.686" r="4.1918" stroke-width="0.5" stroke="blue" fill="blue"/>
   </g>
   <g id="cell166">
  <circle cx="489.613" cy="439.758" r="6.92764" stroke-width="0.5" stroke="black" fill="blue"/>
  <circle cx="489.613" cy="439.758" r="4.1918" stroke-width="0.5" stroke="blue" fill="blue"/>
   </g>
   <g id="cell167">
  <circle cx="519.859" cy="452.176" r="6.29521" stroke-width="0.5" stroke="black" fill="blue"/>
  <circle cx="519.859" cy="452.176" r="3.85304" stroke-width="0.5" stroke="blue" fill="blue"/>
   </g>
   <g id="cell168">
  <circle cx="429.504" cy="529.806" r="5.55629" stroke-width="0.5" stroke="black" fill="Red"/>
  <circle cx="429.504" cy="529.806" r="3.36895" stroke-width="0.5" stroke="Red" fill="Red"/>
   </g>
   <g id="cell169">
  <circle cx="421.858" cy="456.524" r="6.78181" stroke-width="0.5" stroke="black" fill="blue"/>
  <circle cx="421.858" cy="456.524" r="4.08714" stroke-width="0.5" stroke="blue" fill="blue"/>
   </g>
   <g id="cell170">
  <circle cx="517.498" cy="488.043" r="5.68656" stroke-width="0.5" stroke="black" fill="blue"/>
  <circle cx="517.498" cy="488.043" r="3.45898" stroke-width="0.5" stroke="blue" fill="blue"/>
   </g>
   <g id="cell171">
  <circle cx="453.243" cy="581.06" r="6.73287" stroke-width="0.5" stroke="black" fill="Red"/>
  <circle cx="453.243" cy="581.06" r="4.05039" stroke-width="0.5" stroke="Red" fill="Red"/>
   </g>
   <g id="cell172">
  <circle cx="568.299" cy="441.949" r="5.77561" stroke-width="0.5" stroke="black" fill="Red"/>
  <circle cx="568.299" cy="441.949" r="3.51453" stroke-width="0.5" stroke="Red" fill="Red"/>
   </g>
   <g id="cell173">
  <circle cx="426.311" cy="521.029" r="5.55629" stroke-width="0.5" stroke="black" fill="Red"/>
  <circle cx="426.311" cy="521.029" r="3.36895" stroke-width="0.5" stroke="Red" fill="Red"/>
   </g>
   <g id="cell174">
  <circle cx="524.189" cy="473.504" r="5.59632" stroke-width="0.5" stroke="black" fill="Red"/>
  <circle cx="524.189" cy="473.504" r="3.3938" stroke-width="0.5" stroke="Red" fill="Red"/>
   </g>
  </g>
 </g>
  <rect x="775" y="1035" width="200" height="10" stroke-width="2" stroke="rgb(255,255,255)" fill="rgb(0,0,0)"/>
  <text x="781.25" y="1028.75"
   font-family="Arial" font-size="25" fill="black" >
   200 &#956;m
  </text>
  <text x="25" y="1045"
   font-family="Arial" font-size="18.75" fill="black" >
   0 days, 0 hours, 1 minutes, and 15.1929 seconds
  </text>
  <rect x="0" y="70" width="1000" height="1000" stroke-width="2" stroke="rgb(0,0,0)" fill="none"/>
</svg>
