<?xml version="1.0" encoding="UTF-8" standalone="no"?>
<!-- Created with PhysiCell (http://PhysiCell.MathCancer.org/) -->
<svg 
 xmlns:dc="http://purl.org/dc/elements/1.1/" 
 xmlns:cc="http://creativecommons.org/ns#" 
 xmlns:rdf="http://www.w3.org/1999/02/22-rdf-syntax-ns#" 
 xmlns:svg="http://www.w3.org/2000/svg" 
 xmlns="http://www.w3.org/2000/svg" 
 version="1.1" 
 width="1000" 
 height="1070" 
 id="svg2">
  <rect x="0" y="0" width="1000" height="1070" stroke-width="2" stroke="white" fill="white"/>
  <text x="12.5" y="30"
   font-family="Arial" font-size="25" fill="black" >
   Current time: 0 days, 2 hours, and 55.00 minutes, z = 0.00 &#956;m
  </text>
  <text x="12.5" y="57.5"
   font-family="Arial" font-size="23.75" fill="black" >
   170 agents
  </text>
 <g id="tissue" 
    transform="translate(0,1070) scale(1,-1)">
  <g id="ECM">
  </g>
  <g id="cells">
   <g id="cell0">
  <circle cx="431.061" cy="450.013" r="8.41271" stroke-width="0.5" stroke="black" fill="blue"/>
  <circle cx="431.061" cy="450.013" r="5.05167" stroke-width="0.5" stroke="blue" fill="blue"/>
   </g>
   <g id="cell1">
  <circle cx="430.549" cy="466.689" r="6.67717" stroke-width="0.5" stroke="black" fill="yellow"/>
  <circle cx="430.549" cy="466.689" r="4.00951" stroke-width="0.5" stroke="yellow" fill="yellow"/>
   </g>
   <g id="cell2">
  <circle cx="427.037" cy="479.179" r="8.41271" stroke-width="0.5" stroke="black" fill="blue"/>
  <circle cx="427.037" cy="479.179" r="5.05167" stroke-width="0.5" stroke="blue" fill="blue"/>
   </g>
   <g id="cell3">
  <circle cx="425.429" cy="491.008" r="6.83713" stroke-width="0.5" stroke="black" fill="Red"/>
  <circle cx="425.429" cy="491.008" r="4.12773" stroke-width="0.5" stroke="Red" fill="Red"/>
   </g>
   <g id="cell4">
  <circle cx="432.119" cy="513.316" r="8.41271" stroke-width="0.5" stroke="black" fill="Red"/>
  <circle cx="432.119" cy="513.316" r="5.05167" stroke-width="0.5" stroke="Red" fill="Red"/>
   </g>
   <g id="cell5">
  <circle cx="421.115" cy="523.779" r="6.75639" stroke-width="0.5" stroke="black" fill="Red"/>
  <circle cx="421.115" cy="523.779" r="4.06813" stroke-width="0.5" stroke="Red" fill="Red"/>
   </g>
   <g id="cell6">
  <circle cx="426.783" cy="536.96" r="8.41271" stroke-width="0.5" stroke="black" fill="blue"/>
  <circle cx="426.783" cy="536.96" r="5.05167" stroke-width="0.5" stroke="blue" fill="blue"/>
   </g>
   <g id="cell7">
  <circle cx="441.957" cy="445.895" r="7.44242" stroke-width="0.5" stroke="black" fill="Red"/>
  <circle cx="441.957" cy="445.895" r="4.52373" stroke-width="0.5" stroke="Red" fill="Red"/>
   </g>
   <g id="cell8">
  <circle cx="439.256" cy="459.328" r="8.41271" stroke-width="0.5" stroke="black" fill="Red"/>
  <circle cx="439.256" cy="459.328" r="5.05167" stroke-width="0.5" stroke="Red" fill="Red"/>
   </g>
   <g id="cell9">
  <circle cx="439.878" cy="473.823" r="8.41271" stroke-width="0.5" stroke="black" fill="yellow"/>
  <circle cx="439.878" cy="473.823" r="5.05167" stroke-width="0.5" stroke="yellow" fill="yellow"/>
   </g>
   <g id="cell10">
  <circle cx="438.388" cy="487.968" r="8.41271" stroke-width="0.5" stroke="black" fill="yellow"/>
  <circle cx="438.388" cy="487.968" r="5.05167" stroke-width="0.5" stroke="yellow" fill="yellow"/>
   </g>
   <g id="cell11">
  <circle cx="441.491" cy="502.965" r="8.41271" stroke-width="0.5" stroke="black" fill="Red"/>
  <circle cx="441.491" cy="502.965" r="5.05167" stroke-width="0.5" stroke="Red" fill="Red"/>
   </g>
   <g id="cell12">
  <circle cx="440.497" cy="521.603" r="7.18097" stroke-width="0.5" stroke="black" fill="Red"/>
  <circle cx="440.497" cy="521.603" r="4.36015" stroke-width="0.5" stroke="Red" fill="Red"/>
   </g>
   <g id="cell13">
  <circle cx="442.201" cy="533.439" r="8.41271" stroke-width="0.5" stroke="black" fill="yellow"/>
  <circle cx="442.201" cy="533.439" r="5.05167" stroke-width="0.5" stroke="yellow" fill="yellow"/>
   </g>
   <g id="cell14">
  <circle cx="438.361" cy="546.816" r="8.41271" stroke-width="0.5" stroke="black" fill="yellow"/>
  <circle cx="438.361" cy="546.816" r="5.05167" stroke-width="0.5" stroke="yellow" fill="yellow"/>
   </g>
   <g id="cell15">
  <circle cx="440.258" cy="560.523" r="8.41271" stroke-width="0.5" stroke="black" fill="blue"/>
  <circle cx="440.258" cy="560.523" r="5.05167" stroke-width="0.5" stroke="blue" fill="blue"/>
   </g>
   <g id="cell16">
  <circle cx="453.674" cy="427.018" r="6.24287" stroke-width="0.5" stroke="black" fill="yellow"/>
  <circle cx="453.674" cy="427.018" r="3.82881" stroke-width="0.5" stroke="yellow" fill="yellow"/>
   </g>
   <g id="cell17">
  <circle cx="452.777" cy="439.07" r="8.41271" stroke-width="0.5" stroke="black" fill="Red"/>
  <circle cx="452.777" cy="439.07" r="5.05167" stroke-width="0.5" stroke="Red" fill="Red"/>
   </g>
   <g id="cell18">
  <circle cx="450.906" cy="453.869" r="8.41271" stroke-width="0.5" stroke="black" fill="Red"/>
  <circle cx="450.906" cy="453.869" r="5.05167" stroke-width="0.5" stroke="Red" fill="Red"/>
   </g>
   <g id="cell19">
  <circle cx="452.212" cy="466.736" r="8.41271" stroke-width="0.5" stroke="black" fill="blue"/>
  <circle cx="452.212" cy="466.736" r="5.05167" stroke-width="0.5" stroke="blue" fill="blue"/>
   </g>
   <g id="cell20">
  <circle cx="451.376" cy="480.556" r="8.41271" stroke-width="0.5" stroke="black" fill="Red"/>
  <circle cx="451.376" cy="480.556" r="5.05167" stroke-width="0.5" stroke="Red" fill="Red"/>
   </g>
   <g id="cell21">
  <circle cx="451.277" cy="493.888" r="8.41271" stroke-width="0.5" stroke="black" fill="blue"/>
  <circle cx="451.277" cy="493.888" r="5.05167" stroke-width="0.5" stroke="blue" fill="blue"/>
   </g>
   <g id="cell22">
  <circle cx="455.195" cy="507.078" r="8.41271" stroke-width="0.5" stroke="black" fill="Red"/>
  <circle cx="455.195" cy="507.078" r="5.05167" stroke-width="0.5" stroke="Red" fill="Red"/>
   </g>
   <g id="cell23">
  <circle cx="452.224" cy="524.874" r="8.41271" stroke-width="0.5" stroke="black" fill="Red"/>
  <circle cx="452.224" cy="524.874" r="5.05167" stroke-width="0.5" stroke="Red" fill="Red"/>
   </g>
   <g id="cell24">
  <circle cx="451.724" cy="541.821" r="8.41271" stroke-width="0.5" stroke="black" fill="blue"/>
  <circle cx="451.724" cy="541.821" r="5.05167" stroke-width="0.5" stroke="blue" fill="blue"/>
   </g>
   <g id="cell25">
  <circle cx="452.551" cy="554.623" r="8.41271" stroke-width="0.5" stroke="black" fill="yellow"/>
  <circle cx="452.551" cy="554.623" r="5.05167" stroke-width="0.5" stroke="yellow" fill="yellow"/>
   </g>
   <g id="cell26">
  <circle cx="453.104" cy="568.757" r="8.41271" stroke-width="0.5" stroke="black" fill="yellow"/>
  <circle cx="453.104" cy="568.757" r="5.05167" stroke-width="0.5" stroke="yellow" fill="yellow"/>
   </g>
   <g id="cell27">
  <circle cx="463.511" cy="417.013" r="8.41271" stroke-width="0.5" stroke="black" fill="yellow"/>
  <circle cx="463.511" cy="417.013" r="5.05167" stroke-width="0.5" stroke="yellow" fill="yellow"/>
   </g>
   <g id="cell28">
  <circle cx="464.849" cy="431.746" r="8.41271" stroke-width="0.5" stroke="black" fill="Red"/>
  <circle cx="464.849" cy="431.746" r="5.05167" stroke-width="0.5" stroke="Red" fill="Red"/>
   </g>
   <g id="cell29">
  <circle cx="461.154" cy="449.432" r="6.78181" stroke-width="0.5" stroke="black" fill="Red"/>
  <circle cx="461.154" cy="449.432" r="4.08714" stroke-width="0.5" stroke="Red" fill="Red"/>
   </g>
   <g id="cell30">
  <circle cx="464.239" cy="459.783" r="8.41271" stroke-width="0.5" stroke="black" fill="Red"/>
  <circle cx="464.239" cy="459.783" r="5.05167" stroke-width="0.5" stroke="Red" fill="Red"/>
   </g>
   <g id="cell31">
  <circle cx="464.527" cy="472.731" r="8.41271" stroke-width="0.5" stroke="black" fill="Red"/>
  <circle cx="464.527" cy="472.731" r="5.05167" stroke-width="0.5" stroke="Red" fill="Red"/>
   </g>
   <g id="cell32">
  <circle cx="464.051" cy="486.763" r="8.41271" stroke-width="0.5" stroke="black" fill="Red"/>
  <circle cx="464.051" cy="486.763" r="5.05167" stroke-width="0.5" stroke="Red" fill="Red"/>
   </g>
   <g id="cell33">
  <circle cx="464.812" cy="500.586" r="8.41271" stroke-width="0.5" stroke="black" fill="blue"/>
  <circle cx="464.812" cy="500.586" r="5.05167" stroke-width="0.5" stroke="blue" fill="blue"/>
   </g>
   <g id="cell34">
  <circle cx="463.273" cy="517.508" r="8.41271" stroke-width="0.5" stroke="black" fill="Red"/>
  <circle cx="463.273" cy="517.508" r="5.05167" stroke-width="0.5" stroke="Red" fill="Red"/>
   </g>
   <g id="cell35">
  <circle cx="461.615" cy="533.496" r="8.41271" stroke-width="0.5" stroke="black" fill="Red"/>
  <circle cx="461.615" cy="533.496" r="5.05167" stroke-width="0.5" stroke="Red" fill="Red"/>
   </g>
   <g id="cell36">
  <circle cx="465.199" cy="546.989" r="8.41271" stroke-width="0.5" stroke="black" fill="Red"/>
  <circle cx="465.199" cy="546.989" r="5.05167" stroke-width="0.5" stroke="Red" fill="Red"/>
   </g>
   <g id="cell37">
  <circle cx="466.268" cy="560.05" r="8.41271" stroke-width="0.5" stroke="black" fill="Red"/>
  <circle cx="466.268" cy="560.05" r="5.05167" stroke-width="0.5" stroke="Red" fill="Red"/>
   </g>
   <g id="cell38">
  <circle cx="466.989" cy="572.412" r="8.41271" stroke-width="0.5" stroke="black" fill="Red"/>
  <circle cx="466.989" cy="572.412" r="5.05167" stroke-width="0.5" stroke="Red" fill="Red"/>
   </g>
   <g id="cell39">
  <circle cx="461.014" cy="582.817" r="8.41271" stroke-width="0.5" stroke="black" fill="blue"/>
  <circle cx="461.014" cy="582.817" r="5.05167" stroke-width="0.5" stroke="blue" fill="blue"/>
   </g>
   <g id="cell40">
  <circle cx="476.269" cy="410.864" r="8.41271" stroke-width="0.5" stroke="black" fill="blue"/>
  <circle cx="476.269" cy="410.864" r="5.05167" stroke-width="0.5" stroke="blue" fill="blue"/>
   </g>
   <g id="cell41">
  <circle cx="476.83" cy="424.728" r="8.41271" stroke-width="0.5" stroke="black" fill="Red"/>
  <circle cx="476.83" cy="424.728" r="5.05167" stroke-width="0.5" stroke="Red" fill="Red"/>
   </g>
   <g id="cell42">
  <circle cx="478.386" cy="438.51" r="8.41271" stroke-width="0.5" stroke="black" fill="Red"/>
  <circle cx="478.386" cy="438.51" r="5.05167" stroke-width="0.5" stroke="Red" fill="Red"/>
   </g>
   <g id="cell43">
  <circle cx="474.13" cy="452.97" r="8.41271" stroke-width="0.5" stroke="black" fill="Red"/>
  <circle cx="474.13" cy="452.97" r="5.05167" stroke-width="0.5" stroke="Red" fill="Red"/>
   </g>
   <g id="cell44">
  <circle cx="477.169" cy="466.853" r="8.41271" stroke-width="0.5" stroke="black" fill="Red"/>
  <circle cx="477.169" cy="466.853" r="5.05167" stroke-width="0.5" stroke="Red" fill="Red"/>
   </g>
   <g id="cell45">
  <circle cx="477.035" cy="480.734" r="8.41271" stroke-width="0.5" stroke="black" fill="Red"/>
  <circle cx="477.035" cy="480.734" r="5.05167" stroke-width="0.5" stroke="Red" fill="Red"/>
   </g>
   <g id="cell46">
  <circle cx="476.733" cy="495.632" r="8.41271" stroke-width="0.5" stroke="black" fill="yellow"/>
  <circle cx="476.733" cy="495.632" r="5.05167" stroke-width="0.5" stroke="yellow" fill="yellow"/>
   </g>
   <g id="cell47">
  <circle cx="471.915" cy="508.178" r="7.41548" stroke-width="0.5" stroke="black" fill="Red"/>
  <circle cx="471.915" cy="508.178" r="4.50723" stroke-width="0.5" stroke="Red" fill="Red"/>
   </g>
   <g id="cell48">
  <circle cx="480.211" cy="524.391" r="6.99069" stroke-width="0.5" stroke="black" fill="Red"/>
  <circle cx="480.211" cy="524.391" r="4.23498" stroke-width="0.5" stroke="Red" fill="Red"/>
   </g>
   <g id="cell49">
  <circle cx="476.381" cy="537.807" r="8.41271" stroke-width="0.5" stroke="black" fill="Red"/>
  <circle cx="476.381" cy="537.807" r="5.05167" stroke-width="0.5" stroke="Red" fill="Red"/>
   </g>
   <g id="cell50">
  <circle cx="477.534" cy="552.307" r="8.41271" stroke-width="0.5" stroke="black" fill="Red"/>
  <circle cx="477.534" cy="552.307" r="5.05167" stroke-width="0.5" stroke="Red" fill="Red"/>
   </g>
   <g id="cell51">
  <circle cx="478.695" cy="566.897" r="8.41271" stroke-width="0.5" stroke="black" fill="blue"/>
  <circle cx="478.695" cy="566.897" r="5.05167" stroke-width="0.5" stroke="blue" fill="blue"/>
   </g>
   <g id="cell52">
  <circle cx="478.492" cy="581.104" r="8.41271" stroke-width="0.5" stroke="black" fill="yellow"/>
  <circle cx="478.492" cy="581.104" r="5.05167" stroke-width="0.5" stroke="yellow" fill="yellow"/>
   </g>
   <g id="cell53">
  <circle cx="489.299" cy="416.807" r="8.41271" stroke-width="0.5" stroke="black" fill="yellow"/>
  <circle cx="489.299" cy="416.807" r="5.05167" stroke-width="0.5" stroke="yellow" fill="yellow"/>
   </g>
   <g id="cell54">
  <circle cx="489.247" cy="430.35" r="8.41271" stroke-width="0.5" stroke="black" fill="blue"/>
  <circle cx="489.247" cy="430.35" r="5.05167" stroke-width="0.5" stroke="blue" fill="blue"/>
   </g>
   <g id="cell55">
  <circle cx="485.288" cy="448.797" r="6.78181" stroke-width="0.5" stroke="black" fill="Red"/>
  <circle cx="485.288" cy="448.797" r="4.08714" stroke-width="0.5" stroke="Red" fill="Red"/>
   </g>
   <g id="cell56">
  <circle cx="493.402" cy="463.635" r="7.11815" stroke-width="0.5" stroke="black" fill="blue"/>
  <circle cx="493.402" cy="463.635" r="4.31954" stroke-width="0.5" stroke="blue" fill="blue"/>
   </g>
   <g id="cell57">
  <circle cx="488.691" cy="474.082" r="8.41271" stroke-width="0.5" stroke="black" fill="Red"/>
  <circle cx="488.691" cy="474.082" r="5.05167" stroke-width="0.5" stroke="Red" fill="Red"/>
   </g>
   <g id="cell58">
  <circle cx="489.721" cy="487.953" r="8.41271" stroke-width="0.5" stroke="black" fill="blue"/>
  <circle cx="489.721" cy="487.953" r="5.05167" stroke-width="0.5" stroke="blue" fill="blue"/>
   </g>
   <g id="cell59">
  <circle cx="488.885" cy="501.964" r="8.41271" stroke-width="0.5" stroke="black" fill="Red"/>
  <circle cx="488.885" cy="501.964" r="5.05167" stroke-width="0.5" stroke="Red" fill="Red"/>
   </g>
   <g id="cell60">
  <circle cx="489.422" cy="516.395" r="8.41271" stroke-width="0.5" stroke="black" fill="Red"/>
  <circle cx="489.422" cy="516.395" r="5.05167" stroke-width="0.5" stroke="Red" fill="Red"/>
   </g>
   <g id="cell61">
  <circle cx="489.488" cy="531.059" r="8.41271" stroke-width="0.5" stroke="black" fill="Red"/>
  <circle cx="489.488" cy="531.059" r="5.05167" stroke-width="0.5" stroke="Red" fill="Red"/>
   </g>
   <g id="cell62">
  <circle cx="487.734" cy="544.11" r="8.41271" stroke-width="0.5" stroke="black" fill="blue"/>
  <circle cx="487.734" cy="544.11" r="5.05167" stroke-width="0.5" stroke="blue" fill="blue"/>
   </g>
   <g id="cell63">
  <circle cx="490.13" cy="558.871" r="8.41271" stroke-width="0.5" stroke="black" fill="Red"/>
  <circle cx="490.13" cy="558.871" r="5.05167" stroke-width="0.5" stroke="Red" fill="Red"/>
   </g>
   <g id="cell64">
  <circle cx="490.526" cy="573.305" r="8.41271" stroke-width="0.5" stroke="black" fill="Red"/>
  <circle cx="490.526" cy="573.305" r="5.05167" stroke-width="0.5" stroke="Red" fill="Red"/>
   </g>
   <g id="cell65">
  <circle cx="491.542" cy="587.766" r="8.41271" stroke-width="0.5" stroke="black" fill="yellow"/>
  <circle cx="491.542" cy="587.766" r="5.05167" stroke-width="0.5" stroke="yellow" fill="yellow"/>
   </g>
   <g id="cell66">
  <circle cx="500.996" cy="410.587" r="8.41271" stroke-width="0.5" stroke="black" fill="blue"/>
  <circle cx="500.996" cy="410.587" r="5.05167" stroke-width="0.5" stroke="blue" fill="blue"/>
   </g>
   <g id="cell67">
  <circle cx="501.297" cy="424.898" r="8.41271" stroke-width="0.5" stroke="black" fill="yellow"/>
  <circle cx="501.297" cy="424.898" r="5.05167" stroke-width="0.5" stroke="yellow" fill="yellow"/>
   </g>
   <g id="cell68">
  <circle cx="501.403" cy="439.549" r="8.41271" stroke-width="0.5" stroke="black" fill="Red"/>
  <circle cx="501.403" cy="439.549" r="5.05167" stroke-width="0.5" stroke="Red" fill="Red"/>
   </g>
   <g id="cell69">
  <circle cx="497.324" cy="452.919" r="8.41271" stroke-width="0.5" stroke="black" fill="Red"/>
  <circle cx="497.324" cy="452.919" r="5.05167" stroke-width="0.5" stroke="Red" fill="Red"/>
   </g>
   <g id="cell70">
  <circle cx="502.429" cy="469.493" r="8.41271" stroke-width="0.5" stroke="black" fill="Red"/>
  <circle cx="502.429" cy="469.493" r="5.05167" stroke-width="0.5" stroke="Red" fill="Red"/>
   </g>
   <g id="cell71">
  <circle cx="500.456" cy="481.405" r="8.41271" stroke-width="0.5" stroke="black" fill="Red"/>
  <circle cx="500.456" cy="481.405" r="5.05167" stroke-width="0.5" stroke="Red" fill="Red"/>
   </g>
   <g id="cell72">
  <circle cx="500.661" cy="495.46" r="8.41271" stroke-width="0.5" stroke="black" fill="Red"/>
  <circle cx="500.661" cy="495.46" r="5.05167" stroke-width="0.5" stroke="Red" fill="Red"/>
   </g>
   <g id="cell73">
  <circle cx="501.558" cy="509.416" r="8.41271" stroke-width="0.5" stroke="black" fill="Red"/>
  <circle cx="501.558" cy="509.416" r="5.05167" stroke-width="0.5" stroke="Red" fill="Red"/>
   </g>
   <g id="cell74">
  <circle cx="500.63" cy="523.501" r="8.41271" stroke-width="0.5" stroke="black" fill="Red"/>
  <circle cx="500.63" cy="523.501" r="5.05167" stroke-width="0.5" stroke="Red" fill="Red"/>
   </g>
   <g id="cell75">
  <circle cx="499.731" cy="537.896" r="8.41271" stroke-width="0.5" stroke="black" fill="blue"/>
  <circle cx="499.731" cy="537.896" r="5.05167" stroke-width="0.5" stroke="blue" fill="blue"/>
   </g>
   <g id="cell76">
  <circle cx="500.138" cy="550.234" r="8.41271" stroke-width="0.5" stroke="black" fill="Red"/>
  <circle cx="500.138" cy="550.234" r="5.05167" stroke-width="0.5" stroke="Red" fill="Red"/>
   </g>
   <g id="cell77">
  <circle cx="499.821" cy="567.813" r="6.95901" stroke-width="0.5" stroke="black" fill="blue"/>
  <circle cx="499.821" cy="567.813" r="4.21341" stroke-width="0.5" stroke="blue" fill="blue"/>
   </g>
   <g id="cell78">
  <circle cx="502.779" cy="580.873" r="8.41271" stroke-width="0.5" stroke="black" fill="yellow"/>
  <circle cx="502.779" cy="580.873" r="5.05167" stroke-width="0.5" stroke="yellow" fill="yellow"/>
   </g>
   <g id="cell79">
  <circle cx="503.277" cy="596.739" r="8.41271" stroke-width="0.5" stroke="black" fill="blue"/>
  <circle cx="503.277" cy="596.739" r="5.05167" stroke-width="0.5" stroke="blue" fill="blue"/>
   </g>
   <g id="cell80">
  <circle cx="512.689" cy="416.56" r="8.41271" stroke-width="0.5" stroke="black" fill="yellow"/>
  <circle cx="512.689" cy="416.56" r="5.05167" stroke-width="0.5" stroke="yellow" fill="yellow"/>
   </g>
   <g id="cell81">
  <circle cx="513.969" cy="433.285" r="8.41271" stroke-width="0.5" stroke="black" fill="blue"/>
  <circle cx="513.969" cy="433.285" r="5.05167" stroke-width="0.5" stroke="blue" fill="blue"/>
   </g>
   <g id="cell82">
  <circle cx="511.945" cy="445.62" r="8.41271" stroke-width="0.5" stroke="black" fill="Red"/>
  <circle cx="511.945" cy="445.62" r="5.05167" stroke-width="0.5" stroke="Red" fill="Red"/>
   </g>
   <g id="cell83">
  <circle cx="509.001" cy="458.075" r="8.41271" stroke-width="0.5" stroke="black" fill="Red"/>
  <circle cx="509.001" cy="458.075" r="5.05167" stroke-width="0.5" stroke="Red" fill="Red"/>
   </g>
   <g id="cell84">
  <circle cx="514.391" cy="474.028" r="8.41271" stroke-width="0.5" stroke="black" fill="Red"/>
  <circle cx="514.391" cy="474.028" r="5.05167" stroke-width="0.5" stroke="Red" fill="Red"/>
   </g>
   <g id="cell85">
  <circle cx="512.113" cy="485.75" r="8.41271" stroke-width="0.5" stroke="black" fill="blue"/>
  <circle cx="512.113" cy="485.75" r="5.05167" stroke-width="0.5" stroke="blue" fill="blue"/>
   </g>
   <g id="cell86">
  <circle cx="513.078" cy="496.772" r="8.41271" stroke-width="0.5" stroke="black" fill="Red"/>
  <circle cx="513.078" cy="496.772" r="5.05167" stroke-width="0.5" stroke="Red" fill="Red"/>
   </g>
   <g id="cell87">
  <circle cx="512.074" cy="506.152" r="7.0545" stroke-width="0.5" stroke="black" fill="Red"/>
  <circle cx="512.074" cy="506.152" r="4.27772" stroke-width="0.5" stroke="Red" fill="Red"/>
   </g>
   <g id="cell88">
  <circle cx="512.853" cy="532.404" r="8.41271" stroke-width="0.5" stroke="black" fill="Red"/>
  <circle cx="512.853" cy="532.404" r="5.05167" stroke-width="0.5" stroke="Red" fill="Red"/>
   </g>
   <g id="cell89">
  <circle cx="512.075" cy="545.82" r="8.41271" stroke-width="0.5" stroke="black" fill="Red"/>
  <circle cx="512.075" cy="545.82" r="5.05167" stroke-width="0.5" stroke="Red" fill="Red"/>
   </g>
   <g id="cell90">
  <circle cx="513.821" cy="557.983" r="8.41271" stroke-width="0.5" stroke="black" fill="Red"/>
  <circle cx="513.821" cy="557.983" r="5.05167" stroke-width="0.5" stroke="Red" fill="Red"/>
   </g>
   <g id="cell91">
  <circle cx="512.436" cy="570.834" r="8.41271" stroke-width="0.5" stroke="black" fill="Red"/>
  <circle cx="512.436" cy="570.834" r="5.05167" stroke-width="0.5" stroke="Red" fill="Red"/>
   </g>
   <g id="cell92">
  <circle cx="515.495" cy="588.004" r="8.41271" stroke-width="0.5" stroke="black" fill="yellow"/>
  <circle cx="515.495" cy="588.004" r="5.05167" stroke-width="0.5" stroke="yellow" fill="yellow"/>
   </g>
   <g id="cell93">
  <circle cx="528.549" cy="412.515" r="8.41271" stroke-width="0.5" stroke="black" fill="blue"/>
  <circle cx="528.549" cy="412.515" r="5.05167" stroke-width="0.5" stroke="blue" fill="blue"/>
   </g>
   <g id="cell94">
  <circle cx="534.341" cy="425.101" r="7.08639" stroke-width="0.5" stroke="black" fill="yellow"/>
  <circle cx="534.341" cy="425.101" r="4.29876" stroke-width="0.5" stroke="yellow" fill="yellow"/>
   </g>
   <g id="cell95">
  <circle cx="526.745" cy="435.931" r="8.41271" stroke-width="0.5" stroke="black" fill="Red"/>
  <circle cx="526.745" cy="435.931" r="5.05167" stroke-width="0.5" stroke="Red" fill="Red"/>
   </g>
   <g id="cell96">
  <circle cx="522.345" cy="445.959" r="6.0194" stroke-width="0.5" stroke="black" fill="blue"/>
  <circle cx="522.345" cy="445.959" r="3.67227" stroke-width="0.5" stroke="blue" fill="blue"/>
   </g>
   <g id="cell97">
  <circle cx="520.465" cy="464.266" r="8.41271" stroke-width="0.5" stroke="black" fill="Red"/>
  <circle cx="520.465" cy="464.266" r="5.05167" stroke-width="0.5" stroke="Red" fill="Red"/>
   </g>
   <g id="cell98">
  <circle cx="523.972" cy="488.173" r="6.86652" stroke-width="0.5" stroke="black" fill="Red"/>
  <circle cx="523.972" cy="488.173" r="4.14883" stroke-width="0.5" stroke="Red" fill="Red"/>
   </g>
   <g id="cell99">
  <circle cx="525.649" cy="499.932" r="8.41271" stroke-width="0.5" stroke="black" fill="Red"/>
  <circle cx="525.649" cy="499.932" r="5.05167" stroke-width="0.5" stroke="Red" fill="Red"/>
   </g>
   <g id="cell100">
  <circle cx="523.475" cy="511.119" r="8.41271" stroke-width="0.5" stroke="black" fill="Red"/>
  <circle cx="523.475" cy="511.119" r="5.05167" stroke-width="0.5" stroke="Red" fill="Red"/>
   </g>
   <g id="cell101">
  <circle cx="523.367" cy="524.434" r="8.41271" stroke-width="0.5" stroke="black" fill="Red"/>
  <circle cx="523.367" cy="524.434" r="5.05167" stroke-width="0.5" stroke="Red" fill="Red"/>
   </g>
   <g id="cell102">
  <circle cx="529.536" cy="533.811" r="7.33129" stroke-width="0.5" stroke="black" fill="Red"/>
  <circle cx="529.536" cy="533.811" r="4.45516" stroke-width="0.5" stroke="Red" fill="Red"/>
   </g>
   <g id="cell103">
  <circle cx="525.856" cy="550.293" r="8.41271" stroke-width="0.5" stroke="black" fill="Red"/>
  <circle cx="525.856" cy="550.293" r="5.05167" stroke-width="0.5" stroke="Red" fill="Red"/>
   </g>
   <g id="cell104">
  <circle cx="526.034" cy="562.476" r="8.41271" stroke-width="0.5" stroke="black" fill="yellow"/>
  <circle cx="526.034" cy="562.476" r="5.05167" stroke-width="0.5" stroke="yellow" fill="yellow"/>
   </g>
   <g id="cell105">
  <circle cx="523.82" cy="575.695" r="8.41271" stroke-width="0.5" stroke="black" fill="blue"/>
  <circle cx="523.82" cy="575.695" r="5.05167" stroke-width="0.5" stroke="blue" fill="blue"/>
   </g>
   <g id="cell106">
  <circle cx="543.864" cy="416.823" r="8.41271" stroke-width="0.5" stroke="black" fill="Red"/>
  <circle cx="543.864" cy="416.823" r="5.05167" stroke-width="0.5" stroke="Red" fill="Red"/>
   </g>
   <g id="cell107">
  <circle cx="541.53" cy="436.227" r="8.41271" stroke-width="0.5" stroke="black" fill="yellow"/>
  <circle cx="541.53" cy="436.227" r="5.05167" stroke-width="0.5" stroke="yellow" fill="yellow"/>
   </g>
   <g id="cell108">
  <circle cx="534.423" cy="446.989" r="8.41271" stroke-width="0.5" stroke="black" fill="Red"/>
  <circle cx="534.423" cy="446.989" r="5.05167" stroke-width="0.5" stroke="Red" fill="Red"/>
   </g>
   <g id="cell109">
  <circle cx="540.419" cy="463.319" r="8.41271" stroke-width="0.5" stroke="black" fill="Red"/>
  <circle cx="540.419" cy="463.319" r="5.05167" stroke-width="0.5" stroke="Red" fill="Red"/>
   </g>
   <g id="cell110">
  <circle cx="536.132" cy="476.095" r="8.41271" stroke-width="0.5" stroke="black" fill="Red"/>
  <circle cx="536.132" cy="476.095" r="5.05167" stroke-width="0.5" stroke="Red" fill="Red"/>
   </g>
   <g id="cell111">
  <circle cx="536.424" cy="490.153" r="8.41271" stroke-width="0.5" stroke="black" fill="blue"/>
  <circle cx="536.424" cy="490.153" r="5.05167" stroke-width="0.5" stroke="blue" fill="blue"/>
   </g>
   <g id="cell112">
  <circle cx="538.532" cy="503.534" r="8.41271" stroke-width="0.5" stroke="black" fill="Red"/>
  <circle cx="538.532" cy="503.534" r="5.05167" stroke-width="0.5" stroke="Red" fill="Red"/>
   </g>
   <g id="cell113">
  <circle cx="534.723" cy="515.967" r="8.41271" stroke-width="0.5" stroke="black" fill="blue"/>
  <circle cx="534.723" cy="515.967" r="5.05167" stroke-width="0.5" stroke="blue" fill="blue"/>
   </g>
   <g id="cell114">
  <circle cx="538.831" cy="527.6" r="8.41271" stroke-width="0.5" stroke="black" fill="Red"/>
  <circle cx="538.831" cy="527.6" r="5.05167" stroke-width="0.5" stroke="Red" fill="Red"/>
   </g>
   <g id="cell115">
  <circle cx="537.77" cy="542.288" r="8.41271" stroke-width="0.5" stroke="black" fill="Red"/>
  <circle cx="537.77" cy="542.288" r="5.05167" stroke-width="0.5" stroke="Red" fill="Red"/>
   </g>
   <g id="cell116">
  <circle cx="538.363" cy="555.954" r="8.41271" stroke-width="0.5" stroke="black" fill="Red"/>
  <circle cx="538.363" cy="555.954" r="5.05167" stroke-width="0.5" stroke="Red" fill="Red"/>
   </g>
   <g id="cell117">
  <circle cx="537.93" cy="569.662" r="8.41271" stroke-width="0.5" stroke="black" fill="Red"/>
  <circle cx="537.93" cy="569.662" r="5.05167" stroke-width="0.5" stroke="Red" fill="Red"/>
   </g>
   <g id="cell118">
  <circle cx="551.783" cy="428.121" r="8.41271" stroke-width="0.5" stroke="black" fill="blue"/>
  <circle cx="551.783" cy="428.121" r="5.05167" stroke-width="0.5" stroke="blue" fill="blue"/>
   </g>
   <g id="cell119">
  <circle cx="553.79" cy="443.02" r="8.41271" stroke-width="0.5" stroke="black" fill="yellow"/>
  <circle cx="553.79" cy="443.02" r="5.05167" stroke-width="0.5" stroke="yellow" fill="yellow"/>
   </g>
   <g id="cell120">
  <circle cx="554.866" cy="456.317" r="7.0545" stroke-width="0.5" stroke="black" fill="Red"/>
  <circle cx="554.866" cy="456.317" r="4.27772" stroke-width="0.5" stroke="Red" fill="Red"/>
   </g>
   <g id="cell121">
  <circle cx="553.508" cy="468.532" r="8.41271" stroke-width="0.5" stroke="black" fill="Red"/>
  <circle cx="553.508" cy="468.532" r="5.05167" stroke-width="0.5" stroke="Red" fill="Red"/>
   </g>
   <g id="cell122">
  <circle cx="548.342" cy="480.491" r="8.41271" stroke-width="0.5" stroke="black" fill="Red"/>
  <circle cx="548.342" cy="480.491" r="5.05167" stroke-width="0.5" stroke="Red" fill="Red"/>
   </g>
   <g id="cell123">
  <circle cx="549.358" cy="495.177" r="8.41271" stroke-width="0.5" stroke="black" fill="Red"/>
  <circle cx="549.358" cy="495.177" r="5.05167" stroke-width="0.5" stroke="Red" fill="Red"/>
   </g>
   <g id="cell124">
  <circle cx="549.723" cy="509.378" r="8.41271" stroke-width="0.5" stroke="black" fill="Red"/>
  <circle cx="549.723" cy="509.378" r="5.05167" stroke-width="0.5" stroke="Red" fill="Red"/>
   </g>
   <g id="cell125">
  <circle cx="545.985" cy="519.021" r="7.08639" stroke-width="0.5" stroke="black" fill="Red"/>
  <circle cx="545.985" cy="519.021" r="4.29876" stroke-width="0.5" stroke="Red" fill="Red"/>
   </g>
   <g id="cell126">
  <circle cx="549.523" cy="534.807" r="8.41271" stroke-width="0.5" stroke="black" fill="Red"/>
  <circle cx="549.523" cy="534.807" r="5.05167" stroke-width="0.5" stroke="Red" fill="Red"/>
   </g>
   <g id="cell127">
  <circle cx="550.043" cy="549.286" r="8.41271" stroke-width="0.5" stroke="black" fill="Red"/>
  <circle cx="550.043" cy="549.286" r="5.05167" stroke-width="0.5" stroke="Red" fill="Red"/>
   </g>
   <g id="cell128">
  <circle cx="550.55" cy="562.885" r="8.41271" stroke-width="0.5" stroke="black" fill="Red"/>
  <circle cx="550.55" cy="562.885" r="5.05167" stroke-width="0.5" stroke="Red" fill="Red"/>
   </g>
   <g id="cell129">
  <circle cx="576.902" cy="455.494" r="7.02257" stroke-width="0.5" stroke="black" fill="blue"/>
  <circle cx="576.902" cy="455.494" r="4.25644" stroke-width="0.5" stroke="blue" fill="blue"/>
   </g>
   <g id="cell130">
  <circle cx="566.653" cy="462.54" r="8.41271" stroke-width="0.5" stroke="black" fill="yellow"/>
  <circle cx="566.653" cy="462.54" r="5.05167" stroke-width="0.5" stroke="yellow" fill="yellow"/>
   </g>
   <g id="cell131">
  <circle cx="565.415" cy="475.743" r="8.41271" stroke-width="0.5" stroke="black" fill="Red"/>
  <circle cx="565.415" cy="475.743" r="5.05167" stroke-width="0.5" stroke="Red" fill="Red"/>
   </g>
   <g id="cell132">
  <circle cx="560.034" cy="486.69" r="8.41271" stroke-width="0.5" stroke="black" fill="Red"/>
  <circle cx="560.034" cy="486.69" r="5.05167" stroke-width="0.5" stroke="Red" fill="Red"/>
   </g>
   <g id="cell133">
  <circle cx="560.883" cy="500.557" r="8.41271" stroke-width="0.5" stroke="black" fill="blue"/>
  <circle cx="560.883" cy="500.557" r="5.05167" stroke-width="0.5" stroke="blue" fill="blue"/>
   </g>
   <g id="cell134">
  <circle cx="561.867" cy="514.583" r="8.41271" stroke-width="0.5" stroke="black" fill="yellow"/>
  <circle cx="561.867" cy="514.583" r="5.05167" stroke-width="0.5" stroke="yellow" fill="yellow"/>
   </g>
   <g id="cell135">
  <circle cx="566.049" cy="529.426" r="8.41271" stroke-width="0.5" stroke="black" fill="Red"/>
  <circle cx="566.049" cy="529.426" r="5.05167" stroke-width="0.5" stroke="Red" fill="Red"/>
   </g>
   <g id="cell136">
  <circle cx="560.716" cy="541.027" r="8.41271" stroke-width="0.5" stroke="black" fill="Red"/>
  <circle cx="560.716" cy="541.027" r="5.05167" stroke-width="0.5" stroke="Red" fill="Red"/>
   </g>
   <g id="cell137">
  <circle cx="564.224" cy="554.928" r="8.41271" stroke-width="0.5" stroke="black" fill="blue"/>
  <circle cx="564.224" cy="554.928" r="5.05167" stroke-width="0.5" stroke="blue" fill="blue"/>
   </g>
   <g id="cell138">
  <circle cx="578.325" cy="468.836" r="8.41271" stroke-width="0.5" stroke="black" fill="yellow"/>
  <circle cx="578.325" cy="468.836" r="5.05167" stroke-width="0.5" stroke="yellow" fill="yellow"/>
   </g>
   <g id="cell139">
  <circle cx="578.694" cy="482.66" r="8.41271" stroke-width="0.5" stroke="black" fill="yellow"/>
  <circle cx="578.694" cy="482.66" r="5.05167" stroke-width="0.5" stroke="yellow" fill="yellow"/>
   </g>
   <g id="cell140">
  <circle cx="571.586" cy="492.584" r="7.44242" stroke-width="0.5" stroke="black" fill="yellow"/>
  <circle cx="571.586" cy="492.584" r="4.52373" stroke-width="0.5" stroke="yellow" fill="yellow"/>
   </g>
   <g id="cell141">
  <circle cx="574.652" cy="505.95" r="8.41271" stroke-width="0.5" stroke="black" fill="yellow"/>
  <circle cx="574.652" cy="505.95" r="5.05167" stroke-width="0.5" stroke="yellow" fill="yellow"/>
   </g>
   <g id="cell142">
  <circle cx="573.571" cy="518.178" r="6.83713" stroke-width="0.5" stroke="black" fill="blue"/>
  <circle cx="573.571" cy="518.178" r="4.12773" stroke-width="0.5" stroke="blue" fill="blue"/>
   </g>
   <g id="cell143">
  <circle cx="572.834" cy="542.634" r="8.41271" stroke-width="0.5" stroke="black" fill="blue"/>
  <circle cx="572.834" cy="542.634" r="5.05167" stroke-width="0.5" stroke="blue" fill="blue"/>
   </g>
   <g id="cell144">
  <circle cx="435.638" cy="436.091" r="7.44242" stroke-width="0.5" stroke="black" fill="Red"/>
  <circle cx="435.638" cy="436.091" r="4.52373" stroke-width="0.5" stroke="Red" fill="Red"/>
   </g>
   <g id="cell145">
  <circle cx="583.754" cy="496.687" r="7.44242" stroke-width="0.5" stroke="black" fill="blue"/>
  <circle cx="583.754" cy="496.687" r="4.52373" stroke-width="0.5" stroke="blue" fill="blue"/>
   </g>
   <g id="cell146">
  <circle cx="480.953" cy="509.796" r="6.08938" stroke-width="0.5" stroke="black" fill="blue"/>
  <circle cx="480.953" cy="509.796" r="3.72101" stroke-width="0.5" stroke="blue" fill="blue"/>
   </g>
   <g id="cell147">
  <circle cx="530.072" cy="456.283" r="6.69603" stroke-width="0.5" stroke="black" fill="Red"/>
  <circle cx="530.072" cy="456.283" r="4.10968" stroke-width="0.5" stroke="Red" fill="Red"/>
   </g>
   <g id="cell148">
  <circle cx="522.162" cy="540.002" r="7.33129" stroke-width="0.5" stroke="black" fill="blue"/>
  <circle cx="522.162" cy="540.002" r="4.45516" stroke-width="0.5" stroke="blue" fill="blue"/>
   </g>
   <g id="cell149">
  <circle cx="529.842" cy="468.142" r="6.69603" stroke-width="0.5" stroke="black" fill="blue"/>
  <circle cx="529.842" cy="468.142" r="4.10968" stroke-width="0.5" stroke="blue" fill="blue"/>
   </g>
   <g id="cell150">
  <circle cx="447.33" cy="514.354" r="7.18097" stroke-width="0.5" stroke="black" fill="blue"/>
  <circle cx="447.33" cy="514.354" r="4.36015" stroke-width="0.5" stroke="blue" fill="blue"/>
   </g>
   <g id="cell151">
  <circle cx="450.118" cy="417.277" r="7.18097" stroke-width="0.5" stroke="black" fill="blue"/>
  <circle cx="450.118" cy="417.277" r="4.36015" stroke-width="0.5" stroke="blue" fill="blue"/>
   </g>
   <g id="cell152">
  <circle cx="485.73" cy="458.084" r="7.11815" stroke-width="0.5" stroke="black" fill="blue"/>
  <circle cx="485.73" cy="458.084" r="4.31954" stroke-width="0.5" stroke="blue" fill="blue"/>
   </g>
   <g id="cell153">
  <circle cx="522.918" cy="423.663" r="7.08639" stroke-width="0.5" stroke="black" fill="yellow"/>
  <circle cx="522.918" cy="423.663" r="4.29876" stroke-width="0.5" stroke="yellow" fill="yellow"/>
   </g>
   <g id="cell154">
  <circle cx="554.992" cy="523.517" r="7.08639" stroke-width="0.5" stroke="black" fill="blue"/>
  <circle cx="554.992" cy="523.517" r="4.29876" stroke-width="0.5" stroke="blue" fill="blue"/>
   </g>
   <g id="cell155">
  <circle cx="443.87" cy="427.517" r="6.24287" stroke-width="0.5" stroke="black" fill="yellow"/>
  <circle cx="443.87" cy="427.517" r="3.82881" stroke-width="0.5" stroke="yellow" fill="yellow"/>
   </g>
   <g id="cell156">
  <circle cx="512.051" cy="517.552" r="7.0545" stroke-width="0.5" stroke="black" fill="blue"/>
  <circle cx="512.051" cy="517.552" r="4.27772" stroke-width="0.5" stroke="blue" fill="blue"/>
   </g>
   <g id="cell157">
  <circle cx="545.599" cy="453.106" r="7.0545" stroke-width="0.5" stroke="black" fill="blue"/>
  <circle cx="545.599" cy="453.106" r="4.27772" stroke-width="0.5" stroke="blue" fill="blue"/>
   </g>
   <g id="cell158">
  <circle cx="566.132" cy="450.299" r="7.02257" stroke-width="0.5" stroke="black" fill="Red"/>
  <circle cx="566.132" cy="450.299" r="4.25644" stroke-width="0.5" stroke="Red" fill="Red"/>
   </g>
   <g id="cell159">
  <circle cx="469.673" cy="526.922" r="6.99069" stroke-width="0.5" stroke="black" fill="blue"/>
  <circle cx="469.673" cy="526.922" r="4.23498" stroke-width="0.5" stroke="blue" fill="blue"/>
   </g>
   <g id="cell160">
  <circle cx="503.053" cy="559.773" r="6.95901" stroke-width="0.5" stroke="black" fill="blue"/>
  <circle cx="503.053" cy="559.773" r="4.21341" stroke-width="0.5" stroke="blue" fill="blue"/>
   </g>
   <g id="cell161">
  <circle cx="524.688" cy="478.466" r="6.86652" stroke-width="0.5" stroke="black" fill="Red"/>
  <circle cx="524.688" cy="478.466" r="4.14883" stroke-width="0.5" stroke="Red" fill="Red"/>
   </g>
   <g id="cell162">
  <circle cx="577.79" cy="530.153" r="6.83713" stroke-width="0.5" stroke="black" fill="Red"/>
  <circle cx="577.79" cy="530.153" r="4.12773" stroke-width="0.5" stroke="Red" fill="Red"/>
   </g>
   <g id="cell163">
  <circle cx="474.775" cy="516.984" r="6.08938" stroke-width="0.5" stroke="black" fill="Red"/>
  <circle cx="474.775" cy="516.984" r="3.72101" stroke-width="0.5" stroke="Red" fill="Red"/>
   </g>
   <g id="cell164">
  <circle cx="430.073" cy="501.22" r="6.83713" stroke-width="0.5" stroke="black" fill="blue"/>
  <circle cx="430.073" cy="501.22" r="4.12773" stroke-width="0.5" stroke="blue" fill="blue"/>
   </g>
   <g id="cell165">
  <circle cx="467.767" cy="442.807" r="6.78181" stroke-width="0.5" stroke="black" fill="blue"/>
  <circle cx="467.767" cy="442.807" r="4.08714" stroke-width="0.5" stroke="blue" fill="blue"/>
   </g>
   <g id="cell166">
  <circle cx="490.35" cy="441.857" r="6.78181" stroke-width="0.5" stroke="black" fill="blue"/>
  <circle cx="490.35" cy="441.857" r="4.08714" stroke-width="0.5" stroke="blue" fill="blue"/>
   </g>
   <g id="cell167">
  <circle cx="520.6" cy="454.019" r="6.0194" stroke-width="0.5" stroke="black" fill="blue"/>
  <circle cx="520.6" cy="454.019" r="3.67227" stroke-width="0.5" stroke="blue" fill="blue"/>
   </g>
   <g id="cell168">
  <circle cx="431.448" cy="525.9" r="6.75639" stroke-width="0.5" stroke="black" fill="Red"/>
  <circle cx="431.448" cy="525.9" r="4.06813" stroke-width="0.5" stroke="Red" fill="Red"/>
   </g>
   <g id="cell169">
  <circle cx="422.573" cy="457.604" r="6.67717" stroke-width="0.5" stroke="black" fill="blue"/>
  <circle cx="422.573" cy="457.604" r="4.00951" stroke-width="0.5" stroke="blue" fill="blue"/>
   </g>
  </g>
 </g>
  <rect x="775" y="1035" width="200" height="10" stroke-width="2" stroke="rgb(255,255,255)" fill="rgb(0,0,0)"/>
  <text x="781.25" y="1028.75"
   font-family="Arial" font-size="25" fill="black" >
   200 &#956;m
  </text>
  <text x="25" y="1045"
   font-family="Arial" font-size="18.75" fill="black" >
   0 days, 0 hours, 1 minutes, and 0.7567 seconds
  </text>
  <rect x="0" y="70" width="1000" height="1000" stroke-width="2" stroke="rgb(0,0,0)" fill="none"/>
</svg>
