<?xml version="1.0" encoding="UTF-8" standalone="no"?>
<!-- Created with PhysiCell (http://PhysiCell.MathCancer.org/) -->
<svg 
 xmlns:dc="http://purl.org/dc/elements/1.1/" 
 xmlns:cc="http://creativecommons.org/ns#" 
 xmlns:rdf="http://www.w3.org/1999/02/22-rdf-syntax-ns#" 
 xmlns:svg="http://www.w3.org/2000/svg" 
 xmlns="http://www.w3.org/2000/svg" 
 version="1.1" 
 width="1000" 
 height="1070" 
 id="svg2">
  <rect x="0" y="0" width="1000" height="1070" stroke-width="2" stroke="white" fill="white"/>
  <text x="12.5" y="30"
   font-family="Arial" font-size="25" fill="black" >
   Current time: 0 days, 1 hours, and 5.00 minutes, z = 0.00 &#956;m
  </text>
  <text x="12.5" y="57.5"
   font-family="Arial" font-size="23.75" fill="black" >
   150 agents
  </text>
 <g id="tissue" 
    transform="translate(0,1070) scale(1,-1)">
  <g id="ECM">
  </g>
  <g id="cells">
   <g id="cell0">
  <circle cx="421.573" cy="455.12" r="8.41271" stroke-width="0.5" stroke="black" fill="blue"/>
  <circle cx="421.573" cy="455.12" r="5.05167" stroke-width="0.5" stroke="blue" fill="blue"/>
   </g>
   <g id="cell1">
  <circle cx="424.613" cy="469.288" r="8.41271" stroke-width="0.5" stroke="black" fill="Red"/>
  <circle cx="424.613" cy="469.288" r="5.05167" stroke-width="0.5" stroke="Red" fill="Red"/>
   </g>
   <g id="cell2">
  <circle cx="427.224" cy="482.479" r="8.41271" stroke-width="0.5" stroke="black" fill="blue"/>
  <circle cx="427.224" cy="482.479" r="5.05167" stroke-width="0.5" stroke="blue" fill="blue"/>
   </g>
   <g id="cell3">
  <circle cx="426.922" cy="496.421" r="8.41271" stroke-width="0.5" stroke="black" fill="Red"/>
  <circle cx="426.922" cy="496.421" r="5.05167" stroke-width="0.5" stroke="Red" fill="Red"/>
   </g>
   <g id="cell4">
  <circle cx="427.817" cy="510.448" r="8.41271" stroke-width="0.5" stroke="black" fill="blue"/>
  <circle cx="427.817" cy="510.448" r="5.05167" stroke-width="0.5" stroke="blue" fill="blue"/>
   </g>
   <g id="cell5">
  <circle cx="425.553" cy="523.478" r="8.41271" stroke-width="0.5" stroke="black" fill="Red"/>
  <circle cx="425.553" cy="523.478" r="5.05167" stroke-width="0.5" stroke="Red" fill="Red"/>
   </g>
   <g id="cell6">
  <circle cx="426.491" cy="536.838" r="8.41271" stroke-width="0.5" stroke="black" fill="blue"/>
  <circle cx="426.491" cy="536.838" r="5.05167" stroke-width="0.5" stroke="blue" fill="blue"/>
   </g>
   <g id="cell7">
  <circle cx="435.342" cy="449.052" r="6.86652" stroke-width="0.5" stroke="black" fill="Red"/>
  <circle cx="435.342" cy="449.052" r="4.14883" stroke-width="0.5" stroke="Red" fill="Red"/>
   </g>
   <g id="cell8">
  <circle cx="435.801" cy="460.779" r="8.41271" stroke-width="0.5" stroke="black" fill="Red"/>
  <circle cx="435.801" cy="460.779" r="5.05167" stroke-width="0.5" stroke="Red" fill="Red"/>
   </g>
   <g id="cell9">
  <circle cx="438.037" cy="474.438" r="8.41271" stroke-width="0.5" stroke="black" fill="Red"/>
  <circle cx="438.037" cy="474.438" r="5.05167" stroke-width="0.5" stroke="Red" fill="Red"/>
   </g>
   <g id="cell10">
  <circle cx="438.867" cy="489.297" r="8.41271" stroke-width="0.5" stroke="black" fill="Red"/>
  <circle cx="438.867" cy="489.297" r="5.05167" stroke-width="0.5" stroke="Red" fill="Red"/>
   </g>
   <g id="cell11">
  <circle cx="439.165" cy="502.172" r="8.41271" stroke-width="0.5" stroke="black" fill="Red"/>
  <circle cx="439.165" cy="502.172" r="5.05167" stroke-width="0.5" stroke="Red" fill="Red"/>
   </g>
   <g id="cell12">
  <circle cx="439.349" cy="515.868" r="8.41271" stroke-width="0.5" stroke="black" fill="Red"/>
  <circle cx="439.349" cy="515.868" r="5.05167" stroke-width="0.5" stroke="Red" fill="Red"/>
   </g>
   <g id="cell13">
  <circle cx="438.916" cy="529.971" r="8.41271" stroke-width="0.5" stroke="black" fill="yellow"/>
  <circle cx="438.916" cy="529.971" r="5.05167" stroke-width="0.5" stroke="yellow" fill="yellow"/>
   </g>
   <g id="cell14">
  <circle cx="438.33" cy="544.766" r="8.41271" stroke-width="0.5" stroke="black" fill="yellow"/>
  <circle cx="438.33" cy="544.766" r="5.05167" stroke-width="0.5" stroke="yellow" fill="yellow"/>
   </g>
   <g id="cell15">
  <circle cx="439.532" cy="558.675" r="8.41271" stroke-width="0.5" stroke="black" fill="blue"/>
  <circle cx="439.532" cy="558.675" r="5.05167" stroke-width="0.5" stroke="blue" fill="blue"/>
   </g>
   <g id="cell16">
  <circle cx="448.804" cy="427.145" r="8.41271" stroke-width="0.5" stroke="black" fill="blue"/>
  <circle cx="448.804" cy="427.145" r="5.05167" stroke-width="0.5" stroke="blue" fill="blue"/>
   </g>
   <g id="cell17">
  <circle cx="450.747" cy="441.104" r="8.41271" stroke-width="0.5" stroke="black" fill="Red"/>
  <circle cx="450.747" cy="441.104" r="5.05167" stroke-width="0.5" stroke="Red" fill="Red"/>
   </g>
   <g id="cell18">
  <circle cx="447.736" cy="452.481" r="8.41271" stroke-width="0.5" stroke="black" fill="Red"/>
  <circle cx="447.736" cy="452.481" r="5.05167" stroke-width="0.5" stroke="Red" fill="Red"/>
   </g>
   <g id="cell19">
  <circle cx="448.841" cy="466.84" r="8.41271" stroke-width="0.5" stroke="black" fill="blue"/>
  <circle cx="448.841" cy="466.84" r="5.05167" stroke-width="0.5" stroke="blue" fill="blue"/>
   </g>
   <g id="cell20">
  <circle cx="449.995" cy="481.101" r="8.41271" stroke-width="0.5" stroke="black" fill="Red"/>
  <circle cx="449.995" cy="481.101" r="5.05167" stroke-width="0.5" stroke="Red" fill="Red"/>
   </g>
   <g id="cell21">
  <circle cx="450.041" cy="495.023" r="8.41271" stroke-width="0.5" stroke="black" fill="Red"/>
  <circle cx="450.041" cy="495.023" r="5.05167" stroke-width="0.5" stroke="Red" fill="Red"/>
   </g>
   <g id="cell22">
  <circle cx="450.98" cy="509.51" r="8.41271" stroke-width="0.5" stroke="black" fill="blue"/>
  <circle cx="450.98" cy="509.51" r="5.05167" stroke-width="0.5" stroke="blue" fill="blue"/>
   </g>
   <g id="cell23">
  <circle cx="452.332" cy="523.128" r="8.41271" stroke-width="0.5" stroke="black" fill="Red"/>
  <circle cx="452.332" cy="523.128" r="5.05167" stroke-width="0.5" stroke="Red" fill="Red"/>
   </g>
   <g id="cell24">
  <circle cx="451.285" cy="537.339" r="8.41271" stroke-width="0.5" stroke="black" fill="blue"/>
  <circle cx="451.285" cy="537.339" r="5.05167" stroke-width="0.5" stroke="blue" fill="blue"/>
   </g>
   <g id="cell25">
  <circle cx="450.92" cy="552.139" r="8.41271" stroke-width="0.5" stroke="black" fill="yellow"/>
  <circle cx="450.92" cy="552.139" r="5.05167" stroke-width="0.5" stroke="yellow" fill="yellow"/>
   </g>
   <g id="cell26">
  <circle cx="452.052" cy="567.208" r="8.41271" stroke-width="0.5" stroke="black" fill="yellow"/>
  <circle cx="452.052" cy="567.208" r="5.05167" stroke-width="0.5" stroke="yellow" fill="yellow"/>
   </g>
   <g id="cell27">
  <circle cx="461.278" cy="418.894" r="8.41271" stroke-width="0.5" stroke="black" fill="yellow"/>
  <circle cx="461.278" cy="418.894" r="5.05167" stroke-width="0.5" stroke="yellow" fill="yellow"/>
   </g>
   <g id="cell28">
  <circle cx="462.333" cy="434.043" r="8.41271" stroke-width="0.5" stroke="black" fill="Red"/>
  <circle cx="462.333" cy="434.043" r="5.05167" stroke-width="0.5" stroke="Red" fill="Red"/>
   </g>
   <g id="cell29">
  <circle cx="461.837" cy="447.844" r="8.41271" stroke-width="0.5" stroke="black" fill="blue"/>
  <circle cx="461.837" cy="447.844" r="5.05167" stroke-width="0.5" stroke="blue" fill="blue"/>
   </g>
   <g id="cell30">
  <circle cx="461.604" cy="460.531" r="8.41271" stroke-width="0.5" stroke="black" fill="Red"/>
  <circle cx="461.604" cy="460.531" r="5.05167" stroke-width="0.5" stroke="Red" fill="Red"/>
   </g>
   <g id="cell31">
  <circle cx="462.696" cy="473.773" r="8.41271" stroke-width="0.5" stroke="black" fill="Red"/>
  <circle cx="462.696" cy="473.773" r="5.05167" stroke-width="0.5" stroke="Red" fill="Red"/>
   </g>
   <g id="cell32">
  <circle cx="462.879" cy="488.071" r="8.41271" stroke-width="0.5" stroke="black" fill="Red"/>
  <circle cx="462.879" cy="488.071" r="5.05167" stroke-width="0.5" stroke="Red" fill="Red"/>
   </g>
   <g id="cell33">
  <circle cx="462.025" cy="501.347" r="8.41271" stroke-width="0.5" stroke="black" fill="Red"/>
  <circle cx="462.025" cy="501.347" r="5.05167" stroke-width="0.5" stroke="Red" fill="Red"/>
   </g>
   <g id="cell34">
  <circle cx="465.077" cy="515.16" r="8.41271" stroke-width="0.5" stroke="black" fill="Red"/>
  <circle cx="465.077" cy="515.16" r="5.05167" stroke-width="0.5" stroke="Red" fill="Red"/>
   </g>
   <g id="cell35">
  <circle cx="464.654" cy="529.802" r="8.41271" stroke-width="0.5" stroke="black" fill="blue"/>
  <circle cx="464.654" cy="529.802" r="5.05167" stroke-width="0.5" stroke="blue" fill="blue"/>
   </g>
   <g id="cell36">
  <circle cx="464.843" cy="543.344" r="8.41271" stroke-width="0.5" stroke="black" fill="Red"/>
  <circle cx="464.843" cy="543.344" r="5.05167" stroke-width="0.5" stroke="Red" fill="Red"/>
   </g>
   <g id="cell37">
  <circle cx="464.169" cy="556.921" r="8.41271" stroke-width="0.5" stroke="black" fill="Red"/>
  <circle cx="464.169" cy="556.921" r="5.05167" stroke-width="0.5" stroke="Red" fill="Red"/>
   </g>
   <g id="cell38">
  <circle cx="465.615" cy="569.858" r="8.41271" stroke-width="0.5" stroke="black" fill="yellow"/>
  <circle cx="465.615" cy="569.858" r="5.05167" stroke-width="0.5" stroke="yellow" fill="yellow"/>
   </g>
   <g id="cell39">
  <circle cx="460.628" cy="582.259" r="8.41271" stroke-width="0.5" stroke="black" fill="blue"/>
  <circle cx="460.628" cy="582.259" r="5.05167" stroke-width="0.5" stroke="blue" fill="blue"/>
   </g>
   <g id="cell40">
  <circle cx="474.309" cy="412.269" r="8.41271" stroke-width="0.5" stroke="black" fill="blue"/>
  <circle cx="474.309" cy="412.269" r="5.05167" stroke-width="0.5" stroke="blue" fill="blue"/>
   </g>
   <g id="cell41">
  <circle cx="474.264" cy="425.843" r="8.41271" stroke-width="0.5" stroke="black" fill="yellow"/>
  <circle cx="474.264" cy="425.843" r="5.05167" stroke-width="0.5" stroke="yellow" fill="yellow"/>
   </g>
   <g id="cell42">
  <circle cx="475.262" cy="440.074" r="8.41271" stroke-width="0.5" stroke="black" fill="Red"/>
  <circle cx="475.262" cy="440.074" r="5.05167" stroke-width="0.5" stroke="Red" fill="Red"/>
   </g>
   <g id="cell43">
  <circle cx="474.965" cy="454.283" r="8.41271" stroke-width="0.5" stroke="black" fill="Red"/>
  <circle cx="474.965" cy="454.283" r="5.05167" stroke-width="0.5" stroke="Red" fill="Red"/>
   </g>
   <g id="cell44">
  <circle cx="475.844" cy="468.097" r="8.41271" stroke-width="0.5" stroke="black" fill="blue"/>
  <circle cx="475.844" cy="468.097" r="5.05167" stroke-width="0.5" stroke="blue" fill="blue"/>
   </g>
   <g id="cell45">
  <circle cx="475.104" cy="481.818" r="8.41271" stroke-width="0.5" stroke="black" fill="Red"/>
  <circle cx="475.104" cy="481.818" r="5.05167" stroke-width="0.5" stroke="Red" fill="Red"/>
   </g>
   <g id="cell46">
  <circle cx="474.96" cy="494.317" r="8.41271" stroke-width="0.5" stroke="black" fill="Red"/>
  <circle cx="474.96" cy="494.317" r="5.05167" stroke-width="0.5" stroke="Red" fill="Red"/>
   </g>
   <g id="cell47">
  <circle cx="472.763" cy="505.555" r="6.83713" stroke-width="0.5" stroke="black" fill="Red"/>
  <circle cx="472.763" cy="505.555" r="4.12773" stroke-width="0.5" stroke="Red" fill="Red"/>
   </g>
   <g id="cell48">
  <circle cx="476.801" cy="522.773" r="8.41271" stroke-width="0.5" stroke="black" fill="Red"/>
  <circle cx="476.801" cy="522.773" r="5.05167" stroke-width="0.5" stroke="Red" fill="Red"/>
   </g>
   <g id="cell49">
  <circle cx="476.46" cy="536.618" r="8.41271" stroke-width="0.5" stroke="black" fill="Red"/>
  <circle cx="476.46" cy="536.618" r="5.05167" stroke-width="0.5" stroke="Red" fill="Red"/>
   </g>
   <g id="cell50">
  <circle cx="476.884" cy="550.863" r="8.41271" stroke-width="0.5" stroke="black" fill="Red"/>
  <circle cx="476.884" cy="550.863" r="5.05167" stroke-width="0.5" stroke="Red" fill="Red"/>
   </g>
   <g id="cell51">
  <circle cx="476.456" cy="564.413" r="8.41271" stroke-width="0.5" stroke="black" fill="blue"/>
  <circle cx="476.456" cy="564.413" r="5.05167" stroke-width="0.5" stroke="blue" fill="blue"/>
   </g>
   <g id="cell52">
  <circle cx="476.111" cy="579.574" r="8.41271" stroke-width="0.5" stroke="black" fill="Red"/>
  <circle cx="476.111" cy="579.574" r="5.05167" stroke-width="0.5" stroke="Red" fill="Red"/>
   </g>
   <g id="cell53">
  <circle cx="488.072" cy="417.229" r="8.41271" stroke-width="0.5" stroke="black" fill="yellow"/>
  <circle cx="488.072" cy="417.229" r="5.05167" stroke-width="0.5" stroke="yellow" fill="yellow"/>
   </g>
   <g id="cell54">
  <circle cx="486.814" cy="431.67" r="8.41271" stroke-width="0.5" stroke="black" fill="blue"/>
  <circle cx="486.814" cy="431.67" r="5.05167" stroke-width="0.5" stroke="blue" fill="blue"/>
   </g>
   <g id="cell55">
  <circle cx="487.806" cy="445.876" r="8.41271" stroke-width="0.5" stroke="black" fill="Red"/>
  <circle cx="487.806" cy="445.876" r="5.05167" stroke-width="0.5" stroke="Red" fill="Red"/>
   </g>
   <g id="cell56">
  <circle cx="488.347" cy="459.806" r="8.41271" stroke-width="0.5" stroke="black" fill="Red"/>
  <circle cx="488.347" cy="459.806" r="5.05167" stroke-width="0.5" stroke="Red" fill="Red"/>
   </g>
   <g id="cell57">
  <circle cx="487.57" cy="474.607" r="8.41271" stroke-width="0.5" stroke="black" fill="Red"/>
  <circle cx="487.57" cy="474.607" r="5.05167" stroke-width="0.5" stroke="Red" fill="Red"/>
   </g>
   <g id="cell58">
  <circle cx="488.146" cy="488.583" r="8.41271" stroke-width="0.5" stroke="black" fill="blue"/>
  <circle cx="488.146" cy="488.583" r="5.05167" stroke-width="0.5" stroke="blue" fill="blue"/>
   </g>
   <g id="cell59">
  <circle cx="487.792" cy="503.222" r="8.41271" stroke-width="0.5" stroke="black" fill="Red"/>
  <circle cx="487.792" cy="503.222" r="5.05167" stroke-width="0.5" stroke="Red" fill="Red"/>
   </g>
   <g id="cell60">
  <circle cx="490.013" cy="517.389" r="8.41271" stroke-width="0.5" stroke="black" fill="Red"/>
  <circle cx="490.013" cy="517.389" r="5.05167" stroke-width="0.5" stroke="Red" fill="Red"/>
   </g>
   <g id="cell61">
  <circle cx="488.97" cy="530.873" r="8.41271" stroke-width="0.5" stroke="black" fill="Red"/>
  <circle cx="488.97" cy="530.873" r="5.05167" stroke-width="0.5" stroke="Red" fill="Red"/>
   </g>
   <g id="cell62">
  <circle cx="489.838" cy="543.606" r="8.41271" stroke-width="0.5" stroke="black" fill="blue"/>
  <circle cx="489.838" cy="543.606" r="5.05167" stroke-width="0.5" stroke="blue" fill="blue"/>
   </g>
   <g id="cell63">
  <circle cx="489.465" cy="557.883" r="8.41271" stroke-width="0.5" stroke="black" fill="Red"/>
  <circle cx="489.465" cy="557.883" r="5.05167" stroke-width="0.5" stroke="Red" fill="Red"/>
   </g>
   <g id="cell64">
  <circle cx="488.667" cy="572.37" r="8.41271" stroke-width="0.5" stroke="black" fill="Red"/>
  <circle cx="488.667" cy="572.37" r="5.05167" stroke-width="0.5" stroke="Red" fill="Red"/>
   </g>
   <g id="cell65">
  <circle cx="489.834" cy="586.599" r="8.41271" stroke-width="0.5" stroke="black" fill="Red"/>
  <circle cx="489.834" cy="586.599" r="5.05167" stroke-width="0.5" stroke="Red" fill="Red"/>
   </g>
   <g id="cell66">
  <circle cx="502.189" cy="410.576" r="8.41271" stroke-width="0.5" stroke="black" fill="blue"/>
  <circle cx="502.189" cy="410.576" r="5.05167" stroke-width="0.5" stroke="blue" fill="blue"/>
   </g>
   <g id="cell67">
  <circle cx="500.169" cy="424.8" r="8.41271" stroke-width="0.5" stroke="black" fill="yellow"/>
  <circle cx="500.169" cy="424.8" r="5.05167" stroke-width="0.5" stroke="yellow" fill="yellow"/>
   </g>
   <g id="cell68">
  <circle cx="499.299" cy="438.909" r="8.41271" stroke-width="0.5" stroke="black" fill="Red"/>
  <circle cx="499.299" cy="438.909" r="5.05167" stroke-width="0.5" stroke="Red" fill="Red"/>
   </g>
   <g id="cell69">
  <circle cx="501.16" cy="452.543" r="8.41271" stroke-width="0.5" stroke="black" fill="Red"/>
  <circle cx="501.16" cy="452.543" r="5.05167" stroke-width="0.5" stroke="Red" fill="Red"/>
   </g>
   <g id="cell70">
  <circle cx="501.22" cy="466.275" r="8.41271" stroke-width="0.5" stroke="black" fill="blue"/>
  <circle cx="501.22" cy="466.275" r="5.05167" stroke-width="0.5" stroke="blue" fill="blue"/>
   </g>
   <g id="cell71">
  <circle cx="501.61" cy="480.79" r="8.41271" stroke-width="0.5" stroke="black" fill="Red"/>
  <circle cx="501.61" cy="480.79" r="5.05167" stroke-width="0.5" stroke="Red" fill="Red"/>
   </g>
   <g id="cell72">
  <circle cx="500.823" cy="495.372" r="8.41271" stroke-width="0.5" stroke="black" fill="Red"/>
  <circle cx="500.823" cy="495.372" r="5.05167" stroke-width="0.5" stroke="Red" fill="Red"/>
   </g>
   <g id="cell73">
  <circle cx="502.347" cy="509.713" r="8.41271" stroke-width="0.5" stroke="black" fill="blue"/>
  <circle cx="502.347" cy="509.713" r="5.05167" stroke-width="0.5" stroke="blue" fill="blue"/>
   </g>
   <g id="cell74">
  <circle cx="501.643" cy="523.233" r="8.41271" stroke-width="0.5" stroke="black" fill="Red"/>
  <circle cx="501.643" cy="523.233" r="5.05167" stroke-width="0.5" stroke="Red" fill="Red"/>
   </g>
   <g id="cell75">
  <circle cx="501.544" cy="536.818" r="8.41271" stroke-width="0.5" stroke="black" fill="Red"/>
  <circle cx="501.544" cy="536.818" r="5.05167" stroke-width="0.5" stroke="Red" fill="Red"/>
   </g>
   <g id="cell76">
  <circle cx="501.103" cy="550.094" r="8.41271" stroke-width="0.5" stroke="black" fill="Red"/>
  <circle cx="501.103" cy="550.094" r="5.05167" stroke-width="0.5" stroke="Red" fill="Red"/>
   </g>
   <g id="cell77">
  <circle cx="501.048" cy="565.402" r="8.41271" stroke-width="0.5" stroke="black" fill="blue"/>
  <circle cx="501.048" cy="565.402" r="5.05167" stroke-width="0.5" stroke="blue" fill="blue"/>
   </g>
   <g id="cell78">
  <circle cx="501.526" cy="579.124" r="8.41271" stroke-width="0.5" stroke="black" fill="yellow"/>
  <circle cx="501.526" cy="579.124" r="5.05167" stroke-width="0.5" stroke="yellow" fill="yellow"/>
   </g>
   <g id="cell79">
  <circle cx="502.94" cy="593.785" r="8.41271" stroke-width="0.5" stroke="black" fill="blue"/>
  <circle cx="502.94" cy="593.785" r="5.05167" stroke-width="0.5" stroke="blue" fill="blue"/>
   </g>
   <g id="cell80">
  <circle cx="513.309" cy="417.044" r="8.41271" stroke-width="0.5" stroke="black" fill="yellow"/>
  <circle cx="513.309" cy="417.044" r="5.05167" stroke-width="0.5" stroke="yellow" fill="yellow"/>
   </g>
   <g id="cell81">
  <circle cx="511.735" cy="431.511" r="8.41271" stroke-width="0.5" stroke="black" fill="blue"/>
  <circle cx="511.735" cy="431.511" r="5.05167" stroke-width="0.5" stroke="blue" fill="blue"/>
   </g>
   <g id="cell82">
  <circle cx="512.197" cy="444.752" r="8.41271" stroke-width="0.5" stroke="black" fill="blue"/>
  <circle cx="512.197" cy="444.752" r="5.05167" stroke-width="0.5" stroke="blue" fill="blue"/>
   </g>
   <g id="cell83">
  <circle cx="514.34" cy="459.576" r="8.41271" stroke-width="0.5" stroke="black" fill="Red"/>
  <circle cx="514.34" cy="459.576" r="5.05167" stroke-width="0.5" stroke="Red" fill="Red"/>
   </g>
   <g id="cell84">
  <circle cx="512.627" cy="473.358" r="8.41271" stroke-width="0.5" stroke="black" fill="blue"/>
  <circle cx="512.627" cy="473.358" r="5.05167" stroke-width="0.5" stroke="blue" fill="blue"/>
   </g>
   <g id="cell85">
  <circle cx="514.25" cy="488.783" r="8.41271" stroke-width="0.5" stroke="black" fill="Red"/>
  <circle cx="514.25" cy="488.783" r="5.05167" stroke-width="0.5" stroke="Red" fill="Red"/>
   </g>
   <g id="cell86">
  <circle cx="514.24" cy="502.284" r="8.41271" stroke-width="0.5" stroke="black" fill="Red"/>
  <circle cx="514.24" cy="502.284" r="5.05167" stroke-width="0.5" stroke="Red" fill="Red"/>
   </g>
   <g id="cell87">
  <circle cx="515.207" cy="516.586" r="8.41271" stroke-width="0.5" stroke="black" fill="Red"/>
  <circle cx="515.207" cy="516.586" r="5.05167" stroke-width="0.5" stroke="Red" fill="Red"/>
   </g>
   <g id="cell88">
  <circle cx="513.597" cy="529.968" r="8.41271" stroke-width="0.5" stroke="black" fill="blue"/>
  <circle cx="513.597" cy="529.968" r="5.05167" stroke-width="0.5" stroke="blue" fill="blue"/>
   </g>
   <g id="cell89">
  <circle cx="514.365" cy="543.098" r="8.41271" stroke-width="0.5" stroke="black" fill="Red"/>
  <circle cx="514.365" cy="543.098" r="5.05167" stroke-width="0.5" stroke="Red" fill="Red"/>
   </g>
   <g id="cell90">
  <circle cx="514.891" cy="556.395" r="8.41271" stroke-width="0.5" stroke="black" fill="blue"/>
  <circle cx="514.891" cy="556.395" r="5.05167" stroke-width="0.5" stroke="blue" fill="blue"/>
   </g>
   <g id="cell91">
  <circle cx="514.062" cy="571.24" r="8.41271" stroke-width="0.5" stroke="black" fill="Red"/>
  <circle cx="514.062" cy="571.24" r="5.05167" stroke-width="0.5" stroke="Red" fill="Red"/>
   </g>
   <g id="cell92">
  <circle cx="514.257" cy="586.164" r="8.41271" stroke-width="0.5" stroke="black" fill="Red"/>
  <circle cx="514.257" cy="586.164" r="5.05167" stroke-width="0.5" stroke="Red" fill="Red"/>
   </g>
   <g id="cell93">
  <circle cx="524.618" cy="411.064" r="8.41271" stroke-width="0.5" stroke="black" fill="blue"/>
  <circle cx="524.618" cy="411.064" r="5.05167" stroke-width="0.5" stroke="blue" fill="blue"/>
   </g>
   <g id="cell94">
  <circle cx="526.69" cy="424.787" r="8.41271" stroke-width="0.5" stroke="black" fill="yellow"/>
  <circle cx="526.69" cy="424.787" r="5.05167" stroke-width="0.5" stroke="yellow" fill="yellow"/>
   </g>
   <g id="cell95">
  <circle cx="525.584" cy="439.823" r="8.41271" stroke-width="0.5" stroke="black" fill="Red"/>
  <circle cx="525.584" cy="439.823" r="5.05167" stroke-width="0.5" stroke="Red" fill="Red"/>
   </g>
   <g id="cell96">
  <circle cx="522.708" cy="451.661" r="6.83713" stroke-width="0.5" stroke="black" fill="blue"/>
  <circle cx="522.708" cy="451.661" r="4.12773" stroke-width="0.5" stroke="blue" fill="blue"/>
   </g>
   <g id="cell97">
  <circle cx="525.131" cy="467.847" r="8.41271" stroke-width="0.5" stroke="black" fill="Red"/>
  <circle cx="525.131" cy="467.847" r="5.05167" stroke-width="0.5" stroke="Red" fill="Red"/>
   </g>
   <g id="cell98">
  <circle cx="526.54" cy="482.172" r="8.41271" stroke-width="0.5" stroke="black" fill="Red"/>
  <circle cx="526.54" cy="482.172" r="5.05167" stroke-width="0.5" stroke="Red" fill="Red"/>
   </g>
   <g id="cell99">
  <circle cx="527.264" cy="496.401" r="8.41271" stroke-width="0.5" stroke="black" fill="Red"/>
  <circle cx="527.264" cy="496.401" r="5.05167" stroke-width="0.5" stroke="Red" fill="Red"/>
   </g>
   <g id="cell100">
  <circle cx="526.799" cy="509.959" r="8.41271" stroke-width="0.5" stroke="black" fill="blue"/>
  <circle cx="526.799" cy="509.959" r="5.05167" stroke-width="0.5" stroke="blue" fill="blue"/>
   </g>
   <g id="cell101">
  <circle cx="528.115" cy="524.479" r="8.41271" stroke-width="0.5" stroke="black" fill="Red"/>
  <circle cx="528.115" cy="524.479" r="5.05167" stroke-width="0.5" stroke="Red" fill="Red"/>
   </g>
   <g id="cell102">
  <circle cx="533.497" cy="537.75" r="6.75639" stroke-width="0.5" stroke="black" fill="blue"/>
  <circle cx="533.497" cy="537.75" r="4.06813" stroke-width="0.5" stroke="blue" fill="blue"/>
   </g>
   <g id="cell103">
  <circle cx="528.15" cy="548.921" r="8.41271" stroke-width="0.5" stroke="black" fill="Red"/>
  <circle cx="528.15" cy="548.921" r="5.05167" stroke-width="0.5" stroke="Red" fill="Red"/>
   </g>
   <g id="cell104">
  <circle cx="525.907" cy="564.994" r="8.41271" stroke-width="0.5" stroke="black" fill="Red"/>
  <circle cx="525.907" cy="564.994" r="5.05167" stroke-width="0.5" stroke="Red" fill="Red"/>
   </g>
   <g id="cell105">
  <circle cx="526.875" cy="579.588" r="8.41271" stroke-width="0.5" stroke="black" fill="blue"/>
  <circle cx="526.875" cy="579.588" r="5.05167" stroke-width="0.5" stroke="blue" fill="blue"/>
   </g>
   <g id="cell106">
  <circle cx="540.235" cy="418.479" r="8.41271" stroke-width="0.5" stroke="black" fill="yellow"/>
  <circle cx="540.235" cy="418.479" r="5.05167" stroke-width="0.5" stroke="yellow" fill="yellow"/>
   </g>
   <g id="cell107">
  <circle cx="538.387" cy="434.055" r="8.41271" stroke-width="0.5" stroke="black" fill="yellow"/>
  <circle cx="538.387" cy="434.055" r="5.05167" stroke-width="0.5" stroke="yellow" fill="yellow"/>
   </g>
   <g id="cell108">
  <circle cx="536.057" cy="449.642" r="8.41271" stroke-width="0.5" stroke="black" fill="Red"/>
  <circle cx="536.057" cy="449.642" r="5.05167" stroke-width="0.5" stroke="Red" fill="Red"/>
   </g>
   <g id="cell109">
  <circle cx="543.31" cy="460.244" r="8.41271" stroke-width="0.5" stroke="black" fill="Red"/>
  <circle cx="543.31" cy="460.244" r="5.05167" stroke-width="0.5" stroke="Red" fill="Red"/>
   </g>
   <g id="cell110">
  <circle cx="539.904" cy="474.8" r="8.41271" stroke-width="0.5" stroke="black" fill="Red"/>
  <circle cx="539.904" cy="474.8" r="5.05167" stroke-width="0.5" stroke="Red" fill="Red"/>
   </g>
   <g id="cell111">
  <circle cx="539.882" cy="488.829" r="8.41271" stroke-width="0.5" stroke="black" fill="Red"/>
  <circle cx="539.882" cy="488.829" r="5.05167" stroke-width="0.5" stroke="Red" fill="Red"/>
   </g>
   <g id="cell112">
  <circle cx="540.111" cy="502.141" r="8.41271" stroke-width="0.5" stroke="black" fill="Red"/>
  <circle cx="540.111" cy="502.141" r="5.05167" stroke-width="0.5" stroke="Red" fill="Red"/>
   </g>
   <g id="cell113">
  <circle cx="539.789" cy="515.517" r="8.41271" stroke-width="0.5" stroke="black" fill="Red"/>
  <circle cx="539.789" cy="515.517" r="5.05167" stroke-width="0.5" stroke="Red" fill="Red"/>
   </g>
   <g id="cell114">
  <circle cx="543.228" cy="529.133" r="8.41271" stroke-width="0.5" stroke="black" fill="Red"/>
  <circle cx="543.228" cy="529.133" r="5.05167" stroke-width="0.5" stroke="Red" fill="Red"/>
   </g>
   <g id="cell115">
  <circle cx="543.014" cy="543.999" r="8.41271" stroke-width="0.5" stroke="black" fill="Red"/>
  <circle cx="543.014" cy="543.999" r="5.05167" stroke-width="0.5" stroke="Red" fill="Red"/>
   </g>
   <g id="cell116">
  <circle cx="540.368" cy="557.473" r="8.41271" stroke-width="0.5" stroke="black" fill="Red"/>
  <circle cx="540.368" cy="557.473" r="5.05167" stroke-width="0.5" stroke="Red" fill="Red"/>
   </g>
   <g id="cell117">
  <circle cx="538.747" cy="572.579" r="8.41271" stroke-width="0.5" stroke="black" fill="blue"/>
  <circle cx="538.747" cy="572.579" r="5.05167" stroke-width="0.5" stroke="blue" fill="blue"/>
   </g>
   <g id="cell118">
  <circle cx="552.799" cy="427.151" r="8.41271" stroke-width="0.5" stroke="black" fill="blue"/>
  <circle cx="552.799" cy="427.151" r="5.05167" stroke-width="0.5" stroke="blue" fill="blue"/>
   </g>
   <g id="cell119">
  <circle cx="552.37" cy="440.529" r="8.41271" stroke-width="0.5" stroke="black" fill="yellow"/>
  <circle cx="552.37" cy="440.529" r="5.05167" stroke-width="0.5" stroke="yellow" fill="yellow"/>
   </g>
   <g id="cell120">
  <circle cx="554.68" cy="454.056" r="8.41271" stroke-width="0.5" stroke="black" fill="yellow"/>
  <circle cx="554.68" cy="454.056" r="5.05167" stroke-width="0.5" stroke="yellow" fill="yellow"/>
   </g>
   <g id="cell121">
  <circle cx="554.093" cy="469.487" r="8.41271" stroke-width="0.5" stroke="black" fill="blue"/>
  <circle cx="554.093" cy="469.487" r="5.05167" stroke-width="0.5" stroke="blue" fill="blue"/>
   </g>
   <g id="cell122">
  <circle cx="552.649" cy="482.943" r="8.41271" stroke-width="0.5" stroke="black" fill="Red"/>
  <circle cx="552.649" cy="482.943" r="5.05167" stroke-width="0.5" stroke="Red" fill="Red"/>
   </g>
   <g id="cell123">
  <circle cx="553.722" cy="497.172" r="8.41271" stroke-width="0.5" stroke="black" fill="Red"/>
  <circle cx="553.722" cy="497.172" r="5.05167" stroke-width="0.5" stroke="Red" fill="Red"/>
   </g>
   <g id="cell124">
  <circle cx="554.285" cy="510.101" r="8.41271" stroke-width="0.5" stroke="black" fill="blue"/>
  <circle cx="554.285" cy="510.101" r="5.05167" stroke-width="0.5" stroke="blue" fill="blue"/>
   </g>
   <g id="cell125">
  <circle cx="555.086" cy="523.101" r="8.41271" stroke-width="0.5" stroke="black" fill="Red"/>
  <circle cx="555.086" cy="523.101" r="5.05167" stroke-width="0.5" stroke="Red" fill="Red"/>
   </g>
   <g id="cell126">
  <circle cx="554.925" cy="537.584" r="8.41271" stroke-width="0.5" stroke="black" fill="blue"/>
  <circle cx="554.925" cy="537.584" r="5.05167" stroke-width="0.5" stroke="blue" fill="blue"/>
   </g>
   <g id="cell127">
  <circle cx="553.656" cy="552.625" r="8.41271" stroke-width="0.5" stroke="black" fill="Red"/>
  <circle cx="553.656" cy="552.625" r="5.05167" stroke-width="0.5" stroke="Red" fill="Red"/>
   </g>
   <g id="cell128">
  <circle cx="553.3" cy="567.067" r="8.41271" stroke-width="0.5" stroke="black" fill="Red"/>
  <circle cx="553.3" cy="567.067" r="5.05167" stroke-width="0.5" stroke="Red" fill="Red"/>
   </g>
   <g id="cell129">
  <circle cx="566.261" cy="446.8" r="8.41271" stroke-width="0.5" stroke="black" fill="blue"/>
  <circle cx="566.261" cy="446.8" r="5.05167" stroke-width="0.5" stroke="blue" fill="blue"/>
   </g>
   <g id="cell130">
  <circle cx="566.774" cy="460.313" r="8.41271" stroke-width="0.5" stroke="black" fill="yellow"/>
  <circle cx="566.774" cy="460.313" r="5.05167" stroke-width="0.5" stroke="yellow" fill="yellow"/>
   </g>
   <g id="cell131">
  <circle cx="566.485" cy="475.838" r="8.41271" stroke-width="0.5" stroke="black" fill="yellow"/>
  <circle cx="566.485" cy="475.838" r="5.05167" stroke-width="0.5" stroke="yellow" fill="yellow"/>
   </g>
   <g id="cell132">
  <circle cx="565.081" cy="488.865" r="8.41271" stroke-width="0.5" stroke="black" fill="blue"/>
  <circle cx="565.081" cy="488.865" r="5.05167" stroke-width="0.5" stroke="blue" fill="blue"/>
   </g>
   <g id="cell133">
  <circle cx="566.396" cy="502.396" r="8.41271" stroke-width="0.5" stroke="black" fill="Red"/>
  <circle cx="566.396" cy="502.396" r="5.05167" stroke-width="0.5" stroke="Red" fill="Red"/>
   </g>
   <g id="cell134">
  <circle cx="566.69" cy="516.36" r="8.41271" stroke-width="0.5" stroke="black" fill="Red"/>
  <circle cx="566.69" cy="516.36" r="5.05167" stroke-width="0.5" stroke="Red" fill="Red"/>
   </g>
   <g id="cell135">
  <circle cx="567.294" cy="530.311" r="8.41271" stroke-width="0.5" stroke="black" fill="yellow"/>
  <circle cx="567.294" cy="530.311" r="5.05167" stroke-width="0.5" stroke="yellow" fill="yellow"/>
   </g>
   <g id="cell136">
  <circle cx="567.031" cy="545.741" r="8.41271" stroke-width="0.5" stroke="black" fill="yellow"/>
  <circle cx="567.031" cy="545.741" r="5.05167" stroke-width="0.5" stroke="yellow" fill="yellow"/>
   </g>
   <g id="cell137">
  <circle cx="565.861" cy="559.315" r="8.41271" stroke-width="0.5" stroke="black" fill="blue"/>
  <circle cx="565.861" cy="559.315" r="5.05167" stroke-width="0.5" stroke="blue" fill="blue"/>
   </g>
   <g id="cell138">
  <circle cx="578.089" cy="468.599" r="8.41271" stroke-width="0.5" stroke="black" fill="blue"/>
  <circle cx="578.089" cy="468.599" r="5.05167" stroke-width="0.5" stroke="blue" fill="blue"/>
   </g>
   <g id="cell139">
  <circle cx="579.271" cy="481.998" r="8.41271" stroke-width="0.5" stroke="black" fill="yellow"/>
  <circle cx="579.271" cy="481.998" r="5.05167" stroke-width="0.5" stroke="yellow" fill="yellow"/>
   </g>
   <g id="cell140">
  <circle cx="577.625" cy="494.772" r="6.86652" stroke-width="0.5" stroke="black" fill="yellow"/>
  <circle cx="577.625" cy="494.772" r="4.14883" stroke-width="0.5" stroke="yellow" fill="yellow"/>
   </g>
   <g id="cell141">
  <circle cx="578.663" cy="509.403" r="8.41271" stroke-width="0.5" stroke="black" fill="yellow"/>
  <circle cx="578.663" cy="509.403" r="5.05167" stroke-width="0.5" stroke="yellow" fill="yellow"/>
   </g>
   <g id="cell142">
  <circle cx="579.878" cy="523.874" r="8.41271" stroke-width="0.5" stroke="black" fill="Red"/>
  <circle cx="579.878" cy="523.874" r="5.05167" stroke-width="0.5" stroke="Red" fill="Red"/>
   </g>
   <g id="cell143">
  <circle cx="578.142" cy="537.506" r="8.41271" stroke-width="0.5" stroke="black" fill="blue"/>
  <circle cx="578.142" cy="537.506" r="5.05167" stroke-width="0.5" stroke="blue" fill="blue"/>
   </g>
   <g id="cell144">
  <circle cx="439.602" cy="438.188" r="6.86652" stroke-width="0.5" stroke="black" fill="Red"/>
  <circle cx="439.602" cy="438.188" r="4.14883" stroke-width="0.5" stroke="Red" fill="Red"/>
   </g>
   <g id="cell145">
  <circle cx="588.085" cy="500.432" r="6.86652" stroke-width="0.5" stroke="black" fill="blue"/>
  <circle cx="588.085" cy="500.432" r="4.14883" stroke-width="0.5" stroke="blue" fill="blue"/>
   </g>
   <g id="cell146">
  <circle cx="478.986" cy="511.692" r="6.83713" stroke-width="0.5" stroke="black" fill="blue"/>
  <circle cx="478.986" cy="511.692" r="4.12773" stroke-width="0.5" stroke="blue" fill="blue"/>
   </g>
   <g id="cell147">
  <circle cx="529.426" cy="458.254" r="5.54538" stroke-width="0.5" stroke="black" fill="Red"/>
  <circle cx="529.426" cy="458.254" r="3.36222" stroke-width="0.5" stroke="Red" fill="Red"/>
   </g>
   <g id="cell148">
  <circle cx="523.543" cy="535.92" r="6.75639" stroke-width="0.5" stroke="black" fill="blue"/>
  <circle cx="523.543" cy="535.92" r="4.06813" stroke-width="0.5" stroke="blue" fill="blue"/>
   </g>
   <g id="cell149">
  <circle cx="535.003" cy="465.127" r="5.54538" stroke-width="0.5" stroke="black" fill="blue"/>
  <circle cx="535.003" cy="465.127" r="3.36222" stroke-width="0.5" stroke="blue" fill="blue"/>
   </g>
  </g>
 </g>
  <rect x="775" y="1035" width="200" height="10" stroke-width="2" stroke="rgb(255,255,255)" fill="rgb(0,0,0)"/>
  <text x="781.25" y="1028.75"
   font-family="Arial" font-size="25" fill="black" >
   200 &#956;m
  </text>
  <text x="25" y="1045"
   font-family="Arial" font-size="18.75" fill="black" >
   0 days, 0 hours, 0 minutes, and 18.1342 seconds
  </text>
  <rect x="0" y="70" width="1000" height="1000" stroke-width="2" stroke="rgb(0,0,0)" fill="none"/>
</svg>
