<?xml version="1.0" encoding="UTF-8" standalone="no"?>
<!-- Created with PhysiCell (http://PhysiCell.MathCancer.org/) -->
<svg 
 xmlns:dc="http://purl.org/dc/elements/1.1/" 
 xmlns:cc="http://creativecommons.org/ns#" 
 xmlns:rdf="http://www.w3.org/1999/02/22-rdf-syntax-ns#" 
 xmlns:svg="http://www.w3.org/2000/svg" 
 xmlns="http://www.w3.org/2000/svg" 
 version="1.1" 
 width="1000" 
 height="1070" 
 id="svg2">
  <rect x="0" y="0" width="1000" height="1070" stroke-width="2" stroke="white" fill="white"/>
  <text x="12.5" y="30"
   font-family="Arial" font-size="25" fill="black" >
   Current time: 0 days, 3 hours, and 35.00 minutes, z = 0.00 &#956;m
  </text>
  <text x="12.5" y="57.5"
   font-family="Arial" font-size="23.75" fill="black" >
   175 agents
  </text>
 <g id="tissue" 
    transform="translate(0,1070) scale(1,-1)">
  <g id="ECM">
  </g>
  <g id="cells">
   <g id="cell0">
  <circle cx="429.383" cy="447.533" r="8.41271" stroke-width="0.5" stroke="black" fill="yellow"/>
  <circle cx="429.383" cy="447.533" r="5.05167" stroke-width="0.5" stroke="yellow" fill="yellow"/>
   </g>
   <g id="cell1">
  <circle cx="426.953" cy="467.225" r="6.80881" stroke-width="0.5" stroke="black" fill="yellow"/>
  <circle cx="426.953" cy="467.225" r="4.10709" stroke-width="0.5" stroke="yellow" fill="yellow"/>
   </g>
   <g id="cell2">
  <circle cx="426.315" cy="481.692" r="8.41271" stroke-width="0.5" stroke="black" fill="blue"/>
  <circle cx="426.315" cy="481.692" r="5.05167" stroke-width="0.5" stroke="blue" fill="blue"/>
   </g>
   <g id="cell3">
  <circle cx="424.939" cy="492.951" r="7.02257" stroke-width="0.5" stroke="black" fill="Red"/>
  <circle cx="424.939" cy="492.951" r="4.25644" stroke-width="0.5" stroke="Red" fill="Red"/>
   </g>
   <g id="cell4">
  <circle cx="431.943" cy="512.164" r="8.41271" stroke-width="0.5" stroke="black" fill="Red"/>
  <circle cx="431.943" cy="512.164" r="5.05167" stroke-width="0.5" stroke="Red" fill="Red"/>
   </g>
   <g id="cell5">
  <circle cx="420.803" cy="529.575" r="6.92764" stroke-width="0.5" stroke="black" fill="blue"/>
  <circle cx="420.803" cy="529.575" r="4.1918" stroke-width="0.5" stroke="blue" fill="blue"/>
   </g>
   <g id="cell6">
  <circle cx="427.915" cy="538.483" r="8.41271" stroke-width="0.5" stroke="black" fill="blue"/>
  <circle cx="427.915" cy="538.483" r="5.05167" stroke-width="0.5" stroke="blue" fill="blue"/>
   </g>
   <g id="cell7">
  <circle cx="442.582" cy="445.355" r="7.59183" stroke-width="0.5" stroke="black" fill="Red"/>
  <circle cx="442.582" cy="445.355" r="4.61399" stroke-width="0.5" stroke="Red" fill="Red"/>
   </g>
   <g id="cell8">
  <circle cx="437.311" cy="459.152" r="8.41271" stroke-width="0.5" stroke="black" fill="yellow"/>
  <circle cx="437.311" cy="459.152" r="5.05167" stroke-width="0.5" stroke="yellow" fill="yellow"/>
   </g>
   <g id="cell9">
  <circle cx="439.182" cy="474.706" r="8.41271" stroke-width="0.5" stroke="black" fill="Red"/>
  <circle cx="439.182" cy="474.706" r="5.05167" stroke-width="0.5" stroke="Red" fill="Red"/>
   </g>
   <g id="cell10">
  <circle cx="438.738" cy="487.328" r="8.41271" stroke-width="0.5" stroke="black" fill="Red"/>
  <circle cx="438.738" cy="487.328" r="5.05167" stroke-width="0.5" stroke="Red" fill="Red"/>
   </g>
   <g id="cell11">
  <circle cx="444" cy="504.422" r="8.41271" stroke-width="0.5" stroke="black" fill="Red"/>
  <circle cx="444" cy="504.422" r="5.05167" stroke-width="0.5" stroke="Red" fill="Red"/>
   </g>
   <g id="cell12">
  <circle cx="437.191" cy="523.156" r="7.3599" stroke-width="0.5" stroke="black" fill="Red"/>
  <circle cx="437.191" cy="523.156" r="4.47294" stroke-width="0.5" stroke="Red" fill="Red"/>
   </g>
   <g id="cell13">
  <circle cx="440.73" cy="534.536" r="8.41271" stroke-width="0.5" stroke="black" fill="yellow"/>
  <circle cx="440.73" cy="534.536" r="5.05167" stroke-width="0.5" stroke="yellow" fill="yellow"/>
   </g>
   <g id="cell14">
  <circle cx="439.137" cy="547.441" r="8.41271" stroke-width="0.5" stroke="black" fill="yellow"/>
  <circle cx="439.137" cy="547.441" r="5.05167" stroke-width="0.5" stroke="yellow" fill="yellow"/>
   </g>
   <g id="cell15">
  <circle cx="438.824" cy="561.401" r="8.41271" stroke-width="0.5" stroke="black" fill="blue"/>
  <circle cx="438.824" cy="561.401" r="5.05167" stroke-width="0.5" stroke="blue" fill="blue"/>
   </g>
   <g id="cell16">
  <circle cx="454.976" cy="424.989" r="6.59067" stroke-width="0.5" stroke="black" fill="yellow"/>
  <circle cx="454.976" cy="424.989" r="4.04529" stroke-width="0.5" stroke="yellow" fill="yellow"/>
   </g>
   <g id="cell17">
  <circle cx="453.05" cy="437.926" r="8.41271" stroke-width="0.5" stroke="black" fill="Red"/>
  <circle cx="453.05" cy="437.926" r="5.05167" stroke-width="0.5" stroke="Red" fill="Red"/>
   </g>
   <g id="cell18">
  <circle cx="450.469" cy="454.947" r="8.41271" stroke-width="0.5" stroke="black" fill="Red"/>
  <circle cx="450.469" cy="454.947" r="5.05167" stroke-width="0.5" stroke="Red" fill="Red"/>
   </g>
   <g id="cell19">
  <circle cx="449.186" cy="467.519" r="8.41271" stroke-width="0.5" stroke="black" fill="blue"/>
  <circle cx="449.186" cy="467.519" r="5.05167" stroke-width="0.5" stroke="blue" fill="blue"/>
   </g>
   <g id="cell20">
  <circle cx="452.517" cy="481.307" r="8.41271" stroke-width="0.5" stroke="black" fill="Red"/>
  <circle cx="452.517" cy="481.307" r="5.05167" stroke-width="0.5" stroke="Red" fill="Red"/>
   </g>
   <g id="cell21">
  <circle cx="449.202" cy="494.173" r="8.41271" stroke-width="0.5" stroke="black" fill="Red"/>
  <circle cx="449.202" cy="494.173" r="5.05167" stroke-width="0.5" stroke="Red" fill="Red"/>
   </g>
   <g id="cell22">
  <circle cx="455.197" cy="510.915" r="8.41271" stroke-width="0.5" stroke="black" fill="Red"/>
  <circle cx="455.197" cy="510.915" r="5.05167" stroke-width="0.5" stroke="Red" fill="Red"/>
   </g>
   <g id="cell23">
  <circle cx="451.898" cy="526.46" r="8.41271" stroke-width="0.5" stroke="black" fill="yellow"/>
  <circle cx="451.898" cy="526.46" r="5.05167" stroke-width="0.5" stroke="yellow" fill="yellow"/>
   </g>
   <g id="cell24">
  <circle cx="452.165" cy="540.191" r="8.41271" stroke-width="0.5" stroke="black" fill="blue"/>
  <circle cx="452.165" cy="540.191" r="5.05167" stroke-width="0.5" stroke="blue" fill="blue"/>
   </g>
   <g id="cell25">
  <circle cx="451.628" cy="554.808" r="8.41271" stroke-width="0.5" stroke="black" fill="yellow"/>
  <circle cx="451.628" cy="554.808" r="5.05167" stroke-width="0.5" stroke="yellow" fill="yellow"/>
   </g>
   <g id="cell26">
  <circle cx="451.162" cy="569.103" r="8.41271" stroke-width="0.5" stroke="black" fill="yellow"/>
  <circle cx="451.162" cy="569.103" r="5.05167" stroke-width="0.5" stroke="yellow" fill="yellow"/>
   </g>
   <g id="cell27">
  <circle cx="464.087" cy="415.695" r="8.41271" stroke-width="0.5" stroke="black" fill="yellow"/>
  <circle cx="464.087" cy="415.695" r="5.05167" stroke-width="0.5" stroke="yellow" fill="yellow"/>
   </g>
   <g id="cell28">
  <circle cx="464.932" cy="430.695" r="8.41271" stroke-width="0.5" stroke="black" fill="Red"/>
  <circle cx="464.932" cy="430.695" r="5.05167" stroke-width="0.5" stroke="Red" fill="Red"/>
   </g>
   <g id="cell29">
  <circle cx="459.316" cy="447.748" r="6.95901" stroke-width="0.5" stroke="black" fill="Red"/>
  <circle cx="459.316" cy="447.748" r="4.21341" stroke-width="0.5" stroke="Red" fill="Red"/>
   </g>
   <g id="cell30">
  <circle cx="463.589" cy="459.591" r="8.41271" stroke-width="0.5" stroke="black" fill="Red"/>
  <circle cx="463.589" cy="459.591" r="5.05167" stroke-width="0.5" stroke="Red" fill="Red"/>
   </g>
   <g id="cell31">
  <circle cx="463.019" cy="474.053" r="8.41271" stroke-width="0.5" stroke="black" fill="Red"/>
  <circle cx="463.019" cy="474.053" r="5.05167" stroke-width="0.5" stroke="Red" fill="Red"/>
   </g>
   <g id="cell32">
  <circle cx="465.971" cy="487.346" r="8.41271" stroke-width="0.5" stroke="black" fill="blue"/>
  <circle cx="465.971" cy="487.346" r="5.05167" stroke-width="0.5" stroke="blue" fill="blue"/>
   </g>
   <g id="cell33">
  <circle cx="461.197" cy="498.836" r="8.41271" stroke-width="0.5" stroke="black" fill="Red"/>
  <circle cx="461.197" cy="498.836" r="5.05167" stroke-width="0.5" stroke="Red" fill="Red"/>
   </g>
   <g id="cell34">
  <circle cx="463.636" cy="520.401" r="8.41271" stroke-width="0.5" stroke="black" fill="Red"/>
  <circle cx="463.636" cy="520.401" r="5.05167" stroke-width="0.5" stroke="Red" fill="Red"/>
   </g>
   <g id="cell35">
  <circle cx="462.531" cy="534.018" r="8.41271" stroke-width="0.5" stroke="black" fill="Red"/>
  <circle cx="462.531" cy="534.018" r="5.05167" stroke-width="0.5" stroke="Red" fill="Red"/>
   </g>
   <g id="cell36">
  <circle cx="465.409" cy="546.834" r="8.41271" stroke-width="0.5" stroke="black" fill="Red"/>
  <circle cx="465.409" cy="546.834" r="5.05167" stroke-width="0.5" stroke="Red" fill="Red"/>
   </g>
   <g id="cell37">
  <circle cx="464.618" cy="560.708" r="8.41271" stroke-width="0.5" stroke="black" fill="Red"/>
  <circle cx="464.618" cy="560.708" r="5.05167" stroke-width="0.5" stroke="Red" fill="Red"/>
   </g>
   <g id="cell38">
  <circle cx="464.834" cy="574.424" r="8.41271" stroke-width="0.5" stroke="black" fill="Red"/>
  <circle cx="464.834" cy="574.424" r="5.05167" stroke-width="0.5" stroke="Red" fill="Red"/>
   </g>
   <g id="cell39">
  <circle cx="465.162" cy="586.456" r="6.75639" stroke-width="0.5" stroke="black" fill="blue"/>
  <circle cx="465.162" cy="586.456" r="4.06813" stroke-width="0.5" stroke="blue" fill="blue"/>
   </g>
   <g id="cell40">
  <circle cx="476.719" cy="408.061" r="8.41271" stroke-width="0.5" stroke="black" fill="blue"/>
  <circle cx="476.719" cy="408.061" r="5.05167" stroke-width="0.5" stroke="blue" fill="blue"/>
   </g>
   <g id="cell41">
  <circle cx="476.335" cy="422.825" r="8.41271" stroke-width="0.5" stroke="black" fill="yellow"/>
  <circle cx="476.335" cy="422.825" r="5.05167" stroke-width="0.5" stroke="yellow" fill="yellow"/>
   </g>
   <g id="cell42">
  <circle cx="477.488" cy="437.836" r="8.41271" stroke-width="0.5" stroke="black" fill="Red"/>
  <circle cx="477.488" cy="437.836" r="5.05167" stroke-width="0.5" stroke="Red" fill="Red"/>
   </g>
   <g id="cell43">
  <circle cx="473.908" cy="452.221" r="8.41271" stroke-width="0.5" stroke="black" fill="Red"/>
  <circle cx="473.908" cy="452.221" r="5.05167" stroke-width="0.5" stroke="Red" fill="Red"/>
   </g>
   <g id="cell44">
  <circle cx="475.338" cy="466.286" r="8.41271" stroke-width="0.5" stroke="black" fill="Red"/>
  <circle cx="475.338" cy="466.286" r="5.05167" stroke-width="0.5" stroke="Red" fill="Red"/>
   </g>
   <g id="cell45">
  <circle cx="476.177" cy="480.664" r="8.41271" stroke-width="0.5" stroke="black" fill="Red"/>
  <circle cx="476.177" cy="480.664" r="5.05167" stroke-width="0.5" stroke="Red" fill="Red"/>
   </g>
   <g id="cell46">
  <circle cx="476.416" cy="496.176" r="8.41271" stroke-width="0.5" stroke="black" fill="Red"/>
  <circle cx="476.416" cy="496.176" r="5.05167" stroke-width="0.5" stroke="Red" fill="Red"/>
   </g>
   <g id="cell47">
  <circle cx="469.239" cy="507.497" r="7.56839" stroke-width="0.5" stroke="black" fill="Red"/>
  <circle cx="469.239" cy="507.497" r="4.59998" stroke-width="0.5" stroke="Red" fill="Red"/>
   </g>
   <g id="cell48">
  <circle cx="481.453" cy="524.86" r="7.18097" stroke-width="0.5" stroke="black" fill="Red"/>
  <circle cx="481.453" cy="524.86" r="4.36015" stroke-width="0.5" stroke="Red" fill="Red"/>
   </g>
   <g id="cell49">
  <circle cx="476.653" cy="539.153" r="8.41271" stroke-width="0.5" stroke="black" fill="Red"/>
  <circle cx="476.653" cy="539.153" r="5.05167" stroke-width="0.5" stroke="Red" fill="Red"/>
   </g>
   <g id="cell50">
  <circle cx="477.153" cy="552.887" r="8.41271" stroke-width="0.5" stroke="black" fill="blue"/>
  <circle cx="477.153" cy="552.887" r="5.05167" stroke-width="0.5" stroke="blue" fill="blue"/>
   </g>
   <g id="cell51">
  <circle cx="477.503" cy="565.213" r="8.41271" stroke-width="0.5" stroke="black" fill="blue"/>
  <circle cx="477.503" cy="565.213" r="5.05167" stroke-width="0.5" stroke="blue" fill="blue"/>
   </g>
   <g id="cell52">
  <circle cx="477.541" cy="580.003" r="8.41271" stroke-width="0.5" stroke="black" fill="yellow"/>
  <circle cx="477.541" cy="580.003" r="5.05167" stroke-width="0.5" stroke="yellow" fill="yellow"/>
   </g>
   <g id="cell53">
  <circle cx="488.717" cy="414.215" r="8.41271" stroke-width="0.5" stroke="black" fill="yellow"/>
  <circle cx="488.717" cy="414.215" r="5.05167" stroke-width="0.5" stroke="yellow" fill="yellow"/>
   </g>
   <g id="cell54">
  <circle cx="489.215" cy="428.493" r="8.41271" stroke-width="0.5" stroke="black" fill="Red"/>
  <circle cx="489.215" cy="428.493" r="5.05167" stroke-width="0.5" stroke="Red" fill="Red"/>
   </g>
   <g id="cell55">
  <circle cx="484.632" cy="448.387" r="6.95901" stroke-width="0.5" stroke="black" fill="Red"/>
  <circle cx="484.632" cy="448.387" r="4.21341" stroke-width="0.5" stroke="Red" fill="Red"/>
   </g>
   <g id="cell56">
  <circle cx="493.528" cy="464.609" r="7.30216" stroke-width="0.5" stroke="black" fill="blue"/>
  <circle cx="493.528" cy="464.609" r="4.43696" stroke-width="0.5" stroke="blue" fill="blue"/>
   </g>
   <g id="cell57">
  <circle cx="486.858" cy="473.582" r="8.41271" stroke-width="0.5" stroke="black" fill="Red"/>
  <circle cx="486.858" cy="473.582" r="5.05167" stroke-width="0.5" stroke="Red" fill="Red"/>
   </g>
   <g id="cell58">
  <circle cx="488.543" cy="487.929" r="8.41271" stroke-width="0.5" stroke="black" fill="blue"/>
  <circle cx="488.543" cy="487.929" r="5.05167" stroke-width="0.5" stroke="blue" fill="blue"/>
   </g>
   <g id="cell59">
  <circle cx="488.951" cy="502.595" r="8.41271" stroke-width="0.5" stroke="black" fill="Red"/>
  <circle cx="488.951" cy="502.595" r="5.05167" stroke-width="0.5" stroke="Red" fill="Red"/>
   </g>
   <g id="cell60">
  <circle cx="489.981" cy="516.641" r="8.41271" stroke-width="0.5" stroke="black" fill="Red"/>
  <circle cx="489.981" cy="516.641" r="5.05167" stroke-width="0.5" stroke="Red" fill="Red"/>
   </g>
   <g id="cell61">
  <circle cx="489.974" cy="531.659" r="8.41271" stroke-width="0.5" stroke="black" fill="Red"/>
  <circle cx="489.974" cy="531.659" r="5.05167" stroke-width="0.5" stroke="Red" fill="Red"/>
   </g>
   <g id="cell62">
  <circle cx="487.477" cy="544.795" r="8.41271" stroke-width="0.5" stroke="black" fill="blue"/>
  <circle cx="487.477" cy="544.795" r="5.05167" stroke-width="0.5" stroke="blue" fill="blue"/>
   </g>
   <g id="cell63">
  <circle cx="490.588" cy="559.269" r="8.41271" stroke-width="0.5" stroke="black" fill="Red"/>
  <circle cx="490.588" cy="559.269" r="5.05167" stroke-width="0.5" stroke="Red" fill="Red"/>
   </g>
   <g id="cell64">
  <circle cx="489.676" cy="573.747" r="8.41271" stroke-width="0.5" stroke="black" fill="Red"/>
  <circle cx="489.676" cy="573.747" r="5.05167" stroke-width="0.5" stroke="Red" fill="Red"/>
   </g>
   <g id="cell65">
  <circle cx="488.795" cy="588.673" r="8.41271" stroke-width="0.5" stroke="black" fill="Red"/>
  <circle cx="488.795" cy="588.673" r="5.05167" stroke-width="0.5" stroke="Red" fill="Red"/>
   </g>
   <g id="cell66">
  <circle cx="501.448" cy="410.161" r="8.41271" stroke-width="0.5" stroke="black" fill="blue"/>
  <circle cx="501.448" cy="410.161" r="5.05167" stroke-width="0.5" stroke="blue" fill="blue"/>
   </g>
   <g id="cell67">
  <circle cx="502.482" cy="424.255" r="8.41271" stroke-width="0.5" stroke="black" fill="Red"/>
  <circle cx="502.482" cy="424.255" r="5.05167" stroke-width="0.5" stroke="Red" fill="Red"/>
   </g>
   <g id="cell68">
  <circle cx="500.963" cy="437.684" r="8.41271" stroke-width="0.5" stroke="black" fill="Red"/>
  <circle cx="500.963" cy="437.684" r="5.05167" stroke-width="0.5" stroke="Red" fill="Red"/>
   </g>
   <g id="cell69">
  <circle cx="495.921" cy="452.018" r="8.41271" stroke-width="0.5" stroke="black" fill="Red"/>
  <circle cx="495.921" cy="452.018" r="5.05167" stroke-width="0.5" stroke="Red" fill="Red"/>
   </g>
   <g id="cell70">
  <circle cx="502.592" cy="469.266" r="8.41271" stroke-width="0.5" stroke="black" fill="blue"/>
  <circle cx="502.592" cy="469.266" r="5.05167" stroke-width="0.5" stroke="blue" fill="blue"/>
   </g>
   <g id="cell71">
  <circle cx="497.685" cy="479.639" r="8.41271" stroke-width="0.5" stroke="black" fill="Red"/>
  <circle cx="497.685" cy="479.639" r="5.05167" stroke-width="0.5" stroke="Red" fill="Red"/>
   </g>
   <g id="cell72">
  <circle cx="500.28" cy="494.938" r="8.41271" stroke-width="0.5" stroke="black" fill="Red"/>
  <circle cx="500.28" cy="494.938" r="5.05167" stroke-width="0.5" stroke="Red" fill="Red"/>
   </g>
   <g id="cell73">
  <circle cx="501.536" cy="508.805" r="8.41271" stroke-width="0.5" stroke="black" fill="Red"/>
  <circle cx="501.536" cy="508.805" r="5.05167" stroke-width="0.5" stroke="Red" fill="Red"/>
   </g>
   <g id="cell74">
  <circle cx="501.601" cy="522.836" r="8.41271" stroke-width="0.5" stroke="black" fill="Red"/>
  <circle cx="501.601" cy="522.836" r="5.05167" stroke-width="0.5" stroke="Red" fill="Red"/>
   </g>
   <g id="cell75">
  <circle cx="501.788" cy="537.528" r="8.41271" stroke-width="0.5" stroke="black" fill="blue"/>
  <circle cx="501.788" cy="537.528" r="5.05167" stroke-width="0.5" stroke="blue" fill="blue"/>
   </g>
   <g id="cell76">
  <circle cx="498.688" cy="550.2" r="8.41271" stroke-width="0.5" stroke="black" fill="Red"/>
  <circle cx="498.688" cy="550.2" r="5.05167" stroke-width="0.5" stroke="Red" fill="Red"/>
   </g>
   <g id="cell77">
  <circle cx="500.804" cy="567.972" r="7.1497" stroke-width="0.5" stroke="black" fill="Red"/>
  <circle cx="500.804" cy="567.972" r="4.34001" stroke-width="0.5" stroke="Red" fill="Red"/>
   </g>
   <g id="cell78">
  <circle cx="501.861" cy="581.089" r="8.41271" stroke-width="0.5" stroke="black" fill="yellow"/>
  <circle cx="501.861" cy="581.089" r="5.05167" stroke-width="0.5" stroke="yellow" fill="yellow"/>
   </g>
   <g id="cell79">
  <circle cx="501.171" cy="595.848" r="8.41271" stroke-width="0.5" stroke="black" fill="blue"/>
  <circle cx="501.171" cy="595.848" r="5.05167" stroke-width="0.5" stroke="blue" fill="blue"/>
   </g>
   <g id="cell80">
  <circle cx="515.052" cy="415.27" r="8.41271" stroke-width="0.5" stroke="black" fill="Red"/>
  <circle cx="515.052" cy="415.27" r="5.05167" stroke-width="0.5" stroke="Red" fill="Red"/>
   </g>
   <g id="cell81">
  <circle cx="514.834" cy="432.229" r="8.41271" stroke-width="0.5" stroke="black" fill="Red"/>
  <circle cx="514.834" cy="432.229" r="5.05167" stroke-width="0.5" stroke="Red" fill="Red"/>
   </g>
   <g id="cell82">
  <circle cx="510.244" cy="446.475" r="8.41271" stroke-width="0.5" stroke="black" fill="Red"/>
  <circle cx="510.244" cy="446.475" r="5.05167" stroke-width="0.5" stroke="Red" fill="Red"/>
   </g>
   <g id="cell83">
  <circle cx="508.124" cy="458.791" r="8.41271" stroke-width="0.5" stroke="black" fill="blue"/>
  <circle cx="508.124" cy="458.791" r="5.05167" stroke-width="0.5" stroke="blue" fill="blue"/>
   </g>
   <g id="cell84">
  <circle cx="513.795" cy="471.931" r="8.41271" stroke-width="0.5" stroke="black" fill="Red"/>
  <circle cx="513.795" cy="471.931" r="5.05167" stroke-width="0.5" stroke="Red" fill="Red"/>
   </g>
   <g id="cell85">
  <circle cx="508.362" cy="484.243" r="8.41271" stroke-width="0.5" stroke="black" fill="Red"/>
  <circle cx="508.362" cy="484.243" r="5.05167" stroke-width="0.5" stroke="Red" fill="Red"/>
   </g>
   <g id="cell86">
  <circle cx="513.019" cy="497.029" r="8.41271" stroke-width="0.5" stroke="black" fill="Red"/>
  <circle cx="513.019" cy="497.029" r="5.05167" stroke-width="0.5" stroke="Red" fill="Red"/>
   </g>
   <g id="cell87">
  <circle cx="511.815" cy="506.934" r="7.24243" stroke-width="0.5" stroke="black" fill="Red"/>
  <circle cx="511.815" cy="506.934" r="4.39934" stroke-width="0.5" stroke="Red" fill="Red"/>
   </g>
   <g id="cell88">
  <circle cx="512.727" cy="530.489" r="8.41271" stroke-width="0.5" stroke="black" fill="Red"/>
  <circle cx="512.727" cy="530.489" r="5.05167" stroke-width="0.5" stroke="Red" fill="Red"/>
   </g>
   <g id="cell89">
  <circle cx="510.967" cy="546.142" r="8.41271" stroke-width="0.5" stroke="black" fill="Red"/>
  <circle cx="510.967" cy="546.142" r="5.05167" stroke-width="0.5" stroke="Red" fill="Red"/>
   </g>
   <g id="cell90">
  <circle cx="517.818" cy="556.148" r="8.41271" stroke-width="0.5" stroke="black" fill="Red"/>
  <circle cx="517.818" cy="556.148" r="5.05167" stroke-width="0.5" stroke="Red" fill="Red"/>
   </g>
   <g id="cell91">
  <circle cx="514.358" cy="570.632" r="8.41271" stroke-width="0.5" stroke="black" fill="yellow"/>
  <circle cx="514.358" cy="570.632" r="5.05167" stroke-width="0.5" stroke="yellow" fill="yellow"/>
   </g>
   <g id="cell92">
  <circle cx="514.824" cy="586.783" r="8.41271" stroke-width="0.5" stroke="black" fill="Red"/>
  <circle cx="514.824" cy="586.783" r="5.05167" stroke-width="0.5" stroke="Red" fill="Red"/>
   </g>
   <g id="cell93">
  <circle cx="530.374" cy="411.968" r="8.41271" stroke-width="0.5" stroke="black" fill="blue"/>
  <circle cx="530.374" cy="411.968" r="5.05167" stroke-width="0.5" stroke="blue" fill="blue"/>
   </g>
   <g id="cell94">
  <circle cx="537.485" cy="424.634" r="7.27253" stroke-width="0.5" stroke="black" fill="yellow"/>
  <circle cx="537.485" cy="424.634" r="4.41835" stroke-width="0.5" stroke="yellow" fill="yellow"/>
   </g>
   <g id="cell95">
  <circle cx="528.689" cy="434.712" r="8.41271" stroke-width="0.5" stroke="black" fill="Red"/>
  <circle cx="528.689" cy="434.712" r="5.05167" stroke-width="0.5" stroke="Red" fill="Red"/>
   </g>
   <g id="cell96">
  <circle cx="519.095" cy="441.939" r="6.35019" stroke-width="0.5" stroke="black" fill="blue"/>
  <circle cx="519.095" cy="441.939" r="3.88823" stroke-width="0.5" stroke="blue" fill="blue"/>
   </g>
   <g id="cell97">
  <circle cx="521.535" cy="462.806" r="8.41271" stroke-width="0.5" stroke="black" fill="Red"/>
  <circle cx="521.535" cy="462.806" r="5.05167" stroke-width="0.5" stroke="Red" fill="Red"/>
   </g>
   <g id="cell98">
  <circle cx="525.318" cy="487.366" r="5.7464" stroke-width="0.5" stroke="black" fill="Red"/>
  <circle cx="525.318" cy="487.366" r="3.50041" stroke-width="0.5" stroke="Red" fill="Red"/>
   </g>
   <g id="cell99">
  <circle cx="525.931" cy="498.093" r="8.41271" stroke-width="0.5" stroke="black" fill="Red"/>
  <circle cx="525.931" cy="498.093" r="5.05167" stroke-width="0.5" stroke="Red" fill="Red"/>
   </g>
   <g id="cell100">
  <circle cx="522.135" cy="509.497" r="8.41271" stroke-width="0.5" stroke="black" fill="Red"/>
  <circle cx="522.135" cy="509.497" r="5.05167" stroke-width="0.5" stroke="Red" fill="Red"/>
   </g>
   <g id="cell101">
  <circle cx="522.737" cy="522.469" r="8.41271" stroke-width="0.5" stroke="black" fill="yellow"/>
  <circle cx="522.737" cy="522.469" r="5.05167" stroke-width="0.5" stroke="yellow" fill="yellow"/>
   </g>
   <g id="cell102">
  <circle cx="527.952" cy="532.609" r="7.49456" stroke-width="0.5" stroke="black" fill="Red"/>
  <circle cx="527.952" cy="532.609" r="4.55548" stroke-width="0.5" stroke="Red" fill="Red"/>
   </g>
   <g id="cell103">
  <circle cx="528.131" cy="549.898" r="8.41271" stroke-width="0.5" stroke="black" fill="Red"/>
  <circle cx="528.131" cy="549.898" r="5.05167" stroke-width="0.5" stroke="Red" fill="Red"/>
   </g>
   <g id="cell104">
  <circle cx="528.505" cy="564.947" r="8.41271" stroke-width="0.5" stroke="black" fill="Red"/>
  <circle cx="528.505" cy="564.947" r="5.05167" stroke-width="0.5" stroke="Red" fill="Red"/>
   </g>
   <g id="cell105">
  <circle cx="527.685" cy="577.509" r="8.41271" stroke-width="0.5" stroke="black" fill="blue"/>
  <circle cx="527.685" cy="577.509" r="5.05167" stroke-width="0.5" stroke="blue" fill="blue"/>
   </g>
   <g id="cell106">
  <circle cx="543.993" cy="414.448" r="8.41271" stroke-width="0.5" stroke="black" fill="Red"/>
  <circle cx="543.993" cy="414.448" r="5.05167" stroke-width="0.5" stroke="Red" fill="Red"/>
   </g>
   <g id="cell107">
  <circle cx="541.939" cy="437.972" r="8.41271" stroke-width="0.5" stroke="black" fill="yellow"/>
  <circle cx="541.939" cy="437.972" r="5.05167" stroke-width="0.5" stroke="yellow" fill="yellow"/>
   </g>
   <g id="cell108">
  <circle cx="529.579" cy="446.981" r="8.41271" stroke-width="0.5" stroke="black" fill="Red"/>
  <circle cx="529.579" cy="446.981" r="5.05167" stroke-width="0.5" stroke="Red" fill="Red"/>
   </g>
   <g id="cell109">
  <circle cx="544.004" cy="464.948" r="8.41271" stroke-width="0.5" stroke="black" fill="Red"/>
  <circle cx="544.004" cy="464.948" r="5.05167" stroke-width="0.5" stroke="Red" fill="Red"/>
   </g>
   <g id="cell110">
  <circle cx="530.747" cy="478.459" r="8.41271" stroke-width="0.5" stroke="black" fill="Red"/>
  <circle cx="530.747" cy="478.459" r="5.05167" stroke-width="0.5" stroke="Red" fill="Red"/>
   </g>
   <g id="cell111">
  <circle cx="537.088" cy="491.065" r="8.41271" stroke-width="0.5" stroke="black" fill="blue"/>
  <circle cx="537.088" cy="491.065" r="5.05167" stroke-width="0.5" stroke="blue" fill="blue"/>
   </g>
   <g id="cell112">
  <circle cx="537.28" cy="504.425" r="8.41271" stroke-width="0.5" stroke="black" fill="Red"/>
  <circle cx="537.28" cy="504.425" r="5.05167" stroke-width="0.5" stroke="Red" fill="Red"/>
   </g>
   <g id="cell113">
  <circle cx="534.037" cy="516.326" r="8.41271" stroke-width="0.5" stroke="black" fill="blue"/>
  <circle cx="534.037" cy="516.326" r="5.05167" stroke-width="0.5" stroke="blue" fill="blue"/>
   </g>
   <g id="cell114">
  <circle cx="537.864" cy="527.527" r="8.41271" stroke-width="0.5" stroke="black" fill="Red"/>
  <circle cx="537.864" cy="527.527" r="5.05167" stroke-width="0.5" stroke="Red" fill="Red"/>
   </g>
   <g id="cell115">
  <circle cx="537.234" cy="541.663" r="8.41271" stroke-width="0.5" stroke="black" fill="Red"/>
  <circle cx="537.234" cy="541.663" r="5.05167" stroke-width="0.5" stroke="Red" fill="Red"/>
   </g>
   <g id="cell116">
  <circle cx="539.59" cy="556.361" r="8.41271" stroke-width="0.5" stroke="black" fill="Red"/>
  <circle cx="539.59" cy="556.361" r="5.05167" stroke-width="0.5" stroke="Red" fill="Red"/>
   </g>
   <g id="cell117">
  <circle cx="540.465" cy="570.536" r="8.41271" stroke-width="0.5" stroke="black" fill="Red"/>
  <circle cx="540.465" cy="570.536" r="5.05167" stroke-width="0.5" stroke="Red" fill="Red"/>
   </g>
   <g id="cell118">
  <circle cx="551.351" cy="426.897" r="8.41271" stroke-width="0.5" stroke="black" fill="blue"/>
  <circle cx="551.351" cy="426.897" r="5.05167" stroke-width="0.5" stroke="blue" fill="blue"/>
   </g>
   <g id="cell119">
  <circle cx="555.796" cy="442.915" r="8.41271" stroke-width="0.5" stroke="black" fill="yellow"/>
  <circle cx="555.796" cy="442.915" r="5.05167" stroke-width="0.5" stroke="yellow" fill="yellow"/>
   </g>
   <g id="cell120">
  <circle cx="553.485" cy="456.998" r="7.24243" stroke-width="0.5" stroke="black" fill="Red"/>
  <circle cx="553.485" cy="456.998" r="4.39934" stroke-width="0.5" stroke="Red" fill="Red"/>
   </g>
   <g id="cell121">
  <circle cx="555.854" cy="470.992" r="8.41271" stroke-width="0.5" stroke="black" fill="Red"/>
  <circle cx="555.854" cy="470.992" r="5.05167" stroke-width="0.5" stroke="Red" fill="Red"/>
   </g>
   <g id="cell122">
  <circle cx="543.817" cy="479.693" r="8.41271" stroke-width="0.5" stroke="black" fill="Red"/>
  <circle cx="543.817" cy="479.693" r="5.05167" stroke-width="0.5" stroke="Red" fill="Red"/>
   </g>
   <g id="cell123">
  <circle cx="548.411" cy="495.255" r="8.41271" stroke-width="0.5" stroke="black" fill="Red"/>
  <circle cx="548.411" cy="495.255" r="5.05167" stroke-width="0.5" stroke="Red" fill="Red"/>
   </g>
   <g id="cell124">
  <circle cx="549.966" cy="509.434" r="8.41271" stroke-width="0.5" stroke="black" fill="Red"/>
  <circle cx="549.966" cy="509.434" r="5.05167" stroke-width="0.5" stroke="Red" fill="Red"/>
   </g>
   <g id="cell125">
  <circle cx="545.321" cy="519.552" r="7.27253" stroke-width="0.5" stroke="black" fill="Red"/>
  <circle cx="545.321" cy="519.552" r="4.41835" stroke-width="0.5" stroke="Red" fill="Red"/>
   </g>
   <g id="cell126">
  <circle cx="549.732" cy="534.37" r="8.41271" stroke-width="0.5" stroke="black" fill="Red"/>
  <circle cx="549.732" cy="534.37" r="5.05167" stroke-width="0.5" stroke="Red" fill="Red"/>
   </g>
   <g id="cell127">
  <circle cx="550.329" cy="548.369" r="8.41271" stroke-width="0.5" stroke="black" fill="Red"/>
  <circle cx="550.329" cy="548.369" r="5.05167" stroke-width="0.5" stroke="Red" fill="Red"/>
   </g>
   <g id="cell128">
  <circle cx="552.627" cy="562.884" r="8.41271" stroke-width="0.5" stroke="black" fill="blue"/>
  <circle cx="552.627" cy="562.884" r="5.05167" stroke-width="0.5" stroke="blue" fill="blue"/>
   </g>
   <g id="cell129">
  <circle cx="574.447" cy="453.929" r="7.21189" stroke-width="0.5" stroke="black" fill="blue"/>
  <circle cx="574.447" cy="453.929" r="4.37993" stroke-width="0.5" stroke="blue" fill="blue"/>
   </g>
   <g id="cell130">
  <circle cx="565.583" cy="461.939" r="8.41271" stroke-width="0.5" stroke="black" fill="Red"/>
  <circle cx="565.583" cy="461.939" r="5.05167" stroke-width="0.5" stroke="Red" fill="Red"/>
   </g>
   <g id="cell131">
  <circle cx="567.122" cy="474.318" r="8.41271" stroke-width="0.5" stroke="black" fill="Red"/>
  <circle cx="567.122" cy="474.318" r="5.05167" stroke-width="0.5" stroke="Red" fill="Red"/>
   </g>
   <g id="cell132">
  <circle cx="559.382" cy="485.413" r="8.41271" stroke-width="0.5" stroke="black" fill="Red"/>
  <circle cx="559.382" cy="485.413" r="5.05167" stroke-width="0.5" stroke="Red" fill="Red"/>
   </g>
   <g id="cell133">
  <circle cx="560.676" cy="500.137" r="8.41271" stroke-width="0.5" stroke="black" fill="blue"/>
  <circle cx="560.676" cy="500.137" r="5.05167" stroke-width="0.5" stroke="blue" fill="blue"/>
   </g>
   <g id="cell134">
  <circle cx="562.333" cy="513.964" r="8.41271" stroke-width="0.5" stroke="black" fill="Red"/>
  <circle cx="562.333" cy="513.964" r="5.05167" stroke-width="0.5" stroke="Red" fill="Red"/>
   </g>
   <g id="cell135">
  <circle cx="567.205" cy="528.593" r="8.41271" stroke-width="0.5" stroke="black" fill="yellow"/>
  <circle cx="567.205" cy="528.593" r="5.05167" stroke-width="0.5" stroke="yellow" fill="yellow"/>
   </g>
   <g id="cell136">
  <circle cx="561.156" cy="539.594" r="8.41271" stroke-width="0.5" stroke="black" fill="yellow"/>
  <circle cx="561.156" cy="539.594" r="5.05167" stroke-width="0.5" stroke="yellow" fill="yellow"/>
   </g>
   <g id="cell137">
  <circle cx="563.676" cy="552.934" r="8.41271" stroke-width="0.5" stroke="black" fill="Red"/>
  <circle cx="563.676" cy="552.934" r="5.05167" stroke-width="0.5" stroke="Red" fill="Red"/>
   </g>
   <g id="cell138">
  <circle cx="578.063" cy="466.399" r="8.41271" stroke-width="0.5" stroke="black" fill="Red"/>
  <circle cx="578.063" cy="466.399" r="5.05167" stroke-width="0.5" stroke="Red" fill="Red"/>
   </g>
   <g id="cell139">
  <circle cx="578.861" cy="480.562" r="8.41271" stroke-width="0.5" stroke="black" fill="Red"/>
  <circle cx="578.861" cy="480.562" r="5.05167" stroke-width="0.5" stroke="Red" fill="Red"/>
   </g>
   <g id="cell140">
  <circle cx="571.422" cy="491.287" r="7.59183" stroke-width="0.5" stroke="black" fill="yellow"/>
  <circle cx="571.422" cy="491.287" r="4.61399" stroke-width="0.5" stroke="yellow" fill="yellow"/>
   </g>
   <g id="cell141">
  <circle cx="574.511" cy="504.819" r="8.41271" stroke-width="0.5" stroke="black" fill="yellow"/>
  <circle cx="574.511" cy="504.819" r="5.05167" stroke-width="0.5" stroke="yellow" fill="yellow"/>
   </g>
   <g id="cell142">
  <circle cx="576.817" cy="518.344" r="7.02257" stroke-width="0.5" stroke="black" fill="blue"/>
  <circle cx="576.817" cy="518.344" r="4.25644" stroke-width="0.5" stroke="blue" fill="blue"/>
   </g>
   <g id="cell143">
  <circle cx="574.269" cy="542.93" r="8.41271" stroke-width="0.5" stroke="black" fill="blue"/>
  <circle cx="574.269" cy="542.93" r="5.05167" stroke-width="0.5" stroke="blue" fill="blue"/>
   </g>
   <g id="cell144">
  <circle cx="434.736" cy="434.694" r="7.59183" stroke-width="0.5" stroke="black" fill="blue"/>
  <circle cx="434.736" cy="434.694" r="4.61399" stroke-width="0.5" stroke="blue" fill="blue"/>
   </g>
   <g id="cell145">
  <circle cx="584.625" cy="493.291" r="7.59183" stroke-width="0.5" stroke="black" fill="blue"/>
  <circle cx="584.625" cy="493.291" r="4.61399" stroke-width="0.5" stroke="blue" fill="blue"/>
   </g>
   <g id="cell146">
  <circle cx="479.648" cy="509.548" r="6.4263" stroke-width="0.5" stroke="black" fill="blue"/>
  <circle cx="479.648" cy="509.548" r="3.93783" stroke-width="0.5" stroke="blue" fill="blue"/>
   </g>
   <g id="cell147">
  <circle cx="532.303" cy="457.662" r="6.97966" stroke-width="0.5" stroke="black" fill="Red"/>
  <circle cx="532.303" cy="457.662" r="4.28058" stroke-width="0.5" stroke="Red" fill="Red"/>
   </g>
   <g id="cell148">
  <circle cx="521.155" cy="540.934" r="7.49456" stroke-width="0.5" stroke="black" fill="blue"/>
  <circle cx="521.155" cy="540.934" r="4.55548" stroke-width="0.5" stroke="blue" fill="blue"/>
   </g>
   <g id="cell149">
  <circle cx="533.293" cy="467.475" r="6.97966" stroke-width="0.5" stroke="black" fill="blue"/>
  <circle cx="533.293" cy="467.475" r="4.28058" stroke-width="0.5" stroke="blue" fill="blue"/>
   </g>
   <g id="cell150">
  <circle cx="445.18" cy="516.369" r="7.3599" stroke-width="0.5" stroke="black" fill="blue"/>
  <circle cx="445.18" cy="516.369" r="4.47294" stroke-width="0.5" stroke="blue" fill="blue"/>
   </g>
   <g id="cell151">
  <circle cx="448.229" cy="415.621" r="7.3599" stroke-width="0.5" stroke="black" fill="blue"/>
  <circle cx="448.229" cy="415.621" r="4.47294" stroke-width="0.5" stroke="blue" fill="blue"/>
   </g>
   <g id="cell152">
  <circle cx="483.969" cy="458.87" r="7.30216" stroke-width="0.5" stroke="black" fill="blue"/>
  <circle cx="483.969" cy="458.87" r="4.43696" stroke-width="0.5" stroke="blue" fill="blue"/>
   </g>
   <g id="cell153">
  <circle cx="525.779" cy="423.057" r="7.27253" stroke-width="0.5" stroke="black" fill="Red"/>
  <circle cx="525.779" cy="423.057" r="4.41835" stroke-width="0.5" stroke="Red" fill="Red"/>
   </g>
   <g id="cell154">
  <circle cx="554.509" cy="523.479" r="7.27253" stroke-width="0.5" stroke="black" fill="blue"/>
  <circle cx="554.509" cy="523.479" r="4.41835" stroke-width="0.5" stroke="blue" fill="blue"/>
   </g>
   <g id="cell155">
  <circle cx="443.447" cy="426.743" r="6.59067" stroke-width="0.5" stroke="black" fill="yellow"/>
  <circle cx="443.447" cy="426.743" r="4.04529" stroke-width="0.5" stroke="yellow" fill="yellow"/>
   </g>
   <g id="cell156">
  <circle cx="512.032" cy="516.942" r="7.24243" stroke-width="0.5" stroke="black" fill="blue"/>
  <circle cx="512.032" cy="516.942" r="4.39934" stroke-width="0.5" stroke="blue" fill="blue"/>
   </g>
   <g id="cell157">
  <circle cx="541.283" cy="451.348" r="7.24243" stroke-width="0.5" stroke="black" fill="blue"/>
  <circle cx="541.283" cy="451.348" r="4.39934" stroke-width="0.5" stroke="blue" fill="blue"/>
   </g>
   <g id="cell158">
  <circle cx="563.624" cy="451.008" r="5.83115" stroke-width="0.5" stroke="black" fill="Red"/>
  <circle cx="563.624" cy="451.008" r="3.55246" stroke-width="0.5" stroke="Red" fill="Red"/>
   </g>
   <g id="cell159">
  <circle cx="473.017" cy="528.768" r="7.18097" stroke-width="0.5" stroke="black" fill="blue"/>
  <circle cx="473.017" cy="528.768" r="4.36015" stroke-width="0.5" stroke="blue" fill="blue"/>
   </g>
   <g id="cell160">
  <circle cx="506.093" cy="558.939" r="7.1497" stroke-width="0.5" stroke="black" fill="blue"/>
  <circle cx="506.093" cy="558.939" r="4.34001" stroke-width="0.5" stroke="blue" fill="blue"/>
   </g>
   <g id="cell161">
  <circle cx="519.687" cy="479.38" r="5.64792" stroke-width="0.5" stroke="black" fill="Red"/>
  <circle cx="519.687" cy="479.38" r="3.42949" stroke-width="0.5" stroke="Red" fill="Red"/>
   </g>
   <g id="cell162">
  <circle cx="579.858" cy="530.498" r="7.02257" stroke-width="0.5" stroke="black" fill="Red"/>
  <circle cx="579.858" cy="530.498" r="4.25644" stroke-width="0.5" stroke="Red" fill="Red"/>
   </g>
   <g id="cell163">
  <circle cx="474.637" cy="517.515" r="6.4263" stroke-width="0.5" stroke="black" fill="Red"/>
  <circle cx="474.637" cy="517.515" r="3.93783" stroke-width="0.5" stroke="Red" fill="Red"/>
   </g>
   <g id="cell164">
  <circle cx="433.133" cy="498.787" r="7.02257" stroke-width="0.5" stroke="black" fill="blue"/>
  <circle cx="433.133" cy="498.787" r="4.25644" stroke-width="0.5" stroke="blue" fill="blue"/>
   </g>
   <g id="cell165">
  <circle cx="466.247" cy="442.42" r="6.95901" stroke-width="0.5" stroke="black" fill="blue"/>
  <circle cx="466.247" cy="442.42" r="4.21341" stroke-width="0.5" stroke="blue" fill="blue"/>
   </g>
   <g id="cell166">
  <circle cx="489.309" cy="439.538" r="6.95901" stroke-width="0.5" stroke="black" fill="blue"/>
  <circle cx="489.309" cy="439.538" r="4.21341" stroke-width="0.5" stroke="blue" fill="blue"/>
   </g>
   <g id="cell167">
  <circle cx="519.643" cy="452.403" r="6.35019" stroke-width="0.5" stroke="black" fill="Red"/>
  <circle cx="519.643" cy="452.403" r="3.88823" stroke-width="0.5" stroke="Red" fill="Red"/>
   </g>
   <g id="cell168">
  <circle cx="430.115" cy="528.969" r="5.61424" stroke-width="0.5" stroke="black" fill="Red"/>
  <circle cx="430.115" cy="528.969" r="3.41029" stroke-width="0.5" stroke="Red" fill="Red"/>
   </g>
   <g id="cell169">
  <circle cx="421.543" cy="457.524" r="6.80881" stroke-width="0.5" stroke="black" fill="blue"/>
  <circle cx="421.543" cy="457.524" r="4.10709" stroke-width="0.5" stroke="blue" fill="blue"/>
   </g>
   <g id="cell170">
  <circle cx="518.069" cy="488.263" r="5.7464" stroke-width="0.5" stroke="black" fill="blue"/>
  <circle cx="518.069" cy="488.263" r="3.50041" stroke-width="0.5" stroke="blue" fill="blue"/>
   </g>
   <g id="cell171">
  <circle cx="453.512" cy="582.207" r="6.75639" stroke-width="0.5" stroke="black" fill="Red"/>
  <circle cx="453.512" cy="582.207" r="4.06813" stroke-width="0.5" stroke="Red" fill="Red"/>
   </g>
   <g id="cell172">
  <circle cx="568.425" cy="442.613" r="5.83115" stroke-width="0.5" stroke="black" fill="blue"/>
  <circle cx="568.425" cy="442.613" r="3.55246" stroke-width="0.5" stroke="blue" fill="blue"/>
   </g>
   <g id="cell173">
  <circle cx="426.227" cy="521.436" r="5.61424" stroke-width="0.5" stroke="black" fill="Red"/>
  <circle cx="426.227" cy="521.436" r="3.41029" stroke-width="0.5" stroke="Red" fill="Red"/>
   </g>
   <g id="cell174">
  <circle cx="524.122" cy="472.356" r="5.64792" stroke-width="0.5" stroke="black" fill="Red"/>
  <circle cx="524.122" cy="472.356" r="3.42949" stroke-width="0.5" stroke="Red" fill="Red"/>
   </g>
  </g>
 </g>
  <rect x="775" y="1035" width="200" height="10" stroke-width="2" stroke="rgb(255,255,255)" fill="rgb(0,0,0)"/>
  <text x="781.25" y="1028.75"
   font-family="Arial" font-size="25" fill="black" >
   200 &#956;m
  </text>
  <text x="25" y="1045"
   font-family="Arial" font-size="18.75" fill="black" >
   0 days, 0 hours, 1 minutes, and 16.9340 seconds
  </text>
  <rect x="0" y="70" width="1000" height="1000" stroke-width="2" stroke="rgb(0,0,0)" fill="none"/>
</svg>
