<?xml version="1.0" encoding="UTF-8" standalone="no"?>
<!-- Created with PhysiCell (http://PhysiCell.MathCancer.org/) -->
<svg 
 xmlns:dc="http://purl.org/dc/elements/1.1/" 
 xmlns:cc="http://creativecommons.org/ns#" 
 xmlns:rdf="http://www.w3.org/1999/02/22-rdf-syntax-ns#" 
 xmlns:svg="http://www.w3.org/2000/svg" 
 xmlns="http://www.w3.org/2000/svg" 
 version="1.1" 
 width="1000" 
 height="1070" 
 id="svg2">
  <rect x="0" y="0" width="1000" height="1070" stroke-width="2" stroke="white" fill="white"/>
  <text x="12.5" y="30"
   font-family="Arial" font-size="25" fill="black" >
   Current time: 0 days, 6 hours, and 35.00 minutes, z = 0.00 &#956;m
  </text>
  <text x="12.5" y="57.5"
   font-family="Arial" font-size="23.75" fill="black" >
   204 agents
  </text>
 <g id="tissue" 
    transform="translate(0,1070) scale(1,-1)">
  <g id="ECM">
  </g>
  <g id="cells">
   <g id="cell0">
  <circle cx="422.896" cy="445.609" r="8.41271" stroke-width="0.5" stroke="black" fill="yellow"/>
  <circle cx="422.896" cy="445.609" r="5.05167" stroke-width="0.5" stroke="yellow" fill="yellow"/>
   </g>
   <g id="cell1">
  <circle cx="422.829" cy="469.195" r="7.65871" stroke-width="0.5" stroke="black" fill="Red"/>
  <circle cx="422.829" cy="469.195" r="4.6537" stroke-width="0.5" stroke="Red" fill="Red"/>
   </g>
   <g id="cell2">
  <circle cx="423.894" cy="482.347" r="8.41271" stroke-width="0.5" stroke="black" fill="blue"/>
  <circle cx="423.894" cy="482.347" r="5.05167" stroke-width="0.5" stroke="blue" fill="blue"/>
   </g>
   <g id="cell3">
  <circle cx="416.209" cy="496.204" r="7.79564" stroke-width="0.5" stroke="black" fill="blue"/>
  <circle cx="416.209" cy="496.204" r="4.73359" stroke-width="0.5" stroke="blue" fill="blue"/>
   </g>
   <g id="cell4">
  <circle cx="425.339" cy="507.136" r="8.41271" stroke-width="0.5" stroke="black" fill="Red"/>
  <circle cx="425.339" cy="507.136" r="5.05167" stroke-width="0.5" stroke="Red" fill="Red"/>
   </g>
   <g id="cell5">
  <circle cx="414.851" cy="528.824" r="6.2366" stroke-width="0.5" stroke="black" fill="yellow"/>
  <circle cx="414.851" cy="528.824" r="3.7979" stroke-width="0.5" stroke="yellow" fill="yellow"/>
   </g>
   <g id="cell6">
  <circle cx="425.342" cy="539.924" r="8.41271" stroke-width="0.5" stroke="black" fill="Red"/>
  <circle cx="425.342" cy="539.924" r="5.05167" stroke-width="0.5" stroke="Red" fill="Red"/>
   </g>
   <g id="cell7">
  <circle cx="436.643" cy="445.281" r="8.06667" stroke-width="0.5" stroke="black" fill="yellow"/>
  <circle cx="436.643" cy="445.281" r="4.88515" stroke-width="0.5" stroke="yellow" fill="yellow"/>
   </g>
   <g id="cell8">
  <circle cx="430.507" cy="458.807" r="8.41271" stroke-width="0.5" stroke="black" fill="yellow"/>
  <circle cx="430.507" cy="458.807" r="5.05167" stroke-width="0.5" stroke="yellow" fill="yellow"/>
   </g>
   <g id="cell9">
  <circle cx="434.947" cy="471.644" r="8.41271" stroke-width="0.5" stroke="black" fill="Red"/>
  <circle cx="434.947" cy="471.644" r="5.05167" stroke-width="0.5" stroke="Red" fill="Red"/>
   </g>
   <g id="cell10">
  <circle cx="438.356" cy="483.653" r="8.41271" stroke-width="0.5" stroke="black" fill="Red"/>
  <circle cx="438.356" cy="483.653" r="5.05167" stroke-width="0.5" stroke="Red" fill="Red"/>
   </g>
   <g id="cell11">
  <circle cx="436.822" cy="503.717" r="8.41271" stroke-width="0.5" stroke="black" fill="blue"/>
  <circle cx="436.822" cy="503.717" r="5.05167" stroke-width="0.5" stroke="blue" fill="blue"/>
   </g>
   <g id="cell12">
  <circle cx="432.649" cy="518.075" r="7.96365" stroke-width="0.5" stroke="black" fill="Red"/>
  <circle cx="432.649" cy="518.075" r="4.82873" stroke-width="0.5" stroke="Red" fill="Red"/>
   </g>
   <g id="cell13">
  <circle cx="437.347" cy="536.918" r="8.41271" stroke-width="0.5" stroke="black" fill="Red"/>
  <circle cx="437.347" cy="536.918" r="5.05167" stroke-width="0.5" stroke="Red" fill="Red"/>
   </g>
   <g id="cell14">
  <circle cx="437.214" cy="549.544" r="8.41271" stroke-width="0.5" stroke="black" fill="Red"/>
  <circle cx="437.214" cy="549.544" r="5.05167" stroke-width="0.5" stroke="Red" fill="Red"/>
   </g>
   <g id="cell15">
  <circle cx="440.308" cy="564.066" r="8.41271" stroke-width="0.5" stroke="black" fill="blue"/>
  <circle cx="440.308" cy="564.066" r="5.05167" stroke-width="0.5" stroke="blue" fill="blue"/>
   </g>
   <g id="cell16">
  <circle cx="452.983" cy="425.754" r="7.67537" stroke-width="0.5" stroke="black" fill="yellow"/>
  <circle cx="452.983" cy="425.754" r="4.68302" stroke-width="0.5" stroke="yellow" fill="yellow"/>
   </g>
   <g id="cell17">
  <circle cx="448.369" cy="446.505" r="7.38797" stroke-width="0.5" stroke="black" fill="blue"/>
  <circle cx="448.369" cy="446.505" r="4.49029" stroke-width="0.5" stroke="blue" fill="blue"/>
   </g>
   <g id="cell18">
  <circle cx="444.011" cy="457.374" r="8.41271" stroke-width="0.5" stroke="black" fill="Red"/>
  <circle cx="444.011" cy="457.374" r="5.05167" stroke-width="0.5" stroke="Red" fill="Red"/>
   </g>
   <g id="cell19">
  <circle cx="448.271" cy="469.529" r="8.41271" stroke-width="0.5" stroke="black" fill="blue"/>
  <circle cx="448.271" cy="469.529" r="5.05167" stroke-width="0.5" stroke="blue" fill="blue"/>
   </g>
   <g id="cell20">
  <circle cx="450.552" cy="481.443" r="8.41271" stroke-width="0.5" stroke="black" fill="Red"/>
  <circle cx="450.552" cy="481.443" r="5.05167" stroke-width="0.5" stroke="Red" fill="Red"/>
   </g>
   <g id="cell21">
  <circle cx="443.814" cy="494.352" r="8.41271" stroke-width="0.5" stroke="black" fill="Red"/>
  <circle cx="443.814" cy="494.352" r="5.05167" stroke-width="0.5" stroke="Red" fill="Red"/>
   </g>
   <g id="cell22">
  <circle cx="451.194" cy="504.868" r="8.41271" stroke-width="0.5" stroke="black" fill="Red"/>
  <circle cx="451.194" cy="504.868" r="5.05167" stroke-width="0.5" stroke="Red" fill="Red"/>
   </g>
   <g id="cell23">
  <circle cx="442.827" cy="526.558" r="8.41271" stroke-width="0.5" stroke="black" fill="Red"/>
  <circle cx="442.827" cy="526.558" r="5.05167" stroke-width="0.5" stroke="Red" fill="Red"/>
   </g>
   <g id="cell24">
  <circle cx="448.897" cy="542.133" r="8.41271" stroke-width="0.5" stroke="black" fill="Red"/>
  <circle cx="448.897" cy="542.133" r="5.05167" stroke-width="0.5" stroke="Red" fill="Red"/>
   </g>
   <g id="cell25">
  <circle cx="450.436" cy="556.443" r="8.41271" stroke-width="0.5" stroke="black" fill="Red"/>
  <circle cx="450.436" cy="556.443" r="5.05167" stroke-width="0.5" stroke="Red" fill="Red"/>
   </g>
   <g id="cell26">
  <circle cx="444.49" cy="576.071" r="6.86652" stroke-width="0.5" stroke="black" fill="Red"/>
  <circle cx="444.49" cy="576.071" r="4.14883" stroke-width="0.5" stroke="Red" fill="Red"/>
   </g>
   <g id="cell27">
  <circle cx="463.722" cy="402.516" r="8.41271" stroke-width="0.5" stroke="black" fill="yellow"/>
  <circle cx="463.722" cy="402.516" r="5.05167" stroke-width="0.5" stroke="yellow" fill="yellow"/>
   </g>
   <g id="cell28">
  <circle cx="463.629" cy="423.972" r="6.78181" stroke-width="0.5" stroke="black" fill="Red"/>
  <circle cx="463.629" cy="423.972" r="4.08714" stroke-width="0.5" stroke="Red" fill="Red"/>
   </g>
   <g id="cell29">
  <circle cx="459.573" cy="447.856" r="7.75912" stroke-width="0.5" stroke="black" fill="Red"/>
  <circle cx="459.573" cy="447.856" r="4.71248" stroke-width="0.5" stroke="Red" fill="Red"/>
   </g>
   <g id="cell30">
  <circle cx="456.331" cy="457.989" r="8.41271" stroke-width="0.5" stroke="black" fill="Red"/>
  <circle cx="456.331" cy="457.989" r="5.05167" stroke-width="0.5" stroke="Red" fill="Red"/>
   </g>
   <g id="cell31">
  <circle cx="461.026" cy="470.302" r="8.41271" stroke-width="0.5" stroke="black" fill="Red"/>
  <circle cx="461.026" cy="470.302" r="5.05167" stroke-width="0.5" stroke="Red" fill="Red"/>
   </g>
   <g id="cell32">
  <circle cx="462.671" cy="482.591" r="8.41271" stroke-width="0.5" stroke="black" fill="Red"/>
  <circle cx="462.671" cy="482.591" r="5.05167" stroke-width="0.5" stroke="Red" fill="Red"/>
   </g>
   <g id="cell33">
  <circle cx="457.102" cy="494.359" r="8.41271" stroke-width="0.5" stroke="black" fill="blue"/>
  <circle cx="457.102" cy="494.359" r="5.05167" stroke-width="0.5" stroke="blue" fill="blue"/>
   </g>
   <g id="cell34">
  <circle cx="451.39" cy="519.337" r="6.05381" stroke-width="0.5" stroke="black" fill="Red"/>
  <circle cx="451.39" cy="519.337" r="3.70794" stroke-width="0.5" stroke="Red" fill="Red"/>
   </g>
   <g id="cell35">
  <circle cx="458.933" cy="538.833" r="5.96599" stroke-width="0.5" stroke="black" fill="blue"/>
  <circle cx="458.933" cy="538.833" r="3.63642" stroke-width="0.5" stroke="blue" fill="blue"/>
   </g>
   <g id="cell36">
  <circle cx="460.925" cy="548.845" r="8.41271" stroke-width="0.5" stroke="black" fill="Red"/>
  <circle cx="460.925" cy="548.845" r="5.05167" stroke-width="0.5" stroke="Red" fill="Red"/>
   </g>
   <g id="cell37">
  <circle cx="463.631" cy="560.193" r="8.41271" stroke-width="0.5" stroke="black" fill="Red"/>
  <circle cx="463.631" cy="560.193" r="5.05167" stroke-width="0.5" stroke="Red" fill="Red"/>
   </g>
   <g id="cell38">
  <circle cx="464.37" cy="574.473" r="8.41271" stroke-width="0.5" stroke="black" fill="Red"/>
  <circle cx="464.37" cy="574.473" r="5.05167" stroke-width="0.5" stroke="Red" fill="Red"/>
   </g>
   <g id="cell39">
  <circle cx="463.164" cy="589.89" r="7.61469" stroke-width="0.5" stroke="black" fill="blue"/>
  <circle cx="463.164" cy="589.89" r="4.62762" stroke-width="0.5" stroke="blue" fill="blue"/>
   </g>
   <g id="cell40">
  <circle cx="476.621" cy="397.003" r="8.41271" stroke-width="0.5" stroke="black" fill="blue"/>
  <circle cx="476.621" cy="397.003" r="5.05167" stroke-width="0.5" stroke="blue" fill="blue"/>
   </g>
   <g id="cell41">
  <circle cx="476.13" cy="411.608" r="8.41271" stroke-width="0.5" stroke="black" fill="yellow"/>
  <circle cx="476.13" cy="411.608" r="5.05167" stroke-width="0.5" stroke="yellow" fill="yellow"/>
   </g>
   <g id="cell42">
  <circle cx="479.013" cy="436.856" r="7.24243" stroke-width="0.5" stroke="black" fill="Red"/>
  <circle cx="479.013" cy="436.856" r="4.39934" stroke-width="0.5" stroke="Red" fill="Red"/>
   </g>
   <g id="cell43">
  <circle cx="470.873" cy="453.338" r="8.41271" stroke-width="0.5" stroke="black" fill="Red"/>
  <circle cx="470.873" cy="453.338" r="5.05167" stroke-width="0.5" stroke="Red" fill="Red"/>
   </g>
   <g id="cell44">
  <circle cx="474.219" cy="466.773" r="6.71158" stroke-width="0.5" stroke="black" fill="blue"/>
  <circle cx="474.219" cy="466.773" r="4.03435" stroke-width="0.5" stroke="blue" fill="blue"/>
   </g>
   <g id="cell45">
  <circle cx="472.988" cy="476.697" r="8.41271" stroke-width="0.5" stroke="black" fill="Red"/>
  <circle cx="472.988" cy="476.697" r="5.05167" stroke-width="0.5" stroke="Red" fill="Red"/>
   </g>
   <g id="cell46">
  <circle cx="470.832" cy="493.444" r="8.41271" stroke-width="0.5" stroke="black" fill="Red"/>
  <circle cx="470.832" cy="493.444" r="5.05167" stroke-width="0.5" stroke="Red" fill="Red"/>
   </g>
   <g id="cell47">
  <circle cx="465.169" cy="503.672" r="8.05651" stroke-width="0.5" stroke="black" fill="Red"/>
  <circle cx="465.169" cy="503.672" r="4.87966" stroke-width="0.5" stroke="Red" fill="Red"/>
   </g>
   <g id="cell48">
  <circle cx="476.505" cy="519.485" r="7.87851" stroke-width="0.5" stroke="black" fill="blue"/>
  <circle cx="476.505" cy="519.485" r="4.78096" stroke-width="0.5" stroke="blue" fill="blue"/>
   </g>
   <g id="cell49">
  <circle cx="471.871" cy="542.415" r="8.41271" stroke-width="0.5" stroke="black" fill="Red"/>
  <circle cx="471.871" cy="542.415" r="5.05167" stroke-width="0.5" stroke="Red" fill="Red"/>
   </g>
   <g id="cell50">
  <circle cx="481.891" cy="558.206" r="7.30216" stroke-width="0.5" stroke="black" fill="Red"/>
  <circle cx="481.891" cy="558.206" r="4.43696" stroke-width="0.5" stroke="Red" fill="Red"/>
   </g>
   <g id="cell51">
  <circle cx="475.464" cy="568.159" r="8.41271" stroke-width="0.5" stroke="black" fill="Red"/>
  <circle cx="475.464" cy="568.159" r="5.05167" stroke-width="0.5" stroke="Red" fill="Red"/>
   </g>
   <g id="cell52">
  <circle cx="475.095" cy="583.773" r="8.41271" stroke-width="0.5" stroke="black" fill="yellow"/>
  <circle cx="475.095" cy="583.773" r="5.05167" stroke-width="0.5" stroke="yellow" fill="yellow"/>
   </g>
   <g id="cell53">
  <circle cx="489.943" cy="404.464" r="8.41271" stroke-width="0.5" stroke="black" fill="Red"/>
  <circle cx="489.943" cy="404.464" r="5.05167" stroke-width="0.5" stroke="Red" fill="Red"/>
   </g>
   <g id="cell54">
  <circle cx="475.938" cy="425.357" r="8.41271" stroke-width="0.5" stroke="black" fill="Red"/>
  <circle cx="475.938" cy="425.357" r="5.05167" stroke-width="0.5" stroke="Red" fill="Red"/>
   </g>
   <g id="cell55">
  <circle cx="483.925" cy="447.348" r="7.75912" stroke-width="0.5" stroke="black" fill="Red"/>
  <circle cx="483.925" cy="447.348" r="4.71248" stroke-width="0.5" stroke="Red" fill="Red"/>
   </g>
   <g id="cell56">
  <circle cx="491.637" cy="455.396" r="7.93688" stroke-width="0.5" stroke="black" fill="blue"/>
  <circle cx="491.637" cy="455.396" r="4.81381" stroke-width="0.5" stroke="blue" fill="blue"/>
   </g>
   <g id="cell57">
  <circle cx="485.758" cy="471.315" r="8.41271" stroke-width="0.5" stroke="black" fill="Red"/>
  <circle cx="485.758" cy="471.315" r="5.05167" stroke-width="0.5" stroke="Red" fill="Red"/>
   </g>
   <g id="cell58">
  <circle cx="480.531" cy="486.245" r="8.41271" stroke-width="0.5" stroke="black" fill="blue"/>
  <circle cx="480.531" cy="486.245" r="5.05167" stroke-width="0.5" stroke="blue" fill="blue"/>
   </g>
   <g id="cell59">
  <circle cx="483.039" cy="496.776" r="7.33129" stroke-width="0.5" stroke="black" fill="Red"/>
  <circle cx="483.039" cy="496.776" r="4.45516" stroke-width="0.5" stroke="Red" fill="Red"/>
   </g>
   <g id="cell60">
  <circle cx="488.046" cy="515.603" r="8.41271" stroke-width="0.5" stroke="black" fill="Red"/>
  <circle cx="488.046" cy="515.603" r="5.05167" stroke-width="0.5" stroke="Red" fill="Red"/>
   </g>
   <g id="cell61">
  <circle cx="483.134" cy="532.798" r="8.41271" stroke-width="0.5" stroke="black" fill="Red"/>
  <circle cx="483.134" cy="532.798" r="5.05167" stroke-width="0.5" stroke="Red" fill="Red"/>
   </g>
   <g id="cell62">
  <circle cx="485.739" cy="547.418" r="8.41271" stroke-width="0.5" stroke="black" fill="Red"/>
  <circle cx="485.739" cy="547.418" r="5.05167" stroke-width="0.5" stroke="Red" fill="Red"/>
   </g>
   <g id="cell63">
  <circle cx="492.432" cy="562.865" r="8.41271" stroke-width="0.5" stroke="black" fill="Red"/>
  <circle cx="492.432" cy="562.865" r="5.05167" stroke-width="0.5" stroke="Red" fill="Red"/>
   </g>
   <g id="cell64">
  <circle cx="487.31" cy="573.387" r="8.41271" stroke-width="0.5" stroke="black" fill="blue"/>
  <circle cx="487.31" cy="573.387" r="5.05167" stroke-width="0.5" stroke="blue" fill="blue"/>
   </g>
   <g id="cell65">
  <circle cx="484.516" cy="596.684" r="7.1497" stroke-width="0.5" stroke="black" fill="Red"/>
  <circle cx="484.516" cy="596.684" r="4.34001" stroke-width="0.5" stroke="Red" fill="Red"/>
   </g>
   <g id="cell66">
  <circle cx="502.434" cy="410.64" r="8.41271" stroke-width="0.5" stroke="black" fill="blue"/>
  <circle cx="502.434" cy="410.64" r="5.05167" stroke-width="0.5" stroke="blue" fill="blue"/>
   </g>
   <g id="cell67">
  <circle cx="488.939" cy="418.327" r="8.41271" stroke-width="0.5" stroke="black" fill="Red"/>
  <circle cx="488.939" cy="418.327" r="5.05167" stroke-width="0.5" stroke="Red" fill="Red"/>
   </g>
   <g id="cell68">
  <circle cx="500.117" cy="425.448" r="8.41271" stroke-width="0.5" stroke="black" fill="Red"/>
  <circle cx="500.117" cy="425.448" r="5.05167" stroke-width="0.5" stroke="Red" fill="Red"/>
   </g>
   <g id="cell69">
  <circle cx="498.871" cy="448.084" r="6.71158" stroke-width="0.5" stroke="black" fill="Red"/>
  <circle cx="498.871" cy="448.084" r="4.03435" stroke-width="0.5" stroke="Red" fill="Red"/>
   </g>
   <g id="cell70">
  <circle cx="497.374" cy="466.385" r="8.41271" stroke-width="0.5" stroke="black" fill="Red"/>
  <circle cx="497.374" cy="466.385" r="5.05167" stroke-width="0.5" stroke="Red" fill="Red"/>
   </g>
   <g id="cell71">
  <circle cx="493.143" cy="481.234" r="8.41271" stroke-width="0.5" stroke="black" fill="Red"/>
  <circle cx="493.143" cy="481.234" r="5.05167" stroke-width="0.5" stroke="Red" fill="Red"/>
   </g>
   <g id="cell72">
  <circle cx="494.072" cy="494.207" r="8.41271" stroke-width="0.5" stroke="black" fill="yellow"/>
  <circle cx="494.072" cy="494.207" r="5.05167" stroke-width="0.5" stroke="yellow" fill="yellow"/>
   </g>
   <g id="cell73">
  <circle cx="500.116" cy="513.506" r="8.41271" stroke-width="0.5" stroke="black" fill="Red"/>
  <circle cx="500.116" cy="513.506" r="5.05167" stroke-width="0.5" stroke="Red" fill="Red"/>
   </g>
   <g id="cell74">
  <circle cx="493.701" cy="525.838" r="8.41271" stroke-width="0.5" stroke="black" fill="Red"/>
  <circle cx="493.701" cy="525.838" r="5.05167" stroke-width="0.5" stroke="Red" fill="Red"/>
   </g>
   <g id="cell75">
  <circle cx="495.181" cy="537.624" r="8.41271" stroke-width="0.5" stroke="black" fill="Red"/>
  <circle cx="495.181" cy="537.624" r="5.05167" stroke-width="0.5" stroke="Red" fill="Red"/>
   </g>
   <g id="cell76">
  <circle cx="498.274" cy="546.997" r="6.67717" stroke-width="0.5" stroke="black" fill="Red"/>
  <circle cx="498.274" cy="546.997" r="4.00951" stroke-width="0.5" stroke="Red" fill="Red"/>
   </g>
   <g id="cell77">
  <circle cx="501.335" cy="571.048" r="7.86286" stroke-width="0.5" stroke="black" fill="Red"/>
  <circle cx="501.335" cy="571.048" r="4.77207" stroke-width="0.5" stroke="Red" fill="Red"/>
   </g>
   <g id="cell78">
  <circle cx="499.157" cy="582.06" r="8.41271" stroke-width="0.5" stroke="black" fill="Red"/>
  <circle cx="499.157" cy="582.06" r="5.05167" stroke-width="0.5" stroke="Red" fill="Red"/>
   </g>
   <g id="cell79">
  <circle cx="497.377" cy="595.713" r="8.41271" stroke-width="0.5" stroke="black" fill="blue"/>
  <circle cx="497.377" cy="595.713" r="5.05167" stroke-width="0.5" stroke="blue" fill="blue"/>
   </g>
   <g id="cell80">
  <circle cx="515.973" cy="409.315" r="7.49456" stroke-width="0.5" stroke="black" fill="Red"/>
  <circle cx="515.973" cy="409.315" r="4.55548" stroke-width="0.5" stroke="Red" fill="Red"/>
   </g>
   <g id="cell81">
  <circle cx="513.306" cy="432.569" r="8.41271" stroke-width="0.5" stroke="black" fill="Red"/>
  <circle cx="513.306" cy="432.569" r="5.05167" stroke-width="0.5" stroke="Red" fill="Red"/>
   </g>
   <g id="cell82">
  <circle cx="508.451" cy="444.436" r="7.21189" stroke-width="0.5" stroke="black" fill="Red"/>
  <circle cx="508.451" cy="444.436" r="4.37993" stroke-width="0.5" stroke="Red" fill="Red"/>
   </g>
   <g id="cell83">
  <circle cx="505.688" cy="455.337" r="8.41271" stroke-width="0.5" stroke="black" fill="Red"/>
  <circle cx="505.688" cy="455.337" r="5.05167" stroke-width="0.5" stroke="Red" fill="Red"/>
   </g>
   <g id="cell84">
  <circle cx="509.3" cy="465.175" r="6.92764" stroke-width="0.5" stroke="black" fill="blue"/>
  <circle cx="509.3" cy="465.175" r="4.1918" stroke-width="0.5" stroke="blue" fill="blue"/>
   </g>
   <g id="cell85">
  <circle cx="504.778" cy="476.917" r="8.41271" stroke-width="0.5" stroke="black" fill="Red"/>
  <circle cx="504.778" cy="476.917" r="5.05167" stroke-width="0.5" stroke="Red" fill="Red"/>
   </g>
   <g id="cell86">
  <circle cx="507.828" cy="502.065" r="8.41271" stroke-width="0.5" stroke="black" fill="Red"/>
  <circle cx="507.828" cy="502.065" r="5.05167" stroke-width="0.5" stroke="Red" fill="Red"/>
   </g>
   <g id="cell87">
  <circle cx="512.7" cy="513.896" r="7.90853" stroke-width="0.5" stroke="black" fill="Red"/>
  <circle cx="512.7" cy="513.896" r="4.79791" stroke-width="0.5" stroke="Red" fill="Red"/>
   </g>
   <g id="cell88">
  <circle cx="507.294" cy="535.611" r="8.41271" stroke-width="0.5" stroke="black" fill="Red"/>
  <circle cx="507.294" cy="535.611" r="5.05167" stroke-width="0.5" stroke="Red" fill="Red"/>
   </g>
   <g id="cell89">
  <circle cx="508.198" cy="548.001" r="8.41271" stroke-width="0.5" stroke="black" fill="Red"/>
  <circle cx="508.198" cy="548.001" r="5.05167" stroke-width="0.5" stroke="Red" fill="Red"/>
   </g>
   <g id="cell90">
  <circle cx="519.612" cy="556.772" r="8.41271" stroke-width="0.5" stroke="black" fill="Red"/>
  <circle cx="519.612" cy="556.772" r="5.05167" stroke-width="0.5" stroke="Red" fill="Red"/>
   </g>
   <g id="cell91">
  <circle cx="514.859" cy="570.108" r="8.41271" stroke-width="0.5" stroke="black" fill="yellow"/>
  <circle cx="514.859" cy="570.108" r="5.05167" stroke-width="0.5" stroke="yellow" fill="yellow"/>
   </g>
   <g id="cell92">
  <circle cx="512.666" cy="585.005" r="8.41271" stroke-width="0.5" stroke="black" fill="yellow"/>
  <circle cx="512.666" cy="585.005" r="5.05167" stroke-width="0.5" stroke="yellow" fill="yellow"/>
   </g>
   <g id="cell93">
  <circle cx="528.988" cy="409.957" r="8.41271" stroke-width="0.5" stroke="black" fill="blue"/>
  <circle cx="528.988" cy="409.957" r="5.05167" stroke-width="0.5" stroke="blue" fill="blue"/>
   </g>
   <g id="cell94">
  <circle cx="535.605" cy="422.901" r="7.9229" stroke-width="0.5" stroke="black" fill="yellow"/>
  <circle cx="535.605" cy="422.901" r="4.80599" stroke-width="0.5" stroke="yellow" fill="yellow"/>
   </g>
   <g id="cell95">
  <circle cx="528.202" cy="436.42" r="8.41271" stroke-width="0.5" stroke="black" fill="Red"/>
  <circle cx="528.202" cy="436.42" r="5.05167" stroke-width="0.5" stroke="Red" fill="Red"/>
   </g>
   <g id="cell96">
  <circle cx="519.38" cy="445.112" r="7.55307" stroke-width="0.5" stroke="black" fill="blue"/>
  <circle cx="519.38" cy="445.112" r="4.61244" stroke-width="0.5" stroke="blue" fill="blue"/>
   </g>
   <g id="cell97">
  <circle cx="527.817" cy="464.524" r="8.41271" stroke-width="0.5" stroke="black" fill="Red"/>
  <circle cx="527.817" cy="464.524" r="5.05167" stroke-width="0.5" stroke="Red" fill="Red"/>
   </g>
   <g id="cell98">
  <circle cx="521.172" cy="494.541" r="7.2823" stroke-width="0.5" stroke="black" fill="blue"/>
  <circle cx="521.172" cy="494.541" r="4.45841" stroke-width="0.5" stroke="blue" fill="blue"/>
   </g>
   <g id="cell99">
  <circle cx="532.566" cy="499.117" r="8.41271" stroke-width="0.5" stroke="black" fill="Red"/>
  <circle cx="532.566" cy="499.117" r="5.05167" stroke-width="0.5" stroke="Red" fill="Red"/>
   </g>
   <g id="cell100">
  <circle cx="520.819" cy="504.799" r="7.38797" stroke-width="0.5" stroke="black" fill="Red"/>
  <circle cx="520.819" cy="504.799" r="4.49029" stroke-width="0.5" stroke="Red" fill="Red"/>
   </g>
   <g id="cell101">
  <circle cx="518.389" cy="527.778" r="8.41271" stroke-width="0.5" stroke="black" fill="Red"/>
  <circle cx="518.389" cy="527.778" r="5.05167" stroke-width="0.5" stroke="Red" fill="Red"/>
   </g>
   <g id="cell102">
  <circle cx="528.583" cy="536.645" r="8.02418" stroke-width="0.5" stroke="black" fill="Red"/>
  <circle cx="528.583" cy="536.645" r="4.86209" stroke-width="0.5" stroke="Red" fill="Red"/>
   </g>
   <g id="cell103">
  <circle cx="528.27" cy="550.308" r="8.41271" stroke-width="0.5" stroke="black" fill="Red"/>
  <circle cx="528.27" cy="550.308" r="5.05167" stroke-width="0.5" stroke="Red" fill="Red"/>
   </g>
   <g id="cell104">
  <circle cx="528.451" cy="565.938" r="8.41271" stroke-width="0.5" stroke="black" fill="yellow"/>
  <circle cx="528.451" cy="565.938" r="5.05167" stroke-width="0.5" stroke="yellow" fill="yellow"/>
   </g>
   <g id="cell105">
  <circle cx="526.854" cy="579.592" r="8.41271" stroke-width="0.5" stroke="black" fill="blue"/>
  <circle cx="526.854" cy="579.592" r="5.05167" stroke-width="0.5" stroke="blue" fill="blue"/>
   </g>
   <g id="cell106">
  <circle cx="542.989" cy="412.938" r="7.41548" stroke-width="0.5" stroke="black" fill="yellow"/>
  <circle cx="542.989" cy="412.938" r="4.50723" stroke-width="0.5" stroke="yellow" fill="yellow"/>
   </g>
   <g id="cell107">
  <circle cx="540.788" cy="437.666" r="8.41271" stroke-width="0.5" stroke="black" fill="blue"/>
  <circle cx="540.788" cy="437.666" r="5.05167" stroke-width="0.5" stroke="blue" fill="blue"/>
   </g>
   <g id="cell108">
  <circle cx="531.414" cy="449.799" r="8.41271" stroke-width="0.5" stroke="black" fill="Red"/>
  <circle cx="531.414" cy="449.799" r="5.05167" stroke-width="0.5" stroke="Red" fill="Red"/>
   </g>
   <g id="cell109">
  <circle cx="550.012" cy="468.303" r="8.41271" stroke-width="0.5" stroke="black" fill="Red"/>
  <circle cx="550.012" cy="468.303" r="5.05167" stroke-width="0.5" stroke="Red" fill="Red"/>
   </g>
   <g id="cell110">
  <circle cx="530.436" cy="485.52" r="8.41271" stroke-width="0.5" stroke="black" fill="Red"/>
  <circle cx="530.436" cy="485.52" r="5.05167" stroke-width="0.5" stroke="Red" fill="Red"/>
   </g>
   <g id="cell111">
  <circle cx="541.644" cy="490.64" r="8.41271" stroke-width="0.5" stroke="black" fill="Red"/>
  <circle cx="541.644" cy="490.64" r="5.05167" stroke-width="0.5" stroke="Red" fill="Red"/>
   </g>
   <g id="cell112">
  <circle cx="542.86" cy="505.646" r="8.41271" stroke-width="0.5" stroke="black" fill="Red"/>
  <circle cx="542.86" cy="505.646" r="5.05167" stroke-width="0.5" stroke="Red" fill="Red"/>
   </g>
   <g id="cell113">
  <circle cx="530.657" cy="512.328" r="8.41271" stroke-width="0.5" stroke="black" fill="Red"/>
  <circle cx="530.657" cy="512.328" r="5.05167" stroke-width="0.5" stroke="Red" fill="Red"/>
   </g>
   <g id="cell114">
  <circle cx="532.202" cy="525.498" r="8.41271" stroke-width="0.5" stroke="black" fill="Red"/>
  <circle cx="532.202" cy="525.498" r="5.05167" stroke-width="0.5" stroke="Red" fill="Red"/>
   </g>
   <g id="cell115">
  <circle cx="538.629" cy="542.92" r="8.41271" stroke-width="0.5" stroke="black" fill="Red"/>
  <circle cx="538.629" cy="542.92" r="5.05167" stroke-width="0.5" stroke="Red" fill="Red"/>
   </g>
   <g id="cell116">
  <circle cx="546.042" cy="562.978" r="6.99069" stroke-width="0.5" stroke="black" fill="blue"/>
  <circle cx="546.042" cy="562.978" r="4.23498" stroke-width="0.5" stroke="blue" fill="blue"/>
   </g>
   <g id="cell117">
  <circle cx="539.707" cy="572.59" r="8.41271" stroke-width="0.5" stroke="black" fill="yellow"/>
  <circle cx="539.707" cy="572.59" r="5.05167" stroke-width="0.5" stroke="yellow" fill="yellow"/>
   </g>
   <g id="cell118">
  <circle cx="549.834" cy="425.769" r="8.41271" stroke-width="0.5" stroke="black" fill="yellow"/>
  <circle cx="549.834" cy="425.769" r="5.05167" stroke-width="0.5" stroke="yellow" fill="yellow"/>
   </g>
   <g id="cell119">
  <circle cx="554.556" cy="440.396" r="8.41271" stroke-width="0.5" stroke="black" fill="yellow"/>
  <circle cx="554.556" cy="440.396" r="5.05167" stroke-width="0.5" stroke="yellow" fill="yellow"/>
   </g>
   <g id="cell120">
  <circle cx="553.674" cy="457.352" r="7.90853" stroke-width="0.5" stroke="black" fill="Red"/>
  <circle cx="553.674" cy="457.352" r="4.79791" stroke-width="0.5" stroke="Red" fill="Red"/>
   </g>
   <g id="cell121">
  <circle cx="560.649" cy="476.963" r="8.41271" stroke-width="0.5" stroke="black" fill="Red"/>
  <circle cx="560.649" cy="476.963" r="5.05167" stroke-width="0.5" stroke="Red" fill="Red"/>
   </g>
   <g id="cell122">
  <circle cx="547.716" cy="480.961" r="8.41271" stroke-width="0.5" stroke="black" fill="blue"/>
  <circle cx="547.716" cy="480.961" r="5.05167" stroke-width="0.5" stroke="blue" fill="blue"/>
   </g>
   <g id="cell123">
  <circle cx="551.464" cy="497.707" r="8.41271" stroke-width="0.5" stroke="black" fill="Red"/>
  <circle cx="551.464" cy="497.707" r="5.05167" stroke-width="0.5" stroke="Red" fill="Red"/>
   </g>
   <g id="cell124">
  <circle cx="554.409" cy="511.737" r="8.41271" stroke-width="0.5" stroke="black" fill="Red"/>
  <circle cx="554.409" cy="511.737" r="5.05167" stroke-width="0.5" stroke="Red" fill="Red"/>
   </g>
   <g id="cell125">
  <circle cx="542.763" cy="519" r="7.9229" stroke-width="0.5" stroke="black" fill="blue"/>
  <circle cx="542.763" cy="519" r="4.80599" stroke-width="0.5" stroke="blue" fill="blue"/>
   </g>
   <g id="cell126">
  <circle cx="543.543" cy="531.994" r="8.41271" stroke-width="0.5" stroke="black" fill="Red"/>
  <circle cx="543.543" cy="531.994" r="5.05167" stroke-width="0.5" stroke="Red" fill="Red"/>
   </g>
   <g id="cell127">
  <circle cx="547.529" cy="550.352" r="8.41271" stroke-width="0.5" stroke="black" fill="Red"/>
  <circle cx="547.529" cy="550.352" r="5.05167" stroke-width="0.5" stroke="Red" fill="Red"/>
   </g>
   <g id="cell128">
  <circle cx="558.48" cy="560.529" r="8.41271" stroke-width="0.5" stroke="black" fill="Red"/>
  <circle cx="558.48" cy="560.529" r="5.05167" stroke-width="0.5" stroke="Red" fill="Red"/>
   </g>
   <g id="cell129">
  <circle cx="579.088" cy="454.651" r="7.89373" stroke-width="0.5" stroke="black" fill="yellow"/>
  <circle cx="579.088" cy="454.651" r="4.78957" stroke-width="0.5" stroke="yellow" fill="yellow"/>
   </g>
   <g id="cell130">
  <circle cx="563.854" cy="465.169" r="8.41271" stroke-width="0.5" stroke="black" fill="Red"/>
  <circle cx="563.854" cy="465.169" r="5.05167" stroke-width="0.5" stroke="Red" fill="Red"/>
   </g>
   <g id="cell131">
  <circle cx="571.843" cy="481.007" r="8.41271" stroke-width="0.5" stroke="black" fill="Red"/>
  <circle cx="571.843" cy="481.007" r="5.05167" stroke-width="0.5" stroke="Red" fill="Red"/>
   </g>
   <g id="cell132">
  <circle cx="560.309" cy="489.297" r="8.41271" stroke-width="0.5" stroke="black" fill="Red"/>
  <circle cx="560.309" cy="489.297" r="5.05167" stroke-width="0.5" stroke="Red" fill="Red"/>
   </g>
   <g id="cell133">
  <circle cx="564.167" cy="502.193" r="8.41271" stroke-width="0.5" stroke="black" fill="blue"/>
  <circle cx="564.167" cy="502.193" r="5.05167" stroke-width="0.5" stroke="blue" fill="blue"/>
   </g>
   <g id="cell134">
  <circle cx="567.026" cy="515.3" r="8.41271" stroke-width="0.5" stroke="black" fill="Red"/>
  <circle cx="567.026" cy="515.3" r="5.05167" stroke-width="0.5" stroke="Red" fill="Red"/>
   </g>
   <g id="cell135">
  <circle cx="567.436" cy="529.295" r="8.41271" stroke-width="0.5" stroke="black" fill="Red"/>
  <circle cx="567.436" cy="529.295" r="5.05167" stroke-width="0.5" stroke="Red" fill="Red"/>
   </g>
   <g id="cell136">
  <circle cx="555.226" cy="539.103" r="8.41271" stroke-width="0.5" stroke="black" fill="Red"/>
  <circle cx="555.226" cy="539.103" r="5.05167" stroke-width="0.5" stroke="Red" fill="Red"/>
   </g>
   <g id="cell137">
  <circle cx="571.051" cy="555.583" r="7.11815" stroke-width="0.5" stroke="black" fill="blue"/>
  <circle cx="571.051" cy="555.583" r="4.31954" stroke-width="0.5" stroke="blue" fill="blue"/>
   </g>
   <g id="cell138">
  <circle cx="576.958" cy="469.203" r="8.41271" stroke-width="0.5" stroke="black" fill="blue"/>
  <circle cx="576.958" cy="469.203" r="5.05167" stroke-width="0.5" stroke="blue" fill="blue"/>
   </g>
   <g id="cell139">
  <circle cx="585.248" cy="481.661" r="8.41271" stroke-width="0.5" stroke="black" fill="yellow"/>
  <circle cx="585.248" cy="481.661" r="5.05167" stroke-width="0.5" stroke="yellow" fill="yellow"/>
   </g>
   <g id="cell140">
  <circle cx="573.691" cy="493.368" r="8.06667" stroke-width="0.5" stroke="black" fill="Red"/>
  <circle cx="573.691" cy="493.368" r="4.88515" stroke-width="0.5" stroke="Red" fill="Red"/>
   </g>
   <g id="cell141">
  <circle cx="577.59" cy="506.275" r="8.41271" stroke-width="0.5" stroke="black" fill="Red"/>
  <circle cx="577.59" cy="506.275" r="5.05167" stroke-width="0.5" stroke="Red" fill="Red"/>
   </g>
   <g id="cell142">
  <circle cx="577.622" cy="520.699" r="7.79564" stroke-width="0.5" stroke="black" fill="blue"/>
  <circle cx="577.622" cy="520.699" r="4.73359" stroke-width="0.5" stroke="blue" fill="blue"/>
   </g>
   <g id="cell143">
  <circle cx="569.986" cy="542.722" r="8.41271" stroke-width="0.5" stroke="black" fill="yellow"/>
  <circle cx="569.986" cy="542.722" r="5.05167" stroke-width="0.5" stroke="yellow" fill="yellow"/>
   </g>
   <g id="cell144">
  <circle cx="431.781" cy="433.564" r="7.27927" stroke-width="0.5" stroke="black" fill="blue"/>
  <circle cx="431.781" cy="433.564" r="4.45086" stroke-width="0.5" stroke="blue" fill="blue"/>
   </g>
   <g id="cell145">
  <circle cx="585.314" cy="495.14" r="6.60771" stroke-width="0.5" stroke="black" fill="yellow"/>
  <circle cx="585.314" cy="495.14" r="4.02374" stroke-width="0.5" stroke="yellow" fill="yellow"/>
   </g>
   <g id="cell146">
  <circle cx="477.3" cy="507.203" r="7.59159" stroke-width="0.5" stroke="black" fill="Red"/>
  <circle cx="477.3" cy="507.203" r="4.63459" stroke-width="0.5" stroke="Red" fill="Red"/>
   </g>
   <g id="cell147">
  <circle cx="540.824" cy="461.029" r="7.83202" stroke-width="0.5" stroke="black" fill="blue"/>
  <circle cx="540.824" cy="461.029" r="4.7692" stroke-width="0.5" stroke="blue" fill="blue"/>
   </g>
   <g id="cell148">
  <circle cx="519.21" cy="542.375" r="8.02418" stroke-width="0.5" stroke="black" fill="blue"/>
  <circle cx="519.21" cy="542.375" r="4.86209" stroke-width="0.5" stroke="blue" fill="blue"/>
   </g>
   <g id="cell149">
  <circle cx="536.843" cy="474.15" r="7.83202" stroke-width="0.5" stroke="black" fill="Red"/>
  <circle cx="536.843" cy="474.15" r="4.7692" stroke-width="0.5" stroke="Red" fill="Red"/>
   </g>
   <g id="cell150">
  <circle cx="442.397" cy="512.937" r="7.96365" stroke-width="0.5" stroke="black" fill="Red"/>
  <circle cx="442.397" cy="512.937" r="4.82873" stroke-width="0.5" stroke="Red" fill="Red"/>
   </g>
   <g id="cell151">
  <circle cx="452.329" cy="414.819" r="7.96365" stroke-width="0.5" stroke="black" fill="blue"/>
  <circle cx="452.329" cy="414.819" r="4.82873" stroke-width="0.5" stroke="blue" fill="blue"/>
   </g>
   <g id="cell152">
  <circle cx="480.705" cy="459.027" r="7.93688" stroke-width="0.5" stroke="black" fill="Red"/>
  <circle cx="480.705" cy="459.027" r="4.81381" stroke-width="0.5" stroke="Red" fill="Red"/>
   </g>
   <g id="cell153">
  <circle cx="522.911" cy="422.655" r="7.9229" stroke-width="0.5" stroke="black" fill="yellow"/>
  <circle cx="522.911" cy="422.655" r="4.80599" stroke-width="0.5" stroke="yellow" fill="yellow"/>
   </g>
   <g id="cell154">
  <circle cx="554.925" cy="525.644" r="7.9229" stroke-width="0.5" stroke="black" fill="Red"/>
  <circle cx="554.925" cy="525.644" r="4.80599" stroke-width="0.5" stroke="Red" fill="Red"/>
   </g>
   <g id="cell155">
  <circle cx="439.298" cy="422.572" r="7.67537" stroke-width="0.5" stroke="black" fill="yellow"/>
  <circle cx="439.298" cy="422.572" r="4.68302" stroke-width="0.5" stroke="yellow" fill="yellow"/>
   </g>
   <g id="cell156">
  <circle cx="505.262" cy="524.476" r="7.90853" stroke-width="0.5" stroke="black" fill="blue"/>
  <circle cx="505.262" cy="524.476" r="4.79791" stroke-width="0.5" stroke="blue" fill="blue"/>
   </g>
   <g id="cell157">
  <circle cx="544.851" cy="450.154" r="7.90853" stroke-width="0.5" stroke="black" fill="Red"/>
  <circle cx="544.851" cy="450.154" r="4.79791" stroke-width="0.5" stroke="Red" fill="Red"/>
   </g>
   <g id="cell158">
  <circle cx="559.853" cy="449.801" r="6.36482" stroke-width="0.5" stroke="black" fill="Red"/>
  <circle cx="559.853" cy="449.801" r="3.92315" stroke-width="0.5" stroke="Red" fill="Red"/>
   </g>
   <g id="cell159">
  <circle cx="470.794" cy="528.672" r="7.87851" stroke-width="0.5" stroke="black" fill="Red"/>
  <circle cx="470.794" cy="528.672" r="4.78096" stroke-width="0.5" stroke="Red" fill="Red"/>
   </g>
   <g id="cell160">
  <circle cx="506.28" cy="560.019" r="7.86286" stroke-width="0.5" stroke="black" fill="blue"/>
  <circle cx="506.28" cy="560.019" r="4.77207" stroke-width="0.5" stroke="blue" fill="blue"/>
   </g>
   <g id="cell161">
  <circle cx="516.268" cy="483.639" r="7.20676" stroke-width="0.5" stroke="black" fill="Red"/>
  <circle cx="516.268" cy="483.639" r="4.41384" stroke-width="0.5" stroke="Red" fill="Red"/>
   </g>
   <g id="cell162">
  <circle cx="580.064" cy="534.234" r="7.79564" stroke-width="0.5" stroke="black" fill="Red"/>
  <circle cx="580.064" cy="534.234" r="4.73359" stroke-width="0.5" stroke="Red" fill="Red"/>
   </g>
   <g id="cell163">
  <circle cx="466.001" cy="514.905" r="7.59159" stroke-width="0.5" stroke="black" fill="Red"/>
  <circle cx="466.001" cy="514.905" r="4.63459" stroke-width="0.5" stroke="Red" fill="Red"/>
   </g>
   <g id="cell164">
  <circle cx="429.6" cy="493.591" r="7.79564" stroke-width="0.5" stroke="black" fill="Red"/>
  <circle cx="429.6" cy="493.591" r="4.73359" stroke-width="0.5" stroke="Red" fill="Red"/>
   </g>
   <g id="cell165">
  <circle cx="470.602" cy="442.459" r="7.75912" stroke-width="0.5" stroke="black" fill="Red"/>
  <circle cx="470.602" cy="442.459" r="4.71248" stroke-width="0.5" stroke="Red" fill="Red"/>
   </g>
   <g id="cell166">
  <circle cx="488.271" cy="431.16" r="7.75912" stroke-width="0.5" stroke="black" fill="Red"/>
  <circle cx="488.271" cy="431.16" r="4.71248" stroke-width="0.5" stroke="Red" fill="Red"/>
   </g>
   <g id="cell167">
  <circle cx="517.852" cy="456.068" r="7.55307" stroke-width="0.5" stroke="black" fill="Red"/>
  <circle cx="517.852" cy="456.068" r="4.61244" stroke-width="0.5" stroke="Red" fill="Red"/>
   </g>
   <g id="cell168">
  <circle cx="431.833" cy="528.492" r="5.72702" stroke-width="0.5" stroke="black" fill="Red"/>
  <circle cx="431.833" cy="528.492" r="3.50798" stroke-width="0.5" stroke="Red" fill="Red"/>
   </g>
   <g id="cell169">
  <circle cx="416.212" cy="458.841" r="7.65871" stroke-width="0.5" stroke="black" fill="blue"/>
  <circle cx="416.212" cy="458.841" r="4.6537" stroke-width="0.5" stroke="blue" fill="blue"/>
   </g>
   <g id="cell170">
  <circle cx="511.122" cy="491.942" r="6.35011" stroke-width="0.5" stroke="black" fill="Red"/>
  <circle cx="511.122" cy="491.942" r="3.91514" stroke-width="0.5" stroke="Red" fill="Red"/>
   </g>
   <g id="cell171">
  <circle cx="452.437" cy="583.252" r="7.61469" stroke-width="0.5" stroke="black" fill="yellow"/>
  <circle cx="452.437" cy="583.252" r="4.62762" stroke-width="0.5" stroke="yellow" fill="yellow"/>
   </g>
   <g id="cell172">
  <circle cx="570.188" cy="443.797" r="7.30465" stroke-width="0.5" stroke="black" fill="blue"/>
  <circle cx="570.188" cy="443.797" r="4.47053" stroke-width="0.5" stroke="blue" fill="blue"/>
   </g>
   <g id="cell173">
  <circle cx="419.449" cy="518.826" r="7.2156" stroke-width="0.5" stroke="black" fill="blue"/>
  <circle cx="419.449" cy="518.826" r="4.41978" stroke-width="0.5" stroke="blue" fill="blue"/>
   </g>
   <g id="cell174">
  <circle cx="523.623" cy="476.167" r="7.20676" stroke-width="0.5" stroke="black" fill="blue"/>
  <circle cx="523.623" cy="476.167" r="4.41384" stroke-width="0.5" stroke="blue" fill="blue"/>
   </g>
   <g id="cell175">
  <circle cx="510.466" cy="420.267" r="7.49456" stroke-width="0.5" stroke="black" fill="Red"/>
  <circle cx="510.466" cy="420.267" r="4.55548" stroke-width="0.5" stroke="Red" fill="Red"/>
   </g>
   <g id="cell176">
  <circle cx="443.456" cy="434.596" r="7.27927" stroke-width="0.5" stroke="black" fill="Red"/>
  <circle cx="443.456" cy="434.596" r="4.45086" stroke-width="0.5" stroke="Red" fill="Red"/>
   </g>
   <g id="cell177">
  <circle cx="554.986" cy="412.551" r="7.41548" stroke-width="0.5" stroke="black" fill="blue"/>
  <circle cx="554.986" cy="412.551" r="4.50723" stroke-width="0.5" stroke="blue" fill="blue"/>
   </g>
   <g id="cell178">
  <circle cx="521.54" cy="517.771" r="7.38797" stroke-width="0.5" stroke="black" fill="Red"/>
  <circle cx="521.54" cy="517.771" r="4.49029" stroke-width="0.5" stroke="Red" fill="Red"/>
   </g>
   <g id="cell179">
  <circle cx="452.427" cy="531.02" r="7.38797" stroke-width="0.5" stroke="black" fill="Red"/>
  <circle cx="452.427" cy="531.02" r="4.49029" stroke-width="0.5" stroke="Red" fill="Red"/>
   </g>
   <g id="cell180">
  <circle cx="456.342" cy="436.991" r="7.38797" stroke-width="0.5" stroke="black" fill="Red"/>
  <circle cx="456.342" cy="436.991" r="4.49029" stroke-width="0.5" stroke="Red" fill="Red"/>
   </g>
   <g id="cell181">
  <circle cx="487.287" cy="505.156" r="5.95556" stroke-width="0.5" stroke="black" fill="blue"/>
  <circle cx="487.287" cy="505.156" r="3.63309" stroke-width="0.5" stroke="blue" fill="blue"/>
   </g>
   <g id="cell182">
  <circle cx="472.648" cy="553.807" r="7.30216" stroke-width="0.5" stroke="black" fill="blue"/>
  <circle cx="472.648" cy="553.807" r="4.43696" stroke-width="0.5" stroke="blue" fill="blue"/>
   </g>
   <g id="cell183">
  <circle cx="466.691" cy="433.491" r="7.24243" stroke-width="0.5" stroke="black" fill="blue"/>
  <circle cx="466.691" cy="433.491" r="4.39934" stroke-width="0.5" stroke="blue" fill="blue"/>
   </g>
   <g id="cell184">
  <circle cx="501.187" cy="437.123" r="7.21189" stroke-width="0.5" stroke="black" fill="blue"/>
  <circle cx="501.187" cy="437.123" r="4.37993" stroke-width="0.5" stroke="blue" fill="blue"/>
   </g>
   <g id="cell185">
  <circle cx="486.826" cy="586.404" r="7.1497" stroke-width="0.5" stroke="black" fill="Red"/>
  <circle cx="486.826" cy="586.404" r="4.34001" stroke-width="0.5" stroke="Red" fill="Red"/>
   </g>
   <g id="cell186">
  <circle cx="503.168" cy="487.981" r="6.35011" stroke-width="0.5" stroke="black" fill="blue"/>
  <circle cx="503.168" cy="487.981" r="3.91514" stroke-width="0.5" stroke="blue" fill="blue"/>
   </g>
   <g id="cell187">
  <circle cx="568.007" cy="454.835" r="6.36482" stroke-width="0.5" stroke="black" fill="yellow"/>
  <circle cx="568.007" cy="454.835" r="3.92315" stroke-width="0.5" stroke="yellow" fill="yellow"/>
   </g>
   <g id="cell188">
  <circle cx="560.135" cy="550.28" r="7.11815" stroke-width="0.5" stroke="black" fill="Red"/>
  <circle cx="560.135" cy="550.28" r="4.31954" stroke-width="0.5" stroke="Red" fill="Red"/>
   </g>
   <g id="cell189">
  <circle cx="460.418" cy="524.427" r="7.08639" stroke-width="0.5" stroke="black" fill="Red"/>
  <circle cx="460.418" cy="524.427" r="4.29876" stroke-width="0.5" stroke="Red" fill="Red"/>
   </g>
   <g id="cell190">
  <circle cx="457.365" cy="512.5" r="6.05381" stroke-width="0.5" stroke="black" fill="blue"/>
  <circle cx="457.365" cy="512.5" r="3.70794" stroke-width="0.5" stroke="blue" fill="blue"/>
   </g>
   <g id="cell191">
  <circle cx="536.786" cy="557.109" r="6.99069" stroke-width="0.5" stroke="black" fill="blue"/>
  <circle cx="536.786" cy="557.109" r="4.23498" stroke-width="0.5" stroke="blue" fill="blue"/>
   </g>
   <g id="cell192">
  <circle cx="515.232" cy="473.814" r="5.65094" stroke-width="0.5" stroke="black" fill="blue"/>
  <circle cx="515.232" cy="473.814" r="3.43672" stroke-width="0.5" stroke="blue" fill="blue"/>
   </g>
   <g id="cell193">
  <circle cx="596.701" cy="489.836" r="6.60771" stroke-width="0.5" stroke="black" fill="blue"/>
  <circle cx="596.701" cy="489.836" r="4.02374" stroke-width="0.5" stroke="blue" fill="blue"/>
   </g>
   <g id="cell194">
  <circle cx="453.031" cy="568.57" r="6.86652" stroke-width="0.5" stroke="black" fill="Red"/>
  <circle cx="453.031" cy="568.57" r="4.14883" stroke-width="0.5" stroke="Red" fill="Red"/>
   </g>
   <g id="cell195">
  <circle cx="495.972" cy="503.714" r="5.95556" stroke-width="0.5" stroke="black" fill="blue"/>
  <circle cx="495.972" cy="503.714" r="3.63309" stroke-width="0.5" stroke="blue" fill="blue"/>
   </g>
   <g id="cell196">
  <circle cx="464.647" cy="415.001" r="6.78181" stroke-width="0.5" stroke="black" fill="Red"/>
  <circle cx="464.647" cy="415.001" r="4.08714" stroke-width="0.5" stroke="Red" fill="Red"/>
   </g>
   <g id="cell197">
  <circle cx="518.326" cy="466.046" r="5.65094" stroke-width="0.5" stroke="black" fill="Red"/>
  <circle cx="518.326" cy="466.046" r="3.43672" stroke-width="0.5" stroke="Red" fill="Red"/>
   </g>
   <g id="cell198">
  <circle cx="463.979" cy="533.959" r="5.96599" stroke-width="0.5" stroke="black" fill="blue"/>
  <circle cx="463.979" cy="533.959" r="3.63642" stroke-width="0.5" stroke="blue" fill="blue"/>
   </g>
   <g id="cell199">
  <circle cx="413.307" cy="538.65" r="6.2366" stroke-width="0.5" stroke="black" fill="blue"/>
  <circle cx="413.307" cy="538.65" r="3.7979" stroke-width="0.5" stroke="blue" fill="blue"/>
   </g>
   <g id="cell200">
  <circle cx="492.099" cy="441.066" r="6.71158" stroke-width="0.5" stroke="black" fill="Red"/>
  <circle cx="492.099" cy="441.066" r="4.03435" stroke-width="0.5" stroke="Red" fill="Red"/>
   </g>
   <g id="cell201">
  <circle cx="467.085" cy="462.459" r="6.71158" stroke-width="0.5" stroke="black" fill="blue"/>
  <circle cx="467.085" cy="462.459" r="4.03435" stroke-width="0.5" stroke="blue" fill="blue"/>
   </g>
   <g id="cell202">
  <circle cx="423.697" cy="528.136" r="5.72702" stroke-width="0.5" stroke="black" fill="Red"/>
  <circle cx="423.697" cy="528.136" r="3.50798" stroke-width="0.5" stroke="Red" fill="Red"/>
   </g>
   <g id="cell203">
  <circle cx="495.305" cy="554.487" r="6.67717" stroke-width="0.5" stroke="black" fill="Red"/>
  <circle cx="495.305" cy="554.487" r="4.00951" stroke-width="0.5" stroke="Red" fill="Red"/>
   </g>
  </g>
 </g>
  <rect x="775" y="1035" width="200" height="10" stroke-width="2" stroke="rgb(255,255,255)" fill="rgb(0,0,0)"/>
  <text x="781.25" y="1028.75"
   font-family="Arial" font-size="25" fill="black" >
   200 &#956;m
  </text>
  <text x="25" y="1045"
   font-family="Arial" font-size="18.75" fill="black" >
   0 days, 0 hours, 2 minutes, and 38.0995 seconds
  </text>
  <rect x="0" y="70" width="1000" height="1000" stroke-width="2" stroke="rgb(0,0,0)" fill="none"/>
</svg>
