<?xml version="1.0" encoding="UTF-8" standalone="no"?>
<!-- Created with PhysiCell (http://PhysiCell.MathCancer.org/) -->
<svg 
 xmlns:dc="http://purl.org/dc/elements/1.1/" 
 xmlns:cc="http://creativecommons.org/ns#" 
 xmlns:rdf="http://www.w3.org/1999/02/22-rdf-syntax-ns#" 
 xmlns:svg="http://www.w3.org/2000/svg" 
 xmlns="http://www.w3.org/2000/svg" 
 version="1.1" 
 width="1000" 
 height="1070" 
 id="svg2">
  <rect x="0" y="0" width="1000" height="1070" stroke-width="2" stroke="white" fill="white"/>
  <text x="12.5" y="30"
   font-family="Arial" font-size="25" fill="black" >
   Current time: 0 days, 0 hours, and 15.00 minutes, z = 0.00 &#956;m
  </text>
  <text x="12.5" y="57.5"
   font-family="Arial" font-size="23.75" fill="black" >
   146 agents
  </text>
 <g id="tissue" 
    transform="translate(0,1070) scale(1,-1)">
  <g id="ECM">
  </g>
  <g id="cells">
   <g id="cell0">
  <circle cx="420.388" cy="452.858" r="8.41271" stroke-width="0.5" stroke="black" fill="blue"/>
  <circle cx="420.388" cy="452.858" r="5.05167" stroke-width="0.5" stroke="blue" fill="blue"/>
   </g>
   <g id="cell1">
  <circle cx="420.595" cy="466.452" r="8.41271" stroke-width="0.5" stroke="black" fill="Red"/>
  <circle cx="420.595" cy="466.452" r="5.05167" stroke-width="0.5" stroke="Red" fill="Red"/>
   </g>
   <g id="cell2">
  <circle cx="418.392" cy="481.497" r="8.41271" stroke-width="0.5" stroke="black" fill="blue"/>
  <circle cx="418.392" cy="481.497" r="5.05167" stroke-width="0.5" stroke="blue" fill="blue"/>
   </g>
   <g id="cell3">
  <circle cx="419.667" cy="495.745" r="8.41271" stroke-width="0.5" stroke="black" fill="blue"/>
  <circle cx="419.667" cy="495.745" r="5.05167" stroke-width="0.5" stroke="blue" fill="blue"/>
   </g>
   <g id="cell4">
  <circle cx="420.452" cy="509.688" r="8.41271" stroke-width="0.5" stroke="black" fill="blue"/>
  <circle cx="420.452" cy="509.688" r="5.05167" stroke-width="0.5" stroke="blue" fill="blue"/>
   </g>
   <g id="cell5">
  <circle cx="420.46" cy="524.244" r="8.41271" stroke-width="0.5" stroke="black" fill="Red"/>
  <circle cx="420.46" cy="524.244" r="5.05167" stroke-width="0.5" stroke="Red" fill="Red"/>
   </g>
   <g id="cell6">
  <circle cx="419.403" cy="539.734" r="8.41271" stroke-width="0.5" stroke="black" fill="blue"/>
  <circle cx="419.403" cy="539.734" r="5.05167" stroke-width="0.5" stroke="blue" fill="blue"/>
   </g>
   <g id="cell7">
  <circle cx="432.457" cy="449.207" r="6.67717" stroke-width="0.5" stroke="black" fill="Red"/>
  <circle cx="432.457" cy="449.207" r="4.00951" stroke-width="0.5" stroke="Red" fill="Red"/>
   </g>
   <g id="cell8">
  <circle cx="433.202" cy="460.156" r="8.41271" stroke-width="0.5" stroke="black" fill="Red"/>
  <circle cx="433.202" cy="460.156" r="5.05167" stroke-width="0.5" stroke="Red" fill="Red"/>
   </g>
   <g id="cell9">
  <circle cx="431.942" cy="474.235" r="8.41271" stroke-width="0.5" stroke="black" fill="Red"/>
  <circle cx="431.942" cy="474.235" r="5.05167" stroke-width="0.5" stroke="Red" fill="Red"/>
   </g>
   <g id="cell10">
  <circle cx="431.119" cy="487.817" r="8.41271" stroke-width="0.5" stroke="black" fill="Red"/>
  <circle cx="431.119" cy="487.817" r="5.05167" stroke-width="0.5" stroke="Red" fill="Red"/>
   </g>
   <g id="cell11">
  <circle cx="432.373" cy="502.748" r="8.41271" stroke-width="0.5" stroke="black" fill="Red"/>
  <circle cx="432.373" cy="502.748" r="5.05167" stroke-width="0.5" stroke="Red" fill="Red"/>
   </g>
   <g id="cell12">
  <circle cx="431.964" cy="516.886" r="8.41271" stroke-width="0.5" stroke="black" fill="Red"/>
  <circle cx="431.964" cy="516.886" r="5.05167" stroke-width="0.5" stroke="Red" fill="Red"/>
   </g>
   <g id="cell13">
  <circle cx="431.484" cy="531.047" r="8.41271" stroke-width="0.5" stroke="black" fill="Red"/>
  <circle cx="431.484" cy="531.047" r="5.05167" stroke-width="0.5" stroke="Red" fill="Red"/>
   </g>
   <g id="cell14">
  <circle cx="433.622" cy="545.761" r="8.41271" stroke-width="0.5" stroke="black" fill="Red"/>
  <circle cx="433.622" cy="545.761" r="5.05167" stroke-width="0.5" stroke="Red" fill="Red"/>
   </g>
   <g id="cell15">
  <circle cx="434.277" cy="559.034" r="8.41271" stroke-width="0.5" stroke="black" fill="blue"/>
  <circle cx="434.277" cy="559.034" r="5.05167" stroke-width="0.5" stroke="blue" fill="blue"/>
   </g>
   <g id="cell16">
  <circle cx="446.44" cy="424.186" r="8.41271" stroke-width="0.5" stroke="black" fill="blue"/>
  <circle cx="446.44" cy="424.186" r="5.05167" stroke-width="0.5" stroke="blue" fill="blue"/>
   </g>
   <g id="cell17">
  <circle cx="447.458" cy="438.076" r="8.41271" stroke-width="0.5" stroke="black" fill="Red"/>
  <circle cx="447.458" cy="438.076" r="5.05167" stroke-width="0.5" stroke="Red" fill="Red"/>
   </g>
   <g id="cell18">
  <circle cx="445.337" cy="452.279" r="8.41271" stroke-width="0.5" stroke="black" fill="Red"/>
  <circle cx="445.337" cy="452.279" r="5.05167" stroke-width="0.5" stroke="Red" fill="Red"/>
   </g>
   <g id="cell19">
  <circle cx="445.512" cy="466.174" r="8.41271" stroke-width="0.5" stroke="black" fill="Red"/>
  <circle cx="445.512" cy="466.174" r="5.05167" stroke-width="0.5" stroke="Red" fill="Red"/>
   </g>
   <g id="cell20">
  <circle cx="445.346" cy="481.177" r="8.41271" stroke-width="0.5" stroke="black" fill="Red"/>
  <circle cx="445.346" cy="481.177" r="5.05167" stroke-width="0.5" stroke="Red" fill="Red"/>
   </g>
   <g id="cell21">
  <circle cx="445.187" cy="495.962" r="8.41271" stroke-width="0.5" stroke="black" fill="Red"/>
  <circle cx="445.187" cy="495.962" r="5.05167" stroke-width="0.5" stroke="Red" fill="Red"/>
   </g>
   <g id="cell22">
  <circle cx="444.214" cy="511.374" r="8.41271" stroke-width="0.5" stroke="black" fill="blue"/>
  <circle cx="444.214" cy="511.374" r="5.05167" stroke-width="0.5" stroke="blue" fill="blue"/>
   </g>
   <g id="cell23">
  <circle cx="444.973" cy="525.116" r="8.41271" stroke-width="0.5" stroke="black" fill="Red"/>
  <circle cx="444.973" cy="525.116" r="5.05167" stroke-width="0.5" stroke="Red" fill="Red"/>
   </g>
   <g id="cell24">
  <circle cx="446.474" cy="539.061" r="8.41271" stroke-width="0.5" stroke="black" fill="Red"/>
  <circle cx="446.474" cy="539.061" r="5.05167" stroke-width="0.5" stroke="Red" fill="Red"/>
   </g>
   <g id="cell25">
  <circle cx="446.631" cy="552.995" r="8.41271" stroke-width="0.5" stroke="black" fill="Red"/>
  <circle cx="446.631" cy="552.995" r="5.05167" stroke-width="0.5" stroke="Red" fill="Red"/>
   </g>
   <g id="cell26">
  <circle cx="446.388" cy="566.476" r="8.41271" stroke-width="0.5" stroke="black" fill="Red"/>
  <circle cx="446.388" cy="566.476" r="5.05167" stroke-width="0.5" stroke="Red" fill="Red"/>
   </g>
   <g id="cell27">
  <circle cx="459.513" cy="415.409" r="8.41271" stroke-width="0.5" stroke="black" fill="yellow"/>
  <circle cx="459.513" cy="415.409" r="5.05167" stroke-width="0.5" stroke="yellow" fill="yellow"/>
   </g>
   <g id="cell28">
  <circle cx="459.871" cy="430.576" r="8.41271" stroke-width="0.5" stroke="black" fill="Red"/>
  <circle cx="459.871" cy="430.576" r="5.05167" stroke-width="0.5" stroke="Red" fill="Red"/>
   </g>
   <g id="cell29">
  <circle cx="458.652" cy="445.29" r="8.41271" stroke-width="0.5" stroke="black" fill="blue"/>
  <circle cx="458.652" cy="445.29" r="5.05167" stroke-width="0.5" stroke="blue" fill="blue"/>
   </g>
   <g id="cell30">
  <circle cx="459.591" cy="459.113" r="8.41271" stroke-width="0.5" stroke="black" fill="Red"/>
  <circle cx="459.591" cy="459.113" r="5.05167" stroke-width="0.5" stroke="Red" fill="Red"/>
   </g>
   <g id="cell31">
  <circle cx="458.636" cy="473.441" r="8.41271" stroke-width="0.5" stroke="black" fill="Red"/>
  <circle cx="458.636" cy="473.441" r="5.05167" stroke-width="0.5" stroke="Red" fill="Red"/>
   </g>
   <g id="cell32">
  <circle cx="458.233" cy="487.439" r="8.41271" stroke-width="0.5" stroke="black" fill="Red"/>
  <circle cx="458.233" cy="487.439" r="5.05167" stroke-width="0.5" stroke="Red" fill="Red"/>
   </g>
   <g id="cell33">
  <circle cx="459.049" cy="502.218" r="8.41271" stroke-width="0.5" stroke="black" fill="Red"/>
  <circle cx="459.049" cy="502.218" r="5.05167" stroke-width="0.5" stroke="Red" fill="Red"/>
   </g>
   <g id="cell34">
  <circle cx="458.675" cy="516.685" r="8.41271" stroke-width="0.5" stroke="black" fill="Red"/>
  <circle cx="458.675" cy="516.685" r="5.05167" stroke-width="0.5" stroke="Red" fill="Red"/>
   </g>
   <g id="cell35">
  <circle cx="459.432" cy="531.419" r="8.41271" stroke-width="0.5" stroke="black" fill="Red"/>
  <circle cx="459.432" cy="531.419" r="5.05167" stroke-width="0.5" stroke="Red" fill="Red"/>
   </g>
   <g id="cell36">
  <circle cx="460.743" cy="546.259" r="8.41271" stroke-width="0.5" stroke="black" fill="blue"/>
  <circle cx="460.743" cy="546.259" r="5.05167" stroke-width="0.5" stroke="blue" fill="blue"/>
   </g>
   <g id="cell37">
  <circle cx="459.424" cy="560.199" r="8.41271" stroke-width="0.5" stroke="black" fill="Red"/>
  <circle cx="459.424" cy="560.199" r="5.05167" stroke-width="0.5" stroke="Red" fill="Red"/>
   </g>
   <g id="cell38">
  <circle cx="459.767" cy="574.669" r="8.41271" stroke-width="0.5" stroke="black" fill="yellow"/>
  <circle cx="459.767" cy="574.669" r="5.05167" stroke-width="0.5" stroke="yellow" fill="yellow"/>
   </g>
   <g id="cell39">
  <circle cx="459.929" cy="590.451" r="8.41271" stroke-width="0.5" stroke="black" fill="blue"/>
  <circle cx="459.929" cy="590.451" r="5.05167" stroke-width="0.5" stroke="blue" fill="blue"/>
   </g>
   <g id="cell40">
  <circle cx="473.354" cy="410.282" r="8.41271" stroke-width="0.5" stroke="black" fill="blue"/>
  <circle cx="473.354" cy="410.282" r="5.05167" stroke-width="0.5" stroke="blue" fill="blue"/>
   </g>
   <g id="cell41">
  <circle cx="474.018" cy="423.534" r="8.41271" stroke-width="0.5" stroke="black" fill="Red"/>
  <circle cx="474.018" cy="423.534" r="5.05167" stroke-width="0.5" stroke="Red" fill="Red"/>
   </g>
   <g id="cell42">
  <circle cx="473.125" cy="437.279" r="8.41271" stroke-width="0.5" stroke="black" fill="Red"/>
  <circle cx="473.125" cy="437.279" r="5.05167" stroke-width="0.5" stroke="Red" fill="Red"/>
   </g>
   <g id="cell43">
  <circle cx="474.232" cy="451.196" r="8.41271" stroke-width="0.5" stroke="black" fill="Red"/>
  <circle cx="474.232" cy="451.196" r="5.05167" stroke-width="0.5" stroke="Red" fill="Red"/>
   </g>
   <g id="cell44">
  <circle cx="473.114" cy="466.463" r="8.41271" stroke-width="0.5" stroke="black" fill="blue"/>
  <circle cx="473.114" cy="466.463" r="5.05167" stroke-width="0.5" stroke="blue" fill="blue"/>
   </g>
   <g id="cell45">
  <circle cx="472.169" cy="479.936" r="8.41271" stroke-width="0.5" stroke="black" fill="Red"/>
  <circle cx="472.169" cy="479.936" r="5.05167" stroke-width="0.5" stroke="Red" fill="Red"/>
   </g>
   <g id="cell46">
  <circle cx="471.633" cy="494.461" r="8.41271" stroke-width="0.5" stroke="black" fill="Red"/>
  <circle cx="471.633" cy="494.461" r="5.05167" stroke-width="0.5" stroke="Red" fill="Red"/>
   </g>
   <g id="cell47">
  <circle cx="473.141" cy="509.071" r="8.41271" stroke-width="0.5" stroke="black" fill="Red"/>
  <circle cx="473.141" cy="509.071" r="5.05167" stroke-width="0.5" stroke="Red" fill="Red"/>
   </g>
   <g id="cell48">
  <circle cx="473.763" cy="523.815" r="8.41271" stroke-width="0.5" stroke="black" fill="blue"/>
  <circle cx="473.763" cy="523.815" r="5.05167" stroke-width="0.5" stroke="blue" fill="blue"/>
   </g>
   <g id="cell49">
  <circle cx="473.779" cy="539.125" r="8.41271" stroke-width="0.5" stroke="black" fill="Red"/>
  <circle cx="473.779" cy="539.125" r="5.05167" stroke-width="0.5" stroke="Red" fill="Red"/>
   </g>
   <g id="cell50">
  <circle cx="473.876" cy="553.382" r="8.41271" stroke-width="0.5" stroke="black" fill="Red"/>
  <circle cx="473.876" cy="553.382" r="5.05167" stroke-width="0.5" stroke="Red" fill="Red"/>
   </g>
   <g id="cell51">
  <circle cx="472.82" cy="567.667" r="8.41271" stroke-width="0.5" stroke="black" fill="blue"/>
  <circle cx="472.82" cy="567.667" r="5.05167" stroke-width="0.5" stroke="blue" fill="blue"/>
   </g>
   <g id="cell52">
  <circle cx="473.185" cy="582.869" r="8.41271" stroke-width="0.5" stroke="black" fill="yellow"/>
  <circle cx="473.185" cy="582.869" r="5.05167" stroke-width="0.5" stroke="yellow" fill="yellow"/>
   </g>
   <g id="cell53">
  <circle cx="486.373" cy="416.111" r="8.41271" stroke-width="0.5" stroke="black" fill="Red"/>
  <circle cx="486.373" cy="416.111" r="5.05167" stroke-width="0.5" stroke="Red" fill="Red"/>
   </g>
   <g id="cell54">
  <circle cx="486.58" cy="430.765" r="8.41271" stroke-width="0.5" stroke="black" fill="Red"/>
  <circle cx="486.58" cy="430.765" r="5.05167" stroke-width="0.5" stroke="Red" fill="Red"/>
   </g>
   <g id="cell55">
  <circle cx="487.568" cy="444.556" r="8.41271" stroke-width="0.5" stroke="black" fill="Red"/>
  <circle cx="487.568" cy="444.556" r="5.05167" stroke-width="0.5" stroke="Red" fill="Red"/>
   </g>
   <g id="cell56">
  <circle cx="488.327" cy="459.484" r="8.41271" stroke-width="0.5" stroke="black" fill="Red"/>
  <circle cx="488.327" cy="459.484" r="5.05167" stroke-width="0.5" stroke="Red" fill="Red"/>
   </g>
   <g id="cell57">
  <circle cx="487.452" cy="473.062" r="8.41271" stroke-width="0.5" stroke="black" fill="Red"/>
  <circle cx="487.452" cy="473.062" r="5.05167" stroke-width="0.5" stroke="Red" fill="Red"/>
   </g>
   <g id="cell58">
  <circle cx="485.64" cy="486.715" r="8.41271" stroke-width="0.5" stroke="black" fill="blue"/>
  <circle cx="485.64" cy="486.715" r="5.05167" stroke-width="0.5" stroke="blue" fill="blue"/>
   </g>
   <g id="cell59">
  <circle cx="485.848" cy="501.077" r="8.41271" stroke-width="0.5" stroke="black" fill="Red"/>
  <circle cx="485.848" cy="501.077" r="5.05167" stroke-width="0.5" stroke="Red" fill="Red"/>
   </g>
   <g id="cell60">
  <circle cx="486.782" cy="515.914" r="8.41271" stroke-width="0.5" stroke="black" fill="Red"/>
  <circle cx="486.782" cy="515.914" r="5.05167" stroke-width="0.5" stroke="Red" fill="Red"/>
   </g>
   <g id="cell61">
  <circle cx="487.024" cy="531.814" r="8.41271" stroke-width="0.5" stroke="black" fill="Red"/>
  <circle cx="487.024" cy="531.814" r="5.05167" stroke-width="0.5" stroke="Red" fill="Red"/>
   </g>
   <g id="cell62">
  <circle cx="486.17" cy="546.785" r="8.41271" stroke-width="0.5" stroke="black" fill="blue"/>
  <circle cx="486.17" cy="546.785" r="5.05167" stroke-width="0.5" stroke="blue" fill="blue"/>
   </g>
   <g id="cell63">
  <circle cx="487.012" cy="560.396" r="8.41271" stroke-width="0.5" stroke="black" fill="Red"/>
  <circle cx="487.012" cy="560.396" r="5.05167" stroke-width="0.5" stroke="Red" fill="Red"/>
   </g>
   <g id="cell64">
  <circle cx="486.208" cy="574.968" r="8.41271" stroke-width="0.5" stroke="black" fill="Red"/>
  <circle cx="486.208" cy="574.968" r="5.05167" stroke-width="0.5" stroke="Red" fill="Red"/>
   </g>
   <g id="cell65">
  <circle cx="489.027" cy="587.544" r="8.41271" stroke-width="0.5" stroke="black" fill="Red"/>
  <circle cx="489.027" cy="587.544" r="5.05167" stroke-width="0.5" stroke="Red" fill="Red"/>
   </g>
   <g id="cell66">
  <circle cx="500.734" cy="408.885" r="8.41271" stroke-width="0.5" stroke="black" fill="blue"/>
  <circle cx="500.734" cy="408.885" r="5.05167" stroke-width="0.5" stroke="blue" fill="blue"/>
   </g>
   <g id="cell67">
  <circle cx="499.308" cy="423.516" r="8.41271" stroke-width="0.5" stroke="black" fill="Red"/>
  <circle cx="499.308" cy="423.516" r="5.05167" stroke-width="0.5" stroke="Red" fill="Red"/>
   </g>
   <g id="cell68">
  <circle cx="501.424" cy="436.977" r="8.41271" stroke-width="0.5" stroke="black" fill="Red"/>
  <circle cx="501.424" cy="436.977" r="5.05167" stroke-width="0.5" stroke="Red" fill="Red"/>
   </g>
   <g id="cell69">
  <circle cx="501.527" cy="451.211" r="8.41271" stroke-width="0.5" stroke="black" fill="Red"/>
  <circle cx="501.527" cy="451.211" r="5.05167" stroke-width="0.5" stroke="Red" fill="Red"/>
   </g>
   <g id="cell70">
  <circle cx="503.315" cy="464.852" r="8.41271" stroke-width="0.5" stroke="black" fill="blue"/>
  <circle cx="503.315" cy="464.852" r="5.05167" stroke-width="0.5" stroke="blue" fill="blue"/>
   </g>
   <g id="cell71">
  <circle cx="499.651" cy="479.766" r="8.41271" stroke-width="0.5" stroke="black" fill="Red"/>
  <circle cx="499.651" cy="479.766" r="5.05167" stroke-width="0.5" stroke="Red" fill="Red"/>
   </g>
   <g id="cell72">
  <circle cx="500.385" cy="494.206" r="8.41271" stroke-width="0.5" stroke="black" fill="Red"/>
  <circle cx="500.385" cy="494.206" r="5.05167" stroke-width="0.5" stroke="Red" fill="Red"/>
   </g>
   <g id="cell73">
  <circle cx="500.307" cy="508.362" r="8.41271" stroke-width="0.5" stroke="black" fill="blue"/>
  <circle cx="500.307" cy="508.362" r="5.05167" stroke-width="0.5" stroke="blue" fill="blue"/>
   </g>
   <g id="cell74">
  <circle cx="501.149" cy="523.462" r="8.41271" stroke-width="0.5" stroke="black" fill="Red"/>
  <circle cx="501.149" cy="523.462" r="5.05167" stroke-width="0.5" stroke="Red" fill="Red"/>
   </g>
   <g id="cell75">
  <circle cx="500.735" cy="538.512" r="8.41271" stroke-width="0.5" stroke="black" fill="Red"/>
  <circle cx="500.735" cy="538.512" r="5.05167" stroke-width="0.5" stroke="Red" fill="Red"/>
   </g>
   <g id="cell76">
  <circle cx="500.661" cy="552.731" r="8.41271" stroke-width="0.5" stroke="black" fill="blue"/>
  <circle cx="500.661" cy="552.731" r="5.05167" stroke-width="0.5" stroke="blue" fill="blue"/>
   </g>
   <g id="cell77">
  <circle cx="501" cy="567.611" r="8.41271" stroke-width="0.5" stroke="black" fill="Red"/>
  <circle cx="501" cy="567.611" r="5.05167" stroke-width="0.5" stroke="Red" fill="Red"/>
   </g>
   <g id="cell78">
  <circle cx="500.969" cy="581.011" r="8.41271" stroke-width="0.5" stroke="black" fill="Red"/>
  <circle cx="500.969" cy="581.011" r="5.05167" stroke-width="0.5" stroke="Red" fill="Red"/>
   </g>
   <g id="cell79">
  <circle cx="501.384" cy="595.272" r="8.41271" stroke-width="0.5" stroke="black" fill="blue"/>
  <circle cx="501.384" cy="595.272" r="5.05167" stroke-width="0.5" stroke="blue" fill="blue"/>
   </g>
   <g id="cell80">
  <circle cx="514.557" cy="415.833" r="8.41271" stroke-width="0.5" stroke="black" fill="Red"/>
  <circle cx="514.557" cy="415.833" r="5.05167" stroke-width="0.5" stroke="Red" fill="Red"/>
   </g>
   <g id="cell81">
  <circle cx="515.91" cy="429.974" r="8.41271" stroke-width="0.5" stroke="black" fill="Red"/>
  <circle cx="515.91" cy="429.974" r="5.05167" stroke-width="0.5" stroke="Red" fill="Red"/>
   </g>
   <g id="cell82">
  <circle cx="515.738" cy="443.668" r="8.41271" stroke-width="0.5" stroke="black" fill="blue"/>
  <circle cx="515.738" cy="443.668" r="5.05167" stroke-width="0.5" stroke="blue" fill="blue"/>
   </g>
   <g id="cell83">
  <circle cx="517.411" cy="458.522" r="8.41271" stroke-width="0.5" stroke="black" fill="Red"/>
  <circle cx="517.411" cy="458.522" r="5.05167" stroke-width="0.5" stroke="Red" fill="Red"/>
   </g>
   <g id="cell84">
  <circle cx="516.082" cy="472.815" r="8.41271" stroke-width="0.5" stroke="black" fill="Red"/>
  <circle cx="516.082" cy="472.815" r="5.05167" stroke-width="0.5" stroke="Red" fill="Red"/>
   </g>
   <g id="cell85">
  <circle cx="515.227" cy="487.513" r="8.41271" stroke-width="0.5" stroke="black" fill="Red"/>
  <circle cx="515.227" cy="487.513" r="5.05167" stroke-width="0.5" stroke="Red" fill="Red"/>
   </g>
   <g id="cell86">
  <circle cx="513.593" cy="501.085" r="8.41271" stroke-width="0.5" stroke="black" fill="blue"/>
  <circle cx="513.593" cy="501.085" r="5.05167" stroke-width="0.5" stroke="blue" fill="blue"/>
   </g>
   <g id="cell87">
  <circle cx="515.025" cy="516.402" r="8.41271" stroke-width="0.5" stroke="black" fill="Red"/>
  <circle cx="515.025" cy="516.402" r="5.05167" stroke-width="0.5" stroke="Red" fill="Red"/>
   </g>
   <g id="cell88">
  <circle cx="516.58" cy="530.725" r="8.41271" stroke-width="0.5" stroke="black" fill="blue"/>
  <circle cx="516.58" cy="530.725" r="5.05167" stroke-width="0.5" stroke="blue" fill="blue"/>
   </g>
   <g id="cell89">
  <circle cx="515.779" cy="544.725" r="8.41271" stroke-width="0.5" stroke="black" fill="Red"/>
  <circle cx="515.779" cy="544.725" r="5.05167" stroke-width="0.5" stroke="Red" fill="Red"/>
   </g>
   <g id="cell90">
  <circle cx="515.411" cy="559.279" r="8.41271" stroke-width="0.5" stroke="black" fill="blue"/>
  <circle cx="515.411" cy="559.279" r="5.05167" stroke-width="0.5" stroke="blue" fill="blue"/>
   </g>
   <g id="cell91">
  <circle cx="514.017" cy="574.051" r="8.41271" stroke-width="0.5" stroke="black" fill="Red"/>
  <circle cx="514.017" cy="574.051" r="5.05167" stroke-width="0.5" stroke="Red" fill="Red"/>
   </g>
   <g id="cell92">
  <circle cx="513.938" cy="587.661" r="8.41271" stroke-width="0.5" stroke="black" fill="Red"/>
  <circle cx="513.938" cy="587.661" r="5.05167" stroke-width="0.5" stroke="Red" fill="Red"/>
   </g>
   <g id="cell93">
  <circle cx="529.084" cy="411.991" r="8.41271" stroke-width="0.5" stroke="black" fill="blue"/>
  <circle cx="529.084" cy="411.991" r="5.05167" stroke-width="0.5" stroke="blue" fill="blue"/>
   </g>
   <g id="cell94">
  <circle cx="529.966" cy="425.046" r="8.41271" stroke-width="0.5" stroke="black" fill="Red"/>
  <circle cx="529.966" cy="425.046" r="5.05167" stroke-width="0.5" stroke="Red" fill="Red"/>
   </g>
   <g id="cell95">
  <circle cx="529.499" cy="437.975" r="8.41271" stroke-width="0.5" stroke="black" fill="Red"/>
  <circle cx="529.499" cy="437.975" r="5.05167" stroke-width="0.5" stroke="Red" fill="Red"/>
   </g>
   <g id="cell96">
  <circle cx="531.361" cy="452.108" r="8.41271" stroke-width="0.5" stroke="black" fill="Red"/>
  <circle cx="531.361" cy="452.108" r="5.05167" stroke-width="0.5" stroke="Red" fill="Red"/>
   </g>
   <g id="cell97">
  <circle cx="531.207" cy="466.716" r="8.41271" stroke-width="0.5" stroke="black" fill="Red"/>
  <circle cx="531.207" cy="466.716" r="5.05167" stroke-width="0.5" stroke="Red" fill="Red"/>
   </g>
   <g id="cell98">
  <circle cx="530.406" cy="480.818" r="8.41271" stroke-width="0.5" stroke="black" fill="Red"/>
  <circle cx="530.406" cy="480.818" r="5.05167" stroke-width="0.5" stroke="Red" fill="Red"/>
   </g>
   <g id="cell99">
  <circle cx="531.368" cy="495.614" r="8.41271" stroke-width="0.5" stroke="black" fill="Red"/>
  <circle cx="531.368" cy="495.614" r="5.05167" stroke-width="0.5" stroke="Red" fill="Red"/>
   </g>
   <g id="cell100">
  <circle cx="528.509" cy="510.543" r="8.41271" stroke-width="0.5" stroke="black" fill="Red"/>
  <circle cx="528.509" cy="510.543" r="5.05167" stroke-width="0.5" stroke="Red" fill="Red"/>
   </g>
   <g id="cell101">
  <circle cx="531.074" cy="524.828" r="8.41271" stroke-width="0.5" stroke="black" fill="Red"/>
  <circle cx="531.074" cy="524.828" r="5.05167" stroke-width="0.5" stroke="Red" fill="Red"/>
   </g>
   <g id="cell102">
  <circle cx="530.669" cy="538.73" r="8.41271" stroke-width="0.5" stroke="black" fill="Red"/>
  <circle cx="530.669" cy="538.73" r="5.05167" stroke-width="0.5" stroke="Red" fill="Red"/>
   </g>
   <g id="cell103">
  <circle cx="530.569" cy="552.788" r="8.41271" stroke-width="0.5" stroke="black" fill="Red"/>
  <circle cx="530.569" cy="552.788" r="5.05167" stroke-width="0.5" stroke="Red" fill="Red"/>
   </g>
   <g id="cell104">
  <circle cx="528.288" cy="565.662" r="8.41271" stroke-width="0.5" stroke="black" fill="Red"/>
  <circle cx="528.288" cy="565.662" r="5.05167" stroke-width="0.5" stroke="Red" fill="Red"/>
   </g>
   <g id="cell105">
  <circle cx="528.466" cy="578.614" r="8.41271" stroke-width="0.5" stroke="black" fill="blue"/>
  <circle cx="528.466" cy="578.614" r="5.05167" stroke-width="0.5" stroke="blue" fill="blue"/>
   </g>
   <g id="cell106">
  <circle cx="542.222" cy="416.639" r="8.41271" stroke-width="0.5" stroke="black" fill="yellow"/>
  <circle cx="542.222" cy="416.639" r="5.05167" stroke-width="0.5" stroke="yellow" fill="yellow"/>
   </g>
   <g id="cell107">
  <circle cx="542.742" cy="430.74" r="8.41271" stroke-width="0.5" stroke="black" fill="yellow"/>
  <circle cx="542.742" cy="430.74" r="5.05167" stroke-width="0.5" stroke="yellow" fill="yellow"/>
   </g>
   <g id="cell108">
  <circle cx="544.578" cy="445.521" r="8.41271" stroke-width="0.5" stroke="black" fill="Red"/>
  <circle cx="544.578" cy="445.521" r="5.05167" stroke-width="0.5" stroke="Red" fill="Red"/>
   </g>
   <g id="cell109">
  <circle cx="544.448" cy="460.324" r="8.41271" stroke-width="0.5" stroke="black" fill="Red"/>
  <circle cx="544.448" cy="460.324" r="5.05167" stroke-width="0.5" stroke="Red" fill="Red"/>
   </g>
   <g id="cell110">
  <circle cx="545.796" cy="474.848" r="8.41271" stroke-width="0.5" stroke="black" fill="blue"/>
  <circle cx="545.796" cy="474.848" r="5.05167" stroke-width="0.5" stroke="blue" fill="blue"/>
   </g>
   <g id="cell111">
  <circle cx="544.136" cy="489.276" r="8.41271" stroke-width="0.5" stroke="black" fill="Red"/>
  <circle cx="544.136" cy="489.276" r="5.05167" stroke-width="0.5" stroke="Red" fill="Red"/>
   </g>
   <g id="cell112">
  <circle cx="545.568" cy="504.182" r="8.41271" stroke-width="0.5" stroke="black" fill="Red"/>
  <circle cx="545.568" cy="504.182" r="5.05167" stroke-width="0.5" stroke="Red" fill="Red"/>
   </g>
   <g id="cell113">
  <circle cx="545.415" cy="517.495" r="8.41271" stroke-width="0.5" stroke="black" fill="Red"/>
  <circle cx="545.415" cy="517.495" r="5.05167" stroke-width="0.5" stroke="Red" fill="Red"/>
   </g>
   <g id="cell114">
  <circle cx="545.512" cy="531.488" r="8.41271" stroke-width="0.5" stroke="black" fill="blue"/>
  <circle cx="545.512" cy="531.488" r="5.05167" stroke-width="0.5" stroke="blue" fill="blue"/>
   </g>
   <g id="cell115">
  <circle cx="545.42" cy="545.82" r="8.41271" stroke-width="0.5" stroke="black" fill="Red"/>
  <circle cx="545.42" cy="545.82" r="5.05167" stroke-width="0.5" stroke="Red" fill="Red"/>
   </g>
   <g id="cell116">
  <circle cx="544.081" cy="559.823" r="8.41271" stroke-width="0.5" stroke="black" fill="Red"/>
  <circle cx="544.081" cy="559.823" r="5.05167" stroke-width="0.5" stroke="Red" fill="Red"/>
   </g>
   <g id="cell117">
  <circle cx="542.036" cy="573.284" r="8.41271" stroke-width="0.5" stroke="black" fill="Red"/>
  <circle cx="542.036" cy="573.284" r="5.05167" stroke-width="0.5" stroke="Red" fill="Red"/>
   </g>
   <g id="cell118">
  <circle cx="554.543" cy="423.676" r="8.41271" stroke-width="0.5" stroke="black" fill="blue"/>
  <circle cx="554.543" cy="423.676" r="5.05167" stroke-width="0.5" stroke="blue" fill="blue"/>
   </g>
   <g id="cell119">
  <circle cx="557.044" cy="438.271" r="8.41271" stroke-width="0.5" stroke="black" fill="yellow"/>
  <circle cx="557.044" cy="438.271" r="5.05167" stroke-width="0.5" stroke="yellow" fill="yellow"/>
   </g>
   <g id="cell120">
  <circle cx="557.394" cy="452.794" r="8.41271" stroke-width="0.5" stroke="black" fill="yellow"/>
  <circle cx="557.394" cy="452.794" r="5.05167" stroke-width="0.5" stroke="yellow" fill="yellow"/>
   </g>
   <g id="cell121">
  <circle cx="559.02" cy="466.632" r="8.41271" stroke-width="0.5" stroke="black" fill="Red"/>
  <circle cx="559.02" cy="466.632" r="5.05167" stroke-width="0.5" stroke="Red" fill="Red"/>
   </g>
   <g id="cell122">
  <circle cx="559.111" cy="481.136" r="8.41271" stroke-width="0.5" stroke="black" fill="Red"/>
  <circle cx="559.111" cy="481.136" r="5.05167" stroke-width="0.5" stroke="Red" fill="Red"/>
   </g>
   <g id="cell123">
  <circle cx="558.653" cy="495.257" r="8.41271" stroke-width="0.5" stroke="black" fill="blue"/>
  <circle cx="558.653" cy="495.257" r="5.05167" stroke-width="0.5" stroke="blue" fill="blue"/>
   </g>
   <g id="cell124">
  <circle cx="560.158" cy="509.54" r="8.41271" stroke-width="0.5" stroke="black" fill="blue"/>
  <circle cx="560.158" cy="509.54" r="5.05167" stroke-width="0.5" stroke="blue" fill="blue"/>
   </g>
   <g id="cell125">
  <circle cx="558.228" cy="524.029" r="8.41271" stroke-width="0.5" stroke="black" fill="Red"/>
  <circle cx="558.228" cy="524.029" r="5.05167" stroke-width="0.5" stroke="Red" fill="Red"/>
   </g>
   <g id="cell126">
  <circle cx="559.772" cy="539.351" r="8.41271" stroke-width="0.5" stroke="black" fill="Red"/>
  <circle cx="559.772" cy="539.351" r="5.05167" stroke-width="0.5" stroke="Red" fill="Red"/>
   </g>
   <g id="cell127">
  <circle cx="558.599" cy="552.839" r="8.41271" stroke-width="0.5" stroke="black" fill="Red"/>
  <circle cx="558.599" cy="552.839" r="5.05167" stroke-width="0.5" stroke="Red" fill="Red"/>
   </g>
   <g id="cell128">
  <circle cx="557.507" cy="566.265" r="8.41271" stroke-width="0.5" stroke="black" fill="Red"/>
  <circle cx="557.507" cy="566.265" r="5.05167" stroke-width="0.5" stroke="Red" fill="Red"/>
   </g>
   <g id="cell129">
  <circle cx="569.985" cy="445.599" r="8.41271" stroke-width="0.5" stroke="black" fill="blue"/>
  <circle cx="569.985" cy="445.599" r="5.05167" stroke-width="0.5" stroke="blue" fill="blue"/>
   </g>
   <g id="cell130">
  <circle cx="571.528" cy="459.252" r="8.41271" stroke-width="0.5" stroke="black" fill="yellow"/>
  <circle cx="571.528" cy="459.252" r="5.05167" stroke-width="0.5" stroke="yellow" fill="yellow"/>
   </g>
   <g id="cell131">
  <circle cx="572.378" cy="474.15" r="8.41271" stroke-width="0.5" stroke="black" fill="Red"/>
  <circle cx="572.378" cy="474.15" r="5.05167" stroke-width="0.5" stroke="Red" fill="Red"/>
   </g>
   <g id="cell132">
  <circle cx="571.424" cy="488.061" r="8.41271" stroke-width="0.5" stroke="black" fill="Red"/>
  <circle cx="571.424" cy="488.061" r="5.05167" stroke-width="0.5" stroke="Red" fill="Red"/>
   </g>
   <g id="cell133">
  <circle cx="573.104" cy="501.858" r="8.41271" stroke-width="0.5" stroke="black" fill="Red"/>
  <circle cx="573.104" cy="501.858" r="5.05167" stroke-width="0.5" stroke="Red" fill="Red"/>
   </g>
   <g id="cell134">
  <circle cx="571.992" cy="517.563" r="8.41271" stroke-width="0.5" stroke="black" fill="Red"/>
  <circle cx="571.992" cy="517.563" r="5.05167" stroke-width="0.5" stroke="Red" fill="Red"/>
   </g>
   <g id="cell135">
  <circle cx="571.914" cy="531.778" r="8.41271" stroke-width="0.5" stroke="black" fill="Red"/>
  <circle cx="571.914" cy="531.778" r="5.05167" stroke-width="0.5" stroke="Red" fill="Red"/>
   </g>
   <g id="cell136">
  <circle cx="572.122" cy="546.504" r="8.41271" stroke-width="0.5" stroke="black" fill="Red"/>
  <circle cx="572.122" cy="546.504" r="5.05167" stroke-width="0.5" stroke="Red" fill="Red"/>
   </g>
   <g id="cell137">
  <circle cx="571.631" cy="560.748" r="8.41271" stroke-width="0.5" stroke="black" fill="blue"/>
  <circle cx="571.631" cy="560.748" r="5.05167" stroke-width="0.5" stroke="blue" fill="blue"/>
   </g>
   <g id="cell138">
  <circle cx="585.379" cy="466.059" r="8.41271" stroke-width="0.5" stroke="black" fill="blue"/>
  <circle cx="585.379" cy="466.059" r="5.05167" stroke-width="0.5" stroke="blue" fill="blue"/>
   </g>
   <g id="cell139">
  <circle cx="585.002" cy="480.207" r="8.41271" stroke-width="0.5" stroke="black" fill="Red"/>
  <circle cx="585.002" cy="480.207" r="5.05167" stroke-width="0.5" stroke="Red" fill="Red"/>
   </g>
   <g id="cell140">
  <circle cx="582.036" cy="491.602" r="6.67717" stroke-width="0.5" stroke="black" fill="blue"/>
  <circle cx="582.036" cy="491.602" r="4.00951" stroke-width="0.5" stroke="blue" fill="blue"/>
   </g>
   <g id="cell141">
  <circle cx="585.186" cy="511.826" r="8.41271" stroke-width="0.5" stroke="black" fill="Red"/>
  <circle cx="585.186" cy="511.826" r="5.05167" stroke-width="0.5" stroke="Red" fill="Red"/>
   </g>
   <g id="cell142">
  <circle cx="584.445" cy="525.19" r="8.41271" stroke-width="0.5" stroke="black" fill="Red"/>
  <circle cx="584.445" cy="525.19" r="5.05167" stroke-width="0.5" stroke="Red" fill="Red"/>
   </g>
   <g id="cell143">
  <circle cx="583.682" cy="538.677" r="8.41271" stroke-width="0.5" stroke="black" fill="blue"/>
  <circle cx="583.682" cy="538.677" r="5.05167" stroke-width="0.5" stroke="blue" fill="blue"/>
   </g>
   <g id="cell144">
  <circle cx="436.813" cy="441.55" r="6.67717" stroke-width="0.5" stroke="black" fill="blue"/>
  <circle cx="436.813" cy="441.55" r="4.00951" stroke-width="0.5" stroke="blue" fill="blue"/>
   </g>
   <g id="cell145">
  <circle cx="588.774" cy="499.481" r="6.67717" stroke-width="0.5" stroke="black" fill="blue"/>
  <circle cx="588.774" cy="499.481" r="4.00951" stroke-width="0.5" stroke="blue" fill="blue"/>
   </g>
  </g>
 </g>
  <rect x="775" y="1035" width="200" height="10" stroke-width="2" stroke="rgb(255,255,255)" fill="rgb(0,0,0)"/>
  <text x="781.25" y="1028.75"
   font-family="Arial" font-size="25" fill="black" >
   200 &#956;m
  </text>
  <text x="25" y="1045"
   font-family="Arial" font-size="18.75" fill="black" >
   0 days, 0 hours, 0 minutes, and 3.7044 seconds
  </text>
  <rect x="0" y="70" width="1000" height="1000" stroke-width="2" stroke="rgb(0,0,0)" fill="none"/>
</svg>
