<?xml version="1.0" encoding="UTF-8" standalone="no"?>
<!-- Created with PhysiCell (http://PhysiCell.MathCancer.org/) -->
<svg 
 xmlns:dc="http://purl.org/dc/elements/1.1/" 
 xmlns:cc="http://creativecommons.org/ns#" 
 xmlns:rdf="http://www.w3.org/1999/02/22-rdf-syntax-ns#" 
 xmlns:svg="http://www.w3.org/2000/svg" 
 xmlns="http://www.w3.org/2000/svg" 
 version="1.1" 
 width="1000" 
 height="1070" 
 id="svg2">
  <rect x="0" y="0" width="1000" height="1070" stroke-width="2" stroke="white" fill="white"/>
  <text x="12.5" y="30"
   font-family="Arial" font-size="25" fill="black" >
   Current time: 0 days, 1 hours, and 35.00 minutes, z = 0.00 &#956;m
  </text>
  <text x="12.5" y="57.5"
   font-family="Arial" font-size="23.75" fill="black" >
   158 agents
  </text>
 <g id="tissue" 
    transform="translate(0,1070) scale(1,-1)">
  <g id="ECM">
  </g>
  <g id="cells">
   <g id="cell0">
  <circle cx="427.041" cy="451.837" r="8.41271" stroke-width="0.5" stroke="black" fill="blue"/>
  <circle cx="427.041" cy="451.837" r="5.05167" stroke-width="0.5" stroke="blue" fill="blue"/>
   </g>
   <g id="cell1">
  <circle cx="424.652" cy="466.814" r="8.41271" stroke-width="0.5" stroke="black" fill="yellow"/>
  <circle cx="424.652" cy="466.814" r="5.05167" stroke-width="0.5" stroke="yellow" fill="yellow"/>
   </g>
   <g id="cell2">
  <circle cx="426.13" cy="481.059" r="8.41271" stroke-width="0.5" stroke="black" fill="blue"/>
  <circle cx="426.13" cy="481.059" r="5.05167" stroke-width="0.5" stroke="blue" fill="blue"/>
   </g>
   <g id="cell3">
  <circle cx="426.132" cy="495.437" r="8.41271" stroke-width="0.5" stroke="black" fill="Red"/>
  <circle cx="426.132" cy="495.437" r="5.05167" stroke-width="0.5" stroke="Red" fill="Red"/>
   </g>
   <g id="cell4">
  <circle cx="429.902" cy="510.438" r="8.41271" stroke-width="0.5" stroke="black" fill="blue"/>
  <circle cx="429.902" cy="510.438" r="5.05167" stroke-width="0.5" stroke="blue" fill="blue"/>
   </g>
   <g id="cell5">
  <circle cx="424.302" cy="523.39" r="8.41271" stroke-width="0.5" stroke="black" fill="yellow"/>
  <circle cx="424.302" cy="523.39" r="5.05167" stroke-width="0.5" stroke="yellow" fill="yellow"/>
   </g>
   <g id="cell6">
  <circle cx="425.444" cy="539.049" r="8.41271" stroke-width="0.5" stroke="black" fill="blue"/>
  <circle cx="425.444" cy="539.049" r="5.05167" stroke-width="0.5" stroke="blue" fill="blue"/>
   </g>
   <g id="cell7">
  <circle cx="438.345" cy="447.582" r="7.02257" stroke-width="0.5" stroke="black" fill="yellow"/>
  <circle cx="438.345" cy="447.582" r="4.25644" stroke-width="0.5" stroke="yellow" fill="yellow"/>
   </g>
   <g id="cell8">
  <circle cx="438" cy="460.661" r="8.41271" stroke-width="0.5" stroke="black" fill="Red"/>
  <circle cx="438" cy="460.661" r="5.05167" stroke-width="0.5" stroke="Red" fill="Red"/>
   </g>
   <g id="cell9">
  <circle cx="438.089" cy="473.541" r="8.41271" stroke-width="0.5" stroke="black" fill="yellow"/>
  <circle cx="438.089" cy="473.541" r="5.05167" stroke-width="0.5" stroke="yellow" fill="yellow"/>
   </g>
   <g id="cell10">
  <circle cx="438.691" cy="487.804" r="8.41271" stroke-width="0.5" stroke="black" fill="Red"/>
  <circle cx="438.691" cy="487.804" r="5.05167" stroke-width="0.5" stroke="Red" fill="Red"/>
   </g>
   <g id="cell11">
  <circle cx="439.32" cy="501.149" r="8.41271" stroke-width="0.5" stroke="black" fill="Red"/>
  <circle cx="439.32" cy="501.149" r="5.05167" stroke-width="0.5" stroke="Red" fill="Red"/>
   </g>
   <g id="cell12">
  <circle cx="436.445" cy="520.15" r="6.75639" stroke-width="0.5" stroke="black" fill="Red"/>
  <circle cx="436.445" cy="520.15" r="4.06813" stroke-width="0.5" stroke="Red" fill="Red"/>
   </g>
   <g id="cell13">
  <circle cx="438.749" cy="531.487" r="8.41271" stroke-width="0.5" stroke="black" fill="yellow"/>
  <circle cx="438.749" cy="531.487" r="5.05167" stroke-width="0.5" stroke="yellow" fill="yellow"/>
   </g>
   <g id="cell14">
  <circle cx="438.7" cy="546.055" r="8.41271" stroke-width="0.5" stroke="black" fill="yellow"/>
  <circle cx="438.7" cy="546.055" r="5.05167" stroke-width="0.5" stroke="yellow" fill="yellow"/>
   </g>
   <g id="cell15">
  <circle cx="441.556" cy="561.161" r="8.41271" stroke-width="0.5" stroke="black" fill="blue"/>
  <circle cx="441.556" cy="561.161" r="5.05167" stroke-width="0.5" stroke="blue" fill="blue"/>
   </g>
   <g id="cell16">
  <circle cx="453.116" cy="428.531" r="5.38686" stroke-width="0.5" stroke="black" fill="yellow"/>
  <circle cx="453.116" cy="428.531" r="3.24579" stroke-width="0.5" stroke="yellow" fill="yellow"/>
   </g>
   <g id="cell17">
  <circle cx="451.272" cy="439.62" r="8.41271" stroke-width="0.5" stroke="black" fill="Red"/>
  <circle cx="451.272" cy="439.62" r="5.05167" stroke-width="0.5" stroke="Red" fill="Red"/>
   </g>
   <g id="cell18">
  <circle cx="449.396" cy="452.672" r="8.41271" stroke-width="0.5" stroke="black" fill="Red"/>
  <circle cx="449.396" cy="452.672" r="5.05167" stroke-width="0.5" stroke="Red" fill="Red"/>
   </g>
   <g id="cell19">
  <circle cx="450.62" cy="467.726" r="8.41271" stroke-width="0.5" stroke="black" fill="blue"/>
  <circle cx="450.62" cy="467.726" r="5.05167" stroke-width="0.5" stroke="blue" fill="blue"/>
   </g>
   <g id="cell20">
  <circle cx="450.913" cy="480.854" r="8.41271" stroke-width="0.5" stroke="black" fill="Red"/>
  <circle cx="450.913" cy="480.854" r="5.05167" stroke-width="0.5" stroke="Red" fill="Red"/>
   </g>
   <g id="cell21">
  <circle cx="451.447" cy="494.669" r="8.41271" stroke-width="0.5" stroke="black" fill="blue"/>
  <circle cx="451.447" cy="494.669" r="5.05167" stroke-width="0.5" stroke="blue" fill="blue"/>
   </g>
   <g id="cell22">
  <circle cx="452.525" cy="508.804" r="8.41271" stroke-width="0.5" stroke="black" fill="blue"/>
  <circle cx="452.525" cy="508.804" r="5.05167" stroke-width="0.5" stroke="blue" fill="blue"/>
   </g>
   <g id="cell23">
  <circle cx="449.708" cy="522.724" r="8.41271" stroke-width="0.5" stroke="black" fill="Red"/>
  <circle cx="449.708" cy="522.724" r="5.05167" stroke-width="0.5" stroke="Red" fill="Red"/>
   </g>
   <g id="cell24">
  <circle cx="451.998" cy="537.822" r="8.41271" stroke-width="0.5" stroke="black" fill="blue"/>
  <circle cx="451.998" cy="537.822" r="5.05167" stroke-width="0.5" stroke="blue" fill="blue"/>
   </g>
   <g id="cell25">
  <circle cx="452.453" cy="553.267" r="8.41271" stroke-width="0.5" stroke="black" fill="yellow"/>
  <circle cx="452.453" cy="553.267" r="5.05167" stroke-width="0.5" stroke="yellow" fill="yellow"/>
   </g>
   <g id="cell26">
  <circle cx="453.202" cy="568.98" r="8.41271" stroke-width="0.5" stroke="black" fill="yellow"/>
  <circle cx="453.202" cy="568.98" r="5.05167" stroke-width="0.5" stroke="yellow" fill="yellow"/>
   </g>
   <g id="cell27">
  <circle cx="461.731" cy="419.519" r="8.41271" stroke-width="0.5" stroke="black" fill="yellow"/>
  <circle cx="461.731" cy="419.519" r="5.05167" stroke-width="0.5" stroke="yellow" fill="yellow"/>
   </g>
   <g id="cell28">
  <circle cx="463.41" cy="433.444" r="8.41271" stroke-width="0.5" stroke="black" fill="Red"/>
  <circle cx="463.41" cy="433.444" r="5.05167" stroke-width="0.5" stroke="Red" fill="Red"/>
   </g>
   <g id="cell29">
  <circle cx="463.045" cy="447.06" r="8.41271" stroke-width="0.5" stroke="black" fill="blue"/>
  <circle cx="463.045" cy="447.06" r="5.05167" stroke-width="0.5" stroke="blue" fill="blue"/>
   </g>
   <g id="cell30">
  <circle cx="462.219" cy="460.666" r="8.41271" stroke-width="0.5" stroke="black" fill="Red"/>
  <circle cx="462.219" cy="460.666" r="5.05167" stroke-width="0.5" stroke="Red" fill="Red"/>
   </g>
   <g id="cell31">
  <circle cx="461.664" cy="473.758" r="8.41271" stroke-width="0.5" stroke="black" fill="Red"/>
  <circle cx="461.664" cy="473.758" r="5.05167" stroke-width="0.5" stroke="Red" fill="Red"/>
   </g>
   <g id="cell32">
  <circle cx="464.786" cy="487.599" r="8.41271" stroke-width="0.5" stroke="black" fill="Red"/>
  <circle cx="464.786" cy="487.599" r="5.05167" stroke-width="0.5" stroke="Red" fill="Red"/>
   </g>
   <g id="cell33">
  <circle cx="462.943" cy="500.986" r="8.41271" stroke-width="0.5" stroke="black" fill="Red"/>
  <circle cx="462.943" cy="500.986" r="5.05167" stroke-width="0.5" stroke="Red" fill="Red"/>
   </g>
   <g id="cell34">
  <circle cx="462.89" cy="517.302" r="8.41271" stroke-width="0.5" stroke="black" fill="Red"/>
  <circle cx="462.89" cy="517.302" r="5.05167" stroke-width="0.5" stroke="Red" fill="Red"/>
   </g>
   <g id="cell35">
  <circle cx="462.943" cy="530.995" r="8.41271" stroke-width="0.5" stroke="black" fill="blue"/>
  <circle cx="462.943" cy="530.995" r="5.05167" stroke-width="0.5" stroke="blue" fill="blue"/>
   </g>
   <g id="cell36">
  <circle cx="464.339" cy="544.615" r="8.41271" stroke-width="0.5" stroke="black" fill="Red"/>
  <circle cx="464.339" cy="544.615" r="5.05167" stroke-width="0.5" stroke="Red" fill="Red"/>
   </g>
   <g id="cell37">
  <circle cx="464.87" cy="559.169" r="8.41271" stroke-width="0.5" stroke="black" fill="Red"/>
  <circle cx="464.87" cy="559.169" r="5.05167" stroke-width="0.5" stroke="Red" fill="Red"/>
   </g>
   <g id="cell38">
  <circle cx="465.876" cy="572.734" r="8.41271" stroke-width="0.5" stroke="black" fill="Red"/>
  <circle cx="465.876" cy="572.734" r="5.05167" stroke-width="0.5" stroke="Red" fill="Red"/>
   </g>
   <g id="cell39">
  <circle cx="459.72" cy="585.006" r="8.41271" stroke-width="0.5" stroke="black" fill="blue"/>
  <circle cx="459.72" cy="585.006" r="5.05167" stroke-width="0.5" stroke="blue" fill="blue"/>
   </g>
   <g id="cell40">
  <circle cx="474.405" cy="412.912" r="8.41271" stroke-width="0.5" stroke="black" fill="blue"/>
  <circle cx="474.405" cy="412.912" r="5.05167" stroke-width="0.5" stroke="blue" fill="blue"/>
   </g>
   <g id="cell41">
  <circle cx="474.872" cy="426.435" r="8.41271" stroke-width="0.5" stroke="black" fill="yellow"/>
  <circle cx="474.872" cy="426.435" r="5.05167" stroke-width="0.5" stroke="yellow" fill="yellow"/>
   </g>
   <g id="cell42">
  <circle cx="475.61" cy="440.808" r="8.41271" stroke-width="0.5" stroke="black" fill="Red"/>
  <circle cx="475.61" cy="440.808" r="5.05167" stroke-width="0.5" stroke="Red" fill="Red"/>
   </g>
   <g id="cell43">
  <circle cx="473.843" cy="454.671" r="8.41271" stroke-width="0.5" stroke="black" fill="Red"/>
  <circle cx="473.843" cy="454.671" r="5.05167" stroke-width="0.5" stroke="Red" fill="Red"/>
   </g>
   <g id="cell44">
  <circle cx="473.495" cy="469.503" r="8.41271" stroke-width="0.5" stroke="black" fill="Red"/>
  <circle cx="473.495" cy="469.503" r="5.05167" stroke-width="0.5" stroke="Red" fill="Red"/>
   </g>
   <g id="cell45">
  <circle cx="476.115" cy="482.471" r="8.41271" stroke-width="0.5" stroke="black" fill="Red"/>
  <circle cx="476.115" cy="482.471" r="5.05167" stroke-width="0.5" stroke="Red" fill="Red"/>
   </g>
   <g id="cell46">
  <circle cx="476.281" cy="496.973" r="8.41271" stroke-width="0.5" stroke="black" fill="Red"/>
  <circle cx="476.281" cy="496.973" r="5.05167" stroke-width="0.5" stroke="Red" fill="Red"/>
   </g>
   <g id="cell47">
  <circle cx="471.075" cy="509.048" r="6.99069" stroke-width="0.5" stroke="black" fill="Red"/>
  <circle cx="471.075" cy="509.048" r="4.23498" stroke-width="0.5" stroke="Red" fill="Red"/>
   </g>
   <g id="cell48">
  <circle cx="476.237" cy="522.862" r="8.41271" stroke-width="0.5" stroke="black" fill="Red"/>
  <circle cx="476.237" cy="522.862" r="5.05167" stroke-width="0.5" stroke="Red" fill="Red"/>
   </g>
   <g id="cell49">
  <circle cx="475.703" cy="536.748" r="8.41271" stroke-width="0.5" stroke="black" fill="Red"/>
  <circle cx="475.703" cy="536.748" r="5.05167" stroke-width="0.5" stroke="Red" fill="Red"/>
   </g>
   <g id="cell50">
  <circle cx="477.987" cy="549.991" r="8.41271" stroke-width="0.5" stroke="black" fill="Red"/>
  <circle cx="477.987" cy="549.991" r="5.05167" stroke-width="0.5" stroke="Red" fill="Red"/>
   </g>
   <g id="cell51">
  <circle cx="477.667" cy="564.048" r="8.41271" stroke-width="0.5" stroke="black" fill="Red"/>
  <circle cx="477.667" cy="564.048" r="5.05167" stroke-width="0.5" stroke="Red" fill="Red"/>
   </g>
   <g id="cell52">
  <circle cx="478.51" cy="579.281" r="8.41271" stroke-width="0.5" stroke="black" fill="yellow"/>
  <circle cx="478.51" cy="579.281" r="5.05167" stroke-width="0.5" stroke="yellow" fill="yellow"/>
   </g>
   <g id="cell53">
  <circle cx="487.876" cy="418.354" r="8.41271" stroke-width="0.5" stroke="black" fill="yellow"/>
  <circle cx="487.876" cy="418.354" r="5.05167" stroke-width="0.5" stroke="yellow" fill="yellow"/>
   </g>
   <g id="cell54">
  <circle cx="486.108" cy="433.174" r="8.41271" stroke-width="0.5" stroke="black" fill="blue"/>
  <circle cx="486.108" cy="433.174" r="5.05167" stroke-width="0.5" stroke="blue" fill="blue"/>
   </g>
   <g id="cell55">
  <circle cx="486.9" cy="448.948" r="8.41271" stroke-width="0.5" stroke="black" fill="Red"/>
  <circle cx="486.9" cy="448.948" r="5.05167" stroke-width="0.5" stroke="Red" fill="Red"/>
   </g>
   <g id="cell56">
  <circle cx="491.791" cy="462.952" r="6.71158" stroke-width="0.5" stroke="black" fill="Red"/>
  <circle cx="491.791" cy="462.952" r="4.03435" stroke-width="0.5" stroke="Red" fill="Red"/>
   </g>
   <g id="cell57">
  <circle cx="487.884" cy="474.687" r="8.41271" stroke-width="0.5" stroke="black" fill="Red"/>
  <circle cx="487.884" cy="474.687" r="5.05167" stroke-width="0.5" stroke="Red" fill="Red"/>
   </g>
   <g id="cell58">
  <circle cx="488.793" cy="488.397" r="8.41271" stroke-width="0.5" stroke="black" fill="blue"/>
  <circle cx="488.793" cy="488.397" r="5.05167" stroke-width="0.5" stroke="blue" fill="blue"/>
   </g>
   <g id="cell59">
  <circle cx="488.915" cy="503.973" r="8.41271" stroke-width="0.5" stroke="black" fill="Red"/>
  <circle cx="488.915" cy="503.973" r="5.05167" stroke-width="0.5" stroke="Red" fill="Red"/>
   </g>
   <g id="cell60">
  <circle cx="490.703" cy="517.82" r="8.41271" stroke-width="0.5" stroke="black" fill="Red"/>
  <circle cx="490.703" cy="517.82" r="5.05167" stroke-width="0.5" stroke="Red" fill="Red"/>
   </g>
   <g id="cell61">
  <circle cx="488.959" cy="530.488" r="8.41271" stroke-width="0.5" stroke="black" fill="blue"/>
  <circle cx="488.959" cy="530.488" r="5.05167" stroke-width="0.5" stroke="blue" fill="blue"/>
   </g>
   <g id="cell62">
  <circle cx="488.695" cy="543.768" r="8.41271" stroke-width="0.5" stroke="black" fill="Red"/>
  <circle cx="488.695" cy="543.768" r="5.05167" stroke-width="0.5" stroke="Red" fill="Red"/>
   </g>
   <g id="cell63">
  <circle cx="489.67" cy="558.601" r="8.41271" stroke-width="0.5" stroke="black" fill="Red"/>
  <circle cx="489.67" cy="558.601" r="5.05167" stroke-width="0.5" stroke="Red" fill="Red"/>
   </g>
   <g id="cell64">
  <circle cx="491.04" cy="570.807" r="8.41271" stroke-width="0.5" stroke="black" fill="Red"/>
  <circle cx="491.04" cy="570.807" r="5.05167" stroke-width="0.5" stroke="Red" fill="Red"/>
   </g>
   <g id="cell65">
  <circle cx="491.51" cy="585.845" r="8.41271" stroke-width="0.5" stroke="black" fill="yellow"/>
  <circle cx="491.51" cy="585.845" r="5.05167" stroke-width="0.5" stroke="yellow" fill="yellow"/>
   </g>
   <g id="cell66">
  <circle cx="500.912" cy="408.87" r="8.41271" stroke-width="0.5" stroke="black" fill="blue"/>
  <circle cx="500.912" cy="408.87" r="5.05167" stroke-width="0.5" stroke="blue" fill="blue"/>
   </g>
   <g id="cell67">
  <circle cx="499.871" cy="425.743" r="8.41271" stroke-width="0.5" stroke="black" fill="Red"/>
  <circle cx="499.871" cy="425.743" r="5.05167" stroke-width="0.5" stroke="Red" fill="Red"/>
   </g>
   <g id="cell68">
  <circle cx="498.669" cy="440.161" r="8.41271" stroke-width="0.5" stroke="black" fill="Red"/>
  <circle cx="498.669" cy="440.161" r="5.05167" stroke-width="0.5" stroke="Red" fill="Red"/>
   </g>
   <g id="cell69">
  <circle cx="499.444" cy="453.722" r="8.41271" stroke-width="0.5" stroke="black" fill="Red"/>
  <circle cx="499.444" cy="453.722" r="5.05167" stroke-width="0.5" stroke="Red" fill="Red"/>
   </g>
   <g id="cell70">
  <circle cx="500.527" cy="468.535" r="8.41271" stroke-width="0.5" stroke="black" fill="blue"/>
  <circle cx="500.527" cy="468.535" r="5.05167" stroke-width="0.5" stroke="blue" fill="blue"/>
   </g>
   <g id="cell71">
  <circle cx="500.062" cy="481.712" r="8.41271" stroke-width="0.5" stroke="black" fill="Red"/>
  <circle cx="500.062" cy="481.712" r="5.05167" stroke-width="0.5" stroke="Red" fill="Red"/>
   </g>
   <g id="cell72">
  <circle cx="500.456" cy="495.948" r="8.41271" stroke-width="0.5" stroke="black" fill="Red"/>
  <circle cx="500.456" cy="495.948" r="5.05167" stroke-width="0.5" stroke="Red" fill="Red"/>
   </g>
   <g id="cell73">
  <circle cx="501.92" cy="509.954" r="8.41271" stroke-width="0.5" stroke="black" fill="blue"/>
  <circle cx="501.92" cy="509.954" r="5.05167" stroke-width="0.5" stroke="blue" fill="blue"/>
   </g>
   <g id="cell74">
  <circle cx="502.288" cy="523.403" r="8.41271" stroke-width="0.5" stroke="black" fill="Red"/>
  <circle cx="502.288" cy="523.403" r="5.05167" stroke-width="0.5" stroke="Red" fill="Red"/>
   </g>
   <g id="cell75">
  <circle cx="501.159" cy="536.551" r="8.41271" stroke-width="0.5" stroke="black" fill="Red"/>
  <circle cx="501.159" cy="536.551" r="5.05167" stroke-width="0.5" stroke="Red" fill="Red"/>
   </g>
   <g id="cell76">
  <circle cx="501.064" cy="550.219" r="8.41271" stroke-width="0.5" stroke="black" fill="Red"/>
  <circle cx="501.064" cy="550.219" r="5.05167" stroke-width="0.5" stroke="Red" fill="Red"/>
   </g>
   <g id="cell77">
  <circle cx="502.679" cy="562.908" r="8.41271" stroke-width="0.5" stroke="black" fill="Red"/>
  <circle cx="502.679" cy="562.908" r="5.05167" stroke-width="0.5" stroke="Red" fill="Red"/>
   </g>
   <g id="cell78">
  <circle cx="502.733" cy="578.297" r="8.41271" stroke-width="0.5" stroke="black" fill="yellow"/>
  <circle cx="502.733" cy="578.297" r="5.05167" stroke-width="0.5" stroke="yellow" fill="yellow"/>
   </g>
   <g id="cell79">
  <circle cx="502.896" cy="592.241" r="8.41271" stroke-width="0.5" stroke="black" fill="blue"/>
  <circle cx="502.896" cy="592.241" r="5.05167" stroke-width="0.5" stroke="blue" fill="blue"/>
   </g>
   <g id="cell80">
  <circle cx="513.035" cy="417.501" r="8.41271" stroke-width="0.5" stroke="black" fill="Red"/>
  <circle cx="513.035" cy="417.501" r="5.05167" stroke-width="0.5" stroke="Red" fill="Red"/>
   </g>
   <g id="cell81">
  <circle cx="510.965" cy="433.29" r="8.41271" stroke-width="0.5" stroke="black" fill="blue"/>
  <circle cx="510.965" cy="433.29" r="5.05167" stroke-width="0.5" stroke="blue" fill="blue"/>
   </g>
   <g id="cell82">
  <circle cx="512.217" cy="445.774" r="8.41271" stroke-width="0.5" stroke="black" fill="Red"/>
  <circle cx="512.217" cy="445.774" r="5.05167" stroke-width="0.5" stroke="Red" fill="Red"/>
   </g>
   <g id="cell83">
  <circle cx="511.914" cy="460.44" r="8.41271" stroke-width="0.5" stroke="black" fill="Red"/>
  <circle cx="511.914" cy="460.44" r="5.05167" stroke-width="0.5" stroke="Red" fill="Red"/>
   </g>
   <g id="cell84">
  <circle cx="512.594" cy="474.997" r="8.41271" stroke-width="0.5" stroke="black" fill="Red"/>
  <circle cx="512.594" cy="474.997" r="5.05167" stroke-width="0.5" stroke="Red" fill="Red"/>
   </g>
   <g id="cell85">
  <circle cx="512.578" cy="488.193" r="8.41271" stroke-width="0.5" stroke="black" fill="blue"/>
  <circle cx="512.578" cy="488.193" r="5.05167" stroke-width="0.5" stroke="blue" fill="blue"/>
   </g>
   <g id="cell86">
  <circle cx="515.215" cy="502.271" r="8.41271" stroke-width="0.5" stroke="black" fill="Red"/>
  <circle cx="515.215" cy="502.271" r="5.05167" stroke-width="0.5" stroke="Red" fill="Red"/>
   </g>
   <g id="cell87">
  <circle cx="515.606" cy="512.603" r="6.67717" stroke-width="0.5" stroke="black" fill="Red"/>
  <circle cx="515.606" cy="512.603" r="4.00951" stroke-width="0.5" stroke="Red" fill="Red"/>
   </g>
   <g id="cell88">
  <circle cx="514.424" cy="531.353" r="8.41271" stroke-width="0.5" stroke="black" fill="Red"/>
  <circle cx="514.424" cy="531.353" r="5.05167" stroke-width="0.5" stroke="Red" fill="Red"/>
   </g>
   <g id="cell89">
  <circle cx="512.477" cy="544.898" r="8.41271" stroke-width="0.5" stroke="black" fill="Red"/>
  <circle cx="512.477" cy="544.898" r="5.05167" stroke-width="0.5" stroke="Red" fill="Red"/>
   </g>
   <g id="cell90">
  <circle cx="514.527" cy="556.992" r="8.41271" stroke-width="0.5" stroke="black" fill="blue"/>
  <circle cx="514.527" cy="556.992" r="5.05167" stroke-width="0.5" stroke="blue" fill="blue"/>
   </g>
   <g id="cell91">
  <circle cx="514.635" cy="571.245" r="8.41271" stroke-width="0.5" stroke="black" fill="Red"/>
  <circle cx="514.635" cy="571.245" r="5.05167" stroke-width="0.5" stroke="Red" fill="Red"/>
   </g>
   <g id="cell92">
  <circle cx="515.43" cy="585.962" r="8.41271" stroke-width="0.5" stroke="black" fill="yellow"/>
  <circle cx="515.43" cy="585.962" r="5.05167" stroke-width="0.5" stroke="yellow" fill="yellow"/>
   </g>
   <g id="cell93">
  <circle cx="527.76" cy="415.336" r="8.41271" stroke-width="0.5" stroke="black" fill="blue"/>
  <circle cx="527.76" cy="415.336" r="5.05167" stroke-width="0.5" stroke="blue" fill="blue"/>
   </g>
   <g id="cell94">
  <circle cx="531.389" cy="426.634" r="6.69288" stroke-width="0.5" stroke="black" fill="Red"/>
  <circle cx="531.389" cy="426.634" r="4.02051" stroke-width="0.5" stroke="Red" fill="Red"/>
   </g>
   <g id="cell95">
  <circle cx="525.223" cy="437.493" r="8.41271" stroke-width="0.5" stroke="black" fill="Red"/>
  <circle cx="525.223" cy="437.493" r="5.05167" stroke-width="0.5" stroke="Red" fill="Red"/>
   </g>
   <g id="cell96">
  <circle cx="523.981" cy="449.865" r="6.99069" stroke-width="0.5" stroke="black" fill="blue"/>
  <circle cx="523.981" cy="449.865" r="4.23498" stroke-width="0.5" stroke="blue" fill="blue"/>
   </g>
   <g id="cell97">
  <circle cx="523.519" cy="467.283" r="8.41271" stroke-width="0.5" stroke="black" fill="Red"/>
  <circle cx="523.519" cy="467.283" r="5.05167" stroke-width="0.5" stroke="Red" fill="Red"/>
   </g>
   <g id="cell98">
  <circle cx="526.665" cy="481.391" r="8.41271" stroke-width="0.5" stroke="black" fill="Red"/>
  <circle cx="526.665" cy="481.391" r="5.05167" stroke-width="0.5" stroke="Red" fill="Red"/>
   </g>
   <g id="cell99">
  <circle cx="526.793" cy="496.28" r="8.41271" stroke-width="0.5" stroke="black" fill="Red"/>
  <circle cx="526.793" cy="496.28" r="5.05167" stroke-width="0.5" stroke="Red" fill="Red"/>
   </g>
   <g id="cell100">
  <circle cx="526.7" cy="510.258" r="8.41271" stroke-width="0.5" stroke="black" fill="Red"/>
  <circle cx="526.7" cy="510.258" r="5.05167" stroke-width="0.5" stroke="Red" fill="Red"/>
   </g>
   <g id="cell101">
  <circle cx="526.42" cy="524.94" r="8.41271" stroke-width="0.5" stroke="black" fill="Red"/>
  <circle cx="526.42" cy="524.94" r="5.05167" stroke-width="0.5" stroke="Red" fill="Red"/>
   </g>
   <g id="cell102">
  <circle cx="531.881" cy="537.502" r="6.89675" stroke-width="0.5" stroke="black" fill="blue"/>
  <circle cx="531.881" cy="537.502" r="4.17024" stroke-width="0.5" stroke="blue" fill="blue"/>
   </g>
   <g id="cell103">
  <circle cx="526.763" cy="549.457" r="8.41271" stroke-width="0.5" stroke="black" fill="Red"/>
  <circle cx="526.763" cy="549.457" r="5.05167" stroke-width="0.5" stroke="Red" fill="Red"/>
   </g>
   <g id="cell104">
  <circle cx="525.868" cy="563.512" r="8.41271" stroke-width="0.5" stroke="black" fill="Red"/>
  <circle cx="525.868" cy="563.512" r="5.05167" stroke-width="0.5" stroke="Red" fill="Red"/>
   </g>
   <g id="cell105">
  <circle cx="527.111" cy="578.473" r="8.41271" stroke-width="0.5" stroke="black" fill="blue"/>
  <circle cx="527.111" cy="578.473" r="5.05167" stroke-width="0.5" stroke="blue" fill="blue"/>
   </g>
   <g id="cell106">
  <circle cx="541.791" cy="419.271" r="8.41271" stroke-width="0.5" stroke="black" fill="yellow"/>
  <circle cx="541.791" cy="419.271" r="5.05167" stroke-width="0.5" stroke="yellow" fill="yellow"/>
   </g>
   <g id="cell107">
  <circle cx="539.216" cy="435.068" r="8.41271" stroke-width="0.5" stroke="black" fill="yellow"/>
  <circle cx="539.216" cy="435.068" r="5.05167" stroke-width="0.5" stroke="yellow" fill="yellow"/>
   </g>
   <g id="cell108">
  <circle cx="536.769" cy="448.88" r="8.41271" stroke-width="0.5" stroke="black" fill="Red"/>
  <circle cx="536.769" cy="448.88" r="5.05167" stroke-width="0.5" stroke="Red" fill="Red"/>
   </g>
   <g id="cell109">
  <circle cx="541.921" cy="460.937" r="8.41271" stroke-width="0.5" stroke="black" fill="Red"/>
  <circle cx="541.921" cy="460.937" r="5.05167" stroke-width="0.5" stroke="Red" fill="Red"/>
   </g>
   <g id="cell110">
  <circle cx="539.409" cy="474.936" r="8.41271" stroke-width="0.5" stroke="black" fill="yellow"/>
  <circle cx="539.409" cy="474.936" r="5.05167" stroke-width="0.5" stroke="yellow" fill="yellow"/>
   </g>
   <g id="cell111">
  <circle cx="539.893" cy="489.679" r="8.41271" stroke-width="0.5" stroke="black" fill="blue"/>
  <circle cx="539.893" cy="489.679" r="5.05167" stroke-width="0.5" stroke="blue" fill="blue"/>
   </g>
   <g id="cell112">
  <circle cx="539.809" cy="502.067" r="8.41271" stroke-width="0.5" stroke="black" fill="blue"/>
  <circle cx="539.809" cy="502.067" r="5.05167" stroke-width="0.5" stroke="blue" fill="blue"/>
   </g>
   <g id="cell113">
  <circle cx="537.575" cy="515.908" r="8.41271" stroke-width="0.5" stroke="black" fill="blue"/>
  <circle cx="537.575" cy="515.908" r="5.05167" stroke-width="0.5" stroke="blue" fill="blue"/>
   </g>
   <g id="cell114">
  <circle cx="541.729" cy="529.131" r="8.41271" stroke-width="0.5" stroke="black" fill="Red"/>
  <circle cx="541.729" cy="529.131" r="5.05167" stroke-width="0.5" stroke="Red" fill="Red"/>
   </g>
   <g id="cell115">
  <circle cx="541.541" cy="543.82" r="8.41271" stroke-width="0.5" stroke="black" fill="Red"/>
  <circle cx="541.541" cy="543.82" r="5.05167" stroke-width="0.5" stroke="Red" fill="Red"/>
   </g>
   <g id="cell116">
  <circle cx="539.102" cy="557.02" r="8.41271" stroke-width="0.5" stroke="black" fill="Red"/>
  <circle cx="539.102" cy="557.02" r="5.05167" stroke-width="0.5" stroke="Red" fill="Red"/>
   </g>
   <g id="cell117">
  <circle cx="539.28" cy="570.429" r="8.41271" stroke-width="0.5" stroke="black" fill="blue"/>
  <circle cx="539.28" cy="570.429" r="5.05167" stroke-width="0.5" stroke="blue" fill="blue"/>
   </g>
   <g id="cell118">
  <circle cx="553.058" cy="428.154" r="8.41271" stroke-width="0.5" stroke="black" fill="blue"/>
  <circle cx="553.058" cy="428.154" r="5.05167" stroke-width="0.5" stroke="blue" fill="blue"/>
   </g>
   <g id="cell119">
  <circle cx="551.73" cy="442.4" r="8.41271" stroke-width="0.5" stroke="black" fill="yellow"/>
  <circle cx="551.73" cy="442.4" r="5.05167" stroke-width="0.5" stroke="yellow" fill="yellow"/>
   </g>
   <g id="cell120">
  <circle cx="558.594" cy="452.86" r="6.67717" stroke-width="0.5" stroke="black" fill="yellow"/>
  <circle cx="558.594" cy="452.86" r="4.00951" stroke-width="0.5" stroke="yellow" fill="yellow"/>
   </g>
   <g id="cell121">
  <circle cx="553.69" cy="468.927" r="8.41271" stroke-width="0.5" stroke="black" fill="blue"/>
  <circle cx="553.69" cy="468.927" r="5.05167" stroke-width="0.5" stroke="blue" fill="blue"/>
   </g>
   <g id="cell122">
  <circle cx="551.331" cy="481.852" r="8.41271" stroke-width="0.5" stroke="black" fill="Red"/>
  <circle cx="551.331" cy="481.852" r="5.05167" stroke-width="0.5" stroke="Red" fill="Red"/>
   </g>
   <g id="cell123">
  <circle cx="551.471" cy="495.854" r="8.41271" stroke-width="0.5" stroke="black" fill="Red"/>
  <circle cx="551.471" cy="495.854" r="5.05167" stroke-width="0.5" stroke="Red" fill="Red"/>
   </g>
   <g id="cell124">
  <circle cx="551.299" cy="509.635" r="8.41271" stroke-width="0.5" stroke="black" fill="Red"/>
  <circle cx="551.299" cy="509.635" r="5.05167" stroke-width="0.5" stroke="Red" fill="Red"/>
   </g>
   <g id="cell125">
  <circle cx="548.233" cy="520.621" r="6.69288" stroke-width="0.5" stroke="black" fill="Red"/>
  <circle cx="548.233" cy="520.621" r="4.02051" stroke-width="0.5" stroke="Red" fill="Red"/>
   </g>
   <g id="cell126">
  <circle cx="554.593" cy="536.039" r="8.41271" stroke-width="0.5" stroke="black" fill="Red"/>
  <circle cx="554.593" cy="536.039" r="5.05167" stroke-width="0.5" stroke="Red" fill="Red"/>
   </g>
   <g id="cell127">
  <circle cx="553.522" cy="550.866" r="8.41271" stroke-width="0.5" stroke="black" fill="Red"/>
  <circle cx="553.522" cy="550.866" r="5.05167" stroke-width="0.5" stroke="Red" fill="Red"/>
   </g>
   <g id="cell128">
  <circle cx="551.811" cy="565.412" r="8.41271" stroke-width="0.5" stroke="black" fill="Red"/>
  <circle cx="551.811" cy="565.412" r="5.05167" stroke-width="0.5" stroke="Red" fill="Red"/>
   </g>
   <g id="cell129">
  <circle cx="567.744" cy="444.326" r="8.41271" stroke-width="0.5" stroke="black" fill="blue"/>
  <circle cx="567.744" cy="444.326" r="5.05167" stroke-width="0.5" stroke="blue" fill="blue"/>
   </g>
   <g id="cell130">
  <circle cx="566.344" cy="460.442" r="8.41271" stroke-width="0.5" stroke="black" fill="yellow"/>
  <circle cx="566.344" cy="460.442" r="5.05167" stroke-width="0.5" stroke="yellow" fill="yellow"/>
   </g>
   <g id="cell131">
  <circle cx="565.97" cy="474.742" r="8.41271" stroke-width="0.5" stroke="black" fill="yellow"/>
  <circle cx="565.97" cy="474.742" r="5.05167" stroke-width="0.5" stroke="yellow" fill="yellow"/>
   </g>
   <g id="cell132">
  <circle cx="563.222" cy="488.471" r="8.41271" stroke-width="0.5" stroke="black" fill="blue"/>
  <circle cx="563.222" cy="488.471" r="5.05167" stroke-width="0.5" stroke="blue" fill="blue"/>
   </g>
   <g id="cell133">
  <circle cx="563.161" cy="501.188" r="8.41271" stroke-width="0.5" stroke="black" fill="Red"/>
  <circle cx="563.161" cy="501.188" r="5.05167" stroke-width="0.5" stroke="Red" fill="Red"/>
   </g>
   <g id="cell134">
  <circle cx="563.136" cy="515.142" r="8.41271" stroke-width="0.5" stroke="black" fill="Red"/>
  <circle cx="563.136" cy="515.142" r="5.05167" stroke-width="0.5" stroke="Red" fill="Red"/>
   </g>
   <g id="cell135">
  <circle cx="566.321" cy="529.485" r="8.41271" stroke-width="0.5" stroke="black" fill="Red"/>
  <circle cx="566.321" cy="529.485" r="5.05167" stroke-width="0.5" stroke="Red" fill="Red"/>
   </g>
   <g id="cell136">
  <circle cx="566.623" cy="545.381" r="8.41271" stroke-width="0.5" stroke="black" fill="yellow"/>
  <circle cx="566.623" cy="545.381" r="5.05167" stroke-width="0.5" stroke="yellow" fill="yellow"/>
   </g>
   <g id="cell137">
  <circle cx="565.299" cy="559.491" r="8.41271" stroke-width="0.5" stroke="black" fill="blue"/>
  <circle cx="565.299" cy="559.491" r="5.05167" stroke-width="0.5" stroke="blue" fill="blue"/>
   </g>
   <g id="cell138">
  <circle cx="578.083" cy="469.337" r="8.41271" stroke-width="0.5" stroke="black" fill="blue"/>
  <circle cx="578.083" cy="469.337" r="5.05167" stroke-width="0.5" stroke="blue" fill="blue"/>
   </g>
   <g id="cell139">
  <circle cx="578.406" cy="483.117" r="8.41271" stroke-width="0.5" stroke="black" fill="yellow"/>
  <circle cx="578.406" cy="483.117" r="5.05167" stroke-width="0.5" stroke="yellow" fill="yellow"/>
   </g>
   <g id="cell140">
  <circle cx="574.504" cy="493.464" r="7.02257" stroke-width="0.5" stroke="black" fill="yellow"/>
  <circle cx="574.504" cy="493.464" r="4.25644" stroke-width="0.5" stroke="yellow" fill="yellow"/>
   </g>
   <g id="cell141">
  <circle cx="576.398" cy="507.255" r="8.41271" stroke-width="0.5" stroke="black" fill="yellow"/>
  <circle cx="576.398" cy="507.255" r="5.05167" stroke-width="0.5" stroke="yellow" fill="yellow"/>
   </g>
   <g id="cell142">
  <circle cx="577.359" cy="521.823" r="8.41271" stroke-width="0.5" stroke="black" fill="Red"/>
  <circle cx="577.359" cy="521.823" r="5.05167" stroke-width="0.5" stroke="Red" fill="Red"/>
   </g>
   <g id="cell143">
  <circle cx="578.058" cy="536.565" r="8.41271" stroke-width="0.5" stroke="black" fill="blue"/>
  <circle cx="578.058" cy="536.565" r="5.05167" stroke-width="0.5" stroke="blue" fill="blue"/>
   </g>
   <g id="cell144">
  <circle cx="440.704" cy="436.93" r="7.02257" stroke-width="0.5" stroke="black" fill="blue"/>
  <circle cx="440.704" cy="436.93" r="4.25644" stroke-width="0.5" stroke="blue" fill="blue"/>
   </g>
   <g id="cell145">
  <circle cx="585.646" cy="495.817" r="7.02257" stroke-width="0.5" stroke="black" fill="blue"/>
  <circle cx="585.646" cy="495.817" r="4.25644" stroke-width="0.5" stroke="blue" fill="blue"/>
   </g>
   <g id="cell146">
  <circle cx="480.348" cy="512.347" r="6.99069" stroke-width="0.5" stroke="black" fill="blue"/>
  <circle cx="480.348" cy="512.347" r="4.23498" stroke-width="0.5" stroke="blue" fill="blue"/>
   </g>
   <g id="cell147">
  <circle cx="530.687" cy="457.616" r="5.85935" stroke-width="0.5" stroke="black" fill="Red"/>
  <circle cx="530.687" cy="457.616" r="3.58018" stroke-width="0.5" stroke="Red" fill="Red"/>
   </g>
   <g id="cell148">
  <circle cx="521.911" cy="539.386" r="6.89675" stroke-width="0.5" stroke="black" fill="blue"/>
  <circle cx="521.911" cy="539.386" r="4.17024" stroke-width="0.5" stroke="blue" fill="blue"/>
   </g>
   <g id="cell149">
  <circle cx="533.563" cy="466.794" r="5.85935" stroke-width="0.5" stroke="black" fill="blue"/>
  <circle cx="533.563" cy="466.794" r="3.58018" stroke-width="0.5" stroke="blue" fill="blue"/>
   </g>
   <g id="cell150">
  <circle cx="441.954" cy="512.107" r="6.75639" stroke-width="0.5" stroke="black" fill="Red"/>
  <circle cx="441.954" cy="512.107" r="4.06813" stroke-width="0.5" stroke="Red" fill="Red"/>
   </g>
   <g id="cell151">
  <circle cx="449.688" cy="418.071" r="6.75639" stroke-width="0.5" stroke="black" fill="blue"/>
  <circle cx="449.688" cy="418.071" r="4.06813" stroke-width="0.5" stroke="blue" fill="blue"/>
   </g>
   <g id="cell152">
  <circle cx="482.971" cy="461.296" r="6.71158" stroke-width="0.5" stroke="black" fill="blue"/>
  <circle cx="482.971" cy="461.296" r="4.03435" stroke-width="0.5" stroke="blue" fill="blue"/>
   </g>
   <g id="cell153">
  <circle cx="520.647" cy="426.101" r="6.69288" stroke-width="0.5" stroke="black" fill="Red"/>
  <circle cx="520.647" cy="426.101" r="4.02051" stroke-width="0.5" stroke="Red" fill="Red"/>
   </g>
   <g id="cell154">
  <circle cx="556.389" cy="524.017" r="6.69288" stroke-width="0.5" stroke="black" fill="blue"/>
  <circle cx="556.389" cy="524.017" r="4.02051" stroke-width="0.5" stroke="blue" fill="blue"/>
   </g>
   <g id="cell155">
  <circle cx="444.064" cy="428.065" r="5.38686" stroke-width="0.5" stroke="black" fill="yellow"/>
  <circle cx="444.064" cy="428.065" r="3.24579" stroke-width="0.5" stroke="yellow" fill="yellow"/>
   </g>
   <g id="cell156">
  <circle cx="514.152" cy="520.208" r="6.67717" stroke-width="0.5" stroke="black" fill="Red"/>
  <circle cx="514.152" cy="520.208" r="4.00951" stroke-width="0.5" stroke="Red" fill="Red"/>
   </g>
   <g id="cell157">
  <circle cx="550.025" cy="454.897" r="6.67717" stroke-width="0.5" stroke="black" fill="Red"/>
  <circle cx="550.025" cy="454.897" r="4.00951" stroke-width="0.5" stroke="Red" fill="Red"/>
   </g>
  </g>
 </g>
  <rect x="775" y="1035" width="200" height="10" stroke-width="2" stroke="rgb(255,255,255)" fill="rgb(0,0,0)"/>
  <text x="781.25" y="1028.75"
   font-family="Arial" font-size="25" fill="black" >
   200 &#956;m
  </text>
  <text x="25" y="1045"
   font-family="Arial" font-size="18.75" fill="black" >
   0 days, 0 hours, 0 minutes, and 28.2495 seconds
  </text>
  <rect x="0" y="70" width="1000" height="1000" stroke-width="2" stroke="rgb(0,0,0)" fill="none"/>
</svg>
