<?xml version="1.0" encoding="UTF-8" standalone="no"?>
<!-- Created with PhysiCell (http://PhysiCell.MathCancer.org/) -->
<svg 
 xmlns:dc="http://purl.org/dc/elements/1.1/" 
 xmlns:cc="http://creativecommons.org/ns#" 
 xmlns:rdf="http://www.w3.org/1999/02/22-rdf-syntax-ns#" 
 xmlns:svg="http://www.w3.org/2000/svg" 
 xmlns="http://www.w3.org/2000/svg" 
 version="1.1" 
 width="1000" 
 height="1070" 
 id="svg2">
  <rect x="0" y="0" width="1000" height="1070" stroke-width="2" stroke="white" fill="white"/>
  <text x="12.5" y="30"
   font-family="Arial" font-size="25" fill="black" >
   Current time: 0 days, 4 hours, and 35.00 minutes, z = 0.00 &#956;m
  </text>
  <text x="12.5" y="57.5"
   font-family="Arial" font-size="23.75" fill="black" >
   184 agents
  </text>
 <g id="tissue" 
    transform="translate(0,1070) scale(1,-1)">
  <g id="ECM">
  </g>
  <g id="cells">
   <g id="cell0">
  <circle cx="423.446" cy="447.602" r="8.41271" stroke-width="0.5" stroke="black" fill="yellow"/>
  <circle cx="423.446" cy="447.602" r="5.05167" stroke-width="0.5" stroke="yellow" fill="yellow"/>
   </g>
   <g id="cell1">
  <circle cx="425.446" cy="469.306" r="7.11815" stroke-width="0.5" stroke="black" fill="yellow"/>
  <circle cx="425.446" cy="469.306" r="4.31954" stroke-width="0.5" stroke="yellow" fill="yellow"/>
   </g>
   <g id="cell2">
  <circle cx="428.836" cy="482.615" r="8.41271" stroke-width="0.5" stroke="black" fill="blue"/>
  <circle cx="428.836" cy="482.615" r="5.05167" stroke-width="0.5" stroke="blue" fill="blue"/>
   </g>
   <g id="cell3">
  <circle cx="425.465" cy="495.793" r="7.33129" stroke-width="0.5" stroke="black" fill="Red"/>
  <circle cx="425.465" cy="495.793" r="4.45516" stroke-width="0.5" stroke="Red" fill="Red"/>
   </g>
   <g id="cell4">
  <circle cx="429.793" cy="508.001" r="8.41271" stroke-width="0.5" stroke="black" fill="Red"/>
  <circle cx="429.793" cy="508.001" r="5.05167" stroke-width="0.5" stroke="Red" fill="Red"/>
   </g>
   <g id="cell5">
  <circle cx="415.508" cy="527.867" r="7.24243" stroke-width="0.5" stroke="black" fill="blue"/>
  <circle cx="415.508" cy="527.867" r="4.39934" stroke-width="0.5" stroke="blue" fill="blue"/>
   </g>
   <g id="cell6">
  <circle cx="425.278" cy="539.385" r="8.41271" stroke-width="0.5" stroke="black" fill="Red"/>
  <circle cx="425.278" cy="539.385" r="5.05167" stroke-width="0.5" stroke="Red" fill="Red"/>
   </g>
   <g id="cell7">
  <circle cx="441.174" cy="446.043" r="7.79564" stroke-width="0.5" stroke="black" fill="yellow"/>
  <circle cx="441.174" cy="446.043" r="4.73359" stroke-width="0.5" stroke="yellow" fill="yellow"/>
   </g>
   <g id="cell8">
  <circle cx="433.514" cy="458.306" r="8.41271" stroke-width="0.5" stroke="black" fill="yellow"/>
  <circle cx="433.514" cy="458.306" r="5.05167" stroke-width="0.5" stroke="yellow" fill="yellow"/>
   </g>
   <g id="cell9">
  <circle cx="438.693" cy="471.157" r="8.41271" stroke-width="0.5" stroke="black" fill="yellow"/>
  <circle cx="438.693" cy="471.157" r="5.05167" stroke-width="0.5" stroke="yellow" fill="yellow"/>
   </g>
   <g id="cell10">
  <circle cx="442.441" cy="484.012" r="8.41271" stroke-width="0.5" stroke="black" fill="Red"/>
  <circle cx="442.441" cy="484.012" r="5.05167" stroke-width="0.5" stroke="Red" fill="Red"/>
   </g>
   <g id="cell11">
  <circle cx="440.887" cy="503.533" r="8.41271" stroke-width="0.5" stroke="black" fill="Red"/>
  <circle cx="440.887" cy="503.533" r="5.05167" stroke-width="0.5" stroke="Red" fill="Red"/>
   </g>
   <g id="cell12">
  <circle cx="434.791" cy="519.733" r="7.61469" stroke-width="0.5" stroke="black" fill="Red"/>
  <circle cx="434.791" cy="519.733" r="4.62762" stroke-width="0.5" stroke="Red" fill="Red"/>
   </g>
   <g id="cell13">
  <circle cx="437.792" cy="532.811" r="8.41271" stroke-width="0.5" stroke="black" fill="Red"/>
  <circle cx="437.792" cy="532.811" r="5.05167" stroke-width="0.5" stroke="Red" fill="Red"/>
   </g>
   <g id="cell14">
  <circle cx="437.939" cy="547.888" r="8.41271" stroke-width="0.5" stroke="black" fill="yellow"/>
  <circle cx="437.939" cy="547.888" r="5.05167" stroke-width="0.5" stroke="yellow" fill="yellow"/>
   </g>
   <g id="cell15">
  <circle cx="439.755" cy="562.355" r="8.41271" stroke-width="0.5" stroke="black" fill="blue"/>
  <circle cx="439.755" cy="562.355" r="5.05167" stroke-width="0.5" stroke="blue" fill="blue"/>
   </g>
   <g id="cell16">
  <circle cx="455.621" cy="425.459" r="7.06384" stroke-width="0.5" stroke="black" fill="Red"/>
  <circle cx="455.621" cy="425.459" r="4.33061" stroke-width="0.5" stroke="Red" fill="Red"/>
   </g>
   <g id="cell17">
  <circle cx="450.581" cy="434.789" r="6.78181" stroke-width="0.5" stroke="black" fill="Red"/>
  <circle cx="450.581" cy="434.789" r="4.08714" stroke-width="0.5" stroke="Red" fill="Red"/>
   </g>
   <g id="cell18">
  <circle cx="448.026" cy="457.929" r="8.41271" stroke-width="0.5" stroke="black" fill="blue"/>
  <circle cx="448.026" cy="457.929" r="5.05167" stroke-width="0.5" stroke="blue" fill="blue"/>
   </g>
   <g id="cell19">
  <circle cx="450.028" cy="469.101" r="8.41271" stroke-width="0.5" stroke="black" fill="blue"/>
  <circle cx="450.028" cy="469.101" r="5.05167" stroke-width="0.5" stroke="blue" fill="blue"/>
   </g>
   <g id="cell20">
  <circle cx="454.04" cy="481.6" r="8.41271" stroke-width="0.5" stroke="black" fill="Red"/>
  <circle cx="454.04" cy="481.6" r="5.05167" stroke-width="0.5" stroke="Red" fill="Red"/>
   </g>
   <g id="cell21">
  <circle cx="450.116" cy="495.138" r="8.41271" stroke-width="0.5" stroke="black" fill="Red"/>
  <circle cx="450.116" cy="495.138" r="5.05167" stroke-width="0.5" stroke="Red" fill="Red"/>
   </g>
   <g id="cell22">
  <circle cx="454.814" cy="508.376" r="8.41271" stroke-width="0.5" stroke="black" fill="Red"/>
  <circle cx="454.814" cy="508.376" r="5.05167" stroke-width="0.5" stroke="Red" fill="Red"/>
   </g>
   <g id="cell23">
  <circle cx="448.399" cy="524.886" r="8.41271" stroke-width="0.5" stroke="black" fill="Red"/>
  <circle cx="448.399" cy="524.886" r="5.05167" stroke-width="0.5" stroke="Red" fill="Red"/>
   </g>
   <g id="cell24">
  <circle cx="451.82" cy="539.892" r="8.41271" stroke-width="0.5" stroke="black" fill="blue"/>
  <circle cx="451.82" cy="539.892" r="5.05167" stroke-width="0.5" stroke="blue" fill="blue"/>
   </g>
   <g id="cell25">
  <circle cx="452.388" cy="554.553" r="8.41271" stroke-width="0.5" stroke="black" fill="Red"/>
  <circle cx="452.388" cy="554.553" r="5.05167" stroke-width="0.5" stroke="Red" fill="Red"/>
   </g>
   <g id="cell26">
  <circle cx="453.333" cy="569.163" r="8.41271" stroke-width="0.5" stroke="black" fill="yellow"/>
  <circle cx="453.333" cy="569.163" r="5.05167" stroke-width="0.5" stroke="yellow" fill="yellow"/>
   </g>
   <g id="cell27">
  <circle cx="465.211" cy="414.938" r="8.41271" stroke-width="0.5" stroke="black" fill="yellow"/>
  <circle cx="465.211" cy="414.938" r="5.05167" stroke-width="0.5" stroke="yellow" fill="yellow"/>
   </g>
   <g id="cell28">
  <circle cx="466.338" cy="428.115" r="8.41271" stroke-width="0.5" stroke="black" fill="Red"/>
  <circle cx="466.338" cy="428.115" r="5.05167" stroke-width="0.5" stroke="Red" fill="Red"/>
   </g>
   <g id="cell29">
  <circle cx="454.518" cy="446.673" r="7.27253" stroke-width="0.5" stroke="black" fill="Red"/>
  <circle cx="454.518" cy="446.673" r="4.41835" stroke-width="0.5" stroke="Red" fill="Red"/>
   </g>
   <g id="cell30">
  <circle cx="460.741" cy="458.5" r="8.41271" stroke-width="0.5" stroke="black" fill="Red"/>
  <circle cx="460.741" cy="458.5" r="5.05167" stroke-width="0.5" stroke="Red" fill="Red"/>
   </g>
   <g id="cell31">
  <circle cx="463.094" cy="471.454" r="8.41271" stroke-width="0.5" stroke="black" fill="Red"/>
  <circle cx="463.094" cy="471.454" r="5.05167" stroke-width="0.5" stroke="Red" fill="Red"/>
   </g>
   <g id="cell32">
  <circle cx="466.879" cy="484.178" r="8.41271" stroke-width="0.5" stroke="black" fill="Red"/>
  <circle cx="466.879" cy="484.178" r="5.05167" stroke-width="0.5" stroke="Red" fill="Red"/>
   </g>
   <g id="cell33">
  <circle cx="462.431" cy="497.145" r="8.41271" stroke-width="0.5" stroke="black" fill="Red"/>
  <circle cx="462.431" cy="497.145" r="5.05167" stroke-width="0.5" stroke="Red" fill="Red"/>
   </g>
   <g id="cell34">
  <circle cx="462.352" cy="520.101" r="8.41271" stroke-width="0.5" stroke="black" fill="Red"/>
  <circle cx="462.352" cy="520.101" r="5.05167" stroke-width="0.5" stroke="Red" fill="Red"/>
   </g>
   <g id="cell35">
  <circle cx="465.435" cy="536.581" r="6.78181" stroke-width="0.5" stroke="black" fill="Red"/>
  <circle cx="465.435" cy="536.581" r="4.08714" stroke-width="0.5" stroke="Red" fill="Red"/>
   </g>
   <g id="cell36">
  <circle cx="462.803" cy="547.591" r="8.41271" stroke-width="0.5" stroke="black" fill="Red"/>
  <circle cx="462.803" cy="547.591" r="5.05167" stroke-width="0.5" stroke="Red" fill="Red"/>
   </g>
   <g id="cell37">
  <circle cx="465.984" cy="560.978" r="8.41271" stroke-width="0.5" stroke="black" fill="Red"/>
  <circle cx="465.984" cy="560.978" r="5.05167" stroke-width="0.5" stroke="Red" fill="Red"/>
   </g>
   <g id="cell38">
  <circle cx="466.405" cy="574.435" r="8.41271" stroke-width="0.5" stroke="black" fill="Red"/>
  <circle cx="466.405" cy="574.435" r="5.05167" stroke-width="0.5" stroke="Red" fill="Red"/>
   </g>
   <g id="cell39">
  <circle cx="466.009" cy="588.015" r="7.0545" stroke-width="0.5" stroke="black" fill="blue"/>
  <circle cx="466.009" cy="588.015" r="4.27772" stroke-width="0.5" stroke="blue" fill="blue"/>
   </g>
   <g id="cell40">
  <circle cx="477.259" cy="406.737" r="8.41271" stroke-width="0.5" stroke="black" fill="blue"/>
  <circle cx="477.259" cy="406.737" r="5.05167" stroke-width="0.5" stroke="blue" fill="blue"/>
   </g>
   <g id="cell41">
  <circle cx="478.109" cy="420.129" r="8.41271" stroke-width="0.5" stroke="black" fill="yellow"/>
  <circle cx="478.109" cy="420.129" r="5.05167" stroke-width="0.5" stroke="yellow" fill="yellow"/>
   </g>
   <g id="cell42">
  <circle cx="476.114" cy="440.939" r="6.67717" stroke-width="0.5" stroke="black" fill="Red"/>
  <circle cx="476.114" cy="440.939" r="4.00951" stroke-width="0.5" stroke="Red" fill="Red"/>
   </g>
   <g id="cell43">
  <circle cx="471.732" cy="452.86" r="8.41271" stroke-width="0.5" stroke="black" fill="Red"/>
  <circle cx="471.732" cy="452.86" r="5.05167" stroke-width="0.5" stroke="Red" fill="Red"/>
   </g>
   <g id="cell44">
  <circle cx="473.922" cy="466.22" r="8.41271" stroke-width="0.5" stroke="black" fill="blue"/>
  <circle cx="473.922" cy="466.22" r="5.05167" stroke-width="0.5" stroke="blue" fill="blue"/>
   </g>
   <g id="cell45">
  <circle cx="477.961" cy="477.475" r="8.41271" stroke-width="0.5" stroke="black" fill="Red"/>
  <circle cx="477.961" cy="477.475" r="5.05167" stroke-width="0.5" stroke="Red" fill="Red"/>
   </g>
   <g id="cell46">
  <circle cx="474.301" cy="494.772" r="8.41271" stroke-width="0.5" stroke="black" fill="Red"/>
  <circle cx="474.301" cy="494.772" r="5.05167" stroke-width="0.5" stroke="Red" fill="Red"/>
   </g>
   <g id="cell47">
  <circle cx="467.327" cy="507.569" r="7.77763" stroke-width="0.5" stroke="black" fill="Red"/>
  <circle cx="467.327" cy="507.569" r="4.7232" stroke-width="0.5" stroke="Red" fill="Red"/>
   </g>
   <g id="cell48">
  <circle cx="484.161" cy="521.027" r="7.46878" stroke-width="0.5" stroke="black" fill="Red"/>
  <circle cx="484.161" cy="521.027" r="4.53982" stroke-width="0.5" stroke="Red" fill="Red"/>
   </g>
   <g id="cell49">
  <circle cx="475.955" cy="541.17" r="8.41271" stroke-width="0.5" stroke="black" fill="Red"/>
  <circle cx="475.955" cy="541.17" r="5.05167" stroke-width="0.5" stroke="Red" fill="Red"/>
   </g>
   <g id="cell50">
  <circle cx="481.992" cy="555.085" r="6.71158" stroke-width="0.5" stroke="black" fill="Red"/>
  <circle cx="481.992" cy="555.085" r="4.03435" stroke-width="0.5" stroke="Red" fill="Red"/>
   </g>
   <g id="cell51">
  <circle cx="477.721" cy="567.074" r="8.41271" stroke-width="0.5" stroke="black" fill="Red"/>
  <circle cx="477.721" cy="567.074" r="5.05167" stroke-width="0.5" stroke="Red" fill="Red"/>
   </g>
   <g id="cell52">
  <circle cx="477.95" cy="583.108" r="8.41271" stroke-width="0.5" stroke="black" fill="Red"/>
  <circle cx="477.95" cy="583.108" r="5.05167" stroke-width="0.5" stroke="Red" fill="Red"/>
   </g>
   <g id="cell53">
  <circle cx="489.729" cy="412.635" r="8.41271" stroke-width="0.5" stroke="black" fill="yellow"/>
  <circle cx="489.729" cy="412.635" r="5.05167" stroke-width="0.5" stroke="yellow" fill="yellow"/>
   </g>
   <g id="cell54">
  <circle cx="485.345" cy="429.493" r="8.41271" stroke-width="0.5" stroke="black" fill="Red"/>
  <circle cx="485.345" cy="429.493" r="5.05167" stroke-width="0.5" stroke="Red" fill="Red"/>
   </g>
   <g id="cell55">
  <circle cx="485.108" cy="446.918" r="7.27253" stroke-width="0.5" stroke="black" fill="Red"/>
  <circle cx="485.108" cy="446.918" r="4.41835" stroke-width="0.5" stroke="Red" fill="Red"/>
   </g>
   <g id="cell56">
  <circle cx="493.217" cy="458.149" r="7.56839" stroke-width="0.5" stroke="black" fill="blue"/>
  <circle cx="493.217" cy="458.149" r="4.59998" stroke-width="0.5" stroke="blue" fill="blue"/>
   </g>
   <g id="cell57">
  <circle cx="487.92" cy="469.209" r="8.41271" stroke-width="0.5" stroke="black" fill="Red"/>
  <circle cx="487.92" cy="469.209" r="5.05167" stroke-width="0.5" stroke="Red" fill="Red"/>
   </g>
   <g id="cell58">
  <circle cx="485.981" cy="489.078" r="8.41271" stroke-width="0.5" stroke="black" fill="blue"/>
  <circle cx="485.981" cy="489.078" r="5.05167" stroke-width="0.5" stroke="blue" fill="blue"/>
   </g>
   <g id="cell59">
  <circle cx="487.062" cy="499.307" r="6.73287" stroke-width="0.5" stroke="black" fill="Red"/>
  <circle cx="487.062" cy="499.307" r="4.05039" stroke-width="0.5" stroke="Red" fill="Red"/>
   </g>
   <g id="cell60">
  <circle cx="488.324" cy="509.471" r="8.41271" stroke-width="0.5" stroke="black" fill="Red"/>
  <circle cx="488.324" cy="509.471" r="5.05167" stroke-width="0.5" stroke="Red" fill="Red"/>
   </g>
   <g id="cell61">
  <circle cx="486.324" cy="531.95" r="8.41271" stroke-width="0.5" stroke="black" fill="Red"/>
  <circle cx="486.324" cy="531.95" r="5.05167" stroke-width="0.5" stroke="Red" fill="Red"/>
   </g>
   <g id="cell62">
  <circle cx="488.489" cy="545.458" r="8.41271" stroke-width="0.5" stroke="black" fill="blue"/>
  <circle cx="488.489" cy="545.458" r="5.05167" stroke-width="0.5" stroke="blue" fill="blue"/>
   </g>
   <g id="cell63">
  <circle cx="489.989" cy="561.621" r="8.41271" stroke-width="0.5" stroke="black" fill="Red"/>
  <circle cx="489.989" cy="561.621" r="5.05167" stroke-width="0.5" stroke="Red" fill="Red"/>
   </g>
   <g id="cell64">
  <circle cx="488.819" cy="574.458" r="8.41271" stroke-width="0.5" stroke="black" fill="Red"/>
  <circle cx="488.819" cy="574.458" r="5.05167" stroke-width="0.5" stroke="Red" fill="Red"/>
   </g>
   <g id="cell65">
  <circle cx="490.083" cy="588.958" r="8.41271" stroke-width="0.5" stroke="black" fill="yellow"/>
  <circle cx="490.083" cy="588.958" r="5.05167" stroke-width="0.5" stroke="yellow" fill="yellow"/>
   </g>
   <g id="cell66">
  <circle cx="504.668" cy="410.111" r="8.41271" stroke-width="0.5" stroke="black" fill="blue"/>
  <circle cx="504.668" cy="410.111" r="5.05167" stroke-width="0.5" stroke="blue" fill="blue"/>
   </g>
   <g id="cell67">
  <circle cx="497.836" cy="422.732" r="8.41271" stroke-width="0.5" stroke="black" fill="yellow"/>
  <circle cx="497.836" cy="422.732" r="5.05167" stroke-width="0.5" stroke="yellow" fill="yellow"/>
   </g>
   <g id="cell68">
  <circle cx="502.011" cy="434.385" r="8.41271" stroke-width="0.5" stroke="black" fill="Red"/>
  <circle cx="502.011" cy="434.385" r="5.05167" stroke-width="0.5" stroke="Red" fill="Red"/>
   </g>
   <g id="cell69">
  <circle cx="497.8" cy="448.56" r="8.41271" stroke-width="0.5" stroke="black" fill="Red"/>
  <circle cx="497.8" cy="448.56" r="5.05167" stroke-width="0.5" stroke="Red" fill="Red"/>
   </g>
   <g id="cell70">
  <circle cx="499.658" cy="466.638" r="8.41271" stroke-width="0.5" stroke="black" fill="Red"/>
  <circle cx="499.658" cy="466.638" r="5.05167" stroke-width="0.5" stroke="Red" fill="Red"/>
   </g>
   <g id="cell71">
  <circle cx="493.514" cy="479.68" r="8.41271" stroke-width="0.5" stroke="black" fill="Red"/>
  <circle cx="493.514" cy="479.68" r="5.05167" stroke-width="0.5" stroke="Red" fill="Red"/>
   </g>
   <g id="cell72">
  <circle cx="500.472" cy="489.805" r="8.41271" stroke-width="0.5" stroke="black" fill="Red"/>
  <circle cx="500.472" cy="489.805" r="5.05167" stroke-width="0.5" stroke="Red" fill="Red"/>
   </g>
   <g id="cell73">
  <circle cx="502.048" cy="508.096" r="8.41271" stroke-width="0.5" stroke="black" fill="Red"/>
  <circle cx="502.048" cy="508.096" r="5.05167" stroke-width="0.5" stroke="Red" fill="Red"/>
   </g>
   <g id="cell74">
  <circle cx="496.893" cy="522.856" r="8.41271" stroke-width="0.5" stroke="black" fill="Red"/>
  <circle cx="496.893" cy="522.856" r="5.05167" stroke-width="0.5" stroke="Red" fill="Red"/>
   </g>
   <g id="cell75">
  <circle cx="498.755" cy="537.206" r="8.41271" stroke-width="0.5" stroke="black" fill="Red"/>
  <circle cx="498.755" cy="537.206" r="5.05167" stroke-width="0.5" stroke="Red" fill="Red"/>
   </g>
   <g id="cell76">
  <circle cx="498.591" cy="552.879" r="8.41271" stroke-width="0.5" stroke="black" fill="Red"/>
  <circle cx="498.591" cy="552.879" r="5.05167" stroke-width="0.5" stroke="Red" fill="Red"/>
   </g>
   <g id="cell77">
  <circle cx="499.317" cy="568.838" r="7.44242" stroke-width="0.5" stroke="black" fill="Red"/>
  <circle cx="499.317" cy="568.838" r="4.52373" stroke-width="0.5" stroke="Red" fill="Red"/>
   </g>
   <g id="cell78">
  <circle cx="501.748" cy="581.008" r="8.41271" stroke-width="0.5" stroke="black" fill="yellow"/>
  <circle cx="501.748" cy="581.008" r="5.05167" stroke-width="0.5" stroke="yellow" fill="yellow"/>
   </g>
   <g id="cell79">
  <circle cx="502.33" cy="594.761" r="8.41271" stroke-width="0.5" stroke="black" fill="blue"/>
  <circle cx="502.33" cy="594.761" r="5.05167" stroke-width="0.5" stroke="blue" fill="blue"/>
   </g>
   <g id="cell80">
  <circle cx="518.275" cy="410.66" r="6.89675" stroke-width="0.5" stroke="black" fill="yellow"/>
  <circle cx="518.275" cy="410.66" r="4.17024" stroke-width="0.5" stroke="yellow" fill="yellow"/>
   </g>
   <g id="cell81">
  <circle cx="514.905" cy="431.535" r="8.41271" stroke-width="0.5" stroke="black" fill="yellow"/>
  <circle cx="514.905" cy="431.535" r="5.05167" stroke-width="0.5" stroke="yellow" fill="yellow"/>
   </g>
   <g id="cell82">
  <circle cx="509.509" cy="444.742" r="8.41271" stroke-width="0.5" stroke="black" fill="yellow"/>
  <circle cx="509.509" cy="444.742" r="5.05167" stroke-width="0.5" stroke="yellow" fill="yellow"/>
   </g>
   <g id="cell83">
  <circle cx="507.823" cy="457.985" r="8.41271" stroke-width="0.5" stroke="black" fill="Red"/>
  <circle cx="507.823" cy="457.985" r="5.05167" stroke-width="0.5" stroke="Red" fill="Red"/>
   </g>
   <g id="cell84">
  <circle cx="515.728" cy="467.841" r="8.41271" stroke-width="0.5" stroke="black" fill="Red"/>
  <circle cx="515.728" cy="467.841" r="5.05167" stroke-width="0.5" stroke="Red" fill="Red"/>
   </g>
   <g id="cell85">
  <circle cx="505.472" cy="477.015" r="8.41271" stroke-width="0.5" stroke="black" fill="Red"/>
  <circle cx="505.472" cy="477.015" r="5.05167" stroke-width="0.5" stroke="Red" fill="Red"/>
   </g>
   <g id="cell86">
  <circle cx="512.08" cy="496.72" r="8.41271" stroke-width="0.5" stroke="black" fill="Red"/>
  <circle cx="512.08" cy="496.72" r="5.05167" stroke-width="0.5" stroke="Red" fill="Red"/>
   </g>
   <g id="cell87">
  <circle cx="514.266" cy="507.558" r="7.51976" stroke-width="0.5" stroke="black" fill="Red"/>
  <circle cx="514.266" cy="507.558" r="4.57072" stroke-width="0.5" stroke="Red" fill="Red"/>
   </g>
   <g id="cell88">
  <circle cx="509.668" cy="530.473" r="8.41271" stroke-width="0.5" stroke="black" fill="Red"/>
  <circle cx="509.668" cy="530.473" r="5.05167" stroke-width="0.5" stroke="Red" fill="Red"/>
   </g>
   <g id="cell89">
  <circle cx="507.743" cy="545.165" r="8.41271" stroke-width="0.5" stroke="black" fill="Red"/>
  <circle cx="507.743" cy="545.165" r="5.05167" stroke-width="0.5" stroke="Red" fill="Red"/>
   </g>
   <g id="cell90">
  <circle cx="515.472" cy="555.001" r="8.41271" stroke-width="0.5" stroke="black" fill="Red"/>
  <circle cx="515.472" cy="555.001" r="5.05167" stroke-width="0.5" stroke="Red" fill="Red"/>
   </g>
   <g id="cell91">
  <circle cx="513.584" cy="571.742" r="8.41271" stroke-width="0.5" stroke="black" fill="yellow"/>
  <circle cx="513.584" cy="571.742" r="5.05167" stroke-width="0.5" stroke="yellow" fill="yellow"/>
   </g>
   <g id="cell92">
  <circle cx="514.702" cy="587.124" r="8.41271" stroke-width="0.5" stroke="black" fill="yellow"/>
  <circle cx="514.702" cy="587.124" r="5.05167" stroke-width="0.5" stroke="yellow" fill="yellow"/>
   </g>
   <g id="cell93">
  <circle cx="531.812" cy="411.492" r="8.41271" stroke-width="0.5" stroke="black" fill="blue"/>
  <circle cx="531.812" cy="411.492" r="5.05167" stroke-width="0.5" stroke="blue" fill="blue"/>
   </g>
   <g id="cell94">
  <circle cx="536.66" cy="424.3" r="7.54436" stroke-width="0.5" stroke="black" fill="yellow"/>
  <circle cx="536.66" cy="424.3" r="4.58555" stroke-width="0.5" stroke="yellow" fill="yellow"/>
   </g>
   <g id="cell95">
  <circle cx="528.785" cy="434.73" r="8.41271" stroke-width="0.5" stroke="black" fill="Red"/>
  <circle cx="528.785" cy="434.73" r="5.05167" stroke-width="0.5" stroke="Red" fill="Red"/>
   </g>
   <g id="cell96">
  <circle cx="521.101" cy="442.533" r="6.85542" stroke-width="0.5" stroke="black" fill="blue"/>
  <circle cx="521.101" cy="442.533" r="4.20192" stroke-width="0.5" stroke="blue" fill="blue"/>
   </g>
   <g id="cell97">
  <circle cx="526.942" cy="460.723" r="8.41271" stroke-width="0.5" stroke="black" fill="Red"/>
  <circle cx="526.942" cy="460.723" r="5.05167" stroke-width="0.5" stroke="Red" fill="Red"/>
   </g>
   <g id="cell98">
  <circle cx="520.643" cy="488.248" r="6.36193" stroke-width="0.5" stroke="black" fill="blue"/>
  <circle cx="520.643" cy="488.248" r="3.90227" stroke-width="0.5" stroke="blue" fill="blue"/>
   </g>
   <g id="cell99">
  <circle cx="525.182" cy="497.349" r="8.41271" stroke-width="0.5" stroke="black" fill="Red"/>
  <circle cx="525.182" cy="497.349" r="5.05167" stroke-width="0.5" stroke="Red" fill="Red"/>
   </g>
   <g id="cell100">
  <circle cx="523.93" cy="506.842" r="6.78181" stroke-width="0.5" stroke="black" fill="blue"/>
  <circle cx="523.93" cy="506.842" r="4.08714" stroke-width="0.5" stroke="blue" fill="blue"/>
   </g>
   <g id="cell101">
  <circle cx="522.552" cy="527.149" r="8.41271" stroke-width="0.5" stroke="black" fill="Red"/>
  <circle cx="522.552" cy="527.149" r="5.05167" stroke-width="0.5" stroke="Red" fill="Red"/>
   </g>
   <g id="cell102">
  <circle cx="529.851" cy="537.722" r="7.72056" stroke-width="0.5" stroke="black" fill="Red"/>
  <circle cx="529.851" cy="537.722" r="4.69003" stroke-width="0.5" stroke="Red" fill="Red"/>
   </g>
   <g id="cell103">
  <circle cx="527.321" cy="549.822" r="8.41271" stroke-width="0.5" stroke="black" fill="Red"/>
  <circle cx="527.321" cy="549.822" r="5.05167" stroke-width="0.5" stroke="Red" fill="Red"/>
   </g>
   <g id="cell104">
  <circle cx="525.185" cy="563.883" r="8.41271" stroke-width="0.5" stroke="black" fill="yellow"/>
  <circle cx="525.185" cy="563.883" r="5.05167" stroke-width="0.5" stroke="yellow" fill="yellow"/>
   </g>
   <g id="cell105">
  <circle cx="526" cy="578.566" r="8.41271" stroke-width="0.5" stroke="black" fill="blue"/>
  <circle cx="526" cy="578.566" r="5.05167" stroke-width="0.5" stroke="blue" fill="blue"/>
   </g>
   <g id="cell106">
  <circle cx="544.019" cy="414.432" r="6.80881" stroke-width="0.5" stroke="black" fill="yellow"/>
  <circle cx="544.019" cy="414.432" r="4.10709" stroke-width="0.5" stroke="yellow" fill="yellow"/>
   </g>
   <g id="cell107">
  <circle cx="541.465" cy="437.068" r="8.41271" stroke-width="0.5" stroke="black" fill="Red"/>
  <circle cx="541.465" cy="437.068" r="5.05167" stroke-width="0.5" stroke="Red" fill="Red"/>
   </g>
   <g id="cell108">
  <circle cx="532.047" cy="448.316" r="8.41271" stroke-width="0.5" stroke="black" fill="Red"/>
  <circle cx="532.047" cy="448.316" r="5.05167" stroke-width="0.5" stroke="Red" fill="Red"/>
   </g>
   <g id="cell109">
  <circle cx="548.102" cy="467.063" r="8.41271" stroke-width="0.5" stroke="black" fill="Red"/>
  <circle cx="548.102" cy="467.063" r="5.05167" stroke-width="0.5" stroke="Red" fill="Red"/>
   </g>
   <g id="cell110">
  <circle cx="528.428" cy="480.784" r="8.41271" stroke-width="0.5" stroke="black" fill="Red"/>
  <circle cx="528.428" cy="480.784" r="5.05167" stroke-width="0.5" stroke="Red" fill="Red"/>
   </g>
   <g id="cell111">
  <circle cx="536.748" cy="489.964" r="8.41271" stroke-width="0.5" stroke="black" fill="Red"/>
  <circle cx="536.748" cy="489.964" r="5.05167" stroke-width="0.5" stroke="Red" fill="Red"/>
   </g>
   <g id="cell112">
  <circle cx="538.783" cy="504.499" r="8.41271" stroke-width="0.5" stroke="black" fill="Red"/>
  <circle cx="538.783" cy="504.499" r="5.05167" stroke-width="0.5" stroke="Red" fill="Red"/>
   </g>
   <g id="cell113">
  <circle cx="530.258" cy="514.855" r="8.41271" stroke-width="0.5" stroke="black" fill="Red"/>
  <circle cx="530.258" cy="514.855" r="5.05167" stroke-width="0.5" stroke="Red" fill="Red"/>
   </g>
   <g id="cell114">
  <circle cx="535.568" cy="527.86" r="8.41271" stroke-width="0.5" stroke="black" fill="Red"/>
  <circle cx="535.568" cy="527.86" r="5.05167" stroke-width="0.5" stroke="Red" fill="Red"/>
   </g>
   <g id="cell115">
  <circle cx="540.305" cy="542.116" r="8.41271" stroke-width="0.5" stroke="black" fill="Red"/>
  <circle cx="540.305" cy="542.116" r="5.05167" stroke-width="0.5" stroke="Red" fill="Red"/>
   </g>
   <g id="cell116">
  <circle cx="538.521" cy="556.801" r="8.41271" stroke-width="0.5" stroke="black" fill="yellow"/>
  <circle cx="538.521" cy="556.801" r="5.05167" stroke-width="0.5" stroke="yellow" fill="yellow"/>
   </g>
   <g id="cell117">
  <circle cx="538.427" cy="570.68" r="8.41271" stroke-width="0.5" stroke="black" fill="yellow"/>
  <circle cx="538.427" cy="570.68" r="5.05167" stroke-width="0.5" stroke="yellow" fill="yellow"/>
   </g>
   <g id="cell118">
  <circle cx="550.661" cy="426.972" r="8.41271" stroke-width="0.5" stroke="black" fill="Red"/>
  <circle cx="550.661" cy="426.972" r="5.05167" stroke-width="0.5" stroke="Red" fill="Red"/>
   </g>
   <g id="cell119">
  <circle cx="555.657" cy="440.256" r="8.41271" stroke-width="0.5" stroke="black" fill="yellow"/>
  <circle cx="555.657" cy="440.256" r="5.05167" stroke-width="0.5" stroke="yellow" fill="yellow"/>
   </g>
   <g id="cell120">
  <circle cx="552.937" cy="457.4" r="7.51976" stroke-width="0.5" stroke="black" fill="Red"/>
  <circle cx="552.937" cy="457.4" r="4.57072" stroke-width="0.5" stroke="Red" fill="Red"/>
   </g>
   <g id="cell121">
  <circle cx="558.049" cy="473.642" r="8.41271" stroke-width="0.5" stroke="black" fill="Red"/>
  <circle cx="558.049" cy="473.642" r="5.05167" stroke-width="0.5" stroke="Red" fill="Red"/>
   </g>
   <g id="cell122">
  <circle cx="546.346" cy="480.926" r="8.41271" stroke-width="0.5" stroke="black" fill="Red"/>
  <circle cx="546.346" cy="480.926" r="5.05167" stroke-width="0.5" stroke="Red" fill="Red"/>
   </g>
   <g id="cell123">
  <circle cx="549.608" cy="495.242" r="8.41271" stroke-width="0.5" stroke="black" fill="Red"/>
  <circle cx="549.608" cy="495.242" r="5.05167" stroke-width="0.5" stroke="Red" fill="Red"/>
   </g>
   <g id="cell124">
  <circle cx="552.53" cy="509.413" r="8.41271" stroke-width="0.5" stroke="black" fill="Red"/>
  <circle cx="552.53" cy="509.413" r="5.05167" stroke-width="0.5" stroke="Red" fill="Red"/>
   </g>
   <g id="cell125">
  <circle cx="543.058" cy="517.223" r="7.54436" stroke-width="0.5" stroke="black" fill="blue"/>
  <circle cx="543.058" cy="517.223" r="4.58555" stroke-width="0.5" stroke="blue" fill="blue"/>
   </g>
   <g id="cell126">
  <circle cx="546.586" cy="532.077" r="8.41271" stroke-width="0.5" stroke="black" fill="Red"/>
  <circle cx="546.586" cy="532.077" r="5.05167" stroke-width="0.5" stroke="Red" fill="Red"/>
   </g>
   <g id="cell127">
  <circle cx="550.607" cy="549.564" r="8.41271" stroke-width="0.5" stroke="black" fill="yellow"/>
  <circle cx="550.607" cy="549.564" r="5.05167" stroke-width="0.5" stroke="yellow" fill="yellow"/>
   </g>
   <g id="cell128">
  <circle cx="552.092" cy="562.481" r="8.41271" stroke-width="0.5" stroke="black" fill="blue"/>
  <circle cx="552.092" cy="562.481" r="5.05167" stroke-width="0.5" stroke="blue" fill="blue"/>
   </g>
   <g id="cell129">
  <circle cx="573.471" cy="452.433" r="7.49456" stroke-width="0.5" stroke="black" fill="yellow"/>
  <circle cx="573.471" cy="452.433" r="4.55548" stroke-width="0.5" stroke="yellow" fill="yellow"/>
   </g>
   <g id="cell130">
  <circle cx="562.911" cy="462.473" r="8.41271" stroke-width="0.5" stroke="black" fill="Red"/>
  <circle cx="562.911" cy="462.473" r="5.05167" stroke-width="0.5" stroke="Red" fill="Red"/>
   </g>
   <g id="cell131">
  <circle cx="569.714" cy="477.762" r="8.41271" stroke-width="0.5" stroke="black" fill="Red"/>
  <circle cx="569.714" cy="477.762" r="5.05167" stroke-width="0.5" stroke="Red" fill="Red"/>
   </g>
   <g id="cell132">
  <circle cx="559.804" cy="486.788" r="8.41271" stroke-width="0.5" stroke="black" fill="Red"/>
  <circle cx="559.804" cy="486.788" r="5.05167" stroke-width="0.5" stroke="Red" fill="Red"/>
   </g>
   <g id="cell133">
  <circle cx="562.927" cy="499.837" r="8.41271" stroke-width="0.5" stroke="black" fill="blue"/>
  <circle cx="562.927" cy="499.837" r="5.05167" stroke-width="0.5" stroke="blue" fill="blue"/>
   </g>
   <g id="cell134">
  <circle cx="564.679" cy="514.212" r="8.41271" stroke-width="0.5" stroke="black" fill="Red"/>
  <circle cx="564.679" cy="514.212" r="5.05167" stroke-width="0.5" stroke="Red" fill="Red"/>
   </g>
   <g id="cell135">
  <circle cx="566.163" cy="527.849" r="8.41271" stroke-width="0.5" stroke="black" fill="yellow"/>
  <circle cx="566.163" cy="527.849" r="5.05167" stroke-width="0.5" stroke="yellow" fill="yellow"/>
   </g>
   <g id="cell136">
  <circle cx="558.681" cy="539.088" r="8.41271" stroke-width="0.5" stroke="black" fill="Red"/>
  <circle cx="558.681" cy="539.088" r="5.05167" stroke-width="0.5" stroke="Red" fill="Red"/>
   </g>
   <g id="cell137">
  <circle cx="564.693" cy="555.35" r="8.41271" stroke-width="0.5" stroke="black" fill="Red"/>
  <circle cx="564.693" cy="555.35" r="5.05167" stroke-width="0.5" stroke="Red" fill="Red"/>
   </g>
   <g id="cell138">
  <circle cx="574.634" cy="466.661" r="8.41271" stroke-width="0.5" stroke="black" fill="blue"/>
  <circle cx="574.634" cy="466.661" r="5.05167" stroke-width="0.5" stroke="blue" fill="blue"/>
   </g>
   <g id="cell139">
  <circle cx="583.68" cy="481.461" r="8.41271" stroke-width="0.5" stroke="black" fill="yellow"/>
  <circle cx="583.68" cy="481.461" r="5.05167" stroke-width="0.5" stroke="yellow" fill="yellow"/>
   </g>
   <g id="cell140">
  <circle cx="574.477" cy="491.46" r="7.79564" stroke-width="0.5" stroke="black" fill="yellow"/>
  <circle cx="574.477" cy="491.46" r="4.73359" stroke-width="0.5" stroke="yellow" fill="yellow"/>
   </g>
   <g id="cell141">
  <circle cx="576.649" cy="506.182" r="8.41271" stroke-width="0.5" stroke="black" fill="yellow"/>
  <circle cx="576.649" cy="506.182" r="5.05167" stroke-width="0.5" stroke="yellow" fill="yellow"/>
   </g>
   <g id="cell142">
  <circle cx="576.99" cy="519.665" r="7.33129" stroke-width="0.5" stroke="black" fill="blue"/>
  <circle cx="576.99" cy="519.665" r="4.45516" stroke-width="0.5" stroke="blue" fill="blue"/>
   </g>
   <g id="cell143">
  <circle cx="571.752" cy="542.132" r="8.41271" stroke-width="0.5" stroke="black" fill="blue"/>
  <circle cx="571.752" cy="542.132" r="5.05167" stroke-width="0.5" stroke="blue" fill="blue"/>
   </g>
   <g id="cell144">
  <circle cx="431.134" cy="438.522" r="6.44108" stroke-width="0.5" stroke="black" fill="blue"/>
  <circle cx="431.134" cy="438.522" r="3.93518" stroke-width="0.5" stroke="blue" fill="blue"/>
   </g>
   <g id="cell145">
  <circle cx="588.31" cy="497.123" r="7.79564" stroke-width="0.5" stroke="black" fill="blue"/>
  <circle cx="588.31" cy="497.123" r="4.73359" stroke-width="0.5" stroke="blue" fill="blue"/>
   </g>
   <g id="cell146">
  <circle cx="478.603" cy="505.093" r="6.92145" stroke-width="0.5" stroke="black" fill="blue"/>
  <circle cx="478.603" cy="505.093" r="4.24254" stroke-width="0.5" stroke="blue" fill="blue"/>
   </g>
   <g id="cell147">
  <circle cx="539.522" cy="459.053" r="7.35417" stroke-width="0.5" stroke="black" fill="Red"/>
  <circle cx="539.522" cy="459.053" r="4.50057" stroke-width="0.5" stroke="Red" fill="Red"/>
   </g>
   <g id="cell148">
  <circle cx="518.561" cy="540.303" r="7.72056" stroke-width="0.5" stroke="black" fill="blue"/>
  <circle cx="518.561" cy="540.303" r="4.69003" stroke-width="0.5" stroke="blue" fill="blue"/>
   </g>
   <g id="cell149">
  <circle cx="536.805" cy="472.361" r="7.35417" stroke-width="0.5" stroke="black" fill="blue"/>
  <circle cx="536.805" cy="472.361" r="4.50057" stroke-width="0.5" stroke="blue" fill="blue"/>
   </g>
   <g id="cell150">
  <circle cx="444.587" cy="514.041" r="7.61469" stroke-width="0.5" stroke="black" fill="blue"/>
  <circle cx="444.587" cy="514.041" r="4.62762" stroke-width="0.5" stroke="blue" fill="blue"/>
   </g>
   <g id="cell151">
  <circle cx="451.964" cy="414.514" r="7.61469" stroke-width="0.5" stroke="black" fill="blue"/>
  <circle cx="451.964" cy="414.514" r="4.62762" stroke-width="0.5" stroke="blue" fill="blue"/>
   </g>
   <g id="cell152">
  <circle cx="483.004" cy="457.989" r="7.56839" stroke-width="0.5" stroke="black" fill="blue"/>
  <circle cx="483.004" cy="457.989" r="4.59998" stroke-width="0.5" stroke="blue" fill="blue"/>
   </g>
   <g id="cell153">
  <circle cx="524.127" cy="422.021" r="7.54436" stroke-width="0.5" stroke="black" fill="Red"/>
  <circle cx="524.127" cy="422.021" r="4.58555" stroke-width="0.5" stroke="Red" fill="Red"/>
   </g>
   <g id="cell154">
  <circle cx="553.953" cy="522.929" r="7.54436" stroke-width="0.5" stroke="black" fill="Red"/>
  <circle cx="553.953" cy="522.929" r="4.58555" stroke-width="0.5" stroke="Red" fill="Red"/>
   </g>
   <g id="cell155">
  <circle cx="444.081" cy="424.632" r="7.06384" stroke-width="0.5" stroke="black" fill="Red"/>
  <circle cx="444.081" cy="424.632" r="4.33061" stroke-width="0.5" stroke="Red" fill="Red"/>
   </g>
   <g id="cell156">
  <circle cx="509.531" cy="518.598" r="7.51976" stroke-width="0.5" stroke="black" fill="blue"/>
  <circle cx="509.531" cy="518.598" r="4.57072" stroke-width="0.5" stroke="blue" fill="blue"/>
   </g>
   <g id="cell157">
  <circle cx="546.521" cy="448.781" r="7.51976" stroke-width="0.5" stroke="black" fill="blue"/>
  <circle cx="546.521" cy="448.781" r="4.57072" stroke-width="0.5" stroke="blue" fill="blue"/>
   </g>
   <g id="cell158">
  <circle cx="561.563" cy="450.706" r="6.41388" stroke-width="0.5" stroke="black" fill="yellow"/>
  <circle cx="561.563" cy="450.706" r="3.93228" stroke-width="0.5" stroke="yellow" fill="yellow"/>
   </g>
   <g id="cell159">
  <circle cx="472.629" cy="528.568" r="7.46878" stroke-width="0.5" stroke="black" fill="blue"/>
  <circle cx="472.629" cy="528.568" r="4.53982" stroke-width="0.5" stroke="blue" fill="blue"/>
   </g>
   <g id="cell160">
  <circle cx="506.389" cy="561.031" r="7.44242" stroke-width="0.5" stroke="black" fill="blue"/>
  <circle cx="506.389" cy="561.031" r="4.52373" stroke-width="0.5" stroke="blue" fill="blue"/>
   </g>
   <g id="cell161">
  <circle cx="518.184" cy="478.338" r="6.24257" stroke-width="0.5" stroke="black" fill="blue"/>
  <circle cx="518.184" cy="478.338" r="3.82555" stroke-width="0.5" stroke="blue" fill="blue"/>
   </g>
   <g id="cell162">
  <circle cx="580.41" cy="531.78" r="7.33129" stroke-width="0.5" stroke="black" fill="Red"/>
  <circle cx="580.41" cy="531.78" r="4.45516" stroke-width="0.5" stroke="Red" fill="Red"/>
   </g>
   <g id="cell163">
  <circle cx="475.073" cy="515.948" r="6.92145" stroke-width="0.5" stroke="black" fill="Red"/>
  <circle cx="475.073" cy="515.948" r="4.24254" stroke-width="0.5" stroke="Red" fill="Red"/>
   </g>
   <g id="cell164">
  <circle cx="436.167" cy="493.955" r="7.33129" stroke-width="0.5" stroke="black" fill="yellow"/>
  <circle cx="436.167" cy="493.955" r="4.45516" stroke-width="0.5" stroke="yellow" fill="yellow"/>
   </g>
   <g id="cell165">
  <circle cx="466.241" cy="444.379" r="7.27253" stroke-width="0.5" stroke="black" fill="blue"/>
  <circle cx="466.241" cy="444.379" r="4.41835" stroke-width="0.5" stroke="blue" fill="blue"/>
   </g>
   <g id="cell166">
  <circle cx="491.904" cy="438.164" r="7.27253" stroke-width="0.5" stroke="black" fill="blue"/>
  <circle cx="491.904" cy="438.164" r="4.41835" stroke-width="0.5" stroke="blue" fill="blue"/>
   </g>
   <g id="cell167">
  <circle cx="518.64" cy="452.907" r="6.85542" stroke-width="0.5" stroke="black" fill="Red"/>
  <circle cx="518.64" cy="452.907" r="4.20192" stroke-width="0.5" stroke="Red" fill="Red"/>
   </g>
   <g id="cell168">
  <circle cx="426.862" cy="527.743" r="6.24297" stroke-width="0.5" stroke="black" fill="Red"/>
  <circle cx="426.862" cy="527.743" r="3.82824" stroke-width="0.5" stroke="Red" fill="Red"/>
   </g>
   <g id="cell169">
  <circle cx="419.073" cy="459.312" r="7.11815" stroke-width="0.5" stroke="black" fill="blue"/>
  <circle cx="419.073" cy="459.312" r="4.31954" stroke-width="0.5" stroke="blue" fill="blue"/>
   </g>
   <g id="cell170">
  <circle cx="512.958" cy="485.261" r="6.36193" stroke-width="0.5" stroke="black" fill="Red"/>
  <circle cx="512.958" cy="485.261" r="3.90227" stroke-width="0.5" stroke="Red" fill="Red"/>
   </g>
   <g id="cell171">
  <circle cx="455.125" cy="583.247" r="7.0545" stroke-width="0.5" stroke="black" fill="yellow"/>
  <circle cx="455.125" cy="583.247" r="4.27772" stroke-width="0.5" stroke="yellow" fill="yellow"/>
   </g>
   <g id="cell172">
  <circle cx="567.806" cy="442.553" r="6.41388" stroke-width="0.5" stroke="black" fill="blue"/>
  <circle cx="567.806" cy="442.553" r="3.93228" stroke-width="0.5" stroke="blue" fill="blue"/>
   </g>
   <g id="cell173">
  <circle cx="422.88" cy="517.786" r="6.24297" stroke-width="0.5" stroke="black" fill="Red"/>
  <circle cx="422.88" cy="517.786" r="3.82824" stroke-width="0.5" stroke="Red" fill="Red"/>
   </g>
   <g id="cell174">
  <circle cx="526.662" cy="470.766" r="6.24257" stroke-width="0.5" stroke="black" fill="Red"/>
  <circle cx="526.662" cy="470.766" r="3.82555" stroke-width="0.5" stroke="Red" fill="Red"/>
   </g>
   <g id="cell175">
  <circle cx="510.385" cy="420.989" r="6.89675" stroke-width="0.5" stroke="black" fill="Red"/>
  <circle cx="510.385" cy="420.989" r="4.17024" stroke-width="0.5" stroke="Red" fill="Red"/>
   </g>
   <g id="cell176">
  <circle cx="440.035" cy="434.528" r="6.44108" stroke-width="0.5" stroke="black" fill="Red"/>
  <circle cx="440.035" cy="434.528" r="3.93518" stroke-width="0.5" stroke="Red" fill="Red"/>
   </g>
   <g id="cell177">
  <circle cx="555.349" cy="414.592" r="6.80881" stroke-width="0.5" stroke="black" fill="blue"/>
  <circle cx="555.349" cy="414.592" r="4.10709" stroke-width="0.5" stroke="blue" fill="blue"/>
   </g>
   <g id="cell178">
  <circle cx="519.616" cy="516.277" r="6.78181" stroke-width="0.5" stroke="black" fill="Red"/>
  <circle cx="519.616" cy="516.277" r="4.08714" stroke-width="0.5" stroke="Red" fill="Red"/>
   </g>
   <g id="cell179">
  <circle cx="458.722" cy="531.184" r="6.78181" stroke-width="0.5" stroke="black" fill="blue"/>
  <circle cx="458.722" cy="531.184" r="4.08714" stroke-width="0.5" stroke="blue" fill="blue"/>
   </g>
   <g id="cell180">
  <circle cx="460.86" cy="436.332" r="6.78181" stroke-width="0.5" stroke="black" fill="Red"/>
  <circle cx="460.86" cy="436.332" r="4.08714" stroke-width="0.5" stroke="Red" fill="Red"/>
   </g>
   <g id="cell181">
  <circle cx="497.037" cy="499.919" r="6.73287" stroke-width="0.5" stroke="black" fill="blue"/>
  <circle cx="497.037" cy="499.919" r="4.05039" stroke-width="0.5" stroke="blue" fill="blue"/>
   </g>
   <g id="cell182">
  <circle cx="473.784" cy="553.174" r="6.71158" stroke-width="0.5" stroke="black" fill="blue"/>
  <circle cx="473.784" cy="553.174" r="4.03435" stroke-width="0.5" stroke="blue" fill="blue"/>
   </g>
   <g id="cell183">
  <circle cx="474.989" cy="431.888" r="6.67717" stroke-width="0.5" stroke="black" fill="Red"/>
  <circle cx="474.989" cy="431.888" r="4.00951" stroke-width="0.5" stroke="Red" fill="Red"/>
   </g>
  </g>
 </g>
  <rect x="775" y="1035" width="200" height="10" stroke-width="2" stroke="rgb(255,255,255)" fill="rgb(0,0,0)"/>
  <text x="781.25" y="1028.75"
   font-family="Arial" font-size="25" fill="black" >
   200 &#956;m
  </text>
  <text x="25" y="1045"
   font-family="Arial" font-size="18.75" fill="black" >
   0 days, 0 hours, 1 minutes, and 40.6447 seconds
  </text>
  <rect x="0" y="70" width="1000" height="1000" stroke-width="2" stroke="rgb(0,0,0)" fill="none"/>
</svg>
