<?xml version="1.0" encoding="UTF-8" standalone="no"?>
<!-- Created with PhysiCell (http://PhysiCell.MathCancer.org/) -->
<svg 
 xmlns:dc="http://purl.org/dc/elements/1.1/" 
 xmlns:cc="http://creativecommons.org/ns#" 
 xmlns:rdf="http://www.w3.org/1999/02/22-rdf-syntax-ns#" 
 xmlns:svg="http://www.w3.org/2000/svg" 
 xmlns="http://www.w3.org/2000/svg" 
 version="1.1" 
 width="1000" 
 height="1070" 
 id="svg2">
  <rect x="0" y="0" width="1000" height="1070" stroke-width="2" stroke="white" fill="white"/>
  <text x="12.5" y="30"
   font-family="Arial" font-size="25" fill="black" >
   Current time: 0 days, 1 hours, and 20.00 minutes, z = 0.00 &#956;m
  </text>
  <text x="12.5" y="57.5"
   font-family="Arial" font-size="23.75" fill="black" >
   153 agents
  </text>
 <g id="tissue" 
    transform="translate(0,1070) scale(1,-1)">
  <g id="ECM">
  </g>
  <g id="cells">
   <g id="cell0">
  <circle cx="424.361" cy="453.292" r="8.41271" stroke-width="0.5" stroke="black" fill="blue"/>
  <circle cx="424.361" cy="453.292" r="5.05167" stroke-width="0.5" stroke="blue" fill="blue"/>
   </g>
   <g id="cell1">
  <circle cx="424.415" cy="468.741" r="8.41271" stroke-width="0.5" stroke="black" fill="Red"/>
  <circle cx="424.415" cy="468.741" r="5.05167" stroke-width="0.5" stroke="Red" fill="Red"/>
   </g>
   <g id="cell2">
  <circle cx="427.461" cy="481.961" r="8.41271" stroke-width="0.5" stroke="black" fill="blue"/>
  <circle cx="427.461" cy="481.961" r="5.05167" stroke-width="0.5" stroke="blue" fill="blue"/>
   </g>
   <g id="cell3">
  <circle cx="426.94" cy="495.482" r="8.41271" stroke-width="0.5" stroke="black" fill="Red"/>
  <circle cx="426.94" cy="495.482" r="5.05167" stroke-width="0.5" stroke="Red" fill="Red"/>
   </g>
   <g id="cell4">
  <circle cx="429.095" cy="508.806" r="8.41271" stroke-width="0.5" stroke="black" fill="blue"/>
  <circle cx="429.095" cy="508.806" r="5.05167" stroke-width="0.5" stroke="blue" fill="blue"/>
   </g>
   <g id="cell5">
  <circle cx="425.722" cy="522.957" r="8.41271" stroke-width="0.5" stroke="black" fill="Red"/>
  <circle cx="425.722" cy="522.957" r="5.05167" stroke-width="0.5" stroke="Red" fill="Red"/>
   </g>
   <g id="cell6">
  <circle cx="426.456" cy="536.662" r="8.41271" stroke-width="0.5" stroke="black" fill="blue"/>
  <circle cx="426.456" cy="536.662" r="5.05167" stroke-width="0.5" stroke="blue" fill="blue"/>
   </g>
   <g id="cell7">
  <circle cx="436.277" cy="448.011" r="6.95901" stroke-width="0.5" stroke="black" fill="Red"/>
  <circle cx="436.277" cy="448.011" r="4.21341" stroke-width="0.5" stroke="Red" fill="Red"/>
   </g>
   <g id="cell8">
  <circle cx="436.994" cy="460.883" r="8.41271" stroke-width="0.5" stroke="black" fill="yellow"/>
  <circle cx="436.994" cy="460.883" r="5.05167" stroke-width="0.5" stroke="yellow" fill="yellow"/>
   </g>
   <g id="cell9">
  <circle cx="437.622" cy="474.112" r="8.41271" stroke-width="0.5" stroke="black" fill="Red"/>
  <circle cx="437.622" cy="474.112" r="5.05167" stroke-width="0.5" stroke="Red" fill="Red"/>
   </g>
   <g id="cell10">
  <circle cx="438.996" cy="488.012" r="8.41271" stroke-width="0.5" stroke="black" fill="Red"/>
  <circle cx="438.996" cy="488.012" r="5.05167" stroke-width="0.5" stroke="Red" fill="Red"/>
   </g>
   <g id="cell11">
  <circle cx="439.237" cy="501.208" r="8.41271" stroke-width="0.5" stroke="black" fill="Red"/>
  <circle cx="439.237" cy="501.208" r="5.05167" stroke-width="0.5" stroke="Red" fill="Red"/>
   </g>
   <g id="cell12">
  <circle cx="436.565" cy="517.927" r="6.71158" stroke-width="0.5" stroke="black" fill="Red"/>
  <circle cx="436.565" cy="517.927" r="4.03435" stroke-width="0.5" stroke="Red" fill="Red"/>
   </g>
   <g id="cell13">
  <circle cx="439.134" cy="530.416" r="8.41271" stroke-width="0.5" stroke="black" fill="yellow"/>
  <circle cx="439.134" cy="530.416" r="5.05167" stroke-width="0.5" stroke="yellow" fill="yellow"/>
   </g>
   <g id="cell14">
  <circle cx="438.374" cy="545.699" r="8.41271" stroke-width="0.5" stroke="black" fill="yellow"/>
  <circle cx="438.374" cy="545.699" r="5.05167" stroke-width="0.5" stroke="yellow" fill="yellow"/>
   </g>
   <g id="cell15">
  <circle cx="439.984" cy="559.377" r="8.41271" stroke-width="0.5" stroke="black" fill="blue"/>
  <circle cx="439.984" cy="559.377" r="5.05167" stroke-width="0.5" stroke="blue" fill="blue"/>
   </g>
   <g id="cell16">
  <circle cx="449.037" cy="428.337" r="6.71158" stroke-width="0.5" stroke="black" fill="yellow"/>
  <circle cx="449.037" cy="428.337" r="4.03435" stroke-width="0.5" stroke="yellow" fill="yellow"/>
   </g>
   <g id="cell17">
  <circle cx="451.1" cy="440.41" r="8.41271" stroke-width="0.5" stroke="black" fill="Red"/>
  <circle cx="451.1" cy="440.41" r="5.05167" stroke-width="0.5" stroke="Red" fill="Red"/>
   </g>
   <g id="cell18">
  <circle cx="448.734" cy="452.629" r="8.41271" stroke-width="0.5" stroke="black" fill="Red"/>
  <circle cx="448.734" cy="452.629" r="5.05167" stroke-width="0.5" stroke="Red" fill="Red"/>
   </g>
   <g id="cell19">
  <circle cx="449.941" cy="466.934" r="8.41271" stroke-width="0.5" stroke="black" fill="blue"/>
  <circle cx="449.941" cy="466.934" r="5.05167" stroke-width="0.5" stroke="blue" fill="blue"/>
   </g>
   <g id="cell20">
  <circle cx="450.703" cy="481.123" r="8.41271" stroke-width="0.5" stroke="black" fill="Red"/>
  <circle cx="450.703" cy="481.123" r="5.05167" stroke-width="0.5" stroke="Red" fill="Red"/>
   </g>
   <g id="cell21">
  <circle cx="451.512" cy="494.781" r="8.41271" stroke-width="0.5" stroke="black" fill="blue"/>
  <circle cx="451.512" cy="494.781" r="5.05167" stroke-width="0.5" stroke="blue" fill="blue"/>
   </g>
   <g id="cell22">
  <circle cx="453.199" cy="508.951" r="8.41271" stroke-width="0.5" stroke="black" fill="blue"/>
  <circle cx="453.199" cy="508.951" r="5.05167" stroke-width="0.5" stroke="blue" fill="blue"/>
   </g>
   <g id="cell23">
  <circle cx="450.904" cy="523.255" r="8.41271" stroke-width="0.5" stroke="black" fill="Red"/>
  <circle cx="450.904" cy="523.255" r="5.05167" stroke-width="0.5" stroke="Red" fill="Red"/>
   </g>
   <g id="cell24">
  <circle cx="451.748" cy="536.742" r="8.41271" stroke-width="0.5" stroke="black" fill="Red"/>
  <circle cx="451.748" cy="536.742" r="5.05167" stroke-width="0.5" stroke="Red" fill="Red"/>
   </g>
   <g id="cell25">
  <circle cx="452.194" cy="551.687" r="8.41271" stroke-width="0.5" stroke="black" fill="yellow"/>
  <circle cx="452.194" cy="551.687" r="5.05167" stroke-width="0.5" stroke="yellow" fill="yellow"/>
   </g>
   <g id="cell26">
  <circle cx="452.422" cy="567.86" r="8.41271" stroke-width="0.5" stroke="black" fill="yellow"/>
  <circle cx="452.422" cy="567.86" r="5.05167" stroke-width="0.5" stroke="yellow" fill="yellow"/>
   </g>
   <g id="cell27">
  <circle cx="460.254" cy="419.549" r="8.41271" stroke-width="0.5" stroke="black" fill="yellow"/>
  <circle cx="460.254" cy="419.549" r="5.05167" stroke-width="0.5" stroke="yellow" fill="yellow"/>
   </g>
   <g id="cell28">
  <circle cx="463.059" cy="433.683" r="8.41271" stroke-width="0.5" stroke="black" fill="Red"/>
  <circle cx="463.059" cy="433.683" r="5.05167" stroke-width="0.5" stroke="Red" fill="Red"/>
   </g>
   <g id="cell29">
  <circle cx="462.119" cy="447.313" r="8.41271" stroke-width="0.5" stroke="black" fill="blue"/>
  <circle cx="462.119" cy="447.313" r="5.05167" stroke-width="0.5" stroke="blue" fill="blue"/>
   </g>
   <g id="cell30">
  <circle cx="462.487" cy="461.015" r="8.41271" stroke-width="0.5" stroke="black" fill="Red"/>
  <circle cx="462.487" cy="461.015" r="5.05167" stroke-width="0.5" stroke="Red" fill="Red"/>
   </g>
   <g id="cell31">
  <circle cx="463.044" cy="474.468" r="8.41271" stroke-width="0.5" stroke="black" fill="Red"/>
  <circle cx="463.044" cy="474.468" r="5.05167" stroke-width="0.5" stroke="Red" fill="Red"/>
   </g>
   <g id="cell32">
  <circle cx="464.119" cy="488.467" r="8.41271" stroke-width="0.5" stroke="black" fill="blue"/>
  <circle cx="464.119" cy="488.467" r="5.05167" stroke-width="0.5" stroke="blue" fill="blue"/>
   </g>
   <g id="cell33">
  <circle cx="462.417" cy="500.982" r="8.41271" stroke-width="0.5" stroke="black" fill="Red"/>
  <circle cx="462.417" cy="500.982" r="5.05167" stroke-width="0.5" stroke="Red" fill="Red"/>
   </g>
   <g id="cell34">
  <circle cx="463.621" cy="515.89" r="8.41271" stroke-width="0.5" stroke="black" fill="Red"/>
  <circle cx="463.621" cy="515.89" r="5.05167" stroke-width="0.5" stroke="Red" fill="Red"/>
   </g>
   <g id="cell35">
  <circle cx="462.626" cy="529.782" r="8.41271" stroke-width="0.5" stroke="black" fill="blue"/>
  <circle cx="462.626" cy="529.782" r="5.05167" stroke-width="0.5" stroke="blue" fill="blue"/>
   </g>
   <g id="cell36">
  <circle cx="463.734" cy="543.779" r="8.41271" stroke-width="0.5" stroke="black" fill="Red"/>
  <circle cx="463.734" cy="543.779" r="5.05167" stroke-width="0.5" stroke="Red" fill="Red"/>
   </g>
   <g id="cell37">
  <circle cx="465.167" cy="557.245" r="8.41271" stroke-width="0.5" stroke="black" fill="Red"/>
  <circle cx="465.167" cy="557.245" r="5.05167" stroke-width="0.5" stroke="Red" fill="Red"/>
   </g>
   <g id="cell38">
  <circle cx="465.792" cy="571.593" r="8.41271" stroke-width="0.5" stroke="black" fill="yellow"/>
  <circle cx="465.792" cy="571.593" r="5.05167" stroke-width="0.5" stroke="yellow" fill="yellow"/>
   </g>
   <g id="cell39">
  <circle cx="459.348" cy="584.403" r="8.41271" stroke-width="0.5" stroke="black" fill="blue"/>
  <circle cx="459.348" cy="584.403" r="5.05167" stroke-width="0.5" stroke="blue" fill="blue"/>
   </g>
   <g id="cell40">
  <circle cx="474.48" cy="411.066" r="8.41271" stroke-width="0.5" stroke="black" fill="blue"/>
  <circle cx="474.48" cy="411.066" r="5.05167" stroke-width="0.5" stroke="blue" fill="blue"/>
   </g>
   <g id="cell41">
  <circle cx="474.96" cy="426.181" r="8.41271" stroke-width="0.5" stroke="black" fill="Red"/>
  <circle cx="474.96" cy="426.181" r="5.05167" stroke-width="0.5" stroke="Red" fill="Red"/>
   </g>
   <g id="cell42">
  <circle cx="475.353" cy="440.245" r="8.41271" stroke-width="0.5" stroke="black" fill="Red"/>
  <circle cx="475.353" cy="440.245" r="5.05167" stroke-width="0.5" stroke="Red" fill="Red"/>
   </g>
   <g id="cell43">
  <circle cx="473.96" cy="453.027" r="8.41271" stroke-width="0.5" stroke="black" fill="Red"/>
  <circle cx="473.96" cy="453.027" r="5.05167" stroke-width="0.5" stroke="Red" fill="Red"/>
   </g>
   <g id="cell44">
  <circle cx="475.713" cy="467.938" r="8.41271" stroke-width="0.5" stroke="black" fill="blue"/>
  <circle cx="475.713" cy="467.938" r="5.05167" stroke-width="0.5" stroke="blue" fill="blue"/>
   </g>
   <g id="cell45">
  <circle cx="476.455" cy="481.49" r="8.41271" stroke-width="0.5" stroke="black" fill="Red"/>
  <circle cx="476.455" cy="481.49" r="5.05167" stroke-width="0.5" stroke="Red" fill="Red"/>
   </g>
   <g id="cell46">
  <circle cx="476.025" cy="495.901" r="8.41271" stroke-width="0.5" stroke="black" fill="Red"/>
  <circle cx="476.025" cy="495.901" r="5.05167" stroke-width="0.5" stroke="Red" fill="Red"/>
   </g>
   <g id="cell47">
  <circle cx="471.512" cy="507.469" r="6.92764" stroke-width="0.5" stroke="black" fill="Red"/>
  <circle cx="471.512" cy="507.469" r="4.1918" stroke-width="0.5" stroke="Red" fill="Red"/>
   </g>
   <g id="cell48">
  <circle cx="475.378" cy="521.244" r="8.41271" stroke-width="0.5" stroke="black" fill="Red"/>
  <circle cx="475.378" cy="521.244" r="5.05167" stroke-width="0.5" stroke="Red" fill="Red"/>
   </g>
   <g id="cell49">
  <circle cx="475.308" cy="535.561" r="8.41271" stroke-width="0.5" stroke="black" fill="Red"/>
  <circle cx="475.308" cy="535.561" r="5.05167" stroke-width="0.5" stroke="Red" fill="Red"/>
   </g>
   <g id="cell50">
  <circle cx="476.761" cy="549.777" r="8.41271" stroke-width="0.5" stroke="black" fill="Red"/>
  <circle cx="476.761" cy="549.777" r="5.05167" stroke-width="0.5" stroke="Red" fill="Red"/>
   </g>
   <g id="cell51">
  <circle cx="478.129" cy="564.341" r="8.41271" stroke-width="0.5" stroke="black" fill="Red"/>
  <circle cx="478.129" cy="564.341" r="5.05167" stroke-width="0.5" stroke="Red" fill="Red"/>
   </g>
   <g id="cell52">
  <circle cx="476.87" cy="579.396" r="8.41271" stroke-width="0.5" stroke="black" fill="Red"/>
  <circle cx="476.87" cy="579.396" r="5.05167" stroke-width="0.5" stroke="Red" fill="Red"/>
   </g>
   <g id="cell53">
  <circle cx="487.078" cy="417.391" r="8.41271" stroke-width="0.5" stroke="black" fill="yellow"/>
  <circle cx="487.078" cy="417.391" r="5.05167" stroke-width="0.5" stroke="yellow" fill="yellow"/>
   </g>
   <g id="cell54">
  <circle cx="486.996" cy="434.595" r="8.41271" stroke-width="0.5" stroke="black" fill="blue"/>
  <circle cx="486.996" cy="434.595" r="5.05167" stroke-width="0.5" stroke="blue" fill="blue"/>
   </g>
   <g id="cell55">
  <circle cx="487.245" cy="448.483" r="8.41271" stroke-width="0.5" stroke="black" fill="Red"/>
  <circle cx="487.245" cy="448.483" r="5.05167" stroke-width="0.5" stroke="Red" fill="Red"/>
   </g>
   <g id="cell56">
  <circle cx="490.178" cy="461.811" r="6.67717" stroke-width="0.5" stroke="black" fill="Red"/>
  <circle cx="490.178" cy="461.811" r="4.00951" stroke-width="0.5" stroke="Red" fill="Red"/>
   </g>
   <g id="cell57">
  <circle cx="488.305" cy="475.185" r="8.41271" stroke-width="0.5" stroke="black" fill="Red"/>
  <circle cx="488.305" cy="475.185" r="5.05167" stroke-width="0.5" stroke="Red" fill="Red"/>
   </g>
   <g id="cell58">
  <circle cx="488.652" cy="488.977" r="8.41271" stroke-width="0.5" stroke="black" fill="blue"/>
  <circle cx="488.652" cy="488.977" r="5.05167" stroke-width="0.5" stroke="blue" fill="blue"/>
   </g>
   <g id="cell59">
  <circle cx="488.789" cy="502.82" r="8.41271" stroke-width="0.5" stroke="black" fill="Red"/>
  <circle cx="488.789" cy="502.82" r="5.05167" stroke-width="0.5" stroke="Red" fill="Red"/>
   </g>
   <g id="cell60">
  <circle cx="489.755" cy="517.169" r="8.41271" stroke-width="0.5" stroke="black" fill="Red"/>
  <circle cx="489.755" cy="517.169" r="5.05167" stroke-width="0.5" stroke="Red" fill="Red"/>
   </g>
   <g id="cell61">
  <circle cx="487.507" cy="530.158" r="8.41271" stroke-width="0.5" stroke="black" fill="blue"/>
  <circle cx="487.507" cy="530.158" r="5.05167" stroke-width="0.5" stroke="blue" fill="blue"/>
   </g>
   <g id="cell62">
  <circle cx="489.693" cy="544.316" r="8.41271" stroke-width="0.5" stroke="black" fill="blue"/>
  <circle cx="489.693" cy="544.316" r="5.05167" stroke-width="0.5" stroke="blue" fill="blue"/>
   </g>
   <g id="cell63">
  <circle cx="490.437" cy="557.261" r="8.41271" stroke-width="0.5" stroke="black" fill="Red"/>
  <circle cx="490.437" cy="557.261" r="5.05167" stroke-width="0.5" stroke="Red" fill="Red"/>
   </g>
   <g id="cell64">
  <circle cx="489.505" cy="571.565" r="8.41271" stroke-width="0.5" stroke="black" fill="Red"/>
  <circle cx="489.505" cy="571.565" r="5.05167" stroke-width="0.5" stroke="Red" fill="Red"/>
   </g>
   <g id="cell65">
  <circle cx="490.388" cy="585.933" r="8.41271" stroke-width="0.5" stroke="black" fill="Red"/>
  <circle cx="490.388" cy="585.933" r="5.05167" stroke-width="0.5" stroke="Red" fill="Red"/>
   </g>
   <g id="cell66">
  <circle cx="502.857" cy="410.988" r="8.41271" stroke-width="0.5" stroke="black" fill="blue"/>
  <circle cx="502.857" cy="410.988" r="5.05167" stroke-width="0.5" stroke="blue" fill="blue"/>
   </g>
   <g id="cell67">
  <circle cx="499.921" cy="425.874" r="8.41271" stroke-width="0.5" stroke="black" fill="yellow"/>
  <circle cx="499.921" cy="425.874" r="5.05167" stroke-width="0.5" stroke="yellow" fill="yellow"/>
   </g>
   <g id="cell68">
  <circle cx="499.652" cy="440.036" r="8.41271" stroke-width="0.5" stroke="black" fill="Red"/>
  <circle cx="499.652" cy="440.036" r="5.05167" stroke-width="0.5" stroke="Red" fill="Red"/>
   </g>
   <g id="cell69">
  <circle cx="500.372" cy="454.885" r="8.41271" stroke-width="0.5" stroke="black" fill="blue"/>
  <circle cx="500.372" cy="454.885" r="5.05167" stroke-width="0.5" stroke="blue" fill="blue"/>
   </g>
   <g id="cell70">
  <circle cx="499.853" cy="469.198" r="8.41271" stroke-width="0.5" stroke="black" fill="blue"/>
  <circle cx="499.853" cy="469.198" r="5.05167" stroke-width="0.5" stroke="blue" fill="blue"/>
   </g>
   <g id="cell71">
  <circle cx="500.499" cy="482.75" r="8.41271" stroke-width="0.5" stroke="black" fill="Red"/>
  <circle cx="500.499" cy="482.75" r="5.05167" stroke-width="0.5" stroke="Red" fill="Red"/>
   </g>
   <g id="cell72">
  <circle cx="501.193" cy="495.958" r="8.41271" stroke-width="0.5" stroke="black" fill="Red"/>
  <circle cx="501.193" cy="495.958" r="5.05167" stroke-width="0.5" stroke="Red" fill="Red"/>
   </g>
   <g id="cell73">
  <circle cx="501.375" cy="509.786" r="8.41271" stroke-width="0.5" stroke="black" fill="blue"/>
  <circle cx="501.375" cy="509.786" r="5.05167" stroke-width="0.5" stroke="blue" fill="blue"/>
   </g>
   <g id="cell74">
  <circle cx="501.093" cy="523.606" r="8.41271" stroke-width="0.5" stroke="black" fill="blue"/>
  <circle cx="501.093" cy="523.606" r="5.05167" stroke-width="0.5" stroke="blue" fill="blue"/>
   </g>
   <g id="cell75">
  <circle cx="500.747" cy="536.265" r="8.41271" stroke-width="0.5" stroke="black" fill="Red"/>
  <circle cx="500.747" cy="536.265" r="5.05167" stroke-width="0.5" stroke="Red" fill="Red"/>
   </g>
   <g id="cell76">
  <circle cx="502.188" cy="549.843" r="8.41271" stroke-width="0.5" stroke="black" fill="Red"/>
  <circle cx="502.188" cy="549.843" r="5.05167" stroke-width="0.5" stroke="Red" fill="Red"/>
   </g>
   <g id="cell77">
  <circle cx="501.848" cy="564.274" r="8.41271" stroke-width="0.5" stroke="black" fill="Red"/>
  <circle cx="501.848" cy="564.274" r="5.05167" stroke-width="0.5" stroke="Red" fill="Red"/>
   </g>
   <g id="cell78">
  <circle cx="501.192" cy="579.696" r="8.41271" stroke-width="0.5" stroke="black" fill="yellow"/>
  <circle cx="501.192" cy="579.696" r="5.05167" stroke-width="0.5" stroke="yellow" fill="yellow"/>
   </g>
   <g id="cell79">
  <circle cx="505.259" cy="593.416" r="8.41271" stroke-width="0.5" stroke="black" fill="blue"/>
  <circle cx="505.259" cy="593.416" r="5.05167" stroke-width="0.5" stroke="blue" fill="blue"/>
   </g>
   <g id="cell80">
  <circle cx="514.719" cy="419" r="8.41271" stroke-width="0.5" stroke="black" fill="yellow"/>
  <circle cx="514.719" cy="419" r="5.05167" stroke-width="0.5" stroke="yellow" fill="yellow"/>
   </g>
   <g id="cell81">
  <circle cx="512.311" cy="433.417" r="8.41271" stroke-width="0.5" stroke="black" fill="blue"/>
  <circle cx="512.311" cy="433.417" r="5.05167" stroke-width="0.5" stroke="blue" fill="blue"/>
   </g>
   <g id="cell82">
  <circle cx="512.056" cy="446.358" r="8.41271" stroke-width="0.5" stroke="black" fill="Red"/>
  <circle cx="512.056" cy="446.358" r="5.05167" stroke-width="0.5" stroke="Red" fill="Red"/>
   </g>
   <g id="cell83">
  <circle cx="513.003" cy="460.449" r="8.41271" stroke-width="0.5" stroke="black" fill="Red"/>
  <circle cx="513.003" cy="460.449" r="5.05167" stroke-width="0.5" stroke="Red" fill="Red"/>
   </g>
   <g id="cell84">
  <circle cx="512.566" cy="474.552" r="8.41271" stroke-width="0.5" stroke="black" fill="Red"/>
  <circle cx="512.566" cy="474.552" r="5.05167" stroke-width="0.5" stroke="Red" fill="Red"/>
   </g>
   <g id="cell85">
  <circle cx="513.14" cy="488.96" r="8.41271" stroke-width="0.5" stroke="black" fill="blue"/>
  <circle cx="513.14" cy="488.96" r="5.05167" stroke-width="0.5" stroke="blue" fill="blue"/>
   </g>
   <g id="cell86">
  <circle cx="514.386" cy="502.365" r="8.41271" stroke-width="0.5" stroke="black" fill="Red"/>
  <circle cx="514.386" cy="502.365" r="5.05167" stroke-width="0.5" stroke="Red" fill="Red"/>
   </g>
   <g id="cell87">
  <circle cx="514.134" cy="516.117" r="8.41271" stroke-width="0.5" stroke="black" fill="Red"/>
  <circle cx="514.134" cy="516.117" r="5.05167" stroke-width="0.5" stroke="Red" fill="Red"/>
   </g>
   <g id="cell88">
  <circle cx="513.866" cy="529.569" r="8.41271" stroke-width="0.5" stroke="black" fill="Red"/>
  <circle cx="513.866" cy="529.569" r="5.05167" stroke-width="0.5" stroke="Red" fill="Red"/>
   </g>
   <g id="cell89">
  <circle cx="513.64" cy="543.325" r="8.41271" stroke-width="0.5" stroke="black" fill="Red"/>
  <circle cx="513.64" cy="543.325" r="5.05167" stroke-width="0.5" stroke="Red" fill="Red"/>
   </g>
   <g id="cell90">
  <circle cx="513.693" cy="557.005" r="8.41271" stroke-width="0.5" stroke="black" fill="blue"/>
  <circle cx="513.693" cy="557.005" r="5.05167" stroke-width="0.5" stroke="blue" fill="blue"/>
   </g>
   <g id="cell91">
  <circle cx="513.595" cy="571.492" r="8.41271" stroke-width="0.5" stroke="black" fill="Red"/>
  <circle cx="513.595" cy="571.492" r="5.05167" stroke-width="0.5" stroke="Red" fill="Red"/>
   </g>
   <g id="cell92">
  <circle cx="514.604" cy="584.898" r="8.41271" stroke-width="0.5" stroke="black" fill="Red"/>
  <circle cx="514.604" cy="584.898" r="5.05167" stroke-width="0.5" stroke="Red" fill="Red"/>
   </g>
   <g id="cell93">
  <circle cx="529.374" cy="413.529" r="8.41271" stroke-width="0.5" stroke="black" fill="blue"/>
  <circle cx="529.374" cy="413.529" r="5.05167" stroke-width="0.5" stroke="blue" fill="blue"/>
   </g>
   <g id="cell94">
  <circle cx="526.398" cy="426.963" r="8.41271" stroke-width="0.5" stroke="black" fill="yellow"/>
  <circle cx="526.398" cy="426.963" r="5.05167" stroke-width="0.5" stroke="yellow" fill="yellow"/>
   </g>
   <g id="cell95">
  <circle cx="524.777" cy="439.53" r="8.41271" stroke-width="0.5" stroke="black" fill="Red"/>
  <circle cx="524.777" cy="439.53" r="5.05167" stroke-width="0.5" stroke="Red" fill="Red"/>
   </g>
   <g id="cell96">
  <circle cx="522.806" cy="451.787" r="6.92764" stroke-width="0.5" stroke="black" fill="blue"/>
  <circle cx="522.806" cy="451.787" r="4.1918" stroke-width="0.5" stroke="blue" fill="blue"/>
   </g>
   <g id="cell97">
  <circle cx="525.039" cy="467.651" r="8.41271" stroke-width="0.5" stroke="black" fill="yellow"/>
  <circle cx="525.039" cy="467.651" r="5.05167" stroke-width="0.5" stroke="yellow" fill="yellow"/>
   </g>
   <g id="cell98">
  <circle cx="525.633" cy="481.358" r="8.41271" stroke-width="0.5" stroke="black" fill="blue"/>
  <circle cx="525.633" cy="481.358" r="5.05167" stroke-width="0.5" stroke="blue" fill="blue"/>
   </g>
   <g id="cell99">
  <circle cx="526.814" cy="495.196" r="8.41271" stroke-width="0.5" stroke="black" fill="Red"/>
  <circle cx="526.814" cy="495.196" r="5.05167" stroke-width="0.5" stroke="Red" fill="Red"/>
   </g>
   <g id="cell100">
  <circle cx="526.866" cy="510.263" r="8.41271" stroke-width="0.5" stroke="black" fill="blue"/>
  <circle cx="526.866" cy="510.263" r="5.05167" stroke-width="0.5" stroke="blue" fill="blue"/>
   </g>
   <g id="cell101">
  <circle cx="528.033" cy="524.74" r="8.41271" stroke-width="0.5" stroke="black" fill="Red"/>
  <circle cx="528.033" cy="524.74" r="5.05167" stroke-width="0.5" stroke="Red" fill="Red"/>
   </g>
   <g id="cell102">
  <circle cx="532.931" cy="536.904" r="6.83713" stroke-width="0.5" stroke="black" fill="blue"/>
  <circle cx="532.931" cy="536.904" r="4.12773" stroke-width="0.5" stroke="blue" fill="blue"/>
   </g>
   <g id="cell103">
  <circle cx="527.814" cy="549.709" r="8.41271" stroke-width="0.5" stroke="black" fill="Red"/>
  <circle cx="527.814" cy="549.709" r="5.05167" stroke-width="0.5" stroke="Red" fill="Red"/>
   </g>
   <g id="cell104">
  <circle cx="525.869" cy="563.909" r="8.41271" stroke-width="0.5" stroke="black" fill="Red"/>
  <circle cx="525.869" cy="563.909" r="5.05167" stroke-width="0.5" stroke="Red" fill="Red"/>
   </g>
   <g id="cell105">
  <circle cx="526.665" cy="577.794" r="8.41271" stroke-width="0.5" stroke="black" fill="blue"/>
  <circle cx="526.665" cy="577.794" r="5.05167" stroke-width="0.5" stroke="blue" fill="blue"/>
   </g>
   <g id="cell106">
  <circle cx="540.194" cy="420.864" r="8.41271" stroke-width="0.5" stroke="black" fill="yellow"/>
  <circle cx="540.194" cy="420.864" r="5.05167" stroke-width="0.5" stroke="yellow" fill="yellow"/>
   </g>
   <g id="cell107">
  <circle cx="539.168" cy="434.287" r="8.41271" stroke-width="0.5" stroke="black" fill="yellow"/>
  <circle cx="539.168" cy="434.287" r="5.05167" stroke-width="0.5" stroke="yellow" fill="yellow"/>
   </g>
   <g id="cell108">
  <circle cx="536.492" cy="448.459" r="8.41271" stroke-width="0.5" stroke="black" fill="yellow"/>
  <circle cx="536.492" cy="448.459" r="5.05167" stroke-width="0.5" stroke="yellow" fill="yellow"/>
   </g>
   <g id="cell109">
  <circle cx="543.525" cy="459.608" r="8.41271" stroke-width="0.5" stroke="black" fill="yellow"/>
  <circle cx="543.525" cy="459.608" r="5.05167" stroke-width="0.5" stroke="yellow" fill="yellow"/>
   </g>
   <g id="cell110">
  <circle cx="538.794" cy="474.875" r="8.41271" stroke-width="0.5" stroke="black" fill="Red"/>
  <circle cx="538.794" cy="474.875" r="5.05167" stroke-width="0.5" stroke="Red" fill="Red"/>
   </g>
   <g id="cell111">
  <circle cx="538.806" cy="487.933" r="8.41271" stroke-width="0.5" stroke="black" fill="blue"/>
  <circle cx="538.806" cy="487.933" r="5.05167" stroke-width="0.5" stroke="blue" fill="blue"/>
   </g>
   <g id="cell112">
  <circle cx="539.051" cy="502.017" r="8.41271" stroke-width="0.5" stroke="black" fill="Red"/>
  <circle cx="539.051" cy="502.017" r="5.05167" stroke-width="0.5" stroke="Red" fill="Red"/>
   </g>
   <g id="cell113">
  <circle cx="540.16" cy="516.805" r="8.41271" stroke-width="0.5" stroke="black" fill="Red"/>
  <circle cx="540.16" cy="516.805" r="5.05167" stroke-width="0.5" stroke="Red" fill="Red"/>
   </g>
   <g id="cell114">
  <circle cx="541.942" cy="529.573" r="8.41271" stroke-width="0.5" stroke="black" fill="Red"/>
  <circle cx="541.942" cy="529.573" r="5.05167" stroke-width="0.5" stroke="Red" fill="Red"/>
   </g>
   <g id="cell115">
  <circle cx="542.198" cy="544.104" r="8.41271" stroke-width="0.5" stroke="black" fill="Red"/>
  <circle cx="542.198" cy="544.104" r="5.05167" stroke-width="0.5" stroke="Red" fill="Red"/>
   </g>
   <g id="cell116">
  <circle cx="539.902" cy="557.364" r="8.41271" stroke-width="0.5" stroke="black" fill="Red"/>
  <circle cx="539.902" cy="557.364" r="5.05167" stroke-width="0.5" stroke="Red" fill="Red"/>
   </g>
   <g id="cell117">
  <circle cx="537.156" cy="572.055" r="8.41271" stroke-width="0.5" stroke="black" fill="blue"/>
  <circle cx="537.156" cy="572.055" r="5.05167" stroke-width="0.5" stroke="blue" fill="blue"/>
   </g>
   <g id="cell118">
  <circle cx="553.783" cy="427.661" r="8.41271" stroke-width="0.5" stroke="black" fill="blue"/>
  <circle cx="553.783" cy="427.661" r="5.05167" stroke-width="0.5" stroke="blue" fill="blue"/>
   </g>
   <g id="cell119">
  <circle cx="551.563" cy="441.678" r="8.41271" stroke-width="0.5" stroke="black" fill="yellow"/>
  <circle cx="551.563" cy="441.678" r="5.05167" stroke-width="0.5" stroke="yellow" fill="yellow"/>
   </g>
   <g id="cell120">
  <circle cx="554.249" cy="453.9" r="8.41271" stroke-width="0.5" stroke="black" fill="Red"/>
  <circle cx="554.249" cy="453.9" r="5.05167" stroke-width="0.5" stroke="Red" fill="Red"/>
   </g>
   <g id="cell121">
  <circle cx="554.871" cy="468.81" r="8.41271" stroke-width="0.5" stroke="black" fill="blue"/>
  <circle cx="554.871" cy="468.81" r="5.05167" stroke-width="0.5" stroke="blue" fill="blue"/>
   </g>
   <g id="cell122">
  <circle cx="552.618" cy="481.784" r="8.41271" stroke-width="0.5" stroke="black" fill="Red"/>
  <circle cx="552.618" cy="481.784" r="5.05167" stroke-width="0.5" stroke="Red" fill="Red"/>
   </g>
   <g id="cell123">
  <circle cx="551.821" cy="495.689" r="8.41271" stroke-width="0.5" stroke="black" fill="Red"/>
  <circle cx="551.821" cy="495.689" r="5.05167" stroke-width="0.5" stroke="Red" fill="Red"/>
   </g>
   <g id="cell124">
  <circle cx="552.555" cy="509.56" r="8.41271" stroke-width="0.5" stroke="black" fill="Red"/>
  <circle cx="552.555" cy="509.56" r="5.05167" stroke-width="0.5" stroke="Red" fill="Red"/>
   </g>
   <g id="cell125">
  <circle cx="554.784" cy="522.95" r="8.41271" stroke-width="0.5" stroke="black" fill="Red"/>
  <circle cx="554.784" cy="522.95" r="5.05167" stroke-width="0.5" stroke="Red" fill="Red"/>
   </g>
   <g id="cell126">
  <circle cx="554.771" cy="536.437" r="8.41271" stroke-width="0.5" stroke="black" fill="blue"/>
  <circle cx="554.771" cy="536.437" r="5.05167" stroke-width="0.5" stroke="blue" fill="blue"/>
   </g>
   <g id="cell127">
  <circle cx="553.518" cy="551.618" r="8.41271" stroke-width="0.5" stroke="black" fill="Red"/>
  <circle cx="553.518" cy="551.618" r="5.05167" stroke-width="0.5" stroke="Red" fill="Red"/>
   </g>
   <g id="cell128">
  <circle cx="551.797" cy="566.874" r="8.41271" stroke-width="0.5" stroke="black" fill="yellow"/>
  <circle cx="551.797" cy="566.874" r="5.05167" stroke-width="0.5" stroke="yellow" fill="yellow"/>
   </g>
   <g id="cell129">
  <circle cx="566.545" cy="447.071" r="8.41271" stroke-width="0.5" stroke="black" fill="blue"/>
  <circle cx="566.545" cy="447.071" r="5.05167" stroke-width="0.5" stroke="blue" fill="blue"/>
   </g>
   <g id="cell130">
  <circle cx="566.092" cy="460.877" r="8.41271" stroke-width="0.5" stroke="black" fill="yellow"/>
  <circle cx="566.092" cy="460.877" r="5.05167" stroke-width="0.5" stroke="yellow" fill="yellow"/>
   </g>
   <g id="cell131">
  <circle cx="566.66" cy="475.44" r="8.41271" stroke-width="0.5" stroke="black" fill="yellow"/>
  <circle cx="566.66" cy="475.44" r="5.05167" stroke-width="0.5" stroke="yellow" fill="yellow"/>
   </g>
   <g id="cell132">
  <circle cx="564.641" cy="488.937" r="8.41271" stroke-width="0.5" stroke="black" fill="Red"/>
  <circle cx="564.641" cy="488.937" r="5.05167" stroke-width="0.5" stroke="Red" fill="Red"/>
   </g>
   <g id="cell133">
  <circle cx="563.373" cy="502.833" r="8.41271" stroke-width="0.5" stroke="black" fill="Red"/>
  <circle cx="563.373" cy="502.833" r="5.05167" stroke-width="0.5" stroke="Red" fill="Red"/>
   </g>
   <g id="cell134">
  <circle cx="566.424" cy="516.478" r="8.41271" stroke-width="0.5" stroke="black" fill="Red"/>
  <circle cx="566.424" cy="516.478" r="5.05167" stroke-width="0.5" stroke="Red" fill="Red"/>
   </g>
   <g id="cell135">
  <circle cx="565.965" cy="530.334" r="8.41271" stroke-width="0.5" stroke="black" fill="Red"/>
  <circle cx="565.965" cy="530.334" r="5.05167" stroke-width="0.5" stroke="Red" fill="Red"/>
   </g>
   <g id="cell136">
  <circle cx="566.094" cy="545.544" r="8.41271" stroke-width="0.5" stroke="black" fill="yellow"/>
  <circle cx="566.094" cy="545.544" r="5.05167" stroke-width="0.5" stroke="yellow" fill="yellow"/>
   </g>
   <g id="cell137">
  <circle cx="564.744" cy="559.061" r="8.41271" stroke-width="0.5" stroke="black" fill="blue"/>
  <circle cx="564.744" cy="559.061" r="5.05167" stroke-width="0.5" stroke="blue" fill="blue"/>
   </g>
   <g id="cell138">
  <circle cx="578.506" cy="466.618" r="8.41271" stroke-width="0.5" stroke="black" fill="blue"/>
  <circle cx="578.506" cy="466.618" r="5.05167" stroke-width="0.5" stroke="blue" fill="blue"/>
   </g>
   <g id="cell139">
  <circle cx="579.235" cy="482.988" r="8.41271" stroke-width="0.5" stroke="black" fill="yellow"/>
  <circle cx="579.235" cy="482.988" r="5.05167" stroke-width="0.5" stroke="yellow" fill="yellow"/>
   </g>
   <g id="cell140">
  <circle cx="575.339" cy="495.384" r="6.95901" stroke-width="0.5" stroke="black" fill="yellow"/>
  <circle cx="575.339" cy="495.384" r="4.21341" stroke-width="0.5" stroke="yellow" fill="yellow"/>
   </g>
   <g id="cell141">
  <circle cx="578.331" cy="507.883" r="8.41271" stroke-width="0.5" stroke="black" fill="yellow"/>
  <circle cx="578.331" cy="507.883" r="5.05167" stroke-width="0.5" stroke="yellow" fill="yellow"/>
   </g>
   <g id="cell142">
  <circle cx="578.424" cy="523.324" r="8.41271" stroke-width="0.5" stroke="black" fill="yellow"/>
  <circle cx="578.424" cy="523.324" r="5.05167" stroke-width="0.5" stroke="yellow" fill="yellow"/>
   </g>
   <g id="cell143">
  <circle cx="577.88" cy="537.29" r="8.41271" stroke-width="0.5" stroke="black" fill="blue"/>
  <circle cx="577.88" cy="537.29" r="5.05167" stroke-width="0.5" stroke="blue" fill="blue"/>
   </g>
   <g id="cell144">
  <circle cx="440.354" cy="436.002" r="6.95901" stroke-width="0.5" stroke="black" fill="blue"/>
  <circle cx="440.354" cy="436.002" r="4.21341" stroke-width="0.5" stroke="blue" fill="blue"/>
   </g>
   <g id="cell145">
  <circle cx="586.653" cy="495.808" r="6.95901" stroke-width="0.5" stroke="black" fill="blue"/>
  <circle cx="586.653" cy="495.808" r="4.21341" stroke-width="0.5" stroke="blue" fill="blue"/>
   </g>
   <g id="cell146">
  <circle cx="480.985" cy="510.591" r="6.92764" stroke-width="0.5" stroke="black" fill="blue"/>
  <circle cx="480.985" cy="510.591" r="4.1918" stroke-width="0.5" stroke="blue" fill="blue"/>
   </g>
   <g id="cell147">
  <circle cx="531.024" cy="457.615" r="5.73015" stroke-width="0.5" stroke="black" fill="Red"/>
  <circle cx="531.024" cy="457.615" r="3.4926" stroke-width="0.5" stroke="Red" fill="Red"/>
   </g>
   <g id="cell148">
  <circle cx="523.23" cy="537.382" r="6.83713" stroke-width="0.5" stroke="black" fill="blue"/>
  <circle cx="523.23" cy="537.382" r="4.12773" stroke-width="0.5" stroke="blue" fill="blue"/>
   </g>
   <g id="cell149">
  <circle cx="535.516" cy="464.815" r="5.73015" stroke-width="0.5" stroke="black" fill="blue"/>
  <circle cx="535.516" cy="464.815" r="3.4926" stroke-width="0.5" stroke="blue" fill="blue"/>
   </g>
   <g id="cell150">
  <circle cx="442.824" cy="512.941" r="6.71158" stroke-width="0.5" stroke="black" fill="Red"/>
  <circle cx="442.824" cy="512.941" r="4.03435" stroke-width="0.5" stroke="Red" fill="Red"/>
   </g>
   <g id="cell151">
  <circle cx="447.09" cy="417.846" r="6.71158" stroke-width="0.5" stroke="black" fill="blue"/>
  <circle cx="447.09" cy="417.846" r="4.03435" stroke-width="0.5" stroke="blue" fill="blue"/>
   </g>
   <g id="cell152">
  <circle cx="480.85" cy="459.871" r="6.67717" stroke-width="0.5" stroke="black" fill="blue"/>
  <circle cx="480.85" cy="459.871" r="4.00951" stroke-width="0.5" stroke="blue" fill="blue"/>
   </g>
  </g>
 </g>
  <rect x="775" y="1035" width="200" height="10" stroke-width="2" stroke="rgb(255,255,255)" fill="rgb(0,0,0)"/>
  <text x="781.25" y="1028.75"
   font-family="Arial" font-size="25" fill="black" >
   200 &#956;m
  </text>
  <text x="25" y="1045"
   font-family="Arial" font-size="18.75" fill="black" >
   0 days, 0 hours, 0 minutes, and 22.4830 seconds
  </text>
  <rect x="0" y="70" width="1000" height="1000" stroke-width="2" stroke="rgb(0,0,0)" fill="none"/>
</svg>
