<?xml version="1.0" encoding="UTF-8" standalone="no"?>
<!-- Created with PhysiCell (http://PhysiCell.MathCancer.org/) -->
<svg 
 xmlns:dc="http://purl.org/dc/elements/1.1/" 
 xmlns:cc="http://creativecommons.org/ns#" 
 xmlns:rdf="http://www.w3.org/1999/02/22-rdf-syntax-ns#" 
 xmlns:svg="http://www.w3.org/2000/svg" 
 xmlns="http://www.w3.org/2000/svg" 
 version="1.1" 
 width="1000" 
 height="1070" 
 id="svg2">
  <rect x="0" y="0" width="1000" height="1070" stroke-width="2" stroke="white" fill="white"/>
  <text x="12.5" y="30"
   font-family="Arial" font-size="25" fill="black" >
   Current time: 0 days, 6 hours, and 25.00 minutes, z = 0.00 &#956;m
  </text>
  <text x="12.5" y="57.5"
   font-family="Arial" font-size="23.75" fill="black" >
   202 agents
  </text>
 <g id="tissue" 
    transform="translate(0,1070) scale(1,-1)">
  <g id="ECM">
  </g>
  <g id="cells">
   <g id="cell0">
  <circle cx="423.681" cy="444.906" r="8.41271" stroke-width="0.5" stroke="black" fill="Red"/>
  <circle cx="423.681" cy="444.906" r="5.05167" stroke-width="0.5" stroke="Red" fill="Red"/>
   </g>
   <g id="cell1">
  <circle cx="421.692" cy="468.336" r="7.63698" stroke-width="0.5" stroke="black" fill="yellow"/>
  <circle cx="421.692" cy="468.336" r="4.64085" stroke-width="0.5" stroke="yellow" fill="yellow"/>
   </g>
   <g id="cell2">
  <circle cx="425.341" cy="481.533" r="8.41271" stroke-width="0.5" stroke="black" fill="blue"/>
  <circle cx="425.341" cy="481.533" r="5.05167" stroke-width="0.5" stroke="blue" fill="blue"/>
   </g>
   <g id="cell3">
  <circle cx="418.366" cy="493.187" r="7.77763" stroke-width="0.5" stroke="black" fill="Red"/>
  <circle cx="418.366" cy="493.187" r="4.7232" stroke-width="0.5" stroke="Red" fill="Red"/>
   </g>
   <g id="cell4">
  <circle cx="426.071" cy="506.213" r="8.41271" stroke-width="0.5" stroke="black" fill="Red"/>
  <circle cx="426.071" cy="506.213" r="5.05167" stroke-width="0.5" stroke="Red" fill="Red"/>
   </g>
   <g id="cell5">
  <circle cx="417.198" cy="528.258" r="6.19379" stroke-width="0.5" stroke="black" fill="Red"/>
  <circle cx="417.198" cy="528.258" r="3.76918" stroke-width="0.5" stroke="Red" fill="Red"/>
   </g>
   <g id="cell6">
  <circle cx="425.518" cy="541.331" r="8.41271" stroke-width="0.5" stroke="black" fill="Red"/>
  <circle cx="425.518" cy="541.331" r="5.05167" stroke-width="0.5" stroke="Red" fill="Red"/>
   </g>
   <g id="cell7">
  <circle cx="437.403" cy="445.489" r="8.05651" stroke-width="0.5" stroke="black" fill="yellow"/>
  <circle cx="437.403" cy="445.489" r="4.87966" stroke-width="0.5" stroke="yellow" fill="yellow"/>
   </g>
   <g id="cell8">
  <circle cx="431.376" cy="458.271" r="8.41271" stroke-width="0.5" stroke="black" fill="yellow"/>
  <circle cx="431.376" cy="458.271" r="5.05167" stroke-width="0.5" stroke="yellow" fill="yellow"/>
   </g>
   <g id="cell9">
  <circle cx="435.876" cy="470.871" r="8.41271" stroke-width="0.5" stroke="black" fill="Red"/>
  <circle cx="435.876" cy="470.871" r="5.05167" stroke-width="0.5" stroke="Red" fill="Red"/>
   </g>
   <g id="cell10">
  <circle cx="438.406" cy="483.018" r="8.41271" stroke-width="0.5" stroke="black" fill="Red"/>
  <circle cx="438.406" cy="483.018" r="5.05167" stroke-width="0.5" stroke="Red" fill="Red"/>
   </g>
   <g id="cell11">
  <circle cx="437.94" cy="502.856" r="8.41271" stroke-width="0.5" stroke="black" fill="Red"/>
  <circle cx="437.94" cy="502.856" r="5.05167" stroke-width="0.5" stroke="Red" fill="Red"/>
   </g>
   <g id="cell12">
  <circle cx="431.857" cy="518.221" r="7.95045" stroke-width="0.5" stroke="black" fill="Red"/>
  <circle cx="431.857" cy="518.221" r="4.82139" stroke-width="0.5" stroke="Red" fill="Red"/>
   </g>
   <g id="cell13">
  <circle cx="437.696" cy="535.048" r="8.41271" stroke-width="0.5" stroke="black" fill="blue"/>
  <circle cx="437.696" cy="535.048" r="5.05167" stroke-width="0.5" stroke="blue" fill="blue"/>
   </g>
   <g id="cell14">
  <circle cx="438.3" cy="549.9" r="8.41271" stroke-width="0.5" stroke="black" fill="Red"/>
  <circle cx="438.3" cy="549.9" r="5.05167" stroke-width="0.5" stroke="Red" fill="Red"/>
   </g>
   <g id="cell15">
  <circle cx="438.979" cy="562.66" r="8.41271" stroke-width="0.5" stroke="black" fill="blue"/>
  <circle cx="438.979" cy="562.66" r="5.05167" stroke-width="0.5" stroke="blue" fill="blue"/>
   </g>
   <g id="cell16">
  <circle cx="453.193" cy="425.262" r="7.65292" stroke-width="0.5" stroke="black" fill="Red"/>
  <circle cx="453.193" cy="425.262" r="4.6705" stroke-width="0.5" stroke="Red" fill="Red"/>
   </g>
   <g id="cell17">
  <circle cx="449.343" cy="446.064" r="7.3599" stroke-width="0.5" stroke="black" fill="blue"/>
  <circle cx="449.343" cy="446.064" r="4.47294" stroke-width="0.5" stroke="blue" fill="blue"/>
   </g>
   <g id="cell18">
  <circle cx="443.854" cy="458.14" r="8.41271" stroke-width="0.5" stroke="black" fill="Red"/>
  <circle cx="443.854" cy="458.14" r="5.05167" stroke-width="0.5" stroke="Red" fill="Red"/>
   </g>
   <g id="cell19">
  <circle cx="447.67" cy="470.113" r="8.41271" stroke-width="0.5" stroke="black" fill="blue"/>
  <circle cx="447.67" cy="470.113" r="5.05167" stroke-width="0.5" stroke="blue" fill="blue"/>
   </g>
   <g id="cell20">
  <circle cx="451.106" cy="481.295" r="8.41271" stroke-width="0.5" stroke="black" fill="Red"/>
  <circle cx="451.106" cy="481.295" r="5.05167" stroke-width="0.5" stroke="Red" fill="Red"/>
   </g>
   <g id="cell21">
  <circle cx="445.06" cy="492.953" r="8.41271" stroke-width="0.5" stroke="black" fill="Red"/>
  <circle cx="445.06" cy="492.953" r="5.05167" stroke-width="0.5" stroke="Red" fill="Red"/>
   </g>
   <g id="cell22">
  <circle cx="451.804" cy="504.294" r="8.41271" stroke-width="0.5" stroke="black" fill="Red"/>
  <circle cx="451.804" cy="504.294" r="5.05167" stroke-width="0.5" stroke="Red" fill="Red"/>
   </g>
   <g id="cell23">
  <circle cx="441.815" cy="524.735" r="8.41271" stroke-width="0.5" stroke="black" fill="Red"/>
  <circle cx="441.815" cy="524.735" r="5.05167" stroke-width="0.5" stroke="Red" fill="Red"/>
   </g>
   <g id="cell24">
  <circle cx="449.454" cy="542.023" r="8.41271" stroke-width="0.5" stroke="black" fill="Red"/>
  <circle cx="449.454" cy="542.023" r="5.05167" stroke-width="0.5" stroke="Red" fill="Red"/>
   </g>
   <g id="cell25">
  <circle cx="450.744" cy="556.062" r="8.41271" stroke-width="0.5" stroke="black" fill="Red"/>
  <circle cx="450.744" cy="556.062" r="5.05167" stroke-width="0.5" stroke="Red" fill="Red"/>
   </g>
   <g id="cell26">
  <circle cx="443.061" cy="574.682" r="6.83713" stroke-width="0.5" stroke="black" fill="Red"/>
  <circle cx="443.061" cy="574.682" r="4.12773" stroke-width="0.5" stroke="Red" fill="Red"/>
   </g>
   <g id="cell27">
  <circle cx="462.421" cy="402.81" r="8.41271" stroke-width="0.5" stroke="black" fill="Red"/>
  <circle cx="462.421" cy="402.81" r="5.05167" stroke-width="0.5" stroke="Red" fill="Red"/>
   </g>
   <g id="cell28">
  <circle cx="463.521" cy="423.954" r="6.75639" stroke-width="0.5" stroke="black" fill="Red"/>
  <circle cx="463.521" cy="423.954" r="4.06813" stroke-width="0.5" stroke="Red" fill="Red"/>
   </g>
   <g id="cell29">
  <circle cx="460.216" cy="447.613" r="7.7401" stroke-width="0.5" stroke="black" fill="Red"/>
  <circle cx="460.216" cy="447.613" r="4.70142" stroke-width="0.5" stroke="Red" fill="Red"/>
   </g>
   <g id="cell30">
  <circle cx="456.39" cy="459.034" r="8.41271" stroke-width="0.5" stroke="black" fill="Red"/>
  <circle cx="456.39" cy="459.034" r="5.05167" stroke-width="0.5" stroke="Red" fill="Red"/>
   </g>
   <g id="cell31">
  <circle cx="460.377" cy="469.98" r="8.41271" stroke-width="0.5" stroke="black" fill="Red"/>
  <circle cx="460.377" cy="469.98" r="5.05167" stroke-width="0.5" stroke="Red" fill="Red"/>
   </g>
   <g id="cell32">
  <circle cx="463.743" cy="481.683" r="8.41271" stroke-width="0.5" stroke="black" fill="Red"/>
  <circle cx="463.743" cy="481.683" r="5.05167" stroke-width="0.5" stroke="Red" fill="Red"/>
   </g>
   <g id="cell33">
  <circle cx="458.243" cy="493.168" r="8.41271" stroke-width="0.5" stroke="black" fill="blue"/>
  <circle cx="458.243" cy="493.168" r="5.05167" stroke-width="0.5" stroke="blue" fill="blue"/>
   </g>
   <g id="cell34">
  <circle cx="451.648" cy="519.46" r="5.98931" stroke-width="0.5" stroke="black" fill="Red"/>
  <circle cx="451.648" cy="519.46" r="3.66601" stroke-width="0.5" stroke="Red" fill="Red"/>
   </g>
   <g id="cell35">
  <circle cx="459.39" cy="535.686" r="5.91404" stroke-width="0.5" stroke="black" fill="blue"/>
  <circle cx="459.39" cy="535.686" r="3.60138" stroke-width="0.5" stroke="blue" fill="blue"/>
   </g>
   <g id="cell36">
  <circle cx="461.371" cy="547.87" r="8.41271" stroke-width="0.5" stroke="black" fill="Red"/>
  <circle cx="461.371" cy="547.87" r="5.05167" stroke-width="0.5" stroke="Red" fill="Red"/>
   </g>
   <g id="cell37">
  <circle cx="464.795" cy="560.117" r="8.41271" stroke-width="0.5" stroke="black" fill="Red"/>
  <circle cx="464.795" cy="560.117" r="5.05167" stroke-width="0.5" stroke="Red" fill="Red"/>
   </g>
   <g id="cell38">
  <circle cx="464.665" cy="575.736" r="8.41271" stroke-width="0.5" stroke="black" fill="yellow"/>
  <circle cx="464.665" cy="575.736" r="5.05167" stroke-width="0.5" stroke="yellow" fill="yellow"/>
   </g>
   <g id="cell39">
  <circle cx="463.831" cy="589.336" r="7.59183" stroke-width="0.5" stroke="black" fill="blue"/>
  <circle cx="463.831" cy="589.336" r="4.61399" stroke-width="0.5" stroke="blue" fill="blue"/>
   </g>
   <g id="cell40">
  <circle cx="477.286" cy="398.789" r="8.41271" stroke-width="0.5" stroke="black" fill="blue"/>
  <circle cx="477.286" cy="398.789" r="5.05167" stroke-width="0.5" stroke="blue" fill="blue"/>
   </g>
   <g id="cell41">
  <circle cx="475.618" cy="412.196" r="8.41271" stroke-width="0.5" stroke="black" fill="Red"/>
  <circle cx="475.618" cy="412.196" r="5.05167" stroke-width="0.5" stroke="Red" fill="Red"/>
   </g>
   <g id="cell42">
  <circle cx="479.834" cy="437.734" r="7.21189" stroke-width="0.5" stroke="black" fill="Red"/>
  <circle cx="479.834" cy="437.734" r="4.37993" stroke-width="0.5" stroke="Red" fill="Red"/>
   </g>
   <g id="cell43">
  <circle cx="470.413" cy="453.298" r="8.41271" stroke-width="0.5" stroke="black" fill="Red"/>
  <circle cx="470.413" cy="453.298" r="5.05167" stroke-width="0.5" stroke="Red" fill="Red"/>
   </g>
   <g id="cell44">
  <circle cx="472.148" cy="467.706" r="6.69288" stroke-width="0.5" stroke="black" fill="blue"/>
  <circle cx="472.148" cy="467.706" r="4.02051" stroke-width="0.5" stroke="blue" fill="blue"/>
   </g>
   <g id="cell45">
  <circle cx="473.967" cy="476.799" r="8.41271" stroke-width="0.5" stroke="black" fill="Red"/>
  <circle cx="473.967" cy="476.799" r="5.05167" stroke-width="0.5" stroke="Red" fill="Red"/>
   </g>
   <g id="cell46">
  <circle cx="471.669" cy="493.179" r="8.41271" stroke-width="0.5" stroke="black" fill="Red"/>
  <circle cx="471.669" cy="493.179" r="5.05167" stroke-width="0.5" stroke="Red" fill="Red"/>
   </g>
   <g id="cell47">
  <circle cx="464.902" cy="503.659" r="8.04604" stroke-width="0.5" stroke="black" fill="Red"/>
  <circle cx="464.902" cy="503.659" r="4.87399" stroke-width="0.5" stroke="Red" fill="Red"/>
   </g>
   <g id="cell48">
  <circle cx="477.822" cy="519.922" r="7.86286" stroke-width="0.5" stroke="black" fill="blue"/>
  <circle cx="477.822" cy="519.922" r="4.77207" stroke-width="0.5" stroke="blue" fill="blue"/>
   </g>
   <g id="cell49">
  <circle cx="473.982" cy="541.59" r="8.41271" stroke-width="0.5" stroke="black" fill="Red"/>
  <circle cx="473.982" cy="541.59" r="5.05167" stroke-width="0.5" stroke="Red" fill="Red"/>
   </g>
   <g id="cell50">
  <circle cx="483.125" cy="557.491" r="7.27253" stroke-width="0.5" stroke="black" fill="Red"/>
  <circle cx="483.125" cy="557.491" r="4.41835" stroke-width="0.5" stroke="Red" fill="Red"/>
   </g>
   <g id="cell51">
  <circle cx="476.874" cy="566.681" r="8.41271" stroke-width="0.5" stroke="black" fill="Red"/>
  <circle cx="476.874" cy="566.681" r="5.05167" stroke-width="0.5" stroke="Red" fill="Red"/>
   </g>
   <g id="cell52">
  <circle cx="475.613" cy="583.749" r="8.41271" stroke-width="0.5" stroke="black" fill="yellow"/>
  <circle cx="475.613" cy="583.749" r="5.05167" stroke-width="0.5" stroke="yellow" fill="yellow"/>
   </g>
   <g id="cell53">
  <circle cx="490.333" cy="404.796" r="8.41271" stroke-width="0.5" stroke="black" fill="Red"/>
  <circle cx="490.333" cy="404.796" r="5.05167" stroke-width="0.5" stroke="Red" fill="Red"/>
   </g>
   <g id="cell54">
  <circle cx="475.02" cy="426.546" r="8.41271" stroke-width="0.5" stroke="black" fill="Red"/>
  <circle cx="475.02" cy="426.546" r="5.05167" stroke-width="0.5" stroke="Red" fill="Red"/>
   </g>
   <g id="cell55">
  <circle cx="481.885" cy="448.462" r="7.7401" stroke-width="0.5" stroke="black" fill="Red"/>
  <circle cx="481.885" cy="448.462" r="4.70142" stroke-width="0.5" stroke="Red" fill="Red"/>
   </g>
   <g id="cell56">
  <circle cx="491.382" cy="457.701" r="7.9229" stroke-width="0.5" stroke="black" fill="blue"/>
  <circle cx="491.382" cy="457.701" r="4.80599" stroke-width="0.5" stroke="blue" fill="blue"/>
   </g>
   <g id="cell57">
  <circle cx="486.551" cy="470.832" r="8.41271" stroke-width="0.5" stroke="black" fill="Red"/>
  <circle cx="486.551" cy="470.832" r="5.05167" stroke-width="0.5" stroke="Red" fill="Red"/>
   </g>
   <g id="cell58">
  <circle cx="481.116" cy="484.774" r="8.41271" stroke-width="0.5" stroke="black" fill="blue"/>
  <circle cx="481.116" cy="484.774" r="5.05167" stroke-width="0.5" stroke="blue" fill="blue"/>
   </g>
   <g id="cell59">
  <circle cx="483.761" cy="496.702" r="7.30216" stroke-width="0.5" stroke="black" fill="Red"/>
  <circle cx="483.761" cy="496.702" r="4.43696" stroke-width="0.5" stroke="Red" fill="Red"/>
   </g>
   <g id="cell60">
  <circle cx="488.038" cy="514.319" r="8.41271" stroke-width="0.5" stroke="black" fill="Red"/>
  <circle cx="488.038" cy="514.319" r="5.05167" stroke-width="0.5" stroke="Red" fill="Red"/>
   </g>
   <g id="cell61">
  <circle cx="482.448" cy="532.202" r="8.41271" stroke-width="0.5" stroke="black" fill="Red"/>
  <circle cx="482.448" cy="532.202" r="5.05167" stroke-width="0.5" stroke="Red" fill="Red"/>
   </g>
   <g id="cell62">
  <circle cx="485.977" cy="546.369" r="8.41271" stroke-width="0.5" stroke="black" fill="Red"/>
  <circle cx="485.977" cy="546.369" r="5.05167" stroke-width="0.5" stroke="Red" fill="Red"/>
   </g>
   <g id="cell63">
  <circle cx="492.613" cy="563.67" r="8.41271" stroke-width="0.5" stroke="black" fill="Red"/>
  <circle cx="492.613" cy="563.67" r="5.05167" stroke-width="0.5" stroke="Red" fill="Red"/>
   </g>
   <g id="cell64">
  <circle cx="487.172" cy="573.838" r="8.41271" stroke-width="0.5" stroke="black" fill="blue"/>
  <circle cx="487.172" cy="573.838" r="5.05167" stroke-width="0.5" stroke="blue" fill="blue"/>
   </g>
   <g id="cell65">
  <circle cx="483.303" cy="596.861" r="7.11815" stroke-width="0.5" stroke="black" fill="Red"/>
  <circle cx="483.303" cy="596.861" r="4.31954" stroke-width="0.5" stroke="Red" fill="Red"/>
   </g>
   <g id="cell66">
  <circle cx="501.794" cy="412.215" r="8.41271" stroke-width="0.5" stroke="black" fill="blue"/>
  <circle cx="501.794" cy="412.215" r="5.05167" stroke-width="0.5" stroke="blue" fill="blue"/>
   </g>
   <g id="cell67">
  <circle cx="488.288" cy="417.819" r="8.41271" stroke-width="0.5" stroke="black" fill="Red"/>
  <circle cx="488.288" cy="417.819" r="5.05167" stroke-width="0.5" stroke="Red" fill="Red"/>
   </g>
   <g id="cell68">
  <circle cx="499.798" cy="427.082" r="8.41271" stroke-width="0.5" stroke="black" fill="Red"/>
  <circle cx="499.798" cy="427.082" r="5.05167" stroke-width="0.5" stroke="Red" fill="Red"/>
   </g>
   <g id="cell69">
  <circle cx="496.156" cy="447.551" r="6.69288" stroke-width="0.5" stroke="black" fill="Red"/>
  <circle cx="496.156" cy="447.551" r="4.02051" stroke-width="0.5" stroke="Red" fill="Red"/>
   </g>
   <g id="cell70">
  <circle cx="497.945" cy="467.389" r="8.41271" stroke-width="0.5" stroke="black" fill="Red"/>
  <circle cx="497.945" cy="467.389" r="5.05167" stroke-width="0.5" stroke="Red" fill="Red"/>
   </g>
   <g id="cell71">
  <circle cx="492.139" cy="481.766" r="8.41271" stroke-width="0.5" stroke="black" fill="Red"/>
  <circle cx="492.139" cy="481.766" r="5.05167" stroke-width="0.5" stroke="Red" fill="Red"/>
   </g>
   <g id="cell72">
  <circle cx="494.917" cy="493.222" r="8.41271" stroke-width="0.5" stroke="black" fill="Red"/>
  <circle cx="494.917" cy="493.222" r="5.05167" stroke-width="0.5" stroke="Red" fill="Red"/>
   </g>
   <g id="cell73">
  <circle cx="499.553" cy="513.203" r="8.41271" stroke-width="0.5" stroke="black" fill="Red"/>
  <circle cx="499.553" cy="513.203" r="5.05167" stroke-width="0.5" stroke="Red" fill="Red"/>
   </g>
   <g id="cell74">
  <circle cx="493.847" cy="526.319" r="8.41271" stroke-width="0.5" stroke="black" fill="Red"/>
  <circle cx="493.847" cy="526.319" r="5.05167" stroke-width="0.5" stroke="Red" fill="Red"/>
   </g>
   <g id="cell75">
  <circle cx="495.782" cy="538.341" r="8.41271" stroke-width="0.5" stroke="black" fill="Red"/>
  <circle cx="495.782" cy="538.341" r="5.05167" stroke-width="0.5" stroke="Red" fill="Red"/>
   </g>
   <g id="cell76">
  <circle cx="497.142" cy="552.092" r="8.41271" stroke-width="0.5" stroke="black" fill="Red"/>
  <circle cx="497.142" cy="552.092" r="5.05167" stroke-width="0.5" stroke="Red" fill="Red"/>
   </g>
   <g id="cell77">
  <circle cx="503.256" cy="570.89" r="7.84675" stroke-width="0.5" stroke="black" fill="Red"/>
  <circle cx="503.256" cy="570.89" r="4.7629" stroke-width="0.5" stroke="Red" fill="Red"/>
   </g>
   <g id="cell78">
  <circle cx="499.064" cy="581.369" r="8.41271" stroke-width="0.5" stroke="black" fill="Red"/>
  <circle cx="499.064" cy="581.369" r="5.05167" stroke-width="0.5" stroke="Red" fill="Red"/>
   </g>
   <g id="cell79">
  <circle cx="496.339" cy="594.094" r="8.41271" stroke-width="0.5" stroke="black" fill="blue"/>
  <circle cx="496.339" cy="594.094" r="5.05167" stroke-width="0.5" stroke="blue" fill="blue"/>
   </g>
   <g id="cell80">
  <circle cx="516.384" cy="410.134" r="7.46878" stroke-width="0.5" stroke="black" fill="yellow"/>
  <circle cx="516.384" cy="410.134" r="4.53982" stroke-width="0.5" stroke="yellow" fill="yellow"/>
   </g>
   <g id="cell81">
  <circle cx="513.295" cy="433.589" r="8.41271" stroke-width="0.5" stroke="black" fill="Red"/>
  <circle cx="513.295" cy="433.589" r="5.05167" stroke-width="0.5" stroke="Red" fill="Red"/>
   </g>
   <g id="cell82">
  <circle cx="509.099" cy="444.789" r="7.18097" stroke-width="0.5" stroke="black" fill="blue"/>
  <circle cx="509.099" cy="444.789" r="4.36015" stroke-width="0.5" stroke="blue" fill="blue"/>
   </g>
   <g id="cell83">
  <circle cx="504.43" cy="455.211" r="8.41271" stroke-width="0.5" stroke="black" fill="Red"/>
  <circle cx="504.43" cy="455.211" r="5.05167" stroke-width="0.5" stroke="Red" fill="Red"/>
   </g>
   <g id="cell84">
  <circle cx="510.099" cy="465.45" r="6.89675" stroke-width="0.5" stroke="black" fill="blue"/>
  <circle cx="510.099" cy="465.45" r="4.17024" stroke-width="0.5" stroke="blue" fill="blue"/>
   </g>
   <g id="cell85">
  <circle cx="504.493" cy="478.007" r="8.41271" stroke-width="0.5" stroke="black" fill="Red"/>
  <circle cx="504.493" cy="478.007" r="5.05167" stroke-width="0.5" stroke="Red" fill="Red"/>
   </g>
   <g id="cell86">
  <circle cx="508.195" cy="499.98" r="8.41271" stroke-width="0.5" stroke="black" fill="Red"/>
  <circle cx="508.195" cy="499.98" r="5.05167" stroke-width="0.5" stroke="Red" fill="Red"/>
   </g>
   <g id="cell87">
  <circle cx="511.841" cy="513.364" r="7.89373" stroke-width="0.5" stroke="black" fill="Red"/>
  <circle cx="511.841" cy="513.364" r="4.78957" stroke-width="0.5" stroke="Red" fill="Red"/>
   </g>
   <g id="cell88">
  <circle cx="506.858" cy="535.336" r="8.41271" stroke-width="0.5" stroke="black" fill="Red"/>
  <circle cx="506.858" cy="535.336" r="5.05167" stroke-width="0.5" stroke="Red" fill="Red"/>
   </g>
   <g id="cell89">
  <circle cx="508.389" cy="546.616" r="8.41271" stroke-width="0.5" stroke="black" fill="Red"/>
  <circle cx="508.389" cy="546.616" r="5.05167" stroke-width="0.5" stroke="Red" fill="Red"/>
   </g>
   <g id="cell90">
  <circle cx="517.035" cy="557.107" r="8.41271" stroke-width="0.5" stroke="black" fill="Red"/>
  <circle cx="517.035" cy="557.107" r="5.05167" stroke-width="0.5" stroke="Red" fill="Red"/>
   </g>
   <g id="cell91">
  <circle cx="515.263" cy="571.435" r="8.41271" stroke-width="0.5" stroke="black" fill="yellow"/>
  <circle cx="515.263" cy="571.435" r="5.05167" stroke-width="0.5" stroke="yellow" fill="yellow"/>
   </g>
   <g id="cell92">
  <circle cx="512.493" cy="585.933" r="8.41271" stroke-width="0.5" stroke="black" fill="Red"/>
  <circle cx="512.493" cy="585.933" r="5.05167" stroke-width="0.5" stroke="Red" fill="Red"/>
   </g>
   <g id="cell93">
  <circle cx="530.048" cy="410.868" r="8.41271" stroke-width="0.5" stroke="black" fill="blue"/>
  <circle cx="530.048" cy="410.868" r="5.05167" stroke-width="0.5" stroke="blue" fill="blue"/>
   </g>
   <g id="cell94">
  <circle cx="536.227" cy="424.278" r="7.90853" stroke-width="0.5" stroke="black" fill="yellow"/>
  <circle cx="536.227" cy="424.278" r="4.79791" stroke-width="0.5" stroke="yellow" fill="yellow"/>
   </g>
   <g id="cell95">
  <circle cx="527.152" cy="435.317" r="8.41271" stroke-width="0.5" stroke="black" fill="Red"/>
  <circle cx="527.152" cy="435.317" r="5.05167" stroke-width="0.5" stroke="Red" fill="Red"/>
   </g>
   <g id="cell96">
  <circle cx="520.052" cy="445.456" r="7.52701" stroke-width="0.5" stroke="black" fill="blue"/>
  <circle cx="520.052" cy="445.456" r="4.59761" stroke-width="0.5" stroke="blue" fill="blue"/>
   </g>
   <g id="cell97">
  <circle cx="528.183" cy="463.881" r="8.41271" stroke-width="0.5" stroke="black" fill="Red"/>
  <circle cx="528.183" cy="463.881" r="5.05167" stroke-width="0.5" stroke="Red" fill="Red"/>
   </g>
   <g id="cell98">
  <circle cx="521.005" cy="495.426" r="7.24763" stroke-width="0.5" stroke="black" fill="blue"/>
  <circle cx="521.005" cy="495.426" r="4.4382" stroke-width="0.5" stroke="blue" fill="blue"/>
   </g>
   <g id="cell99">
  <circle cx="533.158" cy="498.678" r="8.41271" stroke-width="0.5" stroke="black" fill="Red"/>
  <circle cx="533.158" cy="498.678" r="5.05167" stroke-width="0.5" stroke="Red" fill="Red"/>
   </g>
   <g id="cell100">
  <circle cx="521.223" cy="504.865" r="7.3599" stroke-width="0.5" stroke="black" fill="blue"/>
  <circle cx="521.223" cy="504.865" r="4.47294" stroke-width="0.5" stroke="blue" fill="blue"/>
   </g>
   <g id="cell101">
  <circle cx="518.517" cy="528.245" r="8.41271" stroke-width="0.5" stroke="black" fill="Red"/>
  <circle cx="518.517" cy="528.245" r="5.05167" stroke-width="0.5" stroke="Red" fill="Red"/>
   </g>
   <g id="cell102">
  <circle cx="529.097" cy="536.296" r="8.01277" stroke-width="0.5" stroke="black" fill="blue"/>
  <circle cx="529.097" cy="536.296" r="4.85584" stroke-width="0.5" stroke="blue" fill="blue"/>
   </g>
   <g id="cell103">
  <circle cx="527.644" cy="550.315" r="8.41271" stroke-width="0.5" stroke="black" fill="Red"/>
  <circle cx="527.644" cy="550.315" r="5.05167" stroke-width="0.5" stroke="Red" fill="Red"/>
   </g>
   <g id="cell104">
  <circle cx="529.149" cy="564.759" r="8.41271" stroke-width="0.5" stroke="black" fill="Red"/>
  <circle cx="529.149" cy="564.759" r="5.05167" stroke-width="0.5" stroke="Red" fill="Red"/>
   </g>
   <g id="cell105">
  <circle cx="526.472" cy="579.612" r="8.41271" stroke-width="0.5" stroke="black" fill="blue"/>
  <circle cx="526.472" cy="579.612" r="5.05167" stroke-width="0.5" stroke="blue" fill="blue"/>
   </g>
   <g id="cell106">
  <circle cx="542.742" cy="413.616" r="7.38797" stroke-width="0.5" stroke="black" fill="yellow"/>
  <circle cx="542.742" cy="413.616" r="4.49029" stroke-width="0.5" stroke="yellow" fill="yellow"/>
   </g>
   <g id="cell107">
  <circle cx="540.842" cy="437.525" r="8.41271" stroke-width="0.5" stroke="black" fill="blue"/>
  <circle cx="540.842" cy="437.525" r="5.05167" stroke-width="0.5" stroke="blue" fill="blue"/>
   </g>
   <g id="cell108">
  <circle cx="531.664" cy="450.199" r="8.41271" stroke-width="0.5" stroke="black" fill="Red"/>
  <circle cx="531.664" cy="450.199" r="5.05167" stroke-width="0.5" stroke="Red" fill="Red"/>
   </g>
   <g id="cell109">
  <circle cx="549.022" cy="467.728" r="8.41271" stroke-width="0.5" stroke="black" fill="Red"/>
  <circle cx="549.022" cy="467.728" r="5.05167" stroke-width="0.5" stroke="Red" fill="Red"/>
   </g>
   <g id="cell110">
  <circle cx="530.21" cy="485.916" r="8.41271" stroke-width="0.5" stroke="black" fill="Red"/>
  <circle cx="530.21" cy="485.916" r="5.05167" stroke-width="0.5" stroke="Red" fill="Red"/>
   </g>
   <g id="cell111">
  <circle cx="541.942" cy="490.228" r="8.41271" stroke-width="0.5" stroke="black" fill="Red"/>
  <circle cx="541.942" cy="490.228" r="5.05167" stroke-width="0.5" stroke="Red" fill="Red"/>
   </g>
   <g id="cell112">
  <circle cx="543.122" cy="506.218" r="8.41271" stroke-width="0.5" stroke="black" fill="Red"/>
  <circle cx="543.122" cy="506.218" r="5.05167" stroke-width="0.5" stroke="Red" fill="Red"/>
   </g>
   <g id="cell113">
  <circle cx="531.335" cy="512.096" r="8.41271" stroke-width="0.5" stroke="black" fill="Red"/>
  <circle cx="531.335" cy="512.096" r="5.05167" stroke-width="0.5" stroke="Red" fill="Red"/>
   </g>
   <g id="cell114">
  <circle cx="530.922" cy="525.494" r="8.41271" stroke-width="0.5" stroke="black" fill="Red"/>
  <circle cx="530.922" cy="525.494" r="5.05167" stroke-width="0.5" stroke="Red" fill="Red"/>
   </g>
   <g id="cell115">
  <circle cx="538.05" cy="542.997" r="8.41271" stroke-width="0.5" stroke="black" fill="Red"/>
  <circle cx="538.05" cy="542.997" r="5.05167" stroke-width="0.5" stroke="Red" fill="Red"/>
   </g>
   <g id="cell116">
  <circle cx="546.415" cy="562.945" r="6.95901" stroke-width="0.5" stroke="black" fill="Red"/>
  <circle cx="546.415" cy="562.945" r="4.21341" stroke-width="0.5" stroke="Red" fill="Red"/>
   </g>
   <g id="cell117">
  <circle cx="540.236" cy="573.576" r="8.41271" stroke-width="0.5" stroke="black" fill="Red"/>
  <circle cx="540.236" cy="573.576" r="5.05167" stroke-width="0.5" stroke="Red" fill="Red"/>
   </g>
   <g id="cell118">
  <circle cx="549.778" cy="426.727" r="8.41271" stroke-width="0.5" stroke="black" fill="yellow"/>
  <circle cx="549.778" cy="426.727" r="5.05167" stroke-width="0.5" stroke="yellow" fill="yellow"/>
   </g>
   <g id="cell119">
  <circle cx="555.934" cy="438.831" r="8.41271" stroke-width="0.5" stroke="black" fill="Red"/>
  <circle cx="555.934" cy="438.831" r="5.05167" stroke-width="0.5" stroke="Red" fill="Red"/>
   </g>
   <g id="cell120">
  <circle cx="552.358" cy="457.344" r="7.89373" stroke-width="0.5" stroke="black" fill="Red"/>
  <circle cx="552.358" cy="457.344" r="4.78957" stroke-width="0.5" stroke="Red" fill="Red"/>
   </g>
   <g id="cell121">
  <circle cx="560.252" cy="474.699" r="8.41271" stroke-width="0.5" stroke="black" fill="Red"/>
  <circle cx="560.252" cy="474.699" r="5.05167" stroke-width="0.5" stroke="Red" fill="Red"/>
   </g>
   <g id="cell122">
  <circle cx="549.157" cy="481.899" r="8.41271" stroke-width="0.5" stroke="black" fill="blue"/>
  <circle cx="549.157" cy="481.899" r="5.05167" stroke-width="0.5" stroke="blue" fill="blue"/>
   </g>
   <g id="cell123">
  <circle cx="551.669" cy="497.441" r="8.41271" stroke-width="0.5" stroke="black" fill="Red"/>
  <circle cx="551.669" cy="497.441" r="5.05167" stroke-width="0.5" stroke="Red" fill="Red"/>
   </g>
   <g id="cell124">
  <circle cx="555.4" cy="511.749" r="8.41271" stroke-width="0.5" stroke="black" fill="Red"/>
  <circle cx="555.4" cy="511.749" r="5.05167" stroke-width="0.5" stroke="Red" fill="Red"/>
   </g>
   <g id="cell125">
  <circle cx="544.091" cy="518.966" r="7.90853" stroke-width="0.5" stroke="black" fill="blue"/>
  <circle cx="544.091" cy="518.966" r="4.79791" stroke-width="0.5" stroke="blue" fill="blue"/>
   </g>
   <g id="cell126">
  <circle cx="543.154" cy="531.667" r="8.41271" stroke-width="0.5" stroke="black" fill="Red"/>
  <circle cx="543.154" cy="531.667" r="5.05167" stroke-width="0.5" stroke="Red" fill="Red"/>
   </g>
   <g id="cell127">
  <circle cx="548.367" cy="550.24" r="8.41271" stroke-width="0.5" stroke="black" fill="Red"/>
  <circle cx="548.367" cy="550.24" r="5.05167" stroke-width="0.5" stroke="Red" fill="Red"/>
   </g>
   <g id="cell128">
  <circle cx="558.664" cy="560.173" r="8.41271" stroke-width="0.5" stroke="black" fill="Red"/>
  <circle cx="558.664" cy="560.173" r="5.05167" stroke-width="0.5" stroke="Red" fill="Red"/>
   </g>
   <g id="cell129">
  <circle cx="578.687" cy="453.447" r="7.87851" stroke-width="0.5" stroke="black" fill="yellow"/>
  <circle cx="578.687" cy="453.447" r="4.78096" stroke-width="0.5" stroke="yellow" fill="yellow"/>
   </g>
   <g id="cell130">
  <circle cx="563.419" cy="463.063" r="8.41271" stroke-width="0.5" stroke="black" fill="Red"/>
  <circle cx="563.419" cy="463.063" r="5.05167" stroke-width="0.5" stroke="Red" fill="Red"/>
   </g>
   <g id="cell131">
  <circle cx="571.559" cy="478.931" r="8.41271" stroke-width="0.5" stroke="black" fill="Red"/>
  <circle cx="571.559" cy="478.931" r="5.05167" stroke-width="0.5" stroke="Red" fill="Red"/>
   </g>
   <g id="cell132">
  <circle cx="560.137" cy="488.181" r="8.41271" stroke-width="0.5" stroke="black" fill="Red"/>
  <circle cx="560.137" cy="488.181" r="5.05167" stroke-width="0.5" stroke="Red" fill="Red"/>
   </g>
   <g id="cell133">
  <circle cx="564.466" cy="502.08" r="8.41271" stroke-width="0.5" stroke="black" fill="Red"/>
  <circle cx="564.466" cy="502.08" r="5.05167" stroke-width="0.5" stroke="Red" fill="Red"/>
   </g>
   <g id="cell134">
  <circle cx="567.154" cy="516.15" r="8.41271" stroke-width="0.5" stroke="black" fill="Red"/>
  <circle cx="567.154" cy="516.15" r="5.05167" stroke-width="0.5" stroke="Red" fill="Red"/>
   </g>
   <g id="cell135">
  <circle cx="568.709" cy="530.578" r="8.41271" stroke-width="0.5" stroke="black" fill="Red"/>
  <circle cx="568.709" cy="530.578" r="5.05167" stroke-width="0.5" stroke="Red" fill="Red"/>
   </g>
   <g id="cell136">
  <circle cx="555" cy="537.62" r="8.41271" stroke-width="0.5" stroke="black" fill="Red"/>
  <circle cx="555" cy="537.62" r="5.05167" stroke-width="0.5" stroke="Red" fill="Red"/>
   </g>
   <g id="cell137">
  <circle cx="570.761" cy="554.905" r="7.08639" stroke-width="0.5" stroke="black" fill="blue"/>
  <circle cx="570.761" cy="554.905" r="4.29876" stroke-width="0.5" stroke="blue" fill="blue"/>
   </g>
   <g id="cell138">
  <circle cx="576.101" cy="466.421" r="8.41271" stroke-width="0.5" stroke="black" fill="blue"/>
  <circle cx="576.101" cy="466.421" r="5.05167" stroke-width="0.5" stroke="blue" fill="blue"/>
   </g>
   <g id="cell139">
  <circle cx="584.259" cy="482.567" r="8.41271" stroke-width="0.5" stroke="black" fill="yellow"/>
  <circle cx="584.259" cy="482.567" r="5.05167" stroke-width="0.5" stroke="yellow" fill="yellow"/>
   </g>
   <g id="cell140">
  <circle cx="573.789" cy="492.037" r="8.05651" stroke-width="0.5" stroke="black" fill="Red"/>
  <circle cx="573.789" cy="492.037" r="4.87966" stroke-width="0.5" stroke="Red" fill="Red"/>
   </g>
   <g id="cell141">
  <circle cx="576.763" cy="506.609" r="8.41271" stroke-width="0.5" stroke="black" fill="Red"/>
  <circle cx="576.763" cy="506.609" r="5.05167" stroke-width="0.5" stroke="Red" fill="Red"/>
   </g>
   <g id="cell142">
  <circle cx="579.886" cy="521.642" r="7.77763" stroke-width="0.5" stroke="black" fill="blue"/>
  <circle cx="579.886" cy="521.642" r="4.7232" stroke-width="0.5" stroke="blue" fill="blue"/>
   </g>
   <g id="cell143">
  <circle cx="569.539" cy="543.086" r="8.41271" stroke-width="0.5" stroke="black" fill="Red"/>
  <circle cx="569.539" cy="543.086" r="5.05167" stroke-width="0.5" stroke="Red" fill="Red"/>
   </g>
   <g id="cell144">
  <circle cx="431.871" cy="433.098" r="7.24565" stroke-width="0.5" stroke="black" fill="blue"/>
  <circle cx="431.871" cy="433.098" r="4.43102" stroke-width="0.5" stroke="blue" fill="blue"/>
   </g>
   <g id="cell145">
  <circle cx="584.85" cy="495.913" r="6.56831" stroke-width="0.5" stroke="black" fill="Red"/>
  <circle cx="584.85" cy="495.913" r="3.99752" stroke-width="0.5" stroke="Red" fill="Red"/>
   </g>
   <g id="cell146">
  <circle cx="477.842" cy="506.487" r="7.56668" stroke-width="0.5" stroke="black" fill="Red"/>
  <circle cx="477.842" cy="506.487" r="4.62049" stroke-width="0.5" stroke="Red" fill="Red"/>
   </g>
   <g id="cell147">
  <circle cx="540.098" cy="460.005" r="7.81449" stroke-width="0.5" stroke="black" fill="blue"/>
  <circle cx="540.098" cy="460.005" r="4.75966" stroke-width="0.5" stroke="blue" fill="blue"/>
   </g>
   <g id="cell148">
  <circle cx="518.836" cy="540.805" r="8.01277" stroke-width="0.5" stroke="black" fill="blue"/>
  <circle cx="518.836" cy="540.805" r="4.85584" stroke-width="0.5" stroke="blue" fill="blue"/>
   </g>
   <g id="cell149">
  <circle cx="537.362" cy="473.958" r="7.81449" stroke-width="0.5" stroke="black" fill="Red"/>
  <circle cx="537.362" cy="473.958" r="4.75966" stroke-width="0.5" stroke="Red" fill="Red"/>
   </g>
   <g id="cell150">
  <circle cx="443.242" cy="513.117" r="7.95045" stroke-width="0.5" stroke="black" fill="Red"/>
  <circle cx="443.242" cy="513.117" r="4.82139" stroke-width="0.5" stroke="Red" fill="Red"/>
   </g>
   <g id="cell151">
  <circle cx="451.329" cy="413.292" r="7.95045" stroke-width="0.5" stroke="black" fill="blue"/>
  <circle cx="451.329" cy="413.292" r="4.82139" stroke-width="0.5" stroke="blue" fill="blue"/>
   </g>
   <g id="cell152">
  <circle cx="480.26" cy="460.994" r="7.9229" stroke-width="0.5" stroke="black" fill="Red"/>
  <circle cx="480.26" cy="460.994" r="4.80599" stroke-width="0.5" stroke="Red" fill="Red"/>
   </g>
   <g id="cell153">
  <circle cx="522.963" cy="421.96" r="7.90853" stroke-width="0.5" stroke="black" fill="yellow"/>
  <circle cx="522.963" cy="421.96" r="4.79791" stroke-width="0.5" stroke="yellow" fill="yellow"/>
   </g>
   <g id="cell154">
  <circle cx="555.897" cy="524.66" r="7.90853" stroke-width="0.5" stroke="black" fill="Red"/>
  <circle cx="555.897" cy="524.66" r="4.79791" stroke-width="0.5" stroke="Red" fill="Red"/>
   </g>
   <g id="cell155">
  <circle cx="440.32" cy="421.714" r="7.65292" stroke-width="0.5" stroke="black" fill="yellow"/>
  <circle cx="440.32" cy="421.714" r="4.6705" stroke-width="0.5" stroke="yellow" fill="yellow"/>
   </g>
   <g id="cell156">
  <circle cx="506.018" cy="524.281" r="7.89373" stroke-width="0.5" stroke="black" fill="blue"/>
  <circle cx="506.018" cy="524.281" r="4.78957" stroke-width="0.5" stroke="blue" fill="blue"/>
   </g>
   <g id="cell157">
  <circle cx="545.732" cy="449.196" r="7.89373" stroke-width="0.5" stroke="black" fill="Red"/>
  <circle cx="545.732" cy="449.196" r="4.78957" stroke-width="0.5" stroke="Red" fill="Red"/>
   </g>
   <g id="cell158">
  <circle cx="559.252" cy="449.72" r="6.30251" stroke-width="0.5" stroke="black" fill="yellow"/>
  <circle cx="559.252" cy="449.72" r="3.88514" stroke-width="0.5" stroke="yellow" fill="yellow"/>
   </g>
   <g id="cell159">
  <circle cx="469.392" cy="528.645" r="7.86286" stroke-width="0.5" stroke="black" fill="Red"/>
  <circle cx="469.392" cy="528.645" r="4.77207" stroke-width="0.5" stroke="Red" fill="Red"/>
   </g>
   <g id="cell160">
  <circle cx="505.887" cy="560.237" r="7.84675" stroke-width="0.5" stroke="black" fill="blue"/>
  <circle cx="505.887" cy="560.237" r="4.7629" stroke-width="0.5" stroke="blue" fill="blue"/>
   </g>
   <g id="cell161">
  <circle cx="516.781" cy="483.613" r="7.16989" stroke-width="0.5" stroke="black" fill="Red"/>
  <circle cx="516.781" cy="483.613" r="4.39217" stroke-width="0.5" stroke="Red" fill="Red"/>
   </g>
   <g id="cell162">
  <circle cx="580.766" cy="535.053" r="7.77763" stroke-width="0.5" stroke="black" fill="Red"/>
  <circle cx="580.766" cy="535.053" r="4.7232" stroke-width="0.5" stroke="Red" fill="Red"/>
   </g>
   <g id="cell163">
  <circle cx="466.772" cy="515.512" r="7.56668" stroke-width="0.5" stroke="black" fill="Red"/>
  <circle cx="466.772" cy="515.512" r="4.62049" stroke-width="0.5" stroke="Red" fill="Red"/>
   </g>
   <g id="cell164">
  <circle cx="430.629" cy="493.148" r="7.77763" stroke-width="0.5" stroke="black" fill="Red"/>
  <circle cx="430.629" cy="493.148" r="4.7232" stroke-width="0.5" stroke="Red" fill="Red"/>
   </g>
   <g id="cell165">
  <circle cx="471.001" cy="442.565" r="7.7401" stroke-width="0.5" stroke="black" fill="Red"/>
  <circle cx="471.001" cy="442.565" r="4.70142" stroke-width="0.5" stroke="Red" fill="Red"/>
   </g>
   <g id="cell166">
  <circle cx="488.949" cy="432.032" r="7.7401" stroke-width="0.5" stroke="black" fill="Red"/>
  <circle cx="488.949" cy="432.032" r="4.70142" stroke-width="0.5" stroke="Red" fill="Red"/>
   </g>
   <g id="cell167">
  <circle cx="517.444" cy="456.156" r="7.52701" stroke-width="0.5" stroke="black" fill="Red"/>
  <circle cx="517.444" cy="456.156" r="4.59761" stroke-width="0.5" stroke="Red" fill="Red"/>
   </g>
   <g id="cell168">
  <circle cx="427.427" cy="529.57" r="7.17881" stroke-width="0.5" stroke="black" fill="Red"/>
  <circle cx="427.427" cy="529.57" r="4.39821" stroke-width="0.5" stroke="Red" fill="Red"/>
   </g>
   <g id="cell169">
  <circle cx="418.303" cy="456.919" r="7.63698" stroke-width="0.5" stroke="black" fill="blue"/>
  <circle cx="418.303" cy="456.919" r="4.64085" stroke-width="0.5" stroke="blue" fill="blue"/>
   </g>
   <g id="cell170">
  <circle cx="511.525" cy="491.264" r="6.28707" stroke-width="0.5" stroke="black" fill="Red"/>
  <circle cx="511.525" cy="491.264" r="3.8767" stroke-width="0.5" stroke="Red" fill="Red"/>
   </g>
   <g id="cell171">
  <circle cx="452.787" cy="581.532" r="7.59183" stroke-width="0.5" stroke="black" fill="yellow"/>
  <circle cx="452.787" cy="581.532" r="4.61399" stroke-width="0.5" stroke="yellow" fill="yellow"/>
   </g>
   <g id="cell172">
  <circle cx="568.823" cy="442.102" r="7.27085" stroke-width="0.5" stroke="black" fill="blue"/>
  <circle cx="568.823" cy="442.102" r="4.45083" stroke-width="0.5" stroke="blue" fill="blue"/>
   </g>
   <g id="cell173">
  <circle cx="419.904" cy="517.806" r="7.17881" stroke-width="0.5" stroke="black" fill="blue"/>
  <circle cx="419.904" cy="517.806" r="4.39821" stroke-width="0.5" stroke="blue" fill="blue"/>
   </g>
   <g id="cell174">
  <circle cx="525.892" cy="475.439" r="7.16989" stroke-width="0.5" stroke="black" fill="blue"/>
  <circle cx="525.892" cy="475.439" r="4.39217" stroke-width="0.5" stroke="blue" fill="blue"/>
   </g>
   <g id="cell175">
  <circle cx="509.925" cy="421.013" r="7.46878" stroke-width="0.5" stroke="black" fill="Red"/>
  <circle cx="509.925" cy="421.013" r="4.53982" stroke-width="0.5" stroke="Red" fill="Red"/>
   </g>
   <g id="cell176">
  <circle cx="444.26" cy="435.078" r="7.24565" stroke-width="0.5" stroke="black" fill="Red"/>
  <circle cx="444.26" cy="435.078" r="4.43102" stroke-width="0.5" stroke="Red" fill="Red"/>
   </g>
   <g id="cell177">
  <circle cx="554.535" cy="415.13" r="7.38797" stroke-width="0.5" stroke="black" fill="blue"/>
  <circle cx="554.535" cy="415.13" r="4.49029" stroke-width="0.5" stroke="blue" fill="blue"/>
   </g>
   <g id="cell178">
  <circle cx="521.278" cy="517.417" r="7.3599" stroke-width="0.5" stroke="black" fill="Red"/>
  <circle cx="521.278" cy="517.417" r="4.47294" stroke-width="0.5" stroke="Red" fill="Red"/>
   </g>
   <g id="cell179">
  <circle cx="452.014" cy="530.659" r="7.3599" stroke-width="0.5" stroke="black" fill="Red"/>
  <circle cx="452.014" cy="530.659" r="4.47294" stroke-width="0.5" stroke="Red" fill="Red"/>
   </g>
   <g id="cell180">
  <circle cx="457.004" cy="436.566" r="7.3599" stroke-width="0.5" stroke="black" fill="Red"/>
  <circle cx="457.004" cy="436.566" r="4.47294" stroke-width="0.5" stroke="Red" fill="Red"/>
   </g>
   <g id="cell181">
  <circle cx="490.177" cy="504.494" r="5.90024" stroke-width="0.5" stroke="black" fill="blue"/>
  <circle cx="490.177" cy="504.494" r="3.5958" stroke-width="0.5" stroke="blue" fill="blue"/>
   </g>
   <g id="cell182">
  <circle cx="473.742" cy="552.793" r="7.27253" stroke-width="0.5" stroke="black" fill="blue"/>
  <circle cx="473.742" cy="552.793" r="4.41835" stroke-width="0.5" stroke="blue" fill="blue"/>
   </g>
   <g id="cell183">
  <circle cx="465.781" cy="434.243" r="7.21189" stroke-width="0.5" stroke="black" fill="blue"/>
  <circle cx="465.781" cy="434.243" r="4.37993" stroke-width="0.5" stroke="blue" fill="blue"/>
   </g>
   <g id="cell184">
  <circle cx="501.119" cy="438.042" r="7.18097" stroke-width="0.5" stroke="black" fill="blue"/>
  <circle cx="501.119" cy="438.042" r="4.36015" stroke-width="0.5" stroke="blue" fill="blue"/>
   </g>
   <g id="cell185">
  <circle cx="486.918" cy="586.324" r="7.11815" stroke-width="0.5" stroke="black" fill="Red"/>
  <circle cx="486.918" cy="586.324" r="4.31954" stroke-width="0.5" stroke="Red" fill="Red"/>
   </g>
   <g id="cell186">
  <circle cx="503.19" cy="488.203" r="6.28707" stroke-width="0.5" stroke="black" fill="blue"/>
  <circle cx="503.19" cy="488.203" r="3.8767" stroke-width="0.5" stroke="blue" fill="blue"/>
   </g>
   <g id="cell187">
  <circle cx="568.038" cy="452.863" r="6.30251" stroke-width="0.5" stroke="black" fill="yellow"/>
  <circle cx="568.038" cy="452.863" r="3.88514" stroke-width="0.5" stroke="yellow" fill="yellow"/>
   </g>
   <g id="cell188">
  <circle cx="560.336" cy="548.997" r="7.08639" stroke-width="0.5" stroke="black" fill="Red"/>
  <circle cx="560.336" cy="548.997" r="4.29876" stroke-width="0.5" stroke="Red" fill="Red"/>
   </g>
   <g id="cell189">
  <circle cx="460.402" cy="524.437" r="7.0545" stroke-width="0.5" stroke="black" fill="Red"/>
  <circle cx="460.402" cy="524.437" r="4.27772" stroke-width="0.5" stroke="Red" fill="Red"/>
   </g>
   <g id="cell190">
  <circle cx="457.47" cy="513.43" r="5.98931" stroke-width="0.5" stroke="black" fill="blue"/>
  <circle cx="457.47" cy="513.43" r="3.66601" stroke-width="0.5" stroke="blue" fill="blue"/>
   </g>
   <g id="cell191">
  <circle cx="538.163" cy="557.055" r="6.95901" stroke-width="0.5" stroke="black" fill="blue"/>
  <circle cx="538.163" cy="557.055" r="4.21341" stroke-width="0.5" stroke="blue" fill="blue"/>
   </g>
   <g id="cell192">
  <circle cx="515.98" cy="473.876" r="5.59073" stroke-width="0.5" stroke="black" fill="blue"/>
  <circle cx="515.98" cy="473.876" r="3.39409" stroke-width="0.5" stroke="blue" fill="blue"/>
   </g>
   <g id="cell193">
  <circle cx="595.435" cy="490.17" r="6.56831" stroke-width="0.5" stroke="black" fill="blue"/>
  <circle cx="595.435" cy="490.17" r="3.99752" stroke-width="0.5" stroke="blue" fill="blue"/>
   </g>
   <g id="cell194">
  <circle cx="453.113" cy="567.773" r="6.83713" stroke-width="0.5" stroke="black" fill="Red"/>
  <circle cx="453.113" cy="567.773" r="4.12773" stroke-width="0.5" stroke="Red" fill="Red"/>
   </g>
   <g id="cell195">
  <circle cx="498.106" cy="503.02" r="5.90024" stroke-width="0.5" stroke="black" fill="blue"/>
  <circle cx="498.106" cy="503.02" r="3.5958" stroke-width="0.5" stroke="blue" fill="blue"/>
   </g>
   <g id="cell196">
  <circle cx="463.233" cy="414.969" r="6.75639" stroke-width="0.5" stroke="black" fill="Red"/>
  <circle cx="463.233" cy="414.969" r="4.06813" stroke-width="0.5" stroke="Red" fill="Red"/>
   </g>
   <g id="cell197">
  <circle cx="519.376" cy="466.435" r="5.59073" stroke-width="0.5" stroke="black" fill="blue"/>
  <circle cx="519.376" cy="466.435" r="3.39409" stroke-width="0.5" stroke="blue" fill="blue"/>
   </g>
   <g id="cell198">
  <circle cx="466.59" cy="537.378" r="5.91404" stroke-width="0.5" stroke="black" fill="blue"/>
  <circle cx="466.59" cy="537.378" r="3.60138" stroke-width="0.5" stroke="blue" fill="blue"/>
   </g>
   <g id="cell199">
  <circle cx="413.781" cy="536.286" r="6.19379" stroke-width="0.5" stroke="black" fill="blue"/>
  <circle cx="413.781" cy="536.286" r="3.76918" stroke-width="0.5" stroke="blue" fill="blue"/>
   </g>
   <g id="cell200">
  <circle cx="489.778" cy="441.112" r="6.69288" stroke-width="0.5" stroke="black" fill="Red"/>
  <circle cx="489.778" cy="441.112" r="4.02051" stroke-width="0.5" stroke="Red" fill="Red"/>
   </g>
   <g id="cell201">
  <circle cx="467.757" cy="461.417" r="6.69288" stroke-width="0.5" stroke="black" fill="blue"/>
  <circle cx="467.757" cy="461.417" r="4.02051" stroke-width="0.5" stroke="blue" fill="blue"/>
   </g>
  </g>
 </g>
  <rect x="775" y="1035" width="200" height="10" stroke-width="2" stroke="rgb(255,255,255)" fill="rgb(0,0,0)"/>
  <text x="781.25" y="1028.75"
   font-family="Arial" font-size="25" fill="black" >
   200 &#956;m
  </text>
  <text x="25" y="1045"
   font-family="Arial" font-size="18.75" fill="black" >
   0 days, 0 hours, 2 minutes, and 33.9672 seconds
  </text>
  <rect x="0" y="70" width="1000" height="1000" stroke-width="2" stroke="rgb(0,0,0)" fill="none"/>
</svg>
