<?xml version="1.0" encoding="UTF-8" standalone="no"?>
<!-- Created with PhysiCell (http://PhysiCell.MathCancer.org/) -->
<svg 
 xmlns:dc="http://purl.org/dc/elements/1.1/" 
 xmlns:cc="http://creativecommons.org/ns#" 
 xmlns:rdf="http://www.w3.org/1999/02/22-rdf-syntax-ns#" 
 xmlns:svg="http://www.w3.org/2000/svg" 
 xmlns="http://www.w3.org/2000/svg" 
 version="1.1" 
 width="1000" 
 height="1070" 
 id="svg2">
  <rect x="0" y="0" width="1000" height="1070" stroke-width="2" stroke="white" fill="white"/>
  <text x="12.5" y="30"
   font-family="Arial" font-size="25" fill="black" >
   Current time: 0 days, 6 hours, and 20.00 minutes, z = 0.00 &#956;m
  </text>
  <text x="12.5" y="57.5"
   font-family="Arial" font-size="23.75" fill="black" >
   202 agents
  </text>
 <g id="tissue" 
    transform="translate(0,1070) scale(1,-1)">
  <g id="ECM">
  </g>
  <g id="cells">
   <g id="cell0">
  <circle cx="423.357" cy="445.21" r="8.41271" stroke-width="0.5" stroke="black" fill="yellow"/>
  <circle cx="423.357" cy="445.21" r="5.05167" stroke-width="0.5" stroke="yellow" fill="yellow"/>
   </g>
   <g id="cell1">
  <circle cx="421.951" cy="468.654" r="7.61469" stroke-width="0.5" stroke="black" fill="Red"/>
  <circle cx="421.951" cy="468.654" r="4.62762" stroke-width="0.5" stroke="Red" fill="Red"/>
   </g>
   <g id="cell2">
  <circle cx="424.799" cy="482.188" r="8.41271" stroke-width="0.5" stroke="black" fill="blue"/>
  <circle cx="424.799" cy="482.188" r="5.05167" stroke-width="0.5" stroke="blue" fill="blue"/>
   </g>
   <g id="cell3">
  <circle cx="418.41" cy="495.196" r="7.75912" stroke-width="0.5" stroke="black" fill="Red"/>
  <circle cx="418.41" cy="495.196" r="4.71248" stroke-width="0.5" stroke="Red" fill="Red"/>
   </g>
   <g id="cell4">
  <circle cx="425.955" cy="506.131" r="8.41271" stroke-width="0.5" stroke="black" fill="Red"/>
  <circle cx="425.955" cy="506.131" r="5.05167" stroke-width="0.5" stroke="Red" fill="Red"/>
   </g>
   <g id="cell5">
  <circle cx="417.074" cy="528.721" r="6.15289" stroke-width="0.5" stroke="black" fill="blue"/>
  <circle cx="417.074" cy="528.721" r="3.74184" stroke-width="0.5" stroke="blue" fill="blue"/>
   </g>
   <g id="cell6">
  <circle cx="425.879" cy="542.025" r="8.41271" stroke-width="0.5" stroke="black" fill="Red"/>
  <circle cx="425.879" cy="542.025" r="5.05167" stroke-width="0.5" stroke="Red" fill="Red"/>
   </g>
   <g id="cell7">
  <circle cx="436.815" cy="445.331" r="8.04604" stroke-width="0.5" stroke="black" fill="Red"/>
  <circle cx="436.815" cy="445.331" r="4.87399" stroke-width="0.5" stroke="Red" fill="Red"/>
   </g>
   <g id="cell8">
  <circle cx="431.401" cy="458.694" r="8.41271" stroke-width="0.5" stroke="black" fill="Red"/>
  <circle cx="431.401" cy="458.694" r="5.05167" stroke-width="0.5" stroke="Red" fill="Red"/>
   </g>
   <g id="cell9">
  <circle cx="435.564" cy="471.319" r="8.41271" stroke-width="0.5" stroke="black" fill="Red"/>
  <circle cx="435.564" cy="471.319" r="5.05167" stroke-width="0.5" stroke="Red" fill="Red"/>
   </g>
   <g id="cell10">
  <circle cx="439.113" cy="483.353" r="8.41271" stroke-width="0.5" stroke="black" fill="Red"/>
  <circle cx="439.113" cy="483.353" r="5.05167" stroke-width="0.5" stroke="Red" fill="Red"/>
   </g>
   <g id="cell11">
  <circle cx="437.508" cy="503.622" r="8.41271" stroke-width="0.5" stroke="black" fill="Red"/>
  <circle cx="437.508" cy="503.622" r="5.05167" stroke-width="0.5" stroke="Red" fill="Red"/>
   </g>
   <g id="cell12">
  <circle cx="432.084" cy="518.096" r="7.93688" stroke-width="0.5" stroke="black" fill="Red"/>
  <circle cx="432.084" cy="518.096" r="4.81381" stroke-width="0.5" stroke="Red" fill="Red"/>
   </g>
   <g id="cell13">
  <circle cx="437.752" cy="535.047" r="8.41271" stroke-width="0.5" stroke="black" fill="blue"/>
  <circle cx="437.752" cy="535.047" r="5.05167" stroke-width="0.5" stroke="blue" fill="blue"/>
   </g>
   <g id="cell14">
  <circle cx="438.884" cy="549.589" r="8.41271" stroke-width="0.5" stroke="black" fill="Red"/>
  <circle cx="438.884" cy="549.589" r="5.05167" stroke-width="0.5" stroke="Red" fill="Red"/>
   </g>
   <g id="cell15">
  <circle cx="441.355" cy="563.26" r="8.41271" stroke-width="0.5" stroke="black" fill="blue"/>
  <circle cx="441.355" cy="563.26" r="5.05167" stroke-width="0.5" stroke="blue" fill="blue"/>
   </g>
   <g id="cell16">
  <circle cx="453.186" cy="425.219" r="7.62977" stroke-width="0.5" stroke="black" fill="Red"/>
  <circle cx="453.186" cy="425.219" r="4.65754" stroke-width="0.5" stroke="Red" fill="Red"/>
   </g>
   <g id="cell17">
  <circle cx="448.712" cy="445.413" r="7.33129" stroke-width="0.5" stroke="black" fill="blue"/>
  <circle cx="448.712" cy="445.413" r="4.45516" stroke-width="0.5" stroke="blue" fill="blue"/>
   </g>
   <g id="cell18">
  <circle cx="445.604" cy="456.649" r="8.41271" stroke-width="0.5" stroke="black" fill="Red"/>
  <circle cx="445.604" cy="456.649" r="5.05167" stroke-width="0.5" stroke="Red" fill="Red"/>
   </g>
   <g id="cell19">
  <circle cx="447.618" cy="469.158" r="8.41271" stroke-width="0.5" stroke="black" fill="Red"/>
  <circle cx="447.618" cy="469.158" r="5.05167" stroke-width="0.5" stroke="Red" fill="Red"/>
   </g>
   <g id="cell20">
  <circle cx="450.935" cy="481.15" r="8.41271" stroke-width="0.5" stroke="black" fill="Red"/>
  <circle cx="450.935" cy="481.15" r="5.05167" stroke-width="0.5" stroke="Red" fill="Red"/>
   </g>
   <g id="cell21">
  <circle cx="444.242" cy="494.23" r="8.41271" stroke-width="0.5" stroke="black" fill="Red"/>
  <circle cx="444.242" cy="494.23" r="5.05167" stroke-width="0.5" stroke="Red" fill="Red"/>
   </g>
   <g id="cell22">
  <circle cx="452.474" cy="503.791" r="8.41271" stroke-width="0.5" stroke="black" fill="Red"/>
  <circle cx="452.474" cy="503.791" r="5.05167" stroke-width="0.5" stroke="Red" fill="Red"/>
   </g>
   <g id="cell23">
  <circle cx="442.207" cy="524.934" r="8.41271" stroke-width="0.5" stroke="black" fill="Red"/>
  <circle cx="442.207" cy="524.934" r="5.05167" stroke-width="0.5" stroke="Red" fill="Red"/>
   </g>
   <g id="cell24">
  <circle cx="450.378" cy="542.535" r="8.41271" stroke-width="0.5" stroke="black" fill="Red"/>
  <circle cx="450.378" cy="542.535" r="5.05167" stroke-width="0.5" stroke="Red" fill="Red"/>
   </g>
   <g id="cell25">
  <circle cx="451.43" cy="557.038" r="8.41271" stroke-width="0.5" stroke="black" fill="Red"/>
  <circle cx="451.43" cy="557.038" r="5.05167" stroke-width="0.5" stroke="Red" fill="Red"/>
   </g>
   <g id="cell26">
  <circle cx="442.938" cy="574.911" r="6.80881" stroke-width="0.5" stroke="black" fill="Red"/>
  <circle cx="442.938" cy="574.911" r="4.10709" stroke-width="0.5" stroke="Red" fill="Red"/>
   </g>
   <g id="cell27">
  <circle cx="462.578" cy="403.666" r="8.41271" stroke-width="0.5" stroke="black" fill="Red"/>
  <circle cx="462.578" cy="403.666" r="5.05167" stroke-width="0.5" stroke="Red" fill="Red"/>
   </g>
   <g id="cell28">
  <circle cx="464.057" cy="424.656" r="6.73287" stroke-width="0.5" stroke="black" fill="Red"/>
  <circle cx="464.057" cy="424.656" r="4.05039" stroke-width="0.5" stroke="Red" fill="Red"/>
   </g>
   <g id="cell29">
  <circle cx="459.143" cy="447.141" r="7.72056" stroke-width="0.5" stroke="black" fill="Red"/>
  <circle cx="459.143" cy="447.141" r="4.69003" stroke-width="0.5" stroke="Red" fill="Red"/>
   </g>
   <g id="cell30">
  <circle cx="457.881" cy="458.071" r="8.41271" stroke-width="0.5" stroke="black" fill="Red"/>
  <circle cx="457.881" cy="458.071" r="5.05167" stroke-width="0.5" stroke="Red" fill="Red"/>
   </g>
   <g id="cell31">
  <circle cx="460.341" cy="469.834" r="8.41271" stroke-width="0.5" stroke="black" fill="Red"/>
  <circle cx="460.341" cy="469.834" r="5.05167" stroke-width="0.5" stroke="Red" fill="Red"/>
   </g>
   <g id="cell32">
  <circle cx="464.126" cy="481.299" r="8.41271" stroke-width="0.5" stroke="black" fill="Red"/>
  <circle cx="464.126" cy="481.299" r="5.05167" stroke-width="0.5" stroke="Red" fill="Red"/>
   </g>
   <g id="cell33">
  <circle cx="457.938" cy="492.354" r="8.41271" stroke-width="0.5" stroke="black" fill="blue"/>
  <circle cx="457.938" cy="492.354" r="5.05167" stroke-width="0.5" stroke="blue" fill="blue"/>
   </g>
   <g id="cell34">
  <circle cx="452.264" cy="519.41" r="5.9244" stroke-width="0.5" stroke="black" fill="Red"/>
  <circle cx="452.264" cy="519.41" r="3.62339" stroke-width="0.5" stroke="Red" fill="Red"/>
   </g>
   <g id="cell35">
  <circle cx="460.791" cy="535.323" r="5.86404" stroke-width="0.5" stroke="black" fill="blue"/>
  <circle cx="460.791" cy="535.323" r="3.56764" stroke-width="0.5" stroke="blue" fill="blue"/>
   </g>
   <g id="cell36">
  <circle cx="461.362" cy="547.408" r="8.41271" stroke-width="0.5" stroke="black" fill="Red"/>
  <circle cx="461.362" cy="547.408" r="5.05167" stroke-width="0.5" stroke="Red" fill="Red"/>
   </g>
   <g id="cell37">
  <circle cx="464.653" cy="561.326" r="8.41271" stroke-width="0.5" stroke="black" fill="Red"/>
  <circle cx="464.653" cy="561.326" r="5.05167" stroke-width="0.5" stroke="Red" fill="Red"/>
   </g>
   <g id="cell38">
  <circle cx="465.058" cy="574.919" r="8.41271" stroke-width="0.5" stroke="black" fill="yellow"/>
  <circle cx="465.058" cy="574.919" r="5.05167" stroke-width="0.5" stroke="yellow" fill="yellow"/>
   </g>
   <g id="cell39">
  <circle cx="463.058" cy="588.609" r="7.56839" stroke-width="0.5" stroke="black" fill="blue"/>
  <circle cx="463.058" cy="588.609" r="4.59998" stroke-width="0.5" stroke="blue" fill="blue"/>
   </g>
   <g id="cell40">
  <circle cx="476.473" cy="398.233" r="8.41271" stroke-width="0.5" stroke="black" fill="blue"/>
  <circle cx="476.473" cy="398.233" r="5.05167" stroke-width="0.5" stroke="blue" fill="blue"/>
   </g>
   <g id="cell41">
  <circle cx="476.208" cy="411.941" r="8.41271" stroke-width="0.5" stroke="black" fill="Red"/>
  <circle cx="476.208" cy="411.941" r="5.05167" stroke-width="0.5" stroke="Red" fill="Red"/>
   </g>
   <g id="cell42">
  <circle cx="478.468" cy="438.083" r="7.18097" stroke-width="0.5" stroke="black" fill="Red"/>
  <circle cx="478.468" cy="438.083" r="4.36015" stroke-width="0.5" stroke="Red" fill="Red"/>
   </g>
   <g id="cell43">
  <circle cx="470.867" cy="453.454" r="8.41271" stroke-width="0.5" stroke="black" fill="Red"/>
  <circle cx="470.867" cy="453.454" r="5.05167" stroke-width="0.5" stroke="Red" fill="Red"/>
   </g>
   <g id="cell44">
  <circle cx="472.854" cy="467.483" r="6.67717" stroke-width="0.5" stroke="black" fill="blue"/>
  <circle cx="472.854" cy="467.483" r="4.00951" stroke-width="0.5" stroke="blue" fill="blue"/>
   </g>
   <g id="cell45">
  <circle cx="475.422" cy="476.68" r="8.41271" stroke-width="0.5" stroke="black" fill="Red"/>
  <circle cx="475.422" cy="476.68" r="5.05167" stroke-width="0.5" stroke="Red" fill="Red"/>
   </g>
   <g id="cell46">
  <circle cx="472.214" cy="493.541" r="8.41271" stroke-width="0.5" stroke="black" fill="Red"/>
  <circle cx="472.214" cy="493.541" r="5.05167" stroke-width="0.5" stroke="Red" fill="Red"/>
   </g>
   <g id="cell47">
  <circle cx="464.044" cy="503.45" r="8.03527" stroke-width="0.5" stroke="black" fill="Red"/>
  <circle cx="464.044" cy="503.45" r="4.86813" stroke-width="0.5" stroke="Red" fill="Red"/>
   </g>
   <g id="cell48">
  <circle cx="477.327" cy="519.601" r="7.84675" stroke-width="0.5" stroke="black" fill="blue"/>
  <circle cx="477.327" cy="519.601" r="4.7629" stroke-width="0.5" stroke="blue" fill="blue"/>
   </g>
   <g id="cell49">
  <circle cx="473.984" cy="542.826" r="8.41271" stroke-width="0.5" stroke="black" fill="Red"/>
  <circle cx="473.984" cy="542.826" r="5.05167" stroke-width="0.5" stroke="Red" fill="Red"/>
   </g>
   <g id="cell50">
  <circle cx="482.514" cy="557.691" r="7.24243" stroke-width="0.5" stroke="black" fill="Red"/>
  <circle cx="482.514" cy="557.691" r="4.39934" stroke-width="0.5" stroke="Red" fill="Red"/>
   </g>
   <g id="cell51">
  <circle cx="477.328" cy="568.543" r="8.41271" stroke-width="0.5" stroke="black" fill="Red"/>
  <circle cx="477.328" cy="568.543" r="5.05167" stroke-width="0.5" stroke="Red" fill="Red"/>
   </g>
   <g id="cell52">
  <circle cx="476.326" cy="584.03" r="8.41271" stroke-width="0.5" stroke="black" fill="yellow"/>
  <circle cx="476.326" cy="584.03" r="5.05167" stroke-width="0.5" stroke="yellow" fill="yellow"/>
   </g>
   <g id="cell53">
  <circle cx="489.464" cy="404.967" r="8.41271" stroke-width="0.5" stroke="black" fill="Red"/>
  <circle cx="489.464" cy="404.967" r="5.05167" stroke-width="0.5" stroke="Red" fill="Red"/>
   </g>
   <g id="cell54">
  <circle cx="476.587" cy="426.108" r="8.41271" stroke-width="0.5" stroke="black" fill="Red"/>
  <circle cx="476.587" cy="426.108" r="5.05167" stroke-width="0.5" stroke="Red" fill="Red"/>
   </g>
   <g id="cell55">
  <circle cx="482.539" cy="447.707" r="7.72056" stroke-width="0.5" stroke="black" fill="Red"/>
  <circle cx="482.539" cy="447.707" r="4.69003" stroke-width="0.5" stroke="Red" fill="Red"/>
   </g>
   <g id="cell56">
  <circle cx="490.844" cy="456.484" r="7.90853" stroke-width="0.5" stroke="black" fill="blue"/>
  <circle cx="490.844" cy="456.484" r="4.79791" stroke-width="0.5" stroke="blue" fill="blue"/>
   </g>
   <g id="cell57">
  <circle cx="486.255" cy="471.453" r="8.41271" stroke-width="0.5" stroke="black" fill="Red"/>
  <circle cx="486.255" cy="471.453" r="5.05167" stroke-width="0.5" stroke="Red" fill="Red"/>
   </g>
   <g id="cell58">
  <circle cx="480.649" cy="486.594" r="8.41271" stroke-width="0.5" stroke="black" fill="blue"/>
  <circle cx="480.649" cy="486.594" r="5.05167" stroke-width="0.5" stroke="blue" fill="blue"/>
   </g>
   <g id="cell59">
  <circle cx="484.09" cy="498.206" r="7.27253" stroke-width="0.5" stroke="black" fill="Red"/>
  <circle cx="484.09" cy="498.206" r="4.41835" stroke-width="0.5" stroke="Red" fill="Red"/>
   </g>
   <g id="cell60">
  <circle cx="488.563" cy="515.754" r="8.41271" stroke-width="0.5" stroke="black" fill="Red"/>
  <circle cx="488.563" cy="515.754" r="5.05167" stroke-width="0.5" stroke="Red" fill="Red"/>
   </g>
   <g id="cell61">
  <circle cx="483.022" cy="532.003" r="8.41271" stroke-width="0.5" stroke="black" fill="Red"/>
  <circle cx="483.022" cy="532.003" r="5.05167" stroke-width="0.5" stroke="Red" fill="Red"/>
   </g>
   <g id="cell62">
  <circle cx="486.289" cy="546.541" r="8.41271" stroke-width="0.5" stroke="black" fill="Red"/>
  <circle cx="486.289" cy="546.541" r="5.05167" stroke-width="0.5" stroke="Red" fill="Red"/>
   </g>
   <g id="cell63">
  <circle cx="492.263" cy="562.695" r="8.41271" stroke-width="0.5" stroke="black" fill="Red"/>
  <circle cx="492.263" cy="562.695" r="5.05167" stroke-width="0.5" stroke="Red" fill="Red"/>
   </g>
   <g id="cell64">
  <circle cx="488.782" cy="574.481" r="8.41271" stroke-width="0.5" stroke="black" fill="blue"/>
  <circle cx="488.782" cy="574.481" r="5.05167" stroke-width="0.5" stroke="blue" fill="blue"/>
   </g>
   <g id="cell65">
  <circle cx="483.322" cy="598.553" r="7.08639" stroke-width="0.5" stroke="black" fill="Red"/>
  <circle cx="483.322" cy="598.553" r="4.29876" stroke-width="0.5" stroke="Red" fill="Red"/>
   </g>
   <g id="cell66">
  <circle cx="500.977" cy="413.782" r="8.41271" stroke-width="0.5" stroke="black" fill="blue"/>
  <circle cx="500.977" cy="413.782" r="5.05167" stroke-width="0.5" stroke="blue" fill="blue"/>
   </g>
   <g id="cell67">
  <circle cx="488.104" cy="418.448" r="8.41271" stroke-width="0.5" stroke="black" fill="Red"/>
  <circle cx="488.104" cy="418.448" r="5.05167" stroke-width="0.5" stroke="Red" fill="Red"/>
   </g>
   <g id="cell68">
  <circle cx="500.593" cy="426.166" r="8.41271" stroke-width="0.5" stroke="black" fill="Red"/>
  <circle cx="500.593" cy="426.166" r="5.05167" stroke-width="0.5" stroke="Red" fill="Red"/>
   </g>
   <g id="cell69">
  <circle cx="495.167" cy="447.184" r="6.67717" stroke-width="0.5" stroke="black" fill="Red"/>
  <circle cx="495.167" cy="447.184" r="4.00951" stroke-width="0.5" stroke="Red" fill="Red"/>
   </g>
   <g id="cell70">
  <circle cx="496.802" cy="466.84" r="8.41271" stroke-width="0.5" stroke="black" fill="Red"/>
  <circle cx="496.802" cy="466.84" r="5.05167" stroke-width="0.5" stroke="Red" fill="Red"/>
   </g>
   <g id="cell71">
  <circle cx="491.617" cy="482.493" r="8.41271" stroke-width="0.5" stroke="black" fill="Red"/>
  <circle cx="491.617" cy="482.493" r="5.05167" stroke-width="0.5" stroke="Red" fill="Red"/>
   </g>
   <g id="cell72">
  <circle cx="495.253" cy="493.354" r="8.41271" stroke-width="0.5" stroke="black" fill="yellow"/>
  <circle cx="495.253" cy="493.354" r="5.05167" stroke-width="0.5" stroke="yellow" fill="yellow"/>
   </g>
   <g id="cell73">
  <circle cx="500.468" cy="511.593" r="8.41271" stroke-width="0.5" stroke="black" fill="Red"/>
  <circle cx="500.468" cy="511.593" r="5.05167" stroke-width="0.5" stroke="Red" fill="Red"/>
   </g>
   <g id="cell74">
  <circle cx="494.946" cy="525.291" r="8.41271" stroke-width="0.5" stroke="black" fill="Red"/>
  <circle cx="494.946" cy="525.291" r="5.05167" stroke-width="0.5" stroke="Red" fill="Red"/>
   </g>
   <g id="cell75">
  <circle cx="496.305" cy="538.075" r="8.41271" stroke-width="0.5" stroke="black" fill="Red"/>
  <circle cx="496.305" cy="538.075" r="5.05167" stroke-width="0.5" stroke="Red" fill="Red"/>
   </g>
   <g id="cell76">
  <circle cx="497.761" cy="551.354" r="8.41271" stroke-width="0.5" stroke="black" fill="Red"/>
  <circle cx="497.761" cy="551.354" r="5.05167" stroke-width="0.5" stroke="Red" fill="Red"/>
   </g>
   <g id="cell77">
  <circle cx="501.873" cy="569.685" r="7.83019" stroke-width="0.5" stroke="black" fill="Red"/>
  <circle cx="501.873" cy="569.685" r="4.75343" stroke-width="0.5" stroke="Red" fill="Red"/>
   </g>
   <g id="cell78">
  <circle cx="499.203" cy="581.019" r="8.41271" stroke-width="0.5" stroke="black" fill="Red"/>
  <circle cx="499.203" cy="581.019" r="5.05167" stroke-width="0.5" stroke="Red" fill="Red"/>
   </g>
   <g id="cell79">
  <circle cx="498.552" cy="594.072" r="8.41271" stroke-width="0.5" stroke="black" fill="blue"/>
  <circle cx="498.552" cy="594.072" r="5.05167" stroke-width="0.5" stroke="blue" fill="blue"/>
   </g>
   <g id="cell80">
  <circle cx="516.453" cy="410.931" r="7.44242" stroke-width="0.5" stroke="black" fill="yellow"/>
  <circle cx="516.453" cy="410.931" r="4.52373" stroke-width="0.5" stroke="yellow" fill="yellow"/>
   </g>
   <g id="cell81">
  <circle cx="513.742" cy="433.4" r="8.41271" stroke-width="0.5" stroke="black" fill="Red"/>
  <circle cx="513.742" cy="433.4" r="5.05167" stroke-width="0.5" stroke="Red" fill="Red"/>
   </g>
   <g id="cell82">
  <circle cx="509.422" cy="445.066" r="7.1497" stroke-width="0.5" stroke="black" fill="blue"/>
  <circle cx="509.422" cy="445.066" r="4.34001" stroke-width="0.5" stroke="blue" fill="blue"/>
   </g>
   <g id="cell83">
  <circle cx="503.47" cy="454.556" r="8.41271" stroke-width="0.5" stroke="black" fill="Red"/>
  <circle cx="503.47" cy="454.556" r="5.05167" stroke-width="0.5" stroke="Red" fill="Red"/>
   </g>
   <g id="cell84">
  <circle cx="508.975" cy="465.368" r="6.86652" stroke-width="0.5" stroke="black" fill="Red"/>
  <circle cx="508.975" cy="465.368" r="4.14883" stroke-width="0.5" stroke="Red" fill="Red"/>
   </g>
   <g id="cell85">
  <circle cx="504.26" cy="476.908" r="8.41271" stroke-width="0.5" stroke="black" fill="Red"/>
  <circle cx="504.26" cy="476.908" r="5.05167" stroke-width="0.5" stroke="Red" fill="Red"/>
   </g>
   <g id="cell86">
  <circle cx="508.575" cy="499.923" r="8.41271" stroke-width="0.5" stroke="black" fill="Red"/>
  <circle cx="508.575" cy="499.923" r="5.05167" stroke-width="0.5" stroke="Red" fill="Red"/>
   </g>
   <g id="cell87">
  <circle cx="512.301" cy="511.77" r="7.87851" stroke-width="0.5" stroke="black" fill="Red"/>
  <circle cx="512.301" cy="511.77" r="4.78096" stroke-width="0.5" stroke="Red" fill="Red"/>
   </g>
   <g id="cell88">
  <circle cx="508.069" cy="534.147" r="8.41271" stroke-width="0.5" stroke="black" fill="Red"/>
  <circle cx="508.069" cy="534.147" r="5.05167" stroke-width="0.5" stroke="Red" fill="Red"/>
   </g>
   <g id="cell89">
  <circle cx="509.289" cy="546.432" r="8.41271" stroke-width="0.5" stroke="black" fill="Red"/>
  <circle cx="509.289" cy="546.432" r="5.05167" stroke-width="0.5" stroke="Red" fill="Red"/>
   </g>
   <g id="cell90">
  <circle cx="515.946" cy="557.426" r="8.41271" stroke-width="0.5" stroke="black" fill="yellow"/>
  <circle cx="515.946" cy="557.426" r="5.05167" stroke-width="0.5" stroke="yellow" fill="yellow"/>
   </g>
   <g id="cell91">
  <circle cx="513.88" cy="571.403" r="8.41271" stroke-width="0.5" stroke="black" fill="yellow"/>
  <circle cx="513.88" cy="571.403" r="5.05167" stroke-width="0.5" stroke="yellow" fill="yellow"/>
   </g>
   <g id="cell92">
  <circle cx="511.729" cy="585.251" r="8.41271" stroke-width="0.5" stroke="black" fill="yellow"/>
  <circle cx="511.729" cy="585.251" r="5.05167" stroke-width="0.5" stroke="yellow" fill="yellow"/>
   </g>
   <g id="cell93">
  <circle cx="530.185" cy="410.103" r="8.41271" stroke-width="0.5" stroke="black" fill="blue"/>
  <circle cx="530.185" cy="410.103" r="5.05167" stroke-width="0.5" stroke="blue" fill="blue"/>
   </g>
   <g id="cell94">
  <circle cx="535.761" cy="425.715" r="7.89373" stroke-width="0.5" stroke="black" fill="yellow"/>
  <circle cx="535.761" cy="425.715" r="4.78957" stroke-width="0.5" stroke="yellow" fill="yellow"/>
   </g>
   <g id="cell95">
  <circle cx="527.95" cy="436.323" r="8.41271" stroke-width="0.5" stroke="black" fill="blue"/>
  <circle cx="527.95" cy="436.323" r="5.05167" stroke-width="0.5" stroke="blue" fill="blue"/>
   </g>
   <g id="cell96">
  <circle cx="520.17" cy="445.849" r="7.50016" stroke-width="0.5" stroke="black" fill="blue"/>
  <circle cx="520.17" cy="445.849" r="4.58228" stroke-width="0.5" stroke="blue" fill="blue"/>
   </g>
   <g id="cell97">
  <circle cx="526.893" cy="463.673" r="8.41271" stroke-width="0.5" stroke="black" fill="Red"/>
  <circle cx="526.893" cy="463.673" r="5.05167" stroke-width="0.5" stroke="Red" fill="Red"/>
   </g>
   <g id="cell98">
  <circle cx="520.5" cy="493.913" r="7.21191" stroke-width="0.5" stroke="black" fill="blue"/>
  <circle cx="520.5" cy="493.913" r="4.41729" stroke-width="0.5" stroke="blue" fill="blue"/>
   </g>
   <g id="cell99">
  <circle cx="532.628" cy="498.573" r="8.41271" stroke-width="0.5" stroke="black" fill="Red"/>
  <circle cx="532.628" cy="498.573" r="5.05167" stroke-width="0.5" stroke="Red" fill="Red"/>
   </g>
   <g id="cell100">
  <circle cx="521.969" cy="504.702" r="7.33129" stroke-width="0.5" stroke="black" fill="blue"/>
  <circle cx="521.969" cy="504.702" r="4.45516" stroke-width="0.5" stroke="blue" fill="blue"/>
   </g>
   <g id="cell101">
  <circle cx="519.162" cy="527.646" r="8.41271" stroke-width="0.5" stroke="black" fill="Red"/>
  <circle cx="519.162" cy="527.646" r="5.05167" stroke-width="0.5" stroke="Red" fill="Red"/>
   </g>
   <g id="cell102">
  <circle cx="530.179" cy="536.857" r="8.00101" stroke-width="0.5" stroke="black" fill="Red"/>
  <circle cx="530.179" cy="536.857" r="4.84939" stroke-width="0.5" stroke="Red" fill="Red"/>
   </g>
   <g id="cell103">
  <circle cx="526.653" cy="550.407" r="8.41271" stroke-width="0.5" stroke="black" fill="Red"/>
  <circle cx="526.653" cy="550.407" r="5.05167" stroke-width="0.5" stroke="Red" fill="Red"/>
   </g>
   <g id="cell104">
  <circle cx="528.104" cy="564.344" r="8.41271" stroke-width="0.5" stroke="black" fill="Red"/>
  <circle cx="528.104" cy="564.344" r="5.05167" stroke-width="0.5" stroke="Red" fill="Red"/>
   </g>
   <g id="cell105">
  <circle cx="526.628" cy="579.665" r="8.41271" stroke-width="0.5" stroke="black" fill="blue"/>
  <circle cx="526.628" cy="579.665" r="5.05167" stroke-width="0.5" stroke="blue" fill="blue"/>
   </g>
   <g id="cell106">
  <circle cx="542.916" cy="414.857" r="7.3599" stroke-width="0.5" stroke="black" fill="yellow"/>
  <circle cx="542.916" cy="414.857" r="4.47294" stroke-width="0.5" stroke="yellow" fill="yellow"/>
   </g>
   <g id="cell107">
  <circle cx="542.065" cy="438.35" r="8.41271" stroke-width="0.5" stroke="black" fill="blue"/>
  <circle cx="542.065" cy="438.35" r="5.05167" stroke-width="0.5" stroke="blue" fill="blue"/>
   </g>
   <g id="cell108">
  <circle cx="532.418" cy="449.799" r="8.41271" stroke-width="0.5" stroke="black" fill="Red"/>
  <circle cx="532.418" cy="449.799" r="5.05167" stroke-width="0.5" stroke="Red" fill="Red"/>
   </g>
   <g id="cell109">
  <circle cx="548.328" cy="467.77" r="8.41271" stroke-width="0.5" stroke="black" fill="Red"/>
  <circle cx="548.328" cy="467.77" r="5.05167" stroke-width="0.5" stroke="Red" fill="Red"/>
   </g>
   <g id="cell110">
  <circle cx="530.09" cy="485.581" r="8.41271" stroke-width="0.5" stroke="black" fill="Red"/>
  <circle cx="530.09" cy="485.581" r="5.05167" stroke-width="0.5" stroke="Red" fill="Red"/>
   </g>
   <g id="cell111">
  <circle cx="541.227" cy="489.592" r="8.41271" stroke-width="0.5" stroke="black" fill="Red"/>
  <circle cx="541.227" cy="489.592" r="5.05167" stroke-width="0.5" stroke="Red" fill="Red"/>
   </g>
   <g id="cell112">
  <circle cx="543.18" cy="505.374" r="8.41271" stroke-width="0.5" stroke="black" fill="Red"/>
  <circle cx="543.18" cy="505.374" r="5.05167" stroke-width="0.5" stroke="Red" fill="Red"/>
   </g>
   <g id="cell113">
  <circle cx="531.158" cy="512.359" r="8.41271" stroke-width="0.5" stroke="black" fill="Red"/>
  <circle cx="531.158" cy="512.359" r="5.05167" stroke-width="0.5" stroke="Red" fill="Red"/>
   </g>
   <g id="cell114">
  <circle cx="532.05" cy="525.808" r="8.41271" stroke-width="0.5" stroke="black" fill="Red"/>
  <circle cx="532.05" cy="525.808" r="5.05167" stroke-width="0.5" stroke="Red" fill="Red"/>
   </g>
   <g id="cell115">
  <circle cx="537.73" cy="543.591" r="8.41271" stroke-width="0.5" stroke="black" fill="Red"/>
  <circle cx="537.73" cy="543.591" r="5.05167" stroke-width="0.5" stroke="Red" fill="Red"/>
   </g>
   <g id="cell116">
  <circle cx="546.35" cy="562.262" r="6.92764" stroke-width="0.5" stroke="black" fill="Red"/>
  <circle cx="546.35" cy="562.262" r="4.1918" stroke-width="0.5" stroke="Red" fill="Red"/>
   </g>
   <g id="cell117">
  <circle cx="539.496" cy="573.357" r="8.41271" stroke-width="0.5" stroke="black" fill="Red"/>
  <circle cx="539.496" cy="573.357" r="5.05167" stroke-width="0.5" stroke="Red" fill="Red"/>
   </g>
   <g id="cell118">
  <circle cx="550.392" cy="426.983" r="8.41271" stroke-width="0.5" stroke="black" fill="Red"/>
  <circle cx="550.392" cy="426.983" r="5.05167" stroke-width="0.5" stroke="Red" fill="Red"/>
   </g>
   <g id="cell119">
  <circle cx="556.42" cy="439.593" r="8.41271" stroke-width="0.5" stroke="black" fill="yellow"/>
  <circle cx="556.42" cy="439.593" r="5.05167" stroke-width="0.5" stroke="yellow" fill="yellow"/>
   </g>
   <g id="cell120">
  <circle cx="553.657" cy="458.889" r="7.87851" stroke-width="0.5" stroke="black" fill="Red"/>
  <circle cx="553.657" cy="458.889" r="4.78096" stroke-width="0.5" stroke="Red" fill="Red"/>
   </g>
   <g id="cell121">
  <circle cx="558.775" cy="474.716" r="8.41271" stroke-width="0.5" stroke="black" fill="Red"/>
  <circle cx="558.775" cy="474.716" r="5.05167" stroke-width="0.5" stroke="Red" fill="Red"/>
   </g>
   <g id="cell122">
  <circle cx="547.688" cy="480.394" r="8.41271" stroke-width="0.5" stroke="black" fill="blue"/>
  <circle cx="547.688" cy="480.394" r="5.05167" stroke-width="0.5" stroke="blue" fill="blue"/>
   </g>
   <g id="cell123">
  <circle cx="550.936" cy="496.723" r="8.41271" stroke-width="0.5" stroke="black" fill="Red"/>
  <circle cx="550.936" cy="496.723" r="5.05167" stroke-width="0.5" stroke="Red" fill="Red"/>
   </g>
   <g id="cell124">
  <circle cx="554.775" cy="511.106" r="8.41271" stroke-width="0.5" stroke="black" fill="Red"/>
  <circle cx="554.775" cy="511.106" r="5.05167" stroke-width="0.5" stroke="Red" fill="Red"/>
   </g>
   <g id="cell125">
  <circle cx="543.277" cy="518.427" r="7.89373" stroke-width="0.5" stroke="black" fill="blue"/>
  <circle cx="543.277" cy="518.427" r="4.78957" stroke-width="0.5" stroke="blue" fill="blue"/>
   </g>
   <g id="cell126">
  <circle cx="543.9" cy="532.029" r="8.41271" stroke-width="0.5" stroke="black" fill="Red"/>
  <circle cx="543.9" cy="532.029" r="5.05167" stroke-width="0.5" stroke="Red" fill="Red"/>
   </g>
   <g id="cell127">
  <circle cx="548.699" cy="549.366" r="8.41271" stroke-width="0.5" stroke="black" fill="Red"/>
  <circle cx="548.699" cy="549.366" r="5.05167" stroke-width="0.5" stroke="Red" fill="Red"/>
   </g>
   <g id="cell128">
  <circle cx="558.47" cy="559.635" r="8.41271" stroke-width="0.5" stroke="black" fill="blue"/>
  <circle cx="558.47" cy="559.635" r="5.05167" stroke-width="0.5" stroke="blue" fill="blue"/>
   </g>
   <g id="cell129">
  <circle cx="577.851" cy="453.188" r="7.86286" stroke-width="0.5" stroke="black" fill="Red"/>
  <circle cx="577.851" cy="453.188" r="4.77207" stroke-width="0.5" stroke="Red" fill="Red"/>
   </g>
   <g id="cell130">
  <circle cx="563.672" cy="463.369" r="8.41271" stroke-width="0.5" stroke="black" fill="Red"/>
  <circle cx="563.672" cy="463.369" r="5.05167" stroke-width="0.5" stroke="Red" fill="Red"/>
   </g>
   <g id="cell131">
  <circle cx="570.453" cy="478.66" r="8.41271" stroke-width="0.5" stroke="black" fill="Red"/>
  <circle cx="570.453" cy="478.66" r="5.05167" stroke-width="0.5" stroke="Red" fill="Red"/>
   </g>
   <g id="cell132">
  <circle cx="559.726" cy="487.864" r="8.41271" stroke-width="0.5" stroke="black" fill="Red"/>
  <circle cx="559.726" cy="487.864" r="5.05167" stroke-width="0.5" stroke="Red" fill="Red"/>
   </g>
   <g id="cell133">
  <circle cx="563.022" cy="502.132" r="8.41271" stroke-width="0.5" stroke="black" fill="Red"/>
  <circle cx="563.022" cy="502.132" r="5.05167" stroke-width="0.5" stroke="Red" fill="Red"/>
   </g>
   <g id="cell134">
  <circle cx="566.814" cy="516.337" r="8.41271" stroke-width="0.5" stroke="black" fill="Red"/>
  <circle cx="566.814" cy="516.337" r="5.05167" stroke-width="0.5" stroke="Red" fill="Red"/>
   </g>
   <g id="cell135">
  <circle cx="567.756" cy="529.855" r="8.41271" stroke-width="0.5" stroke="black" fill="Red"/>
  <circle cx="567.756" cy="529.855" r="5.05167" stroke-width="0.5" stroke="Red" fill="Red"/>
   </g>
   <g id="cell136">
  <circle cx="555.702" cy="537.311" r="8.41271" stroke-width="0.5" stroke="black" fill="Red"/>
  <circle cx="555.702" cy="537.311" r="5.05167" stroke-width="0.5" stroke="Red" fill="Red"/>
   </g>
   <g id="cell137">
  <circle cx="572.067" cy="554.735" r="7.0545" stroke-width="0.5" stroke="black" fill="blue"/>
  <circle cx="572.067" cy="554.735" r="4.27772" stroke-width="0.5" stroke="blue" fill="blue"/>
   </g>
   <g id="cell138">
  <circle cx="575.214" cy="466.34" r="8.41271" stroke-width="0.5" stroke="black" fill="blue"/>
  <circle cx="575.214" cy="466.34" r="5.05167" stroke-width="0.5" stroke="blue" fill="blue"/>
   </g>
   <g id="cell139">
  <circle cx="583.613" cy="481.89" r="8.41271" stroke-width="0.5" stroke="black" fill="yellow"/>
  <circle cx="583.613" cy="481.89" r="5.05167" stroke-width="0.5" stroke="yellow" fill="yellow"/>
   </g>
   <g id="cell140">
  <circle cx="572.778" cy="494.036" r="8.04604" stroke-width="0.5" stroke="black" fill="Red"/>
  <circle cx="572.778" cy="494.036" r="4.87399" stroke-width="0.5" stroke="Red" fill="Red"/>
   </g>
   <g id="cell141">
  <circle cx="576.179" cy="508.145" r="8.41271" stroke-width="0.5" stroke="black" fill="Red"/>
  <circle cx="576.179" cy="508.145" r="5.05167" stroke-width="0.5" stroke="Red" fill="Red"/>
   </g>
   <g id="cell142">
  <circle cx="579.225" cy="522.167" r="7.75912" stroke-width="0.5" stroke="black" fill="blue"/>
  <circle cx="579.225" cy="522.167" r="4.71248" stroke-width="0.5" stroke="blue" fill="blue"/>
   </g>
   <g id="cell143">
  <circle cx="569.067" cy="542.81" r="8.41271" stroke-width="0.5" stroke="black" fill="Red"/>
  <circle cx="569.067" cy="542.81" r="5.05167" stroke-width="0.5" stroke="Red" fill="Red"/>
   </g>
   <g id="cell144">
  <circle cx="433.324" cy="433.733" r="7.21111" stroke-width="0.5" stroke="black" fill="blue"/>
  <circle cx="433.324" cy="433.733" r="4.41057" stroke-width="0.5" stroke="blue" fill="blue"/>
   </g>
   <g id="cell145">
  <circle cx="584.753" cy="495.997" r="6.52966" stroke-width="0.5" stroke="black" fill="yellow"/>
  <circle cx="584.753" cy="495.997" r="3.97158" stroke-width="0.5" stroke="yellow" fill="yellow"/>
   </g>
   <g id="cell146">
  <circle cx="477.091" cy="507.155" r="7.541" stroke-width="0.5" stroke="black" fill="Red"/>
  <circle cx="477.091" cy="507.155" r="4.60591" stroke-width="0.5" stroke="Red" fill="Red"/>
   </g>
   <g id="cell147">
  <circle cx="538.164" cy="461.164" r="7.79641" stroke-width="0.5" stroke="black" fill="blue"/>
  <circle cx="538.164" cy="461.164" r="4.7498" stroke-width="0.5" stroke="blue" fill="blue"/>
   </g>
   <g id="cell148">
  <circle cx="520.16" cy="540.658" r="8.00101" stroke-width="0.5" stroke="black" fill="blue"/>
  <circle cx="520.16" cy="540.658" r="4.84939" stroke-width="0.5" stroke="blue" fill="blue"/>
   </g>
   <g id="cell149">
  <circle cx="536.568" cy="474.388" r="7.79641" stroke-width="0.5" stroke="black" fill="Red"/>
  <circle cx="536.568" cy="474.388" r="4.7498" stroke-width="0.5" stroke="Red" fill="Red"/>
   </g>
   <g id="cell150">
  <circle cx="443.774" cy="513.215" r="7.93688" stroke-width="0.5" stroke="black" fill="blue"/>
  <circle cx="443.774" cy="513.215" r="4.81381" stroke-width="0.5" stroke="blue" fill="blue"/>
   </g>
   <g id="cell151">
  <circle cx="452.703" cy="413.376" r="7.93688" stroke-width="0.5" stroke="black" fill="blue"/>
  <circle cx="452.703" cy="413.376" r="4.81381" stroke-width="0.5" stroke="blue" fill="blue"/>
   </g>
   <g id="cell152">
  <circle cx="480.983" cy="461.297" r="7.90853" stroke-width="0.5" stroke="black" fill="Red"/>
  <circle cx="480.983" cy="461.297" r="4.79791" stroke-width="0.5" stroke="Red" fill="Red"/>
   </g>
   <g id="cell153">
  <circle cx="523.094" cy="421.385" r="7.89373" stroke-width="0.5" stroke="black" fill="Red"/>
  <circle cx="523.094" cy="421.385" r="4.78957" stroke-width="0.5" stroke="Red" fill="Red"/>
   </g>
   <g id="cell154">
  <circle cx="555.714" cy="523.962" r="7.89373" stroke-width="0.5" stroke="black" fill="Red"/>
  <circle cx="555.714" cy="523.962" r="4.78957" stroke-width="0.5" stroke="Red" fill="Red"/>
   </g>
   <g id="cell155">
  <circle cx="441.101" cy="421.745" r="7.62977" stroke-width="0.5" stroke="black" fill="Red"/>
  <circle cx="441.101" cy="421.745" r="4.65754" stroke-width="0.5" stroke="Red" fill="Red"/>
   </g>
   <g id="cell156">
  <circle cx="507.027" cy="522.693" r="7.87851" stroke-width="0.5" stroke="black" fill="blue"/>
  <circle cx="507.027" cy="522.693" r="4.78096" stroke-width="0.5" stroke="blue" fill="blue"/>
   </g>
   <g id="cell157">
  <circle cx="546.147" cy="450.353" r="7.87851" stroke-width="0.5" stroke="black" fill="Red"/>
  <circle cx="546.147" cy="450.353" r="4.78096" stroke-width="0.5" stroke="Red" fill="Red"/>
   </g>
   <g id="cell158">
  <circle cx="559.001" cy="450.218" r="6.23867" stroke-width="0.5" stroke="black" fill="Red"/>
  <circle cx="559.001" cy="450.218" r="3.84605" stroke-width="0.5" stroke="Red" fill="Red"/>
   </g>
   <g id="cell159">
  <circle cx="470.252" cy="528.968" r="7.84675" stroke-width="0.5" stroke="black" fill="Red"/>
  <circle cx="470.252" cy="528.968" r="4.7629" stroke-width="0.5" stroke="Red" fill="Red"/>
   </g>
   <g id="cell160">
  <circle cx="505.613" cy="559.263" r="7.83019" stroke-width="0.5" stroke="black" fill="blue"/>
  <circle cx="505.613" cy="559.263" r="4.75343" stroke-width="0.5" stroke="blue" fill="blue"/>
   </g>
   <g id="cell161">
  <circle cx="517.142" cy="483.18" r="7.13191" stroke-width="0.5" stroke="black" fill="Red"/>
  <circle cx="517.142" cy="483.18" r="4.36979" stroke-width="0.5" stroke="Red" fill="Red"/>
   </g>
   <g id="cell162">
  <circle cx="580.027" cy="534.684" r="7.75912" stroke-width="0.5" stroke="black" fill="Red"/>
  <circle cx="580.027" cy="534.684" r="4.71248" stroke-width="0.5" stroke="Red" fill="Red"/>
   </g>
   <g id="cell163">
  <circle cx="466.691" cy="515.014" r="7.541" stroke-width="0.5" stroke="black" fill="Red"/>
  <circle cx="466.691" cy="515.014" r="4.60591" stroke-width="0.5" stroke="Red" fill="Red"/>
   </g>
   <g id="cell164">
  <circle cx="430.866" cy="493.399" r="7.75912" stroke-width="0.5" stroke="black" fill="Red"/>
  <circle cx="430.866" cy="493.399" r="4.71248" stroke-width="0.5" stroke="Red" fill="Red"/>
   </g>
   <g id="cell165">
  <circle cx="469.366" cy="442.844" r="7.72056" stroke-width="0.5" stroke="black" fill="Red"/>
  <circle cx="469.366" cy="442.844" r="4.69003" stroke-width="0.5" stroke="Red" fill="Red"/>
   </g>
   <g id="cell166">
  <circle cx="489.224" cy="430.48" r="7.72056" stroke-width="0.5" stroke="black" fill="blue"/>
  <circle cx="489.224" cy="430.48" r="4.69003" stroke-width="0.5" stroke="blue" fill="blue"/>
   </g>
   <g id="cell167">
  <circle cx="516.528" cy="456.198" r="7.50016" stroke-width="0.5" stroke="black" fill="Red"/>
  <circle cx="516.528" cy="456.198" r="4.58228" stroke-width="0.5" stroke="Red" fill="Red"/>
   </g>
   <g id="cell168">
  <circle cx="426.94" cy="529.144" r="7.1409" stroke-width="0.5" stroke="black" fill="Red"/>
  <circle cx="426.94" cy="529.144" r="4.37591" stroke-width="0.5" stroke="Red" fill="Red"/>
   </g>
   <g id="cell169">
  <circle cx="416.495" cy="457.106" r="7.61469" stroke-width="0.5" stroke="black" fill="blue"/>
  <circle cx="416.495" cy="457.106" r="4.62762" stroke-width="0.5" stroke="blue" fill="blue"/>
   </g>
   <g id="cell170">
  <circle cx="511.436" cy="490.211" r="6.22245" stroke-width="0.5" stroke="black" fill="Red"/>
  <circle cx="511.436" cy="490.211" r="3.83715" stroke-width="0.5" stroke="Red" fill="Red"/>
   </g>
   <g id="cell171">
  <circle cx="453.55" cy="580.637" r="7.56839" stroke-width="0.5" stroke="black" fill="yellow"/>
  <circle cx="453.55" cy="580.637" r="4.59998" stroke-width="0.5" stroke="yellow" fill="yellow"/>
   </g>
   <g id="cell172">
  <circle cx="569.547" cy="443.333" r="7.23603" stroke-width="0.5" stroke="black" fill="blue"/>
  <circle cx="569.547" cy="443.333" r="4.43046" stroke-width="0.5" stroke="blue" fill="blue"/>
   </g>
   <g id="cell173">
  <circle cx="419.55" cy="517.9" r="7.1409" stroke-width="0.5" stroke="black" fill="Red"/>
  <circle cx="419.55" cy="517.9" r="4.37591" stroke-width="0.5" stroke="Red" fill="Red"/>
   </g>
   <g id="cell174">
  <circle cx="525.302" cy="475.736" r="7.13191" stroke-width="0.5" stroke="black" fill="blue"/>
  <circle cx="525.302" cy="475.736" r="4.36979" stroke-width="0.5" stroke="blue" fill="blue"/>
   </g>
   <g id="cell175">
  <circle cx="511.588" cy="421.263" r="7.44242" stroke-width="0.5" stroke="black" fill="Red"/>
  <circle cx="511.588" cy="421.263" r="4.52373" stroke-width="0.5" stroke="Red" fill="Red"/>
   </g>
   <g id="cell176">
  <circle cx="444.261" cy="434.198" r="7.21111" stroke-width="0.5" stroke="black" fill="Red"/>
  <circle cx="444.261" cy="434.198" r="4.41057" stroke-width="0.5" stroke="Red" fill="Red"/>
   </g>
   <g id="cell177">
  <circle cx="555.47" cy="414.658" r="7.3599" stroke-width="0.5" stroke="black" fill="blue"/>
  <circle cx="555.47" cy="414.658" r="4.47294" stroke-width="0.5" stroke="blue" fill="blue"/>
   </g>
   <g id="cell178">
  <circle cx="520.989" cy="516.982" r="7.33129" stroke-width="0.5" stroke="black" fill="Red"/>
  <circle cx="520.989" cy="516.982" r="4.45516" stroke-width="0.5" stroke="Red" fill="Red"/>
   </g>
   <g id="cell179">
  <circle cx="452.313" cy="530.908" r="7.33129" stroke-width="0.5" stroke="black" fill="Red"/>
  <circle cx="452.313" cy="530.908" r="4.45516" stroke-width="0.5" stroke="Red" fill="Red"/>
   </g>
   <g id="cell180">
  <circle cx="456.71" cy="435.989" r="7.33129" stroke-width="0.5" stroke="black" fill="Red"/>
  <circle cx="456.71" cy="435.989" r="4.45516" stroke-width="0.5" stroke="Red" fill="Red"/>
   </g>
   <g id="cell181">
  <circle cx="490.669" cy="505.38" r="5.84641" stroke-width="0.5" stroke="black" fill="blue"/>
  <circle cx="490.669" cy="505.38" r="3.55931" stroke-width="0.5" stroke="blue" fill="blue"/>
   </g>
   <g id="cell182">
  <circle cx="473.223" cy="553.876" r="7.24243" stroke-width="0.5" stroke="black" fill="blue"/>
  <circle cx="473.223" cy="553.876" r="4.39934" stroke-width="0.5" stroke="blue" fill="blue"/>
   </g>
   <g id="cell183">
  <circle cx="467.493" cy="433.531" r="7.18097" stroke-width="0.5" stroke="black" fill="blue"/>
  <circle cx="467.493" cy="433.531" r="4.36015" stroke-width="0.5" stroke="blue" fill="blue"/>
   </g>
   <g id="cell184">
  <circle cx="501.223" cy="436.982" r="7.1497" stroke-width="0.5" stroke="black" fill="blue"/>
  <circle cx="501.223" cy="436.982" r="4.34001" stroke-width="0.5" stroke="blue" fill="blue"/>
   </g>
   <g id="cell185">
  <circle cx="487.773" cy="586.599" r="7.08639" stroke-width="0.5" stroke="black" fill="Red"/>
  <circle cx="487.773" cy="586.599" r="4.29876" stroke-width="0.5" stroke="Red" fill="Red"/>
   </g>
   <g id="cell186">
  <circle cx="504.038" cy="487.024" r="6.22245" stroke-width="0.5" stroke="black" fill="blue"/>
  <circle cx="504.038" cy="487.024" r="3.83715" stroke-width="0.5" stroke="blue" fill="blue"/>
   </g>
   <g id="cell187">
  <circle cx="567" cy="453.826" r="6.23867" stroke-width="0.5" stroke="black" fill="Red"/>
  <circle cx="567" cy="453.826" r="3.84605" stroke-width="0.5" stroke="Red" fill="Red"/>
   </g>
   <g id="cell188">
  <circle cx="560" cy="549.198" r="7.0545" stroke-width="0.5" stroke="black" fill="Red"/>
  <circle cx="560" cy="549.198" r="4.27772" stroke-width="0.5" stroke="Red" fill="Red"/>
   </g>
   <g id="cell189">
  <circle cx="460.418" cy="524.142" r="7.02257" stroke-width="0.5" stroke="black" fill="Red"/>
  <circle cx="460.418" cy="524.142" r="4.25644" stroke-width="0.5" stroke="Red" fill="Red"/>
   </g>
   <g id="cell190">
  <circle cx="457.449" cy="512.645" r="5.9244" stroke-width="0.5" stroke="black" fill="blue"/>
  <circle cx="457.449" cy="512.645" r="3.62339" stroke-width="0.5" stroke="blue" fill="blue"/>
   </g>
   <g id="cell191">
  <circle cx="537.819" cy="555.494" r="6.92764" stroke-width="0.5" stroke="black" fill="blue"/>
  <circle cx="537.819" cy="555.494" r="4.1918" stroke-width="0.5" stroke="blue" fill="blue"/>
   </g>
   <g id="cell192">
  <circle cx="515.038" cy="474.729" r="5.533" stroke-width="0.5" stroke="black" fill="blue"/>
  <circle cx="515.038" cy="474.729" r="3.35261" stroke-width="0.5" stroke="blue" fill="blue"/>
   </g>
   <g id="cell193">
  <circle cx="593.346" cy="490.04" r="6.52966" stroke-width="0.5" stroke="black" fill="blue"/>
  <circle cx="593.346" cy="490.04" r="3.97158" stroke-width="0.5" stroke="blue" fill="blue"/>
   </g>
   <g id="cell194">
  <circle cx="453.654" cy="568.239" r="6.80881" stroke-width="0.5" stroke="black" fill="Red"/>
  <circle cx="453.654" cy="568.239" r="4.10709" stroke-width="0.5" stroke="Red" fill="Red"/>
   </g>
   <g id="cell195">
  <circle cx="497.561" cy="502.281" r="5.84641" stroke-width="0.5" stroke="black" fill="blue"/>
  <circle cx="497.561" cy="502.281" r="3.55931" stroke-width="0.5" stroke="blue" fill="blue"/>
   </g>
   <g id="cell196">
  <circle cx="463.589" cy="415.682" r="6.73287" stroke-width="0.5" stroke="black" fill="Red"/>
  <circle cx="463.589" cy="415.682" r="4.05039" stroke-width="0.5" stroke="Red" fill="Red"/>
   </g>
   <g id="cell197">
  <circle cx="517.884" cy="466.944" r="5.533" stroke-width="0.5" stroke="black" fill="Red"/>
  <circle cx="517.884" cy="466.944" r="3.35261" stroke-width="0.5" stroke="Red" fill="Red"/>
   </g>
   <g id="cell198">
  <circle cx="466.802" cy="538.549" r="5.86404" stroke-width="0.5" stroke="black" fill="blue"/>
  <circle cx="466.802" cy="538.549" r="3.56764" stroke-width="0.5" stroke="blue" fill="blue"/>
   </g>
   <g id="cell199">
  <circle cx="415.47" cy="538.084" r="6.15289" stroke-width="0.5" stroke="black" fill="blue"/>
  <circle cx="415.47" cy="538.084" r="3.74184" stroke-width="0.5" stroke="blue" fill="blue"/>
   </g>
   <g id="cell200">
  <circle cx="490.453" cy="440.142" r="6.67717" stroke-width="0.5" stroke="black" fill="Red"/>
  <circle cx="490.453" cy="440.142" r="4.00951" stroke-width="0.5" stroke="Red" fill="Red"/>
   </g>
   <g id="cell201">
  <circle cx="467.537" cy="461.925" r="6.67717" stroke-width="0.5" stroke="black" fill="blue"/>
  <circle cx="467.537" cy="461.925" r="4.00951" stroke-width="0.5" stroke="blue" fill="blue"/>
   </g>
  </g>
 </g>
  <rect x="775" y="1035" width="200" height="10" stroke-width="2" stroke="rgb(255,255,255)" fill="rgb(0,0,0)"/>
  <text x="781.25" y="1028.75"
   font-family="Arial" font-size="25" fill="black" >
   200 &#956;m
  </text>
  <text x="25" y="1045"
   font-family="Arial" font-size="18.75" fill="black" >
   0 days, 0 hours, 2 minutes, and 31.9660 seconds
  </text>
  <rect x="0" y="70" width="1000" height="1000" stroke-width="2" stroke="rgb(0,0,0)" fill="none"/>
</svg>
