<?xml version="1.0" encoding="UTF-8" standalone="no"?>
<!-- Created with PhysiCell (http://PhysiCell.MathCancer.org/) -->
<svg 
 xmlns:dc="http://purl.org/dc/elements/1.1/" 
 xmlns:cc="http://creativecommons.org/ns#" 
 xmlns:rdf="http://www.w3.org/1999/02/22-rdf-syntax-ns#" 
 xmlns:svg="http://www.w3.org/2000/svg" 
 xmlns="http://www.w3.org/2000/svg" 
 version="1.1" 
 width="1000" 
 height="1070" 
 id="svg2">
  <rect x="0" y="0" width="1000" height="1070" stroke-width="2" stroke="white" fill="white"/>
  <text x="12.5" y="30"
   font-family="Arial" font-size="25" fill="black" >
   Current time: 0 days, 5 hours, and 55.00 minutes, z = 0.00 &#956;m
  </text>
  <text x="12.5" y="57.5"
   font-family="Arial" font-size="23.75" fill="black" >
   195 agents
  </text>
 <g id="tissue" 
    transform="translate(0,1070) scale(1,-1)">
  <g id="ECM">
  </g>
  <g id="cells">
   <g id="cell0">
  <circle cx="424.561" cy="447.03" r="8.41271" stroke-width="0.5" stroke="black" fill="yellow"/>
  <circle cx="424.561" cy="447.03" r="5.05167" stroke-width="0.5" stroke="yellow" fill="yellow"/>
   </g>
   <g id="cell1">
  <circle cx="424.445" cy="469.662" r="7.51976" stroke-width="0.5" stroke="black" fill="yellow"/>
  <circle cx="424.445" cy="469.662" r="4.57072" stroke-width="0.5" stroke="yellow" fill="yellow"/>
   </g>
   <g id="cell2">
  <circle cx="426.451" cy="481.375" r="8.41271" stroke-width="0.5" stroke="black" fill="blue"/>
  <circle cx="426.451" cy="481.375" r="5.05167" stroke-width="0.5" stroke="blue" fill="blue"/>
   </g>
   <g id="cell3">
  <circle cx="421.646" cy="494.676" r="7.67987" stroke-width="0.5" stroke="black" fill="Red"/>
  <circle cx="421.646" cy="494.676" r="4.66617" stroke-width="0.5" stroke="Red" fill="Red"/>
   </g>
   <g id="cell4">
  <circle cx="425.266" cy="507.222" r="8.41271" stroke-width="0.5" stroke="black" fill="Red"/>
  <circle cx="425.266" cy="507.222" r="5.05167" stroke-width="0.5" stroke="Red" fill="Red"/>
   </g>
   <g id="cell5">
  <circle cx="416.148" cy="530.654" r="7.61469" stroke-width="0.5" stroke="black" fill="blue"/>
  <circle cx="416.148" cy="530.654" r="4.62762" stroke-width="0.5" stroke="blue" fill="blue"/>
   </g>
   <g id="cell6">
  <circle cx="424.024" cy="540.244" r="8.41271" stroke-width="0.5" stroke="black" fill="Red"/>
  <circle cx="424.024" cy="540.244" r="5.05167" stroke-width="0.5" stroke="Red" fill="Red"/>
   </g>
   <g id="cell7">
  <circle cx="439.31" cy="446.3" r="8.00101" stroke-width="0.5" stroke="black" fill="yellow"/>
  <circle cx="439.31" cy="446.3" r="4.84939" stroke-width="0.5" stroke="yellow" fill="yellow"/>
   </g>
   <g id="cell8">
  <circle cx="432.371" cy="458.816" r="8.41271" stroke-width="0.5" stroke="black" fill="yellow"/>
  <circle cx="432.371" cy="458.816" r="5.05167" stroke-width="0.5" stroke="yellow" fill="yellow"/>
   </g>
   <g id="cell9">
  <circle cx="437.98" cy="471.215" r="8.41271" stroke-width="0.5" stroke="black" fill="Red"/>
  <circle cx="437.98" cy="471.215" r="5.05167" stroke-width="0.5" stroke="Red" fill="Red"/>
   </g>
   <g id="cell10">
  <circle cx="439.844" cy="483.511" r="8.41271" stroke-width="0.5" stroke="black" fill="Red"/>
  <circle cx="439.844" cy="483.511" r="5.05167" stroke-width="0.5" stroke="Red" fill="Red"/>
   </g>
   <g id="cell11">
  <circle cx="437.183" cy="502.596" r="8.41271" stroke-width="0.5" stroke="black" fill="Red"/>
  <circle cx="437.183" cy="502.596" r="5.05167" stroke-width="0.5" stroke="Red" fill="Red"/>
   </g>
   <g id="cell12">
  <circle cx="432.161" cy="517.674" r="7.87851" stroke-width="0.5" stroke="black" fill="Red"/>
  <circle cx="432.161" cy="517.674" r="4.78096" stroke-width="0.5" stroke="Red" fill="Red"/>
   </g>
   <g id="cell13">
  <circle cx="435.653" cy="534.821" r="8.41271" stroke-width="0.5" stroke="black" fill="Red"/>
  <circle cx="435.653" cy="534.821" r="5.05167" stroke-width="0.5" stroke="Red" fill="Red"/>
   </g>
   <g id="cell14">
  <circle cx="436.503" cy="548.583" r="8.41271" stroke-width="0.5" stroke="black" fill="Red"/>
  <circle cx="436.503" cy="548.583" r="5.05167" stroke-width="0.5" stroke="Red" fill="Red"/>
   </g>
   <g id="cell15">
  <circle cx="439.342" cy="561.983" r="8.41271" stroke-width="0.5" stroke="black" fill="blue"/>
  <circle cx="439.342" cy="561.983" r="5.05167" stroke-width="0.5" stroke="blue" fill="blue"/>
   </g>
   <g id="cell16">
  <circle cx="450.306" cy="427.52" r="7.52964" stroke-width="0.5" stroke="black" fill="yellow"/>
  <circle cx="450.306" cy="427.52" r="4.60108" stroke-width="0.5" stroke="yellow" fill="yellow"/>
   </g>
   <g id="cell17">
  <circle cx="450.042" cy="441.347" r="7.21189" stroke-width="0.5" stroke="black" fill="blue"/>
  <circle cx="450.042" cy="441.347" r="4.37993" stroke-width="0.5" stroke="blue" fill="blue"/>
   </g>
   <g id="cell18">
  <circle cx="446.036" cy="457.592" r="8.41271" stroke-width="0.5" stroke="black" fill="Red"/>
  <circle cx="446.036" cy="457.592" r="5.05167" stroke-width="0.5" stroke="Red" fill="Red"/>
   </g>
   <g id="cell19">
  <circle cx="449.22" cy="470.138" r="8.41271" stroke-width="0.5" stroke="black" fill="Red"/>
  <circle cx="449.22" cy="470.138" r="5.05167" stroke-width="0.5" stroke="Red" fill="Red"/>
   </g>
   <g id="cell20">
  <circle cx="451.726" cy="482.328" r="8.41271" stroke-width="0.5" stroke="black" fill="blue"/>
  <circle cx="451.726" cy="482.328" r="5.05167" stroke-width="0.5" stroke="blue" fill="blue"/>
   </g>
   <g id="cell21">
  <circle cx="447.096" cy="494.228" r="8.41271" stroke-width="0.5" stroke="black" fill="Red"/>
  <circle cx="447.096" cy="494.228" r="5.05167" stroke-width="0.5" stroke="Red" fill="Red"/>
   </g>
   <g id="cell22">
  <circle cx="453.404" cy="504.728" r="8.41271" stroke-width="0.5" stroke="black" fill="Red"/>
  <circle cx="453.404" cy="504.728" r="5.05167" stroke-width="0.5" stroke="Red" fill="Red"/>
   </g>
   <g id="cell23">
  <circle cx="442.869" cy="524.498" r="8.41271" stroke-width="0.5" stroke="black" fill="Red"/>
  <circle cx="442.869" cy="524.498" r="5.05167" stroke-width="0.5" stroke="Red" fill="Red"/>
   </g>
   <g id="cell24">
  <circle cx="448.564" cy="540.388" r="8.41271" stroke-width="0.5" stroke="black" fill="Red"/>
  <circle cx="448.564" cy="540.388" r="5.05167" stroke-width="0.5" stroke="Red" fill="Red"/>
   </g>
   <g id="cell25">
  <circle cx="449.997" cy="555.725" r="8.41271" stroke-width="0.5" stroke="black" fill="Red"/>
  <circle cx="449.997" cy="555.725" r="5.05167" stroke-width="0.5" stroke="Red" fill="Red"/>
   </g>
   <g id="cell26">
  <circle cx="445.483" cy="571.481" r="6.71158" stroke-width="0.5" stroke="black" fill="Red"/>
  <circle cx="445.483" cy="571.481" r="4.03435" stroke-width="0.5" stroke="Red" fill="Red"/>
   </g>
   <g id="cell27">
  <circle cx="464.518" cy="406.979" r="8.41271" stroke-width="0.5" stroke="black" fill="yellow"/>
  <circle cx="464.518" cy="406.979" r="5.05167" stroke-width="0.5" stroke="yellow" fill="yellow"/>
   </g>
   <g id="cell28">
  <circle cx="464.003" cy="421.719" r="8.41271" stroke-width="0.5" stroke="black" fill="Red"/>
  <circle cx="464.003" cy="421.719" r="5.05167" stroke-width="0.5" stroke="Red" fill="Red"/>
   </g>
   <g id="cell29">
  <circle cx="456.908" cy="448.543" r="7.63698" stroke-width="0.5" stroke="black" fill="Red"/>
  <circle cx="456.908" cy="448.543" r="4.64085" stroke-width="0.5" stroke="Red" fill="Red"/>
   </g>
   <g id="cell30">
  <circle cx="460.017" cy="459.609" r="8.41271" stroke-width="0.5" stroke="black" fill="Red"/>
  <circle cx="460.017" cy="459.609" r="5.05167" stroke-width="0.5" stroke="Red" fill="Red"/>
   </g>
   <g id="cell31">
  <circle cx="460.129" cy="470.809" r="8.41271" stroke-width="0.5" stroke="black" fill="Red"/>
  <circle cx="460.129" cy="470.809" r="5.05167" stroke-width="0.5" stroke="Red" fill="Red"/>
   </g>
   <g id="cell32">
  <circle cx="465.239" cy="481.287" r="8.41271" stroke-width="0.5" stroke="black" fill="Red"/>
  <circle cx="465.239" cy="481.287" r="5.05167" stroke-width="0.5" stroke="Red" fill="Red"/>
   </g>
   <g id="cell33">
  <circle cx="460.32" cy="492.37" r="8.41271" stroke-width="0.5" stroke="black" fill="blue"/>
  <circle cx="460.32" cy="492.37" r="5.05167" stroke-width="0.5" stroke="blue" fill="blue"/>
   </g>
   <g id="cell34">
  <circle cx="453.008" cy="518.835" r="5.66683" stroke-width="0.5" stroke="black" fill="Red"/>
  <circle cx="453.008" cy="518.835" r="3.44866" stroke-width="0.5" stroke="Red" fill="Red"/>
   </g>
   <g id="cell35">
  <circle cx="461.432" cy="536.934" r="7.21189" stroke-width="0.5" stroke="black" fill="blue"/>
  <circle cx="461.432" cy="536.934" r="4.37993" stroke-width="0.5" stroke="blue" fill="blue"/>
   </g>
   <g id="cell36">
  <circle cx="460.88" cy="547.511" r="8.41271" stroke-width="0.5" stroke="black" fill="Red"/>
  <circle cx="460.88" cy="547.511" r="5.05167" stroke-width="0.5" stroke="Red" fill="Red"/>
   </g>
   <g id="cell37">
  <circle cx="464.073" cy="559.82" r="8.41271" stroke-width="0.5" stroke="black" fill="Red"/>
  <circle cx="464.073" cy="559.82" r="5.05167" stroke-width="0.5" stroke="Red" fill="Red"/>
   </g>
   <g id="cell38">
  <circle cx="466.243" cy="574.059" r="8.41271" stroke-width="0.5" stroke="black" fill="yellow"/>
  <circle cx="466.243" cy="574.059" r="5.05167" stroke-width="0.5" stroke="yellow" fill="yellow"/>
   </g>
   <g id="cell39">
  <circle cx="466.927" cy="587.823" r="7.46878" stroke-width="0.5" stroke="black" fill="blue"/>
  <circle cx="466.927" cy="587.823" r="4.53982" stroke-width="0.5" stroke="blue" fill="blue"/>
   </g>
   <g id="cell40">
  <circle cx="478.108" cy="400.089" r="8.41271" stroke-width="0.5" stroke="black" fill="blue"/>
  <circle cx="478.108" cy="400.089" r="5.05167" stroke-width="0.5" stroke="blue" fill="blue"/>
   </g>
   <g id="cell41">
  <circle cx="477.298" cy="413.769" r="8.41271" stroke-width="0.5" stroke="black" fill="yellow"/>
  <circle cx="477.298" cy="413.769" r="5.05167" stroke-width="0.5" stroke="yellow" fill="yellow"/>
   </g>
   <g id="cell42">
  <circle cx="479.269" cy="440.016" r="7.0545" stroke-width="0.5" stroke="black" fill="Red"/>
  <circle cx="479.269" cy="440.016" r="4.27772" stroke-width="0.5" stroke="Red" fill="Red"/>
   </g>
   <g id="cell43">
  <circle cx="470.52" cy="455.79" r="8.41271" stroke-width="0.5" stroke="black" fill="Red"/>
  <circle cx="470.52" cy="455.79" r="5.05167" stroke-width="0.5" stroke="Red" fill="Red"/>
   </g>
   <g id="cell44">
  <circle cx="472.31" cy="468.426" r="8.41271" stroke-width="0.5" stroke="black" fill="blue"/>
  <circle cx="472.31" cy="468.426" r="5.05167" stroke-width="0.5" stroke="blue" fill="blue"/>
   </g>
   <g id="cell45">
  <circle cx="477.014" cy="478.698" r="8.41271" stroke-width="0.5" stroke="black" fill="Red"/>
  <circle cx="477.014" cy="478.698" r="5.05167" stroke-width="0.5" stroke="Red" fill="Red"/>
   </g>
   <g id="cell46">
  <circle cx="472.616" cy="492.859" r="8.41271" stroke-width="0.5" stroke="black" fill="Red"/>
  <circle cx="472.616" cy="492.859" r="5.05167" stroke-width="0.5" stroke="Red" fill="Red"/>
   </g>
   <g id="cell47">
  <circle cx="466.712" cy="503.6" r="7.98892" stroke-width="0.5" stroke="black" fill="Red"/>
  <circle cx="466.712" cy="503.6" r="4.84272" stroke-width="0.5" stroke="Red" fill="Red"/>
   </g>
   <g id="cell48">
  <circle cx="477.519" cy="520.248" r="7.77763" stroke-width="0.5" stroke="black" fill="blue"/>
  <circle cx="477.519" cy="520.248" r="4.7232" stroke-width="0.5" stroke="blue" fill="blue"/>
   </g>
   <g id="cell49">
  <circle cx="472.345" cy="543.358" r="8.41271" stroke-width="0.5" stroke="black" fill="Red"/>
  <circle cx="472.345" cy="543.358" r="5.05167" stroke-width="0.5" stroke="Red" fill="Red"/>
   </g>
   <g id="cell50">
  <circle cx="483.372" cy="556.147" r="7.11815" stroke-width="0.5" stroke="black" fill="blue"/>
  <circle cx="483.372" cy="556.147" r="4.31954" stroke-width="0.5" stroke="blue" fill="blue"/>
   </g>
   <g id="cell51">
  <circle cx="477.311" cy="566.619" r="8.41271" stroke-width="0.5" stroke="black" fill="Red"/>
  <circle cx="477.311" cy="566.619" r="5.05167" stroke-width="0.5" stroke="Red" fill="Red"/>
   </g>
   <g id="cell52">
  <circle cx="477.795" cy="583.155" r="8.41271" stroke-width="0.5" stroke="black" fill="Red"/>
  <circle cx="477.795" cy="583.155" r="5.05167" stroke-width="0.5" stroke="Red" fill="Red"/>
   </g>
   <g id="cell53">
  <circle cx="490.059" cy="405.872" r="8.41271" stroke-width="0.5" stroke="black" fill="Red"/>
  <circle cx="490.059" cy="405.872" r="5.05167" stroke-width="0.5" stroke="Red" fill="Red"/>
   </g>
   <g id="cell54">
  <circle cx="479.34" cy="427.932" r="8.41271" stroke-width="0.5" stroke="black" fill="Red"/>
  <circle cx="479.34" cy="427.932" r="5.05167" stroke-width="0.5" stroke="Red" fill="Red"/>
   </g>
   <g id="cell55">
  <circle cx="481.127" cy="449.922" r="7.63698" stroke-width="0.5" stroke="black" fill="Red"/>
  <circle cx="481.127" cy="449.922" r="4.64085" stroke-width="0.5" stroke="Red" fill="Red"/>
   </g>
   <g id="cell56">
  <circle cx="493.303" cy="458.056" r="7.84675" stroke-width="0.5" stroke="black" fill="blue"/>
  <circle cx="493.303" cy="458.056" r="4.7629" stroke-width="0.5" stroke="blue" fill="blue"/>
   </g>
   <g id="cell57">
  <circle cx="487.636" cy="471.65" r="8.41271" stroke-width="0.5" stroke="black" fill="Red"/>
  <circle cx="487.636" cy="471.65" r="5.05167" stroke-width="0.5" stroke="Red" fill="Red"/>
   </g>
   <g id="cell58">
  <circle cx="484.117" cy="488.211" r="8.41271" stroke-width="0.5" stroke="black" fill="Red"/>
  <circle cx="484.117" cy="488.211" r="5.05167" stroke-width="0.5" stroke="Red" fill="Red"/>
   </g>
   <g id="cell59">
  <circle cx="482.372" cy="499.599" r="7.1497" stroke-width="0.5" stroke="black" fill="Red"/>
  <circle cx="482.372" cy="499.599" r="4.34001" stroke-width="0.5" stroke="Red" fill="Red"/>
   </g>
   <g id="cell60">
  <circle cx="488.03" cy="514.235" r="8.41271" stroke-width="0.5" stroke="black" fill="Red"/>
  <circle cx="488.03" cy="514.235" r="5.05167" stroke-width="0.5" stroke="Red" fill="Red"/>
   </g>
   <g id="cell61">
  <circle cx="484.871" cy="530.736" r="8.41271" stroke-width="0.5" stroke="black" fill="Red"/>
  <circle cx="484.871" cy="530.736" r="5.05167" stroke-width="0.5" stroke="Red" fill="Red"/>
   </g>
   <g id="cell62">
  <circle cx="484.741" cy="544.723" r="8.41271" stroke-width="0.5" stroke="black" fill="Red"/>
  <circle cx="484.741" cy="544.723" r="5.05167" stroke-width="0.5" stroke="Red" fill="Red"/>
   </g>
   <g id="cell63">
  <circle cx="492.271" cy="563.215" r="8.41271" stroke-width="0.5" stroke="black" fill="Red"/>
  <circle cx="492.271" cy="563.215" r="5.05167" stroke-width="0.5" stroke="Red" fill="Red"/>
   </g>
   <g id="cell64">
  <circle cx="488.847" cy="574.109" r="8.41271" stroke-width="0.5" stroke="black" fill="blue"/>
  <circle cx="488.847" cy="574.109" r="5.05167" stroke-width="0.5" stroke="blue" fill="blue"/>
   </g>
   <g id="cell65">
  <circle cx="488.929" cy="597.247" r="6.95901" stroke-width="0.5" stroke="black" fill="Red"/>
  <circle cx="488.929" cy="597.247" r="4.21341" stroke-width="0.5" stroke="Red" fill="Red"/>
   </g>
   <g id="cell66">
  <circle cx="502.024" cy="413.946" r="8.41271" stroke-width="0.5" stroke="black" fill="blue"/>
  <circle cx="502.024" cy="413.946" r="5.05167" stroke-width="0.5" stroke="blue" fill="blue"/>
   </g>
   <g id="cell67">
  <circle cx="489.214" cy="420.137" r="8.41271" stroke-width="0.5" stroke="black" fill="Red"/>
  <circle cx="489.214" cy="420.137" r="5.05167" stroke-width="0.5" stroke="Red" fill="Red"/>
   </g>
   <g id="cell68">
  <circle cx="499.338" cy="427.766" r="8.41271" stroke-width="0.5" stroke="black" fill="Red"/>
  <circle cx="499.338" cy="427.766" r="5.05167" stroke-width="0.5" stroke="Red" fill="Red"/>
   </g>
   <g id="cell69">
  <circle cx="493.413" cy="446.431" r="8.41271" stroke-width="0.5" stroke="black" fill="Red"/>
  <circle cx="493.413" cy="446.431" r="5.05167" stroke-width="0.5" stroke="Red" fill="Red"/>
   </g>
   <g id="cell70">
  <circle cx="497.837" cy="467.255" r="8.41271" stroke-width="0.5" stroke="black" fill="Red"/>
  <circle cx="497.837" cy="467.255" r="5.05167" stroke-width="0.5" stroke="Red" fill="Red"/>
   </g>
   <g id="cell71">
  <circle cx="494.403" cy="481.712" r="8.41271" stroke-width="0.5" stroke="black" fill="Red"/>
  <circle cx="494.403" cy="481.712" r="5.05167" stroke-width="0.5" stroke="Red" fill="Red"/>
   </g>
   <g id="cell72">
  <circle cx="497.433" cy="492.877" r="8.41271" stroke-width="0.5" stroke="black" fill="Red"/>
  <circle cx="497.433" cy="492.877" r="5.05167" stroke-width="0.5" stroke="Red" fill="Red"/>
   </g>
   <g id="cell73">
  <circle cx="501.048" cy="511.517" r="8.41271" stroke-width="0.5" stroke="black" fill="Red"/>
  <circle cx="501.048" cy="511.517" r="5.05167" stroke-width="0.5" stroke="Red" fill="Red"/>
   </g>
   <g id="cell74">
  <circle cx="496.685" cy="525.012" r="8.41271" stroke-width="0.5" stroke="black" fill="Red"/>
  <circle cx="496.685" cy="525.012" r="5.05167" stroke-width="0.5" stroke="Red" fill="Red"/>
   </g>
   <g id="cell75">
  <circle cx="496.373" cy="537.811" r="8.41271" stroke-width="0.5" stroke="black" fill="blue"/>
  <circle cx="496.373" cy="537.811" r="5.05167" stroke-width="0.5" stroke="blue" fill="blue"/>
   </g>
   <g id="cell76">
  <circle cx="495.476" cy="552.295" r="8.41271" stroke-width="0.5" stroke="black" fill="Red"/>
  <circle cx="495.476" cy="552.295" r="5.05167" stroke-width="0.5" stroke="Red" fill="Red"/>
   </g>
   <g id="cell77">
  <circle cx="502.546" cy="569.564" r="7.75912" stroke-width="0.5" stroke="black" fill="Red"/>
  <circle cx="502.546" cy="569.564" r="4.71248" stroke-width="0.5" stroke="Red" fill="Red"/>
   </g>
   <g id="cell78">
  <circle cx="501.023" cy="580.704" r="8.41271" stroke-width="0.5" stroke="black" fill="Red"/>
  <circle cx="501.023" cy="580.704" r="5.05167" stroke-width="0.5" stroke="Red" fill="Red"/>
   </g>
   <g id="cell79">
  <circle cx="502.149" cy="594.489" r="8.41271" stroke-width="0.5" stroke="black" fill="blue"/>
  <circle cx="502.149" cy="594.489" r="5.05167" stroke-width="0.5" stroke="blue" fill="blue"/>
   </g>
   <g id="cell80">
  <circle cx="516.387" cy="411.505" r="7.33129" stroke-width="0.5" stroke="black" fill="yellow"/>
  <circle cx="516.387" cy="411.505" r="4.45516" stroke-width="0.5" stroke="yellow" fill="yellow"/>
   </g>
   <g id="cell81">
  <circle cx="513.896" cy="433.435" r="8.41271" stroke-width="0.5" stroke="black" fill="Red"/>
  <circle cx="513.896" cy="433.435" r="5.05167" stroke-width="0.5" stroke="Red" fill="Red"/>
   </g>
   <g id="cell82">
  <circle cx="510.274" cy="444.972" r="7.02257" stroke-width="0.5" stroke="black" fill="Red"/>
  <circle cx="510.274" cy="444.972" r="4.25644" stroke-width="0.5" stroke="Red" fill="Red"/>
   </g>
   <g id="cell83">
  <circle cx="504.411" cy="453.886" r="8.41271" stroke-width="0.5" stroke="black" fill="Red"/>
  <circle cx="504.411" cy="453.886" r="5.05167" stroke-width="0.5" stroke="Red" fill="Red"/>
   </g>
   <g id="cell84">
  <circle cx="507.887" cy="464.336" r="6.75639" stroke-width="0.5" stroke="black" fill="blue"/>
  <circle cx="507.887" cy="464.336" r="4.06813" stroke-width="0.5" stroke="blue" fill="blue"/>
   </g>
   <g id="cell85">
  <circle cx="505.544" cy="476.607" r="8.41271" stroke-width="0.5" stroke="black" fill="Red"/>
  <circle cx="505.544" cy="476.607" r="5.05167" stroke-width="0.5" stroke="Red" fill="Red"/>
   </g>
   <g id="cell86">
  <circle cx="507.773" cy="500.097" r="8.41271" stroke-width="0.5" stroke="black" fill="Red"/>
  <circle cx="507.773" cy="500.097" r="5.05167" stroke-width="0.5" stroke="Red" fill="Red"/>
   </g>
   <g id="cell87">
  <circle cx="514.463" cy="510.75" r="7.81315" stroke-width="0.5" stroke="black" fill="Red"/>
  <circle cx="514.463" cy="510.75" r="4.74367" stroke-width="0.5" stroke="Red" fill="Red"/>
   </g>
   <g id="cell88">
  <circle cx="508.707" cy="534.954" r="8.41271" stroke-width="0.5" stroke="black" fill="Red"/>
  <circle cx="508.707" cy="534.954" r="5.05167" stroke-width="0.5" stroke="Red" fill="Red"/>
   </g>
   <g id="cell89">
  <circle cx="509.248" cy="547.355" r="8.41271" stroke-width="0.5" stroke="black" fill="yellow"/>
  <circle cx="509.248" cy="547.355" r="5.05167" stroke-width="0.5" stroke="yellow" fill="yellow"/>
   </g>
   <g id="cell90">
  <circle cx="517.666" cy="557.967" r="8.41271" stroke-width="0.5" stroke="black" fill="yellow"/>
  <circle cx="517.666" cy="557.967" r="5.05167" stroke-width="0.5" stroke="yellow" fill="yellow"/>
   </g>
   <g id="cell91">
  <circle cx="514.291" cy="571.646" r="8.41271" stroke-width="0.5" stroke="black" fill="yellow"/>
  <circle cx="514.291" cy="571.646" r="5.05167" stroke-width="0.5" stroke="yellow" fill="yellow"/>
   </g>
   <g id="cell92">
  <circle cx="513.138" cy="585.703" r="8.41271" stroke-width="0.5" stroke="black" fill="yellow"/>
  <circle cx="513.138" cy="585.703" r="5.05167" stroke-width="0.5" stroke="yellow" fill="yellow"/>
   </g>
   <g id="cell93">
  <circle cx="529.417" cy="410.512" r="8.41271" stroke-width="0.5" stroke="black" fill="blue"/>
  <circle cx="529.417" cy="410.512" r="5.05167" stroke-width="0.5" stroke="blue" fill="blue"/>
   </g>
   <g id="cell94">
  <circle cx="536.112" cy="425.121" r="7.83019" stroke-width="0.5" stroke="black" fill="yellow"/>
  <circle cx="536.112" cy="425.121" r="4.75343" stroke-width="0.5" stroke="yellow" fill="yellow"/>
   </g>
   <g id="cell95">
  <circle cx="527.933" cy="434.951" r="8.41271" stroke-width="0.5" stroke="black" fill="Red"/>
  <circle cx="527.933" cy="434.951" r="5.05167" stroke-width="0.5" stroke="Red" fill="Red"/>
   </g>
   <g id="cell96">
  <circle cx="520.89" cy="444.606" r="7.38432" stroke-width="0.5" stroke="black" fill="blue"/>
  <circle cx="520.89" cy="444.606" r="4.51561" stroke-width="0.5" stroke="blue" fill="blue"/>
   </g>
   <g id="cell97">
  <circle cx="529.128" cy="461.747" r="8.41271" stroke-width="0.5" stroke="black" fill="Red"/>
  <circle cx="529.128" cy="461.747" r="5.05167" stroke-width="0.5" stroke="Red" fill="Red"/>
   </g>
   <g id="cell98">
  <circle cx="523.048" cy="491.636" r="7.05781" stroke-width="0.5" stroke="black" fill="blue"/>
  <circle cx="523.048" cy="491.636" r="4.32642" stroke-width="0.5" stroke="blue" fill="blue"/>
   </g>
   <g id="cell99">
  <circle cx="533.595" cy="497.67" r="8.41271" stroke-width="0.5" stroke="black" fill="blue"/>
  <circle cx="533.595" cy="497.67" r="5.05167" stroke-width="0.5" stroke="blue" fill="blue"/>
   </g>
   <g id="cell100">
  <circle cx="520.656" cy="501.491" r="7.21189" stroke-width="0.5" stroke="black" fill="blue"/>
  <circle cx="520.656" cy="501.491" r="4.37993" stroke-width="0.5" stroke="blue" fill="blue"/>
   </g>
   <g id="cell101">
  <circle cx="520.326" cy="528.05" r="8.41271" stroke-width="0.5" stroke="black" fill="Red"/>
  <circle cx="520.326" cy="528.05" r="5.05167" stroke-width="0.5" stroke="Red" fill="Red"/>
   </g>
   <g id="cell102">
  <circle cx="531.339" cy="535.725" r="7.95045" stroke-width="0.5" stroke="black" fill="Red"/>
  <circle cx="531.339" cy="535.725" r="4.82139" stroke-width="0.5" stroke="Red" fill="Red"/>
   </g>
   <g id="cell103">
  <circle cx="527.932" cy="550.424" r="8.41271" stroke-width="0.5" stroke="black" fill="Red"/>
  <circle cx="527.932" cy="550.424" r="5.05167" stroke-width="0.5" stroke="Red" fill="Red"/>
   </g>
   <g id="cell104">
  <circle cx="528.65" cy="566.443" r="8.41271" stroke-width="0.5" stroke="black" fill="yellow"/>
  <circle cx="528.65" cy="566.443" r="5.05167" stroke-width="0.5" stroke="yellow" fill="yellow"/>
   </g>
   <g id="cell105">
  <circle cx="525.902" cy="580.949" r="8.41271" stroke-width="0.5" stroke="black" fill="blue"/>
  <circle cx="525.902" cy="580.949" r="5.05167" stroke-width="0.5" stroke="blue" fill="blue"/>
   </g>
   <g id="cell106">
  <circle cx="543.172" cy="412.795" r="7.24243" stroke-width="0.5" stroke="black" fill="yellow"/>
  <circle cx="543.172" cy="412.795" r="4.39934" stroke-width="0.5" stroke="yellow" fill="yellow"/>
   </g>
   <g id="cell107">
  <circle cx="540.511" cy="437.871" r="8.41271" stroke-width="0.5" stroke="black" fill="Red"/>
  <circle cx="540.511" cy="437.871" r="5.05167" stroke-width="0.5" stroke="Red" fill="Red"/>
   </g>
   <g id="cell108">
  <circle cx="531.622" cy="449.221" r="8.41271" stroke-width="0.5" stroke="black" fill="Red"/>
  <circle cx="531.622" cy="449.221" r="5.05167" stroke-width="0.5" stroke="Red" fill="Red"/>
   </g>
   <g id="cell109">
  <circle cx="548.801" cy="466.042" r="8.41271" stroke-width="0.5" stroke="black" fill="Red"/>
  <circle cx="548.801" cy="466.042" r="5.05167" stroke-width="0.5" stroke="Red" fill="Red"/>
   </g>
   <g id="cell110">
  <circle cx="528.863" cy="483.562" r="8.41271" stroke-width="0.5" stroke="black" fill="Red"/>
  <circle cx="528.863" cy="483.562" r="5.05167" stroke-width="0.5" stroke="Red" fill="Red"/>
   </g>
   <g id="cell111">
  <circle cx="539.276" cy="486.735" r="8.41271" stroke-width="0.5" stroke="black" fill="Red"/>
  <circle cx="539.276" cy="486.735" r="5.05167" stroke-width="0.5" stroke="Red" fill="Red"/>
   </g>
   <g id="cell112">
  <circle cx="541.435" cy="507.589" r="8.41271" stroke-width="0.5" stroke="black" fill="Red"/>
  <circle cx="541.435" cy="507.589" r="5.05167" stroke-width="0.5" stroke="Red" fill="Red"/>
   </g>
   <g id="cell113">
  <circle cx="529.728" cy="510.861" r="8.41271" stroke-width="0.5" stroke="black" fill="Red"/>
  <circle cx="529.728" cy="510.861" r="5.05167" stroke-width="0.5" stroke="Red" fill="Red"/>
   </g>
   <g id="cell114">
  <circle cx="532.675" cy="523.601" r="8.41271" stroke-width="0.5" stroke="black" fill="Red"/>
  <circle cx="532.675" cy="523.601" r="5.05167" stroke-width="0.5" stroke="Red" fill="Red"/>
   </g>
   <g id="cell115">
  <circle cx="538.739" cy="543.216" r="8.41271" stroke-width="0.5" stroke="black" fill="Red"/>
  <circle cx="538.739" cy="543.216" r="5.05167" stroke-width="0.5" stroke="Red" fill="Red"/>
   </g>
   <g id="cell116">
  <circle cx="545.247" cy="562.885" r="6.80881" stroke-width="0.5" stroke="black" fill="blue"/>
  <circle cx="545.247" cy="562.885" r="4.10709" stroke-width="0.5" stroke="blue" fill="blue"/>
   </g>
   <g id="cell117">
  <circle cx="540.745" cy="573.388" r="8.41271" stroke-width="0.5" stroke="black" fill="Red"/>
  <circle cx="540.745" cy="573.388" r="5.05167" stroke-width="0.5" stroke="Red" fill="Red"/>
   </g>
   <g id="cell118">
  <circle cx="549.042" cy="426.785" r="8.41271" stroke-width="0.5" stroke="black" fill="yellow"/>
  <circle cx="549.042" cy="426.785" r="5.05167" stroke-width="0.5" stroke="yellow" fill="yellow"/>
   </g>
   <g id="cell119">
  <circle cx="555.925" cy="438.366" r="8.41271" stroke-width="0.5" stroke="black" fill="yellow"/>
  <circle cx="555.925" cy="438.366" r="5.05167" stroke-width="0.5" stroke="yellow" fill="yellow"/>
   </g>
   <g id="cell120">
  <circle cx="554.414" cy="457.564" r="7.81315" stroke-width="0.5" stroke="black" fill="Red"/>
  <circle cx="554.414" cy="457.564" r="4.74367" stroke-width="0.5" stroke="Red" fill="Red"/>
   </g>
   <g id="cell121">
  <circle cx="560.101" cy="473.161" r="8.41271" stroke-width="0.5" stroke="black" fill="Red"/>
  <circle cx="560.101" cy="473.161" r="5.05167" stroke-width="0.5" stroke="Red" fill="Red"/>
   </g>
   <g id="cell122">
  <circle cx="547.794" cy="479.651" r="8.41271" stroke-width="0.5" stroke="black" fill="blue"/>
  <circle cx="547.794" cy="479.651" r="5.05167" stroke-width="0.5" stroke="blue" fill="blue"/>
   </g>
   <g id="cell123">
  <circle cx="548.788" cy="495.84" r="8.41271" stroke-width="0.5" stroke="black" fill="Red"/>
  <circle cx="548.788" cy="495.84" r="5.05167" stroke-width="0.5" stroke="Red" fill="Red"/>
   </g>
   <g id="cell124">
  <circle cx="554.58" cy="510.302" r="8.41271" stroke-width="0.5" stroke="black" fill="Red"/>
  <circle cx="554.58" cy="510.302" r="5.05167" stroke-width="0.5" stroke="Red" fill="Red"/>
   </g>
   <g id="cell125">
  <circle cx="543.904" cy="519.862" r="7.83019" stroke-width="0.5" stroke="black" fill="blue"/>
  <circle cx="543.904" cy="519.862" r="4.75343" stroke-width="0.5" stroke="blue" fill="blue"/>
   </g>
   <g id="cell126">
  <circle cx="543.949" cy="531.663" r="8.41271" stroke-width="0.5" stroke="black" fill="Red"/>
  <circle cx="543.949" cy="531.663" r="5.05167" stroke-width="0.5" stroke="Red" fill="Red"/>
   </g>
   <g id="cell127">
  <circle cx="547.643" cy="550.424" r="8.41271" stroke-width="0.5" stroke="black" fill="Red"/>
  <circle cx="547.643" cy="550.424" r="5.05167" stroke-width="0.5" stroke="Red" fill="Red"/>
   </g>
   <g id="cell128">
  <circle cx="556.263" cy="561.669" r="8.41271" stroke-width="0.5" stroke="black" fill="blue"/>
  <circle cx="556.263" cy="561.669" r="5.05167" stroke-width="0.5" stroke="blue" fill="blue"/>
   </g>
   <g id="cell129">
  <circle cx="576.944" cy="454.345" r="7.79564" stroke-width="0.5" stroke="black" fill="yellow"/>
  <circle cx="576.944" cy="454.345" r="4.73359" stroke-width="0.5" stroke="yellow" fill="yellow"/>
   </g>
   <g id="cell130">
  <circle cx="565.646" cy="462.512" r="8.41271" stroke-width="0.5" stroke="black" fill="Red"/>
  <circle cx="565.646" cy="462.512" r="5.05167" stroke-width="0.5" stroke="Red" fill="Red"/>
   </g>
   <g id="cell131">
  <circle cx="571.389" cy="479.17" r="8.41271" stroke-width="0.5" stroke="black" fill="Red"/>
  <circle cx="571.389" cy="479.17" r="5.05167" stroke-width="0.5" stroke="Red" fill="Red"/>
   </g>
   <g id="cell132">
  <circle cx="559.271" cy="486.934" r="8.41271" stroke-width="0.5" stroke="black" fill="Red"/>
  <circle cx="559.271" cy="486.934" r="5.05167" stroke-width="0.5" stroke="Red" fill="Red"/>
   </g>
   <g id="cell133">
  <circle cx="564.066" cy="501.905" r="8.41271" stroke-width="0.5" stroke="black" fill="blue"/>
  <circle cx="564.066" cy="501.905" r="5.05167" stroke-width="0.5" stroke="blue" fill="blue"/>
   </g>
   <g id="cell134">
  <circle cx="567.545" cy="515.086" r="8.41271" stroke-width="0.5" stroke="black" fill="Red"/>
  <circle cx="567.545" cy="515.086" r="5.05167" stroke-width="0.5" stroke="Red" fill="Red"/>
   </g>
   <g id="cell135">
  <circle cx="567.893" cy="529.066" r="8.41271" stroke-width="0.5" stroke="black" fill="Red"/>
  <circle cx="567.893" cy="529.066" r="5.05167" stroke-width="0.5" stroke="Red" fill="Red"/>
   </g>
   <g id="cell136">
  <circle cx="556.27" cy="538.196" r="8.41271" stroke-width="0.5" stroke="black" fill="Red"/>
  <circle cx="556.27" cy="538.196" r="5.05167" stroke-width="0.5" stroke="Red" fill="Red"/>
   </g>
   <g id="cell137">
  <circle cx="569.163" cy="556.636" r="6.92764" stroke-width="0.5" stroke="black" fill="blue"/>
  <circle cx="569.163" cy="556.636" r="4.1918" stroke-width="0.5" stroke="blue" fill="blue"/>
   </g>
   <g id="cell138">
  <circle cx="575.757" cy="468.084" r="8.41271" stroke-width="0.5" stroke="black" fill="blue"/>
  <circle cx="575.757" cy="468.084" r="5.05167" stroke-width="0.5" stroke="blue" fill="blue"/>
   </g>
   <g id="cell139">
  <circle cx="584.651" cy="482.141" r="8.41271" stroke-width="0.5" stroke="black" fill="yellow"/>
  <circle cx="584.651" cy="482.141" r="5.05167" stroke-width="0.5" stroke="yellow" fill="yellow"/>
   </g>
   <g id="cell140">
  <circle cx="571.892" cy="491.693" r="8.00101" stroke-width="0.5" stroke="black" fill="Red"/>
  <circle cx="571.892" cy="491.693" r="4.84939" stroke-width="0.5" stroke="Red" fill="Red"/>
   </g>
   <g id="cell141">
  <circle cx="577.398" cy="505.445" r="8.41271" stroke-width="0.5" stroke="black" fill="Red"/>
  <circle cx="577.398" cy="505.445" r="5.05167" stroke-width="0.5" stroke="Red" fill="Red"/>
   </g>
   <g id="cell142">
  <circle cx="579.254" cy="519.38" r="7.67987" stroke-width="0.5" stroke="black" fill="blue"/>
  <circle cx="579.254" cy="519.38" r="4.66617" stroke-width="0.5" stroke="blue" fill="blue"/>
   </g>
   <g id="cell143">
  <circle cx="569.525" cy="542.878" r="8.41271" stroke-width="0.5" stroke="black" fill="blue"/>
  <circle cx="569.525" cy="542.878" r="5.05167" stroke-width="0.5" stroke="blue" fill="blue"/>
   </g>
   <g id="cell144">
  <circle cx="429.509" cy="433.649" r="7.06363" stroke-width="0.5" stroke="black" fill="blue"/>
  <circle cx="429.509" cy="433.649" r="4.32247" stroke-width="0.5" stroke="blue" fill="blue"/>
   </g>
   <g id="cell145">
  <circle cx="582.511" cy="493.58" r="6.38842" stroke-width="0.5" stroke="black" fill="Red"/>
  <circle cx="582.511" cy="493.58" r="3.87572" stroke-width="0.5" stroke="Red" fill="Red"/>
   </g>
   <g id="cell146">
  <circle cx="477.307" cy="508.063" r="7.43017" stroke-width="0.5" stroke="black" fill="Red"/>
  <circle cx="477.307" cy="508.063" r="4.54248" stroke-width="0.5" stroke="Red" fill="Red"/>
   </g>
   <g id="cell147">
  <circle cx="539.246" cy="458.766" r="7.71823" stroke-width="0.5" stroke="black" fill="blue"/>
  <circle cx="539.246" cy="458.766" r="4.70681" stroke-width="0.5" stroke="blue" fill="blue"/>
   </g>
   <g id="cell148">
  <circle cx="521.044" cy="541.803" r="7.95045" stroke-width="0.5" stroke="black" fill="blue"/>
  <circle cx="521.044" cy="541.803" r="4.82139" stroke-width="0.5" stroke="blue" fill="blue"/>
   </g>
   <g id="cell149">
  <circle cx="537.319" cy="471.908" r="7.71823" stroke-width="0.5" stroke="black" fill="Red"/>
  <circle cx="537.319" cy="471.908" r="4.70681" stroke-width="0.5" stroke="Red" fill="Red"/>
   </g>
   <g id="cell150">
  <circle cx="443.563" cy="512.23" r="7.87851" stroke-width="0.5" stroke="black" fill="blue"/>
  <circle cx="443.563" cy="512.23" r="4.78096" stroke-width="0.5" stroke="blue" fill="blue"/>
   </g>
   <g id="cell151">
  <circle cx="451.809" cy="414.415" r="7.87851" stroke-width="0.5" stroke="black" fill="blue"/>
  <circle cx="451.809" cy="414.415" r="4.78096" stroke-width="0.5" stroke="blue" fill="blue"/>
   </g>
   <g id="cell152">
  <circle cx="483.045" cy="461.116" r="7.84675" stroke-width="0.5" stroke="black" fill="Red"/>
  <circle cx="483.045" cy="461.116" r="4.7629" stroke-width="0.5" stroke="Red" fill="Red"/>
   </g>
   <g id="cell153">
  <circle cx="523.255" cy="422.554" r="7.83019" stroke-width="0.5" stroke="black" fill="yellow"/>
  <circle cx="523.255" cy="422.554" r="4.75343" stroke-width="0.5" stroke="yellow" fill="yellow"/>
   </g>
   <g id="cell154">
  <circle cx="556.045" cy="524.452" r="7.83019" stroke-width="0.5" stroke="black" fill="Red"/>
  <circle cx="556.045" cy="524.452" r="4.75343" stroke-width="0.5" stroke="Red" fill="Red"/>
   </g>
   <g id="cell155">
  <circle cx="438.682" cy="420.893" r="7.52964" stroke-width="0.5" stroke="black" fill="yellow"/>
  <circle cx="438.682" cy="420.893" r="4.60108" stroke-width="0.5" stroke="yellow" fill="yellow"/>
   </g>
   <g id="cell156">
  <circle cx="509.835" cy="521.402" r="7.81315" stroke-width="0.5" stroke="black" fill="blue"/>
  <circle cx="509.835" cy="521.402" r="4.74367" stroke-width="0.5" stroke="blue" fill="blue"/>
   </g>
   <g id="cell157">
  <circle cx="545.958" cy="448.995" r="7.81315" stroke-width="0.5" stroke="black" fill="blue"/>
  <circle cx="545.958" cy="448.995" r="4.74367" stroke-width="0.5" stroke="blue" fill="blue"/>
   </g>
   <g id="cell158">
  <circle cx="558.108" cy="448.67" r="5.96908" stroke-width="0.5" stroke="black" fill="yellow"/>
  <circle cx="558.108" cy="448.67" r="3.67917" stroke-width="0.5" stroke="yellow" fill="yellow"/>
   </g>
   <g id="cell159">
  <circle cx="470.814" cy="531.101" r="7.77763" stroke-width="0.5" stroke="black" fill="Red"/>
  <circle cx="470.814" cy="531.101" r="4.7232" stroke-width="0.5" stroke="Red" fill="Red"/>
   </g>
   <g id="cell160">
  <circle cx="505.334" cy="559.19" r="7.75912" stroke-width="0.5" stroke="black" fill="blue"/>
  <circle cx="505.334" cy="559.19" r="4.71248" stroke-width="0.5" stroke="blue" fill="blue"/>
   </g>
   <g id="cell161">
  <circle cx="517.31" cy="481.128" r="6.96845" stroke-width="0.5" stroke="black" fill="Red"/>
  <circle cx="517.31" cy="481.128" r="4.27264" stroke-width="0.5" stroke="Red" fill="Red"/>
   </g>
   <g id="cell162">
  <circle cx="580.163" cy="533.503" r="7.67987" stroke-width="0.5" stroke="black" fill="Red"/>
  <circle cx="580.163" cy="533.503" r="4.66617" stroke-width="0.5" stroke="Red" fill="Red"/>
   </g>
   <g id="cell163">
  <circle cx="468.204" cy="515.759" r="7.43017" stroke-width="0.5" stroke="black" fill="Red"/>
  <circle cx="468.204" cy="515.759" r="4.54248" stroke-width="0.5" stroke="Red" fill="Red"/>
   </g>
   <g id="cell164">
  <circle cx="432.442" cy="493.004" r="7.67987" stroke-width="0.5" stroke="black" fill="Red"/>
  <circle cx="432.442" cy="493.004" r="4.66617" stroke-width="0.5" stroke="Red" fill="Red"/>
   </g>
   <g id="cell165">
  <circle cx="468.72" cy="443.669" r="7.63698" stroke-width="0.5" stroke="black" fill="Red"/>
  <circle cx="468.72" cy="443.669" r="4.64085" stroke-width="0.5" stroke="Red" fill="Red"/>
   </g>
   <g id="cell166">
  <circle cx="489.145" cy="435.425" r="7.63698" stroke-width="0.5" stroke="black" fill="blue"/>
  <circle cx="489.145" cy="435.425" r="4.64085" stroke-width="0.5" stroke="blue" fill="blue"/>
   </g>
   <g id="cell167">
  <circle cx="517.872" cy="456.427" r="7.38432" stroke-width="0.5" stroke="black" fill="Red"/>
  <circle cx="517.872" cy="456.427" r="4.51561" stroke-width="0.5" stroke="Red" fill="Red"/>
   </g>
   <g id="cell168">
  <circle cx="427.364" cy="527.323" r="6.97743" stroke-width="0.5" stroke="black" fill="Red"/>
  <circle cx="427.364" cy="527.323" r="4.27899" stroke-width="0.5" stroke="Red" fill="Red"/>
   </g>
   <g id="cell169">
  <circle cx="417.939" cy="458.08" r="7.51976" stroke-width="0.5" stroke="black" fill="blue"/>
  <circle cx="417.939" cy="458.08" r="4.57072" stroke-width="0.5" stroke="blue" fill="blue"/>
   </g>
   <g id="cell170">
  <circle cx="514.651" cy="491.205" r="5.94918" stroke-width="0.5" stroke="black" fill="Red"/>
  <circle cx="514.651" cy="491.205" r="3.66814" stroke-width="0.5" stroke="Red" fill="Red"/>
   </g>
   <g id="cell171">
  <circle cx="454.85" cy="581.61" r="7.46878" stroke-width="0.5" stroke="black" fill="Red"/>
  <circle cx="454.85" cy="581.61" r="4.53982" stroke-width="0.5" stroke="Red" fill="Red"/>
   </g>
   <g id="cell172">
  <circle cx="569.146" cy="441.921" r="7.08606" stroke-width="0.5" stroke="black" fill="blue"/>
  <circle cx="569.146" cy="441.921" r="4.34205" stroke-width="0.5" stroke="blue" fill="blue"/>
   </g>
   <g id="cell173">
  <circle cx="419.465" cy="518.958" r="6.97743" stroke-width="0.5" stroke="black" fill="yellow"/>
  <circle cx="419.465" cy="518.958" r="4.27899" stroke-width="0.5" stroke="yellow" fill="yellow"/>
   </g>
   <g id="cell174">
  <circle cx="526.668" cy="474.477" r="6.96845" stroke-width="0.5" stroke="black" fill="blue"/>
  <circle cx="526.668" cy="474.477" r="4.27264" stroke-width="0.5" stroke="blue" fill="blue"/>
   </g>
   <g id="cell175">
  <circle cx="510.985" cy="422.175" r="7.33129" stroke-width="0.5" stroke="black" fill="Red"/>
  <circle cx="510.985" cy="422.175" r="4.45516" stroke-width="0.5" stroke="Red" fill="Red"/>
   </g>
   <g id="cell176">
  <circle cx="440.688" cy="433.301" r="7.06363" stroke-width="0.5" stroke="black" fill="Red"/>
  <circle cx="440.688" cy="433.301" r="4.32247" stroke-width="0.5" stroke="Red" fill="Red"/>
   </g>
   <g id="cell177">
  <circle cx="556.309" cy="417.247" r="7.24243" stroke-width="0.5" stroke="black" fill="blue"/>
  <circle cx="556.309" cy="417.247" r="4.39934" stroke-width="0.5" stroke="blue" fill="blue"/>
   </g>
   <g id="cell178">
  <circle cx="521.789" cy="517.508" r="7.21189" stroke-width="0.5" stroke="black" fill="Red"/>
  <circle cx="521.789" cy="517.508" r="4.37993" stroke-width="0.5" stroke="Red" fill="Red"/>
   </g>
   <g id="cell179">
  <circle cx="452.967" cy="529.242" r="7.21189" stroke-width="0.5" stroke="black" fill="Red"/>
  <circle cx="452.967" cy="529.242" r="4.37993" stroke-width="0.5" stroke="Red" fill="Red"/>
   </g>
   <g id="cell180">
  <circle cx="459.235" cy="435.337" r="7.21189" stroke-width="0.5" stroke="black" fill="Red"/>
  <circle cx="459.235" cy="435.337" r="4.37993" stroke-width="0.5" stroke="Red" fill="Red"/>
   </g>
   <g id="cell181">
  <circle cx="492.484" cy="501.914" r="7.1497" stroke-width="0.5" stroke="black" fill="blue"/>
  <circle cx="492.484" cy="501.914" r="4.34001" stroke-width="0.5" stroke="blue" fill="blue"/>
   </g>
   <g id="cell182">
  <circle cx="472.778" cy="554.782" r="7.11815" stroke-width="0.5" stroke="black" fill="blue"/>
  <circle cx="472.778" cy="554.782" r="4.31954" stroke-width="0.5" stroke="blue" fill="blue"/>
   </g>
   <g id="cell183">
  <circle cx="469.3" cy="432.758" r="7.0545" stroke-width="0.5" stroke="black" fill="blue"/>
  <circle cx="469.3" cy="432.758" r="4.27772" stroke-width="0.5" stroke="blue" fill="blue"/>
   </g>
   <g id="cell184">
  <circle cx="501.776" cy="438.932" r="7.02257" stroke-width="0.5" stroke="black" fill="blue"/>
  <circle cx="501.776" cy="438.932" r="4.25644" stroke-width="0.5" stroke="blue" fill="blue"/>
   </g>
   <g id="cell185">
  <circle cx="490.275" cy="586.084" r="6.95901" stroke-width="0.5" stroke="black" fill="Red"/>
  <circle cx="490.275" cy="586.084" r="4.21341" stroke-width="0.5" stroke="Red" fill="Red"/>
   </g>
   <g id="cell186">
  <circle cx="507.115" cy="487.144" r="5.94918" stroke-width="0.5" stroke="black" fill="blue"/>
  <circle cx="507.115" cy="487.144" r="3.66814" stroke-width="0.5" stroke="blue" fill="blue"/>
   </g>
   <g id="cell187">
  <circle cx="566.42" cy="451.545" r="5.96908" stroke-width="0.5" stroke="black" fill="yellow"/>
  <circle cx="566.42" cy="451.545" r="3.67917" stroke-width="0.5" stroke="yellow" fill="yellow"/>
   </g>
   <g id="cell188">
  <circle cx="560.6" cy="549.398" r="6.92764" stroke-width="0.5" stroke="black" fill="Red"/>
  <circle cx="560.6" cy="549.398" r="4.1918" stroke-width="0.5" stroke="Red" fill="Red"/>
   </g>
   <g id="cell189">
  <circle cx="462.303" cy="524.04" r="6.89675" stroke-width="0.5" stroke="black" fill="Red"/>
  <circle cx="462.303" cy="524.04" r="4.17024" stroke-width="0.5" stroke="Red" fill="Red"/>
   </g>
   <g id="cell190">
  <circle cx="458.216" cy="512.965" r="5.66683" stroke-width="0.5" stroke="black" fill="blue"/>
  <circle cx="458.216" cy="512.965" r="3.44866" stroke-width="0.5" stroke="blue" fill="blue"/>
   </g>
   <g id="cell191">
  <circle cx="536.239" cy="558.072" r="6.80881" stroke-width="0.5" stroke="black" fill="blue"/>
  <circle cx="536.239" cy="558.072" r="4.10709" stroke-width="0.5" stroke="blue" fill="blue"/>
   </g>
   <g id="cell192">
  <circle cx="517.802" cy="469.271" r="6.75639" stroke-width="0.5" stroke="black" fill="Red"/>
  <circle cx="517.802" cy="469.271" r="4.06813" stroke-width="0.5" stroke="Red" fill="Red"/>
   </g>
   <g id="cell193">
  <circle cx="594.337" cy="491.743" r="6.38842" stroke-width="0.5" stroke="black" fill="blue"/>
  <circle cx="594.337" cy="491.743" r="3.87572" stroke-width="0.5" stroke="blue" fill="blue"/>
   </g>
   <g id="cell194">
  <circle cx="455.21" cy="568.876" r="6.71158" stroke-width="0.5" stroke="black" fill="Red"/>
  <circle cx="455.21" cy="568.876" r="4.03435" stroke-width="0.5" stroke="Red" fill="Red"/>
   </g>
  </g>
 </g>
  <rect x="775" y="1035" width="200" height="10" stroke-width="2" stroke="rgb(255,255,255)" fill="rgb(0,0,0)"/>
  <text x="781.25" y="1028.75"
   font-family="Arial" font-size="25" fill="black" >
   200 &#956;m
  </text>
  <text x="25" y="1045"
   font-family="Arial" font-size="18.75" fill="black" >
   0 days, 0 hours, 2 minutes, and 19.2444 seconds
  </text>
  <rect x="0" y="70" width="1000" height="1000" stroke-width="2" stroke="rgb(0,0,0)" fill="none"/>
</svg>
