<?xml version="1.0" encoding="UTF-8" standalone="no"?>
<!-- Created with PhysiCell (http://PhysiCell.MathCancer.org/) -->
<svg 
 xmlns:dc="http://purl.org/dc/elements/1.1/" 
 xmlns:cc="http://creativecommons.org/ns#" 
 xmlns:rdf="http://www.w3.org/1999/02/22-rdf-syntax-ns#" 
 xmlns:svg="http://www.w3.org/2000/svg" 
 xmlns="http://www.w3.org/2000/svg" 
 version="1.1" 
 width="1000" 
 height="1070" 
 id="svg2">
  <rect x="0" y="0" width="1000" height="1070" stroke-width="2" stroke="white" fill="white"/>
  <text x="12.5" y="30"
   font-family="Arial" font-size="25" fill="black" >
   Current time: 0 days, 1 hours, and 40.00 minutes, z = 0.00 &#956;m
  </text>
  <text x="12.5" y="57.5"
   font-family="Arial" font-size="23.75" fill="black" >
   159 agents
  </text>
 <g id="tissue" 
    transform="translate(0,1070) scale(1,-1)">
  <g id="ECM">
  </g>
  <g id="cells">
   <g id="cell0">
  <circle cx="426.378" cy="451.833" r="8.41271" stroke-width="0.5" stroke="black" fill="blue"/>
  <circle cx="426.378" cy="451.833" r="5.05167" stroke-width="0.5" stroke="blue" fill="blue"/>
   </g>
   <g id="cell1">
  <circle cx="424.575" cy="466.558" r="8.41271" stroke-width="0.5" stroke="black" fill="yellow"/>
  <circle cx="424.575" cy="466.558" r="5.05167" stroke-width="0.5" stroke="yellow" fill="yellow"/>
   </g>
   <g id="cell2">
  <circle cx="427.746" cy="480.65" r="8.41271" stroke-width="0.5" stroke="black" fill="blue"/>
  <circle cx="427.746" cy="480.65" r="5.05167" stroke-width="0.5" stroke="blue" fill="blue"/>
   </g>
   <g id="cell3">
  <circle cx="426.987" cy="495.652" r="8.41271" stroke-width="0.5" stroke="black" fill="yellow"/>
  <circle cx="426.987" cy="495.652" r="5.05167" stroke-width="0.5" stroke="yellow" fill="yellow"/>
   </g>
   <g id="cell4">
  <circle cx="430.177" cy="510.285" r="8.41271" stroke-width="0.5" stroke="black" fill="blue"/>
  <circle cx="430.177" cy="510.285" r="5.05167" stroke-width="0.5" stroke="blue" fill="blue"/>
   </g>
   <g id="cell5">
  <circle cx="425.246" cy="524.2" r="8.41271" stroke-width="0.5" stroke="black" fill="yellow"/>
  <circle cx="425.246" cy="524.2" r="5.05167" stroke-width="0.5" stroke="yellow" fill="yellow"/>
   </g>
   <g id="cell6">
  <circle cx="424.736" cy="537.67" r="8.41271" stroke-width="0.5" stroke="black" fill="blue"/>
  <circle cx="424.736" cy="537.67" r="5.05167" stroke-width="0.5" stroke="blue" fill="blue"/>
   </g>
   <g id="cell7">
  <circle cx="438.765" cy="447.35" r="7.0545" stroke-width="0.5" stroke="black" fill="yellow"/>
  <circle cx="438.765" cy="447.35" r="4.27772" stroke-width="0.5" stroke="yellow" fill="yellow"/>
   </g>
   <g id="cell8">
  <circle cx="438.089" cy="460.45" r="8.41271" stroke-width="0.5" stroke="black" fill="yellow"/>
  <circle cx="438.089" cy="460.45" r="5.05167" stroke-width="0.5" stroke="yellow" fill="yellow"/>
   </g>
   <g id="cell9">
  <circle cx="438.208" cy="474.625" r="8.41271" stroke-width="0.5" stroke="black" fill="Red"/>
  <circle cx="438.208" cy="474.625" r="5.05167" stroke-width="0.5" stroke="Red" fill="Red"/>
   </g>
   <g id="cell10">
  <circle cx="438.031" cy="487.357" r="8.41271" stroke-width="0.5" stroke="black" fill="Red"/>
  <circle cx="438.031" cy="487.357" r="5.05167" stroke-width="0.5" stroke="Red" fill="Red"/>
   </g>
   <g id="cell11">
  <circle cx="441.191" cy="502.015" r="8.41271" stroke-width="0.5" stroke="black" fill="Red"/>
  <circle cx="441.191" cy="502.015" r="5.05167" stroke-width="0.5" stroke="Red" fill="Red"/>
   </g>
   <g id="cell12">
  <circle cx="437.05" cy="519.772" r="6.78181" stroke-width="0.5" stroke="black" fill="Red"/>
  <circle cx="437.05" cy="519.772" r="4.08714" stroke-width="0.5" stroke="Red" fill="Red"/>
   </g>
   <g id="cell13">
  <circle cx="438.728" cy="531.649" r="8.41271" stroke-width="0.5" stroke="black" fill="yellow"/>
  <circle cx="438.728" cy="531.649" r="5.05167" stroke-width="0.5" stroke="yellow" fill="yellow"/>
   </g>
   <g id="cell14">
  <circle cx="438.573" cy="545.996" r="8.41271" stroke-width="0.5" stroke="black" fill="yellow"/>
  <circle cx="438.573" cy="545.996" r="5.05167" stroke-width="0.5" stroke="yellow" fill="yellow"/>
   </g>
   <g id="cell15">
  <circle cx="439.107" cy="560.635" r="8.41271" stroke-width="0.5" stroke="black" fill="blue"/>
  <circle cx="439.107" cy="560.635" r="5.05167" stroke-width="0.5" stroke="blue" fill="blue"/>
   </g>
   <g id="cell16">
  <circle cx="453.594" cy="428.731" r="5.43543" stroke-width="0.5" stroke="black" fill="Red"/>
  <circle cx="453.594" cy="428.731" r="3.2816" stroke-width="0.5" stroke="Red" fill="Red"/>
   </g>
   <g id="cell17">
  <circle cx="450.386" cy="439.163" r="8.41271" stroke-width="0.5" stroke="black" fill="Red"/>
  <circle cx="450.386" cy="439.163" r="5.05167" stroke-width="0.5" stroke="Red" fill="Red"/>
   </g>
   <g id="cell18">
  <circle cx="450.343" cy="452.454" r="8.41271" stroke-width="0.5" stroke="black" fill="Red"/>
  <circle cx="450.343" cy="452.454" r="5.05167" stroke-width="0.5" stroke="Red" fill="Red"/>
   </g>
   <g id="cell19">
  <circle cx="451.431" cy="466.69" r="8.41271" stroke-width="0.5" stroke="black" fill="blue"/>
  <circle cx="451.431" cy="466.69" r="5.05167" stroke-width="0.5" stroke="blue" fill="blue"/>
   </g>
   <g id="cell20">
  <circle cx="450.224" cy="480.799" r="8.41271" stroke-width="0.5" stroke="black" fill="blue"/>
  <circle cx="450.224" cy="480.799" r="5.05167" stroke-width="0.5" stroke="blue" fill="blue"/>
   </g>
   <g id="cell21">
  <circle cx="451.621" cy="493.94" r="8.41271" stroke-width="0.5" stroke="black" fill="Red"/>
  <circle cx="451.621" cy="493.94" r="5.05167" stroke-width="0.5" stroke="Red" fill="Red"/>
   </g>
   <g id="cell22">
  <circle cx="453.631" cy="507.741" r="8.41271" stroke-width="0.5" stroke="black" fill="blue"/>
  <circle cx="453.631" cy="507.741" r="5.05167" stroke-width="0.5" stroke="blue" fill="blue"/>
   </g>
   <g id="cell23">
  <circle cx="450.369" cy="523.404" r="8.41271" stroke-width="0.5" stroke="black" fill="Red"/>
  <circle cx="450.369" cy="523.404" r="5.05167" stroke-width="0.5" stroke="Red" fill="Red"/>
   </g>
   <g id="cell24">
  <circle cx="451.097" cy="537.5" r="8.41271" stroke-width="0.5" stroke="black" fill="blue"/>
  <circle cx="451.097" cy="537.5" r="5.05167" stroke-width="0.5" stroke="blue" fill="blue"/>
   </g>
   <g id="cell25">
  <circle cx="451.539" cy="552.409" r="8.41271" stroke-width="0.5" stroke="black" fill="yellow"/>
  <circle cx="451.539" cy="552.409" r="5.05167" stroke-width="0.5" stroke="yellow" fill="yellow"/>
   </g>
   <g id="cell26">
  <circle cx="452.523" cy="569.104" r="8.41271" stroke-width="0.5" stroke="black" fill="yellow"/>
  <circle cx="452.523" cy="569.104" r="5.05167" stroke-width="0.5" stroke="yellow" fill="yellow"/>
   </g>
   <g id="cell27">
  <circle cx="462.847" cy="419.606" r="8.41271" stroke-width="0.5" stroke="black" fill="yellow"/>
  <circle cx="462.847" cy="419.606" r="5.05167" stroke-width="0.5" stroke="yellow" fill="yellow"/>
   </g>
   <g id="cell28">
  <circle cx="464.027" cy="433.341" r="8.41271" stroke-width="0.5" stroke="black" fill="Red"/>
  <circle cx="464.027" cy="433.341" r="5.05167" stroke-width="0.5" stroke="Red" fill="Red"/>
   </g>
   <g id="cell29">
  <circle cx="462.405" cy="446.418" r="8.41271" stroke-width="0.5" stroke="black" fill="blue"/>
  <circle cx="462.405" cy="446.418" r="5.05167" stroke-width="0.5" stroke="blue" fill="blue"/>
   </g>
   <g id="cell30">
  <circle cx="462.287" cy="460.254" r="8.41271" stroke-width="0.5" stroke="black" fill="Red"/>
  <circle cx="462.287" cy="460.254" r="5.05167" stroke-width="0.5" stroke="Red" fill="Red"/>
   </g>
   <g id="cell31">
  <circle cx="461.847" cy="475.263" r="8.41271" stroke-width="0.5" stroke="black" fill="Red"/>
  <circle cx="461.847" cy="475.263" r="5.05167" stroke-width="0.5" stroke="Red" fill="Red"/>
   </g>
   <g id="cell32">
  <circle cx="464.099" cy="487.792" r="8.41271" stroke-width="0.5" stroke="black" fill="Red"/>
  <circle cx="464.099" cy="487.792" r="5.05167" stroke-width="0.5" stroke="Red" fill="Red"/>
   </g>
   <g id="cell33">
  <circle cx="464.033" cy="500.907" r="8.41271" stroke-width="0.5" stroke="black" fill="Red"/>
  <circle cx="464.033" cy="500.907" r="5.05167" stroke-width="0.5" stroke="Red" fill="Red"/>
   </g>
   <g id="cell34">
  <circle cx="463.776" cy="516.903" r="8.41271" stroke-width="0.5" stroke="black" fill="Red"/>
  <circle cx="463.776" cy="516.903" r="5.05167" stroke-width="0.5" stroke="Red" fill="Red"/>
   </g>
   <g id="cell35">
  <circle cx="461.962" cy="530.53" r="8.41271" stroke-width="0.5" stroke="black" fill="blue"/>
  <circle cx="461.962" cy="530.53" r="5.05167" stroke-width="0.5" stroke="blue" fill="blue"/>
   </g>
   <g id="cell36">
  <circle cx="464.204" cy="543.545" r="8.41271" stroke-width="0.5" stroke="black" fill="Red"/>
  <circle cx="464.204" cy="543.545" r="5.05167" stroke-width="0.5" stroke="Red" fill="Red"/>
   </g>
   <g id="cell37">
  <circle cx="464.773" cy="557.881" r="8.41271" stroke-width="0.5" stroke="black" fill="Red"/>
  <circle cx="464.773" cy="557.881" r="5.05167" stroke-width="0.5" stroke="Red" fill="Red"/>
   </g>
   <g id="cell38">
  <circle cx="465.969" cy="572.881" r="8.41271" stroke-width="0.5" stroke="black" fill="Red"/>
  <circle cx="465.969" cy="572.881" r="5.05167" stroke-width="0.5" stroke="Red" fill="Red"/>
   </g>
   <g id="cell39">
  <circle cx="459.433" cy="585.928" r="8.41271" stroke-width="0.5" stroke="black" fill="blue"/>
  <circle cx="459.433" cy="585.928" r="5.05167" stroke-width="0.5" stroke="blue" fill="blue"/>
   </g>
   <g id="cell40">
  <circle cx="476.61" cy="412.186" r="8.41271" stroke-width="0.5" stroke="black" fill="blue"/>
  <circle cx="476.61" cy="412.186" r="5.05167" stroke-width="0.5" stroke="blue" fill="blue"/>
   </g>
   <g id="cell41">
  <circle cx="476.112" cy="426.491" r="8.41271" stroke-width="0.5" stroke="black" fill="yellow"/>
  <circle cx="476.112" cy="426.491" r="5.05167" stroke-width="0.5" stroke="yellow" fill="yellow"/>
   </g>
   <g id="cell42">
  <circle cx="475.198" cy="440.682" r="8.41271" stroke-width="0.5" stroke="black" fill="Red"/>
  <circle cx="475.198" cy="440.682" r="5.05167" stroke-width="0.5" stroke="Red" fill="Red"/>
   </g>
   <g id="cell43">
  <circle cx="474.056" cy="454.411" r="8.41271" stroke-width="0.5" stroke="black" fill="Red"/>
  <circle cx="474.056" cy="454.411" r="5.05167" stroke-width="0.5" stroke="Red" fill="Red"/>
   </g>
   <g id="cell44">
  <circle cx="472.846" cy="469.351" r="8.41271" stroke-width="0.5" stroke="black" fill="Red"/>
  <circle cx="472.846" cy="469.351" r="5.05167" stroke-width="0.5" stroke="Red" fill="Red"/>
   </g>
   <g id="cell45">
  <circle cx="475.973" cy="481.597" r="8.41271" stroke-width="0.5" stroke="black" fill="Red"/>
  <circle cx="475.973" cy="481.597" r="5.05167" stroke-width="0.5" stroke="Red" fill="Red"/>
   </g>
   <g id="cell46">
  <circle cx="477.048" cy="496.384" r="8.41271" stroke-width="0.5" stroke="black" fill="Red"/>
  <circle cx="477.048" cy="496.384" r="5.05167" stroke-width="0.5" stroke="Red" fill="Red"/>
   </g>
   <g id="cell47">
  <circle cx="471.312" cy="507.857" r="7.02257" stroke-width="0.5" stroke="black" fill="Red"/>
  <circle cx="471.312" cy="507.857" r="4.25644" stroke-width="0.5" stroke="Red" fill="Red"/>
   </g>
   <g id="cell48">
  <circle cx="475.932" cy="522.362" r="8.41271" stroke-width="0.5" stroke="black" fill="Red"/>
  <circle cx="475.932" cy="522.362" r="5.05167" stroke-width="0.5" stroke="Red" fill="Red"/>
   </g>
   <g id="cell49">
  <circle cx="476.575" cy="536.025" r="8.41271" stroke-width="0.5" stroke="black" fill="Red"/>
  <circle cx="476.575" cy="536.025" r="5.05167" stroke-width="0.5" stroke="Red" fill="Red"/>
   </g>
   <g id="cell50">
  <circle cx="476.297" cy="551.2" r="8.41271" stroke-width="0.5" stroke="black" fill="Red"/>
  <circle cx="476.297" cy="551.2" r="5.05167" stroke-width="0.5" stroke="Red" fill="Red"/>
   </g>
   <g id="cell51">
  <circle cx="477.805" cy="565.486" r="8.41271" stroke-width="0.5" stroke="black" fill="Red"/>
  <circle cx="477.805" cy="565.486" r="5.05167" stroke-width="0.5" stroke="Red" fill="Red"/>
   </g>
   <g id="cell52">
  <circle cx="479.64" cy="578.323" r="8.41271" stroke-width="0.5" stroke="black" fill="Red"/>
  <circle cx="479.64" cy="578.323" r="5.05167" stroke-width="0.5" stroke="Red" fill="Red"/>
   </g>
   <g id="cell53">
  <circle cx="488.341" cy="418.442" r="8.41271" stroke-width="0.5" stroke="black" fill="yellow"/>
  <circle cx="488.341" cy="418.442" r="5.05167" stroke-width="0.5" stroke="yellow" fill="yellow"/>
   </g>
   <g id="cell54">
  <circle cx="487.726" cy="435.036" r="8.41271" stroke-width="0.5" stroke="black" fill="blue"/>
  <circle cx="487.726" cy="435.036" r="5.05167" stroke-width="0.5" stroke="blue" fill="blue"/>
   </g>
   <g id="cell55">
  <circle cx="487.34" cy="448.717" r="8.41271" stroke-width="0.5" stroke="black" fill="Red"/>
  <circle cx="487.34" cy="448.717" r="5.05167" stroke-width="0.5" stroke="Red" fill="Red"/>
   </g>
   <g id="cell56">
  <circle cx="492.468" cy="461.505" r="6.73287" stroke-width="0.5" stroke="black" fill="blue"/>
  <circle cx="492.468" cy="461.505" r="4.05039" stroke-width="0.5" stroke="blue" fill="blue"/>
   </g>
   <g id="cell57">
  <circle cx="487.651" cy="473.563" r="8.41271" stroke-width="0.5" stroke="black" fill="Red"/>
  <circle cx="487.651" cy="473.563" r="5.05167" stroke-width="0.5" stroke="Red" fill="Red"/>
   </g>
   <g id="cell58">
  <circle cx="487.789" cy="488.919" r="8.41271" stroke-width="0.5" stroke="black" fill="blue"/>
  <circle cx="487.789" cy="488.919" r="5.05167" stroke-width="0.5" stroke="blue" fill="blue"/>
   </g>
   <g id="cell59">
  <circle cx="488.33" cy="504.115" r="8.41271" stroke-width="0.5" stroke="black" fill="Red"/>
  <circle cx="488.33" cy="504.115" r="5.05167" stroke-width="0.5" stroke="Red" fill="Red"/>
   </g>
   <g id="cell60">
  <circle cx="489.949" cy="517.093" r="8.41271" stroke-width="0.5" stroke="black" fill="Red"/>
  <circle cx="489.949" cy="517.093" r="5.05167" stroke-width="0.5" stroke="Red" fill="Red"/>
   </g>
   <g id="cell61">
  <circle cx="489.075" cy="529.899" r="8.41271" stroke-width="0.5" stroke="black" fill="blue"/>
  <circle cx="489.075" cy="529.899" r="5.05167" stroke-width="0.5" stroke="blue" fill="blue"/>
   </g>
   <g id="cell62">
  <circle cx="488.328" cy="543.819" r="8.41271" stroke-width="0.5" stroke="black" fill="Red"/>
  <circle cx="488.328" cy="543.819" r="5.05167" stroke-width="0.5" stroke="Red" fill="Red"/>
   </g>
   <g id="cell63">
  <circle cx="489.19" cy="557.948" r="8.41271" stroke-width="0.5" stroke="black" fill="Red"/>
  <circle cx="489.19" cy="557.948" r="5.05167" stroke-width="0.5" stroke="Red" fill="Red"/>
   </g>
   <g id="cell64">
  <circle cx="491.75" cy="571.429" r="8.41271" stroke-width="0.5" stroke="black" fill="Red"/>
  <circle cx="491.75" cy="571.429" r="5.05167" stroke-width="0.5" stroke="Red" fill="Red"/>
   </g>
   <g id="cell65">
  <circle cx="491.857" cy="584.845" r="8.41271" stroke-width="0.5" stroke="black" fill="Red"/>
  <circle cx="491.857" cy="584.845" r="5.05167" stroke-width="0.5" stroke="Red" fill="Red"/>
   </g>
   <g id="cell66">
  <circle cx="500.023" cy="410.061" r="8.41271" stroke-width="0.5" stroke="black" fill="blue"/>
  <circle cx="500.023" cy="410.061" r="5.05167" stroke-width="0.5" stroke="blue" fill="blue"/>
   </g>
   <g id="cell67">
  <circle cx="500.079" cy="425.32" r="8.41271" stroke-width="0.5" stroke="black" fill="yellow"/>
  <circle cx="500.079" cy="425.32" r="5.05167" stroke-width="0.5" stroke="yellow" fill="yellow"/>
   </g>
   <g id="cell68">
  <circle cx="499.968" cy="440.236" r="8.41271" stroke-width="0.5" stroke="black" fill="Red"/>
  <circle cx="499.968" cy="440.236" r="5.05167" stroke-width="0.5" stroke="Red" fill="Red"/>
   </g>
   <g id="cell69">
  <circle cx="499.858" cy="453.773" r="8.41271" stroke-width="0.5" stroke="black" fill="Red"/>
  <circle cx="499.858" cy="453.773" r="5.05167" stroke-width="0.5" stroke="Red" fill="Red"/>
   </g>
   <g id="cell70">
  <circle cx="501.536" cy="468.471" r="8.41271" stroke-width="0.5" stroke="black" fill="blue"/>
  <circle cx="501.536" cy="468.471" r="5.05167" stroke-width="0.5" stroke="blue" fill="blue"/>
   </g>
   <g id="cell71">
  <circle cx="500.511" cy="481.863" r="8.41271" stroke-width="0.5" stroke="black" fill="Red"/>
  <circle cx="500.511" cy="481.863" r="5.05167" stroke-width="0.5" stroke="Red" fill="Red"/>
   </g>
   <g id="cell72">
  <circle cx="500.459" cy="495.822" r="8.41271" stroke-width="0.5" stroke="black" fill="Red"/>
  <circle cx="500.459" cy="495.822" r="5.05167" stroke-width="0.5" stroke="Red" fill="Red"/>
   </g>
   <g id="cell73">
  <circle cx="501.684" cy="509.315" r="8.41271" stroke-width="0.5" stroke="black" fill="blue"/>
  <circle cx="501.684" cy="509.315" r="5.05167" stroke-width="0.5" stroke="blue" fill="blue"/>
   </g>
   <g id="cell74">
  <circle cx="503.029" cy="522.081" r="8.41271" stroke-width="0.5" stroke="black" fill="Red"/>
  <circle cx="503.029" cy="522.081" r="5.05167" stroke-width="0.5" stroke="Red" fill="Red"/>
   </g>
   <g id="cell75">
  <circle cx="501.022" cy="536.613" r="8.41271" stroke-width="0.5" stroke="black" fill="Red"/>
  <circle cx="501.022" cy="536.613" r="5.05167" stroke-width="0.5" stroke="Red" fill="Red"/>
   </g>
   <g id="cell76">
  <circle cx="500.596" cy="550.266" r="8.41271" stroke-width="0.5" stroke="black" fill="Red"/>
  <circle cx="500.596" cy="550.266" r="5.05167" stroke-width="0.5" stroke="Red" fill="Red"/>
   </g>
   <g id="cell77">
  <circle cx="503.778" cy="563.287" r="8.41271" stroke-width="0.5" stroke="black" fill="Red"/>
  <circle cx="503.778" cy="563.287" r="5.05167" stroke-width="0.5" stroke="Red" fill="Red"/>
   </g>
   <g id="cell78">
  <circle cx="502.918" cy="578.332" r="8.41271" stroke-width="0.5" stroke="black" fill="yellow"/>
  <circle cx="502.918" cy="578.332" r="5.05167" stroke-width="0.5" stroke="yellow" fill="yellow"/>
   </g>
   <g id="cell79">
  <circle cx="502.603" cy="593.119" r="8.41271" stroke-width="0.5" stroke="black" fill="blue"/>
  <circle cx="502.603" cy="593.119" r="5.05167" stroke-width="0.5" stroke="blue" fill="blue"/>
   </g>
   <g id="cell80">
  <circle cx="512.491" cy="417.546" r="8.41271" stroke-width="0.5" stroke="black" fill="yellow"/>
  <circle cx="512.491" cy="417.546" r="5.05167" stroke-width="0.5" stroke="yellow" fill="yellow"/>
   </g>
   <g id="cell81">
  <circle cx="511.936" cy="432.8" r="8.41271" stroke-width="0.5" stroke="black" fill="Red"/>
  <circle cx="511.936" cy="432.8" r="5.05167" stroke-width="0.5" stroke="Red" fill="Red"/>
   </g>
   <g id="cell82">
  <circle cx="512.96" cy="444.72" r="8.41271" stroke-width="0.5" stroke="black" fill="Red"/>
  <circle cx="512.96" cy="444.72" r="5.05167" stroke-width="0.5" stroke="Red" fill="Red"/>
   </g>
   <g id="cell83">
  <circle cx="511.955" cy="459.539" r="8.41271" stroke-width="0.5" stroke="black" fill="Red"/>
  <circle cx="511.955" cy="459.539" r="5.05167" stroke-width="0.5" stroke="Red" fill="Red"/>
   </g>
   <g id="cell84">
  <circle cx="513.221" cy="474.346" r="8.41271" stroke-width="0.5" stroke="black" fill="blue"/>
  <circle cx="513.221" cy="474.346" r="5.05167" stroke-width="0.5" stroke="blue" fill="blue"/>
   </g>
   <g id="cell85">
  <circle cx="513.281" cy="487.862" r="8.41271" stroke-width="0.5" stroke="black" fill="Red"/>
  <circle cx="513.281" cy="487.862" r="5.05167" stroke-width="0.5" stroke="Red" fill="Red"/>
   </g>
   <g id="cell86">
  <circle cx="513.681" cy="501.59" r="8.41271" stroke-width="0.5" stroke="black" fill="Red"/>
  <circle cx="513.681" cy="501.59" r="5.05167" stroke-width="0.5" stroke="Red" fill="Red"/>
   </g>
   <g id="cell87">
  <circle cx="514.377" cy="512.309" r="6.69288" stroke-width="0.5" stroke="black" fill="blue"/>
  <circle cx="514.377" cy="512.309" r="4.02051" stroke-width="0.5" stroke="blue" fill="blue"/>
   </g>
   <g id="cell88">
  <circle cx="514.499" cy="532.192" r="8.41271" stroke-width="0.5" stroke="black" fill="Red"/>
  <circle cx="514.499" cy="532.192" r="5.05167" stroke-width="0.5" stroke="Red" fill="Red"/>
   </g>
   <g id="cell89">
  <circle cx="512.042" cy="545.137" r="8.41271" stroke-width="0.5" stroke="black" fill="Red"/>
  <circle cx="512.042" cy="545.137" r="5.05167" stroke-width="0.5" stroke="Red" fill="Red"/>
   </g>
   <g id="cell90">
  <circle cx="515.789" cy="556.051" r="8.41271" stroke-width="0.5" stroke="black" fill="blue"/>
  <circle cx="515.789" cy="556.051" r="5.05167" stroke-width="0.5" stroke="blue" fill="blue"/>
   </g>
   <g id="cell91">
  <circle cx="514.775" cy="570.282" r="8.41271" stroke-width="0.5" stroke="black" fill="Red"/>
  <circle cx="514.775" cy="570.282" r="5.05167" stroke-width="0.5" stroke="Red" fill="Red"/>
   </g>
   <g id="cell92">
  <circle cx="514.864" cy="585.266" r="8.41271" stroke-width="0.5" stroke="black" fill="Red"/>
  <circle cx="514.864" cy="585.266" r="5.05167" stroke-width="0.5" stroke="Red" fill="Red"/>
   </g>
   <g id="cell93">
  <circle cx="526.642" cy="416.219" r="8.41271" stroke-width="0.5" stroke="black" fill="blue"/>
  <circle cx="526.642" cy="416.219" r="5.05167" stroke-width="0.5" stroke="blue" fill="blue"/>
   </g>
   <g id="cell94">
  <circle cx="532.18" cy="427.124" r="6.71158" stroke-width="0.5" stroke="black" fill="Red"/>
  <circle cx="532.18" cy="427.124" r="4.03435" stroke-width="0.5" stroke="Red" fill="Red"/>
   </g>
   <g id="cell95">
  <circle cx="525.754" cy="438.192" r="8.41271" stroke-width="0.5" stroke="black" fill="Red"/>
  <circle cx="525.754" cy="438.192" r="5.05167" stroke-width="0.5" stroke="Red" fill="Red"/>
   </g>
   <g id="cell96">
  <circle cx="522.738" cy="451.705" r="7.02257" stroke-width="0.5" stroke="black" fill="blue"/>
  <circle cx="522.738" cy="451.705" r="4.25644" stroke-width="0.5" stroke="blue" fill="blue"/>
   </g>
   <g id="cell97">
  <circle cx="523.549" cy="465.976" r="8.41271" stroke-width="0.5" stroke="black" fill="Red"/>
  <circle cx="523.549" cy="465.976" r="5.05167" stroke-width="0.5" stroke="Red" fill="Red"/>
   </g>
   <g id="cell98">
  <circle cx="526.509" cy="480.237" r="8.41271" stroke-width="0.5" stroke="black" fill="Red"/>
  <circle cx="526.509" cy="480.237" r="5.05167" stroke-width="0.5" stroke="Red" fill="Red"/>
   </g>
   <g id="cell99">
  <circle cx="526.291" cy="495.682" r="8.41271" stroke-width="0.5" stroke="black" fill="Red"/>
  <circle cx="526.291" cy="495.682" r="5.05167" stroke-width="0.5" stroke="Red" fill="Red"/>
   </g>
   <g id="cell100">
  <circle cx="525.939" cy="509.423" r="8.41271" stroke-width="0.5" stroke="black" fill="Red"/>
  <circle cx="525.939" cy="509.423" r="5.05167" stroke-width="0.5" stroke="Red" fill="Red"/>
   </g>
   <g id="cell101">
  <circle cx="526.016" cy="523.56" r="8.41271" stroke-width="0.5" stroke="black" fill="Red"/>
  <circle cx="526.016" cy="523.56" r="5.05167" stroke-width="0.5" stroke="Red" fill="Red"/>
   </g>
   <g id="cell102">
  <circle cx="530.951" cy="535.103" r="6.92764" stroke-width="0.5" stroke="black" fill="blue"/>
  <circle cx="530.951" cy="535.103" r="4.1918" stroke-width="0.5" stroke="blue" fill="blue"/>
   </g>
   <g id="cell103">
  <circle cx="527.672" cy="548.919" r="8.41271" stroke-width="0.5" stroke="black" fill="Red"/>
  <circle cx="527.672" cy="548.919" r="5.05167" stroke-width="0.5" stroke="Red" fill="Red"/>
   </g>
   <g id="cell104">
  <circle cx="526.716" cy="563.577" r="8.41271" stroke-width="0.5" stroke="black" fill="Red"/>
  <circle cx="526.716" cy="563.577" r="5.05167" stroke-width="0.5" stroke="Red" fill="Red"/>
   </g>
   <g id="cell105">
  <circle cx="526.907" cy="578.623" r="8.41271" stroke-width="0.5" stroke="black" fill="blue"/>
  <circle cx="526.907" cy="578.623" r="5.05167" stroke-width="0.5" stroke="blue" fill="blue"/>
   </g>
   <g id="cell106">
  <circle cx="541.773" cy="419.585" r="8.41271" stroke-width="0.5" stroke="black" fill="yellow"/>
  <circle cx="541.773" cy="419.585" r="5.05167" stroke-width="0.5" stroke="yellow" fill="yellow"/>
   </g>
   <g id="cell107">
  <circle cx="539.38" cy="435.933" r="8.41271" stroke-width="0.5" stroke="black" fill="yellow"/>
  <circle cx="539.38" cy="435.933" r="5.05167" stroke-width="0.5" stroke="yellow" fill="yellow"/>
   </g>
   <g id="cell108">
  <circle cx="535.75" cy="448.311" r="8.41271" stroke-width="0.5" stroke="black" fill="Red"/>
  <circle cx="535.75" cy="448.311" r="5.05167" stroke-width="0.5" stroke="Red" fill="Red"/>
   </g>
   <g id="cell109">
  <circle cx="542.486" cy="462.289" r="8.41271" stroke-width="0.5" stroke="black" fill="Red"/>
  <circle cx="542.486" cy="462.289" r="5.05167" stroke-width="0.5" stroke="Red" fill="Red"/>
   </g>
   <g id="cell110">
  <circle cx="540.479" cy="475.386" r="8.41271" stroke-width="0.5" stroke="black" fill="Red"/>
  <circle cx="540.479" cy="475.386" r="5.05167" stroke-width="0.5" stroke="Red" fill="Red"/>
   </g>
   <g id="cell111">
  <circle cx="538.609" cy="489.002" r="8.41271" stroke-width="0.5" stroke="black" fill="blue"/>
  <circle cx="538.609" cy="489.002" r="5.05167" stroke-width="0.5" stroke="blue" fill="blue"/>
   </g>
   <g id="cell112">
  <circle cx="539.09" cy="502.659" r="8.41271" stroke-width="0.5" stroke="black" fill="Red"/>
  <circle cx="539.09" cy="502.659" r="5.05167" stroke-width="0.5" stroke="Red" fill="Red"/>
   </g>
   <g id="cell113">
  <circle cx="537.091" cy="515.993" r="8.41271" stroke-width="0.5" stroke="black" fill="blue"/>
  <circle cx="537.091" cy="515.993" r="5.05167" stroke-width="0.5" stroke="blue" fill="blue"/>
   </g>
   <g id="cell114">
  <circle cx="541.513" cy="529.68" r="8.41271" stroke-width="0.5" stroke="black" fill="Red"/>
  <circle cx="541.513" cy="529.68" r="5.05167" stroke-width="0.5" stroke="Red" fill="Red"/>
   </g>
   <g id="cell115">
  <circle cx="540.775" cy="543.908" r="8.41271" stroke-width="0.5" stroke="black" fill="Red"/>
  <circle cx="540.775" cy="543.908" r="5.05167" stroke-width="0.5" stroke="Red" fill="Red"/>
   </g>
   <g id="cell116">
  <circle cx="539.105" cy="558.04" r="8.41271" stroke-width="0.5" stroke="black" fill="Red"/>
  <circle cx="539.105" cy="558.04" r="5.05167" stroke-width="0.5" stroke="Red" fill="Red"/>
   </g>
   <g id="cell117">
  <circle cx="538.712" cy="571.824" r="8.41271" stroke-width="0.5" stroke="black" fill="blue"/>
  <circle cx="538.712" cy="571.824" r="5.05167" stroke-width="0.5" stroke="blue" fill="blue"/>
   </g>
   <g id="cell118">
  <circle cx="551.909" cy="429.225" r="8.41271" stroke-width="0.5" stroke="black" fill="blue"/>
  <circle cx="551.909" cy="429.225" r="5.05167" stroke-width="0.5" stroke="blue" fill="blue"/>
   </g>
   <g id="cell119">
  <circle cx="550.873" cy="442.969" r="8.41271" stroke-width="0.5" stroke="black" fill="Red"/>
  <circle cx="550.873" cy="442.969" r="5.05167" stroke-width="0.5" stroke="Red" fill="Red"/>
   </g>
   <g id="cell120">
  <circle cx="558.003" cy="455.472" r="6.69288" stroke-width="0.5" stroke="black" fill="Red"/>
  <circle cx="558.003" cy="455.472" r="4.02051" stroke-width="0.5" stroke="Red" fill="Red"/>
   </g>
   <g id="cell121">
  <circle cx="553.657" cy="468.284" r="8.41271" stroke-width="0.5" stroke="black" fill="blue"/>
  <circle cx="553.657" cy="468.284" r="5.05167" stroke-width="0.5" stroke="blue" fill="blue"/>
   </g>
   <g id="cell122">
  <circle cx="551.932" cy="482.007" r="8.41271" stroke-width="0.5" stroke="black" fill="Red"/>
  <circle cx="551.932" cy="482.007" r="5.05167" stroke-width="0.5" stroke="Red" fill="Red"/>
   </g>
   <g id="cell123">
  <circle cx="551.003" cy="495.652" r="8.41271" stroke-width="0.5" stroke="black" fill="Red"/>
  <circle cx="551.003" cy="495.652" r="5.05167" stroke-width="0.5" stroke="Red" fill="Red"/>
   </g>
   <g id="cell124">
  <circle cx="551.097" cy="509.285" r="8.41271" stroke-width="0.5" stroke="black" fill="Red"/>
  <circle cx="551.097" cy="509.285" r="5.05167" stroke-width="0.5" stroke="Red" fill="Red"/>
   </g>
   <g id="cell125">
  <circle cx="547.752" cy="520.071" r="6.71158" stroke-width="0.5" stroke="black" fill="Red"/>
  <circle cx="547.752" cy="520.071" r="4.03435" stroke-width="0.5" stroke="Red" fill="Red"/>
   </g>
   <g id="cell126">
  <circle cx="553.127" cy="535.526" r="8.41271" stroke-width="0.5" stroke="black" fill="Red"/>
  <circle cx="553.127" cy="535.526" r="5.05167" stroke-width="0.5" stroke="Red" fill="Red"/>
   </g>
   <g id="cell127">
  <circle cx="552.941" cy="550.564" r="8.41271" stroke-width="0.5" stroke="black" fill="yellow"/>
  <circle cx="552.941" cy="550.564" r="5.05167" stroke-width="0.5" stroke="yellow" fill="yellow"/>
   </g>
   <g id="cell128">
  <circle cx="551.244" cy="565.475" r="8.41271" stroke-width="0.5" stroke="black" fill="Red"/>
  <circle cx="551.244" cy="565.475" r="5.05167" stroke-width="0.5" stroke="Red" fill="Red"/>
   </g>
   <g id="cell129">
  <circle cx="572.332" cy="442.714" r="6.67717" stroke-width="0.5" stroke="black" fill="blue"/>
  <circle cx="572.332" cy="442.714" r="4.00951" stroke-width="0.5" stroke="blue" fill="blue"/>
   </g>
   <g id="cell130">
  <circle cx="568.008" cy="460.264" r="8.41271" stroke-width="0.5" stroke="black" fill="yellow"/>
  <circle cx="568.008" cy="460.264" r="5.05167" stroke-width="0.5" stroke="yellow" fill="yellow"/>
   </g>
   <g id="cell131">
  <circle cx="566.123" cy="474.925" r="8.41271" stroke-width="0.5" stroke="black" fill="yellow"/>
  <circle cx="566.123" cy="474.925" r="5.05167" stroke-width="0.5" stroke="yellow" fill="yellow"/>
   </g>
   <g id="cell132">
  <circle cx="562.829" cy="489.24" r="8.41271" stroke-width="0.5" stroke="black" fill="blue"/>
  <circle cx="562.829" cy="489.24" r="5.05167" stroke-width="0.5" stroke="blue" fill="blue"/>
   </g>
   <g id="cell133">
  <circle cx="563.529" cy="501.512" r="8.41271" stroke-width="0.5" stroke="black" fill="Red"/>
  <circle cx="563.529" cy="501.512" r="5.05167" stroke-width="0.5" stroke="Red" fill="Red"/>
   </g>
   <g id="cell134">
  <circle cx="563.854" cy="516.231" r="8.41271" stroke-width="0.5" stroke="black" fill="Red"/>
  <circle cx="563.854" cy="516.231" r="5.05167" stroke-width="0.5" stroke="Red" fill="Red"/>
   </g>
   <g id="cell135">
  <circle cx="566.177" cy="530.015" r="8.41271" stroke-width="0.5" stroke="black" fill="yellow"/>
  <circle cx="566.177" cy="530.015" r="5.05167" stroke-width="0.5" stroke="yellow" fill="yellow"/>
   </g>
   <g id="cell136">
  <circle cx="566.742" cy="544.781" r="8.41271" stroke-width="0.5" stroke="black" fill="yellow"/>
  <circle cx="566.742" cy="544.781" r="5.05167" stroke-width="0.5" stroke="yellow" fill="yellow"/>
   </g>
   <g id="cell137">
  <circle cx="564.075" cy="559.178" r="8.41271" stroke-width="0.5" stroke="black" fill="blue"/>
  <circle cx="564.075" cy="559.178" r="5.05167" stroke-width="0.5" stroke="blue" fill="blue"/>
   </g>
   <g id="cell138">
  <circle cx="578.712" cy="467.49" r="8.41271" stroke-width="0.5" stroke="black" fill="blue"/>
  <circle cx="578.712" cy="467.49" r="5.05167" stroke-width="0.5" stroke="blue" fill="blue"/>
   </g>
   <g id="cell139">
  <circle cx="578.091" cy="483.135" r="8.41271" stroke-width="0.5" stroke="black" fill="yellow"/>
  <circle cx="578.091" cy="483.135" r="5.05167" stroke-width="0.5" stroke="yellow" fill="yellow"/>
   </g>
   <g id="cell140">
  <circle cx="573.917" cy="494.573" r="7.0545" stroke-width="0.5" stroke="black" fill="yellow"/>
  <circle cx="573.917" cy="494.573" r="4.27772" stroke-width="0.5" stroke="yellow" fill="yellow"/>
   </g>
   <g id="cell141">
  <circle cx="576.17" cy="507.178" r="8.41271" stroke-width="0.5" stroke="black" fill="yellow"/>
  <circle cx="576.17" cy="507.178" r="5.05167" stroke-width="0.5" stroke="yellow" fill="yellow"/>
   </g>
   <g id="cell142">
  <circle cx="578.068" cy="521.784" r="8.41271" stroke-width="0.5" stroke="black" fill="yellow"/>
  <circle cx="578.068" cy="521.784" r="5.05167" stroke-width="0.5" stroke="yellow" fill="yellow"/>
   </g>
   <g id="cell143">
  <circle cx="580.335" cy="536.353" r="8.41271" stroke-width="0.5" stroke="black" fill="blue"/>
  <circle cx="580.335" cy="536.353" r="5.05167" stroke-width="0.5" stroke="blue" fill="blue"/>
   </g>
   <g id="cell144">
  <circle cx="439.114" cy="436.54" r="7.0545" stroke-width="0.5" stroke="black" fill="blue"/>
  <circle cx="439.114" cy="436.54" r="4.27772" stroke-width="0.5" stroke="blue" fill="blue"/>
   </g>
   <g id="cell145">
  <circle cx="586.042" cy="495.761" r="7.0545" stroke-width="0.5" stroke="black" fill="blue"/>
  <circle cx="586.042" cy="495.761" r="4.27772" stroke-width="0.5" stroke="blue" fill="blue"/>
   </g>
   <g id="cell146">
  <circle cx="479.906" cy="510.96" r="7.02257" stroke-width="0.5" stroke="black" fill="blue"/>
  <circle cx="479.906" cy="510.96" r="4.25644" stroke-width="0.5" stroke="blue" fill="blue"/>
   </g>
   <g id="cell147">
  <circle cx="531.488" cy="457.915" r="5.9244" stroke-width="0.5" stroke="black" fill="Red"/>
  <circle cx="531.488" cy="457.915" r="3.62339" stroke-width="0.5" stroke="Red" fill="Red"/>
   </g>
   <g id="cell148">
  <circle cx="522.702" cy="540.144" r="6.92764" stroke-width="0.5" stroke="black" fill="blue"/>
  <circle cx="522.702" cy="540.144" r="4.1918" stroke-width="0.5" stroke="blue" fill="blue"/>
   </g>
   <g id="cell149">
  <circle cx="533.291" cy="467.857" r="5.9244" stroke-width="0.5" stroke="black" fill="blue"/>
  <circle cx="533.291" cy="467.857" r="3.62339" stroke-width="0.5" stroke="blue" fill="blue"/>
   </g>
   <g id="cell150">
  <circle cx="443.523" cy="513.407" r="6.78181" stroke-width="0.5" stroke="black" fill="Red"/>
  <circle cx="443.523" cy="513.407" r="4.08714" stroke-width="0.5" stroke="Red" fill="Red"/>
   </g>
   <g id="cell151">
  <circle cx="450.201" cy="418.865" r="6.78181" stroke-width="0.5" stroke="black" fill="blue"/>
  <circle cx="450.201" cy="418.865" r="4.08714" stroke-width="0.5" stroke="blue" fill="blue"/>
   </g>
   <g id="cell152">
  <circle cx="482.737" cy="460.096" r="6.73287" stroke-width="0.5" stroke="black" fill="blue"/>
  <circle cx="482.737" cy="460.096" r="4.05039" stroke-width="0.5" stroke="blue" fill="blue"/>
   </g>
   <g id="cell153">
  <circle cx="521.077" cy="425.975" r="6.71158" stroke-width="0.5" stroke="black" fill="yellow"/>
  <circle cx="521.077" cy="425.975" r="4.03435" stroke-width="0.5" stroke="yellow" fill="yellow"/>
   </g>
   <g id="cell154">
  <circle cx="555.129" cy="523.88" r="6.71158" stroke-width="0.5" stroke="black" fill="blue"/>
  <circle cx="555.129" cy="523.88" r="4.03435" stroke-width="0.5" stroke="blue" fill="blue"/>
   </g>
   <g id="cell155">
  <circle cx="444.107" cy="427.576" r="5.43543" stroke-width="0.5" stroke="black" fill="Red"/>
  <circle cx="444.107" cy="427.576" r="3.2816" stroke-width="0.5" stroke="Red" fill="Red"/>
   </g>
   <g id="cell156">
  <circle cx="514.526" cy="520.658" r="6.69288" stroke-width="0.5" stroke="black" fill="Red"/>
  <circle cx="514.526" cy="520.658" r="4.02051" stroke-width="0.5" stroke="Red" fill="Red"/>
   </g>
   <g id="cell157">
  <circle cx="547.903" cy="453.522" r="6.69288" stroke-width="0.5" stroke="black" fill="Red"/>
  <circle cx="547.903" cy="453.522" r="4.02051" stroke-width="0.5" stroke="Red" fill="Red"/>
   </g>
   <g id="cell158">
  <circle cx="563.08" cy="447.421" r="6.67717" stroke-width="0.5" stroke="black" fill="Red"/>
  <circle cx="563.08" cy="447.421" r="4.00951" stroke-width="0.5" stroke="Red" fill="Red"/>
   </g>
  </g>
 </g>
  <rect x="775" y="1035" width="200" height="10" stroke-width="2" stroke="rgb(255,255,255)" fill="rgb(0,0,0)"/>
  <text x="781.25" y="1028.75"
   font-family="Arial" font-size="25" fill="black" >
   200 &#956;m
  </text>
  <text x="25" y="1045"
   font-family="Arial" font-size="18.75" fill="black" >
   0 days, 0 hours, 0 minutes, and 29.9654 seconds
  </text>
  <rect x="0" y="70" width="1000" height="1000" stroke-width="2" stroke="rgb(0,0,0)" fill="none"/>
</svg>
