<?xml version="1.0" encoding="UTF-8" standalone="no"?>
<!-- Created with PhysiCell (http://PhysiCell.MathCancer.org/) -->
<svg 
 xmlns:dc="http://purl.org/dc/elements/1.1/" 
 xmlns:cc="http://creativecommons.org/ns#" 
 xmlns:rdf="http://www.w3.org/1999/02/22-rdf-syntax-ns#" 
 xmlns:svg="http://www.w3.org/2000/svg" 
 xmlns="http://www.w3.org/2000/svg" 
 version="1.1" 
 width="1000" 
 height="1070" 
 id="svg2">
  <rect x="0" y="0" width="1000" height="1070" stroke-width="2" stroke="white" fill="white"/>
  <text x="12.5" y="30"
   font-family="Arial" font-size="25" fill="black" >
   Current time: 0 days, 0 hours, and 45.00 minutes, z = 0.00 &#956;m
  </text>
  <text x="12.5" y="57.5"
   font-family="Arial" font-size="23.75" fill="black" >
   150 agents
  </text>
 <g id="tissue" 
    transform="translate(0,1070) scale(1,-1)">
  <g id="ECM">
  </g>
  <g id="cells">
   <g id="cell0">
  <circle cx="422.457" cy="454.322" r="8.41271" stroke-width="0.5" stroke="black" fill="blue"/>
  <circle cx="422.457" cy="454.322" r="5.05167" stroke-width="0.5" stroke="blue" fill="blue"/>
   </g>
   <g id="cell1">
  <circle cx="422.211" cy="469.355" r="8.41271" stroke-width="0.5" stroke="black" fill="Red"/>
  <circle cx="422.211" cy="469.355" r="5.05167" stroke-width="0.5" stroke="Red" fill="Red"/>
   </g>
   <g id="cell2">
  <circle cx="422.745" cy="482.883" r="8.41271" stroke-width="0.5" stroke="black" fill="blue"/>
  <circle cx="422.745" cy="482.883" r="5.05167" stroke-width="0.5" stroke="blue" fill="blue"/>
   </g>
   <g id="cell3">
  <circle cx="424.926" cy="496.382" r="8.41271" stroke-width="0.5" stroke="black" fill="Red"/>
  <circle cx="424.926" cy="496.382" r="5.05167" stroke-width="0.5" stroke="Red" fill="Red"/>
   </g>
   <g id="cell4">
  <circle cx="425.54" cy="508.977" r="8.41271" stroke-width="0.5" stroke="black" fill="blue"/>
  <circle cx="425.54" cy="508.977" r="5.05167" stroke-width="0.5" stroke="blue" fill="blue"/>
   </g>
   <g id="cell5">
  <circle cx="423.577" cy="522.421" r="8.41271" stroke-width="0.5" stroke="black" fill="Red"/>
  <circle cx="423.577" cy="522.421" r="5.05167" stroke-width="0.5" stroke="Red" fill="Red"/>
   </g>
   <g id="cell6">
  <circle cx="422.784" cy="536.837" r="8.41271" stroke-width="0.5" stroke="black" fill="blue"/>
  <circle cx="422.784" cy="536.837" r="5.05167" stroke-width="0.5" stroke="blue" fill="blue"/>
   </g>
   <g id="cell7">
  <circle cx="434.915" cy="448.143" r="6.78181" stroke-width="0.5" stroke="black" fill="Red"/>
  <circle cx="434.915" cy="448.143" r="4.08714" stroke-width="0.5" stroke="Red" fill="Red"/>
   </g>
   <g id="cell8">
  <circle cx="434.501" cy="461.05" r="8.41271" stroke-width="0.5" stroke="black" fill="Red"/>
  <circle cx="434.501" cy="461.05" r="5.05167" stroke-width="0.5" stroke="Red" fill="Red"/>
   </g>
   <g id="cell9">
  <circle cx="436.7" cy="474.97" r="8.41271" stroke-width="0.5" stroke="black" fill="Red"/>
  <circle cx="436.7" cy="474.97" r="5.05167" stroke-width="0.5" stroke="Red" fill="Red"/>
   </g>
   <g id="cell10">
  <circle cx="436.066" cy="488.763" r="8.41271" stroke-width="0.5" stroke="black" fill="Red"/>
  <circle cx="436.066" cy="488.763" r="5.05167" stroke-width="0.5" stroke="Red" fill="Red"/>
   </g>
   <g id="cell11">
  <circle cx="437.287" cy="502.58" r="8.41271" stroke-width="0.5" stroke="black" fill="Red"/>
  <circle cx="437.287" cy="502.58" r="5.05167" stroke-width="0.5" stroke="Red" fill="Red"/>
   </g>
   <g id="cell12">
  <circle cx="437.408" cy="515.487" r="8.41271" stroke-width="0.5" stroke="black" fill="Red"/>
  <circle cx="437.408" cy="515.487" r="5.05167" stroke-width="0.5" stroke="Red" fill="Red"/>
   </g>
   <g id="cell13">
  <circle cx="436.015" cy="529.507" r="8.41271" stroke-width="0.5" stroke="black" fill="yellow"/>
  <circle cx="436.015" cy="529.507" r="5.05167" stroke-width="0.5" stroke="yellow" fill="yellow"/>
   </g>
   <g id="cell14">
  <circle cx="436.044" cy="544.705" r="8.41271" stroke-width="0.5" stroke="black" fill="yellow"/>
  <circle cx="436.044" cy="544.705" r="5.05167" stroke-width="0.5" stroke="yellow" fill="yellow"/>
   </g>
   <g id="cell15">
  <circle cx="435.971" cy="559.182" r="8.41271" stroke-width="0.5" stroke="black" fill="blue"/>
  <circle cx="435.971" cy="559.182" r="5.05167" stroke-width="0.5" stroke="blue" fill="blue"/>
   </g>
   <g id="cell16">
  <circle cx="447.984" cy="426.984" r="8.41271" stroke-width="0.5" stroke="black" fill="blue"/>
  <circle cx="447.984" cy="426.984" r="5.05167" stroke-width="0.5" stroke="blue" fill="blue"/>
   </g>
   <g id="cell17">
  <circle cx="450.421" cy="440.567" r="8.41271" stroke-width="0.5" stroke="black" fill="yellow"/>
  <circle cx="450.421" cy="440.567" r="5.05167" stroke-width="0.5" stroke="yellow" fill="yellow"/>
   </g>
   <g id="cell18">
  <circle cx="446.552" cy="453.34" r="8.41271" stroke-width="0.5" stroke="black" fill="Red"/>
  <circle cx="446.552" cy="453.34" r="5.05167" stroke-width="0.5" stroke="Red" fill="Red"/>
   </g>
   <g id="cell19">
  <circle cx="449.131" cy="467.657" r="8.41271" stroke-width="0.5" stroke="black" fill="blue"/>
  <circle cx="449.131" cy="467.657" r="5.05167" stroke-width="0.5" stroke="blue" fill="blue"/>
   </g>
   <g id="cell20">
  <circle cx="447.902" cy="480.892" r="8.41271" stroke-width="0.5" stroke="black" fill="Red"/>
  <circle cx="447.902" cy="480.892" r="5.05167" stroke-width="0.5" stroke="Red" fill="Red"/>
   </g>
   <g id="cell21">
  <circle cx="448.58" cy="495.321" r="8.41271" stroke-width="0.5" stroke="black" fill="Red"/>
  <circle cx="448.58" cy="495.321" r="5.05167" stroke-width="0.5" stroke="Red" fill="Red"/>
   </g>
   <g id="cell22">
  <circle cx="450.533" cy="509.557" r="8.41271" stroke-width="0.5" stroke="black" fill="blue"/>
  <circle cx="450.533" cy="509.557" r="5.05167" stroke-width="0.5" stroke="blue" fill="blue"/>
   </g>
   <g id="cell23">
  <circle cx="449.9" cy="522.606" r="8.41271" stroke-width="0.5" stroke="black" fill="Red"/>
  <circle cx="449.9" cy="522.606" r="5.05167" stroke-width="0.5" stroke="Red" fill="Red"/>
   </g>
   <g id="cell24">
  <circle cx="449.666" cy="537.114" r="8.41271" stroke-width="0.5" stroke="black" fill="Red"/>
  <circle cx="449.666" cy="537.114" r="5.05167" stroke-width="0.5" stroke="Red" fill="Red"/>
   </g>
   <g id="cell25">
  <circle cx="449.39" cy="550.626" r="8.41271" stroke-width="0.5" stroke="black" fill="Red"/>
  <circle cx="449.39" cy="550.626" r="5.05167" stroke-width="0.5" stroke="Red" fill="Red"/>
   </g>
   <g id="cell26">
  <circle cx="449.787" cy="564.359" r="8.41271" stroke-width="0.5" stroke="black" fill="Red"/>
  <circle cx="449.787" cy="564.359" r="5.05167" stroke-width="0.5" stroke="Red" fill="Red"/>
   </g>
   <g id="cell27">
  <circle cx="460.874" cy="418.58" r="8.41271" stroke-width="0.5" stroke="black" fill="Red"/>
  <circle cx="460.874" cy="418.58" r="5.05167" stroke-width="0.5" stroke="Red" fill="Red"/>
   </g>
   <g id="cell28">
  <circle cx="462.334" cy="432.726" r="8.41271" stroke-width="0.5" stroke="black" fill="Red"/>
  <circle cx="462.334" cy="432.726" r="5.05167" stroke-width="0.5" stroke="Red" fill="Red"/>
   </g>
   <g id="cell29">
  <circle cx="461.065" cy="447.453" r="8.41271" stroke-width="0.5" stroke="black" fill="blue"/>
  <circle cx="461.065" cy="447.453" r="5.05167" stroke-width="0.5" stroke="blue" fill="blue"/>
   </g>
   <g id="cell30">
  <circle cx="461.798" cy="460.304" r="8.41271" stroke-width="0.5" stroke="black" fill="Red"/>
  <circle cx="461.798" cy="460.304" r="5.05167" stroke-width="0.5" stroke="Red" fill="Red"/>
   </g>
   <g id="cell31">
  <circle cx="461.897" cy="474.031" r="8.41271" stroke-width="0.5" stroke="black" fill="Red"/>
  <circle cx="461.897" cy="474.031" r="5.05167" stroke-width="0.5" stroke="Red" fill="Red"/>
   </g>
   <g id="cell32">
  <circle cx="460.349" cy="487.55" r="8.41271" stroke-width="0.5" stroke="black" fill="blue"/>
  <circle cx="460.349" cy="487.55" r="5.05167" stroke-width="0.5" stroke="blue" fill="blue"/>
   </g>
   <g id="cell33">
  <circle cx="460.872" cy="501.775" r="8.41271" stroke-width="0.5" stroke="black" fill="Red"/>
  <circle cx="460.872" cy="501.775" r="5.05167" stroke-width="0.5" stroke="Red" fill="Red"/>
   </g>
   <g id="cell34">
  <circle cx="464.762" cy="515.947" r="8.41271" stroke-width="0.5" stroke="black" fill="Red"/>
  <circle cx="464.762" cy="515.947" r="5.05167" stroke-width="0.5" stroke="Red" fill="Red"/>
   </g>
   <g id="cell35">
  <circle cx="462.979" cy="529.796" r="8.41271" stroke-width="0.5" stroke="black" fill="Red"/>
  <circle cx="462.979" cy="529.796" r="5.05167" stroke-width="0.5" stroke="Red" fill="Red"/>
   </g>
   <g id="cell36">
  <circle cx="463.512" cy="543.873" r="8.41271" stroke-width="0.5" stroke="black" fill="blue"/>
  <circle cx="463.512" cy="543.873" r="5.05167" stroke-width="0.5" stroke="blue" fill="blue"/>
   </g>
   <g id="cell37">
  <circle cx="463.055" cy="557.54" r="8.41271" stroke-width="0.5" stroke="black" fill="Red"/>
  <circle cx="463.055" cy="557.54" r="5.05167" stroke-width="0.5" stroke="Red" fill="Red"/>
   </g>
   <g id="cell38">
  <circle cx="462.99" cy="573.435" r="8.41271" stroke-width="0.5" stroke="black" fill="yellow"/>
  <circle cx="462.99" cy="573.435" r="5.05167" stroke-width="0.5" stroke="yellow" fill="yellow"/>
   </g>
   <g id="cell39">
  <circle cx="460.933" cy="587.995" r="8.41271" stroke-width="0.5" stroke="black" fill="blue"/>
  <circle cx="460.933" cy="587.995" r="5.05167" stroke-width="0.5" stroke="blue" fill="blue"/>
   </g>
   <g id="cell40">
  <circle cx="474.054" cy="410.684" r="8.41271" stroke-width="0.5" stroke="black" fill="blue"/>
  <circle cx="474.054" cy="410.684" r="5.05167" stroke-width="0.5" stroke="blue" fill="blue"/>
   </g>
   <g id="cell41">
  <circle cx="474.734" cy="424.713" r="8.41271" stroke-width="0.5" stroke="black" fill="yellow"/>
  <circle cx="474.734" cy="424.713" r="5.05167" stroke-width="0.5" stroke="yellow" fill="yellow"/>
   </g>
   <g id="cell42">
  <circle cx="474.705" cy="439.649" r="8.41271" stroke-width="0.5" stroke="black" fill="Red"/>
  <circle cx="474.705" cy="439.649" r="5.05167" stroke-width="0.5" stroke="Red" fill="Red"/>
   </g>
   <g id="cell43">
  <circle cx="474.588" cy="452.782" r="8.41271" stroke-width="0.5" stroke="black" fill="Red"/>
  <circle cx="474.588" cy="452.782" r="5.05167" stroke-width="0.5" stroke="Red" fill="Red"/>
   </g>
   <g id="cell44">
  <circle cx="474.551" cy="465.493" r="8.41271" stroke-width="0.5" stroke="black" fill="blue"/>
  <circle cx="474.551" cy="465.493" r="5.05167" stroke-width="0.5" stroke="blue" fill="blue"/>
   </g>
   <g id="cell45">
  <circle cx="473.516" cy="480.409" r="8.41271" stroke-width="0.5" stroke="black" fill="Red"/>
  <circle cx="473.516" cy="480.409" r="5.05167" stroke-width="0.5" stroke="Red" fill="Red"/>
   </g>
   <g id="cell46">
  <circle cx="473.391" cy="494.135" r="8.41271" stroke-width="0.5" stroke="black" fill="Red"/>
  <circle cx="473.391" cy="494.135" r="5.05167" stroke-width="0.5" stroke="Red" fill="Red"/>
   </g>
   <g id="cell47">
  <circle cx="472.674" cy="506.412" r="6.75639" stroke-width="0.5" stroke="black" fill="Red"/>
  <circle cx="472.674" cy="506.412" r="4.06813" stroke-width="0.5" stroke="Red" fill="Red"/>
   </g>
   <g id="cell48">
  <circle cx="476.059" cy="524.14" r="8.41271" stroke-width="0.5" stroke="black" fill="Red"/>
  <circle cx="476.059" cy="524.14" r="5.05167" stroke-width="0.5" stroke="Red" fill="Red"/>
   </g>
   <g id="cell49">
  <circle cx="476.321" cy="537.608" r="8.41271" stroke-width="0.5" stroke="black" fill="Red"/>
  <circle cx="476.321" cy="537.608" r="5.05167" stroke-width="0.5" stroke="Red" fill="Red"/>
   </g>
   <g id="cell50">
  <circle cx="475.495" cy="551.567" r="8.41271" stroke-width="0.5" stroke="black" fill="Red"/>
  <circle cx="475.495" cy="551.567" r="5.05167" stroke-width="0.5" stroke="Red" fill="Red"/>
   </g>
   <g id="cell51">
  <circle cx="476.287" cy="566.141" r="8.41271" stroke-width="0.5" stroke="black" fill="blue"/>
  <circle cx="476.287" cy="566.141" r="5.05167" stroke-width="0.5" stroke="blue" fill="blue"/>
   </g>
   <g id="cell52">
  <circle cx="475.153" cy="580.502" r="8.41271" stroke-width="0.5" stroke="black" fill="Red"/>
  <circle cx="475.153" cy="580.502" r="5.05167" stroke-width="0.5" stroke="Red" fill="Red"/>
   </g>
   <g id="cell53">
  <circle cx="487.929" cy="416.317" r="8.41271" stroke-width="0.5" stroke="black" fill="yellow"/>
  <circle cx="487.929" cy="416.317" r="5.05167" stroke-width="0.5" stroke="yellow" fill="yellow"/>
   </g>
   <g id="cell54">
  <circle cx="488.459" cy="431.237" r="8.41271" stroke-width="0.5" stroke="black" fill="Red"/>
  <circle cx="488.459" cy="431.237" r="5.05167" stroke-width="0.5" stroke="Red" fill="Red"/>
   </g>
   <g id="cell55">
  <circle cx="487.905" cy="445.901" r="8.41271" stroke-width="0.5" stroke="black" fill="Red"/>
  <circle cx="487.905" cy="445.901" r="5.05167" stroke-width="0.5" stroke="Red" fill="Red"/>
   </g>
   <g id="cell56">
  <circle cx="488.908" cy="460.305" r="8.41271" stroke-width="0.5" stroke="black" fill="Red"/>
  <circle cx="488.908" cy="460.305" r="5.05167" stroke-width="0.5" stroke="Red" fill="Red"/>
   </g>
   <g id="cell57">
  <circle cx="487.157" cy="473.516" r="8.41271" stroke-width="0.5" stroke="black" fill="Red"/>
  <circle cx="487.157" cy="473.516" r="5.05167" stroke-width="0.5" stroke="Red" fill="Red"/>
   </g>
   <g id="cell58">
  <circle cx="486.761" cy="486.974" r="8.41271" stroke-width="0.5" stroke="black" fill="blue"/>
  <circle cx="486.761" cy="486.974" r="5.05167" stroke-width="0.5" stroke="blue" fill="blue"/>
   </g>
   <g id="cell59">
  <circle cx="485.799" cy="502.354" r="8.41271" stroke-width="0.5" stroke="black" fill="Red"/>
  <circle cx="485.799" cy="502.354" r="5.05167" stroke-width="0.5" stroke="Red" fill="Red"/>
   </g>
   <g id="cell60">
  <circle cx="489.701" cy="516.543" r="8.41271" stroke-width="0.5" stroke="black" fill="Red"/>
  <circle cx="489.701" cy="516.543" r="5.05167" stroke-width="0.5" stroke="Red" fill="Red"/>
   </g>
   <g id="cell61">
  <circle cx="489.758" cy="530.269" r="8.41271" stroke-width="0.5" stroke="black" fill="blue"/>
  <circle cx="489.758" cy="530.269" r="5.05167" stroke-width="0.5" stroke="blue" fill="blue"/>
   </g>
   <g id="cell62">
  <circle cx="488.514" cy="544.829" r="8.41271" stroke-width="0.5" stroke="black" fill="Red"/>
  <circle cx="488.514" cy="544.829" r="5.05167" stroke-width="0.5" stroke="Red" fill="Red"/>
   </g>
   <g id="cell63">
  <circle cx="487.83" cy="558.902" r="8.41271" stroke-width="0.5" stroke="black" fill="Red"/>
  <circle cx="487.83" cy="558.902" r="5.05167" stroke-width="0.5" stroke="Red" fill="Red"/>
   </g>
   <g id="cell64">
  <circle cx="488.874" cy="572.422" r="8.41271" stroke-width="0.5" stroke="black" fill="Red"/>
  <circle cx="488.874" cy="572.422" r="5.05167" stroke-width="0.5" stroke="Red" fill="Red"/>
   </g>
   <g id="cell65">
  <circle cx="488.178" cy="586.049" r="8.41271" stroke-width="0.5" stroke="black" fill="Red"/>
  <circle cx="488.178" cy="586.049" r="5.05167" stroke-width="0.5" stroke="Red" fill="Red"/>
   </g>
   <g id="cell66">
  <circle cx="500.319" cy="408.243" r="8.41271" stroke-width="0.5" stroke="black" fill="blue"/>
  <circle cx="500.319" cy="408.243" r="5.05167" stroke-width="0.5" stroke="blue" fill="blue"/>
   </g>
   <g id="cell67">
  <circle cx="500.821" cy="423.56" r="8.41271" stroke-width="0.5" stroke="black" fill="yellow"/>
  <circle cx="500.821" cy="423.56" r="5.05167" stroke-width="0.5" stroke="yellow" fill="yellow"/>
   </g>
   <g id="cell68">
  <circle cx="500.698" cy="437.804" r="8.41271" stroke-width="0.5" stroke="black" fill="Red"/>
  <circle cx="500.698" cy="437.804" r="5.05167" stroke-width="0.5" stroke="Red" fill="Red"/>
   </g>
   <g id="cell69">
  <circle cx="501.087" cy="452.083" r="8.41271" stroke-width="0.5" stroke="black" fill="Red"/>
  <circle cx="501.087" cy="452.083" r="5.05167" stroke-width="0.5" stroke="Red" fill="Red"/>
   </g>
   <g id="cell70">
  <circle cx="501.61" cy="467.322" r="8.41271" stroke-width="0.5" stroke="black" fill="blue"/>
  <circle cx="501.61" cy="467.322" r="5.05167" stroke-width="0.5" stroke="blue" fill="blue"/>
   </g>
   <g id="cell71">
  <circle cx="500.567" cy="480.947" r="8.41271" stroke-width="0.5" stroke="black" fill="Red"/>
  <circle cx="500.567" cy="480.947" r="5.05167" stroke-width="0.5" stroke="Red" fill="Red"/>
   </g>
   <g id="cell72">
  <circle cx="501.031" cy="495.829" r="8.41271" stroke-width="0.5" stroke="black" fill="Red"/>
  <circle cx="501.031" cy="495.829" r="5.05167" stroke-width="0.5" stroke="Red" fill="Red"/>
   </g>
   <g id="cell73">
  <circle cx="501.525" cy="508.359" r="8.41271" stroke-width="0.5" stroke="black" fill="blue"/>
  <circle cx="501.525" cy="508.359" r="5.05167" stroke-width="0.5" stroke="blue" fill="blue"/>
   </g>
   <g id="cell74">
  <circle cx="502.006" cy="523.475" r="8.41271" stroke-width="0.5" stroke="black" fill="Red"/>
  <circle cx="502.006" cy="523.475" r="5.05167" stroke-width="0.5" stroke="Red" fill="Red"/>
   </g>
   <g id="cell75">
  <circle cx="501.847" cy="537.324" r="8.41271" stroke-width="0.5" stroke="black" fill="Red"/>
  <circle cx="501.847" cy="537.324" r="5.05167" stroke-width="0.5" stroke="Red" fill="Red"/>
   </g>
   <g id="cell76">
  <circle cx="501.062" cy="551.456" r="8.41271" stroke-width="0.5" stroke="black" fill="Red"/>
  <circle cx="501.062" cy="551.456" r="5.05167" stroke-width="0.5" stroke="Red" fill="Red"/>
   </g>
   <g id="cell77">
  <circle cx="501.563" cy="564.85" r="8.41271" stroke-width="0.5" stroke="black" fill="Red"/>
  <circle cx="501.563" cy="564.85" r="5.05167" stroke-width="0.5" stroke="Red" fill="Red"/>
   </g>
   <g id="cell78">
  <circle cx="501.276" cy="579.238" r="8.41271" stroke-width="0.5" stroke="black" fill="Red"/>
  <circle cx="501.276" cy="579.238" r="5.05167" stroke-width="0.5" stroke="Red" fill="Red"/>
   </g>
   <g id="cell79">
  <circle cx="499.606" cy="592.617" r="8.41271" stroke-width="0.5" stroke="black" fill="blue"/>
  <circle cx="499.606" cy="592.617" r="5.05167" stroke-width="0.5" stroke="blue" fill="blue"/>
   </g>
   <g id="cell80">
  <circle cx="513.572" cy="416.295" r="8.41271" stroke-width="0.5" stroke="black" fill="yellow"/>
  <circle cx="513.572" cy="416.295" r="5.05167" stroke-width="0.5" stroke="yellow" fill="yellow"/>
   </g>
   <g id="cell81">
  <circle cx="514.808" cy="431.231" r="8.41271" stroke-width="0.5" stroke="black" fill="blue"/>
  <circle cx="514.808" cy="431.231" r="5.05167" stroke-width="0.5" stroke="blue" fill="blue"/>
   </g>
   <g id="cell82">
  <circle cx="513.03" cy="444.701" r="8.41271" stroke-width="0.5" stroke="black" fill="blue"/>
  <circle cx="513.03" cy="444.701" r="5.05167" stroke-width="0.5" stroke="blue" fill="blue"/>
   </g>
   <g id="cell83">
  <circle cx="516.303" cy="459.368" r="8.41271" stroke-width="0.5" stroke="black" fill="Red"/>
  <circle cx="516.303" cy="459.368" r="5.05167" stroke-width="0.5" stroke="Red" fill="Red"/>
   </g>
   <g id="cell84">
  <circle cx="514.527" cy="473.388" r="8.41271" stroke-width="0.5" stroke="black" fill="Red"/>
  <circle cx="514.527" cy="473.388" r="5.05167" stroke-width="0.5" stroke="Red" fill="Red"/>
   </g>
   <g id="cell85">
  <circle cx="513.592" cy="488.698" r="8.41271" stroke-width="0.5" stroke="black" fill="Red"/>
  <circle cx="513.592" cy="488.698" r="5.05167" stroke-width="0.5" stroke="Red" fill="Red"/>
   </g>
   <g id="cell86">
  <circle cx="515.38" cy="503.416" r="8.41271" stroke-width="0.5" stroke="black" fill="blue"/>
  <circle cx="515.38" cy="503.416" r="5.05167" stroke-width="0.5" stroke="blue" fill="blue"/>
   </g>
   <g id="cell87">
  <circle cx="515.937" cy="516.444" r="8.41271" stroke-width="0.5" stroke="black" fill="Red"/>
  <circle cx="515.937" cy="516.444" r="5.05167" stroke-width="0.5" stroke="Red" fill="Red"/>
   </g>
   <g id="cell88">
  <circle cx="513.921" cy="530.059" r="8.41271" stroke-width="0.5" stroke="black" fill="Red"/>
  <circle cx="513.921" cy="530.059" r="5.05167" stroke-width="0.5" stroke="Red" fill="Red"/>
   </g>
   <g id="cell89">
  <circle cx="515.291" cy="545.069" r="8.41271" stroke-width="0.5" stroke="black" fill="Red"/>
  <circle cx="515.291" cy="545.069" r="5.05167" stroke-width="0.5" stroke="Red" fill="Red"/>
   </g>
   <g id="cell90">
  <circle cx="515.141" cy="559.45" r="8.41271" stroke-width="0.5" stroke="black" fill="blue"/>
  <circle cx="515.141" cy="559.45" r="5.05167" stroke-width="0.5" stroke="blue" fill="blue"/>
   </g>
   <g id="cell91">
  <circle cx="514.633" cy="572.476" r="8.41271" stroke-width="0.5" stroke="black" fill="Red"/>
  <circle cx="514.633" cy="572.476" r="5.05167" stroke-width="0.5" stroke="Red" fill="Red"/>
   </g>
   <g id="cell92">
  <circle cx="513.589" cy="587.745" r="8.41271" stroke-width="0.5" stroke="black" fill="yellow"/>
  <circle cx="513.589" cy="587.745" r="5.05167" stroke-width="0.5" stroke="yellow" fill="yellow"/>
   </g>
   <g id="cell93">
  <circle cx="527.308" cy="411.451" r="8.41271" stroke-width="0.5" stroke="black" fill="blue"/>
  <circle cx="527.308" cy="411.451" r="5.05167" stroke-width="0.5" stroke="blue" fill="blue"/>
   </g>
   <g id="cell94">
  <circle cx="527.132" cy="424.31" r="8.41271" stroke-width="0.5" stroke="black" fill="yellow"/>
  <circle cx="527.132" cy="424.31" r="5.05167" stroke-width="0.5" stroke="yellow" fill="yellow"/>
   </g>
   <g id="cell95">
  <circle cx="527.671" cy="438.262" r="8.41271" stroke-width="0.5" stroke="black" fill="Red"/>
  <circle cx="527.671" cy="438.262" r="5.05167" stroke-width="0.5" stroke="Red" fill="Red"/>
   </g>
   <g id="cell96">
  <circle cx="524.424" cy="448.863" r="6.75639" stroke-width="0.5" stroke="black" fill="Red"/>
  <circle cx="524.424" cy="448.863" r="4.06813" stroke-width="0.5" stroke="Red" fill="Red"/>
   </g>
   <g id="cell97">
  <circle cx="528.695" cy="467.885" r="8.41271" stroke-width="0.5" stroke="black" fill="Red"/>
  <circle cx="528.695" cy="467.885" r="5.05167" stroke-width="0.5" stroke="Red" fill="Red"/>
   </g>
   <g id="cell98">
  <circle cx="528.134" cy="481.98" r="8.41271" stroke-width="0.5" stroke="black" fill="Red"/>
  <circle cx="528.134" cy="481.98" r="5.05167" stroke-width="0.5" stroke="Red" fill="Red"/>
   </g>
   <g id="cell99">
  <circle cx="528.4" cy="495.96" r="8.41271" stroke-width="0.5" stroke="black" fill="Red"/>
  <circle cx="528.4" cy="495.96" r="5.05167" stroke-width="0.5" stroke="Red" fill="Red"/>
   </g>
   <g id="cell100">
  <circle cx="528.085" cy="509.564" r="8.41271" stroke-width="0.5" stroke="black" fill="Red"/>
  <circle cx="528.085" cy="509.564" r="5.05167" stroke-width="0.5" stroke="Red" fill="Red"/>
   </g>
   <g id="cell101">
  <circle cx="528.721" cy="524.456" r="8.41271" stroke-width="0.5" stroke="black" fill="Red"/>
  <circle cx="528.721" cy="524.456" r="5.05167" stroke-width="0.5" stroke="Red" fill="Red"/>
   </g>
   <g id="cell102">
  <circle cx="532.098" cy="540.047" r="6.69288" stroke-width="0.5" stroke="black" fill="blue"/>
  <circle cx="532.098" cy="540.047" r="4.02051" stroke-width="0.5" stroke="blue" fill="blue"/>
   </g>
   <g id="cell103">
  <circle cx="528.574" cy="551.337" r="8.41271" stroke-width="0.5" stroke="black" fill="Red"/>
  <circle cx="528.574" cy="551.337" r="5.05167" stroke-width="0.5" stroke="Red" fill="Red"/>
   </g>
   <g id="cell104">
  <circle cx="528.756" cy="565.352" r="8.41271" stroke-width="0.5" stroke="black" fill="Red"/>
  <circle cx="528.756" cy="565.352" r="5.05167" stroke-width="0.5" stroke="Red" fill="Red"/>
   </g>
   <g id="cell105">
  <circle cx="526.662" cy="579.913" r="8.41271" stroke-width="0.5" stroke="black" fill="blue"/>
  <circle cx="526.662" cy="579.913" r="5.05167" stroke-width="0.5" stroke="blue" fill="blue"/>
   </g>
   <g id="cell106">
  <circle cx="541.362" cy="417.941" r="8.41271" stroke-width="0.5" stroke="black" fill="yellow"/>
  <circle cx="541.362" cy="417.941" r="5.05167" stroke-width="0.5" stroke="yellow" fill="yellow"/>
   </g>
   <g id="cell107">
  <circle cx="539.891" cy="432.744" r="8.41271" stroke-width="0.5" stroke="black" fill="yellow"/>
  <circle cx="539.891" cy="432.744" r="5.05167" stroke-width="0.5" stroke="yellow" fill="yellow"/>
   </g>
   <g id="cell108">
  <circle cx="539.89" cy="447.844" r="8.41271" stroke-width="0.5" stroke="black" fill="Red"/>
  <circle cx="539.89" cy="447.844" r="5.05167" stroke-width="0.5" stroke="Red" fill="Red"/>
   </g>
   <g id="cell109">
  <circle cx="543.856" cy="460.967" r="8.41271" stroke-width="0.5" stroke="black" fill="Red"/>
  <circle cx="543.856" cy="460.967" r="5.05167" stroke-width="0.5" stroke="Red" fill="Red"/>
   </g>
   <g id="cell110">
  <circle cx="541.674" cy="473.857" r="8.41271" stroke-width="0.5" stroke="black" fill="Red"/>
  <circle cx="541.674" cy="473.857" r="5.05167" stroke-width="0.5" stroke="Red" fill="Red"/>
   </g>
   <g id="cell111">
  <circle cx="542.775" cy="487.95" r="8.41271" stroke-width="0.5" stroke="black" fill="Red"/>
  <circle cx="542.775" cy="487.95" r="5.05167" stroke-width="0.5" stroke="Red" fill="Red"/>
   </g>
   <g id="cell112">
  <circle cx="542.084" cy="501.816" r="8.41271" stroke-width="0.5" stroke="black" fill="Red"/>
  <circle cx="542.084" cy="501.816" r="5.05167" stroke-width="0.5" stroke="Red" fill="Red"/>
   </g>
   <g id="cell113">
  <circle cx="541.764" cy="516.317" r="8.41271" stroke-width="0.5" stroke="black" fill="blue"/>
  <circle cx="541.764" cy="516.317" r="5.05167" stroke-width="0.5" stroke="blue" fill="blue"/>
   </g>
   <g id="cell114">
  <circle cx="540.357" cy="531.253" r="8.41271" stroke-width="0.5" stroke="black" fill="Red"/>
  <circle cx="540.357" cy="531.253" r="5.05167" stroke-width="0.5" stroke="Red" fill="Red"/>
   </g>
   <g id="cell115">
  <circle cx="541.929" cy="546.358" r="8.41271" stroke-width="0.5" stroke="black" fill="Red"/>
  <circle cx="541.929" cy="546.358" r="5.05167" stroke-width="0.5" stroke="Red" fill="Red"/>
   </g>
   <g id="cell116">
  <circle cx="541.684" cy="560.805" r="8.41271" stroke-width="0.5" stroke="black" fill="Red"/>
  <circle cx="541.684" cy="560.805" r="5.05167" stroke-width="0.5" stroke="Red" fill="Red"/>
   </g>
   <g id="cell117">
  <circle cx="539.756" cy="575.636" r="8.41271" stroke-width="0.5" stroke="black" fill="blue"/>
  <circle cx="539.756" cy="575.636" r="5.05167" stroke-width="0.5" stroke="blue" fill="blue"/>
   </g>
   <g id="cell118">
  <circle cx="553.505" cy="427.533" r="8.41271" stroke-width="0.5" stroke="black" fill="blue"/>
  <circle cx="553.505" cy="427.533" r="5.05167" stroke-width="0.5" stroke="blue" fill="blue"/>
   </g>
   <g id="cell119">
  <circle cx="552.18" cy="440.494" r="8.41271" stroke-width="0.5" stroke="black" fill="yellow"/>
  <circle cx="552.18" cy="440.494" r="5.05167" stroke-width="0.5" stroke="yellow" fill="yellow"/>
   </g>
   <g id="cell120">
  <circle cx="554.591" cy="453.489" r="8.41271" stroke-width="0.5" stroke="black" fill="yellow"/>
  <circle cx="554.591" cy="453.489" r="5.05167" stroke-width="0.5" stroke="yellow" fill="yellow"/>
   </g>
   <g id="cell121">
  <circle cx="555.859" cy="466.073" r="8.41271" stroke-width="0.5" stroke="black" fill="blue"/>
  <circle cx="555.859" cy="466.073" r="5.05167" stroke-width="0.5" stroke="blue" fill="blue"/>
   </g>
   <g id="cell122">
  <circle cx="555.337" cy="480.73" r="8.41271" stroke-width="0.5" stroke="black" fill="Red"/>
  <circle cx="555.337" cy="480.73" r="5.05167" stroke-width="0.5" stroke="Red" fill="Red"/>
   </g>
   <g id="cell123">
  <circle cx="556.437" cy="495.395" r="8.41271" stroke-width="0.5" stroke="black" fill="Red"/>
  <circle cx="556.437" cy="495.395" r="5.05167" stroke-width="0.5" stroke="Red" fill="Red"/>
   </g>
   <g id="cell124">
  <circle cx="554.207" cy="508.909" r="8.41271" stroke-width="0.5" stroke="black" fill="blue"/>
  <circle cx="554.207" cy="508.909" r="5.05167" stroke-width="0.5" stroke="blue" fill="blue"/>
   </g>
   <g id="cell125">
  <circle cx="554.238" cy="523.74" r="8.41271" stroke-width="0.5" stroke="black" fill="Red"/>
  <circle cx="554.238" cy="523.74" r="5.05167" stroke-width="0.5" stroke="Red" fill="Red"/>
   </g>
   <g id="cell126">
  <circle cx="554.491" cy="538.005" r="8.41271" stroke-width="0.5" stroke="black" fill="blue"/>
  <circle cx="554.491" cy="538.005" r="5.05167" stroke-width="0.5" stroke="blue" fill="blue"/>
   </g>
   <g id="cell127">
  <circle cx="554.845" cy="553.582" r="8.41271" stroke-width="0.5" stroke="black" fill="yellow"/>
  <circle cx="554.845" cy="553.582" r="5.05167" stroke-width="0.5" stroke="yellow" fill="yellow"/>
   </g>
   <g id="cell128">
  <circle cx="553.156" cy="568.9" r="8.41271" stroke-width="0.5" stroke="black" fill="yellow"/>
  <circle cx="553.156" cy="568.9" r="5.05167" stroke-width="0.5" stroke="yellow" fill="yellow"/>
   </g>
   <g id="cell129">
  <circle cx="566.724" cy="446.279" r="8.41271" stroke-width="0.5" stroke="black" fill="blue"/>
  <circle cx="566.724" cy="446.279" r="5.05167" stroke-width="0.5" stroke="blue" fill="blue"/>
   </g>
   <g id="cell130">
  <circle cx="568.097" cy="459.828" r="8.41271" stroke-width="0.5" stroke="black" fill="yellow"/>
  <circle cx="568.097" cy="459.828" r="5.05167" stroke-width="0.5" stroke="yellow" fill="yellow"/>
   </g>
   <g id="cell131">
  <circle cx="568.5" cy="473.164" r="8.41271" stroke-width="0.5" stroke="black" fill="yellow"/>
  <circle cx="568.5" cy="473.164" r="5.05167" stroke-width="0.5" stroke="yellow" fill="yellow"/>
   </g>
   <g id="cell132">
  <circle cx="568.483" cy="487.461" r="8.41271" stroke-width="0.5" stroke="black" fill="Red"/>
  <circle cx="568.483" cy="487.461" r="5.05167" stroke-width="0.5" stroke="Red" fill="Red"/>
   </g>
   <g id="cell133">
  <circle cx="569.424" cy="501.987" r="8.41271" stroke-width="0.5" stroke="black" fill="Red"/>
  <circle cx="569.424" cy="501.987" r="5.05167" stroke-width="0.5" stroke="Red" fill="Red"/>
   </g>
   <g id="cell134">
  <circle cx="566.983" cy="516.667" r="8.41271" stroke-width="0.5" stroke="black" fill="Red"/>
  <circle cx="566.983" cy="516.667" r="5.05167" stroke-width="0.5" stroke="Red" fill="Red"/>
   </g>
   <g id="cell135">
  <circle cx="567.265" cy="530.322" r="8.41271" stroke-width="0.5" stroke="black" fill="Red"/>
  <circle cx="567.265" cy="530.322" r="5.05167" stroke-width="0.5" stroke="Red" fill="Red"/>
   </g>
   <g id="cell136">
  <circle cx="567.315" cy="545.896" r="8.41271" stroke-width="0.5" stroke="black" fill="yellow"/>
  <circle cx="567.315" cy="545.896" r="5.05167" stroke-width="0.5" stroke="yellow" fill="yellow"/>
   </g>
   <g id="cell137">
  <circle cx="566.664" cy="561.649" r="8.41271" stroke-width="0.5" stroke="black" fill="blue"/>
  <circle cx="566.664" cy="561.649" r="5.05167" stroke-width="0.5" stroke="blue" fill="blue"/>
   </g>
   <g id="cell138">
  <circle cx="583.167" cy="463.834" r="8.41271" stroke-width="0.5" stroke="black" fill="blue"/>
  <circle cx="583.167" cy="463.834" r="5.05167" stroke-width="0.5" stroke="blue" fill="blue"/>
   </g>
   <g id="cell139">
  <circle cx="581.088" cy="479.723" r="8.41271" stroke-width="0.5" stroke="black" fill="Red"/>
  <circle cx="581.088" cy="479.723" r="5.05167" stroke-width="0.5" stroke="Red" fill="Red"/>
   </g>
   <g id="cell140">
  <circle cx="579.298" cy="494.169" r="6.78181" stroke-width="0.5" stroke="black" fill="Red"/>
  <circle cx="579.298" cy="494.169" r="4.08714" stroke-width="0.5" stroke="Red" fill="Red"/>
   </g>
   <g id="cell141">
  <circle cx="580.358" cy="510.295" r="8.41271" stroke-width="0.5" stroke="black" fill="yellow"/>
  <circle cx="580.358" cy="510.295" r="5.05167" stroke-width="0.5" stroke="yellow" fill="yellow"/>
   </g>
   <g id="cell142">
  <circle cx="579.798" cy="523.498" r="8.41271" stroke-width="0.5" stroke="black" fill="Red"/>
  <circle cx="579.798" cy="523.498" r="5.05167" stroke-width="0.5" stroke="Red" fill="Red"/>
   </g>
   <g id="cell143">
  <circle cx="578.109" cy="537.485" r="8.41271" stroke-width="0.5" stroke="black" fill="blue"/>
  <circle cx="578.109" cy="537.485" r="5.05167" stroke-width="0.5" stroke="blue" fill="blue"/>
   </g>
   <g id="cell144">
  <circle cx="438.997" cy="437.712" r="6.78181" stroke-width="0.5" stroke="black" fill="Red"/>
  <circle cx="438.997" cy="437.712" r="4.08714" stroke-width="0.5" stroke="Red" fill="Red"/>
   </g>
   <g id="cell145">
  <circle cx="588.127" cy="500.794" r="6.78181" stroke-width="0.5" stroke="black" fill="blue"/>
  <circle cx="588.127" cy="500.794" r="4.08714" stroke-width="0.5" stroke="blue" fill="blue"/>
   </g>
   <g id="cell146">
  <circle cx="478.578" cy="513.524" r="6.75639" stroke-width="0.5" stroke="black" fill="blue"/>
  <circle cx="478.578" cy="513.524" r="4.06813" stroke-width="0.5" stroke="blue" fill="blue"/>
   </g>
   <g id="cell147">
  <circle cx="530.577" cy="454.098" r="5.38686" stroke-width="0.5" stroke="black" fill="blue"/>
  <circle cx="530.577" cy="454.098" r="3.24579" stroke-width="0.5" stroke="blue" fill="blue"/>
   </g>
   <g id="cell148">
  <circle cx="523.943" cy="535.854" r="6.69288" stroke-width="0.5" stroke="black" fill="blue"/>
  <circle cx="523.943" cy="535.854" r="4.02051" stroke-width="0.5" stroke="blue" fill="blue"/>
   </g>
   <g id="cell149">
  <circle cx="534.865" cy="460.09" r="5.38686" stroke-width="0.5" stroke="black" fill="blue"/>
  <circle cx="534.865" cy="460.09" r="3.24579" stroke-width="0.5" stroke="blue" fill="blue"/>
   </g>
  </g>
 </g>
  <rect x="775" y="1035" width="200" height="10" stroke-width="2" stroke="rgb(255,255,255)" fill="rgb(0,0,0)"/>
  <text x="781.25" y="1028.75"
   font-family="Arial" font-size="25" fill="black" >
   200 &#956;m
  </text>
  <text x="25" y="1045"
   font-family="Arial" font-size="18.75" fill="black" >
   0 days, 0 hours, 0 minutes, and 12.8392 seconds
  </text>
  <rect x="0" y="70" width="1000" height="1000" stroke-width="2" stroke="rgb(0,0,0)" fill="none"/>
</svg>
