<?xml version="1.0" encoding="UTF-8" standalone="no"?>
<!-- Created with PhysiCell (http://PhysiCell.MathCancer.org/) -->
<svg 
 xmlns:dc="http://purl.org/dc/elements/1.1/" 
 xmlns:cc="http://creativecommons.org/ns#" 
 xmlns:rdf="http://www.w3.org/1999/02/22-rdf-syntax-ns#" 
 xmlns:svg="http://www.w3.org/2000/svg" 
 xmlns="http://www.w3.org/2000/svg" 
 version="1.1" 
 width="1000" 
 height="1070" 
 id="svg2">
  <rect x="0" y="0" width="1000" height="1070" stroke-width="2" stroke="white" fill="white"/>
  <text x="12.5" y="30"
   font-family="Arial" font-size="25" fill="black" >
   Current time: 0 days, 0 hours, and 40.00 minutes, z = 0.00 &#956;m
  </text>
  <text x="12.5" y="57.5"
   font-family="Arial" font-size="23.75" fill="black" >
   150 agents
  </text>
 <g id="tissue" 
    transform="translate(0,1070) scale(1,-1)">
  <g id="ECM">
  </g>
  <g id="cells">
   <g id="cell0">
  <circle cx="418.456" cy="454.134" r="8.41271" stroke-width="0.5" stroke="black" fill="blue"/>
  <circle cx="418.456" cy="454.134" r="5.05167" stroke-width="0.5" stroke="blue" fill="blue"/>
   </g>
   <g id="cell1">
  <circle cx="422.437" cy="468.654" r="8.41271" stroke-width="0.5" stroke="black" fill="yellow"/>
  <circle cx="422.437" cy="468.654" r="5.05167" stroke-width="0.5" stroke="yellow" fill="yellow"/>
   </g>
   <g id="cell2">
  <circle cx="422.606" cy="482.684" r="8.41271" stroke-width="0.5" stroke="black" fill="blue"/>
  <circle cx="422.606" cy="482.684" r="5.05167" stroke-width="0.5" stroke="blue" fill="blue"/>
   </g>
   <g id="cell3">
  <circle cx="423.677" cy="496.62" r="8.41271" stroke-width="0.5" stroke="black" fill="Red"/>
  <circle cx="423.677" cy="496.62" r="5.05167" stroke-width="0.5" stroke="Red" fill="Red"/>
   </g>
   <g id="cell4">
  <circle cx="424.027" cy="509.137" r="8.41271" stroke-width="0.5" stroke="black" fill="blue"/>
  <circle cx="424.027" cy="509.137" r="5.05167" stroke-width="0.5" stroke="blue" fill="blue"/>
   </g>
   <g id="cell5">
  <circle cx="423.173" cy="523.18" r="8.41271" stroke-width="0.5" stroke="black" fill="Red"/>
  <circle cx="423.173" cy="523.18" r="5.05167" stroke-width="0.5" stroke="Red" fill="Red"/>
   </g>
   <g id="cell6">
  <circle cx="423.079" cy="537.88" r="8.41271" stroke-width="0.5" stroke="black" fill="blue"/>
  <circle cx="423.079" cy="537.88" r="5.05167" stroke-width="0.5" stroke="blue" fill="blue"/>
   </g>
   <g id="cell7">
  <circle cx="434.327" cy="447.696" r="6.75639" stroke-width="0.5" stroke="black" fill="yellow"/>
  <circle cx="434.327" cy="447.696" r="4.06813" stroke-width="0.5" stroke="yellow" fill="yellow"/>
   </g>
   <g id="cell8">
  <circle cx="434.5" cy="461.06" r="8.41271" stroke-width="0.5" stroke="black" fill="yellow"/>
  <circle cx="434.5" cy="461.06" r="5.05167" stroke-width="0.5" stroke="yellow" fill="yellow"/>
   </g>
   <g id="cell9">
  <circle cx="434.949" cy="475.104" r="8.41271" stroke-width="0.5" stroke="black" fill="Red"/>
  <circle cx="434.949" cy="475.104" r="5.05167" stroke-width="0.5" stroke="Red" fill="Red"/>
   </g>
   <g id="cell10">
  <circle cx="434.704" cy="489.202" r="8.41271" stroke-width="0.5" stroke="black" fill="Red"/>
  <circle cx="434.704" cy="489.202" r="5.05167" stroke-width="0.5" stroke="Red" fill="Red"/>
   </g>
   <g id="cell11">
  <circle cx="436.826" cy="502.163" r="8.41271" stroke-width="0.5" stroke="black" fill="Red"/>
  <circle cx="436.826" cy="502.163" r="5.05167" stroke-width="0.5" stroke="Red" fill="Red"/>
   </g>
   <g id="cell12">
  <circle cx="436.068" cy="516.562" r="8.41271" stroke-width="0.5" stroke="black" fill="Red"/>
  <circle cx="436.068" cy="516.562" r="5.05167" stroke-width="0.5" stroke="Red" fill="Red"/>
   </g>
   <g id="cell13">
  <circle cx="435.736" cy="530.163" r="8.41271" stroke-width="0.5" stroke="black" fill="yellow"/>
  <circle cx="435.736" cy="530.163" r="5.05167" stroke-width="0.5" stroke="yellow" fill="yellow"/>
   </g>
   <g id="cell14">
  <circle cx="435.414" cy="544.105" r="8.41271" stroke-width="0.5" stroke="black" fill="yellow"/>
  <circle cx="435.414" cy="544.105" r="5.05167" stroke-width="0.5" stroke="yellow" fill="yellow"/>
   </g>
   <g id="cell15">
  <circle cx="435.981" cy="560.03" r="8.41271" stroke-width="0.5" stroke="black" fill="blue"/>
  <circle cx="435.981" cy="560.03" r="5.05167" stroke-width="0.5" stroke="blue" fill="blue"/>
   </g>
   <g id="cell16">
  <circle cx="448.248" cy="428.422" r="8.41271" stroke-width="0.5" stroke="black" fill="blue"/>
  <circle cx="448.248" cy="428.422" r="5.05167" stroke-width="0.5" stroke="blue" fill="blue"/>
   </g>
   <g id="cell17">
  <circle cx="450.24" cy="441.432" r="8.41271" stroke-width="0.5" stroke="black" fill="yellow"/>
  <circle cx="450.24" cy="441.432" r="5.05167" stroke-width="0.5" stroke="yellow" fill="yellow"/>
   </g>
   <g id="cell18">
  <circle cx="446.279" cy="452.605" r="8.41271" stroke-width="0.5" stroke="black" fill="Red"/>
  <circle cx="446.279" cy="452.605" r="5.05167" stroke-width="0.5" stroke="Red" fill="Red"/>
   </g>
   <g id="cell19">
  <circle cx="446.737" cy="467.351" r="8.41271" stroke-width="0.5" stroke="black" fill="blue"/>
  <circle cx="446.737" cy="467.351" r="5.05167" stroke-width="0.5" stroke="blue" fill="blue"/>
   </g>
   <g id="cell20">
  <circle cx="447.685" cy="480.847" r="8.41271" stroke-width="0.5" stroke="black" fill="Red"/>
  <circle cx="447.685" cy="480.847" r="5.05167" stroke-width="0.5" stroke="Red" fill="Red"/>
   </g>
   <g id="cell21">
  <circle cx="447.368" cy="494.472" r="8.41271" stroke-width="0.5" stroke="black" fill="Red"/>
  <circle cx="447.368" cy="494.472" r="5.05167" stroke-width="0.5" stroke="Red" fill="Red"/>
   </g>
   <g id="cell22">
  <circle cx="448.522" cy="508.728" r="8.41271" stroke-width="0.5" stroke="black" fill="blue"/>
  <circle cx="448.522" cy="508.728" r="5.05167" stroke-width="0.5" stroke="blue" fill="blue"/>
   </g>
   <g id="cell23">
  <circle cx="448.554" cy="523.125" r="8.41271" stroke-width="0.5" stroke="black" fill="Red"/>
  <circle cx="448.554" cy="523.125" r="5.05167" stroke-width="0.5" stroke="Red" fill="Red"/>
   </g>
   <g id="cell24">
  <circle cx="448.566" cy="537.368" r="8.41271" stroke-width="0.5" stroke="black" fill="Red"/>
  <circle cx="448.566" cy="537.368" r="5.05167" stroke-width="0.5" stroke="Red" fill="Red"/>
   </g>
   <g id="cell25">
  <circle cx="448.15" cy="551.477" r="8.41271" stroke-width="0.5" stroke="black" fill="Red"/>
  <circle cx="448.15" cy="551.477" r="5.05167" stroke-width="0.5" stroke="Red" fill="Red"/>
   </g>
   <g id="cell26">
  <circle cx="449.697" cy="565.273" r="8.41271" stroke-width="0.5" stroke="black" fill="yellow"/>
  <circle cx="449.697" cy="565.273" r="5.05167" stroke-width="0.5" stroke="yellow" fill="yellow"/>
   </g>
   <g id="cell27">
  <circle cx="461.355" cy="418.904" r="8.41271" stroke-width="0.5" stroke="black" fill="yellow"/>
  <circle cx="461.355" cy="418.904" r="5.05167" stroke-width="0.5" stroke="yellow" fill="yellow"/>
   </g>
   <g id="cell28">
  <circle cx="462.31" cy="432.587" r="8.41271" stroke-width="0.5" stroke="black" fill="Red"/>
  <circle cx="462.31" cy="432.587" r="5.05167" stroke-width="0.5" stroke="Red" fill="Red"/>
   </g>
   <g id="cell29">
  <circle cx="462.283" cy="446.935" r="8.41271" stroke-width="0.5" stroke="black" fill="blue"/>
  <circle cx="462.283" cy="446.935" r="5.05167" stroke-width="0.5" stroke="blue" fill="blue"/>
   </g>
   <g id="cell30">
  <circle cx="460.663" cy="459.119" r="8.41271" stroke-width="0.5" stroke="black" fill="Red"/>
  <circle cx="460.663" cy="459.119" r="5.05167" stroke-width="0.5" stroke="Red" fill="Red"/>
   </g>
   <g id="cell31">
  <circle cx="460.76" cy="473.783" r="8.41271" stroke-width="0.5" stroke="black" fill="Red"/>
  <circle cx="460.76" cy="473.783" r="5.05167" stroke-width="0.5" stroke="Red" fill="Red"/>
   </g>
   <g id="cell32">
  <circle cx="460.267" cy="487.167" r="8.41271" stroke-width="0.5" stroke="black" fill="Red"/>
  <circle cx="460.267" cy="487.167" r="5.05167" stroke-width="0.5" stroke="Red" fill="Red"/>
   </g>
   <g id="cell33">
  <circle cx="460.128" cy="501.41" r="8.41271" stroke-width="0.5" stroke="black" fill="Red"/>
  <circle cx="460.128" cy="501.41" r="5.05167" stroke-width="0.5" stroke="Red" fill="Red"/>
   </g>
   <g id="cell34">
  <circle cx="462.701" cy="515.598" r="8.41271" stroke-width="0.5" stroke="black" fill="Red"/>
  <circle cx="462.701" cy="515.598" r="5.05167" stroke-width="0.5" stroke="Red" fill="Red"/>
   </g>
   <g id="cell35">
  <circle cx="461.738" cy="530.813" r="8.41271" stroke-width="0.5" stroke="black" fill="Red"/>
  <circle cx="461.738" cy="530.813" r="5.05167" stroke-width="0.5" stroke="Red" fill="Red"/>
   </g>
   <g id="cell36">
  <circle cx="461.441" cy="544.331" r="8.41271" stroke-width="0.5" stroke="black" fill="blue"/>
  <circle cx="461.441" cy="544.331" r="5.05167" stroke-width="0.5" stroke="blue" fill="blue"/>
   </g>
   <g id="cell37">
  <circle cx="462.91" cy="557.517" r="8.41271" stroke-width="0.5" stroke="black" fill="Red"/>
  <circle cx="462.91" cy="557.517" r="5.05167" stroke-width="0.5" stroke="Red" fill="Red"/>
   </g>
   <g id="cell38">
  <circle cx="462.1" cy="572.836" r="8.41271" stroke-width="0.5" stroke="black" fill="yellow"/>
  <circle cx="462.1" cy="572.836" r="5.05167" stroke-width="0.5" stroke="yellow" fill="yellow"/>
   </g>
   <g id="cell39">
  <circle cx="460.696" cy="588.924" r="8.41271" stroke-width="0.5" stroke="black" fill="blue"/>
  <circle cx="460.696" cy="588.924" r="5.05167" stroke-width="0.5" stroke="blue" fill="blue"/>
   </g>
   <g id="cell40">
  <circle cx="474.004" cy="411.275" r="8.41271" stroke-width="0.5" stroke="black" fill="blue"/>
  <circle cx="474.004" cy="411.275" r="5.05167" stroke-width="0.5" stroke="blue" fill="blue"/>
   </g>
   <g id="cell41">
  <circle cx="474.571" cy="424.589" r="8.41271" stroke-width="0.5" stroke="black" fill="yellow"/>
  <circle cx="474.571" cy="424.589" r="5.05167" stroke-width="0.5" stroke="yellow" fill="yellow"/>
   </g>
   <g id="cell42">
  <circle cx="475.54" cy="438.704" r="8.41271" stroke-width="0.5" stroke="black" fill="Red"/>
  <circle cx="475.54" cy="438.704" r="5.05167" stroke-width="0.5" stroke="Red" fill="Red"/>
   </g>
   <g id="cell43">
  <circle cx="474.533" cy="453.004" r="8.41271" stroke-width="0.5" stroke="black" fill="Red"/>
  <circle cx="474.533" cy="453.004" r="5.05167" stroke-width="0.5" stroke="Red" fill="Red"/>
   </g>
   <g id="cell44">
  <circle cx="475.671" cy="467.346" r="8.41271" stroke-width="0.5" stroke="black" fill="blue"/>
  <circle cx="475.671" cy="467.346" r="5.05167" stroke-width="0.5" stroke="blue" fill="blue"/>
   </g>
   <g id="cell45">
  <circle cx="473.997" cy="480.168" r="8.41271" stroke-width="0.5" stroke="black" fill="Red"/>
  <circle cx="473.997" cy="480.168" r="5.05167" stroke-width="0.5" stroke="Red" fill="Red"/>
   </g>
   <g id="cell46">
  <circle cx="473.232" cy="493.345" r="8.41271" stroke-width="0.5" stroke="black" fill="Red"/>
  <circle cx="473.232" cy="493.345" r="5.05167" stroke-width="0.5" stroke="Red" fill="Red"/>
   </g>
   <g id="cell47">
  <circle cx="471.675" cy="504.332" r="6.73287" stroke-width="0.5" stroke="black" fill="blue"/>
  <circle cx="471.675" cy="504.332" r="4.05039" stroke-width="0.5" stroke="blue" fill="blue"/>
   </g>
   <g id="cell48">
  <circle cx="475.065" cy="523.998" r="8.41271" stroke-width="0.5" stroke="black" fill="Red"/>
  <circle cx="475.065" cy="523.998" r="5.05167" stroke-width="0.5" stroke="Red" fill="Red"/>
   </g>
   <g id="cell49">
  <circle cx="475.171" cy="537.962" r="8.41271" stroke-width="0.5" stroke="black" fill="Red"/>
  <circle cx="475.171" cy="537.962" r="5.05167" stroke-width="0.5" stroke="Red" fill="Red"/>
   </g>
   <g id="cell50">
  <circle cx="474.368" cy="551.786" r="8.41271" stroke-width="0.5" stroke="black" fill="Red"/>
  <circle cx="474.368" cy="551.786" r="5.05167" stroke-width="0.5" stroke="Red" fill="Red"/>
   </g>
   <g id="cell51">
  <circle cx="475.758" cy="565.767" r="8.41271" stroke-width="0.5" stroke="black" fill="blue"/>
  <circle cx="475.758" cy="565.767" r="5.05167" stroke-width="0.5" stroke="blue" fill="blue"/>
   </g>
   <g id="cell52">
  <circle cx="475.644" cy="581.085" r="8.41271" stroke-width="0.5" stroke="black" fill="Red"/>
  <circle cx="475.644" cy="581.085" r="5.05167" stroke-width="0.5" stroke="Red" fill="Red"/>
   </g>
   <g id="cell53">
  <circle cx="487.614" cy="416.269" r="8.41271" stroke-width="0.5" stroke="black" fill="yellow"/>
  <circle cx="487.614" cy="416.269" r="5.05167" stroke-width="0.5" stroke="yellow" fill="yellow"/>
   </g>
   <g id="cell54">
  <circle cx="488.995" cy="430.43" r="8.41271" stroke-width="0.5" stroke="black" fill="Red"/>
  <circle cx="488.995" cy="430.43" r="5.05167" stroke-width="0.5" stroke="Red" fill="Red"/>
   </g>
   <g id="cell55">
  <circle cx="488.67" cy="444.351" r="8.41271" stroke-width="0.5" stroke="black" fill="Red"/>
  <circle cx="488.67" cy="444.351" r="5.05167" stroke-width="0.5" stroke="Red" fill="Red"/>
   </g>
   <g id="cell56">
  <circle cx="487.899" cy="459.299" r="8.41271" stroke-width="0.5" stroke="black" fill="Red"/>
  <circle cx="487.899" cy="459.299" r="5.05167" stroke-width="0.5" stroke="Red" fill="Red"/>
   </g>
   <g id="cell57">
  <circle cx="488.426" cy="473.704" r="8.41271" stroke-width="0.5" stroke="black" fill="Red"/>
  <circle cx="488.426" cy="473.704" r="5.05167" stroke-width="0.5" stroke="Red" fill="Red"/>
   </g>
   <g id="cell58">
  <circle cx="487.069" cy="488.504" r="8.41271" stroke-width="0.5" stroke="black" fill="blue"/>
  <circle cx="487.069" cy="488.504" r="5.05167" stroke-width="0.5" stroke="blue" fill="blue"/>
   </g>
   <g id="cell59">
  <circle cx="485.635" cy="502.509" r="8.41271" stroke-width="0.5" stroke="black" fill="Red"/>
  <circle cx="485.635" cy="502.509" r="5.05167" stroke-width="0.5" stroke="Red" fill="Red"/>
   </g>
   <g id="cell60">
  <circle cx="488.605" cy="516.779" r="8.41271" stroke-width="0.5" stroke="black" fill="Red"/>
  <circle cx="488.605" cy="516.779" r="5.05167" stroke-width="0.5" stroke="Red" fill="Red"/>
   </g>
   <g id="cell61">
  <circle cx="488.91" cy="530.505" r="8.41271" stroke-width="0.5" stroke="black" fill="blue"/>
  <circle cx="488.91" cy="530.505" r="5.05167" stroke-width="0.5" stroke="blue" fill="blue"/>
   </g>
   <g id="cell62">
  <circle cx="486.932" cy="545.302" r="8.41271" stroke-width="0.5" stroke="black" fill="Red"/>
  <circle cx="486.932" cy="545.302" r="5.05167" stroke-width="0.5" stroke="Red" fill="Red"/>
   </g>
   <g id="cell63">
  <circle cx="488.279" cy="558.594" r="8.41271" stroke-width="0.5" stroke="black" fill="Red"/>
  <circle cx="488.279" cy="558.594" r="5.05167" stroke-width="0.5" stroke="Red" fill="Red"/>
   </g>
   <g id="cell64">
  <circle cx="489.175" cy="572.246" r="8.41271" stroke-width="0.5" stroke="black" fill="Red"/>
  <circle cx="489.175" cy="572.246" r="5.05167" stroke-width="0.5" stroke="Red" fill="Red"/>
   </g>
   <g id="cell65">
  <circle cx="489.836" cy="586.084" r="8.41271" stroke-width="0.5" stroke="black" fill="Red"/>
  <circle cx="489.836" cy="586.084" r="5.05167" stroke-width="0.5" stroke="Red" fill="Red"/>
   </g>
   <g id="cell66">
  <circle cx="501.31" cy="410.603" r="8.41271" stroke-width="0.5" stroke="black" fill="blue"/>
  <circle cx="501.31" cy="410.603" r="5.05167" stroke-width="0.5" stroke="blue" fill="blue"/>
   </g>
   <g id="cell67">
  <circle cx="500.787" cy="423.62" r="8.41271" stroke-width="0.5" stroke="black" fill="Red"/>
  <circle cx="500.787" cy="423.62" r="5.05167" stroke-width="0.5" stroke="Red" fill="Red"/>
   </g>
   <g id="cell68">
  <circle cx="501.328" cy="438.111" r="8.41271" stroke-width="0.5" stroke="black" fill="Red"/>
  <circle cx="501.328" cy="438.111" r="5.05167" stroke-width="0.5" stroke="Red" fill="Red"/>
   </g>
   <g id="cell69">
  <circle cx="501.494" cy="452.379" r="8.41271" stroke-width="0.5" stroke="black" fill="Red"/>
  <circle cx="501.494" cy="452.379" r="5.05167" stroke-width="0.5" stroke="Red" fill="Red"/>
   </g>
   <g id="cell70">
  <circle cx="501.51" cy="466.577" r="8.41271" stroke-width="0.5" stroke="black" fill="blue"/>
  <circle cx="501.51" cy="466.577" r="5.05167" stroke-width="0.5" stroke="blue" fill="blue"/>
   </g>
   <g id="cell71">
  <circle cx="500.753" cy="481.304" r="8.41271" stroke-width="0.5" stroke="black" fill="Red"/>
  <circle cx="500.753" cy="481.304" r="5.05167" stroke-width="0.5" stroke="Red" fill="Red"/>
   </g>
   <g id="cell72">
  <circle cx="500.993" cy="495.264" r="8.41271" stroke-width="0.5" stroke="black" fill="Red"/>
  <circle cx="500.993" cy="495.264" r="5.05167" stroke-width="0.5" stroke="Red" fill="Red"/>
   </g>
   <g id="cell73">
  <circle cx="500.604" cy="509.077" r="8.41271" stroke-width="0.5" stroke="black" fill="blue"/>
  <circle cx="500.604" cy="509.077" r="5.05167" stroke-width="0.5" stroke="blue" fill="blue"/>
   </g>
   <g id="cell74">
  <circle cx="500.798" cy="523.514" r="8.41271" stroke-width="0.5" stroke="black" fill="Red"/>
  <circle cx="500.798" cy="523.514" r="5.05167" stroke-width="0.5" stroke="Red" fill="Red"/>
   </g>
   <g id="cell75">
  <circle cx="500.908" cy="537.852" r="8.41271" stroke-width="0.5" stroke="black" fill="Red"/>
  <circle cx="500.908" cy="537.852" r="5.05167" stroke-width="0.5" stroke="Red" fill="Red"/>
   </g>
   <g id="cell76">
  <circle cx="501.029" cy="551.211" r="8.41271" stroke-width="0.5" stroke="black" fill="Red"/>
  <circle cx="501.029" cy="551.211" r="5.05167" stroke-width="0.5" stroke="Red" fill="Red"/>
   </g>
   <g id="cell77">
  <circle cx="501.522" cy="565.232" r="8.41271" stroke-width="0.5" stroke="black" fill="Red"/>
  <circle cx="501.522" cy="565.232" r="5.05167" stroke-width="0.5" stroke="Red" fill="Red"/>
   </g>
   <g id="cell78">
  <circle cx="501.733" cy="579.123" r="8.41271" stroke-width="0.5" stroke="black" fill="Red"/>
  <circle cx="501.733" cy="579.123" r="5.05167" stroke-width="0.5" stroke="Red" fill="Red"/>
   </g>
   <g id="cell79">
  <circle cx="501.44" cy="595.023" r="8.41271" stroke-width="0.5" stroke="black" fill="blue"/>
  <circle cx="501.44" cy="595.023" r="5.05167" stroke-width="0.5" stroke="blue" fill="blue"/>
   </g>
   <g id="cell80">
  <circle cx="514.181" cy="416.058" r="8.41271" stroke-width="0.5" stroke="black" fill="yellow"/>
  <circle cx="514.181" cy="416.058" r="5.05167" stroke-width="0.5" stroke="yellow" fill="yellow"/>
   </g>
   <g id="cell81">
  <circle cx="513.599" cy="429.948" r="8.41271" stroke-width="0.5" stroke="black" fill="Red"/>
  <circle cx="513.599" cy="429.948" r="5.05167" stroke-width="0.5" stroke="Red" fill="Red"/>
   </g>
   <g id="cell82">
  <circle cx="512.853" cy="444.94" r="8.41271" stroke-width="0.5" stroke="black" fill="blue"/>
  <circle cx="512.853" cy="444.94" r="5.05167" stroke-width="0.5" stroke="blue" fill="blue"/>
   </g>
   <g id="cell83">
  <circle cx="517.548" cy="459.576" r="8.41271" stroke-width="0.5" stroke="black" fill="Red"/>
  <circle cx="517.548" cy="459.576" r="5.05167" stroke-width="0.5" stroke="Red" fill="Red"/>
   </g>
   <g id="cell84">
  <circle cx="515.046" cy="473.574" r="8.41271" stroke-width="0.5" stroke="black" fill="Red"/>
  <circle cx="515.046" cy="473.574" r="5.05167" stroke-width="0.5" stroke="Red" fill="Red"/>
   </g>
   <g id="cell85">
  <circle cx="515.062" cy="487.436" r="8.41271" stroke-width="0.5" stroke="black" fill="Red"/>
  <circle cx="515.062" cy="487.436" r="5.05167" stroke-width="0.5" stroke="Red" fill="Red"/>
   </g>
   <g id="cell86">
  <circle cx="514.351" cy="502.559" r="8.41271" stroke-width="0.5" stroke="black" fill="blue"/>
  <circle cx="514.351" cy="502.559" r="5.05167" stroke-width="0.5" stroke="blue" fill="blue"/>
   </g>
   <g id="cell87">
  <circle cx="515.378" cy="516.151" r="8.41271" stroke-width="0.5" stroke="black" fill="Red"/>
  <circle cx="515.378" cy="516.151" r="5.05167" stroke-width="0.5" stroke="Red" fill="Red"/>
   </g>
   <g id="cell88">
  <circle cx="514.528" cy="529.737" r="8.41271" stroke-width="0.5" stroke="black" fill="Red"/>
  <circle cx="514.528" cy="529.737" r="5.05167" stroke-width="0.5" stroke="Red" fill="Red"/>
   </g>
   <g id="cell89">
  <circle cx="515.331" cy="543.756" r="8.41271" stroke-width="0.5" stroke="black" fill="Red"/>
  <circle cx="515.331" cy="543.756" r="5.05167" stroke-width="0.5" stroke="Red" fill="Red"/>
   </g>
   <g id="cell90">
  <circle cx="514.586" cy="558.542" r="8.41271" stroke-width="0.5" stroke="black" fill="blue"/>
  <circle cx="514.586" cy="558.542" r="5.05167" stroke-width="0.5" stroke="blue" fill="blue"/>
   </g>
   <g id="cell91">
  <circle cx="514.93" cy="572.326" r="8.41271" stroke-width="0.5" stroke="black" fill="Red"/>
  <circle cx="514.93" cy="572.326" r="5.05167" stroke-width="0.5" stroke="Red" fill="Red"/>
   </g>
   <g id="cell92">
  <circle cx="514.303" cy="587.128" r="8.41271" stroke-width="0.5" stroke="black" fill="Red"/>
  <circle cx="514.303" cy="587.128" r="5.05167" stroke-width="0.5" stroke="Red" fill="Red"/>
   </g>
   <g id="cell93">
  <circle cx="528.064" cy="410.674" r="8.41271" stroke-width="0.5" stroke="black" fill="blue"/>
  <circle cx="528.064" cy="410.674" r="5.05167" stroke-width="0.5" stroke="blue" fill="blue"/>
   </g>
   <g id="cell94">
  <circle cx="527.585" cy="424.106" r="8.41271" stroke-width="0.5" stroke="black" fill="yellow"/>
  <circle cx="527.585" cy="424.106" r="5.05167" stroke-width="0.5" stroke="yellow" fill="yellow"/>
   </g>
   <g id="cell95">
  <circle cx="526.946" cy="437.968" r="8.41271" stroke-width="0.5" stroke="black" fill="Red"/>
  <circle cx="526.946" cy="437.968" r="5.05167" stroke-width="0.5" stroke="Red" fill="Red"/>
   </g>
   <g id="cell96">
  <circle cx="525.227" cy="448.906" r="6.73287" stroke-width="0.5" stroke="black" fill="Red"/>
  <circle cx="525.227" cy="448.906" r="4.05039" stroke-width="0.5" stroke="Red" fill="Red"/>
   </g>
   <g id="cell97">
  <circle cx="529.291" cy="467.997" r="8.41271" stroke-width="0.5" stroke="black" fill="Red"/>
  <circle cx="529.291" cy="467.997" r="5.05167" stroke-width="0.5" stroke="Red" fill="Red"/>
   </g>
   <g id="cell98">
  <circle cx="527.464" cy="481.516" r="8.41271" stroke-width="0.5" stroke="black" fill="Red"/>
  <circle cx="527.464" cy="481.516" r="5.05167" stroke-width="0.5" stroke="Red" fill="Red"/>
   </g>
   <g id="cell99">
  <circle cx="528.34" cy="495.117" r="8.41271" stroke-width="0.5" stroke="black" fill="Red"/>
  <circle cx="528.34" cy="495.117" r="5.05167" stroke-width="0.5" stroke="Red" fill="Red"/>
   </g>
   <g id="cell100">
  <circle cx="529.69" cy="509.462" r="8.41271" stroke-width="0.5" stroke="black" fill="Red"/>
  <circle cx="529.69" cy="509.462" r="5.05167" stroke-width="0.5" stroke="Red" fill="Red"/>
   </g>
   <g id="cell101">
  <circle cx="529.338" cy="524.137" r="8.41271" stroke-width="0.5" stroke="black" fill="Red"/>
  <circle cx="529.338" cy="524.137" r="5.05167" stroke-width="0.5" stroke="Red" fill="Red"/>
   </g>
   <g id="cell102">
  <circle cx="531.188" cy="540.992" r="6.67717" stroke-width="0.5" stroke="black" fill="Red"/>
  <circle cx="531.188" cy="540.992" r="4.00951" stroke-width="0.5" stroke="Red" fill="Red"/>
   </g>
   <g id="cell103">
  <circle cx="527.757" cy="552.169" r="8.41271" stroke-width="0.5" stroke="black" fill="Red"/>
  <circle cx="527.757" cy="552.169" r="5.05167" stroke-width="0.5" stroke="Red" fill="Red"/>
   </g>
   <g id="cell104">
  <circle cx="527.982" cy="565.879" r="8.41271" stroke-width="0.5" stroke="black" fill="Red"/>
  <circle cx="527.982" cy="565.879" r="5.05167" stroke-width="0.5" stroke="Red" fill="Red"/>
   </g>
   <g id="cell105">
  <circle cx="527.157" cy="580.085" r="8.41271" stroke-width="0.5" stroke="black" fill="blue"/>
  <circle cx="527.157" cy="580.085" r="5.05167" stroke-width="0.5" stroke="blue" fill="blue"/>
   </g>
   <g id="cell106">
  <circle cx="541.587" cy="416.814" r="8.41271" stroke-width="0.5" stroke="black" fill="yellow"/>
  <circle cx="541.587" cy="416.814" r="5.05167" stroke-width="0.5" stroke="yellow" fill="yellow"/>
   </g>
   <g id="cell107">
  <circle cx="540.335" cy="432.859" r="8.41271" stroke-width="0.5" stroke="black" fill="yellow"/>
  <circle cx="540.335" cy="432.859" r="5.05167" stroke-width="0.5" stroke="yellow" fill="yellow"/>
   </g>
   <g id="cell108">
  <circle cx="539.233" cy="448.863" r="8.41271" stroke-width="0.5" stroke="black" fill="Red"/>
  <circle cx="539.233" cy="448.863" r="5.05167" stroke-width="0.5" stroke="Red" fill="Red"/>
   </g>
   <g id="cell109">
  <circle cx="544.533" cy="460.969" r="8.41271" stroke-width="0.5" stroke="black" fill="Red"/>
  <circle cx="544.533" cy="460.969" r="5.05167" stroke-width="0.5" stroke="Red" fill="Red"/>
   </g>
   <g id="cell110">
  <circle cx="541.437" cy="475.284" r="8.41271" stroke-width="0.5" stroke="black" fill="Red"/>
  <circle cx="541.437" cy="475.284" r="5.05167" stroke-width="0.5" stroke="Red" fill="Red"/>
   </g>
   <g id="cell111">
  <circle cx="544.165" cy="488.18" r="8.41271" stroke-width="0.5" stroke="black" fill="Red"/>
  <circle cx="544.165" cy="488.18" r="5.05167" stroke-width="0.5" stroke="Red" fill="Red"/>
   </g>
   <g id="cell112">
  <circle cx="542.719" cy="502.377" r="8.41271" stroke-width="0.5" stroke="black" fill="Red"/>
  <circle cx="542.719" cy="502.377" r="5.05167" stroke-width="0.5" stroke="Red" fill="Red"/>
   </g>
   <g id="cell113">
  <circle cx="542.859" cy="515.923" r="8.41271" stroke-width="0.5" stroke="black" fill="Red"/>
  <circle cx="542.859" cy="515.923" r="5.05167" stroke-width="0.5" stroke="Red" fill="Red"/>
   </g>
   <g id="cell114">
  <circle cx="541.202" cy="532.377" r="8.41271" stroke-width="0.5" stroke="black" fill="Red"/>
  <circle cx="541.202" cy="532.377" r="5.05167" stroke-width="0.5" stroke="Red" fill="Red"/>
   </g>
   <g id="cell115">
  <circle cx="541.94" cy="545.765" r="8.41271" stroke-width="0.5" stroke="black" fill="Red"/>
  <circle cx="541.94" cy="545.765" r="5.05167" stroke-width="0.5" stroke="Red" fill="Red"/>
   </g>
   <g id="cell116">
  <circle cx="541.66" cy="560.602" r="8.41271" stroke-width="0.5" stroke="black" fill="Red"/>
  <circle cx="541.66" cy="560.602" r="5.05167" stroke-width="0.5" stroke="Red" fill="Red"/>
   </g>
   <g id="cell117">
  <circle cx="539.841" cy="574.737" r="8.41271" stroke-width="0.5" stroke="black" fill="blue"/>
  <circle cx="539.841" cy="574.737" r="5.05167" stroke-width="0.5" stroke="blue" fill="blue"/>
   </g>
   <g id="cell118">
  <circle cx="553.188" cy="426.723" r="8.41271" stroke-width="0.5" stroke="black" fill="blue"/>
  <circle cx="553.188" cy="426.723" r="5.05167" stroke-width="0.5" stroke="blue" fill="blue"/>
   </g>
   <g id="cell119">
  <circle cx="553.196" cy="439.647" r="8.41271" stroke-width="0.5" stroke="black" fill="yellow"/>
  <circle cx="553.196" cy="439.647" r="5.05167" stroke-width="0.5" stroke="yellow" fill="yellow"/>
   </g>
   <g id="cell120">
  <circle cx="553.925" cy="453.025" r="8.41271" stroke-width="0.5" stroke="black" fill="yellow"/>
  <circle cx="553.925" cy="453.025" r="5.05167" stroke-width="0.5" stroke="yellow" fill="yellow"/>
   </g>
   <g id="cell121">
  <circle cx="556.928" cy="466.989" r="8.41271" stroke-width="0.5" stroke="black" fill="blue"/>
  <circle cx="556.928" cy="466.989" r="5.05167" stroke-width="0.5" stroke="blue" fill="blue"/>
   </g>
   <g id="cell122">
  <circle cx="556.067" cy="480.902" r="8.41271" stroke-width="0.5" stroke="black" fill="Red"/>
  <circle cx="556.067" cy="480.902" r="5.05167" stroke-width="0.5" stroke="Red" fill="Red"/>
   </g>
   <g id="cell123">
  <circle cx="556.664" cy="495.028" r="8.41271" stroke-width="0.5" stroke="black" fill="Red"/>
  <circle cx="556.664" cy="495.028" r="5.05167" stroke-width="0.5" stroke="Red" fill="Red"/>
   </g>
   <g id="cell124">
  <circle cx="555.675" cy="510.193" r="8.41271" stroke-width="0.5" stroke="black" fill="blue"/>
  <circle cx="555.675" cy="510.193" r="5.05167" stroke-width="0.5" stroke="blue" fill="blue"/>
   </g>
   <g id="cell125">
  <circle cx="555.248" cy="524.299" r="8.41271" stroke-width="0.5" stroke="black" fill="Red"/>
  <circle cx="555.248" cy="524.299" r="5.05167" stroke-width="0.5" stroke="Red" fill="Red"/>
   </g>
   <g id="cell126">
  <circle cx="555.223" cy="537.353" r="8.41271" stroke-width="0.5" stroke="black" fill="blue"/>
  <circle cx="555.223" cy="537.353" r="5.05167" stroke-width="0.5" stroke="blue" fill="blue"/>
   </g>
   <g id="cell127">
  <circle cx="554.926" cy="552.705" r="8.41271" stroke-width="0.5" stroke="black" fill="Red"/>
  <circle cx="554.926" cy="552.705" r="5.05167" stroke-width="0.5" stroke="Red" fill="Red"/>
   </g>
   <g id="cell128">
  <circle cx="554.574" cy="567.892" r="8.41271" stroke-width="0.5" stroke="black" fill="Red"/>
  <circle cx="554.574" cy="567.892" r="5.05167" stroke-width="0.5" stroke="Red" fill="Red"/>
   </g>
   <g id="cell129">
  <circle cx="565.736" cy="446.934" r="8.41271" stroke-width="0.5" stroke="black" fill="blue"/>
  <circle cx="565.736" cy="446.934" r="5.05167" stroke-width="0.5" stroke="blue" fill="blue"/>
   </g>
   <g id="cell130">
  <circle cx="568.814" cy="459.296" r="8.41271" stroke-width="0.5" stroke="black" fill="yellow"/>
  <circle cx="568.814" cy="459.296" r="5.05167" stroke-width="0.5" stroke="yellow" fill="yellow"/>
   </g>
   <g id="cell131">
  <circle cx="569.135" cy="473.798" r="8.41271" stroke-width="0.5" stroke="black" fill="yellow"/>
  <circle cx="569.135" cy="473.798" r="5.05167" stroke-width="0.5" stroke="yellow" fill="yellow"/>
   </g>
   <g id="cell132">
  <circle cx="568.928" cy="487.461" r="8.41271" stroke-width="0.5" stroke="black" fill="Red"/>
  <circle cx="568.928" cy="487.461" r="5.05167" stroke-width="0.5" stroke="Red" fill="Red"/>
   </g>
   <g id="cell133">
  <circle cx="570.204" cy="501.633" r="8.41271" stroke-width="0.5" stroke="black" fill="Red"/>
  <circle cx="570.204" cy="501.633" r="5.05167" stroke-width="0.5" stroke="Red" fill="Red"/>
   </g>
   <g id="cell134">
  <circle cx="567.619" cy="516.438" r="8.41271" stroke-width="0.5" stroke="black" fill="Red"/>
  <circle cx="567.619" cy="516.438" r="5.05167" stroke-width="0.5" stroke="Red" fill="Red"/>
   </g>
   <g id="cell135">
  <circle cx="567.576" cy="530.582" r="8.41271" stroke-width="0.5" stroke="black" fill="Red"/>
  <circle cx="567.576" cy="530.582" r="5.05167" stroke-width="0.5" stroke="Red" fill="Red"/>
   </g>
   <g id="cell136">
  <circle cx="568.457" cy="546.08" r="8.41271" stroke-width="0.5" stroke="black" fill="yellow"/>
  <circle cx="568.457" cy="546.08" r="5.05167" stroke-width="0.5" stroke="yellow" fill="yellow"/>
   </g>
   <g id="cell137">
  <circle cx="567.895" cy="560.969" r="8.41271" stroke-width="0.5" stroke="black" fill="blue"/>
  <circle cx="567.895" cy="560.969" r="5.05167" stroke-width="0.5" stroke="blue" fill="blue"/>
   </g>
   <g id="cell138">
  <circle cx="582.177" cy="463.627" r="8.41271" stroke-width="0.5" stroke="black" fill="blue"/>
  <circle cx="582.177" cy="463.627" r="5.05167" stroke-width="0.5" stroke="blue" fill="blue"/>
   </g>
   <g id="cell139">
  <circle cx="580.983" cy="478.468" r="8.41271" stroke-width="0.5" stroke="black" fill="Red"/>
  <circle cx="580.983" cy="478.468" r="5.05167" stroke-width="0.5" stroke="Red" fill="Red"/>
   </g>
   <g id="cell140">
  <circle cx="580.412" cy="493.307" r="6.75639" stroke-width="0.5" stroke="black" fill="Red"/>
  <circle cx="580.412" cy="493.307" r="4.06813" stroke-width="0.5" stroke="Red" fill="Red"/>
   </g>
   <g id="cell141">
  <circle cx="580.406" cy="510.737" r="8.41271" stroke-width="0.5" stroke="black" fill="Red"/>
  <circle cx="580.406" cy="510.737" r="5.05167" stroke-width="0.5" stroke="Red" fill="Red"/>
   </g>
   <g id="cell142">
  <circle cx="580.746" cy="524.32" r="8.41271" stroke-width="0.5" stroke="black" fill="Red"/>
  <circle cx="580.746" cy="524.32" r="5.05167" stroke-width="0.5" stroke="Red" fill="Red"/>
   </g>
   <g id="cell143">
  <circle cx="578.764" cy="536.886" r="8.41271" stroke-width="0.5" stroke="black" fill="blue"/>
  <circle cx="578.764" cy="536.886" r="5.05167" stroke-width="0.5" stroke="blue" fill="blue"/>
   </g>
   <g id="cell144">
  <circle cx="439.041" cy="437.799" r="6.75639" stroke-width="0.5" stroke="black" fill="Red"/>
  <circle cx="439.041" cy="437.799" r="4.06813" stroke-width="0.5" stroke="Red" fill="Red"/>
   </g>
   <g id="cell145">
  <circle cx="586.852" cy="501.57" r="6.75639" stroke-width="0.5" stroke="black" fill="blue"/>
  <circle cx="586.852" cy="501.57" r="4.06813" stroke-width="0.5" stroke="blue" fill="blue"/>
   </g>
   <g id="cell146">
  <circle cx="477.791" cy="512.429" r="6.73287" stroke-width="0.5" stroke="black" fill="blue"/>
  <circle cx="477.791" cy="512.429" r="4.05039" stroke-width="0.5" stroke="blue" fill="blue"/>
   </g>
   <g id="cell147">
  <circle cx="531.237" cy="456.074" r="5.34389" stroke-width="0.5" stroke="black" fill="blue"/>
  <circle cx="531.237" cy="456.074" r="3.2148" stroke-width="0.5" stroke="blue" fill="blue"/>
   </g>
   <g id="cell148">
  <circle cx="525.059" cy="535.041" r="6.67717" stroke-width="0.5" stroke="black" fill="blue"/>
  <circle cx="525.059" cy="535.041" r="4.00951" stroke-width="0.5" stroke="blue" fill="blue"/>
   </g>
   <g id="cell149">
  <circle cx="536.212" cy="461.24" r="5.34389" stroke-width="0.5" stroke="black" fill="blue"/>
  <circle cx="536.212" cy="461.24" r="3.2148" stroke-width="0.5" stroke="blue" fill="blue"/>
   </g>
  </g>
 </g>
  <rect x="775" y="1035" width="200" height="10" stroke-width="2" stroke="rgb(255,255,255)" fill="rgb(0,0,0)"/>
  <text x="781.25" y="1028.75"
   font-family="Arial" font-size="25" fill="black" >
   200 &#956;m
  </text>
  <text x="25" y="1045"
   font-family="Arial" font-size="18.75" fill="black" >
   0 days, 0 hours, 0 minutes, and 11.4786 seconds
  </text>
  <rect x="0" y="70" width="1000" height="1000" stroke-width="2" stroke="rgb(0,0,0)" fill="none"/>
</svg>
