<?xml version="1.0" encoding="UTF-8" standalone="no"?>
<!-- Created with PhysiCell (http://PhysiCell.MathCancer.org/) -->
<svg 
 xmlns:dc="http://purl.org/dc/elements/1.1/" 
 xmlns:cc="http://creativecommons.org/ns#" 
 xmlns:rdf="http://www.w3.org/1999/02/22-rdf-syntax-ns#" 
 xmlns:svg="http://www.w3.org/2000/svg" 
 xmlns="http://www.w3.org/2000/svg" 
 version="1.1" 
 width="1000" 
 height="1070" 
 id="svg2">
  <rect x="0" y="0" width="1000" height="1070" stroke-width="2" stroke="white" fill="white"/>
  <text x="12.5" y="30"
   font-family="Arial" font-size="25" fill="black" >
   Current time: 0 days, 4 hours, and 15.00 minutes, z = 0.00 &#956;m
  </text>
  <text x="12.5" y="57.5"
   font-family="Arial" font-size="23.75" fill="black" >
   182 agents
  </text>
 <g id="tissue" 
    transform="translate(0,1070) scale(1,-1)">
  <g id="ECM">
  </g>
  <g id="cells">
   <g id="cell0">
  <circle cx="425.569" cy="447.719" r="8.41271" stroke-width="0.5" stroke="black" fill="yellow"/>
  <circle cx="425.569" cy="447.719" r="5.05167" stroke-width="0.5" stroke="yellow" fill="yellow"/>
   </g>
   <g id="cell1">
  <circle cx="425.168" cy="470.17" r="7.02257" stroke-width="0.5" stroke="black" fill="yellow"/>
  <circle cx="425.168" cy="470.17" r="4.25644" stroke-width="0.5" stroke="yellow" fill="yellow"/>
   </g>
   <g id="cell2">
  <circle cx="428.145" cy="483.277" r="8.41271" stroke-width="0.5" stroke="black" fill="blue"/>
  <circle cx="428.145" cy="483.277" r="5.05167" stroke-width="0.5" stroke="blue" fill="blue"/>
   </g>
   <g id="cell3">
  <circle cx="424.842" cy="496.749" r="7.24243" stroke-width="0.5" stroke="black" fill="Red"/>
  <circle cx="424.842" cy="496.749" r="4.39934" stroke-width="0.5" stroke="Red" fill="Red"/>
   </g>
   <g id="cell4">
  <circle cx="431.304" cy="508.245" r="8.41271" stroke-width="0.5" stroke="black" fill="Red"/>
  <circle cx="431.304" cy="508.245" r="5.05167" stroke-width="0.5" stroke="Red" fill="Red"/>
   </g>
   <g id="cell5">
  <circle cx="420.404" cy="526.919" r="7.1497" stroke-width="0.5" stroke="black" fill="blue"/>
  <circle cx="420.404" cy="526.919" r="4.34001" stroke-width="0.5" stroke="blue" fill="blue"/>
   </g>
   <g id="cell6">
  <circle cx="426.313" cy="539.59" r="8.41271" stroke-width="0.5" stroke="black" fill="Red"/>
  <circle cx="426.313" cy="539.59" r="5.05167" stroke-width="0.5" stroke="Red" fill="Red"/>
   </g>
   <g id="cell7">
  <circle cx="441.993" cy="445.329" r="7.7401" stroke-width="0.5" stroke="black" fill="yellow"/>
  <circle cx="441.993" cy="445.329" r="4.70142" stroke-width="0.5" stroke="yellow" fill="yellow"/>
   </g>
   <g id="cell8">
  <circle cx="434.143" cy="459.768" r="8.41271" stroke-width="0.5" stroke="black" fill="Red"/>
  <circle cx="434.143" cy="459.768" r="5.05167" stroke-width="0.5" stroke="Red" fill="Red"/>
   </g>
   <g id="cell9">
  <circle cx="438.778" cy="472.472" r="8.41271" stroke-width="0.5" stroke="black" fill="Red"/>
  <circle cx="438.778" cy="472.472" r="5.05167" stroke-width="0.5" stroke="Red" fill="Red"/>
   </g>
   <g id="cell10">
  <circle cx="442.044" cy="484.907" r="8.41271" stroke-width="0.5" stroke="black" fill="Red"/>
  <circle cx="442.044" cy="484.907" r="5.05167" stroke-width="0.5" stroke="Red" fill="Red"/>
   </g>
   <g id="cell11">
  <circle cx="442.819" cy="503.298" r="8.41271" stroke-width="0.5" stroke="black" fill="Red"/>
  <circle cx="442.819" cy="503.298" r="5.05167" stroke-width="0.5" stroke="Red" fill="Red"/>
   </g>
   <g id="cell12">
  <circle cx="436.052" cy="520.425" r="7.54436" stroke-width="0.5" stroke="black" fill="Red"/>
  <circle cx="436.052" cy="520.425" r="4.58555" stroke-width="0.5" stroke="Red" fill="Red"/>
   </g>
   <g id="cell13">
  <circle cx="439.292" cy="533.132" r="8.41271" stroke-width="0.5" stroke="black" fill="Red"/>
  <circle cx="439.292" cy="533.132" r="5.05167" stroke-width="0.5" stroke="Red" fill="Red"/>
   </g>
   <g id="cell14">
  <circle cx="438.837" cy="546.932" r="8.41271" stroke-width="0.5" stroke="black" fill="yellow"/>
  <circle cx="438.837" cy="546.932" r="5.05167" stroke-width="0.5" stroke="yellow" fill="yellow"/>
   </g>
   <g id="cell15">
  <circle cx="437.722" cy="560.112" r="8.41271" stroke-width="0.5" stroke="black" fill="blue"/>
  <circle cx="437.722" cy="560.112" r="5.05167" stroke-width="0.5" stroke="blue" fill="blue"/>
   </g>
   <g id="cell16">
  <circle cx="456.312" cy="425.805" r="6.93569" stroke-width="0.5" stroke="black" fill="yellow"/>
  <circle cx="456.312" cy="425.805" r="4.25431" stroke-width="0.5" stroke="yellow" fill="yellow"/>
   </g>
   <g id="cell17">
  <circle cx="452.163" cy="436.143" r="6.71158" stroke-width="0.5" stroke="black" fill="Red"/>
  <circle cx="452.163" cy="436.143" r="4.03435" stroke-width="0.5" stroke="Red" fill="Red"/>
   </g>
   <g id="cell18">
  <circle cx="447.495" cy="459.188" r="8.41271" stroke-width="0.5" stroke="black" fill="blue"/>
  <circle cx="447.495" cy="459.188" r="5.05167" stroke-width="0.5" stroke="blue" fill="blue"/>
   </g>
   <g id="cell19">
  <circle cx="451.705" cy="470.102" r="8.41271" stroke-width="0.5" stroke="black" fill="blue"/>
  <circle cx="451.705" cy="470.102" r="5.05167" stroke-width="0.5" stroke="blue" fill="blue"/>
   </g>
   <g id="cell20">
  <circle cx="453.999" cy="482.284" r="8.41271" stroke-width="0.5" stroke="black" fill="Red"/>
  <circle cx="453.999" cy="482.284" r="5.05167" stroke-width="0.5" stroke="Red" fill="Red"/>
   </g>
   <g id="cell21">
  <circle cx="451.346" cy="494.413" r="8.41271" stroke-width="0.5" stroke="black" fill="Red"/>
  <circle cx="451.346" cy="494.413" r="5.05167" stroke-width="0.5" stroke="Red" fill="Red"/>
   </g>
   <g id="cell22">
  <circle cx="455.09" cy="509.074" r="8.41271" stroke-width="0.5" stroke="black" fill="Red"/>
  <circle cx="455.09" cy="509.074" r="5.05167" stroke-width="0.5" stroke="Red" fill="Red"/>
   </g>
   <g id="cell23">
  <circle cx="449.377" cy="525.261" r="8.41271" stroke-width="0.5" stroke="black" fill="Red"/>
  <circle cx="449.377" cy="525.261" r="5.05167" stroke-width="0.5" stroke="Red" fill="Red"/>
   </g>
   <g id="cell24">
  <circle cx="451.047" cy="538.875" r="8.41271" stroke-width="0.5" stroke="black" fill="blue"/>
  <circle cx="451.047" cy="538.875" r="5.05167" stroke-width="0.5" stroke="blue" fill="blue"/>
   </g>
   <g id="cell25">
  <circle cx="451.375" cy="554.031" r="8.41271" stroke-width="0.5" stroke="black" fill="Red"/>
  <circle cx="451.375" cy="554.031" r="5.05167" stroke-width="0.5" stroke="Red" fill="Red"/>
   </g>
   <g id="cell26">
  <circle cx="452.149" cy="568.648" r="8.41271" stroke-width="0.5" stroke="black" fill="yellow"/>
  <circle cx="452.149" cy="568.648" r="5.05167" stroke-width="0.5" stroke="yellow" fill="yellow"/>
   </g>
   <g id="cell27">
  <circle cx="464.637" cy="414.727" r="8.41271" stroke-width="0.5" stroke="black" fill="yellow"/>
  <circle cx="464.637" cy="414.727" r="5.05167" stroke-width="0.5" stroke="yellow" fill="yellow"/>
   </g>
   <g id="cell28">
  <circle cx="468.009" cy="429.216" r="8.41271" stroke-width="0.5" stroke="black" fill="Red"/>
  <circle cx="468.009" cy="429.216" r="5.05167" stroke-width="0.5" stroke="Red" fill="Red"/>
   </g>
   <g id="cell29">
  <circle cx="455.06" cy="447.37" r="7.18097" stroke-width="0.5" stroke="black" fill="Red"/>
  <circle cx="455.06" cy="447.37" r="4.36015" stroke-width="0.5" stroke="Red" fill="Red"/>
   </g>
   <g id="cell30">
  <circle cx="460.518" cy="459.067" r="8.41271" stroke-width="0.5" stroke="black" fill="Red"/>
  <circle cx="460.518" cy="459.067" r="5.05167" stroke-width="0.5" stroke="Red" fill="Red"/>
   </g>
   <g id="cell31">
  <circle cx="463.608" cy="473.932" r="8.41271" stroke-width="0.5" stroke="black" fill="blue"/>
  <circle cx="463.608" cy="473.932" r="5.05167" stroke-width="0.5" stroke="blue" fill="blue"/>
   </g>
   <g id="cell32">
  <circle cx="465.938" cy="486.555" r="8.41271" stroke-width="0.5" stroke="black" fill="blue"/>
  <circle cx="465.938" cy="486.555" r="5.05167" stroke-width="0.5" stroke="blue" fill="blue"/>
   </g>
   <g id="cell33">
  <circle cx="462.458" cy="498.19" r="8.41271" stroke-width="0.5" stroke="black" fill="Red"/>
  <circle cx="462.458" cy="498.19" r="5.05167" stroke-width="0.5" stroke="Red" fill="Red"/>
   </g>
   <g id="cell34">
  <circle cx="462.361" cy="520.055" r="8.41271" stroke-width="0.5" stroke="black" fill="Red"/>
  <circle cx="462.361" cy="520.055" r="5.05167" stroke-width="0.5" stroke="Red" fill="Red"/>
   </g>
   <g id="cell35">
  <circle cx="465.977" cy="536.705" r="6.71158" stroke-width="0.5" stroke="black" fill="Red"/>
  <circle cx="465.977" cy="536.705" r="4.03435" stroke-width="0.5" stroke="Red" fill="Red"/>
   </g>
   <g id="cell36">
  <circle cx="464.9" cy="547.218" r="8.41271" stroke-width="0.5" stroke="black" fill="Red"/>
  <circle cx="464.9" cy="547.218" r="5.05167" stroke-width="0.5" stroke="Red" fill="Red"/>
   </g>
   <g id="cell37">
  <circle cx="464.039" cy="560.355" r="8.41271" stroke-width="0.5" stroke="black" fill="Red"/>
  <circle cx="464.039" cy="560.355" r="5.05167" stroke-width="0.5" stroke="Red" fill="Red"/>
   </g>
   <g id="cell38">
  <circle cx="465.129" cy="574.753" r="8.41271" stroke-width="0.5" stroke="black" fill="Red"/>
  <circle cx="465.129" cy="574.753" r="5.05167" stroke-width="0.5" stroke="Red" fill="Red"/>
   </g>
   <g id="cell39">
  <circle cx="465.783" cy="587.093" r="6.95901" stroke-width="0.5" stroke="black" fill="blue"/>
  <circle cx="465.783" cy="587.093" r="4.21341" stroke-width="0.5" stroke="blue" fill="blue"/>
   </g>
   <g id="cell40">
  <circle cx="477.001" cy="406.42" r="8.41271" stroke-width="0.5" stroke="black" fill="blue"/>
  <circle cx="477.001" cy="406.42" r="5.05167" stroke-width="0.5" stroke="blue" fill="blue"/>
   </g>
   <g id="cell41">
  <circle cx="476.83" cy="420.799" r="8.41271" stroke-width="0.5" stroke="black" fill="yellow"/>
  <circle cx="476.83" cy="420.799" r="5.05167" stroke-width="0.5" stroke="yellow" fill="yellow"/>
   </g>
   <g id="cell42">
  <circle cx="476.492" cy="438.53" r="8.41271" stroke-width="0.5" stroke="black" fill="Red"/>
  <circle cx="476.492" cy="438.53" r="5.05167" stroke-width="0.5" stroke="Red" fill="Red"/>
   </g>
   <g id="cell43">
  <circle cx="471.864" cy="453.264" r="8.41271" stroke-width="0.5" stroke="black" fill="Red"/>
  <circle cx="471.864" cy="453.264" r="5.05167" stroke-width="0.5" stroke="Red" fill="Red"/>
   </g>
   <g id="cell44">
  <circle cx="473.384" cy="465.201" r="8.41271" stroke-width="0.5" stroke="black" fill="Red"/>
  <circle cx="473.384" cy="465.201" r="5.05167" stroke-width="0.5" stroke="Red" fill="Red"/>
   </g>
   <g id="cell45">
  <circle cx="476.329" cy="479.556" r="8.41271" stroke-width="0.5" stroke="black" fill="Red"/>
  <circle cx="476.329" cy="479.556" r="5.05167" stroke-width="0.5" stroke="Red" fill="Red"/>
   </g>
   <g id="cell46">
  <circle cx="475.514" cy="495.248" r="8.41271" stroke-width="0.5" stroke="black" fill="Red"/>
  <circle cx="475.514" cy="495.248" r="5.05167" stroke-width="0.5" stroke="Red" fill="Red"/>
   </g>
   <g id="cell47">
  <circle cx="468.252" cy="507.707" r="7.72056" stroke-width="0.5" stroke="black" fill="Red"/>
  <circle cx="468.252" cy="507.707" r="4.69003" stroke-width="0.5" stroke="Red" fill="Red"/>
   </g>
   <g id="cell48">
  <circle cx="483.01" cy="522.896" r="7.38797" stroke-width="0.5" stroke="black" fill="Red"/>
  <circle cx="483.01" cy="522.896" r="4.49029" stroke-width="0.5" stroke="Red" fill="Red"/>
   </g>
   <g id="cell49">
  <circle cx="477.022" cy="539.86" r="8.41271" stroke-width="0.5" stroke="black" fill="Red"/>
  <circle cx="477.022" cy="539.86" r="5.05167" stroke-width="0.5" stroke="Red" fill="Red"/>
   </g>
   <g id="cell50">
  <circle cx="477.555" cy="553.612" r="8.41271" stroke-width="0.5" stroke="black" fill="Red"/>
  <circle cx="477.555" cy="553.612" r="5.05167" stroke-width="0.5" stroke="Red" fill="Red"/>
   </g>
   <g id="cell51">
  <circle cx="476.609" cy="567.523" r="8.41271" stroke-width="0.5" stroke="black" fill="blue"/>
  <circle cx="476.609" cy="567.523" r="5.05167" stroke-width="0.5" stroke="blue" fill="blue"/>
   </g>
   <g id="cell52">
  <circle cx="477.585" cy="581.162" r="8.41271" stroke-width="0.5" stroke="black" fill="Red"/>
  <circle cx="477.585" cy="581.162" r="5.05167" stroke-width="0.5" stroke="Red" fill="Red"/>
   </g>
   <g id="cell53">
  <circle cx="489.226" cy="414.259" r="8.41271" stroke-width="0.5" stroke="black" fill="yellow"/>
  <circle cx="489.226" cy="414.259" r="5.05167" stroke-width="0.5" stroke="yellow" fill="yellow"/>
   </g>
   <g id="cell54">
  <circle cx="488.162" cy="427.713" r="8.41271" stroke-width="0.5" stroke="black" fill="Red"/>
  <circle cx="488.162" cy="427.713" r="5.05167" stroke-width="0.5" stroke="Red" fill="Red"/>
   </g>
   <g id="cell55">
  <circle cx="483.328" cy="448.158" r="7.18097" stroke-width="0.5" stroke="black" fill="Red"/>
  <circle cx="483.328" cy="448.158" r="4.36015" stroke-width="0.5" stroke="Red" fill="Red"/>
   </g>
   <g id="cell56">
  <circle cx="492.35" cy="459.407" r="7.49456" stroke-width="0.5" stroke="black" fill="Red"/>
  <circle cx="492.35" cy="459.407" r="4.55548" stroke-width="0.5" stroke="Red" fill="Red"/>
   </g>
   <g id="cell57">
  <circle cx="485.251" cy="470.821" r="8.41271" stroke-width="0.5" stroke="black" fill="Red"/>
  <circle cx="485.251" cy="470.821" r="5.05167" stroke-width="0.5" stroke="Red" fill="Red"/>
   </g>
   <g id="cell58">
  <circle cx="485.857" cy="488.529" r="8.41271" stroke-width="0.5" stroke="black" fill="blue"/>
  <circle cx="485.857" cy="488.529" r="5.05167" stroke-width="0.5" stroke="blue" fill="blue"/>
   </g>
   <g id="cell59">
  <circle cx="486.002" cy="500.226" r="6.67717" stroke-width="0.5" stroke="black" fill="Red"/>
  <circle cx="486.002" cy="500.226" r="4.00951" stroke-width="0.5" stroke="Red" fill="Red"/>
   </g>
   <g id="cell60">
  <circle cx="489.24" cy="513.185" r="8.41271" stroke-width="0.5" stroke="black" fill="Red"/>
  <circle cx="489.24" cy="513.185" r="5.05167" stroke-width="0.5" stroke="Red" fill="Red"/>
   </g>
   <g id="cell61">
  <circle cx="487.733" cy="533.239" r="8.41271" stroke-width="0.5" stroke="black" fill="Red"/>
  <circle cx="487.733" cy="533.239" r="5.05167" stroke-width="0.5" stroke="Red" fill="Red"/>
   </g>
   <g id="cell62">
  <circle cx="489.766" cy="546.118" r="8.41271" stroke-width="0.5" stroke="black" fill="Red"/>
  <circle cx="489.766" cy="546.118" r="5.05167" stroke-width="0.5" stroke="Red" fill="Red"/>
   </g>
   <g id="cell63">
  <circle cx="489.082" cy="559.981" r="8.41271" stroke-width="0.5" stroke="black" fill="Red"/>
  <circle cx="489.082" cy="559.981" r="5.05167" stroke-width="0.5" stroke="Red" fill="Red"/>
   </g>
   <g id="cell64">
  <circle cx="489.26" cy="573.015" r="8.41271" stroke-width="0.5" stroke="black" fill="Red"/>
  <circle cx="489.26" cy="573.015" r="5.05167" stroke-width="0.5" stroke="Red" fill="Red"/>
   </g>
   <g id="cell65">
  <circle cx="490.297" cy="588.383" r="8.41271" stroke-width="0.5" stroke="black" fill="yellow"/>
  <circle cx="490.297" cy="588.383" r="5.05167" stroke-width="0.5" stroke="yellow" fill="yellow"/>
   </g>
   <g id="cell66">
  <circle cx="503.736" cy="411.524" r="8.41271" stroke-width="0.5" stroke="black" fill="blue"/>
  <circle cx="503.736" cy="411.524" r="5.05167" stroke-width="0.5" stroke="blue" fill="blue"/>
   </g>
   <g id="cell67">
  <circle cx="501.235" cy="425.061" r="8.41271" stroke-width="0.5" stroke="black" fill="yellow"/>
  <circle cx="501.235" cy="425.061" r="5.05167" stroke-width="0.5" stroke="yellow" fill="yellow"/>
   </g>
   <g id="cell68">
  <circle cx="500.579" cy="436.262" r="8.41271" stroke-width="0.5" stroke="black" fill="Red"/>
  <circle cx="500.579" cy="436.262" r="5.05167" stroke-width="0.5" stroke="Red" fill="Red"/>
   </g>
   <g id="cell69">
  <circle cx="497.014" cy="449.406" r="8.41271" stroke-width="0.5" stroke="black" fill="Red"/>
  <circle cx="497.014" cy="449.406" r="5.05167" stroke-width="0.5" stroke="Red" fill="Red"/>
   </g>
   <g id="cell70">
  <circle cx="498.664" cy="467.647" r="8.41271" stroke-width="0.5" stroke="black" fill="Red"/>
  <circle cx="498.664" cy="467.647" r="5.05167" stroke-width="0.5" stroke="Red" fill="Red"/>
   </g>
   <g id="cell71">
  <circle cx="494.83" cy="478.563" r="8.41271" stroke-width="0.5" stroke="black" fill="Red"/>
  <circle cx="494.83" cy="478.563" r="5.05167" stroke-width="0.5" stroke="Red" fill="Red"/>
   </g>
   <g id="cell72">
  <circle cx="501.269" cy="490.383" r="8.41271" stroke-width="0.5" stroke="black" fill="Red"/>
  <circle cx="501.269" cy="490.383" r="5.05167" stroke-width="0.5" stroke="Red" fill="Red"/>
   </g>
   <g id="cell73">
  <circle cx="501.494" cy="507.275" r="8.41271" stroke-width="0.5" stroke="black" fill="Red"/>
  <circle cx="501.494" cy="507.275" r="5.05167" stroke-width="0.5" stroke="Red" fill="Red"/>
   </g>
   <g id="cell74">
  <circle cx="498.25" cy="523.44" r="8.41271" stroke-width="0.5" stroke="black" fill="Red"/>
  <circle cx="498.25" cy="523.44" r="5.05167" stroke-width="0.5" stroke="Red" fill="Red"/>
   </g>
   <g id="cell75">
  <circle cx="500.047" cy="536.583" r="8.41271" stroke-width="0.5" stroke="black" fill="blue"/>
  <circle cx="500.047" cy="536.583" r="5.05167" stroke-width="0.5" stroke="blue" fill="blue"/>
   </g>
   <g id="cell76">
  <circle cx="500.164" cy="552.488" r="8.41271" stroke-width="0.5" stroke="black" fill="Red"/>
  <circle cx="500.164" cy="552.488" r="5.05167" stroke-width="0.5" stroke="Red" fill="Red"/>
   </g>
   <g id="cell77">
  <circle cx="499.044" cy="567.081" r="7.3599" stroke-width="0.5" stroke="black" fill="Red"/>
  <circle cx="499.044" cy="567.081" r="4.47294" stroke-width="0.5" stroke="Red" fill="Red"/>
   </g>
   <g id="cell78">
  <circle cx="502.364" cy="578.751" r="8.41271" stroke-width="0.5" stroke="black" fill="yellow"/>
  <circle cx="502.364" cy="578.751" r="5.05167" stroke-width="0.5" stroke="yellow" fill="yellow"/>
   </g>
   <g id="cell79">
  <circle cx="504.191" cy="592.823" r="8.41271" stroke-width="0.5" stroke="black" fill="blue"/>
  <circle cx="504.191" cy="592.823" r="5.05167" stroke-width="0.5" stroke="blue" fill="blue"/>
   </g>
   <g id="cell80">
  <circle cx="517.263" cy="410.516" r="6.80881" stroke-width="0.5" stroke="black" fill="yellow"/>
  <circle cx="517.263" cy="410.516" r="4.10709" stroke-width="0.5" stroke="yellow" fill="yellow"/>
   </g>
   <g id="cell81">
  <circle cx="514.439" cy="432.245" r="8.41271" stroke-width="0.5" stroke="black" fill="Red"/>
  <circle cx="514.439" cy="432.245" r="5.05167" stroke-width="0.5" stroke="Red" fill="Red"/>
   </g>
   <g id="cell82">
  <circle cx="510.453" cy="444.651" r="8.41271" stroke-width="0.5" stroke="black" fill="Red"/>
  <circle cx="510.453" cy="444.651" r="5.05167" stroke-width="0.5" stroke="Red" fill="Red"/>
   </g>
   <g id="cell83">
  <circle cx="507.741" cy="457.142" r="8.41271" stroke-width="0.5" stroke="black" fill="Red"/>
  <circle cx="507.741" cy="457.142" r="5.05167" stroke-width="0.5" stroke="Red" fill="Red"/>
   </g>
   <g id="cell84">
  <circle cx="512.822" cy="469.015" r="8.41271" stroke-width="0.5" stroke="black" fill="Red"/>
  <circle cx="512.822" cy="469.015" r="5.05167" stroke-width="0.5" stroke="Red" fill="Red"/>
   </g>
   <g id="cell85">
  <circle cx="506.899" cy="479.294" r="8.41271" stroke-width="0.5" stroke="black" fill="Red"/>
  <circle cx="506.899" cy="479.294" r="5.05167" stroke-width="0.5" stroke="Red" fill="Red"/>
   </g>
   <g id="cell86">
  <circle cx="512.208" cy="495.329" r="8.41271" stroke-width="0.5" stroke="black" fill="Red"/>
  <circle cx="512.208" cy="495.329" r="5.05167" stroke-width="0.5" stroke="Red" fill="Red"/>
   </g>
   <g id="cell87">
  <circle cx="514.313" cy="507.82" r="7.44242" stroke-width="0.5" stroke="black" fill="Red"/>
  <circle cx="514.313" cy="507.82" r="4.52373" stroke-width="0.5" stroke="Red" fill="Red"/>
   </g>
   <g id="cell88">
  <circle cx="511.31" cy="529.944" r="8.41271" stroke-width="0.5" stroke="black" fill="Red"/>
  <circle cx="511.31" cy="529.944" r="5.05167" stroke-width="0.5" stroke="Red" fill="Red"/>
   </g>
   <g id="cell89">
  <circle cx="509.78" cy="544.582" r="8.41271" stroke-width="0.5" stroke="black" fill="Red"/>
  <circle cx="509.78" cy="544.582" r="5.05167" stroke-width="0.5" stroke="Red" fill="Red"/>
   </g>
   <g id="cell90">
  <circle cx="515.664" cy="555.131" r="8.41271" stroke-width="0.5" stroke="black" fill="Red"/>
  <circle cx="515.664" cy="555.131" r="5.05167" stroke-width="0.5" stroke="Red" fill="Red"/>
   </g>
   <g id="cell91">
  <circle cx="514.395" cy="571.163" r="8.41271" stroke-width="0.5" stroke="black" fill="Red"/>
  <circle cx="514.395" cy="571.163" r="5.05167" stroke-width="0.5" stroke="Red" fill="Red"/>
   </g>
   <g id="cell92">
  <circle cx="515.552" cy="585.605" r="8.41271" stroke-width="0.5" stroke="black" fill="yellow"/>
  <circle cx="515.552" cy="585.605" r="5.05167" stroke-width="0.5" stroke="yellow" fill="yellow"/>
   </g>
   <g id="cell93">
  <circle cx="530.807" cy="412.442" r="8.41271" stroke-width="0.5" stroke="black" fill="blue"/>
  <circle cx="530.807" cy="412.442" r="5.05167" stroke-width="0.5" stroke="blue" fill="blue"/>
   </g>
   <g id="cell94">
  <circle cx="536.307" cy="425.017" r="7.46878" stroke-width="0.5" stroke="black" fill="yellow"/>
  <circle cx="536.307" cy="425.017" r="4.53982" stroke-width="0.5" stroke="yellow" fill="yellow"/>
   </g>
   <g id="cell95">
  <circle cx="528.03" cy="435.444" r="8.41271" stroke-width="0.5" stroke="black" fill="Red"/>
  <circle cx="528.03" cy="435.444" r="5.05167" stroke-width="0.5" stroke="Red" fill="Red"/>
   </g>
   <g id="cell96">
  <circle cx="520.747" cy="443.548" r="6.71433" stroke-width="0.5" stroke="black" fill="blue"/>
  <circle cx="520.747" cy="443.548" r="4.11582" stroke-width="0.5" stroke="blue" fill="blue"/>
   </g>
   <g id="cell97">
  <circle cx="524.378" cy="462.355" r="8.41271" stroke-width="0.5" stroke="black" fill="Red"/>
  <circle cx="524.378" cy="462.355" r="5.05167" stroke-width="0.5" stroke="Red" fill="Red"/>
   </g>
   <g id="cell98">
  <circle cx="523.527" cy="488.194" r="6.18198" stroke-width="0.5" stroke="black" fill="blue"/>
  <circle cx="523.527" cy="488.194" r="3.78836" stroke-width="0.5" stroke="blue" fill="blue"/>
   </g>
   <g id="cell99">
  <circle cx="525.669" cy="497.09" r="8.41271" stroke-width="0.5" stroke="black" fill="Red"/>
  <circle cx="525.669" cy="497.09" r="5.05167" stroke-width="0.5" stroke="Red" fill="Red"/>
   </g>
   <g id="cell100">
  <circle cx="525.348" cy="506.885" r="6.71158" stroke-width="0.5" stroke="black" fill="Red"/>
  <circle cx="525.348" cy="506.885" r="4.03435" stroke-width="0.5" stroke="Red" fill="Red"/>
   </g>
   <g id="cell101">
  <circle cx="523.758" cy="526.328" r="8.41271" stroke-width="0.5" stroke="black" fill="Red"/>
  <circle cx="523.758" cy="526.328" r="5.05167" stroke-width="0.5" stroke="Red" fill="Red"/>
   </g>
   <g id="cell102">
  <circle cx="529.646" cy="535.549" r="7.65871" stroke-width="0.5" stroke="black" fill="Red"/>
  <circle cx="529.646" cy="535.549" r="4.6537" stroke-width="0.5" stroke="Red" fill="Red"/>
   </g>
   <g id="cell103">
  <circle cx="526.293" cy="550.114" r="8.41271" stroke-width="0.5" stroke="black" fill="Red"/>
  <circle cx="526.293" cy="550.114" r="5.05167" stroke-width="0.5" stroke="Red" fill="Red"/>
   </g>
   <g id="cell104">
  <circle cx="525.034" cy="564.304" r="8.41271" stroke-width="0.5" stroke="black" fill="yellow"/>
  <circle cx="525.034" cy="564.304" r="5.05167" stroke-width="0.5" stroke="yellow" fill="yellow"/>
   </g>
   <g id="cell105">
  <circle cx="525.981" cy="578.333" r="8.41271" stroke-width="0.5" stroke="black" fill="blue"/>
  <circle cx="525.981" cy="578.333" r="5.05167" stroke-width="0.5" stroke="blue" fill="blue"/>
   </g>
   <g id="cell106">
  <circle cx="542.942" cy="416.864" r="6.73287" stroke-width="0.5" stroke="black" fill="Red"/>
  <circle cx="542.942" cy="416.864" r="4.05039" stroke-width="0.5" stroke="Red" fill="Red"/>
   </g>
   <g id="cell107">
  <circle cx="541.629" cy="438.198" r="8.41271" stroke-width="0.5" stroke="black" fill="Red"/>
  <circle cx="541.629" cy="438.198" r="5.05167" stroke-width="0.5" stroke="Red" fill="Red"/>
   </g>
   <g id="cell108">
  <circle cx="531.084" cy="448.62" r="8.41271" stroke-width="0.5" stroke="black" fill="Red"/>
  <circle cx="531.084" cy="448.62" r="5.05167" stroke-width="0.5" stroke="Red" fill="Red"/>
   </g>
   <g id="cell109">
  <circle cx="546.584" cy="465.754" r="8.41271" stroke-width="0.5" stroke="black" fill="Red"/>
  <circle cx="546.584" cy="465.754" r="5.05167" stroke-width="0.5" stroke="Red" fill="Red"/>
   </g>
   <g id="cell110">
  <circle cx="529.298" cy="479.709" r="8.41271" stroke-width="0.5" stroke="black" fill="Red"/>
  <circle cx="529.298" cy="479.709" r="5.05167" stroke-width="0.5" stroke="Red" fill="Red"/>
   </g>
   <g id="cell111">
  <circle cx="536.551" cy="489.613" r="8.41271" stroke-width="0.5" stroke="black" fill="Red"/>
  <circle cx="536.551" cy="489.613" r="5.05167" stroke-width="0.5" stroke="Red" fill="Red"/>
   </g>
   <g id="cell112">
  <circle cx="538.335" cy="504.513" r="8.41271" stroke-width="0.5" stroke="black" fill="Red"/>
  <circle cx="538.335" cy="504.513" r="5.05167" stroke-width="0.5" stroke="Red" fill="Red"/>
   </g>
   <g id="cell113">
  <circle cx="532.293" cy="515.91" r="8.41271" stroke-width="0.5" stroke="black" fill="blue"/>
  <circle cx="532.293" cy="515.91" r="5.05167" stroke-width="0.5" stroke="blue" fill="blue"/>
   </g>
   <g id="cell114">
  <circle cx="537.904" cy="528.217" r="8.41271" stroke-width="0.5" stroke="black" fill="Red"/>
  <circle cx="537.904" cy="528.217" r="5.05167" stroke-width="0.5" stroke="Red" fill="Red"/>
   </g>
   <g id="cell115">
  <circle cx="537.165" cy="543.407" r="8.41271" stroke-width="0.5" stroke="black" fill="Red"/>
  <circle cx="537.165" cy="543.407" r="5.05167" stroke-width="0.5" stroke="Red" fill="Red"/>
   </g>
   <g id="cell116">
  <circle cx="538.044" cy="557.005" r="8.41271" stroke-width="0.5" stroke="black" fill="Red"/>
  <circle cx="538.044" cy="557.005" r="5.05167" stroke-width="0.5" stroke="Red" fill="Red"/>
   </g>
   <g id="cell117">
  <circle cx="538.843" cy="570.09" r="8.41271" stroke-width="0.5" stroke="black" fill="yellow"/>
  <circle cx="538.843" cy="570.09" r="5.05167" stroke-width="0.5" stroke="yellow" fill="yellow"/>
   </g>
   <g id="cell118">
  <circle cx="550.69" cy="426.265" r="8.41271" stroke-width="0.5" stroke="black" fill="blue"/>
  <circle cx="550.69" cy="426.265" r="5.05167" stroke-width="0.5" stroke="blue" fill="blue"/>
   </g>
   <g id="cell119">
  <circle cx="554.473" cy="441.553" r="8.41271" stroke-width="0.5" stroke="black" fill="yellow"/>
  <circle cx="554.473" cy="441.553" r="5.05167" stroke-width="0.5" stroke="yellow" fill="yellow"/>
   </g>
   <g id="cell120">
  <circle cx="553.824" cy="455.899" r="7.44242" stroke-width="0.5" stroke="black" fill="Red"/>
  <circle cx="553.824" cy="455.899" r="4.52373" stroke-width="0.5" stroke="Red" fill="Red"/>
   </g>
   <g id="cell121">
  <circle cx="556.58" cy="473.252" r="8.41271" stroke-width="0.5" stroke="black" fill="Red"/>
  <circle cx="556.58" cy="473.252" r="5.05167" stroke-width="0.5" stroke="Red" fill="Red"/>
   </g>
   <g id="cell122">
  <circle cx="545.616" cy="479.872" r="8.41271" stroke-width="0.5" stroke="black" fill="Red"/>
  <circle cx="545.616" cy="479.872" r="5.05167" stroke-width="0.5" stroke="Red" fill="Red"/>
   </g>
   <g id="cell123">
  <circle cx="548.977" cy="494.41" r="8.41271" stroke-width="0.5" stroke="black" fill="Red"/>
  <circle cx="548.977" cy="494.41" r="5.05167" stroke-width="0.5" stroke="Red" fill="Red"/>
   </g>
   <g id="cell124">
  <circle cx="551.438" cy="508.969" r="8.41271" stroke-width="0.5" stroke="black" fill="Red"/>
  <circle cx="551.438" cy="508.969" r="5.05167" stroke-width="0.5" stroke="Red" fill="Red"/>
   </g>
   <g id="cell125">
  <circle cx="544.101" cy="518.094" r="7.46878" stroke-width="0.5" stroke="black" fill="Red"/>
  <circle cx="544.101" cy="518.094" r="4.53982" stroke-width="0.5" stroke="Red" fill="Red"/>
   </g>
   <g id="cell126">
  <circle cx="547.277" cy="535.59" r="8.41271" stroke-width="0.5" stroke="black" fill="Red"/>
  <circle cx="547.277" cy="535.59" r="5.05167" stroke-width="0.5" stroke="Red" fill="Red"/>
   </g>
   <g id="cell127">
  <circle cx="549.64" cy="549.14" r="8.41271" stroke-width="0.5" stroke="black" fill="Red"/>
  <circle cx="549.64" cy="549.14" r="5.05167" stroke-width="0.5" stroke="Red" fill="Red"/>
   </g>
   <g id="cell128">
  <circle cx="550.372" cy="562.019" r="8.41271" stroke-width="0.5" stroke="black" fill="blue"/>
  <circle cx="550.372" cy="562.019" r="5.05167" stroke-width="0.5" stroke="blue" fill="blue"/>
   </g>
   <g id="cell129">
  <circle cx="571.652" cy="453.743" r="7.41548" stroke-width="0.5" stroke="black" fill="Red"/>
  <circle cx="571.652" cy="453.743" r="4.50723" stroke-width="0.5" stroke="Red" fill="Red"/>
   </g>
   <g id="cell130">
  <circle cx="563.083" cy="463.717" r="8.41271" stroke-width="0.5" stroke="black" fill="Red"/>
  <circle cx="563.083" cy="463.717" r="5.05167" stroke-width="0.5" stroke="Red" fill="Red"/>
   </g>
   <g id="cell131">
  <circle cx="568.957" cy="477.462" r="8.41271" stroke-width="0.5" stroke="black" fill="Red"/>
  <circle cx="568.957" cy="477.462" r="5.05167" stroke-width="0.5" stroke="Red" fill="Red"/>
   </g>
   <g id="cell132">
  <circle cx="559.271" cy="486.341" r="8.41271" stroke-width="0.5" stroke="black" fill="Red"/>
  <circle cx="559.271" cy="486.341" r="5.05167" stroke-width="0.5" stroke="Red" fill="Red"/>
   </g>
   <g id="cell133">
  <circle cx="562.7" cy="500.853" r="8.41271" stroke-width="0.5" stroke="black" fill="blue"/>
  <circle cx="562.7" cy="500.853" r="5.05167" stroke-width="0.5" stroke="blue" fill="blue"/>
   </g>
   <g id="cell134">
  <circle cx="563.404" cy="514.648" r="8.41271" stroke-width="0.5" stroke="black" fill="Red"/>
  <circle cx="563.404" cy="514.648" r="5.05167" stroke-width="0.5" stroke="Red" fill="Red"/>
   </g>
   <g id="cell135">
  <circle cx="566.378" cy="528.458" r="8.41271" stroke-width="0.5" stroke="black" fill="yellow"/>
  <circle cx="566.378" cy="528.458" r="5.05167" stroke-width="0.5" stroke="yellow" fill="yellow"/>
   </g>
   <g id="cell136">
  <circle cx="559.341" cy="539.585" r="8.41271" stroke-width="0.5" stroke="black" fill="Red"/>
  <circle cx="559.341" cy="539.585" r="5.05167" stroke-width="0.5" stroke="Red" fill="Red"/>
   </g>
   <g id="cell137">
  <circle cx="563.529" cy="554.427" r="8.41271" stroke-width="0.5" stroke="black" fill="yellow"/>
  <circle cx="563.529" cy="554.427" r="5.05167" stroke-width="0.5" stroke="yellow" fill="yellow"/>
   </g>
   <g id="cell138">
  <circle cx="575.643" cy="466.785" r="8.41271" stroke-width="0.5" stroke="black" fill="blue"/>
  <circle cx="575.643" cy="466.785" r="5.05167" stroke-width="0.5" stroke="blue" fill="blue"/>
   </g>
   <g id="cell139">
  <circle cx="582.539" cy="479.652" r="8.41271" stroke-width="0.5" stroke="black" fill="Red"/>
  <circle cx="582.539" cy="479.652" r="5.05167" stroke-width="0.5" stroke="Red" fill="Red"/>
   </g>
   <g id="cell140">
  <circle cx="572.627" cy="490.562" r="7.7401" stroke-width="0.5" stroke="black" fill="yellow"/>
  <circle cx="572.627" cy="490.562" r="4.70142" stroke-width="0.5" stroke="yellow" fill="yellow"/>
   </g>
   <g id="cell141">
  <circle cx="575.539" cy="504.056" r="8.41271" stroke-width="0.5" stroke="black" fill="yellow"/>
  <circle cx="575.539" cy="504.056" r="5.05167" stroke-width="0.5" stroke="yellow" fill="yellow"/>
   </g>
   <g id="cell142">
  <circle cx="576.151" cy="517.648" r="7.24243" stroke-width="0.5" stroke="black" fill="blue"/>
  <circle cx="576.151" cy="517.648" r="4.39934" stroke-width="0.5" stroke="blue" fill="blue"/>
   </g>
   <g id="cell143">
  <circle cx="573.133" cy="541.75" r="8.41271" stroke-width="0.5" stroke="black" fill="blue"/>
  <circle cx="573.133" cy="541.75" r="5.05167" stroke-width="0.5" stroke="blue" fill="blue"/>
   </g>
   <g id="cell144">
  <circle cx="431.583" cy="436.542" r="6.29799" stroke-width="0.5" stroke="black" fill="blue"/>
  <circle cx="431.583" cy="436.542" r="3.84143" stroke-width="0.5" stroke="blue" fill="blue"/>
   </g>
   <g id="cell145">
  <circle cx="587.085" cy="494.584" r="7.7401" stroke-width="0.5" stroke="black" fill="blue"/>
  <circle cx="587.085" cy="494.584" r="4.70142" stroke-width="0.5" stroke="blue" fill="blue"/>
   </g>
   <g id="cell146">
  <circle cx="479.479" cy="507.115" r="6.7845" stroke-width="0.5" stroke="black" fill="blue"/>
  <circle cx="479.479" cy="507.115" r="4.15957" stroke-width="0.5" stroke="blue" fill="blue"/>
   </g>
   <g id="cell147">
  <circle cx="536.838" cy="459.497" r="7.25348" stroke-width="0.5" stroke="black" fill="Red"/>
  <circle cx="536.838" cy="459.497" r="4.44211" stroke-width="0.5" stroke="Red" fill="Red"/>
   </g>
   <g id="cell148">
  <circle cx="519.807" cy="539.804" r="7.65871" stroke-width="0.5" stroke="black" fill="blue"/>
  <circle cx="519.807" cy="539.804" r="4.6537" stroke-width="0.5" stroke="blue" fill="blue"/>
   </g>
   <g id="cell149">
  <circle cx="535.54" cy="470.889" r="7.25348" stroke-width="0.5" stroke="black" fill="blue"/>
  <circle cx="535.54" cy="470.889" r="4.44211" stroke-width="0.5" stroke="blue" fill="blue"/>
   </g>
   <g id="cell150">
  <circle cx="444.878" cy="515.009" r="7.54436" stroke-width="0.5" stroke="black" fill="blue"/>
  <circle cx="444.878" cy="515.009" r="4.58555" stroke-width="0.5" stroke="blue" fill="blue"/>
   </g>
   <g id="cell151">
  <circle cx="451.637" cy="414.673" r="7.54436" stroke-width="0.5" stroke="black" fill="blue"/>
  <circle cx="451.637" cy="414.673" r="4.58555" stroke-width="0.5" stroke="blue" fill="blue"/>
   </g>
   <g id="cell152">
  <circle cx="482.615" cy="458.836" r="7.49456" stroke-width="0.5" stroke="black" fill="blue"/>
  <circle cx="482.615" cy="458.836" r="4.55548" stroke-width="0.5" stroke="blue" fill="blue"/>
   </g>
   <g id="cell153">
  <circle cx="524.114" cy="422.36" r="7.46878" stroke-width="0.5" stroke="black" fill="yellow"/>
  <circle cx="524.114" cy="422.36" r="4.53982" stroke-width="0.5" stroke="yellow" fill="yellow"/>
   </g>
   <g id="cell154">
  <circle cx="553.681" cy="524.055" r="7.46878" stroke-width="0.5" stroke="black" fill="Red"/>
  <circle cx="553.681" cy="524.055" r="4.53982" stroke-width="0.5" stroke="Red" fill="Red"/>
   </g>
   <g id="cell155">
  <circle cx="445.24" cy="423.911" r="6.93569" stroke-width="0.5" stroke="black" fill="Red"/>
  <circle cx="445.24" cy="423.911" r="4.25431" stroke-width="0.5" stroke="Red" fill="Red"/>
   </g>
   <g id="cell156">
  <circle cx="509.638" cy="518.397" r="7.44242" stroke-width="0.5" stroke="black" fill="blue"/>
  <circle cx="509.638" cy="518.397" r="4.52373" stroke-width="0.5" stroke="blue" fill="blue"/>
   </g>
   <g id="cell157">
  <circle cx="543.962" cy="450.623" r="7.44242" stroke-width="0.5" stroke="black" fill="blue"/>
  <circle cx="543.962" cy="450.623" r="4.52373" stroke-width="0.5" stroke="blue" fill="blue"/>
   </g>
   <g id="cell158">
  <circle cx="562.442" cy="450.531" r="6.24193" stroke-width="0.5" stroke="black" fill="Red"/>
  <circle cx="562.442" cy="450.531" r="3.82336" stroke-width="0.5" stroke="Red" fill="Red"/>
   </g>
   <g id="cell159">
  <circle cx="473.125" cy="528.624" r="7.38797" stroke-width="0.5" stroke="black" fill="blue"/>
  <circle cx="473.125" cy="528.624" r="4.49029" stroke-width="0.5" stroke="blue" fill="blue"/>
   </g>
   <g id="cell160">
  <circle cx="507.518" cy="561.805" r="7.3599" stroke-width="0.5" stroke="black" fill="blue"/>
  <circle cx="507.518" cy="561.805" r="4.47294" stroke-width="0.5" stroke="blue" fill="blue"/>
   </g>
   <g id="cell161">
  <circle cx="518.597" cy="477.904" r="6.06111" stroke-width="0.5" stroke="black" fill="Red"/>
  <circle cx="518.597" cy="477.904" r="3.70861" stroke-width="0.5" stroke="Red" fill="Red"/>
   </g>
   <g id="cell162">
  <circle cx="581.203" cy="529.416" r="7.24243" stroke-width="0.5" stroke="black" fill="yellow"/>
  <circle cx="581.203" cy="529.416" r="4.39934" stroke-width="0.5" stroke="yellow" fill="yellow"/>
   </g>
   <g id="cell163">
  <circle cx="475.513" cy="516.726" r="6.7845" stroke-width="0.5" stroke="black" fill="Red"/>
  <circle cx="475.513" cy="516.726" r="4.15957" stroke-width="0.5" stroke="Red" fill="Red"/>
   </g>
   <g id="cell164">
  <circle cx="435.661" cy="494.74" r="7.24243" stroke-width="0.5" stroke="black" fill="Red"/>
  <circle cx="435.661" cy="494.74" r="4.39934" stroke-width="0.5" stroke="Red" fill="Red"/>
   </g>
   <g id="cell165">
  <circle cx="465.281" cy="444.689" r="7.18097" stroke-width="0.5" stroke="black" fill="blue"/>
  <circle cx="465.281" cy="444.689" r="4.36015" stroke-width="0.5" stroke="blue" fill="blue"/>
   </g>
   <g id="cell166">
  <circle cx="489.796" cy="439.162" r="7.18097" stroke-width="0.5" stroke="black" fill="blue"/>
  <circle cx="489.796" cy="439.162" r="4.36015" stroke-width="0.5" stroke="blue" fill="blue"/>
   </g>
   <g id="cell167">
  <circle cx="518.998" cy="453.979" r="6.71433" stroke-width="0.5" stroke="black" fill="Red"/>
  <circle cx="518.998" cy="453.979" r="4.11582" stroke-width="0.5" stroke="Red" fill="Red"/>
   </g>
   <g id="cell168">
  <circle cx="429.69" cy="527.488" r="6.05551" stroke-width="0.5" stroke="black" fill="Red"/>
  <circle cx="429.69" cy="527.488" r="3.70821" stroke-width="0.5" stroke="Red" fill="Red"/>
   </g>
   <g id="cell169">
  <circle cx="418.174" cy="459.447" r="7.02257" stroke-width="0.5" stroke="black" fill="blue"/>
  <circle cx="418.174" cy="459.447" r="4.25644" stroke-width="0.5" stroke="blue" fill="blue"/>
   </g>
   <g id="cell170">
  <circle cx="514.663" cy="485.381" r="6.18198" stroke-width="0.5" stroke="black" fill="blue"/>
  <circle cx="514.663" cy="485.381" r="3.78836" stroke-width="0.5" stroke="blue" fill="blue"/>
   </g>
   <g id="cell171">
  <circle cx="454.801" cy="581.868" r="6.95901" stroke-width="0.5" stroke="black" fill="Red"/>
  <circle cx="454.801" cy="581.868" r="4.21341" stroke-width="0.5" stroke="Red" fill="Red"/>
   </g>
   <g id="cell172">
  <circle cx="567.017" cy="441.777" r="6.24193" stroke-width="0.5" stroke="black" fill="blue"/>
  <circle cx="567.017" cy="441.777" r="3.82336" stroke-width="0.5" stroke="blue" fill="blue"/>
   </g>
   <g id="cell173">
  <circle cx="425.209" cy="517.974" r="6.05551" stroke-width="0.5" stroke="black" fill="Red"/>
  <circle cx="425.209" cy="517.974" r="3.70821" stroke-width="0.5" stroke="Red" fill="Red"/>
   </g>
   <g id="cell174">
  <circle cx="525.181" cy="471.2" r="6.06111" stroke-width="0.5" stroke="black" fill="Red"/>
  <circle cx="525.181" cy="471.2" r="3.70861" stroke-width="0.5" stroke="Red" fill="Red"/>
   </g>
   <g id="cell175">
  <circle cx="512.372" cy="419.927" r="6.80881" stroke-width="0.5" stroke="black" fill="yellow"/>
  <circle cx="512.372" cy="419.927" r="4.10709" stroke-width="0.5" stroke="yellow" fill="yellow"/>
   </g>
   <g id="cell176">
  <circle cx="441.546" cy="433.57" r="6.29799" stroke-width="0.5" stroke="black" fill="yellow"/>
  <circle cx="441.546" cy="433.57" r="3.84143" stroke-width="0.5" stroke="yellow" fill="yellow"/>
   </g>
   <g id="cell177">
  <circle cx="552.921" cy="412.905" r="6.73287" stroke-width="0.5" stroke="black" fill="blue"/>
  <circle cx="552.921" cy="412.905" r="4.05039" stroke-width="0.5" stroke="blue" fill="blue"/>
   </g>
   <g id="cell178">
  <circle cx="520.212" cy="516.781" r="6.71158" stroke-width="0.5" stroke="black" fill="Red"/>
  <circle cx="520.212" cy="516.781" r="4.03435" stroke-width="0.5" stroke="Red" fill="Red"/>
   </g>
   <g id="cell179">
  <circle cx="459.768" cy="530.467" r="6.71158" stroke-width="0.5" stroke="black" fill="Red"/>
  <circle cx="459.768" cy="530.467" r="4.03435" stroke-width="0.5" stroke="Red" fill="Red"/>
   </g>
   <g id="cell180">
  <circle cx="461.201" cy="436.566" r="6.71158" stroke-width="0.5" stroke="black" fill="Red"/>
  <circle cx="461.201" cy="436.566" r="4.03435" stroke-width="0.5" stroke="Red" fill="Red"/>
   </g>
   <g id="cell181">
  <circle cx="494.722" cy="498.91" r="6.67717" stroke-width="0.5" stroke="black" fill="Red"/>
  <circle cx="494.722" cy="498.91" r="4.00951" stroke-width="0.5" stroke="Red" fill="Red"/>
   </g>
  </g>
 </g>
  <rect x="775" y="1035" width="200" height="10" stroke-width="2" stroke="rgb(255,255,255)" fill="rgb(0,0,0)"/>
  <text x="781.25" y="1028.75"
   font-family="Arial" font-size="25" fill="black" >
   200 &#956;m
  </text>
  <text x="25" y="1045"
   font-family="Arial" font-size="18.75" fill="black" >
   0 days, 0 hours, 1 minutes, and 32.1475 seconds
  </text>
  <rect x="0" y="70" width="1000" height="1000" stroke-width="2" stroke="rgb(0,0,0)" fill="none"/>
</svg>
