<?xml version="1.0" encoding="UTF-8" standalone="no"?>
<!-- Created with PhysiCell (http://PhysiCell.MathCancer.org/) -->
<svg 
 xmlns:dc="http://purl.org/dc/elements/1.1/" 
 xmlns:cc="http://creativecommons.org/ns#" 
 xmlns:rdf="http://www.w3.org/1999/02/22-rdf-syntax-ns#" 
 xmlns:svg="http://www.w3.org/2000/svg" 
 xmlns="http://www.w3.org/2000/svg" 
 version="1.1" 
 width="1000" 
 height="1070" 
 id="svg2">
  <rect x="0" y="0" width="1000" height="1070" stroke-width="2" stroke="white" fill="white"/>
  <text x="12.5" y="30"
   font-family="Arial" font-size="25" fill="black" >
   Current time: 0 days, 2 hours, and 35.00 minutes, z = 0.00 &#956;m
  </text>
  <text x="12.5" y="57.5"
   font-family="Arial" font-size="23.75" fill="black" >
   169 agents
  </text>
 <g id="tissue" 
    transform="translate(0,1070) scale(1,-1)">
  <g id="ECM">
  </g>
  <g id="cells">
   <g id="cell0">
  <circle cx="428.276" cy="449.305" r="8.41271" stroke-width="0.5" stroke="black" fill="blue"/>
  <circle cx="428.276" cy="449.305" r="5.05167" stroke-width="0.5" stroke="blue" fill="blue"/>
   </g>
   <g id="cell1">
  <circle cx="427.916" cy="464.243" r="8.41271" stroke-width="0.5" stroke="black" fill="yellow"/>
  <circle cx="427.916" cy="464.243" r="5.05167" stroke-width="0.5" stroke="yellow" fill="yellow"/>
   </g>
   <g id="cell2">
  <circle cx="426.834" cy="478.424" r="8.41271" stroke-width="0.5" stroke="black" fill="blue"/>
  <circle cx="426.834" cy="478.424" r="5.05167" stroke-width="0.5" stroke="blue" fill="blue"/>
   </g>
   <g id="cell3">
  <circle cx="427.97" cy="489.456" r="6.73287" stroke-width="0.5" stroke="black" fill="Red"/>
  <circle cx="427.97" cy="489.456" r="4.05039" stroke-width="0.5" stroke="Red" fill="Red"/>
   </g>
   <g id="cell4">
  <circle cx="430.157" cy="512.3" r="8.41271" stroke-width="0.5" stroke="black" fill="blue"/>
  <circle cx="430.157" cy="512.3" r="5.05167" stroke-width="0.5" stroke="blue" fill="blue"/>
   </g>
   <g id="cell5">
  <circle cx="418.693" cy="523.922" r="6.67717" stroke-width="0.5" stroke="black" fill="Red"/>
  <circle cx="418.693" cy="523.922" r="4.00951" stroke-width="0.5" stroke="Red" fill="Red"/>
   </g>
   <g id="cell6">
  <circle cx="428.053" cy="534.762" r="8.41271" stroke-width="0.5" stroke="black" fill="blue"/>
  <circle cx="428.053" cy="534.762" r="5.05167" stroke-width="0.5" stroke="blue" fill="blue"/>
   </g>
   <g id="cell7">
  <circle cx="441.15" cy="446.53" r="7.33129" stroke-width="0.5" stroke="black" fill="Red"/>
  <circle cx="441.15" cy="446.53" r="4.45516" stroke-width="0.5" stroke="Red" fill="Red"/>
   </g>
   <g id="cell8">
  <circle cx="439.211" cy="458.786" r="8.41271" stroke-width="0.5" stroke="black" fill="Red"/>
  <circle cx="439.211" cy="458.786" r="5.05167" stroke-width="0.5" stroke="Red" fill="Red"/>
   </g>
   <g id="cell9">
  <circle cx="439.555" cy="473.136" r="8.41271" stroke-width="0.5" stroke="black" fill="yellow"/>
  <circle cx="439.555" cy="473.136" r="5.05167" stroke-width="0.5" stroke="yellow" fill="yellow"/>
   </g>
   <g id="cell10">
  <circle cx="439.679" cy="487.752" r="8.41271" stroke-width="0.5" stroke="black" fill="yellow"/>
  <circle cx="439.679" cy="487.752" r="5.05167" stroke-width="0.5" stroke="yellow" fill="yellow"/>
   </g>
   <g id="cell11">
  <circle cx="441.431" cy="502.338" r="8.41271" stroke-width="0.5" stroke="black" fill="Red"/>
  <circle cx="441.431" cy="502.338" r="5.05167" stroke-width="0.5" stroke="Red" fill="Red"/>
   </g>
   <g id="cell12">
  <circle cx="438.434" cy="523.491" r="7.0545" stroke-width="0.5" stroke="black" fill="Red"/>
  <circle cx="438.434" cy="523.491" r="4.27772" stroke-width="0.5" stroke="Red" fill="Red"/>
   </g>
   <g id="cell13">
  <circle cx="442.328" cy="533.431" r="8.41271" stroke-width="0.5" stroke="black" fill="Red"/>
  <circle cx="442.328" cy="533.431" r="5.05167" stroke-width="0.5" stroke="Red" fill="Red"/>
   </g>
   <g id="cell14">
  <circle cx="437.986" cy="546.396" r="8.41271" stroke-width="0.5" stroke="black" fill="yellow"/>
  <circle cx="437.986" cy="546.396" r="5.05167" stroke-width="0.5" stroke="yellow" fill="yellow"/>
   </g>
   <g id="cell15">
  <circle cx="437.604" cy="559.919" r="8.41271" stroke-width="0.5" stroke="black" fill="blue"/>
  <circle cx="437.604" cy="559.919" r="5.05167" stroke-width="0.5" stroke="blue" fill="blue"/>
   </g>
   <g id="cell16">
  <circle cx="454.82" cy="427.191" r="5.98931" stroke-width="0.5" stroke="black" fill="yellow"/>
  <circle cx="454.82" cy="427.191" r="3.66601" stroke-width="0.5" stroke="yellow" fill="yellow"/>
   </g>
   <g id="cell17">
  <circle cx="452.746" cy="438.258" r="8.41271" stroke-width="0.5" stroke="black" fill="Red"/>
  <circle cx="452.746" cy="438.258" r="5.05167" stroke-width="0.5" stroke="Red" fill="Red"/>
   </g>
   <g id="cell18">
  <circle cx="451.682" cy="452.169" r="8.41271" stroke-width="0.5" stroke="black" fill="Red"/>
  <circle cx="451.682" cy="452.169" r="5.05167" stroke-width="0.5" stroke="Red" fill="Red"/>
   </g>
   <g id="cell19">
  <circle cx="451.873" cy="466.918" r="8.41271" stroke-width="0.5" stroke="black" fill="blue"/>
  <circle cx="451.873" cy="466.918" r="5.05167" stroke-width="0.5" stroke="blue" fill="blue"/>
   </g>
   <g id="cell20">
  <circle cx="452.204" cy="480.003" r="8.41271" stroke-width="0.5" stroke="black" fill="Red"/>
  <circle cx="452.204" cy="480.003" r="5.05167" stroke-width="0.5" stroke="Red" fill="Red"/>
   </g>
   <g id="cell21">
  <circle cx="451.845" cy="493.359" r="8.41271" stroke-width="0.5" stroke="black" fill="blue"/>
  <circle cx="451.845" cy="493.359" r="5.05167" stroke-width="0.5" stroke="blue" fill="blue"/>
   </g>
   <g id="cell22">
  <circle cx="454.751" cy="508.172" r="8.41271" stroke-width="0.5" stroke="black" fill="Red"/>
  <circle cx="454.751" cy="508.172" r="5.05167" stroke-width="0.5" stroke="Red" fill="Red"/>
   </g>
   <g id="cell23">
  <circle cx="451.746" cy="523.118" r="8.41271" stroke-width="0.5" stroke="black" fill="Red"/>
  <circle cx="451.746" cy="523.118" r="5.05167" stroke-width="0.5" stroke="Red" fill="Red"/>
   </g>
   <g id="cell24">
  <circle cx="451.221" cy="541.202" r="8.41271" stroke-width="0.5" stroke="black" fill="blue"/>
  <circle cx="451.221" cy="541.202" r="5.05167" stroke-width="0.5" stroke="blue" fill="blue"/>
   </g>
   <g id="cell25">
  <circle cx="451.257" cy="554.217" r="8.41271" stroke-width="0.5" stroke="black" fill="yellow"/>
  <circle cx="451.257" cy="554.217" r="5.05167" stroke-width="0.5" stroke="yellow" fill="yellow"/>
   </g>
   <g id="cell26">
  <circle cx="453.42" cy="567.945" r="8.41271" stroke-width="0.5" stroke="black" fill="yellow"/>
  <circle cx="453.42" cy="567.945" r="5.05167" stroke-width="0.5" stroke="yellow" fill="yellow"/>
   </g>
   <g id="cell27">
  <circle cx="463.2" cy="417.904" r="8.41271" stroke-width="0.5" stroke="black" fill="yellow"/>
  <circle cx="463.2" cy="417.904" r="5.05167" stroke-width="0.5" stroke="yellow" fill="yellow"/>
   </g>
   <g id="cell28">
  <circle cx="464.989" cy="431.81" r="8.41271" stroke-width="0.5" stroke="black" fill="Red"/>
  <circle cx="464.989" cy="431.81" r="5.05167" stroke-width="0.5" stroke="Red" fill="Red"/>
   </g>
   <g id="cell29">
  <circle cx="462.157" cy="448.299" r="6.69288" stroke-width="0.5" stroke="black" fill="blue"/>
  <circle cx="462.157" cy="448.299" r="4.02051" stroke-width="0.5" stroke="blue" fill="blue"/>
   </g>
   <g id="cell30">
  <circle cx="463.511" cy="459.896" r="8.41271" stroke-width="0.5" stroke="black" fill="Red"/>
  <circle cx="463.511" cy="459.896" r="5.05167" stroke-width="0.5" stroke="Red" fill="Red"/>
   </g>
   <g id="cell31">
  <circle cx="465.029" cy="473.191" r="8.41271" stroke-width="0.5" stroke="black" fill="Red"/>
  <circle cx="465.029" cy="473.191" r="5.05167" stroke-width="0.5" stroke="Red" fill="Red"/>
   </g>
   <g id="cell32">
  <circle cx="464.617" cy="486.235" r="8.41271" stroke-width="0.5" stroke="black" fill="blue"/>
  <circle cx="464.617" cy="486.235" r="5.05167" stroke-width="0.5" stroke="blue" fill="blue"/>
   </g>
   <g id="cell33">
  <circle cx="463.798" cy="499.001" r="8.41271" stroke-width="0.5" stroke="black" fill="Red"/>
  <circle cx="463.798" cy="499.001" r="5.05167" stroke-width="0.5" stroke="Red" fill="Red"/>
   </g>
   <g id="cell34">
  <circle cx="463.687" cy="518.59" r="8.41271" stroke-width="0.5" stroke="black" fill="Red"/>
  <circle cx="463.687" cy="518.59" r="5.05167" stroke-width="0.5" stroke="Red" fill="Red"/>
   </g>
   <g id="cell35">
  <circle cx="461.049" cy="530.828" r="8.41271" stroke-width="0.5" stroke="black" fill="Red"/>
  <circle cx="461.049" cy="530.828" r="5.05167" stroke-width="0.5" stroke="Red" fill="Red"/>
   </g>
   <g id="cell36">
  <circle cx="465.216" cy="543.133" r="8.41271" stroke-width="0.5" stroke="black" fill="Red"/>
  <circle cx="465.216" cy="543.133" r="5.05167" stroke-width="0.5" stroke="Red" fill="Red"/>
   </g>
   <g id="cell37">
  <circle cx="465.436" cy="557.267" r="8.41271" stroke-width="0.5" stroke="black" fill="Red"/>
  <circle cx="465.436" cy="557.267" r="5.05167" stroke-width="0.5" stroke="Red" fill="Red"/>
   </g>
   <g id="cell38">
  <circle cx="466.285" cy="571.799" r="8.41271" stroke-width="0.5" stroke="black" fill="Red"/>
  <circle cx="466.285" cy="571.799" r="5.05167" stroke-width="0.5" stroke="Red" fill="Red"/>
   </g>
   <g id="cell39">
  <circle cx="459.533" cy="583.738" r="8.41271" stroke-width="0.5" stroke="black" fill="blue"/>
  <circle cx="459.533" cy="583.738" r="5.05167" stroke-width="0.5" stroke="blue" fill="blue"/>
   </g>
   <g id="cell40">
  <circle cx="475.144" cy="409.466" r="8.41271" stroke-width="0.5" stroke="black" fill="blue"/>
  <circle cx="475.144" cy="409.466" r="5.05167" stroke-width="0.5" stroke="blue" fill="blue"/>
   </g>
   <g id="cell41">
  <circle cx="477.214" cy="425.3" r="8.41271" stroke-width="0.5" stroke="black" fill="yellow"/>
  <circle cx="477.214" cy="425.3" r="5.05167" stroke-width="0.5" stroke="yellow" fill="yellow"/>
   </g>
   <g id="cell42">
  <circle cx="478.123" cy="439.603" r="8.41271" stroke-width="0.5" stroke="black" fill="Red"/>
  <circle cx="478.123" cy="439.603" r="5.05167" stroke-width="0.5" stroke="Red" fill="Red"/>
   </g>
   <g id="cell43">
  <circle cx="473.529" cy="452.945" r="8.41271" stroke-width="0.5" stroke="black" fill="Red"/>
  <circle cx="473.529" cy="452.945" r="5.05167" stroke-width="0.5" stroke="Red" fill="Red"/>
   </g>
   <g id="cell44">
  <circle cx="477.559" cy="467.373" r="8.41271" stroke-width="0.5" stroke="black" fill="Red"/>
  <circle cx="477.559" cy="467.373" r="5.05167" stroke-width="0.5" stroke="Red" fill="Red"/>
   </g>
   <g id="cell45">
  <circle cx="477.712" cy="481.201" r="8.41271" stroke-width="0.5" stroke="black" fill="Red"/>
  <circle cx="477.712" cy="481.201" r="5.05167" stroke-width="0.5" stroke="Red" fill="Red"/>
   </g>
   <g id="cell46">
  <circle cx="477.273" cy="497.006" r="8.41271" stroke-width="0.5" stroke="black" fill="Red"/>
  <circle cx="477.273" cy="497.006" r="5.05167" stroke-width="0.5" stroke="Red" fill="Red"/>
   </g>
   <g id="cell47">
  <circle cx="470.278" cy="508.602" r="7.30216" stroke-width="0.5" stroke="black" fill="Red"/>
  <circle cx="470.278" cy="508.602" r="4.43696" stroke-width="0.5" stroke="Red" fill="Red"/>
   </g>
   <g id="cell48">
  <circle cx="481.305" cy="522.097" r="6.86652" stroke-width="0.5" stroke="black" fill="Red"/>
  <circle cx="481.305" cy="522.097" r="4.14883" stroke-width="0.5" stroke="Red" fill="Red"/>
   </g>
   <g id="cell49">
  <circle cx="477.384" cy="537.001" r="8.41271" stroke-width="0.5" stroke="black" fill="Red"/>
  <circle cx="477.384" cy="537.001" r="5.05167" stroke-width="0.5" stroke="Red" fill="Red"/>
   </g>
   <g id="cell50">
  <circle cx="477.83" cy="551.047" r="8.41271" stroke-width="0.5" stroke="black" fill="blue"/>
  <circle cx="477.83" cy="551.047" r="5.05167" stroke-width="0.5" stroke="blue" fill="blue"/>
   </g>
   <g id="cell51">
  <circle cx="478.642" cy="564.856" r="8.41271" stroke-width="0.5" stroke="black" fill="blue"/>
  <circle cx="478.642" cy="564.856" r="5.05167" stroke-width="0.5" stroke="blue" fill="blue"/>
   </g>
   <g id="cell52">
  <circle cx="477.246" cy="579.413" r="8.41271" stroke-width="0.5" stroke="black" fill="yellow"/>
  <circle cx="477.246" cy="579.413" r="5.05167" stroke-width="0.5" stroke="yellow" fill="yellow"/>
   </g>
   <g id="cell53">
  <circle cx="488.561" cy="417.167" r="8.41271" stroke-width="0.5" stroke="black" fill="yellow"/>
  <circle cx="488.561" cy="417.167" r="5.05167" stroke-width="0.5" stroke="yellow" fill="yellow"/>
   </g>
   <g id="cell54">
  <circle cx="489.631" cy="432.302" r="8.41271" stroke-width="0.5" stroke="black" fill="blue"/>
  <circle cx="489.631" cy="432.302" r="5.05167" stroke-width="0.5" stroke="blue" fill="blue"/>
   </g>
   <g id="cell55">
  <circle cx="484.364" cy="449.426" r="6.69288" stroke-width="0.5" stroke="black" fill="Red"/>
  <circle cx="484.364" cy="449.426" r="4.02051" stroke-width="0.5" stroke="Red" fill="Red"/>
   </g>
   <g id="cell56">
  <circle cx="494.871" cy="463.446" r="6.99069" stroke-width="0.5" stroke="black" fill="blue"/>
  <circle cx="494.871" cy="463.446" r="4.23498" stroke-width="0.5" stroke="blue" fill="blue"/>
   </g>
   <g id="cell57">
  <circle cx="489.651" cy="473.42" r="8.41271" stroke-width="0.5" stroke="black" fill="Red"/>
  <circle cx="489.651" cy="473.42" r="5.05167" stroke-width="0.5" stroke="Red" fill="Red"/>
   </g>
   <g id="cell58">
  <circle cx="489.464" cy="489.614" r="8.41271" stroke-width="0.5" stroke="black" fill="blue"/>
  <circle cx="489.464" cy="489.614" r="5.05167" stroke-width="0.5" stroke="blue" fill="blue"/>
   </g>
   <g id="cell59">
  <circle cx="490.317" cy="503.05" r="8.41271" stroke-width="0.5" stroke="black" fill="Red"/>
  <circle cx="490.317" cy="503.05" r="5.05167" stroke-width="0.5" stroke="Red" fill="Red"/>
   </g>
   <g id="cell60">
  <circle cx="490.698" cy="516.299" r="8.41271" stroke-width="0.5" stroke="black" fill="Red"/>
  <circle cx="490.698" cy="516.299" r="5.05167" stroke-width="0.5" stroke="Red" fill="Red"/>
   </g>
   <g id="cell61">
  <circle cx="488.289" cy="529.791" r="8.41271" stroke-width="0.5" stroke="black" fill="Red"/>
  <circle cx="488.289" cy="529.791" r="5.05167" stroke-width="0.5" stroke="Red" fill="Red"/>
   </g>
   <g id="cell62">
  <circle cx="488.484" cy="543.416" r="8.41271" stroke-width="0.5" stroke="black" fill="blue"/>
  <circle cx="488.484" cy="543.416" r="5.05167" stroke-width="0.5" stroke="blue" fill="blue"/>
   </g>
   <g id="cell63">
  <circle cx="489.96" cy="558.443" r="8.41271" stroke-width="0.5" stroke="black" fill="Red"/>
  <circle cx="489.96" cy="558.443" r="5.05167" stroke-width="0.5" stroke="Red" fill="Red"/>
   </g>
   <g id="cell64">
  <circle cx="489.673" cy="572.267" r="8.41271" stroke-width="0.5" stroke="black" fill="Red"/>
  <circle cx="489.673" cy="572.267" r="5.05167" stroke-width="0.5" stroke="Red" fill="Red"/>
   </g>
   <g id="cell65">
  <circle cx="488.767" cy="587.247" r="8.41271" stroke-width="0.5" stroke="black" fill="yellow"/>
  <circle cx="488.767" cy="587.247" r="5.05167" stroke-width="0.5" stroke="yellow" fill="yellow"/>
   </g>
   <g id="cell66">
  <circle cx="500.221" cy="411.031" r="8.41271" stroke-width="0.5" stroke="black" fill="blue"/>
  <circle cx="500.221" cy="411.031" r="5.05167" stroke-width="0.5" stroke="blue" fill="blue"/>
   </g>
   <g id="cell67">
  <circle cx="501.751" cy="424.902" r="8.41271" stroke-width="0.5" stroke="black" fill="yellow"/>
  <circle cx="501.751" cy="424.902" r="5.05167" stroke-width="0.5" stroke="yellow" fill="yellow"/>
   </g>
   <g id="cell68">
  <circle cx="501.958" cy="439.936" r="8.41271" stroke-width="0.5" stroke="black" fill="Red"/>
  <circle cx="501.958" cy="439.936" r="5.05167" stroke-width="0.5" stroke="Red" fill="Red"/>
   </g>
   <g id="cell69">
  <circle cx="497.677" cy="452.857" r="8.41271" stroke-width="0.5" stroke="black" fill="Red"/>
  <circle cx="497.677" cy="452.857" r="5.05167" stroke-width="0.5" stroke="Red" fill="Red"/>
   </g>
   <g id="cell70">
  <circle cx="502.835" cy="470.859" r="8.41271" stroke-width="0.5" stroke="black" fill="blue"/>
  <circle cx="502.835" cy="470.859" r="5.05167" stroke-width="0.5" stroke="blue" fill="blue"/>
   </g>
   <g id="cell71">
  <circle cx="501.856" cy="483.545" r="8.41271" stroke-width="0.5" stroke="black" fill="Red"/>
  <circle cx="501.856" cy="483.545" r="5.05167" stroke-width="0.5" stroke="Red" fill="Red"/>
   </g>
   <g id="cell72">
  <circle cx="502.328" cy="496.211" r="8.41271" stroke-width="0.5" stroke="black" fill="Red"/>
  <circle cx="502.328" cy="496.211" r="5.05167" stroke-width="0.5" stroke="Red" fill="Red"/>
   </g>
   <g id="cell73">
  <circle cx="502.47" cy="509.386" r="8.41271" stroke-width="0.5" stroke="black" fill="Red"/>
  <circle cx="502.47" cy="509.386" r="5.05167" stroke-width="0.5" stroke="Red" fill="Red"/>
   </g>
   <g id="cell74">
  <circle cx="502.266" cy="523" r="8.41271" stroke-width="0.5" stroke="black" fill="Red"/>
  <circle cx="502.266" cy="523" r="5.05167" stroke-width="0.5" stroke="Red" fill="Red"/>
   </g>
   <g id="cell75">
  <circle cx="499.673" cy="536.423" r="8.41271" stroke-width="0.5" stroke="black" fill="blue"/>
  <circle cx="499.673" cy="536.423" r="5.05167" stroke-width="0.5" stroke="blue" fill="blue"/>
   </g>
   <g id="cell76">
  <circle cx="500.063" cy="549.447" r="8.41271" stroke-width="0.5" stroke="black" fill="Red"/>
  <circle cx="500.063" cy="549.447" r="5.05167" stroke-width="0.5" stroke="Red" fill="Red"/>
   </g>
   <g id="cell77">
  <circle cx="501.581" cy="569.282" r="6.83713" stroke-width="0.5" stroke="black" fill="blue"/>
  <circle cx="501.581" cy="569.282" r="4.12773" stroke-width="0.5" stroke="blue" fill="blue"/>
   </g>
   <g id="cell78">
  <circle cx="500.703" cy="580.654" r="8.41271" stroke-width="0.5" stroke="black" fill="Red"/>
  <circle cx="500.703" cy="580.654" r="5.05167" stroke-width="0.5" stroke="Red" fill="Red"/>
   </g>
   <g id="cell79">
  <circle cx="501.301" cy="594.765" r="8.41271" stroke-width="0.5" stroke="black" fill="blue"/>
  <circle cx="501.301" cy="594.765" r="5.05167" stroke-width="0.5" stroke="blue" fill="blue"/>
   </g>
   <g id="cell80">
  <circle cx="513.233" cy="417.28" r="8.41271" stroke-width="0.5" stroke="black" fill="yellow"/>
  <circle cx="513.233" cy="417.28" r="5.05167" stroke-width="0.5" stroke="yellow" fill="yellow"/>
   </g>
   <g id="cell81">
  <circle cx="514.093" cy="432.796" r="8.41271" stroke-width="0.5" stroke="black" fill="blue"/>
  <circle cx="514.093" cy="432.796" r="5.05167" stroke-width="0.5" stroke="blue" fill="blue"/>
   </g>
   <g id="cell82">
  <circle cx="513.284" cy="446.237" r="8.41271" stroke-width="0.5" stroke="black" fill="Red"/>
  <circle cx="513.284" cy="446.237" r="5.05167" stroke-width="0.5" stroke="Red" fill="Red"/>
   </g>
   <g id="cell83">
  <circle cx="508.066" cy="459.2" r="8.41271" stroke-width="0.5" stroke="black" fill="Red"/>
  <circle cx="508.066" cy="459.2" r="5.05167" stroke-width="0.5" stroke="Red" fill="Red"/>
   </g>
   <g id="cell84">
  <circle cx="514.511" cy="474.315" r="8.41271" stroke-width="0.5" stroke="black" fill="Red"/>
  <circle cx="514.511" cy="474.315" r="5.05167" stroke-width="0.5" stroke="Red" fill="Red"/>
   </g>
   <g id="cell85">
  <circle cx="514.357" cy="486.269" r="8.41271" stroke-width="0.5" stroke="black" fill="Red"/>
  <circle cx="514.357" cy="486.269" r="5.05167" stroke-width="0.5" stroke="Red" fill="Red"/>
   </g>
   <g id="cell86">
  <circle cx="514.704" cy="498.61" r="8.41271" stroke-width="0.5" stroke="black" fill="Red"/>
  <circle cx="514.704" cy="498.61" r="5.05167" stroke-width="0.5" stroke="Red" fill="Red"/>
   </g>
   <g id="cell87">
  <circle cx="512.821" cy="509.626" r="6.92764" stroke-width="0.5" stroke="black" fill="Red"/>
  <circle cx="512.821" cy="509.626" r="4.1918" stroke-width="0.5" stroke="Red" fill="Red"/>
   </g>
   <g id="cell88">
  <circle cx="512.776" cy="531.695" r="8.41271" stroke-width="0.5" stroke="black" fill="Red"/>
  <circle cx="512.776" cy="531.695" r="5.05167" stroke-width="0.5" stroke="Red" fill="Red"/>
   </g>
   <g id="cell89">
  <circle cx="512.384" cy="545.187" r="8.41271" stroke-width="0.5" stroke="black" fill="Red"/>
  <circle cx="512.384" cy="545.187" r="5.05167" stroke-width="0.5" stroke="Red" fill="Red"/>
   </g>
   <g id="cell90">
  <circle cx="513.021" cy="557.775" r="8.41271" stroke-width="0.5" stroke="black" fill="Red"/>
  <circle cx="513.021" cy="557.775" r="5.05167" stroke-width="0.5" stroke="Red" fill="Red"/>
   </g>
   <g id="cell91">
  <circle cx="513.59" cy="570.638" r="8.41271" stroke-width="0.5" stroke="black" fill="Red"/>
  <circle cx="513.59" cy="570.638" r="5.05167" stroke-width="0.5" stroke="Red" fill="Red"/>
   </g>
   <g id="cell92">
  <circle cx="514.348" cy="584.727" r="8.41271" stroke-width="0.5" stroke="black" fill="yellow"/>
  <circle cx="514.348" cy="584.727" r="5.05167" stroke-width="0.5" stroke="yellow" fill="yellow"/>
   </g>
   <g id="cell93">
  <circle cx="528.353" cy="415.39" r="8.41271" stroke-width="0.5" stroke="black" fill="blue"/>
  <circle cx="528.353" cy="415.39" r="5.05167" stroke-width="0.5" stroke="blue" fill="blue"/>
   </g>
   <g id="cell94">
  <circle cx="533.447" cy="426.263" r="6.95901" stroke-width="0.5" stroke="black" fill="Red"/>
  <circle cx="533.447" cy="426.263" r="4.21341" stroke-width="0.5" stroke="Red" fill="Red"/>
   </g>
   <g id="cell95">
  <circle cx="526.367" cy="438.309" r="8.41271" stroke-width="0.5" stroke="black" fill="Red"/>
  <circle cx="526.367" cy="438.309" r="5.05167" stroke-width="0.5" stroke="Red" fill="Red"/>
   </g>
   <g id="cell96">
  <circle cx="525.8" cy="448.791" r="5.81655" stroke-width="0.5" stroke="black" fill="blue"/>
  <circle cx="525.8" cy="448.791" r="3.53585" stroke-width="0.5" stroke="blue" fill="blue"/>
   </g>
   <g id="cell97">
  <circle cx="520.553" cy="464.379" r="8.41271" stroke-width="0.5" stroke="black" fill="Red"/>
  <circle cx="520.553" cy="464.379" r="5.05167" stroke-width="0.5" stroke="Red" fill="Red"/>
   </g>
   <g id="cell98">
  <circle cx="526.248" cy="487.408" r="6.75639" stroke-width="0.5" stroke="black" fill="Red"/>
  <circle cx="526.248" cy="487.408" r="4.06813" stroke-width="0.5" stroke="Red" fill="Red"/>
   </g>
   <g id="cell99">
  <circle cx="526.406" cy="499.28" r="8.41271" stroke-width="0.5" stroke="black" fill="Red"/>
  <circle cx="526.406" cy="499.28" r="5.05167" stroke-width="0.5" stroke="Red" fill="Red"/>
   </g>
   <g id="cell100">
  <circle cx="523.867" cy="510.976" r="8.41271" stroke-width="0.5" stroke="black" fill="Red"/>
  <circle cx="523.867" cy="510.976" r="5.05167" stroke-width="0.5" stroke="Red" fill="Red"/>
   </g>
   <g id="cell101">
  <circle cx="524.158" cy="523.809" r="8.41271" stroke-width="0.5" stroke="black" fill="Red"/>
  <circle cx="524.158" cy="523.809" r="5.05167" stroke-width="0.5" stroke="Red" fill="Red"/>
   </g>
   <g id="cell102">
  <circle cx="530.435" cy="532.002" r="7.21189" stroke-width="0.5" stroke="black" fill="Red"/>
  <circle cx="530.435" cy="532.002" r="4.37993" stroke-width="0.5" stroke="Red" fill="Red"/>
   </g>
   <g id="cell103">
  <circle cx="527.086" cy="548.831" r="8.41271" stroke-width="0.5" stroke="black" fill="Red"/>
  <circle cx="527.086" cy="548.831" r="5.05167" stroke-width="0.5" stroke="Red" fill="Red"/>
   </g>
   <g id="cell104">
  <circle cx="526.366" cy="562.51" r="8.41271" stroke-width="0.5" stroke="black" fill="Red"/>
  <circle cx="526.366" cy="562.51" r="5.05167" stroke-width="0.5" stroke="Red" fill="Red"/>
   </g>
   <g id="cell105">
  <circle cx="526.062" cy="576.702" r="8.41271" stroke-width="0.5" stroke="black" fill="blue"/>
  <circle cx="526.062" cy="576.702" r="5.05167" stroke-width="0.5" stroke="blue" fill="blue"/>
   </g>
   <g id="cell106">
  <circle cx="544.187" cy="419.044" r="8.41271" stroke-width="0.5" stroke="black" fill="yellow"/>
  <circle cx="544.187" cy="419.044" r="5.05167" stroke-width="0.5" stroke="yellow" fill="yellow"/>
   </g>
   <g id="cell107">
  <circle cx="541.258" cy="434.799" r="8.41271" stroke-width="0.5" stroke="black" fill="yellow"/>
  <circle cx="541.258" cy="434.799" r="5.05167" stroke-width="0.5" stroke="yellow" fill="yellow"/>
   </g>
   <g id="cell108">
  <circle cx="537.306" cy="446.939" r="8.41271" stroke-width="0.5" stroke="black" fill="Red"/>
  <circle cx="537.306" cy="446.939" r="5.05167" stroke-width="0.5" stroke="Red" fill="Red"/>
   </g>
   <g id="cell109">
  <circle cx="541.186" cy="463.032" r="8.41271" stroke-width="0.5" stroke="black" fill="Red"/>
  <circle cx="541.186" cy="463.032" r="5.05167" stroke-width="0.5" stroke="Red" fill="Red"/>
   </g>
   <g id="cell110">
  <circle cx="536.532" cy="477.463" r="8.41271" stroke-width="0.5" stroke="black" fill="Red"/>
  <circle cx="536.532" cy="477.463" r="5.05167" stroke-width="0.5" stroke="Red" fill="Red"/>
   </g>
   <g id="cell111">
  <circle cx="537.817" cy="490.986" r="8.41271" stroke-width="0.5" stroke="black" fill="blue"/>
  <circle cx="537.817" cy="490.986" r="5.05167" stroke-width="0.5" stroke="blue" fill="blue"/>
   </g>
   <g id="cell112">
  <circle cx="538.815" cy="504.56" r="8.41271" stroke-width="0.5" stroke="black" fill="Red"/>
  <circle cx="538.815" cy="504.56" r="5.05167" stroke-width="0.5" stroke="Red" fill="Red"/>
   </g>
   <g id="cell113">
  <circle cx="535.028" cy="516.697" r="8.41271" stroke-width="0.5" stroke="black" fill="blue"/>
  <circle cx="535.028" cy="516.697" r="5.05167" stroke-width="0.5" stroke="blue" fill="blue"/>
   </g>
   <g id="cell114">
  <circle cx="541.84" cy="528.4" r="8.41271" stroke-width="0.5" stroke="black" fill="Red"/>
  <circle cx="541.84" cy="528.4" r="5.05167" stroke-width="0.5" stroke="Red" fill="Red"/>
   </g>
   <g id="cell115">
  <circle cx="538.983" cy="541.85" r="8.41271" stroke-width="0.5" stroke="black" fill="Red"/>
  <circle cx="538.983" cy="541.85" r="5.05167" stroke-width="0.5" stroke="Red" fill="Red"/>
   </g>
   <g id="cell116">
  <circle cx="540.121" cy="555.225" r="8.41271" stroke-width="0.5" stroke="black" fill="Red"/>
  <circle cx="540.121" cy="555.225" r="5.05167" stroke-width="0.5" stroke="Red" fill="Red"/>
   </g>
   <g id="cell117">
  <circle cx="538.691" cy="568.001" r="8.41271" stroke-width="0.5" stroke="black" fill="Red"/>
  <circle cx="538.691" cy="568.001" r="5.05167" stroke-width="0.5" stroke="Red" fill="Red"/>
   </g>
   <g id="cell118">
  <circle cx="556.237" cy="429.731" r="8.41271" stroke-width="0.5" stroke="black" fill="blue"/>
  <circle cx="556.237" cy="429.731" r="5.05167" stroke-width="0.5" stroke="blue" fill="blue"/>
   </g>
   <g id="cell119">
  <circle cx="552.133" cy="443.073" r="8.41271" stroke-width="0.5" stroke="black" fill="yellow"/>
  <circle cx="552.133" cy="443.073" r="5.05167" stroke-width="0.5" stroke="yellow" fill="yellow"/>
   </g>
   <g id="cell120">
  <circle cx="556.302" cy="455.859" r="6.92764" stroke-width="0.5" stroke="black" fill="Red"/>
  <circle cx="556.302" cy="455.859" r="4.1918" stroke-width="0.5" stroke="Red" fill="Red"/>
   </g>
   <g id="cell121">
  <circle cx="554.154" cy="468.381" r="8.41271" stroke-width="0.5" stroke="black" fill="Red"/>
  <circle cx="554.154" cy="468.381" r="5.05167" stroke-width="0.5" stroke="Red" fill="Red"/>
   </g>
   <g id="cell122">
  <circle cx="550.015" cy="481.048" r="8.41271" stroke-width="0.5" stroke="black" fill="Red"/>
  <circle cx="550.015" cy="481.048" r="5.05167" stroke-width="0.5" stroke="Red" fill="Red"/>
   </g>
   <g id="cell123">
  <circle cx="550.366" cy="494.596" r="8.41271" stroke-width="0.5" stroke="black" fill="Red"/>
  <circle cx="550.366" cy="494.596" r="5.05167" stroke-width="0.5" stroke="Red" fill="Red"/>
   </g>
   <g id="cell124">
  <circle cx="551.619" cy="507.894" r="8.41271" stroke-width="0.5" stroke="black" fill="Red"/>
  <circle cx="551.619" cy="507.894" r="5.05167" stroke-width="0.5" stroke="Red" fill="Red"/>
   </g>
   <g id="cell125">
  <circle cx="548.125" cy="518.356" r="6.95901" stroke-width="0.5" stroke="black" fill="Red"/>
  <circle cx="548.125" cy="518.356" r="4.21341" stroke-width="0.5" stroke="Red" fill="Red"/>
   </g>
   <g id="cell126">
  <circle cx="552.119" cy="535.166" r="8.41271" stroke-width="0.5" stroke="black" fill="Red"/>
  <circle cx="552.119" cy="535.166" r="5.05167" stroke-width="0.5" stroke="Red" fill="Red"/>
   </g>
   <g id="cell127">
  <circle cx="552.13" cy="549.44" r="8.41271" stroke-width="0.5" stroke="black" fill="Red"/>
  <circle cx="552.13" cy="549.44" r="5.05167" stroke-width="0.5" stroke="Red" fill="Red"/>
   </g>
   <g id="cell128">
  <circle cx="551.546" cy="563.365" r="8.41271" stroke-width="0.5" stroke="black" fill="Red"/>
  <circle cx="551.546" cy="563.365" r="5.05167" stroke-width="0.5" stroke="Red" fill="Red"/>
   </g>
   <g id="cell129">
  <circle cx="577.211" cy="453.648" r="6.89675" stroke-width="0.5" stroke="black" fill="blue"/>
  <circle cx="577.211" cy="453.648" r="4.17024" stroke-width="0.5" stroke="blue" fill="blue"/>
   </g>
   <g id="cell130">
  <circle cx="567.78" cy="461.129" r="8.41271" stroke-width="0.5" stroke="black" fill="Red"/>
  <circle cx="567.78" cy="461.129" r="5.05167" stroke-width="0.5" stroke="Red" fill="Red"/>
   </g>
   <g id="cell131">
  <circle cx="565.766" cy="474.129" r="8.41271" stroke-width="0.5" stroke="black" fill="Red"/>
  <circle cx="565.766" cy="474.129" r="5.05167" stroke-width="0.5" stroke="Red" fill="Red"/>
   </g>
   <g id="cell132">
  <circle cx="562.499" cy="486.043" r="8.41271" stroke-width="0.5" stroke="black" fill="Red"/>
  <circle cx="562.499" cy="486.043" r="5.05167" stroke-width="0.5" stroke="Red" fill="Red"/>
   </g>
   <g id="cell133">
  <circle cx="562.081" cy="500.572" r="8.41271" stroke-width="0.5" stroke="black" fill="blue"/>
  <circle cx="562.081" cy="500.572" r="5.05167" stroke-width="0.5" stroke="blue" fill="blue"/>
   </g>
   <g id="cell134">
  <circle cx="562.889" cy="514.704" r="8.41271" stroke-width="0.5" stroke="black" fill="Red"/>
  <circle cx="562.889" cy="514.704" r="5.05167" stroke-width="0.5" stroke="Red" fill="Red"/>
   </g>
   <g id="cell135">
  <circle cx="566.989" cy="529.721" r="8.41271" stroke-width="0.5" stroke="black" fill="yellow"/>
  <circle cx="566.989" cy="529.721" r="5.05167" stroke-width="0.5" stroke="yellow" fill="yellow"/>
   </g>
   <g id="cell136">
  <circle cx="562.896" cy="542.21" r="8.41271" stroke-width="0.5" stroke="black" fill="Red"/>
  <circle cx="562.896" cy="542.21" r="5.05167" stroke-width="0.5" stroke="Red" fill="Red"/>
   </g>
   <g id="cell137">
  <circle cx="565.112" cy="555.783" r="8.41271" stroke-width="0.5" stroke="black" fill="blue"/>
  <circle cx="565.112" cy="555.783" r="5.05167" stroke-width="0.5" stroke="blue" fill="blue"/>
   </g>
   <g id="cell138">
  <circle cx="579.379" cy="469.183" r="8.41271" stroke-width="0.5" stroke="black" fill="Red"/>
  <circle cx="579.379" cy="469.183" r="5.05167" stroke-width="0.5" stroke="Red" fill="Red"/>
   </g>
   <g id="cell139">
  <circle cx="579.065" cy="482.303" r="8.41271" stroke-width="0.5" stroke="black" fill="yellow"/>
  <circle cx="579.065" cy="482.303" r="5.05167" stroke-width="0.5" stroke="yellow" fill="yellow"/>
   </g>
   <g id="cell140">
  <circle cx="573.358" cy="493.543" r="7.33129" stroke-width="0.5" stroke="black" fill="yellow"/>
  <circle cx="573.358" cy="493.543" r="4.45516" stroke-width="0.5" stroke="yellow" fill="yellow"/>
   </g>
   <g id="cell141">
  <circle cx="575.137" cy="507.103" r="8.41271" stroke-width="0.5" stroke="black" fill="yellow"/>
  <circle cx="575.137" cy="507.103" r="5.05167" stroke-width="0.5" stroke="yellow" fill="yellow"/>
   </g>
   <g id="cell142">
  <circle cx="574.997" cy="520.253" r="6.73287" stroke-width="0.5" stroke="black" fill="blue"/>
  <circle cx="574.997" cy="520.253" r="4.05039" stroke-width="0.5" stroke="blue" fill="blue"/>
   </g>
   <g id="cell143">
  <circle cx="575.827" cy="541.156" r="8.41271" stroke-width="0.5" stroke="black" fill="blue"/>
  <circle cx="575.827" cy="541.156" r="5.05167" stroke-width="0.5" stroke="blue" fill="blue"/>
   </g>
   <g id="cell144">
  <circle cx="435.796" cy="436.748" r="7.33129" stroke-width="0.5" stroke="black" fill="Red"/>
  <circle cx="435.796" cy="436.748" r="4.45516" stroke-width="0.5" stroke="Red" fill="Red"/>
   </g>
   <g id="cell145">
  <circle cx="584.005" cy="498.186" r="7.33129" stroke-width="0.5" stroke="black" fill="blue"/>
  <circle cx="584.005" cy="498.186" r="4.45516" stroke-width="0.5" stroke="blue" fill="blue"/>
   </g>
   <g id="cell146">
  <circle cx="481.461" cy="510.258" r="5.86934" stroke-width="0.5" stroke="black" fill="blue"/>
  <circle cx="481.461" cy="510.258" r="3.57365" stroke-width="0.5" stroke="blue" fill="blue"/>
   </g>
   <g id="cell147">
  <circle cx="530.449" cy="457.629" r="6.47988" stroke-width="0.5" stroke="black" fill="Red"/>
  <circle cx="530.449" cy="457.629" r="3.97702" stroke-width="0.5" stroke="Red" fill="Red"/>
   </g>
   <g id="cell148">
  <circle cx="522.799" cy="538.317" r="7.21189" stroke-width="0.5" stroke="black" fill="blue"/>
  <circle cx="522.799" cy="538.317" r="4.37993" stroke-width="0.5" stroke="blue" fill="blue"/>
   </g>
   <g id="cell149">
  <circle cx="530.182" cy="467.875" r="6.47988" stroke-width="0.5" stroke="black" fill="blue"/>
  <circle cx="530.182" cy="467.875" r="3.97702" stroke-width="0.5" stroke="blue" fill="blue"/>
   </g>
   <g id="cell150">
  <circle cx="443.283" cy="514.412" r="7.0545" stroke-width="0.5" stroke="black" fill="Red"/>
  <circle cx="443.283" cy="514.412" r="4.27772" stroke-width="0.5" stroke="Red" fill="Red"/>
   </g>
   <g id="cell151">
  <circle cx="448.713" cy="418.431" r="7.0545" stroke-width="0.5" stroke="black" fill="blue"/>
  <circle cx="448.713" cy="418.431" r="4.27772" stroke-width="0.5" stroke="blue" fill="blue"/>
   </g>
   <g id="cell152">
  <circle cx="486.628" cy="458.79" r="6.99069" stroke-width="0.5" stroke="black" fill="Red"/>
  <circle cx="486.628" cy="458.79" r="4.23498" stroke-width="0.5" stroke="Red" fill="Red"/>
   </g>
   <g id="cell153">
  <circle cx="522.867" cy="425.719" r="6.95901" stroke-width="0.5" stroke="black" fill="Red"/>
  <circle cx="522.867" cy="425.719" r="4.21341" stroke-width="0.5" stroke="Red" fill="Red"/>
   </g>
   <g id="cell154">
  <circle cx="556.207" cy="524.805" r="6.95901" stroke-width="0.5" stroke="black" fill="blue"/>
  <circle cx="556.207" cy="524.805" r="4.21341" stroke-width="0.5" stroke="blue" fill="blue"/>
   </g>
   <g id="cell155">
  <circle cx="444.434" cy="428.487" r="5.98931" stroke-width="0.5" stroke="black" fill="Red"/>
  <circle cx="444.434" cy="428.487" r="3.66601" stroke-width="0.5" stroke="Red" fill="Red"/>
   </g>
   <g id="cell156">
  <circle cx="513.911" cy="519.335" r="6.92764" stroke-width="0.5" stroke="black" fill="blue"/>
  <circle cx="513.911" cy="519.335" r="4.1918" stroke-width="0.5" stroke="blue" fill="blue"/>
   </g>
   <g id="cell157">
  <circle cx="546.782" cy="453.436" r="6.92764" stroke-width="0.5" stroke="black" fill="blue"/>
  <circle cx="546.782" cy="453.436" r="4.1918" stroke-width="0.5" stroke="blue" fill="blue"/>
   </g>
   <g id="cell158">
  <circle cx="566.016" cy="447.888" r="6.89675" stroke-width="0.5" stroke="black" fill="Red"/>
  <circle cx="566.016" cy="447.888" r="4.17024" stroke-width="0.5" stroke="Red" fill="Red"/>
   </g>
   <g id="cell159">
  <circle cx="472.958" cy="527.68" r="6.86652" stroke-width="0.5" stroke="black" fill="blue"/>
  <circle cx="472.958" cy="527.68" r="4.14883" stroke-width="0.5" stroke="blue" fill="blue"/>
   </g>
   <g id="cell160">
  <circle cx="502.681" cy="560.39" r="6.83713" stroke-width="0.5" stroke="black" fill="blue"/>
  <circle cx="502.681" cy="560.39" r="4.12773" stroke-width="0.5" stroke="blue" fill="blue"/>
   </g>
   <g id="cell161">
  <circle cx="525.251" cy="477.407" r="6.75639" stroke-width="0.5" stroke="black" fill="Red"/>
  <circle cx="525.251" cy="477.407" r="4.06813" stroke-width="0.5" stroke="Red" fill="Red"/>
   </g>
   <g id="cell162">
  <circle cx="579.933" cy="529.61" r="6.73287" stroke-width="0.5" stroke="black" fill="Red"/>
  <circle cx="579.933" cy="529.61" r="4.05039" stroke-width="0.5" stroke="Red" fill="Red"/>
   </g>
   <g id="cell163">
  <circle cx="474.845" cy="516.934" r="5.86934" stroke-width="0.5" stroke="black" fill="Red"/>
  <circle cx="474.845" cy="516.934" r="3.57365" stroke-width="0.5" stroke="Red" fill="Red"/>
   </g>
   <g id="cell164">
  <circle cx="431.239" cy="498.619" r="6.73287" stroke-width="0.5" stroke="black" fill="blue"/>
  <circle cx="431.239" cy="498.619" r="4.05039" stroke-width="0.5" stroke="blue" fill="blue"/>
   </g>
   <g id="cell165">
  <circle cx="468.389" cy="442.143" r="6.69288" stroke-width="0.5" stroke="black" fill="blue"/>
  <circle cx="468.389" cy="442.143" r="4.02051" stroke-width="0.5" stroke="blue" fill="blue"/>
   </g>
   <g id="cell166">
  <circle cx="490.883" cy="443.574" r="6.69288" stroke-width="0.5" stroke="black" fill="Red"/>
  <circle cx="490.883" cy="443.574" r="4.02051" stroke-width="0.5" stroke="Red" fill="Red"/>
   </g>
   <g id="cell167">
  <circle cx="519.64" cy="454.361" r="5.81655" stroke-width="0.5" stroke="black" fill="blue"/>
  <circle cx="519.64" cy="454.361" r="3.53585" stroke-width="0.5" stroke="blue" fill="blue"/>
   </g>
   <g id="cell168">
  <circle cx="428.936" cy="523.88" r="6.67717" stroke-width="0.5" stroke="black" fill="Red"/>
  <circle cx="428.936" cy="523.88" r="4.00951" stroke-width="0.5" stroke="Red" fill="Red"/>
   </g>
  </g>
 </g>
  <rect x="775" y="1035" width="200" height="10" stroke-width="2" stroke="rgb(255,255,255)" fill="rgb(0,0,0)"/>
  <text x="781.25" y="1028.75"
   font-family="Arial" font-size="25" fill="black" >
   200 &#956;m
  </text>
  <text x="25" y="1045"
   font-family="Arial" font-size="18.75" fill="black" >
   0 days, 0 hours, 0 minutes, and 51.9826 seconds
  </text>
  <rect x="0" y="70" width="1000" height="1000" stroke-width="2" stroke="rgb(0,0,0)" fill="none"/>
</svg>
