<?xml version="1.0" encoding="UTF-8" standalone="no"?>
<!-- Created with PhysiCell (http://PhysiCell.MathCancer.org/) -->
<svg 
 xmlns:dc="http://purl.org/dc/elements/1.1/" 
 xmlns:cc="http://creativecommons.org/ns#" 
 xmlns:rdf="http://www.w3.org/1999/02/22-rdf-syntax-ns#" 
 xmlns:svg="http://www.w3.org/2000/svg" 
 xmlns="http://www.w3.org/2000/svg" 
 version="1.1" 
 width="1000" 
 height="1070" 
 id="svg2">
  <rect x="0" y="0" width="1000" height="1070" stroke-width="2" stroke="white" fill="white"/>
  <text x="12.5" y="30"
   font-family="Arial" font-size="25" fill="black" >
   Current time: 0 days, 8 hours, and 5.00 minutes, z = 0.00 &#956;m
  </text>
  <text x="12.5" y="57.5"
   font-family="Arial" font-size="23.75" fill="black" >
   222 agents
  </text>
 <g id="tissue" 
    transform="translate(0,1070) scale(1,-1)">
  <g id="ECM">
  </g>
  <g id="cells">
   <g id="cell0">
  <circle cx="422.236" cy="439.699" r="8.41271" stroke-width="0.5" stroke="black" fill="Red"/>
  <circle cx="422.236" cy="439.699" r="5.05167" stroke-width="0.5" stroke="Red" fill="Red"/>
   </g>
   <g id="cell1">
  <circle cx="419.027" cy="466.958" r="7.9229" stroke-width="0.5" stroke="black" fill="yellow"/>
  <circle cx="419.027" cy="466.958" r="4.80599" stroke-width="0.5" stroke="yellow" fill="yellow"/>
   </g>
   <g id="cell2">
  <circle cx="416.012" cy="480.495" r="8.41271" stroke-width="0.5" stroke="black" fill="Red"/>
  <circle cx="416.012" cy="480.495" r="5.05167" stroke-width="0.5" stroke="Red" fill="Red"/>
   </g>
   <g id="cell3">
  <circle cx="412.244" cy="493.831" r="8.01277" stroke-width="0.5" stroke="black" fill="blue"/>
  <circle cx="412.244" cy="493.831" r="4.85584" stroke-width="0.5" stroke="blue" fill="blue"/>
   </g>
   <g id="cell4">
  <circle cx="418.455" cy="507.438" r="8.41271" stroke-width="0.5" stroke="black" fill="yellow"/>
  <circle cx="418.455" cy="507.438" r="5.05167" stroke-width="0.5" stroke="yellow" fill="yellow"/>
   </g>
   <g id="cell5">
  <circle cx="408.027" cy="530.14" r="6.91843" stroke-width="0.5" stroke="black" fill="yellow"/>
  <circle cx="408.027" cy="530.14" r="4.23353" stroke-width="0.5" stroke="yellow" fill="yellow"/>
   </g>
   <g id="cell6">
  <circle cx="423.202" cy="546.954" r="8.41271" stroke-width="0.5" stroke="black" fill="Red"/>
  <circle cx="423.202" cy="546.954" r="5.05167" stroke-width="0.5" stroke="Red" fill="Red"/>
   </g>
   <g id="cell7">
  <circle cx="433.096" cy="446.2" r="8.18833" stroke-width="0.5" stroke="black" fill="yellow"/>
  <circle cx="433.096" cy="446.2" r="4.94921" stroke-width="0.5" stroke="yellow" fill="yellow"/>
   </g>
   <g id="cell8">
  <circle cx="422.047" cy="453.437" r="8.41271" stroke-width="0.5" stroke="black" fill="yellow"/>
  <circle cx="422.047" cy="453.437" r="5.05167" stroke-width="0.5" stroke="yellow" fill="yellow"/>
   </g>
   <g id="cell9">
  <circle cx="429.723" cy="472.094" r="8.41271" stroke-width="0.5" stroke="black" fill="Red"/>
  <circle cx="429.723" cy="472.094" r="5.05167" stroke-width="0.5" stroke="Red" fill="Red"/>
   </g>
   <g id="cell10">
  <circle cx="428.909" cy="485.12" r="8.41271" stroke-width="0.5" stroke="black" fill="Red"/>
  <circle cx="428.909" cy="485.12" r="5.05167" stroke-width="0.5" stroke="Red" fill="Red"/>
   </g>
   <g id="cell11">
  <circle cx="433.132" cy="503.563" r="8.41271" stroke-width="0.5" stroke="black" fill="Red"/>
  <circle cx="433.132" cy="503.563" r="5.05167" stroke-width="0.5" stroke="Red" fill="Red"/>
   </g>
   <g id="cell12">
  <circle cx="428.119" cy="516.191" r="8.1218" stroke-width="0.5" stroke="black" fill="Red"/>
  <circle cx="428.119" cy="516.191" r="4.91457" stroke-width="0.5" stroke="Red" fill="Red"/>
   </g>
   <g id="cell13">
  <circle cx="434.961" cy="539.397" r="8.41271" stroke-width="0.5" stroke="black" fill="Red"/>
  <circle cx="434.961" cy="539.397" r="5.05167" stroke-width="0.5" stroke="Red" fill="Red"/>
   </g>
   <g id="cell14">
  <circle cx="435.734" cy="553.688" r="8.41271" stroke-width="0.5" stroke="black" fill="Red"/>
  <circle cx="435.734" cy="553.688" r="5.05167" stroke-width="0.5" stroke="Red" fill="Red"/>
   </g>
   <g id="cell15">
  <circle cx="438.262" cy="567.492" r="8.41271" stroke-width="0.5" stroke="black" fill="blue"/>
  <circle cx="438.262" cy="567.492" r="5.05167" stroke-width="0.5" stroke="blue" fill="blue"/>
   </g>
   <g id="cell16">
  <circle cx="443.703" cy="425.779" r="6.58186" stroke-width="0.5" stroke="black" fill="yellow"/>
  <circle cx="443.703" cy="425.779" r="4.0262" stroke-width="0.5" stroke="yellow" fill="yellow"/>
   </g>
   <g id="cell17">
  <circle cx="445.743" cy="445.192" r="7.7401" stroke-width="0.5" stroke="black" fill="blue"/>
  <circle cx="445.743" cy="445.192" r="4.70142" stroke-width="0.5" stroke="blue" fill="blue"/>
   </g>
   <g id="cell18">
  <circle cx="441.166" cy="455.699" r="6.95901" stroke-width="0.5" stroke="black" fill="Red"/>
  <circle cx="441.166" cy="455.699" r="4.21341" stroke-width="0.5" stroke="Red" fill="Red"/>
   </g>
   <g id="cell19">
  <circle cx="442.305" cy="467.543" r="8.41271" stroke-width="0.5" stroke="black" fill="Red"/>
  <circle cx="442.305" cy="467.543" r="5.05167" stroke-width="0.5" stroke="Red" fill="Red"/>
   </g>
   <g id="cell20">
  <circle cx="451.48" cy="481.819" r="7.0545" stroke-width="0.5" stroke="black" fill="Red"/>
  <circle cx="451.48" cy="481.819" r="4.27772" stroke-width="0.5" stroke="Red" fill="Red"/>
   </g>
   <g id="cell21">
  <circle cx="440.39" cy="492.464" r="8.41271" stroke-width="0.5" stroke="black" fill="Red"/>
  <circle cx="440.39" cy="492.464" r="5.05167" stroke-width="0.5" stroke="Red" fill="Red"/>
   </g>
   <g id="cell22">
  <circle cx="446.941" cy="504.184" r="8.41271" stroke-width="0.5" stroke="black" fill="Red"/>
  <circle cx="446.941" cy="504.184" r="5.05167" stroke-width="0.5" stroke="Red" fill="Red"/>
   </g>
   <g id="cell23">
  <circle cx="439.034" cy="527.479" r="8.41271" stroke-width="0.5" stroke="black" fill="Red"/>
  <circle cx="439.034" cy="527.479" r="5.05167" stroke-width="0.5" stroke="Red" fill="Red"/>
   </g>
   <g id="cell24">
  <circle cx="445.561" cy="545.779" r="8.41271" stroke-width="0.5" stroke="black" fill="Red"/>
  <circle cx="445.561" cy="545.779" r="5.05167" stroke-width="0.5" stroke="Red" fill="Red"/>
   </g>
   <g id="cell25">
  <circle cx="448.867" cy="557.941" r="8.41271" stroke-width="0.5" stroke="black" fill="Red"/>
  <circle cx="448.867" cy="557.941" r="5.05167" stroke-width="0.5" stroke="Red" fill="Red"/>
   </g>
   <g id="cell26">
  <circle cx="438.741" cy="579.522" r="7.33129" stroke-width="0.5" stroke="black" fill="Red"/>
  <circle cx="438.741" cy="579.522" r="4.45516" stroke-width="0.5" stroke="Red" fill="Red"/>
   </g>
   <g id="cell27">
  <circle cx="466.158" cy="401.108" r="8.41271" stroke-width="0.5" stroke="black" fill="blue"/>
  <circle cx="466.158" cy="401.108" r="5.05167" stroke-width="0.5" stroke="blue" fill="blue"/>
   </g>
   <g id="cell28">
  <circle cx="465.867" cy="418.036" r="7.24243" stroke-width="0.5" stroke="black" fill="Red"/>
  <circle cx="465.867" cy="418.036" r="4.39934" stroke-width="0.5" stroke="Red" fill="Red"/>
   </g>
   <g id="cell29">
  <circle cx="458.011" cy="445.202" r="7.98892" stroke-width="0.5" stroke="black" fill="Red"/>
  <circle cx="458.011" cy="445.202" r="4.84272" stroke-width="0.5" stroke="Red" fill="Red"/>
   </g>
   <g id="cell30">
  <circle cx="452.987" cy="457.705" r="8.41271" stroke-width="0.5" stroke="black" fill="Red"/>
  <circle cx="452.987" cy="457.705" r="5.05167" stroke-width="0.5" stroke="Red" fill="Red"/>
   </g>
   <g id="cell31">
  <circle cx="454.777" cy="471.107" r="8.41271" stroke-width="0.5" stroke="black" fill="Red"/>
  <circle cx="454.777" cy="471.107" r="5.05167" stroke-width="0.5" stroke="Red" fill="Red"/>
   </g>
   <g id="cell32">
  <circle cx="463.605" cy="487.778" r="8.41271" stroke-width="0.5" stroke="black" fill="blue"/>
  <circle cx="463.605" cy="487.778" r="5.05167" stroke-width="0.5" stroke="blue" fill="blue"/>
   </g>
   <g id="cell33">
  <circle cx="454.165" cy="493.071" r="8.41271" stroke-width="0.5" stroke="black" fill="Red"/>
  <circle cx="454.165" cy="493.071" r="5.05167" stroke-width="0.5" stroke="Red" fill="Red"/>
   </g>
   <g id="cell34">
  <circle cx="449.829" cy="521.503" r="6.89042" stroke-width="0.5" stroke="black" fill="Red"/>
  <circle cx="449.829" cy="521.503" r="4.22719" stroke-width="0.5" stroke="Red" fill="Red"/>
   </g>
   <g id="cell35">
  <circle cx="455.523" cy="545.325" r="6.76246" stroke-width="0.5" stroke="black" fill="blue"/>
  <circle cx="455.523" cy="545.325" r="4.14531" stroke-width="0.5" stroke="blue" fill="blue"/>
   </g>
   <g id="cell36">
  <circle cx="461.329" cy="553.595" r="8.41271" stroke-width="0.5" stroke="black" fill="Red"/>
  <circle cx="461.329" cy="553.595" r="5.05167" stroke-width="0.5" stroke="Red" fill="Red"/>
   </g>
   <g id="cell37">
  <circle cx="461.235" cy="566.698" r="8.41271" stroke-width="0.5" stroke="black" fill="blue"/>
  <circle cx="461.235" cy="566.698" r="5.05167" stroke-width="0.5" stroke="blue" fill="blue"/>
   </g>
   <g id="cell38">
  <circle cx="460.475" cy="579.88" r="8.41271" stroke-width="0.5" stroke="black" fill="Red"/>
  <circle cx="460.475" cy="579.88" r="5.05167" stroke-width="0.5" stroke="Red" fill="Red"/>
   </g>
   <g id="cell39">
  <circle cx="463.282" cy="592.466" r="7.89373" stroke-width="0.5" stroke="black" fill="blue"/>
  <circle cx="463.282" cy="592.466" r="4.78957" stroke-width="0.5" stroke="blue" fill="blue"/>
   </g>
   <g id="cell40">
  <circle cx="481.125" cy="396.881" r="8.41271" stroke-width="0.5" stroke="black" fill="yellow"/>
  <circle cx="481.125" cy="396.881" r="5.05167" stroke-width="0.5" stroke="yellow" fill="yellow"/>
   </g>
   <g id="cell41">
  <circle cx="476.199" cy="409.969" r="8.41271" stroke-width="0.5" stroke="black" fill="Red"/>
  <circle cx="476.199" cy="409.969" r="5.05167" stroke-width="0.5" stroke="Red" fill="Red"/>
   </g>
   <g id="cell42">
  <circle cx="478.966" cy="434.214" r="7.63698" stroke-width="0.5" stroke="black" fill="Red"/>
  <circle cx="478.966" cy="434.214" r="4.64085" stroke-width="0.5" stroke="Red" fill="Red"/>
   </g>
   <g id="cell43">
  <circle cx="468.903" cy="453.705" r="8.41271" stroke-width="0.5" stroke="black" fill="Red"/>
  <circle cx="468.903" cy="453.705" r="5.05167" stroke-width="0.5" stroke="Red" fill="Red"/>
   </g>
   <g id="cell44">
  <circle cx="473.222" cy="469.989" r="7.1497" stroke-width="0.5" stroke="black" fill="Red"/>
  <circle cx="473.222" cy="469.989" r="4.34001" stroke-width="0.5" stroke="Red" fill="Red"/>
   </g>
   <g id="cell45">
  <circle cx="464.383" cy="477.963" r="8.41271" stroke-width="0.5" stroke="black" fill="Red"/>
  <circle cx="464.383" cy="477.963" r="5.05167" stroke-width="0.5" stroke="Red" fill="Red"/>
   </g>
   <g id="cell46">
  <circle cx="472.389" cy="494.24" r="8.41271" stroke-width="0.5" stroke="black" fill="Red"/>
  <circle cx="472.389" cy="494.24" r="5.05167" stroke-width="0.5" stroke="Red" fill="Red"/>
   </g>
   <g id="cell47">
  <circle cx="461.5" cy="502.152" r="8.18177" stroke-width="0.5" stroke="black" fill="Red"/>
  <circle cx="461.5" cy="502.152" r="4.94584" stroke-width="0.5" stroke="Red" fill="Red"/>
   </g>
   <g id="cell48">
  <circle cx="474.964" cy="518.967" r="8.06667" stroke-width="0.5" stroke="black" fill="blue"/>
  <circle cx="474.964" cy="518.967" r="4.88515" stroke-width="0.5" stroke="blue" fill="blue"/>
   </g>
   <g id="cell49">
  <circle cx="468.019" cy="544.252" r="7.02257" stroke-width="0.5" stroke="black" fill="Red"/>
  <circle cx="468.019" cy="544.252" r="4.25644" stroke-width="0.5" stroke="Red" fill="Red"/>
   </g>
   <g id="cell50">
  <circle cx="472.911" cy="563.419" r="7.67987" stroke-width="0.5" stroke="black" fill="Red"/>
  <circle cx="472.911" cy="563.419" r="4.66617" stroke-width="0.5" stroke="Red" fill="Red"/>
   </g>
   <g id="cell51">
  <circle cx="471.809" cy="575.642" r="8.41271" stroke-width="0.5" stroke="black" fill="Red"/>
  <circle cx="471.809" cy="575.642" r="5.05167" stroke-width="0.5" stroke="Red" fill="Red"/>
   </g>
   <g id="cell52">
  <circle cx="481.207" cy="583.619" r="6.86652" stroke-width="0.5" stroke="black" fill="Red"/>
  <circle cx="481.207" cy="583.619" r="4.14883" stroke-width="0.5" stroke="Red" fill="Red"/>
   </g>
   <g id="cell53">
  <circle cx="489.689" cy="407.374" r="7.02257" stroke-width="0.5" stroke="black" fill="yellow"/>
  <circle cx="489.689" cy="407.374" r="4.25644" stroke-width="0.5" stroke="yellow" fill="yellow"/>
   </g>
   <g id="cell54">
  <circle cx="475.095" cy="424.084" r="8.41271" stroke-width="0.5" stroke="black" fill="Red"/>
  <circle cx="475.095" cy="424.084" r="5.05167" stroke-width="0.5" stroke="Red" fill="Red"/>
   </g>
   <g id="cell55">
  <circle cx="479.839" cy="446.419" r="7.98892" stroke-width="0.5" stroke="black" fill="Red"/>
  <circle cx="479.839" cy="446.419" r="4.84272" stroke-width="0.5" stroke="Red" fill="Red"/>
   </g>
   <g id="cell56">
  <circle cx="488.584" cy="453.559" r="8.10448" stroke-width="0.5" stroke="black" fill="Red"/>
  <circle cx="488.584" cy="453.559" r="4.90539" stroke-width="0.5" stroke="Red" fill="Red"/>
   </g>
   <g id="cell57">
  <circle cx="485.426" cy="471.17" r="8.41271" stroke-width="0.5" stroke="black" fill="Red"/>
  <circle cx="485.426" cy="471.17" r="5.05167" stroke-width="0.5" stroke="Red" fill="Red"/>
   </g>
   <g id="cell58">
  <circle cx="476.853" cy="481.751" r="8.41271" stroke-width="0.5" stroke="black" fill="blue"/>
  <circle cx="476.853" cy="481.751" r="5.05167" stroke-width="0.5" stroke="blue" fill="blue"/>
   </g>
   <g id="cell59">
  <circle cx="484.324" cy="494.895" r="7.70049" stroke-width="0.5" stroke="black" fill="Red"/>
  <circle cx="484.324" cy="494.895" r="4.67828" stroke-width="0.5" stroke="Red" fill="Red"/>
   </g>
   <g id="cell60">
  <circle cx="487.458" cy="517.092" r="8.41271" stroke-width="0.5" stroke="black" fill="Red"/>
  <circle cx="487.458" cy="517.092" r="5.05167" stroke-width="0.5" stroke="Red" fill="Red"/>
   </g>
   <g id="cell61">
  <circle cx="482.082" cy="529.261" r="8.41271" stroke-width="0.5" stroke="black" fill="Red"/>
  <circle cx="482.082" cy="529.261" r="5.05167" stroke-width="0.5" stroke="Red" fill="Red"/>
   </g>
   <g id="cell62">
  <circle cx="485.177" cy="551.106" r="8.41271" stroke-width="0.5" stroke="black" fill="Red"/>
  <circle cx="485.177" cy="551.106" r="5.05167" stroke-width="0.5" stroke="Red" fill="Red"/>
   </g>
   <g id="cell63">
  <circle cx="491.748" cy="563.967" r="6.78181" stroke-width="0.5" stroke="black" fill="Red"/>
  <circle cx="491.748" cy="563.967" r="4.08714" stroke-width="0.5" stroke="Red" fill="Red"/>
   </g>
   <g id="cell64">
  <circle cx="491.007" cy="581.949" r="7.02257" stroke-width="0.5" stroke="black" fill="blue"/>
  <circle cx="491.007" cy="581.949" r="4.25644" stroke-width="0.5" stroke="blue" fill="blue"/>
   </g>
   <g id="cell65">
  <circle cx="478.039" cy="595.469" r="7.56839" stroke-width="0.5" stroke="black" fill="Red"/>
  <circle cx="478.039" cy="595.469" r="4.59998" stroke-width="0.5" stroke="Red" fill="Red"/>
   </g>
   <g id="cell66">
  <circle cx="504.301" cy="405.566" r="8.41271" stroke-width="0.5" stroke="black" fill="Red"/>
  <circle cx="504.301" cy="405.566" r="5.05167" stroke-width="0.5" stroke="Red" fill="Red"/>
   </g>
   <g id="cell67">
  <circle cx="486.735" cy="419.228" r="8.41271" stroke-width="0.5" stroke="black" fill="Red"/>
  <circle cx="486.735" cy="419.228" r="5.05167" stroke-width="0.5" stroke="Red" fill="Red"/>
   </g>
   <g id="cell68">
  <circle cx="499.557" cy="425.089" r="6.71158" stroke-width="0.5" stroke="black" fill="Red"/>
  <circle cx="499.557" cy="425.089" r="4.03435" stroke-width="0.5" stroke="Red" fill="Red"/>
   </g>
   <g id="cell69">
  <circle cx="498.555" cy="445.843" r="7.1497" stroke-width="0.5" stroke="black" fill="Red"/>
  <circle cx="498.555" cy="445.843" r="4.34001" stroke-width="0.5" stroke="Red" fill="Red"/>
   </g>
   <g id="cell70">
  <circle cx="494.646" cy="462.86" r="8.41271" stroke-width="0.5" stroke="black" fill="blue"/>
  <circle cx="494.646" cy="462.86" r="5.05167" stroke-width="0.5" stroke="blue" fill="blue"/>
   </g>
   <g id="cell71">
  <circle cx="490.021" cy="484.294" r="8.41271" stroke-width="0.5" stroke="black" fill="Red"/>
  <circle cx="490.021" cy="484.294" r="5.05167" stroke-width="0.5" stroke="Red" fill="Red"/>
   </g>
   <g id="cell72">
  <circle cx="496.97" cy="495.196" r="8.41271" stroke-width="0.5" stroke="black" fill="Red"/>
  <circle cx="496.97" cy="495.196" r="5.05167" stroke-width="0.5" stroke="Red" fill="Red"/>
   </g>
   <g id="cell73">
  <circle cx="498.622" cy="513.919" r="8.41271" stroke-width="0.5" stroke="black" fill="Red"/>
  <circle cx="498.622" cy="513.919" r="5.05167" stroke-width="0.5" stroke="Red" fill="Red"/>
   </g>
   <g id="cell74">
  <circle cx="495.752" cy="528.063" r="8.41271" stroke-width="0.5" stroke="black" fill="Red"/>
  <circle cx="495.752" cy="528.063" r="5.05167" stroke-width="0.5" stroke="Red" fill="Red"/>
   </g>
   <g id="cell75">
  <circle cx="489.965" cy="539.869" r="8.41271" stroke-width="0.5" stroke="black" fill="Red"/>
  <circle cx="489.965" cy="539.869" r="5.05167" stroke-width="0.5" stroke="Red" fill="Red"/>
   </g>
   <g id="cell76">
  <circle cx="498.955" cy="545.118" r="7.08639" stroke-width="0.5" stroke="black" fill="Red"/>
  <circle cx="498.955" cy="545.118" r="4.29876" stroke-width="0.5" stroke="Red" fill="Red"/>
   </g>
   <g id="cell77">
  <circle cx="497.965" cy="571.922" r="8.05651" stroke-width="0.5" stroke="black" fill="Red"/>
  <circle cx="497.965" cy="571.922" r="4.87966" stroke-width="0.5" stroke="Red" fill="Red"/>
   </g>
   <g id="cell78">
  <circle cx="502.38" cy="585.384" r="8.41271" stroke-width="0.5" stroke="black" fill="Red"/>
  <circle cx="502.38" cy="585.384" r="5.05167" stroke-width="0.5" stroke="Red" fill="Red"/>
   </g>
   <g id="cell79">
  <circle cx="506.047" cy="599.696" r="8.41271" stroke-width="0.5" stroke="black" fill="blue"/>
  <circle cx="506.047" cy="599.696" r="5.05167" stroke-width="0.5" stroke="blue" fill="blue"/>
   </g>
   <g id="cell80">
  <circle cx="517.951" cy="407.953" r="7.81315" stroke-width="0.5" stroke="black" fill="Red"/>
  <circle cx="517.951" cy="407.953" r="4.74367" stroke-width="0.5" stroke="Red" fill="Red"/>
   </g>
   <g id="cell81">
  <circle cx="518.121" cy="431.206" r="8.41271" stroke-width="0.5" stroke="black" fill="Red"/>
  <circle cx="518.121" cy="431.206" r="5.05167" stroke-width="0.5" stroke="Red" fill="Red"/>
   </g>
   <g id="cell82">
  <circle cx="509.845" cy="443.35" r="7.61469" stroke-width="0.5" stroke="black" fill="Red"/>
  <circle cx="509.845" cy="443.35" r="4.62762" stroke-width="0.5" stroke="Red" fill="Red"/>
   </g>
   <g id="cell83">
  <circle cx="504.286" cy="455.659" r="8.41271" stroke-width="0.5" stroke="black" fill="Red"/>
  <circle cx="504.286" cy="455.659" r="5.05167" stroke-width="0.5" stroke="Red" fill="Red"/>
   </g>
   <g id="cell84">
  <circle cx="509.53" cy="465.29" r="7.38797" stroke-width="0.5" stroke="black" fill="Red"/>
  <circle cx="509.53" cy="465.29" r="4.49029" stroke-width="0.5" stroke="Red" fill="Red"/>
   </g>
   <g id="cell85">
  <circle cx="499.962" cy="472.639" r="8.41271" stroke-width="0.5" stroke="black" fill="Red"/>
  <circle cx="499.962" cy="472.639" r="5.05167" stroke-width="0.5" stroke="Red" fill="Red"/>
   </g>
   <g id="cell86">
  <circle cx="507.073" cy="504.909" r="8.41271" stroke-width="0.5" stroke="black" fill="Red"/>
  <circle cx="507.073" cy="504.909" r="5.05167" stroke-width="0.5" stroke="Red" fill="Red"/>
   </g>
   <g id="cell87">
  <circle cx="513.413" cy="513.394" r="6.62221" stroke-width="0.5" stroke="black" fill="Red"/>
  <circle cx="513.413" cy="513.394" r="4.03152" stroke-width="0.5" stroke="Red" fill="Red"/>
   </g>
   <g id="cell88">
  <circle cx="507.131" cy="535.341" r="8.41271" stroke-width="0.5" stroke="black" fill="Red"/>
  <circle cx="507.131" cy="535.341" r="5.05167" stroke-width="0.5" stroke="Red" fill="Red"/>
   </g>
   <g id="cell89">
  <circle cx="510.297" cy="549.939" r="8.41271" stroke-width="0.5" stroke="black" fill="Red"/>
  <circle cx="510.297" cy="549.939" r="5.05167" stroke-width="0.5" stroke="Red" fill="Red"/>
   </g>
   <g id="cell90">
  <circle cx="518.123" cy="557.417" r="6.67717" stroke-width="0.5" stroke="black" fill="yellow"/>
  <circle cx="518.123" cy="557.417" r="4.00951" stroke-width="0.5" stroke="yellow" fill="yellow"/>
   </g>
   <g id="cell91">
  <circle cx="511.058" cy="573.981" r="8.41271" stroke-width="0.5" stroke="black" fill="Red"/>
  <circle cx="511.058" cy="573.981" r="5.05167" stroke-width="0.5" stroke="Red" fill="Red"/>
   </g>
   <g id="cell92">
  <circle cx="516.294" cy="587.462" r="8.41271" stroke-width="0.5" stroke="black" fill="Red"/>
  <circle cx="516.294" cy="587.462" r="5.05167" stroke-width="0.5" stroke="Red" fill="Red"/>
   </g>
   <g id="cell93">
  <circle cx="531.043" cy="409.527" r="8.41271" stroke-width="0.5" stroke="black" fill="blue"/>
  <circle cx="531.043" cy="409.527" r="5.05167" stroke-width="0.5" stroke="blue" fill="blue"/>
   </g>
   <g id="cell94">
  <circle cx="537.314" cy="421.271" r="8.09544" stroke-width="0.5" stroke="black" fill="Red"/>
  <circle cx="537.314" cy="421.271" r="4.90058" stroke-width="0.5" stroke="Red" fill="Red"/>
   </g>
   <g id="cell95">
  <circle cx="530.913" cy="432.897" r="8.41271" stroke-width="0.5" stroke="black" fill="Red"/>
  <circle cx="530.913" cy="432.897" r="5.05167" stroke-width="0.5" stroke="Red" fill="Red"/>
   </g>
   <g id="cell96">
  <circle cx="522.442" cy="443.537" r="7.86236" stroke-width="0.5" stroke="black" fill="blue"/>
  <circle cx="522.442" cy="443.537" r="4.78445" stroke-width="0.5" stroke="blue" fill="blue"/>
   </g>
   <g id="cell97">
  <circle cx="528.891" cy="456.577" r="8.41271" stroke-width="0.5" stroke="black" fill="Red"/>
  <circle cx="528.891" cy="456.577" r="5.05167" stroke-width="0.5" stroke="Red" fill="Red"/>
   </g>
   <g id="cell98">
  <circle cx="525.261" cy="487.912" r="7.69287" stroke-width="0.5" stroke="black" fill="blue"/>
  <circle cx="525.261" cy="487.912" r="4.69246" stroke-width="0.5" stroke="blue" fill="blue"/>
   </g>
   <g id="cell99">
  <circle cx="531.094" cy="498.484" r="8.41271" stroke-width="0.5" stroke="black" fill="Red"/>
  <circle cx="531.094" cy="498.484" r="5.05167" stroke-width="0.5" stroke="Red" fill="Red"/>
   </g>
   <g id="cell100">
  <circle cx="518.021" cy="497.765" r="7.7401" stroke-width="0.5" stroke="black" fill="Red"/>
  <circle cx="518.021" cy="497.765" r="4.70142" stroke-width="0.5" stroke="Red" fill="Red"/>
   </g>
   <g id="cell101">
  <circle cx="517.963" cy="527.94" r="8.41271" stroke-width="0.5" stroke="black" fill="Red"/>
  <circle cx="517.963" cy="527.94" r="5.05167" stroke-width="0.5" stroke="Red" fill="Red"/>
   </g>
   <g id="cell102">
  <circle cx="528.631" cy="533.529" r="8.1609" stroke-width="0.5" stroke="black" fill="Red"/>
  <circle cx="528.631" cy="533.529" r="4.93506" stroke-width="0.5" stroke="Red" fill="Red"/>
   </g>
   <g id="cell103">
  <circle cx="526.811" cy="550.621" r="8.41271" stroke-width="0.5" stroke="black" fill="Red"/>
  <circle cx="526.811" cy="550.621" r="5.05167" stroke-width="0.5" stroke="Red" fill="Red"/>
   </g>
   <g id="cell104">
  <circle cx="529.718" cy="564.196" r="8.41271" stroke-width="0.5" stroke="black" fill="Red"/>
  <circle cx="529.718" cy="564.196" r="5.05167" stroke-width="0.5" stroke="Red" fill="Red"/>
   </g>
   <g id="cell105">
  <circle cx="523.554" cy="576.513" r="8.41271" stroke-width="0.5" stroke="black" fill="blue"/>
  <circle cx="523.554" cy="576.513" r="5.05167" stroke-width="0.5" stroke="blue" fill="blue"/>
   </g>
   <g id="cell106">
  <circle cx="546.488" cy="411.044" r="7.75912" stroke-width="0.5" stroke="black" fill="yellow"/>
  <circle cx="546.488" cy="411.044" r="4.71248" stroke-width="0.5" stroke="yellow" fill="yellow"/>
   </g>
   <g id="cell107">
  <circle cx="544.538" cy="434.197" r="8.41271" stroke-width="0.5" stroke="black" fill="blue"/>
  <circle cx="544.538" cy="434.197" r="5.05167" stroke-width="0.5" stroke="blue" fill="blue"/>
   </g>
   <g id="cell108">
  <circle cx="535.78" cy="445.802" r="8.41271" stroke-width="0.5" stroke="black" fill="Red"/>
  <circle cx="535.78" cy="445.802" r="5.05167" stroke-width="0.5" stroke="Red" fill="Red"/>
   </g>
   <g id="cell109">
  <circle cx="551.042" cy="465.197" r="8.41271" stroke-width="0.5" stroke="black" fill="Red"/>
  <circle cx="551.042" cy="465.197" r="5.05167" stroke-width="0.5" stroke="Red" fill="Red"/>
   </g>
   <g id="cell110">
  <circle cx="533.722" cy="481.959" r="8.41271" stroke-width="0.5" stroke="black" fill="Red"/>
  <circle cx="533.722" cy="481.959" r="5.05167" stroke-width="0.5" stroke="Red" fill="Red"/>
   </g>
   <g id="cell111">
  <circle cx="539.656" cy="491.345" r="6.89675" stroke-width="0.5" stroke="black" fill="Red"/>
  <circle cx="539.656" cy="491.345" r="4.17024" stroke-width="0.5" stroke="Red" fill="Red"/>
   </g>
   <g id="cell112">
  <circle cx="540.938" cy="505.907" r="8.41271" stroke-width="0.5" stroke="black" fill="Red"/>
  <circle cx="540.938" cy="505.907" r="5.05167" stroke-width="0.5" stroke="Red" fill="Red"/>
   </g>
   <g id="cell113">
  <circle cx="529.815" cy="511.574" r="8.41271" stroke-width="0.5" stroke="black" fill="Red"/>
  <circle cx="529.815" cy="511.574" r="5.05167" stroke-width="0.5" stroke="Red" fill="Red"/>
   </g>
   <g id="cell114">
  <circle cx="533.363" cy="523.336" r="8.41271" stroke-width="0.5" stroke="black" fill="blue"/>
  <circle cx="533.363" cy="523.336" r="5.05167" stroke-width="0.5" stroke="blue" fill="blue"/>
   </g>
   <g id="cell115">
  <circle cx="536.071" cy="541.608" r="8.41271" stroke-width="0.5" stroke="black" fill="Red"/>
  <circle cx="536.071" cy="541.608" r="5.05167" stroke-width="0.5" stroke="Red" fill="Red"/>
   </g>
   <g id="cell116">
  <circle cx="543.341" cy="565.681" r="7.44242" stroke-width="0.5" stroke="black" fill="blue"/>
  <circle cx="543.341" cy="565.681" r="4.52373" stroke-width="0.5" stroke="blue" fill="blue"/>
   </g>
   <g id="cell117">
  <circle cx="531.08" cy="585.626" r="6.71158" stroke-width="0.5" stroke="black" fill="blue"/>
  <circle cx="531.08" cy="585.626" r="4.03435" stroke-width="0.5" stroke="blue" fill="blue"/>
   </g>
   <g id="cell118">
  <circle cx="551.523" cy="423.417" r="8.41271" stroke-width="0.5" stroke="black" fill="yellow"/>
  <circle cx="551.523" cy="423.417" r="5.05167" stroke-width="0.5" stroke="yellow" fill="yellow"/>
   </g>
   <g id="cell119">
  <circle cx="560.812" cy="433.355" r="8.41271" stroke-width="0.5" stroke="black" fill="yellow"/>
  <circle cx="560.812" cy="433.355" r="5.05167" stroke-width="0.5" stroke="yellow" fill="yellow"/>
   </g>
   <g id="cell120">
  <circle cx="557.696" cy="456.607" r="8.08613" stroke-width="0.5" stroke="black" fill="Red"/>
  <circle cx="557.696" cy="456.607" r="4.8956" stroke-width="0.5" stroke="Red" fill="Red"/>
   </g>
   <g id="cell121">
  <circle cx="557.69" cy="476.453" r="8.41271" stroke-width="0.5" stroke="black" fill="Red"/>
  <circle cx="557.69" cy="476.453" r="5.05167" stroke-width="0.5" stroke="Red" fill="Red"/>
   </g>
   <g id="cell122">
  <circle cx="544.671" cy="475.287" r="8.41271" stroke-width="0.5" stroke="black" fill="Red"/>
  <circle cx="544.671" cy="475.287" r="5.05167" stroke-width="0.5" stroke="Red" fill="Red"/>
   </g>
   <g id="cell123">
  <circle cx="549.504" cy="497.38" r="8.41271" stroke-width="0.5" stroke="black" fill="Red"/>
  <circle cx="549.504" cy="497.38" r="5.05167" stroke-width="0.5" stroke="Red" fill="Red"/>
   </g>
   <g id="cell124">
  <circle cx="554.797" cy="509.033" r="8.41271" stroke-width="0.5" stroke="black" fill="Red"/>
  <circle cx="554.797" cy="509.033" r="5.05167" stroke-width="0.5" stroke="Red" fill="Red"/>
   </g>
   <g id="cell125">
  <circle cx="544.803" cy="516.468" r="8.09544" stroke-width="0.5" stroke="black" fill="Red"/>
  <circle cx="544.803" cy="516.468" r="4.90058" stroke-width="0.5" stroke="Red" fill="Red"/>
   </g>
   <g id="cell126">
  <circle cx="544.185" cy="530.665" r="8.41271" stroke-width="0.5" stroke="black" fill="Red"/>
  <circle cx="544.185" cy="530.665" r="5.05167" stroke-width="0.5" stroke="Red" fill="Red"/>
   </g>
   <g id="cell127">
  <circle cx="549.568" cy="555.623" r="7.02257" stroke-width="0.5" stroke="black" fill="Red"/>
  <circle cx="549.568" cy="555.623" r="4.25644" stroke-width="0.5" stroke="Red" fill="Red"/>
   </g>
   <g id="cell128">
  <circle cx="559.572" cy="564.422" r="8.41271" stroke-width="0.5" stroke="black" fill="Red"/>
  <circle cx="559.572" cy="564.422" r="5.05167" stroke-width="0.5" stroke="Red" fill="Red"/>
   </g>
   <g id="cell129">
  <circle cx="581.693" cy="457.692" r="8.07654" stroke-width="0.5" stroke="black" fill="Red"/>
  <circle cx="581.693" cy="457.692" r="4.89046" stroke-width="0.5" stroke="Red" fill="Red"/>
   </g>
   <g id="cell130">
  <circle cx="566.426" cy="466.802" r="8.41271" stroke-width="0.5" stroke="black" fill="Red"/>
  <circle cx="566.426" cy="466.802" r="5.05167" stroke-width="0.5" stroke="Red" fill="Red"/>
   </g>
   <g id="cell131">
  <circle cx="569.74" cy="480.347" r="8.41271" stroke-width="0.5" stroke="black" fill="Red"/>
  <circle cx="569.74" cy="480.347" r="5.05167" stroke-width="0.5" stroke="Red" fill="Red"/>
   </g>
   <g id="cell132">
  <circle cx="560.417" cy="490.078" r="8.41271" stroke-width="0.5" stroke="black" fill="Red"/>
  <circle cx="560.417" cy="490.078" r="5.05167" stroke-width="0.5" stroke="Red" fill="Red"/>
   </g>
   <g id="cell133">
  <circle cx="565.323" cy="501.683" r="8.41271" stroke-width="0.5" stroke="black" fill="Red"/>
  <circle cx="565.323" cy="501.683" r="5.05167" stroke-width="0.5" stroke="Red" fill="Red"/>
   </g>
   <g id="cell134">
  <circle cx="568.353" cy="515.107" r="8.41271" stroke-width="0.5" stroke="black" fill="yellow"/>
  <circle cx="568.353" cy="515.107" r="5.05167" stroke-width="0.5" stroke="yellow" fill="yellow"/>
   </g>
   <g id="cell135">
  <circle cx="569.461" cy="528.947" r="8.41271" stroke-width="0.5" stroke="black" fill="Red"/>
  <circle cx="569.461" cy="528.947" r="5.05167" stroke-width="0.5" stroke="Red" fill="Red"/>
   </g>
   <g id="cell136">
  <circle cx="558.426" cy="536.178" r="8.41271" stroke-width="0.5" stroke="black" fill="Red"/>
  <circle cx="558.426" cy="536.178" r="5.05167" stroke-width="0.5" stroke="Red" fill="Red"/>
   </g>
   <g id="cell137">
  <circle cx="571.424" cy="556.952" r="7.54436" stroke-width="0.5" stroke="black" fill="Red"/>
  <circle cx="571.424" cy="556.952" r="4.58555" stroke-width="0.5" stroke="Red" fill="Red"/>
   </g>
   <g id="cell138">
  <circle cx="578.603" cy="471.099" r="8.41271" stroke-width="0.5" stroke="black" fill="blue"/>
  <circle cx="578.603" cy="471.099" r="5.05167" stroke-width="0.5" stroke="blue" fill="blue"/>
   </g>
   <g id="cell139">
  <circle cx="585.107" cy="482.814" r="8.41271" stroke-width="0.5" stroke="black" fill="yellow"/>
  <circle cx="585.107" cy="482.814" r="5.05167" stroke-width="0.5" stroke="yellow" fill="yellow"/>
   </g>
   <g id="cell140">
  <circle cx="574.87" cy="492.99" r="8.18833" stroke-width="0.5" stroke="black" fill="blue"/>
  <circle cx="574.87" cy="492.99" r="4.94921" stroke-width="0.5" stroke="blue" fill="blue"/>
   </g>
   <g id="cell141">
  <circle cx="580.705" cy="506.636" r="8.41271" stroke-width="0.5" stroke="black" fill="Red"/>
  <circle cx="580.705" cy="506.636" r="5.05167" stroke-width="0.5" stroke="Red" fill="Red"/>
   </g>
   <g id="cell142">
  <circle cx="580.207" cy="521.678" r="8.01277" stroke-width="0.5" stroke="black" fill="blue"/>
  <circle cx="580.207" cy="521.678" r="4.85584" stroke-width="0.5" stroke="blue" fill="blue"/>
   </g>
   <g id="cell143">
  <circle cx="571.368" cy="542.686" r="8.41271" stroke-width="0.5" stroke="black" fill="yellow"/>
  <circle cx="571.368" cy="542.686" r="5.05167" stroke-width="0.5" stroke="yellow" fill="yellow"/>
   </g>
   <g id="cell144">
  <circle cx="430.153" cy="430.517" r="7.68441" stroke-width="0.5" stroke="black" fill="blue"/>
  <circle cx="430.153" cy="430.517" r="4.68434" stroke-width="0.5" stroke="blue" fill="blue"/>
   </g>
   <g id="cell145">
  <circle cx="588.649" cy="494.558" r="7.18455" stroke-width="0.5" stroke="black" fill="yellow"/>
  <circle cx="588.649" cy="494.558" r="4.38697" stroke-width="0.5" stroke="yellow" fill="yellow"/>
   </g>
   <g id="cell146">
  <circle cx="472.838" cy="506.731" r="7.88698" stroke-width="0.5" stroke="black" fill="Red"/>
  <circle cx="472.838" cy="506.731" r="4.79795" stroke-width="0.5" stroke="Red" fill="Red"/>
   </g>
   <g id="cell147">
  <circle cx="542.557" cy="457.206" r="8.03975" stroke-width="0.5" stroke="black" fill="blue"/>
  <circle cx="542.557" cy="457.206" r="4.87947" stroke-width="0.5" stroke="blue" fill="blue"/>
   </g>
   <g id="cell148">
  <circle cx="519.728" cy="540.873" r="8.1609" stroke-width="0.5" stroke="black" fill="blue"/>
  <circle cx="519.728" cy="540.873" r="4.93506" stroke-width="0.5" stroke="blue" fill="blue"/>
   </g>
   <g id="cell149">
  <circle cx="535.006" cy="468.109" r="8.03975" stroke-width="0.5" stroke="black" fill="Red"/>
  <circle cx="535.006" cy="468.109" r="4.87947" stroke-width="0.5" stroke="Red" fill="Red"/>
   </g>
   <g id="cell150">
  <circle cx="440.105" cy="514.407" r="8.1218" stroke-width="0.5" stroke="black" fill="blue"/>
  <circle cx="440.105" cy="514.407" r="4.91457" stroke-width="0.5" stroke="blue" fill="blue"/>
   </g>
   <g id="cell151">
  <circle cx="448.336" cy="414.837" r="8.1218" stroke-width="0.5" stroke="black" fill="blue"/>
  <circle cx="448.336" cy="414.837" r="4.91457" stroke-width="0.5" stroke="blue" fill="blue"/>
   </g>
   <g id="cell152">
  <circle cx="479.487" cy="459.987" r="8.10448" stroke-width="0.5" stroke="black" fill="Red"/>
  <circle cx="479.487" cy="459.987" r="4.90539" stroke-width="0.5" stroke="Red" fill="Red"/>
   </g>
   <g id="cell153">
  <circle cx="523.307" cy="421.001" r="8.09544" stroke-width="0.5" stroke="black" fill="Red"/>
  <circle cx="523.307" cy="421.001" r="4.90058" stroke-width="0.5" stroke="Red" fill="Red"/>
   </g>
   <g id="cell154">
  <circle cx="556.779" cy="521.819" r="8.09544" stroke-width="0.5" stroke="black" fill="blue"/>
  <circle cx="556.779" cy="521.819" r="4.90058" stroke-width="0.5" stroke="blue" fill="blue"/>
   </g>
   <g id="cell155">
  <circle cx="435.136" cy="418.847" r="7.94079" stroke-width="0.5" stroke="black" fill="Red"/>
  <circle cx="435.136" cy="418.847" r="4.82761" stroke-width="0.5" stroke="Red" fill="Red"/>
   </g>
   <g id="cell156">
  <circle cx="506.711" cy="522.351" r="8.08613" stroke-width="0.5" stroke="black" fill="blue"/>
  <circle cx="506.711" cy="522.351" r="4.8956" stroke-width="0.5" stroke="blue" fill="blue"/>
   </g>
   <g id="cell157">
  <circle cx="549.775" cy="446.744" r="8.08613" stroke-width="0.5" stroke="black" fill="Red"/>
  <circle cx="549.775" cy="446.744" r="4.8956" stroke-width="0.5" stroke="Red" fill="Red"/>
   </g>
   <g id="cell158">
  <circle cx="562.223" cy="445.665" r="7.11707" stroke-width="0.5" stroke="black" fill="Red"/>
  <circle cx="562.223" cy="445.665" r="4.37112" stroke-width="0.5" stroke="Red" fill="Red"/>
   </g>
   <g id="cell159">
  <circle cx="470.174" cy="531.024" r="8.06667" stroke-width="0.5" stroke="black" fill="Red"/>
  <circle cx="470.174" cy="531.024" r="4.88515" stroke-width="0.5" stroke="Red" fill="Red"/>
   </g>
   <g id="cell160">
  <circle cx="505.017" cy="561.157" r="8.05651" stroke-width="0.5" stroke="black" fill="blue"/>
  <circle cx="505.017" cy="561.157" r="4.87966" stroke-width="0.5" stroke="blue" fill="blue"/>
   </g>
   <g id="cell161">
  <circle cx="515.992" cy="483.59" r="7.64458" stroke-width="0.5" stroke="black" fill="Red"/>
  <circle cx="515.992" cy="483.59" r="4.66527" stroke-width="0.5" stroke="Red" fill="Red"/>
   </g>
   <g id="cell162">
  <circle cx="581.141" cy="534.83" r="6.53542" stroke-width="0.5" stroke="black" fill="yellow"/>
  <circle cx="581.141" cy="534.83" r="3.97965" stroke-width="0.5" stroke="yellow" fill="yellow"/>
   </g>
   <g id="cell163">
  <circle cx="463.566" cy="515.162" r="7.88698" stroke-width="0.5" stroke="black" fill="Red"/>
  <circle cx="463.566" cy="515.162" r="4.79795" stroke-width="0.5" stroke="Red" fill="Red"/>
   </g>
   <g id="cell164">
  <circle cx="424.138" cy="495.307" r="8.01277" stroke-width="0.5" stroke="black" fill="Red"/>
  <circle cx="424.138" cy="495.307" r="4.85584" stroke-width="0.5" stroke="Red" fill="Red"/>
   </g>
   <g id="cell165">
  <circle cx="469.299" cy="440.618" r="7.98892" stroke-width="0.5" stroke="black" fill="Red"/>
  <circle cx="469.299" cy="440.618" r="4.84272" stroke-width="0.5" stroke="Red" fill="Red"/>
   </g>
   <g id="cell166">
  <circle cx="490.094" cy="430.617" r="7.98892" stroke-width="0.5" stroke="black" fill="Red"/>
  <circle cx="490.094" cy="430.617" r="4.84272" stroke-width="0.5" stroke="Red" fill="Red"/>
   </g>
   <g id="cell167">
  <circle cx="516.347" cy="453.696" r="7.86236" stroke-width="0.5" stroke="black" fill="blue"/>
  <circle cx="516.347" cy="453.696" r="4.78445" stroke-width="0.5" stroke="blue" fill="blue"/>
   </g>
   <g id="cell168">
  <circle cx="428.192" cy="527.837" r="6.55857" stroke-width="0.5" stroke="black" fill="Red"/>
  <circle cx="428.192" cy="527.837" r="4.03182" stroke-width="0.5" stroke="Red" fill="Red"/>
   </g>
   <g id="cell169">
  <circle cx="411.997" cy="458.934" r="6.63886" stroke-width="0.5" stroke="black" fill="blue"/>
  <circle cx="411.997" cy="458.934" r="4.05767" stroke-width="0.5" stroke="blue" fill="blue"/>
   </g>
   <g id="cell170">
  <circle cx="509.527" cy="493.061" r="7.10944" stroke-width="0.5" stroke="black" fill="Red"/>
  <circle cx="509.527" cy="493.061" r="4.36716" stroke-width="0.5" stroke="Red" fill="Red"/>
   </g>
   <g id="cell171">
  <circle cx="449.738" cy="585.937" r="7.89373" stroke-width="0.5" stroke="black" fill="Red"/>
  <circle cx="449.738" cy="585.937" r="4.78957" stroke-width="0.5" stroke="Red" fill="Red"/>
   </g>
   <g id="cell172">
  <circle cx="573.182" cy="442.025" r="7.70591" stroke-width="0.5" stroke="black" fill="blue"/>
  <circle cx="573.182" cy="442.025" r="4.69918" stroke-width="0.5" stroke="blue" fill="blue"/>
   </g>
   <g id="cell173">
  <circle cx="417.098" cy="521.186" r="7.65124" stroke-width="0.5" stroke="black" fill="blue"/>
  <circle cx="417.098" cy="521.186" r="4.66944" stroke-width="0.5" stroke="blue" fill="blue"/>
   </g>
   <g id="cell174">
  <circle cx="524.745" cy="473.646" r="7.64458" stroke-width="0.5" stroke="black" fill="Red"/>
  <circle cx="524.745" cy="473.646" r="4.66527" stroke-width="0.5" stroke="Red" fill="Red"/>
   </g>
   <g id="cell175">
  <circle cx="510.312" cy="419.44" r="7.81315" stroke-width="0.5" stroke="black" fill="Red"/>
  <circle cx="510.312" cy="419.44" r="4.74367" stroke-width="0.5" stroke="Red" fill="Red"/>
   </g>
   <g id="cell176">
  <circle cx="439.728" cy="435.658" r="7.68441" stroke-width="0.5" stroke="black" fill="yellow"/>
  <circle cx="439.728" cy="435.658" r="4.68434" stroke-width="0.5" stroke="yellow" fill="yellow"/>
   </g>
   <g id="cell177">
  <circle cx="560.653" cy="413.785" r="7.75912" stroke-width="0.5" stroke="black" fill="blue"/>
  <circle cx="560.653" cy="413.785" r="4.71248" stroke-width="0.5" stroke="blue" fill="blue"/>
   </g>
   <g id="cell178">
  <circle cx="521.992" cy="518.912" r="7.7401" stroke-width="0.5" stroke="black" fill="Red"/>
  <circle cx="521.992" cy="518.912" r="4.70142" stroke-width="0.5" stroke="Red" fill="Red"/>
   </g>
   <g id="cell179">
  <circle cx="449.319" cy="534.159" r="7.7401" stroke-width="0.5" stroke="black" fill="Red"/>
  <circle cx="449.319" cy="534.159" r="4.70142" stroke-width="0.5" stroke="Red" fill="Red"/>
   </g>
   <g id="cell180">
  <circle cx="452.789" cy="434.204" r="7.7401" stroke-width="0.5" stroke="black" fill="Red"/>
  <circle cx="452.789" cy="434.204" r="4.70142" stroke-width="0.5" stroke="Red" fill="Red"/>
   </g>
   <g id="cell181">
  <circle cx="483.726" cy="505.71" r="6.77151" stroke-width="0.5" stroke="black" fill="Red"/>
  <circle cx="483.726" cy="505.71" r="4.15203" stroke-width="0.5" stroke="Red" fill="Red"/>
   </g>
   <g id="cell182">
  <circle cx="473.97" cy="553.085" r="7.67987" stroke-width="0.5" stroke="black" fill="Red"/>
  <circle cx="473.97" cy="553.085" r="4.66617" stroke-width="0.5" stroke="Red" fill="Red"/>
   </g>
   <g id="cell183">
  <circle cx="464.209" cy="430.492" r="7.63698" stroke-width="0.5" stroke="black" fill="blue"/>
  <circle cx="464.209" cy="430.492" r="4.64085" stroke-width="0.5" stroke="blue" fill="blue"/>
   </g>
   <g id="cell184">
  <circle cx="506.581" cy="431.857" r="6.45845" stroke-width="0.5" stroke="black" fill="Red"/>
  <circle cx="506.581" cy="431.857" r="3.95681" stroke-width="0.5" stroke="Red" fill="Red"/>
   </g>
   <g id="cell185">
  <circle cx="490.964" cy="593.534" r="7.56839" stroke-width="0.5" stroke="black" fill="yellow"/>
  <circle cx="490.964" cy="593.534" r="4.59998" stroke-width="0.5" stroke="yellow" fill="yellow"/>
   </g>
   <g id="cell186">
  <circle cx="503.453" cy="484.583" r="7.10944" stroke-width="0.5" stroke="black" fill="blue"/>
  <circle cx="503.453" cy="484.583" r="4.36716" stroke-width="0.5" stroke="blue" fill="blue"/>
   </g>
   <g id="cell187">
  <circle cx="569.939" cy="454.632" r="7.11707" stroke-width="0.5" stroke="black" fill="yellow"/>
  <circle cx="569.939" cy="454.632" r="4.37112" stroke-width="0.5" stroke="yellow" fill="yellow"/>
   </g>
   <g id="cell188">
  <circle cx="560.008" cy="550.097" r="7.54436" stroke-width="0.5" stroke="black" fill="Red"/>
  <circle cx="560.008" cy="550.097" r="4.58555" stroke-width="0.5" stroke="Red" fill="Red"/>
   </g>
   <g id="cell189">
  <circle cx="459.192" cy="525.46" r="7.51976" stroke-width="0.5" stroke="black" fill="Red"/>
  <circle cx="459.192" cy="525.46" r="4.57072" stroke-width="0.5" stroke="Red" fill="Red"/>
   </g>
   <g id="cell190">
  <circle cx="453.808" cy="513.152" r="6.89042" stroke-width="0.5" stroke="black" fill="blue"/>
  <circle cx="453.808" cy="513.152" r="4.22719" stroke-width="0.5" stroke="blue" fill="blue"/>
   </g>
   <g id="cell191">
  <circle cx="538.962" cy="554.13" r="7.44242" stroke-width="0.5" stroke="black" fill="Red"/>
  <circle cx="538.962" cy="554.13" r="4.52373" stroke-width="0.5" stroke="Red" fill="Red"/>
   </g>
   <g id="cell192">
  <circle cx="515.39" cy="472.938" r="5.24163" stroke-width="0.5" stroke="black" fill="Red"/>
  <circle cx="515.39" cy="472.938" r="3.21851" stroke-width="0.5" stroke="Red" fill="Red"/>
   </g>
   <g id="cell193">
  <circle cx="599.262" cy="487.688" r="7.18455" stroke-width="0.5" stroke="black" fill="blue"/>
  <circle cx="599.262" cy="487.688" r="4.38697" stroke-width="0.5" stroke="blue" fill="blue"/>
   </g>
   <g id="cell194">
  <circle cx="449.914" cy="572.669" r="7.33129" stroke-width="0.5" stroke="black" fill="Red"/>
  <circle cx="449.914" cy="572.669" r="4.45516" stroke-width="0.5" stroke="Red" fill="Red"/>
   </g>
   <g id="cell195">
  <circle cx="492.881" cy="505.104" r="6.77151" stroke-width="0.5" stroke="black" fill="blue"/>
  <circle cx="492.881" cy="505.104" r="4.15203" stroke-width="0.5" stroke="blue" fill="blue"/>
   </g>
   <g id="cell196">
  <circle cx="458.449" cy="410.42" r="7.24243" stroke-width="0.5" stroke="black" fill="Red"/>
  <circle cx="458.449" cy="410.42" r="4.39934" stroke-width="0.5" stroke="Red" fill="Red"/>
   </g>
   <g id="cell197">
  <circle cx="520.269" cy="463.936" r="6.57168" stroke-width="0.5" stroke="black" fill="blue"/>
  <circle cx="520.269" cy="463.936" r="4.03339" stroke-width="0.5" stroke="blue" fill="blue"/>
   </g>
   <g id="cell198">
  <circle cx="460.496" cy="536.639" r="6.76246" stroke-width="0.5" stroke="black" fill="blue"/>
  <circle cx="460.496" cy="536.639" r="4.14531" stroke-width="0.5" stroke="blue" fill="blue"/>
   </g>
   <g id="cell199">
  <circle cx="410.512" cy="540.981" r="6.91843" stroke-width="0.5" stroke="black" fill="blue"/>
  <circle cx="410.512" cy="540.981" r="4.23353" stroke-width="0.5" stroke="blue" fill="blue"/>
   </g>
   <g id="cell200">
  <circle cx="488.863" cy="441.251" r="7.1497" stroke-width="0.5" stroke="black" fill="blue"/>
  <circle cx="488.863" cy="441.251" r="4.34001" stroke-width="0.5" stroke="blue" fill="blue"/>
   </g>
   <g id="cell201">
  <circle cx="464.426" cy="464.211" r="7.1497" stroke-width="0.5" stroke="black" fill="blue"/>
  <circle cx="464.426" cy="464.211" r="4.34001" stroke-width="0.5" stroke="blue" fill="blue"/>
   </g>
   <g id="cell202">
  <circle cx="419.065" cy="534.634" r="6.55857" stroke-width="0.5" stroke="black" fill="yellow"/>
  <circle cx="419.065" cy="534.634" r="4.03182" stroke-width="0.5" stroke="yellow" fill="yellow"/>
   </g>
   <g id="cell203">
  <circle cx="496.161" cy="555.088" r="7.08639" stroke-width="0.5" stroke="black" fill="Red"/>
  <circle cx="496.161" cy="555.088" r="4.29876" stroke-width="0.5" stroke="Red" fill="Red"/>
   </g>
   <g id="cell204">
  <circle cx="440.296" cy="479.539" r="7.0545" stroke-width="0.5" stroke="black" fill="blue"/>
  <circle cx="440.296" cy="479.539" r="4.27772" stroke-width="0.5" stroke="blue" fill="blue"/>
   </g>
   <g id="cell205">
  <circle cx="499.393" cy="435.921" r="6.45845" stroke-width="0.5" stroke="black" fill="blue"/>
  <circle cx="499.393" cy="435.921" r="3.95681" stroke-width="0.5" stroke="blue" fill="blue"/>
   </g>
   <g id="cell206">
  <circle cx="494.552" cy="397.064" r="7.02257" stroke-width="0.5" stroke="black" fill="blue"/>
  <circle cx="494.552" cy="397.064" r="4.25644" stroke-width="0.5" stroke="blue" fill="blue"/>
   </g>
   <g id="cell207">
  <circle cx="477.397" cy="541.237" r="7.02257" stroke-width="0.5" stroke="black" fill="blue"/>
  <circle cx="477.397" cy="541.237" r="4.25644" stroke-width="0.5" stroke="blue" fill="blue"/>
   </g>
   <g id="cell208">
  <circle cx="548.17" cy="544.182" r="7.02257" stroke-width="0.5" stroke="black" fill="blue"/>
  <circle cx="548.17" cy="544.182" r="4.25644" stroke-width="0.5" stroke="blue" fill="blue"/>
   </g>
   <g id="cell209">
  <circle cx="483.242" cy="572.391" r="7.02257" stroke-width="0.5" stroke="black" fill="blue"/>
  <circle cx="483.242" cy="572.391" r="4.25644" stroke-width="0.5" stroke="blue" fill="blue"/>
   </g>
   <g id="cell210">
  <circle cx="410.832" cy="447.23" r="6.63886" stroke-width="0.5" stroke="black" fill="yellow"/>
  <circle cx="410.832" cy="447.23" r="4.05767" stroke-width="0.5" stroke="yellow" fill="yellow"/>
   </g>
   <g id="cell211">
  <circle cx="431.867" cy="460.719" r="6.95901" stroke-width="0.5" stroke="black" fill="blue"/>
  <circle cx="431.867" cy="460.719" r="4.21341" stroke-width="0.5" stroke="blue" fill="blue"/>
   </g>
   <g id="cell212">
  <circle cx="455.719" cy="423.055" r="6.58186" stroke-width="0.5" stroke="black" fill="Red"/>
  <circle cx="455.719" cy="423.055" r="4.0262" stroke-width="0.5" stroke="Red" fill="Red"/>
   </g>
   <g id="cell213">
  <circle cx="548.774" cy="485.17" r="6.89675" stroke-width="0.5" stroke="black" fill="blue"/>
  <circle cx="548.774" cy="485.17" r="4.17024" stroke-width="0.5" stroke="blue" fill="blue"/>
   </g>
   <g id="cell214">
  <circle cx="521.172" cy="506.702" r="6.62221" stroke-width="0.5" stroke="black" fill="blue"/>
  <circle cx="521.172" cy="506.702" r="4.03152" stroke-width="0.5" stroke="blue" fill="blue"/>
   </g>
   <g id="cell215">
  <circle cx="471.567" cy="586.439" r="6.86652" stroke-width="0.5" stroke="black" fill="Red"/>
  <circle cx="471.567" cy="586.439" r="4.14883" stroke-width="0.5" stroke="Red" fill="Red"/>
   </g>
   <g id="cell216">
  <circle cx="581.617" cy="549.555" r="6.53542" stroke-width="0.5" stroke="black" fill="blue"/>
  <circle cx="581.617" cy="549.555" r="3.97965" stroke-width="0.5" stroke="blue" fill="blue"/>
   </g>
   <g id="cell217">
  <circle cx="482.53" cy="561.767" r="6.78181" stroke-width="0.5" stroke="black" fill="blue"/>
  <circle cx="482.53" cy="561.767" r="4.08714" stroke-width="0.5" stroke="blue" fill="blue"/>
   </g>
   <g id="cell218">
  <circle cx="497.612" cy="415.552" r="6.71158" stroke-width="0.5" stroke="black" fill="blue"/>
  <circle cx="497.612" cy="415.552" r="4.03435" stroke-width="0.5" stroke="blue" fill="blue"/>
   </g>
   <g id="cell219">
  <circle cx="537.115" cy="575.733" r="6.71158" stroke-width="0.5" stroke="black" fill="Red"/>
  <circle cx="537.115" cy="575.733" r="4.03435" stroke-width="0.5" stroke="Red" fill="Red"/>
   </g>
   <g id="cell220">
  <circle cx="508.983" cy="476.297" r="5.24163" stroke-width="0.5" stroke="black" fill="Red"/>
  <circle cx="508.983" cy="476.297" r="3.21851" stroke-width="0.5" stroke="Red" fill="Red"/>
   </g>
   <g id="cell221">
  <circle cx="517.539" cy="565.918" r="6.67717" stroke-width="0.5" stroke="black" fill="Red"/>
  <circle cx="517.539" cy="565.918" r="4.00951" stroke-width="0.5" stroke="Red" fill="Red"/>
   </g>
  </g>
 </g>
  <rect x="775" y="1035" width="200" height="10" stroke-width="2" stroke="rgb(255,255,255)" fill="rgb(0,0,0)"/>
  <text x="781.25" y="1028.75"
   font-family="Arial" font-size="25" fill="black" >
   200 &#956;m
  </text>
  <text x="25" y="1045"
   font-family="Arial" font-size="18.75" fill="black" >
   0 days, 0 hours, 3 minutes, and 20.3229 seconds
  </text>
  <rect x="0" y="70" width="1000" height="1000" stroke-width="2" stroke="rgb(0,0,0)" fill="none"/>
</svg>
