<?xml version="1.0" encoding="UTF-8" standalone="no"?>
<!-- Created with PhysiCell (http://PhysiCell.MathCancer.org/) -->
<svg 
 xmlns:dc="http://purl.org/dc/elements/1.1/" 
 xmlns:cc="http://creativecommons.org/ns#" 
 xmlns:rdf="http://www.w3.org/1999/02/22-rdf-syntax-ns#" 
 xmlns:svg="http://www.w3.org/2000/svg" 
 xmlns="http://www.w3.org/2000/svg" 
 version="1.1" 
 width="1000" 
 height="1070" 
 id="svg2">
  <rect x="0" y="0" width="1000" height="1070" stroke-width="2" stroke="white" fill="white"/>
  <text x="12.5" y="30"
   font-family="Arial" font-size="25" fill="black" >
   Current time: 0 days, 3 hours, and 15.00 minutes, z = 0.00 &#956;m
  </text>
  <text x="12.5" y="57.5"
   font-family="Arial" font-size="23.75" fill="black" >
   174 agents
  </text>
 <g id="tissue" 
    transform="translate(0,1070) scale(1,-1)">
  <g id="ECM">
  </g>
  <g id="cells">
   <g id="cell0">
  <circle cx="431.065" cy="449.802" r="8.41271" stroke-width="0.5" stroke="black" fill="Red"/>
  <circle cx="431.065" cy="449.802" r="5.05167" stroke-width="0.5" stroke="Red" fill="Red"/>
   </g>
   <g id="cell1">
  <circle cx="427.949" cy="465.03" r="6.73287" stroke-width="0.5" stroke="black" fill="Red"/>
  <circle cx="427.949" cy="465.03" r="4.05039" stroke-width="0.5" stroke="Red" fill="Red"/>
   </g>
   <g id="cell2">
  <circle cx="426.583" cy="478.509" r="8.41271" stroke-width="0.5" stroke="black" fill="blue"/>
  <circle cx="426.583" cy="478.509" r="5.05167" stroke-width="0.5" stroke="blue" fill="blue"/>
   </g>
   <g id="cell3">
  <circle cx="426.403" cy="491.666" r="6.92764" stroke-width="0.5" stroke="black" fill="yellow"/>
  <circle cx="426.403" cy="491.666" r="4.1918" stroke-width="0.5" stroke="yellow" fill="yellow"/>
   </g>
   <g id="cell4">
  <circle cx="432.966" cy="512.066" r="8.41271" stroke-width="0.5" stroke="black" fill="Red"/>
  <circle cx="432.966" cy="512.066" r="5.05167" stroke-width="0.5" stroke="Red" fill="Red"/>
   </g>
   <g id="cell5">
  <circle cx="419.526" cy="524.332" r="6.83713" stroke-width="0.5" stroke="black" fill="Red"/>
  <circle cx="419.526" cy="524.332" r="4.12773" stroke-width="0.5" stroke="Red" fill="Red"/>
   </g>
   <g id="cell6">
  <circle cx="427.266" cy="536.782" r="8.41271" stroke-width="0.5" stroke="black" fill="blue"/>
  <circle cx="427.266" cy="536.782" r="5.05167" stroke-width="0.5" stroke="blue" fill="blue"/>
   </g>
   <g id="cell7">
  <circle cx="442.659" cy="446.513" r="7.51976" stroke-width="0.5" stroke="black" fill="Red"/>
  <circle cx="442.659" cy="446.513" r="4.57072" stroke-width="0.5" stroke="Red" fill="Red"/>
   </g>
   <g id="cell8">
  <circle cx="438.574" cy="459.917" r="8.41271" stroke-width="0.5" stroke="black" fill="yellow"/>
  <circle cx="438.574" cy="459.917" r="5.05167" stroke-width="0.5" stroke="yellow" fill="yellow"/>
   </g>
   <g id="cell9">
  <circle cx="438.967" cy="473.849" r="8.41271" stroke-width="0.5" stroke="black" fill="yellow"/>
  <circle cx="438.967" cy="473.849" r="5.05167" stroke-width="0.5" stroke="yellow" fill="yellow"/>
   </g>
   <g id="cell10">
  <circle cx="438.968" cy="488.201" r="8.41271" stroke-width="0.5" stroke="black" fill="yellow"/>
  <circle cx="438.968" cy="488.201" r="5.05167" stroke-width="0.5" stroke="yellow" fill="yellow"/>
   </g>
   <g id="cell11">
  <circle cx="445.113" cy="502.98" r="8.41271" stroke-width="0.5" stroke="black" fill="Red"/>
  <circle cx="445.113" cy="502.98" r="5.05167" stroke-width="0.5" stroke="Red" fill="Red"/>
   </g>
   <g id="cell12">
  <circle cx="438.613" cy="524.015" r="7.27253" stroke-width="0.5" stroke="black" fill="Red"/>
  <circle cx="438.613" cy="524.015" r="4.41835" stroke-width="0.5" stroke="Red" fill="Red"/>
   </g>
   <g id="cell13">
  <circle cx="442.244" cy="534.678" r="8.41271" stroke-width="0.5" stroke="black" fill="Red"/>
  <circle cx="442.244" cy="534.678" r="5.05167" stroke-width="0.5" stroke="Red" fill="Red"/>
   </g>
   <g id="cell14">
  <circle cx="438.042" cy="547.639" r="8.41271" stroke-width="0.5" stroke="black" fill="yellow"/>
  <circle cx="438.042" cy="547.639" r="5.05167" stroke-width="0.5" stroke="yellow" fill="yellow"/>
   </g>
   <g id="cell15">
  <circle cx="440.389" cy="563.392" r="8.41271" stroke-width="0.5" stroke="black" fill="blue"/>
  <circle cx="440.389" cy="563.392" r="5.05167" stroke-width="0.5" stroke="blue" fill="blue"/>
   </g>
   <g id="cell16">
  <circle cx="454.831" cy="426.792" r="6.42249" stroke-width="0.5" stroke="black" fill="yellow"/>
  <circle cx="454.831" cy="426.792" r="3.94142" stroke-width="0.5" stroke="yellow" fill="yellow"/>
   </g>
   <g id="cell17">
  <circle cx="451.076" cy="438.38" r="8.41271" stroke-width="0.5" stroke="black" fill="Red"/>
  <circle cx="451.076" cy="438.38" r="5.05167" stroke-width="0.5" stroke="Red" fill="Red"/>
   </g>
   <g id="cell18">
  <circle cx="450.761" cy="455.073" r="8.41271" stroke-width="0.5" stroke="black" fill="Red"/>
  <circle cx="450.761" cy="455.073" r="5.05167" stroke-width="0.5" stroke="Red" fill="Red"/>
   </g>
   <g id="cell19">
  <circle cx="451.385" cy="467.374" r="8.41271" stroke-width="0.5" stroke="black" fill="blue"/>
  <circle cx="451.385" cy="467.374" r="5.05167" stroke-width="0.5" stroke="blue" fill="blue"/>
   </g>
   <g id="cell20">
  <circle cx="452.172" cy="480.228" r="8.41271" stroke-width="0.5" stroke="black" fill="Red"/>
  <circle cx="452.172" cy="480.228" r="5.05167" stroke-width="0.5" stroke="Red" fill="Red"/>
   </g>
   <g id="cell21">
  <circle cx="453.807" cy="492.682" r="8.41271" stroke-width="0.5" stroke="black" fill="Red"/>
  <circle cx="453.807" cy="492.682" r="5.05167" stroke-width="0.5" stroke="Red" fill="Red"/>
   </g>
   <g id="cell22">
  <circle cx="455.198" cy="509.311" r="8.41271" stroke-width="0.5" stroke="black" fill="Red"/>
  <circle cx="455.198" cy="509.311" r="5.05167" stroke-width="0.5" stroke="Red" fill="Red"/>
   </g>
   <g id="cell23">
  <circle cx="452.206" cy="525.922" r="8.41271" stroke-width="0.5" stroke="black" fill="Red"/>
  <circle cx="452.206" cy="525.922" r="5.05167" stroke-width="0.5" stroke="Red" fill="Red"/>
   </g>
   <g id="cell24">
  <circle cx="452.053" cy="541.949" r="8.41271" stroke-width="0.5" stroke="black" fill="blue"/>
  <circle cx="452.053" cy="541.949" r="5.05167" stroke-width="0.5" stroke="blue" fill="blue"/>
   </g>
   <g id="cell25">
  <circle cx="451.793" cy="554.355" r="8.41271" stroke-width="0.5" stroke="black" fill="yellow"/>
  <circle cx="451.793" cy="554.355" r="5.05167" stroke-width="0.5" stroke="yellow" fill="yellow"/>
   </g>
   <g id="cell26">
  <circle cx="452.717" cy="567.772" r="8.41271" stroke-width="0.5" stroke="black" fill="yellow"/>
  <circle cx="452.717" cy="567.772" r="5.05167" stroke-width="0.5" stroke="yellow" fill="yellow"/>
   </g>
   <g id="cell27">
  <circle cx="463.876" cy="417.907" r="8.41271" stroke-width="0.5" stroke="black" fill="yellow"/>
  <circle cx="463.876" cy="417.907" r="5.05167" stroke-width="0.5" stroke="yellow" fill="yellow"/>
   </g>
   <g id="cell28">
  <circle cx="465.143" cy="432.468" r="8.41271" stroke-width="0.5" stroke="black" fill="Red"/>
  <circle cx="465.143" cy="432.468" r="5.05167" stroke-width="0.5" stroke="Red" fill="Red"/>
   </g>
   <g id="cell29">
  <circle cx="459.166" cy="447.724" r="6.86652" stroke-width="0.5" stroke="black" fill="Red"/>
  <circle cx="459.166" cy="447.724" r="4.14883" stroke-width="0.5" stroke="Red" fill="Red"/>
   </g>
   <g id="cell30">
  <circle cx="464.018" cy="460.02" r="8.41271" stroke-width="0.5" stroke="black" fill="Red"/>
  <circle cx="464.018" cy="460.02" r="5.05167" stroke-width="0.5" stroke="Red" fill="Red"/>
   </g>
   <g id="cell31">
  <circle cx="464.968" cy="473.572" r="8.41271" stroke-width="0.5" stroke="black" fill="Red"/>
  <circle cx="464.968" cy="473.572" r="5.05167" stroke-width="0.5" stroke="Red" fill="Red"/>
   </g>
   <g id="cell32">
  <circle cx="465.491" cy="487.03" r="8.41271" stroke-width="0.5" stroke="black" fill="blue"/>
  <circle cx="465.491" cy="487.03" r="5.05167" stroke-width="0.5" stroke="blue" fill="blue"/>
   </g>
   <g id="cell33">
  <circle cx="463.814" cy="499.242" r="8.41271" stroke-width="0.5" stroke="black" fill="Red"/>
  <circle cx="463.814" cy="499.242" r="5.05167" stroke-width="0.5" stroke="Red" fill="Red"/>
   </g>
   <g id="cell34">
  <circle cx="463.251" cy="518.63" r="8.41271" stroke-width="0.5" stroke="black" fill="Red"/>
  <circle cx="463.251" cy="518.63" r="5.05167" stroke-width="0.5" stroke="Red" fill="Red"/>
   </g>
   <g id="cell35">
  <circle cx="461.599" cy="533.351" r="8.41271" stroke-width="0.5" stroke="black" fill="Red"/>
  <circle cx="461.599" cy="533.351" r="5.05167" stroke-width="0.5" stroke="Red" fill="Red"/>
   </g>
   <g id="cell36">
  <circle cx="465.121" cy="546.42" r="8.41271" stroke-width="0.5" stroke="black" fill="Red"/>
  <circle cx="465.121" cy="546.42" r="5.05167" stroke-width="0.5" stroke="Red" fill="Red"/>
   </g>
   <g id="cell37">
  <circle cx="465.79" cy="561.353" r="8.41271" stroke-width="0.5" stroke="black" fill="Red"/>
  <circle cx="465.79" cy="561.353" r="5.05167" stroke-width="0.5" stroke="Red" fill="Red"/>
   </g>
   <g id="cell38">
  <circle cx="464.589" cy="575.556" r="8.41271" stroke-width="0.5" stroke="black" fill="Red"/>
  <circle cx="464.589" cy="575.556" r="5.05167" stroke-width="0.5" stroke="Red" fill="Red"/>
   </g>
   <g id="cell39">
  <circle cx="459.163" cy="587.799" r="6.69288" stroke-width="0.5" stroke="black" fill="blue"/>
  <circle cx="459.163" cy="587.799" r="4.02051" stroke-width="0.5" stroke="blue" fill="blue"/>
   </g>
   <g id="cell40">
  <circle cx="474.625" cy="408.834" r="8.41271" stroke-width="0.5" stroke="black" fill="blue"/>
  <circle cx="474.625" cy="408.834" r="5.05167" stroke-width="0.5" stroke="blue" fill="blue"/>
   </g>
   <g id="cell41">
  <circle cx="476.858" cy="423.882" r="8.41271" stroke-width="0.5" stroke="black" fill="yellow"/>
  <circle cx="476.858" cy="423.882" r="5.05167" stroke-width="0.5" stroke="yellow" fill="yellow"/>
   </g>
   <g id="cell42">
  <circle cx="477.437" cy="438.536" r="8.41271" stroke-width="0.5" stroke="black" fill="Red"/>
  <circle cx="477.437" cy="438.536" r="5.05167" stroke-width="0.5" stroke="Red" fill="Red"/>
   </g>
   <g id="cell43">
  <circle cx="474.53" cy="452.924" r="8.41271" stroke-width="0.5" stroke="black" fill="Red"/>
  <circle cx="474.53" cy="452.924" r="5.05167" stroke-width="0.5" stroke="Red" fill="Red"/>
   </g>
   <g id="cell44">
  <circle cx="476.248" cy="466.369" r="8.41271" stroke-width="0.5" stroke="black" fill="Red"/>
  <circle cx="476.248" cy="466.369" r="5.05167" stroke-width="0.5" stroke="Red" fill="Red"/>
   </g>
   <g id="cell45">
  <circle cx="476.175" cy="481.022" r="8.41271" stroke-width="0.5" stroke="black" fill="Red"/>
  <circle cx="476.175" cy="481.022" r="5.05167" stroke-width="0.5" stroke="Red" fill="Red"/>
   </g>
   <g id="cell46">
  <circle cx="477.007" cy="495.235" r="8.41271" stroke-width="0.5" stroke="black" fill="yellow"/>
  <circle cx="477.007" cy="495.235" r="5.05167" stroke-width="0.5" stroke="yellow" fill="yellow"/>
   </g>
   <g id="cell47">
  <circle cx="469.182" cy="507.702" r="7.49456" stroke-width="0.5" stroke="black" fill="Red"/>
  <circle cx="469.182" cy="507.702" r="4.55548" stroke-width="0.5" stroke="Red" fill="Red"/>
   </g>
   <g id="cell48">
  <circle cx="480.234" cy="525.188" r="7.08639" stroke-width="0.5" stroke="black" fill="Red"/>
  <circle cx="480.234" cy="525.188" r="4.29876" stroke-width="0.5" stroke="Red" fill="Red"/>
   </g>
   <g id="cell49">
  <circle cx="477.254" cy="539.205" r="8.41271" stroke-width="0.5" stroke="black" fill="Red"/>
  <circle cx="477.254" cy="539.205" r="5.05167" stroke-width="0.5" stroke="Red" fill="Red"/>
   </g>
   <g id="cell50">
  <circle cx="477.278" cy="553.975" r="8.41271" stroke-width="0.5" stroke="black" fill="Red"/>
  <circle cx="477.278" cy="553.975" r="5.05167" stroke-width="0.5" stroke="Red" fill="Red"/>
   </g>
   <g id="cell51">
  <circle cx="478.1" cy="568.686" r="8.41271" stroke-width="0.5" stroke="black" fill="Red"/>
  <circle cx="478.1" cy="568.686" r="5.05167" stroke-width="0.5" stroke="Red" fill="Red"/>
   </g>
   <g id="cell52">
  <circle cx="478.776" cy="581.955" r="8.41271" stroke-width="0.5" stroke="black" fill="Red"/>
  <circle cx="478.776" cy="581.955" r="5.05167" stroke-width="0.5" stroke="Red" fill="Red"/>
   </g>
   <g id="cell53">
  <circle cx="488.959" cy="416.262" r="8.41271" stroke-width="0.5" stroke="black" fill="yellow"/>
  <circle cx="488.959" cy="416.262" r="5.05167" stroke-width="0.5" stroke="yellow" fill="yellow"/>
   </g>
   <g id="cell54">
  <circle cx="490.235" cy="429.635" r="8.41271" stroke-width="0.5" stroke="black" fill="Red"/>
  <circle cx="490.235" cy="429.635" r="5.05167" stroke-width="0.5" stroke="Red" fill="Red"/>
   </g>
   <g id="cell55">
  <circle cx="483.753" cy="447.723" r="6.86652" stroke-width="0.5" stroke="black" fill="Red"/>
  <circle cx="483.753" cy="447.723" r="4.14883" stroke-width="0.5" stroke="Red" fill="Red"/>
   </g>
   <g id="cell56">
  <circle cx="494.479" cy="465.165" r="7.21189" stroke-width="0.5" stroke="black" fill="blue"/>
  <circle cx="494.479" cy="465.165" r="4.37993" stroke-width="0.5" stroke="blue" fill="blue"/>
   </g>
   <g id="cell57">
  <circle cx="487.647" cy="474.202" r="8.41271" stroke-width="0.5" stroke="black" fill="Red"/>
  <circle cx="487.647" cy="474.202" r="5.05167" stroke-width="0.5" stroke="Red" fill="Red"/>
   </g>
   <g id="cell58">
  <circle cx="488.7" cy="488.866" r="8.41271" stroke-width="0.5" stroke="black" fill="blue"/>
  <circle cx="488.7" cy="488.866" r="5.05167" stroke-width="0.5" stroke="blue" fill="blue"/>
   </g>
   <g id="cell59">
  <circle cx="489.154" cy="501.547" r="8.41271" stroke-width="0.5" stroke="black" fill="Red"/>
  <circle cx="489.154" cy="501.547" r="5.05167" stroke-width="0.5" stroke="Red" fill="Red"/>
   </g>
   <g id="cell60">
  <circle cx="488.783" cy="516.357" r="8.41271" stroke-width="0.5" stroke="black" fill="Red"/>
  <circle cx="488.783" cy="516.357" r="5.05167" stroke-width="0.5" stroke="Red" fill="Red"/>
   </g>
   <g id="cell61">
  <circle cx="489.233" cy="532.042" r="8.41271" stroke-width="0.5" stroke="black" fill="Red"/>
  <circle cx="489.233" cy="532.042" r="5.05167" stroke-width="0.5" stroke="Red" fill="Red"/>
   </g>
   <g id="cell62">
  <circle cx="488.49" cy="545.24" r="8.41271" stroke-width="0.5" stroke="black" fill="blue"/>
  <circle cx="488.49" cy="545.24" r="5.05167" stroke-width="0.5" stroke="blue" fill="blue"/>
   </g>
   <g id="cell63">
  <circle cx="489.528" cy="559.287" r="8.41271" stroke-width="0.5" stroke="black" fill="Red"/>
  <circle cx="489.528" cy="559.287" r="5.05167" stroke-width="0.5" stroke="Red" fill="Red"/>
   </g>
   <g id="cell64">
  <circle cx="489.267" cy="574.318" r="8.41271" stroke-width="0.5" stroke="black" fill="Red"/>
  <circle cx="489.267" cy="574.318" r="5.05167" stroke-width="0.5" stroke="Red" fill="Red"/>
   </g>
   <g id="cell65">
  <circle cx="491.064" cy="589.637" r="8.41271" stroke-width="0.5" stroke="black" fill="yellow"/>
  <circle cx="491.064" cy="589.637" r="5.05167" stroke-width="0.5" stroke="yellow" fill="yellow"/>
   </g>
   <g id="cell66">
  <circle cx="502.03" cy="409.139" r="8.41271" stroke-width="0.5" stroke="black" fill="blue"/>
  <circle cx="502.03" cy="409.139" r="5.05167" stroke-width="0.5" stroke="blue" fill="blue"/>
   </g>
   <g id="cell67">
  <circle cx="503.078" cy="422.879" r="8.41271" stroke-width="0.5" stroke="black" fill="Red"/>
  <circle cx="503.078" cy="422.879" r="5.05167" stroke-width="0.5" stroke="Red" fill="Red"/>
   </g>
   <g id="cell68">
  <circle cx="501.625" cy="438.441" r="8.41271" stroke-width="0.5" stroke="black" fill="Red"/>
  <circle cx="501.625" cy="438.441" r="5.05167" stroke-width="0.5" stroke="Red" fill="Red"/>
   </g>
   <g id="cell69">
  <circle cx="497.263" cy="452.196" r="8.41271" stroke-width="0.5" stroke="black" fill="Red"/>
  <circle cx="497.263" cy="452.196" r="5.05167" stroke-width="0.5" stroke="Red" fill="Red"/>
   </g>
   <g id="cell70">
  <circle cx="503.566" cy="469.962" r="8.41271" stroke-width="0.5" stroke="black" fill="Red"/>
  <circle cx="503.566" cy="469.962" r="5.05167" stroke-width="0.5" stroke="Red" fill="Red"/>
   </g>
   <g id="cell71">
  <circle cx="498.863" cy="479.994" r="8.41271" stroke-width="0.5" stroke="black" fill="yellow"/>
  <circle cx="498.863" cy="479.994" r="5.05167" stroke-width="0.5" stroke="yellow" fill="yellow"/>
   </g>
   <g id="cell72">
  <circle cx="500.516" cy="495.454" r="8.41271" stroke-width="0.5" stroke="black" fill="Red"/>
  <circle cx="500.516" cy="495.454" r="5.05167" stroke-width="0.5" stroke="Red" fill="Red"/>
   </g>
   <g id="cell73">
  <circle cx="500.414" cy="509.302" r="8.41271" stroke-width="0.5" stroke="black" fill="Red"/>
  <circle cx="500.414" cy="509.302" r="5.05167" stroke-width="0.5" stroke="Red" fill="Red"/>
   </g>
   <g id="cell74">
  <circle cx="500.545" cy="524.074" r="8.41271" stroke-width="0.5" stroke="black" fill="Red"/>
  <circle cx="500.545" cy="524.074" r="5.05167" stroke-width="0.5" stroke="Red" fill="Red"/>
   </g>
   <g id="cell75">
  <circle cx="500.901" cy="538.226" r="8.41271" stroke-width="0.5" stroke="black" fill="blue"/>
  <circle cx="500.901" cy="538.226" r="5.05167" stroke-width="0.5" stroke="blue" fill="blue"/>
   </g>
   <g id="cell76">
  <circle cx="499.899" cy="551.481" r="8.41271" stroke-width="0.5" stroke="black" fill="Red"/>
  <circle cx="499.899" cy="551.481" r="5.05167" stroke-width="0.5" stroke="Red" fill="Red"/>
   </g>
   <g id="cell77">
  <circle cx="500.278" cy="568.245" r="7.0545" stroke-width="0.5" stroke="black" fill="Red"/>
  <circle cx="500.278" cy="568.245" r="4.27772" stroke-width="0.5" stroke="Red" fill="Red"/>
   </g>
   <g id="cell78">
  <circle cx="502.181" cy="580.935" r="8.41271" stroke-width="0.5" stroke="black" fill="yellow"/>
  <circle cx="502.181" cy="580.935" r="5.05167" stroke-width="0.5" stroke="yellow" fill="yellow"/>
   </g>
   <g id="cell79">
  <circle cx="504.104" cy="596.022" r="8.41271" stroke-width="0.5" stroke="black" fill="blue"/>
  <circle cx="504.104" cy="596.022" r="5.05167" stroke-width="0.5" stroke="blue" fill="blue"/>
   </g>
   <g id="cell80">
  <circle cx="514.962" cy="414.868" r="8.41271" stroke-width="0.5" stroke="black" fill="yellow"/>
  <circle cx="514.962" cy="414.868" r="5.05167" stroke-width="0.5" stroke="yellow" fill="yellow"/>
   </g>
   <g id="cell81">
  <circle cx="514.446" cy="431.344" r="8.41271" stroke-width="0.5" stroke="black" fill="Red"/>
  <circle cx="514.446" cy="431.344" r="5.05167" stroke-width="0.5" stroke="Red" fill="Red"/>
   </g>
   <g id="cell82">
  <circle cx="512.068" cy="445.059" r="8.41271" stroke-width="0.5" stroke="black" fill="Red"/>
  <circle cx="512.068" cy="445.059" r="5.05167" stroke-width="0.5" stroke="Red" fill="Red"/>
   </g>
   <g id="cell83">
  <circle cx="508.182" cy="457.53" r="8.41271" stroke-width="0.5" stroke="black" fill="Red"/>
  <circle cx="508.182" cy="457.53" r="5.05167" stroke-width="0.5" stroke="Red" fill="Red"/>
   </g>
   <g id="cell84">
  <circle cx="513.343" cy="475.083" r="8.41271" stroke-width="0.5" stroke="black" fill="Red"/>
  <circle cx="513.343" cy="475.083" r="5.05167" stroke-width="0.5" stroke="Red" fill="Red"/>
   </g>
   <g id="cell85">
  <circle cx="510.414" cy="485.929" r="8.41271" stroke-width="0.5" stroke="black" fill="blue"/>
  <circle cx="510.414" cy="485.929" r="5.05167" stroke-width="0.5" stroke="blue" fill="blue"/>
   </g>
   <g id="cell86">
  <circle cx="513.027" cy="497.059" r="8.41271" stroke-width="0.5" stroke="black" fill="Red"/>
  <circle cx="513.027" cy="497.059" r="5.05167" stroke-width="0.5" stroke="Red" fill="Red"/>
   </g>
   <g id="cell87">
  <circle cx="511.805" cy="507.323" r="7.1497" stroke-width="0.5" stroke="black" fill="Red"/>
  <circle cx="511.805" cy="507.323" r="4.34001" stroke-width="0.5" stroke="Red" fill="Red"/>
   </g>
   <g id="cell88">
  <circle cx="513.008" cy="531.334" r="8.41271" stroke-width="0.5" stroke="black" fill="Red"/>
  <circle cx="513.008" cy="531.334" r="5.05167" stroke-width="0.5" stroke="Red" fill="Red"/>
   </g>
   <g id="cell89">
  <circle cx="511.91" cy="546.387" r="8.41271" stroke-width="0.5" stroke="black" fill="Red"/>
  <circle cx="511.91" cy="546.387" r="5.05167" stroke-width="0.5" stroke="Red" fill="Red"/>
   </g>
   <g id="cell90">
  <circle cx="515.902" cy="558.151" r="8.41271" stroke-width="0.5" stroke="black" fill="Red"/>
  <circle cx="515.902" cy="558.151" r="5.05167" stroke-width="0.5" stroke="Red" fill="Red"/>
   </g>
   <g id="cell91">
  <circle cx="512.414" cy="571.651" r="8.41271" stroke-width="0.5" stroke="black" fill="Red"/>
  <circle cx="512.414" cy="571.651" r="5.05167" stroke-width="0.5" stroke="Red" fill="Red"/>
   </g>
   <g id="cell92">
  <circle cx="516.719" cy="585.71" r="8.41271" stroke-width="0.5" stroke="black" fill="yellow"/>
  <circle cx="516.719" cy="585.71" r="5.05167" stroke-width="0.5" stroke="yellow" fill="yellow"/>
   </g>
   <g id="cell93">
  <circle cx="529.925" cy="414.21" r="8.41271" stroke-width="0.5" stroke="black" fill="blue"/>
  <circle cx="529.925" cy="414.21" r="5.05167" stroke-width="0.5" stroke="blue" fill="blue"/>
   </g>
   <g id="cell94">
  <circle cx="536.407" cy="426.124" r="7.18097" stroke-width="0.5" stroke="black" fill="yellow"/>
  <circle cx="536.407" cy="426.124" r="4.36015" stroke-width="0.5" stroke="yellow" fill="yellow"/>
   </g>
   <g id="cell95">
  <circle cx="527.477" cy="435.853" r="8.41271" stroke-width="0.5" stroke="black" fill="Red"/>
  <circle cx="527.477" cy="435.853" r="5.05167" stroke-width="0.5" stroke="Red" fill="Red"/>
   </g>
   <g id="cell96">
  <circle cx="521.131" cy="445.394" r="6.18436" stroke-width="0.5" stroke="black" fill="blue"/>
  <circle cx="521.131" cy="445.394" r="3.78129" stroke-width="0.5" stroke="blue" fill="blue"/>
   </g>
   <g id="cell97">
  <circle cx="518.592" cy="465.12" r="8.41271" stroke-width="0.5" stroke="black" fill="Red"/>
  <circle cx="518.592" cy="465.12" r="5.05167" stroke-width="0.5" stroke="Red" fill="Red"/>
   </g>
   <g id="cell98">
  <circle cx="526.622" cy="484.323" r="5.57346" stroke-width="0.5" stroke="black" fill="blue"/>
  <circle cx="526.622" cy="484.323" r="3.37952" stroke-width="0.5" stroke="blue" fill="blue"/>
   </g>
   <g id="cell99">
  <circle cx="524.961" cy="496.431" r="8.41271" stroke-width="0.5" stroke="black" fill="Red"/>
  <circle cx="524.961" cy="496.431" r="5.05167" stroke-width="0.5" stroke="Red" fill="Red"/>
   </g>
   <g id="cell100">
  <circle cx="523.305" cy="508.778" r="8.41271" stroke-width="0.5" stroke="black" fill="Red"/>
  <circle cx="523.305" cy="508.778" r="5.05167" stroke-width="0.5" stroke="Red" fill="Red"/>
   </g>
   <g id="cell101">
  <circle cx="522.727" cy="522.697" r="8.41271" stroke-width="0.5" stroke="black" fill="yellow"/>
  <circle cx="522.727" cy="522.697" r="5.05167" stroke-width="0.5" stroke="yellow" fill="yellow"/>
   </g>
   <g id="cell102">
  <circle cx="528.952" cy="533.121" r="7.41548" stroke-width="0.5" stroke="black" fill="Red"/>
  <circle cx="528.952" cy="533.121" r="4.50723" stroke-width="0.5" stroke="Red" fill="Red"/>
   </g>
   <g id="cell103">
  <circle cx="527.225" cy="550.028" r="8.41271" stroke-width="0.5" stroke="black" fill="Red"/>
  <circle cx="527.225" cy="550.028" r="5.05167" stroke-width="0.5" stroke="Red" fill="Red"/>
   </g>
   <g id="cell104">
  <circle cx="527.063" cy="562.531" r="8.41271" stroke-width="0.5" stroke="black" fill="Red"/>
  <circle cx="527.063" cy="562.531" r="5.05167" stroke-width="0.5" stroke="Red" fill="Red"/>
   </g>
   <g id="cell105">
  <circle cx="524.948" cy="574.443" r="8.41271" stroke-width="0.5" stroke="black" fill="blue"/>
  <circle cx="524.948" cy="574.443" r="5.05167" stroke-width="0.5" stroke="blue" fill="blue"/>
   </g>
   <g id="cell106">
  <circle cx="544.482" cy="416.186" r="8.41271" stroke-width="0.5" stroke="black" fill="yellow"/>
  <circle cx="544.482" cy="416.186" r="5.05167" stroke-width="0.5" stroke="yellow" fill="yellow"/>
   </g>
   <g id="cell107">
  <circle cx="541.329" cy="437.882" r="8.41271" stroke-width="0.5" stroke="black" fill="yellow"/>
  <circle cx="541.329" cy="437.882" r="5.05167" stroke-width="0.5" stroke="yellow" fill="yellow"/>
   </g>
   <g id="cell108">
  <circle cx="531.714" cy="447.762" r="8.41271" stroke-width="0.5" stroke="black" fill="Red"/>
  <circle cx="531.714" cy="447.762" r="5.05167" stroke-width="0.5" stroke="Red" fill="Red"/>
   </g>
   <g id="cell109">
  <circle cx="541.444" cy="463.545" r="8.41271" stroke-width="0.5" stroke="black" fill="Red"/>
  <circle cx="541.444" cy="463.545" r="5.05167" stroke-width="0.5" stroke="Red" fill="Red"/>
   </g>
   <g id="cell110">
  <circle cx="536.062" cy="476.046" r="8.41271" stroke-width="0.5" stroke="black" fill="Red"/>
  <circle cx="536.062" cy="476.046" r="5.05167" stroke-width="0.5" stroke="Red" fill="Red"/>
   </g>
   <g id="cell111">
  <circle cx="536.067" cy="488.521" r="8.41271" stroke-width="0.5" stroke="black" fill="Red"/>
  <circle cx="536.067" cy="488.521" r="5.05167" stroke-width="0.5" stroke="Red" fill="Red"/>
   </g>
   <g id="cell112">
  <circle cx="536.454" cy="503.408" r="8.41271" stroke-width="0.5" stroke="black" fill="Red"/>
  <circle cx="536.454" cy="503.408" r="5.05167" stroke-width="0.5" stroke="Red" fill="Red"/>
   </g>
   <g id="cell113">
  <circle cx="534.15" cy="516.644" r="8.41271" stroke-width="0.5" stroke="black" fill="blue"/>
  <circle cx="534.15" cy="516.644" r="5.05167" stroke-width="0.5" stroke="blue" fill="blue"/>
   </g>
   <g id="cell114">
  <circle cx="538.816" cy="527.802" r="8.41271" stroke-width="0.5" stroke="black" fill="Red"/>
  <circle cx="538.816" cy="527.802" r="5.05167" stroke-width="0.5" stroke="Red" fill="Red"/>
   </g>
   <g id="cell115">
  <circle cx="537.784" cy="541.608" r="8.41271" stroke-width="0.5" stroke="black" fill="Red"/>
  <circle cx="537.784" cy="541.608" r="5.05167" stroke-width="0.5" stroke="Red" fill="Red"/>
   </g>
   <g id="cell116">
  <circle cx="538.884" cy="555.214" r="8.41271" stroke-width="0.5" stroke="black" fill="Red"/>
  <circle cx="538.884" cy="555.214" r="5.05167" stroke-width="0.5" stroke="Red" fill="Red"/>
   </g>
   <g id="cell117">
  <circle cx="538.406" cy="569.207" r="8.41271" stroke-width="0.5" stroke="black" fill="Red"/>
  <circle cx="538.406" cy="569.207" r="5.05167" stroke-width="0.5" stroke="Red" fill="Red"/>
   </g>
   <g id="cell118">
  <circle cx="552.782" cy="429.531" r="8.41271" stroke-width="0.5" stroke="black" fill="blue"/>
  <circle cx="552.782" cy="429.531" r="5.05167" stroke-width="0.5" stroke="blue" fill="blue"/>
   </g>
   <g id="cell119">
  <circle cx="554.162" cy="443.101" r="8.41271" stroke-width="0.5" stroke="black" fill="yellow"/>
  <circle cx="554.162" cy="443.101" r="5.05167" stroke-width="0.5" stroke="yellow" fill="yellow"/>
   </g>
   <g id="cell120">
  <circle cx="554.038" cy="456.826" r="7.1497" stroke-width="0.5" stroke="black" fill="Red"/>
  <circle cx="554.038" cy="456.826" r="4.34001" stroke-width="0.5" stroke="Red" fill="Red"/>
   </g>
   <g id="cell121">
  <circle cx="553.56" cy="470.571" r="8.41271" stroke-width="0.5" stroke="black" fill="Red"/>
  <circle cx="553.56" cy="470.571" r="5.05167" stroke-width="0.5" stroke="Red" fill="Red"/>
   </g>
   <g id="cell122">
  <circle cx="547.391" cy="480.8" r="8.41271" stroke-width="0.5" stroke="black" fill="blue"/>
  <circle cx="547.391" cy="480.8" r="5.05167" stroke-width="0.5" stroke="blue" fill="blue"/>
   </g>
   <g id="cell123">
  <circle cx="546.729" cy="494.397" r="8.41271" stroke-width="0.5" stroke="black" fill="Red"/>
  <circle cx="546.729" cy="494.397" r="5.05167" stroke-width="0.5" stroke="Red" fill="Red"/>
   </g>
   <g id="cell124">
  <circle cx="548.426" cy="508.182" r="8.41271" stroke-width="0.5" stroke="black" fill="Red"/>
  <circle cx="548.426" cy="508.182" r="5.05167" stroke-width="0.5" stroke="Red" fill="Red"/>
   </g>
   <g id="cell125">
  <circle cx="546.748" cy="518.974" r="7.18097" stroke-width="0.5" stroke="black" fill="Red"/>
  <circle cx="546.748" cy="518.974" r="4.36015" stroke-width="0.5" stroke="Red" fill="Red"/>
   </g>
   <g id="cell126">
  <circle cx="551.146" cy="533.327" r="8.41271" stroke-width="0.5" stroke="black" fill="Red"/>
  <circle cx="551.146" cy="533.327" r="5.05167" stroke-width="0.5" stroke="Red" fill="Red"/>
   </g>
   <g id="cell127">
  <circle cx="549.65" cy="548.188" r="8.41271" stroke-width="0.5" stroke="black" fill="Red"/>
  <circle cx="549.65" cy="548.188" r="5.05167" stroke-width="0.5" stroke="Red" fill="Red"/>
   </g>
   <g id="cell128">
  <circle cx="551.569" cy="562.425" r="8.41271" stroke-width="0.5" stroke="black" fill="blue"/>
  <circle cx="551.569" cy="562.425" r="5.05167" stroke-width="0.5" stroke="blue" fill="blue"/>
   </g>
   <g id="cell129">
  <circle cx="576.683" cy="453.57" r="7.11815" stroke-width="0.5" stroke="black" fill="blue"/>
  <circle cx="576.683" cy="453.57" r="4.31954" stroke-width="0.5" stroke="blue" fill="blue"/>
   </g>
   <g id="cell130">
  <circle cx="566.706" cy="461.969" r="8.41271" stroke-width="0.5" stroke="black" fill="yellow"/>
  <circle cx="566.706" cy="461.969" r="5.05167" stroke-width="0.5" stroke="yellow" fill="yellow"/>
   </g>
   <g id="cell131">
  <circle cx="565.649" cy="475.576" r="8.41271" stroke-width="0.5" stroke="black" fill="Red"/>
  <circle cx="565.649" cy="475.576" r="5.05167" stroke-width="0.5" stroke="Red" fill="Red"/>
   </g>
   <g id="cell132">
  <circle cx="559.156" cy="486.566" r="8.41271" stroke-width="0.5" stroke="black" fill="Red"/>
  <circle cx="559.156" cy="486.566" r="5.05167" stroke-width="0.5" stroke="Red" fill="Red"/>
   </g>
   <g id="cell133">
  <circle cx="559.056" cy="499.726" r="8.41271" stroke-width="0.5" stroke="black" fill="blue"/>
  <circle cx="559.056" cy="499.726" r="5.05167" stroke-width="0.5" stroke="blue" fill="blue"/>
   </g>
   <g id="cell134">
  <circle cx="561.799" cy="513.104" r="8.41271" stroke-width="0.5" stroke="black" fill="Red"/>
  <circle cx="561.799" cy="513.104" r="5.05167" stroke-width="0.5" stroke="Red" fill="Red"/>
   </g>
   <g id="cell135">
  <circle cx="566.359" cy="529.342" r="8.41271" stroke-width="0.5" stroke="black" fill="Red"/>
  <circle cx="566.359" cy="529.342" r="5.05167" stroke-width="0.5" stroke="Red" fill="Red"/>
   </g>
   <g id="cell136">
  <circle cx="560.213" cy="540.531" r="8.41271" stroke-width="0.5" stroke="black" fill="Red"/>
  <circle cx="560.213" cy="540.531" r="5.05167" stroke-width="0.5" stroke="Red" fill="Red"/>
   </g>
   <g id="cell137">
  <circle cx="562.685" cy="553.29" r="8.41271" stroke-width="0.5" stroke="black" fill="Red"/>
  <circle cx="562.685" cy="553.29" r="5.05167" stroke-width="0.5" stroke="Red" fill="Red"/>
   </g>
   <g id="cell138">
  <circle cx="578.854" cy="467.233" r="8.41271" stroke-width="0.5" stroke="black" fill="yellow"/>
  <circle cx="578.854" cy="467.233" r="5.05167" stroke-width="0.5" stroke="yellow" fill="yellow"/>
   </g>
   <g id="cell139">
  <circle cx="578.962" cy="481.542" r="8.41271" stroke-width="0.5" stroke="black" fill="yellow"/>
  <circle cx="578.962" cy="481.542" r="5.05167" stroke-width="0.5" stroke="yellow" fill="yellow"/>
   </g>
   <g id="cell140">
  <circle cx="571.399" cy="491.969" r="7.51976" stroke-width="0.5" stroke="black" fill="yellow"/>
  <circle cx="571.399" cy="491.969" r="4.57072" stroke-width="0.5" stroke="yellow" fill="yellow"/>
   </g>
   <g id="cell141">
  <circle cx="574.103" cy="505.745" r="8.41271" stroke-width="0.5" stroke="black" fill="yellow"/>
  <circle cx="574.103" cy="505.745" r="5.05167" stroke-width="0.5" stroke="yellow" fill="yellow"/>
   </g>
   <g id="cell142">
  <circle cx="572.109" cy="519.396" r="6.92764" stroke-width="0.5" stroke="black" fill="blue"/>
  <circle cx="572.109" cy="519.396" r="4.1918" stroke-width="0.5" stroke="blue" fill="blue"/>
   </g>
   <g id="cell143">
  <circle cx="572.724" cy="541.474" r="8.41271" stroke-width="0.5" stroke="black" fill="blue"/>
  <circle cx="572.724" cy="541.474" r="5.05167" stroke-width="0.5" stroke="blue" fill="blue"/>
   </g>
   <g id="cell144">
  <circle cx="437.32" cy="435.291" r="7.51976" stroke-width="0.5" stroke="black" fill="blue"/>
  <circle cx="437.32" cy="435.291" r="4.57072" stroke-width="0.5" stroke="blue" fill="blue"/>
   </g>
   <g id="cell145">
  <circle cx="585.2" cy="495.372" r="7.51976" stroke-width="0.5" stroke="black" fill="blue"/>
  <circle cx="585.2" cy="495.372" r="4.57072" stroke-width="0.5" stroke="blue" fill="blue"/>
   </g>
   <g id="cell146">
  <circle cx="479.408" cy="506.886" r="6.25948" stroke-width="0.5" stroke="black" fill="blue"/>
  <circle cx="479.408" cy="506.886" r="3.8317" stroke-width="0.5" stroke="blue" fill="blue"/>
   </g>
   <g id="cell147">
  <circle cx="530.533" cy="458.184" r="6.84383" stroke-width="0.5" stroke="black" fill="Red"/>
  <circle cx="530.533" cy="458.184" r="4.19918" stroke-width="0.5" stroke="Red" fill="Red"/>
   </g>
   <g id="cell148">
  <circle cx="521.929" cy="540.12" r="7.41548" stroke-width="0.5" stroke="black" fill="blue"/>
  <circle cx="521.929" cy="540.12" r="4.50723" stroke-width="0.5" stroke="blue" fill="blue"/>
   </g>
   <g id="cell149">
  <circle cx="528.904" cy="468.259" r="6.84383" stroke-width="0.5" stroke="black" fill="blue"/>
  <circle cx="528.904" cy="468.259" r="4.19918" stroke-width="0.5" stroke="blue" fill="blue"/>
   </g>
   <g id="cell150">
  <circle cx="445.077" cy="516.422" r="7.27253" stroke-width="0.5" stroke="black" fill="blue"/>
  <circle cx="445.077" cy="516.422" r="4.41835" stroke-width="0.5" stroke="blue" fill="blue"/>
   </g>
   <g id="cell151">
  <circle cx="449.587" cy="416.893" r="7.27253" stroke-width="0.5" stroke="black" fill="blue"/>
  <circle cx="449.587" cy="416.893" r="4.41835" stroke-width="0.5" stroke="blue" fill="blue"/>
   </g>
   <g id="cell152">
  <circle cx="486.638" cy="458.169" r="7.21189" stroke-width="0.5" stroke="black" fill="Red"/>
  <circle cx="486.638" cy="458.169" r="4.37993" stroke-width="0.5" stroke="Red" fill="Red"/>
   </g>
   <g id="cell153">
  <circle cx="524.64" cy="424.158" r="7.18097" stroke-width="0.5" stroke="black" fill="yellow"/>
  <circle cx="524.64" cy="424.158" r="4.36015" stroke-width="0.5" stroke="yellow" fill="yellow"/>
   </g>
   <g id="cell154">
  <circle cx="556.593" cy="522.928" r="7.18097" stroke-width="0.5" stroke="black" fill="blue"/>
  <circle cx="556.593" cy="522.928" r="4.36015" stroke-width="0.5" stroke="blue" fill="blue"/>
   </g>
   <g id="cell155">
  <circle cx="444.212" cy="426.935" r="6.42249" stroke-width="0.5" stroke="black" fill="yellow"/>
  <circle cx="444.212" cy="426.935" r="3.94142" stroke-width="0.5" stroke="yellow" fill="yellow"/>
   </g>
   <g id="cell156">
  <circle cx="511.636" cy="517.707" r="7.1497" stroke-width="0.5" stroke="black" fill="blue"/>
  <circle cx="511.636" cy="517.707" r="4.34001" stroke-width="0.5" stroke="blue" fill="blue"/>
   </g>
   <g id="cell157">
  <circle cx="544.237" cy="451.175" r="7.1497" stroke-width="0.5" stroke="black" fill="blue"/>
  <circle cx="544.237" cy="451.175" r="4.34001" stroke-width="0.5" stroke="blue" fill="blue"/>
   </g>
   <g id="cell158">
  <circle cx="563.749" cy="449.852" r="5.67159" stroke-width="0.5" stroke="black" fill="yellow"/>
  <circle cx="563.749" cy="449.852" r="3.44344" stroke-width="0.5" stroke="yellow" fill="yellow"/>
   </g>
   <g id="cell159">
  <circle cx="471.409" cy="528.745" r="7.08639" stroke-width="0.5" stroke="black" fill="blue"/>
  <circle cx="471.409" cy="528.745" r="4.29876" stroke-width="0.5" stroke="blue" fill="blue"/>
   </g>
   <g id="cell160">
  <circle cx="505.58" cy="560.509" r="7.0545" stroke-width="0.5" stroke="black" fill="blue"/>
  <circle cx="505.58" cy="560.509" r="4.27772" stroke-width="0.5" stroke="blue" fill="blue"/>
   </g>
   <g id="cell161">
  <circle cx="524.103" cy="477.37" r="6.95901" stroke-width="0.5" stroke="black" fill="Red"/>
  <circle cx="524.103" cy="477.37" r="4.21341" stroke-width="0.5" stroke="Red" fill="Red"/>
   </g>
   <g id="cell162">
  <circle cx="578.843" cy="530.359" r="6.92764" stroke-width="0.5" stroke="black" fill="Red"/>
  <circle cx="578.843" cy="530.359" r="4.1918" stroke-width="0.5" stroke="Red" fill="Red"/>
   </g>
   <g id="cell163">
  <circle cx="475.712" cy="516.397" r="6.25948" stroke-width="0.5" stroke="black" fill="Red"/>
  <circle cx="475.712" cy="516.397" r="3.8317" stroke-width="0.5" stroke="Red" fill="Red"/>
   </g>
   <g id="cell164">
  <circle cx="434.027" cy="499.556" r="6.92764" stroke-width="0.5" stroke="black" fill="blue"/>
  <circle cx="434.027" cy="499.556" r="4.1918" stroke-width="0.5" stroke="blue" fill="blue"/>
   </g>
   <g id="cell165">
  <circle cx="467.083" cy="444.774" r="6.86652" stroke-width="0.5" stroke="black" fill="blue"/>
  <circle cx="467.083" cy="444.774" r="4.14883" stroke-width="0.5" stroke="blue" fill="blue"/>
   </g>
   <g id="cell166">
  <circle cx="489.901" cy="441.565" r="6.86652" stroke-width="0.5" stroke="black" fill="blue"/>
  <circle cx="489.901" cy="441.565" r="4.14883" stroke-width="0.5" stroke="blue" fill="blue"/>
   </g>
   <g id="cell167">
  <circle cx="521.165" cy="454.807" r="6.18436" stroke-width="0.5" stroke="black" fill="blue"/>
  <circle cx="521.165" cy="454.807" r="3.78129" stroke-width="0.5" stroke="blue" fill="blue"/>
   </g>
   <g id="cell168">
  <circle cx="431.332" cy="528.608" r="5.45037" stroke-width="0.5" stroke="black" fill="Red"/>
  <circle cx="431.332" cy="528.608" r="3.29261" stroke-width="0.5" stroke="Red" fill="Red"/>
   </g>
   <g id="cell169">
  <circle cx="421.562" cy="456.181" r="6.73287" stroke-width="0.5" stroke="black" fill="blue"/>
  <circle cx="421.562" cy="456.181" r="4.05039" stroke-width="0.5" stroke="blue" fill="blue"/>
   </g>
   <g id="cell170">
  <circle cx="519.791" cy="487.167" r="5.57346" stroke-width="0.5" stroke="black" fill="blue"/>
  <circle cx="519.791" cy="487.167" r="3.37952" stroke-width="0.5" stroke="blue" fill="blue"/>
   </g>
   <g id="cell171">
  <circle cx="452.939" cy="579.376" r="6.69288" stroke-width="0.5" stroke="black" fill="Red"/>
  <circle cx="452.939" cy="579.376" r="4.02051" stroke-width="0.5" stroke="Red" fill="Red"/>
   </g>
   <g id="cell172">
  <circle cx="564.9" cy="440.771" r="5.67159" stroke-width="0.5" stroke="black" fill="Red"/>
  <circle cx="564.9" cy="440.771" r="3.44344" stroke-width="0.5" stroke="Red" fill="Red"/>
   </g>
   <g id="cell173">
  <circle cx="427.569" cy="521.494" r="5.45037" stroke-width="0.5" stroke="black" fill="Red"/>
  <circle cx="427.569" cy="521.494" r="3.29261" stroke-width="0.5" stroke="Red" fill="Red"/>
   </g>
  </g>
 </g>
  <rect x="775" y="1035" width="200" height="10" stroke-width="2" stroke="rgb(255,255,255)" fill="rgb(0,0,0)"/>
  <text x="781.25" y="1028.75"
   font-family="Arial" font-size="25" fill="black" >
   200 &#956;m
  </text>
  <text x="25" y="1045"
   font-family="Arial" font-size="18.75" fill="black" >
   0 days, 0 hours, 1 minutes, and 9.2398 seconds
  </text>
  <rect x="0" y="70" width="1000" height="1000" stroke-width="2" stroke="rgb(0,0,0)" fill="none"/>
</svg>
