<?xml version="1.0" encoding="UTF-8" standalone="no"?>
<!-- Created with PhysiCell (http://PhysiCell.MathCancer.org/) -->
<svg 
 xmlns:dc="http://purl.org/dc/elements/1.1/" 
 xmlns:cc="http://creativecommons.org/ns#" 
 xmlns:rdf="http://www.w3.org/1999/02/22-rdf-syntax-ns#" 
 xmlns:svg="http://www.w3.org/2000/svg" 
 xmlns="http://www.w3.org/2000/svg" 
 version="1.1" 
 width="1000" 
 height="1070" 
 id="svg2">
  <rect x="0" y="0" width="1000" height="1070" stroke-width="2" stroke="white" fill="white"/>
  <text x="12.5" y="30"
   font-family="Arial" font-size="25" fill="black" >
   Current time: 0 days, 3 hours, and 5.00 minutes, z = 0.00 &#956;m
  </text>
  <text x="12.5" y="57.5"
   font-family="Arial" font-size="23.75" fill="black" >
   171 agents
  </text>
 <g id="tissue" 
    transform="translate(0,1070) scale(1,-1)">
  <g id="ECM">
  </g>
  <g id="cells">
   <g id="cell0">
  <circle cx="431.062" cy="448.67" r="8.41271" stroke-width="0.5" stroke="black" fill="blue"/>
  <circle cx="431.062" cy="448.67" r="5.05167" stroke-width="0.5" stroke="blue" fill="blue"/>
   </g>
   <g id="cell1">
  <circle cx="429.935" cy="466.271" r="6.69288" stroke-width="0.5" stroke="black" fill="Red"/>
  <circle cx="429.935" cy="466.271" r="4.02051" stroke-width="0.5" stroke="Red" fill="Red"/>
   </g>
   <g id="cell2">
  <circle cx="426.239" cy="478.306" r="8.41271" stroke-width="0.5" stroke="black" fill="blue"/>
  <circle cx="426.239" cy="478.306" r="5.05167" stroke-width="0.5" stroke="blue" fill="blue"/>
   </g>
   <g id="cell3">
  <circle cx="426.875" cy="490.862" r="6.86652" stroke-width="0.5" stroke="black" fill="Red"/>
  <circle cx="426.875" cy="490.862" r="4.14883" stroke-width="0.5" stroke="Red" fill="Red"/>
   </g>
   <g id="cell4">
  <circle cx="431.029" cy="513.569" r="8.41271" stroke-width="0.5" stroke="black" fill="Red"/>
  <circle cx="431.029" cy="513.569" r="5.05167" stroke-width="0.5" stroke="Red" fill="Red"/>
   </g>
   <g id="cell5">
  <circle cx="420.852" cy="524.18" r="6.78181" stroke-width="0.5" stroke="black" fill="Red"/>
  <circle cx="420.852" cy="524.18" r="4.08714" stroke-width="0.5" stroke="Red" fill="Red"/>
   </g>
   <g id="cell6">
  <circle cx="426.085" cy="536.442" r="8.41271" stroke-width="0.5" stroke="black" fill="blue"/>
  <circle cx="426.085" cy="536.442" r="5.05167" stroke-width="0.5" stroke="blue" fill="blue"/>
   </g>
   <g id="cell7">
  <circle cx="442.464" cy="446.121" r="7.46878" stroke-width="0.5" stroke="black" fill="Red"/>
  <circle cx="442.464" cy="446.121" r="4.53982" stroke-width="0.5" stroke="Red" fill="Red"/>
   </g>
   <g id="cell8">
  <circle cx="439.539" cy="459.401" r="8.41271" stroke-width="0.5" stroke="black" fill="Red"/>
  <circle cx="439.539" cy="459.401" r="5.05167" stroke-width="0.5" stroke="Red" fill="Red"/>
   </g>
   <g id="cell9">
  <circle cx="439.595" cy="473.943" r="8.41271" stroke-width="0.5" stroke="black" fill="Red"/>
  <circle cx="439.595" cy="473.943" r="5.05167" stroke-width="0.5" stroke="Red" fill="Red"/>
   </g>
   <g id="cell10">
  <circle cx="439.029" cy="489.055" r="8.41271" stroke-width="0.5" stroke="black" fill="yellow"/>
  <circle cx="439.029" cy="489.055" r="5.05167" stroke-width="0.5" stroke="yellow" fill="yellow"/>
   </g>
   <g id="cell11">
  <circle cx="441.758" cy="504.021" r="8.41271" stroke-width="0.5" stroke="black" fill="Red"/>
  <circle cx="441.758" cy="504.021" r="5.05167" stroke-width="0.5" stroke="Red" fill="Red"/>
   </g>
   <g id="cell12">
  <circle cx="440.734" cy="521.96" r="7.21189" stroke-width="0.5" stroke="black" fill="Red"/>
  <circle cx="440.734" cy="521.96" r="4.37993" stroke-width="0.5" stroke="Red" fill="Red"/>
   </g>
   <g id="cell13">
  <circle cx="442.357" cy="534.279" r="8.41271" stroke-width="0.5" stroke="black" fill="yellow"/>
  <circle cx="442.357" cy="534.279" r="5.05167" stroke-width="0.5" stroke="yellow" fill="yellow"/>
   </g>
   <g id="cell14">
  <circle cx="438.324" cy="547.947" r="8.41271" stroke-width="0.5" stroke="black" fill="yellow"/>
  <circle cx="438.324" cy="547.947" r="5.05167" stroke-width="0.5" stroke="yellow" fill="yellow"/>
   </g>
   <g id="cell15">
  <circle cx="440.607" cy="562.477" r="8.41271" stroke-width="0.5" stroke="black" fill="blue"/>
  <circle cx="440.607" cy="562.477" r="5.05167" stroke-width="0.5" stroke="blue" fill="blue"/>
   </g>
   <g id="cell16">
  <circle cx="455.316" cy="427.066" r="6.30393" stroke-width="0.5" stroke="black" fill="Red"/>
  <circle cx="455.316" cy="427.066" r="3.8673" stroke-width="0.5" stroke="Red" fill="Red"/>
   </g>
   <g id="cell17">
  <circle cx="453.061" cy="439.263" r="8.41271" stroke-width="0.5" stroke="black" fill="Red"/>
  <circle cx="453.061" cy="439.263" r="5.05167" stroke-width="0.5" stroke="Red" fill="Red"/>
   </g>
   <g id="cell18">
  <circle cx="450.696" cy="453.305" r="8.41271" stroke-width="0.5" stroke="black" fill="Red"/>
  <circle cx="450.696" cy="453.305" r="5.05167" stroke-width="0.5" stroke="Red" fill="Red"/>
   </g>
   <g id="cell19">
  <circle cx="452.344" cy="466.711" r="8.41271" stroke-width="0.5" stroke="black" fill="blue"/>
  <circle cx="452.344" cy="466.711" r="5.05167" stroke-width="0.5" stroke="blue" fill="blue"/>
   </g>
   <g id="cell20">
  <circle cx="451.224" cy="480.307" r="8.41271" stroke-width="0.5" stroke="black" fill="Red"/>
  <circle cx="451.224" cy="480.307" r="5.05167" stroke-width="0.5" stroke="Red" fill="Red"/>
   </g>
   <g id="cell21">
  <circle cx="451.579" cy="494.944" r="8.41271" stroke-width="0.5" stroke="black" fill="blue"/>
  <circle cx="451.579" cy="494.944" r="5.05167" stroke-width="0.5" stroke="blue" fill="blue"/>
   </g>
   <g id="cell22">
  <circle cx="456.39" cy="508.714" r="8.41271" stroke-width="0.5" stroke="black" fill="Red"/>
  <circle cx="456.39" cy="508.714" r="5.05167" stroke-width="0.5" stroke="Red" fill="Red"/>
   </g>
   <g id="cell23">
  <circle cx="452.161" cy="524.551" r="8.41271" stroke-width="0.5" stroke="black" fill="Red"/>
  <circle cx="452.161" cy="524.551" r="5.05167" stroke-width="0.5" stroke="Red" fill="Red"/>
   </g>
   <g id="cell24">
  <circle cx="451.286" cy="541.722" r="8.41271" stroke-width="0.5" stroke="black" fill="blue"/>
  <circle cx="451.286" cy="541.722" r="5.05167" stroke-width="0.5" stroke="blue" fill="blue"/>
   </g>
   <g id="cell25">
  <circle cx="452.792" cy="554.07" r="8.41271" stroke-width="0.5" stroke="black" fill="Red"/>
  <circle cx="452.792" cy="554.07" r="5.05167" stroke-width="0.5" stroke="Red" fill="Red"/>
   </g>
   <g id="cell26">
  <circle cx="452.449" cy="569.034" r="8.41271" stroke-width="0.5" stroke="black" fill="yellow"/>
  <circle cx="452.449" cy="569.034" r="5.05167" stroke-width="0.5" stroke="yellow" fill="yellow"/>
   </g>
   <g id="cell27">
  <circle cx="463.639" cy="417.697" r="8.41271" stroke-width="0.5" stroke="black" fill="yellow"/>
  <circle cx="463.639" cy="417.697" r="5.05167" stroke-width="0.5" stroke="yellow" fill="yellow"/>
   </g>
   <g id="cell28">
  <circle cx="465.556" cy="432.857" r="8.41271" stroke-width="0.5" stroke="black" fill="Red"/>
  <circle cx="465.556" cy="432.857" r="5.05167" stroke-width="0.5" stroke="Red" fill="Red"/>
   </g>
   <g id="cell29">
  <circle cx="460.167" cy="449.475" r="6.80881" stroke-width="0.5" stroke="black" fill="Red"/>
  <circle cx="460.167" cy="449.475" r="4.10709" stroke-width="0.5" stroke="Red" fill="Red"/>
   </g>
   <g id="cell30">
  <circle cx="463.398" cy="460.014" r="8.41271" stroke-width="0.5" stroke="black" fill="Red"/>
  <circle cx="463.398" cy="460.014" r="5.05167" stroke-width="0.5" stroke="Red" fill="Red"/>
   </g>
   <g id="cell31">
  <circle cx="464.837" cy="473.748" r="8.41271" stroke-width="0.5" stroke="black" fill="Red"/>
  <circle cx="464.837" cy="473.748" r="5.05167" stroke-width="0.5" stroke="Red" fill="Red"/>
   </g>
   <g id="cell32">
  <circle cx="463.367" cy="486.898" r="8.41271" stroke-width="0.5" stroke="black" fill="blue"/>
  <circle cx="463.367" cy="486.898" r="5.05167" stroke-width="0.5" stroke="blue" fill="blue"/>
   </g>
   <g id="cell33">
  <circle cx="464.907" cy="498.994" r="8.41271" stroke-width="0.5" stroke="black" fill="blue"/>
  <circle cx="464.907" cy="498.994" r="5.05167" stroke-width="0.5" stroke="blue" fill="blue"/>
   </g>
   <g id="cell34">
  <circle cx="464.599" cy="519.476" r="8.41271" stroke-width="0.5" stroke="black" fill="Red"/>
  <circle cx="464.599" cy="519.476" r="5.05167" stroke-width="0.5" stroke="Red" fill="Red"/>
   </g>
   <g id="cell35">
  <circle cx="461.795" cy="534.616" r="8.41271" stroke-width="0.5" stroke="black" fill="Red"/>
  <circle cx="461.795" cy="534.616" r="5.05167" stroke-width="0.5" stroke="Red" fill="Red"/>
   </g>
   <g id="cell36">
  <circle cx="465.55" cy="546.146" r="8.41271" stroke-width="0.5" stroke="black" fill="Red"/>
  <circle cx="465.55" cy="546.146" r="5.05167" stroke-width="0.5" stroke="Red" fill="Red"/>
   </g>
   <g id="cell37">
  <circle cx="464.47" cy="560.201" r="8.41271" stroke-width="0.5" stroke="black" fill="Red"/>
  <circle cx="464.47" cy="560.201" r="5.05167" stroke-width="0.5" stroke="Red" fill="Red"/>
   </g>
   <g id="cell38">
  <circle cx="465.552" cy="573.777" r="8.41271" stroke-width="0.5" stroke="black" fill="yellow"/>
  <circle cx="465.552" cy="573.777" r="5.05167" stroke-width="0.5" stroke="yellow" fill="yellow"/>
   </g>
   <g id="cell39">
  <circle cx="459.768" cy="584.782" r="8.41271" stroke-width="0.5" stroke="black" fill="blue"/>
  <circle cx="459.768" cy="584.782" r="5.05167" stroke-width="0.5" stroke="blue" fill="blue"/>
   </g>
   <g id="cell40">
  <circle cx="475.482" cy="410.184" r="8.41271" stroke-width="0.5" stroke="black" fill="blue"/>
  <circle cx="475.482" cy="410.184" r="5.05167" stroke-width="0.5" stroke="blue" fill="blue"/>
   </g>
   <g id="cell41">
  <circle cx="476.126" cy="424.234" r="8.41271" stroke-width="0.5" stroke="black" fill="yellow"/>
  <circle cx="476.126" cy="424.234" r="5.05167" stroke-width="0.5" stroke="yellow" fill="yellow"/>
   </g>
   <g id="cell42">
  <circle cx="477.751" cy="438.809" r="8.41271" stroke-width="0.5" stroke="black" fill="Red"/>
  <circle cx="477.751" cy="438.809" r="5.05167" stroke-width="0.5" stroke="Red" fill="Red"/>
   </g>
   <g id="cell43">
  <circle cx="474.542" cy="453.412" r="8.41271" stroke-width="0.5" stroke="black" fill="Red"/>
  <circle cx="474.542" cy="453.412" r="5.05167" stroke-width="0.5" stroke="Red" fill="Red"/>
   </g>
   <g id="cell44">
  <circle cx="478.174" cy="467.177" r="8.41271" stroke-width="0.5" stroke="black" fill="Red"/>
  <circle cx="478.174" cy="467.177" r="5.05167" stroke-width="0.5" stroke="Red" fill="Red"/>
   </g>
   <g id="cell45">
  <circle cx="476.438" cy="481.219" r="8.41271" stroke-width="0.5" stroke="black" fill="Red"/>
  <circle cx="476.438" cy="481.219" r="5.05167" stroke-width="0.5" stroke="Red" fill="Red"/>
   </g>
   <g id="cell46">
  <circle cx="476.867" cy="495.145" r="8.41271" stroke-width="0.5" stroke="black" fill="Red"/>
  <circle cx="476.867" cy="495.145" r="5.05167" stroke-width="0.5" stroke="Red" fill="Red"/>
   </g>
   <g id="cell47">
  <circle cx="470.268" cy="508.686" r="7.44242" stroke-width="0.5" stroke="black" fill="Red"/>
  <circle cx="470.268" cy="508.686" r="4.52373" stroke-width="0.5" stroke="Red" fill="Red"/>
   </g>
   <g id="cell48">
  <circle cx="480.053" cy="524.615" r="7.02257" stroke-width="0.5" stroke="black" fill="Red"/>
  <circle cx="480.053" cy="524.615" r="4.25644" stroke-width="0.5" stroke="Red" fill="Red"/>
   </g>
   <g id="cell49">
  <circle cx="476.793" cy="538.69" r="8.41271" stroke-width="0.5" stroke="black" fill="Red"/>
  <circle cx="476.793" cy="538.69" r="5.05167" stroke-width="0.5" stroke="Red" fill="Red"/>
   </g>
   <g id="cell50">
  <circle cx="477.018" cy="552.908" r="8.41271" stroke-width="0.5" stroke="black" fill="Red"/>
  <circle cx="477.018" cy="552.908" r="5.05167" stroke-width="0.5" stroke="Red" fill="Red"/>
   </g>
   <g id="cell51">
  <circle cx="477.578" cy="566.644" r="8.41271" stroke-width="0.5" stroke="black" fill="blue"/>
  <circle cx="477.578" cy="566.644" r="5.05167" stroke-width="0.5" stroke="blue" fill="blue"/>
   </g>
   <g id="cell52">
  <circle cx="476.827" cy="582.656" r="8.41271" stroke-width="0.5" stroke="black" fill="Red"/>
  <circle cx="476.827" cy="582.656" r="5.05167" stroke-width="0.5" stroke="Red" fill="Red"/>
   </g>
   <g id="cell53">
  <circle cx="488.551" cy="416.716" r="8.41271" stroke-width="0.5" stroke="black" fill="yellow"/>
  <circle cx="488.551" cy="416.716" r="5.05167" stroke-width="0.5" stroke="yellow" fill="yellow"/>
   </g>
   <g id="cell54">
  <circle cx="488.95" cy="430.826" r="8.41271" stroke-width="0.5" stroke="black" fill="blue"/>
  <circle cx="488.95" cy="430.826" r="5.05167" stroke-width="0.5" stroke="blue" fill="blue"/>
   </g>
   <g id="cell55">
  <circle cx="484.602" cy="447.824" r="6.80881" stroke-width="0.5" stroke="black" fill="Red"/>
  <circle cx="484.602" cy="447.824" r="4.10709" stroke-width="0.5" stroke="Red" fill="Red"/>
   </g>
   <g id="cell56">
  <circle cx="493.643" cy="465.477" r="7.1497" stroke-width="0.5" stroke="black" fill="blue"/>
  <circle cx="493.643" cy="465.477" r="4.34001" stroke-width="0.5" stroke="blue" fill="blue"/>
   </g>
   <g id="cell57">
  <circle cx="488.26" cy="475.474" r="8.41271" stroke-width="0.5" stroke="black" fill="Red"/>
  <circle cx="488.26" cy="475.474" r="5.05167" stroke-width="0.5" stroke="Red" fill="Red"/>
   </g>
   <g id="cell58">
  <circle cx="488.982" cy="488.641" r="8.41271" stroke-width="0.5" stroke="black" fill="blue"/>
  <circle cx="488.982" cy="488.641" r="5.05167" stroke-width="0.5" stroke="blue" fill="blue"/>
   </g>
   <g id="cell59">
  <circle cx="488.724" cy="501.749" r="8.41271" stroke-width="0.5" stroke="black" fill="Red"/>
  <circle cx="488.724" cy="501.749" r="5.05167" stroke-width="0.5" stroke="Red" fill="Red"/>
   </g>
   <g id="cell60">
  <circle cx="488.026" cy="516.648" r="8.41271" stroke-width="0.5" stroke="black" fill="Red"/>
  <circle cx="488.026" cy="516.648" r="5.05167" stroke-width="0.5" stroke="Red" fill="Red"/>
   </g>
   <g id="cell61">
  <circle cx="488.934" cy="530.876" r="8.41271" stroke-width="0.5" stroke="black" fill="Red"/>
  <circle cx="488.934" cy="530.876" r="5.05167" stroke-width="0.5" stroke="Red" fill="Red"/>
   </g>
   <g id="cell62">
  <circle cx="488.531" cy="543.995" r="8.41271" stroke-width="0.5" stroke="black" fill="blue"/>
  <circle cx="488.531" cy="543.995" r="5.05167" stroke-width="0.5" stroke="blue" fill="blue"/>
   </g>
   <g id="cell63">
  <circle cx="489.301" cy="559.565" r="8.41271" stroke-width="0.5" stroke="black" fill="Red"/>
  <circle cx="489.301" cy="559.565" r="5.05167" stroke-width="0.5" stroke="Red" fill="Red"/>
   </g>
   <g id="cell64">
  <circle cx="489.145" cy="574.372" r="8.41271" stroke-width="0.5" stroke="black" fill="Red"/>
  <circle cx="489.145" cy="574.372" r="5.05167" stroke-width="0.5" stroke="Red" fill="Red"/>
   </g>
   <g id="cell65">
  <circle cx="490.66" cy="589.047" r="8.41271" stroke-width="0.5" stroke="black" fill="Red"/>
  <circle cx="490.66" cy="589.047" r="5.05167" stroke-width="0.5" stroke="Red" fill="Red"/>
   </g>
   <g id="cell66">
  <circle cx="500.959" cy="409.529" r="8.41271" stroke-width="0.5" stroke="black" fill="blue"/>
  <circle cx="500.959" cy="409.529" r="5.05167" stroke-width="0.5" stroke="blue" fill="blue"/>
   </g>
   <g id="cell67">
  <circle cx="501.517" cy="425.04" r="8.41271" stroke-width="0.5" stroke="black" fill="Red"/>
  <circle cx="501.517" cy="425.04" r="5.05167" stroke-width="0.5" stroke="Red" fill="Red"/>
   </g>
   <g id="cell68">
  <circle cx="502.268" cy="438.656" r="8.41271" stroke-width="0.5" stroke="black" fill="Red"/>
  <circle cx="502.268" cy="438.656" r="5.05167" stroke-width="0.5" stroke="Red" fill="Red"/>
   </g>
   <g id="cell69">
  <circle cx="497.921" cy="452.683" r="8.41271" stroke-width="0.5" stroke="black" fill="Red"/>
  <circle cx="497.921" cy="452.683" r="5.05167" stroke-width="0.5" stroke="Red" fill="Red"/>
   </g>
   <g id="cell70">
  <circle cx="503.312" cy="468.761" r="8.41271" stroke-width="0.5" stroke="black" fill="blue"/>
  <circle cx="503.312" cy="468.761" r="5.05167" stroke-width="0.5" stroke="blue" fill="blue"/>
   </g>
   <g id="cell71">
  <circle cx="500.278" cy="479.927" r="8.41271" stroke-width="0.5" stroke="black" fill="Red"/>
  <circle cx="500.278" cy="479.927" r="5.05167" stroke-width="0.5" stroke="Red" fill="Red"/>
   </g>
   <g id="cell72">
  <circle cx="501.012" cy="495.578" r="8.41271" stroke-width="0.5" stroke="black" fill="Red"/>
  <circle cx="501.012" cy="495.578" r="5.05167" stroke-width="0.5" stroke="Red" fill="Red"/>
   </g>
   <g id="cell73">
  <circle cx="500.806" cy="509.806" r="8.41271" stroke-width="0.5" stroke="black" fill="Red"/>
  <circle cx="500.806" cy="509.806" r="5.05167" stroke-width="0.5" stroke="Red" fill="Red"/>
   </g>
   <g id="cell74">
  <circle cx="500.515" cy="523.237" r="8.41271" stroke-width="0.5" stroke="black" fill="Red"/>
  <circle cx="500.515" cy="523.237" r="5.05167" stroke-width="0.5" stroke="Red" fill="Red"/>
   </g>
   <g id="cell75">
  <circle cx="500.185" cy="536.914" r="8.41271" stroke-width="0.5" stroke="black" fill="blue"/>
  <circle cx="500.185" cy="536.914" r="5.05167" stroke-width="0.5" stroke="blue" fill="blue"/>
   </g>
   <g id="cell76">
  <circle cx="498.993" cy="550.834" r="8.41271" stroke-width="0.5" stroke="black" fill="Red"/>
  <circle cx="498.993" cy="550.834" r="5.05167" stroke-width="0.5" stroke="Red" fill="Red"/>
   </g>
   <g id="cell77">
  <circle cx="499.584" cy="566.741" r="6.99069" stroke-width="0.5" stroke="black" fill="blue"/>
  <circle cx="499.584" cy="566.741" r="4.23498" stroke-width="0.5" stroke="blue" fill="blue"/>
   </g>
   <g id="cell78">
  <circle cx="501.814" cy="580.515" r="8.41271" stroke-width="0.5" stroke="black" fill="Red"/>
  <circle cx="501.814" cy="580.515" r="5.05167" stroke-width="0.5" stroke="Red" fill="Red"/>
   </g>
   <g id="cell79">
  <circle cx="503.966" cy="594" r="8.41271" stroke-width="0.5" stroke="black" fill="blue"/>
  <circle cx="503.966" cy="594" r="5.05167" stroke-width="0.5" stroke="blue" fill="blue"/>
   </g>
   <g id="cell80">
  <circle cx="514.415" cy="416.041" r="8.41271" stroke-width="0.5" stroke="black" fill="yellow"/>
  <circle cx="514.415" cy="416.041" r="5.05167" stroke-width="0.5" stroke="yellow" fill="yellow"/>
   </g>
   <g id="cell81">
  <circle cx="514.04" cy="433.223" r="8.41271" stroke-width="0.5" stroke="black" fill="Red"/>
  <circle cx="514.04" cy="433.223" r="5.05167" stroke-width="0.5" stroke="Red" fill="Red"/>
   </g>
   <g id="cell82">
  <circle cx="512.127" cy="446.264" r="8.41271" stroke-width="0.5" stroke="black" fill="Red"/>
  <circle cx="512.127" cy="446.264" r="5.05167" stroke-width="0.5" stroke="Red" fill="Red"/>
   </g>
   <g id="cell83">
  <circle cx="508.794" cy="458.379" r="8.41271" stroke-width="0.5" stroke="black" fill="Red"/>
  <circle cx="508.794" cy="458.379" r="5.05167" stroke-width="0.5" stroke="Red" fill="Red"/>
   </g>
   <g id="cell84">
  <circle cx="513.761" cy="473.35" r="8.41271" stroke-width="0.5" stroke="black" fill="Red"/>
  <circle cx="513.761" cy="473.35" r="5.05167" stroke-width="0.5" stroke="Red" fill="Red"/>
   </g>
   <g id="cell85">
  <circle cx="510.454" cy="484.754" r="8.41271" stroke-width="0.5" stroke="black" fill="Red"/>
  <circle cx="510.454" cy="484.754" r="5.05167" stroke-width="0.5" stroke="Red" fill="Red"/>
   </g>
   <g id="cell86">
  <circle cx="514.268" cy="494.359" r="8.41271" stroke-width="0.5" stroke="black" fill="blue"/>
  <circle cx="514.268" cy="494.359" r="5.05167" stroke-width="0.5" stroke="blue" fill="blue"/>
   </g>
   <g id="cell87">
  <circle cx="511.857" cy="505.648" r="7.08639" stroke-width="0.5" stroke="black" fill="Red"/>
  <circle cx="511.857" cy="505.648" r="4.29876" stroke-width="0.5" stroke="Red" fill="Red"/>
   </g>
   <g id="cell88">
  <circle cx="513.242" cy="531.442" r="8.41271" stroke-width="0.5" stroke="black" fill="yellow"/>
  <circle cx="513.242" cy="531.442" r="5.05167" stroke-width="0.5" stroke="yellow" fill="yellow"/>
   </g>
   <g id="cell89">
  <circle cx="511.455" cy="546.23" r="8.41271" stroke-width="0.5" stroke="black" fill="Red"/>
  <circle cx="511.455" cy="546.23" r="5.05167" stroke-width="0.5" stroke="Red" fill="Red"/>
   </g>
   <g id="cell90">
  <circle cx="515.899" cy="558.98" r="8.41271" stroke-width="0.5" stroke="black" fill="Red"/>
  <circle cx="515.899" cy="558.98" r="5.05167" stroke-width="0.5" stroke="Red" fill="Red"/>
   </g>
   <g id="cell91">
  <circle cx="511.4" cy="571.261" r="8.41271" stroke-width="0.5" stroke="black" fill="yellow"/>
  <circle cx="511.4" cy="571.261" r="5.05167" stroke-width="0.5" stroke="yellow" fill="yellow"/>
   </g>
   <g id="cell92">
  <circle cx="515.272" cy="586.034" r="8.41271" stroke-width="0.5" stroke="black" fill="Red"/>
  <circle cx="515.272" cy="586.034" r="5.05167" stroke-width="0.5" stroke="Red" fill="Red"/>
   </g>
   <g id="cell93">
  <circle cx="529.775" cy="414.261" r="8.41271" stroke-width="0.5" stroke="black" fill="blue"/>
  <circle cx="529.775" cy="414.261" r="5.05167" stroke-width="0.5" stroke="blue" fill="blue"/>
   </g>
   <g id="cell94">
  <circle cx="535.317" cy="426.453" r="7.11815" stroke-width="0.5" stroke="black" fill="yellow"/>
  <circle cx="535.317" cy="426.453" r="4.31954" stroke-width="0.5" stroke="yellow" fill="yellow"/>
   </g>
   <g id="cell95">
  <circle cx="527.028" cy="435.427" r="8.41271" stroke-width="0.5" stroke="black" fill="Red"/>
  <circle cx="527.028" cy="435.427" r="5.05167" stroke-width="0.5" stroke="Red" fill="Red"/>
   </g>
   <g id="cell96">
  <circle cx="523.325" cy="444.851" r="6.07383" stroke-width="0.5" stroke="black" fill="blue"/>
  <circle cx="523.325" cy="444.851" r="3.70855" stroke-width="0.5" stroke="blue" fill="blue"/>
   </g>
   <g id="cell97">
  <circle cx="519.8" cy="463.784" r="8.41271" stroke-width="0.5" stroke="black" fill="Red"/>
  <circle cx="519.8" cy="463.784" r="5.05167" stroke-width="0.5" stroke="Red" fill="Red"/>
   </g>
   <g id="cell98">
  <circle cx="527.168" cy="486.053" r="5.47396" stroke-width="0.5" stroke="black" fill="blue"/>
  <circle cx="527.168" cy="486.053" r="3.30992" stroke-width="0.5" stroke="blue" fill="blue"/>
   </g>
   <g id="cell99">
  <circle cx="525.68" cy="497.704" r="8.41271" stroke-width="0.5" stroke="black" fill="Red"/>
  <circle cx="525.68" cy="497.704" r="5.05167" stroke-width="0.5" stroke="Red" fill="Red"/>
   </g>
   <g id="cell100">
  <circle cx="523.302" cy="509.969" r="8.41271" stroke-width="0.5" stroke="black" fill="Red"/>
  <circle cx="523.302" cy="509.969" r="5.05167" stroke-width="0.5" stroke="Red" fill="Red"/>
   </g>
   <g id="cell101">
  <circle cx="523.735" cy="523.061" r="8.41271" stroke-width="0.5" stroke="black" fill="Red"/>
  <circle cx="523.735" cy="523.061" r="5.05167" stroke-width="0.5" stroke="Red" fill="Red"/>
   </g>
   <g id="cell102">
  <circle cx="529.572" cy="532.409" r="7.3599" stroke-width="0.5" stroke="black" fill="Red"/>
  <circle cx="529.572" cy="532.409" r="4.47294" stroke-width="0.5" stroke="Red" fill="Red"/>
   </g>
   <g id="cell103">
  <circle cx="526.424" cy="549.876" r="8.41271" stroke-width="0.5" stroke="black" fill="Red"/>
  <circle cx="526.424" cy="549.876" r="5.05167" stroke-width="0.5" stroke="Red" fill="Red"/>
   </g>
   <g id="cell104">
  <circle cx="526.922" cy="562.992" r="8.41271" stroke-width="0.5" stroke="black" fill="Red"/>
  <circle cx="526.922" cy="562.992" r="5.05167" stroke-width="0.5" stroke="Red" fill="Red"/>
   </g>
   <g id="cell105">
  <circle cx="524.798" cy="574.972" r="8.41271" stroke-width="0.5" stroke="black" fill="blue"/>
  <circle cx="524.798" cy="574.972" r="5.05167" stroke-width="0.5" stroke="blue" fill="blue"/>
   </g>
   <g id="cell106">
  <circle cx="543.262" cy="415.453" r="8.41271" stroke-width="0.5" stroke="black" fill="yellow"/>
  <circle cx="543.262" cy="415.453" r="5.05167" stroke-width="0.5" stroke="yellow" fill="yellow"/>
   </g>
   <g id="cell107">
  <circle cx="540.69" cy="437.596" r="8.41271" stroke-width="0.5" stroke="black" fill="yellow"/>
  <circle cx="540.69" cy="437.596" r="5.05167" stroke-width="0.5" stroke="yellow" fill="yellow"/>
   </g>
   <g id="cell108">
  <circle cx="534.046" cy="447.724" r="8.41271" stroke-width="0.5" stroke="black" fill="Red"/>
  <circle cx="534.046" cy="447.724" r="5.05167" stroke-width="0.5" stroke="Red" fill="Red"/>
   </g>
   <g id="cell109">
  <circle cx="541.243" cy="462.797" r="8.41271" stroke-width="0.5" stroke="black" fill="Red"/>
  <circle cx="541.243" cy="462.797" r="5.05167" stroke-width="0.5" stroke="Red" fill="Red"/>
   </g>
   <g id="cell110">
  <circle cx="536.077" cy="475.85" r="8.41271" stroke-width="0.5" stroke="black" fill="Red"/>
  <circle cx="536.077" cy="475.85" r="5.05167" stroke-width="0.5" stroke="Red" fill="Red"/>
   </g>
   <g id="cell111">
  <circle cx="536.409" cy="489.5" r="8.41271" stroke-width="0.5" stroke="black" fill="blue"/>
  <circle cx="536.409" cy="489.5" r="5.05167" stroke-width="0.5" stroke="blue" fill="blue"/>
   </g>
   <g id="cell112">
  <circle cx="537.627" cy="504.024" r="8.41271" stroke-width="0.5" stroke="black" fill="Red"/>
  <circle cx="537.627" cy="504.024" r="5.05167" stroke-width="0.5" stroke="Red" fill="Red"/>
   </g>
   <g id="cell113">
  <circle cx="534.342" cy="516.758" r="8.41271" stroke-width="0.5" stroke="black" fill="blue"/>
  <circle cx="534.342" cy="516.758" r="5.05167" stroke-width="0.5" stroke="blue" fill="blue"/>
   </g>
   <g id="cell114">
  <circle cx="539.853" cy="528.692" r="8.41271" stroke-width="0.5" stroke="black" fill="Red"/>
  <circle cx="539.853" cy="528.692" r="5.05167" stroke-width="0.5" stroke="Red" fill="Red"/>
   </g>
   <g id="cell115">
  <circle cx="537.43" cy="542.214" r="8.41271" stroke-width="0.5" stroke="black" fill="Red"/>
  <circle cx="537.43" cy="542.214" r="5.05167" stroke-width="0.5" stroke="Red" fill="Red"/>
   </g>
   <g id="cell116">
  <circle cx="538.923" cy="556.11" r="8.41271" stroke-width="0.5" stroke="black" fill="Red"/>
  <circle cx="538.923" cy="556.11" r="5.05167" stroke-width="0.5" stroke="Red" fill="Red"/>
   </g>
   <g id="cell117">
  <circle cx="537.786" cy="570.603" r="8.41271" stroke-width="0.5" stroke="black" fill="Red"/>
  <circle cx="537.786" cy="570.603" r="5.05167" stroke-width="0.5" stroke="Red" fill="Red"/>
   </g>
   <g id="cell118">
  <circle cx="551.556" cy="427.02" r="8.41271" stroke-width="0.5" stroke="black" fill="blue"/>
  <circle cx="551.556" cy="427.02" r="5.05167" stroke-width="0.5" stroke="blue" fill="blue"/>
   </g>
   <g id="cell119">
  <circle cx="553.389" cy="442.453" r="8.41271" stroke-width="0.5" stroke="black" fill="yellow"/>
  <circle cx="553.389" cy="442.453" r="5.05167" stroke-width="0.5" stroke="yellow" fill="yellow"/>
   </g>
   <g id="cell120">
  <circle cx="555.251" cy="456.349" r="7.08639" stroke-width="0.5" stroke="black" fill="Red"/>
  <circle cx="555.251" cy="456.349" r="4.29876" stroke-width="0.5" stroke="Red" fill="Red"/>
   </g>
   <g id="cell121">
  <circle cx="553.477" cy="469.243" r="8.41271" stroke-width="0.5" stroke="black" fill="Red"/>
  <circle cx="553.477" cy="469.243" r="5.05167" stroke-width="0.5" stroke="Red" fill="Red"/>
   </g>
   <g id="cell122">
  <circle cx="547.638" cy="480.585" r="8.41271" stroke-width="0.5" stroke="black" fill="Red"/>
  <circle cx="547.638" cy="480.585" r="5.05167" stroke-width="0.5" stroke="Red" fill="Red"/>
   </g>
   <g id="cell123">
  <circle cx="547.401" cy="495.113" r="8.41271" stroke-width="0.5" stroke="black" fill="blue"/>
  <circle cx="547.401" cy="495.113" r="5.05167" stroke-width="0.5" stroke="blue" fill="blue"/>
   </g>
   <g id="cell124">
  <circle cx="549.639" cy="508.931" r="8.41271" stroke-width="0.5" stroke="black" fill="Red"/>
  <circle cx="549.639" cy="508.931" r="5.05167" stroke-width="0.5" stroke="Red" fill="Red"/>
   </g>
   <g id="cell125">
  <circle cx="546.478" cy="518.881" r="7.11815" stroke-width="0.5" stroke="black" fill="Red"/>
  <circle cx="546.478" cy="518.881" r="4.31954" stroke-width="0.5" stroke="Red" fill="Red"/>
   </g>
   <g id="cell126">
  <circle cx="550.089" cy="534.257" r="8.41271" stroke-width="0.5" stroke="black" fill="Red"/>
  <circle cx="550.089" cy="534.257" r="5.05167" stroke-width="0.5" stroke="Red" fill="Red"/>
   </g>
   <g id="cell127">
  <circle cx="550.028" cy="549.057" r="8.41271" stroke-width="0.5" stroke="black" fill="Red"/>
  <circle cx="550.028" cy="549.057" r="5.05167" stroke-width="0.5" stroke="Red" fill="Red"/>
   </g>
   <g id="cell128">
  <circle cx="550.832" cy="562.75" r="8.41271" stroke-width="0.5" stroke="black" fill="blue"/>
  <circle cx="550.832" cy="562.75" r="5.05167" stroke-width="0.5" stroke="blue" fill="blue"/>
   </g>
   <g id="cell129">
  <circle cx="575.661" cy="454.76" r="7.0545" stroke-width="0.5" stroke="black" fill="blue"/>
  <circle cx="575.661" cy="454.76" r="4.27772" stroke-width="0.5" stroke="blue" fill="blue"/>
   </g>
   <g id="cell130">
  <circle cx="565.717" cy="463.057" r="8.41271" stroke-width="0.5" stroke="black" fill="Red"/>
  <circle cx="565.717" cy="463.057" r="5.05167" stroke-width="0.5" stroke="Red" fill="Red"/>
   </g>
   <g id="cell131">
  <circle cx="565.023" cy="476.225" r="8.41271" stroke-width="0.5" stroke="black" fill="Red"/>
  <circle cx="565.023" cy="476.225" r="5.05167" stroke-width="0.5" stroke="Red" fill="Red"/>
   </g>
   <g id="cell132">
  <circle cx="559.247" cy="487.018" r="8.41271" stroke-width="0.5" stroke="black" fill="Red"/>
  <circle cx="559.247" cy="487.018" r="5.05167" stroke-width="0.5" stroke="Red" fill="Red"/>
   </g>
   <g id="cell133">
  <circle cx="560.632" cy="501.168" r="8.41271" stroke-width="0.5" stroke="black" fill="blue"/>
  <circle cx="560.632" cy="501.168" r="5.05167" stroke-width="0.5" stroke="blue" fill="blue"/>
   </g>
   <g id="cell134">
  <circle cx="562.671" cy="514.253" r="8.41271" stroke-width="0.5" stroke="black" fill="Red"/>
  <circle cx="562.671" cy="514.253" r="5.05167" stroke-width="0.5" stroke="Red" fill="Red"/>
   </g>
   <g id="cell135">
  <circle cx="567.708" cy="529.26" r="8.41271" stroke-width="0.5" stroke="black" fill="yellow"/>
  <circle cx="567.708" cy="529.26" r="5.05167" stroke-width="0.5" stroke="yellow" fill="yellow"/>
   </g>
   <g id="cell136">
  <circle cx="560.909" cy="540.551" r="8.41271" stroke-width="0.5" stroke="black" fill="Red"/>
  <circle cx="560.909" cy="540.551" r="5.05167" stroke-width="0.5" stroke="Red" fill="Red"/>
   </g>
   <g id="cell137">
  <circle cx="562.819" cy="554.403" r="8.41271" stroke-width="0.5" stroke="black" fill="blue"/>
  <circle cx="562.819" cy="554.403" r="5.05167" stroke-width="0.5" stroke="blue" fill="blue"/>
   </g>
   <g id="cell138">
  <circle cx="578.288" cy="468.01" r="8.41271" stroke-width="0.5" stroke="black" fill="Red"/>
  <circle cx="578.288" cy="468.01" r="5.05167" stroke-width="0.5" stroke="Red" fill="Red"/>
   </g>
   <g id="cell139">
  <circle cx="578.229" cy="481.85" r="8.41271" stroke-width="0.5" stroke="black" fill="yellow"/>
  <circle cx="578.229" cy="481.85" r="5.05167" stroke-width="0.5" stroke="yellow" fill="yellow"/>
   </g>
   <g id="cell140">
  <circle cx="571.193" cy="493.117" r="7.46878" stroke-width="0.5" stroke="black" fill="yellow"/>
  <circle cx="571.193" cy="493.117" r="4.53982" stroke-width="0.5" stroke="yellow" fill="yellow"/>
   </g>
   <g id="cell141">
  <circle cx="574.601" cy="505.512" r="8.41271" stroke-width="0.5" stroke="black" fill="yellow"/>
  <circle cx="574.601" cy="505.512" r="5.05167" stroke-width="0.5" stroke="yellow" fill="yellow"/>
   </g>
   <g id="cell142">
  <circle cx="574.899" cy="518.089" r="6.86652" stroke-width="0.5" stroke="black" fill="blue"/>
  <circle cx="574.899" cy="518.089" r="4.14883" stroke-width="0.5" stroke="blue" fill="blue"/>
   </g>
   <g id="cell143">
  <circle cx="574.045" cy="541.704" r="8.41271" stroke-width="0.5" stroke="black" fill="blue"/>
  <circle cx="574.045" cy="541.704" r="5.05167" stroke-width="0.5" stroke="blue" fill="blue"/>
   </g>
   <g id="cell144">
  <circle cx="438.371" cy="435.9" r="7.46878" stroke-width="0.5" stroke="black" fill="blue"/>
  <circle cx="438.371" cy="435.9" r="4.53982" stroke-width="0.5" stroke="blue" fill="blue"/>
   </g>
   <g id="cell145">
  <circle cx="585.263" cy="493.238" r="7.46878" stroke-width="0.5" stroke="black" fill="blue"/>
  <circle cx="585.263" cy="493.238" r="4.53982" stroke-width="0.5" stroke="blue" fill="blue"/>
   </g>
   <g id="cell146">
  <circle cx="480.887" cy="508.211" r="6.14611" stroke-width="0.5" stroke="black" fill="blue"/>
  <circle cx="480.887" cy="508.211" r="3.75824" stroke-width="0.5" stroke="blue" fill="blue"/>
   </g>
   <g id="cell147">
  <circle cx="530.349" cy="457.171" r="6.74665" stroke-width="0.5" stroke="black" fill="yellow"/>
  <circle cx="530.349" cy="457.171" r="4.14044" stroke-width="0.5" stroke="yellow" fill="yellow"/>
   </g>
   <g id="cell148">
  <circle cx="523.033" cy="539.115" r="7.3599" stroke-width="0.5" stroke="black" fill="blue"/>
  <circle cx="523.033" cy="539.115" r="4.47294" stroke-width="0.5" stroke="blue" fill="blue"/>
   </g>
   <g id="cell149">
  <circle cx="529.733" cy="466.675" r="6.74665" stroke-width="0.5" stroke="black" fill="blue"/>
  <circle cx="529.733" cy="466.675" r="4.14044" stroke-width="0.5" stroke="blue" fill="blue"/>
   </g>
   <g id="cell150">
  <circle cx="445.939" cy="514.132" r="7.21189" stroke-width="0.5" stroke="black" fill="blue"/>
  <circle cx="445.939" cy="514.132" r="4.37993" stroke-width="0.5" stroke="blue" fill="blue"/>
   </g>
   <g id="cell151">
  <circle cx="450.516" cy="416.305" r="7.21189" stroke-width="0.5" stroke="black" fill="blue"/>
  <circle cx="450.516" cy="416.305" r="4.37993" stroke-width="0.5" stroke="blue" fill="blue"/>
   </g>
   <g id="cell152">
  <circle cx="486.847" cy="457.478" r="7.1497" stroke-width="0.5" stroke="black" fill="blue"/>
  <circle cx="486.847" cy="457.478" r="4.34001" stroke-width="0.5" stroke="blue" fill="blue"/>
   </g>
   <g id="cell153">
  <circle cx="522.775" cy="423.707" r="7.11815" stroke-width="0.5" stroke="black" fill="Red"/>
  <circle cx="522.775" cy="423.707" r="4.31954" stroke-width="0.5" stroke="Red" fill="Red"/>
   </g>
   <g id="cell154">
  <circle cx="556.028" cy="524.261" r="7.11815" stroke-width="0.5" stroke="black" fill="blue"/>
  <circle cx="556.028" cy="524.261" r="4.31954" stroke-width="0.5" stroke="blue" fill="blue"/>
   </g>
   <g id="cell155">
  <circle cx="444.459" cy="426.67" r="6.30393" stroke-width="0.5" stroke="black" fill="Red"/>
  <circle cx="444.459" cy="426.67" r="3.8673" stroke-width="0.5" stroke="Red" fill="Red"/>
   </g>
   <g id="cell156">
  <circle cx="512.957" cy="519.058" r="7.08639" stroke-width="0.5" stroke="black" fill="blue"/>
  <circle cx="512.957" cy="519.058" r="4.29876" stroke-width="0.5" stroke="blue" fill="blue"/>
   </g>
   <g id="cell157">
  <circle cx="545.608" cy="452.197" r="7.08639" stroke-width="0.5" stroke="black" fill="blue"/>
  <circle cx="545.608" cy="452.197" r="4.29876" stroke-width="0.5" stroke="blue" fill="blue"/>
   </g>
   <g id="cell158">
  <circle cx="565.471" cy="449.765" r="7.0545" stroke-width="0.5" stroke="black" fill="yellow"/>
  <circle cx="565.471" cy="449.765" r="4.27772" stroke-width="0.5" stroke="yellow" fill="yellow"/>
   </g>
   <g id="cell159">
  <circle cx="470.642" cy="528.697" r="7.02257" stroke-width="0.5" stroke="black" fill="blue"/>
  <circle cx="470.642" cy="528.697" r="4.25644" stroke-width="0.5" stroke="blue" fill="blue"/>
   </g>
   <g id="cell160">
  <circle cx="505.83" cy="559.075" r="6.99069" stroke-width="0.5" stroke="black" fill="blue"/>
  <circle cx="505.83" cy="559.075" r="4.23498" stroke-width="0.5" stroke="blue" fill="blue"/>
   </g>
   <g id="cell161">
  <circle cx="523.956" cy="476.779" r="6.89675" stroke-width="0.5" stroke="black" fill="Red"/>
  <circle cx="523.956" cy="476.779" r="4.17024" stroke-width="0.5" stroke="Red" fill="Red"/>
   </g>
   <g id="cell162">
  <circle cx="579.159" cy="529.093" r="6.86652" stroke-width="0.5" stroke="black" fill="Red"/>
  <circle cx="579.159" cy="529.093" r="4.14883" stroke-width="0.5" stroke="Red" fill="Red"/>
   </g>
   <g id="cell163">
  <circle cx="475.403" cy="517.068" r="6.14611" stroke-width="0.5" stroke="black" fill="Red"/>
  <circle cx="475.403" cy="517.068" r="3.75824" stroke-width="0.5" stroke="Red" fill="Red"/>
   </g>
   <g id="cell164">
  <circle cx="430.425" cy="500.639" r="6.86652" stroke-width="0.5" stroke="black" fill="blue"/>
  <circle cx="430.425" cy="500.639" r="4.14883" stroke-width="0.5" stroke="blue" fill="blue"/>
   </g>
   <g id="cell165">
  <circle cx="466.397" cy="444.832" r="6.80881" stroke-width="0.5" stroke="black" fill="blue"/>
  <circle cx="466.397" cy="444.832" r="4.10709" stroke-width="0.5" stroke="blue" fill="blue"/>
   </g>
   <g id="cell166">
  <circle cx="491.461" cy="442.493" r="6.80881" stroke-width="0.5" stroke="black" fill="Red"/>
  <circle cx="491.461" cy="442.493" r="4.10709" stroke-width="0.5" stroke="Red" fill="Red"/>
   </g>
   <g id="cell167">
  <circle cx="520.119" cy="453.343" r="6.07383" stroke-width="0.5" stroke="black" fill="blue"/>
  <circle cx="520.119" cy="453.343" r="3.70855" stroke-width="0.5" stroke="blue" fill="blue"/>
   </g>
   <g id="cell168">
  <circle cx="431.637" cy="526.079" r="6.78181" stroke-width="0.5" stroke="black" fill="Red"/>
  <circle cx="431.637" cy="526.079" r="4.08714" stroke-width="0.5" stroke="Red" fill="Red"/>
   </g>
   <g id="cell169">
  <circle cx="424.081" cy="458.644" r="6.69288" stroke-width="0.5" stroke="black" fill="blue"/>
  <circle cx="424.081" cy="458.644" r="4.02051" stroke-width="0.5" stroke="blue" fill="blue"/>
   </g>
   <g id="cell170">
  <circle cx="520.236" cy="485.704" r="5.47396" stroke-width="0.5" stroke="black" fill="blue"/>
  <circle cx="520.236" cy="485.704" r="3.30992" stroke-width="0.5" stroke="blue" fill="blue"/>
   </g>
  </g>
 </g>
  <rect x="775" y="1035" width="200" height="10" stroke-width="2" stroke="rgb(255,255,255)" fill="rgb(0,0,0)"/>
  <text x="781.25" y="1028.75"
   font-family="Arial" font-size="25" fill="black" >
   200 &#956;m
  </text>
  <text x="25" y="1045"
   font-family="Arial" font-size="18.75" fill="black" >
   0 days, 0 hours, 1 minutes, and 4.7355 seconds
  </text>
  <rect x="0" y="70" width="1000" height="1000" stroke-width="2" stroke="rgb(0,0,0)" fill="none"/>
</svg>
