<?xml version="1.0" encoding="UTF-8" standalone="no"?>
<!-- Created with PhysiCell (http://PhysiCell.MathCancer.org/) -->
<svg 
 xmlns:dc="http://purl.org/dc/elements/1.1/" 
 xmlns:cc="http://creativecommons.org/ns#" 
 xmlns:rdf="http://www.w3.org/1999/02/22-rdf-syntax-ns#" 
 xmlns:svg="http://www.w3.org/2000/svg" 
 xmlns="http://www.w3.org/2000/svg" 
 version="1.1" 
 width="1000" 
 height="1070" 
 id="svg2">
  <rect x="0" y="0" width="1000" height="1070" stroke-width="2" stroke="white" fill="white"/>
  <text x="12.5" y="30"
   font-family="Arial" font-size="25" fill="black" >
   Current time: 0 days, 4 hours, and 50.00 minutes, z = 0.00 &#956;m
  </text>
  <text x="12.5" y="57.5"
   font-family="Arial" font-size="23.75" fill="black" >
   186 agents
  </text>
 <g id="tissue" 
    transform="translate(0,1070) scale(1,-1)">
  <g id="ECM">
  </g>
  <g id="cells">
   <g id="cell0">
  <circle cx="425.049" cy="447.743" r="8.41271" stroke-width="0.5" stroke="black" fill="yellow"/>
  <circle cx="425.049" cy="447.743" r="5.05167" stroke-width="0.5" stroke="yellow" fill="yellow"/>
   </g>
   <g id="cell1">
  <circle cx="425.749" cy="470.565" r="7.21189" stroke-width="0.5" stroke="black" fill="yellow"/>
  <circle cx="425.749" cy="470.565" r="4.37993" stroke-width="0.5" stroke="yellow" fill="yellow"/>
   </g>
   <g id="cell2">
  <circle cx="429.475" cy="483.048" r="8.41271" stroke-width="0.5" stroke="black" fill="blue"/>
  <circle cx="429.475" cy="483.048" r="5.05167" stroke-width="0.5" stroke="blue" fill="blue"/>
   </g>
   <g id="cell3">
  <circle cx="424.866" cy="496.43" r="7.41548" stroke-width="0.5" stroke="black" fill="Red"/>
  <circle cx="424.866" cy="496.43" r="4.50723" stroke-width="0.5" stroke="Red" fill="Red"/>
   </g>
   <g id="cell4">
  <circle cx="428.505" cy="509.34" r="8.41271" stroke-width="0.5" stroke="black" fill="Red"/>
  <circle cx="428.505" cy="509.34" r="5.05167" stroke-width="0.5" stroke="Red" fill="Red"/>
   </g>
   <g id="cell5">
  <circle cx="415.176" cy="530.708" r="7.33129" stroke-width="0.5" stroke="black" fill="blue"/>
  <circle cx="415.176" cy="530.708" r="4.45516" stroke-width="0.5" stroke="blue" fill="blue"/>
   </g>
   <g id="cell6">
  <circle cx="425.827" cy="538.74" r="8.41271" stroke-width="0.5" stroke="black" fill="yellow"/>
  <circle cx="425.827" cy="538.74" r="5.05167" stroke-width="0.5" stroke="yellow" fill="yellow"/>
   </g>
   <g id="cell7">
  <circle cx="442.708" cy="446.118" r="7.84675" stroke-width="0.5" stroke="black" fill="Red"/>
  <circle cx="442.708" cy="446.118" r="4.7629" stroke-width="0.5" stroke="Red" fill="Red"/>
   </g>
   <g id="cell8">
  <circle cx="434.668" cy="459.479" r="8.41271" stroke-width="0.5" stroke="black" fill="yellow"/>
  <circle cx="434.668" cy="459.479" r="5.05167" stroke-width="0.5" stroke="yellow" fill="yellow"/>
   </g>
   <g id="cell9">
  <circle cx="438.936" cy="472.482" r="8.41271" stroke-width="0.5" stroke="black" fill="Red"/>
  <circle cx="438.936" cy="472.482" r="5.05167" stroke-width="0.5" stroke="Red" fill="Red"/>
   </g>
   <g id="cell10">
  <circle cx="443.178" cy="485.024" r="8.41271" stroke-width="0.5" stroke="black" fill="Red"/>
  <circle cx="443.178" cy="485.024" r="5.05167" stroke-width="0.5" stroke="Red" fill="Red"/>
   </g>
   <g id="cell11">
  <circle cx="438.773" cy="503.882" r="8.41271" stroke-width="0.5" stroke="black" fill="Red"/>
  <circle cx="438.773" cy="503.882" r="5.05167" stroke-width="0.5" stroke="Red" fill="Red"/>
   </g>
   <g id="cell12">
  <circle cx="434.919" cy="519.774" r="7.67987" stroke-width="0.5" stroke="black" fill="Red"/>
  <circle cx="434.919" cy="519.774" r="4.66617" stroke-width="0.5" stroke="Red" fill="Red"/>
   </g>
   <g id="cell13">
  <circle cx="438.474" cy="533.39" r="8.41271" stroke-width="0.5" stroke="black" fill="Red"/>
  <circle cx="438.474" cy="533.39" r="5.05167" stroke-width="0.5" stroke="Red" fill="Red"/>
   </g>
   <g id="cell14">
  <circle cx="437.735" cy="547.058" r="8.41271" stroke-width="0.5" stroke="black" fill="yellow"/>
  <circle cx="437.735" cy="547.058" r="5.05167" stroke-width="0.5" stroke="yellow" fill="yellow"/>
   </g>
   <g id="cell15">
  <circle cx="438.333" cy="561.025" r="8.41271" stroke-width="0.5" stroke="black" fill="blue"/>
  <circle cx="438.333" cy="561.025" r="5.05167" stroke-width="0.5" stroke="blue" fill="blue"/>
   </g>
   <g id="cell16">
  <circle cx="454.777" cy="425.417" r="7.18105" stroke-width="0.5" stroke="black" fill="Red"/>
  <circle cx="454.777" cy="425.417" r="4.39973" stroke-width="0.5" stroke="Red" fill="Red"/>
   </g>
   <g id="cell17">
  <circle cx="451.179" cy="436.216" r="6.86652" stroke-width="0.5" stroke="black" fill="Red"/>
  <circle cx="451.179" cy="436.216" r="4.14883" stroke-width="0.5" stroke="Red" fill="Red"/>
   </g>
   <g id="cell18">
  <circle cx="447.688" cy="458.904" r="8.41271" stroke-width="0.5" stroke="black" fill="blue"/>
  <circle cx="447.688" cy="458.904" r="5.05167" stroke-width="0.5" stroke="blue" fill="blue"/>
   </g>
   <g id="cell19">
  <circle cx="450.408" cy="470.369" r="8.41271" stroke-width="0.5" stroke="black" fill="blue"/>
  <circle cx="450.408" cy="470.369" r="5.05167" stroke-width="0.5" stroke="blue" fill="blue"/>
   </g>
   <g id="cell20">
  <circle cx="455.439" cy="483.171" r="8.41271" stroke-width="0.5" stroke="black" fill="Red"/>
  <circle cx="455.439" cy="483.171" r="5.05167" stroke-width="0.5" stroke="Red" fill="Red"/>
   </g>
   <g id="cell21">
  <circle cx="449.649" cy="497.204" r="8.41271" stroke-width="0.5" stroke="black" fill="Red"/>
  <circle cx="449.649" cy="497.204" r="5.05167" stroke-width="0.5" stroke="Red" fill="Red"/>
   </g>
   <g id="cell22">
  <circle cx="453.969" cy="508.617" r="8.41271" stroke-width="0.5" stroke="black" fill="Red"/>
  <circle cx="453.969" cy="508.617" r="5.05167" stroke-width="0.5" stroke="Red" fill="Red"/>
   </g>
   <g id="cell23">
  <circle cx="448.871" cy="524.749" r="8.41271" stroke-width="0.5" stroke="black" fill="Red"/>
  <circle cx="448.871" cy="524.749" r="5.05167" stroke-width="0.5" stroke="Red" fill="Red"/>
   </g>
   <g id="cell24">
  <circle cx="451.187" cy="539.852" r="8.41271" stroke-width="0.5" stroke="black" fill="blue"/>
  <circle cx="451.187" cy="539.852" r="5.05167" stroke-width="0.5" stroke="blue" fill="blue"/>
   </g>
   <g id="cell25">
  <circle cx="450.662" cy="554.619" r="8.41271" stroke-width="0.5" stroke="black" fill="Red"/>
  <circle cx="450.662" cy="554.619" r="5.05167" stroke-width="0.5" stroke="Red" fill="Red"/>
   </g>
   <g id="cell26">
  <circle cx="451.226" cy="568.882" r="8.41271" stroke-width="0.5" stroke="black" fill="yellow"/>
  <circle cx="451.226" cy="568.882" r="5.05167" stroke-width="0.5" stroke="yellow" fill="yellow"/>
   </g>
   <g id="cell27">
  <circle cx="464.255" cy="411.561" r="8.41271" stroke-width="0.5" stroke="black" fill="yellow"/>
  <circle cx="464.255" cy="411.561" r="5.05167" stroke-width="0.5" stroke="yellow" fill="yellow"/>
   </g>
   <g id="cell28">
  <circle cx="466.426" cy="425.224" r="8.41271" stroke-width="0.5" stroke="black" fill="Red"/>
  <circle cx="466.426" cy="425.224" r="5.05167" stroke-width="0.5" stroke="Red" fill="Red"/>
   </g>
   <g id="cell29">
  <circle cx="455.001" cy="447.402" r="7.3599" stroke-width="0.5" stroke="black" fill="Red"/>
  <circle cx="455.001" cy="447.402" r="4.47294" stroke-width="0.5" stroke="Red" fill="Red"/>
   </g>
   <g id="cell30">
  <circle cx="461.335" cy="459.265" r="8.41271" stroke-width="0.5" stroke="black" fill="Red"/>
  <circle cx="461.335" cy="459.265" r="5.05167" stroke-width="0.5" stroke="Red" fill="Red"/>
   </g>
   <g id="cell31">
  <circle cx="462.647" cy="470.998" r="8.41271" stroke-width="0.5" stroke="black" fill="Red"/>
  <circle cx="462.647" cy="470.998" r="5.05167" stroke-width="0.5" stroke="Red" fill="Red"/>
   </g>
   <g id="cell32">
  <circle cx="468.457" cy="482.636" r="8.41271" stroke-width="0.5" stroke="black" fill="Red"/>
  <circle cx="468.457" cy="482.636" r="5.05167" stroke-width="0.5" stroke="Red" fill="Red"/>
   </g>
   <g id="cell33">
  <circle cx="461.873" cy="495.608" r="8.41271" stroke-width="0.5" stroke="black" fill="Red"/>
  <circle cx="461.873" cy="495.608" r="5.05167" stroke-width="0.5" stroke="Red" fill="Red"/>
   </g>
   <g id="cell34">
  <circle cx="461.891" cy="519.554" r="8.41271" stroke-width="0.5" stroke="black" fill="Red"/>
  <circle cx="461.891" cy="519.554" r="5.05167" stroke-width="0.5" stroke="Red" fill="Red"/>
   </g>
   <g id="cell35">
  <circle cx="464.826" cy="537.219" r="6.86652" stroke-width="0.5" stroke="black" fill="blue"/>
  <circle cx="464.826" cy="537.219" r="4.14883" stroke-width="0.5" stroke="blue" fill="blue"/>
   </g>
   <g id="cell36">
  <circle cx="462.586" cy="547.419" r="8.41271" stroke-width="0.5" stroke="black" fill="Red"/>
  <circle cx="462.586" cy="547.419" r="5.05167" stroke-width="0.5" stroke="Red" fill="Red"/>
   </g>
   <g id="cell37">
  <circle cx="463.314" cy="561.453" r="8.41271" stroke-width="0.5" stroke="black" fill="Red"/>
  <circle cx="463.314" cy="561.453" r="5.05167" stroke-width="0.5" stroke="Red" fill="Red"/>
   </g>
   <g id="cell38">
  <circle cx="465.004" cy="574.074" r="8.41271" stroke-width="0.5" stroke="black" fill="yellow"/>
  <circle cx="465.004" cy="574.074" r="5.05167" stroke-width="0.5" stroke="yellow" fill="yellow"/>
   </g>
   <g id="cell39">
  <circle cx="464.868" cy="587.369" r="7.1497" stroke-width="0.5" stroke="black" fill="blue"/>
  <circle cx="464.868" cy="587.369" r="4.34001" stroke-width="0.5" stroke="blue" fill="blue"/>
   </g>
   <g id="cell40">
  <circle cx="476.693" cy="403.383" r="8.41271" stroke-width="0.5" stroke="black" fill="blue"/>
  <circle cx="476.693" cy="403.383" r="5.05167" stroke-width="0.5" stroke="blue" fill="blue"/>
   </g>
   <g id="cell41">
  <circle cx="478.662" cy="417.777" r="8.41271" stroke-width="0.5" stroke="black" fill="Red"/>
  <circle cx="478.662" cy="417.777" r="5.05167" stroke-width="0.5" stroke="Red" fill="Red"/>
   </g>
   <g id="cell42">
  <circle cx="477.445" cy="442.619" r="6.73287" stroke-width="0.5" stroke="black" fill="Red"/>
  <circle cx="477.445" cy="442.619" r="4.05039" stroke-width="0.5" stroke="Red" fill="Red"/>
   </g>
   <g id="cell43">
  <circle cx="472.347" cy="455.046" r="8.41271" stroke-width="0.5" stroke="black" fill="Red"/>
  <circle cx="472.347" cy="455.046" r="5.05167" stroke-width="0.5" stroke="Red" fill="Red"/>
   </g>
   <g id="cell44">
  <circle cx="474.74" cy="466.529" r="8.41271" stroke-width="0.5" stroke="black" fill="blue"/>
  <circle cx="474.74" cy="466.529" r="5.05167" stroke-width="0.5" stroke="blue" fill="blue"/>
   </g>
   <g id="cell45">
  <circle cx="479.853" cy="479.341" r="8.41271" stroke-width="0.5" stroke="black" fill="Red"/>
  <circle cx="479.853" cy="479.341" r="5.05167" stroke-width="0.5" stroke="Red" fill="Red"/>
   </g>
   <g id="cell46">
  <circle cx="475.209" cy="494.178" r="8.41271" stroke-width="0.5" stroke="black" fill="Red"/>
  <circle cx="475.209" cy="494.178" r="5.05167" stroke-width="0.5" stroke="Red" fill="Red"/>
   </g>
   <g id="cell47">
  <circle cx="466.211" cy="506.427" r="7.83019" stroke-width="0.5" stroke="black" fill="Red"/>
  <circle cx="466.211" cy="506.427" r="4.75343" stroke-width="0.5" stroke="Red" fill="Red"/>
   </g>
   <g id="cell48">
  <circle cx="483.792" cy="520.905" r="7.54436" stroke-width="0.5" stroke="black" fill="Red"/>
  <circle cx="483.792" cy="520.905" r="4.58555" stroke-width="0.5" stroke="Red" fill="Red"/>
   </g>
   <g id="cell49">
  <circle cx="475.678" cy="542.042" r="8.41271" stroke-width="0.5" stroke="black" fill="Red"/>
  <circle cx="475.678" cy="542.042" r="5.05167" stroke-width="0.5" stroke="Red" fill="Red"/>
   </g>
   <g id="cell50">
  <circle cx="482.046" cy="555.455" r="6.78181" stroke-width="0.5" stroke="black" fill="blue"/>
  <circle cx="482.046" cy="555.455" r="4.08714" stroke-width="0.5" stroke="blue" fill="blue"/>
   </g>
   <g id="cell51">
  <circle cx="477.755" cy="565.562" r="8.41271" stroke-width="0.5" stroke="black" fill="Red"/>
  <circle cx="477.755" cy="565.562" r="5.05167" stroke-width="0.5" stroke="Red" fill="Red"/>
   </g>
   <g id="cell52">
  <circle cx="476.955" cy="582.704" r="8.41271" stroke-width="0.5" stroke="black" fill="yellow"/>
  <circle cx="476.955" cy="582.704" r="5.05167" stroke-width="0.5" stroke="yellow" fill="yellow"/>
   </g>
   <g id="cell53">
  <circle cx="490.59" cy="407.443" r="8.41271" stroke-width="0.5" stroke="black" fill="yellow"/>
  <circle cx="490.59" cy="407.443" r="5.05167" stroke-width="0.5" stroke="yellow" fill="yellow"/>
   </g>
   <g id="cell54">
  <circle cx="483.096" cy="430.178" r="8.41271" stroke-width="0.5" stroke="black" fill="Red"/>
  <circle cx="483.096" cy="430.178" r="5.05167" stroke-width="0.5" stroke="Red" fill="Red"/>
   </g>
   <g id="cell55">
  <circle cx="486.579" cy="446.617" r="7.3599" stroke-width="0.5" stroke="black" fill="Red"/>
  <circle cx="486.579" cy="446.617" r="4.47294" stroke-width="0.5" stroke="Red" fill="Red"/>
   </g>
   <g id="cell56">
  <circle cx="494.446" cy="458.358" r="7.63698" stroke-width="0.5" stroke="black" fill="blue"/>
  <circle cx="494.446" cy="458.358" r="4.64085" stroke-width="0.5" stroke="blue" fill="blue"/>
   </g>
   <g id="cell57">
  <circle cx="488.025" cy="468.648" r="8.41271" stroke-width="0.5" stroke="black" fill="Red"/>
  <circle cx="488.025" cy="468.648" r="5.05167" stroke-width="0.5" stroke="Red" fill="Red"/>
   </g>
   <g id="cell58">
  <circle cx="488.391" cy="488.416" r="8.41271" stroke-width="0.5" stroke="black" fill="blue"/>
  <circle cx="488.391" cy="488.416" r="5.05167" stroke-width="0.5" stroke="blue" fill="blue"/>
   </g>
   <g id="cell59">
  <circle cx="485.808" cy="500.231" r="6.80881" stroke-width="0.5" stroke="black" fill="Red"/>
  <circle cx="485.808" cy="500.231" r="4.10709" stroke-width="0.5" stroke="Red" fill="Red"/>
   </g>
   <g id="cell60">
  <circle cx="489.622" cy="511.905" r="8.41271" stroke-width="0.5" stroke="black" fill="Red"/>
  <circle cx="489.622" cy="511.905" r="5.05167" stroke-width="0.5" stroke="Red" fill="Red"/>
   </g>
   <g id="cell61">
  <circle cx="486.206" cy="530.946" r="8.41271" stroke-width="0.5" stroke="black" fill="blue"/>
  <circle cx="486.206" cy="530.946" r="5.05167" stroke-width="0.5" stroke="blue" fill="blue"/>
   </g>
   <g id="cell62">
  <circle cx="488.093" cy="545.516" r="8.41271" stroke-width="0.5" stroke="black" fill="Red"/>
  <circle cx="488.093" cy="545.516" r="5.05167" stroke-width="0.5" stroke="Red" fill="Red"/>
   </g>
   <g id="cell63">
  <circle cx="490.61" cy="561.366" r="8.41271" stroke-width="0.5" stroke="black" fill="Red"/>
  <circle cx="490.61" cy="561.366" r="5.05167" stroke-width="0.5" stroke="Red" fill="Red"/>
   </g>
   <g id="cell64">
  <circle cx="487.022" cy="574.471" r="8.41271" stroke-width="0.5" stroke="black" fill="blue"/>
  <circle cx="487.022" cy="574.471" r="5.05167" stroke-width="0.5" stroke="blue" fill="blue"/>
   </g>
   <g id="cell65">
  <circle cx="489.785" cy="593.159" r="6.67717" stroke-width="0.5" stroke="black" fill="yellow"/>
  <circle cx="489.785" cy="593.159" r="4.00951" stroke-width="0.5" stroke="yellow" fill="yellow"/>
   </g>
   <g id="cell66">
  <circle cx="504.939" cy="409.857" r="8.41271" stroke-width="0.5" stroke="black" fill="blue"/>
  <circle cx="504.939" cy="409.857" r="5.05167" stroke-width="0.5" stroke="blue" fill="blue"/>
   </g>
   <g id="cell67">
  <circle cx="493.882" cy="421.049" r="8.41271" stroke-width="0.5" stroke="black" fill="yellow"/>
  <circle cx="493.882" cy="421.049" r="5.05167" stroke-width="0.5" stroke="yellow" fill="yellow"/>
   </g>
   <g id="cell68">
  <circle cx="502.23" cy="429.433" r="8.41271" stroke-width="0.5" stroke="black" fill="yellow"/>
  <circle cx="502.23" cy="429.433" r="5.05167" stroke-width="0.5" stroke="yellow" fill="yellow"/>
   </g>
   <g id="cell69">
  <circle cx="497.278" cy="447.149" r="8.41271" stroke-width="0.5" stroke="black" fill="Red"/>
  <circle cx="497.278" cy="447.149" r="5.05167" stroke-width="0.5" stroke="Red" fill="Red"/>
   </g>
   <g id="cell70">
  <circle cx="501.678" cy="466.391" r="8.41271" stroke-width="0.5" stroke="black" fill="blue"/>
  <circle cx="501.678" cy="466.391" r="5.05167" stroke-width="0.5" stroke="blue" fill="blue"/>
   </g>
   <g id="cell71">
  <circle cx="494.033" cy="477.751" r="8.41271" stroke-width="0.5" stroke="black" fill="Red"/>
  <circle cx="494.033" cy="477.751" r="5.05167" stroke-width="0.5" stroke="Red" fill="Red"/>
   </g>
   <g id="cell72">
  <circle cx="500.202" cy="490.851" r="8.41271" stroke-width="0.5" stroke="black" fill="Red"/>
  <circle cx="500.202" cy="490.851" r="5.05167" stroke-width="0.5" stroke="Red" fill="Red"/>
   </g>
   <g id="cell73">
  <circle cx="501.968" cy="509.228" r="8.41271" stroke-width="0.5" stroke="black" fill="Red"/>
  <circle cx="501.968" cy="509.228" r="5.05167" stroke-width="0.5" stroke="Red" fill="Red"/>
   </g>
   <g id="cell74">
  <circle cx="497.051" cy="523.261" r="8.41271" stroke-width="0.5" stroke="black" fill="Red"/>
  <circle cx="497.051" cy="523.261" r="5.05167" stroke-width="0.5" stroke="Red" fill="Red"/>
   </g>
   <g id="cell75">
  <circle cx="496.96" cy="536.202" r="8.41271" stroke-width="0.5" stroke="black" fill="blue"/>
  <circle cx="496.96" cy="536.202" r="5.05167" stroke-width="0.5" stroke="blue" fill="blue"/>
   </g>
   <g id="cell76">
  <circle cx="498.071" cy="552.39" r="8.41271" stroke-width="0.5" stroke="black" fill="Red"/>
  <circle cx="498.071" cy="552.39" r="5.05167" stroke-width="0.5" stroke="Red" fill="Red"/>
   </g>
   <g id="cell77">
  <circle cx="498.221" cy="570.351" r="7.51976" stroke-width="0.5" stroke="black" fill="Red"/>
  <circle cx="498.221" cy="570.351" r="4.57072" stroke-width="0.5" stroke="Red" fill="Red"/>
   </g>
   <g id="cell78">
  <circle cx="503.021" cy="580.88" r="8.41271" stroke-width="0.5" stroke="black" fill="Red"/>
  <circle cx="503.021" cy="580.88" r="5.05167" stroke-width="0.5" stroke="Red" fill="Red"/>
   </g>
   <g id="cell79">
  <circle cx="502.413" cy="593.925" r="8.41271" stroke-width="0.5" stroke="black" fill="blue"/>
  <circle cx="502.413" cy="593.925" r="5.05167" stroke-width="0.5" stroke="blue" fill="blue"/>
   </g>
   <g id="cell80">
  <circle cx="518.034" cy="410.361" r="6.99069" stroke-width="0.5" stroke="black" fill="yellow"/>
  <circle cx="518.034" cy="410.361" r="4.23498" stroke-width="0.5" stroke="yellow" fill="yellow"/>
   </g>
   <g id="cell81">
  <circle cx="515.334" cy="433.288" r="8.41271" stroke-width="0.5" stroke="black" fill="Red"/>
  <circle cx="515.334" cy="433.288" r="5.05167" stroke-width="0.5" stroke="Red" fill="Red"/>
   </g>
   <g id="cell82">
  <circle cx="511.26" cy="444.749" r="6.71158" stroke-width="0.5" stroke="black" fill="Red"/>
  <circle cx="511.26" cy="444.749" r="4.03435" stroke-width="0.5" stroke="Red" fill="Red"/>
   </g>
   <g id="cell83">
  <circle cx="507.206" cy="454.621" r="8.41271" stroke-width="0.5" stroke="black" fill="Red"/>
  <circle cx="507.206" cy="454.621" r="5.05167" stroke-width="0.5" stroke="Red" fill="Red"/>
   </g>
   <g id="cell84">
  <circle cx="514.687" cy="466.297" r="8.41271" stroke-width="0.5" stroke="black" fill="Red"/>
  <circle cx="514.687" cy="466.297" r="5.05167" stroke-width="0.5" stroke="Red" fill="Red"/>
   </g>
   <g id="cell85">
  <circle cx="506.094" cy="478.521" r="8.41271" stroke-width="0.5" stroke="black" fill="Red"/>
  <circle cx="506.094" cy="478.521" r="5.05167" stroke-width="0.5" stroke="Red" fill="Red"/>
   </g>
   <g id="cell86">
  <circle cx="512.335" cy="497.594" r="8.41271" stroke-width="0.5" stroke="black" fill="Red"/>
  <circle cx="512.335" cy="497.594" r="5.05167" stroke-width="0.5" stroke="Red" fill="Red"/>
   </g>
   <g id="cell87">
  <circle cx="514.966" cy="508.727" r="7.59183" stroke-width="0.5" stroke="black" fill="Red"/>
  <circle cx="514.966" cy="508.727" r="4.61399" stroke-width="0.5" stroke="Red" fill="Red"/>
   </g>
   <g id="cell88">
  <circle cx="509.152" cy="531.549" r="8.41271" stroke-width="0.5" stroke="black" fill="Red"/>
  <circle cx="509.152" cy="531.549" r="5.05167" stroke-width="0.5" stroke="Red" fill="Red"/>
   </g>
   <g id="cell89">
  <circle cx="506.484" cy="545.046" r="8.41271" stroke-width="0.5" stroke="black" fill="Red"/>
  <circle cx="506.484" cy="545.046" r="5.05167" stroke-width="0.5" stroke="Red" fill="Red"/>
   </g>
   <g id="cell90">
  <circle cx="513.814" cy="554.25" r="8.41271" stroke-width="0.5" stroke="black" fill="Red"/>
  <circle cx="513.814" cy="554.25" r="5.05167" stroke-width="0.5" stroke="Red" fill="Red"/>
   </g>
   <g id="cell91">
  <circle cx="512.498" cy="571.719" r="8.41271" stroke-width="0.5" stroke="black" fill="yellow"/>
  <circle cx="512.498" cy="571.719" r="5.05167" stroke-width="0.5" stroke="yellow" fill="yellow"/>
   </g>
   <g id="cell92">
  <circle cx="515.174" cy="587.061" r="8.41271" stroke-width="0.5" stroke="black" fill="Red"/>
  <circle cx="515.174" cy="587.061" r="5.05167" stroke-width="0.5" stroke="Red" fill="Red"/>
   </g>
   <g id="cell93">
  <circle cx="531.647" cy="410.946" r="8.41271" stroke-width="0.5" stroke="black" fill="blue"/>
  <circle cx="531.647" cy="410.946" r="5.05167" stroke-width="0.5" stroke="blue" fill="blue"/>
   </g>
   <g id="cell94">
  <circle cx="537.304" cy="423.245" r="7.61469" stroke-width="0.5" stroke="black" fill="Red"/>
  <circle cx="537.304" cy="423.245" r="4.62762" stroke-width="0.5" stroke="Red" fill="Red"/>
   </g>
   <g id="cell95">
  <circle cx="528.108" cy="434.113" r="8.41271" stroke-width="0.5" stroke="black" fill="Red"/>
  <circle cx="528.108" cy="434.113" r="5.05167" stroke-width="0.5" stroke="Red" fill="Red"/>
   </g>
   <g id="cell96">
  <circle cx="521.475" cy="443.406" r="6.98647" stroke-width="0.5" stroke="black" fill="blue"/>
  <circle cx="521.475" cy="443.406" r="4.28097" stroke-width="0.5" stroke="blue" fill="blue"/>
   </g>
   <g id="cell97">
  <circle cx="527.483" cy="459.504" r="8.41271" stroke-width="0.5" stroke="black" fill="Red"/>
  <circle cx="527.483" cy="459.504" r="5.05167" stroke-width="0.5" stroke="Red" fill="Red"/>
   </g>
   <g id="cell98">
  <circle cx="521.896" cy="489.493" r="6.53209" stroke-width="0.5" stroke="black" fill="blue"/>
  <circle cx="521.896" cy="489.493" r="4.00816" stroke-width="0.5" stroke="blue" fill="blue"/>
   </g>
   <g id="cell99">
  <circle cx="527.689" cy="496.914" r="8.41271" stroke-width="0.5" stroke="black" fill="Red"/>
  <circle cx="527.689" cy="496.914" r="5.05167" stroke-width="0.5" stroke="Red" fill="Red"/>
   </g>
   <g id="cell100">
  <circle cx="525.078" cy="506.719" r="6.86652" stroke-width="0.5" stroke="black" fill="blue"/>
  <circle cx="525.078" cy="506.719" r="4.14883" stroke-width="0.5" stroke="blue" fill="blue"/>
   </g>
   <g id="cell101">
  <circle cx="522.049" cy="527.5" r="8.41271" stroke-width="0.5" stroke="black" fill="Red"/>
  <circle cx="522.049" cy="527.5" r="5.05167" stroke-width="0.5" stroke="Red" fill="Red"/>
   </g>
   <g id="cell102">
  <circle cx="530.509" cy="539.021" r="7.77763" stroke-width="0.5" stroke="black" fill="Red"/>
  <circle cx="530.509" cy="539.021" r="4.7232" stroke-width="0.5" stroke="Red" fill="Red"/>
   </g>
   <g id="cell103">
  <circle cx="526.872" cy="550.462" r="8.41271" stroke-width="0.5" stroke="black" fill="Red"/>
  <circle cx="526.872" cy="550.462" r="5.05167" stroke-width="0.5" stroke="Red" fill="Red"/>
   </g>
   <g id="cell104">
  <circle cx="524.033" cy="564.06" r="8.41271" stroke-width="0.5" stroke="black" fill="yellow"/>
  <circle cx="524.033" cy="564.06" r="5.05167" stroke-width="0.5" stroke="yellow" fill="yellow"/>
   </g>
   <g id="cell105">
  <circle cx="524.579" cy="578.433" r="8.41271" stroke-width="0.5" stroke="black" fill="blue"/>
  <circle cx="524.579" cy="578.433" r="5.05167" stroke-width="0.5" stroke="blue" fill="blue"/>
   </g>
   <g id="cell106">
  <circle cx="544.818" cy="413.407" r="6.89675" stroke-width="0.5" stroke="black" fill="yellow"/>
  <circle cx="544.818" cy="413.407" r="4.17024" stroke-width="0.5" stroke="yellow" fill="yellow"/>
   </g>
   <g id="cell107">
  <circle cx="540.787" cy="435.476" r="8.41271" stroke-width="0.5" stroke="black" fill="Red"/>
  <circle cx="540.787" cy="435.476" r="5.05167" stroke-width="0.5" stroke="Red" fill="Red"/>
   </g>
   <g id="cell108">
  <circle cx="531.985" cy="446.391" r="8.41271" stroke-width="0.5" stroke="black" fill="Red"/>
  <circle cx="531.985" cy="446.391" r="5.05167" stroke-width="0.5" stroke="Red" fill="Red"/>
   </g>
   <g id="cell109">
  <circle cx="549.088" cy="467.104" r="8.41271" stroke-width="0.5" stroke="black" fill="Red"/>
  <circle cx="549.088" cy="467.104" r="5.05167" stroke-width="0.5" stroke="Red" fill="Red"/>
   </g>
   <g id="cell110">
  <circle cx="528.131" cy="481.55" r="8.41271" stroke-width="0.5" stroke="black" fill="Red"/>
  <circle cx="528.131" cy="481.55" r="5.05167" stroke-width="0.5" stroke="Red" fill="Red"/>
   </g>
   <g id="cell111">
  <circle cx="537.528" cy="491.029" r="8.41271" stroke-width="0.5" stroke="black" fill="Red"/>
  <circle cx="537.528" cy="491.029" r="5.05167" stroke-width="0.5" stroke="Red" fill="Red"/>
   </g>
   <g id="cell112">
  <circle cx="539.355" cy="504.606" r="8.41271" stroke-width="0.5" stroke="black" fill="Red"/>
  <circle cx="539.355" cy="504.606" r="5.05167" stroke-width="0.5" stroke="Red" fill="Red"/>
   </g>
   <g id="cell113">
  <circle cx="531.52" cy="515.141" r="8.41271" stroke-width="0.5" stroke="black" fill="Red"/>
  <circle cx="531.52" cy="515.141" r="5.05167" stroke-width="0.5" stroke="Red" fill="Red"/>
   </g>
   <g id="cell114">
  <circle cx="534.309" cy="526.949" r="8.41271" stroke-width="0.5" stroke="black" fill="Red"/>
  <circle cx="534.309" cy="526.949" r="5.05167" stroke-width="0.5" stroke="Red" fill="Red"/>
   </g>
   <g id="cell115">
  <circle cx="541.112" cy="542.905" r="8.41271" stroke-width="0.5" stroke="black" fill="blue"/>
  <circle cx="541.112" cy="542.905" r="5.05167" stroke-width="0.5" stroke="blue" fill="blue"/>
   </g>
   <g id="cell116">
  <circle cx="538.957" cy="556.125" r="8.41271" stroke-width="0.5" stroke="black" fill="yellow"/>
  <circle cx="538.957" cy="556.125" r="5.05167" stroke-width="0.5" stroke="yellow" fill="yellow"/>
   </g>
   <g id="cell117">
  <circle cx="537.355" cy="571.642" r="8.41271" stroke-width="0.5" stroke="black" fill="yellow"/>
  <circle cx="537.355" cy="571.642" r="5.05167" stroke-width="0.5" stroke="yellow" fill="yellow"/>
   </g>
   <g id="cell118">
  <circle cx="550.856" cy="425.827" r="8.41271" stroke-width="0.5" stroke="black" fill="yellow"/>
  <circle cx="550.856" cy="425.827" r="5.05167" stroke-width="0.5" stroke="yellow" fill="yellow"/>
   </g>
   <g id="cell119">
  <circle cx="553.966" cy="440.644" r="8.41271" stroke-width="0.5" stroke="black" fill="yellow"/>
  <circle cx="553.966" cy="440.644" r="5.05167" stroke-width="0.5" stroke="yellow" fill="yellow"/>
   </g>
   <g id="cell120">
  <circle cx="551.776" cy="457.055" r="7.59183" stroke-width="0.5" stroke="black" fill="Red"/>
  <circle cx="551.776" cy="457.055" r="4.61399" stroke-width="0.5" stroke="Red" fill="Red"/>
   </g>
   <g id="cell121">
  <circle cx="558.263" cy="474.721" r="8.41271" stroke-width="0.5" stroke="black" fill="Red"/>
  <circle cx="558.263" cy="474.721" r="5.05167" stroke-width="0.5" stroke="Red" fill="Red"/>
   </g>
   <g id="cell122">
  <circle cx="545.907" cy="482.144" r="8.41271" stroke-width="0.5" stroke="black" fill="Red"/>
  <circle cx="545.907" cy="482.144" r="5.05167" stroke-width="0.5" stroke="Red" fill="Red"/>
   </g>
   <g id="cell123">
  <circle cx="549.811" cy="495.841" r="8.41271" stroke-width="0.5" stroke="black" fill="blue"/>
  <circle cx="549.811" cy="495.841" r="5.05167" stroke-width="0.5" stroke="blue" fill="blue"/>
   </g>
   <g id="cell124">
  <circle cx="552.982" cy="509.664" r="8.41271" stroke-width="0.5" stroke="black" fill="Red"/>
  <circle cx="552.982" cy="509.664" r="5.05167" stroke-width="0.5" stroke="Red" fill="Red"/>
   </g>
   <g id="cell125">
  <circle cx="544.323" cy="517.987" r="7.61469" stroke-width="0.5" stroke="black" fill="blue"/>
  <circle cx="544.323" cy="517.987" r="4.62762" stroke-width="0.5" stroke="blue" fill="blue"/>
   </g>
   <g id="cell126">
  <circle cx="547.998" cy="531.601" r="8.41271" stroke-width="0.5" stroke="black" fill="Red"/>
  <circle cx="547.998" cy="531.601" r="5.05167" stroke-width="0.5" stroke="Red" fill="Red"/>
   </g>
   <g id="cell127">
  <circle cx="552.368" cy="549.062" r="8.41271" stroke-width="0.5" stroke="black" fill="yellow"/>
  <circle cx="552.368" cy="549.062" r="5.05167" stroke-width="0.5" stroke="yellow" fill="yellow"/>
   </g>
   <g id="cell128">
  <circle cx="550.717" cy="563.708" r="8.41271" stroke-width="0.5" stroke="black" fill="blue"/>
  <circle cx="550.717" cy="563.708" r="5.05167" stroke-width="0.5" stroke="blue" fill="blue"/>
   </g>
   <g id="cell129">
  <circle cx="573.242" cy="453.821" r="7.56839" stroke-width="0.5" stroke="black" fill="Red"/>
  <circle cx="573.242" cy="453.821" r="4.59998" stroke-width="0.5" stroke="Red" fill="Red"/>
   </g>
   <g id="cell130">
  <circle cx="562.974" cy="463.725" r="8.41271" stroke-width="0.5" stroke="black" fill="Red"/>
  <circle cx="562.974" cy="463.725" r="5.05167" stroke-width="0.5" stroke="Red" fill="Red"/>
   </g>
   <g id="cell131">
  <circle cx="570.354" cy="478.545" r="8.41271" stroke-width="0.5" stroke="black" fill="Red"/>
  <circle cx="570.354" cy="478.545" r="5.05167" stroke-width="0.5" stroke="Red" fill="Red"/>
   </g>
   <g id="cell132">
  <circle cx="560.075" cy="487.456" r="8.41271" stroke-width="0.5" stroke="black" fill="Red"/>
  <circle cx="560.075" cy="487.456" r="5.05167" stroke-width="0.5" stroke="Red" fill="Red"/>
   </g>
   <g id="cell133">
  <circle cx="562.276" cy="500.7" r="8.41271" stroke-width="0.5" stroke="black" fill="blue"/>
  <circle cx="562.276" cy="500.7" r="5.05167" stroke-width="0.5" stroke="blue" fill="blue"/>
   </g>
   <g id="cell134">
  <circle cx="565.247" cy="514.72" r="8.41271" stroke-width="0.5" stroke="black" fill="Red"/>
  <circle cx="565.247" cy="514.72" r="5.05167" stroke-width="0.5" stroke="Red" fill="Red"/>
   </g>
   <g id="cell135">
  <circle cx="567.521" cy="528.512" r="8.41271" stroke-width="0.5" stroke="black" fill="yellow"/>
  <circle cx="567.521" cy="528.512" r="5.05167" stroke-width="0.5" stroke="yellow" fill="yellow"/>
   </g>
   <g id="cell136">
  <circle cx="559.61" cy="538.247" r="8.41271" stroke-width="0.5" stroke="black" fill="yellow"/>
  <circle cx="559.61" cy="538.247" r="5.05167" stroke-width="0.5" stroke="yellow" fill="yellow"/>
   </g>
   <g id="cell137">
  <circle cx="564.249" cy="555.123" r="8.41271" stroke-width="0.5" stroke="black" fill="Red"/>
  <circle cx="564.249" cy="555.123" r="5.05167" stroke-width="0.5" stroke="Red" fill="Red"/>
   </g>
   <g id="cell138">
  <circle cx="574.462" cy="467.562" r="8.41271" stroke-width="0.5" stroke="black" fill="blue"/>
  <circle cx="574.462" cy="467.562" r="5.05167" stroke-width="0.5" stroke="blue" fill="blue"/>
   </g>
   <g id="cell139">
  <circle cx="583.137" cy="481.358" r="8.41271" stroke-width="0.5" stroke="black" fill="Red"/>
  <circle cx="583.137" cy="481.358" r="5.05167" stroke-width="0.5" stroke="Red" fill="Red"/>
   </g>
   <g id="cell140">
  <circle cx="573.196" cy="491.486" r="7.84675" stroke-width="0.5" stroke="black" fill="Red"/>
  <circle cx="573.196" cy="491.486" r="4.7629" stroke-width="0.5" stroke="Red" fill="Red"/>
   </g>
   <g id="cell141">
  <circle cx="575.631" cy="505.205" r="8.41271" stroke-width="0.5" stroke="black" fill="yellow"/>
  <circle cx="575.631" cy="505.205" r="5.05167" stroke-width="0.5" stroke="yellow" fill="yellow"/>
   </g>
   <g id="cell142">
  <circle cx="576.696" cy="519.767" r="7.41548" stroke-width="0.5" stroke="black" fill="blue"/>
  <circle cx="576.696" cy="519.767" r="4.50723" stroke-width="0.5" stroke="blue" fill="blue"/>
   </g>
   <g id="cell143">
  <circle cx="571.356" cy="544.035" r="8.41271" stroke-width="0.5" stroke="black" fill="blue"/>
  <circle cx="571.356" cy="544.035" r="5.05167" stroke-width="0.5" stroke="blue" fill="blue"/>
   </g>
   <g id="cell144">
  <circle cx="432.189" cy="438.691" r="6.58471" stroke-width="0.5" stroke="black" fill="blue"/>
  <circle cx="432.189" cy="438.691" r="4.02718" stroke-width="0.5" stroke="blue" fill="blue"/>
   </g>
   <g id="cell145">
  <circle cx="585.749" cy="496.605" r="7.84675" stroke-width="0.5" stroke="black" fill="blue"/>
  <circle cx="585.749" cy="496.605" r="4.7629" stroke-width="0.5" stroke="blue" fill="blue"/>
   </g>
   <g id="cell146">
  <circle cx="477.644" cy="507.278" r="7.04807" stroke-width="0.5" stroke="black" fill="blue"/>
  <circle cx="477.644" cy="507.278" r="4.31842" stroke-width="0.5" stroke="blue" fill="blue"/>
   </g>
   <g id="cell147">
  <circle cx="538.61" cy="459.871" r="7.44597" stroke-width="0.5" stroke="black" fill="Red"/>
  <circle cx="538.61" cy="459.871" r="4.55339" stroke-width="0.5" stroke="Red" fill="Red"/>
   </g>
   <g id="cell148">
  <circle cx="517.873" cy="540.551" r="7.77763" stroke-width="0.5" stroke="black" fill="blue"/>
  <circle cx="517.873" cy="540.551" r="4.7232" stroke-width="0.5" stroke="blue" fill="blue"/>
   </g>
   <g id="cell149">
  <circle cx="536.959" cy="472.171" r="7.44597" stroke-width="0.5" stroke="black" fill="blue"/>
  <circle cx="536.959" cy="472.171" r="4.55339" stroke-width="0.5" stroke="blue" fill="blue"/>
   </g>
   <g id="cell150">
  <circle cx="444.384" cy="513.877" r="7.67987" stroke-width="0.5" stroke="black" fill="blue"/>
  <circle cx="444.384" cy="513.877" r="4.66617" stroke-width="0.5" stroke="blue" fill="blue"/>
   </g>
   <g id="cell151">
  <circle cx="450.716" cy="415.135" r="7.67987" stroke-width="0.5" stroke="black" fill="blue"/>
  <circle cx="450.716" cy="415.135" r="4.66617" stroke-width="0.5" stroke="blue" fill="blue"/>
   </g>
   <g id="cell152">
  <circle cx="483.514" cy="457.158" r="7.63698" stroke-width="0.5" stroke="black" fill="blue"/>
  <circle cx="483.514" cy="457.158" r="4.64085" stroke-width="0.5" stroke="blue" fill="blue"/>
   </g>
   <g id="cell153">
  <circle cx="523.406" cy="421.942" r="7.61469" stroke-width="0.5" stroke="black" fill="yellow"/>
  <circle cx="523.406" cy="421.942" r="4.62762" stroke-width="0.5" stroke="yellow" fill="yellow"/>
   </g>
   <g id="cell154">
  <circle cx="555.298" cy="522.131" r="7.61469" stroke-width="0.5" stroke="black" fill="blue"/>
  <circle cx="555.298" cy="522.131" r="4.62762" stroke-width="0.5" stroke="blue" fill="blue"/>
   </g>
   <g id="cell155">
  <circle cx="442.523" cy="422.723" r="7.18105" stroke-width="0.5" stroke="black" fill="Red"/>
  <circle cx="442.523" cy="422.723" r="4.39973" stroke-width="0.5" stroke="Red" fill="Red"/>
   </g>
   <g id="cell156">
  <circle cx="508.773" cy="519.682" r="7.59183" stroke-width="0.5" stroke="black" fill="blue"/>
  <circle cx="508.773" cy="519.682" r="4.61399" stroke-width="0.5" stroke="blue" fill="blue"/>
   </g>
   <g id="cell157">
  <circle cx="542.778" cy="449.078" r="7.59183" stroke-width="0.5" stroke="black" fill="blue"/>
  <circle cx="542.778" cy="449.078" r="4.61399" stroke-width="0.5" stroke="blue" fill="blue"/>
   </g>
   <g id="cell158">
  <circle cx="561.477" cy="451.313" r="6.57731" stroke-width="0.5" stroke="black" fill="Red"/>
  <circle cx="561.477" cy="451.313" r="4.03404" stroke-width="0.5" stroke="Red" fill="Red"/>
   </g>
   <g id="cell159">
  <circle cx="472.141" cy="528.388" r="7.54436" stroke-width="0.5" stroke="black" fill="Red"/>
  <circle cx="472.141" cy="528.388" r="4.58555" stroke-width="0.5" stroke="Red" fill="Red"/>
   </g>
   <g id="cell160">
  <circle cx="504.893" cy="561.669" r="7.51976" stroke-width="0.5" stroke="black" fill="blue"/>
  <circle cx="504.893" cy="561.669" r="4.57072" stroke-width="0.5" stroke="blue" fill="blue"/>
   </g>
   <g id="cell161">
  <circle cx="517.475" cy="477.934" r="6.41729" stroke-width="0.5" stroke="black" fill="Red"/>
  <circle cx="517.475" cy="477.934" r="3.9358" stroke-width="0.5" stroke="Red" fill="Red"/>
   </g>
   <g id="cell162">
  <circle cx="580.408" cy="531.959" r="7.41548" stroke-width="0.5" stroke="black" fill="yellow"/>
  <circle cx="580.408" cy="531.959" r="4.50723" stroke-width="0.5" stroke="yellow" fill="yellow"/>
   </g>
   <g id="cell163">
  <circle cx="473.764" cy="517.017" r="7.04807" stroke-width="0.5" stroke="black" fill="Red"/>
  <circle cx="473.764" cy="517.017" r="4.31842" stroke-width="0.5" stroke="Red" fill="Red"/>
   </g>
   <g id="cell164">
  <circle cx="436.227" cy="493.888" r="7.41548" stroke-width="0.5" stroke="black" fill="Red"/>
  <circle cx="436.227" cy="493.888" r="4.50723" stroke-width="0.5" stroke="Red" fill="Red"/>
   </g>
   <g id="cell165">
  <circle cx="466.576" cy="444.968" r="7.3599" stroke-width="0.5" stroke="black" fill="blue"/>
  <circle cx="466.576" cy="444.968" r="4.47294" stroke-width="0.5" stroke="blue" fill="blue"/>
   </g>
   <g id="cell166">
  <circle cx="492.176" cy="436.581" r="7.3599" stroke-width="0.5" stroke="black" fill="blue"/>
  <circle cx="492.176" cy="436.581" r="4.47294" stroke-width="0.5" stroke="blue" fill="blue"/>
   </g>
   <g id="cell167">
  <circle cx="518.508" cy="453.453" r="6.98647" stroke-width="0.5" stroke="black" fill="Red"/>
  <circle cx="518.508" cy="453.453" r="4.28097" stroke-width="0.5" stroke="Red" fill="Red"/>
   </g>
   <g id="cell168">
  <circle cx="426.59" cy="526.396" r="6.42156" stroke-width="0.5" stroke="black" fill="yellow"/>
  <circle cx="426.59" cy="526.396" r="3.94035" stroke-width="0.5" stroke="yellow" fill="yellow"/>
   </g>
   <g id="cell169">
  <circle cx="420.91" cy="460.092" r="7.21189" stroke-width="0.5" stroke="black" fill="blue"/>
  <circle cx="420.91" cy="460.092" r="4.37993" stroke-width="0.5" stroke="blue" fill="blue"/>
   </g>
   <g id="cell170">
  <circle cx="512.85" cy="486.932" r="6.53209" stroke-width="0.5" stroke="black" fill="Red"/>
  <circle cx="512.85" cy="486.932" r="4.00816" stroke-width="0.5" stroke="Red" fill="Red"/>
   </g>
   <g id="cell171">
  <circle cx="455.125" cy="582.618" r="7.1497" stroke-width="0.5" stroke="black" fill="yellow"/>
  <circle cx="455.125" cy="582.618" r="4.34001" stroke-width="0.5" stroke="yellow" fill="yellow"/>
   </g>
   <g id="cell172">
  <circle cx="567.261" cy="441.422" r="6.57731" stroke-width="0.5" stroke="black" fill="blue"/>
  <circle cx="567.261" cy="441.422" r="4.03404" stroke-width="0.5" stroke="blue" fill="blue"/>
   </g>
   <g id="cell173">
  <circle cx="421.204" cy="518.807" r="6.42156" stroke-width="0.5" stroke="black" fill="Red"/>
  <circle cx="421.204" cy="518.807" r="3.94035" stroke-width="0.5" stroke="Red" fill="Red"/>
   </g>
   <g id="cell174">
  <circle cx="526.167" cy="470.628" r="6.41729" stroke-width="0.5" stroke="black" fill="blue"/>
  <circle cx="526.167" cy="470.628" r="3.9358" stroke-width="0.5" stroke="blue" fill="blue"/>
   </g>
   <g id="cell175">
  <circle cx="511.831" cy="420.391" r="6.99069" stroke-width="0.5" stroke="black" fill="Red"/>
  <circle cx="511.831" cy="420.391" r="4.23498" stroke-width="0.5" stroke="Red" fill="Red"/>
   </g>
   <g id="cell176">
  <circle cx="441.604" cy="433.027" r="6.58471" stroke-width="0.5" stroke="black" fill="Red"/>
  <circle cx="441.604" cy="433.027" r="4.02718" stroke-width="0.5" stroke="Red" fill="Red"/>
   </g>
   <g id="cell177">
  <circle cx="555.846" cy="414.243" r="6.89675" stroke-width="0.5" stroke="black" fill="blue"/>
  <circle cx="555.846" cy="414.243" r="4.17024" stroke-width="0.5" stroke="blue" fill="blue"/>
   </g>
   <g id="cell178">
  <circle cx="519.724" cy="517.601" r="6.86652" stroke-width="0.5" stroke="black" fill="Red"/>
  <circle cx="519.724" cy="517.601" r="4.14883" stroke-width="0.5" stroke="Red" fill="Red"/>
   </g>
   <g id="cell179">
  <circle cx="458.728" cy="531.134" r="6.86652" stroke-width="0.5" stroke="black" fill="blue"/>
  <circle cx="458.728" cy="531.134" r="4.14883" stroke-width="0.5" stroke="blue" fill="blue"/>
   </g>
   <g id="cell180">
  <circle cx="461.976" cy="436.174" r="6.86652" stroke-width="0.5" stroke="black" fill="Red"/>
  <circle cx="461.976" cy="436.174" r="4.14883" stroke-width="0.5" stroke="Red" fill="Red"/>
   </g>
   <g id="cell181">
  <circle cx="496.068" cy="500.335" r="6.80881" stroke-width="0.5" stroke="black" fill="blue"/>
  <circle cx="496.068" cy="500.335" r="4.10709" stroke-width="0.5" stroke="blue" fill="blue"/>
   </g>
   <g id="cell182">
  <circle cx="472.674" cy="554.157" r="6.78181" stroke-width="0.5" stroke="black" fill="blue"/>
  <circle cx="472.674" cy="554.157" r="4.08714" stroke-width="0.5" stroke="blue" fill="blue"/>
   </g>
   <g id="cell183">
  <circle cx="471.957" cy="434.334" r="6.73287" stroke-width="0.5" stroke="black" fill="Red"/>
  <circle cx="471.957" cy="434.334" r="4.05039" stroke-width="0.5" stroke="Red" fill="Red"/>
   </g>
   <g id="cell184">
  <circle cx="505.161" cy="439.943" r="6.71158" stroke-width="0.5" stroke="black" fill="Red"/>
  <circle cx="505.161" cy="439.943" r="4.03435" stroke-width="0.5" stroke="Red" fill="Red"/>
   </g>
   <g id="cell185">
  <circle cx="491.993" cy="584.481" r="6.67717" stroke-width="0.5" stroke="black" fill="Red"/>
  <circle cx="491.993" cy="584.481" r="4.00951" stroke-width="0.5" stroke="Red" fill="Red"/>
   </g>
  </g>
 </g>
  <rect x="775" y="1035" width="200" height="10" stroke-width="2" stroke="rgb(255,255,255)" fill="rgb(0,0,0)"/>
  <text x="781.25" y="1028.75"
   font-family="Arial" font-size="25" fill="black" >
   200 &#956;m
  </text>
  <text x="25" y="1045"
   font-family="Arial" font-size="18.75" fill="black" >
   0 days, 0 hours, 1 minutes, and 46.4083 seconds
  </text>
  <rect x="0" y="70" width="1000" height="1000" stroke-width="2" stroke="rgb(0,0,0)" fill="none"/>
</svg>
