<?xml version="1.0" encoding="UTF-8" standalone="no"?>
<!-- Created with PhysiCell (http://PhysiCell.MathCancer.org/) -->
<svg 
 xmlns:dc="http://purl.org/dc/elements/1.1/" 
 xmlns:cc="http://creativecommons.org/ns#" 
 xmlns:rdf="http://www.w3.org/1999/02/22-rdf-syntax-ns#" 
 xmlns:svg="http://www.w3.org/2000/svg" 
 xmlns="http://www.w3.org/2000/svg" 
 version="1.1" 
 width="1000" 
 height="1070" 
 id="svg2">
  <rect x="0" y="0" width="1000" height="1070" stroke-width="2" stroke="white" fill="white"/>
  <text x="12.5" y="30"
   font-family="Arial" font-size="25" fill="black" >
   Current time: 0 days, 5 hours, and 5.00 minutes, z = 0.00 &#956;m
  </text>
  <text x="12.5" y="57.5"
   font-family="Arial" font-size="23.75" fill="black" >
   190 agents
  </text>
 <g id="tissue" 
    transform="translate(0,1070) scale(1,-1)">
  <g id="ECM">
  </g>
  <g id="cells">
   <g id="cell0">
  <circle cx="427.561" cy="447.207" r="8.41271" stroke-width="0.5" stroke="black" fill="yellow"/>
  <circle cx="427.561" cy="447.207" r="5.05167" stroke-width="0.5" stroke="yellow" fill="yellow"/>
   </g>
   <g id="cell1">
  <circle cx="425.221" cy="470.738" r="7.27253" stroke-width="0.5" stroke="black" fill="yellow"/>
  <circle cx="425.221" cy="470.738" r="4.41835" stroke-width="0.5" stroke="yellow" fill="yellow"/>
   </g>
   <g id="cell2">
  <circle cx="429.581" cy="484.24" r="8.41271" stroke-width="0.5" stroke="black" fill="blue"/>
  <circle cx="429.581" cy="484.24" r="5.05167" stroke-width="0.5" stroke="blue" fill="blue"/>
   </g>
   <g id="cell3">
  <circle cx="423.896" cy="497.149" r="7.46878" stroke-width="0.5" stroke="black" fill="Red"/>
  <circle cx="423.896" cy="497.149" r="4.53982" stroke-width="0.5" stroke="Red" fill="Red"/>
   </g>
   <g id="cell4">
  <circle cx="429.123" cy="509.056" r="8.41271" stroke-width="0.5" stroke="black" fill="Red"/>
  <circle cx="429.123" cy="509.056" r="5.05167" stroke-width="0.5" stroke="Red" fill="Red"/>
   </g>
   <g id="cell5">
  <circle cx="416.695" cy="530.032" r="7.38797" stroke-width="0.5" stroke="black" fill="blue"/>
  <circle cx="416.695" cy="530.032" r="4.49029" stroke-width="0.5" stroke="blue" fill="blue"/>
   </g>
   <g id="cell6">
  <circle cx="426.264" cy="540.678" r="8.41271" stroke-width="0.5" stroke="black" fill="Red"/>
  <circle cx="426.264" cy="540.678" r="5.05167" stroke-width="0.5" stroke="Red" fill="Red"/>
   </g>
   <g id="cell7">
  <circle cx="441.854" cy="446.734" r="7.87851" stroke-width="0.5" stroke="black" fill="Red"/>
  <circle cx="441.854" cy="446.734" r="4.78096" stroke-width="0.5" stroke="Red" fill="Red"/>
   </g>
   <g id="cell8">
  <circle cx="435.356" cy="460.252" r="8.41271" stroke-width="0.5" stroke="black" fill="Red"/>
  <circle cx="435.356" cy="460.252" r="5.05167" stroke-width="0.5" stroke="Red" fill="Red"/>
   </g>
   <g id="cell9">
  <circle cx="438.71" cy="472.785" r="8.41271" stroke-width="0.5" stroke="black" fill="Red"/>
  <circle cx="438.71" cy="472.785" r="5.05167" stroke-width="0.5" stroke="Red" fill="Red"/>
   </g>
   <g id="cell10">
  <circle cx="442.721" cy="485.119" r="8.41271" stroke-width="0.5" stroke="black" fill="yellow"/>
  <circle cx="442.721" cy="485.119" r="5.05167" stroke-width="0.5" stroke="yellow" fill="yellow"/>
   </g>
   <g id="cell11">
  <circle cx="439.523" cy="503.728" r="8.41271" stroke-width="0.5" stroke="black" fill="Red"/>
  <circle cx="439.523" cy="503.728" r="5.05167" stroke-width="0.5" stroke="Red" fill="Red"/>
   </g>
   <g id="cell12">
  <circle cx="435" cy="520.114" r="7.72056" stroke-width="0.5" stroke="black" fill="Red"/>
  <circle cx="435" cy="520.114" r="4.69003" stroke-width="0.5" stroke="Red" fill="Red"/>
   </g>
   <g id="cell13">
  <circle cx="440.331" cy="533.075" r="8.41271" stroke-width="0.5" stroke="black" fill="Red"/>
  <circle cx="440.331" cy="533.075" r="5.05167" stroke-width="0.5" stroke="Red" fill="Red"/>
   </g>
   <g id="cell14">
  <circle cx="438.255" cy="547.245" r="8.41271" stroke-width="0.5" stroke="black" fill="yellow"/>
  <circle cx="438.255" cy="547.245" r="5.05167" stroke-width="0.5" stroke="yellow" fill="yellow"/>
   </g>
   <g id="cell15">
  <circle cx="440.804" cy="562.965" r="8.41271" stroke-width="0.5" stroke="black" fill="blue"/>
  <circle cx="440.804" cy="562.965" r="5.05167" stroke-width="0.5" stroke="blue" fill="blue"/>
   </g>
   <g id="cell16">
  <circle cx="452.102" cy="428.18" r="7.25348" stroke-width="0.5" stroke="black" fill="Red"/>
  <circle cx="452.102" cy="428.18" r="4.44211" stroke-width="0.5" stroke="Red" fill="Red"/>
   </g>
   <g id="cell17">
  <circle cx="451.515" cy="438.831" r="6.92764" stroke-width="0.5" stroke="black" fill="Red"/>
  <circle cx="451.515" cy="438.831" r="4.1918" stroke-width="0.5" stroke="Red" fill="Red"/>
   </g>
   <g id="cell18">
  <circle cx="448.011" cy="460.032" r="8.41271" stroke-width="0.5" stroke="black" fill="blue"/>
  <circle cx="448.011" cy="460.032" r="5.05167" stroke-width="0.5" stroke="blue" fill="blue"/>
   </g>
   <g id="cell19">
  <circle cx="450.899" cy="471.104" r="8.41271" stroke-width="0.5" stroke="black" fill="blue"/>
  <circle cx="450.899" cy="471.104" r="5.05167" stroke-width="0.5" stroke="blue" fill="blue"/>
   </g>
   <g id="cell20">
  <circle cx="454.58" cy="482.658" r="8.41271" stroke-width="0.5" stroke="black" fill="Red"/>
  <circle cx="454.58" cy="482.658" r="5.05167" stroke-width="0.5" stroke="Red" fill="Red"/>
   </g>
   <g id="cell21">
  <circle cx="449.006" cy="495.829" r="8.41271" stroke-width="0.5" stroke="black" fill="Red"/>
  <circle cx="449.006" cy="495.829" r="5.05167" stroke-width="0.5" stroke="Red" fill="Red"/>
   </g>
   <g id="cell22">
  <circle cx="454.128" cy="507.248" r="8.41271" stroke-width="0.5" stroke="black" fill="Red"/>
  <circle cx="454.128" cy="507.248" r="5.05167" stroke-width="0.5" stroke="Red" fill="Red"/>
   </g>
   <g id="cell23">
  <circle cx="448.349" cy="523.195" r="8.41271" stroke-width="0.5" stroke="black" fill="Red"/>
  <circle cx="448.349" cy="523.195" r="5.05167" stroke-width="0.5" stroke="Red" fill="Red"/>
   </g>
   <g id="cell24">
  <circle cx="450.738" cy="540.275" r="8.41271" stroke-width="0.5" stroke="black" fill="Red"/>
  <circle cx="450.738" cy="540.275" r="5.05167" stroke-width="0.5" stroke="Red" fill="Red"/>
   </g>
   <g id="cell25">
  <circle cx="450.517" cy="554.046" r="8.41271" stroke-width="0.5" stroke="black" fill="yellow"/>
  <circle cx="450.517" cy="554.046" r="5.05167" stroke-width="0.5" stroke="yellow" fill="yellow"/>
   </g>
   <g id="cell26">
  <circle cx="452.378" cy="569.396" r="8.41271" stroke-width="0.5" stroke="black" fill="yellow"/>
  <circle cx="452.378" cy="569.396" r="5.05167" stroke-width="0.5" stroke="yellow" fill="yellow"/>
   </g>
   <g id="cell27">
  <circle cx="463.598" cy="409.577" r="8.41271" stroke-width="0.5" stroke="black" fill="yellow"/>
  <circle cx="463.598" cy="409.577" r="5.05167" stroke-width="0.5" stroke="yellow" fill="yellow"/>
   </g>
   <g id="cell28">
  <circle cx="465.004" cy="423.589" r="8.41271" stroke-width="0.5" stroke="black" fill="yellow"/>
  <circle cx="465.004" cy="423.589" r="5.05167" stroke-width="0.5" stroke="yellow" fill="yellow"/>
   </g>
   <g id="cell29">
  <circle cx="455.165" cy="448.596" r="7.41548" stroke-width="0.5" stroke="black" fill="Red"/>
  <circle cx="455.165" cy="448.596" r="4.50723" stroke-width="0.5" stroke="Red" fill="Red"/>
   </g>
   <g id="cell30">
  <circle cx="460.771" cy="459.447" r="8.41271" stroke-width="0.5" stroke="black" fill="Red"/>
  <circle cx="460.771" cy="459.447" r="5.05167" stroke-width="0.5" stroke="Red" fill="Red"/>
   </g>
   <g id="cell31">
  <circle cx="464.339" cy="470.712" r="8.41271" stroke-width="0.5" stroke="black" fill="Red"/>
  <circle cx="464.339" cy="470.712" r="5.05167" stroke-width="0.5" stroke="Red" fill="Red"/>
   </g>
   <g id="cell32">
  <circle cx="467.288" cy="481.936" r="8.41271" stroke-width="0.5" stroke="black" fill="Red"/>
  <circle cx="467.288" cy="481.936" r="5.05167" stroke-width="0.5" stroke="Red" fill="Red"/>
   </g>
   <g id="cell33">
  <circle cx="461.048" cy="494.293" r="8.41271" stroke-width="0.5" stroke="black" fill="blue"/>
  <circle cx="461.048" cy="494.293" r="5.05167" stroke-width="0.5" stroke="blue" fill="blue"/>
   </g>
   <g id="cell34">
  <circle cx="458.312" cy="517.205" r="6.67717" stroke-width="0.5" stroke="black" fill="Red"/>
  <circle cx="458.312" cy="517.205" r="4.00951" stroke-width="0.5" stroke="Red" fill="Red"/>
   </g>
   <g id="cell35">
  <circle cx="464.013" cy="535.661" r="6.92764" stroke-width="0.5" stroke="black" fill="blue"/>
  <circle cx="464.013" cy="535.661" r="4.1918" stroke-width="0.5" stroke="blue" fill="blue"/>
   </g>
   <g id="cell36">
  <circle cx="462.232" cy="547.084" r="8.41271" stroke-width="0.5" stroke="black" fill="Red"/>
  <circle cx="462.232" cy="547.084" r="5.05167" stroke-width="0.5" stroke="Red" fill="Red"/>
   </g>
   <g id="cell37">
  <circle cx="462.817" cy="561.03" r="8.41271" stroke-width="0.5" stroke="black" fill="blue"/>
  <circle cx="462.817" cy="561.03" r="5.05167" stroke-width="0.5" stroke="blue" fill="blue"/>
   </g>
   <g id="cell38">
  <circle cx="466.5" cy="574.781" r="8.41271" stroke-width="0.5" stroke="black" fill="yellow"/>
  <circle cx="466.5" cy="574.781" r="5.05167" stroke-width="0.5" stroke="yellow" fill="yellow"/>
   </g>
   <g id="cell39">
  <circle cx="466.432" cy="587.882" r="7.21189" stroke-width="0.5" stroke="black" fill="blue"/>
  <circle cx="466.432" cy="587.882" r="4.37993" stroke-width="0.5" stroke="blue" fill="blue"/>
   </g>
   <g id="cell40">
  <circle cx="473.83" cy="402.916" r="8.41271" stroke-width="0.5" stroke="black" fill="blue"/>
  <circle cx="473.83" cy="402.916" r="5.05167" stroke-width="0.5" stroke="blue" fill="blue"/>
   </g>
   <g id="cell41">
  <circle cx="477.446" cy="416.857" r="8.41271" stroke-width="0.5" stroke="black" fill="Red"/>
  <circle cx="477.446" cy="416.857" r="5.05167" stroke-width="0.5" stroke="Red" fill="Red"/>
   </g>
   <g id="cell42">
  <circle cx="477.472" cy="442.005" r="6.78181" stroke-width="0.5" stroke="black" fill="Red"/>
  <circle cx="477.472" cy="442.005" r="4.08714" stroke-width="0.5" stroke="Red" fill="Red"/>
   </g>
   <g id="cell43">
  <circle cx="472.279" cy="453.919" r="8.41271" stroke-width="0.5" stroke="black" fill="Red"/>
  <circle cx="472.279" cy="453.919" r="5.05167" stroke-width="0.5" stroke="Red" fill="Red"/>
   </g>
   <g id="cell44">
  <circle cx="474.971" cy="465.607" r="8.41271" stroke-width="0.5" stroke="black" fill="blue"/>
  <circle cx="474.971" cy="465.607" r="5.05167" stroke-width="0.5" stroke="blue" fill="blue"/>
   </g>
   <g id="cell45">
  <circle cx="479.089" cy="477.968" r="8.41271" stroke-width="0.5" stroke="black" fill="Red"/>
  <circle cx="479.089" cy="477.968" r="5.05167" stroke-width="0.5" stroke="Red" fill="Red"/>
   </g>
   <g id="cell46">
  <circle cx="475.031" cy="494.053" r="8.41271" stroke-width="0.5" stroke="black" fill="Red"/>
  <circle cx="475.031" cy="494.053" r="5.05167" stroke-width="0.5" stroke="Red" fill="Red"/>
   </g>
   <g id="cell47">
  <circle cx="466.58" cy="507.028" r="7.86286" stroke-width="0.5" stroke="black" fill="Red"/>
  <circle cx="466.58" cy="507.028" r="4.77207" stroke-width="0.5" stroke="Red" fill="Red"/>
   </g>
   <g id="cell48">
  <circle cx="482.447" cy="520.042" r="7.59183" stroke-width="0.5" stroke="black" fill="Red"/>
  <circle cx="482.447" cy="520.042" r="4.61399" stroke-width="0.5" stroke="Red" fill="Red"/>
   </g>
   <g id="cell49">
  <circle cx="474.792" cy="540.69" r="8.41271" stroke-width="0.5" stroke="black" fill="Red"/>
  <circle cx="474.792" cy="540.69" r="5.05167" stroke-width="0.5" stroke="Red" fill="Red"/>
   </g>
   <g id="cell50">
  <circle cx="482.303" cy="554.298" r="6.83713" stroke-width="0.5" stroke="black" fill="blue"/>
  <circle cx="482.303" cy="554.298" r="4.12773" stroke-width="0.5" stroke="blue" fill="blue"/>
   </g>
   <g id="cell51">
  <circle cx="476.092" cy="565.574" r="8.41271" stroke-width="0.5" stroke="black" fill="Red"/>
  <circle cx="476.092" cy="565.574" r="5.05167" stroke-width="0.5" stroke="Red" fill="Red"/>
   </g>
   <g id="cell52">
  <circle cx="478.235" cy="584.006" r="8.41271" stroke-width="0.5" stroke="black" fill="Red"/>
  <circle cx="478.235" cy="584.006" r="5.05167" stroke-width="0.5" stroke="Red" fill="Red"/>
   </g>
   <g id="cell53">
  <circle cx="489.48" cy="406.845" r="8.41271" stroke-width="0.5" stroke="black" fill="yellow"/>
  <circle cx="489.48" cy="406.845" r="5.05167" stroke-width="0.5" stroke="yellow" fill="yellow"/>
   </g>
   <g id="cell54">
  <circle cx="482.025" cy="430.076" r="8.41271" stroke-width="0.5" stroke="black" fill="Red"/>
  <circle cx="482.025" cy="430.076" r="5.05167" stroke-width="0.5" stroke="Red" fill="Red"/>
   </g>
   <g id="cell55">
  <circle cx="485.908" cy="447.468" r="7.41548" stroke-width="0.5" stroke="black" fill="Red"/>
  <circle cx="485.908" cy="447.468" r="4.50723" stroke-width="0.5" stroke="Red" fill="Red"/>
   </g>
   <g id="cell56">
  <circle cx="494.604" cy="458.836" r="7.67987" stroke-width="0.5" stroke="black" fill="blue"/>
  <circle cx="494.604" cy="458.836" r="4.66617" stroke-width="0.5" stroke="blue" fill="blue"/>
   </g>
   <g id="cell57">
  <circle cx="488.601" cy="469.331" r="8.41271" stroke-width="0.5" stroke="black" fill="Red"/>
  <circle cx="488.601" cy="469.331" r="5.05167" stroke-width="0.5" stroke="Red" fill="Red"/>
   </g>
   <g id="cell58">
  <circle cx="485.411" cy="487.724" r="8.41271" stroke-width="0.5" stroke="black" fill="Red"/>
  <circle cx="485.411" cy="487.724" r="5.05167" stroke-width="0.5" stroke="Red" fill="Red"/>
   </g>
   <g id="cell59">
  <circle cx="485.739" cy="499.449" r="6.86652" stroke-width="0.5" stroke="black" fill="Red"/>
  <circle cx="485.739" cy="499.449" r="4.14883" stroke-width="0.5" stroke="Red" fill="Red"/>
   </g>
   <g id="cell60">
  <circle cx="489.827" cy="511.391" r="8.41271" stroke-width="0.5" stroke="black" fill="Red"/>
  <circle cx="489.827" cy="511.391" r="5.05167" stroke-width="0.5" stroke="Red" fill="Red"/>
   </g>
   <g id="cell61">
  <circle cx="485.662" cy="530.722" r="8.41271" stroke-width="0.5" stroke="black" fill="blue"/>
  <circle cx="485.662" cy="530.722" r="5.05167" stroke-width="0.5" stroke="blue" fill="blue"/>
   </g>
   <g id="cell62">
  <circle cx="487.13" cy="544.423" r="8.41271" stroke-width="0.5" stroke="black" fill="Red"/>
  <circle cx="487.13" cy="544.423" r="5.05167" stroke-width="0.5" stroke="Red" fill="Red"/>
   </g>
   <g id="cell63">
  <circle cx="489.695" cy="561.162" r="8.41271" stroke-width="0.5" stroke="black" fill="Red"/>
  <circle cx="489.695" cy="561.162" r="5.05167" stroke-width="0.5" stroke="Red" fill="Red"/>
   </g>
   <g id="cell64">
  <circle cx="487.377" cy="573.68" r="8.41271" stroke-width="0.5" stroke="black" fill="blue"/>
  <circle cx="487.377" cy="573.68" r="5.05167" stroke-width="0.5" stroke="blue" fill="blue"/>
   </g>
   <g id="cell65">
  <circle cx="487.596" cy="594.44" r="6.71158" stroke-width="0.5" stroke="black" fill="Red"/>
  <circle cx="487.596" cy="594.44" r="4.03435" stroke-width="0.5" stroke="Red" fill="Red"/>
   </g>
   <g id="cell66">
  <circle cx="504.395" cy="413.318" r="8.41271" stroke-width="0.5" stroke="black" fill="blue"/>
  <circle cx="504.395" cy="413.318" r="5.05167" stroke-width="0.5" stroke="blue" fill="blue"/>
   </g>
   <g id="cell67">
  <circle cx="490.78" cy="420.959" r="8.41271" stroke-width="0.5" stroke="black" fill="yellow"/>
  <circle cx="490.78" cy="420.959" r="5.05167" stroke-width="0.5" stroke="yellow" fill="yellow"/>
   </g>
   <g id="cell68">
  <circle cx="500.905" cy="428.082" r="8.41271" stroke-width="0.5" stroke="black" fill="Red"/>
  <circle cx="500.905" cy="428.082" r="5.05167" stroke-width="0.5" stroke="Red" fill="Red"/>
   </g>
   <g id="cell69">
  <circle cx="497.332" cy="448.266" r="8.41271" stroke-width="0.5" stroke="black" fill="Red"/>
  <circle cx="497.332" cy="448.266" r="5.05167" stroke-width="0.5" stroke="Red" fill="Red"/>
   </g>
   <g id="cell70">
  <circle cx="502.601" cy="466.394" r="8.41271" stroke-width="0.5" stroke="black" fill="blue"/>
  <circle cx="502.601" cy="466.394" r="5.05167" stroke-width="0.5" stroke="blue" fill="blue"/>
   </g>
   <g id="cell71">
  <circle cx="494.796" cy="478.656" r="8.41271" stroke-width="0.5" stroke="black" fill="Red"/>
  <circle cx="494.796" cy="478.656" r="5.05167" stroke-width="0.5" stroke="Red" fill="Red"/>
   </g>
   <g id="cell72">
  <circle cx="498.383" cy="491.832" r="8.41271" stroke-width="0.5" stroke="black" fill="Red"/>
  <circle cx="498.383" cy="491.832" r="5.05167" stroke-width="0.5" stroke="Red" fill="Red"/>
   </g>
   <g id="cell73">
  <circle cx="502.79" cy="509.849" r="8.41271" stroke-width="0.5" stroke="black" fill="Red"/>
  <circle cx="502.79" cy="509.849" r="5.05167" stroke-width="0.5" stroke="Red" fill="Red"/>
   </g>
   <g id="cell74">
  <circle cx="496.731" cy="522.535" r="8.41271" stroke-width="0.5" stroke="black" fill="Red"/>
  <circle cx="496.731" cy="522.535" r="5.05167" stroke-width="0.5" stroke="Red" fill="Red"/>
   </g>
   <g id="cell75">
  <circle cx="497.53" cy="535.867" r="8.41271" stroke-width="0.5" stroke="black" fill="Red"/>
  <circle cx="497.53" cy="535.867" r="5.05167" stroke-width="0.5" stroke="Red" fill="Red"/>
   </g>
   <g id="cell76">
  <circle cx="496.584" cy="550.971" r="8.41271" stroke-width="0.5" stroke="black" fill="Red"/>
  <circle cx="496.584" cy="550.971" r="5.05167" stroke-width="0.5" stroke="Red" fill="Red"/>
   </g>
   <g id="cell77">
  <circle cx="498.78" cy="569.443" r="7.56839" stroke-width="0.5" stroke="black" fill="Red"/>
  <circle cx="498.78" cy="569.443" r="4.59998" stroke-width="0.5" stroke="Red" fill="Red"/>
   </g>
   <g id="cell78">
  <circle cx="501.972" cy="580.326" r="8.41271" stroke-width="0.5" stroke="black" fill="Red"/>
  <circle cx="501.972" cy="580.326" r="5.05167" stroke-width="0.5" stroke="Red" fill="Red"/>
   </g>
   <g id="cell79">
  <circle cx="498.784" cy="593.058" r="8.41271" stroke-width="0.5" stroke="black" fill="blue"/>
  <circle cx="498.784" cy="593.058" r="5.05167" stroke-width="0.5" stroke="blue" fill="blue"/>
   </g>
   <g id="cell80">
  <circle cx="517.495" cy="411.355" r="7.0545" stroke-width="0.5" stroke="black" fill="Red"/>
  <circle cx="517.495" cy="411.355" r="4.27772" stroke-width="0.5" stroke="Red" fill="Red"/>
   </g>
   <g id="cell81">
  <circle cx="516.07" cy="433.273" r="8.41271" stroke-width="0.5" stroke="black" fill="Red"/>
  <circle cx="516.07" cy="433.273" r="5.05167" stroke-width="0.5" stroke="Red" fill="Red"/>
   </g>
   <g id="cell82">
  <circle cx="510.649" cy="444.486" r="6.75639" stroke-width="0.5" stroke="black" fill="Red"/>
  <circle cx="510.649" cy="444.486" r="4.06813" stroke-width="0.5" stroke="Red" fill="Red"/>
   </g>
   <g id="cell83">
  <circle cx="508.558" cy="455.484" r="8.41271" stroke-width="0.5" stroke="black" fill="Red"/>
  <circle cx="508.558" cy="455.484" r="5.05167" stroke-width="0.5" stroke="Red" fill="Red"/>
   </g>
   <g id="cell84">
  <circle cx="516.121" cy="467.038" r="8.41271" stroke-width="0.5" stroke="black" fill="Red"/>
  <circle cx="516.121" cy="467.038" r="5.05167" stroke-width="0.5" stroke="Red" fill="Red"/>
   </g>
   <g id="cell85">
  <circle cx="506.013" cy="476.293" r="8.41271" stroke-width="0.5" stroke="black" fill="Red"/>
  <circle cx="506.013" cy="476.293" r="5.05167" stroke-width="0.5" stroke="Red" fill="Red"/>
   </g>
   <g id="cell86">
  <circle cx="510.157" cy="497.848" r="8.41271" stroke-width="0.5" stroke="black" fill="Red"/>
  <circle cx="510.157" cy="497.848" r="5.05167" stroke-width="0.5" stroke="Red" fill="Red"/>
   </g>
   <g id="cell87">
  <circle cx="514.783" cy="511.236" r="7.63698" stroke-width="0.5" stroke="black" fill="Red"/>
  <circle cx="514.783" cy="511.236" r="4.64085" stroke-width="0.5" stroke="Red" fill="Red"/>
   </g>
   <g id="cell88">
  <circle cx="509.509" cy="532.329" r="8.41271" stroke-width="0.5" stroke="black" fill="Red"/>
  <circle cx="509.509" cy="532.329" r="5.05167" stroke-width="0.5" stroke="Red" fill="Red"/>
   </g>
   <g id="cell89">
  <circle cx="506.587" cy="545.658" r="8.41271" stroke-width="0.5" stroke="black" fill="Red"/>
  <circle cx="506.587" cy="545.658" r="5.05167" stroke-width="0.5" stroke="Red" fill="Red"/>
   </g>
   <g id="cell90">
  <circle cx="516.26" cy="555.814" r="8.41271" stroke-width="0.5" stroke="black" fill="Red"/>
  <circle cx="516.26" cy="555.814" r="5.05167" stroke-width="0.5" stroke="Red" fill="Red"/>
   </g>
   <g id="cell91">
  <circle cx="513.396" cy="569.314" r="8.41271" stroke-width="0.5" stroke="black" fill="Red"/>
  <circle cx="513.396" cy="569.314" r="5.05167" stroke-width="0.5" stroke="Red" fill="Red"/>
   </g>
   <g id="cell92">
  <circle cx="513.874" cy="584.773" r="8.41271" stroke-width="0.5" stroke="black" fill="yellow"/>
  <circle cx="513.874" cy="584.773" r="5.05167" stroke-width="0.5" stroke="yellow" fill="yellow"/>
   </g>
   <g id="cell93">
  <circle cx="531.442" cy="410.915" r="8.41271" stroke-width="0.5" stroke="black" fill="blue"/>
  <circle cx="531.442" cy="410.915" r="5.05167" stroke-width="0.5" stroke="blue" fill="blue"/>
   </g>
   <g id="cell94">
  <circle cx="536.787" cy="423.667" r="7.65871" stroke-width="0.5" stroke="black" fill="Red"/>
  <circle cx="536.787" cy="423.667" r="4.6537" stroke-width="0.5" stroke="Red" fill="Red"/>
   </g>
   <g id="cell95">
  <circle cx="529.006" cy="433.803" r="8.41271" stroke-width="0.5" stroke="black" fill="Red"/>
  <circle cx="529.006" cy="433.803" r="5.05167" stroke-width="0.5" stroke="Red" fill="Red"/>
   </g>
   <g id="cell96">
  <circle cx="521.545" cy="444.383" r="7.06825" stroke-width="0.5" stroke="black" fill="blue"/>
  <circle cx="521.545" cy="444.383" r="4.32987" stroke-width="0.5" stroke="blue" fill="blue"/>
   </g>
   <g id="cell97">
  <circle cx="528.003" cy="460.986" r="8.41271" stroke-width="0.5" stroke="black" fill="Red"/>
  <circle cx="528.003" cy="460.986" r="5.05167" stroke-width="0.5" stroke="Red" fill="Red"/>
   </g>
   <g id="cell98">
  <circle cx="520.215" cy="490.857" r="6.63932" stroke-width="0.5" stroke="black" fill="blue"/>
  <circle cx="520.215" cy="490.857" r="4.07411" stroke-width="0.5" stroke="blue" fill="blue"/>
   </g>
   <g id="cell99">
  <circle cx="528.976" cy="496.602" r="8.41271" stroke-width="0.5" stroke="black" fill="Red"/>
  <circle cx="528.976" cy="496.602" r="5.05167" stroke-width="0.5" stroke="Red" fill="Red"/>
   </g>
   <g id="cell100">
  <circle cx="523.284" cy="504.037" r="6.92764" stroke-width="0.5" stroke="black" fill="blue"/>
  <circle cx="523.284" cy="504.037" r="4.1918" stroke-width="0.5" stroke="blue" fill="blue"/>
   </g>
   <g id="cell101">
  <circle cx="521.224" cy="528.274" r="8.41271" stroke-width="0.5" stroke="black" fill="Red"/>
  <circle cx="521.224" cy="528.274" r="5.05167" stroke-width="0.5" stroke="Red" fill="Red"/>
   </g>
   <g id="cell102">
  <circle cx="530.872" cy="537.249" r="7.81315" stroke-width="0.5" stroke="black" fill="Red"/>
  <circle cx="530.872" cy="537.249" r="4.74367" stroke-width="0.5" stroke="Red" fill="Red"/>
   </g>
   <g id="cell103">
  <circle cx="528.984" cy="549.643" r="8.41271" stroke-width="0.5" stroke="black" fill="Red"/>
  <circle cx="528.984" cy="549.643" r="5.05167" stroke-width="0.5" stroke="Red" fill="Red"/>
   </g>
   <g id="cell104">
  <circle cx="526.259" cy="565.006" r="8.41271" stroke-width="0.5" stroke="black" fill="yellow"/>
  <circle cx="526.259" cy="565.006" r="5.05167" stroke-width="0.5" stroke="yellow" fill="yellow"/>
   </g>
   <g id="cell105">
  <circle cx="525.715" cy="579.695" r="8.41271" stroke-width="0.5" stroke="black" fill="blue"/>
  <circle cx="525.715" cy="579.695" r="5.05167" stroke-width="0.5" stroke="blue" fill="blue"/>
   </g>
   <g id="cell106">
  <circle cx="544.744" cy="413.06" r="6.95901" stroke-width="0.5" stroke="black" fill="yellow"/>
  <circle cx="544.744" cy="413.06" r="4.21341" stroke-width="0.5" stroke="yellow" fill="yellow"/>
   </g>
   <g id="cell107">
  <circle cx="541.525" cy="436.039" r="8.41271" stroke-width="0.5" stroke="black" fill="Red"/>
  <circle cx="541.525" cy="436.039" r="5.05167" stroke-width="0.5" stroke="Red" fill="Red"/>
   </g>
   <g id="cell108">
  <circle cx="532.475" cy="447.356" r="8.41271" stroke-width="0.5" stroke="black" fill="Red"/>
  <circle cx="532.475" cy="447.356" r="5.05167" stroke-width="0.5" stroke="Red" fill="Red"/>
   </g>
   <g id="cell109">
  <circle cx="547.414" cy="466.806" r="8.41271" stroke-width="0.5" stroke="black" fill="Red"/>
  <circle cx="547.414" cy="466.806" r="5.05167" stroke-width="0.5" stroke="Red" fill="Red"/>
   </g>
   <g id="cell110">
  <circle cx="527.754" cy="483.274" r="8.41271" stroke-width="0.5" stroke="black" fill="Red"/>
  <circle cx="527.754" cy="483.274" r="5.05167" stroke-width="0.5" stroke="Red" fill="Red"/>
   </g>
   <g id="cell111">
  <circle cx="537.914" cy="489.414" r="8.41271" stroke-width="0.5" stroke="black" fill="Red"/>
  <circle cx="537.914" cy="489.414" r="5.05167" stroke-width="0.5" stroke="Red" fill="Red"/>
   </g>
   <g id="cell112">
  <circle cx="539.503" cy="504.917" r="8.41271" stroke-width="0.5" stroke="black" fill="Red"/>
  <circle cx="539.503" cy="504.917" r="5.05167" stroke-width="0.5" stroke="Red" fill="Red"/>
   </g>
   <g id="cell113">
  <circle cx="530.548" cy="513.066" r="8.41271" stroke-width="0.5" stroke="black" fill="Red"/>
  <circle cx="530.548" cy="513.066" r="5.05167" stroke-width="0.5" stroke="Red" fill="Red"/>
   </g>
   <g id="cell114">
  <circle cx="534.424" cy="525.108" r="8.41271" stroke-width="0.5" stroke="black" fill="Red"/>
  <circle cx="534.424" cy="525.108" r="5.05167" stroke-width="0.5" stroke="Red" fill="Red"/>
   </g>
   <g id="cell115">
  <circle cx="541.126" cy="542.998" r="8.41271" stroke-width="0.5" stroke="black" fill="blue"/>
  <circle cx="541.126" cy="542.998" r="5.05167" stroke-width="0.5" stroke="blue" fill="blue"/>
   </g>
   <g id="cell116">
  <circle cx="540.19" cy="557.053" r="8.41271" stroke-width="0.5" stroke="black" fill="Red"/>
  <circle cx="540.19" cy="557.053" r="5.05167" stroke-width="0.5" stroke="Red" fill="Red"/>
   </g>
   <g id="cell117">
  <circle cx="537.98" cy="571.55" r="8.41271" stroke-width="0.5" stroke="black" fill="yellow"/>
  <circle cx="537.98" cy="571.55" r="5.05167" stroke-width="0.5" stroke="yellow" fill="yellow"/>
   </g>
   <g id="cell118">
  <circle cx="551.609" cy="426.705" r="8.41271" stroke-width="0.5" stroke="black" fill="yellow"/>
  <circle cx="551.609" cy="426.705" r="5.05167" stroke-width="0.5" stroke="yellow" fill="yellow"/>
   </g>
   <g id="cell119">
  <circle cx="555.304" cy="440.898" r="8.41271" stroke-width="0.5" stroke="black" fill="yellow"/>
  <circle cx="555.304" cy="440.898" r="5.05167" stroke-width="0.5" stroke="yellow" fill="yellow"/>
   </g>
   <g id="cell120">
  <circle cx="553.71" cy="456.919" r="7.63698" stroke-width="0.5" stroke="black" fill="Red"/>
  <circle cx="553.71" cy="456.919" r="4.64085" stroke-width="0.5" stroke="Red" fill="Red"/>
   </g>
   <g id="cell121">
  <circle cx="558.219" cy="472.86" r="8.41271" stroke-width="0.5" stroke="black" fill="Red"/>
  <circle cx="558.219" cy="472.86" r="5.05167" stroke-width="0.5" stroke="Red" fill="Red"/>
   </g>
   <g id="cell122">
  <circle cx="546.541" cy="480.492" r="8.41271" stroke-width="0.5" stroke="black" fill="Red"/>
  <circle cx="546.541" cy="480.492" r="5.05167" stroke-width="0.5" stroke="Red" fill="Red"/>
   </g>
   <g id="cell123">
  <circle cx="548.915" cy="495.893" r="8.41271" stroke-width="0.5" stroke="black" fill="Red"/>
  <circle cx="548.915" cy="495.893" r="5.05167" stroke-width="0.5" stroke="Red" fill="Red"/>
   </g>
   <g id="cell124">
  <circle cx="553.833" cy="509.322" r="8.41271" stroke-width="0.5" stroke="black" fill="Red"/>
  <circle cx="553.833" cy="509.322" r="5.05167" stroke-width="0.5" stroke="Red" fill="Red"/>
   </g>
   <g id="cell125">
  <circle cx="544.324" cy="517.824" r="7.65871" stroke-width="0.5" stroke="black" fill="blue"/>
  <circle cx="544.324" cy="517.824" r="4.6537" stroke-width="0.5" stroke="blue" fill="blue"/>
   </g>
   <g id="cell126">
  <circle cx="545.783" cy="531.353" r="8.41271" stroke-width="0.5" stroke="black" fill="Red"/>
  <circle cx="545.783" cy="531.353" r="5.05167" stroke-width="0.5" stroke="Red" fill="Red"/>
   </g>
   <g id="cell127">
  <circle cx="551.115" cy="549.766" r="8.41271" stroke-width="0.5" stroke="black" fill="Red"/>
  <circle cx="551.115" cy="549.766" r="5.05167" stroke-width="0.5" stroke="Red" fill="Red"/>
   </g>
   <g id="cell128">
  <circle cx="552.483" cy="562.885" r="8.41271" stroke-width="0.5" stroke="black" fill="blue"/>
  <circle cx="552.483" cy="562.885" r="5.05167" stroke-width="0.5" stroke="blue" fill="blue"/>
   </g>
   <g id="cell129">
  <circle cx="575.507" cy="454.275" r="7.61469" stroke-width="0.5" stroke="black" fill="Red"/>
  <circle cx="575.507" cy="454.275" r="4.62762" stroke-width="0.5" stroke="Red" fill="Red"/>
   </g>
   <g id="cell130">
  <circle cx="563.249" cy="462.348" r="8.41271" stroke-width="0.5" stroke="black" fill="Red"/>
  <circle cx="563.249" cy="462.348" r="5.05167" stroke-width="0.5" stroke="Red" fill="Red"/>
   </g>
   <g id="cell131">
  <circle cx="569.483" cy="477.835" r="8.41271" stroke-width="0.5" stroke="black" fill="Red"/>
  <circle cx="569.483" cy="477.835" r="5.05167" stroke-width="0.5" stroke="Red" fill="Red"/>
   </g>
   <g id="cell132">
  <circle cx="559.521" cy="487.093" r="8.41271" stroke-width="0.5" stroke="black" fill="Red"/>
  <circle cx="559.521" cy="487.093" r="5.05167" stroke-width="0.5" stroke="Red" fill="Red"/>
   </g>
   <g id="cell133">
  <circle cx="563.095" cy="499.702" r="8.41271" stroke-width="0.5" stroke="black" fill="blue"/>
  <circle cx="563.095" cy="499.702" r="5.05167" stroke-width="0.5" stroke="blue" fill="blue"/>
   </g>
   <g id="cell134">
  <circle cx="566.316" cy="514.496" r="8.41271" stroke-width="0.5" stroke="black" fill="yellow"/>
  <circle cx="566.316" cy="514.496" r="5.05167" stroke-width="0.5" stroke="yellow" fill="yellow"/>
   </g>
   <g id="cell135">
  <circle cx="569.4" cy="527.983" r="8.41271" stroke-width="0.5" stroke="black" fill="yellow"/>
  <circle cx="569.4" cy="527.983" r="5.05167" stroke-width="0.5" stroke="yellow" fill="yellow"/>
   </g>
   <g id="cell136">
  <circle cx="557.634" cy="537.806" r="8.41271" stroke-width="0.5" stroke="black" fill="Red"/>
  <circle cx="557.634" cy="537.806" r="5.05167" stroke-width="0.5" stroke="Red" fill="Red"/>
   </g>
   <g id="cell137">
  <circle cx="566.769" cy="557.869" r="6.69288" stroke-width="0.5" stroke="black" fill="Red"/>
  <circle cx="566.769" cy="557.869" r="4.02051" stroke-width="0.5" stroke="Red" fill="Red"/>
   </g>
   <g id="cell138">
  <circle cx="574.961" cy="466.839" r="8.41271" stroke-width="0.5" stroke="black" fill="blue"/>
  <circle cx="574.961" cy="466.839" r="5.05167" stroke-width="0.5" stroke="blue" fill="blue"/>
   </g>
   <g id="cell139">
  <circle cx="582.882" cy="479.209" r="8.41271" stroke-width="0.5" stroke="black" fill="yellow"/>
  <circle cx="582.882" cy="479.209" r="5.05167" stroke-width="0.5" stroke="yellow" fill="yellow"/>
   </g>
   <g id="cell140">
  <circle cx="573.077" cy="491.121" r="7.87851" stroke-width="0.5" stroke="black" fill="yellow"/>
  <circle cx="573.077" cy="491.121" r="4.78096" stroke-width="0.5" stroke="yellow" fill="yellow"/>
   </g>
   <g id="cell141">
  <circle cx="577.089" cy="504.597" r="8.41271" stroke-width="0.5" stroke="black" fill="yellow"/>
  <circle cx="577.089" cy="504.597" r="5.05167" stroke-width="0.5" stroke="yellow" fill="yellow"/>
   </g>
   <g id="cell142">
  <circle cx="579.324" cy="517.334" r="7.46878" stroke-width="0.5" stroke="black" fill="blue"/>
  <circle cx="579.324" cy="517.334" r="4.53982" stroke-width="0.5" stroke="blue" fill="blue"/>
   </g>
   <g id="cell143">
  <circle cx="572.854" cy="543.102" r="8.41271" stroke-width="0.5" stroke="black" fill="blue"/>
  <circle cx="572.854" cy="543.102" r="5.05167" stroke-width="0.5" stroke="blue" fill="blue"/>
   </g>
   <g id="cell144">
  <circle cx="430.765" cy="435.135" r="6.67859" stroke-width="0.5" stroke="black" fill="blue"/>
  <circle cx="430.765" cy="435.135" r="4.08632" stroke-width="0.5" stroke="blue" fill="blue"/>
   </g>
   <g id="cell145">
  <circle cx="586.29" cy="492.291" r="7.87851" stroke-width="0.5" stroke="black" fill="blue"/>
  <circle cx="586.29" cy="492.291" r="4.78096" stroke-width="0.5" stroke="blue" fill="blue"/>
   </g>
   <g id="cell146">
  <circle cx="478.386" cy="507.039" r="7.12686" stroke-width="0.5" stroke="black" fill="blue"/>
  <circle cx="478.386" cy="507.039" r="4.36525" stroke-width="0.5" stroke="blue" fill="blue"/>
   </g>
   <g id="cell147">
  <circle cx="539.885" cy="457.931" r="7.50261" stroke-width="0.5" stroke="black" fill="Red"/>
  <circle cx="539.885" cy="457.931" r="4.58572" stroke-width="0.5" stroke="Red" fill="Red"/>
   </g>
   <g id="cell148">
  <circle cx="519.328" cy="541.267" r="7.81315" stroke-width="0.5" stroke="black" fill="blue"/>
  <circle cx="519.328" cy="541.267" r="4.74367" stroke-width="0.5" stroke="blue" fill="blue"/>
   </g>
   <g id="cell149">
  <circle cx="537.352" cy="472.897" r="7.50261" stroke-width="0.5" stroke="black" fill="blue"/>
  <circle cx="537.352" cy="472.897" r="4.58572" stroke-width="0.5" stroke="blue" fill="blue"/>
   </g>
   <g id="cell150">
  <circle cx="444.105" cy="512.509" r="7.72056" stroke-width="0.5" stroke="black" fill="blue"/>
  <circle cx="444.105" cy="512.509" r="4.69003" stroke-width="0.5" stroke="blue" fill="blue"/>
   </g>
   <g id="cell151">
  <circle cx="452.366" cy="415.641" r="7.72056" stroke-width="0.5" stroke="black" fill="blue"/>
  <circle cx="452.366" cy="415.641" r="4.69003" stroke-width="0.5" stroke="blue" fill="blue"/>
   </g>
   <g id="cell152">
  <circle cx="484.12" cy="456.921" r="7.67987" stroke-width="0.5" stroke="black" fill="blue"/>
  <circle cx="484.12" cy="456.921" r="4.66617" stroke-width="0.5" stroke="blue" fill="blue"/>
   </g>
   <g id="cell153">
  <circle cx="523.277" cy="421.808" r="7.65871" stroke-width="0.5" stroke="black" fill="Red"/>
  <circle cx="523.277" cy="421.808" r="4.6537" stroke-width="0.5" stroke="Red" fill="Red"/>
   </g>
   <g id="cell154">
  <circle cx="555.689" cy="522.404" r="7.65871" stroke-width="0.5" stroke="black" fill="blue"/>
  <circle cx="555.689" cy="522.404" r="4.6537" stroke-width="0.5" stroke="blue" fill="blue"/>
   </g>
   <g id="cell155">
  <circle cx="440.995" cy="422.949" r="7.25348" stroke-width="0.5" stroke="black" fill="Red"/>
  <circle cx="440.995" cy="422.949" r="4.44211" stroke-width="0.5" stroke="Red" fill="Red"/>
   </g>
   <g id="cell156">
  <circle cx="509.333" cy="521.233" r="7.63698" stroke-width="0.5" stroke="black" fill="blue"/>
  <circle cx="509.333" cy="521.233" r="4.64085" stroke-width="0.5" stroke="blue" fill="blue"/>
   </g>
   <g id="cell157">
  <circle cx="545.93" cy="448.413" r="7.63698" stroke-width="0.5" stroke="black" fill="blue"/>
  <circle cx="545.93" cy="448.413" r="4.64085" stroke-width="0.5" stroke="blue" fill="blue"/>
   </g>
   <g id="cell158">
  <circle cx="558.592" cy="450.227" r="5.32729" stroke-width="0.5" stroke="black" fill="Red"/>
  <circle cx="558.592" cy="450.227" r="3.26896" stroke-width="0.5" stroke="Red" fill="Red"/>
   </g>
   <g id="cell159">
  <circle cx="472.962" cy="528.89" r="7.59183" stroke-width="0.5" stroke="black" fill="Red"/>
  <circle cx="472.962" cy="528.89" r="4.61399" stroke-width="0.5" stroke="Red" fill="Red"/>
   </g>
   <g id="cell160">
  <circle cx="504.637" cy="559.435" r="7.56839" stroke-width="0.5" stroke="black" fill="blue"/>
  <circle cx="504.637" cy="559.435" r="4.59998" stroke-width="0.5" stroke="blue" fill="blue"/>
   </g>
   <g id="cell161">
  <circle cx="517.689" cy="478.925" r="6.52855" stroke-width="0.5" stroke="black" fill="Red"/>
  <circle cx="517.689" cy="478.925" r="4.00502" stroke-width="0.5" stroke="Red" fill="Red"/>
   </g>
   <g id="cell162">
  <circle cx="581.877" cy="530.688" r="7.46878" stroke-width="0.5" stroke="black" fill="Red"/>
  <circle cx="581.877" cy="530.688" r="4.53982" stroke-width="0.5" stroke="Red" fill="Red"/>
   </g>
   <g id="cell163">
  <circle cx="472.273" cy="516.753" r="7.12686" stroke-width="0.5" stroke="black" fill="Red"/>
  <circle cx="472.273" cy="516.753" r="4.36525" stroke-width="0.5" stroke="Red" fill="Red"/>
   </g>
   <g id="cell164">
  <circle cx="434.892" cy="494.759" r="7.46878" stroke-width="0.5" stroke="black" fill="Red"/>
  <circle cx="434.892" cy="494.759" r="4.53982" stroke-width="0.5" stroke="Red" fill="Red"/>
   </g>
   <g id="cell165">
  <circle cx="465.364" cy="444.433" r="7.41548" stroke-width="0.5" stroke="black" fill="blue"/>
  <circle cx="465.364" cy="444.433" r="4.50723" stroke-width="0.5" stroke="blue" fill="blue"/>
   </g>
   <g id="cell166">
  <circle cx="491.746" cy="436.65" r="7.41548" stroke-width="0.5" stroke="black" fill="blue"/>
  <circle cx="491.746" cy="436.65" r="4.50723" stroke-width="0.5" stroke="blue" fill="blue"/>
   </g>
   <g id="cell167">
  <circle cx="518.747" cy="454.234" r="7.06825" stroke-width="0.5" stroke="black" fill="Red"/>
  <circle cx="518.747" cy="454.234" r="4.32987" stroke-width="0.5" stroke="Red" fill="Red"/>
   </g>
   <g id="cell168">
  <circle cx="428.358" cy="528.758" r="6.53455" stroke-width="0.5" stroke="black" fill="Red"/>
  <circle cx="428.358" cy="528.758" r="4.01036" stroke-width="0.5" stroke="Red" fill="Red"/>
   </g>
   <g id="cell169">
  <circle cx="421.463" cy="458.003" r="7.27253" stroke-width="0.5" stroke="black" fill="blue"/>
  <circle cx="421.463" cy="458.003" r="4.41835" stroke-width="0.5" stroke="blue" fill="blue"/>
   </g>
   <g id="cell170">
  <circle cx="513.074" cy="486.557" r="5.29479" stroke-width="0.5" stroke="black" fill="Red"/>
  <circle cx="513.074" cy="486.557" r="3.25049" stroke-width="0.5" stroke="Red" fill="Red"/>
   </g>
   <g id="cell171">
  <circle cx="455.599" cy="582.406" r="7.21189" stroke-width="0.5" stroke="black" fill="Red"/>
  <circle cx="455.599" cy="582.406" r="4.37993" stroke-width="0.5" stroke="Red" fill="Red"/>
   </g>
   <g id="cell172">
  <circle cx="568.931" cy="442.379" r="6.68065" stroke-width="0.5" stroke="black" fill="blue"/>
  <circle cx="568.931" cy="442.379" r="4.09762" stroke-width="0.5" stroke="blue" fill="blue"/>
   </g>
   <g id="cell173">
  <circle cx="422.611" cy="519.368" r="6.53455" stroke-width="0.5" stroke="black" fill="Red"/>
  <circle cx="422.611" cy="519.368" r="4.01036" stroke-width="0.5" stroke="Red" fill="Red"/>
   </g>
   <g id="cell174">
  <circle cx="526.374" cy="472.088" r="6.52855" stroke-width="0.5" stroke="black" fill="blue"/>
  <circle cx="526.374" cy="472.088" r="4.00502" stroke-width="0.5" stroke="blue" fill="blue"/>
   </g>
   <g id="cell175">
  <circle cx="511.616" cy="422.189" r="7.0545" stroke-width="0.5" stroke="black" fill="Red"/>
  <circle cx="511.616" cy="422.189" r="4.27772" stroke-width="0.5" stroke="Red" fill="Red"/>
   </g>
   <g id="cell176">
  <circle cx="441.084" cy="434.472" r="6.67859" stroke-width="0.5" stroke="black" fill="yellow"/>
  <circle cx="441.084" cy="434.472" r="4.08632" stroke-width="0.5" stroke="yellow" fill="yellow"/>
   </g>
   <g id="cell177">
  <circle cx="557.267" cy="414.44" r="6.95901" stroke-width="0.5" stroke="black" fill="blue"/>
  <circle cx="557.267" cy="414.44" r="4.21341" stroke-width="0.5" stroke="blue" fill="blue"/>
   </g>
   <g id="cell178">
  <circle cx="521.271" cy="518.288" r="6.92764" stroke-width="0.5" stroke="black" fill="Red"/>
  <circle cx="521.271" cy="518.288" r="4.1918" stroke-width="0.5" stroke="Red" fill="Red"/>
   </g>
   <g id="cell179">
  <circle cx="457.272" cy="529.916" r="6.92764" stroke-width="0.5" stroke="black" fill="Red"/>
  <circle cx="457.272" cy="529.916" r="4.1918" stroke-width="0.5" stroke="Red" fill="Red"/>
   </g>
   <g id="cell180">
  <circle cx="460.968" cy="434.895" r="6.92764" stroke-width="0.5" stroke="black" fill="Red"/>
  <circle cx="460.968" cy="434.895" r="4.1918" stroke-width="0.5" stroke="Red" fill="Red"/>
   </g>
   <g id="cell181">
  <circle cx="495.924" cy="501.448" r="6.86652" stroke-width="0.5" stroke="black" fill="blue"/>
  <circle cx="495.924" cy="501.448" r="4.14883" stroke-width="0.5" stroke="blue" fill="blue"/>
   </g>
   <g id="cell182">
  <circle cx="473.035" cy="553.541" r="6.83713" stroke-width="0.5" stroke="black" fill="Red"/>
  <circle cx="473.035" cy="553.541" r="4.12773" stroke-width="0.5" stroke="Red" fill="Red"/>
   </g>
   <g id="cell183">
  <circle cx="471.468" cy="434.333" r="6.78181" stroke-width="0.5" stroke="black" fill="Red"/>
  <circle cx="471.468" cy="434.333" r="4.08714" stroke-width="0.5" stroke="Red" fill="Red"/>
   </g>
   <g id="cell184">
  <circle cx="503.812" cy="438.435" r="6.75639" stroke-width="0.5" stroke="black" fill="Red"/>
  <circle cx="503.812" cy="438.435" r="4.06813" stroke-width="0.5" stroke="Red" fill="Red"/>
   </g>
   <g id="cell185">
  <circle cx="491.395" cy="584.12" r="6.71158" stroke-width="0.5" stroke="black" fill="Red"/>
  <circle cx="491.395" cy="584.12" r="4.03435" stroke-width="0.5" stroke="Red" fill="Red"/>
   </g>
   <g id="cell186">
  <circle cx="505.425" cy="486.051" r="5.29479" stroke-width="0.5" stroke="black" fill="blue"/>
  <circle cx="505.425" cy="486.051" r="3.25049" stroke-width="0.5" stroke="blue" fill="blue"/>
   </g>
   <g id="cell187">
  <circle cx="565.352" cy="450.503" r="5.32729" stroke-width="0.5" stroke="black" fill="Red"/>
  <circle cx="565.352" cy="450.503" r="3.26896" stroke-width="0.5" stroke="Red" fill="Red"/>
   </g>
   <g id="cell188">
  <circle cx="562.412" cy="549.429" r="6.69288" stroke-width="0.5" stroke="black" fill="Red"/>
  <circle cx="562.412" cy="549.429" r="4.02051" stroke-width="0.5" stroke="Red" fill="Red"/>
   </g>
   <g id="cell189">
  <circle cx="464.558" cy="523.51" r="6.67717" stroke-width="0.5" stroke="black" fill="Red"/>
  <circle cx="464.558" cy="523.51" r="4.00951" stroke-width="0.5" stroke="Red" fill="Red"/>
   </g>
  </g>
 </g>
  <rect x="775" y="1035" width="200" height="10" stroke-width="2" stroke="rgb(255,255,255)" fill="rgb(0,0,0)"/>
  <text x="781.25" y="1028.75"
   font-family="Arial" font-size="25" fill="black" >
   200 &#956;m
  </text>
  <text x="25" y="1045"
   font-family="Arial" font-size="18.75" fill="black" >
   0 days, 0 hours, 1 minutes, and 52.1198 seconds
  </text>
  <rect x="0" y="70" width="1000" height="1000" stroke-width="2" stroke="rgb(0,0,0)" fill="none"/>
</svg>
