<?xml version="1.0" encoding="UTF-8" standalone="no"?>
<!-- Created with PhysiCell (http://PhysiCell.MathCancer.org/) -->
<svg 
 xmlns:dc="http://purl.org/dc/elements/1.1/" 
 xmlns:cc="http://creativecommons.org/ns#" 
 xmlns:rdf="http://www.w3.org/1999/02/22-rdf-syntax-ns#" 
 xmlns:svg="http://www.w3.org/2000/svg" 
 xmlns="http://www.w3.org/2000/svg" 
 version="1.1" 
 width="1000" 
 height="1070" 
 id="svg2">
  <rect x="0" y="0" width="1000" height="1070" stroke-width="2" stroke="white" fill="white"/>
  <text x="12.5" y="30"
   font-family="Arial" font-size="25" fill="black" >
   Current time: 0 days, 2 hours, and 50.00 minutes, z = 0.00 &#956;m
  </text>
  <text x="12.5" y="57.5"
   font-family="Arial" font-size="23.75" fill="black" >
   169 agents
  </text>
 <g id="tissue" 
    transform="translate(0,1070) scale(1,-1)">
  <g id="ECM">
  </g>
  <g id="cells">
   <g id="cell0">
  <circle cx="430.454" cy="448.803" r="8.41271" stroke-width="0.5" stroke="black" fill="blue"/>
  <circle cx="430.454" cy="448.803" r="5.05167" stroke-width="0.5" stroke="blue" fill="blue"/>
   </g>
   <g id="cell1">
  <circle cx="427.475" cy="464.066" r="8.41271" stroke-width="0.5" stroke="black" fill="yellow"/>
  <circle cx="427.475" cy="464.066" r="5.05167" stroke-width="0.5" stroke="yellow" fill="yellow"/>
   </g>
   <g id="cell2">
  <circle cx="428.042" cy="478.01" r="8.41271" stroke-width="0.5" stroke="black" fill="blue"/>
  <circle cx="428.042" cy="478.01" r="5.05167" stroke-width="0.5" stroke="blue" fill="blue"/>
   </g>
   <g id="cell3">
  <circle cx="426.534" cy="490.186" r="6.80881" stroke-width="0.5" stroke="black" fill="Red"/>
  <circle cx="426.534" cy="490.186" r="4.10709" stroke-width="0.5" stroke="Red" fill="Red"/>
   </g>
   <g id="cell4">
  <circle cx="431.562" cy="513.545" r="8.41271" stroke-width="0.5" stroke="black" fill="Red"/>
  <circle cx="431.562" cy="513.545" r="5.05167" stroke-width="0.5" stroke="Red" fill="Red"/>
   </g>
   <g id="cell5">
  <circle cx="420.231" cy="523.311" r="6.73287" stroke-width="0.5" stroke="black" fill="Red"/>
  <circle cx="420.231" cy="523.311" r="4.05039" stroke-width="0.5" stroke="Red" fill="Red"/>
   </g>
   <g id="cell6">
  <circle cx="428.909" cy="537.071" r="8.41271" stroke-width="0.5" stroke="black" fill="blue"/>
  <circle cx="428.909" cy="537.071" r="5.05167" stroke-width="0.5" stroke="blue" fill="blue"/>
   </g>
   <g id="cell7">
  <circle cx="442.007" cy="445.064" r="7.41548" stroke-width="0.5" stroke="black" fill="Red"/>
  <circle cx="442.007" cy="445.064" r="4.50723" stroke-width="0.5" stroke="Red" fill="Red"/>
   </g>
   <g id="cell8">
  <circle cx="439.933" cy="459.243" r="8.41271" stroke-width="0.5" stroke="black" fill="yellow"/>
  <circle cx="439.933" cy="459.243" r="5.05167" stroke-width="0.5" stroke="yellow" fill="yellow"/>
   </g>
   <g id="cell9">
  <circle cx="439.46" cy="473.226" r="8.41271" stroke-width="0.5" stroke="black" fill="Red"/>
  <circle cx="439.46" cy="473.226" r="5.05167" stroke-width="0.5" stroke="Red" fill="Red"/>
   </g>
   <g id="cell10">
  <circle cx="439.022" cy="488.473" r="8.41271" stroke-width="0.5" stroke="black" fill="yellow"/>
  <circle cx="439.022" cy="488.473" r="5.05167" stroke-width="0.5" stroke="yellow" fill="yellow"/>
   </g>
   <g id="cell11">
  <circle cx="441.865" cy="502.541" r="8.41271" stroke-width="0.5" stroke="black" fill="Red"/>
  <circle cx="441.865" cy="502.541" r="5.05167" stroke-width="0.5" stroke="Red" fill="Red"/>
   </g>
   <g id="cell12">
  <circle cx="438.941" cy="522.161" r="7.1497" stroke-width="0.5" stroke="black" fill="Red"/>
  <circle cx="438.941" cy="522.161" r="4.34001" stroke-width="0.5" stroke="Red" fill="Red"/>
   </g>
   <g id="cell13">
  <circle cx="442.464" cy="532.994" r="8.41271" stroke-width="0.5" stroke="black" fill="yellow"/>
  <circle cx="442.464" cy="532.994" r="5.05167" stroke-width="0.5" stroke="yellow" fill="yellow"/>
   </g>
   <g id="cell14">
  <circle cx="436.941" cy="547.216" r="8.41271" stroke-width="0.5" stroke="black" fill="yellow"/>
  <circle cx="436.941" cy="547.216" r="5.05167" stroke-width="0.5" stroke="yellow" fill="yellow"/>
   </g>
   <g id="cell15">
  <circle cx="440.275" cy="561.621" r="8.41271" stroke-width="0.5" stroke="black" fill="blue"/>
  <circle cx="440.275" cy="561.621" r="5.05167" stroke-width="0.5" stroke="blue" fill="blue"/>
   </g>
   <g id="cell16">
  <circle cx="454.028" cy="427.115" r="6.18075" stroke-width="0.5" stroke="black" fill="yellow"/>
  <circle cx="454.028" cy="427.115" r="3.78939" stroke-width="0.5" stroke="yellow" fill="yellow"/>
   </g>
   <g id="cell17">
  <circle cx="451.872" cy="439.104" r="8.41271" stroke-width="0.5" stroke="black" fill="Red"/>
  <circle cx="451.872" cy="439.104" r="5.05167" stroke-width="0.5" stroke="Red" fill="Red"/>
   </g>
   <g id="cell18">
  <circle cx="451.311" cy="453.796" r="8.41271" stroke-width="0.5" stroke="black" fill="Red"/>
  <circle cx="451.311" cy="453.796" r="5.05167" stroke-width="0.5" stroke="Red" fill="Red"/>
   </g>
   <g id="cell19">
  <circle cx="451.913" cy="467.362" r="8.41271" stroke-width="0.5" stroke="black" fill="blue"/>
  <circle cx="451.913" cy="467.362" r="5.05167" stroke-width="0.5" stroke="blue" fill="blue"/>
   </g>
   <g id="cell20">
  <circle cx="452.052" cy="480.917" r="8.41271" stroke-width="0.5" stroke="black" fill="Red"/>
  <circle cx="452.052" cy="480.917" r="5.05167" stroke-width="0.5" stroke="Red" fill="Red"/>
   </g>
   <g id="cell21">
  <circle cx="452.945" cy="494.549" r="8.41271" stroke-width="0.5" stroke="black" fill="blue"/>
  <circle cx="452.945" cy="494.549" r="5.05167" stroke-width="0.5" stroke="blue" fill="blue"/>
   </g>
   <g id="cell22">
  <circle cx="456.167" cy="508.471" r="8.41271" stroke-width="0.5" stroke="black" fill="Red"/>
  <circle cx="456.167" cy="508.471" r="5.05167" stroke-width="0.5" stroke="Red" fill="Red"/>
   </g>
   <g id="cell23">
  <circle cx="451.843" cy="524.249" r="8.41271" stroke-width="0.5" stroke="black" fill="Red"/>
  <circle cx="451.843" cy="524.249" r="5.05167" stroke-width="0.5" stroke="Red" fill="Red"/>
   </g>
   <g id="cell24">
  <circle cx="452.215" cy="541.051" r="8.41271" stroke-width="0.5" stroke="black" fill="blue"/>
  <circle cx="452.215" cy="541.051" r="5.05167" stroke-width="0.5" stroke="blue" fill="blue"/>
   </g>
   <g id="cell25">
  <circle cx="452.695" cy="554.547" r="8.41271" stroke-width="0.5" stroke="black" fill="yellow"/>
  <circle cx="452.695" cy="554.547" r="5.05167" stroke-width="0.5" stroke="yellow" fill="yellow"/>
   </g>
   <g id="cell26">
  <circle cx="452.468" cy="568.846" r="8.41271" stroke-width="0.5" stroke="black" fill="yellow"/>
  <circle cx="452.468" cy="568.846" r="5.05167" stroke-width="0.5" stroke="yellow" fill="yellow"/>
   </g>
   <g id="cell27">
  <circle cx="464.348" cy="417.011" r="8.41271" stroke-width="0.5" stroke="black" fill="yellow"/>
  <circle cx="464.348" cy="417.011" r="5.05167" stroke-width="0.5" stroke="yellow" fill="yellow"/>
   </g>
   <g id="cell28">
  <circle cx="465.104" cy="431.617" r="8.41271" stroke-width="0.5" stroke="black" fill="Red"/>
  <circle cx="465.104" cy="431.617" r="5.05167" stroke-width="0.5" stroke="Red" fill="Red"/>
   </g>
   <g id="cell29">
  <circle cx="460.634" cy="448.814" r="6.75639" stroke-width="0.5" stroke="black" fill="blue"/>
  <circle cx="460.634" cy="448.814" r="4.06813" stroke-width="0.5" stroke="blue" fill="blue"/>
   </g>
   <g id="cell30">
  <circle cx="464.409" cy="461.256" r="8.41271" stroke-width="0.5" stroke="black" fill="Red"/>
  <circle cx="464.409" cy="461.256" r="5.05167" stroke-width="0.5" stroke="Red" fill="Red"/>
   </g>
   <g id="cell31">
  <circle cx="464.833" cy="474.045" r="8.41271" stroke-width="0.5" stroke="black" fill="Red"/>
  <circle cx="464.833" cy="474.045" r="5.05167" stroke-width="0.5" stroke="Red" fill="Red"/>
   </g>
   <g id="cell32">
  <circle cx="463.982" cy="486.71" r="8.41271" stroke-width="0.5" stroke="black" fill="Red"/>
  <circle cx="463.982" cy="486.71" r="5.05167" stroke-width="0.5" stroke="Red" fill="Red"/>
   </g>
   <g id="cell33">
  <circle cx="464.595" cy="499.562" r="8.41271" stroke-width="0.5" stroke="black" fill="blue"/>
  <circle cx="464.595" cy="499.562" r="5.05167" stroke-width="0.5" stroke="blue" fill="blue"/>
   </g>
   <g id="cell34">
  <circle cx="463.097" cy="518.143" r="8.41271" stroke-width="0.5" stroke="black" fill="Red"/>
  <circle cx="463.097" cy="518.143" r="5.05167" stroke-width="0.5" stroke="Red" fill="Red"/>
   </g>
   <g id="cell35">
  <circle cx="461.506" cy="532.82" r="8.41271" stroke-width="0.5" stroke="black" fill="Red"/>
  <circle cx="461.506" cy="532.82" r="5.05167" stroke-width="0.5" stroke="Red" fill="Red"/>
   </g>
   <g id="cell36">
  <circle cx="465.562" cy="545.329" r="8.41271" stroke-width="0.5" stroke="black" fill="Red"/>
  <circle cx="465.562" cy="545.329" r="5.05167" stroke-width="0.5" stroke="Red" fill="Red"/>
   </g>
   <g id="cell37">
  <circle cx="464.924" cy="560.026" r="8.41271" stroke-width="0.5" stroke="black" fill="Red"/>
  <circle cx="464.924" cy="560.026" r="5.05167" stroke-width="0.5" stroke="Red" fill="Red"/>
   </g>
   <g id="cell38">
  <circle cx="467.272" cy="572.137" r="8.41271" stroke-width="0.5" stroke="black" fill="yellow"/>
  <circle cx="467.272" cy="572.137" r="5.05167" stroke-width="0.5" stroke="yellow" fill="yellow"/>
   </g>
   <g id="cell39">
  <circle cx="459.621" cy="582.63" r="8.41271" stroke-width="0.5" stroke="black" fill="blue"/>
  <circle cx="459.621" cy="582.63" r="5.05167" stroke-width="0.5" stroke="blue" fill="blue"/>
   </g>
   <g id="cell40">
  <circle cx="477.153" cy="409.552" r="8.41271" stroke-width="0.5" stroke="black" fill="blue"/>
  <circle cx="477.153" cy="409.552" r="5.05167" stroke-width="0.5" stroke="blue" fill="blue"/>
   </g>
   <g id="cell41">
  <circle cx="476.136" cy="423.611" r="8.41271" stroke-width="0.5" stroke="black" fill="yellow"/>
  <circle cx="476.136" cy="423.611" r="5.05167" stroke-width="0.5" stroke="yellow" fill="yellow"/>
   </g>
   <g id="cell42">
  <circle cx="478.95" cy="439.421" r="8.41271" stroke-width="0.5" stroke="black" fill="Red"/>
  <circle cx="478.95" cy="439.421" r="5.05167" stroke-width="0.5" stroke="Red" fill="Red"/>
   </g>
   <g id="cell43">
  <circle cx="473.97" cy="452.989" r="8.41271" stroke-width="0.5" stroke="black" fill="Red"/>
  <circle cx="473.97" cy="452.989" r="5.05167" stroke-width="0.5" stroke="Red" fill="Red"/>
   </g>
   <g id="cell44">
  <circle cx="476.918" cy="466.751" r="8.41271" stroke-width="0.5" stroke="black" fill="Red"/>
  <circle cx="476.918" cy="466.751" r="5.05167" stroke-width="0.5" stroke="Red" fill="Red"/>
   </g>
   <g id="cell45">
  <circle cx="476.93" cy="481.471" r="8.41271" stroke-width="0.5" stroke="black" fill="Red"/>
  <circle cx="476.93" cy="481.471" r="5.05167" stroke-width="0.5" stroke="Red" fill="Red"/>
   </g>
   <g id="cell46">
  <circle cx="476.937" cy="495.569" r="8.41271" stroke-width="0.5" stroke="black" fill="Red"/>
  <circle cx="476.937" cy="495.569" r="5.05167" stroke-width="0.5" stroke="Red" fill="Red"/>
   </g>
   <g id="cell47">
  <circle cx="472.667" cy="507.786" r="7.38797" stroke-width="0.5" stroke="black" fill="Red"/>
  <circle cx="472.667" cy="507.786" r="4.49029" stroke-width="0.5" stroke="Red" fill="Red"/>
   </g>
   <g id="cell48">
  <circle cx="480.71" cy="523.566" r="6.95901" stroke-width="0.5" stroke="black" fill="Red"/>
  <circle cx="480.71" cy="523.566" r="4.21341" stroke-width="0.5" stroke="Red" fill="Red"/>
   </g>
   <g id="cell49">
  <circle cx="476.317" cy="537.707" r="8.41271" stroke-width="0.5" stroke="black" fill="Red"/>
  <circle cx="476.317" cy="537.707" r="5.05167" stroke-width="0.5" stroke="Red" fill="Red"/>
   </g>
   <g id="cell50">
  <circle cx="477.506" cy="552.622" r="8.41271" stroke-width="0.5" stroke="black" fill="Red"/>
  <circle cx="477.506" cy="552.622" r="5.05167" stroke-width="0.5" stroke="Red" fill="Red"/>
   </g>
   <g id="cell51">
  <circle cx="478.361" cy="565.088" r="8.41271" stroke-width="0.5" stroke="black" fill="blue"/>
  <circle cx="478.361" cy="565.088" r="5.05167" stroke-width="0.5" stroke="blue" fill="blue"/>
   </g>
   <g id="cell52">
  <circle cx="477.222" cy="580.659" r="8.41271" stroke-width="0.5" stroke="black" fill="yellow"/>
  <circle cx="477.222" cy="580.659" r="5.05167" stroke-width="0.5" stroke="yellow" fill="yellow"/>
   </g>
   <g id="cell53">
  <circle cx="488.669" cy="416.965" r="8.41271" stroke-width="0.5" stroke="black" fill="yellow"/>
  <circle cx="488.669" cy="416.965" r="5.05167" stroke-width="0.5" stroke="yellow" fill="yellow"/>
   </g>
   <g id="cell54">
  <circle cx="489.956" cy="430.718" r="8.41271" stroke-width="0.5" stroke="black" fill="blue"/>
  <circle cx="489.956" cy="430.718" r="5.05167" stroke-width="0.5" stroke="blue" fill="blue"/>
   </g>
   <g id="cell55">
  <circle cx="485.372" cy="450.237" r="6.75639" stroke-width="0.5" stroke="black" fill="Red"/>
  <circle cx="485.372" cy="450.237" r="4.06813" stroke-width="0.5" stroke="Red" fill="Red"/>
   </g>
   <g id="cell56">
  <circle cx="493.514" cy="464.521" r="7.08639" stroke-width="0.5" stroke="black" fill="blue"/>
  <circle cx="493.514" cy="464.521" r="4.29876" stroke-width="0.5" stroke="blue" fill="blue"/>
   </g>
   <g id="cell57">
  <circle cx="488.357" cy="475.402" r="8.41271" stroke-width="0.5" stroke="black" fill="Red"/>
  <circle cx="488.357" cy="475.402" r="5.05167" stroke-width="0.5" stroke="Red" fill="Red"/>
   </g>
   <g id="cell58">
  <circle cx="488.087" cy="489.492" r="8.41271" stroke-width="0.5" stroke="black" fill="blue"/>
  <circle cx="488.087" cy="489.492" r="5.05167" stroke-width="0.5" stroke="blue" fill="blue"/>
   </g>
   <g id="cell59">
  <circle cx="489.501" cy="503.33" r="8.41271" stroke-width="0.5" stroke="black" fill="Red"/>
  <circle cx="489.501" cy="503.33" r="5.05167" stroke-width="0.5" stroke="Red" fill="Red"/>
   </g>
   <g id="cell60">
  <circle cx="491.117" cy="516.581" r="8.41271" stroke-width="0.5" stroke="black" fill="Red"/>
  <circle cx="491.117" cy="516.581" r="5.05167" stroke-width="0.5" stroke="Red" fill="Red"/>
   </g>
   <g id="cell61">
  <circle cx="488.646" cy="530.996" r="8.41271" stroke-width="0.5" stroke="black" fill="Red"/>
  <circle cx="488.646" cy="530.996" r="5.05167" stroke-width="0.5" stroke="Red" fill="Red"/>
   </g>
   <g id="cell62">
  <circle cx="488.253" cy="545.864" r="8.41271" stroke-width="0.5" stroke="black" fill="blue"/>
  <circle cx="488.253" cy="545.864" r="5.05167" stroke-width="0.5" stroke="blue" fill="blue"/>
   </g>
   <g id="cell63">
  <circle cx="490.895" cy="560.086" r="8.41271" stroke-width="0.5" stroke="black" fill="Red"/>
  <circle cx="490.895" cy="560.086" r="5.05167" stroke-width="0.5" stroke="Red" fill="Red"/>
   </g>
   <g id="cell64">
  <circle cx="489.322" cy="573.59" r="8.41271" stroke-width="0.5" stroke="black" fill="Red"/>
  <circle cx="489.322" cy="573.59" r="5.05167" stroke-width="0.5" stroke="Red" fill="Red"/>
   </g>
   <g id="cell65">
  <circle cx="491.132" cy="586.662" r="8.41271" stroke-width="0.5" stroke="black" fill="Red"/>
  <circle cx="491.132" cy="586.662" r="5.05167" stroke-width="0.5" stroke="Red" fill="Red"/>
   </g>
   <g id="cell66">
  <circle cx="502.153" cy="410.746" r="8.41271" stroke-width="0.5" stroke="black" fill="blue"/>
  <circle cx="502.153" cy="410.746" r="5.05167" stroke-width="0.5" stroke="blue" fill="blue"/>
   </g>
   <g id="cell67">
  <circle cx="501.395" cy="424.847" r="8.41271" stroke-width="0.5" stroke="black" fill="yellow"/>
  <circle cx="501.395" cy="424.847" r="5.05167" stroke-width="0.5" stroke="yellow" fill="yellow"/>
   </g>
   <g id="cell68">
  <circle cx="502.36" cy="439.607" r="8.41271" stroke-width="0.5" stroke="black" fill="Red"/>
  <circle cx="502.36" cy="439.607" r="5.05167" stroke-width="0.5" stroke="Red" fill="Red"/>
   </g>
   <g id="cell69">
  <circle cx="497.679" cy="452.84" r="8.41271" stroke-width="0.5" stroke="black" fill="Red"/>
  <circle cx="497.679" cy="452.84" r="5.05167" stroke-width="0.5" stroke="Red" fill="Red"/>
   </g>
   <g id="cell70">
  <circle cx="503.287" cy="469.893" r="8.41271" stroke-width="0.5" stroke="black" fill="blue"/>
  <circle cx="503.287" cy="469.893" r="5.05167" stroke-width="0.5" stroke="blue" fill="blue"/>
   </g>
   <g id="cell71">
  <circle cx="501.135" cy="483.014" r="8.41271" stroke-width="0.5" stroke="black" fill="Red"/>
  <circle cx="501.135" cy="483.014" r="5.05167" stroke-width="0.5" stroke="Red" fill="Red"/>
   </g>
   <g id="cell72">
  <circle cx="501.705" cy="496.281" r="8.41271" stroke-width="0.5" stroke="black" fill="Red"/>
  <circle cx="501.705" cy="496.281" r="5.05167" stroke-width="0.5" stroke="Red" fill="Red"/>
   </g>
   <g id="cell73">
  <circle cx="502.071" cy="509.402" r="8.41271" stroke-width="0.5" stroke="black" fill="Red"/>
  <circle cx="502.071" cy="509.402" r="5.05167" stroke-width="0.5" stroke="Red" fill="Red"/>
   </g>
   <g id="cell74">
  <circle cx="501.936" cy="524.389" r="8.41271" stroke-width="0.5" stroke="black" fill="Red"/>
  <circle cx="501.936" cy="524.389" r="5.05167" stroke-width="0.5" stroke="Red" fill="Red"/>
   </g>
   <g id="cell75">
  <circle cx="499.963" cy="538.43" r="8.41271" stroke-width="0.5" stroke="black" fill="blue"/>
  <circle cx="499.963" cy="538.43" r="5.05167" stroke-width="0.5" stroke="blue" fill="blue"/>
   </g>
   <g id="cell76">
  <circle cx="501.059" cy="551.681" r="8.41271" stroke-width="0.5" stroke="black" fill="Red"/>
  <circle cx="501.059" cy="551.681" r="5.05167" stroke-width="0.5" stroke="Red" fill="Red"/>
   </g>
   <g id="cell77">
  <circle cx="499.769" cy="567.983" r="6.92764" stroke-width="0.5" stroke="black" fill="blue"/>
  <circle cx="499.769" cy="567.983" r="4.1918" stroke-width="0.5" stroke="blue" fill="blue"/>
   </g>
   <g id="cell78">
  <circle cx="502.528" cy="580.014" r="8.41271" stroke-width="0.5" stroke="black" fill="yellow"/>
  <circle cx="502.528" cy="580.014" r="5.05167" stroke-width="0.5" stroke="yellow" fill="yellow"/>
   </g>
   <g id="cell79">
  <circle cx="503.16" cy="594.806" r="8.41271" stroke-width="0.5" stroke="black" fill="blue"/>
  <circle cx="503.16" cy="594.806" r="5.05167" stroke-width="0.5" stroke="blue" fill="blue"/>
   </g>
   <g id="cell80">
  <circle cx="513.641" cy="417.338" r="8.41271" stroke-width="0.5" stroke="black" fill="yellow"/>
  <circle cx="513.641" cy="417.338" r="5.05167" stroke-width="0.5" stroke="yellow" fill="yellow"/>
   </g>
   <g id="cell81">
  <circle cx="513.838" cy="433.004" r="8.41271" stroke-width="0.5" stroke="black" fill="blue"/>
  <circle cx="513.838" cy="433.004" r="5.05167" stroke-width="0.5" stroke="blue" fill="blue"/>
   </g>
   <g id="cell82">
  <circle cx="512.835" cy="446.403" r="8.41271" stroke-width="0.5" stroke="black" fill="Red"/>
  <circle cx="512.835" cy="446.403" r="5.05167" stroke-width="0.5" stroke="Red" fill="Red"/>
   </g>
   <g id="cell83">
  <circle cx="508.799" cy="458.359" r="8.41271" stroke-width="0.5" stroke="black" fill="Red"/>
  <circle cx="508.799" cy="458.359" r="5.05167" stroke-width="0.5" stroke="Red" fill="Red"/>
   </g>
   <g id="cell84">
  <circle cx="514.165" cy="473.586" r="8.41271" stroke-width="0.5" stroke="black" fill="Red"/>
  <circle cx="514.165" cy="473.586" r="5.05167" stroke-width="0.5" stroke="Red" fill="Red"/>
   </g>
   <g id="cell85">
  <circle cx="513.328" cy="484.625" r="8.41271" stroke-width="0.5" stroke="black" fill="blue"/>
  <circle cx="513.328" cy="484.625" r="5.05167" stroke-width="0.5" stroke="blue" fill="blue"/>
   </g>
   <g id="cell86">
  <circle cx="514.669" cy="496.879" r="8.41271" stroke-width="0.5" stroke="black" fill="Red"/>
  <circle cx="514.669" cy="496.879" r="5.05167" stroke-width="0.5" stroke="Red" fill="Red"/>
   </g>
   <g id="cell87">
  <circle cx="512.401" cy="507.021" r="7.02257" stroke-width="0.5" stroke="black" fill="Red"/>
  <circle cx="512.401" cy="507.021" r="4.25644" stroke-width="0.5" stroke="Red" fill="Red"/>
   </g>
   <g id="cell88">
  <circle cx="513.094" cy="532.64" r="8.41271" stroke-width="0.5" stroke="black" fill="Red"/>
  <circle cx="513.094" cy="532.64" r="5.05167" stroke-width="0.5" stroke="Red" fill="Red"/>
   </g>
   <g id="cell89">
  <circle cx="512.181" cy="546.224" r="8.41271" stroke-width="0.5" stroke="black" fill="Red"/>
  <circle cx="512.181" cy="546.224" r="5.05167" stroke-width="0.5" stroke="Red" fill="Red"/>
   </g>
   <g id="cell90">
  <circle cx="514.208" cy="558.22" r="8.41271" stroke-width="0.5" stroke="black" fill="Red"/>
  <circle cx="514.208" cy="558.22" r="5.05167" stroke-width="0.5" stroke="Red" fill="Red"/>
   </g>
   <g id="cell91">
  <circle cx="512.586" cy="571.203" r="8.41271" stroke-width="0.5" stroke="black" fill="Red"/>
  <circle cx="512.586" cy="571.203" r="5.05167" stroke-width="0.5" stroke="Red" fill="Red"/>
   </g>
   <g id="cell92">
  <circle cx="515.983" cy="586.771" r="8.41271" stroke-width="0.5" stroke="black" fill="yellow"/>
  <circle cx="515.983" cy="586.771" r="5.05167" stroke-width="0.5" stroke="yellow" fill="yellow"/>
   </g>
   <g id="cell93">
  <circle cx="527.382" cy="413.752" r="8.41271" stroke-width="0.5" stroke="black" fill="blue"/>
  <circle cx="527.382" cy="413.752" r="5.05167" stroke-width="0.5" stroke="blue" fill="blue"/>
   </g>
   <g id="cell94">
  <circle cx="534.099" cy="425.14" r="7.0545" stroke-width="0.5" stroke="black" fill="Red"/>
  <circle cx="534.099" cy="425.14" r="4.27772" stroke-width="0.5" stroke="Red" fill="Red"/>
   </g>
   <g id="cell95">
  <circle cx="527.529" cy="436.129" r="8.41271" stroke-width="0.5" stroke="black" fill="Red"/>
  <circle cx="527.529" cy="436.129" r="5.05167" stroke-width="0.5" stroke="Red" fill="Red"/>
   </g>
   <g id="cell96">
  <circle cx="523.904" cy="445.75" r="5.96599" stroke-width="0.5" stroke="black" fill="blue"/>
  <circle cx="523.904" cy="445.75" r="3.63642" stroke-width="0.5" stroke="blue" fill="blue"/>
   </g>
   <g id="cell97">
  <circle cx="519.917" cy="464.828" r="8.41271" stroke-width="0.5" stroke="black" fill="Red"/>
  <circle cx="519.917" cy="464.828" r="5.05167" stroke-width="0.5" stroke="Red" fill="Red"/>
   </g>
   <g id="cell98">
  <circle cx="525.107" cy="487.694" r="6.83713" stroke-width="0.5" stroke="black" fill="blue"/>
  <circle cx="525.107" cy="487.694" r="4.12773" stroke-width="0.5" stroke="blue" fill="blue"/>
   </g>
   <g id="cell99">
  <circle cx="526.509" cy="499.867" r="8.41271" stroke-width="0.5" stroke="black" fill="Red"/>
  <circle cx="526.509" cy="499.867" r="5.05167" stroke-width="0.5" stroke="Red" fill="Red"/>
   </g>
   <g id="cell100">
  <circle cx="522.772" cy="511.254" r="8.41271" stroke-width="0.5" stroke="black" fill="Red"/>
  <circle cx="522.772" cy="511.254" r="5.05167" stroke-width="0.5" stroke="Red" fill="Red"/>
   </g>
   <g id="cell101">
  <circle cx="521.98" cy="524.589" r="8.41271" stroke-width="0.5" stroke="black" fill="Red"/>
  <circle cx="521.98" cy="524.589" r="5.05167" stroke-width="0.5" stroke="Red" fill="Red"/>
   </g>
   <g id="cell102">
  <circle cx="529.805" cy="531.939" r="7.30216" stroke-width="0.5" stroke="black" fill="Red"/>
  <circle cx="529.805" cy="531.939" r="4.43696" stroke-width="0.5" stroke="Red" fill="Red"/>
   </g>
   <g id="cell103">
  <circle cx="525.275" cy="550.057" r="8.41271" stroke-width="0.5" stroke="black" fill="Red"/>
  <circle cx="525.275" cy="550.057" r="5.05167" stroke-width="0.5" stroke="Red" fill="Red"/>
   </g>
   <g id="cell104">
  <circle cx="526.015" cy="562.869" r="8.41271" stroke-width="0.5" stroke="black" fill="Red"/>
  <circle cx="526.015" cy="562.869" r="5.05167" stroke-width="0.5" stroke="Red" fill="Red"/>
   </g>
   <g id="cell105">
  <circle cx="524.322" cy="575.11" r="8.41271" stroke-width="0.5" stroke="black" fill="blue"/>
  <circle cx="524.322" cy="575.11" r="5.05167" stroke-width="0.5" stroke="blue" fill="blue"/>
   </g>
   <g id="cell106">
  <circle cx="542.766" cy="417.118" r="8.41271" stroke-width="0.5" stroke="black" fill="yellow"/>
  <circle cx="542.766" cy="417.118" r="5.05167" stroke-width="0.5" stroke="yellow" fill="yellow"/>
   </g>
   <g id="cell107">
  <circle cx="541.308" cy="435.914" r="8.41271" stroke-width="0.5" stroke="black" fill="yellow"/>
  <circle cx="541.308" cy="435.914" r="5.05167" stroke-width="0.5" stroke="yellow" fill="yellow"/>
   </g>
   <g id="cell108">
  <circle cx="535.107" cy="447.284" r="8.41271" stroke-width="0.5" stroke="black" fill="Red"/>
  <circle cx="535.107" cy="447.284" r="5.05167" stroke-width="0.5" stroke="Red" fill="Red"/>
   </g>
   <g id="cell109">
  <circle cx="540.638" cy="463.593" r="8.41271" stroke-width="0.5" stroke="black" fill="Red"/>
  <circle cx="540.638" cy="463.593" r="5.05167" stroke-width="0.5" stroke="Red" fill="Red"/>
   </g>
   <g id="cell110">
  <circle cx="536.458" cy="476.878" r="8.41271" stroke-width="0.5" stroke="black" fill="Red"/>
  <circle cx="536.458" cy="476.878" r="5.05167" stroke-width="0.5" stroke="Red" fill="Red"/>
   </g>
   <g id="cell111">
  <circle cx="536.826" cy="490.386" r="8.41271" stroke-width="0.5" stroke="black" fill="blue"/>
  <circle cx="536.826" cy="490.386" r="5.05167" stroke-width="0.5" stroke="blue" fill="blue"/>
   </g>
   <g id="cell112">
  <circle cx="539.196" cy="503.09" r="8.41271" stroke-width="0.5" stroke="black" fill="Red"/>
  <circle cx="539.196" cy="503.09" r="5.05167" stroke-width="0.5" stroke="Red" fill="Red"/>
   </g>
   <g id="cell113">
  <circle cx="534.047" cy="515.202" r="8.41271" stroke-width="0.5" stroke="black" fill="blue"/>
  <circle cx="534.047" cy="515.202" r="5.05167" stroke-width="0.5" stroke="blue" fill="blue"/>
   </g>
   <g id="cell114">
  <circle cx="539.838" cy="527.095" r="8.41271" stroke-width="0.5" stroke="black" fill="Red"/>
  <circle cx="539.838" cy="527.095" r="5.05167" stroke-width="0.5" stroke="Red" fill="Red"/>
   </g>
   <g id="cell115">
  <circle cx="536.559" cy="542.167" r="8.41271" stroke-width="0.5" stroke="black" fill="Red"/>
  <circle cx="536.559" cy="542.167" r="5.05167" stroke-width="0.5" stroke="Red" fill="Red"/>
   </g>
   <g id="cell116">
  <circle cx="538.066" cy="556.648" r="8.41271" stroke-width="0.5" stroke="black" fill="Red"/>
  <circle cx="538.066" cy="556.648" r="5.05167" stroke-width="0.5" stroke="Red" fill="Red"/>
   </g>
   <g id="cell117">
  <circle cx="537.925" cy="569.896" r="8.41271" stroke-width="0.5" stroke="black" fill="Red"/>
  <circle cx="537.925" cy="569.896" r="5.05167" stroke-width="0.5" stroke="Red" fill="Red"/>
   </g>
   <g id="cell118">
  <circle cx="552.703" cy="428.232" r="8.41271" stroke-width="0.5" stroke="black" fill="blue"/>
  <circle cx="552.703" cy="428.232" r="5.05167" stroke-width="0.5" stroke="blue" fill="blue"/>
   </g>
   <g id="cell119">
  <circle cx="553.397" cy="443.251" r="8.41271" stroke-width="0.5" stroke="black" fill="yellow"/>
  <circle cx="553.397" cy="443.251" r="5.05167" stroke-width="0.5" stroke="yellow" fill="yellow"/>
   </g>
   <g id="cell120">
  <circle cx="555.198" cy="456.01" r="7.02257" stroke-width="0.5" stroke="black" fill="blue"/>
  <circle cx="555.198" cy="456.01" r="4.25644" stroke-width="0.5" stroke="blue" fill="blue"/>
   </g>
   <g id="cell121">
  <circle cx="553.238" cy="467.952" r="8.41271" stroke-width="0.5" stroke="black" fill="Red"/>
  <circle cx="553.238" cy="467.952" r="5.05167" stroke-width="0.5" stroke="Red" fill="Red"/>
   </g>
   <g id="cell122">
  <circle cx="549.908" cy="480.868" r="8.41271" stroke-width="0.5" stroke="black" fill="blue"/>
  <circle cx="549.908" cy="480.868" r="5.05167" stroke-width="0.5" stroke="blue" fill="blue"/>
   </g>
   <g id="cell123">
  <circle cx="549.687" cy="495.08" r="8.41271" stroke-width="0.5" stroke="black" fill="Red"/>
  <circle cx="549.687" cy="495.08" r="5.05167" stroke-width="0.5" stroke="Red" fill="Red"/>
   </g>
   <g id="cell124">
  <circle cx="550.206" cy="509.555" r="8.41271" stroke-width="0.5" stroke="black" fill="Red"/>
  <circle cx="550.206" cy="509.555" r="5.05167" stroke-width="0.5" stroke="Red" fill="Red"/>
   </g>
   <g id="cell125">
  <circle cx="546.671" cy="519.677" r="7.0545" stroke-width="0.5" stroke="black" fill="Red"/>
  <circle cx="546.671" cy="519.677" r="4.27772" stroke-width="0.5" stroke="Red" fill="Red"/>
   </g>
   <g id="cell126">
  <circle cx="549.044" cy="535.091" r="8.41271" stroke-width="0.5" stroke="black" fill="Red"/>
  <circle cx="549.044" cy="535.091" r="5.05167" stroke-width="0.5" stroke="Red" fill="Red"/>
   </g>
   <g id="cell127">
  <circle cx="550.242" cy="549.29" r="8.41271" stroke-width="0.5" stroke="black" fill="Red"/>
  <circle cx="550.242" cy="549.29" r="5.05167" stroke-width="0.5" stroke="Red" fill="Red"/>
   </g>
   <g id="cell128">
  <circle cx="550.402" cy="563.447" r="8.41271" stroke-width="0.5" stroke="black" fill="Red"/>
  <circle cx="550.402" cy="563.447" r="5.05167" stroke-width="0.5" stroke="Red" fill="Red"/>
   </g>
   <g id="cell129">
  <circle cx="577.646" cy="455.514" r="6.99069" stroke-width="0.5" stroke="black" fill="blue"/>
  <circle cx="577.646" cy="455.514" r="4.23498" stroke-width="0.5" stroke="blue" fill="blue"/>
   </g>
   <g id="cell130">
  <circle cx="566.446" cy="461.359" r="8.41271" stroke-width="0.5" stroke="black" fill="yellow"/>
  <circle cx="566.446" cy="461.359" r="5.05167" stroke-width="0.5" stroke="yellow" fill="yellow"/>
   </g>
   <g id="cell131">
  <circle cx="567.302" cy="474.973" r="8.41271" stroke-width="0.5" stroke="black" fill="Red"/>
  <circle cx="567.302" cy="474.973" r="5.05167" stroke-width="0.5" stroke="Red" fill="Red"/>
   </g>
   <g id="cell132">
  <circle cx="561.19" cy="485.81" r="8.41271" stroke-width="0.5" stroke="black" fill="Red"/>
  <circle cx="561.19" cy="485.81" r="5.05167" stroke-width="0.5" stroke="Red" fill="Red"/>
   </g>
   <g id="cell133">
  <circle cx="561.665" cy="499.666" r="8.41271" stroke-width="0.5" stroke="black" fill="blue"/>
  <circle cx="561.665" cy="499.666" r="5.05167" stroke-width="0.5" stroke="blue" fill="blue"/>
   </g>
   <g id="cell134">
  <circle cx="561.987" cy="515.043" r="8.41271" stroke-width="0.5" stroke="black" fill="Red"/>
  <circle cx="561.987" cy="515.043" r="5.05167" stroke-width="0.5" stroke="Red" fill="Red"/>
   </g>
   <g id="cell135">
  <circle cx="566.452" cy="529.772" r="8.41271" stroke-width="0.5" stroke="black" fill="Red"/>
  <circle cx="566.452" cy="529.772" r="5.05167" stroke-width="0.5" stroke="Red" fill="Red"/>
   </g>
   <g id="cell136">
  <circle cx="560.761" cy="541.687" r="8.41271" stroke-width="0.5" stroke="black" fill="Red"/>
  <circle cx="560.761" cy="541.687" r="5.05167" stroke-width="0.5" stroke="Red" fill="Red"/>
   </g>
   <g id="cell137">
  <circle cx="564.232" cy="554.992" r="8.41271" stroke-width="0.5" stroke="black" fill="blue"/>
  <circle cx="564.232" cy="554.992" r="5.05167" stroke-width="0.5" stroke="blue" fill="blue"/>
   </g>
   <g id="cell138">
  <circle cx="580.314" cy="468.138" r="8.41271" stroke-width="0.5" stroke="black" fill="yellow"/>
  <circle cx="580.314" cy="468.138" r="5.05167" stroke-width="0.5" stroke="yellow" fill="yellow"/>
   </g>
   <g id="cell139">
  <circle cx="579.481" cy="481.74" r="8.41271" stroke-width="0.5" stroke="black" fill="Red"/>
  <circle cx="579.481" cy="481.74" r="5.05167" stroke-width="0.5" stroke="Red" fill="Red"/>
   </g>
   <g id="cell140">
  <circle cx="572.286" cy="492.264" r="7.41548" stroke-width="0.5" stroke="black" fill="Red"/>
  <circle cx="572.286" cy="492.264" r="4.50723" stroke-width="0.5" stroke="Red" fill="Red"/>
   </g>
   <g id="cell141">
  <circle cx="575.463" cy="506.722" r="8.41271" stroke-width="0.5" stroke="black" fill="yellow"/>
  <circle cx="575.463" cy="506.722" r="5.05167" stroke-width="0.5" stroke="yellow" fill="yellow"/>
   </g>
   <g id="cell142">
  <circle cx="574.601" cy="520.156" r="6.80881" stroke-width="0.5" stroke="black" fill="blue"/>
  <circle cx="574.601" cy="520.156" r="4.10709" stroke-width="0.5" stroke="blue" fill="blue"/>
   </g>
   <g id="cell143">
  <circle cx="573.515" cy="542.358" r="8.41271" stroke-width="0.5" stroke="black" fill="blue"/>
  <circle cx="573.515" cy="542.358" r="5.05167" stroke-width="0.5" stroke="blue" fill="blue"/>
   </g>
   <g id="cell144">
  <circle cx="435.439" cy="436.011" r="7.41548" stroke-width="0.5" stroke="black" fill="Red"/>
  <circle cx="435.439" cy="436.011" r="4.50723" stroke-width="0.5" stroke="Red" fill="Red"/>
   </g>
   <g id="cell145">
  <circle cx="584.357" cy="496.003" r="7.41548" stroke-width="0.5" stroke="black" fill="blue"/>
  <circle cx="584.357" cy="496.003" r="4.50723" stroke-width="0.5" stroke="blue" fill="blue"/>
   </g>
   <g id="cell146">
  <circle cx="481.882" cy="510.834" r="6.03298" stroke-width="0.5" stroke="black" fill="blue"/>
  <circle cx="481.882" cy="510.834" r="3.68368" stroke-width="0.5" stroke="blue" fill="blue"/>
   </g>
   <g id="cell147">
  <circle cx="531.177" cy="457.001" r="6.64403" stroke-width="0.5" stroke="black" fill="Red"/>
  <circle cx="531.177" cy="457.001" r="4.07797" stroke-width="0.5" stroke="Red" fill="Red"/>
   </g>
   <g id="cell148">
  <circle cx="522.573" cy="538.508" r="7.30216" stroke-width="0.5" stroke="black" fill="blue"/>
  <circle cx="522.573" cy="538.508" r="4.43696" stroke-width="0.5" stroke="blue" fill="blue"/>
   </g>
   <g id="cell149">
  <circle cx="529.879" cy="467.872" r="6.64403" stroke-width="0.5" stroke="black" fill="blue"/>
  <circle cx="529.879" cy="467.872" r="4.07797" stroke-width="0.5" stroke="blue" fill="blue"/>
   </g>
   <g id="cell150">
  <circle cx="446.202" cy="513.732" r="7.1497" stroke-width="0.5" stroke="black" fill="blue"/>
  <circle cx="446.202" cy="513.732" r="4.34001" stroke-width="0.5" stroke="blue" fill="blue"/>
   </g>
   <g id="cell151">
  <circle cx="451.149" cy="418.048" r="7.1497" stroke-width="0.5" stroke="black" fill="blue"/>
  <circle cx="451.149" cy="418.048" r="4.34001" stroke-width="0.5" stroke="blue" fill="blue"/>
   </g>
   <g id="cell152">
  <circle cx="486.311" cy="459.435" r="7.08639" stroke-width="0.5" stroke="black" fill="blue"/>
  <circle cx="486.311" cy="459.435" r="4.29876" stroke-width="0.5" stroke="blue" fill="blue"/>
   </g>
   <g id="cell153">
  <circle cx="522.956" cy="424.732" r="7.0545" stroke-width="0.5" stroke="black" fill="Red"/>
  <circle cx="522.956" cy="424.732" r="4.27772" stroke-width="0.5" stroke="Red" fill="Red"/>
   </g>
   <g id="cell154">
  <circle cx="555.178" cy="525.321" r="7.0545" stroke-width="0.5" stroke="black" fill="blue"/>
  <circle cx="555.178" cy="525.321" r="4.27772" stroke-width="0.5" stroke="blue" fill="blue"/>
   </g>
   <g id="cell155">
  <circle cx="443.503" cy="427.484" r="6.18075" stroke-width="0.5" stroke="black" fill="Red"/>
  <circle cx="443.503" cy="427.484" r="3.78939" stroke-width="0.5" stroke="Red" fill="Red"/>
   </g>
   <g id="cell156">
  <circle cx="512.544" cy="517.646" r="7.02257" stroke-width="0.5" stroke="black" fill="blue"/>
  <circle cx="512.544" cy="517.646" r="4.25644" stroke-width="0.5" stroke="blue" fill="blue"/>
   </g>
   <g id="cell157">
  <circle cx="544.374" cy="453.427" r="7.02257" stroke-width="0.5" stroke="black" fill="blue"/>
  <circle cx="544.374" cy="453.427" r="4.25644" stroke-width="0.5" stroke="blue" fill="blue"/>
   </g>
   <g id="cell158">
  <circle cx="567.34" cy="450.164" r="6.99069" stroke-width="0.5" stroke="black" fill="Red"/>
  <circle cx="567.34" cy="450.164" r="4.23498" stroke-width="0.5" stroke="Red" fill="Red"/>
   </g>
   <g id="cell159">
  <circle cx="471.382" cy="526.487" r="6.95901" stroke-width="0.5" stroke="black" fill="blue"/>
  <circle cx="471.382" cy="526.487" r="4.21341" stroke-width="0.5" stroke="blue" fill="blue"/>
   </g>
   <g id="cell160">
  <circle cx="504.277" cy="561.883" r="6.92764" stroke-width="0.5" stroke="black" fill="Red"/>
  <circle cx="504.277" cy="561.883" r="4.1918" stroke-width="0.5" stroke="Red" fill="Red"/>
   </g>
   <g id="cell161">
  <circle cx="525.273" cy="477.76" r="6.83713" stroke-width="0.5" stroke="black" fill="Red"/>
  <circle cx="525.273" cy="477.76" r="4.12773" stroke-width="0.5" stroke="Red" fill="Red"/>
   </g>
   <g id="cell162">
  <circle cx="579.194" cy="530.863" r="6.80881" stroke-width="0.5" stroke="black" fill="Red"/>
  <circle cx="579.194" cy="530.863" r="4.10709" stroke-width="0.5" stroke="Red" fill="Red"/>
   </g>
   <g id="cell163">
  <circle cx="474.781" cy="517.062" r="6.03298" stroke-width="0.5" stroke="black" fill="Red"/>
  <circle cx="474.781" cy="517.062" r="3.68368" stroke-width="0.5" stroke="Red" fill="Red"/>
   </g>
   <g id="cell164">
  <circle cx="428.618" cy="500.98" r="6.80881" stroke-width="0.5" stroke="black" fill="blue"/>
  <circle cx="428.618" cy="500.98" r="4.10709" stroke-width="0.5" stroke="blue" fill="blue"/>
   </g>
   <g id="cell165">
  <circle cx="467.029" cy="442.601" r="6.75639" stroke-width="0.5" stroke="black" fill="blue"/>
  <circle cx="467.029" cy="442.601" r="4.06813" stroke-width="0.5" stroke="blue" fill="blue"/>
   </g>
   <g id="cell166">
  <circle cx="491.079" cy="441.523" r="6.75639" stroke-width="0.5" stroke="black" fill="blue"/>
  <circle cx="491.079" cy="441.523" r="4.06813" stroke-width="0.5" stroke="blue" fill="blue"/>
   </g>
   <g id="cell167">
  <circle cx="521.935" cy="454.876" r="5.96599" stroke-width="0.5" stroke="black" fill="Red"/>
  <circle cx="521.935" cy="454.876" r="3.63642" stroke-width="0.5" stroke="Red" fill="Red"/>
   </g>
   <g id="cell168">
  <circle cx="430.668" cy="526.646" r="6.73287" stroke-width="0.5" stroke="black" fill="Red"/>
  <circle cx="430.668" cy="526.646" r="4.05039" stroke-width="0.5" stroke="Red" fill="Red"/>
   </g>
  </g>
 </g>
  <rect x="775" y="1035" width="200" height="10" stroke-width="2" stroke="rgb(255,255,255)" fill="rgb(0,0,0)"/>
  <text x="781.25" y="1028.75"
   font-family="Arial" font-size="25" fill="black" >
   200 &#956;m
  </text>
  <text x="25" y="1045"
   font-family="Arial" font-size="18.75" fill="black" >
   0 days, 0 hours, 0 minutes, and 58.5949 seconds
  </text>
  <rect x="0" y="70" width="1000" height="1000" stroke-width="2" stroke="rgb(0,0,0)" fill="none"/>
</svg>
