<?xml version="1.0" encoding="UTF-8" standalone="no"?>
<!-- Created with PhysiCell (http://PhysiCell.MathCancer.org/) -->
<svg 
 xmlns:dc="http://purl.org/dc/elements/1.1/" 
 xmlns:cc="http://creativecommons.org/ns#" 
 xmlns:rdf="http://www.w3.org/1999/02/22-rdf-syntax-ns#" 
 xmlns:svg="http://www.w3.org/2000/svg" 
 xmlns="http://www.w3.org/2000/svg" 
 version="1.1" 
 width="1000" 
 height="1070" 
 id="svg2">
  <rect x="0" y="0" width="1000" height="1070" stroke-width="2" stroke="white" fill="white"/>
  <text x="12.5" y="30"
   font-family="Arial" font-size="25" fill="black" >
   Current time: 0 days, 1 hours, and 0.00 minutes, z = 0.00 &#956;m
  </text>
  <text x="12.5" y="57.5"
   font-family="Arial" font-size="23.75" fill="black" >
   150 agents
  </text>
 <g id="tissue" 
    transform="translate(0,1070) scale(1,-1)">
  <g id="ECM">
  </g>
  <g id="cells">
   <g id="cell0">
  <circle cx="423.769" cy="455.26" r="8.41271" stroke-width="0.5" stroke="black" fill="blue"/>
  <circle cx="423.769" cy="455.26" r="5.05167" stroke-width="0.5" stroke="blue" fill="blue"/>
   </g>
   <g id="cell1">
  <circle cx="423.621" cy="469.735" r="8.41271" stroke-width="0.5" stroke="black" fill="Red"/>
  <circle cx="423.621" cy="469.735" r="5.05167" stroke-width="0.5" stroke="Red" fill="Red"/>
   </g>
   <g id="cell2">
  <circle cx="425.752" cy="483.198" r="8.41271" stroke-width="0.5" stroke="black" fill="blue"/>
  <circle cx="425.752" cy="483.198" r="5.05167" stroke-width="0.5" stroke="blue" fill="blue"/>
   </g>
   <g id="cell3">
  <circle cx="426.97" cy="496.895" r="8.41271" stroke-width="0.5" stroke="black" fill="Red"/>
  <circle cx="426.97" cy="496.895" r="5.05167" stroke-width="0.5" stroke="Red" fill="Red"/>
   </g>
   <g id="cell4">
  <circle cx="427.187" cy="510.354" r="8.41271" stroke-width="0.5" stroke="black" fill="blue"/>
  <circle cx="427.187" cy="510.354" r="5.05167" stroke-width="0.5" stroke="blue" fill="blue"/>
   </g>
   <g id="cell5">
  <circle cx="424.244" cy="523.615" r="8.41271" stroke-width="0.5" stroke="black" fill="yellow"/>
  <circle cx="424.244" cy="523.615" r="5.05167" stroke-width="0.5" stroke="yellow" fill="yellow"/>
   </g>
   <g id="cell6">
  <circle cx="426.679" cy="536.134" r="8.41271" stroke-width="0.5" stroke="black" fill="blue"/>
  <circle cx="426.679" cy="536.134" r="5.05167" stroke-width="0.5" stroke="blue" fill="blue"/>
   </g>
   <g id="cell7">
  <circle cx="437.119" cy="449.438" r="6.83713" stroke-width="0.5" stroke="black" fill="yellow"/>
  <circle cx="437.119" cy="449.438" r="4.12773" stroke-width="0.5" stroke="yellow" fill="yellow"/>
   </g>
   <g id="cell8">
  <circle cx="435.707" cy="462.34" r="8.41271" stroke-width="0.5" stroke="black" fill="Red"/>
  <circle cx="435.707" cy="462.34" r="5.05167" stroke-width="0.5" stroke="Red" fill="Red"/>
   </g>
   <g id="cell9">
  <circle cx="436.643" cy="475.395" r="8.41271" stroke-width="0.5" stroke="black" fill="Red"/>
  <circle cx="436.643" cy="475.395" r="5.05167" stroke-width="0.5" stroke="Red" fill="Red"/>
   </g>
   <g id="cell10">
  <circle cx="438.288" cy="489.106" r="8.41271" stroke-width="0.5" stroke="black" fill="Red"/>
  <circle cx="438.288" cy="489.106" r="5.05167" stroke-width="0.5" stroke="Red" fill="Red"/>
   </g>
   <g id="cell11">
  <circle cx="438.334" cy="503.038" r="8.41271" stroke-width="0.5" stroke="black" fill="Red"/>
  <circle cx="438.334" cy="503.038" r="5.05167" stroke-width="0.5" stroke="Red" fill="Red"/>
   </g>
   <g id="cell12">
  <circle cx="438.728" cy="515.67" r="8.41271" stroke-width="0.5" stroke="black" fill="Red"/>
  <circle cx="438.728" cy="515.67" r="5.05167" stroke-width="0.5" stroke="Red" fill="Red"/>
   </g>
   <g id="cell13">
  <circle cx="439.411" cy="530.134" r="8.41271" stroke-width="0.5" stroke="black" fill="Red"/>
  <circle cx="439.411" cy="530.134" r="5.05167" stroke-width="0.5" stroke="Red" fill="Red"/>
   </g>
   <g id="cell14">
  <circle cx="438.253" cy="545.183" r="8.41271" stroke-width="0.5" stroke="black" fill="yellow"/>
  <circle cx="438.253" cy="545.183" r="5.05167" stroke-width="0.5" stroke="yellow" fill="yellow"/>
   </g>
   <g id="cell15">
  <circle cx="438.55" cy="561.098" r="8.41271" stroke-width="0.5" stroke="black" fill="blue"/>
  <circle cx="438.55" cy="561.098" r="5.05167" stroke-width="0.5" stroke="blue" fill="blue"/>
   </g>
   <g id="cell16">
  <circle cx="449.411" cy="427.394" r="8.41271" stroke-width="0.5" stroke="black" fill="blue"/>
  <circle cx="449.411" cy="427.394" r="5.05167" stroke-width="0.5" stroke="blue" fill="blue"/>
   </g>
   <g id="cell17">
  <circle cx="450.857" cy="440.872" r="8.41271" stroke-width="0.5" stroke="black" fill="Red"/>
  <circle cx="450.857" cy="440.872" r="5.05167" stroke-width="0.5" stroke="Red" fill="Red"/>
   </g>
   <g id="cell18">
  <circle cx="446.769" cy="453.783" r="8.41271" stroke-width="0.5" stroke="black" fill="Red"/>
  <circle cx="446.769" cy="453.783" r="5.05167" stroke-width="0.5" stroke="Red" fill="Red"/>
   </g>
   <g id="cell19">
  <circle cx="448.237" cy="466.297" r="8.41271" stroke-width="0.5" stroke="black" fill="blue"/>
  <circle cx="448.237" cy="466.297" r="5.05167" stroke-width="0.5" stroke="blue" fill="blue"/>
   </g>
   <g id="cell20">
  <circle cx="450.165" cy="480.831" r="8.41271" stroke-width="0.5" stroke="black" fill="Red"/>
  <circle cx="450.165" cy="480.831" r="5.05167" stroke-width="0.5" stroke="Red" fill="Red"/>
   </g>
   <g id="cell21">
  <circle cx="450.475" cy="495.434" r="8.41271" stroke-width="0.5" stroke="black" fill="Red"/>
  <circle cx="450.475" cy="495.434" r="5.05167" stroke-width="0.5" stroke="Red" fill="Red"/>
   </g>
   <g id="cell22">
  <circle cx="450.639" cy="509.53" r="8.41271" stroke-width="0.5" stroke="black" fill="blue"/>
  <circle cx="450.639" cy="509.53" r="5.05167" stroke-width="0.5" stroke="blue" fill="blue"/>
   </g>
   <g id="cell23">
  <circle cx="451.601" cy="522.34" r="8.41271" stroke-width="0.5" stroke="black" fill="Red"/>
  <circle cx="451.601" cy="522.34" r="5.05167" stroke-width="0.5" stroke="Red" fill="Red"/>
   </g>
   <g id="cell24">
  <circle cx="449.949" cy="537.574" r="8.41271" stroke-width="0.5" stroke="black" fill="blue"/>
  <circle cx="449.949" cy="537.574" r="5.05167" stroke-width="0.5" stroke="blue" fill="blue"/>
   </g>
   <g id="cell25">
  <circle cx="450.735" cy="551.974" r="8.41271" stroke-width="0.5" stroke="black" fill="yellow"/>
  <circle cx="450.735" cy="551.974" r="5.05167" stroke-width="0.5" stroke="yellow" fill="yellow"/>
   </g>
   <g id="cell26">
  <circle cx="451.335" cy="566.466" r="8.41271" stroke-width="0.5" stroke="black" fill="yellow"/>
  <circle cx="451.335" cy="566.466" r="5.05167" stroke-width="0.5" stroke="yellow" fill="yellow"/>
   </g>
   <g id="cell27">
  <circle cx="461.907" cy="418.473" r="8.41271" stroke-width="0.5" stroke="black" fill="yellow"/>
  <circle cx="461.907" cy="418.473" r="5.05167" stroke-width="0.5" stroke="yellow" fill="yellow"/>
   </g>
   <g id="cell28">
  <circle cx="462.773" cy="434.024" r="8.41271" stroke-width="0.5" stroke="black" fill="Red"/>
  <circle cx="462.773" cy="434.024" r="5.05167" stroke-width="0.5" stroke="Red" fill="Red"/>
   </g>
   <g id="cell29">
  <circle cx="460.446" cy="448.082" r="8.41271" stroke-width="0.5" stroke="black" fill="blue"/>
  <circle cx="460.446" cy="448.082" r="5.05167" stroke-width="0.5" stroke="blue" fill="blue"/>
   </g>
   <g id="cell30">
  <circle cx="460.707" cy="460.184" r="8.41271" stroke-width="0.5" stroke="black" fill="Red"/>
  <circle cx="460.707" cy="460.184" r="5.05167" stroke-width="0.5" stroke="Red" fill="Red"/>
   </g>
   <g id="cell31">
  <circle cx="462.159" cy="473.474" r="8.41271" stroke-width="0.5" stroke="black" fill="Red"/>
  <circle cx="462.159" cy="473.474" r="5.05167" stroke-width="0.5" stroke="Red" fill="Red"/>
   </g>
   <g id="cell32">
  <circle cx="462.105" cy="487.626" r="8.41271" stroke-width="0.5" stroke="black" fill="Red"/>
  <circle cx="462.105" cy="487.626" r="5.05167" stroke-width="0.5" stroke="Red" fill="Red"/>
   </g>
   <g id="cell33">
  <circle cx="462.548" cy="501.585" r="8.41271" stroke-width="0.5" stroke="black" fill="Red"/>
  <circle cx="462.548" cy="501.585" r="5.05167" stroke-width="0.5" stroke="Red" fill="Red"/>
   </g>
   <g id="cell34">
  <circle cx="465.056" cy="514.845" r="8.41271" stroke-width="0.5" stroke="black" fill="Red"/>
  <circle cx="465.056" cy="514.845" r="5.05167" stroke-width="0.5" stroke="Red" fill="Red"/>
   </g>
   <g id="cell35">
  <circle cx="462.546" cy="529.38" r="8.41271" stroke-width="0.5" stroke="black" fill="blue"/>
  <circle cx="462.546" cy="529.38" r="5.05167" stroke-width="0.5" stroke="blue" fill="blue"/>
   </g>
   <g id="cell36">
  <circle cx="463.361" cy="543.422" r="8.41271" stroke-width="0.5" stroke="black" fill="Red"/>
  <circle cx="463.361" cy="543.422" r="5.05167" stroke-width="0.5" stroke="Red" fill="Red"/>
   </g>
   <g id="cell37">
  <circle cx="463.137" cy="557.895" r="8.41271" stroke-width="0.5" stroke="black" fill="Red"/>
  <circle cx="463.137" cy="557.895" r="5.05167" stroke-width="0.5" stroke="Red" fill="Red"/>
   </g>
   <g id="cell38">
  <circle cx="464.193" cy="570.374" r="8.41271" stroke-width="0.5" stroke="black" fill="yellow"/>
  <circle cx="464.193" cy="570.374" r="5.05167" stroke-width="0.5" stroke="yellow" fill="yellow"/>
   </g>
   <g id="cell39">
  <circle cx="460.069" cy="582.249" r="8.41271" stroke-width="0.5" stroke="black" fill="blue"/>
  <circle cx="460.069" cy="582.249" r="5.05167" stroke-width="0.5" stroke="blue" fill="blue"/>
   </g>
   <g id="cell40">
  <circle cx="475.325" cy="411.641" r="8.41271" stroke-width="0.5" stroke="black" fill="blue"/>
  <circle cx="475.325" cy="411.641" r="5.05167" stroke-width="0.5" stroke="blue" fill="blue"/>
   </g>
   <g id="cell41">
  <circle cx="474.972" cy="426.312" r="8.41271" stroke-width="0.5" stroke="black" fill="Red"/>
  <circle cx="474.972" cy="426.312" r="5.05167" stroke-width="0.5" stroke="Red" fill="Red"/>
   </g>
   <g id="cell42">
  <circle cx="474.919" cy="440.004" r="8.41271" stroke-width="0.5" stroke="black" fill="Red"/>
  <circle cx="474.919" cy="440.004" r="5.05167" stroke-width="0.5" stroke="Red" fill="Red"/>
   </g>
   <g id="cell43">
  <circle cx="473.406" cy="453.494" r="8.41271" stroke-width="0.5" stroke="black" fill="Red"/>
  <circle cx="473.406" cy="453.494" r="5.05167" stroke-width="0.5" stroke="Red" fill="Red"/>
   </g>
   <g id="cell44">
  <circle cx="475.611" cy="467.334" r="8.41271" stroke-width="0.5" stroke="black" fill="blue"/>
  <circle cx="475.611" cy="467.334" r="5.05167" stroke-width="0.5" stroke="blue" fill="blue"/>
   </g>
   <g id="cell45">
  <circle cx="474.785" cy="481.433" r="8.41271" stroke-width="0.5" stroke="black" fill="Red"/>
  <circle cx="474.785" cy="481.433" r="5.05167" stroke-width="0.5" stroke="Red" fill="Red"/>
   </g>
   <g id="cell46">
  <circle cx="475.23" cy="494.812" r="8.41271" stroke-width="0.5" stroke="black" fill="Red"/>
  <circle cx="475.23" cy="494.812" r="5.05167" stroke-width="0.5" stroke="Red" fill="Red"/>
   </g>
   <g id="cell47">
  <circle cx="473.081" cy="506.136" r="6.80881" stroke-width="0.5" stroke="black" fill="Red"/>
  <circle cx="473.081" cy="506.136" r="4.10709" stroke-width="0.5" stroke="Red" fill="Red"/>
   </g>
   <g id="cell48">
  <circle cx="476.26" cy="523.155" r="8.41271" stroke-width="0.5" stroke="black" fill="Red"/>
  <circle cx="476.26" cy="523.155" r="5.05167" stroke-width="0.5" stroke="Red" fill="Red"/>
   </g>
   <g id="cell49">
  <circle cx="476.47" cy="535.849" r="8.41271" stroke-width="0.5" stroke="black" fill="Red"/>
  <circle cx="476.47" cy="535.849" r="5.05167" stroke-width="0.5" stroke="Red" fill="Red"/>
   </g>
   <g id="cell50">
  <circle cx="476.134" cy="550.436" r="8.41271" stroke-width="0.5" stroke="black" fill="Red"/>
  <circle cx="476.134" cy="550.436" r="5.05167" stroke-width="0.5" stroke="Red" fill="Red"/>
   </g>
   <g id="cell51">
  <circle cx="477.044" cy="564.865" r="8.41271" stroke-width="0.5" stroke="black" fill="blue"/>
  <circle cx="477.044" cy="564.865" r="5.05167" stroke-width="0.5" stroke="blue" fill="blue"/>
   </g>
   <g id="cell52">
  <circle cx="475.523" cy="580.041" r="8.41271" stroke-width="0.5" stroke="black" fill="yellow"/>
  <circle cx="475.523" cy="580.041" r="5.05167" stroke-width="0.5" stroke="yellow" fill="yellow"/>
   </g>
   <g id="cell53">
  <circle cx="487.654" cy="417.639" r="8.41271" stroke-width="0.5" stroke="black" fill="yellow"/>
  <circle cx="487.654" cy="417.639" r="5.05167" stroke-width="0.5" stroke="yellow" fill="yellow"/>
   </g>
   <g id="cell54">
  <circle cx="487.593" cy="431.724" r="8.41271" stroke-width="0.5" stroke="black" fill="Red"/>
  <circle cx="487.593" cy="431.724" r="5.05167" stroke-width="0.5" stroke="Red" fill="Red"/>
   </g>
   <g id="cell55">
  <circle cx="487.629" cy="445.761" r="8.41271" stroke-width="0.5" stroke="black" fill="Red"/>
  <circle cx="487.629" cy="445.761" r="5.05167" stroke-width="0.5" stroke="Red" fill="Red"/>
   </g>
   <g id="cell56">
  <circle cx="487.84" cy="460.176" r="8.41271" stroke-width="0.5" stroke="black" fill="Red"/>
  <circle cx="487.84" cy="460.176" r="5.05167" stroke-width="0.5" stroke="Red" fill="Red"/>
   </g>
   <g id="cell57">
  <circle cx="487.424" cy="474.128" r="8.41271" stroke-width="0.5" stroke="black" fill="Red"/>
  <circle cx="487.424" cy="474.128" r="5.05167" stroke-width="0.5" stroke="Red" fill="Red"/>
   </g>
   <g id="cell58">
  <circle cx="488.047" cy="488.162" r="8.41271" stroke-width="0.5" stroke="black" fill="blue"/>
  <circle cx="488.047" cy="488.162" r="5.05167" stroke-width="0.5" stroke="blue" fill="blue"/>
   </g>
   <g id="cell59">
  <circle cx="487.183" cy="502.571" r="8.41271" stroke-width="0.5" stroke="black" fill="Red"/>
  <circle cx="487.183" cy="502.571" r="5.05167" stroke-width="0.5" stroke="Red" fill="Red"/>
   </g>
   <g id="cell60">
  <circle cx="490.557" cy="516.408" r="8.41271" stroke-width="0.5" stroke="black" fill="Red"/>
  <circle cx="490.557" cy="516.408" r="5.05167" stroke-width="0.5" stroke="Red" fill="Red"/>
   </g>
   <g id="cell61">
  <circle cx="488.956" cy="530.547" r="8.41271" stroke-width="0.5" stroke="black" fill="Red"/>
  <circle cx="488.956" cy="530.547" r="5.05167" stroke-width="0.5" stroke="Red" fill="Red"/>
   </g>
   <g id="cell62">
  <circle cx="488.984" cy="543.131" r="8.41271" stroke-width="0.5" stroke="black" fill="Red"/>
  <circle cx="488.984" cy="543.131" r="5.05167" stroke-width="0.5" stroke="Red" fill="Red"/>
   </g>
   <g id="cell63">
  <circle cx="489.592" cy="557.707" r="8.41271" stroke-width="0.5" stroke="black" fill="Red"/>
  <circle cx="489.592" cy="557.707" r="5.05167" stroke-width="0.5" stroke="Red" fill="Red"/>
   </g>
   <g id="cell64">
  <circle cx="489.891" cy="571.972" r="8.41271" stroke-width="0.5" stroke="black" fill="Red"/>
  <circle cx="489.891" cy="571.972" r="5.05167" stroke-width="0.5" stroke="Red" fill="Red"/>
   </g>
   <g id="cell65">
  <circle cx="490.521" cy="586.455" r="8.41271" stroke-width="0.5" stroke="black" fill="yellow"/>
  <circle cx="490.521" cy="586.455" r="5.05167" stroke-width="0.5" stroke="yellow" fill="yellow"/>
   </g>
   <g id="cell66">
  <circle cx="500.796" cy="411.358" r="8.41271" stroke-width="0.5" stroke="black" fill="blue"/>
  <circle cx="500.796" cy="411.358" r="5.05167" stroke-width="0.5" stroke="blue" fill="blue"/>
   </g>
   <g id="cell67">
  <circle cx="500.977" cy="425.511" r="8.41271" stroke-width="0.5" stroke="black" fill="Red"/>
  <circle cx="500.977" cy="425.511" r="5.05167" stroke-width="0.5" stroke="Red" fill="Red"/>
   </g>
   <g id="cell68">
  <circle cx="500.637" cy="439.569" r="8.41271" stroke-width="0.5" stroke="black" fill="Red"/>
  <circle cx="500.637" cy="439.569" r="5.05167" stroke-width="0.5" stroke="Red" fill="Red"/>
   </g>
   <g id="cell69">
  <circle cx="500.992" cy="454.185" r="8.41271" stroke-width="0.5" stroke="black" fill="Red"/>
  <circle cx="500.992" cy="454.185" r="5.05167" stroke-width="0.5" stroke="Red" fill="Red"/>
   </g>
   <g id="cell70">
  <circle cx="501.832" cy="467.313" r="8.41271" stroke-width="0.5" stroke="black" fill="blue"/>
  <circle cx="501.832" cy="467.313" r="5.05167" stroke-width="0.5" stroke="blue" fill="blue"/>
   </g>
   <g id="cell71">
  <circle cx="499.936" cy="481.672" r="8.41271" stroke-width="0.5" stroke="black" fill="Red"/>
  <circle cx="499.936" cy="481.672" r="5.05167" stroke-width="0.5" stroke="Red" fill="Red"/>
   </g>
   <g id="cell72">
  <circle cx="500.7" cy="495.706" r="8.41271" stroke-width="0.5" stroke="black" fill="Red"/>
  <circle cx="500.7" cy="495.706" r="5.05167" stroke-width="0.5" stroke="Red" fill="Red"/>
   </g>
   <g id="cell73">
  <circle cx="502.34" cy="508.333" r="8.41271" stroke-width="0.5" stroke="black" fill="blue"/>
  <circle cx="502.34" cy="508.333" r="5.05167" stroke-width="0.5" stroke="blue" fill="blue"/>
   </g>
   <g id="cell74">
  <circle cx="502.1" cy="523.75" r="8.41271" stroke-width="0.5" stroke="black" fill="Red"/>
  <circle cx="502.1" cy="523.75" r="5.05167" stroke-width="0.5" stroke="Red" fill="Red"/>
   </g>
   <g id="cell75">
  <circle cx="502.695" cy="537.774" r="8.41271" stroke-width="0.5" stroke="black" fill="Red"/>
  <circle cx="502.695" cy="537.774" r="5.05167" stroke-width="0.5" stroke="Red" fill="Red"/>
   </g>
   <g id="cell76">
  <circle cx="501.904" cy="550.767" r="8.41271" stroke-width="0.5" stroke="black" fill="Red"/>
  <circle cx="501.904" cy="550.767" r="5.05167" stroke-width="0.5" stroke="Red" fill="Red"/>
   </g>
   <g id="cell77">
  <circle cx="502.693" cy="564.615" r="8.41271" stroke-width="0.5" stroke="black" fill="Red"/>
  <circle cx="502.693" cy="564.615" r="5.05167" stroke-width="0.5" stroke="Red" fill="Red"/>
   </g>
   <g id="cell78">
  <circle cx="502.199" cy="579.492" r="8.41271" stroke-width="0.5" stroke="black" fill="yellow"/>
  <circle cx="502.199" cy="579.492" r="5.05167" stroke-width="0.5" stroke="yellow" fill="yellow"/>
   </g>
   <g id="cell79">
  <circle cx="504.019" cy="595.822" r="8.41271" stroke-width="0.5" stroke="black" fill="blue"/>
  <circle cx="504.019" cy="595.822" r="5.05167" stroke-width="0.5" stroke="blue" fill="blue"/>
   </g>
   <g id="cell80">
  <circle cx="513.485" cy="416.712" r="8.41271" stroke-width="0.5" stroke="black" fill="yellow"/>
  <circle cx="513.485" cy="416.712" r="5.05167" stroke-width="0.5" stroke="yellow" fill="yellow"/>
   </g>
   <g id="cell81">
  <circle cx="514.662" cy="431.58" r="8.41271" stroke-width="0.5" stroke="black" fill="Red"/>
  <circle cx="514.662" cy="431.58" r="5.05167" stroke-width="0.5" stroke="Red" fill="Red"/>
   </g>
   <g id="cell82">
  <circle cx="513.078" cy="445.066" r="8.41271" stroke-width="0.5" stroke="black" fill="blue"/>
  <circle cx="513.078" cy="445.066" r="5.05167" stroke-width="0.5" stroke="blue" fill="blue"/>
   </g>
   <g id="cell83">
  <circle cx="513.748" cy="459.507" r="8.41271" stroke-width="0.5" stroke="black" fill="Red"/>
  <circle cx="513.748" cy="459.507" r="5.05167" stroke-width="0.5" stroke="Red" fill="Red"/>
   </g>
   <g id="cell84">
  <circle cx="514.115" cy="474.326" r="8.41271" stroke-width="0.5" stroke="black" fill="Red"/>
  <circle cx="514.115" cy="474.326" r="5.05167" stroke-width="0.5" stroke="Red" fill="Red"/>
   </g>
   <g id="cell85">
  <circle cx="513.335" cy="488.875" r="8.41271" stroke-width="0.5" stroke="black" fill="Red"/>
  <circle cx="513.335" cy="488.875" r="5.05167" stroke-width="0.5" stroke="Red" fill="Red"/>
   </g>
   <g id="cell86">
  <circle cx="513.806" cy="502.242" r="8.41271" stroke-width="0.5" stroke="black" fill="Red"/>
  <circle cx="513.806" cy="502.242" r="5.05167" stroke-width="0.5" stroke="Red" fill="Red"/>
   </g>
   <g id="cell87">
  <circle cx="515.027" cy="516.106" r="8.41271" stroke-width="0.5" stroke="black" fill="Red"/>
  <circle cx="515.027" cy="516.106" r="5.05167" stroke-width="0.5" stroke="Red" fill="Red"/>
   </g>
   <g id="cell88">
  <circle cx="514.074" cy="529.657" r="8.41271" stroke-width="0.5" stroke="black" fill="Red"/>
  <circle cx="514.074" cy="529.657" r="5.05167" stroke-width="0.5" stroke="Red" fill="Red"/>
   </g>
   <g id="cell89">
  <circle cx="514.947" cy="544.544" r="8.41271" stroke-width="0.5" stroke="black" fill="Red"/>
  <circle cx="514.947" cy="544.544" r="5.05167" stroke-width="0.5" stroke="Red" fill="Red"/>
   </g>
   <g id="cell90">
  <circle cx="515.954" cy="557.265" r="8.41271" stroke-width="0.5" stroke="black" fill="blue"/>
  <circle cx="515.954" cy="557.265" r="5.05167" stroke-width="0.5" stroke="blue" fill="blue"/>
   </g>
   <g id="cell91">
  <circle cx="514.74" cy="571.346" r="8.41271" stroke-width="0.5" stroke="black" fill="Red"/>
  <circle cx="514.74" cy="571.346" r="5.05167" stroke-width="0.5" stroke="Red" fill="Red"/>
   </g>
   <g id="cell92">
  <circle cx="514.553" cy="586.836" r="8.41271" stroke-width="0.5" stroke="black" fill="Red"/>
  <circle cx="514.553" cy="586.836" r="5.05167" stroke-width="0.5" stroke="Red" fill="Red"/>
   </g>
   <g id="cell93">
  <circle cx="526.254" cy="411.537" r="8.41271" stroke-width="0.5" stroke="black" fill="blue"/>
  <circle cx="526.254" cy="411.537" r="5.05167" stroke-width="0.5" stroke="blue" fill="blue"/>
   </g>
   <g id="cell94">
  <circle cx="526.622" cy="426.389" r="8.41271" stroke-width="0.5" stroke="black" fill="yellow"/>
  <circle cx="526.622" cy="426.389" r="5.05167" stroke-width="0.5" stroke="yellow" fill="yellow"/>
   </g>
   <g id="cell95">
  <circle cx="525.821" cy="439.901" r="8.41271" stroke-width="0.5" stroke="black" fill="Red"/>
  <circle cx="525.821" cy="439.901" r="5.05167" stroke-width="0.5" stroke="Red" fill="Red"/>
   </g>
   <g id="cell96">
  <circle cx="523.224" cy="451.717" r="6.80881" stroke-width="0.5" stroke="black" fill="Red"/>
  <circle cx="523.224" cy="451.717" r="4.10709" stroke-width="0.5" stroke="Red" fill="Red"/>
   </g>
   <g id="cell97">
  <circle cx="525.853" cy="467.265" r="8.41271" stroke-width="0.5" stroke="black" fill="Red"/>
  <circle cx="525.853" cy="467.265" r="5.05167" stroke-width="0.5" stroke="Red" fill="Red"/>
   </g>
   <g id="cell98">
  <circle cx="526.739" cy="481.953" r="8.41271" stroke-width="0.5" stroke="black" fill="blue"/>
  <circle cx="526.739" cy="481.953" r="5.05167" stroke-width="0.5" stroke="blue" fill="blue"/>
   </g>
   <g id="cell99">
  <circle cx="527.111" cy="496.371" r="8.41271" stroke-width="0.5" stroke="black" fill="Red"/>
  <circle cx="527.111" cy="496.371" r="5.05167" stroke-width="0.5" stroke="Red" fill="Red"/>
   </g>
   <g id="cell100">
  <circle cx="527.025" cy="509.951" r="8.41271" stroke-width="0.5" stroke="black" fill="Red"/>
  <circle cx="527.025" cy="509.951" r="5.05167" stroke-width="0.5" stroke="Red" fill="Red"/>
   </g>
   <g id="cell101">
  <circle cx="527.816" cy="524.641" r="8.41271" stroke-width="0.5" stroke="black" fill="Red"/>
  <circle cx="527.816" cy="524.641" r="5.05167" stroke-width="0.5" stroke="Red" fill="Red"/>
   </g>
   <g id="cell102">
  <circle cx="533.3" cy="537.383" r="6.73287" stroke-width="0.5" stroke="black" fill="blue"/>
  <circle cx="533.3" cy="537.383" r="4.05039" stroke-width="0.5" stroke="blue" fill="blue"/>
   </g>
   <g id="cell103">
  <circle cx="528.428" cy="549.151" r="8.41271" stroke-width="0.5" stroke="black" fill="Red"/>
  <circle cx="528.428" cy="549.151" r="5.05167" stroke-width="0.5" stroke="Red" fill="Red"/>
   </g>
   <g id="cell104">
  <circle cx="527.107" cy="564.684" r="8.41271" stroke-width="0.5" stroke="black" fill="Red"/>
  <circle cx="527.107" cy="564.684" r="5.05167" stroke-width="0.5" stroke="Red" fill="Red"/>
   </g>
   <g id="cell105">
  <circle cx="527.067" cy="579.154" r="8.41271" stroke-width="0.5" stroke="black" fill="blue"/>
  <circle cx="527.067" cy="579.154" r="5.05167" stroke-width="0.5" stroke="blue" fill="blue"/>
   </g>
   <g id="cell106">
  <circle cx="540.249" cy="417.038" r="8.41271" stroke-width="0.5" stroke="black" fill="yellow"/>
  <circle cx="540.249" cy="417.038" r="5.05167" stroke-width="0.5" stroke="yellow" fill="yellow"/>
   </g>
   <g id="cell107">
  <circle cx="539.157" cy="432.865" r="8.41271" stroke-width="0.5" stroke="black" fill="Red"/>
  <circle cx="539.157" cy="432.865" r="5.05167" stroke-width="0.5" stroke="Red" fill="Red"/>
   </g>
   <g id="cell108">
  <circle cx="536.996" cy="449.098" r="8.41271" stroke-width="0.5" stroke="black" fill="Red"/>
  <circle cx="536.996" cy="449.098" r="5.05167" stroke-width="0.5" stroke="Red" fill="Red"/>
   </g>
   <g id="cell109">
  <circle cx="543.581" cy="460.517" r="8.41271" stroke-width="0.5" stroke="black" fill="Red"/>
  <circle cx="543.581" cy="460.517" r="5.05167" stroke-width="0.5" stroke="Red" fill="Red"/>
   </g>
   <g id="cell110">
  <circle cx="539.808" cy="474.806" r="8.41271" stroke-width="0.5" stroke="black" fill="Red"/>
  <circle cx="539.808" cy="474.806" r="5.05167" stroke-width="0.5" stroke="Red" fill="Red"/>
   </g>
   <g id="cell111">
  <circle cx="540.054" cy="488.478" r="8.41271" stroke-width="0.5" stroke="black" fill="Red"/>
  <circle cx="540.054" cy="488.478" r="5.05167" stroke-width="0.5" stroke="Red" fill="Red"/>
   </g>
   <g id="cell112">
  <circle cx="540.239" cy="503.504" r="8.41271" stroke-width="0.5" stroke="black" fill="Red"/>
  <circle cx="540.239" cy="503.504" r="5.05167" stroke-width="0.5" stroke="Red" fill="Red"/>
   </g>
   <g id="cell113">
  <circle cx="540.476" cy="516.956" r="8.41271" stroke-width="0.5" stroke="black" fill="Red"/>
  <circle cx="540.476" cy="516.956" r="5.05167" stroke-width="0.5" stroke="Red" fill="Red"/>
   </g>
   <g id="cell114">
  <circle cx="542.006" cy="530.203" r="8.41271" stroke-width="0.5" stroke="black" fill="Red"/>
  <circle cx="542.006" cy="530.203" r="5.05167" stroke-width="0.5" stroke="Red" fill="Red"/>
   </g>
   <g id="cell115">
  <circle cx="543.094" cy="544.511" r="8.41271" stroke-width="0.5" stroke="black" fill="Red"/>
  <circle cx="543.094" cy="544.511" r="5.05167" stroke-width="0.5" stroke="Red" fill="Red"/>
   </g>
   <g id="cell116">
  <circle cx="540.053" cy="558.857" r="8.41271" stroke-width="0.5" stroke="black" fill="Red"/>
  <circle cx="540.053" cy="558.857" r="5.05167" stroke-width="0.5" stroke="Red" fill="Red"/>
   </g>
   <g id="cell117">
  <circle cx="538.792" cy="573.152" r="8.41271" stroke-width="0.5" stroke="black" fill="blue"/>
  <circle cx="538.792" cy="573.152" r="5.05167" stroke-width="0.5" stroke="blue" fill="blue"/>
   </g>
   <g id="cell118">
  <circle cx="553.075" cy="425.705" r="8.41271" stroke-width="0.5" stroke="black" fill="blue"/>
  <circle cx="553.075" cy="425.705" r="5.05167" stroke-width="0.5" stroke="blue" fill="blue"/>
   </g>
   <g id="cell119">
  <circle cx="551.193" cy="440.288" r="8.41271" stroke-width="0.5" stroke="black" fill="yellow"/>
  <circle cx="551.193" cy="440.288" r="5.05167" stroke-width="0.5" stroke="yellow" fill="yellow"/>
   </g>
   <g id="cell120">
  <circle cx="554.403" cy="454.36" r="8.41271" stroke-width="0.5" stroke="black" fill="yellow"/>
  <circle cx="554.403" cy="454.36" r="5.05167" stroke-width="0.5" stroke="yellow" fill="yellow"/>
   </g>
   <g id="cell121">
  <circle cx="554.024" cy="469.621" r="8.41271" stroke-width="0.5" stroke="black" fill="blue"/>
  <circle cx="554.024" cy="469.621" r="5.05167" stroke-width="0.5" stroke="blue" fill="blue"/>
   </g>
   <g id="cell122">
  <circle cx="553.104" cy="482.366" r="8.41271" stroke-width="0.5" stroke="black" fill="Red"/>
  <circle cx="553.104" cy="482.366" r="5.05167" stroke-width="0.5" stroke="Red" fill="Red"/>
   </g>
   <g id="cell123">
  <circle cx="552.697" cy="496.74" r="8.41271" stroke-width="0.5" stroke="black" fill="Red"/>
  <circle cx="552.697" cy="496.74" r="5.05167" stroke-width="0.5" stroke="Red" fill="Red"/>
   </g>
   <g id="cell124">
  <circle cx="553.726" cy="510.417" r="8.41271" stroke-width="0.5" stroke="black" fill="blue"/>
  <circle cx="553.726" cy="510.417" r="5.05167" stroke-width="0.5" stroke="blue" fill="blue"/>
   </g>
   <g id="cell125">
  <circle cx="554.305" cy="523.531" r="8.41271" stroke-width="0.5" stroke="black" fill="Red"/>
  <circle cx="554.305" cy="523.531" r="5.05167" stroke-width="0.5" stroke="Red" fill="Red"/>
   </g>
   <g id="cell126">
  <circle cx="555.415" cy="536.845" r="8.41271" stroke-width="0.5" stroke="black" fill="blue"/>
  <circle cx="555.415" cy="536.845" r="5.05167" stroke-width="0.5" stroke="blue" fill="blue"/>
   </g>
   <g id="cell127">
  <circle cx="553.943" cy="552.956" r="8.41271" stroke-width="0.5" stroke="black" fill="yellow"/>
  <circle cx="553.943" cy="552.956" r="5.05167" stroke-width="0.5" stroke="yellow" fill="yellow"/>
   </g>
   <g id="cell128">
  <circle cx="552.867" cy="565.784" r="8.41271" stroke-width="0.5" stroke="black" fill="Red"/>
  <circle cx="552.867" cy="565.784" r="5.05167" stroke-width="0.5" stroke="Red" fill="Red"/>
   </g>
   <g id="cell129">
  <circle cx="564.993" cy="445.425" r="8.41271" stroke-width="0.5" stroke="black" fill="blue"/>
  <circle cx="564.993" cy="445.425" r="5.05167" stroke-width="0.5" stroke="blue" fill="blue"/>
   </g>
   <g id="cell130">
  <circle cx="568.301" cy="459.949" r="8.41271" stroke-width="0.5" stroke="black" fill="yellow"/>
  <circle cx="568.301" cy="459.949" r="5.05167" stroke-width="0.5" stroke="yellow" fill="yellow"/>
   </g>
   <g id="cell131">
  <circle cx="567.448" cy="474.044" r="8.41271" stroke-width="0.5" stroke="black" fill="yellow"/>
  <circle cx="567.448" cy="474.044" r="5.05167" stroke-width="0.5" stroke="yellow" fill="yellow"/>
   </g>
   <g id="cell132">
  <circle cx="565.778" cy="488.586" r="8.41271" stroke-width="0.5" stroke="black" fill="Red"/>
  <circle cx="565.778" cy="488.586" r="5.05167" stroke-width="0.5" stroke="Red" fill="Red"/>
   </g>
   <g id="cell133">
  <circle cx="567.254" cy="502.608" r="8.41271" stroke-width="0.5" stroke="black" fill="Red"/>
  <circle cx="567.254" cy="502.608" r="5.05167" stroke-width="0.5" stroke="Red" fill="Red"/>
   </g>
   <g id="cell134">
  <circle cx="566.731" cy="516.654" r="8.41271" stroke-width="0.5" stroke="black" fill="Red"/>
  <circle cx="566.731" cy="516.654" r="5.05167" stroke-width="0.5" stroke="Red" fill="Red"/>
   </g>
   <g id="cell135">
  <circle cx="567.793" cy="531.177" r="8.41271" stroke-width="0.5" stroke="black" fill="yellow"/>
  <circle cx="567.793" cy="531.177" r="5.05167" stroke-width="0.5" stroke="yellow" fill="yellow"/>
   </g>
   <g id="cell136">
  <circle cx="567.141" cy="545.373" r="8.41271" stroke-width="0.5" stroke="black" fill="yellow"/>
  <circle cx="567.141" cy="545.373" r="5.05167" stroke-width="0.5" stroke="yellow" fill="yellow"/>
   </g>
   <g id="cell137">
  <circle cx="567.743" cy="558.677" r="8.41271" stroke-width="0.5" stroke="black" fill="blue"/>
  <circle cx="567.743" cy="558.677" r="5.05167" stroke-width="0.5" stroke="blue" fill="blue"/>
   </g>
   <g id="cell138">
  <circle cx="581.587" cy="467.495" r="8.41271" stroke-width="0.5" stroke="black" fill="blue"/>
  <circle cx="581.587" cy="467.495" r="5.05167" stroke-width="0.5" stroke="blue" fill="blue"/>
   </g>
   <g id="cell139">
  <circle cx="579.37" cy="481.536" r="8.41271" stroke-width="0.5" stroke="black" fill="yellow"/>
  <circle cx="579.37" cy="481.536" r="5.05167" stroke-width="0.5" stroke="yellow" fill="yellow"/>
   </g>
   <g id="cell140">
  <circle cx="578.102" cy="494.705" r="6.83713" stroke-width="0.5" stroke="black" fill="yellow"/>
  <circle cx="578.102" cy="494.705" r="4.12773" stroke-width="0.5" stroke="yellow" fill="yellow"/>
   </g>
   <g id="cell141">
  <circle cx="579.454" cy="510.145" r="8.41271" stroke-width="0.5" stroke="black" fill="yellow"/>
  <circle cx="579.454" cy="510.145" r="5.05167" stroke-width="0.5" stroke="yellow" fill="yellow"/>
   </g>
   <g id="cell142">
  <circle cx="579.287" cy="523.51" r="8.41271" stroke-width="0.5" stroke="black" fill="Red"/>
  <circle cx="579.287" cy="523.51" r="5.05167" stroke-width="0.5" stroke="Red" fill="Red"/>
   </g>
   <g id="cell143">
  <circle cx="580.146" cy="538.87" r="8.41271" stroke-width="0.5" stroke="black" fill="blue"/>
  <circle cx="580.146" cy="538.87" r="5.05167" stroke-width="0.5" stroke="blue" fill="blue"/>
   </g>
   <g id="cell144">
  <circle cx="440.135" cy="438.636" r="6.83713" stroke-width="0.5" stroke="black" fill="Red"/>
  <circle cx="440.135" cy="438.636" r="4.12773" stroke-width="0.5" stroke="Red" fill="Red"/>
   </g>
   <g id="cell145">
  <circle cx="588.403" cy="501.282" r="6.83713" stroke-width="0.5" stroke="black" fill="blue"/>
  <circle cx="588.403" cy="501.282" r="4.12773" stroke-width="0.5" stroke="blue" fill="blue"/>
   </g>
   <g id="cell146">
  <circle cx="480.113" cy="512.097" r="6.80881" stroke-width="0.5" stroke="black" fill="blue"/>
  <circle cx="480.113" cy="512.097" r="4.10709" stroke-width="0.5" stroke="blue" fill="blue"/>
   </g>
   <g id="cell147">
  <circle cx="530.346" cy="457.456" r="5.48858" stroke-width="0.5" stroke="black" fill="blue"/>
  <circle cx="530.346" cy="457.456" r="3.32079" stroke-width="0.5" stroke="blue" fill="blue"/>
   </g>
   <g id="cell148">
  <circle cx="523.671" cy="536.063" r="6.73287" stroke-width="0.5" stroke="black" fill="blue"/>
  <circle cx="523.671" cy="536.063" r="4.05039" stroke-width="0.5" stroke="blue" fill="blue"/>
   </g>
   <g id="cell149">
  <circle cx="535.767" cy="464.331" r="5.48858" stroke-width="0.5" stroke="black" fill="blue"/>
  <circle cx="535.767" cy="464.331" r="3.32079" stroke-width="0.5" stroke="blue" fill="blue"/>
   </g>
  </g>
 </g>
  <rect x="775" y="1035" width="200" height="10" stroke-width="2" stroke="rgb(255,255,255)" fill="rgb(0,0,0)"/>
  <text x="781.25" y="1028.75"
   font-family="Arial" font-size="25" fill="black" >
   200 &#956;m
  </text>
  <text x="25" y="1045"
   font-family="Arial" font-size="18.75" fill="black" >
   0 days, 0 hours, 0 minutes, and 16.7899 seconds
  </text>
  <rect x="0" y="70" width="1000" height="1000" stroke-width="2" stroke="rgb(0,0,0)" fill="none"/>
</svg>
