<?xml version="1.0" encoding="UTF-8" standalone="no"?>
<!-- Created with PhysiCell (http://PhysiCell.MathCancer.org/) -->
<svg 
 xmlns:dc="http://purl.org/dc/elements/1.1/" 
 xmlns:cc="http://creativecommons.org/ns#" 
 xmlns:rdf="http://www.w3.org/1999/02/22-rdf-syntax-ns#" 
 xmlns:svg="http://www.w3.org/2000/svg" 
 xmlns="http://www.w3.org/2000/svg" 
 version="1.1" 
 width="1000" 
 height="1070" 
 id="svg2">
  <rect x="0" y="0" width="1000" height="1070" stroke-width="2" stroke="white" fill="white"/>
  <text x="12.5" y="30"
   font-family="Arial" font-size="25" fill="black" >
   Current time: 0 days, 0 hours, and 35.00 minutes, z = 0.00 &#956;m
  </text>
  <text x="12.5" y="57.5"
   font-family="Arial" font-size="23.75" fill="black" >
   148 agents
  </text>
 <g id="tissue" 
    transform="translate(0,1070) scale(1,-1)">
  <g id="ECM">
  </g>
  <g id="cells">
   <g id="cell0">
  <circle cx="420.138" cy="454.608" r="8.41271" stroke-width="0.5" stroke="black" fill="blue"/>
  <circle cx="420.138" cy="454.608" r="5.05167" stroke-width="0.5" stroke="blue" fill="blue"/>
   </g>
   <g id="cell1">
  <circle cx="421.353" cy="467.757" r="8.41271" stroke-width="0.5" stroke="black" fill="yellow"/>
  <circle cx="421.353" cy="467.757" r="5.05167" stroke-width="0.5" stroke="yellow" fill="yellow"/>
   </g>
   <g id="cell2">
  <circle cx="421.148" cy="481.77" r="8.41271" stroke-width="0.5" stroke="black" fill="blue"/>
  <circle cx="421.148" cy="481.77" r="5.05167" stroke-width="0.5" stroke="blue" fill="blue"/>
   </g>
   <g id="cell3">
  <circle cx="422.987" cy="496.357" r="8.41271" stroke-width="0.5" stroke="black" fill="Red"/>
  <circle cx="422.987" cy="496.357" r="5.05167" stroke-width="0.5" stroke="Red" fill="Red"/>
   </g>
   <g id="cell4">
  <circle cx="423.578" cy="508.513" r="8.41271" stroke-width="0.5" stroke="black" fill="blue"/>
  <circle cx="423.578" cy="508.513" r="5.05167" stroke-width="0.5" stroke="blue" fill="blue"/>
   </g>
   <g id="cell5">
  <circle cx="421.813" cy="522.512" r="8.41271" stroke-width="0.5" stroke="black" fill="yellow"/>
  <circle cx="421.813" cy="522.512" r="5.05167" stroke-width="0.5" stroke="yellow" fill="yellow"/>
   </g>
   <g id="cell6">
  <circle cx="422.133" cy="536.524" r="8.41271" stroke-width="0.5" stroke="black" fill="blue"/>
  <circle cx="422.133" cy="536.524" r="5.05167" stroke-width="0.5" stroke="blue" fill="blue"/>
   </g>
   <g id="cell7">
  <circle cx="434.394" cy="448.337" r="6.73287" stroke-width="0.5" stroke="black" fill="yellow"/>
  <circle cx="434.394" cy="448.337" r="4.05039" stroke-width="0.5" stroke="yellow" fill="yellow"/>
   </g>
   <g id="cell8">
  <circle cx="435.401" cy="461.245" r="8.41271" stroke-width="0.5" stroke="black" fill="yellow"/>
  <circle cx="435.401" cy="461.245" r="5.05167" stroke-width="0.5" stroke="yellow" fill="yellow"/>
   </g>
   <g id="cell9">
  <circle cx="433.516" cy="474.804" r="8.41271" stroke-width="0.5" stroke="black" fill="Red"/>
  <circle cx="433.516" cy="474.804" r="5.05167" stroke-width="0.5" stroke="Red" fill="Red"/>
   </g>
   <g id="cell10">
  <circle cx="434.293" cy="488.667" r="8.41271" stroke-width="0.5" stroke="black" fill="Red"/>
  <circle cx="434.293" cy="488.667" r="5.05167" stroke-width="0.5" stroke="Red" fill="Red"/>
   </g>
   <g id="cell11">
  <circle cx="435.687" cy="502.175" r="8.41271" stroke-width="0.5" stroke="black" fill="Red"/>
  <circle cx="435.687" cy="502.175" r="5.05167" stroke-width="0.5" stroke="Red" fill="Red"/>
   </g>
   <g id="cell12">
  <circle cx="435.194" cy="516.038" r="8.41271" stroke-width="0.5" stroke="black" fill="Red"/>
  <circle cx="435.194" cy="516.038" r="5.05167" stroke-width="0.5" stroke="Red" fill="Red"/>
   </g>
   <g id="cell13">
  <circle cx="435.915" cy="529.646" r="8.41271" stroke-width="0.5" stroke="black" fill="yellow"/>
  <circle cx="435.915" cy="529.646" r="5.05167" stroke-width="0.5" stroke="yellow" fill="yellow"/>
   </g>
   <g id="cell14">
  <circle cx="435.515" cy="544.08" r="8.41271" stroke-width="0.5" stroke="black" fill="yellow"/>
  <circle cx="435.515" cy="544.08" r="5.05167" stroke-width="0.5" stroke="yellow" fill="yellow"/>
   </g>
   <g id="cell15">
  <circle cx="436.721" cy="561.061" r="8.41271" stroke-width="0.5" stroke="black" fill="blue"/>
  <circle cx="436.721" cy="561.061" r="5.05167" stroke-width="0.5" stroke="blue" fill="blue"/>
   </g>
   <g id="cell16">
  <circle cx="448.34" cy="428.099" r="8.41271" stroke-width="0.5" stroke="black" fill="blue"/>
  <circle cx="448.34" cy="428.099" r="5.05167" stroke-width="0.5" stroke="blue" fill="blue"/>
   </g>
   <g id="cell17">
  <circle cx="451.038" cy="440.979" r="8.41271" stroke-width="0.5" stroke="black" fill="yellow"/>
  <circle cx="451.038" cy="440.979" r="5.05167" stroke-width="0.5" stroke="yellow" fill="yellow"/>
   </g>
   <g id="cell18">
  <circle cx="447.66" cy="453.119" r="8.41271" stroke-width="0.5" stroke="black" fill="Red"/>
  <circle cx="447.66" cy="453.119" r="5.05167" stroke-width="0.5" stroke="Red" fill="Red"/>
   </g>
   <g id="cell19">
  <circle cx="447.591" cy="467.543" r="8.41271" stroke-width="0.5" stroke="black" fill="blue"/>
  <circle cx="447.591" cy="467.543" r="5.05167" stroke-width="0.5" stroke="blue" fill="blue"/>
   </g>
   <g id="cell20">
  <circle cx="446.98" cy="480.813" r="8.41271" stroke-width="0.5" stroke="black" fill="Red"/>
  <circle cx="446.98" cy="480.813" r="5.05167" stroke-width="0.5" stroke="Red" fill="Red"/>
   </g>
   <g id="cell21">
  <circle cx="447.125" cy="494.677" r="8.41271" stroke-width="0.5" stroke="black" fill="Red"/>
  <circle cx="447.125" cy="494.677" r="5.05167" stroke-width="0.5" stroke="Red" fill="Red"/>
   </g>
   <g id="cell22">
  <circle cx="448.565" cy="510.19" r="8.41271" stroke-width="0.5" stroke="black" fill="blue"/>
  <circle cx="448.565" cy="510.19" r="5.05167" stroke-width="0.5" stroke="blue" fill="blue"/>
   </g>
   <g id="cell23">
  <circle cx="448.445" cy="523.429" r="8.41271" stroke-width="0.5" stroke="black" fill="Red"/>
  <circle cx="448.445" cy="523.429" r="5.05167" stroke-width="0.5" stroke="Red" fill="Red"/>
   </g>
   <g id="cell24">
  <circle cx="448.793" cy="537.74" r="8.41271" stroke-width="0.5" stroke="black" fill="Red"/>
  <circle cx="448.793" cy="537.74" r="5.05167" stroke-width="0.5" stroke="Red" fill="Red"/>
   </g>
   <g id="cell25">
  <circle cx="448.299" cy="551.53" r="8.41271" stroke-width="0.5" stroke="black" fill="yellow"/>
  <circle cx="448.299" cy="551.53" r="5.05167" stroke-width="0.5" stroke="yellow" fill="yellow"/>
   </g>
   <g id="cell26">
  <circle cx="449.121" cy="565.681" r="8.41271" stroke-width="0.5" stroke="black" fill="yellow"/>
  <circle cx="449.121" cy="565.681" r="5.05167" stroke-width="0.5" stroke="yellow" fill="yellow"/>
   </g>
   <g id="cell27">
  <circle cx="460.223" cy="417.798" r="8.41271" stroke-width="0.5" stroke="black" fill="Red"/>
  <circle cx="460.223" cy="417.798" r="5.05167" stroke-width="0.5" stroke="Red" fill="Red"/>
   </g>
   <g id="cell28">
  <circle cx="461.645" cy="432.441" r="8.41271" stroke-width="0.5" stroke="black" fill="yellow"/>
  <circle cx="461.645" cy="432.441" r="5.05167" stroke-width="0.5" stroke="yellow" fill="yellow"/>
   </g>
   <g id="cell29">
  <circle cx="461.847" cy="446.564" r="8.41271" stroke-width="0.5" stroke="black" fill="blue"/>
  <circle cx="461.847" cy="446.564" r="5.05167" stroke-width="0.5" stroke="blue" fill="blue"/>
   </g>
   <g id="cell30">
  <circle cx="461.22" cy="460.491" r="8.41271" stroke-width="0.5" stroke="black" fill="Red"/>
  <circle cx="461.22" cy="460.491" r="5.05167" stroke-width="0.5" stroke="Red" fill="Red"/>
   </g>
   <g id="cell31">
  <circle cx="460.517" cy="474.279" r="8.41271" stroke-width="0.5" stroke="black" fill="Red"/>
  <circle cx="460.517" cy="474.279" r="5.05167" stroke-width="0.5" stroke="Red" fill="Red"/>
   </g>
   <g id="cell32">
  <circle cx="460.419" cy="487.391" r="8.41271" stroke-width="0.5" stroke="black" fill="Red"/>
  <circle cx="460.419" cy="487.391" r="5.05167" stroke-width="0.5" stroke="Red" fill="Red"/>
   </g>
   <g id="cell33">
  <circle cx="458.471" cy="501.185" r="8.41271" stroke-width="0.5" stroke="black" fill="Red"/>
  <circle cx="458.471" cy="501.185" r="5.05167" stroke-width="0.5" stroke="Red" fill="Red"/>
   </g>
   <g id="cell34">
  <circle cx="461.565" cy="515.504" r="8.41271" stroke-width="0.5" stroke="black" fill="Red"/>
  <circle cx="461.565" cy="515.504" r="5.05167" stroke-width="0.5" stroke="Red" fill="Red"/>
   </g>
   <g id="cell35">
  <circle cx="461.436" cy="530.331" r="8.41271" stroke-width="0.5" stroke="black" fill="Red"/>
  <circle cx="461.436" cy="530.331" r="5.05167" stroke-width="0.5" stroke="Red" fill="Red"/>
   </g>
   <g id="cell36">
  <circle cx="461.54" cy="544.424" r="8.41271" stroke-width="0.5" stroke="black" fill="blue"/>
  <circle cx="461.54" cy="544.424" r="5.05167" stroke-width="0.5" stroke="blue" fill="blue"/>
   </g>
   <g id="cell37">
  <circle cx="461.536" cy="558.336" r="8.41271" stroke-width="0.5" stroke="black" fill="Red"/>
  <circle cx="461.536" cy="558.336" r="5.05167" stroke-width="0.5" stroke="Red" fill="Red"/>
   </g>
   <g id="cell38">
  <circle cx="461.572" cy="572.636" r="8.41271" stroke-width="0.5" stroke="black" fill="yellow"/>
  <circle cx="461.572" cy="572.636" r="5.05167" stroke-width="0.5" stroke="yellow" fill="yellow"/>
   </g>
   <g id="cell39">
  <circle cx="459.492" cy="587.294" r="8.41271" stroke-width="0.5" stroke="black" fill="blue"/>
  <circle cx="459.492" cy="587.294" r="5.05167" stroke-width="0.5" stroke="blue" fill="blue"/>
   </g>
   <g id="cell40">
  <circle cx="473.76" cy="410.05" r="8.41271" stroke-width="0.5" stroke="black" fill="blue"/>
  <circle cx="473.76" cy="410.05" r="5.05167" stroke-width="0.5" stroke="blue" fill="blue"/>
   </g>
   <g id="cell41">
  <circle cx="474.191" cy="423.81" r="8.41271" stroke-width="0.5" stroke="black" fill="yellow"/>
  <circle cx="474.191" cy="423.81" r="5.05167" stroke-width="0.5" stroke="yellow" fill="yellow"/>
   </g>
   <g id="cell42">
  <circle cx="475.177" cy="438.688" r="8.41271" stroke-width="0.5" stroke="black" fill="Red"/>
  <circle cx="475.177" cy="438.688" r="5.05167" stroke-width="0.5" stroke="Red" fill="Red"/>
   </g>
   <g id="cell43">
  <circle cx="475.116" cy="453.101" r="8.41271" stroke-width="0.5" stroke="black" fill="Red"/>
  <circle cx="475.116" cy="453.101" r="5.05167" stroke-width="0.5" stroke="Red" fill="Red"/>
   </g>
   <g id="cell44">
  <circle cx="475.516" cy="467.067" r="8.41271" stroke-width="0.5" stroke="black" fill="blue"/>
  <circle cx="475.516" cy="467.067" r="5.05167" stroke-width="0.5" stroke="blue" fill="blue"/>
   </g>
   <g id="cell45">
  <circle cx="474.57" cy="480.362" r="8.41271" stroke-width="0.5" stroke="black" fill="Red"/>
  <circle cx="474.57" cy="480.362" r="5.05167" stroke-width="0.5" stroke="Red" fill="Red"/>
   </g>
   <g id="cell46">
  <circle cx="473.224" cy="493.685" r="8.41271" stroke-width="0.5" stroke="black" fill="Red"/>
  <circle cx="473.224" cy="493.685" r="5.05167" stroke-width="0.5" stroke="Red" fill="Red"/>
   </g>
   <g id="cell47">
  <circle cx="470.898" cy="504.099" r="6.71158" stroke-width="0.5" stroke="black" fill="blue"/>
  <circle cx="470.898" cy="504.099" r="4.03435" stroke-width="0.5" stroke="blue" fill="blue"/>
   </g>
   <g id="cell48">
  <circle cx="474.385" cy="523.905" r="8.41271" stroke-width="0.5" stroke="black" fill="Red"/>
  <circle cx="474.385" cy="523.905" r="5.05167" stroke-width="0.5" stroke="Red" fill="Red"/>
   </g>
   <g id="cell49">
  <circle cx="474.824" cy="537.62" r="8.41271" stroke-width="0.5" stroke="black" fill="Red"/>
  <circle cx="474.824" cy="537.62" r="5.05167" stroke-width="0.5" stroke="Red" fill="Red"/>
   </g>
   <g id="cell50">
  <circle cx="473.811" cy="551.469" r="8.41271" stroke-width="0.5" stroke="black" fill="Red"/>
  <circle cx="473.811" cy="551.469" r="5.05167" stroke-width="0.5" stroke="Red" fill="Red"/>
   </g>
   <g id="cell51">
  <circle cx="476.271" cy="565.209" r="8.41271" stroke-width="0.5" stroke="black" fill="blue"/>
  <circle cx="476.271" cy="565.209" r="5.05167" stroke-width="0.5" stroke="blue" fill="blue"/>
   </g>
   <g id="cell52">
  <circle cx="475.125" cy="581.122" r="8.41271" stroke-width="0.5" stroke="black" fill="yellow"/>
  <circle cx="475.125" cy="581.122" r="5.05167" stroke-width="0.5" stroke="yellow" fill="yellow"/>
   </g>
   <g id="cell53">
  <circle cx="486.382" cy="416.166" r="8.41271" stroke-width="0.5" stroke="black" fill="yellow"/>
  <circle cx="486.382" cy="416.166" r="5.05167" stroke-width="0.5" stroke="yellow" fill="yellow"/>
   </g>
   <g id="cell54">
  <circle cx="488.216" cy="430.168" r="8.41271" stroke-width="0.5" stroke="black" fill="Red"/>
  <circle cx="488.216" cy="430.168" r="5.05167" stroke-width="0.5" stroke="Red" fill="Red"/>
   </g>
   <g id="cell55">
  <circle cx="488.738" cy="445.036" r="8.41271" stroke-width="0.5" stroke="black" fill="Red"/>
  <circle cx="488.738" cy="445.036" r="5.05167" stroke-width="0.5" stroke="Red" fill="Red"/>
   </g>
   <g id="cell56">
  <circle cx="488.46" cy="459.043" r="8.41271" stroke-width="0.5" stroke="black" fill="Red"/>
  <circle cx="488.46" cy="459.043" r="5.05167" stroke-width="0.5" stroke="Red" fill="Red"/>
   </g>
   <g id="cell57">
  <circle cx="487.974" cy="473.506" r="8.41271" stroke-width="0.5" stroke="black" fill="Red"/>
  <circle cx="487.974" cy="473.506" r="5.05167" stroke-width="0.5" stroke="Red" fill="Red"/>
   </g>
   <g id="cell58">
  <circle cx="487.035" cy="488.576" r="8.41271" stroke-width="0.5" stroke="black" fill="blue"/>
  <circle cx="487.035" cy="488.576" r="5.05167" stroke-width="0.5" stroke="blue" fill="blue"/>
   </g>
   <g id="cell59">
  <circle cx="485.142" cy="501.257" r="8.41271" stroke-width="0.5" stroke="black" fill="Red"/>
  <circle cx="485.142" cy="501.257" r="5.05167" stroke-width="0.5" stroke="Red" fill="Red"/>
   </g>
   <g id="cell60">
  <circle cx="488.261" cy="516.268" r="8.41271" stroke-width="0.5" stroke="black" fill="Red"/>
  <circle cx="488.261" cy="516.268" r="5.05167" stroke-width="0.5" stroke="Red" fill="Red"/>
   </g>
   <g id="cell61">
  <circle cx="487.977" cy="530.94" r="8.41271" stroke-width="0.5" stroke="black" fill="blue"/>
  <circle cx="487.977" cy="530.94" r="5.05167" stroke-width="0.5" stroke="blue" fill="blue"/>
   </g>
   <g id="cell62">
  <circle cx="486.956" cy="544.532" r="8.41271" stroke-width="0.5" stroke="black" fill="Red"/>
  <circle cx="486.956" cy="544.532" r="5.05167" stroke-width="0.5" stroke="Red" fill="Red"/>
   </g>
   <g id="cell63">
  <circle cx="487.647" cy="558.397" r="8.41271" stroke-width="0.5" stroke="black" fill="Red"/>
  <circle cx="487.647" cy="558.397" r="5.05167" stroke-width="0.5" stroke="Red" fill="Red"/>
   </g>
   <g id="cell64">
  <circle cx="489.304" cy="572.526" r="8.41271" stroke-width="0.5" stroke="black" fill="Red"/>
  <circle cx="489.304" cy="572.526" r="5.05167" stroke-width="0.5" stroke="Red" fill="Red"/>
   </g>
   <g id="cell65">
  <circle cx="490.056" cy="586.522" r="8.41271" stroke-width="0.5" stroke="black" fill="Red"/>
  <circle cx="490.056" cy="586.522" r="5.05167" stroke-width="0.5" stroke="Red" fill="Red"/>
   </g>
   <g id="cell66">
  <circle cx="500.322" cy="410.307" r="8.41271" stroke-width="0.5" stroke="black" fill="blue"/>
  <circle cx="500.322" cy="410.307" r="5.05167" stroke-width="0.5" stroke="blue" fill="blue"/>
   </g>
   <g id="cell67">
  <circle cx="501.682" cy="424.285" r="8.41271" stroke-width="0.5" stroke="black" fill="yellow"/>
  <circle cx="501.682" cy="424.285" r="5.05167" stroke-width="0.5" stroke="yellow" fill="yellow"/>
   </g>
   <g id="cell68">
  <circle cx="501.599" cy="438.552" r="8.41271" stroke-width="0.5" stroke="black" fill="Red"/>
  <circle cx="501.599" cy="438.552" r="5.05167" stroke-width="0.5" stroke="Red" fill="Red"/>
   </g>
   <g id="cell69">
  <circle cx="502.067" cy="453.091" r="8.41271" stroke-width="0.5" stroke="black" fill="Red"/>
  <circle cx="502.067" cy="453.091" r="5.05167" stroke-width="0.5" stroke="Red" fill="Red"/>
   </g>
   <g id="cell70">
  <circle cx="501.334" cy="467.55" r="8.41271" stroke-width="0.5" stroke="black" fill="blue"/>
  <circle cx="501.334" cy="467.55" r="5.05167" stroke-width="0.5" stroke="blue" fill="blue"/>
   </g>
   <g id="cell71">
  <circle cx="500.407" cy="481.308" r="8.41271" stroke-width="0.5" stroke="black" fill="Red"/>
  <circle cx="500.407" cy="481.308" r="5.05167" stroke-width="0.5" stroke="Red" fill="Red"/>
   </g>
   <g id="cell72">
  <circle cx="500.42" cy="494.831" r="8.41271" stroke-width="0.5" stroke="black" fill="Red"/>
  <circle cx="500.42" cy="494.831" r="5.05167" stroke-width="0.5" stroke="Red" fill="Red"/>
   </g>
   <g id="cell73">
  <circle cx="502.56" cy="509.46" r="8.41271" stroke-width="0.5" stroke="black" fill="Red"/>
  <circle cx="502.56" cy="509.46" r="5.05167" stroke-width="0.5" stroke="Red" fill="Red"/>
   </g>
   <g id="cell74">
  <circle cx="501.899" cy="523.947" r="8.41271" stroke-width="0.5" stroke="black" fill="Red"/>
  <circle cx="501.899" cy="523.947" r="5.05167" stroke-width="0.5" stroke="Red" fill="Red"/>
   </g>
   <g id="cell75">
  <circle cx="501.44" cy="537.959" r="8.41271" stroke-width="0.5" stroke="black" fill="Red"/>
  <circle cx="501.44" cy="537.959" r="5.05167" stroke-width="0.5" stroke="Red" fill="Red"/>
   </g>
   <g id="cell76">
  <circle cx="500.978" cy="551.618" r="8.41271" stroke-width="0.5" stroke="black" fill="Red"/>
  <circle cx="500.978" cy="551.618" r="5.05167" stroke-width="0.5" stroke="Red" fill="Red"/>
   </g>
   <g id="cell77">
  <circle cx="501.302" cy="565.33" r="8.41271" stroke-width="0.5" stroke="black" fill="Red"/>
  <circle cx="501.302" cy="565.33" r="5.05167" stroke-width="0.5" stroke="Red" fill="Red"/>
   </g>
   <g id="cell78">
  <circle cx="501.771" cy="578.816" r="8.41271" stroke-width="0.5" stroke="black" fill="Red"/>
  <circle cx="501.771" cy="578.816" r="5.05167" stroke-width="0.5" stroke="Red" fill="Red"/>
   </g>
   <g id="cell79">
  <circle cx="501.645" cy="592.085" r="8.41271" stroke-width="0.5" stroke="black" fill="blue"/>
  <circle cx="501.645" cy="592.085" r="5.05167" stroke-width="0.5" stroke="blue" fill="blue"/>
   </g>
   <g id="cell80">
  <circle cx="513.755" cy="415.644" r="8.41271" stroke-width="0.5" stroke="black" fill="yellow"/>
  <circle cx="513.755" cy="415.644" r="5.05167" stroke-width="0.5" stroke="yellow" fill="yellow"/>
   </g>
   <g id="cell81">
  <circle cx="513.835" cy="430.759" r="8.41271" stroke-width="0.5" stroke="black" fill="Red"/>
  <circle cx="513.835" cy="430.759" r="5.05167" stroke-width="0.5" stroke="Red" fill="Red"/>
   </g>
   <g id="cell82">
  <circle cx="513.825" cy="444.834" r="8.41271" stroke-width="0.5" stroke="black" fill="blue"/>
  <circle cx="513.825" cy="444.834" r="5.05167" stroke-width="0.5" stroke="blue" fill="blue"/>
   </g>
   <g id="cell83">
  <circle cx="517.978" cy="459.545" r="8.41271" stroke-width="0.5" stroke="black" fill="Red"/>
  <circle cx="517.978" cy="459.545" r="5.05167" stroke-width="0.5" stroke="Red" fill="Red"/>
   </g>
   <g id="cell84">
  <circle cx="515.524" cy="473.96" r="8.41271" stroke-width="0.5" stroke="black" fill="Red"/>
  <circle cx="515.524" cy="473.96" r="5.05167" stroke-width="0.5" stroke="Red" fill="Red"/>
   </g>
   <g id="cell85">
  <circle cx="514.335" cy="487.426" r="8.41271" stroke-width="0.5" stroke="black" fill="Red"/>
  <circle cx="514.335" cy="487.426" r="5.05167" stroke-width="0.5" stroke="Red" fill="Red"/>
   </g>
   <g id="cell86">
  <circle cx="515.859" cy="502.041" r="8.41271" stroke-width="0.5" stroke="black" fill="blue"/>
  <circle cx="515.859" cy="502.041" r="5.05167" stroke-width="0.5" stroke="blue" fill="blue"/>
   </g>
   <g id="cell87">
  <circle cx="515.937" cy="516.557" r="8.41271" stroke-width="0.5" stroke="black" fill="Red"/>
  <circle cx="515.937" cy="516.557" r="5.05167" stroke-width="0.5" stroke="Red" fill="Red"/>
   </g>
   <g id="cell88">
  <circle cx="516.205" cy="530.437" r="8.41271" stroke-width="0.5" stroke="black" fill="blue"/>
  <circle cx="516.205" cy="530.437" r="5.05167" stroke-width="0.5" stroke="blue" fill="blue"/>
   </g>
   <g id="cell89">
  <circle cx="515.558" cy="544.826" r="8.41271" stroke-width="0.5" stroke="black" fill="Red"/>
  <circle cx="515.558" cy="544.826" r="5.05167" stroke-width="0.5" stroke="Red" fill="Red"/>
   </g>
   <g id="cell90">
  <circle cx="514.157" cy="557.687" r="8.41271" stroke-width="0.5" stroke="black" fill="blue"/>
  <circle cx="514.157" cy="557.687" r="5.05167" stroke-width="0.5" stroke="blue" fill="blue"/>
   </g>
   <g id="cell91">
  <circle cx="513.519" cy="572.631" r="8.41271" stroke-width="0.5" stroke="black" fill="Red"/>
  <circle cx="513.519" cy="572.631" r="5.05167" stroke-width="0.5" stroke="Red" fill="Red"/>
   </g>
   <g id="cell92">
  <circle cx="514.726" cy="586.602" r="8.41271" stroke-width="0.5" stroke="black" fill="Red"/>
  <circle cx="514.726" cy="586.602" r="5.05167" stroke-width="0.5" stroke="Red" fill="Red"/>
   </g>
   <g id="cell93">
  <circle cx="527.197" cy="409.665" r="8.41271" stroke-width="0.5" stroke="black" fill="blue"/>
  <circle cx="527.197" cy="409.665" r="5.05167" stroke-width="0.5" stroke="blue" fill="blue"/>
   </g>
   <g id="cell94">
  <circle cx="528.123" cy="423.8" r="8.41271" stroke-width="0.5" stroke="black" fill="yellow"/>
  <circle cx="528.123" cy="423.8" r="5.05167" stroke-width="0.5" stroke="yellow" fill="yellow"/>
   </g>
   <g id="cell95">
  <circle cx="526.056" cy="436.929" r="8.41271" stroke-width="0.5" stroke="black" fill="Red"/>
  <circle cx="526.056" cy="436.929" r="5.05167" stroke-width="0.5" stroke="Red" fill="Red"/>
   </g>
   <g id="cell96">
  <circle cx="525.666" cy="448.91" r="6.71158" stroke-width="0.5" stroke="black" fill="Red"/>
  <circle cx="525.666" cy="448.91" r="4.03435" stroke-width="0.5" stroke="Red" fill="Red"/>
   </g>
   <g id="cell97">
  <circle cx="529.655" cy="468.145" r="8.41271" stroke-width="0.5" stroke="black" fill="Red"/>
  <circle cx="529.655" cy="468.145" r="5.05167" stroke-width="0.5" stroke="Red" fill="Red"/>
   </g>
   <g id="cell98">
  <circle cx="528.404" cy="481.372" r="8.41271" stroke-width="0.5" stroke="black" fill="Red"/>
  <circle cx="528.404" cy="481.372" r="5.05167" stroke-width="0.5" stroke="Red" fill="Red"/>
   </g>
   <g id="cell99">
  <circle cx="530.583" cy="495.362" r="8.41271" stroke-width="0.5" stroke="black" fill="Red"/>
  <circle cx="530.583" cy="495.362" r="5.05167" stroke-width="0.5" stroke="Red" fill="Red"/>
   </g>
   <g id="cell100">
  <circle cx="528.891" cy="509.34" r="8.41271" stroke-width="0.5" stroke="black" fill="Red"/>
  <circle cx="528.891" cy="509.34" r="5.05167" stroke-width="0.5" stroke="Red" fill="Red"/>
   </g>
   <g id="cell101">
  <circle cx="528.871" cy="524.41" r="8.41271" stroke-width="0.5" stroke="black" fill="blue"/>
  <circle cx="528.871" cy="524.41" r="5.05167" stroke-width="0.5" stroke="blue" fill="blue"/>
   </g>
   <g id="cell102">
  <circle cx="528.981" cy="538.409" r="8.41271" stroke-width="0.5" stroke="black" fill="Red"/>
  <circle cx="528.981" cy="538.409" r="5.05167" stroke-width="0.5" stroke="Red" fill="Red"/>
   </g>
   <g id="cell103">
  <circle cx="529.247" cy="552.405" r="8.41271" stroke-width="0.5" stroke="black" fill="Red"/>
  <circle cx="529.247" cy="552.405" r="5.05167" stroke-width="0.5" stroke="Red" fill="Red"/>
   </g>
   <g id="cell104">
  <circle cx="527.966" cy="566.166" r="8.41271" stroke-width="0.5" stroke="black" fill="Red"/>
  <circle cx="527.966" cy="566.166" r="5.05167" stroke-width="0.5" stroke="Red" fill="Red"/>
   </g>
   <g id="cell105">
  <circle cx="526.719" cy="579.493" r="8.41271" stroke-width="0.5" stroke="black" fill="blue"/>
  <circle cx="526.719" cy="579.493" r="5.05167" stroke-width="0.5" stroke="blue" fill="blue"/>
   </g>
   <g id="cell106">
  <circle cx="541.156" cy="415.711" r="8.41271" stroke-width="0.5" stroke="black" fill="yellow"/>
  <circle cx="541.156" cy="415.711" r="5.05167" stroke-width="0.5" stroke="yellow" fill="yellow"/>
   </g>
   <g id="cell107">
  <circle cx="539.472" cy="432.678" r="8.41271" stroke-width="0.5" stroke="black" fill="Red"/>
  <circle cx="539.472" cy="432.678" r="5.05167" stroke-width="0.5" stroke="Red" fill="Red"/>
   </g>
   <g id="cell108">
  <circle cx="540.093" cy="447.036" r="8.41271" stroke-width="0.5" stroke="black" fill="Red"/>
  <circle cx="540.093" cy="447.036" r="5.05167" stroke-width="0.5" stroke="Red" fill="Red"/>
   </g>
   <g id="cell109">
  <circle cx="543.414" cy="461.431" r="8.41271" stroke-width="0.5" stroke="black" fill="Red"/>
  <circle cx="543.414" cy="461.431" r="5.05167" stroke-width="0.5" stroke="Red" fill="Red"/>
   </g>
   <g id="cell110">
  <circle cx="542.383" cy="474.964" r="8.41271" stroke-width="0.5" stroke="black" fill="Red"/>
  <circle cx="542.383" cy="474.964" r="5.05167" stroke-width="0.5" stroke="Red" fill="Red"/>
   </g>
   <g id="cell111">
  <circle cx="543.09" cy="489.117" r="8.41271" stroke-width="0.5" stroke="black" fill="Red"/>
  <circle cx="543.09" cy="489.117" r="5.05167" stroke-width="0.5" stroke="Red" fill="Red"/>
   </g>
   <g id="cell112">
  <circle cx="542.747" cy="503.47" r="8.41271" stroke-width="0.5" stroke="black" fill="Red"/>
  <circle cx="542.747" cy="503.47" r="5.05167" stroke-width="0.5" stroke="Red" fill="Red"/>
   </g>
   <g id="cell113">
  <circle cx="542.757" cy="517.147" r="8.41271" stroke-width="0.5" stroke="black" fill="Red"/>
  <circle cx="542.757" cy="517.147" r="5.05167" stroke-width="0.5" stroke="Red" fill="Red"/>
   </g>
   <g id="cell114">
  <circle cx="542.659" cy="532.051" r="8.41271" stroke-width="0.5" stroke="black" fill="Red"/>
  <circle cx="542.659" cy="532.051" r="5.05167" stroke-width="0.5" stroke="Red" fill="Red"/>
   </g>
   <g id="cell115">
  <circle cx="542.376" cy="545.975" r="8.41271" stroke-width="0.5" stroke="black" fill="Red"/>
  <circle cx="542.376" cy="545.975" r="5.05167" stroke-width="0.5" stroke="Red" fill="Red"/>
   </g>
   <g id="cell116">
  <circle cx="542.113" cy="560.458" r="8.41271" stroke-width="0.5" stroke="black" fill="Red"/>
  <circle cx="542.113" cy="560.458" r="5.05167" stroke-width="0.5" stroke="Red" fill="Red"/>
   </g>
   <g id="cell117">
  <circle cx="540.219" cy="574.46" r="8.41271" stroke-width="0.5" stroke="black" fill="blue"/>
  <circle cx="540.219" cy="574.46" r="5.05167" stroke-width="0.5" stroke="blue" fill="blue"/>
   </g>
   <g id="cell118">
  <circle cx="552.216" cy="424.38" r="8.41271" stroke-width="0.5" stroke="black" fill="blue"/>
  <circle cx="552.216" cy="424.38" r="5.05167" stroke-width="0.5" stroke="blue" fill="blue"/>
   </g>
   <g id="cell119">
  <circle cx="553.087" cy="438.946" r="8.41271" stroke-width="0.5" stroke="black" fill="yellow"/>
  <circle cx="553.087" cy="438.946" r="5.05167" stroke-width="0.5" stroke="yellow" fill="yellow"/>
   </g>
   <g id="cell120">
  <circle cx="554.383" cy="453.458" r="8.41271" stroke-width="0.5" stroke="black" fill="yellow"/>
  <circle cx="554.383" cy="453.458" r="5.05167" stroke-width="0.5" stroke="yellow" fill="yellow"/>
   </g>
   <g id="cell121">
  <circle cx="555.427" cy="467.623" r="8.41271" stroke-width="0.5" stroke="black" fill="blue"/>
  <circle cx="555.427" cy="467.623" r="5.05167" stroke-width="0.5" stroke="blue" fill="blue"/>
   </g>
   <g id="cell122">
  <circle cx="555.976" cy="481.363" r="8.41271" stroke-width="0.5" stroke="black" fill="Red"/>
  <circle cx="555.976" cy="481.363" r="5.05167" stroke-width="0.5" stroke="Red" fill="Red"/>
   </g>
   <g id="cell123">
  <circle cx="556.587" cy="495.421" r="8.41271" stroke-width="0.5" stroke="black" fill="blue"/>
  <circle cx="556.587" cy="495.421" r="5.05167" stroke-width="0.5" stroke="blue" fill="blue"/>
   </g>
   <g id="cell124">
  <circle cx="556.341" cy="508.761" r="8.41271" stroke-width="0.5" stroke="black" fill="Red"/>
  <circle cx="556.341" cy="508.761" r="5.05167" stroke-width="0.5" stroke="Red" fill="Red"/>
   </g>
   <g id="cell125">
  <circle cx="556.327" cy="524.361" r="8.41271" stroke-width="0.5" stroke="black" fill="Red"/>
  <circle cx="556.327" cy="524.361" r="5.05167" stroke-width="0.5" stroke="Red" fill="Red"/>
   </g>
   <g id="cell126">
  <circle cx="555.698" cy="538.756" r="8.41271" stroke-width="0.5" stroke="black" fill="blue"/>
  <circle cx="555.698" cy="538.756" r="5.05167" stroke-width="0.5" stroke="blue" fill="blue"/>
   </g>
   <g id="cell127">
  <circle cx="555.807" cy="553.331" r="8.41271" stroke-width="0.5" stroke="black" fill="yellow"/>
  <circle cx="555.807" cy="553.331" r="5.05167" stroke-width="0.5" stroke="yellow" fill="yellow"/>
   </g>
   <g id="cell128">
  <circle cx="556.433" cy="567.135" r="8.41271" stroke-width="0.5" stroke="black" fill="Red"/>
  <circle cx="556.433" cy="567.135" r="5.05167" stroke-width="0.5" stroke="Red" fill="Red"/>
   </g>
   <g id="cell129">
  <circle cx="564.714" cy="445.81" r="8.41271" stroke-width="0.5" stroke="black" fill="blue"/>
  <circle cx="564.714" cy="445.81" r="5.05167" stroke-width="0.5" stroke="blue" fill="blue"/>
   </g>
   <g id="cell130">
  <circle cx="568.341" cy="458.659" r="8.41271" stroke-width="0.5" stroke="black" fill="yellow"/>
  <circle cx="568.341" cy="458.659" r="5.05167" stroke-width="0.5" stroke="yellow" fill="yellow"/>
   </g>
   <g id="cell131">
  <circle cx="569.707" cy="472.181" r="8.41271" stroke-width="0.5" stroke="black" fill="yellow"/>
  <circle cx="569.707" cy="472.181" r="5.05167" stroke-width="0.5" stroke="yellow" fill="yellow"/>
   </g>
   <g id="cell132">
  <circle cx="568.742" cy="486.596" r="8.41271" stroke-width="0.5" stroke="black" fill="Red"/>
  <circle cx="568.742" cy="486.596" r="5.05167" stroke-width="0.5" stroke="Red" fill="Red"/>
   </g>
   <g id="cell133">
  <circle cx="570.433" cy="502.384" r="8.41271" stroke-width="0.5" stroke="black" fill="Red"/>
  <circle cx="570.433" cy="502.384" r="5.05167" stroke-width="0.5" stroke="Red" fill="Red"/>
   </g>
   <g id="cell134">
  <circle cx="569.347" cy="516.675" r="8.41271" stroke-width="0.5" stroke="black" fill="Red"/>
  <circle cx="569.347" cy="516.675" r="5.05167" stroke-width="0.5" stroke="Red" fill="Red"/>
   </g>
   <g id="cell135">
  <circle cx="568.375" cy="531.048" r="8.41271" stroke-width="0.5" stroke="black" fill="yellow"/>
  <circle cx="568.375" cy="531.048" r="5.05167" stroke-width="0.5" stroke="yellow" fill="yellow"/>
   </g>
   <g id="cell136">
  <circle cx="568.607" cy="546.242" r="8.41271" stroke-width="0.5" stroke="black" fill="yellow"/>
  <circle cx="568.607" cy="546.242" r="5.05167" stroke-width="0.5" stroke="yellow" fill="yellow"/>
   </g>
   <g id="cell137">
  <circle cx="568.365" cy="560.084" r="8.41271" stroke-width="0.5" stroke="black" fill="blue"/>
  <circle cx="568.365" cy="560.084" r="5.05167" stroke-width="0.5" stroke="blue" fill="blue"/>
   </g>
   <g id="cell138">
  <circle cx="582.437" cy="464.575" r="8.41271" stroke-width="0.5" stroke="black" fill="blue"/>
  <circle cx="582.437" cy="464.575" r="5.05167" stroke-width="0.5" stroke="blue" fill="blue"/>
   </g>
   <g id="cell139">
  <circle cx="580.739" cy="479.342" r="8.41271" stroke-width="0.5" stroke="black" fill="Red"/>
  <circle cx="580.739" cy="479.342" r="5.05167" stroke-width="0.5" stroke="Red" fill="Red"/>
   </g>
   <g id="cell140">
  <circle cx="580.201" cy="492.819" r="6.73287" stroke-width="0.5" stroke="black" fill="Red"/>
  <circle cx="580.201" cy="492.819" r="4.05039" stroke-width="0.5" stroke="Red" fill="Red"/>
   </g>
   <g id="cell141">
  <circle cx="581.365" cy="509.748" r="8.41271" stroke-width="0.5" stroke="black" fill="Red"/>
  <circle cx="581.365" cy="509.748" r="5.05167" stroke-width="0.5" stroke="Red" fill="Red"/>
   </g>
   <g id="cell142">
  <circle cx="581.486" cy="524.513" r="8.41271" stroke-width="0.5" stroke="black" fill="yellow"/>
  <circle cx="581.486" cy="524.513" r="5.05167" stroke-width="0.5" stroke="yellow" fill="yellow"/>
   </g>
   <g id="cell143">
  <circle cx="579.866" cy="537.941" r="8.41271" stroke-width="0.5" stroke="black" fill="blue"/>
  <circle cx="579.866" cy="537.941" r="5.05167" stroke-width="0.5" stroke="blue" fill="blue"/>
   </g>
   <g id="cell144">
  <circle cx="439.528" cy="437.952" r="6.73287" stroke-width="0.5" stroke="black" fill="Red"/>
  <circle cx="439.528" cy="437.952" r="4.05039" stroke-width="0.5" stroke="Red" fill="Red"/>
   </g>
   <g id="cell145">
  <circle cx="588.516" cy="500.535" r="6.73287" stroke-width="0.5" stroke="black" fill="blue"/>
  <circle cx="588.516" cy="500.535" r="4.05039" stroke-width="0.5" stroke="blue" fill="blue"/>
   </g>
   <g id="cell146">
  <circle cx="476.97" cy="512.543" r="6.71158" stroke-width="0.5" stroke="black" fill="blue"/>
  <circle cx="476.97" cy="512.543" r="4.03435" stroke-width="0.5" stroke="blue" fill="blue"/>
   </g>
   <g id="cell147">
  <circle cx="532.784" cy="457.524" r="6.71158" stroke-width="0.5" stroke="black" fill="blue"/>
  <circle cx="532.784" cy="457.524" r="4.03435" stroke-width="0.5" stroke="blue" fill="blue"/>
   </g>
  </g>
 </g>
  <rect x="775" y="1035" width="200" height="10" stroke-width="2" stroke="rgb(255,255,255)" fill="rgb(0,0,0)"/>
  <text x="781.25" y="1028.75"
   font-family="Arial" font-size="25" fill="black" >
   200 &#956;m
  </text>
  <text x="25" y="1045"
   font-family="Arial" font-size="18.75" fill="black" >
   0 days, 0 hours, 0 minutes, and 9.9645 seconds
  </text>
  <rect x="0" y="70" width="1000" height="1000" stroke-width="2" stroke="rgb(0,0,0)" fill="none"/>
</svg>
