<?xml version="1.0" encoding="UTF-8" standalone="no"?>
<!-- Created with PhysiCell (http://PhysiCell.MathCancer.org/) -->
<svg 
 xmlns:dc="http://purl.org/dc/elements/1.1/" 
 xmlns:cc="http://creativecommons.org/ns#" 
 xmlns:rdf="http://www.w3.org/1999/02/22-rdf-syntax-ns#" 
 xmlns:svg="http://www.w3.org/2000/svg" 
 xmlns="http://www.w3.org/2000/svg" 
 version="1.1" 
 width="1000" 
 height="1070" 
 id="svg2">
  <rect x="0" y="0" width="1000" height="1070" stroke-width="2" stroke="white" fill="white"/>
  <text x="12.5" y="30"
   font-family="Arial" font-size="25" fill="black" >
   Current time: 0 days, 7 hours, and 25.00 minutes, z = 0.00 &#956;m
  </text>
  <text x="12.5" y="57.5"
   font-family="Arial" font-size="23.75" fill="black" >
   217 agents
  </text>
 <g id="tissue" 
    transform="translate(0,1070) scale(1,-1)">
  <g id="ECM">
  </g>
  <g id="cells">
   <g id="cell0">
  <circle cx="424.466" cy="440.812" r="8.41271" stroke-width="0.5" stroke="black" fill="Red"/>
  <circle cx="424.466" cy="440.812" r="5.05167" stroke-width="0.5" stroke="Red" fill="Red"/>
   </g>
   <g id="cell1">
  <circle cx="421.165" cy="468.19" r="7.83019" stroke-width="0.5" stroke="black" fill="yellow"/>
  <circle cx="421.165" cy="468.19" r="4.75343" stroke-width="0.5" stroke="yellow" fill="yellow"/>
   </g>
   <g id="cell2">
  <circle cx="420.25" cy="481.446" r="8.41271" stroke-width="0.5" stroke="black" fill="yellow"/>
  <circle cx="420.25" cy="481.446" r="5.05167" stroke-width="0.5" stroke="yellow" fill="yellow"/>
   </g>
   <g id="cell3">
  <circle cx="415.821" cy="495.403" r="7.93688" stroke-width="0.5" stroke="black" fill="blue"/>
  <circle cx="415.821" cy="495.403" r="4.81381" stroke-width="0.5" stroke="blue" fill="blue"/>
   </g>
   <g id="cell4">
  <circle cx="422.092" cy="507.627" r="8.41271" stroke-width="0.5" stroke="black" fill="yellow"/>
  <circle cx="422.092" cy="507.627" r="5.05167" stroke-width="0.5" stroke="yellow" fill="yellow"/>
   </g>
   <g id="cell5">
  <circle cx="409.248" cy="528.884" r="6.65363" stroke-width="0.5" stroke="black" fill="yellow"/>
  <circle cx="409.248" cy="528.884" r="4.06925" stroke-width="0.5" stroke="yellow" fill="yellow"/>
   </g>
   <g id="cell6">
  <circle cx="423.792" cy="543.295" r="8.41271" stroke-width="0.5" stroke="black" fill="yellow"/>
  <circle cx="423.792" cy="543.295" r="5.05167" stroke-width="0.5" stroke="yellow" fill="yellow"/>
   </g>
   <g id="cell7">
  <circle cx="435.579" cy="446.598" r="8.14594" stroke-width="0.5" stroke="black" fill="Red"/>
  <circle cx="435.579" cy="446.598" r="4.92726" stroke-width="0.5" stroke="Red" fill="Red"/>
   </g>
   <g id="cell8">
  <circle cx="425.067" cy="455.235" r="8.41271" stroke-width="0.5" stroke="black" fill="yellow"/>
  <circle cx="425.067" cy="455.235" r="5.05167" stroke-width="0.5" stroke="yellow" fill="yellow"/>
   </g>
   <g id="cell9">
  <circle cx="432.626" cy="470.942" r="8.41271" stroke-width="0.5" stroke="black" fill="Red"/>
  <circle cx="432.626" cy="470.942" r="5.05167" stroke-width="0.5" stroke="Red" fill="Red"/>
   </g>
   <g id="cell10">
  <circle cx="434.548" cy="483.332" r="8.41271" stroke-width="0.5" stroke="black" fill="Red"/>
  <circle cx="434.548" cy="483.332" r="5.05167" stroke-width="0.5" stroke="Red" fill="Red"/>
   </g>
   <g id="cell11">
  <circle cx="435.358" cy="502.846" r="8.41271" stroke-width="0.5" stroke="black" fill="Red"/>
  <circle cx="435.358" cy="502.846" r="5.05167" stroke-width="0.5" stroke="Red" fill="Red"/>
   </g>
   <g id="cell12">
  <circle cx="430.58" cy="518.036" r="8.06667" stroke-width="0.5" stroke="black" fill="Red"/>
  <circle cx="430.58" cy="518.036" r="4.88515" stroke-width="0.5" stroke="Red" fill="Red"/>
   </g>
   <g id="cell13">
  <circle cx="435.886" cy="537.169" r="8.41271" stroke-width="0.5" stroke="black" fill="blue"/>
  <circle cx="435.886" cy="537.169" r="5.05167" stroke-width="0.5" stroke="blue" fill="blue"/>
   </g>
   <g id="cell14">
  <circle cx="436.865" cy="551.47" r="8.41271" stroke-width="0.5" stroke="black" fill="Red"/>
  <circle cx="436.865" cy="551.47" r="5.05167" stroke-width="0.5" stroke="Red" fill="Red"/>
   </g>
   <g id="cell15">
  <circle cx="440.117" cy="565.674" r="8.41271" stroke-width="0.5" stroke="black" fill="blue"/>
  <circle cx="440.117" cy="565.674" r="5.05167" stroke-width="0.5" stroke="blue" fill="blue"/>
   </g>
   <g id="cell16">
  <circle cx="447.375" cy="426.921" r="6.32054" stroke-width="0.5" stroke="black" fill="Red"/>
  <circle cx="447.375" cy="426.921" r="3.85678" stroke-width="0.5" stroke="Red" fill="Red"/>
   </g>
   <g id="cell17">
  <circle cx="448.356" cy="445.46" r="7.61469" stroke-width="0.5" stroke="black" fill="blue"/>
  <circle cx="448.356" cy="445.46" r="4.62762" stroke-width="0.5" stroke="blue" fill="blue"/>
   </g>
   <g id="cell18">
  <circle cx="444.536" cy="453.982" r="6.78181" stroke-width="0.5" stroke="black" fill="Red"/>
  <circle cx="444.536" cy="453.982" r="4.08714" stroke-width="0.5" stroke="Red" fill="Red"/>
   </g>
   <g id="cell19">
  <circle cx="444.524" cy="466.843" r="8.41271" stroke-width="0.5" stroke="black" fill="Red"/>
  <circle cx="444.524" cy="466.843" r="5.05167" stroke-width="0.5" stroke="Red" fill="Red"/>
   </g>
   <g id="cell20">
  <circle cx="451.881" cy="483.72" r="6.86652" stroke-width="0.5" stroke="black" fill="Red"/>
  <circle cx="451.881" cy="483.72" r="4.14883" stroke-width="0.5" stroke="Red" fill="Red"/>
   </g>
   <g id="cell21">
  <circle cx="443.405" cy="491.985" r="8.41271" stroke-width="0.5" stroke="black" fill="Red"/>
  <circle cx="443.405" cy="491.985" r="5.05167" stroke-width="0.5" stroke="Red" fill="Red"/>
   </g>
   <g id="cell22">
  <circle cx="448.139" cy="504.84" r="8.41271" stroke-width="0.5" stroke="black" fill="Red"/>
  <circle cx="448.139" cy="504.84" r="5.05167" stroke-width="0.5" stroke="Red" fill="Red"/>
   </g>
   <g id="cell23">
  <circle cx="441.389" cy="526.429" r="8.41271" stroke-width="0.5" stroke="black" fill="Red"/>
  <circle cx="441.389" cy="526.429" r="5.05167" stroke-width="0.5" stroke="Red" fill="Red"/>
   </g>
   <g id="cell24">
  <circle cx="447.759" cy="543.708" r="8.41271" stroke-width="0.5" stroke="black" fill="Red"/>
  <circle cx="447.759" cy="543.708" r="5.05167" stroke-width="0.5" stroke="Red" fill="Red"/>
   </g>
   <g id="cell25">
  <circle cx="450.683" cy="557.075" r="8.41271" stroke-width="0.5" stroke="black" fill="Red"/>
  <circle cx="450.683" cy="557.075" r="5.05167" stroke-width="0.5" stroke="Red" fill="Red"/>
   </g>
   <g id="cell26">
  <circle cx="443.64" cy="578.139" r="7.1497" stroke-width="0.5" stroke="black" fill="Red"/>
  <circle cx="443.64" cy="578.139" r="4.34001" stroke-width="0.5" stroke="Red" fill="Red"/>
   </g>
   <g id="cell27">
  <circle cx="465.913" cy="402.552" r="8.41271" stroke-width="0.5" stroke="black" fill="Red"/>
  <circle cx="465.913" cy="402.552" r="5.05167" stroke-width="0.5" stroke="Red" fill="Red"/>
   </g>
   <g id="cell28">
  <circle cx="466.108" cy="420.102" r="7.0545" stroke-width="0.5" stroke="black" fill="Red"/>
  <circle cx="466.108" cy="420.102" r="4.27772" stroke-width="0.5" stroke="Red" fill="Red"/>
   </g>
   <g id="cell29">
  <circle cx="458.987" cy="446.694" r="7.90853" stroke-width="0.5" stroke="black" fill="Red"/>
  <circle cx="458.987" cy="446.694" r="4.79791" stroke-width="0.5" stroke="Red" fill="Red"/>
   </g>
   <g id="cell30">
  <circle cx="455.118" cy="458.622" r="8.41271" stroke-width="0.5" stroke="black" fill="Red"/>
  <circle cx="455.118" cy="458.622" r="5.05167" stroke-width="0.5" stroke="Red" fill="Red"/>
   </g>
   <g id="cell31">
  <circle cx="455.247" cy="473.13" r="8.41271" stroke-width="0.5" stroke="black" fill="Red"/>
  <circle cx="455.247" cy="473.13" r="5.05167" stroke-width="0.5" stroke="Red" fill="Red"/>
   </g>
   <g id="cell32">
  <circle cx="463.621" cy="487.765" r="8.41271" stroke-width="0.5" stroke="black" fill="Red"/>
  <circle cx="463.621" cy="487.765" r="5.05167" stroke-width="0.5" stroke="Red" fill="Red"/>
   </g>
   <g id="cell33">
  <circle cx="454.04" cy="495.148" r="8.41271" stroke-width="0.5" stroke="black" fill="blue"/>
  <circle cx="454.04" cy="495.148" r="5.05167" stroke-width="0.5" stroke="blue" fill="blue"/>
   </g>
   <g id="cell34">
  <circle cx="451.126" cy="518.651" r="6.59067" stroke-width="0.5" stroke="black" fill="blue"/>
  <circle cx="451.126" cy="518.651" r="4.04529" stroke-width="0.5" stroke="blue" fill="blue"/>
   </g>
   <g id="cell35">
  <circle cx="457.703" cy="544.554" r="6.45845" stroke-width="0.5" stroke="black" fill="Red"/>
  <circle cx="457.703" cy="544.554" r="3.95681" stroke-width="0.5" stroke="Red" fill="Red"/>
   </g>
   <g id="cell36">
  <circle cx="462.318" cy="553.24" r="8.41271" stroke-width="0.5" stroke="black" fill="Red"/>
  <circle cx="462.318" cy="553.24" r="5.05167" stroke-width="0.5" stroke="Red" fill="Red"/>
   </g>
   <g id="cell37">
  <circle cx="463.49" cy="565.204" r="8.41271" stroke-width="0.5" stroke="black" fill="blue"/>
  <circle cx="463.49" cy="565.204" r="5.05167" stroke-width="0.5" stroke="blue" fill="blue"/>
   </g>
   <g id="cell38">
  <circle cx="462.132" cy="578.555" r="8.41271" stroke-width="0.5" stroke="black" fill="Red"/>
  <circle cx="462.132" cy="578.555" r="5.05167" stroke-width="0.5" stroke="Red" fill="Red"/>
   </g>
   <g id="cell39">
  <circle cx="463.014" cy="592.476" r="7.79564" stroke-width="0.5" stroke="black" fill="blue"/>
  <circle cx="463.014" cy="592.476" r="4.73359" stroke-width="0.5" stroke="blue" fill="blue"/>
   </g>
   <g id="cell40">
  <circle cx="480.578" cy="400.195" r="8.41271" stroke-width="0.5" stroke="black" fill="blue"/>
  <circle cx="480.578" cy="400.195" r="5.05167" stroke-width="0.5" stroke="blue" fill="blue"/>
   </g>
   <g id="cell41">
  <circle cx="475.623" cy="411.711" r="8.41271" stroke-width="0.5" stroke="black" fill="Red"/>
  <circle cx="475.623" cy="411.711" r="5.05167" stroke-width="0.5" stroke="Red" fill="Red"/>
   </g>
   <g id="cell42">
  <circle cx="479.279" cy="436.129" r="7.49456" stroke-width="0.5" stroke="black" fill="Red"/>
  <circle cx="479.279" cy="436.129" r="4.55548" stroke-width="0.5" stroke="Red" fill="Red"/>
   </g>
   <g id="cell43">
  <circle cx="468.751" cy="455.037" r="8.41271" stroke-width="0.5" stroke="black" fill="blue"/>
  <circle cx="468.751" cy="455.037" r="5.05167" stroke-width="0.5" stroke="blue" fill="blue"/>
   </g>
   <g id="cell44">
  <circle cx="474.357" cy="468.49" r="6.95901" stroke-width="0.5" stroke="black" fill="Red"/>
  <circle cx="474.357" cy="468.49" r="4.21341" stroke-width="0.5" stroke="Red" fill="Red"/>
   </g>
   <g id="cell45">
  <circle cx="467.029" cy="477.257" r="8.41271" stroke-width="0.5" stroke="black" fill="Red"/>
  <circle cx="467.029" cy="477.257" r="5.05167" stroke-width="0.5" stroke="Red" fill="Red"/>
   </g>
   <g id="cell46">
  <circle cx="472.989" cy="494.34" r="8.41271" stroke-width="0.5" stroke="black" fill="Red"/>
  <circle cx="472.989" cy="494.34" r="5.05167" stroke-width="0.5" stroke="Red" fill="Red"/>
   </g>
   <g id="cell47">
  <circle cx="463.835" cy="502.209" r="8.13813" stroke-width="0.5" stroke="black" fill="Red"/>
  <circle cx="463.835" cy="502.209" r="4.92317" stroke-width="0.5" stroke="Red" fill="Red"/>
   </g>
   <g id="cell48">
  <circle cx="475.273" cy="519.911" r="8.00101" stroke-width="0.5" stroke="black" fill="blue"/>
  <circle cx="475.273" cy="519.911" r="4.84939" stroke-width="0.5" stroke="blue" fill="blue"/>
   </g>
   <g id="cell49">
  <circle cx="467.809" cy="542.818" r="6.83713" stroke-width="0.5" stroke="black" fill="Red"/>
  <circle cx="467.809" cy="542.818" r="4.12773" stroke-width="0.5" stroke="Red" fill="Red"/>
   </g>
   <g id="cell50">
  <circle cx="475.959" cy="561.805" r="7.54436" stroke-width="0.5" stroke="black" fill="Red"/>
  <circle cx="475.959" cy="561.805" r="4.58555" stroke-width="0.5" stroke="Red" fill="Red"/>
   </g>
   <g id="cell51">
  <circle cx="474.358" cy="573.946" r="8.41271" stroke-width="0.5" stroke="black" fill="Red"/>
  <circle cx="474.358" cy="573.946" r="5.05167" stroke-width="0.5" stroke="Red" fill="Red"/>
   </g>
   <g id="cell52">
  <circle cx="482.615" cy="584.854" r="6.71158" stroke-width="0.5" stroke="black" fill="Red"/>
  <circle cx="482.615" cy="584.854" r="4.03435" stroke-width="0.5" stroke="Red" fill="Red"/>
   </g>
   <g id="cell53">
  <circle cx="489.134" cy="407.321" r="6.83713" stroke-width="0.5" stroke="black" fill="Red"/>
  <circle cx="489.134" cy="407.321" r="4.12773" stroke-width="0.5" stroke="Red" fill="Red"/>
   </g>
   <g id="cell54">
  <circle cx="474.649" cy="425.543" r="8.41271" stroke-width="0.5" stroke="black" fill="Red"/>
  <circle cx="474.649" cy="425.543" r="5.05167" stroke-width="0.5" stroke="Red" fill="Red"/>
   </g>
   <g id="cell55">
  <circle cx="480.123" cy="448.059" r="7.90853" stroke-width="0.5" stroke="black" fill="Red"/>
  <circle cx="480.123" cy="448.059" r="4.79791" stroke-width="0.5" stroke="Red" fill="Red"/>
   </g>
   <g id="cell56">
  <circle cx="491.899" cy="453.652" r="8.04604" stroke-width="0.5" stroke="black" fill="blue"/>
  <circle cx="491.899" cy="453.652" r="4.87399" stroke-width="0.5" stroke="blue" fill="blue"/>
   </g>
   <g id="cell57">
  <circle cx="484.633" cy="471.575" r="8.41271" stroke-width="0.5" stroke="black" fill="Red"/>
  <circle cx="484.633" cy="471.575" r="5.05167" stroke-width="0.5" stroke="Red" fill="Red"/>
   </g>
   <g id="cell58">
  <circle cx="477.587" cy="482.626" r="8.41271" stroke-width="0.5" stroke="black" fill="blue"/>
  <circle cx="477.587" cy="482.626" r="5.05167" stroke-width="0.5" stroke="blue" fill="blue"/>
   </g>
   <g id="cell59">
  <circle cx="485.134" cy="494.668" r="7.56839" stroke-width="0.5" stroke="black" fill="Red"/>
  <circle cx="485.134" cy="494.668" r="4.59998" stroke-width="0.5" stroke="Red" fill="Red"/>
   </g>
   <g id="cell60">
  <circle cx="486.683" cy="516.103" r="8.41271" stroke-width="0.5" stroke="black" fill="Red"/>
  <circle cx="486.683" cy="516.103" r="5.05167" stroke-width="0.5" stroke="Red" fill="Red"/>
   </g>
   <g id="cell61">
  <circle cx="482.646" cy="530.406" r="8.41271" stroke-width="0.5" stroke="black" fill="Red"/>
  <circle cx="482.646" cy="530.406" r="5.05167" stroke-width="0.5" stroke="Red" fill="Red"/>
   </g>
   <g id="cell62">
  <circle cx="483.448" cy="549.349" r="8.41271" stroke-width="0.5" stroke="black" fill="Red"/>
  <circle cx="483.448" cy="549.349" r="5.05167" stroke-width="0.5" stroke="Red" fill="Red"/>
   </g>
   <g id="cell63">
  <circle cx="488.36" cy="560.733" r="8.41271" stroke-width="0.5" stroke="black" fill="Red"/>
  <circle cx="488.36" cy="560.733" r="5.05167" stroke-width="0.5" stroke="Red" fill="Red"/>
   </g>
   <g id="cell64">
  <circle cx="489.301" cy="577.817" r="6.83713" stroke-width="0.5" stroke="black" fill="Red"/>
  <circle cx="489.301" cy="577.817" r="4.12773" stroke-width="0.5" stroke="Red" fill="Red"/>
   </g>
   <g id="cell65">
  <circle cx="477.932" cy="596.209" r="7.41548" stroke-width="0.5" stroke="black" fill="Red"/>
  <circle cx="477.932" cy="596.209" r="4.50723" stroke-width="0.5" stroke="Red" fill="Red"/>
   </g>
   <g id="cell66">
  <circle cx="500.7" cy="412.069" r="8.41271" stroke-width="0.5" stroke="black" fill="Red"/>
  <circle cx="500.7" cy="412.069" r="5.05167" stroke-width="0.5" stroke="Red" fill="Red"/>
   </g>
   <g id="cell67">
  <circle cx="486.614" cy="419.083" r="8.41271" stroke-width="0.5" stroke="black" fill="Red"/>
  <circle cx="486.614" cy="419.083" r="5.05167" stroke-width="0.5" stroke="Red" fill="Red"/>
   </g>
   <g id="cell68">
  <circle cx="498.805" cy="424.566" r="8.41271" stroke-width="0.5" stroke="black" fill="Red"/>
  <circle cx="498.805" cy="424.566" r="5.05167" stroke-width="0.5" stroke="Red" fill="Red"/>
   </g>
   <g id="cell69">
  <circle cx="499.027" cy="444.854" r="6.95901" stroke-width="0.5" stroke="black" fill="Red"/>
  <circle cx="499.027" cy="444.854" r="4.21341" stroke-width="0.5" stroke="Red" fill="Red"/>
   </g>
   <g id="cell70">
  <circle cx="494.722" cy="465.014" r="8.41271" stroke-width="0.5" stroke="black" fill="blue"/>
  <circle cx="494.722" cy="465.014" r="5.05167" stroke-width="0.5" stroke="blue" fill="blue"/>
   </g>
   <g id="cell71">
  <circle cx="491.325" cy="482.709" r="8.41271" stroke-width="0.5" stroke="black" fill="Red"/>
  <circle cx="491.325" cy="482.709" r="5.05167" stroke-width="0.5" stroke="Red" fill="Red"/>
   </g>
   <g id="cell72">
  <circle cx="496.799" cy="494.708" r="8.41271" stroke-width="0.5" stroke="black" fill="Red"/>
  <circle cx="496.799" cy="494.708" r="5.05167" stroke-width="0.5" stroke="Red" fill="Red"/>
   </g>
   <g id="cell73">
  <circle cx="498.928" cy="514.223" r="8.41271" stroke-width="0.5" stroke="black" fill="Red"/>
  <circle cx="498.928" cy="514.223" r="5.05167" stroke-width="0.5" stroke="Red" fill="Red"/>
   </g>
   <g id="cell74">
  <circle cx="495.369" cy="526.512" r="8.41271" stroke-width="0.5" stroke="black" fill="Red"/>
  <circle cx="495.369" cy="526.512" r="5.05167" stroke-width="0.5" stroke="Red" fill="Red"/>
   </g>
   <g id="cell75">
  <circle cx="491.639" cy="539.31" r="8.41271" stroke-width="0.5" stroke="black" fill="Red"/>
  <circle cx="491.639" cy="539.31" r="5.05167" stroke-width="0.5" stroke="Red" fill="Red"/>
   </g>
   <g id="cell76">
  <circle cx="501.451" cy="545.505" r="6.89675" stroke-width="0.5" stroke="black" fill="Red"/>
  <circle cx="501.451" cy="545.505" r="4.17024" stroke-width="0.5" stroke="Red" fill="Red"/>
   </g>
   <g id="cell77">
  <circle cx="497.145" cy="568.28" r="7.98892" stroke-width="0.5" stroke="black" fill="Red"/>
  <circle cx="497.145" cy="568.28" r="4.84272" stroke-width="0.5" stroke="Red" fill="Red"/>
   </g>
   <g id="cell78">
  <circle cx="499.649" cy="582.92" r="8.41271" stroke-width="0.5" stroke="black" fill="yellow"/>
  <circle cx="499.649" cy="582.92" r="5.05167" stroke-width="0.5" stroke="yellow" fill="yellow"/>
   </g>
   <g id="cell79">
  <circle cx="501.343" cy="598.236" r="8.41271" stroke-width="0.5" stroke="black" fill="blue"/>
  <circle cx="501.343" cy="598.236" r="5.05167" stroke-width="0.5" stroke="blue" fill="blue"/>
   </g>
   <g id="cell80">
  <circle cx="515.894" cy="410.911" r="7.70049" stroke-width="0.5" stroke="black" fill="Red"/>
  <circle cx="515.894" cy="410.911" r="4.67828" stroke-width="0.5" stroke="Red" fill="Red"/>
   </g>
   <g id="cell81">
  <circle cx="516.061" cy="433.737" r="8.41271" stroke-width="0.5" stroke="black" fill="Red"/>
  <circle cx="516.061" cy="433.737" r="5.05167" stroke-width="0.5" stroke="Red" fill="Red"/>
   </g>
   <g id="cell82">
  <circle cx="509.306" cy="444.263" r="7.46878" stroke-width="0.5" stroke="black" fill="Red"/>
  <circle cx="509.306" cy="444.263" r="4.53982" stroke-width="0.5" stroke="Red" fill="Red"/>
   </g>
   <g id="cell83">
  <circle cx="504.036" cy="455.975" r="8.41271" stroke-width="0.5" stroke="black" fill="Red"/>
  <circle cx="504.036" cy="455.975" r="5.05167" stroke-width="0.5" stroke="Red" fill="Red"/>
   </g>
   <g id="cell84">
  <circle cx="508.839" cy="466.024" r="7.21189" stroke-width="0.5" stroke="black" fill="Red"/>
  <circle cx="508.839" cy="466.024" r="4.37993" stroke-width="0.5" stroke="Red" fill="Red"/>
   </g>
   <g id="cell85">
  <circle cx="499.671" cy="473.987" r="8.41271" stroke-width="0.5" stroke="black" fill="Red"/>
  <circle cx="499.671" cy="473.987" r="5.05167" stroke-width="0.5" stroke="Red" fill="Red"/>
   </g>
   <g id="cell86">
  <circle cx="506.519" cy="503.217" r="8.41271" stroke-width="0.5" stroke="black" fill="Red"/>
  <circle cx="506.519" cy="503.217" r="5.05167" stroke-width="0.5" stroke="Red" fill="Red"/>
   </g>
   <g id="cell87">
  <circle cx="510.584" cy="513.432" r="6.40659" stroke-width="0.5" stroke="black" fill="Red"/>
  <circle cx="510.584" cy="513.432" r="3.88567" stroke-width="0.5" stroke="Red" fill="Red"/>
   </g>
   <g id="cell88">
  <circle cx="505.618" cy="535.728" r="8.41271" stroke-width="0.5" stroke="black" fill="Red"/>
  <circle cx="505.618" cy="535.728" r="5.05167" stroke-width="0.5" stroke="Red" fill="Red"/>
   </g>
   <g id="cell89">
  <circle cx="511.824" cy="548.319" r="8.41271" stroke-width="0.5" stroke="black" fill="Red"/>
  <circle cx="511.824" cy="548.319" r="5.05167" stroke-width="0.5" stroke="Red" fill="Red"/>
   </g>
   <g id="cell90">
  <circle cx="517.053" cy="560.612" r="8.41271" stroke-width="0.5" stroke="black" fill="yellow"/>
  <circle cx="517.053" cy="560.612" r="5.05167" stroke-width="0.5" stroke="yellow" fill="yellow"/>
   </g>
   <g id="cell91">
  <circle cx="510.343" cy="571.975" r="8.41271" stroke-width="0.5" stroke="black" fill="yellow"/>
  <circle cx="510.343" cy="571.975" r="5.05167" stroke-width="0.5" stroke="yellow" fill="yellow"/>
   </g>
   <g id="cell92">
  <circle cx="511.612" cy="588.285" r="8.41271" stroke-width="0.5" stroke="black" fill="yellow"/>
  <circle cx="511.612" cy="588.285" r="5.05167" stroke-width="0.5" stroke="yellow" fill="yellow"/>
   </g>
   <g id="cell93">
  <circle cx="529.135" cy="410.951" r="8.41271" stroke-width="0.5" stroke="black" fill="blue"/>
  <circle cx="529.135" cy="410.951" r="5.05167" stroke-width="0.5" stroke="blue" fill="blue"/>
   </g>
   <g id="cell94">
  <circle cx="536.692" cy="423.539" r="8.03527" stroke-width="0.5" stroke="black" fill="yellow"/>
  <circle cx="536.692" cy="423.539" r="4.86813" stroke-width="0.5" stroke="yellow" fill="yellow"/>
   </g>
   <g id="cell95">
  <circle cx="528.468" cy="435.538" r="8.41271" stroke-width="0.5" stroke="black" fill="blue"/>
  <circle cx="528.468" cy="435.538" r="5.05167" stroke-width="0.5" stroke="blue" fill="blue"/>
   </g>
   <g id="cell96">
  <circle cx="521.706" cy="446.037" r="7.75524" stroke-width="0.5" stroke="black" fill="blue"/>
  <circle cx="521.706" cy="446.037" r="4.72581" stroke-width="0.5" stroke="blue" fill="blue"/>
   </g>
   <g id="cell97">
  <circle cx="528.884" cy="460.676" r="8.41271" stroke-width="0.5" stroke="black" fill="Red"/>
  <circle cx="528.884" cy="460.676" r="5.05167" stroke-width="0.5" stroke="Red" fill="Red"/>
   </g>
   <g id="cell98">
  <circle cx="523.554" cy="491.364" r="7.55094" stroke-width="0.5" stroke="black" fill="blue"/>
  <circle cx="523.554" cy="491.364" r="4.6128" stroke-width="0.5" stroke="blue" fill="blue"/>
   </g>
   <g id="cell99">
  <circle cx="529.25" cy="501.189" r="8.41271" stroke-width="0.5" stroke="black" fill="Red"/>
  <circle cx="529.25" cy="501.189" r="5.05167" stroke-width="0.5" stroke="Red" fill="Red"/>
   </g>
   <g id="cell100">
  <circle cx="517.714" cy="500.501" r="7.61469" stroke-width="0.5" stroke="black" fill="Red"/>
  <circle cx="517.714" cy="500.501" r="4.62762" stroke-width="0.5" stroke="Red" fill="Red"/>
   </g>
   <g id="cell101">
  <circle cx="517.92" cy="532.629" r="8.41271" stroke-width="0.5" stroke="black" fill="Red"/>
  <circle cx="517.92" cy="532.629" r="5.05167" stroke-width="0.5" stroke="Red" fill="Red"/>
   </g>
   <g id="cell102">
  <circle cx="530.315" cy="533.742" r="8.11327" stroke-width="0.5" stroke="black" fill="Red"/>
  <circle cx="530.315" cy="533.742" r="4.91006" stroke-width="0.5" stroke="Red" fill="Red"/>
   </g>
   <g id="cell103">
  <circle cx="527.283" cy="553.429" r="8.41271" stroke-width="0.5" stroke="black" fill="Red"/>
  <circle cx="527.283" cy="553.429" r="5.05167" stroke-width="0.5" stroke="Red" fill="Red"/>
   </g>
   <g id="cell104">
  <circle cx="529.55" cy="566.417" r="8.41271" stroke-width="0.5" stroke="black" fill="Red"/>
  <circle cx="529.55" cy="566.417" r="5.05167" stroke-width="0.5" stroke="Red" fill="Red"/>
   </g>
   <g id="cell105">
  <circle cx="523.268" cy="578.165" r="8.41271" stroke-width="0.5" stroke="black" fill="blue"/>
  <circle cx="523.268" cy="578.165" r="5.05167" stroke-width="0.5" stroke="blue" fill="blue"/>
   </g>
   <g id="cell106">
  <circle cx="543.878" cy="411.234" r="7.63698" stroke-width="0.5" stroke="black" fill="yellow"/>
  <circle cx="543.878" cy="411.234" r="4.64085" stroke-width="0.5" stroke="yellow" fill="yellow"/>
   </g>
   <g id="cell107">
  <circle cx="541.644" cy="436.101" r="8.41271" stroke-width="0.5" stroke="black" fill="blue"/>
  <circle cx="541.644" cy="436.101" r="5.05167" stroke-width="0.5" stroke="blue" fill="blue"/>
   </g>
   <g id="cell108">
  <circle cx="532.535" cy="448.579" r="8.41271" stroke-width="0.5" stroke="black" fill="Red"/>
  <circle cx="532.535" cy="448.579" r="5.05167" stroke-width="0.5" stroke="Red" fill="Red"/>
   </g>
   <g id="cell109">
  <circle cx="548.063" cy="467.721" r="8.41271" stroke-width="0.5" stroke="black" fill="Red"/>
  <circle cx="548.063" cy="467.721" r="5.05167" stroke-width="0.5" stroke="Red" fill="Red"/>
   </g>
   <g id="cell110">
  <circle cx="532.519" cy="484.681" r="8.41271" stroke-width="0.5" stroke="black" fill="Red"/>
  <circle cx="532.519" cy="484.681" r="5.05167" stroke-width="0.5" stroke="Red" fill="Red"/>
   </g>
   <g id="cell111">
  <circle cx="537.921" cy="495.101" r="6.73287" stroke-width="0.5" stroke="black" fill="Red"/>
  <circle cx="537.921" cy="495.101" r="4.05039" stroke-width="0.5" stroke="Red" fill="Red"/>
   </g>
   <g id="cell112">
  <circle cx="541.237" cy="506.056" r="8.41271" stroke-width="0.5" stroke="black" fill="Red"/>
  <circle cx="541.237" cy="506.056" r="5.05167" stroke-width="0.5" stroke="Red" fill="Red"/>
   </g>
   <g id="cell113">
  <circle cx="530" cy="512.111" r="8.41271" stroke-width="0.5" stroke="black" fill="Red"/>
  <circle cx="530" cy="512.111" r="5.05167" stroke-width="0.5" stroke="Red" fill="Red"/>
   </g>
   <g id="cell114">
  <circle cx="535.796" cy="522.442" r="8.41271" stroke-width="0.5" stroke="black" fill="Red"/>
  <circle cx="535.796" cy="522.442" r="5.05167" stroke-width="0.5" stroke="Red" fill="Red"/>
   </g>
   <g id="cell115">
  <circle cx="537.104" cy="544.729" r="8.41271" stroke-width="0.5" stroke="black" fill="Red"/>
  <circle cx="537.104" cy="544.729" r="5.05167" stroke-width="0.5" stroke="Red" fill="Red"/>
   </g>
   <g id="cell116">
  <circle cx="544.318" cy="567.41" r="7.27253" stroke-width="0.5" stroke="black" fill="blue"/>
  <circle cx="544.318" cy="567.41" r="4.41835" stroke-width="0.5" stroke="blue" fill="blue"/>
   </g>
   <g id="cell117">
  <circle cx="536.677" cy="576.919" r="8.41271" stroke-width="0.5" stroke="black" fill="Red"/>
  <circle cx="536.677" cy="576.919" r="5.05167" stroke-width="0.5" stroke="Red" fill="Red"/>
   </g>
   <g id="cell118">
  <circle cx="550.417" cy="423.99" r="8.41271" stroke-width="0.5" stroke="black" fill="yellow"/>
  <circle cx="550.417" cy="423.99" r="5.05167" stroke-width="0.5" stroke="yellow" fill="yellow"/>
   </g>
   <g id="cell119">
  <circle cx="556.162" cy="437.109" r="8.41271" stroke-width="0.5" stroke="black" fill="yellow"/>
  <circle cx="556.162" cy="437.109" r="5.05167" stroke-width="0.5" stroke="yellow" fill="yellow"/>
   </g>
   <g id="cell120">
  <circle cx="555.366" cy="459" r="8.02418" stroke-width="0.5" stroke="black" fill="Red"/>
  <circle cx="555.366" cy="459" r="4.86209" stroke-width="0.5" stroke="Red" fill="Red"/>
   </g>
   <g id="cell121">
  <circle cx="558.754" cy="474.395" r="8.41271" stroke-width="0.5" stroke="black" fill="Red"/>
  <circle cx="558.754" cy="474.395" r="5.05167" stroke-width="0.5" stroke="Red" fill="Red"/>
   </g>
   <g id="cell122">
  <circle cx="546.544" cy="480.903" r="8.41271" stroke-width="0.5" stroke="black" fill="blue"/>
  <circle cx="546.544" cy="480.903" r="5.05167" stroke-width="0.5" stroke="blue" fill="blue"/>
   </g>
   <g id="cell123">
  <circle cx="551.466" cy="498.771" r="8.41271" stroke-width="0.5" stroke="black" fill="Red"/>
  <circle cx="551.466" cy="498.771" r="5.05167" stroke-width="0.5" stroke="Red" fill="Red"/>
   </g>
   <g id="cell124">
  <circle cx="555.456" cy="511.172" r="8.41271" stroke-width="0.5" stroke="black" fill="blue"/>
  <circle cx="555.456" cy="511.172" r="5.05167" stroke-width="0.5" stroke="blue" fill="blue"/>
   </g>
   <g id="cell125">
  <circle cx="545.75" cy="516.415" r="8.03527" stroke-width="0.5" stroke="black" fill="blue"/>
  <circle cx="545.75" cy="516.415" r="4.86813" stroke-width="0.5" stroke="blue" fill="blue"/>
   </g>
   <g id="cell126">
  <circle cx="544.351" cy="531.815" r="8.41271" stroke-width="0.5" stroke="black" fill="Red"/>
  <circle cx="544.351" cy="531.815" r="5.05167" stroke-width="0.5" stroke="Red" fill="Red"/>
   </g>
   <g id="cell127">
  <circle cx="549.112" cy="556.158" r="6.83713" stroke-width="0.5" stroke="black" fill="Red"/>
  <circle cx="549.112" cy="556.158" r="4.12773" stroke-width="0.5" stroke="Red" fill="Red"/>
   </g>
   <g id="cell128">
  <circle cx="559.943" cy="564.381" r="8.41271" stroke-width="0.5" stroke="black" fill="yellow"/>
  <circle cx="559.943" cy="564.381" r="5.05167" stroke-width="0.5" stroke="yellow" fill="yellow"/>
   </g>
   <g id="cell129">
  <circle cx="580.8" cy="456.863" r="8.01277" stroke-width="0.5" stroke="black" fill="yellow"/>
  <circle cx="580.8" cy="456.863" r="4.85584" stroke-width="0.5" stroke="yellow" fill="yellow"/>
   </g>
   <g id="cell130">
  <circle cx="565.717" cy="464.174" r="8.41271" stroke-width="0.5" stroke="black" fill="Red"/>
  <circle cx="565.717" cy="464.174" r="5.05167" stroke-width="0.5" stroke="Red" fill="Red"/>
   </g>
   <g id="cell131">
  <circle cx="569.406" cy="481.1" r="8.41271" stroke-width="0.5" stroke="black" fill="Red"/>
  <circle cx="569.406" cy="481.1" r="5.05167" stroke-width="0.5" stroke="Red" fill="Red"/>
   </g>
   <g id="cell132">
  <circle cx="558.322" cy="488.525" r="8.41271" stroke-width="0.5" stroke="black" fill="Red"/>
  <circle cx="558.322" cy="488.525" r="5.05167" stroke-width="0.5" stroke="Red" fill="Red"/>
   </g>
   <g id="cell133">
  <circle cx="565.348" cy="500.339" r="8.41271" stroke-width="0.5" stroke="black" fill="Red"/>
  <circle cx="565.348" cy="500.339" r="5.05167" stroke-width="0.5" stroke="Red" fill="Red"/>
   </g>
   <g id="cell134">
  <circle cx="566.694" cy="514.603" r="8.41271" stroke-width="0.5" stroke="black" fill="Red"/>
  <circle cx="566.694" cy="514.603" r="5.05167" stroke-width="0.5" stroke="Red" fill="Red"/>
   </g>
   <g id="cell135">
  <circle cx="567.094" cy="528.862" r="8.41271" stroke-width="0.5" stroke="black" fill="Red"/>
  <circle cx="567.094" cy="528.862" r="5.05167" stroke-width="0.5" stroke="Red" fill="Red"/>
   </g>
   <g id="cell136">
  <circle cx="556.306" cy="538.731" r="8.41271" stroke-width="0.5" stroke="black" fill="Red"/>
  <circle cx="556.306" cy="538.731" r="5.05167" stroke-width="0.5" stroke="Red" fill="Red"/>
   </g>
   <g id="cell137">
  <circle cx="570.689" cy="558.47" r="7.38797" stroke-width="0.5" stroke="black" fill="blue"/>
  <circle cx="570.689" cy="558.47" r="4.49029" stroke-width="0.5" stroke="blue" fill="blue"/>
   </g>
   <g id="cell138">
  <circle cx="576.939" cy="471.085" r="8.41271" stroke-width="0.5" stroke="black" fill="blue"/>
  <circle cx="576.939" cy="471.085" r="5.05167" stroke-width="0.5" stroke="blue" fill="blue"/>
   </g>
   <g id="cell139">
  <circle cx="584.443" cy="482.248" r="8.41271" stroke-width="0.5" stroke="black" fill="yellow"/>
  <circle cx="584.443" cy="482.248" r="5.05167" stroke-width="0.5" stroke="yellow" fill="yellow"/>
   </g>
   <g id="cell140">
  <circle cx="575.819" cy="492.331" r="8.14594" stroke-width="0.5" stroke="black" fill="blue"/>
  <circle cx="575.819" cy="492.331" r="4.92726" stroke-width="0.5" stroke="blue" fill="blue"/>
   </g>
   <g id="cell141">
  <circle cx="578.468" cy="505.358" r="8.41271" stroke-width="0.5" stroke="black" fill="Red"/>
  <circle cx="578.468" cy="505.358" r="5.05167" stroke-width="0.5" stroke="Red" fill="Red"/>
   </g>
   <g id="cell142">
  <circle cx="578.289" cy="518.591" r="7.93688" stroke-width="0.5" stroke="black" fill="blue"/>
  <circle cx="578.289" cy="518.591" r="4.81381" stroke-width="0.5" stroke="blue" fill="blue"/>
   </g>
   <g id="cell143">
  <circle cx="570.833" cy="542.489" r="8.41271" stroke-width="0.5" stroke="black" fill="yellow"/>
  <circle cx="570.833" cy="542.489" r="5.05167" stroke-width="0.5" stroke="yellow" fill="yellow"/>
   </g>
   <g id="cell144">
  <circle cx="430.426" cy="429.762" r="7.54309" stroke-width="0.5" stroke="black" fill="blue"/>
  <circle cx="430.426" cy="429.762" r="4.60417" stroke-width="0.5" stroke="blue" fill="blue"/>
   </g>
   <g id="cell145">
  <circle cx="588.412" cy="496.897" r="6.96615" stroke-width="0.5" stroke="black" fill="yellow"/>
  <circle cx="588.412" cy="496.897" r="4.25316" stroke-width="0.5" stroke="yellow" fill="yellow"/>
   </g>
   <g id="cell146">
  <circle cx="475.216" cy="506.635" r="7.78471" stroke-width="0.5" stroke="black" fill="Red"/>
  <circle cx="475.216" cy="506.635" r="4.74229" stroke-width="0.5" stroke="Red" fill="Red"/>
   </g>
   <g id="cell147">
  <circle cx="541.593" cy="459.358" r="7.96783" stroke-width="0.5" stroke="black" fill="blue"/>
  <circle cx="541.593" cy="459.358" r="4.84191" stroke-width="0.5" stroke="blue" fill="blue"/>
   </g>
   <g id="cell148">
  <circle cx="522.729" cy="544.24" r="8.11327" stroke-width="0.5" stroke="black" fill="blue"/>
  <circle cx="522.729" cy="544.24" r="4.91006" stroke-width="0.5" stroke="blue" fill="blue"/>
   </g>
   <g id="cell149">
  <circle cx="535.541" cy="471.8" r="7.96783" stroke-width="0.5" stroke="black" fill="Red"/>
  <circle cx="535.541" cy="471.8" r="4.84191" stroke-width="0.5" stroke="Red" fill="Red"/>
   </g>
   <g id="cell150">
  <circle cx="441.305" cy="513.996" r="8.06667" stroke-width="0.5" stroke="black" fill="blue"/>
  <circle cx="441.305" cy="513.996" r="4.88515" stroke-width="0.5" stroke="blue" fill="blue"/>
   </g>
   <g id="cell151">
  <circle cx="450.69" cy="415.9" r="8.06667" stroke-width="0.5" stroke="black" fill="blue"/>
  <circle cx="450.69" cy="415.9" r="4.88515" stroke-width="0.5" stroke="blue" fill="blue"/>
   </g>
   <g id="cell152">
  <circle cx="481.083" cy="459.667" r="8.04604" stroke-width="0.5" stroke="black" fill="Red"/>
  <circle cx="481.083" cy="459.667" r="4.87399" stroke-width="0.5" stroke="Red" fill="Red"/>
   </g>
   <g id="cell153">
  <circle cx="522.869" cy="422.649" r="8.03527" stroke-width="0.5" stroke="black" fill="yellow"/>
  <circle cx="522.869" cy="422.649" r="4.86813" stroke-width="0.5" stroke="yellow" fill="yellow"/>
   </g>
   <g id="cell154">
  <circle cx="555.843" cy="524.932" r="8.03527" stroke-width="0.5" stroke="black" fill="Red"/>
  <circle cx="555.843" cy="524.932" r="4.86813" stroke-width="0.5" stroke="Red" fill="Red"/>
   </g>
   <g id="cell155">
  <circle cx="438.717" cy="420.844" r="7.84903" stroke-width="0.5" stroke="black" fill="Red"/>
  <circle cx="438.717" cy="420.844" r="4.77842" stroke-width="0.5" stroke="Red" fill="Red"/>
   </g>
   <g id="cell156">
  <circle cx="507.454" cy="523.377" r="8.02418" stroke-width="0.5" stroke="black" fill="blue"/>
  <circle cx="507.454" cy="523.377" r="4.86209" stroke-width="0.5" stroke="blue" fill="blue"/>
   </g>
   <g id="cell157">
  <circle cx="546.967" cy="449.136" r="8.02418" stroke-width="0.5" stroke="black" fill="Red"/>
  <circle cx="546.967" cy="449.136" r="4.86209" stroke-width="0.5" stroke="Red" fill="Red"/>
   </g>
   <g id="cell158">
  <circle cx="559.546" cy="448.843" r="6.8555" stroke-width="0.5" stroke="black" fill="Red"/>
  <circle cx="559.546" cy="448.843" r="4.21771" stroke-width="0.5" stroke="Red" fill="Red"/>
   </g>
   <g id="cell159">
  <circle cx="469.806" cy="530.074" r="8.00101" stroke-width="0.5" stroke="black" fill="Red"/>
  <circle cx="469.806" cy="530.074" r="4.84939" stroke-width="0.5" stroke="Red" fill="Red"/>
   </g>
   <g id="cell160">
  <circle cx="503.751" cy="557.695" r="7.98892" stroke-width="0.5" stroke="black" fill="blue"/>
  <circle cx="503.751" cy="557.695" r="4.84272" stroke-width="0.5" stroke="blue" fill="blue"/>
   </g>
   <g id="cell161">
  <circle cx="515.941" cy="484.235" r="7.49305" stroke-width="0.5" stroke="black" fill="Red"/>
  <circle cx="515.941" cy="484.235" r="4.57958" stroke-width="0.5" stroke="Red" fill="Red"/>
   </g>
   <g id="cell162">
  <circle cx="578.069" cy="530.545" r="6.31714" stroke-width="0.5" stroke="black" fill="Red"/>
  <circle cx="578.069" cy="530.545" r="3.83283" stroke-width="0.5" stroke="Red" fill="Red"/>
   </g>
   <g id="cell163">
  <circle cx="465.728" cy="515.048" r="7.78471" stroke-width="0.5" stroke="black" fill="Red"/>
  <circle cx="465.728" cy="515.048" r="4.74229" stroke-width="0.5" stroke="Red" fill="Red"/>
   </g>
   <g id="cell164">
  <circle cx="427.651" cy="493.314" r="7.93688" stroke-width="0.5" stroke="black" fill="yellow"/>
  <circle cx="427.651" cy="493.314" r="4.81381" stroke-width="0.5" stroke="yellow" fill="yellow"/>
   </g>
   <g id="cell165">
  <circle cx="469.455" cy="442.093" r="7.90853" stroke-width="0.5" stroke="black" fill="Red"/>
  <circle cx="469.455" cy="442.093" r="4.79791" stroke-width="0.5" stroke="Red" fill="Red"/>
   </g>
   <g id="cell166">
  <circle cx="489.684" cy="432.018" r="7.90853" stroke-width="0.5" stroke="black" fill="Red"/>
  <circle cx="489.684" cy="432.018" r="4.79791" stroke-width="0.5" stroke="Red" fill="Red"/>
   </g>
   <g id="cell167">
  <circle cx="516.869" cy="454.935" r="7.75524" stroke-width="0.5" stroke="black" fill="Red"/>
  <circle cx="516.869" cy="454.935" r="4.72581" stroke-width="0.5" stroke="Red" fill="Red"/>
   </g>
   <g id="cell168">
  <circle cx="429.075" cy="528.459" r="6.22602" stroke-width="0.5" stroke="black" fill="Red"/>
  <circle cx="429.075" cy="528.459" r="3.8258" stroke-width="0.5" stroke="Red" fill="Red"/>
   </g>
   <g id="cell169">
  <circle cx="413.502" cy="458.998" r="6.36608" stroke-width="0.5" stroke="black" fill="blue"/>
  <circle cx="413.502" cy="458.998" r="3.88054" stroke-width="0.5" stroke="blue" fill="blue"/>
   </g>
   <g id="cell170">
  <circle cx="510.654" cy="492.84" r="6.84572" stroke-width="0.5" stroke="black" fill="Red"/>
  <circle cx="510.654" cy="492.84" r="4.21253" stroke-width="0.5" stroke="Red" fill="Red"/>
   </g>
   <g id="cell171">
  <circle cx="451.584" cy="586.189" r="7.79564" stroke-width="0.5" stroke="black" fill="Red"/>
  <circle cx="451.584" cy="586.189" r="4.73359" stroke-width="0.5" stroke="Red" fill="Red"/>
   </g>
   <g id="cell172">
  <circle cx="569.333" cy="441.577" r="7.56701" stroke-width="0.5" stroke="black" fill="blue"/>
  <circle cx="569.333" cy="441.577" r="4.62125" stroke-width="0.5" stroke="blue" fill="blue"/>
   </g>
   <g id="cell173">
  <circle cx="418.741" cy="520.929" r="7.50068" stroke-width="0.5" stroke="black" fill="blue"/>
  <circle cx="418.741" cy="520.929" r="4.58448" stroke-width="0.5" stroke="blue" fill="blue"/>
   </g>
   <g id="cell174">
  <circle cx="523.481" cy="475.245" r="7.49305" stroke-width="0.5" stroke="black" fill="Red"/>
  <circle cx="523.481" cy="475.245" r="4.57958" stroke-width="0.5" stroke="Red" fill="Red"/>
   </g>
   <g id="cell175">
  <circle cx="510.202" cy="422.867" r="7.70049" stroke-width="0.5" stroke="black" fill="blue"/>
  <circle cx="510.202" cy="422.867" r="4.67828" stroke-width="0.5" stroke="blue" fill="blue"/>
   </g>
   <g id="cell176">
  <circle cx="440.527" cy="435.705" r="7.54309" stroke-width="0.5" stroke="black" fill="Red"/>
  <circle cx="440.527" cy="435.705" r="4.60417" stroke-width="0.5" stroke="Red" fill="Red"/>
   </g>
   <g id="cell177">
  <circle cx="559.833" cy="412.519" r="7.63698" stroke-width="0.5" stroke="black" fill="blue"/>
  <circle cx="559.833" cy="412.519" r="4.64085" stroke-width="0.5" stroke="blue" fill="blue"/>
   </g>
   <g id="cell178">
  <circle cx="521.396" cy="521.646" r="7.61469" stroke-width="0.5" stroke="black" fill="Red"/>
  <circle cx="521.396" cy="521.646" r="4.62762" stroke-width="0.5" stroke="Red" fill="Red"/>
   </g>
   <g id="cell179">
  <circle cx="451.983" cy="532.293" r="7.61469" stroke-width="0.5" stroke="black" fill="Red"/>
  <circle cx="451.983" cy="532.293" r="4.62762" stroke-width="0.5" stroke="Red" fill="Red"/>
   </g>
   <g id="cell180">
  <circle cx="454.213" cy="435.584" r="7.61469" stroke-width="0.5" stroke="black" fill="Red"/>
  <circle cx="454.213" cy="435.584" r="4.62762" stroke-width="0.5" stroke="Red" fill="Red"/>
   </g>
   <g id="cell181">
  <circle cx="484.811" cy="504.613" r="6.46438" stroke-width="0.5" stroke="black" fill="Red"/>
  <circle cx="484.811" cy="504.613" r="3.96234" stroke-width="0.5" stroke="Red" fill="Red"/>
   </g>
   <g id="cell182">
  <circle cx="472.062" cy="552.259" r="7.54436" stroke-width="0.5" stroke="black" fill="Red"/>
  <circle cx="472.062" cy="552.259" r="4.58555" stroke-width="0.5" stroke="Red" fill="Red"/>
   </g>
   <g id="cell183">
  <circle cx="465.52" cy="432.663" r="7.49456" stroke-width="0.5" stroke="black" fill="blue"/>
  <circle cx="465.52" cy="432.663" r="4.55548" stroke-width="0.5" stroke="blue" fill="blue"/>
   </g>
   <g id="cell184">
  <circle cx="506.214" cy="432.945" r="6.12893" stroke-width="0.5" stroke="black" fill="Red"/>
  <circle cx="506.214" cy="432.945" r="3.74496" stroke-width="0.5" stroke="Red" fill="Red"/>
   </g>
   <g id="cell185">
  <circle cx="490.156" cy="592.179" r="7.41548" stroke-width="0.5" stroke="black" fill="Red"/>
  <circle cx="490.156" cy="592.179" r="4.50723" stroke-width="0.5" stroke="Red" fill="Red"/>
   </g>
   <g id="cell186">
  <circle cx="504.048" cy="484.663" r="6.84572" stroke-width="0.5" stroke="black" fill="blue"/>
  <circle cx="504.048" cy="484.663" r="4.21253" stroke-width="0.5" stroke="blue" fill="blue"/>
   </g>
   <g id="cell187">
  <circle cx="569.607" cy="453.45" r="6.8555" stroke-width="0.5" stroke="black" fill="yellow"/>
  <circle cx="569.607" cy="453.45" r="4.21771" stroke-width="0.5" stroke="yellow" fill="yellow"/>
   </g>
   <g id="cell188">
  <circle cx="559.648" cy="551.332" r="7.38797" stroke-width="0.5" stroke="black" fill="yellow"/>
  <circle cx="559.648" cy="551.332" r="4.49029" stroke-width="0.5" stroke="yellow" fill="yellow"/>
   </g>
   <g id="cell189">
  <circle cx="459.467" cy="523.861" r="7.3599" stroke-width="0.5" stroke="black" fill="Red"/>
  <circle cx="459.467" cy="523.861" r="4.47294" stroke-width="0.5" stroke="Red" fill="Red"/>
   </g>
   <g id="cell190">
  <circle cx="456.109" cy="510.479" r="6.59067" stroke-width="0.5" stroke="black" fill="Red"/>
  <circle cx="456.109" cy="510.479" r="4.04529" stroke-width="0.5" stroke="Red" fill="Red"/>
   </g>
   <g id="cell191">
  <circle cx="538.443" cy="557.906" r="7.27253" stroke-width="0.5" stroke="black" fill="Red"/>
  <circle cx="538.443" cy="557.906" r="4.41835" stroke-width="0.5" stroke="Red" fill="Red"/>
   </g>
   <g id="cell192">
  <circle cx="511.659" cy="474.758" r="6.22244" stroke-width="0.5" stroke="black" fill="Red"/>
  <circle cx="511.659" cy="474.758" r="3.81549" stroke-width="0.5" stroke="Red" fill="Red"/>
   </g>
   <g id="cell193">
  <circle cx="596.449" cy="488.161" r="6.96615" stroke-width="0.5" stroke="black" fill="blue"/>
  <circle cx="596.449" cy="488.161" r="4.25316" stroke-width="0.5" stroke="blue" fill="blue"/>
   </g>
   <g id="cell194">
  <circle cx="452.346" cy="571.048" r="7.1497" stroke-width="0.5" stroke="black" fill="Red"/>
  <circle cx="452.346" cy="571.048" r="4.34001" stroke-width="0.5" stroke="Red" fill="Red"/>
   </g>
   <g id="cell195">
  <circle cx="492.557" cy="504.631" r="6.46438" stroke-width="0.5" stroke="black" fill="blue"/>
  <circle cx="492.557" cy="504.631" r="3.96234" stroke-width="0.5" stroke="blue" fill="blue"/>
   </g>
   <g id="cell196">
  <circle cx="460.729" cy="412.056" r="7.0545" stroke-width="0.5" stroke="black" fill="blue"/>
  <circle cx="460.729" cy="412.056" r="4.27772" stroke-width="0.5" stroke="blue" fill="blue"/>
   </g>
   <g id="cell197">
  <circle cx="518.724" cy="465.638" r="6.22244" stroke-width="0.5" stroke="black" fill="blue"/>
  <circle cx="518.724" cy="465.638" r="3.81549" stroke-width="0.5" stroke="blue" fill="blue"/>
   </g>
   <g id="cell198">
  <circle cx="460.686" cy="536.034" r="6.45845" stroke-width="0.5" stroke="black" fill="blue"/>
  <circle cx="460.686" cy="536.034" r="3.95681" stroke-width="0.5" stroke="blue" fill="blue"/>
   </g>
   <g id="cell199">
  <circle cx="412.236" cy="539.429" r="6.65363" stroke-width="0.5" stroke="black" fill="blue"/>
  <circle cx="412.236" cy="539.429" r="4.06925" stroke-width="0.5" stroke="blue" fill="blue"/>
   </g>
   <g id="cell200">
  <circle cx="488.75" cy="442.979" r="6.95901" stroke-width="0.5" stroke="black" fill="Red"/>
  <circle cx="488.75" cy="442.979" r="4.21341" stroke-width="0.5" stroke="Red" fill="Red"/>
   </g>
   <g id="cell201">
  <circle cx="463.962" cy="465.077" r="6.95901" stroke-width="0.5" stroke="black" fill="blue"/>
  <circle cx="463.962" cy="465.077" r="4.21341" stroke-width="0.5" stroke="blue" fill="blue"/>
   </g>
   <g id="cell202">
  <circle cx="420.29" cy="531.898" r="6.22602" stroke-width="0.5" stroke="black" fill="yellow"/>
  <circle cx="420.29" cy="531.898" r="3.8258" stroke-width="0.5" stroke="yellow" fill="yellow"/>
   </g>
   <g id="cell203">
  <circle cx="494.489" cy="552.008" r="6.89675" stroke-width="0.5" stroke="black" fill="Red"/>
  <circle cx="494.489" cy="552.008" r="4.17024" stroke-width="0.5" stroke="Red" fill="Red"/>
   </g>
   <g id="cell204">
  <circle cx="444.294" cy="477.69" r="6.86652" stroke-width="0.5" stroke="black" fill="blue"/>
  <circle cx="444.294" cy="477.69" r="4.14883" stroke-width="0.5" stroke="blue" fill="blue"/>
   </g>
   <g id="cell205">
  <circle cx="498.549" cy="436.558" r="6.12893" stroke-width="0.5" stroke="black" fill="blue"/>
  <circle cx="498.549" cy="436.558" r="3.74496" stroke-width="0.5" stroke="blue" fill="blue"/>
   </g>
   <g id="cell206">
  <circle cx="493.952" cy="398.722" r="6.83713" stroke-width="0.5" stroke="black" fill="blue"/>
  <circle cx="493.952" cy="398.722" r="4.12773" stroke-width="0.5" stroke="blue" fill="blue"/>
   </g>
   <g id="cell207">
  <circle cx="477.98" cy="539.811" r="6.83713" stroke-width="0.5" stroke="black" fill="blue"/>
  <circle cx="477.98" cy="539.811" r="4.12773" stroke-width="0.5" stroke="blue" fill="blue"/>
   </g>
   <g id="cell208">
  <circle cx="548.296" cy="546.861" r="6.83713" stroke-width="0.5" stroke="black" fill="blue"/>
  <circle cx="548.296" cy="546.861" r="4.12773" stroke-width="0.5" stroke="blue" fill="blue"/>
   </g>
   <g id="cell209">
  <circle cx="485.238" cy="570.685" r="6.83713" stroke-width="0.5" stroke="black" fill="blue"/>
  <circle cx="485.238" cy="570.685" r="4.12773" stroke-width="0.5" stroke="blue" fill="blue"/>
   </g>
   <g id="cell210">
  <circle cx="413.257" cy="447.606" r="6.36608" stroke-width="0.5" stroke="black" fill="Red"/>
  <circle cx="413.257" cy="447.606" r="3.88054" stroke-width="0.5" stroke="Red" fill="Red"/>
   </g>
   <g id="cell211">
  <circle cx="435.69" cy="458.89" r="6.78181" stroke-width="0.5" stroke="black" fill="blue"/>
  <circle cx="435.69" cy="458.89" r="4.08714" stroke-width="0.5" stroke="blue" fill="blue"/>
   </g>
   <g id="cell212">
  <circle cx="457.069" cy="425.017" r="6.32054" stroke-width="0.5" stroke="black" fill="Red"/>
  <circle cx="457.069" cy="425.017" r="3.85678" stroke-width="0.5" stroke="Red" fill="Red"/>
   </g>
   <g id="cell213">
  <circle cx="545.2" cy="489.797" r="6.73287" stroke-width="0.5" stroke="black" fill="blue"/>
  <circle cx="545.2" cy="489.797" r="4.05039" stroke-width="0.5" stroke="blue" fill="blue"/>
   </g>
   <g id="cell214">
  <circle cx="519.326" cy="510.708" r="6.40659" stroke-width="0.5" stroke="black" fill="Red"/>
  <circle cx="519.326" cy="510.708" r="3.88567" stroke-width="0.5" stroke="Red" fill="Red"/>
   </g>
   <g id="cell215">
  <circle cx="472.55" cy="586.329" r="6.71158" stroke-width="0.5" stroke="black" fill="Red"/>
  <circle cx="472.55" cy="586.329" r="4.03435" stroke-width="0.5" stroke="Red" fill="Red"/>
   </g>
   <g id="cell216">
  <circle cx="584.234" cy="538.665" r="6.31714" stroke-width="0.5" stroke="black" fill="blue"/>
  <circle cx="584.234" cy="538.665" r="3.83283" stroke-width="0.5" stroke="blue" fill="blue"/>
   </g>
  </g>
 </g>
  <rect x="775" y="1035" width="200" height="10" stroke-width="2" stroke="rgb(255,255,255)" fill="rgb(0,0,0)"/>
  <text x="781.25" y="1028.75"
   font-family="Arial" font-size="25" fill="black" >
   200 &#956;m
  </text>
  <text x="25" y="1045"
   font-family="Arial" font-size="18.75" fill="black" >
   0 days, 0 hours, 3 minutes, and 0.0206 seconds
  </text>
  <rect x="0" y="70" width="1000" height="1000" stroke-width="2" stroke="rgb(0,0,0)" fill="none"/>
</svg>
