<?xml version="1.0" encoding="UTF-8" standalone="no"?>
<!-- Created with PhysiCell (http://PhysiCell.MathCancer.org/) -->
<svg 
 xmlns:dc="http://purl.org/dc/elements/1.1/" 
 xmlns:cc="http://creativecommons.org/ns#" 
 xmlns:rdf="http://www.w3.org/1999/02/22-rdf-syntax-ns#" 
 xmlns:svg="http://www.w3.org/2000/svg" 
 xmlns="http://www.w3.org/2000/svg" 
 version="1.1" 
 width="1000" 
 height="1070" 
 id="svg2">
  <rect x="0" y="0" width="1000" height="1070" stroke-width="2" stroke="white" fill="white"/>
  <text x="12.5" y="30"
   font-family="Arial" font-size="25" fill="black" >
   Current time: 0 days, 0 hours, and 20.00 minutes, z = 0.00 &#956;m
  </text>
  <text x="12.5" y="57.5"
   font-family="Arial" font-size="23.75" fill="black" >
   148 agents
  </text>
 <g id="tissue" 
    transform="translate(0,1070) scale(1,-1)">
  <g id="ECM">
  </g>
  <g id="cells">
   <g id="cell0">
  <circle cx="419.826" cy="453.315" r="8.41271" stroke-width="0.5" stroke="black" fill="blue"/>
  <circle cx="419.826" cy="453.315" r="5.05167" stroke-width="0.5" stroke="blue" fill="blue"/>
   </g>
   <g id="cell1">
  <circle cx="420.807" cy="466.976" r="8.41271" stroke-width="0.5" stroke="black" fill="Red"/>
  <circle cx="420.807" cy="466.976" r="5.05167" stroke-width="0.5" stroke="Red" fill="Red"/>
   </g>
   <g id="cell2">
  <circle cx="420.222" cy="480.975" r="8.41271" stroke-width="0.5" stroke="black" fill="blue"/>
  <circle cx="420.222" cy="480.975" r="5.05167" stroke-width="0.5" stroke="blue" fill="blue"/>
   </g>
   <g id="cell3">
  <circle cx="420.622" cy="495.329" r="8.41271" stroke-width="0.5" stroke="black" fill="blue"/>
  <circle cx="420.622" cy="495.329" r="5.05167" stroke-width="0.5" stroke="blue" fill="blue"/>
   </g>
   <g id="cell4">
  <circle cx="420.66" cy="509.935" r="8.41271" stroke-width="0.5" stroke="black" fill="blue"/>
  <circle cx="420.66" cy="509.935" r="5.05167" stroke-width="0.5" stroke="blue" fill="blue"/>
   </g>
   <g id="cell5">
  <circle cx="420.603" cy="525.789" r="8.41271" stroke-width="0.5" stroke="black" fill="Red"/>
  <circle cx="420.603" cy="525.789" r="5.05167" stroke-width="0.5" stroke="Red" fill="Red"/>
   </g>
   <g id="cell6">
  <circle cx="421.951" cy="540.465" r="8.41271" stroke-width="0.5" stroke="black" fill="blue"/>
  <circle cx="421.951" cy="540.465" r="5.05167" stroke-width="0.5" stroke="blue" fill="blue"/>
   </g>
   <g id="cell7">
  <circle cx="432.335" cy="449.756" r="6.69288" stroke-width="0.5" stroke="black" fill="Red"/>
  <circle cx="432.335" cy="449.756" r="4.02051" stroke-width="0.5" stroke="Red" fill="Red"/>
   </g>
   <g id="cell8">
  <circle cx="432.716" cy="461.47" r="8.41271" stroke-width="0.5" stroke="black" fill="Red"/>
  <circle cx="432.716" cy="461.47" r="5.05167" stroke-width="0.5" stroke="Red" fill="Red"/>
   </g>
   <g id="cell9">
  <circle cx="432.332" cy="473.981" r="8.41271" stroke-width="0.5" stroke="black" fill="Red"/>
  <circle cx="432.332" cy="473.981" r="5.05167" stroke-width="0.5" stroke="Red" fill="Red"/>
   </g>
   <g id="cell10">
  <circle cx="432.579" cy="488.74" r="8.41271" stroke-width="0.5" stroke="black" fill="Red"/>
  <circle cx="432.579" cy="488.74" r="5.05167" stroke-width="0.5" stroke="Red" fill="Red"/>
   </g>
   <g id="cell11">
  <circle cx="433.442" cy="502.583" r="8.41271" stroke-width="0.5" stroke="black" fill="Red"/>
  <circle cx="433.442" cy="502.583" r="5.05167" stroke-width="0.5" stroke="Red" fill="Red"/>
   </g>
   <g id="cell12">
  <circle cx="432.464" cy="516.663" r="8.41271" stroke-width="0.5" stroke="black" fill="Red"/>
  <circle cx="432.464" cy="516.663" r="5.05167" stroke-width="0.5" stroke="Red" fill="Red"/>
   </g>
   <g id="cell13">
  <circle cx="432.808" cy="531.414" r="8.41271" stroke-width="0.5" stroke="black" fill="yellow"/>
  <circle cx="432.808" cy="531.414" r="5.05167" stroke-width="0.5" stroke="yellow" fill="yellow"/>
   </g>
   <g id="cell14">
  <circle cx="434.207" cy="545.409" r="8.41271" stroke-width="0.5" stroke="black" fill="yellow"/>
  <circle cx="434.207" cy="545.409" r="5.05167" stroke-width="0.5" stroke="yellow" fill="yellow"/>
   </g>
   <g id="cell15">
  <circle cx="433.049" cy="559.218" r="8.41271" stroke-width="0.5" stroke="black" fill="blue"/>
  <circle cx="433.049" cy="559.218" r="5.05167" stroke-width="0.5" stroke="blue" fill="blue"/>
   </g>
   <g id="cell16">
  <circle cx="446.071" cy="427.16" r="8.41271" stroke-width="0.5" stroke="black" fill="blue"/>
  <circle cx="446.071" cy="427.16" r="5.05167" stroke-width="0.5" stroke="blue" fill="blue"/>
   </g>
   <g id="cell17">
  <circle cx="449.458" cy="439.321" r="8.41271" stroke-width="0.5" stroke="black" fill="Red"/>
  <circle cx="449.458" cy="439.321" r="5.05167" stroke-width="0.5" stroke="Red" fill="Red"/>
   </g>
   <g id="cell18">
  <circle cx="445.585" cy="452.657" r="8.41271" stroke-width="0.5" stroke="black" fill="Red"/>
  <circle cx="445.585" cy="452.657" r="5.05167" stroke-width="0.5" stroke="Red" fill="Red"/>
   </g>
   <g id="cell19">
  <circle cx="444.913" cy="467.374" r="8.41271" stroke-width="0.5" stroke="black" fill="blue"/>
  <circle cx="444.913" cy="467.374" r="5.05167" stroke-width="0.5" stroke="blue" fill="blue"/>
   </g>
   <g id="cell20">
  <circle cx="445.927" cy="481.508" r="8.41271" stroke-width="0.5" stroke="black" fill="Red"/>
  <circle cx="445.927" cy="481.508" r="5.05167" stroke-width="0.5" stroke="Red" fill="Red"/>
   </g>
   <g id="cell21">
  <circle cx="445.883" cy="495.353" r="8.41271" stroke-width="0.5" stroke="black" fill="Red"/>
  <circle cx="445.883" cy="495.353" r="5.05167" stroke-width="0.5" stroke="Red" fill="Red"/>
   </g>
   <g id="cell22">
  <circle cx="445.654" cy="510.279" r="8.41271" stroke-width="0.5" stroke="black" fill="blue"/>
  <circle cx="445.654" cy="510.279" r="5.05167" stroke-width="0.5" stroke="blue" fill="blue"/>
   </g>
   <g id="cell23">
  <circle cx="446.256" cy="524.818" r="8.41271" stroke-width="0.5" stroke="black" fill="blue"/>
  <circle cx="446.256" cy="524.818" r="5.05167" stroke-width="0.5" stroke="blue" fill="blue"/>
   </g>
   <g id="cell24">
  <circle cx="447.703" cy="538.672" r="8.41271" stroke-width="0.5" stroke="black" fill="Red"/>
  <circle cx="447.703" cy="538.672" r="5.05167" stroke-width="0.5" stroke="Red" fill="Red"/>
   </g>
   <g id="cell25">
  <circle cx="446.811" cy="552.821" r="8.41271" stroke-width="0.5" stroke="black" fill="Red"/>
  <circle cx="446.811" cy="552.821" r="5.05167" stroke-width="0.5" stroke="Red" fill="Red"/>
   </g>
   <g id="cell26">
  <circle cx="446.695" cy="566.605" r="8.41271" stroke-width="0.5" stroke="black" fill="Red"/>
  <circle cx="446.695" cy="566.605" r="5.05167" stroke-width="0.5" stroke="Red" fill="Red"/>
   </g>
   <g id="cell27">
  <circle cx="460.393" cy="416.975" r="8.41271" stroke-width="0.5" stroke="black" fill="yellow"/>
  <circle cx="460.393" cy="416.975" r="5.05167" stroke-width="0.5" stroke="yellow" fill="yellow"/>
   </g>
   <g id="cell28">
  <circle cx="460.722" cy="430.956" r="8.41271" stroke-width="0.5" stroke="black" fill="Red"/>
  <circle cx="460.722" cy="430.956" r="5.05167" stroke-width="0.5" stroke="Red" fill="Red"/>
   </g>
   <g id="cell29">
  <circle cx="461.429" cy="446.811" r="8.41271" stroke-width="0.5" stroke="black" fill="Red"/>
  <circle cx="461.429" cy="446.811" r="5.05167" stroke-width="0.5" stroke="Red" fill="Red"/>
   </g>
   <g id="cell30">
  <circle cx="460.298" cy="460.366" r="8.41271" stroke-width="0.5" stroke="black" fill="Red"/>
  <circle cx="460.298" cy="460.366" r="5.05167" stroke-width="0.5" stroke="Red" fill="Red"/>
   </g>
   <g id="cell31">
  <circle cx="457.645" cy="473.642" r="8.41271" stroke-width="0.5" stroke="black" fill="Red"/>
  <circle cx="457.645" cy="473.642" r="5.05167" stroke-width="0.5" stroke="Red" fill="Red"/>
   </g>
   <g id="cell32">
  <circle cx="458.861" cy="488.434" r="8.41271" stroke-width="0.5" stroke="black" fill="Red"/>
  <circle cx="458.861" cy="488.434" r="5.05167" stroke-width="0.5" stroke="Red" fill="Red"/>
   </g>
   <g id="cell33">
  <circle cx="458.771" cy="502.702" r="8.41271" stroke-width="0.5" stroke="black" fill="Red"/>
  <circle cx="458.771" cy="502.702" r="5.05167" stroke-width="0.5" stroke="Red" fill="Red"/>
   </g>
   <g id="cell34">
  <circle cx="459.203" cy="517.008" r="8.41271" stroke-width="0.5" stroke="black" fill="Red"/>
  <circle cx="459.203" cy="517.008" r="5.05167" stroke-width="0.5" stroke="Red" fill="Red"/>
   </g>
   <g id="cell35">
  <circle cx="459.874" cy="531.19" r="8.41271" stroke-width="0.5" stroke="black" fill="Red"/>
  <circle cx="459.874" cy="531.19" r="5.05167" stroke-width="0.5" stroke="Red" fill="Red"/>
   </g>
   <g id="cell36">
  <circle cx="459.545" cy="546.087" r="8.41271" stroke-width="0.5" stroke="black" fill="blue"/>
  <circle cx="459.545" cy="546.087" r="5.05167" stroke-width="0.5" stroke="blue" fill="blue"/>
   </g>
   <g id="cell37">
  <circle cx="460.339" cy="560.076" r="8.41271" stroke-width="0.5" stroke="black" fill="Red"/>
  <circle cx="460.339" cy="560.076" r="5.05167" stroke-width="0.5" stroke="Red" fill="Red"/>
   </g>
   <g id="cell38">
  <circle cx="459.674" cy="574.245" r="8.41271" stroke-width="0.5" stroke="black" fill="yellow"/>
  <circle cx="459.674" cy="574.245" r="5.05167" stroke-width="0.5" stroke="yellow" fill="yellow"/>
   </g>
   <g id="cell39">
  <circle cx="458.706" cy="589.433" r="8.41271" stroke-width="0.5" stroke="black" fill="blue"/>
  <circle cx="458.706" cy="589.433" r="5.05167" stroke-width="0.5" stroke="blue" fill="blue"/>
   </g>
   <g id="cell40">
  <circle cx="473.627" cy="408.959" r="8.41271" stroke-width="0.5" stroke="black" fill="blue"/>
  <circle cx="473.627" cy="408.959" r="5.05167" stroke-width="0.5" stroke="blue" fill="blue"/>
   </g>
   <g id="cell41">
  <circle cx="473.832" cy="422.932" r="8.41271" stroke-width="0.5" stroke="black" fill="yellow"/>
  <circle cx="473.832" cy="422.932" r="5.05167" stroke-width="0.5" stroke="yellow" fill="yellow"/>
   </g>
   <g id="cell42">
  <circle cx="473.871" cy="437.535" r="8.41271" stroke-width="0.5" stroke="black" fill="blue"/>
  <circle cx="473.871" cy="437.535" r="5.05167" stroke-width="0.5" stroke="blue" fill="blue"/>
   </g>
   <g id="cell43">
  <circle cx="473.964" cy="451.864" r="8.41271" stroke-width="0.5" stroke="black" fill="Red"/>
  <circle cx="473.964" cy="451.864" r="5.05167" stroke-width="0.5" stroke="Red" fill="Red"/>
   </g>
   <g id="cell44">
  <circle cx="474.592" cy="466.356" r="8.41271" stroke-width="0.5" stroke="black" fill="blue"/>
  <circle cx="474.592" cy="466.356" r="5.05167" stroke-width="0.5" stroke="blue" fill="blue"/>
   </g>
   <g id="cell45">
  <circle cx="471.251" cy="479.546" r="8.41271" stroke-width="0.5" stroke="black" fill="Red"/>
  <circle cx="471.251" cy="479.546" r="5.05167" stroke-width="0.5" stroke="Red" fill="Red"/>
   </g>
   <g id="cell46">
  <circle cx="472.206" cy="492.986" r="8.41271" stroke-width="0.5" stroke="black" fill="Red"/>
  <circle cx="472.206" cy="492.986" r="5.05167" stroke-width="0.5" stroke="Red" fill="Red"/>
   </g>
   <g id="cell47">
  <circle cx="471.251" cy="504.437" r="6.67717" stroke-width="0.5" stroke="black" fill="Red"/>
  <circle cx="471.251" cy="504.437" r="4.00951" stroke-width="0.5" stroke="Red" fill="Red"/>
   </g>
   <g id="cell48">
  <circle cx="473.653" cy="523.646" r="8.41271" stroke-width="0.5" stroke="black" fill="Red"/>
  <circle cx="473.653" cy="523.646" r="5.05167" stroke-width="0.5" stroke="Red" fill="Red"/>
   </g>
   <g id="cell49">
  <circle cx="473.212" cy="538.892" r="8.41271" stroke-width="0.5" stroke="black" fill="Red"/>
  <circle cx="473.212" cy="538.892" r="5.05167" stroke-width="0.5" stroke="Red" fill="Red"/>
   </g>
   <g id="cell50">
  <circle cx="473.042" cy="552.846" r="8.41271" stroke-width="0.5" stroke="black" fill="Red"/>
  <circle cx="473.042" cy="552.846" r="5.05167" stroke-width="0.5" stroke="Red" fill="Red"/>
   </g>
   <g id="cell51">
  <circle cx="473.176" cy="567.331" r="8.41271" stroke-width="0.5" stroke="black" fill="blue"/>
  <circle cx="473.176" cy="567.331" r="5.05167" stroke-width="0.5" stroke="blue" fill="blue"/>
   </g>
   <g id="cell52">
  <circle cx="473.958" cy="582.682" r="8.41271" stroke-width="0.5" stroke="black" fill="yellow"/>
  <circle cx="473.958" cy="582.682" r="5.05167" stroke-width="0.5" stroke="yellow" fill="yellow"/>
   </g>
   <g id="cell53">
  <circle cx="486.892" cy="415.399" r="8.41271" stroke-width="0.5" stroke="black" fill="yellow"/>
  <circle cx="486.892" cy="415.399" r="5.05167" stroke-width="0.5" stroke="yellow" fill="yellow"/>
   </g>
   <g id="cell54">
  <circle cx="486.589" cy="430.937" r="8.41271" stroke-width="0.5" stroke="black" fill="Red"/>
  <circle cx="486.589" cy="430.937" r="5.05167" stroke-width="0.5" stroke="Red" fill="Red"/>
   </g>
   <g id="cell55">
  <circle cx="486.696" cy="444.883" r="8.41271" stroke-width="0.5" stroke="black" fill="Red"/>
  <circle cx="486.696" cy="444.883" r="5.05167" stroke-width="0.5" stroke="Red" fill="Red"/>
   </g>
   <g id="cell56">
  <circle cx="487.474" cy="459.339" r="8.41271" stroke-width="0.5" stroke="black" fill="Red"/>
  <circle cx="487.474" cy="459.339" r="5.05167" stroke-width="0.5" stroke="Red" fill="Red"/>
   </g>
   <g id="cell57">
  <circle cx="487.97" cy="473.42" r="8.41271" stroke-width="0.5" stroke="black" fill="Red"/>
  <circle cx="487.97" cy="473.42" r="5.05167" stroke-width="0.5" stroke="Red" fill="Red"/>
   </g>
   <g id="cell58">
  <circle cx="485.735" cy="487.406" r="8.41271" stroke-width="0.5" stroke="black" fill="blue"/>
  <circle cx="485.735" cy="487.406" r="5.05167" stroke-width="0.5" stroke="blue" fill="blue"/>
   </g>
   <g id="cell59">
  <circle cx="485.003" cy="502.028" r="8.41271" stroke-width="0.5" stroke="black" fill="Red"/>
  <circle cx="485.003" cy="502.028" r="5.05167" stroke-width="0.5" stroke="Red" fill="Red"/>
   </g>
   <g id="cell60">
  <circle cx="487.054" cy="516.583" r="8.41271" stroke-width="0.5" stroke="black" fill="Red"/>
  <circle cx="487.054" cy="516.583" r="5.05167" stroke-width="0.5" stroke="Red" fill="Red"/>
   </g>
   <g id="cell61">
  <circle cx="487.022" cy="530.501" r="8.41271" stroke-width="0.5" stroke="black" fill="Red"/>
  <circle cx="487.022" cy="530.501" r="5.05167" stroke-width="0.5" stroke="Red" fill="Red"/>
   </g>
   <g id="cell62">
  <circle cx="486.487" cy="546.597" r="8.41271" stroke-width="0.5" stroke="black" fill="blue"/>
  <circle cx="486.487" cy="546.597" r="5.05167" stroke-width="0.5" stroke="blue" fill="blue"/>
   </g>
   <g id="cell63">
  <circle cx="486.037" cy="559.773" r="8.41271" stroke-width="0.5" stroke="black" fill="Red"/>
  <circle cx="486.037" cy="559.773" r="5.05167" stroke-width="0.5" stroke="Red" fill="Red"/>
   </g>
   <g id="cell64">
  <circle cx="487.389" cy="573.049" r="8.41271" stroke-width="0.5" stroke="black" fill="Red"/>
  <circle cx="487.389" cy="573.049" r="5.05167" stroke-width="0.5" stroke="Red" fill="Red"/>
   </g>
   <g id="cell65">
  <circle cx="488.123" cy="587.163" r="8.41271" stroke-width="0.5" stroke="black" fill="Red"/>
  <circle cx="488.123" cy="587.163" r="5.05167" stroke-width="0.5" stroke="Red" fill="Red"/>
   </g>
   <g id="cell66">
  <circle cx="498.989" cy="408.444" r="8.41271" stroke-width="0.5" stroke="black" fill="blue"/>
  <circle cx="498.989" cy="408.444" r="5.05167" stroke-width="0.5" stroke="blue" fill="blue"/>
   </g>
   <g id="cell67">
  <circle cx="500.932" cy="422.708" r="8.41271" stroke-width="0.5" stroke="black" fill="yellow"/>
  <circle cx="500.932" cy="422.708" r="5.05167" stroke-width="0.5" stroke="yellow" fill="yellow"/>
   </g>
   <g id="cell68">
  <circle cx="502.58" cy="436.286" r="8.41271" stroke-width="0.5" stroke="black" fill="Red"/>
  <circle cx="502.58" cy="436.286" r="5.05167" stroke-width="0.5" stroke="Red" fill="Red"/>
   </g>
   <g id="cell69">
  <circle cx="501.216" cy="450.646" r="8.41271" stroke-width="0.5" stroke="black" fill="Red"/>
  <circle cx="501.216" cy="450.646" r="5.05167" stroke-width="0.5" stroke="Red" fill="Red"/>
   </g>
   <g id="cell70">
  <circle cx="503.571" cy="464.757" r="8.41271" stroke-width="0.5" stroke="black" fill="blue"/>
  <circle cx="503.571" cy="464.757" r="5.05167" stroke-width="0.5" stroke="blue" fill="blue"/>
   </g>
   <g id="cell71">
  <circle cx="501.869" cy="479.36" r="8.41271" stroke-width="0.5" stroke="black" fill="Red"/>
  <circle cx="501.869" cy="479.36" r="5.05167" stroke-width="0.5" stroke="Red" fill="Red"/>
   </g>
   <g id="cell72">
  <circle cx="499.483" cy="493.804" r="8.41271" stroke-width="0.5" stroke="black" fill="Red"/>
  <circle cx="499.483" cy="493.804" r="5.05167" stroke-width="0.5" stroke="Red" fill="Red"/>
   </g>
   <g id="cell73">
  <circle cx="500.287" cy="507.829" r="8.41271" stroke-width="0.5" stroke="black" fill="blue"/>
  <circle cx="500.287" cy="507.829" r="5.05167" stroke-width="0.5" stroke="blue" fill="blue"/>
   </g>
   <g id="cell74">
  <circle cx="501.163" cy="523.83" r="8.41271" stroke-width="0.5" stroke="black" fill="Red"/>
  <circle cx="501.163" cy="523.83" r="5.05167" stroke-width="0.5" stroke="Red" fill="Red"/>
   </g>
   <g id="cell75">
  <circle cx="500.672" cy="537.694" r="8.41271" stroke-width="0.5" stroke="black" fill="Red"/>
  <circle cx="500.672" cy="537.694" r="5.05167" stroke-width="0.5" stroke="Red" fill="Red"/>
   </g>
   <g id="cell76">
  <circle cx="500.119" cy="553.49" r="8.41271" stroke-width="0.5" stroke="black" fill="Red"/>
  <circle cx="500.119" cy="553.49" r="5.05167" stroke-width="0.5" stroke="Red" fill="Red"/>
   </g>
   <g id="cell77">
  <circle cx="501.565" cy="567.052" r="8.41271" stroke-width="0.5" stroke="black" fill="Red"/>
  <circle cx="501.565" cy="567.052" r="5.05167" stroke-width="0.5" stroke="Red" fill="Red"/>
   </g>
   <g id="cell78">
  <circle cx="501.371" cy="580.086" r="8.41271" stroke-width="0.5" stroke="black" fill="Red"/>
  <circle cx="501.371" cy="580.086" r="5.05167" stroke-width="0.5" stroke="Red" fill="Red"/>
   </g>
   <g id="cell79">
  <circle cx="502.391" cy="593.336" r="8.41271" stroke-width="0.5" stroke="black" fill="blue"/>
  <circle cx="502.391" cy="593.336" r="5.05167" stroke-width="0.5" stroke="blue" fill="blue"/>
   </g>
   <g id="cell80">
  <circle cx="514.309" cy="415.425" r="8.41271" stroke-width="0.5" stroke="black" fill="yellow"/>
  <circle cx="514.309" cy="415.425" r="5.05167" stroke-width="0.5" stroke="yellow" fill="yellow"/>
   </g>
   <g id="cell81">
  <circle cx="515.917" cy="429.189" r="8.41271" stroke-width="0.5" stroke="black" fill="Red"/>
  <circle cx="515.917" cy="429.189" r="5.05167" stroke-width="0.5" stroke="Red" fill="Red"/>
   </g>
   <g id="cell82">
  <circle cx="517.582" cy="444.616" r="8.41271" stroke-width="0.5" stroke="black" fill="blue"/>
  <circle cx="517.582" cy="444.616" r="5.05167" stroke-width="0.5" stroke="blue" fill="blue"/>
   </g>
   <g id="cell83">
  <circle cx="518.171" cy="458.338" r="8.41271" stroke-width="0.5" stroke="black" fill="Red"/>
  <circle cx="518.171" cy="458.338" r="5.05167" stroke-width="0.5" stroke="Red" fill="Red"/>
   </g>
   <g id="cell84">
  <circle cx="516.193" cy="472.166" r="8.41271" stroke-width="0.5" stroke="black" fill="Red"/>
  <circle cx="516.193" cy="472.166" r="5.05167" stroke-width="0.5" stroke="Red" fill="Red"/>
   </g>
   <g id="cell85">
  <circle cx="514.652" cy="487.038" r="8.41271" stroke-width="0.5" stroke="black" fill="Red"/>
  <circle cx="514.652" cy="487.038" r="5.05167" stroke-width="0.5" stroke="Red" fill="Red"/>
   </g>
   <g id="cell86">
  <circle cx="514.882" cy="501.48" r="8.41271" stroke-width="0.5" stroke="black" fill="Red"/>
  <circle cx="514.882" cy="501.48" r="5.05167" stroke-width="0.5" stroke="Red" fill="Red"/>
   </g>
   <g id="cell87">
  <circle cx="515.407" cy="516.619" r="8.41271" stroke-width="0.5" stroke="black" fill="Red"/>
  <circle cx="515.407" cy="516.619" r="5.05167" stroke-width="0.5" stroke="Red" fill="Red"/>
   </g>
   <g id="cell88">
  <circle cx="515.033" cy="531.805" r="8.41271" stroke-width="0.5" stroke="black" fill="blue"/>
  <circle cx="515.033" cy="531.805" r="5.05167" stroke-width="0.5" stroke="blue" fill="blue"/>
   </g>
   <g id="cell89">
  <circle cx="514.341" cy="545.567" r="8.41271" stroke-width="0.5" stroke="black" fill="Red"/>
  <circle cx="514.341" cy="545.567" r="5.05167" stroke-width="0.5" stroke="Red" fill="Red"/>
   </g>
   <g id="cell90">
  <circle cx="516.141" cy="559.058" r="8.41271" stroke-width="0.5" stroke="black" fill="blue"/>
  <circle cx="516.141" cy="559.058" r="5.05167" stroke-width="0.5" stroke="blue" fill="blue"/>
   </g>
   <g id="cell91">
  <circle cx="514.788" cy="572.623" r="8.41271" stroke-width="0.5" stroke="black" fill="Red"/>
  <circle cx="514.788" cy="572.623" r="5.05167" stroke-width="0.5" stroke="Red" fill="Red"/>
   </g>
   <g id="cell92">
  <circle cx="514.002" cy="586.574" r="8.41271" stroke-width="0.5" stroke="black" fill="Red"/>
  <circle cx="514.002" cy="586.574" r="5.05167" stroke-width="0.5" stroke="Red" fill="Red"/>
   </g>
   <g id="cell93">
  <circle cx="527.202" cy="410.926" r="8.41271" stroke-width="0.5" stroke="black" fill="blue"/>
  <circle cx="527.202" cy="410.926" r="5.05167" stroke-width="0.5" stroke="blue" fill="blue"/>
   </g>
   <g id="cell94">
  <circle cx="529.062" cy="424.153" r="8.41271" stroke-width="0.5" stroke="black" fill="Red"/>
  <circle cx="529.062" cy="424.153" r="5.05167" stroke-width="0.5" stroke="Red" fill="Red"/>
   </g>
   <g id="cell95">
  <circle cx="529.97" cy="437.613" r="8.41271" stroke-width="0.5" stroke="black" fill="Red"/>
  <circle cx="529.97" cy="437.613" r="5.05167" stroke-width="0.5" stroke="Red" fill="Red"/>
   </g>
   <g id="cell96">
  <circle cx="529.942" cy="449.12" r="6.67717" stroke-width="0.5" stroke="black" fill="Red"/>
  <circle cx="529.942" cy="449.12" r="4.00951" stroke-width="0.5" stroke="Red" fill="Red"/>
   </g>
   <g id="cell97">
  <circle cx="531.529" cy="467.343" r="8.41271" stroke-width="0.5" stroke="black" fill="Red"/>
  <circle cx="531.529" cy="467.343" r="5.05167" stroke-width="0.5" stroke="Red" fill="Red"/>
   </g>
   <g id="cell98">
  <circle cx="530.97" cy="481.31" r="8.41271" stroke-width="0.5" stroke="black" fill="Red"/>
  <circle cx="530.97" cy="481.31" r="5.05167" stroke-width="0.5" stroke="Red" fill="Red"/>
   </g>
   <g id="cell99">
  <circle cx="530.923" cy="495.555" r="8.41271" stroke-width="0.5" stroke="black" fill="Red"/>
  <circle cx="530.923" cy="495.555" r="5.05167" stroke-width="0.5" stroke="Red" fill="Red"/>
   </g>
   <g id="cell100">
  <circle cx="528.989" cy="510.532" r="8.41271" stroke-width="0.5" stroke="black" fill="Red"/>
  <circle cx="528.989" cy="510.532" r="5.05167" stroke-width="0.5" stroke="Red" fill="Red"/>
   </g>
   <g id="cell101">
  <circle cx="530.915" cy="523.935" r="8.41271" stroke-width="0.5" stroke="black" fill="Red"/>
  <circle cx="530.915" cy="523.935" r="5.05167" stroke-width="0.5" stroke="Red" fill="Red"/>
   </g>
   <g id="cell102">
  <circle cx="530.33" cy="538.563" r="8.41271" stroke-width="0.5" stroke="black" fill="Red"/>
  <circle cx="530.33" cy="538.563" r="5.05167" stroke-width="0.5" stroke="Red" fill="Red"/>
   </g>
   <g id="cell103">
  <circle cx="529.891" cy="551.865" r="8.41271" stroke-width="0.5" stroke="black" fill="Red"/>
  <circle cx="529.891" cy="551.865" r="5.05167" stroke-width="0.5" stroke="Red" fill="Red"/>
   </g>
   <g id="cell104">
  <circle cx="529.4" cy="565.78" r="8.41271" stroke-width="0.5" stroke="black" fill="Red"/>
  <circle cx="529.4" cy="565.78" r="5.05167" stroke-width="0.5" stroke="Red" fill="Red"/>
   </g>
   <g id="cell105">
  <circle cx="528.012" cy="579.27" r="8.41271" stroke-width="0.5" stroke="black" fill="blue"/>
  <circle cx="528.012" cy="579.27" r="5.05167" stroke-width="0.5" stroke="blue" fill="blue"/>
   </g>
   <g id="cell106">
  <circle cx="541.469" cy="416.87" r="8.41271" stroke-width="0.5" stroke="black" fill="yellow"/>
  <circle cx="541.469" cy="416.87" r="5.05167" stroke-width="0.5" stroke="yellow" fill="yellow"/>
   </g>
   <g id="cell107">
  <circle cx="542.481" cy="431.144" r="8.41271" stroke-width="0.5" stroke="black" fill="yellow"/>
  <circle cx="542.481" cy="431.144" r="5.05167" stroke-width="0.5" stroke="yellow" fill="yellow"/>
   </g>
   <g id="cell108">
  <circle cx="542.683" cy="445.66" r="8.41271" stroke-width="0.5" stroke="black" fill="Red"/>
  <circle cx="542.683" cy="445.66" r="5.05167" stroke-width="0.5" stroke="Red" fill="Red"/>
   </g>
   <g id="cell109">
  <circle cx="544.366" cy="460.068" r="8.41271" stroke-width="0.5" stroke="black" fill="Red"/>
  <circle cx="544.366" cy="460.068" r="5.05167" stroke-width="0.5" stroke="Red" fill="Red"/>
   </g>
   <g id="cell110">
  <circle cx="544.226" cy="474.636" r="8.41271" stroke-width="0.5" stroke="black" fill="blue"/>
  <circle cx="544.226" cy="474.636" r="5.05167" stroke-width="0.5" stroke="blue" fill="blue"/>
   </g>
   <g id="cell111">
  <circle cx="544.719" cy="488.567" r="8.41271" stroke-width="0.5" stroke="black" fill="Red"/>
  <circle cx="544.719" cy="488.567" r="5.05167" stroke-width="0.5" stroke="Red" fill="Red"/>
   </g>
   <g id="cell112">
  <circle cx="545.076" cy="504.428" r="8.41271" stroke-width="0.5" stroke="black" fill="Red"/>
  <circle cx="545.076" cy="504.428" r="5.05167" stroke-width="0.5" stroke="Red" fill="Red"/>
   </g>
   <g id="cell113">
  <circle cx="544.587" cy="517.729" r="8.41271" stroke-width="0.5" stroke="black" fill="Red"/>
  <circle cx="544.587" cy="517.729" r="5.05167" stroke-width="0.5" stroke="Red" fill="Red"/>
   </g>
   <g id="cell114">
  <circle cx="544.487" cy="531.873" r="8.41271" stroke-width="0.5" stroke="black" fill="Red"/>
  <circle cx="544.487" cy="531.873" r="5.05167" stroke-width="0.5" stroke="Red" fill="Red"/>
   </g>
   <g id="cell115">
  <circle cx="544.467" cy="546.425" r="8.41271" stroke-width="0.5" stroke="black" fill="Red"/>
  <circle cx="544.467" cy="546.425" r="5.05167" stroke-width="0.5" stroke="Red" fill="Red"/>
   </g>
   <g id="cell116">
  <circle cx="542.561" cy="560.092" r="8.41271" stroke-width="0.5" stroke="black" fill="Red"/>
  <circle cx="542.561" cy="560.092" r="5.05167" stroke-width="0.5" stroke="Red" fill="Red"/>
   </g>
   <g id="cell117">
  <circle cx="541.225" cy="572.644" r="8.41271" stroke-width="0.5" stroke="black" fill="blue"/>
  <circle cx="541.225" cy="572.644" r="5.05167" stroke-width="0.5" stroke="blue" fill="blue"/>
   </g>
   <g id="cell118">
  <circle cx="552.969" cy="423.573" r="8.41271" stroke-width="0.5" stroke="black" fill="blue"/>
  <circle cx="552.969" cy="423.573" r="5.05167" stroke-width="0.5" stroke="blue" fill="blue"/>
   </g>
   <g id="cell119">
  <circle cx="556.053" cy="437.598" r="8.41271" stroke-width="0.5" stroke="black" fill="yellow"/>
  <circle cx="556.053" cy="437.598" r="5.05167" stroke-width="0.5" stroke="yellow" fill="yellow"/>
   </g>
   <g id="cell120">
  <circle cx="556.149" cy="453.053" r="8.41271" stroke-width="0.5" stroke="black" fill="Red"/>
  <circle cx="556.149" cy="453.053" r="5.05167" stroke-width="0.5" stroke="Red" fill="Red"/>
   </g>
   <g id="cell121">
  <circle cx="558.765" cy="467.586" r="8.41271" stroke-width="0.5" stroke="black" fill="Red"/>
  <circle cx="558.765" cy="467.586" r="5.05167" stroke-width="0.5" stroke="Red" fill="Red"/>
   </g>
   <g id="cell122">
  <circle cx="558.554" cy="481.766" r="8.41271" stroke-width="0.5" stroke="black" fill="Red"/>
  <circle cx="558.554" cy="481.766" r="5.05167" stroke-width="0.5" stroke="Red" fill="Red"/>
   </g>
   <g id="cell123">
  <circle cx="556.963" cy="496.465" r="8.41271" stroke-width="0.5" stroke="black" fill="Red"/>
  <circle cx="556.963" cy="496.465" r="5.05167" stroke-width="0.5" stroke="Red" fill="Red"/>
   </g>
   <g id="cell124">
  <circle cx="557.986" cy="509.769" r="8.41271" stroke-width="0.5" stroke="black" fill="blue"/>
  <circle cx="557.986" cy="509.769" r="5.05167" stroke-width="0.5" stroke="blue" fill="blue"/>
   </g>
   <g id="cell125">
  <circle cx="557.602" cy="524.256" r="8.41271" stroke-width="0.5" stroke="black" fill="blue"/>
  <circle cx="557.602" cy="524.256" r="5.05167" stroke-width="0.5" stroke="blue" fill="blue"/>
   </g>
   <g id="cell126">
  <circle cx="558.425" cy="537.815" r="8.41271" stroke-width="0.5" stroke="black" fill="Red"/>
  <circle cx="558.425" cy="537.815" r="5.05167" stroke-width="0.5" stroke="Red" fill="Red"/>
   </g>
   <g id="cell127">
  <circle cx="557.151" cy="552.642" r="8.41271" stroke-width="0.5" stroke="black" fill="Red"/>
  <circle cx="557.151" cy="552.642" r="5.05167" stroke-width="0.5" stroke="Red" fill="Red"/>
   </g>
   <g id="cell128">
  <circle cx="556.365" cy="565.797" r="8.41271" stroke-width="0.5" stroke="black" fill="Red"/>
  <circle cx="556.365" cy="565.797" r="5.05167" stroke-width="0.5" stroke="Red" fill="Red"/>
   </g>
   <g id="cell129">
  <circle cx="568.887" cy="446.92" r="8.41271" stroke-width="0.5" stroke="black" fill="blue"/>
  <circle cx="568.887" cy="446.92" r="5.05167" stroke-width="0.5" stroke="blue" fill="blue"/>
   </g>
   <g id="cell130">
  <circle cx="571.169" cy="459.755" r="8.41271" stroke-width="0.5" stroke="black" fill="yellow"/>
  <circle cx="571.169" cy="459.755" r="5.05167" stroke-width="0.5" stroke="yellow" fill="yellow"/>
   </g>
   <g id="cell131">
  <circle cx="571.979" cy="473.857" r="8.41271" stroke-width="0.5" stroke="black" fill="yellow"/>
  <circle cx="571.979" cy="473.857" r="5.05167" stroke-width="0.5" stroke="yellow" fill="yellow"/>
   </g>
   <g id="cell132">
  <circle cx="571.159" cy="488.351" r="8.41271" stroke-width="0.5" stroke="black" fill="Red"/>
  <circle cx="571.159" cy="488.351" r="5.05167" stroke-width="0.5" stroke="Red" fill="Red"/>
   </g>
   <g id="cell133">
  <circle cx="573.31" cy="502.599" r="8.41271" stroke-width="0.5" stroke="black" fill="Red"/>
  <circle cx="573.31" cy="502.599" r="5.05167" stroke-width="0.5" stroke="Red" fill="Red"/>
   </g>
   <g id="cell134">
  <circle cx="571.639" cy="517.835" r="8.41271" stroke-width="0.5" stroke="black" fill="Red"/>
  <circle cx="571.639" cy="517.835" r="5.05167" stroke-width="0.5" stroke="Red" fill="Red"/>
   </g>
   <g id="cell135">
  <circle cx="570.946" cy="532.734" r="8.41271" stroke-width="0.5" stroke="black" fill="Red"/>
  <circle cx="570.946" cy="532.734" r="5.05167" stroke-width="0.5" stroke="Red" fill="Red"/>
   </g>
   <g id="cell136">
  <circle cx="570.851" cy="545.863" r="8.41271" stroke-width="0.5" stroke="black" fill="Red"/>
  <circle cx="570.851" cy="545.863" r="5.05167" stroke-width="0.5" stroke="Red" fill="Red"/>
   </g>
   <g id="cell137">
  <circle cx="570.777" cy="558.717" r="8.41271" stroke-width="0.5" stroke="black" fill="blue"/>
  <circle cx="570.777" cy="558.717" r="5.05167" stroke-width="0.5" stroke="blue" fill="blue"/>
   </g>
   <g id="cell138">
  <circle cx="585.541" cy="464.305" r="8.41271" stroke-width="0.5" stroke="black" fill="blue"/>
  <circle cx="585.541" cy="464.305" r="5.05167" stroke-width="0.5" stroke="blue" fill="blue"/>
   </g>
   <g id="cell139">
  <circle cx="584.824" cy="479.768" r="8.41271" stroke-width="0.5" stroke="black" fill="Red"/>
  <circle cx="584.824" cy="479.768" r="5.05167" stroke-width="0.5" stroke="Red" fill="Red"/>
   </g>
   <g id="cell140">
  <circle cx="581.757" cy="493.524" r="6.69288" stroke-width="0.5" stroke="black" fill="blue"/>
  <circle cx="581.757" cy="493.524" r="4.02051" stroke-width="0.5" stroke="blue" fill="blue"/>
   </g>
   <g id="cell141">
  <circle cx="587.155" cy="512.007" r="8.41271" stroke-width="0.5" stroke="black" fill="Red"/>
  <circle cx="587.155" cy="512.007" r="5.05167" stroke-width="0.5" stroke="Red" fill="Red"/>
   </g>
   <g id="cell142">
  <circle cx="583.281" cy="525.044" r="8.41271" stroke-width="0.5" stroke="black" fill="Red"/>
  <circle cx="583.281" cy="525.044" r="5.05167" stroke-width="0.5" stroke="Red" fill="Red"/>
   </g>
   <g id="cell143">
  <circle cx="583.563" cy="538.844" r="8.41271" stroke-width="0.5" stroke="black" fill="blue"/>
  <circle cx="583.563" cy="538.844" r="5.05167" stroke-width="0.5" stroke="blue" fill="blue"/>
   </g>
   <g id="cell144">
  <circle cx="437.522" cy="439.471" r="6.69288" stroke-width="0.5" stroke="black" fill="Red"/>
  <circle cx="437.522" cy="439.471" r="4.02051" stroke-width="0.5" stroke="Red" fill="Red"/>
   </g>
   <g id="cell145">
  <circle cx="587.643" cy="500.115" r="6.69288" stroke-width="0.5" stroke="black" fill="blue"/>
  <circle cx="587.643" cy="500.115" r="4.02051" stroke-width="0.5" stroke="blue" fill="blue"/>
   </g>
   <g id="cell146">
  <circle cx="474.123" cy="512.409" r="6.67717" stroke-width="0.5" stroke="black" fill="blue"/>
  <circle cx="474.123" cy="512.409" r="4.00951" stroke-width="0.5" stroke="blue" fill="blue"/>
   </g>
   <g id="cell147">
  <circle cx="533.47" cy="456.636" r="6.67717" stroke-width="0.5" stroke="black" fill="blue"/>
  <circle cx="533.47" cy="456.636" r="4.00951" stroke-width="0.5" stroke="blue" fill="blue"/>
   </g>
  </g>
 </g>
  <rect x="775" y="1035" width="200" height="10" stroke-width="2" stroke="rgb(255,255,255)" fill="rgb(0,0,0)"/>
  <text x="781.25" y="1028.75"
   font-family="Arial" font-size="25" fill="black" >
   200 &#956;m
  </text>
  <text x="25" y="1045"
   font-family="Arial" font-size="18.75" fill="black" >
   0 days, 0 hours, 0 minutes, and 4.9801 seconds
  </text>
  <rect x="0" y="70" width="1000" height="1000" stroke-width="2" stroke="rgb(0,0,0)" fill="none"/>
</svg>
