<?xml version="1.0" encoding="UTF-8" standalone="no"?>
<!-- Created with PhysiCell (http://PhysiCell.MathCancer.org/) -->
<svg 
 xmlns:dc="http://purl.org/dc/elements/1.1/" 
 xmlns:cc="http://creativecommons.org/ns#" 
 xmlns:rdf="http://www.w3.org/1999/02/22-rdf-syntax-ns#" 
 xmlns:svg="http://www.w3.org/2000/svg" 
 xmlns="http://www.w3.org/2000/svg" 
 version="1.1" 
 width="1000" 
 height="1070" 
 id="svg2">
  <rect x="0" y="0" width="1000" height="1070" stroke-width="2" stroke="white" fill="white"/>
  <text x="12.5" y="30"
   font-family="Arial" font-size="25" fill="black" >
   Current time: 0 days, 0 hours, and 30.00 minutes, z = 0.00 &#956;m
  </text>
  <text x="12.5" y="57.5"
   font-family="Arial" font-size="23.75" fill="black" >
   148 agents
  </text>
 <g id="tissue" 
    transform="translate(0,1070) scale(1,-1)">
  <g id="ECM">
  </g>
  <g id="cells">
   <g id="cell0">
  <circle cx="421.003" cy="454.059" r="8.41271" stroke-width="0.5" stroke="black" fill="blue"/>
  <circle cx="421.003" cy="454.059" r="5.05167" stroke-width="0.5" stroke="blue" fill="blue"/>
   </g>
   <g id="cell1">
  <circle cx="420.801" cy="468.253" r="8.41271" stroke-width="0.5" stroke="black" fill="Red"/>
  <circle cx="420.801" cy="468.253" r="5.05167" stroke-width="0.5" stroke="Red" fill="Red"/>
   </g>
   <g id="cell2">
  <circle cx="421.557" cy="481.783" r="8.41271" stroke-width="0.5" stroke="black" fill="blue"/>
  <circle cx="421.557" cy="481.783" r="5.05167" stroke-width="0.5" stroke="blue" fill="blue"/>
   </g>
   <g id="cell3">
  <circle cx="422.443" cy="495.21" r="8.41271" stroke-width="0.5" stroke="black" fill="blue"/>
  <circle cx="422.443" cy="495.21" r="5.05167" stroke-width="0.5" stroke="blue" fill="blue"/>
   </g>
   <g id="cell4">
  <circle cx="423.283" cy="508.515" r="8.41271" stroke-width="0.5" stroke="black" fill="blue"/>
  <circle cx="423.283" cy="508.515" r="5.05167" stroke-width="0.5" stroke="blue" fill="blue"/>
   </g>
   <g id="cell5">
  <circle cx="420.824" cy="522.996" r="8.41271" stroke-width="0.5" stroke="black" fill="Red"/>
  <circle cx="420.824" cy="522.996" r="5.05167" stroke-width="0.5" stroke="Red" fill="Red"/>
   </g>
   <g id="cell6">
  <circle cx="422.802" cy="537.008" r="8.41271" stroke-width="0.5" stroke="black" fill="blue"/>
  <circle cx="422.802" cy="537.008" r="5.05167" stroke-width="0.5" stroke="blue" fill="blue"/>
   </g>
   <g id="cell7">
  <circle cx="434.585" cy="448.945" r="6.71158" stroke-width="0.5" stroke="black" fill="yellow"/>
  <circle cx="434.585" cy="448.945" r="4.03435" stroke-width="0.5" stroke="yellow" fill="yellow"/>
   </g>
   <g id="cell8">
  <circle cx="434.502" cy="461.089" r="8.41271" stroke-width="0.5" stroke="black" fill="yellow"/>
  <circle cx="434.502" cy="461.089" r="5.05167" stroke-width="0.5" stroke="yellow" fill="yellow"/>
   </g>
   <g id="cell9">
  <circle cx="434.226" cy="475.367" r="8.41271" stroke-width="0.5" stroke="black" fill="Red"/>
  <circle cx="434.226" cy="475.367" r="5.05167" stroke-width="0.5" stroke="Red" fill="Red"/>
   </g>
   <g id="cell10">
  <circle cx="434.392" cy="487.952" r="8.41271" stroke-width="0.5" stroke="black" fill="Red"/>
  <circle cx="434.392" cy="487.952" r="5.05167" stroke-width="0.5" stroke="Red" fill="Red"/>
   </g>
   <g id="cell11">
  <circle cx="434.467" cy="502.291" r="8.41271" stroke-width="0.5" stroke="black" fill="Red"/>
  <circle cx="434.467" cy="502.291" r="5.05167" stroke-width="0.5" stroke="Red" fill="Red"/>
   </g>
   <g id="cell12">
  <circle cx="434.522" cy="516.974" r="8.41271" stroke-width="0.5" stroke="black" fill="Red"/>
  <circle cx="434.522" cy="516.974" r="5.05167" stroke-width="0.5" stroke="Red" fill="Red"/>
   </g>
   <g id="cell13">
  <circle cx="434.323" cy="530.015" r="8.41271" stroke-width="0.5" stroke="black" fill="yellow"/>
  <circle cx="434.323" cy="530.015" r="5.05167" stroke-width="0.5" stroke="yellow" fill="yellow"/>
   </g>
   <g id="cell14">
  <circle cx="436.158" cy="544.626" r="8.41271" stroke-width="0.5" stroke="black" fill="yellow"/>
  <circle cx="436.158" cy="544.626" r="5.05167" stroke-width="0.5" stroke="yellow" fill="yellow"/>
   </g>
   <g id="cell15">
  <circle cx="436.228" cy="559.553" r="8.41271" stroke-width="0.5" stroke="black" fill="blue"/>
  <circle cx="436.228" cy="559.553" r="5.05167" stroke-width="0.5" stroke="blue" fill="blue"/>
   </g>
   <g id="cell16">
  <circle cx="446.925" cy="426.721" r="8.41271" stroke-width="0.5" stroke="black" fill="blue"/>
  <circle cx="446.925" cy="426.721" r="5.05167" stroke-width="0.5" stroke="blue" fill="blue"/>
   </g>
   <g id="cell17">
  <circle cx="449.794" cy="440.09" r="8.41271" stroke-width="0.5" stroke="black" fill="Red"/>
  <circle cx="449.794" cy="440.09" r="5.05167" stroke-width="0.5" stroke="Red" fill="Red"/>
   </g>
   <g id="cell18">
  <circle cx="447.57" cy="452.461" r="8.41271" stroke-width="0.5" stroke="black" fill="Red"/>
  <circle cx="447.57" cy="452.461" r="5.05167" stroke-width="0.5" stroke="Red" fill="Red"/>
   </g>
   <g id="cell19">
  <circle cx="446.651" cy="467.12" r="8.41271" stroke-width="0.5" stroke="black" fill="blue"/>
  <circle cx="446.651" cy="467.12" r="5.05167" stroke-width="0.5" stroke="blue" fill="blue"/>
   </g>
   <g id="cell20">
  <circle cx="446.785" cy="481.077" r="8.41271" stroke-width="0.5" stroke="black" fill="Red"/>
  <circle cx="446.785" cy="481.077" r="5.05167" stroke-width="0.5" stroke="Red" fill="Red"/>
   </g>
   <g id="cell21">
  <circle cx="446.504" cy="495.377" r="8.41271" stroke-width="0.5" stroke="black" fill="Red"/>
  <circle cx="446.504" cy="495.377" r="5.05167" stroke-width="0.5" stroke="Red" fill="Red"/>
   </g>
   <g id="cell22">
  <circle cx="447.02" cy="508.629" r="8.41271" stroke-width="0.5" stroke="black" fill="blue"/>
  <circle cx="447.02" cy="508.629" r="5.05167" stroke-width="0.5" stroke="blue" fill="blue"/>
   </g>
   <g id="cell23">
  <circle cx="447.949" cy="522.769" r="8.41271" stroke-width="0.5" stroke="black" fill="Red"/>
  <circle cx="447.949" cy="522.769" r="5.05167" stroke-width="0.5" stroke="Red" fill="Red"/>
   </g>
   <g id="cell24">
  <circle cx="447.956" cy="537.71" r="8.41271" stroke-width="0.5" stroke="black" fill="Red"/>
  <circle cx="447.956" cy="537.71" r="5.05167" stroke-width="0.5" stroke="Red" fill="Red"/>
   </g>
   <g id="cell25">
  <circle cx="448.028" cy="552.002" r="8.41271" stroke-width="0.5" stroke="black" fill="Red"/>
  <circle cx="448.028" cy="552.002" r="5.05167" stroke-width="0.5" stroke="Red" fill="Red"/>
   </g>
   <g id="cell26">
  <circle cx="447.186" cy="566.288" r="8.41271" stroke-width="0.5" stroke="black" fill="Red"/>
  <circle cx="447.186" cy="566.288" r="5.05167" stroke-width="0.5" stroke="Red" fill="Red"/>
   </g>
   <g id="cell27">
  <circle cx="460.222" cy="416.548" r="8.41271" stroke-width="0.5" stroke="black" fill="yellow"/>
  <circle cx="460.222" cy="416.548" r="5.05167" stroke-width="0.5" stroke="yellow" fill="yellow"/>
   </g>
   <g id="cell28">
  <circle cx="461.526" cy="431.815" r="8.41271" stroke-width="0.5" stroke="black" fill="yellow"/>
  <circle cx="461.526" cy="431.815" r="5.05167" stroke-width="0.5" stroke="yellow" fill="yellow"/>
   </g>
   <g id="cell29">
  <circle cx="462.135" cy="446.365" r="8.41271" stroke-width="0.5" stroke="black" fill="blue"/>
  <circle cx="462.135" cy="446.365" r="5.05167" stroke-width="0.5" stroke="blue" fill="blue"/>
   </g>
   <g id="cell30">
  <circle cx="460.997" cy="459.911" r="8.41271" stroke-width="0.5" stroke="black" fill="Red"/>
  <circle cx="460.997" cy="459.911" r="5.05167" stroke-width="0.5" stroke="Red" fill="Red"/>
   </g>
   <g id="cell31">
  <circle cx="459.336" cy="473.589" r="8.41271" stroke-width="0.5" stroke="black" fill="Red"/>
  <circle cx="459.336" cy="473.589" r="5.05167" stroke-width="0.5" stroke="Red" fill="Red"/>
   </g>
   <g id="cell32">
  <circle cx="459.781" cy="487.337" r="8.41271" stroke-width="0.5" stroke="black" fill="Red"/>
  <circle cx="459.781" cy="487.337" r="5.05167" stroke-width="0.5" stroke="Red" fill="Red"/>
   </g>
   <g id="cell33">
  <circle cx="459.477" cy="501.079" r="8.41271" stroke-width="0.5" stroke="black" fill="Red"/>
  <circle cx="459.477" cy="501.079" r="5.05167" stroke-width="0.5" stroke="Red" fill="Red"/>
   </g>
   <g id="cell34">
  <circle cx="462.579" cy="515.467" r="8.41271" stroke-width="0.5" stroke="black" fill="Red"/>
  <circle cx="462.579" cy="515.467" r="5.05167" stroke-width="0.5" stroke="Red" fill="Red"/>
   </g>
   <g id="cell35">
  <circle cx="460.682" cy="529.996" r="8.41271" stroke-width="0.5" stroke="black" fill="Red"/>
  <circle cx="460.682" cy="529.996" r="5.05167" stroke-width="0.5" stroke="Red" fill="Red"/>
   </g>
   <g id="cell36">
  <circle cx="460.25" cy="544.448" r="8.41271" stroke-width="0.5" stroke="black" fill="blue"/>
  <circle cx="460.25" cy="544.448" r="5.05167" stroke-width="0.5" stroke="blue" fill="blue"/>
   </g>
   <g id="cell37">
  <circle cx="460.712" cy="558.814" r="8.41271" stroke-width="0.5" stroke="black" fill="Red"/>
  <circle cx="460.712" cy="558.814" r="5.05167" stroke-width="0.5" stroke="Red" fill="Red"/>
   </g>
   <g id="cell38">
  <circle cx="461.374" cy="572.243" r="8.41271" stroke-width="0.5" stroke="black" fill="yellow"/>
  <circle cx="461.374" cy="572.243" r="5.05167" stroke-width="0.5" stroke="yellow" fill="yellow"/>
   </g>
   <g id="cell39">
  <circle cx="460.047" cy="586.073" r="8.41271" stroke-width="0.5" stroke="black" fill="blue"/>
  <circle cx="460.047" cy="586.073" r="5.05167" stroke-width="0.5" stroke="blue" fill="blue"/>
   </g>
   <g id="cell40">
  <circle cx="472.991" cy="409.987" r="8.41271" stroke-width="0.5" stroke="black" fill="blue"/>
  <circle cx="472.991" cy="409.987" r="5.05167" stroke-width="0.5" stroke="blue" fill="blue"/>
   </g>
   <g id="cell41">
  <circle cx="473.337" cy="424.373" r="8.41271" stroke-width="0.5" stroke="black" fill="Red"/>
  <circle cx="473.337" cy="424.373" r="5.05167" stroke-width="0.5" stroke="Red" fill="Red"/>
   </g>
   <g id="cell42">
  <circle cx="473.696" cy="437.936" r="8.41271" stroke-width="0.5" stroke="black" fill="Red"/>
  <circle cx="473.696" cy="437.936" r="5.05167" stroke-width="0.5" stroke="Red" fill="Red"/>
   </g>
   <g id="cell43">
  <circle cx="473.867" cy="452.356" r="8.41271" stroke-width="0.5" stroke="black" fill="Red"/>
  <circle cx="473.867" cy="452.356" r="5.05167" stroke-width="0.5" stroke="Red" fill="Red"/>
   </g>
   <g id="cell44">
  <circle cx="474.689" cy="465.88" r="8.41271" stroke-width="0.5" stroke="black" fill="blue"/>
  <circle cx="474.689" cy="465.88" r="5.05167" stroke-width="0.5" stroke="blue" fill="blue"/>
   </g>
   <g id="cell45">
  <circle cx="472.888" cy="479.052" r="8.41271" stroke-width="0.5" stroke="black" fill="Red"/>
  <circle cx="472.888" cy="479.052" r="5.05167" stroke-width="0.5" stroke="Red" fill="Red"/>
   </g>
   <g id="cell46">
  <circle cx="472.761" cy="492.189" r="8.41271" stroke-width="0.5" stroke="black" fill="Red"/>
  <circle cx="472.761" cy="492.189" r="5.05167" stroke-width="0.5" stroke="Red" fill="Red"/>
   </g>
   <g id="cell47">
  <circle cx="471.615" cy="503.43" r="6.69288" stroke-width="0.5" stroke="black" fill="blue"/>
  <circle cx="471.615" cy="503.43" r="4.02051" stroke-width="0.5" stroke="blue" fill="blue"/>
   </g>
   <g id="cell48">
  <circle cx="473.771" cy="524.18" r="8.41271" stroke-width="0.5" stroke="black" fill="Red"/>
  <circle cx="473.771" cy="524.18" r="5.05167" stroke-width="0.5" stroke="Red" fill="Red"/>
   </g>
   <g id="cell49">
  <circle cx="473.238" cy="537.872" r="8.41271" stroke-width="0.5" stroke="black" fill="Red"/>
  <circle cx="473.238" cy="537.872" r="5.05167" stroke-width="0.5" stroke="Red" fill="Red"/>
   </g>
   <g id="cell50">
  <circle cx="474.267" cy="551.64" r="8.41271" stroke-width="0.5" stroke="black" fill="Red"/>
  <circle cx="474.267" cy="551.64" r="5.05167" stroke-width="0.5" stroke="Red" fill="Red"/>
   </g>
   <g id="cell51">
  <circle cx="474.54" cy="565.089" r="8.41271" stroke-width="0.5" stroke="black" fill="blue"/>
  <circle cx="474.54" cy="565.089" r="5.05167" stroke-width="0.5" stroke="blue" fill="blue"/>
   </g>
   <g id="cell52">
  <circle cx="474.388" cy="581.071" r="8.41271" stroke-width="0.5" stroke="black" fill="yellow"/>
  <circle cx="474.388" cy="581.071" r="5.05167" stroke-width="0.5" stroke="yellow" fill="yellow"/>
   </g>
   <g id="cell53">
  <circle cx="486.48" cy="416.108" r="8.41271" stroke-width="0.5" stroke="black" fill="yellow"/>
  <circle cx="486.48" cy="416.108" r="5.05167" stroke-width="0.5" stroke="yellow" fill="yellow"/>
   </g>
   <g id="cell54">
  <circle cx="486.108" cy="430.822" r="8.41271" stroke-width="0.5" stroke="black" fill="Red"/>
  <circle cx="486.108" cy="430.822" r="5.05167" stroke-width="0.5" stroke="Red" fill="Red"/>
   </g>
   <g id="cell55">
  <circle cx="487.83" cy="445.299" r="8.41271" stroke-width="0.5" stroke="black" fill="Red"/>
  <circle cx="487.83" cy="445.299" r="5.05167" stroke-width="0.5" stroke="Red" fill="Red"/>
   </g>
   <g id="cell56">
  <circle cx="486.952" cy="458.778" r="8.41271" stroke-width="0.5" stroke="black" fill="Red"/>
  <circle cx="486.952" cy="458.778" r="5.05167" stroke-width="0.5" stroke="Red" fill="Red"/>
   </g>
   <g id="cell57">
  <circle cx="488.398" cy="472.647" r="8.41271" stroke-width="0.5" stroke="black" fill="Red"/>
  <circle cx="488.398" cy="472.647" r="5.05167" stroke-width="0.5" stroke="Red" fill="Red"/>
   </g>
   <g id="cell58">
  <circle cx="486.899" cy="487.064" r="8.41271" stroke-width="0.5" stroke="black" fill="blue"/>
  <circle cx="486.899" cy="487.064" r="5.05167" stroke-width="0.5" stroke="blue" fill="blue"/>
   </g>
   <g id="cell59">
  <circle cx="484.843" cy="501.615" r="8.41271" stroke-width="0.5" stroke="black" fill="Red"/>
  <circle cx="484.843" cy="501.615" r="5.05167" stroke-width="0.5" stroke="Red" fill="Red"/>
   </g>
   <g id="cell60">
  <circle cx="487.672" cy="516.959" r="8.41271" stroke-width="0.5" stroke="black" fill="Red"/>
  <circle cx="487.672" cy="516.959" r="5.05167" stroke-width="0.5" stroke="Red" fill="Red"/>
   </g>
   <g id="cell61">
  <circle cx="487.048" cy="530.913" r="8.41271" stroke-width="0.5" stroke="black" fill="Red"/>
  <circle cx="487.048" cy="530.913" r="5.05167" stroke-width="0.5" stroke="Red" fill="Red"/>
   </g>
   <g id="cell62">
  <circle cx="487.785" cy="544.37" r="8.41271" stroke-width="0.5" stroke="black" fill="Red"/>
  <circle cx="487.785" cy="544.37" r="5.05167" stroke-width="0.5" stroke="Red" fill="Red"/>
   </g>
   <g id="cell63">
  <circle cx="487.615" cy="558.547" r="8.41271" stroke-width="0.5" stroke="black" fill="Red"/>
  <circle cx="487.615" cy="558.547" r="5.05167" stroke-width="0.5" stroke="Red" fill="Red"/>
   </g>
   <g id="cell64">
  <circle cx="488.084" cy="572.614" r="8.41271" stroke-width="0.5" stroke="black" fill="Red"/>
  <circle cx="488.084" cy="572.614" r="5.05167" stroke-width="0.5" stroke="Red" fill="Red"/>
   </g>
   <g id="cell65">
  <circle cx="490.333" cy="587.26" r="8.41271" stroke-width="0.5" stroke="black" fill="Red"/>
  <circle cx="490.333" cy="587.26" r="5.05167" stroke-width="0.5" stroke="Red" fill="Red"/>
   </g>
   <g id="cell66">
  <circle cx="499.891" cy="409.898" r="8.41271" stroke-width="0.5" stroke="black" fill="blue"/>
  <circle cx="499.891" cy="409.898" r="5.05167" stroke-width="0.5" stroke="blue" fill="blue"/>
   </g>
   <g id="cell67">
  <circle cx="501.003" cy="424.603" r="8.41271" stroke-width="0.5" stroke="black" fill="yellow"/>
  <circle cx="501.003" cy="424.603" r="5.05167" stroke-width="0.5" stroke="yellow" fill="yellow"/>
   </g>
   <g id="cell68">
  <circle cx="500.534" cy="438.127" r="8.41271" stroke-width="0.5" stroke="black" fill="Red"/>
  <circle cx="500.534" cy="438.127" r="5.05167" stroke-width="0.5" stroke="Red" fill="Red"/>
   </g>
   <g id="cell69">
  <circle cx="501.558" cy="452.161" r="8.41271" stroke-width="0.5" stroke="black" fill="Red"/>
  <circle cx="501.558" cy="452.161" r="5.05167" stroke-width="0.5" stroke="Red" fill="Red"/>
   </g>
   <g id="cell70">
  <circle cx="503.145" cy="466.373" r="8.41271" stroke-width="0.5" stroke="black" fill="blue"/>
  <circle cx="503.145" cy="466.373" r="5.05167" stroke-width="0.5" stroke="blue" fill="blue"/>
   </g>
   <g id="cell71">
  <circle cx="501.688" cy="479.746" r="8.41271" stroke-width="0.5" stroke="black" fill="Red"/>
  <circle cx="501.688" cy="479.746" r="5.05167" stroke-width="0.5" stroke="Red" fill="Red"/>
   </g>
   <g id="cell72">
  <circle cx="500.461" cy="493.938" r="8.41271" stroke-width="0.5" stroke="black" fill="Red"/>
  <circle cx="500.461" cy="493.938" r="5.05167" stroke-width="0.5" stroke="Red" fill="Red"/>
   </g>
   <g id="cell73">
  <circle cx="500.92" cy="508.933" r="8.41271" stroke-width="0.5" stroke="black" fill="blue"/>
  <circle cx="500.92" cy="508.933" r="5.05167" stroke-width="0.5" stroke="blue" fill="blue"/>
   </g>
   <g id="cell74">
  <circle cx="501.39" cy="523.16" r="8.41271" stroke-width="0.5" stroke="black" fill="blue"/>
  <circle cx="501.39" cy="523.16" r="5.05167" stroke-width="0.5" stroke="blue" fill="blue"/>
   </g>
   <g id="cell75">
  <circle cx="500.956" cy="537.822" r="8.41271" stroke-width="0.5" stroke="black" fill="Red"/>
  <circle cx="500.956" cy="537.822" r="5.05167" stroke-width="0.5" stroke="Red" fill="Red"/>
   </g>
   <g id="cell76">
  <circle cx="501.181" cy="551.838" r="8.41271" stroke-width="0.5" stroke="black" fill="Red"/>
  <circle cx="501.181" cy="551.838" r="5.05167" stroke-width="0.5" stroke="Red" fill="Red"/>
   </g>
   <g id="cell77">
  <circle cx="501.048" cy="565.777" r="8.41271" stroke-width="0.5" stroke="black" fill="Red"/>
  <circle cx="501.048" cy="565.777" r="5.05167" stroke-width="0.5" stroke="Red" fill="Red"/>
   </g>
   <g id="cell78">
  <circle cx="501.128" cy="580.022" r="8.41271" stroke-width="0.5" stroke="black" fill="yellow"/>
  <circle cx="501.128" cy="580.022" r="5.05167" stroke-width="0.5" stroke="yellow" fill="yellow"/>
   </g>
   <g id="cell79">
  <circle cx="502.817" cy="594.555" r="8.41271" stroke-width="0.5" stroke="black" fill="blue"/>
  <circle cx="502.817" cy="594.555" r="5.05167" stroke-width="0.5" stroke="blue" fill="blue"/>
   </g>
   <g id="cell80">
  <circle cx="514.023" cy="415.285" r="8.41271" stroke-width="0.5" stroke="black" fill="yellow"/>
  <circle cx="514.023" cy="415.285" r="5.05167" stroke-width="0.5" stroke="yellow" fill="yellow"/>
   </g>
   <g id="cell81">
  <circle cx="515.687" cy="430.553" r="8.41271" stroke-width="0.5" stroke="black" fill="Red"/>
  <circle cx="515.687" cy="430.553" r="5.05167" stroke-width="0.5" stroke="Red" fill="Red"/>
   </g>
   <g id="cell82">
  <circle cx="514.524" cy="444.433" r="8.41271" stroke-width="0.5" stroke="black" fill="blue"/>
  <circle cx="514.524" cy="444.433" r="5.05167" stroke-width="0.5" stroke="blue" fill="blue"/>
   </g>
   <g id="cell83">
  <circle cx="518.892" cy="458.874" r="8.41271" stroke-width="0.5" stroke="black" fill="Red"/>
  <circle cx="518.892" cy="458.874" r="5.05167" stroke-width="0.5" stroke="Red" fill="Red"/>
   </g>
   <g id="cell84">
  <circle cx="515.926" cy="473.117" r="8.41271" stroke-width="0.5" stroke="black" fill="Red"/>
  <circle cx="515.926" cy="473.117" r="5.05167" stroke-width="0.5" stroke="Red" fill="Red"/>
   </g>
   <g id="cell85">
  <circle cx="514.784" cy="486.399" r="8.41271" stroke-width="0.5" stroke="black" fill="Red"/>
  <circle cx="514.784" cy="486.399" r="5.05167" stroke-width="0.5" stroke="Red" fill="Red"/>
   </g>
   <g id="cell86">
  <circle cx="515.27" cy="501.377" r="8.41271" stroke-width="0.5" stroke="black" fill="Red"/>
  <circle cx="515.27" cy="501.377" r="5.05167" stroke-width="0.5" stroke="Red" fill="Red"/>
   </g>
   <g id="cell87">
  <circle cx="516.076" cy="516.436" r="8.41271" stroke-width="0.5" stroke="black" fill="Red"/>
  <circle cx="516.076" cy="516.436" r="5.05167" stroke-width="0.5" stroke="Red" fill="Red"/>
   </g>
   <g id="cell88">
  <circle cx="515.075" cy="530.652" r="8.41271" stroke-width="0.5" stroke="black" fill="blue"/>
  <circle cx="515.075" cy="530.652" r="5.05167" stroke-width="0.5" stroke="blue" fill="blue"/>
   </g>
   <g id="cell89">
  <circle cx="515.158" cy="545.899" r="8.41271" stroke-width="0.5" stroke="black" fill="Red"/>
  <circle cx="515.158" cy="545.899" r="5.05167" stroke-width="0.5" stroke="Red" fill="Red"/>
   </g>
   <g id="cell90">
  <circle cx="514.568" cy="559.562" r="8.41271" stroke-width="0.5" stroke="black" fill="blue"/>
  <circle cx="514.568" cy="559.562" r="5.05167" stroke-width="0.5" stroke="blue" fill="blue"/>
   </g>
   <g id="cell91">
  <circle cx="514.279" cy="573.109" r="8.41271" stroke-width="0.5" stroke="black" fill="Red"/>
  <circle cx="514.279" cy="573.109" r="5.05167" stroke-width="0.5" stroke="Red" fill="Red"/>
   </g>
   <g id="cell92">
  <circle cx="513.817" cy="586.524" r="8.41271" stroke-width="0.5" stroke="black" fill="Red"/>
  <circle cx="513.817" cy="586.524" r="5.05167" stroke-width="0.5" stroke="Red" fill="Red"/>
   </g>
   <g id="cell93">
  <circle cx="528.44" cy="410.672" r="8.41271" stroke-width="0.5" stroke="black" fill="blue"/>
  <circle cx="528.44" cy="410.672" r="5.05167" stroke-width="0.5" stroke="blue" fill="blue"/>
   </g>
   <g id="cell94">
  <circle cx="528.387" cy="424.124" r="8.41271" stroke-width="0.5" stroke="black" fill="yellow"/>
  <circle cx="528.387" cy="424.124" r="5.05167" stroke-width="0.5" stroke="yellow" fill="yellow"/>
   </g>
   <g id="cell95">
  <circle cx="528.11" cy="437.358" r="8.41271" stroke-width="0.5" stroke="black" fill="Red"/>
  <circle cx="528.11" cy="437.358" r="5.05167" stroke-width="0.5" stroke="Red" fill="Red"/>
   </g>
   <g id="cell96">
  <circle cx="526.592" cy="448.29" r="6.69288" stroke-width="0.5" stroke="black" fill="Red"/>
  <circle cx="526.592" cy="448.29" r="4.02051" stroke-width="0.5" stroke="Red" fill="Red"/>
   </g>
   <g id="cell97">
  <circle cx="530.037" cy="467.618" r="8.41271" stroke-width="0.5" stroke="black" fill="Red"/>
  <circle cx="530.037" cy="467.618" r="5.05167" stroke-width="0.5" stroke="Red" fill="Red"/>
   </g>
   <g id="cell98">
  <circle cx="529.388" cy="481.537" r="8.41271" stroke-width="0.5" stroke="black" fill="Red"/>
  <circle cx="529.388" cy="481.537" r="5.05167" stroke-width="0.5" stroke="Red" fill="Red"/>
   </g>
   <g id="cell99">
  <circle cx="529.26" cy="494.019" r="8.41271" stroke-width="0.5" stroke="black" fill="Red"/>
  <circle cx="529.26" cy="494.019" r="5.05167" stroke-width="0.5" stroke="Red" fill="Red"/>
   </g>
   <g id="cell100">
  <circle cx="529.382" cy="510.045" r="8.41271" stroke-width="0.5" stroke="black" fill="Red"/>
  <circle cx="529.382" cy="510.045" r="5.05167" stroke-width="0.5" stroke="Red" fill="Red"/>
   </g>
   <g id="cell101">
  <circle cx="529.702" cy="524.921" r="8.41271" stroke-width="0.5" stroke="black" fill="Red"/>
  <circle cx="529.702" cy="524.921" r="5.05167" stroke-width="0.5" stroke="Red" fill="Red"/>
   </g>
   <g id="cell102">
  <circle cx="529.382" cy="539.106" r="8.41271" stroke-width="0.5" stroke="black" fill="Red"/>
  <circle cx="529.382" cy="539.106" r="5.05167" stroke-width="0.5" stroke="Red" fill="Red"/>
   </g>
   <g id="cell103">
  <circle cx="529.568" cy="552.457" r="8.41271" stroke-width="0.5" stroke="black" fill="Red"/>
  <circle cx="529.568" cy="552.457" r="5.05167" stroke-width="0.5" stroke="Red" fill="Red"/>
   </g>
   <g id="cell104">
  <circle cx="528.371" cy="565.851" r="8.41271" stroke-width="0.5" stroke="black" fill="Red"/>
  <circle cx="528.371" cy="565.851" r="5.05167" stroke-width="0.5" stroke="Red" fill="Red"/>
   </g>
   <g id="cell105">
  <circle cx="526.575" cy="580.417" r="8.41271" stroke-width="0.5" stroke="black" fill="blue"/>
  <circle cx="526.575" cy="580.417" r="5.05167" stroke-width="0.5" stroke="blue" fill="blue"/>
   </g>
   <g id="cell106">
  <circle cx="541.123" cy="414.933" r="8.41271" stroke-width="0.5" stroke="black" fill="yellow"/>
  <circle cx="541.123" cy="414.933" r="5.05167" stroke-width="0.5" stroke="yellow" fill="yellow"/>
   </g>
   <g id="cell107">
  <circle cx="540.933" cy="432.901" r="8.41271" stroke-width="0.5" stroke="black" fill="Red"/>
  <circle cx="540.933" cy="432.901" r="5.05167" stroke-width="0.5" stroke="Red" fill="Red"/>
   </g>
   <g id="cell108">
  <circle cx="540.382" cy="446.961" r="8.41271" stroke-width="0.5" stroke="black" fill="Red"/>
  <circle cx="540.382" cy="446.961" r="5.05167" stroke-width="0.5" stroke="Red" fill="Red"/>
   </g>
   <g id="cell109">
  <circle cx="543.629" cy="460.401" r="8.41271" stroke-width="0.5" stroke="black" fill="Red"/>
  <circle cx="543.629" cy="460.401" r="5.05167" stroke-width="0.5" stroke="Red" fill="Red"/>
   </g>
   <g id="cell110">
  <circle cx="541.999" cy="474.554" r="8.41271" stroke-width="0.5" stroke="black" fill="blue"/>
  <circle cx="541.999" cy="474.554" r="5.05167" stroke-width="0.5" stroke="blue" fill="blue"/>
   </g>
   <g id="cell111">
  <circle cx="543.727" cy="488.673" r="8.41271" stroke-width="0.5" stroke="black" fill="Red"/>
  <circle cx="543.727" cy="488.673" r="5.05167" stroke-width="0.5" stroke="Red" fill="Red"/>
   </g>
   <g id="cell112">
  <circle cx="543.69" cy="503.307" r="8.41271" stroke-width="0.5" stroke="black" fill="Red"/>
  <circle cx="543.69" cy="503.307" r="5.05167" stroke-width="0.5" stroke="Red" fill="Red"/>
   </g>
   <g id="cell113">
  <circle cx="544.081" cy="517.26" r="8.41271" stroke-width="0.5" stroke="black" fill="Red"/>
  <circle cx="544.081" cy="517.26" r="5.05167" stroke-width="0.5" stroke="Red" fill="Red"/>
   </g>
   <g id="cell114">
  <circle cx="542.613" cy="531.906" r="8.41271" stroke-width="0.5" stroke="black" fill="Red"/>
  <circle cx="542.613" cy="531.906" r="5.05167" stroke-width="0.5" stroke="Red" fill="Red"/>
   </g>
   <g id="cell115">
  <circle cx="543.843" cy="545.329" r="8.41271" stroke-width="0.5" stroke="black" fill="Red"/>
  <circle cx="543.843" cy="545.329" r="5.05167" stroke-width="0.5" stroke="Red" fill="Red"/>
   </g>
   <g id="cell116">
  <circle cx="541.874" cy="559.423" r="8.41271" stroke-width="0.5" stroke="black" fill="Red"/>
  <circle cx="541.874" cy="559.423" r="5.05167" stroke-width="0.5" stroke="Red" fill="Red"/>
   </g>
   <g id="cell117">
  <circle cx="540.401" cy="574.507" r="8.41271" stroke-width="0.5" stroke="black" fill="blue"/>
  <circle cx="540.401" cy="574.507" r="5.05167" stroke-width="0.5" stroke="blue" fill="blue"/>
   </g>
   <g id="cell118">
  <circle cx="551.011" cy="424.852" r="8.41271" stroke-width="0.5" stroke="black" fill="blue"/>
  <circle cx="551.011" cy="424.852" r="5.05167" stroke-width="0.5" stroke="blue" fill="blue"/>
   </g>
   <g id="cell119">
  <circle cx="554.247" cy="438.547" r="8.41271" stroke-width="0.5" stroke="black" fill="yellow"/>
  <circle cx="554.247" cy="438.547" r="5.05167" stroke-width="0.5" stroke="yellow" fill="yellow"/>
   </g>
   <g id="cell120">
  <circle cx="554.92" cy="452.954" r="8.41271" stroke-width="0.5" stroke="black" fill="yellow"/>
  <circle cx="554.92" cy="452.954" r="5.05167" stroke-width="0.5" stroke="yellow" fill="yellow"/>
   </g>
   <g id="cell121">
  <circle cx="555.34" cy="466.741" r="8.41271" stroke-width="0.5" stroke="black" fill="blue"/>
  <circle cx="555.34" cy="466.741" r="5.05167" stroke-width="0.5" stroke="blue" fill="blue"/>
   </g>
   <g id="cell122">
  <circle cx="556.222" cy="482.001" r="8.41271" stroke-width="0.5" stroke="black" fill="Red"/>
  <circle cx="556.222" cy="482.001" r="5.05167" stroke-width="0.5" stroke="Red" fill="Red"/>
   </g>
   <g id="cell123">
  <circle cx="557.411" cy="497.045" r="8.41271" stroke-width="0.5" stroke="black" fill="Red"/>
  <circle cx="557.411" cy="497.045" r="5.05167" stroke-width="0.5" stroke="Red" fill="Red"/>
   </g>
   <g id="cell124">
  <circle cx="557.844" cy="511.25" r="8.41271" stroke-width="0.5" stroke="black" fill="blue"/>
  <circle cx="557.844" cy="511.25" r="5.05167" stroke-width="0.5" stroke="blue" fill="blue"/>
   </g>
   <g id="cell125">
  <circle cx="556.437" cy="525.031" r="8.41271" stroke-width="0.5" stroke="black" fill="Red"/>
  <circle cx="556.437" cy="525.031" r="5.05167" stroke-width="0.5" stroke="Red" fill="Red"/>
   </g>
   <g id="cell126">
  <circle cx="557.701" cy="539.297" r="8.41271" stroke-width="0.5" stroke="black" fill="blue"/>
  <circle cx="557.701" cy="539.297" r="5.05167" stroke-width="0.5" stroke="blue" fill="blue"/>
   </g>
   <g id="cell127">
  <circle cx="556.498" cy="552.933" r="8.41271" stroke-width="0.5" stroke="black" fill="Red"/>
  <circle cx="556.498" cy="552.933" r="5.05167" stroke-width="0.5" stroke="Red" fill="Red"/>
   </g>
   <g id="cell128">
  <circle cx="554.376" cy="566.949" r="8.41271" stroke-width="0.5" stroke="black" fill="yellow"/>
  <circle cx="554.376" cy="566.949" r="5.05167" stroke-width="0.5" stroke="yellow" fill="yellow"/>
   </g>
   <g id="cell129">
  <circle cx="566.301" cy="444.746" r="8.41271" stroke-width="0.5" stroke="black" fill="blue"/>
  <circle cx="566.301" cy="444.746" r="5.05167" stroke-width="0.5" stroke="blue" fill="blue"/>
   </g>
   <g id="cell130">
  <circle cx="569.967" cy="458.672" r="8.41271" stroke-width="0.5" stroke="black" fill="yellow"/>
  <circle cx="569.967" cy="458.672" r="5.05167" stroke-width="0.5" stroke="yellow" fill="yellow"/>
   </g>
   <g id="cell131">
  <circle cx="569.964" cy="473.202" r="8.41271" stroke-width="0.5" stroke="black" fill="yellow"/>
  <circle cx="569.964" cy="473.202" r="5.05167" stroke-width="0.5" stroke="yellow" fill="yellow"/>
   </g>
   <g id="cell132">
  <circle cx="569.553" cy="487.658" r="8.41271" stroke-width="0.5" stroke="black" fill="Red"/>
  <circle cx="569.553" cy="487.658" r="5.05167" stroke-width="0.5" stroke="Red" fill="Red"/>
   </g>
   <g id="cell133">
  <circle cx="570.985" cy="502.296" r="8.41271" stroke-width="0.5" stroke="black" fill="Red"/>
  <circle cx="570.985" cy="502.296" r="5.05167" stroke-width="0.5" stroke="Red" fill="Red"/>
   </g>
   <g id="cell134">
  <circle cx="569.737" cy="516.487" r="8.41271" stroke-width="0.5" stroke="black" fill="Red"/>
  <circle cx="569.737" cy="516.487" r="5.05167" stroke-width="0.5" stroke="Red" fill="Red"/>
   </g>
   <g id="cell135">
  <circle cx="569.575" cy="531.627" r="8.41271" stroke-width="0.5" stroke="black" fill="yellow"/>
  <circle cx="569.575" cy="531.627" r="5.05167" stroke-width="0.5" stroke="yellow" fill="yellow"/>
   </g>
   <g id="cell136">
  <circle cx="570.464" cy="546.515" r="8.41271" stroke-width="0.5" stroke="black" fill="yellow"/>
  <circle cx="570.464" cy="546.515" r="5.05167" stroke-width="0.5" stroke="yellow" fill="yellow"/>
   </g>
   <g id="cell137">
  <circle cx="568.741" cy="560.484" r="8.41271" stroke-width="0.5" stroke="black" fill="blue"/>
  <circle cx="568.741" cy="560.484" r="5.05167" stroke-width="0.5" stroke="blue" fill="blue"/>
   </g>
   <g id="cell138">
  <circle cx="582.925" cy="464.134" r="8.41271" stroke-width="0.5" stroke="black" fill="blue"/>
  <circle cx="582.925" cy="464.134" r="5.05167" stroke-width="0.5" stroke="blue" fill="blue"/>
   </g>
   <g id="cell139">
  <circle cx="583.38" cy="479.47" r="8.41271" stroke-width="0.5" stroke="black" fill="yellow"/>
  <circle cx="583.38" cy="479.47" r="5.05167" stroke-width="0.5" stroke="yellow" fill="yellow"/>
   </g>
   <g id="cell140">
  <circle cx="581.208" cy="492.963" r="6.71158" stroke-width="0.5" stroke="black" fill="Red"/>
  <circle cx="581.208" cy="492.963" r="4.03435" stroke-width="0.5" stroke="Red" fill="Red"/>
   </g>
   <g id="cell141">
  <circle cx="582.912" cy="510.397" r="8.41271" stroke-width="0.5" stroke="black" fill="Red"/>
  <circle cx="582.912" cy="510.397" r="5.05167" stroke-width="0.5" stroke="Red" fill="Red"/>
   </g>
   <g id="cell142">
  <circle cx="581.895" cy="524.959" r="8.41271" stroke-width="0.5" stroke="black" fill="yellow"/>
  <circle cx="581.895" cy="524.959" r="5.05167" stroke-width="0.5" stroke="yellow" fill="yellow"/>
   </g>
   <g id="cell143">
  <circle cx="581.41" cy="538.909" r="8.41271" stroke-width="0.5" stroke="black" fill="blue"/>
  <circle cx="581.41" cy="538.909" r="5.05167" stroke-width="0.5" stroke="blue" fill="blue"/>
   </g>
   <g id="cell144">
  <circle cx="439.024" cy="438.765" r="6.71158" stroke-width="0.5" stroke="black" fill="Red"/>
  <circle cx="439.024" cy="438.765" r="4.03435" stroke-width="0.5" stroke="Red" fill="Red"/>
   </g>
   <g id="cell145">
  <circle cx="589.094" cy="500.396" r="6.71158" stroke-width="0.5" stroke="black" fill="blue"/>
  <circle cx="589.094" cy="500.396" r="4.03435" stroke-width="0.5" stroke="blue" fill="blue"/>
   </g>
   <g id="cell146">
  <circle cx="475.74" cy="511.976" r="6.69288" stroke-width="0.5" stroke="black" fill="blue"/>
  <circle cx="475.74" cy="511.976" r="4.02051" stroke-width="0.5" stroke="blue" fill="blue"/>
   </g>
   <g id="cell147">
  <circle cx="533" cy="456.501" r="6.69288" stroke-width="0.5" stroke="black" fill="blue"/>
  <circle cx="533" cy="456.501" r="4.02051" stroke-width="0.5" stroke="blue" fill="blue"/>
   </g>
  </g>
 </g>
  <rect x="775" y="1035" width="200" height="10" stroke-width="2" stroke="rgb(255,255,255)" fill="rgb(0,0,0)"/>
  <text x="781.25" y="1028.75"
   font-family="Arial" font-size="25" fill="black" >
   200 &#956;m
  </text>
  <text x="25" y="1045"
   font-family="Arial" font-size="18.75" fill="black" >
   0 days, 0 hours, 0 minutes, and 8.6493 seconds
  </text>
  <rect x="0" y="70" width="1000" height="1000" stroke-width="2" stroke="rgb(0,0,0)" fill="none"/>
</svg>
