<?xml version="1.0" encoding="UTF-8" standalone="no"?>
<!-- Created with PhysiCell (http://PhysiCell.MathCancer.org/) -->
<svg 
 xmlns:dc="http://purl.org/dc/elements/1.1/" 
 xmlns:cc="http://creativecommons.org/ns#" 
 xmlns:rdf="http://www.w3.org/1999/02/22-rdf-syntax-ns#" 
 xmlns:svg="http://www.w3.org/2000/svg" 
 xmlns="http://www.w3.org/2000/svg" 
 version="1.1" 
 width="1000" 
 height="1070" 
 id="svg2">
  <rect x="0" y="0" width="1000" height="1070" stroke-width="2" stroke="white" fill="white"/>
  <text x="12.5" y="30"
   font-family="Arial" font-size="25" fill="black" >
   Current time: 0 days, 0 hours, and 10.00 minutes, z = 0.00 &#956;m
  </text>
  <text x="12.5" y="57.5"
   font-family="Arial" font-size="23.75" fill="black" >
   144 agents
  </text>
 <g id="tissue" 
    transform="translate(0,1070) scale(1,-1)">
  <g id="ECM">
  </g>
  <g id="cells">
   <g id="cell0">
  <circle cx="421.242" cy="452.223" r="8.41271" stroke-width="0.5" stroke="black" fill="blue"/>
  <circle cx="421.242" cy="452.223" r="5.05167" stroke-width="0.5" stroke="blue" fill="blue"/>
   </g>
   <g id="cell1">
  <circle cx="419.231" cy="466.459" r="8.41271" stroke-width="0.5" stroke="black" fill="Red"/>
  <circle cx="419.231" cy="466.459" r="5.05167" stroke-width="0.5" stroke="Red" fill="Red"/>
   </g>
   <g id="cell2">
  <circle cx="417.645" cy="480.281" r="8.41271" stroke-width="0.5" stroke="black" fill="blue"/>
  <circle cx="417.645" cy="480.281" r="5.05167" stroke-width="0.5" stroke="blue" fill="blue"/>
   </g>
   <g id="cell3">
  <circle cx="419.487" cy="494.808" r="8.41271" stroke-width="0.5" stroke="black" fill="blue"/>
  <circle cx="419.487" cy="494.808" r="5.05167" stroke-width="0.5" stroke="blue" fill="blue"/>
   </g>
   <g id="cell4">
  <circle cx="418.455" cy="509.337" r="8.41271" stroke-width="0.5" stroke="black" fill="blue"/>
  <circle cx="418.455" cy="509.337" r="5.05167" stroke-width="0.5" stroke="blue" fill="blue"/>
   </g>
   <g id="cell5">
  <circle cx="418.638" cy="523.768" r="8.41271" stroke-width="0.5" stroke="black" fill="Red"/>
  <circle cx="418.638" cy="523.768" r="5.05167" stroke-width="0.5" stroke="Red" fill="Red"/>
   </g>
   <g id="cell6">
  <circle cx="419.37" cy="539.722" r="8.41271" stroke-width="0.5" stroke="black" fill="blue"/>
  <circle cx="419.37" cy="539.722" r="5.05167" stroke-width="0.5" stroke="blue" fill="blue"/>
   </g>
   <g id="cell7">
  <circle cx="433.062" cy="445.2" r="8.41271" stroke-width="0.5" stroke="black" fill="Red"/>
  <circle cx="433.062" cy="445.2" r="5.05167" stroke-width="0.5" stroke="Red" fill="Red"/>
   </g>
   <g id="cell8">
  <circle cx="432.333" cy="460.197" r="8.41271" stroke-width="0.5" stroke="black" fill="Red"/>
  <circle cx="432.333" cy="460.197" r="5.05167" stroke-width="0.5" stroke="Red" fill="Red"/>
   </g>
   <g id="cell9">
  <circle cx="430.658" cy="474.188" r="8.41271" stroke-width="0.5" stroke="black" fill="Red"/>
  <circle cx="430.658" cy="474.188" r="5.05167" stroke-width="0.5" stroke="Red" fill="Red"/>
   </g>
   <g id="cell10">
  <circle cx="430.879" cy="487.803" r="8.41271" stroke-width="0.5" stroke="black" fill="Red"/>
  <circle cx="430.879" cy="487.803" r="5.05167" stroke-width="0.5" stroke="Red" fill="Red"/>
   </g>
   <g id="cell11">
  <circle cx="432.193" cy="502.132" r="8.41271" stroke-width="0.5" stroke="black" fill="Red"/>
  <circle cx="432.193" cy="502.132" r="5.05167" stroke-width="0.5" stroke="Red" fill="Red"/>
   </g>
   <g id="cell12">
  <circle cx="430.576" cy="517.178" r="8.41271" stroke-width="0.5" stroke="black" fill="Red"/>
  <circle cx="430.576" cy="517.178" r="5.05167" stroke-width="0.5" stroke="Red" fill="Red"/>
   </g>
   <g id="cell13">
  <circle cx="429.789" cy="530.675" r="8.41271" stroke-width="0.5" stroke="black" fill="Red"/>
  <circle cx="429.789" cy="530.675" r="5.05167" stroke-width="0.5" stroke="Red" fill="Red"/>
   </g>
   <g id="cell14">
  <circle cx="432.793" cy="544.52" r="8.41271" stroke-width="0.5" stroke="black" fill="Red"/>
  <circle cx="432.793" cy="544.52" r="5.05167" stroke-width="0.5" stroke="Red" fill="Red"/>
   </g>
   <g id="cell15">
  <circle cx="431.904" cy="558.998" r="8.41271" stroke-width="0.5" stroke="black" fill="blue"/>
  <circle cx="431.904" cy="558.998" r="5.05167" stroke-width="0.5" stroke="blue" fill="blue"/>
   </g>
   <g id="cell16">
  <circle cx="446.193" cy="423.067" r="8.41271" stroke-width="0.5" stroke="black" fill="blue"/>
  <circle cx="446.193" cy="423.067" r="5.05167" stroke-width="0.5" stroke="blue" fill="blue"/>
   </g>
   <g id="cell17">
  <circle cx="446.687" cy="437.544" r="8.41271" stroke-width="0.5" stroke="black" fill="Red"/>
  <circle cx="446.687" cy="437.544" r="5.05167" stroke-width="0.5" stroke="Red" fill="Red"/>
   </g>
   <g id="cell18">
  <circle cx="444.193" cy="452.534" r="8.41271" stroke-width="0.5" stroke="black" fill="blue"/>
  <circle cx="444.193" cy="452.534" r="5.05167" stroke-width="0.5" stroke="blue" fill="blue"/>
   </g>
   <g id="cell19">
  <circle cx="444.617" cy="467.98" r="8.41271" stroke-width="0.5" stroke="black" fill="blue"/>
  <circle cx="444.617" cy="467.98" r="5.05167" stroke-width="0.5" stroke="blue" fill="blue"/>
   </g>
   <g id="cell20">
  <circle cx="443.894" cy="481.112" r="8.41271" stroke-width="0.5" stroke="black" fill="Red"/>
  <circle cx="443.894" cy="481.112" r="5.05167" stroke-width="0.5" stroke="Red" fill="Red"/>
   </g>
   <g id="cell21">
  <circle cx="444.029" cy="495.15" r="8.41271" stroke-width="0.5" stroke="black" fill="Red"/>
  <circle cx="444.029" cy="495.15" r="5.05167" stroke-width="0.5" stroke="Red" fill="Red"/>
   </g>
   <g id="cell22">
  <circle cx="444.987" cy="511.008" r="8.41271" stroke-width="0.5" stroke="black" fill="blue"/>
  <circle cx="444.987" cy="511.008" r="5.05167" stroke-width="0.5" stroke="blue" fill="blue"/>
   </g>
   <g id="cell23">
  <circle cx="443.357" cy="524.857" r="8.41271" stroke-width="0.5" stroke="black" fill="Red"/>
  <circle cx="443.357" cy="524.857" r="5.05167" stroke-width="0.5" stroke="Red" fill="Red"/>
   </g>
   <g id="cell24">
  <circle cx="444.977" cy="539.245" r="8.41271" stroke-width="0.5" stroke="black" fill="Red"/>
  <circle cx="444.977" cy="539.245" r="5.05167" stroke-width="0.5" stroke="Red" fill="Red"/>
   </g>
   <g id="cell25">
  <circle cx="445.649" cy="553.524" r="8.41271" stroke-width="0.5" stroke="black" fill="Red"/>
  <circle cx="445.649" cy="553.524" r="5.05167" stroke-width="0.5" stroke="Red" fill="Red"/>
   </g>
   <g id="cell26">
  <circle cx="445.418" cy="567.039" r="8.41271" stroke-width="0.5" stroke="black" fill="Red"/>
  <circle cx="445.418" cy="567.039" r="5.05167" stroke-width="0.5" stroke="Red" fill="Red"/>
   </g>
   <g id="cell27">
  <circle cx="459.69" cy="416.711" r="8.41271" stroke-width="0.5" stroke="black" fill="yellow"/>
  <circle cx="459.69" cy="416.711" r="5.05167" stroke-width="0.5" stroke="yellow" fill="yellow"/>
   </g>
   <g id="cell28">
  <circle cx="459.513" cy="430.162" r="8.41271" stroke-width="0.5" stroke="black" fill="Red"/>
  <circle cx="459.513" cy="430.162" r="5.05167" stroke-width="0.5" stroke="Red" fill="Red"/>
   </g>
   <g id="cell29">
  <circle cx="459.351" cy="444.774" r="8.41271" stroke-width="0.5" stroke="black" fill="Red"/>
  <circle cx="459.351" cy="444.774" r="5.05167" stroke-width="0.5" stroke="Red" fill="Red"/>
   </g>
   <g id="cell30">
  <circle cx="459.976" cy="458.708" r="8.41271" stroke-width="0.5" stroke="black" fill="Red"/>
  <circle cx="459.976" cy="458.708" r="5.05167" stroke-width="0.5" stroke="Red" fill="Red"/>
   </g>
   <g id="cell31">
  <circle cx="458.601" cy="472.748" r="8.41271" stroke-width="0.5" stroke="black" fill="Red"/>
  <circle cx="458.601" cy="472.748" r="5.05167" stroke-width="0.5" stroke="Red" fill="Red"/>
   </g>
   <g id="cell32">
  <circle cx="458.391" cy="488.094" r="8.41271" stroke-width="0.5" stroke="black" fill="Red"/>
  <circle cx="458.391" cy="488.094" r="5.05167" stroke-width="0.5" stroke="Red" fill="Red"/>
   </g>
   <g id="cell33">
  <circle cx="457.378" cy="502.175" r="8.41271" stroke-width="0.5" stroke="black" fill="blue"/>
  <circle cx="457.378" cy="502.175" r="5.05167" stroke-width="0.5" stroke="blue" fill="blue"/>
   </g>
   <g id="cell34">
  <circle cx="458.866" cy="516.963" r="8.41271" stroke-width="0.5" stroke="black" fill="Red"/>
  <circle cx="458.866" cy="516.963" r="5.05167" stroke-width="0.5" stroke="Red" fill="Red"/>
   </g>
   <g id="cell35">
  <circle cx="458.595" cy="531.358" r="8.41271" stroke-width="0.5" stroke="black" fill="Red"/>
  <circle cx="458.595" cy="531.358" r="5.05167" stroke-width="0.5" stroke="Red" fill="Red"/>
   </g>
   <g id="cell36">
  <circle cx="458.808" cy="545.943" r="8.41271" stroke-width="0.5" stroke="black" fill="blue"/>
  <circle cx="458.808" cy="545.943" r="5.05167" stroke-width="0.5" stroke="blue" fill="blue"/>
   </g>
   <g id="cell37">
  <circle cx="458.237" cy="560.175" r="8.41271" stroke-width="0.5" stroke="black" fill="Red"/>
  <circle cx="458.237" cy="560.175" r="5.05167" stroke-width="0.5" stroke="Red" fill="Red"/>
   </g>
   <g id="cell38">
  <circle cx="459.469" cy="574.387" r="8.41271" stroke-width="0.5" stroke="black" fill="yellow"/>
  <circle cx="459.469" cy="574.387" r="5.05167" stroke-width="0.5" stroke="yellow" fill="yellow"/>
   </g>
   <g id="cell39">
  <circle cx="459.514" cy="588.16" r="8.41271" stroke-width="0.5" stroke="black" fill="blue"/>
  <circle cx="459.514" cy="588.16" r="5.05167" stroke-width="0.5" stroke="blue" fill="blue"/>
   </g>
   <g id="cell40">
  <circle cx="473.225" cy="410.003" r="8.41271" stroke-width="0.5" stroke="black" fill="blue"/>
  <circle cx="473.225" cy="410.003" r="5.05167" stroke-width="0.5" stroke="blue" fill="blue"/>
   </g>
   <g id="cell41">
  <circle cx="473.33" cy="422.903" r="8.41271" stroke-width="0.5" stroke="black" fill="Red"/>
  <circle cx="473.33" cy="422.903" r="5.05167" stroke-width="0.5" stroke="Red" fill="Red"/>
   </g>
   <g id="cell42">
  <circle cx="472.713" cy="436.539" r="8.41271" stroke-width="0.5" stroke="black" fill="Red"/>
  <circle cx="472.713" cy="436.539" r="5.05167" stroke-width="0.5" stroke="Red" fill="Red"/>
   </g>
   <g id="cell43">
  <circle cx="474.511" cy="450.557" r="8.41271" stroke-width="0.5" stroke="black" fill="Red"/>
  <circle cx="474.511" cy="450.557" r="5.05167" stroke-width="0.5" stroke="Red" fill="Red"/>
   </g>
   <g id="cell44">
  <circle cx="474.881" cy="464.567" r="8.41271" stroke-width="0.5" stroke="black" fill="blue"/>
  <circle cx="474.881" cy="464.567" r="5.05167" stroke-width="0.5" stroke="blue" fill="blue"/>
   </g>
   <g id="cell45">
  <circle cx="472.259" cy="479.538" r="8.41271" stroke-width="0.5" stroke="black" fill="Red"/>
  <circle cx="472.259" cy="479.538" r="5.05167" stroke-width="0.5" stroke="Red" fill="Red"/>
   </g>
   <g id="cell46">
  <circle cx="472.675" cy="494.896" r="8.41271" stroke-width="0.5" stroke="black" fill="Red"/>
  <circle cx="472.675" cy="494.896" r="5.05167" stroke-width="0.5" stroke="Red" fill="Red"/>
   </g>
   <g id="cell47">
  <circle cx="473.327" cy="510.348" r="8.41271" stroke-width="0.5" stroke="black" fill="Red"/>
  <circle cx="473.327" cy="510.348" r="5.05167" stroke-width="0.5" stroke="Red" fill="Red"/>
   </g>
   <g id="cell48">
  <circle cx="475.21" cy="523.891" r="8.41271" stroke-width="0.5" stroke="black" fill="Red"/>
  <circle cx="475.21" cy="523.891" r="5.05167" stroke-width="0.5" stroke="Red" fill="Red"/>
   </g>
   <g id="cell49">
  <circle cx="473.138" cy="538.859" r="8.41271" stroke-width="0.5" stroke="black" fill="Red"/>
  <circle cx="473.138" cy="538.859" r="5.05167" stroke-width="0.5" stroke="Red" fill="Red"/>
   </g>
   <g id="cell50">
  <circle cx="473.497" cy="553.693" r="8.41271" stroke-width="0.5" stroke="black" fill="Red"/>
  <circle cx="473.497" cy="553.693" r="5.05167" stroke-width="0.5" stroke="Red" fill="Red"/>
   </g>
   <g id="cell51">
  <circle cx="470.662" cy="567.447" r="8.41271" stroke-width="0.5" stroke="black" fill="blue"/>
  <circle cx="470.662" cy="567.447" r="5.05167" stroke-width="0.5" stroke="blue" fill="blue"/>
   </g>
   <g id="cell52">
  <circle cx="472.852" cy="581.523" r="8.41271" stroke-width="0.5" stroke="black" fill="Red"/>
  <circle cx="472.852" cy="581.523" r="5.05167" stroke-width="0.5" stroke="Red" fill="Red"/>
   </g>
   <g id="cell53">
  <circle cx="486.641" cy="415.554" r="8.41271" stroke-width="0.5" stroke="black" fill="Red"/>
  <circle cx="486.641" cy="415.554" r="5.05167" stroke-width="0.5" stroke="Red" fill="Red"/>
   </g>
   <g id="cell54">
  <circle cx="486.118" cy="430.617" r="8.41271" stroke-width="0.5" stroke="black" fill="Red"/>
  <circle cx="486.118" cy="430.617" r="5.05167" stroke-width="0.5" stroke="Red" fill="Red"/>
   </g>
   <g id="cell55">
  <circle cx="489.783" cy="444.491" r="8.41271" stroke-width="0.5" stroke="black" fill="Red"/>
  <circle cx="489.783" cy="444.491" r="5.05167" stroke-width="0.5" stroke="Red" fill="Red"/>
   </g>
   <g id="cell56">
  <circle cx="488.216" cy="458.925" r="8.41271" stroke-width="0.5" stroke="black" fill="Red"/>
  <circle cx="488.216" cy="458.925" r="5.05167" stroke-width="0.5" stroke="Red" fill="Red"/>
   </g>
   <g id="cell57">
  <circle cx="487.103" cy="473.648" r="8.41271" stroke-width="0.5" stroke="black" fill="Red"/>
  <circle cx="487.103" cy="473.648" r="5.05167" stroke-width="0.5" stroke="Red" fill="Red"/>
   </g>
   <g id="cell58">
  <circle cx="486.008" cy="487.643" r="8.41271" stroke-width="0.5" stroke="black" fill="blue"/>
  <circle cx="486.008" cy="487.643" r="5.05167" stroke-width="0.5" stroke="blue" fill="blue"/>
   </g>
   <g id="cell59">
  <circle cx="486.646" cy="501.967" r="8.41271" stroke-width="0.5" stroke="black" fill="Red"/>
  <circle cx="486.646" cy="501.967" r="5.05167" stroke-width="0.5" stroke="Red" fill="Red"/>
   </g>
   <g id="cell60">
  <circle cx="487.392" cy="516.772" r="8.41271" stroke-width="0.5" stroke="black" fill="Red"/>
  <circle cx="487.392" cy="516.772" r="5.05167" stroke-width="0.5" stroke="Red" fill="Red"/>
   </g>
   <g id="cell61">
  <circle cx="488.059" cy="532.632" r="8.41271" stroke-width="0.5" stroke="black" fill="blue"/>
  <circle cx="488.059" cy="532.632" r="5.05167" stroke-width="0.5" stroke="blue" fill="blue"/>
   </g>
   <g id="cell62">
  <circle cx="486.042" cy="546.399" r="8.41271" stroke-width="0.5" stroke="black" fill="Red"/>
  <circle cx="486.042" cy="546.399" r="5.05167" stroke-width="0.5" stroke="Red" fill="Red"/>
   </g>
   <g id="cell63">
  <circle cx="487.395" cy="560.123" r="8.41271" stroke-width="0.5" stroke="black" fill="Red"/>
  <circle cx="487.395" cy="560.123" r="5.05167" stroke-width="0.5" stroke="Red" fill="Red"/>
   </g>
   <g id="cell64">
  <circle cx="486.517" cy="574.451" r="8.41271" stroke-width="0.5" stroke="black" fill="Red"/>
  <circle cx="486.517" cy="574.451" r="5.05167" stroke-width="0.5" stroke="Red" fill="Red"/>
   </g>
   <g id="cell65">
  <circle cx="488.052" cy="588.686" r="8.41271" stroke-width="0.5" stroke="black" fill="Red"/>
  <circle cx="488.052" cy="588.686" r="5.05167" stroke-width="0.5" stroke="Red" fill="Red"/>
   </g>
   <g id="cell66">
  <circle cx="501.974" cy="408.64" r="8.41271" stroke-width="0.5" stroke="black" fill="blue"/>
  <circle cx="501.974" cy="408.64" r="5.05167" stroke-width="0.5" stroke="blue" fill="blue"/>
   </g>
   <g id="cell67">
  <circle cx="499.396" cy="421.58" r="8.41271" stroke-width="0.5" stroke="black" fill="Red"/>
  <circle cx="499.396" cy="421.58" r="5.05167" stroke-width="0.5" stroke="Red" fill="Red"/>
   </g>
   <g id="cell68">
  <circle cx="501.624" cy="436.269" r="8.41271" stroke-width="0.5" stroke="black" fill="Red"/>
  <circle cx="501.624" cy="436.269" r="5.05167" stroke-width="0.5" stroke="Red" fill="Red"/>
   </g>
   <g id="cell69">
  <circle cx="502.298" cy="452.218" r="8.41271" stroke-width="0.5" stroke="black" fill="Red"/>
  <circle cx="502.298" cy="452.218" r="5.05167" stroke-width="0.5" stroke="Red" fill="Red"/>
   </g>
   <g id="cell70">
  <circle cx="502.427" cy="467.038" r="8.41271" stroke-width="0.5" stroke="black" fill="blue"/>
  <circle cx="502.427" cy="467.038" r="5.05167" stroke-width="0.5" stroke="blue" fill="blue"/>
   </g>
   <g id="cell71">
  <circle cx="501.655" cy="481.137" r="8.41271" stroke-width="0.5" stroke="black" fill="Red"/>
  <circle cx="501.655" cy="481.137" r="5.05167" stroke-width="0.5" stroke="Red" fill="Red"/>
   </g>
   <g id="cell72">
  <circle cx="500.231" cy="495.232" r="8.41271" stroke-width="0.5" stroke="black" fill="Red"/>
  <circle cx="500.231" cy="495.232" r="5.05167" stroke-width="0.5" stroke="Red" fill="Red"/>
   </g>
   <g id="cell73">
  <circle cx="498.919" cy="509.242" r="8.41271" stroke-width="0.5" stroke="black" fill="blue"/>
  <circle cx="498.919" cy="509.242" r="5.05167" stroke-width="0.5" stroke="blue" fill="blue"/>
   </g>
   <g id="cell74">
  <circle cx="501.94" cy="523.794" r="8.41271" stroke-width="0.5" stroke="black" fill="Red"/>
  <circle cx="501.94" cy="523.794" r="5.05167" stroke-width="0.5" stroke="Red" fill="Red"/>
   </g>
   <g id="cell75">
  <circle cx="501.226" cy="537.881" r="8.41271" stroke-width="0.5" stroke="black" fill="Red"/>
  <circle cx="501.226" cy="537.881" r="5.05167" stroke-width="0.5" stroke="Red" fill="Red"/>
   </g>
   <g id="cell76">
  <circle cx="501.293" cy="551.164" r="8.41271" stroke-width="0.5" stroke="black" fill="Red"/>
  <circle cx="501.293" cy="551.164" r="5.05167" stroke-width="0.5" stroke="Red" fill="Red"/>
   </g>
   <g id="cell77">
  <circle cx="500.532" cy="567.257" r="8.41271" stroke-width="0.5" stroke="black" fill="Red"/>
  <circle cx="500.532" cy="567.257" r="5.05167" stroke-width="0.5" stroke="Red" fill="Red"/>
   </g>
   <g id="cell78">
  <circle cx="499.501" cy="581.231" r="8.41271" stroke-width="0.5" stroke="black" fill="Red"/>
  <circle cx="499.501" cy="581.231" r="5.05167" stroke-width="0.5" stroke="Red" fill="Red"/>
   </g>
   <g id="cell79">
  <circle cx="502.698" cy="595.491" r="8.41271" stroke-width="0.5" stroke="black" fill="blue"/>
  <circle cx="502.698" cy="595.491" r="5.05167" stroke-width="0.5" stroke="blue" fill="blue"/>
   </g>
   <g id="cell80">
  <circle cx="515.538" cy="414.951" r="8.41271" stroke-width="0.5" stroke="black" fill="Red"/>
  <circle cx="515.538" cy="414.951" r="5.05167" stroke-width="0.5" stroke="Red" fill="Red"/>
   </g>
   <g id="cell81">
  <circle cx="516.826" cy="429.061" r="8.41271" stroke-width="0.5" stroke="black" fill="Red"/>
  <circle cx="516.826" cy="429.061" r="5.05167" stroke-width="0.5" stroke="Red" fill="Red"/>
   </g>
   <g id="cell82">
  <circle cx="515.405" cy="443.946" r="8.41271" stroke-width="0.5" stroke="black" fill="blue"/>
  <circle cx="515.405" cy="443.946" r="5.05167" stroke-width="0.5" stroke="blue" fill="blue"/>
   </g>
   <g id="cell83">
  <circle cx="516.781" cy="459.268" r="8.41271" stroke-width="0.5" stroke="black" fill="Red"/>
  <circle cx="516.781" cy="459.268" r="5.05167" stroke-width="0.5" stroke="Red" fill="Red"/>
   </g>
   <g id="cell84">
  <circle cx="516.537" cy="473.348" r="8.41271" stroke-width="0.5" stroke="black" fill="Red"/>
  <circle cx="516.537" cy="473.348" r="5.05167" stroke-width="0.5" stroke="Red" fill="Red"/>
   </g>
   <g id="cell85">
  <circle cx="514.723" cy="487.923" r="8.41271" stroke-width="0.5" stroke="black" fill="Red"/>
  <circle cx="514.723" cy="487.923" r="5.05167" stroke-width="0.5" stroke="Red" fill="Red"/>
   </g>
   <g id="cell86">
  <circle cx="512.416" cy="502.233" r="8.41271" stroke-width="0.5" stroke="black" fill="Red"/>
  <circle cx="512.416" cy="502.233" r="5.05167" stroke-width="0.5" stroke="Red" fill="Red"/>
   </g>
   <g id="cell87">
  <circle cx="515.095" cy="516.522" r="8.41271" stroke-width="0.5" stroke="black" fill="Red"/>
  <circle cx="515.095" cy="516.522" r="5.05167" stroke-width="0.5" stroke="Red" fill="Red"/>
   </g>
   <g id="cell88">
  <circle cx="516.266" cy="531.419" r="8.41271" stroke-width="0.5" stroke="black" fill="blue"/>
  <circle cx="516.266" cy="531.419" r="5.05167" stroke-width="0.5" stroke="blue" fill="blue"/>
   </g>
   <g id="cell89">
  <circle cx="515.015" cy="544.881" r="8.41271" stroke-width="0.5" stroke="black" fill="Red"/>
  <circle cx="515.015" cy="544.881" r="5.05167" stroke-width="0.5" stroke="Red" fill="Red"/>
   </g>
   <g id="cell90">
  <circle cx="514.367" cy="560.539" r="8.41271" stroke-width="0.5" stroke="black" fill="blue"/>
  <circle cx="514.367" cy="560.539" r="5.05167" stroke-width="0.5" stroke="blue" fill="blue"/>
   </g>
   <g id="cell91">
  <circle cx="514.752" cy="574.701" r="8.41271" stroke-width="0.5" stroke="black" fill="Red"/>
  <circle cx="514.752" cy="574.701" r="5.05167" stroke-width="0.5" stroke="Red" fill="Red"/>
   </g>
   <g id="cell92">
  <circle cx="515.463" cy="588.328" r="8.41271" stroke-width="0.5" stroke="black" fill="Red"/>
  <circle cx="515.463" cy="588.328" r="5.05167" stroke-width="0.5" stroke="Red" fill="Red"/>
   </g>
   <g id="cell93">
  <circle cx="529.311" cy="413.276" r="8.41271" stroke-width="0.5" stroke="black" fill="blue"/>
  <circle cx="529.311" cy="413.276" r="5.05167" stroke-width="0.5" stroke="blue" fill="blue"/>
   </g>
   <g id="cell94">
  <circle cx="530.447" cy="425.171" r="8.41271" stroke-width="0.5" stroke="black" fill="Red"/>
  <circle cx="530.447" cy="425.171" r="5.05167" stroke-width="0.5" stroke="Red" fill="Red"/>
   </g>
   <g id="cell95">
  <circle cx="529.079" cy="437.725" r="8.41271" stroke-width="0.5" stroke="black" fill="Red"/>
  <circle cx="529.079" cy="437.725" r="5.05167" stroke-width="0.5" stroke="Red" fill="Red"/>
   </g>
   <g id="cell96">
  <circle cx="531.446" cy="451.548" r="8.41271" stroke-width="0.5" stroke="black" fill="Red"/>
  <circle cx="531.446" cy="451.548" r="5.05167" stroke-width="0.5" stroke="Red" fill="Red"/>
   </g>
   <g id="cell97">
  <circle cx="531.642" cy="466.171" r="8.41271" stroke-width="0.5" stroke="black" fill="Red"/>
  <circle cx="531.642" cy="466.171" r="5.05167" stroke-width="0.5" stroke="Red" fill="Red"/>
   </g>
   <g id="cell98">
  <circle cx="531.167" cy="480.543" r="8.41271" stroke-width="0.5" stroke="black" fill="Red"/>
  <circle cx="531.167" cy="480.543" r="5.05167" stroke-width="0.5" stroke="Red" fill="Red"/>
   </g>
   <g id="cell99">
  <circle cx="530.433" cy="494.639" r="8.41271" stroke-width="0.5" stroke="black" fill="blue"/>
  <circle cx="530.433" cy="494.639" r="5.05167" stroke-width="0.5" stroke="blue" fill="blue"/>
   </g>
   <g id="cell100">
  <circle cx="529.355" cy="511.622" r="8.41271" stroke-width="0.5" stroke="black" fill="Red"/>
  <circle cx="529.355" cy="511.622" r="5.05167" stroke-width="0.5" stroke="Red" fill="Red"/>
   </g>
   <g id="cell101">
  <circle cx="531.356" cy="525.353" r="8.41271" stroke-width="0.5" stroke="black" fill="Red"/>
  <circle cx="531.356" cy="525.353" r="5.05167" stroke-width="0.5" stroke="Red" fill="Red"/>
   </g>
   <g id="cell102">
  <circle cx="530.157" cy="538.744" r="8.41271" stroke-width="0.5" stroke="black" fill="Red"/>
  <circle cx="530.157" cy="538.744" r="5.05167" stroke-width="0.5" stroke="Red" fill="Red"/>
   </g>
   <g id="cell103">
  <circle cx="530.938" cy="552.142" r="8.41271" stroke-width="0.5" stroke="black" fill="Red"/>
  <circle cx="530.938" cy="552.142" r="5.05167" stroke-width="0.5" stroke="Red" fill="Red"/>
   </g>
   <g id="cell104">
  <circle cx="528.944" cy="566.24" r="8.41271" stroke-width="0.5" stroke="black" fill="Red"/>
  <circle cx="528.944" cy="566.24" r="5.05167" stroke-width="0.5" stroke="Red" fill="Red"/>
   </g>
   <g id="cell105">
  <circle cx="529.17" cy="579.433" r="8.41271" stroke-width="0.5" stroke="black" fill="blue"/>
  <circle cx="529.17" cy="579.433" r="5.05167" stroke-width="0.5" stroke="blue" fill="blue"/>
   </g>
   <g id="cell106">
  <circle cx="543.423" cy="417.002" r="8.41271" stroke-width="0.5" stroke="black" fill="Red"/>
  <circle cx="543.423" cy="417.002" r="5.05167" stroke-width="0.5" stroke="Red" fill="Red"/>
   </g>
   <g id="cell107">
  <circle cx="543.518" cy="431.027" r="8.41271" stroke-width="0.5" stroke="black" fill="Red"/>
  <circle cx="543.518" cy="431.027" r="5.05167" stroke-width="0.5" stroke="Red" fill="Red"/>
   </g>
   <g id="cell108">
  <circle cx="543.723" cy="443.594" r="8.41271" stroke-width="0.5" stroke="black" fill="Red"/>
  <circle cx="543.723" cy="443.594" r="5.05167" stroke-width="0.5" stroke="Red" fill="Red"/>
   </g>
   <g id="cell109">
  <circle cx="545.279" cy="459.267" r="8.41271" stroke-width="0.5" stroke="black" fill="Red"/>
  <circle cx="545.279" cy="459.267" r="5.05167" stroke-width="0.5" stroke="Red" fill="Red"/>
   </g>
   <g id="cell110">
  <circle cx="545.37" cy="474.052" r="8.41271" stroke-width="0.5" stroke="black" fill="blue"/>
  <circle cx="545.37" cy="474.052" r="5.05167" stroke-width="0.5" stroke="blue" fill="blue"/>
   </g>
   <g id="cell111">
  <circle cx="545.448" cy="489.108" r="8.41271" stroke-width="0.5" stroke="black" fill="Red"/>
  <circle cx="545.448" cy="489.108" r="5.05167" stroke-width="0.5" stroke="Red" fill="Red"/>
   </g>
   <g id="cell112">
  <circle cx="545.858" cy="503.793" r="8.41271" stroke-width="0.5" stroke="black" fill="Red"/>
  <circle cx="545.858" cy="503.793" r="5.05167" stroke-width="0.5" stroke="Red" fill="Red"/>
   </g>
   <g id="cell113">
  <circle cx="545.214" cy="516.764" r="8.41271" stroke-width="0.5" stroke="black" fill="Red"/>
  <circle cx="545.214" cy="516.764" r="5.05167" stroke-width="0.5" stroke="Red" fill="Red"/>
   </g>
   <g id="cell114">
  <circle cx="545.354" cy="531.922" r="8.41271" stroke-width="0.5" stroke="black" fill="Red"/>
  <circle cx="545.354" cy="531.922" r="5.05167" stroke-width="0.5" stroke="Red" fill="Red"/>
   </g>
   <g id="cell115">
  <circle cx="545.154" cy="545.553" r="8.41271" stroke-width="0.5" stroke="black" fill="Red"/>
  <circle cx="545.154" cy="545.553" r="5.05167" stroke-width="0.5" stroke="Red" fill="Red"/>
   </g>
   <g id="cell116">
  <circle cx="544.473" cy="560.094" r="8.41271" stroke-width="0.5" stroke="black" fill="Red"/>
  <circle cx="544.473" cy="560.094" r="5.05167" stroke-width="0.5" stroke="Red" fill="Red"/>
   </g>
   <g id="cell117">
  <circle cx="543.573" cy="573.911" r="8.41271" stroke-width="0.5" stroke="black" fill="Red"/>
  <circle cx="543.573" cy="573.911" r="5.05167" stroke-width="0.5" stroke="Red" fill="Red"/>
   </g>
   <g id="cell118">
  <circle cx="556.461" cy="424.336" r="8.41271" stroke-width="0.5" stroke="black" fill="blue"/>
  <circle cx="556.461" cy="424.336" r="5.05167" stroke-width="0.5" stroke="blue" fill="blue"/>
   </g>
   <g id="cell119">
  <circle cx="557.233" cy="437.968" r="8.41271" stroke-width="0.5" stroke="black" fill="yellow"/>
  <circle cx="557.233" cy="437.968" r="5.05167" stroke-width="0.5" stroke="yellow" fill="yellow"/>
   </g>
   <g id="cell120">
  <circle cx="557.716" cy="452.467" r="8.41271" stroke-width="0.5" stroke="black" fill="yellow"/>
  <circle cx="557.716" cy="452.467" r="5.05167" stroke-width="0.5" stroke="yellow" fill="yellow"/>
   </g>
   <g id="cell121">
  <circle cx="559.238" cy="466.758" r="8.41271" stroke-width="0.5" stroke="black" fill="Red"/>
  <circle cx="559.238" cy="466.758" r="5.05167" stroke-width="0.5" stroke="Red" fill="Red"/>
   </g>
   <g id="cell122">
  <circle cx="559.159" cy="481.081" r="8.41271" stroke-width="0.5" stroke="black" fill="Red"/>
  <circle cx="559.159" cy="481.081" r="5.05167" stroke-width="0.5" stroke="Red" fill="Red"/>
   </g>
   <g id="cell123">
  <circle cx="559.269" cy="495.72" r="8.41271" stroke-width="0.5" stroke="black" fill="Red"/>
  <circle cx="559.269" cy="495.72" r="5.05167" stroke-width="0.5" stroke="Red" fill="Red"/>
   </g>
   <g id="cell124">
  <circle cx="560.052" cy="509.901" r="8.41271" stroke-width="0.5" stroke="black" fill="blue"/>
  <circle cx="560.052" cy="509.901" r="5.05167" stroke-width="0.5" stroke="blue" fill="blue"/>
   </g>
   <g id="cell125">
  <circle cx="560.477" cy="524.606" r="8.41271" stroke-width="0.5" stroke="black" fill="blue"/>
  <circle cx="560.477" cy="524.606" r="5.05167" stroke-width="0.5" stroke="blue" fill="blue"/>
   </g>
   <g id="cell126">
  <circle cx="559.588" cy="538.504" r="8.41271" stroke-width="0.5" stroke="black" fill="Red"/>
  <circle cx="559.588" cy="538.504" r="5.05167" stroke-width="0.5" stroke="Red" fill="Red"/>
   </g>
   <g id="cell127">
  <circle cx="558.544" cy="552.893" r="8.41271" stroke-width="0.5" stroke="black" fill="Red"/>
  <circle cx="558.544" cy="552.893" r="5.05167" stroke-width="0.5" stroke="Red" fill="Red"/>
   </g>
   <g id="cell128">
  <circle cx="557.705" cy="565.528" r="8.41271" stroke-width="0.5" stroke="black" fill="blue"/>
  <circle cx="557.705" cy="565.528" r="5.05167" stroke-width="0.5" stroke="blue" fill="blue"/>
   </g>
   <g id="cell129">
  <circle cx="571.303" cy="445.808" r="8.41271" stroke-width="0.5" stroke="black" fill="blue"/>
  <circle cx="571.303" cy="445.808" r="5.05167" stroke-width="0.5" stroke="blue" fill="blue"/>
   </g>
   <g id="cell130">
  <circle cx="572.009" cy="459.3" r="8.41271" stroke-width="0.5" stroke="black" fill="yellow"/>
  <circle cx="572.009" cy="459.3" r="5.05167" stroke-width="0.5" stroke="yellow" fill="yellow"/>
   </g>
   <g id="cell131">
  <circle cx="573.535" cy="473.371" r="8.41271" stroke-width="0.5" stroke="black" fill="Red"/>
  <circle cx="573.535" cy="473.371" r="5.05167" stroke-width="0.5" stroke="Red" fill="Red"/>
   </g>
   <g id="cell132">
  <circle cx="572.604" cy="487.822" r="8.41271" stroke-width="0.5" stroke="black" fill="Red"/>
  <circle cx="572.604" cy="487.822" r="5.05167" stroke-width="0.5" stroke="Red" fill="Red"/>
   </g>
   <g id="cell133">
  <circle cx="573.384" cy="502.351" r="8.41271" stroke-width="0.5" stroke="black" fill="Red"/>
  <circle cx="573.384" cy="502.351" r="5.05167" stroke-width="0.5" stroke="Red" fill="Red"/>
   </g>
   <g id="cell134">
  <circle cx="573.909" cy="517.27" r="8.41271" stroke-width="0.5" stroke="black" fill="Red"/>
  <circle cx="573.909" cy="517.27" r="5.05167" stroke-width="0.5" stroke="Red" fill="Red"/>
   </g>
   <g id="cell135">
  <circle cx="572.787" cy="531.828" r="8.41271" stroke-width="0.5" stroke="black" fill="Red"/>
  <circle cx="572.787" cy="531.828" r="5.05167" stroke-width="0.5" stroke="Red" fill="Red"/>
   </g>
   <g id="cell136">
  <circle cx="572.065" cy="545.598" r="8.41271" stroke-width="0.5" stroke="black" fill="Red"/>
  <circle cx="572.065" cy="545.598" r="5.05167" stroke-width="0.5" stroke="Red" fill="Red"/>
   </g>
   <g id="cell137">
  <circle cx="571.856" cy="560.335" r="8.41271" stroke-width="0.5" stroke="black" fill="blue"/>
  <circle cx="571.856" cy="560.335" r="5.05167" stroke-width="0.5" stroke="blue" fill="blue"/>
   </g>
   <g id="cell138">
  <circle cx="585.777" cy="466.815" r="8.41271" stroke-width="0.5" stroke="black" fill="blue"/>
  <circle cx="585.777" cy="466.815" r="5.05167" stroke-width="0.5" stroke="blue" fill="blue"/>
   </g>
   <g id="cell139">
  <circle cx="585.693" cy="481.232" r="8.41271" stroke-width="0.5" stroke="black" fill="Red"/>
  <circle cx="585.693" cy="481.232" r="5.05167" stroke-width="0.5" stroke="Red" fill="Red"/>
   </g>
   <g id="cell140">
  <circle cx="585.406" cy="494.986" r="8.41271" stroke-width="0.5" stroke="black" fill="blue"/>
  <circle cx="585.406" cy="494.986" r="5.05167" stroke-width="0.5" stroke="blue" fill="blue"/>
   </g>
   <g id="cell141">
  <circle cx="586.779" cy="510.184" r="8.41271" stroke-width="0.5" stroke="black" fill="Red"/>
  <circle cx="586.779" cy="510.184" r="5.05167" stroke-width="0.5" stroke="Red" fill="Red"/>
   </g>
   <g id="cell142">
  <circle cx="585.834" cy="524.676" r="8.41271" stroke-width="0.5" stroke="black" fill="Red"/>
  <circle cx="585.834" cy="524.676" r="5.05167" stroke-width="0.5" stroke="Red" fill="Red"/>
   </g>
   <g id="cell143">
  <circle cx="585.891" cy="539.158" r="8.41271" stroke-width="0.5" stroke="black" fill="blue"/>
  <circle cx="585.891" cy="539.158" r="5.05167" stroke-width="0.5" stroke="blue" fill="blue"/>
   </g>
  </g>
 </g>
  <rect x="775" y="1035" width="200" height="10" stroke-width="2" stroke="rgb(255,255,255)" fill="rgb(0,0,0)"/>
  <text x="781.25" y="1028.75"
   font-family="Arial" font-size="25" fill="black" >
   200 &#956;m
  </text>
  <text x="25" y="1045"
   font-family="Arial" font-size="18.75" fill="black" >
   0 days, 0 hours, 0 minutes, and 2.3760 seconds
  </text>
  <rect x="0" y="70" width="1000" height="1000" stroke-width="2" stroke="rgb(0,0,0)" fill="none"/>
</svg>
