<?xml version="1.0" encoding="UTF-8" standalone="no"?>
<!-- Created with PhysiCell (http://PhysiCell.MathCancer.org/) -->
<svg 
 xmlns:dc="http://purl.org/dc/elements/1.1/" 
 xmlns:cc="http://creativecommons.org/ns#" 
 xmlns:rdf="http://www.w3.org/1999/02/22-rdf-syntax-ns#" 
 xmlns:svg="http://www.w3.org/2000/svg" 
 xmlns="http://www.w3.org/2000/svg" 
 version="1.1" 
 width="1000" 
 height="1070" 
 id="svg2">
  <rect x="0" y="0" width="1000" height="1070" stroke-width="2" stroke="white" fill="white"/>
  <text x="12.5" y="30"
   font-family="Arial" font-size="25" fill="black" >
   Current time: 0 days, 2 hours, and 0.00 minutes, z = 0.00 &#956;m
  </text>
  <text x="12.5" y="57.5"
   font-family="Arial" font-size="23.75" fill="black" >
   161 agents
  </text>
 <g id="tissue" 
    transform="translate(0,1070) scale(1,-1)">
  <g id="ECM">
  </g>
  <g id="cells">
   <g id="cell0">
  <circle cx="427.571" cy="450.982" r="8.41271" stroke-width="0.5" stroke="black" fill="blue"/>
  <circle cx="427.571" cy="450.982" r="5.05167" stroke-width="0.5" stroke="blue" fill="blue"/>
   </g>
   <g id="cell1">
  <circle cx="426.102" cy="467.22" r="8.41271" stroke-width="0.5" stroke="black" fill="Red"/>
  <circle cx="426.102" cy="467.22" r="5.05167" stroke-width="0.5" stroke="Red" fill="Red"/>
   </g>
   <g id="cell2">
  <circle cx="428.167" cy="481.826" r="8.41271" stroke-width="0.5" stroke="black" fill="blue"/>
  <circle cx="428.167" cy="481.826" r="5.05167" stroke-width="0.5" stroke="blue" fill="blue"/>
   </g>
   <g id="cell3">
  <circle cx="428.74" cy="496.375" r="8.41271" stroke-width="0.5" stroke="black" fill="yellow"/>
  <circle cx="428.74" cy="496.375" r="5.05167" stroke-width="0.5" stroke="yellow" fill="yellow"/>
   </g>
   <g id="cell4">
  <circle cx="431.62" cy="510.419" r="8.41271" stroke-width="0.5" stroke="black" fill="blue"/>
  <circle cx="431.62" cy="510.419" r="5.05167" stroke-width="0.5" stroke="blue" fill="blue"/>
   </g>
   <g id="cell5">
  <circle cx="423.94" cy="522.71" r="8.41271" stroke-width="0.5" stroke="black" fill="Red"/>
  <circle cx="423.94" cy="522.71" r="5.05167" stroke-width="0.5" stroke="Red" fill="Red"/>
   </g>
   <g id="cell6">
  <circle cx="428.848" cy="535.904" r="8.41271" stroke-width="0.5" stroke="black" fill="blue"/>
  <circle cx="428.848" cy="535.904" r="5.05167" stroke-width="0.5" stroke="blue" fill="blue"/>
   </g>
   <g id="cell7">
  <circle cx="440.108" cy="447.439" r="7.1497" stroke-width="0.5" stroke="black" fill="Red"/>
  <circle cx="440.108" cy="447.439" r="4.34001" stroke-width="0.5" stroke="Red" fill="Red"/>
   </g>
   <g id="cell8">
  <circle cx="438.201" cy="460.177" r="8.41271" stroke-width="0.5" stroke="black" fill="yellow"/>
  <circle cx="438.201" cy="460.177" r="5.05167" stroke-width="0.5" stroke="yellow" fill="yellow"/>
   </g>
   <g id="cell9">
  <circle cx="439.935" cy="474.026" r="8.41271" stroke-width="0.5" stroke="black" fill="yellow"/>
  <circle cx="439.935" cy="474.026" r="5.05167" stroke-width="0.5" stroke="yellow" fill="yellow"/>
   </g>
   <g id="cell10">
  <circle cx="439.972" cy="487.973" r="8.41271" stroke-width="0.5" stroke="black" fill="yellow"/>
  <circle cx="439.972" cy="487.973" r="5.05167" stroke-width="0.5" stroke="yellow" fill="yellow"/>
   </g>
   <g id="cell11">
  <circle cx="441.173" cy="502.111" r="8.41271" stroke-width="0.5" stroke="black" fill="Red"/>
  <circle cx="441.173" cy="502.111" r="5.05167" stroke-width="0.5" stroke="Red" fill="Red"/>
   </g>
   <g id="cell12">
  <circle cx="436.194" cy="521.4" r="6.86652" stroke-width="0.5" stroke="black" fill="yellow"/>
  <circle cx="436.194" cy="521.4" r="4.14883" stroke-width="0.5" stroke="yellow" fill="yellow"/>
   </g>
   <g id="cell13">
  <circle cx="440.967" cy="531.532" r="8.41271" stroke-width="0.5" stroke="black" fill="yellow"/>
  <circle cx="440.967" cy="531.532" r="5.05167" stroke-width="0.5" stroke="yellow" fill="yellow"/>
   </g>
   <g id="cell14">
  <circle cx="438.88" cy="546.197" r="8.41271" stroke-width="0.5" stroke="black" fill="yellow"/>
  <circle cx="438.88" cy="546.197" r="5.05167" stroke-width="0.5" stroke="yellow" fill="yellow"/>
   </g>
   <g id="cell15">
  <circle cx="440.972" cy="561.675" r="8.41271" stroke-width="0.5" stroke="black" fill="blue"/>
  <circle cx="440.972" cy="561.675" r="5.05167" stroke-width="0.5" stroke="blue" fill="blue"/>
   </g>
   <g id="cell16">
  <circle cx="453.995" cy="427.736" r="5.60504" stroke-width="0.5" stroke="black" fill="yellow"/>
  <circle cx="453.995" cy="427.736" r="3.40505" stroke-width="0.5" stroke="yellow" fill="yellow"/>
   </g>
   <g id="cell17">
  <circle cx="450.445" cy="439.486" r="8.41271" stroke-width="0.5" stroke="black" fill="Red"/>
  <circle cx="450.445" cy="439.486" r="5.05167" stroke-width="0.5" stroke="Red" fill="Red"/>
   </g>
   <g id="cell18">
  <circle cx="451.512" cy="453.999" r="8.41271" stroke-width="0.5" stroke="black" fill="Red"/>
  <circle cx="451.512" cy="453.999" r="5.05167" stroke-width="0.5" stroke="Red" fill="Red"/>
   </g>
   <g id="cell19">
  <circle cx="450.567" cy="466.652" r="8.41271" stroke-width="0.5" stroke="black" fill="blue"/>
  <circle cx="450.567" cy="466.652" r="5.05167" stroke-width="0.5" stroke="blue" fill="blue"/>
   </g>
   <g id="cell20">
  <circle cx="452.72" cy="479.983" r="8.41271" stroke-width="0.5" stroke="black" fill="Red"/>
  <circle cx="452.72" cy="479.983" r="5.05167" stroke-width="0.5" stroke="Red" fill="Red"/>
   </g>
   <g id="cell21">
  <circle cx="452.119" cy="494.461" r="8.41271" stroke-width="0.5" stroke="black" fill="Red"/>
  <circle cx="452.119" cy="494.461" r="5.05167" stroke-width="0.5" stroke="Red" fill="Red"/>
   </g>
   <g id="cell22">
  <circle cx="453.89" cy="508.857" r="8.41271" stroke-width="0.5" stroke="black" fill="blue"/>
  <circle cx="453.89" cy="508.857" r="5.05167" stroke-width="0.5" stroke="blue" fill="blue"/>
   </g>
   <g id="cell23">
  <circle cx="451.275" cy="522.567" r="8.41271" stroke-width="0.5" stroke="black" fill="Red"/>
  <circle cx="451.275" cy="522.567" r="5.05167" stroke-width="0.5" stroke="Red" fill="Red"/>
   </g>
   <g id="cell24">
  <circle cx="451.625" cy="539.489" r="8.41271" stroke-width="0.5" stroke="black" fill="blue"/>
  <circle cx="451.625" cy="539.489" r="5.05167" stroke-width="0.5" stroke="blue" fill="blue"/>
   </g>
   <g id="cell25">
  <circle cx="452.453" cy="552.91" r="8.41271" stroke-width="0.5" stroke="black" fill="yellow"/>
  <circle cx="452.453" cy="552.91" r="5.05167" stroke-width="0.5" stroke="yellow" fill="yellow"/>
   </g>
   <g id="cell26">
  <circle cx="453.319" cy="568.173" r="8.41271" stroke-width="0.5" stroke="black" fill="yellow"/>
  <circle cx="453.319" cy="568.173" r="5.05167" stroke-width="0.5" stroke="yellow" fill="yellow"/>
   </g>
   <g id="cell27">
  <circle cx="462.542" cy="419.308" r="8.41271" stroke-width="0.5" stroke="black" fill="yellow"/>
  <circle cx="462.542" cy="419.308" r="5.05167" stroke-width="0.5" stroke="yellow" fill="yellow"/>
   </g>
   <g id="cell28">
  <circle cx="463.068" cy="434.486" r="8.41271" stroke-width="0.5" stroke="black" fill="Red"/>
  <circle cx="463.068" cy="434.486" r="5.05167" stroke-width="0.5" stroke="Red" fill="Red"/>
   </g>
   <g id="cell29">
  <circle cx="462.662" cy="447.823" r="8.41271" stroke-width="0.5" stroke="black" fill="blue"/>
  <circle cx="462.662" cy="447.823" r="5.05167" stroke-width="0.5" stroke="blue" fill="blue"/>
   </g>
   <g id="cell30">
  <circle cx="463.574" cy="460.87" r="8.41271" stroke-width="0.5" stroke="black" fill="Red"/>
  <circle cx="463.574" cy="460.87" r="5.05167" stroke-width="0.5" stroke="Red" fill="Red"/>
   </g>
   <g id="cell31">
  <circle cx="464.13" cy="473.758" r="8.41271" stroke-width="0.5" stroke="black" fill="Red"/>
  <circle cx="464.13" cy="473.758" r="5.05167" stroke-width="0.5" stroke="Red" fill="Red"/>
   </g>
   <g id="cell32">
  <circle cx="464.165" cy="487.386" r="8.41271" stroke-width="0.5" stroke="black" fill="Red"/>
  <circle cx="464.165" cy="487.386" r="5.05167" stroke-width="0.5" stroke="Red" fill="Red"/>
   </g>
   <g id="cell33">
  <circle cx="464.158" cy="500.312" r="8.41271" stroke-width="0.5" stroke="black" fill="Red"/>
  <circle cx="464.158" cy="500.312" r="5.05167" stroke-width="0.5" stroke="Red" fill="Red"/>
   </g>
   <g id="cell34">
  <circle cx="464.494" cy="517.921" r="8.41271" stroke-width="0.5" stroke="black" fill="Red"/>
  <circle cx="464.494" cy="517.921" r="5.05167" stroke-width="0.5" stroke="Red" fill="Red"/>
   </g>
   <g id="cell35">
  <circle cx="462.649" cy="530.62" r="8.41271" stroke-width="0.5" stroke="black" fill="Red"/>
  <circle cx="462.649" cy="530.62" r="5.05167" stroke-width="0.5" stroke="Red" fill="Red"/>
   </g>
   <g id="cell36">
  <circle cx="465.16" cy="543.287" r="8.41271" stroke-width="0.5" stroke="black" fill="Red"/>
  <circle cx="465.16" cy="543.287" r="5.05167" stroke-width="0.5" stroke="Red" fill="Red"/>
   </g>
   <g id="cell37">
  <circle cx="464.347" cy="557.117" r="8.41271" stroke-width="0.5" stroke="black" fill="Red"/>
  <circle cx="464.347" cy="557.117" r="5.05167" stroke-width="0.5" stroke="Red" fill="Red"/>
   </g>
   <g id="cell38">
  <circle cx="466.637" cy="570.444" r="8.41271" stroke-width="0.5" stroke="black" fill="yellow"/>
  <circle cx="466.637" cy="570.444" r="5.05167" stroke-width="0.5" stroke="yellow" fill="yellow"/>
   </g>
   <g id="cell39">
  <circle cx="459.67" cy="581.169" r="8.41271" stroke-width="0.5" stroke="black" fill="blue"/>
  <circle cx="459.67" cy="581.169" r="5.05167" stroke-width="0.5" stroke="blue" fill="blue"/>
   </g>
   <g id="cell40">
  <circle cx="473.538" cy="412.733" r="8.41271" stroke-width="0.5" stroke="black" fill="blue"/>
  <circle cx="473.538" cy="412.733" r="5.05167" stroke-width="0.5" stroke="blue" fill="blue"/>
   </g>
   <g id="cell41">
  <circle cx="475.298" cy="427.124" r="8.41271" stroke-width="0.5" stroke="black" fill="yellow"/>
  <circle cx="475.298" cy="427.124" r="5.05167" stroke-width="0.5" stroke="yellow" fill="yellow"/>
   </g>
   <g id="cell42">
  <circle cx="476.477" cy="441.217" r="8.41271" stroke-width="0.5" stroke="black" fill="Red"/>
  <circle cx="476.477" cy="441.217" r="5.05167" stroke-width="0.5" stroke="Red" fill="Red"/>
   </g>
   <g id="cell43">
  <circle cx="475.341" cy="453.804" r="8.41271" stroke-width="0.5" stroke="black" fill="Red"/>
  <circle cx="475.341" cy="453.804" r="5.05167" stroke-width="0.5" stroke="Red" fill="Red"/>
   </g>
   <g id="cell44">
  <circle cx="476.852" cy="467.607" r="8.41271" stroke-width="0.5" stroke="black" fill="Red"/>
  <circle cx="476.852" cy="467.607" r="5.05167" stroke-width="0.5" stroke="Red" fill="Red"/>
   </g>
   <g id="cell45">
  <circle cx="476.04" cy="480.997" r="8.41271" stroke-width="0.5" stroke="black" fill="blue"/>
  <circle cx="476.04" cy="480.997" r="5.05167" stroke-width="0.5" stroke="blue" fill="blue"/>
   </g>
   <g id="cell46">
  <circle cx="477.311" cy="496.517" r="8.41271" stroke-width="0.5" stroke="black" fill="Red"/>
  <circle cx="477.311" cy="496.517" r="5.05167" stroke-width="0.5" stroke="Red" fill="Red"/>
   </g>
   <g id="cell47">
  <circle cx="471.883" cy="508.419" r="7.11815" stroke-width="0.5" stroke="black" fill="Red"/>
  <circle cx="471.883" cy="508.419" r="4.31954" stroke-width="0.5" stroke="Red" fill="Red"/>
   </g>
   <g id="cell48">
  <circle cx="477.79" cy="520.699" r="6.71158" stroke-width="0.5" stroke="black" fill="Red"/>
  <circle cx="477.79" cy="520.699" r="4.03435" stroke-width="0.5" stroke="Red" fill="Red"/>
   </g>
   <g id="cell49">
  <circle cx="476.855" cy="538.083" r="8.41271" stroke-width="0.5" stroke="black" fill="Red"/>
  <circle cx="476.855" cy="538.083" r="5.05167" stroke-width="0.5" stroke="Red" fill="Red"/>
   </g>
   <g id="cell50">
  <circle cx="477.369" cy="551.722" r="8.41271" stroke-width="0.5" stroke="black" fill="Red"/>
  <circle cx="477.369" cy="551.722" r="5.05167" stroke-width="0.5" stroke="Red" fill="Red"/>
   </g>
   <g id="cell51">
  <circle cx="478.333" cy="565.684" r="8.41271" stroke-width="0.5" stroke="black" fill="blue"/>
  <circle cx="478.333" cy="565.684" r="5.05167" stroke-width="0.5" stroke="blue" fill="blue"/>
   </g>
   <g id="cell52">
  <circle cx="478.141" cy="579.071" r="8.41271" stroke-width="0.5" stroke="black" fill="Red"/>
  <circle cx="478.141" cy="579.071" r="5.05167" stroke-width="0.5" stroke="Red" fill="Red"/>
   </g>
   <g id="cell53">
  <circle cx="486.922" cy="419.269" r="8.41271" stroke-width="0.5" stroke="black" fill="yellow"/>
  <circle cx="486.922" cy="419.269" r="5.05167" stroke-width="0.5" stroke="yellow" fill="yellow"/>
   </g>
   <g id="cell54">
  <circle cx="488.335" cy="434.199" r="8.41271" stroke-width="0.5" stroke="black" fill="blue"/>
  <circle cx="488.335" cy="434.199" r="5.05167" stroke-width="0.5" stroke="blue" fill="blue"/>
   </g>
   <g id="cell55">
  <circle cx="488.376" cy="448.704" r="8.41271" stroke-width="0.5" stroke="black" fill="Red"/>
  <circle cx="488.376" cy="448.704" r="5.05167" stroke-width="0.5" stroke="Red" fill="Red"/>
   </g>
   <g id="cell56">
  <circle cx="493.98" cy="463.114" r="6.80881" stroke-width="0.5" stroke="black" fill="blue"/>
  <circle cx="493.98" cy="463.114" r="4.10709" stroke-width="0.5" stroke="blue" fill="blue"/>
   </g>
   <g id="cell57">
  <circle cx="488.121" cy="474.192" r="8.41271" stroke-width="0.5" stroke="black" fill="Red"/>
  <circle cx="488.121" cy="474.192" r="5.05167" stroke-width="0.5" stroke="Red" fill="Red"/>
   </g>
   <g id="cell58">
  <circle cx="488.578" cy="489.05" r="8.41271" stroke-width="0.5" stroke="black" fill="blue"/>
  <circle cx="488.578" cy="489.05" r="5.05167" stroke-width="0.5" stroke="blue" fill="blue"/>
   </g>
   <g id="cell59">
  <circle cx="489.738" cy="503.296" r="8.41271" stroke-width="0.5" stroke="black" fill="Red"/>
  <circle cx="489.738" cy="503.296" r="5.05167" stroke-width="0.5" stroke="Red" fill="Red"/>
   </g>
   <g id="cell60">
  <circle cx="491.188" cy="518.155" r="8.41271" stroke-width="0.5" stroke="black" fill="Red"/>
  <circle cx="491.188" cy="518.155" r="5.05167" stroke-width="0.5" stroke="Red" fill="Red"/>
   </g>
   <g id="cell61">
  <circle cx="487.512" cy="529.869" r="8.41271" stroke-width="0.5" stroke="black" fill="Red"/>
  <circle cx="487.512" cy="529.869" r="5.05167" stroke-width="0.5" stroke="Red" fill="Red"/>
   </g>
   <g id="cell62">
  <circle cx="489.299" cy="545.307" r="8.41271" stroke-width="0.5" stroke="black" fill="blue"/>
  <circle cx="489.299" cy="545.307" r="5.05167" stroke-width="0.5" stroke="blue" fill="blue"/>
   </g>
   <g id="cell63">
  <circle cx="489.991" cy="557.707" r="8.41271" stroke-width="0.5" stroke="black" fill="Red"/>
  <circle cx="489.991" cy="557.707" r="5.05167" stroke-width="0.5" stroke="Red" fill="Red"/>
   </g>
   <g id="cell64">
  <circle cx="490.771" cy="570.553" r="8.41271" stroke-width="0.5" stroke="black" fill="Red"/>
  <circle cx="490.771" cy="570.553" r="5.05167" stroke-width="0.5" stroke="Red" fill="Red"/>
   </g>
   <g id="cell65">
  <circle cx="490.517" cy="585.283" r="8.41271" stroke-width="0.5" stroke="black" fill="yellow"/>
  <circle cx="490.517" cy="585.283" r="5.05167" stroke-width="0.5" stroke="yellow" fill="yellow"/>
   </g>
   <g id="cell66">
  <circle cx="499.176" cy="411.693" r="8.41271" stroke-width="0.5" stroke="black" fill="blue"/>
  <circle cx="499.176" cy="411.693" r="5.05167" stroke-width="0.5" stroke="blue" fill="blue"/>
   </g>
   <g id="cell67">
  <circle cx="500.166" cy="426.554" r="8.41271" stroke-width="0.5" stroke="black" fill="yellow"/>
  <circle cx="500.166" cy="426.554" r="5.05167" stroke-width="0.5" stroke="yellow" fill="yellow"/>
   </g>
   <g id="cell68">
  <circle cx="499.685" cy="440.349" r="8.41271" stroke-width="0.5" stroke="black" fill="Red"/>
  <circle cx="499.685" cy="440.349" r="5.05167" stroke-width="0.5" stroke="Red" fill="Red"/>
   </g>
   <g id="cell69">
  <circle cx="501.122" cy="454.007" r="8.41271" stroke-width="0.5" stroke="black" fill="Red"/>
  <circle cx="501.122" cy="454.007" r="5.05167" stroke-width="0.5" stroke="Red" fill="Red"/>
   </g>
   <g id="cell70">
  <circle cx="502.663" cy="468.697" r="8.41271" stroke-width="0.5" stroke="black" fill="blue"/>
  <circle cx="502.663" cy="468.697" r="5.05167" stroke-width="0.5" stroke="blue" fill="blue"/>
   </g>
   <g id="cell71">
  <circle cx="499.739" cy="480.768" r="8.41271" stroke-width="0.5" stroke="black" fill="Red"/>
  <circle cx="499.739" cy="480.768" r="5.05167" stroke-width="0.5" stroke="Red" fill="Red"/>
   </g>
   <g id="cell72">
  <circle cx="500.521" cy="494.734" r="8.41271" stroke-width="0.5" stroke="black" fill="Red"/>
  <circle cx="500.521" cy="494.734" r="5.05167" stroke-width="0.5" stroke="Red" fill="Red"/>
   </g>
   <g id="cell73">
  <circle cx="501.919" cy="509.213" r="8.41271" stroke-width="0.5" stroke="black" fill="Red"/>
  <circle cx="501.919" cy="509.213" r="5.05167" stroke-width="0.5" stroke="Red" fill="Red"/>
   </g>
   <g id="cell74">
  <circle cx="503.358" cy="522.077" r="8.41271" stroke-width="0.5" stroke="black" fill="Red"/>
  <circle cx="503.358" cy="522.077" r="5.05167" stroke-width="0.5" stroke="Red" fill="Red"/>
   </g>
   <g id="cell75">
  <circle cx="500.159" cy="535.238" r="8.41271" stroke-width="0.5" stroke="black" fill="Red"/>
  <circle cx="500.159" cy="535.238" r="5.05167" stroke-width="0.5" stroke="Red" fill="Red"/>
   </g>
   <g id="cell76">
  <circle cx="502.165" cy="548.668" r="8.41271" stroke-width="0.5" stroke="black" fill="Red"/>
  <circle cx="502.165" cy="548.668" r="5.05167" stroke-width="0.5" stroke="Red" fill="Red"/>
   </g>
   <g id="cell77">
  <circle cx="503.442" cy="568.409" r="6.69288" stroke-width="0.5" stroke="black" fill="blue"/>
  <circle cx="503.442" cy="568.409" r="4.02051" stroke-width="0.5" stroke="blue" fill="blue"/>
   </g>
   <g id="cell78">
  <circle cx="503.056" cy="580.063" r="8.41271" stroke-width="0.5" stroke="black" fill="yellow"/>
  <circle cx="503.056" cy="580.063" r="5.05167" stroke-width="0.5" stroke="yellow" fill="yellow"/>
   </g>
   <g id="cell79">
  <circle cx="503.298" cy="593.315" r="8.41271" stroke-width="0.5" stroke="black" fill="blue"/>
  <circle cx="503.298" cy="593.315" r="5.05167" stroke-width="0.5" stroke="blue" fill="blue"/>
   </g>
   <g id="cell80">
  <circle cx="512.259" cy="417.941" r="8.41271" stroke-width="0.5" stroke="black" fill="yellow"/>
  <circle cx="512.259" cy="417.941" r="5.05167" stroke-width="0.5" stroke="yellow" fill="yellow"/>
   </g>
   <g id="cell81">
  <circle cx="511.748" cy="433.975" r="8.41271" stroke-width="0.5" stroke="black" fill="blue"/>
  <circle cx="511.748" cy="433.975" r="5.05167" stroke-width="0.5" stroke="blue" fill="blue"/>
   </g>
   <g id="cell82">
  <circle cx="512.432" cy="446.768" r="8.41271" stroke-width="0.5" stroke="black" fill="Red"/>
  <circle cx="512.432" cy="446.768" r="5.05167" stroke-width="0.5" stroke="Red" fill="Red"/>
   </g>
   <g id="cell83">
  <circle cx="512.901" cy="459.993" r="8.41271" stroke-width="0.5" stroke="black" fill="Red"/>
  <circle cx="512.901" cy="459.993" r="5.05167" stroke-width="0.5" stroke="Red" fill="Red"/>
   </g>
   <g id="cell84">
  <circle cx="513.366" cy="475.111" r="8.41271" stroke-width="0.5" stroke="black" fill="blue"/>
  <circle cx="513.366" cy="475.111" r="5.05167" stroke-width="0.5" stroke="blue" fill="blue"/>
   </g>
   <g id="cell85">
  <circle cx="512.18" cy="486.924" r="8.41271" stroke-width="0.5" stroke="black" fill="blue"/>
  <circle cx="512.18" cy="486.924" r="5.05167" stroke-width="0.5" stroke="blue" fill="blue"/>
   </g>
   <g id="cell86">
  <circle cx="513.614" cy="499.737" r="8.41271" stroke-width="0.5" stroke="black" fill="Red"/>
  <circle cx="513.614" cy="499.737" r="5.05167" stroke-width="0.5" stroke="Red" fill="Red"/>
   </g>
   <g id="cell87">
  <circle cx="513.362" cy="511.535" r="6.75639" stroke-width="0.5" stroke="black" fill="blue"/>
  <circle cx="513.362" cy="511.535" r="4.06813" stroke-width="0.5" stroke="blue" fill="blue"/>
   </g>
   <g id="cell88">
  <circle cx="513.026" cy="531.818" r="8.41271" stroke-width="0.5" stroke="black" fill="Red"/>
  <circle cx="513.026" cy="531.818" r="5.05167" stroke-width="0.5" stroke="Red" fill="Red"/>
   </g>
   <g id="cell89">
  <circle cx="513.221" cy="544.801" r="8.41271" stroke-width="0.5" stroke="black" fill="Red"/>
  <circle cx="513.221" cy="544.801" r="5.05167" stroke-width="0.5" stroke="Red" fill="Red"/>
   </g>
   <g id="cell90">
  <circle cx="513.268" cy="557.525" r="8.41271" stroke-width="0.5" stroke="black" fill="Red"/>
  <circle cx="513.268" cy="557.525" r="5.05167" stroke-width="0.5" stroke="Red" fill="Red"/>
   </g>
   <g id="cell91">
  <circle cx="514.942" cy="571.719" r="8.41271" stroke-width="0.5" stroke="black" fill="Red"/>
  <circle cx="514.942" cy="571.719" r="5.05167" stroke-width="0.5" stroke="Red" fill="Red"/>
   </g>
   <g id="cell92">
  <circle cx="515.493" cy="586.178" r="8.41271" stroke-width="0.5" stroke="black" fill="yellow"/>
  <circle cx="515.493" cy="586.178" r="5.05167" stroke-width="0.5" stroke="yellow" fill="yellow"/>
   </g>
   <g id="cell93">
  <circle cx="527.155" cy="414.904" r="8.41271" stroke-width="0.5" stroke="black" fill="blue"/>
  <circle cx="527.155" cy="414.904" r="5.05167" stroke-width="0.5" stroke="blue" fill="blue"/>
   </g>
   <g id="cell94">
  <circle cx="532.825" cy="426.613" r="6.78181" stroke-width="0.5" stroke="black" fill="yellow"/>
  <circle cx="532.825" cy="426.613" r="4.08714" stroke-width="0.5" stroke="yellow" fill="yellow"/>
   </g>
   <g id="cell95">
  <circle cx="525.924" cy="439.238" r="8.41271" stroke-width="0.5" stroke="black" fill="Red"/>
  <circle cx="525.924" cy="439.238" r="5.05167" stroke-width="0.5" stroke="Red" fill="Red"/>
   </g>
   <g id="cell96">
  <circle cx="524.053" cy="452.013" r="7.11815" stroke-width="0.5" stroke="black" fill="blue"/>
  <circle cx="524.053" cy="452.013" r="4.31954" stroke-width="0.5" stroke="blue" fill="blue"/>
   </g>
   <g id="cell97">
  <circle cx="523.885" cy="466.761" r="8.41271" stroke-width="0.5" stroke="black" fill="Red"/>
  <circle cx="523.885" cy="466.761" r="5.05167" stroke-width="0.5" stroke="Red" fill="Red"/>
   </g>
   <g id="cell98">
  <circle cx="526.672" cy="481.579" r="8.41271" stroke-width="0.5" stroke="black" fill="Red"/>
  <circle cx="526.672" cy="481.579" r="5.05167" stroke-width="0.5" stroke="Red" fill="Red"/>
   </g>
   <g id="cell99">
  <circle cx="526.024" cy="494.939" r="8.41271" stroke-width="0.5" stroke="black" fill="Red"/>
  <circle cx="526.024" cy="494.939" r="5.05167" stroke-width="0.5" stroke="Red" fill="Red"/>
   </g>
   <g id="cell100">
  <circle cx="525.211" cy="509.657" r="8.41271" stroke-width="0.5" stroke="black" fill="Red"/>
  <circle cx="525.211" cy="509.657" r="5.05167" stroke-width="0.5" stroke="Red" fill="Red"/>
   </g>
   <g id="cell101">
  <circle cx="524.969" cy="523.968" r="8.41271" stroke-width="0.5" stroke="black" fill="Red"/>
  <circle cx="524.969" cy="523.968" r="5.05167" stroke-width="0.5" stroke="Red" fill="Red"/>
   </g>
   <g id="cell102">
  <circle cx="531.4" cy="534.257" r="7.02257" stroke-width="0.5" stroke="black" fill="Red"/>
  <circle cx="531.4" cy="534.257" r="4.25644" stroke-width="0.5" stroke="Red" fill="Red"/>
   </g>
   <g id="cell103">
  <circle cx="526.344" cy="549.315" r="8.41271" stroke-width="0.5" stroke="black" fill="Red"/>
  <circle cx="526.344" cy="549.315" r="5.05167" stroke-width="0.5" stroke="Red" fill="Red"/>
   </g>
   <g id="cell104">
  <circle cx="526.394" cy="564.205" r="8.41271" stroke-width="0.5" stroke="black" fill="Red"/>
  <circle cx="526.394" cy="564.205" r="5.05167" stroke-width="0.5" stroke="Red" fill="Red"/>
   </g>
   <g id="cell105">
  <circle cx="526.976" cy="577.581" r="8.41271" stroke-width="0.5" stroke="black" fill="blue"/>
  <circle cx="526.976" cy="577.581" r="5.05167" stroke-width="0.5" stroke="blue" fill="blue"/>
   </g>
   <g id="cell106">
  <circle cx="541.79" cy="418.763" r="8.41271" stroke-width="0.5" stroke="black" fill="yellow"/>
  <circle cx="541.79" cy="418.763" r="5.05167" stroke-width="0.5" stroke="yellow" fill="yellow"/>
   </g>
   <g id="cell107">
  <circle cx="540.097" cy="435.694" r="8.41271" stroke-width="0.5" stroke="black" fill="yellow"/>
  <circle cx="540.097" cy="435.694" r="5.05167" stroke-width="0.5" stroke="yellow" fill="yellow"/>
   </g>
   <g id="cell108">
  <circle cx="537.375" cy="448.943" r="8.41271" stroke-width="0.5" stroke="black" fill="Red"/>
  <circle cx="537.375" cy="448.943" r="5.05167" stroke-width="0.5" stroke="Red" fill="Red"/>
   </g>
   <g id="cell109">
  <circle cx="542.207" cy="463.25" r="8.41271" stroke-width="0.5" stroke="black" fill="Red"/>
  <circle cx="542.207" cy="463.25" r="5.05167" stroke-width="0.5" stroke="Red" fill="Red"/>
   </g>
   <g id="cell110">
  <circle cx="541.178" cy="476.881" r="8.41271" stroke-width="0.5" stroke="black" fill="Red"/>
  <circle cx="541.178" cy="476.881" r="5.05167" stroke-width="0.5" stroke="Red" fill="Red"/>
   </g>
   <g id="cell111">
  <circle cx="538.738" cy="488.398" r="8.41271" stroke-width="0.5" stroke="black" fill="blue"/>
  <circle cx="538.738" cy="488.398" r="5.05167" stroke-width="0.5" stroke="blue" fill="blue"/>
   </g>
   <g id="cell112">
  <circle cx="538.788" cy="502.575" r="8.41271" stroke-width="0.5" stroke="black" fill="Red"/>
  <circle cx="538.788" cy="502.575" r="5.05167" stroke-width="0.5" stroke="Red" fill="Red"/>
   </g>
   <g id="cell113">
  <circle cx="537.669" cy="515.943" r="8.41271" stroke-width="0.5" stroke="black" fill="Red"/>
  <circle cx="537.669" cy="515.943" r="5.05167" stroke-width="0.5" stroke="Red" fill="Red"/>
   </g>
   <g id="cell114">
  <circle cx="541.222" cy="528.802" r="8.41271" stroke-width="0.5" stroke="black" fill="Red"/>
  <circle cx="541.222" cy="528.802" r="5.05167" stroke-width="0.5" stroke="Red" fill="Red"/>
   </g>
   <g id="cell115">
  <circle cx="539.787" cy="542.925" r="8.41271" stroke-width="0.5" stroke="black" fill="Red"/>
  <circle cx="539.787" cy="542.925" r="5.05167" stroke-width="0.5" stroke="Red" fill="Red"/>
   </g>
   <g id="cell116">
  <circle cx="538.351" cy="556.875" r="8.41271" stroke-width="0.5" stroke="black" fill="Red"/>
  <circle cx="538.351" cy="556.875" r="5.05167" stroke-width="0.5" stroke="Red" fill="Red"/>
   </g>
   <g id="cell117">
  <circle cx="537.594" cy="570.833" r="8.41271" stroke-width="0.5" stroke="black" fill="blue"/>
  <circle cx="537.594" cy="570.833" r="5.05167" stroke-width="0.5" stroke="blue" fill="blue"/>
   </g>
   <g id="cell118">
  <circle cx="551.117" cy="427.7" r="8.41271" stroke-width="0.5" stroke="black" fill="blue"/>
  <circle cx="551.117" cy="427.7" r="5.05167" stroke-width="0.5" stroke="blue" fill="blue"/>
   </g>
   <g id="cell119">
  <circle cx="551.94" cy="442.102" r="8.41271" stroke-width="0.5" stroke="black" fill="yellow"/>
  <circle cx="551.94" cy="442.102" r="5.05167" stroke-width="0.5" stroke="yellow" fill="yellow"/>
   </g>
   <g id="cell120">
  <circle cx="557.948" cy="455.012" r="6.75639" stroke-width="0.5" stroke="black" fill="Red"/>
  <circle cx="557.948" cy="455.012" r="4.06813" stroke-width="0.5" stroke="Red" fill="Red"/>
   </g>
   <g id="cell121">
  <circle cx="554.672" cy="467.315" r="8.41271" stroke-width="0.5" stroke="black" fill="Red"/>
  <circle cx="554.672" cy="467.315" r="5.05167" stroke-width="0.5" stroke="Red" fill="Red"/>
   </g>
   <g id="cell122">
  <circle cx="553.027" cy="480.478" r="8.41271" stroke-width="0.5" stroke="black" fill="Red"/>
  <circle cx="553.027" cy="480.478" r="5.05167" stroke-width="0.5" stroke="Red" fill="Red"/>
   </g>
   <g id="cell123">
  <circle cx="550.704" cy="494.195" r="8.41271" stroke-width="0.5" stroke="black" fill="Red"/>
  <circle cx="550.704" cy="494.195" r="5.05167" stroke-width="0.5" stroke="Red" fill="Red"/>
   </g>
   <g id="cell124">
  <circle cx="551.283" cy="509.632" r="8.41271" stroke-width="0.5" stroke="black" fill="Red"/>
  <circle cx="551.283" cy="509.632" r="5.05167" stroke-width="0.5" stroke="Red" fill="Red"/>
   </g>
   <g id="cell125">
  <circle cx="549.005" cy="520.65" r="6.78181" stroke-width="0.5" stroke="black" fill="Red"/>
  <circle cx="549.005" cy="520.65" r="4.08714" stroke-width="0.5" stroke="Red" fill="Red"/>
   </g>
   <g id="cell126">
  <circle cx="552.626" cy="535.626" r="8.41271" stroke-width="0.5" stroke="black" fill="Red"/>
  <circle cx="552.626" cy="535.626" r="5.05167" stroke-width="0.5" stroke="Red" fill="Red"/>
   </g>
   <g id="cell127">
  <circle cx="551.428" cy="550.362" r="8.41271" stroke-width="0.5" stroke="black" fill="yellow"/>
  <circle cx="551.428" cy="550.362" r="5.05167" stroke-width="0.5" stroke="yellow" fill="yellow"/>
   </g>
   <g id="cell128">
  <circle cx="550.607" cy="564.755" r="8.41271" stroke-width="0.5" stroke="black" fill="yellow"/>
  <circle cx="550.607" cy="564.755" r="5.05167" stroke-width="0.5" stroke="yellow" fill="yellow"/>
   </g>
   <g id="cell129">
  <circle cx="576.591" cy="446.862" r="6.73287" stroke-width="0.5" stroke="black" fill="blue"/>
  <circle cx="576.591" cy="446.862" r="4.05039" stroke-width="0.5" stroke="blue" fill="blue"/>
   </g>
   <g id="cell130">
  <circle cx="569.581" cy="459.124" r="8.41271" stroke-width="0.5" stroke="black" fill="yellow"/>
  <circle cx="569.581" cy="459.124" r="5.05167" stroke-width="0.5" stroke="yellow" fill="yellow"/>
   </g>
   <g id="cell131">
  <circle cx="565.895" cy="474.465" r="8.41271" stroke-width="0.5" stroke="black" fill="yellow"/>
  <circle cx="565.895" cy="474.465" r="5.05167" stroke-width="0.5" stroke="yellow" fill="yellow"/>
   </g>
   <g id="cell132">
  <circle cx="562.117" cy="488.534" r="8.41271" stroke-width="0.5" stroke="black" fill="blue"/>
  <circle cx="562.117" cy="488.534" r="5.05167" stroke-width="0.5" stroke="blue" fill="blue"/>
   </g>
   <g id="cell133">
  <circle cx="562.71" cy="501.823" r="8.41271" stroke-width="0.5" stroke="black" fill="Red"/>
  <circle cx="562.71" cy="501.823" r="5.05167" stroke-width="0.5" stroke="Red" fill="Red"/>
   </g>
   <g id="cell134">
  <circle cx="564.077" cy="516.149" r="8.41271" stroke-width="0.5" stroke="black" fill="Red"/>
  <circle cx="564.077" cy="516.149" r="5.05167" stroke-width="0.5" stroke="Red" fill="Red"/>
   </g>
   <g id="cell135">
  <circle cx="566.739" cy="531.369" r="8.41271" stroke-width="0.5" stroke="black" fill="yellow"/>
  <circle cx="566.739" cy="531.369" r="5.05167" stroke-width="0.5" stroke="yellow" fill="yellow"/>
   </g>
   <g id="cell136">
  <circle cx="564.979" cy="544.086" r="8.41271" stroke-width="0.5" stroke="black" fill="yellow"/>
  <circle cx="564.979" cy="544.086" r="5.05167" stroke-width="0.5" stroke="yellow" fill="yellow"/>
   </g>
   <g id="cell137">
  <circle cx="563.914" cy="558.617" r="8.41271" stroke-width="0.5" stroke="black" fill="blue"/>
  <circle cx="563.914" cy="558.617" r="5.05167" stroke-width="0.5" stroke="blue" fill="blue"/>
   </g>
   <g id="cell138">
  <circle cx="578.792" cy="469.438" r="8.41271" stroke-width="0.5" stroke="black" fill="blue"/>
  <circle cx="578.792" cy="469.438" r="5.05167" stroke-width="0.5" stroke="blue" fill="blue"/>
   </g>
   <g id="cell139">
  <circle cx="577.155" cy="483.423" r="8.41271" stroke-width="0.5" stroke="black" fill="yellow"/>
  <circle cx="577.155" cy="483.423" r="5.05167" stroke-width="0.5" stroke="yellow" fill="yellow"/>
   </g>
   <g id="cell140">
  <circle cx="572.818" cy="495.368" r="7.1497" stroke-width="0.5" stroke="black" fill="Red"/>
  <circle cx="572.818" cy="495.368" r="4.34001" stroke-width="0.5" stroke="Red" fill="Red"/>
   </g>
   <g id="cell141">
  <circle cx="575.228" cy="508.143" r="8.41271" stroke-width="0.5" stroke="black" fill="yellow"/>
  <circle cx="575.228" cy="508.143" r="5.05167" stroke-width="0.5" stroke="yellow" fill="yellow"/>
   </g>
   <g id="cell142">
  <circle cx="577.52" cy="522.307" r="8.41271" stroke-width="0.5" stroke="black" fill="Red"/>
  <circle cx="577.52" cy="522.307" r="5.05167" stroke-width="0.5" stroke="Red" fill="Red"/>
   </g>
   <g id="cell143">
  <circle cx="580.361" cy="535.636" r="8.41271" stroke-width="0.5" stroke="black" fill="blue"/>
  <circle cx="580.361" cy="535.636" r="5.05167" stroke-width="0.5" stroke="blue" fill="blue"/>
   </g>
   <g id="cell144">
  <circle cx="437.287" cy="436.209" r="7.1497" stroke-width="0.5" stroke="black" fill="Red"/>
  <circle cx="437.287" cy="436.209" r="4.34001" stroke-width="0.5" stroke="Red" fill="Red"/>
   </g>
   <g id="cell145">
  <circle cx="584.359" cy="496.154" r="7.1497" stroke-width="0.5" stroke="black" fill="blue"/>
  <circle cx="584.359" cy="496.154" r="4.34001" stroke-width="0.5" stroke="blue" fill="blue"/>
   </g>
   <g id="cell146">
  <circle cx="480.993" cy="511.016" r="7.11815" stroke-width="0.5" stroke="black" fill="blue"/>
  <circle cx="480.993" cy="511.016" r="4.31954" stroke-width="0.5" stroke="blue" fill="blue"/>
   </g>
   <g id="cell147">
  <circle cx="532.121" cy="459.514" r="6.11768" stroke-width="0.5" stroke="black" fill="Red"/>
  <circle cx="532.121" cy="459.514" r="3.74909" stroke-width="0.5" stroke="Red" fill="Red"/>
   </g>
   <g id="cell148">
  <circle cx="522.118" cy="537.566" r="7.02257" stroke-width="0.5" stroke="black" fill="blue"/>
  <circle cx="522.118" cy="537.566" r="4.25644" stroke-width="0.5" stroke="blue" fill="blue"/>
   </g>
   <g id="cell149">
  <circle cx="533.336" cy="470.391" r="6.11768" stroke-width="0.5" stroke="black" fill="blue"/>
  <circle cx="533.336" cy="470.391" r="3.74909" stroke-width="0.5" stroke="blue" fill="blue"/>
   </g>
   <g id="cell150">
  <circle cx="443.268" cy="513.81" r="6.86652" stroke-width="0.5" stroke="black" fill="Red"/>
  <circle cx="443.268" cy="513.81" r="4.14883" stroke-width="0.5" stroke="Red" fill="Red"/>
   </g>
   <g id="cell151">
  <circle cx="450.076" cy="417.964" r="6.86652" stroke-width="0.5" stroke="black" fill="blue"/>
  <circle cx="450.076" cy="417.964" r="4.14883" stroke-width="0.5" stroke="blue" fill="blue"/>
   </g>
   <g id="cell152">
  <circle cx="485.385" cy="460.183" r="6.80881" stroke-width="0.5" stroke="black" fill="blue"/>
  <circle cx="485.385" cy="460.183" r="4.10709" stroke-width="0.5" stroke="blue" fill="blue"/>
   </g>
   <g id="cell153">
  <circle cx="521.785" cy="426.039" r="6.78181" stroke-width="0.5" stroke="black" fill="yellow"/>
  <circle cx="521.785" cy="426.039" r="4.08714" stroke-width="0.5" stroke="yellow" fill="yellow"/>
   </g>
   <g id="cell154">
  <circle cx="557.08" cy="524.709" r="6.78181" stroke-width="0.5" stroke="black" fill="blue"/>
  <circle cx="557.08" cy="524.709" r="4.08714" stroke-width="0.5" stroke="blue" fill="blue"/>
   </g>
   <g id="cell155">
  <circle cx="444.991" cy="428.146" r="5.60504" stroke-width="0.5" stroke="black" fill="Red"/>
  <circle cx="444.991" cy="428.146" r="3.40505" stroke-width="0.5" stroke="Red" fill="Red"/>
   </g>
   <g id="cell156">
  <circle cx="514.231" cy="520.488" r="6.75639" stroke-width="0.5" stroke="black" fill="blue"/>
  <circle cx="514.231" cy="520.488" r="4.06813" stroke-width="0.5" stroke="blue" fill="blue"/>
   </g>
   <g id="cell157">
  <circle cx="548.403" cy="453.991" r="6.75639" stroke-width="0.5" stroke="black" fill="blue"/>
  <circle cx="548.403" cy="453.991" r="4.06813" stroke-width="0.5" stroke="blue" fill="blue"/>
   </g>
   <g id="cell158">
  <circle cx="564.168" cy="445.922" r="6.73287" stroke-width="0.5" stroke="black" fill="yellow"/>
  <circle cx="564.168" cy="445.922" r="4.05039" stroke-width="0.5" stroke="yellow" fill="yellow"/>
   </g>
   <g id="cell159">
  <circle cx="473.416" cy="528.606" r="6.71158" stroke-width="0.5" stroke="black" fill="blue"/>
  <circle cx="473.416" cy="528.606" r="4.03435" stroke-width="0.5" stroke="blue" fill="blue"/>
   </g>
   <g id="cell160">
  <circle cx="500.447" cy="559.107" r="6.69288" stroke-width="0.5" stroke="black" fill="Red"/>
  <circle cx="500.447" cy="559.107" r="4.02051" stroke-width="0.5" stroke="Red" fill="Red"/>
   </g>
  </g>
 </g>
  <rect x="775" y="1035" width="200" height="10" stroke-width="2" stroke="rgb(255,255,255)" fill="rgb(0,0,0)"/>
  <text x="781.25" y="1028.75"
   font-family="Arial" font-size="25" fill="black" >
   200 &#956;m
  </text>
  <text x="25" y="1045"
   font-family="Arial" font-size="18.75" fill="black" >
   0 days, 0 hours, 0 minutes, and 37.5821 seconds
  </text>
  <rect x="0" y="70" width="1000" height="1000" stroke-width="2" stroke="rgb(0,0,0)" fill="none"/>
</svg>
