<?xml version="1.0" encoding="UTF-8" standalone="no"?>
<!-- Created with PhysiCell (http://PhysiCell.MathCancer.org/) -->
<svg 
 xmlns:dc="http://purl.org/dc/elements/1.1/" 
 xmlns:cc="http://creativecommons.org/ns#" 
 xmlns:rdf="http://www.w3.org/1999/02/22-rdf-syntax-ns#" 
 xmlns:svg="http://www.w3.org/2000/svg" 
 xmlns="http://www.w3.org/2000/svg" 
 version="1.1" 
 width="1000" 
 height="1070" 
 id="svg2">
  <rect x="0" y="0" width="1000" height="1070" stroke-width="2" stroke="white" fill="white"/>
  <text x="12.5" y="30"
   font-family="Arial" font-size="25" fill="black" >
   Current time: 0 days, 1 hours, and 10.00 minutes, z = 0.00 &#956;m
  </text>
  <text x="12.5" y="57.5"
   font-family="Arial" font-size="23.75" fill="black" >
   152 agents
  </text>
 <g id="tissue" 
    transform="translate(0,1070) scale(1,-1)">
  <g id="ECM">
  </g>
  <g id="cells">
   <g id="cell0">
  <circle cx="422.943" cy="455.437" r="8.41271" stroke-width="0.5" stroke="black" fill="blue"/>
  <circle cx="422.943" cy="455.437" r="5.05167" stroke-width="0.5" stroke="blue" fill="blue"/>
   </g>
   <g id="cell1">
  <circle cx="424.217" cy="469.046" r="8.41271" stroke-width="0.5" stroke="black" fill="yellow"/>
  <circle cx="424.217" cy="469.046" r="5.05167" stroke-width="0.5" stroke="yellow" fill="yellow"/>
   </g>
   <g id="cell2">
  <circle cx="426.459" cy="482.08" r="8.41271" stroke-width="0.5" stroke="black" fill="blue"/>
  <circle cx="426.459" cy="482.08" r="5.05167" stroke-width="0.5" stroke="blue" fill="blue"/>
   </g>
   <g id="cell3">
  <circle cx="426.909" cy="496.556" r="8.41271" stroke-width="0.5" stroke="black" fill="Red"/>
  <circle cx="426.909" cy="496.556" r="5.05167" stroke-width="0.5" stroke="Red" fill="Red"/>
   </g>
   <g id="cell4">
  <circle cx="427.871" cy="509.396" r="8.41271" stroke-width="0.5" stroke="black" fill="blue"/>
  <circle cx="427.871" cy="509.396" r="5.05167" stroke-width="0.5" stroke="blue" fill="blue"/>
   </g>
   <g id="cell5">
  <circle cx="425.756" cy="523.09" r="8.41271" stroke-width="0.5" stroke="black" fill="Red"/>
  <circle cx="425.756" cy="523.09" r="5.05167" stroke-width="0.5" stroke="Red" fill="Red"/>
   </g>
   <g id="cell6">
  <circle cx="426.638" cy="537.732" r="8.41271" stroke-width="0.5" stroke="black" fill="blue"/>
  <circle cx="426.638" cy="537.732" r="5.05167" stroke-width="0.5" stroke="blue" fill="blue"/>
   </g>
   <g id="cell7">
  <circle cx="436.38" cy="448.435" r="6.89675" stroke-width="0.5" stroke="black" fill="yellow"/>
  <circle cx="436.38" cy="448.435" r="4.17024" stroke-width="0.5" stroke="yellow" fill="yellow"/>
   </g>
   <g id="cell8">
  <circle cx="435.613" cy="461.934" r="8.41271" stroke-width="0.5" stroke="black" fill="yellow"/>
  <circle cx="435.613" cy="461.934" r="5.05167" stroke-width="0.5" stroke="yellow" fill="yellow"/>
   </g>
   <g id="cell9">
  <circle cx="439.175" cy="475.09" r="8.41271" stroke-width="0.5" stroke="black" fill="Red"/>
  <circle cx="439.175" cy="475.09" r="5.05167" stroke-width="0.5" stroke="Red" fill="Red"/>
   </g>
   <g id="cell10">
  <circle cx="438.383" cy="488.689" r="8.41271" stroke-width="0.5" stroke="black" fill="Red"/>
  <circle cx="438.383" cy="488.689" r="5.05167" stroke-width="0.5" stroke="Red" fill="Red"/>
   </g>
   <g id="cell11">
  <circle cx="438.982" cy="502.049" r="8.41271" stroke-width="0.5" stroke="black" fill="Red"/>
  <circle cx="438.982" cy="502.049" r="5.05167" stroke-width="0.5" stroke="Red" fill="Red"/>
   </g>
   <g id="cell12">
  <circle cx="437.333" cy="519.377" r="6.67717" stroke-width="0.5" stroke="black" fill="Red"/>
  <circle cx="437.333" cy="519.377" r="4.00951" stroke-width="0.5" stroke="Red" fill="Red"/>
   </g>
   <g id="cell13">
  <circle cx="439.812" cy="530.588" r="8.41271" stroke-width="0.5" stroke="black" fill="yellow"/>
  <circle cx="439.812" cy="530.588" r="5.05167" stroke-width="0.5" stroke="yellow" fill="yellow"/>
   </g>
   <g id="cell14">
  <circle cx="438.86" cy="544.839" r="8.41271" stroke-width="0.5" stroke="black" fill="yellow"/>
  <circle cx="438.86" cy="544.839" r="5.05167" stroke-width="0.5" stroke="yellow" fill="yellow"/>
   </g>
   <g id="cell15">
  <circle cx="440.587" cy="559.323" r="8.41271" stroke-width="0.5" stroke="black" fill="blue"/>
  <circle cx="440.587" cy="559.323" r="5.05167" stroke-width="0.5" stroke="blue" fill="blue"/>
   </g>
   <g id="cell16">
  <circle cx="450.214" cy="428.374" r="6.67717" stroke-width="0.5" stroke="black" fill="blue"/>
  <circle cx="450.214" cy="428.374" r="4.00951" stroke-width="0.5" stroke="blue" fill="blue"/>
   </g>
   <g id="cell17">
  <circle cx="450.288" cy="441.184" r="8.41271" stroke-width="0.5" stroke="black" fill="Red"/>
  <circle cx="450.288" cy="441.184" r="5.05167" stroke-width="0.5" stroke="Red" fill="Red"/>
   </g>
   <g id="cell18">
  <circle cx="448.499" cy="453.134" r="8.41271" stroke-width="0.5" stroke="black" fill="Red"/>
  <circle cx="448.499" cy="453.134" r="5.05167" stroke-width="0.5" stroke="Red" fill="Red"/>
   </g>
   <g id="cell19">
  <circle cx="448.795" cy="467.463" r="8.41271" stroke-width="0.5" stroke="black" fill="blue"/>
  <circle cx="448.795" cy="467.463" r="5.05167" stroke-width="0.5" stroke="blue" fill="blue"/>
   </g>
   <g id="cell20">
  <circle cx="451.683" cy="481.345" r="8.41271" stroke-width="0.5" stroke="black" fill="blue"/>
  <circle cx="451.683" cy="481.345" r="5.05167" stroke-width="0.5" stroke="blue" fill="blue"/>
   </g>
   <g id="cell21">
  <circle cx="450.861" cy="495.077" r="8.41271" stroke-width="0.5" stroke="black" fill="Red"/>
  <circle cx="450.861" cy="495.077" r="5.05167" stroke-width="0.5" stroke="Red" fill="Red"/>
   </g>
   <g id="cell22">
  <circle cx="450.935" cy="509.605" r="8.41271" stroke-width="0.5" stroke="black" fill="blue"/>
  <circle cx="450.935" cy="509.605" r="5.05167" stroke-width="0.5" stroke="blue" fill="blue"/>
   </g>
   <g id="cell23">
  <circle cx="450.913" cy="522.568" r="8.41271" stroke-width="0.5" stroke="black" fill="Red"/>
  <circle cx="450.913" cy="522.568" r="5.05167" stroke-width="0.5" stroke="Red" fill="Red"/>
   </g>
   <g id="cell24">
  <circle cx="452.871" cy="537.567" r="8.41271" stroke-width="0.5" stroke="black" fill="blue"/>
  <circle cx="452.871" cy="537.567" r="5.05167" stroke-width="0.5" stroke="blue" fill="blue"/>
   </g>
   <g id="cell25">
  <circle cx="451.579" cy="552.111" r="8.41271" stroke-width="0.5" stroke="black" fill="yellow"/>
  <circle cx="451.579" cy="552.111" r="5.05167" stroke-width="0.5" stroke="yellow" fill="yellow"/>
   </g>
   <g id="cell26">
  <circle cx="451.441" cy="566.943" r="8.41271" stroke-width="0.5" stroke="black" fill="yellow"/>
  <circle cx="451.441" cy="566.943" r="5.05167" stroke-width="0.5" stroke="yellow" fill="yellow"/>
   </g>
   <g id="cell27">
  <circle cx="461.575" cy="419.273" r="8.41271" stroke-width="0.5" stroke="black" fill="yellow"/>
  <circle cx="461.575" cy="419.273" r="5.05167" stroke-width="0.5" stroke="yellow" fill="yellow"/>
   </g>
   <g id="cell28">
  <circle cx="461.754" cy="432.747" r="8.41271" stroke-width="0.5" stroke="black" fill="Red"/>
  <circle cx="461.754" cy="432.747" r="5.05167" stroke-width="0.5" stroke="Red" fill="Red"/>
   </g>
   <g id="cell29">
  <circle cx="461.311" cy="447.303" r="8.41271" stroke-width="0.5" stroke="black" fill="blue"/>
  <circle cx="461.311" cy="447.303" r="5.05167" stroke-width="0.5" stroke="blue" fill="blue"/>
   </g>
   <g id="cell30">
  <circle cx="461.421" cy="460.4" r="8.41271" stroke-width="0.5" stroke="black" fill="Red"/>
  <circle cx="461.421" cy="460.4" r="5.05167" stroke-width="0.5" stroke="Red" fill="Red"/>
   </g>
   <g id="cell31">
  <circle cx="463.172" cy="473.87" r="8.41271" stroke-width="0.5" stroke="black" fill="Red"/>
  <circle cx="463.172" cy="473.87" r="5.05167" stroke-width="0.5" stroke="Red" fill="Red"/>
   </g>
   <g id="cell32">
  <circle cx="462.964" cy="487.385" r="8.41271" stroke-width="0.5" stroke="black" fill="Red"/>
  <circle cx="462.964" cy="487.385" r="5.05167" stroke-width="0.5" stroke="Red" fill="Red"/>
   </g>
   <g id="cell33">
  <circle cx="462.291" cy="501.016" r="8.41271" stroke-width="0.5" stroke="black" fill="Red"/>
  <circle cx="462.291" cy="501.016" r="5.05167" stroke-width="0.5" stroke="Red" fill="Red"/>
   </g>
   <g id="cell34">
  <circle cx="464.61" cy="514.821" r="8.41271" stroke-width="0.5" stroke="black" fill="Red"/>
  <circle cx="464.61" cy="514.821" r="5.05167" stroke-width="0.5" stroke="Red" fill="Red"/>
   </g>
   <g id="cell35">
  <circle cx="463.717" cy="529.15" r="8.41271" stroke-width="0.5" stroke="black" fill="Red"/>
  <circle cx="463.717" cy="529.15" r="5.05167" stroke-width="0.5" stroke="Red" fill="Red"/>
   </g>
   <g id="cell36">
  <circle cx="464.142" cy="542.804" r="8.41271" stroke-width="0.5" stroke="black" fill="Red"/>
  <circle cx="464.142" cy="542.804" r="5.05167" stroke-width="0.5" stroke="Red" fill="Red"/>
   </g>
   <g id="cell37">
  <circle cx="463.335" cy="557.151" r="8.41271" stroke-width="0.5" stroke="black" fill="Red"/>
  <circle cx="463.335" cy="557.151" r="5.05167" stroke-width="0.5" stroke="Red" fill="Red"/>
   </g>
   <g id="cell38">
  <circle cx="464.809" cy="570.924" r="8.41271" stroke-width="0.5" stroke="black" fill="yellow"/>
  <circle cx="464.809" cy="570.924" r="5.05167" stroke-width="0.5" stroke="yellow" fill="yellow"/>
   </g>
   <g id="cell39">
  <circle cx="459.598" cy="582.827" r="8.41271" stroke-width="0.5" stroke="black" fill="blue"/>
  <circle cx="459.598" cy="582.827" r="5.05167" stroke-width="0.5" stroke="blue" fill="blue"/>
   </g>
   <g id="cell40">
  <circle cx="473.497" cy="411.81" r="8.41271" stroke-width="0.5" stroke="black" fill="blue"/>
  <circle cx="473.497" cy="411.81" r="5.05167" stroke-width="0.5" stroke="blue" fill="blue"/>
   </g>
   <g id="cell41">
  <circle cx="475.136" cy="426.095" r="8.41271" stroke-width="0.5" stroke="black" fill="yellow"/>
  <circle cx="475.136" cy="426.095" r="5.05167" stroke-width="0.5" stroke="yellow" fill="yellow"/>
   </g>
   <g id="cell42">
  <circle cx="473.754" cy="440.133" r="8.41271" stroke-width="0.5" stroke="black" fill="Red"/>
  <circle cx="473.754" cy="440.133" r="5.05167" stroke-width="0.5" stroke="Red" fill="Red"/>
   </g>
   <g id="cell43">
  <circle cx="474.948" cy="452.908" r="8.41271" stroke-width="0.5" stroke="black" fill="Red"/>
  <circle cx="474.948" cy="452.908" r="5.05167" stroke-width="0.5" stroke="Red" fill="Red"/>
   </g>
   <g id="cell44">
  <circle cx="475.998" cy="466.111" r="8.41271" stroke-width="0.5" stroke="black" fill="blue"/>
  <circle cx="475.998" cy="466.111" r="5.05167" stroke-width="0.5" stroke="blue" fill="blue"/>
   </g>
   <g id="cell45">
  <circle cx="475.737" cy="480.612" r="8.41271" stroke-width="0.5" stroke="black" fill="Red"/>
  <circle cx="475.737" cy="480.612" r="5.05167" stroke-width="0.5" stroke="Red" fill="Red"/>
   </g>
   <g id="cell46">
  <circle cx="475.164" cy="494.205" r="8.41271" stroke-width="0.5" stroke="black" fill="Red"/>
  <circle cx="475.164" cy="494.205" r="5.05167" stroke-width="0.5" stroke="Red" fill="Red"/>
   </g>
   <g id="cell47">
  <circle cx="471.865" cy="505.44" r="6.86652" stroke-width="0.5" stroke="black" fill="blue"/>
  <circle cx="471.865" cy="505.44" r="4.14883" stroke-width="0.5" stroke="blue" fill="blue"/>
   </g>
   <g id="cell48">
  <circle cx="476.773" cy="522.301" r="8.41271" stroke-width="0.5" stroke="black" fill="Red"/>
  <circle cx="476.773" cy="522.301" r="5.05167" stroke-width="0.5" stroke="Red" fill="Red"/>
   </g>
   <g id="cell49">
  <circle cx="476.783" cy="536.127" r="8.41271" stroke-width="0.5" stroke="black" fill="Red"/>
  <circle cx="476.783" cy="536.127" r="5.05167" stroke-width="0.5" stroke="Red" fill="Red"/>
   </g>
   <g id="cell50">
  <circle cx="476.165" cy="550.854" r="8.41271" stroke-width="0.5" stroke="black" fill="Red"/>
  <circle cx="476.165" cy="550.854" r="5.05167" stroke-width="0.5" stroke="Red" fill="Red"/>
   </g>
   <g id="cell51">
  <circle cx="477.1" cy="564.685" r="8.41271" stroke-width="0.5" stroke="black" fill="Red"/>
  <circle cx="477.1" cy="564.685" r="5.05167" stroke-width="0.5" stroke="Red" fill="Red"/>
   </g>
   <g id="cell52">
  <circle cx="475.804" cy="579.459" r="8.41271" stroke-width="0.5" stroke="black" fill="yellow"/>
  <circle cx="475.804" cy="579.459" r="5.05167" stroke-width="0.5" stroke="yellow" fill="yellow"/>
   </g>
   <g id="cell53">
  <circle cx="487.628" cy="417.114" r="8.41271" stroke-width="0.5" stroke="black" fill="yellow"/>
  <circle cx="487.628" cy="417.114" r="5.05167" stroke-width="0.5" stroke="yellow" fill="yellow"/>
   </g>
   <g id="cell54">
  <circle cx="487.951" cy="432.145" r="8.41271" stroke-width="0.5" stroke="black" fill="blue"/>
  <circle cx="487.951" cy="432.145" r="5.05167" stroke-width="0.5" stroke="blue" fill="blue"/>
   </g>
   <g id="cell55">
  <circle cx="487.776" cy="446.136" r="8.41271" stroke-width="0.5" stroke="black" fill="Red"/>
  <circle cx="487.776" cy="446.136" r="5.05167" stroke-width="0.5" stroke="Red" fill="Red"/>
   </g>
   <g id="cell56">
  <circle cx="488.345" cy="460.019" r="8.41271" stroke-width="0.5" stroke="black" fill="Red"/>
  <circle cx="488.345" cy="460.019" r="5.05167" stroke-width="0.5" stroke="Red" fill="Red"/>
   </g>
   <g id="cell57">
  <circle cx="487.909" cy="474.017" r="8.41271" stroke-width="0.5" stroke="black" fill="Red"/>
  <circle cx="487.909" cy="474.017" r="5.05167" stroke-width="0.5" stroke="Red" fill="Red"/>
   </g>
   <g id="cell58">
  <circle cx="488.171" cy="488.209" r="8.41271" stroke-width="0.5" stroke="black" fill="blue"/>
  <circle cx="488.171" cy="488.209" r="5.05167" stroke-width="0.5" stroke="blue" fill="blue"/>
   </g>
   <g id="cell59">
  <circle cx="487.396" cy="502.852" r="8.41271" stroke-width="0.5" stroke="black" fill="Red"/>
  <circle cx="487.396" cy="502.852" r="5.05167" stroke-width="0.5" stroke="Red" fill="Red"/>
   </g>
   <g id="cell60">
  <circle cx="489.32" cy="515.988" r="8.41271" stroke-width="0.5" stroke="black" fill="Red"/>
  <circle cx="489.32" cy="515.988" r="5.05167" stroke-width="0.5" stroke="Red" fill="Red"/>
   </g>
   <g id="cell61">
  <circle cx="489.583" cy="529.428" r="8.41271" stroke-width="0.5" stroke="black" fill="Red"/>
  <circle cx="489.583" cy="529.428" r="5.05167" stroke-width="0.5" stroke="Red" fill="Red"/>
   </g>
   <g id="cell62">
  <circle cx="488.217" cy="543.987" r="8.41271" stroke-width="0.5" stroke="black" fill="blue"/>
  <circle cx="488.217" cy="543.987" r="5.05167" stroke-width="0.5" stroke="blue" fill="blue"/>
   </g>
   <g id="cell63">
  <circle cx="489.398" cy="557.489" r="8.41271" stroke-width="0.5" stroke="black" fill="Red"/>
  <circle cx="489.398" cy="557.489" r="5.05167" stroke-width="0.5" stroke="Red" fill="Red"/>
   </g>
   <g id="cell64">
  <circle cx="488.132" cy="570.594" r="8.41271" stroke-width="0.5" stroke="black" fill="Red"/>
  <circle cx="488.132" cy="570.594" r="5.05167" stroke-width="0.5" stroke="Red" fill="Red"/>
   </g>
   <g id="cell65">
  <circle cx="489.191" cy="586.753" r="8.41271" stroke-width="0.5" stroke="black" fill="Red"/>
  <circle cx="489.191" cy="586.753" r="5.05167" stroke-width="0.5" stroke="Red" fill="Red"/>
   </g>
   <g id="cell66">
  <circle cx="501.813" cy="411.442" r="8.41271" stroke-width="0.5" stroke="black" fill="blue"/>
  <circle cx="501.813" cy="411.442" r="5.05167" stroke-width="0.5" stroke="blue" fill="blue"/>
   </g>
   <g id="cell67">
  <circle cx="500.736" cy="425.292" r="8.41271" stroke-width="0.5" stroke="black" fill="yellow"/>
  <circle cx="500.736" cy="425.292" r="5.05167" stroke-width="0.5" stroke="yellow" fill="yellow"/>
   </g>
   <g id="cell68">
  <circle cx="500.335" cy="438.345" r="8.41271" stroke-width="0.5" stroke="black" fill="Red"/>
  <circle cx="500.335" cy="438.345" r="5.05167" stroke-width="0.5" stroke="Red" fill="Red"/>
   </g>
   <g id="cell69">
  <circle cx="500.438" cy="452.281" r="8.41271" stroke-width="0.5" stroke="black" fill="Red"/>
  <circle cx="500.438" cy="452.281" r="5.05167" stroke-width="0.5" stroke="Red" fill="Red"/>
   </g>
   <g id="cell70">
  <circle cx="502.093" cy="467.265" r="8.41271" stroke-width="0.5" stroke="black" fill="blue"/>
  <circle cx="502.093" cy="467.265" r="5.05167" stroke-width="0.5" stroke="blue" fill="blue"/>
   </g>
   <g id="cell71">
  <circle cx="500.708" cy="480.694" r="8.41271" stroke-width="0.5" stroke="black" fill="Red"/>
  <circle cx="500.708" cy="480.694" r="5.05167" stroke-width="0.5" stroke="Red" fill="Red"/>
   </g>
   <g id="cell72">
  <circle cx="500.191" cy="495.431" r="8.41271" stroke-width="0.5" stroke="black" fill="Red"/>
  <circle cx="500.191" cy="495.431" r="5.05167" stroke-width="0.5" stroke="Red" fill="Red"/>
   </g>
   <g id="cell73">
  <circle cx="501.992" cy="509.958" r="8.41271" stroke-width="0.5" stroke="black" fill="blue"/>
  <circle cx="501.992" cy="509.958" r="5.05167" stroke-width="0.5" stroke="blue" fill="blue"/>
   </g>
   <g id="cell74">
  <circle cx="501.394" cy="522.93" r="8.41271" stroke-width="0.5" stroke="black" fill="blue"/>
  <circle cx="501.394" cy="522.93" r="5.05167" stroke-width="0.5" stroke="blue" fill="blue"/>
   </g>
   <g id="cell75">
  <circle cx="501.379" cy="536.795" r="8.41271" stroke-width="0.5" stroke="black" fill="Red"/>
  <circle cx="501.379" cy="536.795" r="5.05167" stroke-width="0.5" stroke="Red" fill="Red"/>
   </g>
   <g id="cell76">
  <circle cx="501.16" cy="549.946" r="8.41271" stroke-width="0.5" stroke="black" fill="Red"/>
  <circle cx="501.16" cy="549.946" r="5.05167" stroke-width="0.5" stroke="Red" fill="Red"/>
   </g>
   <g id="cell77">
  <circle cx="502.701" cy="564.22" r="8.41271" stroke-width="0.5" stroke="black" fill="Red"/>
  <circle cx="502.701" cy="564.22" r="5.05167" stroke-width="0.5" stroke="Red" fill="Red"/>
   </g>
   <g id="cell78">
  <circle cx="501.322" cy="578.725" r="8.41271" stroke-width="0.5" stroke="black" fill="yellow"/>
  <circle cx="501.322" cy="578.725" r="5.05167" stroke-width="0.5" stroke="yellow" fill="yellow"/>
   </g>
   <g id="cell79">
  <circle cx="503.404" cy="593.47" r="8.41271" stroke-width="0.5" stroke="black" fill="blue"/>
  <circle cx="503.404" cy="593.47" r="5.05167" stroke-width="0.5" stroke="blue" fill="blue"/>
   </g>
   <g id="cell80">
  <circle cx="513.097" cy="417.84" r="8.41271" stroke-width="0.5" stroke="black" fill="yellow"/>
  <circle cx="513.097" cy="417.84" r="5.05167" stroke-width="0.5" stroke="yellow" fill="yellow"/>
   </g>
   <g id="cell81">
  <circle cx="513.392" cy="432.09" r="8.41271" stroke-width="0.5" stroke="black" fill="blue"/>
  <circle cx="513.392" cy="432.09" r="5.05167" stroke-width="0.5" stroke="blue" fill="blue"/>
   </g>
   <g id="cell82">
  <circle cx="512.613" cy="445.675" r="8.41271" stroke-width="0.5" stroke="black" fill="Red"/>
  <circle cx="512.613" cy="445.675" r="5.05167" stroke-width="0.5" stroke="Red" fill="Red"/>
   </g>
   <g id="cell83">
  <circle cx="514.32" cy="459.355" r="8.41271" stroke-width="0.5" stroke="black" fill="Red"/>
  <circle cx="514.32" cy="459.355" r="5.05167" stroke-width="0.5" stroke="Red" fill="Red"/>
   </g>
   <g id="cell84">
  <circle cx="512.897" cy="474.207" r="8.41271" stroke-width="0.5" stroke="black" fill="blue"/>
  <circle cx="512.897" cy="474.207" r="5.05167" stroke-width="0.5" stroke="blue" fill="blue"/>
   </g>
   <g id="cell85">
  <circle cx="514.078" cy="487.551" r="8.41271" stroke-width="0.5" stroke="black" fill="Red"/>
  <circle cx="514.078" cy="487.551" r="5.05167" stroke-width="0.5" stroke="Red" fill="Red"/>
   </g>
   <g id="cell86">
  <circle cx="514.007" cy="501.359" r="8.41271" stroke-width="0.5" stroke="black" fill="Red"/>
  <circle cx="514.007" cy="501.359" r="5.05167" stroke-width="0.5" stroke="Red" fill="Red"/>
   </g>
   <g id="cell87">
  <circle cx="514.333" cy="516.557" r="8.41271" stroke-width="0.5" stroke="black" fill="Red"/>
  <circle cx="514.333" cy="516.557" r="5.05167" stroke-width="0.5" stroke="Red" fill="Red"/>
   </g>
   <g id="cell88">
  <circle cx="514.41" cy="530.258" r="8.41271" stroke-width="0.5" stroke="black" fill="Red"/>
  <circle cx="514.41" cy="530.258" r="5.05167" stroke-width="0.5" stroke="Red" fill="Red"/>
   </g>
   <g id="cell89">
  <circle cx="514.396" cy="544.118" r="8.41271" stroke-width="0.5" stroke="black" fill="Red"/>
  <circle cx="514.396" cy="544.118" r="5.05167" stroke-width="0.5" stroke="Red" fill="Red"/>
   </g>
   <g id="cell90">
  <circle cx="513.949" cy="556.815" r="8.41271" stroke-width="0.5" stroke="black" fill="blue"/>
  <circle cx="513.949" cy="556.815" r="5.05167" stroke-width="0.5" stroke="blue" fill="blue"/>
   </g>
   <g id="cell91">
  <circle cx="514.36" cy="571.99" r="8.41271" stroke-width="0.5" stroke="black" fill="Red"/>
  <circle cx="514.36" cy="571.99" r="5.05167" stroke-width="0.5" stroke="Red" fill="Red"/>
   </g>
   <g id="cell92">
  <circle cx="514.927" cy="585.382" r="8.41271" stroke-width="0.5" stroke="black" fill="Red"/>
  <circle cx="514.927" cy="585.382" r="5.05167" stroke-width="0.5" stroke="Red" fill="Red"/>
   </g>
   <g id="cell93">
  <circle cx="526.27" cy="412.059" r="8.41271" stroke-width="0.5" stroke="black" fill="blue"/>
  <circle cx="526.27" cy="412.059" r="5.05167" stroke-width="0.5" stroke="blue" fill="blue"/>
   </g>
   <g id="cell94">
  <circle cx="525.14" cy="425.494" r="8.41271" stroke-width="0.5" stroke="black" fill="Red"/>
  <circle cx="525.14" cy="425.494" r="5.05167" stroke-width="0.5" stroke="Red" fill="Red"/>
   </g>
   <g id="cell95">
  <circle cx="524.695" cy="439.579" r="8.41271" stroke-width="0.5" stroke="black" fill="Red"/>
  <circle cx="524.695" cy="439.579" r="5.05167" stroke-width="0.5" stroke="Red" fill="Red"/>
   </g>
   <g id="cell96">
  <circle cx="522.809" cy="452.133" r="6.86652" stroke-width="0.5" stroke="black" fill="blue"/>
  <circle cx="522.809" cy="452.133" r="4.14883" stroke-width="0.5" stroke="blue" fill="blue"/>
   </g>
   <g id="cell97">
  <circle cx="525.044" cy="468.405" r="8.41271" stroke-width="0.5" stroke="black" fill="Red"/>
  <circle cx="525.044" cy="468.405" r="5.05167" stroke-width="0.5" stroke="Red" fill="Red"/>
   </g>
   <g id="cell98">
  <circle cx="526.993" cy="481.795" r="8.41271" stroke-width="0.5" stroke="black" fill="blue"/>
  <circle cx="526.993" cy="481.795" r="5.05167" stroke-width="0.5" stroke="blue" fill="blue"/>
   </g>
   <g id="cell99">
  <circle cx="527.145" cy="495.844" r="8.41271" stroke-width="0.5" stroke="black" fill="Red"/>
  <circle cx="527.145" cy="495.844" r="5.05167" stroke-width="0.5" stroke="Red" fill="Red"/>
   </g>
   <g id="cell100">
  <circle cx="526.695" cy="510.464" r="8.41271" stroke-width="0.5" stroke="black" fill="blue"/>
  <circle cx="526.695" cy="510.464" r="5.05167" stroke-width="0.5" stroke="blue" fill="blue"/>
   </g>
   <g id="cell101">
  <circle cx="527.638" cy="524.334" r="8.41271" stroke-width="0.5" stroke="black" fill="Red"/>
  <circle cx="527.638" cy="524.334" r="5.05167" stroke-width="0.5" stroke="Red" fill="Red"/>
   </g>
   <g id="cell102">
  <circle cx="534.898" cy="536.855" r="6.78181" stroke-width="0.5" stroke="black" fill="blue"/>
  <circle cx="534.898" cy="536.855" r="4.08714" stroke-width="0.5" stroke="blue" fill="blue"/>
   </g>
   <g id="cell103">
  <circle cx="528.136" cy="548.517" r="8.41271" stroke-width="0.5" stroke="black" fill="Red"/>
  <circle cx="528.136" cy="548.517" r="5.05167" stroke-width="0.5" stroke="Red" fill="Red"/>
   </g>
   <g id="cell104">
  <circle cx="527.286" cy="564.624" r="8.41271" stroke-width="0.5" stroke="black" fill="Red"/>
  <circle cx="527.286" cy="564.624" r="5.05167" stroke-width="0.5" stroke="Red" fill="Red"/>
   </g>
   <g id="cell105">
  <circle cx="526.484" cy="578.217" r="8.41271" stroke-width="0.5" stroke="black" fill="blue"/>
  <circle cx="526.484" cy="578.217" r="5.05167" stroke-width="0.5" stroke="blue" fill="blue"/>
   </g>
   <g id="cell106">
  <circle cx="540.54" cy="419.116" r="8.41271" stroke-width="0.5" stroke="black" fill="yellow"/>
  <circle cx="540.54" cy="419.116" r="5.05167" stroke-width="0.5" stroke="yellow" fill="yellow"/>
   </g>
   <g id="cell107">
  <circle cx="538.818" cy="434.5" r="8.41271" stroke-width="0.5" stroke="black" fill="Red"/>
  <circle cx="538.818" cy="434.5" r="5.05167" stroke-width="0.5" stroke="Red" fill="Red"/>
   </g>
   <g id="cell108">
  <circle cx="535.485" cy="448.264" r="8.41271" stroke-width="0.5" stroke="black" fill="Red"/>
  <circle cx="535.485" cy="448.264" r="5.05167" stroke-width="0.5" stroke="Red" fill="Red"/>
   </g>
   <g id="cell109">
  <circle cx="542.907" cy="458.598" r="8.41271" stroke-width="0.5" stroke="black" fill="Red"/>
  <circle cx="542.907" cy="458.598" r="5.05167" stroke-width="0.5" stroke="Red" fill="Red"/>
   </g>
   <g id="cell110">
  <circle cx="540.048" cy="474.154" r="8.41271" stroke-width="0.5" stroke="black" fill="Red"/>
  <circle cx="540.048" cy="474.154" r="5.05167" stroke-width="0.5" stroke="Red" fill="Red"/>
   </g>
   <g id="cell111">
  <circle cx="540.157" cy="489.143" r="8.41271" stroke-width="0.5" stroke="black" fill="Red"/>
  <circle cx="540.157" cy="489.143" r="5.05167" stroke-width="0.5" stroke="Red" fill="Red"/>
   </g>
   <g id="cell112">
  <circle cx="540.225" cy="503.296" r="8.41271" stroke-width="0.5" stroke="black" fill="Red"/>
  <circle cx="540.225" cy="503.296" r="5.05167" stroke-width="0.5" stroke="Red" fill="Red"/>
   </g>
   <g id="cell113">
  <circle cx="539.888" cy="515.715" r="8.41271" stroke-width="0.5" stroke="black" fill="Red"/>
  <circle cx="539.888" cy="515.715" r="5.05167" stroke-width="0.5" stroke="Red" fill="Red"/>
   </g>
   <g id="cell114">
  <circle cx="542.355" cy="528.541" r="8.41271" stroke-width="0.5" stroke="black" fill="Red"/>
  <circle cx="542.355" cy="528.541" r="5.05167" stroke-width="0.5" stroke="Red" fill="Red"/>
   </g>
   <g id="cell115">
  <circle cx="542.434" cy="544.775" r="8.41271" stroke-width="0.5" stroke="black" fill="Red"/>
  <circle cx="542.434" cy="544.775" r="5.05167" stroke-width="0.5" stroke="Red" fill="Red"/>
   </g>
   <g id="cell116">
  <circle cx="540.802" cy="558.237" r="8.41271" stroke-width="0.5" stroke="black" fill="Red"/>
  <circle cx="540.802" cy="558.237" r="5.05167" stroke-width="0.5" stroke="Red" fill="Red"/>
   </g>
   <g id="cell117">
  <circle cx="540.171" cy="573.142" r="8.41271" stroke-width="0.5" stroke="black" fill="blue"/>
  <circle cx="540.171" cy="573.142" r="5.05167" stroke-width="0.5" stroke="blue" fill="blue"/>
   </g>
   <g id="cell118">
  <circle cx="552.242" cy="427.618" r="8.41271" stroke-width="0.5" stroke="black" fill="blue"/>
  <circle cx="552.242" cy="427.618" r="5.05167" stroke-width="0.5" stroke="blue" fill="blue"/>
   </g>
   <g id="cell119">
  <circle cx="552.468" cy="440.964" r="8.41271" stroke-width="0.5" stroke="black" fill="yellow"/>
  <circle cx="552.468" cy="440.964" r="5.05167" stroke-width="0.5" stroke="yellow" fill="yellow"/>
   </g>
   <g id="cell120">
  <circle cx="554.987" cy="454.495" r="8.41271" stroke-width="0.5" stroke="black" fill="yellow"/>
  <circle cx="554.987" cy="454.495" r="5.05167" stroke-width="0.5" stroke="yellow" fill="yellow"/>
   </g>
   <g id="cell121">
  <circle cx="552.602" cy="468.517" r="8.41271" stroke-width="0.5" stroke="black" fill="blue"/>
  <circle cx="552.602" cy="468.517" r="5.05167" stroke-width="0.5" stroke="blue" fill="blue"/>
   </g>
   <g id="cell122">
  <circle cx="552.506" cy="482.318" r="8.41271" stroke-width="0.5" stroke="black" fill="Red"/>
  <circle cx="552.506" cy="482.318" r="5.05167" stroke-width="0.5" stroke="Red" fill="Red"/>
   </g>
   <g id="cell123">
  <circle cx="552.896" cy="497.101" r="8.41271" stroke-width="0.5" stroke="black" fill="Red"/>
  <circle cx="552.896" cy="497.101" r="5.05167" stroke-width="0.5" stroke="Red" fill="Red"/>
   </g>
   <g id="cell124">
  <circle cx="552.713" cy="511.092" r="8.41271" stroke-width="0.5" stroke="black" fill="blue"/>
  <circle cx="552.713" cy="511.092" r="5.05167" stroke-width="0.5" stroke="blue" fill="blue"/>
   </g>
   <g id="cell125">
  <circle cx="553.905" cy="523.339" r="8.41271" stroke-width="0.5" stroke="black" fill="Red"/>
  <circle cx="553.905" cy="523.339" r="5.05167" stroke-width="0.5" stroke="Red" fill="Red"/>
   </g>
   <g id="cell126">
  <circle cx="553.154" cy="537.163" r="8.41271" stroke-width="0.5" stroke="black" fill="blue"/>
  <circle cx="553.154" cy="537.163" r="5.05167" stroke-width="0.5" stroke="blue" fill="blue"/>
   </g>
   <g id="cell127">
  <circle cx="553.726" cy="552.257" r="8.41271" stroke-width="0.5" stroke="black" fill="yellow"/>
  <circle cx="553.726" cy="552.257" r="5.05167" stroke-width="0.5" stroke="yellow" fill="yellow"/>
   </g>
   <g id="cell128">
  <circle cx="553.002" cy="566.617" r="8.41271" stroke-width="0.5" stroke="black" fill="yellow"/>
  <circle cx="553.002" cy="566.617" r="5.05167" stroke-width="0.5" stroke="yellow" fill="yellow"/>
   </g>
   <g id="cell129">
  <circle cx="566.084" cy="447.265" r="8.41271" stroke-width="0.5" stroke="black" fill="blue"/>
  <circle cx="566.084" cy="447.265" r="5.05167" stroke-width="0.5" stroke="blue" fill="blue"/>
   </g>
   <g id="cell130">
  <circle cx="566.953" cy="462.103" r="8.41271" stroke-width="0.5" stroke="black" fill="yellow"/>
  <circle cx="566.953" cy="462.103" r="5.05167" stroke-width="0.5" stroke="yellow" fill="yellow"/>
   </g>
   <g id="cell131">
  <circle cx="566.156" cy="476.07" r="8.41271" stroke-width="0.5" stroke="black" fill="yellow"/>
  <circle cx="566.156" cy="476.07" r="5.05167" stroke-width="0.5" stroke="yellow" fill="yellow"/>
   </g>
   <g id="cell132">
  <circle cx="564.667" cy="489.514" r="8.41271" stroke-width="0.5" stroke="black" fill="Red"/>
  <circle cx="564.667" cy="489.514" r="5.05167" stroke-width="0.5" stroke="Red" fill="Red"/>
   </g>
   <g id="cell133">
  <circle cx="564.916" cy="502.858" r="8.41271" stroke-width="0.5" stroke="black" fill="Red"/>
  <circle cx="564.916" cy="502.858" r="5.05167" stroke-width="0.5" stroke="Red" fill="Red"/>
   </g>
   <g id="cell134">
  <circle cx="565.935" cy="516.619" r="8.41271" stroke-width="0.5" stroke="black" fill="Red"/>
  <circle cx="565.935" cy="516.619" r="5.05167" stroke-width="0.5" stroke="Red" fill="Red"/>
   </g>
   <g id="cell135">
  <circle cx="565.727" cy="529.863" r="8.41271" stroke-width="0.5" stroke="black" fill="yellow"/>
  <circle cx="565.727" cy="529.863" r="5.05167" stroke-width="0.5" stroke="yellow" fill="yellow"/>
   </g>
   <g id="cell136">
  <circle cx="565.679" cy="544.845" r="8.41271" stroke-width="0.5" stroke="black" fill="yellow"/>
  <circle cx="565.679" cy="544.845" r="5.05167" stroke-width="0.5" stroke="yellow" fill="yellow"/>
   </g>
   <g id="cell137">
  <circle cx="565.149" cy="560.033" r="8.41271" stroke-width="0.5" stroke="black" fill="blue"/>
  <circle cx="565.149" cy="560.033" r="5.05167" stroke-width="0.5" stroke="blue" fill="blue"/>
   </g>
   <g id="cell138">
  <circle cx="578.112" cy="468.131" r="8.41271" stroke-width="0.5" stroke="black" fill="blue"/>
  <circle cx="578.112" cy="468.131" r="5.05167" stroke-width="0.5" stroke="blue" fill="blue"/>
   </g>
   <g id="cell139">
  <circle cx="579.118" cy="482.982" r="8.41271" stroke-width="0.5" stroke="black" fill="yellow"/>
  <circle cx="579.118" cy="482.982" r="5.05167" stroke-width="0.5" stroke="yellow" fill="yellow"/>
   </g>
   <g id="cell140">
  <circle cx="575.668" cy="495.076" r="6.89675" stroke-width="0.5" stroke="black" fill="yellow"/>
  <circle cx="575.668" cy="495.076" r="4.17024" stroke-width="0.5" stroke="yellow" fill="yellow"/>
   </g>
   <g id="cell141">
  <circle cx="577.68" cy="509.518" r="8.41271" stroke-width="0.5" stroke="black" fill="yellow"/>
  <circle cx="577.68" cy="509.518" r="5.05167" stroke-width="0.5" stroke="yellow" fill="yellow"/>
   </g>
   <g id="cell142">
  <circle cx="579.01" cy="523.418" r="8.41271" stroke-width="0.5" stroke="black" fill="yellow"/>
  <circle cx="579.01" cy="523.418" r="5.05167" stroke-width="0.5" stroke="yellow" fill="yellow"/>
   </g>
   <g id="cell143">
  <circle cx="576.869" cy="536.866" r="8.41271" stroke-width="0.5" stroke="black" fill="blue"/>
  <circle cx="576.869" cy="536.866" r="5.05167" stroke-width="0.5" stroke="blue" fill="blue"/>
   </g>
   <g id="cell144">
  <circle cx="439.017" cy="439.029" r="6.89675" stroke-width="0.5" stroke="black" fill="Red"/>
  <circle cx="439.017" cy="439.029" r="4.17024" stroke-width="0.5" stroke="Red" fill="Red"/>
   </g>
   <g id="cell145">
  <circle cx="585.719" cy="500.278" r="6.89675" stroke-width="0.5" stroke="black" fill="blue"/>
  <circle cx="585.719" cy="500.278" r="4.17024" stroke-width="0.5" stroke="blue" fill="blue"/>
   </g>
   <g id="cell146">
  <circle cx="478.695" cy="510.503" r="6.86652" stroke-width="0.5" stroke="black" fill="blue"/>
  <circle cx="478.695" cy="510.503" r="4.14883" stroke-width="0.5" stroke="blue" fill="blue"/>
   </g>
   <g id="cell147">
  <circle cx="529.06" cy="458.273" r="5.60504" stroke-width="0.5" stroke="black" fill="Red"/>
  <circle cx="529.06" cy="458.273" r="3.40505" stroke-width="0.5" stroke="Red" fill="Red"/>
   </g>
   <g id="cell148">
  <circle cx="523.615" cy="536.935" r="6.78181" stroke-width="0.5" stroke="black" fill="blue"/>
  <circle cx="523.615" cy="536.935" r="4.08714" stroke-width="0.5" stroke="blue" fill="blue"/>
   </g>
   <g id="cell149">
  <circle cx="534.506" cy="464.892" r="5.60504" stroke-width="0.5" stroke="black" fill="blue"/>
  <circle cx="534.506" cy="464.892" r="3.40505" stroke-width="0.5" stroke="blue" fill="blue"/>
   </g>
   <g id="cell150">
  <circle cx="440.857" cy="512.222" r="6.67717" stroke-width="0.5" stroke="black" fill="Red"/>
  <circle cx="440.857" cy="512.222" r="4.00951" stroke-width="0.5" stroke="Red" fill="Red"/>
   </g>
   <g id="cell151">
  <circle cx="448.986" cy="418.308" r="6.67717" stroke-width="0.5" stroke="black" fill="blue"/>
  <circle cx="448.986" cy="418.308" r="4.00951" stroke-width="0.5" stroke="blue" fill="blue"/>
   </g>
  </g>
 </g>
  <rect x="775" y="1035" width="200" height="10" stroke-width="2" stroke="rgb(255,255,255)" fill="rgb(0,0,0)"/>
  <text x="781.25" y="1028.75"
   font-family="Arial" font-size="25" fill="black" >
   200 &#956;m
  </text>
  <text x="25" y="1045"
   font-family="Arial" font-size="18.75" fill="black" >
   0 days, 0 hours, 0 minutes, and 19.5320 seconds
  </text>
  <rect x="0" y="70" width="1000" height="1000" stroke-width="2" stroke="rgb(0,0,0)" fill="none"/>
</svg>
