<?xml version="1.0" encoding="UTF-8" standalone="no"?>
<!-- Created with PhysiCell (http://PhysiCell.MathCancer.org/) -->
<svg 
 xmlns:dc="http://purl.org/dc/elements/1.1/" 
 xmlns:cc="http://creativecommons.org/ns#" 
 xmlns:rdf="http://www.w3.org/1999/02/22-rdf-syntax-ns#" 
 xmlns:svg="http://www.w3.org/2000/svg" 
 xmlns="http://www.w3.org/2000/svg" 
 version="1.1" 
 width="1000" 
 height="1070" 
 id="svg2">
  <rect x="0" y="0" width="1000" height="1070" stroke-width="2" stroke="white" fill="white"/>
  <text x="12.5" y="30"
   font-family="Arial" font-size="25" fill="black" >
   Current time: 0 days, 1 hours, and 25.00 minutes, z = 0.00 &#956;m
  </text>
  <text x="12.5" y="57.5"
   font-family="Arial" font-size="23.75" fill="black" >
   156 agents
  </text>
 <g id="tissue" 
    transform="translate(0,1070) scale(1,-1)">
  <g id="ECM">
  </g>
  <g id="cells">
   <g id="cell0">
  <circle cx="423.77" cy="452.883" r="8.41271" stroke-width="0.5" stroke="black" fill="blue"/>
  <circle cx="423.77" cy="452.883" r="5.05167" stroke-width="0.5" stroke="blue" fill="blue"/>
   </g>
   <g id="cell1">
  <circle cx="424.365" cy="467.677" r="8.41271" stroke-width="0.5" stroke="black" fill="yellow"/>
  <circle cx="424.365" cy="467.677" r="5.05167" stroke-width="0.5" stroke="yellow" fill="yellow"/>
   </g>
   <g id="cell2">
  <circle cx="425.738" cy="482.741" r="8.41271" stroke-width="0.5" stroke="black" fill="blue"/>
  <circle cx="425.738" cy="482.741" r="5.05167" stroke-width="0.5" stroke="blue" fill="blue"/>
   </g>
   <g id="cell3">
  <circle cx="427.146" cy="495.826" r="8.41271" stroke-width="0.5" stroke="black" fill="Red"/>
  <circle cx="427.146" cy="495.826" r="5.05167" stroke-width="0.5" stroke="Red" fill="Red"/>
   </g>
   <g id="cell4">
  <circle cx="428.807" cy="509.964" r="8.41271" stroke-width="0.5" stroke="black" fill="blue"/>
  <circle cx="428.807" cy="509.964" r="5.05167" stroke-width="0.5" stroke="blue" fill="blue"/>
   </g>
   <g id="cell5">
  <circle cx="425.286" cy="523.169" r="8.41271" stroke-width="0.5" stroke="black" fill="yellow"/>
  <circle cx="425.286" cy="523.169" r="5.05167" stroke-width="0.5" stroke="yellow" fill="yellow"/>
   </g>
   <g id="cell6">
  <circle cx="425.478" cy="536.808" r="8.41271" stroke-width="0.5" stroke="black" fill="blue"/>
  <circle cx="425.478" cy="536.808" r="5.05167" stroke-width="0.5" stroke="blue" fill="blue"/>
   </g>
   <g id="cell7">
  <circle cx="436.454" cy="448.012" r="6.99069" stroke-width="0.5" stroke="black" fill="yellow"/>
  <circle cx="436.454" cy="448.012" r="4.23498" stroke-width="0.5" stroke="yellow" fill="yellow"/>
   </g>
   <g id="cell8">
  <circle cx="437.382" cy="461.258" r="8.41271" stroke-width="0.5" stroke="black" fill="yellow"/>
  <circle cx="437.382" cy="461.258" r="5.05167" stroke-width="0.5" stroke="yellow" fill="yellow"/>
   </g>
   <g id="cell9">
  <circle cx="437.521" cy="474.402" r="8.41271" stroke-width="0.5" stroke="black" fill="Red"/>
  <circle cx="437.521" cy="474.402" r="5.05167" stroke-width="0.5" stroke="Red" fill="Red"/>
   </g>
   <g id="cell10">
  <circle cx="437.991" cy="487.733" r="8.41271" stroke-width="0.5" stroke="black" fill="Red"/>
  <circle cx="437.991" cy="487.733" r="5.05167" stroke-width="0.5" stroke="Red" fill="Red"/>
   </g>
   <g id="cell11">
  <circle cx="440.049" cy="501.129" r="8.41271" stroke-width="0.5" stroke="black" fill="Red"/>
  <circle cx="440.049" cy="501.129" r="5.05167" stroke-width="0.5" stroke="Red" fill="Red"/>
   </g>
   <g id="cell12">
  <circle cx="437.103" cy="518.866" r="6.73287" stroke-width="0.5" stroke="black" fill="Red"/>
  <circle cx="437.103" cy="518.866" r="4.05039" stroke-width="0.5" stroke="Red" fill="Red"/>
   </g>
   <g id="cell13">
  <circle cx="438.954" cy="531.182" r="8.41271" stroke-width="0.5" stroke="black" fill="Red"/>
  <circle cx="438.954" cy="531.182" r="5.05167" stroke-width="0.5" stroke="Red" fill="Red"/>
   </g>
   <g id="cell14">
  <circle cx="438.425" cy="545.849" r="8.41271" stroke-width="0.5" stroke="black" fill="yellow"/>
  <circle cx="438.425" cy="545.849" r="5.05167" stroke-width="0.5" stroke="yellow" fill="yellow"/>
   </g>
   <g id="cell15">
  <circle cx="439.49" cy="561.034" r="8.41271" stroke-width="0.5" stroke="black" fill="blue"/>
  <circle cx="439.49" cy="561.034" r="5.05167" stroke-width="0.5" stroke="blue" fill="blue"/>
   </g>
   <g id="cell16">
  <circle cx="453.076" cy="429.34" r="5.34389" stroke-width="0.5" stroke="black" fill="yellow"/>
  <circle cx="453.076" cy="429.34" r="3.2148" stroke-width="0.5" stroke="yellow" fill="yellow"/>
   </g>
   <g id="cell17">
  <circle cx="452.012" cy="440.852" r="8.41271" stroke-width="0.5" stroke="black" fill="Red"/>
  <circle cx="452.012" cy="440.852" r="5.05167" stroke-width="0.5" stroke="Red" fill="Red"/>
   </g>
   <g id="cell18">
  <circle cx="449.124" cy="453.516" r="8.41271" stroke-width="0.5" stroke="black" fill="Red"/>
  <circle cx="449.124" cy="453.516" r="5.05167" stroke-width="0.5" stroke="Red" fill="Red"/>
   </g>
   <g id="cell19">
  <circle cx="450.744" cy="467.922" r="8.41271" stroke-width="0.5" stroke="black" fill="blue"/>
  <circle cx="450.744" cy="467.922" r="5.05167" stroke-width="0.5" stroke="blue" fill="blue"/>
   </g>
   <g id="cell20">
  <circle cx="449.914" cy="480.503" r="8.41271" stroke-width="0.5" stroke="black" fill="Red"/>
  <circle cx="449.914" cy="480.503" r="5.05167" stroke-width="0.5" stroke="Red" fill="Red"/>
   </g>
   <g id="cell21">
  <circle cx="450.978" cy="493.708" r="8.41271" stroke-width="0.5" stroke="black" fill="blue"/>
  <circle cx="450.978" cy="493.708" r="5.05167" stroke-width="0.5" stroke="blue" fill="blue"/>
   </g>
   <g id="cell22">
  <circle cx="453.177" cy="506.783" r="8.41271" stroke-width="0.5" stroke="black" fill="blue"/>
  <circle cx="453.177" cy="506.783" r="5.05167" stroke-width="0.5" stroke="blue" fill="blue"/>
   </g>
   <g id="cell23">
  <circle cx="449.715" cy="522.18" r="8.41271" stroke-width="0.5" stroke="black" fill="Red"/>
  <circle cx="449.715" cy="522.18" r="5.05167" stroke-width="0.5" stroke="Red" fill="Red"/>
   </g>
   <g id="cell24">
  <circle cx="451.025" cy="537.567" r="8.41271" stroke-width="0.5" stroke="black" fill="Red"/>
  <circle cx="451.025" cy="537.567" r="5.05167" stroke-width="0.5" stroke="Red" fill="Red"/>
   </g>
   <g id="cell25">
  <circle cx="452.277" cy="552.786" r="8.41271" stroke-width="0.5" stroke="black" fill="yellow"/>
  <circle cx="452.277" cy="552.786" r="5.05167" stroke-width="0.5" stroke="yellow" fill="yellow"/>
   </g>
   <g id="cell26">
  <circle cx="452.614" cy="568.467" r="8.41271" stroke-width="0.5" stroke="black" fill="yellow"/>
  <circle cx="452.614" cy="568.467" r="5.05167" stroke-width="0.5" stroke="yellow" fill="yellow"/>
   </g>
   <g id="cell27">
  <circle cx="460.093" cy="419.325" r="8.41271" stroke-width="0.5" stroke="black" fill="yellow"/>
  <circle cx="460.093" cy="419.325" r="5.05167" stroke-width="0.5" stroke="yellow" fill="yellow"/>
   </g>
   <g id="cell28">
  <circle cx="463.366" cy="433.296" r="8.41271" stroke-width="0.5" stroke="black" fill="Red"/>
  <circle cx="463.366" cy="433.296" r="5.05167" stroke-width="0.5" stroke="Red" fill="Red"/>
   </g>
   <g id="cell29">
  <circle cx="463.683" cy="447.13" r="8.41271" stroke-width="0.5" stroke="black" fill="blue"/>
  <circle cx="463.683" cy="447.13" r="5.05167" stroke-width="0.5" stroke="blue" fill="blue"/>
   </g>
   <g id="cell30">
  <circle cx="463.671" cy="460.793" r="8.41271" stroke-width="0.5" stroke="black" fill="Red"/>
  <circle cx="463.671" cy="460.793" r="5.05167" stroke-width="0.5" stroke="Red" fill="Red"/>
   </g>
   <g id="cell31">
  <circle cx="462.148" cy="474.243" r="8.41271" stroke-width="0.5" stroke="black" fill="Red"/>
  <circle cx="462.148" cy="474.243" r="5.05167" stroke-width="0.5" stroke="Red" fill="Red"/>
   </g>
   <g id="cell32">
  <circle cx="464.015" cy="486.057" r="8.41271" stroke-width="0.5" stroke="black" fill="Red"/>
  <circle cx="464.015" cy="486.057" r="5.05167" stroke-width="0.5" stroke="Red" fill="Red"/>
   </g>
   <g id="cell33">
  <circle cx="463.569" cy="500.038" r="8.41271" stroke-width="0.5" stroke="black" fill="blue"/>
  <circle cx="463.569" cy="500.038" r="5.05167" stroke-width="0.5" stroke="blue" fill="blue"/>
   </g>
   <g id="cell34">
  <circle cx="462.881" cy="517.09" r="8.41271" stroke-width="0.5" stroke="black" fill="Red"/>
  <circle cx="462.881" cy="517.09" r="5.05167" stroke-width="0.5" stroke="Red" fill="Red"/>
   </g>
   <g id="cell35">
  <circle cx="463.162" cy="530.044" r="8.41271" stroke-width="0.5" stroke="black" fill="blue"/>
  <circle cx="463.162" cy="530.044" r="5.05167" stroke-width="0.5" stroke="blue" fill="blue"/>
   </g>
   <g id="cell36">
  <circle cx="463.672" cy="543.484" r="8.41271" stroke-width="0.5" stroke="black" fill="Red"/>
  <circle cx="463.672" cy="543.484" r="5.05167" stroke-width="0.5" stroke="Red" fill="Red"/>
   </g>
   <g id="cell37">
  <circle cx="465.265" cy="558.898" r="8.41271" stroke-width="0.5" stroke="black" fill="Red"/>
  <circle cx="465.265" cy="558.898" r="5.05167" stroke-width="0.5" stroke="Red" fill="Red"/>
   </g>
   <g id="cell38">
  <circle cx="466.412" cy="571.686" r="8.41271" stroke-width="0.5" stroke="black" fill="Red"/>
  <circle cx="466.412" cy="571.686" r="5.05167" stroke-width="0.5" stroke="Red" fill="Red"/>
   </g>
   <g id="cell39">
  <circle cx="460.019" cy="583.448" r="8.41271" stroke-width="0.5" stroke="black" fill="blue"/>
  <circle cx="460.019" cy="583.448" r="5.05167" stroke-width="0.5" stroke="blue" fill="blue"/>
   </g>
   <g id="cell40">
  <circle cx="472.155" cy="412.951" r="8.41271" stroke-width="0.5" stroke="black" fill="blue"/>
  <circle cx="472.155" cy="412.951" r="5.05167" stroke-width="0.5" stroke="blue" fill="blue"/>
   </g>
   <g id="cell41">
  <circle cx="475.321" cy="426.15" r="8.41271" stroke-width="0.5" stroke="black" fill="yellow"/>
  <circle cx="475.321" cy="426.15" r="5.05167" stroke-width="0.5" stroke="yellow" fill="yellow"/>
   </g>
   <g id="cell42">
  <circle cx="475.315" cy="440.404" r="8.41271" stroke-width="0.5" stroke="black" fill="Red"/>
  <circle cx="475.315" cy="440.404" r="5.05167" stroke-width="0.5" stroke="Red" fill="Red"/>
   </g>
   <g id="cell43">
  <circle cx="474.624" cy="453.667" r="8.41271" stroke-width="0.5" stroke="black" fill="Red"/>
  <circle cx="474.624" cy="453.667" r="5.05167" stroke-width="0.5" stroke="Red" fill="Red"/>
   </g>
   <g id="cell44">
  <circle cx="473.707" cy="468.839" r="8.41271" stroke-width="0.5" stroke="black" fill="blue"/>
  <circle cx="473.707" cy="468.839" r="5.05167" stroke-width="0.5" stroke="blue" fill="blue"/>
   </g>
   <g id="cell45">
  <circle cx="476.401" cy="482.429" r="8.41271" stroke-width="0.5" stroke="black" fill="Red"/>
  <circle cx="476.401" cy="482.429" r="5.05167" stroke-width="0.5" stroke="Red" fill="Red"/>
   </g>
   <g id="cell46">
  <circle cx="476.831" cy="497.028" r="8.41271" stroke-width="0.5" stroke="black" fill="Red"/>
  <circle cx="476.831" cy="497.028" r="5.05167" stroke-width="0.5" stroke="Red" fill="Red"/>
   </g>
   <g id="cell47">
  <circle cx="472.132" cy="508.062" r="6.95901" stroke-width="0.5" stroke="black" fill="Red"/>
  <circle cx="472.132" cy="508.062" r="4.21341" stroke-width="0.5" stroke="Red" fill="Red"/>
   </g>
   <g id="cell48">
  <circle cx="475.617" cy="522.192" r="8.41271" stroke-width="0.5" stroke="black" fill="Red"/>
  <circle cx="475.617" cy="522.192" r="5.05167" stroke-width="0.5" stroke="Red" fill="Red"/>
   </g>
   <g id="cell49">
  <circle cx="475.239" cy="536.35" r="8.41271" stroke-width="0.5" stroke="black" fill="Red"/>
  <circle cx="475.239" cy="536.35" r="5.05167" stroke-width="0.5" stroke="Red" fill="Red"/>
   </g>
   <g id="cell50">
  <circle cx="476.773" cy="550.163" r="8.41271" stroke-width="0.5" stroke="black" fill="Red"/>
  <circle cx="476.773" cy="550.163" r="5.05167" stroke-width="0.5" stroke="Red" fill="Red"/>
   </g>
   <g id="cell51">
  <circle cx="477.803" cy="564.417" r="8.41271" stroke-width="0.5" stroke="black" fill="Red"/>
  <circle cx="477.803" cy="564.417" r="5.05167" stroke-width="0.5" stroke="Red" fill="Red"/>
   </g>
   <g id="cell52">
  <circle cx="478.338" cy="579.479" r="8.41271" stroke-width="0.5" stroke="black" fill="Red"/>
  <circle cx="478.338" cy="579.479" r="5.05167" stroke-width="0.5" stroke="Red" fill="Red"/>
   </g>
   <g id="cell53">
  <circle cx="487.609" cy="417.919" r="8.41271" stroke-width="0.5" stroke="black" fill="yellow"/>
  <circle cx="487.609" cy="417.919" r="5.05167" stroke-width="0.5" stroke="yellow" fill="yellow"/>
   </g>
   <g id="cell54">
  <circle cx="487.017" cy="435.426" r="8.41271" stroke-width="0.5" stroke="black" fill="blue"/>
  <circle cx="487.017" cy="435.426" r="5.05167" stroke-width="0.5" stroke="blue" fill="blue"/>
   </g>
   <g id="cell55">
  <circle cx="487.436" cy="449.368" r="8.41271" stroke-width="0.5" stroke="black" fill="Red"/>
  <circle cx="487.436" cy="449.368" r="5.05167" stroke-width="0.5" stroke="Red" fill="Red"/>
   </g>
   <g id="cell56">
  <circle cx="490.227" cy="462.054" r="6.69288" stroke-width="0.5" stroke="black" fill="Red"/>
  <circle cx="490.227" cy="462.054" r="4.02051" stroke-width="0.5" stroke="Red" fill="Red"/>
   </g>
   <g id="cell57">
  <circle cx="487.965" cy="474.258" r="8.41271" stroke-width="0.5" stroke="black" fill="Red"/>
  <circle cx="487.965" cy="474.258" r="5.05167" stroke-width="0.5" stroke="Red" fill="Red"/>
   </g>
   <g id="cell58">
  <circle cx="487.852" cy="489.194" r="8.41271" stroke-width="0.5" stroke="black" fill="blue"/>
  <circle cx="487.852" cy="489.194" r="5.05167" stroke-width="0.5" stroke="blue" fill="blue"/>
   </g>
   <g id="cell59">
  <circle cx="488.7" cy="503.23" r="8.41271" stroke-width="0.5" stroke="black" fill="Red"/>
  <circle cx="488.7" cy="503.23" r="5.05167" stroke-width="0.5" stroke="Red" fill="Red"/>
   </g>
   <g id="cell60">
  <circle cx="491.331" cy="516.459" r="8.41271" stroke-width="0.5" stroke="black" fill="Red"/>
  <circle cx="491.331" cy="516.459" r="5.05167" stroke-width="0.5" stroke="Red" fill="Red"/>
   </g>
   <g id="cell61">
  <circle cx="488.379" cy="530.497" r="8.41271" stroke-width="0.5" stroke="black" fill="Red"/>
  <circle cx="488.379" cy="530.497" r="5.05167" stroke-width="0.5" stroke="Red" fill="Red"/>
   </g>
   <g id="cell62">
  <circle cx="488.11" cy="543.631" r="8.41271" stroke-width="0.5" stroke="black" fill="blue"/>
  <circle cx="488.11" cy="543.631" r="5.05167" stroke-width="0.5" stroke="blue" fill="blue"/>
   </g>
   <g id="cell63">
  <circle cx="489.755" cy="557.4" r="8.41271" stroke-width="0.5" stroke="black" fill="Red"/>
  <circle cx="489.755" cy="557.4" r="5.05167" stroke-width="0.5" stroke="Red" fill="Red"/>
   </g>
   <g id="cell64">
  <circle cx="490.414" cy="572.266" r="8.41271" stroke-width="0.5" stroke="black" fill="Red"/>
  <circle cx="490.414" cy="572.266" r="5.05167" stroke-width="0.5" stroke="Red" fill="Red"/>
   </g>
   <g id="cell65">
  <circle cx="491.09" cy="586.045" r="8.41271" stroke-width="0.5" stroke="black" fill="yellow"/>
  <circle cx="491.09" cy="586.045" r="5.05167" stroke-width="0.5" stroke="yellow" fill="yellow"/>
   </g>
   <g id="cell66">
  <circle cx="502.043" cy="410.667" r="8.41271" stroke-width="0.5" stroke="black" fill="blue"/>
  <circle cx="502.043" cy="410.667" r="5.05167" stroke-width="0.5" stroke="blue" fill="blue"/>
   </g>
   <g id="cell67">
  <circle cx="500.647" cy="427.163" r="8.41271" stroke-width="0.5" stroke="black" fill="yellow"/>
  <circle cx="500.647" cy="427.163" r="5.05167" stroke-width="0.5" stroke="yellow" fill="yellow"/>
   </g>
   <g id="cell68">
  <circle cx="499.173" cy="442.009" r="8.41271" stroke-width="0.5" stroke="black" fill="Red"/>
  <circle cx="499.173" cy="442.009" r="5.05167" stroke-width="0.5" stroke="Red" fill="Red"/>
   </g>
   <g id="cell69">
  <circle cx="499.99" cy="455.591" r="8.41271" stroke-width="0.5" stroke="black" fill="blue"/>
  <circle cx="499.99" cy="455.591" r="5.05167" stroke-width="0.5" stroke="blue" fill="blue"/>
   </g>
   <g id="cell70">
  <circle cx="500.332" cy="468.751" r="8.41271" stroke-width="0.5" stroke="black" fill="blue"/>
  <circle cx="500.332" cy="468.751" r="5.05167" stroke-width="0.5" stroke="blue" fill="blue"/>
   </g>
   <g id="cell71">
  <circle cx="500.867" cy="481.91" r="8.41271" stroke-width="0.5" stroke="black" fill="Red"/>
  <circle cx="500.867" cy="481.91" r="5.05167" stroke-width="0.5" stroke="Red" fill="Red"/>
   </g>
   <g id="cell72">
  <circle cx="501.316" cy="495.661" r="8.41271" stroke-width="0.5" stroke="black" fill="Red"/>
  <circle cx="501.316" cy="495.661" r="5.05167" stroke-width="0.5" stroke="Red" fill="Red"/>
   </g>
   <g id="cell73">
  <circle cx="501.974" cy="509.393" r="8.41271" stroke-width="0.5" stroke="black" fill="blue"/>
  <circle cx="501.974" cy="509.393" r="5.05167" stroke-width="0.5" stroke="blue" fill="blue"/>
   </g>
   <g id="cell74">
  <circle cx="501.726" cy="523.744" r="8.41271" stroke-width="0.5" stroke="black" fill="Red"/>
  <circle cx="501.726" cy="523.744" r="5.05167" stroke-width="0.5" stroke="Red" fill="Red"/>
   </g>
   <g id="cell75">
  <circle cx="500.831" cy="538.378" r="8.41271" stroke-width="0.5" stroke="black" fill="Red"/>
  <circle cx="500.831" cy="538.378" r="5.05167" stroke-width="0.5" stroke="Red" fill="Red"/>
   </g>
   <g id="cell76">
  <circle cx="501.682" cy="550.794" r="8.41271" stroke-width="0.5" stroke="black" fill="Red"/>
  <circle cx="501.682" cy="550.794" r="5.05167" stroke-width="0.5" stroke="Red" fill="Red"/>
   </g>
   <g id="cell77">
  <circle cx="501.858" cy="565.017" r="8.41271" stroke-width="0.5" stroke="black" fill="Red"/>
  <circle cx="501.858" cy="565.017" r="5.05167" stroke-width="0.5" stroke="Red" fill="Red"/>
   </g>
   <g id="cell78">
  <circle cx="502.152" cy="579.111" r="8.41271" stroke-width="0.5" stroke="black" fill="Red"/>
  <circle cx="502.152" cy="579.111" r="5.05167" stroke-width="0.5" stroke="Red" fill="Red"/>
   </g>
   <g id="cell79">
  <circle cx="503.593" cy="592.678" r="8.41271" stroke-width="0.5" stroke="black" fill="blue"/>
  <circle cx="503.593" cy="592.678" r="5.05167" stroke-width="0.5" stroke="blue" fill="blue"/>
   </g>
   <g id="cell80">
  <circle cx="514.347" cy="417.487" r="8.41271" stroke-width="0.5" stroke="black" fill="yellow"/>
  <circle cx="514.347" cy="417.487" r="5.05167" stroke-width="0.5" stroke="yellow" fill="yellow"/>
   </g>
   <g id="cell81">
  <circle cx="511.766" cy="434.702" r="8.41271" stroke-width="0.5" stroke="black" fill="Red"/>
  <circle cx="511.766" cy="434.702" r="5.05167" stroke-width="0.5" stroke="Red" fill="Red"/>
   </g>
   <g id="cell82">
  <circle cx="511.816" cy="447.237" r="8.41271" stroke-width="0.5" stroke="black" fill="Red"/>
  <circle cx="511.816" cy="447.237" r="5.05167" stroke-width="0.5" stroke="Red" fill="Red"/>
   </g>
   <g id="cell83">
  <circle cx="513.089" cy="460.569" r="8.41271" stroke-width="0.5" stroke="black" fill="Red"/>
  <circle cx="513.089" cy="460.569" r="5.05167" stroke-width="0.5" stroke="Red" fill="Red"/>
   </g>
   <g id="cell84">
  <circle cx="512.464" cy="474.223" r="8.41271" stroke-width="0.5" stroke="black" fill="Red"/>
  <circle cx="512.464" cy="474.223" r="5.05167" stroke-width="0.5" stroke="Red" fill="Red"/>
   </g>
   <g id="cell85">
  <circle cx="513.465" cy="488.075" r="8.41271" stroke-width="0.5" stroke="black" fill="Red"/>
  <circle cx="513.465" cy="488.075" r="5.05167" stroke-width="0.5" stroke="Red" fill="Red"/>
   </g>
   <g id="cell86">
  <circle cx="514.09" cy="502.1" r="8.41271" stroke-width="0.5" stroke="black" fill="Red"/>
  <circle cx="514.09" cy="502.1" r="5.05167" stroke-width="0.5" stroke="Red" fill="Red"/>
   </g>
   <g id="cell87">
  <circle cx="515.354" cy="516.032" r="8.41271" stroke-width="0.5" stroke="black" fill="Red"/>
  <circle cx="515.354" cy="516.032" r="5.05167" stroke-width="0.5" stroke="Red" fill="Red"/>
   </g>
   <g id="cell88">
  <circle cx="513.294" cy="529.472" r="8.41271" stroke-width="0.5" stroke="black" fill="Red"/>
  <circle cx="513.294" cy="529.472" r="5.05167" stroke-width="0.5" stroke="Red" fill="Red"/>
   </g>
   <g id="cell89">
  <circle cx="512.972" cy="543.494" r="8.41271" stroke-width="0.5" stroke="black" fill="Red"/>
  <circle cx="512.972" cy="543.494" r="5.05167" stroke-width="0.5" stroke="Red" fill="Red"/>
   </g>
   <g id="cell90">
  <circle cx="513.975" cy="557.486" r="8.41271" stroke-width="0.5" stroke="black" fill="blue"/>
  <circle cx="513.975" cy="557.486" r="5.05167" stroke-width="0.5" stroke="blue" fill="blue"/>
   </g>
   <g id="cell91">
  <circle cx="513.681" cy="570.964" r="8.41271" stroke-width="0.5" stroke="black" fill="Red"/>
  <circle cx="513.681" cy="570.964" r="5.05167" stroke-width="0.5" stroke="Red" fill="Red"/>
   </g>
   <g id="cell92">
  <circle cx="515.914" cy="585.762" r="8.41271" stroke-width="0.5" stroke="black" fill="Red"/>
  <circle cx="515.914" cy="585.762" r="5.05167" stroke-width="0.5" stroke="Red" fill="Red"/>
   </g>
   <g id="cell93">
  <circle cx="529.072" cy="412.614" r="8.41271" stroke-width="0.5" stroke="black" fill="blue"/>
  <circle cx="529.072" cy="412.614" r="5.05167" stroke-width="0.5" stroke="blue" fill="blue"/>
   </g>
   <g id="cell94">
  <circle cx="529.653" cy="426.127" r="6.67717" stroke-width="0.5" stroke="black" fill="yellow"/>
  <circle cx="529.653" cy="426.127" r="4.00951" stroke-width="0.5" stroke="yellow" fill="yellow"/>
   </g>
   <g id="cell95">
  <circle cx="524.602" cy="440.183" r="8.41271" stroke-width="0.5" stroke="black" fill="Red"/>
  <circle cx="524.602" cy="440.183" r="5.05167" stroke-width="0.5" stroke="Red" fill="Red"/>
   </g>
   <g id="cell96">
  <circle cx="522.614" cy="453.296" r="6.95901" stroke-width="0.5" stroke="black" fill="Red"/>
  <circle cx="522.614" cy="453.296" r="4.21341" stroke-width="0.5" stroke="Red" fill="Red"/>
   </g>
   <g id="cell97">
  <circle cx="524.448" cy="467.421" r="8.41271" stroke-width="0.5" stroke="black" fill="Red"/>
  <circle cx="524.448" cy="467.421" r="5.05167" stroke-width="0.5" stroke="Red" fill="Red"/>
   </g>
   <g id="cell98">
  <circle cx="526.099" cy="481.237" r="8.41271" stroke-width="0.5" stroke="black" fill="blue"/>
  <circle cx="526.099" cy="481.237" r="5.05167" stroke-width="0.5" stroke="blue" fill="blue"/>
   </g>
   <g id="cell99">
  <circle cx="526.514" cy="495.064" r="8.41271" stroke-width="0.5" stroke="black" fill="Red"/>
  <circle cx="526.514" cy="495.064" r="5.05167" stroke-width="0.5" stroke="Red" fill="Red"/>
   </g>
   <g id="cell100">
  <circle cx="526.926" cy="508.804" r="8.41271" stroke-width="0.5" stroke="black" fill="blue"/>
  <circle cx="526.926" cy="508.804" r="5.05167" stroke-width="0.5" stroke="blue" fill="blue"/>
   </g>
   <g id="cell101">
  <circle cx="527.701" cy="524.217" r="8.41271" stroke-width="0.5" stroke="black" fill="Red"/>
  <circle cx="527.701" cy="524.217" r="5.05167" stroke-width="0.5" stroke="Red" fill="Red"/>
   </g>
   <g id="cell102">
  <circle cx="532.696" cy="536.138" r="6.86652" stroke-width="0.5" stroke="black" fill="blue"/>
  <circle cx="532.696" cy="536.138" r="4.14883" stroke-width="0.5" stroke="blue" fill="blue"/>
   </g>
   <g id="cell103">
  <circle cx="526.378" cy="550.061" r="8.41271" stroke-width="0.5" stroke="black" fill="Red"/>
  <circle cx="526.378" cy="550.061" r="5.05167" stroke-width="0.5" stroke="Red" fill="Red"/>
   </g>
   <g id="cell104">
  <circle cx="527.085" cy="563.693" r="8.41271" stroke-width="0.5" stroke="black" fill="Red"/>
  <circle cx="527.085" cy="563.693" r="5.05167" stroke-width="0.5" stroke="Red" fill="Red"/>
   </g>
   <g id="cell105">
  <circle cx="527.312" cy="577.414" r="8.41271" stroke-width="0.5" stroke="black" fill="blue"/>
  <circle cx="527.312" cy="577.414" r="5.05167" stroke-width="0.5" stroke="blue" fill="blue"/>
   </g>
   <g id="cell106">
  <circle cx="540.743" cy="421.11" r="8.41271" stroke-width="0.5" stroke="black" fill="yellow"/>
  <circle cx="540.743" cy="421.11" r="5.05167" stroke-width="0.5" stroke="yellow" fill="yellow"/>
   </g>
   <g id="cell107">
  <circle cx="539.033" cy="434.709" r="8.41271" stroke-width="0.5" stroke="black" fill="yellow"/>
  <circle cx="539.033" cy="434.709" r="5.05167" stroke-width="0.5" stroke="yellow" fill="yellow"/>
   </g>
   <g id="cell108">
  <circle cx="536.244" cy="448.335" r="8.41271" stroke-width="0.5" stroke="black" fill="Red"/>
  <circle cx="536.244" cy="448.335" r="5.05167" stroke-width="0.5" stroke="Red" fill="Red"/>
   </g>
   <g id="cell109">
  <circle cx="542.393" cy="460.668" r="8.41271" stroke-width="0.5" stroke="black" fill="Red"/>
  <circle cx="542.393" cy="460.668" r="5.05167" stroke-width="0.5" stroke="Red" fill="Red"/>
   </g>
   <g id="cell110">
  <circle cx="539.474" cy="474.391" r="8.41271" stroke-width="0.5" stroke="black" fill="Red"/>
  <circle cx="539.474" cy="474.391" r="5.05167" stroke-width="0.5" stroke="Red" fill="Red"/>
   </g>
   <g id="cell111">
  <circle cx="538.827" cy="488.269" r="8.41271" stroke-width="0.5" stroke="black" fill="Red"/>
  <circle cx="538.827" cy="488.269" r="5.05167" stroke-width="0.5" stroke="Red" fill="Red"/>
   </g>
   <g id="cell112">
  <circle cx="539.12" cy="501.243" r="8.41271" stroke-width="0.5" stroke="black" fill="Red"/>
  <circle cx="539.12" cy="501.243" r="5.05167" stroke-width="0.5" stroke="Red" fill="Red"/>
   </g>
   <g id="cell113">
  <circle cx="539.414" cy="515.724" r="8.41271" stroke-width="0.5" stroke="black" fill="Red"/>
  <circle cx="539.414" cy="515.724" r="5.05167" stroke-width="0.5" stroke="Red" fill="Red"/>
   </g>
   <g id="cell114">
  <circle cx="542.191" cy="529.203" r="8.41271" stroke-width="0.5" stroke="black" fill="Red"/>
  <circle cx="542.191" cy="529.203" r="5.05167" stroke-width="0.5" stroke="Red" fill="Red"/>
   </g>
   <g id="cell115">
  <circle cx="541.243" cy="544.254" r="8.41271" stroke-width="0.5" stroke="black" fill="Red"/>
  <circle cx="541.243" cy="544.254" r="5.05167" stroke-width="0.5" stroke="Red" fill="Red"/>
   </g>
   <g id="cell116">
  <circle cx="540.019" cy="557.458" r="8.41271" stroke-width="0.5" stroke="black" fill="Red"/>
  <circle cx="540.019" cy="557.458" r="5.05167" stroke-width="0.5" stroke="Red" fill="Red"/>
   </g>
   <g id="cell117">
  <circle cx="538.454" cy="571.621" r="8.41271" stroke-width="0.5" stroke="black" fill="blue"/>
  <circle cx="538.454" cy="571.621" r="5.05167" stroke-width="0.5" stroke="blue" fill="blue"/>
   </g>
   <g id="cell118">
  <circle cx="552.427" cy="427.824" r="8.41271" stroke-width="0.5" stroke="black" fill="blue"/>
  <circle cx="552.427" cy="427.824" r="5.05167" stroke-width="0.5" stroke="blue" fill="blue"/>
   </g>
   <g id="cell119">
  <circle cx="552.113" cy="441.161" r="8.41271" stroke-width="0.5" stroke="black" fill="yellow"/>
  <circle cx="552.113" cy="441.161" r="5.05167" stroke-width="0.5" stroke="yellow" fill="yellow"/>
   </g>
   <g id="cell120">
  <circle cx="554.17" cy="454.276" r="8.41271" stroke-width="0.5" stroke="black" fill="yellow"/>
  <circle cx="554.17" cy="454.276" r="5.05167" stroke-width="0.5" stroke="yellow" fill="yellow"/>
   </g>
   <g id="cell121">
  <circle cx="553.327" cy="467.602" r="8.41271" stroke-width="0.5" stroke="black" fill="blue"/>
  <circle cx="553.327" cy="467.602" r="5.05167" stroke-width="0.5" stroke="blue" fill="blue"/>
   </g>
   <g id="cell122">
  <circle cx="552.481" cy="481.409" r="8.41271" stroke-width="0.5" stroke="black" fill="Red"/>
  <circle cx="552.481" cy="481.409" r="5.05167" stroke-width="0.5" stroke="Red" fill="Red"/>
   </g>
   <g id="cell123">
  <circle cx="552.019" cy="494.712" r="8.41271" stroke-width="0.5" stroke="black" fill="Red"/>
  <circle cx="552.019" cy="494.712" r="5.05167" stroke-width="0.5" stroke="Red" fill="Red"/>
   </g>
   <g id="cell124">
  <circle cx="552.019" cy="509.429" r="8.41271" stroke-width="0.5" stroke="black" fill="blue"/>
  <circle cx="552.019" cy="509.429" r="5.05167" stroke-width="0.5" stroke="blue" fill="blue"/>
   </g>
   <g id="cell125">
  <circle cx="550.813" cy="522.086" r="6.67717" stroke-width="0.5" stroke="black" fill="Red"/>
  <circle cx="550.813" cy="522.086" r="4.00951" stroke-width="0.5" stroke="Red" fill="Red"/>
   </g>
   <g id="cell126">
  <circle cx="554.617" cy="537.598" r="8.41271" stroke-width="0.5" stroke="black" fill="blue"/>
  <circle cx="554.617" cy="537.598" r="5.05167" stroke-width="0.5" stroke="blue" fill="blue"/>
   </g>
   <g id="cell127">
  <circle cx="553.353" cy="552.031" r="8.41271" stroke-width="0.5" stroke="black" fill="yellow"/>
  <circle cx="553.353" cy="552.031" r="5.05167" stroke-width="0.5" stroke="yellow" fill="yellow"/>
   </g>
   <g id="cell128">
  <circle cx="551.637" cy="566.698" r="8.41271" stroke-width="0.5" stroke="black" fill="yellow"/>
  <circle cx="551.637" cy="566.698" r="5.05167" stroke-width="0.5" stroke="yellow" fill="yellow"/>
   </g>
   <g id="cell129">
  <circle cx="565.149" cy="446.102" r="8.41271" stroke-width="0.5" stroke="black" fill="blue"/>
  <circle cx="565.149" cy="446.102" r="5.05167" stroke-width="0.5" stroke="blue" fill="blue"/>
   </g>
   <g id="cell130">
  <circle cx="567.216" cy="461.312" r="8.41271" stroke-width="0.5" stroke="black" fill="yellow"/>
  <circle cx="567.216" cy="461.312" r="5.05167" stroke-width="0.5" stroke="yellow" fill="yellow"/>
   </g>
   <g id="cell131">
  <circle cx="566.118" cy="475.444" r="8.41271" stroke-width="0.5" stroke="black" fill="yellow"/>
  <circle cx="566.118" cy="475.444" r="5.05167" stroke-width="0.5" stroke="yellow" fill="yellow"/>
   </g>
   <g id="cell132">
  <circle cx="563.579" cy="488.983" r="8.41271" stroke-width="0.5" stroke="black" fill="blue"/>
  <circle cx="563.579" cy="488.983" r="5.05167" stroke-width="0.5" stroke="blue" fill="blue"/>
   </g>
   <g id="cell133">
  <circle cx="563.992" cy="502.017" r="8.41271" stroke-width="0.5" stroke="black" fill="Red"/>
  <circle cx="563.992" cy="502.017" r="5.05167" stroke-width="0.5" stroke="Red" fill="Red"/>
   </g>
   <g id="cell134">
  <circle cx="564.908" cy="515.429" r="8.41271" stroke-width="0.5" stroke="black" fill="Red"/>
  <circle cx="564.908" cy="515.429" r="5.05167" stroke-width="0.5" stroke="Red" fill="Red"/>
   </g>
   <g id="cell135">
  <circle cx="566.303" cy="530.741" r="8.41271" stroke-width="0.5" stroke="black" fill="yellow"/>
  <circle cx="566.303" cy="530.741" r="5.05167" stroke-width="0.5" stroke="yellow" fill="yellow"/>
   </g>
   <g id="cell136">
  <circle cx="566.175" cy="545.577" r="8.41271" stroke-width="0.5" stroke="black" fill="yellow"/>
  <circle cx="566.175" cy="545.577" r="5.05167" stroke-width="0.5" stroke="yellow" fill="yellow"/>
   </g>
   <g id="cell137">
  <circle cx="564.76" cy="560.442" r="8.41271" stroke-width="0.5" stroke="black" fill="blue"/>
  <circle cx="564.76" cy="560.442" r="5.05167" stroke-width="0.5" stroke="blue" fill="blue"/>
   </g>
   <g id="cell138">
  <circle cx="579.641" cy="468.379" r="8.41271" stroke-width="0.5" stroke="black" fill="blue"/>
  <circle cx="579.641" cy="468.379" r="5.05167" stroke-width="0.5" stroke="blue" fill="blue"/>
   </g>
   <g id="cell139">
  <circle cx="579.23" cy="483.247" r="8.41271" stroke-width="0.5" stroke="black" fill="yellow"/>
  <circle cx="579.23" cy="483.247" r="5.05167" stroke-width="0.5" stroke="yellow" fill="yellow"/>
   </g>
   <g id="cell140">
  <circle cx="574.495" cy="495.075" r="6.99069" stroke-width="0.5" stroke="black" fill="yellow"/>
  <circle cx="574.495" cy="495.075" r="4.23498" stroke-width="0.5" stroke="yellow" fill="yellow"/>
   </g>
   <g id="cell141">
  <circle cx="577.593" cy="507.773" r="8.41271" stroke-width="0.5" stroke="black" fill="Red"/>
  <circle cx="577.593" cy="507.773" r="5.05167" stroke-width="0.5" stroke="Red" fill="Red"/>
   </g>
   <g id="cell142">
  <circle cx="577.634" cy="522.947" r="8.41271" stroke-width="0.5" stroke="black" fill="yellow"/>
  <circle cx="577.634" cy="522.947" r="5.05167" stroke-width="0.5" stroke="yellow" fill="yellow"/>
   </g>
   <g id="cell143">
  <circle cx="580.748" cy="536.442" r="8.41271" stroke-width="0.5" stroke="black" fill="blue"/>
  <circle cx="580.748" cy="536.442" r="5.05167" stroke-width="0.5" stroke="blue" fill="blue"/>
   </g>
   <g id="cell144">
  <circle cx="440.921" cy="436.708" r="6.99069" stroke-width="0.5" stroke="black" fill="blue"/>
  <circle cx="440.921" cy="436.708" r="4.23498" stroke-width="0.5" stroke="blue" fill="blue"/>
   </g>
   <g id="cell145">
  <circle cx="585.327" cy="497.628" r="6.99069" stroke-width="0.5" stroke="black" fill="blue"/>
  <circle cx="585.327" cy="497.628" r="4.23498" stroke-width="0.5" stroke="blue" fill="blue"/>
   </g>
   <g id="cell146">
  <circle cx="480.473" cy="511.036" r="6.95901" stroke-width="0.5" stroke="black" fill="blue"/>
  <circle cx="480.473" cy="511.036" r="4.21341" stroke-width="0.5" stroke="blue" fill="blue"/>
   </g>
   <g id="cell147">
  <circle cx="530.164" cy="457.931" r="5.79448" stroke-width="0.5" stroke="black" fill="Red"/>
  <circle cx="530.164" cy="457.931" r="3.53652" stroke-width="0.5" stroke="Red" fill="Red"/>
   </g>
   <g id="cell148">
  <circle cx="522.682" cy="536.361" r="6.86652" stroke-width="0.5" stroke="black" fill="blue"/>
  <circle cx="522.682" cy="536.361" r="4.14883" stroke-width="0.5" stroke="blue" fill="blue"/>
   </g>
   <g id="cell149">
  <circle cx="533.405" cy="464.255" r="5.79448" stroke-width="0.5" stroke="black" fill="blue"/>
  <circle cx="533.405" cy="464.255" r="3.53652" stroke-width="0.5" stroke="blue" fill="blue"/>
   </g>
   <g id="cell150">
  <circle cx="442.868" cy="510.907" r="6.73287" stroke-width="0.5" stroke="black" fill="Red"/>
  <circle cx="442.868" cy="510.907" r="4.05039" stroke-width="0.5" stroke="Red" fill="Red"/>
   </g>
   <g id="cell151">
  <circle cx="447.366" cy="417.734" r="6.73287" stroke-width="0.5" stroke="black" fill="blue"/>
  <circle cx="447.366" cy="417.734" r="4.05039" stroke-width="0.5" stroke="blue" fill="blue"/>
   </g>
   <g id="cell152">
  <circle cx="481.313" cy="462.269" r="6.69288" stroke-width="0.5" stroke="black" fill="blue"/>
  <circle cx="481.313" cy="462.269" r="4.02051" stroke-width="0.5" stroke="blue" fill="blue"/>
   </g>
   <g id="cell153">
  <circle cx="520.191" cy="427.818" r="6.67717" stroke-width="0.5" stroke="black" fill="Red"/>
  <circle cx="520.191" cy="427.818" r="4.00951" stroke-width="0.5" stroke="Red" fill="Red"/>
   </g>
   <g id="cell154">
  <circle cx="558.306" cy="524.591" r="6.67717" stroke-width="0.5" stroke="black" fill="blue"/>
  <circle cx="558.306" cy="524.591" r="4.00951" stroke-width="0.5" stroke="blue" fill="blue"/>
   </g>
   <g id="cell155">
  <circle cx="444.432" cy="426.652" r="5.34389" stroke-width="0.5" stroke="black" fill="yellow"/>
  <circle cx="444.432" cy="426.652" r="3.2148" stroke-width="0.5" stroke="yellow" fill="yellow"/>
   </g>
  </g>
 </g>
  <rect x="775" y="1035" width="200" height="10" stroke-width="2" stroke="rgb(255,255,255)" fill="rgb(0,0,0)"/>
  <text x="781.25" y="1028.75"
   font-family="Arial" font-size="25" fill="black" >
   200 &#956;m
  </text>
  <text x="25" y="1045"
   font-family="Arial" font-size="18.75" fill="black" >
   0 days, 0 hours, 0 minutes, and 24.9397 seconds
  </text>
  <rect x="0" y="70" width="1000" height="1000" stroke-width="2" stroke="rgb(0,0,0)" fill="none"/>
</svg>
