<?xml version="1.0" encoding="UTF-8" standalone="no"?>
<!-- Created with PhysiCell (http://PhysiCell.MathCancer.org/) -->
<svg 
 xmlns:dc="http://purl.org/dc/elements/1.1/" 
 xmlns:cc="http://creativecommons.org/ns#" 
 xmlns:rdf="http://www.w3.org/1999/02/22-rdf-syntax-ns#" 
 xmlns:svg="http://www.w3.org/2000/svg" 
 xmlns="http://www.w3.org/2000/svg" 
 version="1.1" 
 width="1000" 
 height="1070" 
 id="svg2">
  <rect x="0" y="0" width="1000" height="1070" stroke-width="2" stroke="white" fill="white"/>
  <text x="12.5" y="30"
   font-family="Arial" font-size="25" fill="black" >
   Current time: 0 days, 1 hours, and 45.00 minutes, z = 0.00 &#956;m
  </text>
  <text x="12.5" y="57.5"
   font-family="Arial" font-size="23.75" fill="black" >
   160 agents
  </text>
 <g id="tissue" 
    transform="translate(0,1070) scale(1,-1)">
  <g id="ECM">
  </g>
  <g id="cells">
   <g id="cell0">
  <circle cx="427.244" cy="451.626" r="8.41271" stroke-width="0.5" stroke="black" fill="blue"/>
  <circle cx="427.244" cy="451.626" r="5.05167" stroke-width="0.5" stroke="blue" fill="blue"/>
   </g>
   <g id="cell1">
  <circle cx="425.173" cy="466.874" r="8.41271" stroke-width="0.5" stroke="black" fill="yellow"/>
  <circle cx="425.173" cy="466.874" r="5.05167" stroke-width="0.5" stroke="yellow" fill="yellow"/>
   </g>
   <g id="cell2">
  <circle cx="427.165" cy="480.683" r="8.41271" stroke-width="0.5" stroke="black" fill="blue"/>
  <circle cx="427.165" cy="480.683" r="5.05167" stroke-width="0.5" stroke="blue" fill="blue"/>
   </g>
   <g id="cell3">
  <circle cx="427.531" cy="496.533" r="8.41271" stroke-width="0.5" stroke="black" fill="Red"/>
  <circle cx="427.531" cy="496.533" r="5.05167" stroke-width="0.5" stroke="Red" fill="Red"/>
   </g>
   <g id="cell4">
  <circle cx="429.903" cy="510.699" r="8.41271" stroke-width="0.5" stroke="black" fill="blue"/>
  <circle cx="429.903" cy="510.699" r="5.05167" stroke-width="0.5" stroke="blue" fill="blue"/>
   </g>
   <g id="cell5">
  <circle cx="424.47" cy="523.638" r="8.41271" stroke-width="0.5" stroke="black" fill="Red"/>
  <circle cx="424.47" cy="523.638" r="5.05167" stroke-width="0.5" stroke="Red" fill="Red"/>
   </g>
   <g id="cell6">
  <circle cx="426.173" cy="537.838" r="8.41271" stroke-width="0.5" stroke="black" fill="blue"/>
  <circle cx="426.173" cy="537.838" r="5.05167" stroke-width="0.5" stroke="blue" fill="blue"/>
   </g>
   <g id="cell7">
  <circle cx="438.525" cy="447.564" r="7.08639" stroke-width="0.5" stroke="black" fill="yellow"/>
  <circle cx="438.525" cy="447.564" r="4.29876" stroke-width="0.5" stroke="yellow" fill="yellow"/>
   </g>
   <g id="cell8">
  <circle cx="438.224" cy="460.246" r="8.41271" stroke-width="0.5" stroke="black" fill="Red"/>
  <circle cx="438.224" cy="460.246" r="5.05167" stroke-width="0.5" stroke="Red" fill="Red"/>
   </g>
   <g id="cell9">
  <circle cx="439.423" cy="474.173" r="8.41271" stroke-width="0.5" stroke="black" fill="yellow"/>
  <circle cx="439.423" cy="474.173" r="5.05167" stroke-width="0.5" stroke="yellow" fill="yellow"/>
   </g>
   <g id="cell10">
  <circle cx="438.447" cy="488.32" r="8.41271" stroke-width="0.5" stroke="black" fill="yellow"/>
  <circle cx="438.447" cy="488.32" r="5.05167" stroke-width="0.5" stroke="yellow" fill="yellow"/>
   </g>
   <g id="cell11">
  <circle cx="440.496" cy="502.307" r="8.41271" stroke-width="0.5" stroke="black" fill="Red"/>
  <circle cx="440.496" cy="502.307" r="5.05167" stroke-width="0.5" stroke="Red" fill="Red"/>
   </g>
   <g id="cell12">
  <circle cx="436.492" cy="519.845" r="6.80881" stroke-width="0.5" stroke="black" fill="Red"/>
  <circle cx="436.492" cy="519.845" r="4.10709" stroke-width="0.5" stroke="Red" fill="Red"/>
   </g>
   <g id="cell13">
  <circle cx="438.873" cy="532.06" r="8.41271" stroke-width="0.5" stroke="black" fill="yellow"/>
  <circle cx="438.873" cy="532.06" r="5.05167" stroke-width="0.5" stroke="yellow" fill="yellow"/>
   </g>
   <g id="cell14">
  <circle cx="437.893" cy="546.039" r="8.41271" stroke-width="0.5" stroke="black" fill="yellow"/>
  <circle cx="437.893" cy="546.039" r="5.05167" stroke-width="0.5" stroke="yellow" fill="yellow"/>
   </g>
   <g id="cell15">
  <circle cx="440.644" cy="559.247" r="8.41271" stroke-width="0.5" stroke="black" fill="blue"/>
  <circle cx="440.644" cy="559.247" r="5.05167" stroke-width="0.5" stroke="blue" fill="blue"/>
   </g>
   <g id="cell16">
  <circle cx="453.404" cy="428.776" r="5.48858" stroke-width="0.5" stroke="black" fill="Red"/>
  <circle cx="453.404" cy="428.776" r="3.32079" stroke-width="0.5" stroke="Red" fill="Red"/>
   </g>
   <g id="cell17">
  <circle cx="449.543" cy="440.232" r="8.41271" stroke-width="0.5" stroke="black" fill="Red"/>
  <circle cx="449.543" cy="440.232" r="5.05167" stroke-width="0.5" stroke="Red" fill="Red"/>
   </g>
   <g id="cell18">
  <circle cx="449.752" cy="453.417" r="8.41271" stroke-width="0.5" stroke="black" fill="Red"/>
  <circle cx="449.752" cy="453.417" r="5.05167" stroke-width="0.5" stroke="Red" fill="Red"/>
   </g>
   <g id="cell19">
  <circle cx="451.41" cy="467.154" r="8.41271" stroke-width="0.5" stroke="black" fill="blue"/>
  <circle cx="451.41" cy="467.154" r="5.05167" stroke-width="0.5" stroke="blue" fill="blue"/>
   </g>
   <g id="cell20">
  <circle cx="450.49" cy="481.34" r="8.41271" stroke-width="0.5" stroke="black" fill="Red"/>
  <circle cx="450.49" cy="481.34" r="5.05167" stroke-width="0.5" stroke="Red" fill="Red"/>
   </g>
   <g id="cell21">
  <circle cx="451.513" cy="494.313" r="8.41271" stroke-width="0.5" stroke="black" fill="Red"/>
  <circle cx="451.513" cy="494.313" r="5.05167" stroke-width="0.5" stroke="Red" fill="Red"/>
   </g>
   <g id="cell22">
  <circle cx="454.672" cy="507.761" r="8.41271" stroke-width="0.5" stroke="black" fill="blue"/>
  <circle cx="454.672" cy="507.761" r="5.05167" stroke-width="0.5" stroke="blue" fill="blue"/>
   </g>
   <g id="cell23">
  <circle cx="450.434" cy="523.673" r="8.41271" stroke-width="0.5" stroke="black" fill="Red"/>
  <circle cx="450.434" cy="523.673" r="5.05167" stroke-width="0.5" stroke="Red" fill="Red"/>
   </g>
   <g id="cell24">
  <circle cx="451.866" cy="537.662" r="8.41271" stroke-width="0.5" stroke="black" fill="blue"/>
  <circle cx="451.866" cy="537.662" r="5.05167" stroke-width="0.5" stroke="blue" fill="blue"/>
   </g>
   <g id="cell25">
  <circle cx="452.031" cy="551.698" r="8.41271" stroke-width="0.5" stroke="black" fill="Red"/>
  <circle cx="452.031" cy="551.698" r="5.05167" stroke-width="0.5" stroke="Red" fill="Red"/>
   </g>
   <g id="cell26">
  <circle cx="452.13" cy="568.353" r="8.41271" stroke-width="0.5" stroke="black" fill="yellow"/>
  <circle cx="452.13" cy="568.353" r="5.05167" stroke-width="0.5" stroke="yellow" fill="yellow"/>
   </g>
   <g id="cell27">
  <circle cx="462.958" cy="420.058" r="8.41271" stroke-width="0.5" stroke="black" fill="yellow"/>
  <circle cx="462.958" cy="420.058" r="5.05167" stroke-width="0.5" stroke="yellow" fill="yellow"/>
   </g>
   <g id="cell28">
  <circle cx="464.387" cy="433.615" r="8.41271" stroke-width="0.5" stroke="black" fill="Red"/>
  <circle cx="464.387" cy="433.615" r="5.05167" stroke-width="0.5" stroke="Red" fill="Red"/>
   </g>
   <g id="cell29">
  <circle cx="462.075" cy="446.287" r="8.41271" stroke-width="0.5" stroke="black" fill="blue"/>
  <circle cx="462.075" cy="446.287" r="5.05167" stroke-width="0.5" stroke="blue" fill="blue"/>
   </g>
   <g id="cell30">
  <circle cx="462.371" cy="460.309" r="8.41271" stroke-width="0.5" stroke="black" fill="Red"/>
  <circle cx="462.371" cy="460.309" r="5.05167" stroke-width="0.5" stroke="Red" fill="Red"/>
   </g>
   <g id="cell31">
  <circle cx="463.079" cy="474.528" r="8.41271" stroke-width="0.5" stroke="black" fill="Red"/>
  <circle cx="463.079" cy="474.528" r="5.05167" stroke-width="0.5" stroke="Red" fill="Red"/>
   </g>
   <g id="cell32">
  <circle cx="463.585" cy="487.106" r="8.41271" stroke-width="0.5" stroke="black" fill="Red"/>
  <circle cx="463.585" cy="487.106" r="5.05167" stroke-width="0.5" stroke="Red" fill="Red"/>
   </g>
   <g id="cell33">
  <circle cx="463.89" cy="500.503" r="8.41271" stroke-width="0.5" stroke="black" fill="Red"/>
  <circle cx="463.89" cy="500.503" r="5.05167" stroke-width="0.5" stroke="Red" fill="Red"/>
   </g>
   <g id="cell34">
  <circle cx="464.61" cy="517.592" r="8.41271" stroke-width="0.5" stroke="black" fill="Red"/>
  <circle cx="464.61" cy="517.592" r="5.05167" stroke-width="0.5" stroke="Red" fill="Red"/>
   </g>
   <g id="cell35">
  <circle cx="462.017" cy="530.232" r="8.41271" stroke-width="0.5" stroke="black" fill="blue"/>
  <circle cx="462.017" cy="530.232" r="5.05167" stroke-width="0.5" stroke="blue" fill="blue"/>
   </g>
   <g id="cell36">
  <circle cx="465.38" cy="544.071" r="8.41271" stroke-width="0.5" stroke="black" fill="Red"/>
  <circle cx="465.38" cy="544.071" r="5.05167" stroke-width="0.5" stroke="Red" fill="Red"/>
   </g>
   <g id="cell37">
  <circle cx="464.339" cy="557.975" r="8.41271" stroke-width="0.5" stroke="black" fill="Red"/>
  <circle cx="464.339" cy="557.975" r="5.05167" stroke-width="0.5" stroke="Red" fill="Red"/>
   </g>
   <g id="cell38">
  <circle cx="465.677" cy="572.056" r="8.41271" stroke-width="0.5" stroke="black" fill="yellow"/>
  <circle cx="465.677" cy="572.056" r="5.05167" stroke-width="0.5" stroke="yellow" fill="yellow"/>
   </g>
   <g id="cell39">
  <circle cx="460.713" cy="585.669" r="8.41271" stroke-width="0.5" stroke="black" fill="blue"/>
  <circle cx="460.713" cy="585.669" r="5.05167" stroke-width="0.5" stroke="blue" fill="blue"/>
   </g>
   <g id="cell40">
  <circle cx="475.02" cy="411.868" r="8.41271" stroke-width="0.5" stroke="black" fill="blue"/>
  <circle cx="475.02" cy="411.868" r="5.05167" stroke-width="0.5" stroke="blue" fill="blue"/>
   </g>
   <g id="cell41">
  <circle cx="476.174" cy="426.818" r="8.41271" stroke-width="0.5" stroke="black" fill="yellow"/>
  <circle cx="476.174" cy="426.818" r="5.05167" stroke-width="0.5" stroke="yellow" fill="yellow"/>
   </g>
   <g id="cell42">
  <circle cx="475.733" cy="440.993" r="8.41271" stroke-width="0.5" stroke="black" fill="Red"/>
  <circle cx="475.733" cy="440.993" r="5.05167" stroke-width="0.5" stroke="Red" fill="Red"/>
   </g>
   <g id="cell43">
  <circle cx="473.89" cy="454.429" r="8.41271" stroke-width="0.5" stroke="black" fill="Red"/>
  <circle cx="473.89" cy="454.429" r="5.05167" stroke-width="0.5" stroke="Red" fill="Red"/>
   </g>
   <g id="cell44">
  <circle cx="474.859" cy="468.356" r="8.41271" stroke-width="0.5" stroke="black" fill="Red"/>
  <circle cx="474.859" cy="468.356" r="5.05167" stroke-width="0.5" stroke="Red" fill="Red"/>
   </g>
   <g id="cell45">
  <circle cx="476.313" cy="481.808" r="8.41271" stroke-width="0.5" stroke="black" fill="blue"/>
  <circle cx="476.313" cy="481.808" r="5.05167" stroke-width="0.5" stroke="blue" fill="blue"/>
   </g>
   <g id="cell46">
  <circle cx="476.98" cy="496.543" r="8.41271" stroke-width="0.5" stroke="black" fill="Red"/>
  <circle cx="476.98" cy="496.543" r="5.05167" stroke-width="0.5" stroke="Red" fill="Red"/>
   </g>
   <g id="cell47">
  <circle cx="471.695" cy="507.148" r="7.0545" stroke-width="0.5" stroke="black" fill="Red"/>
  <circle cx="471.695" cy="507.148" r="4.27772" stroke-width="0.5" stroke="Red" fill="Red"/>
   </g>
   <g id="cell48">
  <circle cx="476.296" cy="519.696" r="6.67717" stroke-width="0.5" stroke="black" fill="Red"/>
  <circle cx="476.296" cy="519.696" r="4.00951" stroke-width="0.5" stroke="Red" fill="Red"/>
   </g>
   <g id="cell49">
  <circle cx="477.095" cy="537.406" r="8.41271" stroke-width="0.5" stroke="black" fill="Red"/>
  <circle cx="477.095" cy="537.406" r="5.05167" stroke-width="0.5" stroke="Red" fill="Red"/>
   </g>
   <g id="cell50">
  <circle cx="477.555" cy="550.946" r="8.41271" stroke-width="0.5" stroke="black" fill="Red"/>
  <circle cx="477.555" cy="550.946" r="5.05167" stroke-width="0.5" stroke="Red" fill="Red"/>
   </g>
   <g id="cell51">
  <circle cx="477.718" cy="564.773" r="8.41271" stroke-width="0.5" stroke="black" fill="Red"/>
  <circle cx="477.718" cy="564.773" r="5.05167" stroke-width="0.5" stroke="Red" fill="Red"/>
   </g>
   <g id="cell52">
  <circle cx="478.43" cy="578.697" r="8.41271" stroke-width="0.5" stroke="black" fill="Red"/>
  <circle cx="478.43" cy="578.697" r="5.05167" stroke-width="0.5" stroke="Red" fill="Red"/>
   </g>
   <g id="cell53">
  <circle cx="487.957" cy="417.731" r="8.41271" stroke-width="0.5" stroke="black" fill="yellow"/>
  <circle cx="487.957" cy="417.731" r="5.05167" stroke-width="0.5" stroke="yellow" fill="yellow"/>
   </g>
   <g id="cell54">
  <circle cx="487.971" cy="433.482" r="8.41271" stroke-width="0.5" stroke="black" fill="blue"/>
  <circle cx="487.971" cy="433.482" r="5.05167" stroke-width="0.5" stroke="blue" fill="blue"/>
   </g>
   <g id="cell55">
  <circle cx="487.522" cy="448.597" r="8.41271" stroke-width="0.5" stroke="black" fill="Red"/>
  <circle cx="487.522" cy="448.597" r="5.05167" stroke-width="0.5" stroke="Red" fill="Red"/>
   </g>
   <g id="cell56">
  <circle cx="492.052" cy="461.544" r="6.75639" stroke-width="0.5" stroke="black" fill="blue"/>
  <circle cx="492.052" cy="461.544" r="4.06813" stroke-width="0.5" stroke="blue" fill="blue"/>
   </g>
   <g id="cell57">
  <circle cx="487.603" cy="474.486" r="8.41271" stroke-width="0.5" stroke="black" fill="Red"/>
  <circle cx="487.603" cy="474.486" r="5.05167" stroke-width="0.5" stroke="Red" fill="Red"/>
   </g>
   <g id="cell58">
  <circle cx="488.561" cy="488.738" r="8.41271" stroke-width="0.5" stroke="black" fill="blue"/>
  <circle cx="488.561" cy="488.738" r="5.05167" stroke-width="0.5" stroke="blue" fill="blue"/>
   </g>
   <g id="cell59">
  <circle cx="489.223" cy="502.515" r="8.41271" stroke-width="0.5" stroke="black" fill="Red"/>
  <circle cx="489.223" cy="502.515" r="5.05167" stroke-width="0.5" stroke="Red" fill="Red"/>
   </g>
   <g id="cell60">
  <circle cx="489.87" cy="516.21" r="8.41271" stroke-width="0.5" stroke="black" fill="Red"/>
  <circle cx="489.87" cy="516.21" r="5.05167" stroke-width="0.5" stroke="Red" fill="Red"/>
   </g>
   <g id="cell61">
  <circle cx="488.944" cy="529.438" r="8.41271" stroke-width="0.5" stroke="black" fill="blue"/>
  <circle cx="488.944" cy="529.438" r="5.05167" stroke-width="0.5" stroke="blue" fill="blue"/>
   </g>
   <g id="cell62">
  <circle cx="488.989" cy="543.123" r="8.41271" stroke-width="0.5" stroke="black" fill="Red"/>
  <circle cx="488.989" cy="543.123" r="5.05167" stroke-width="0.5" stroke="Red" fill="Red"/>
   </g>
   <g id="cell63">
  <circle cx="489.267" cy="557.089" r="8.41271" stroke-width="0.5" stroke="black" fill="Red"/>
  <circle cx="489.267" cy="557.089" r="5.05167" stroke-width="0.5" stroke="Red" fill="Red"/>
   </g>
   <g id="cell64">
  <circle cx="489.912" cy="571.487" r="8.41271" stroke-width="0.5" stroke="black" fill="Red"/>
  <circle cx="489.912" cy="571.487" r="5.05167" stroke-width="0.5" stroke="Red" fill="Red"/>
   </g>
   <g id="cell65">
  <circle cx="490.709" cy="585.692" r="8.41271" stroke-width="0.5" stroke="black" fill="yellow"/>
  <circle cx="490.709" cy="585.692" r="5.05167" stroke-width="0.5" stroke="yellow" fill="yellow"/>
   </g>
   <g id="cell66">
  <circle cx="501.142" cy="412.686" r="8.41271" stroke-width="0.5" stroke="black" fill="blue"/>
  <circle cx="501.142" cy="412.686" r="5.05167" stroke-width="0.5" stroke="blue" fill="blue"/>
   </g>
   <g id="cell67">
  <circle cx="500.445" cy="425.987" r="8.41271" stroke-width="0.5" stroke="black" fill="yellow"/>
  <circle cx="500.445" cy="425.987" r="5.05167" stroke-width="0.5" stroke="yellow" fill="yellow"/>
   </g>
   <g id="cell68">
  <circle cx="499.583" cy="440.166" r="8.41271" stroke-width="0.5" stroke="black" fill="Red"/>
  <circle cx="499.583" cy="440.166" r="5.05167" stroke-width="0.5" stroke="Red" fill="Red"/>
   </g>
   <g id="cell69">
  <circle cx="500.261" cy="453.557" r="8.41271" stroke-width="0.5" stroke="black" fill="Red"/>
  <circle cx="500.261" cy="453.557" r="5.05167" stroke-width="0.5" stroke="Red" fill="Red"/>
   </g>
   <g id="cell70">
  <circle cx="501.069" cy="467.571" r="8.41271" stroke-width="0.5" stroke="black" fill="blue"/>
  <circle cx="501.069" cy="467.571" r="5.05167" stroke-width="0.5" stroke="blue" fill="blue"/>
   </g>
   <g id="cell71">
  <circle cx="500.321" cy="481.533" r="8.41271" stroke-width="0.5" stroke="black" fill="Red"/>
  <circle cx="500.321" cy="481.533" r="5.05167" stroke-width="0.5" stroke="Red" fill="Red"/>
   </g>
   <g id="cell72">
  <circle cx="501.357" cy="495.466" r="8.41271" stroke-width="0.5" stroke="black" fill="Red"/>
  <circle cx="501.357" cy="495.466" r="5.05167" stroke-width="0.5" stroke="Red" fill="Red"/>
   </g>
   <g id="cell73">
  <circle cx="502.216" cy="509.002" r="8.41271" stroke-width="0.5" stroke="black" fill="blue"/>
  <circle cx="502.216" cy="509.002" r="5.05167" stroke-width="0.5" stroke="blue" fill="blue"/>
   </g>
   <g id="cell74">
  <circle cx="503.093" cy="522.743" r="8.41271" stroke-width="0.5" stroke="black" fill="Red"/>
  <circle cx="503.093" cy="522.743" r="5.05167" stroke-width="0.5" stroke="Red" fill="Red"/>
   </g>
   <g id="cell75">
  <circle cx="501.731" cy="536.027" r="8.41271" stroke-width="0.5" stroke="black" fill="blue"/>
  <circle cx="501.731" cy="536.027" r="5.05167" stroke-width="0.5" stroke="blue" fill="blue"/>
   </g>
   <g id="cell76">
  <circle cx="501.36" cy="550.149" r="8.41271" stroke-width="0.5" stroke="black" fill="Red"/>
  <circle cx="501.36" cy="550.149" r="5.05167" stroke-width="0.5" stroke="Red" fill="Red"/>
   </g>
   <g id="cell77">
  <circle cx="504.244" cy="563.487" r="8.41271" stroke-width="0.5" stroke="black" fill="Red"/>
  <circle cx="504.244" cy="563.487" r="5.05167" stroke-width="0.5" stroke="Red" fill="Red"/>
   </g>
   <g id="cell78">
  <circle cx="503.093" cy="577.99" r="8.41271" stroke-width="0.5" stroke="black" fill="yellow"/>
  <circle cx="503.093" cy="577.99" r="5.05167" stroke-width="0.5" stroke="yellow" fill="yellow"/>
   </g>
   <g id="cell79">
  <circle cx="502.993" cy="592.485" r="8.41271" stroke-width="0.5" stroke="black" fill="blue"/>
  <circle cx="502.993" cy="592.485" r="5.05167" stroke-width="0.5" stroke="blue" fill="blue"/>
   </g>
   <g id="cell80">
  <circle cx="512.92" cy="417.753" r="8.41271" stroke-width="0.5" stroke="black" fill="yellow"/>
  <circle cx="512.92" cy="417.753" r="5.05167" stroke-width="0.5" stroke="yellow" fill="yellow"/>
   </g>
   <g id="cell81">
  <circle cx="511.894" cy="433.754" r="8.41271" stroke-width="0.5" stroke="black" fill="Red"/>
  <circle cx="511.894" cy="433.754" r="5.05167" stroke-width="0.5" stroke="Red" fill="Red"/>
   </g>
   <g id="cell82">
  <circle cx="511.901" cy="445.906" r="8.41271" stroke-width="0.5" stroke="black" fill="Red"/>
  <circle cx="511.901" cy="445.906" r="5.05167" stroke-width="0.5" stroke="Red" fill="Red"/>
   </g>
   <g id="cell83">
  <circle cx="511.907" cy="459.152" r="8.41271" stroke-width="0.5" stroke="black" fill="Red"/>
  <circle cx="511.907" cy="459.152" r="5.05167" stroke-width="0.5" stroke="Red" fill="Red"/>
   </g>
   <g id="cell84">
  <circle cx="512.974" cy="473.351" r="8.41271" stroke-width="0.5" stroke="black" fill="blue"/>
  <circle cx="512.974" cy="473.351" r="5.05167" stroke-width="0.5" stroke="blue" fill="blue"/>
   </g>
   <g id="cell85">
  <circle cx="513.904" cy="487.497" r="8.41271" stroke-width="0.5" stroke="black" fill="blue"/>
  <circle cx="513.904" cy="487.497" r="5.05167" stroke-width="0.5" stroke="blue" fill="blue"/>
   </g>
   <g id="cell86">
  <circle cx="513.881" cy="500.6" r="8.41271" stroke-width="0.5" stroke="black" fill="Red"/>
  <circle cx="513.881" cy="500.6" r="5.05167" stroke-width="0.5" stroke="Red" fill="Red"/>
   </g>
   <g id="cell87">
  <circle cx="513.402" cy="511.805" r="6.71158" stroke-width="0.5" stroke="black" fill="blue"/>
  <circle cx="513.402" cy="511.805" r="4.03435" stroke-width="0.5" stroke="blue" fill="blue"/>
   </g>
   <g id="cell88">
  <circle cx="516.081" cy="532.365" r="8.41271" stroke-width="0.5" stroke="black" fill="Red"/>
  <circle cx="516.081" cy="532.365" r="5.05167" stroke-width="0.5" stroke="Red" fill="Red"/>
   </g>
   <g id="cell89">
  <circle cx="512.519" cy="545.113" r="8.41271" stroke-width="0.5" stroke="black" fill="Red"/>
  <circle cx="512.519" cy="545.113" r="5.05167" stroke-width="0.5" stroke="Red" fill="Red"/>
   </g>
   <g id="cell90">
  <circle cx="515.756" cy="556.129" r="8.41271" stroke-width="0.5" stroke="black" fill="Red"/>
  <circle cx="515.756" cy="556.129" r="5.05167" stroke-width="0.5" stroke="Red" fill="Red"/>
   </g>
   <g id="cell91">
  <circle cx="516.263" cy="570.621" r="8.41271" stroke-width="0.5" stroke="black" fill="Red"/>
  <circle cx="516.263" cy="570.621" r="5.05167" stroke-width="0.5" stroke="Red" fill="Red"/>
   </g>
   <g id="cell92">
  <circle cx="514.813" cy="585.332" r="8.41271" stroke-width="0.5" stroke="black" fill="Red"/>
  <circle cx="514.813" cy="585.332" r="5.05167" stroke-width="0.5" stroke="Red" fill="Red"/>
   </g>
   <g id="cell93">
  <circle cx="527.15" cy="414.741" r="8.41271" stroke-width="0.5" stroke="black" fill="blue"/>
  <circle cx="527.15" cy="414.741" r="5.05167" stroke-width="0.5" stroke="blue" fill="blue"/>
   </g>
   <g id="cell94">
  <circle cx="530.608" cy="426.324" r="6.73287" stroke-width="0.5" stroke="black" fill="Red"/>
  <circle cx="530.608" cy="426.324" r="4.05039" stroke-width="0.5" stroke="Red" fill="Red"/>
   </g>
   <g id="cell95">
  <circle cx="525.608" cy="438.553" r="8.41271" stroke-width="0.5" stroke="black" fill="Red"/>
  <circle cx="525.608" cy="438.553" r="5.05167" stroke-width="0.5" stroke="Red" fill="Red"/>
   </g>
   <g id="cell96">
  <circle cx="523.225" cy="450.611" r="7.0545" stroke-width="0.5" stroke="black" fill="blue"/>
  <circle cx="523.225" cy="450.611" r="4.27772" stroke-width="0.5" stroke="blue" fill="blue"/>
   </g>
   <g id="cell97">
  <circle cx="522.242" cy="465.361" r="8.41271" stroke-width="0.5" stroke="black" fill="yellow"/>
  <circle cx="522.242" cy="465.361" r="5.05167" stroke-width="0.5" stroke="yellow" fill="yellow"/>
   </g>
   <g id="cell98">
  <circle cx="525.674" cy="479.786" r="8.41271" stroke-width="0.5" stroke="black" fill="yellow"/>
  <circle cx="525.674" cy="479.786" r="5.05167" stroke-width="0.5" stroke="yellow" fill="yellow"/>
   </g>
   <g id="cell99">
  <circle cx="526.404" cy="494.444" r="8.41271" stroke-width="0.5" stroke="black" fill="Red"/>
  <circle cx="526.404" cy="494.444" r="5.05167" stroke-width="0.5" stroke="Red" fill="Red"/>
   </g>
   <g id="cell100">
  <circle cx="525.651" cy="508.572" r="8.41271" stroke-width="0.5" stroke="black" fill="Red"/>
  <circle cx="525.651" cy="508.572" r="5.05167" stroke-width="0.5" stroke="Red" fill="Red"/>
   </g>
   <g id="cell101">
  <circle cx="525.931" cy="523.396" r="8.41271" stroke-width="0.5" stroke="black" fill="Red"/>
  <circle cx="525.931" cy="523.396" r="5.05167" stroke-width="0.5" stroke="Red" fill="Red"/>
   </g>
   <g id="cell102">
  <circle cx="531.801" cy="534.204" r="6.95901" stroke-width="0.5" stroke="black" fill="blue"/>
  <circle cx="531.801" cy="534.204" r="4.21341" stroke-width="0.5" stroke="blue" fill="blue"/>
   </g>
   <g id="cell103">
  <circle cx="528.116" cy="550.058" r="8.41271" stroke-width="0.5" stroke="black" fill="Red"/>
  <circle cx="528.116" cy="550.058" r="5.05167" stroke-width="0.5" stroke="Red" fill="Red"/>
   </g>
   <g id="cell104">
  <circle cx="527.411" cy="563.765" r="8.41271" stroke-width="0.5" stroke="black" fill="Red"/>
  <circle cx="527.411" cy="563.765" r="5.05167" stroke-width="0.5" stroke="Red" fill="Red"/>
   </g>
   <g id="cell105">
  <circle cx="526.459" cy="578.177" r="8.41271" stroke-width="0.5" stroke="black" fill="blue"/>
  <circle cx="526.459" cy="578.177" r="5.05167" stroke-width="0.5" stroke="blue" fill="blue"/>
   </g>
   <g id="cell106">
  <circle cx="540.982" cy="418.726" r="8.41271" stroke-width="0.5" stroke="black" fill="yellow"/>
  <circle cx="540.982" cy="418.726" r="5.05167" stroke-width="0.5" stroke="yellow" fill="yellow"/>
   </g>
   <g id="cell107">
  <circle cx="539.703" cy="435.031" r="8.41271" stroke-width="0.5" stroke="black" fill="yellow"/>
  <circle cx="539.703" cy="435.031" r="5.05167" stroke-width="0.5" stroke="yellow" fill="yellow"/>
   </g>
   <g id="cell108">
  <circle cx="537.93" cy="448.606" r="8.41271" stroke-width="0.5" stroke="black" fill="Red"/>
  <circle cx="537.93" cy="448.606" r="5.05167" stroke-width="0.5" stroke="Red" fill="Red"/>
   </g>
   <g id="cell109">
  <circle cx="542.075" cy="462.601" r="8.41271" stroke-width="0.5" stroke="black" fill="yellow"/>
  <circle cx="542.075" cy="462.601" r="5.05167" stroke-width="0.5" stroke="yellow" fill="yellow"/>
   </g>
   <g id="cell110">
  <circle cx="539.921" cy="475.367" r="8.41271" stroke-width="0.5" stroke="black" fill="yellow"/>
  <circle cx="539.921" cy="475.367" r="5.05167" stroke-width="0.5" stroke="yellow" fill="yellow"/>
   </g>
   <g id="cell111">
  <circle cx="538.143" cy="488.328" r="8.41271" stroke-width="0.5" stroke="black" fill="blue"/>
  <circle cx="538.143" cy="488.328" r="5.05167" stroke-width="0.5" stroke="blue" fill="blue"/>
   </g>
   <g id="cell112">
  <circle cx="539.108" cy="503.112" r="8.41271" stroke-width="0.5" stroke="black" fill="Red"/>
  <circle cx="539.108" cy="503.112" r="5.05167" stroke-width="0.5" stroke="Red" fill="Red"/>
   </g>
   <g id="cell113">
  <circle cx="536.645" cy="516.234" r="8.41271" stroke-width="0.5" stroke="black" fill="Red"/>
  <circle cx="536.645" cy="516.234" r="5.05167" stroke-width="0.5" stroke="Red" fill="Red"/>
   </g>
   <g id="cell114">
  <circle cx="542.232" cy="529.477" r="8.41271" stroke-width="0.5" stroke="black" fill="Red"/>
  <circle cx="542.232" cy="529.477" r="5.05167" stroke-width="0.5" stroke="Red" fill="Red"/>
   </g>
   <g id="cell115">
  <circle cx="540.182" cy="542.978" r="8.41271" stroke-width="0.5" stroke="black" fill="Red"/>
  <circle cx="540.182" cy="542.978" r="5.05167" stroke-width="0.5" stroke="Red" fill="Red"/>
   </g>
   <g id="cell116">
  <circle cx="539.567" cy="556.666" r="8.41271" stroke-width="0.5" stroke="black" fill="Red"/>
  <circle cx="539.567" cy="556.666" r="5.05167" stroke-width="0.5" stroke="Red" fill="Red"/>
   </g>
   <g id="cell117">
  <circle cx="538.5" cy="571.366" r="8.41271" stroke-width="0.5" stroke="black" fill="blue"/>
  <circle cx="538.5" cy="571.366" r="5.05167" stroke-width="0.5" stroke="blue" fill="blue"/>
   </g>
   <g id="cell118">
  <circle cx="551.759" cy="427.295" r="8.41271" stroke-width="0.5" stroke="black" fill="blue"/>
  <circle cx="551.759" cy="427.295" r="5.05167" stroke-width="0.5" stroke="blue" fill="blue"/>
   </g>
   <g id="cell119">
  <circle cx="551.639" cy="442.437" r="8.41271" stroke-width="0.5" stroke="black" fill="yellow"/>
  <circle cx="551.639" cy="442.437" r="5.05167" stroke-width="0.5" stroke="yellow" fill="yellow"/>
   </g>
   <g id="cell120">
  <circle cx="557.449" cy="455.631" r="6.71158" stroke-width="0.5" stroke="black" fill="Red"/>
  <circle cx="557.449" cy="455.631" r="4.03435" stroke-width="0.5" stroke="Red" fill="Red"/>
   </g>
   <g id="cell121">
  <circle cx="554.065" cy="467.968" r="8.41271" stroke-width="0.5" stroke="black" fill="Red"/>
  <circle cx="554.065" cy="467.968" r="5.05167" stroke-width="0.5" stroke="Red" fill="Red"/>
   </g>
   <g id="cell122">
  <circle cx="552.061" cy="481.315" r="8.41271" stroke-width="0.5" stroke="black" fill="Red"/>
  <circle cx="552.061" cy="481.315" r="5.05167" stroke-width="0.5" stroke="Red" fill="Red"/>
   </g>
   <g id="cell123">
  <circle cx="550.331" cy="495.436" r="8.41271" stroke-width="0.5" stroke="black" fill="Red"/>
  <circle cx="550.331" cy="495.436" r="5.05167" stroke-width="0.5" stroke="Red" fill="Red"/>
   </g>
   <g id="cell124">
  <circle cx="550.514" cy="509.615" r="8.41271" stroke-width="0.5" stroke="black" fill="Red"/>
  <circle cx="550.514" cy="509.615" r="5.05167" stroke-width="0.5" stroke="Red" fill="Red"/>
   </g>
   <g id="cell125">
  <circle cx="546.805" cy="519.192" r="6.73287" stroke-width="0.5" stroke="black" fill="Red"/>
  <circle cx="546.805" cy="519.192" r="4.05039" stroke-width="0.5" stroke="Red" fill="Red"/>
   </g>
   <g id="cell126">
  <circle cx="554.804" cy="535.547" r="8.41271" stroke-width="0.5" stroke="black" fill="Red"/>
  <circle cx="554.804" cy="535.547" r="5.05167" stroke-width="0.5" stroke="Red" fill="Red"/>
   </g>
   <g id="cell127">
  <circle cx="552.474" cy="550.09" r="8.41271" stroke-width="0.5" stroke="black" fill="yellow"/>
  <circle cx="552.474" cy="550.09" r="5.05167" stroke-width="0.5" stroke="yellow" fill="yellow"/>
   </g>
   <g id="cell128">
  <circle cx="550.385" cy="564.936" r="8.41271" stroke-width="0.5" stroke="black" fill="Red"/>
  <circle cx="550.385" cy="564.936" r="5.05167" stroke-width="0.5" stroke="Red" fill="Red"/>
   </g>
   <g id="cell129">
  <circle cx="574.062" cy="442.016" r="6.69288" stroke-width="0.5" stroke="black" fill="blue"/>
  <circle cx="574.062" cy="442.016" r="4.02051" stroke-width="0.5" stroke="blue" fill="blue"/>
   </g>
   <g id="cell130">
  <circle cx="568.879" cy="459.29" r="8.41271" stroke-width="0.5" stroke="black" fill="yellow"/>
  <circle cx="568.879" cy="459.29" r="5.05167" stroke-width="0.5" stroke="yellow" fill="yellow"/>
   </g>
   <g id="cell131">
  <circle cx="565.592" cy="475.549" r="8.41271" stroke-width="0.5" stroke="black" fill="yellow"/>
  <circle cx="565.592" cy="475.549" r="5.05167" stroke-width="0.5" stroke="yellow" fill="yellow"/>
   </g>
   <g id="cell132">
  <circle cx="561.783" cy="488.9" r="8.41271" stroke-width="0.5" stroke="black" fill="blue"/>
  <circle cx="561.783" cy="488.9" r="5.05167" stroke-width="0.5" stroke="blue" fill="blue"/>
   </g>
   <g id="cell133">
  <circle cx="562.183" cy="502.478" r="8.41271" stroke-width="0.5" stroke="black" fill="Red"/>
  <circle cx="562.183" cy="502.478" r="5.05167" stroke-width="0.5" stroke="Red" fill="Red"/>
   </g>
   <g id="cell134">
  <circle cx="564.207" cy="516.099" r="8.41271" stroke-width="0.5" stroke="black" fill="Red"/>
  <circle cx="564.207" cy="516.099" r="5.05167" stroke-width="0.5" stroke="Red" fill="Red"/>
   </g>
   <g id="cell135">
  <circle cx="566.701" cy="530.353" r="8.41271" stroke-width="0.5" stroke="black" fill="Red"/>
  <circle cx="566.701" cy="530.353" r="5.05167" stroke-width="0.5" stroke="Red" fill="Red"/>
   </g>
   <g id="cell136">
  <circle cx="566.409" cy="545.229" r="8.41271" stroke-width="0.5" stroke="black" fill="yellow"/>
  <circle cx="566.409" cy="545.229" r="5.05167" stroke-width="0.5" stroke="yellow" fill="yellow"/>
   </g>
   <g id="cell137">
  <circle cx="563.767" cy="560.484" r="8.41271" stroke-width="0.5" stroke="black" fill="blue"/>
  <circle cx="563.767" cy="560.484" r="5.05167" stroke-width="0.5" stroke="blue" fill="blue"/>
   </g>
   <g id="cell138">
  <circle cx="578.638" cy="470.509" r="8.41271" stroke-width="0.5" stroke="black" fill="blue"/>
  <circle cx="578.638" cy="470.509" r="5.05167" stroke-width="0.5" stroke="blue" fill="blue"/>
   </g>
   <g id="cell139">
  <circle cx="578.011" cy="483.807" r="8.41271" stroke-width="0.5" stroke="black" fill="yellow"/>
  <circle cx="578.011" cy="483.807" r="5.05167" stroke-width="0.5" stroke="yellow" fill="yellow"/>
   </g>
   <g id="cell140">
  <circle cx="572.221" cy="494.955" r="7.08639" stroke-width="0.5" stroke="black" fill="yellow"/>
  <circle cx="572.221" cy="494.955" r="4.29876" stroke-width="0.5" stroke="yellow" fill="yellow"/>
   </g>
   <g id="cell141">
  <circle cx="576.406" cy="507.496" r="8.41271" stroke-width="0.5" stroke="black" fill="Red"/>
  <circle cx="576.406" cy="507.496" r="5.05167" stroke-width="0.5" stroke="Red" fill="Red"/>
   </g>
   <g id="cell142">
  <circle cx="576.705" cy="521.519" r="8.41271" stroke-width="0.5" stroke="black" fill="yellow"/>
  <circle cx="576.705" cy="521.519" r="5.05167" stroke-width="0.5" stroke="yellow" fill="yellow"/>
   </g>
   <g id="cell143">
  <circle cx="580.068" cy="535.195" r="8.41271" stroke-width="0.5" stroke="black" fill="blue"/>
  <circle cx="580.068" cy="535.195" r="5.05167" stroke-width="0.5" stroke="blue" fill="blue"/>
   </g>
   <g id="cell144">
  <circle cx="437.45" cy="437.188" r="7.08639" stroke-width="0.5" stroke="black" fill="blue"/>
  <circle cx="437.45" cy="437.188" r="4.29876" stroke-width="0.5" stroke="blue" fill="blue"/>
   </g>
   <g id="cell145">
  <circle cx="583.638" cy="496.748" r="7.08639" stroke-width="0.5" stroke="black" fill="blue"/>
  <circle cx="583.638" cy="496.748" r="4.29876" stroke-width="0.5" stroke="blue" fill="blue"/>
   </g>
   <g id="cell146">
  <circle cx="479.75" cy="510.305" r="7.0545" stroke-width="0.5" stroke="black" fill="blue"/>
  <circle cx="479.75" cy="510.305" r="4.27772" stroke-width="0.5" stroke="blue" fill="blue"/>
   </g>
   <g id="cell147">
  <circle cx="531.222" cy="457.919" r="5.98931" stroke-width="0.5" stroke="black" fill="Red"/>
  <circle cx="531.222" cy="457.919" r="3.66601" stroke-width="0.5" stroke="Red" fill="Red"/>
   </g>
   <g id="cell148">
  <circle cx="523.694" cy="540.159" r="6.95901" stroke-width="0.5" stroke="black" fill="blue"/>
  <circle cx="523.694" cy="540.159" r="4.21341" stroke-width="0.5" stroke="blue" fill="blue"/>
   </g>
   <g id="cell149">
  <circle cx="532.135" cy="468.329" r="5.98931" stroke-width="0.5" stroke="black" fill="blue"/>
  <circle cx="532.135" cy="468.329" r="3.66601" stroke-width="0.5" stroke="blue" fill="blue"/>
   </g>
   <g id="cell150">
  <circle cx="444.205" cy="512.96" r="6.80881" stroke-width="0.5" stroke="black" fill="Red"/>
  <circle cx="444.205" cy="512.96" r="4.10709" stroke-width="0.5" stroke="Red" fill="Red"/>
   </g>
   <g id="cell151">
  <circle cx="449.979" cy="418.915" r="6.80881" stroke-width="0.5" stroke="black" fill="blue"/>
  <circle cx="449.979" cy="418.915" r="4.10709" stroke-width="0.5" stroke="blue" fill="blue"/>
   </g>
   <g id="cell152">
  <circle cx="483.66" cy="460.992" r="6.75639" stroke-width="0.5" stroke="black" fill="Red"/>
  <circle cx="483.66" cy="460.992" r="4.06813" stroke-width="0.5" stroke="Red" fill="Red"/>
   </g>
   <g id="cell153">
  <circle cx="520.916" cy="427.104" r="6.73287" stroke-width="0.5" stroke="black" fill="Red"/>
  <circle cx="520.916" cy="427.104" r="4.05039" stroke-width="0.5" stroke="Red" fill="Red"/>
   </g>
   <g id="cell154">
  <circle cx="555.554" cy="523.04" r="6.73287" stroke-width="0.5" stroke="black" fill="blue"/>
  <circle cx="555.554" cy="523.04" r="4.05039" stroke-width="0.5" stroke="blue" fill="blue"/>
   </g>
   <g id="cell155">
  <circle cx="443.943" cy="428.09" r="5.48858" stroke-width="0.5" stroke="black" fill="yellow"/>
  <circle cx="443.943" cy="428.09" r="3.32079" stroke-width="0.5" stroke="yellow" fill="yellow"/>
   </g>
   <g id="cell156">
  <circle cx="514.811" cy="520.669" r="6.71158" stroke-width="0.5" stroke="black" fill="Red"/>
  <circle cx="514.811" cy="520.669" r="4.03435" stroke-width="0.5" stroke="Red" fill="Red"/>
   </g>
   <g id="cell157">
  <circle cx="547.945" cy="453.169" r="6.71158" stroke-width="0.5" stroke="black" fill="Red"/>
  <circle cx="547.945" cy="453.169" r="4.03435" stroke-width="0.5" stroke="Red" fill="Red"/>
   </g>
   <g id="cell158">
  <circle cx="562.483" cy="446.159" r="6.69288" stroke-width="0.5" stroke="black" fill="yellow"/>
  <circle cx="562.483" cy="446.159" r="4.02051" stroke-width="0.5" stroke="yellow" fill="yellow"/>
   </g>
   <g id="cell159">
  <circle cx="473.936" cy="528.991" r="6.67717" stroke-width="0.5" stroke="black" fill="Red"/>
  <circle cx="473.936" cy="528.991" r="4.00951" stroke-width="0.5" stroke="Red" fill="Red"/>
   </g>
  </g>
 </g>
  <rect x="775" y="1035" width="200" height="10" stroke-width="2" stroke="rgb(255,255,255)" fill="rgb(0,0,0)"/>
  <text x="781.25" y="1028.75"
   font-family="Arial" font-size="25" fill="black" >
   200 &#956;m
  </text>
  <text x="25" y="1045"
   font-family="Arial" font-size="18.75" fill="black" >
   0 days, 0 hours, 0 minutes, and 31.7199 seconds
  </text>
  <rect x="0" y="70" width="1000" height="1000" stroke-width="2" stroke="rgb(0,0,0)" fill="none"/>
</svg>
