<?xml version="1.0" encoding="UTF-8" standalone="no"?>
<!-- Created with PhysiCell (http://PhysiCell.MathCancer.org/) -->
<svg 
 xmlns:dc="http://purl.org/dc/elements/1.1/" 
 xmlns:cc="http://creativecommons.org/ns#" 
 xmlns:rdf="http://www.w3.org/1999/02/22-rdf-syntax-ns#" 
 xmlns:svg="http://www.w3.org/2000/svg" 
 xmlns="http://www.w3.org/2000/svg" 
 version="1.1" 
 width="1000" 
 height="1070" 
 id="svg2">
  <rect x="0" y="0" width="1000" height="1070" stroke-width="2" stroke="white" fill="white"/>
  <text x="12.5" y="30"
   font-family="Arial" font-size="25" fill="black" >
   Current time: 0 days, 7 hours, and 55.00 minutes, z = 0.00 &#956;m
  </text>
  <text x="12.5" y="57.5"
   font-family="Arial" font-size="23.75" fill="black" >
   221 agents
  </text>
 <g id="tissue" 
    transform="translate(0,1070) scale(1,-1)">
  <g id="ECM">
  </g>
  <g id="cells">
   <g id="cell0">
  <circle cx="421.421" cy="440.498" r="8.41271" stroke-width="0.5" stroke="black" fill="Red"/>
  <circle cx="421.421" cy="440.498" r="5.05167" stroke-width="0.5" stroke="Red" fill="Red"/>
   </g>
   <g id="cell1">
  <circle cx="418.704" cy="466.431" r="7.90853" stroke-width="0.5" stroke="black" fill="Red"/>
  <circle cx="418.704" cy="466.431" r="4.79791" stroke-width="0.5" stroke="Red" fill="Red"/>
   </g>
   <g id="cell2">
  <circle cx="417.018" cy="480.974" r="8.41271" stroke-width="0.5" stroke="black" fill="Red"/>
  <circle cx="417.018" cy="480.974" r="5.05167" stroke-width="0.5" stroke="Red" fill="Red"/>
   </g>
   <g id="cell3">
  <circle cx="412.685" cy="493.907" r="8.00101" stroke-width="0.5" stroke="black" fill="blue"/>
  <circle cx="412.685" cy="493.907" r="4.84939" stroke-width="0.5" stroke="blue" fill="blue"/>
   </g>
   <g id="cell4">
  <circle cx="419.514" cy="507.418" r="8.41271" stroke-width="0.5" stroke="black" fill="yellow"/>
  <circle cx="419.514" cy="507.418" r="5.05167" stroke-width="0.5" stroke="yellow" fill="yellow"/>
   </g>
   <g id="cell5">
  <circle cx="407.742" cy="531.886" r="6.87621" stroke-width="0.5" stroke="black" fill="yellow"/>
  <circle cx="407.742" cy="531.886" r="4.20766" stroke-width="0.5" stroke="yellow" fill="yellow"/>
   </g>
   <g id="cell6">
  <circle cx="423.904" cy="544.882" r="8.41271" stroke-width="0.5" stroke="black" fill="Red"/>
  <circle cx="423.904" cy="544.882" r="5.05167" stroke-width="0.5" stroke="Red" fill="Red"/>
   </g>
   <g id="cell7">
  <circle cx="432.888" cy="446.693" r="8.18177" stroke-width="0.5" stroke="black" fill="yellow"/>
  <circle cx="432.888" cy="446.693" r="4.94584" stroke-width="0.5" stroke="yellow" fill="yellow"/>
   </g>
   <g id="cell8">
  <circle cx="422.37" cy="454.453" r="8.41271" stroke-width="0.5" stroke="black" fill="Red"/>
  <circle cx="422.37" cy="454.453" r="5.05167" stroke-width="0.5" stroke="Red" fill="Red"/>
   </g>
   <g id="cell9">
  <circle cx="430.233" cy="471.497" r="8.41271" stroke-width="0.5" stroke="black" fill="Red"/>
  <circle cx="430.233" cy="471.497" r="5.05167" stroke-width="0.5" stroke="Red" fill="Red"/>
   </g>
   <g id="cell10">
  <circle cx="430.461" cy="485.149" r="8.41271" stroke-width="0.5" stroke="black" fill="Red"/>
  <circle cx="430.461" cy="485.149" r="5.05167" stroke-width="0.5" stroke="Red" fill="Red"/>
   </g>
   <g id="cell11">
  <circle cx="433.681" cy="502.659" r="8.41271" stroke-width="0.5" stroke="black" fill="Red"/>
  <circle cx="433.681" cy="502.659" r="5.05167" stroke-width="0.5" stroke="Red" fill="Red"/>
   </g>
   <g id="cell12">
  <circle cx="428.962" cy="517.214" r="8.11327" stroke-width="0.5" stroke="black" fill="Red"/>
  <circle cx="428.962" cy="517.214" r="4.91006" stroke-width="0.5" stroke="Red" fill="Red"/>
   </g>
   <g id="cell13">
  <circle cx="435.659" cy="538.28" r="8.41271" stroke-width="0.5" stroke="black" fill="blue"/>
  <circle cx="435.659" cy="538.28" r="5.05167" stroke-width="0.5" stroke="blue" fill="blue"/>
   </g>
   <g id="cell14">
  <circle cx="435.578" cy="552.638" r="8.41271" stroke-width="0.5" stroke="black" fill="yellow"/>
  <circle cx="435.578" cy="552.638" r="5.05167" stroke-width="0.5" stroke="yellow" fill="yellow"/>
   </g>
   <g id="cell15">
  <circle cx="438.333" cy="566.364" r="8.41271" stroke-width="0.5" stroke="black" fill="blue"/>
  <circle cx="438.333" cy="566.364" r="5.05167" stroke-width="0.5" stroke="blue" fill="blue"/>
   </g>
   <g id="cell16">
  <circle cx="445.669" cy="425.175" r="6.53721" stroke-width="0.5" stroke="black" fill="Red"/>
  <circle cx="445.669" cy="425.175" r="3.99771" stroke-width="0.5" stroke="Red" fill="Red"/>
   </g>
   <g id="cell17">
  <circle cx="445.999" cy="445.488" r="7.72056" stroke-width="0.5" stroke="black" fill="blue"/>
  <circle cx="445.999" cy="445.488" r="4.69003" stroke-width="0.5" stroke="blue" fill="blue"/>
   </g>
   <g id="cell18">
  <circle cx="442.762" cy="455.95" r="6.92764" stroke-width="0.5" stroke="black" fill="Red"/>
  <circle cx="442.762" cy="455.95" r="4.1918" stroke-width="0.5" stroke="Red" fill="Red"/>
   </g>
   <g id="cell19">
  <circle cx="443.747" cy="467.127" r="8.41271" stroke-width="0.5" stroke="black" fill="Red"/>
  <circle cx="443.747" cy="467.127" r="5.05167" stroke-width="0.5" stroke="Red" fill="Red"/>
   </g>
   <g id="cell20">
  <circle cx="452.244" cy="481.065" r="7.02257" stroke-width="0.5" stroke="black" fill="Red"/>
  <circle cx="452.244" cy="481.065" r="4.25644" stroke-width="0.5" stroke="Red" fill="Red"/>
   </g>
   <g id="cell21">
  <circle cx="441.151" cy="490.774" r="8.41271" stroke-width="0.5" stroke="black" fill="Red"/>
  <circle cx="441.151" cy="490.774" r="5.05167" stroke-width="0.5" stroke="Red" fill="Red"/>
   </g>
   <g id="cell22">
  <circle cx="447.225" cy="502.201" r="8.41271" stroke-width="0.5" stroke="black" fill="Red"/>
  <circle cx="447.225" cy="502.201" r="5.05167" stroke-width="0.5" stroke="Red" fill="Red"/>
   </g>
   <g id="cell23">
  <circle cx="439.961" cy="526.199" r="8.41271" stroke-width="0.5" stroke="black" fill="Red"/>
  <circle cx="439.961" cy="526.199" r="5.05167" stroke-width="0.5" stroke="Red" fill="Red"/>
   </g>
   <g id="cell24">
  <circle cx="446.479" cy="543.305" r="8.41271" stroke-width="0.5" stroke="black" fill="Red"/>
  <circle cx="446.479" cy="543.305" r="5.05167" stroke-width="0.5" stroke="Red" fill="Red"/>
   </g>
   <g id="cell25">
  <circle cx="448.921" cy="558.577" r="8.41271" stroke-width="0.5" stroke="black" fill="yellow"/>
  <circle cx="448.921" cy="558.577" r="5.05167" stroke-width="0.5" stroke="yellow" fill="yellow"/>
   </g>
   <g id="cell26">
  <circle cx="440.039" cy="578.404" r="7.30216" stroke-width="0.5" stroke="black" fill="Red"/>
  <circle cx="440.039" cy="578.404" r="4.43696" stroke-width="0.5" stroke="Red" fill="Red"/>
   </g>
   <g id="cell27">
  <circle cx="466.303" cy="402.184" r="8.41271" stroke-width="0.5" stroke="black" fill="blue"/>
  <circle cx="466.303" cy="402.184" r="5.05167" stroke-width="0.5" stroke="blue" fill="blue"/>
   </g>
   <g id="cell28">
  <circle cx="465.825" cy="418.324" r="7.21189" stroke-width="0.5" stroke="black" fill="Red"/>
  <circle cx="465.825" cy="418.324" r="4.37993" stroke-width="0.5" stroke="Red" fill="Red"/>
   </g>
   <g id="cell29">
  <circle cx="458.111" cy="446.057" r="7.97646" stroke-width="0.5" stroke="black" fill="Red"/>
  <circle cx="458.111" cy="446.057" r="4.83584" stroke-width="0.5" stroke="Red" fill="Red"/>
   </g>
   <g id="cell30">
  <circle cx="454.619" cy="457.916" r="8.41271" stroke-width="0.5" stroke="black" fill="Red"/>
  <circle cx="454.619" cy="457.916" r="5.05167" stroke-width="0.5" stroke="Red" fill="Red"/>
   </g>
   <g id="cell31">
  <circle cx="455.59" cy="472.055" r="8.41271" stroke-width="0.5" stroke="black" fill="Red"/>
  <circle cx="455.59" cy="472.055" r="5.05167" stroke-width="0.5" stroke="Red" fill="Red"/>
   </g>
   <g id="cell32">
  <circle cx="464.293" cy="488.601" r="8.41271" stroke-width="0.5" stroke="black" fill="Red"/>
  <circle cx="464.293" cy="488.601" r="5.05167" stroke-width="0.5" stroke="Red" fill="Red"/>
   </g>
   <g id="cell33">
  <circle cx="453.604" cy="490.895" r="8.41271" stroke-width="0.5" stroke="black" fill="Red"/>
  <circle cx="453.604" cy="490.895" r="5.05167" stroke-width="0.5" stroke="Red" fill="Red"/>
   </g>
   <g id="cell34">
  <circle cx="450.12" cy="520.075" r="6.84383" stroke-width="0.5" stroke="black" fill="Red"/>
  <circle cx="450.12" cy="520.075" r="4.19918" stroke-width="0.5" stroke="Red" fill="Red"/>
   </g>
   <g id="cell35">
  <circle cx="457.088" cy="545.498" r="6.71433" stroke-width="0.5" stroke="black" fill="Red"/>
  <circle cx="457.088" cy="545.498" r="4.11582" stroke-width="0.5" stroke="Red" fill="Red"/>
   </g>
   <g id="cell36">
  <circle cx="461.749" cy="554.405" r="8.41271" stroke-width="0.5" stroke="black" fill="Red"/>
  <circle cx="461.749" cy="554.405" r="5.05167" stroke-width="0.5" stroke="Red" fill="Red"/>
   </g>
   <g id="cell37">
  <circle cx="462.271" cy="565.988" r="8.41271" stroke-width="0.5" stroke="black" fill="blue"/>
  <circle cx="462.271" cy="565.988" r="5.05167" stroke-width="0.5" stroke="blue" fill="blue"/>
   </g>
   <g id="cell38">
  <circle cx="461.795" cy="579.33" r="8.41271" stroke-width="0.5" stroke="black" fill="Red"/>
  <circle cx="461.795" cy="579.33" r="5.05167" stroke-width="0.5" stroke="Red" fill="Red"/>
   </g>
   <g id="cell39">
  <circle cx="463.061" cy="593.345" r="7.87851" stroke-width="0.5" stroke="black" fill="blue"/>
  <circle cx="463.061" cy="593.345" r="4.78096" stroke-width="0.5" stroke="blue" fill="blue"/>
   </g>
   <g id="cell40">
  <circle cx="481.563" cy="398.421" r="8.41271" stroke-width="0.5" stroke="black" fill="yellow"/>
  <circle cx="481.563" cy="398.421" r="5.05167" stroke-width="0.5" stroke="yellow" fill="yellow"/>
   </g>
   <g id="cell41">
  <circle cx="476.125" cy="411.06" r="8.41271" stroke-width="0.5" stroke="black" fill="Red"/>
  <circle cx="476.125" cy="411.06" r="5.05167" stroke-width="0.5" stroke="Red" fill="Red"/>
   </g>
   <g id="cell42">
  <circle cx="477.723" cy="435.023" r="7.61469" stroke-width="0.5" stroke="black" fill="Red"/>
  <circle cx="477.723" cy="435.023" r="4.62762" stroke-width="0.5" stroke="Red" fill="Red"/>
   </g>
   <g id="cell43">
  <circle cx="468.596" cy="454.273" r="8.41271" stroke-width="0.5" stroke="black" fill="Red"/>
  <circle cx="468.596" cy="454.273" r="5.05167" stroke-width="0.5" stroke="Red" fill="Red"/>
   </g>
   <g id="cell44">
  <circle cx="473.849" cy="469.461" r="7.11815" stroke-width="0.5" stroke="black" fill="Red"/>
  <circle cx="473.849" cy="469.461" r="4.31954" stroke-width="0.5" stroke="Red" fill="Red"/>
   </g>
   <g id="cell45">
  <circle cx="465.956" cy="477.885" r="8.41271" stroke-width="0.5" stroke="black" fill="Red"/>
  <circle cx="465.956" cy="477.885" r="5.05167" stroke-width="0.5" stroke="Red" fill="Red"/>
   </g>
   <g id="cell46">
  <circle cx="473.799" cy="495.272" r="8.41271" stroke-width="0.5" stroke="black" fill="Red"/>
  <circle cx="473.799" cy="495.272" r="5.05167" stroke-width="0.5" stroke="Red" fill="Red"/>
   </g>
   <g id="cell47">
  <circle cx="461.43" cy="501.92" r="8.17502" stroke-width="0.5" stroke="black" fill="Red"/>
  <circle cx="461.43" cy="501.92" r="4.94236" stroke-width="0.5" stroke="Red" fill="Red"/>
   </g>
   <g id="cell48">
  <circle cx="476.364" cy="519.831" r="8.05651" stroke-width="0.5" stroke="black" fill="blue"/>
  <circle cx="476.364" cy="519.831" r="4.87966" stroke-width="0.5" stroke="blue" fill="blue"/>
   </g>
   <g id="cell49">
  <circle cx="467.677" cy="542.826" r="6.99069" stroke-width="0.5" stroke="black" fill="Red"/>
  <circle cx="467.677" cy="542.826" r="4.23498" stroke-width="0.5" stroke="Red" fill="Red"/>
   </g>
   <g id="cell50">
  <circle cx="473.678" cy="563.368" r="7.65871" stroke-width="0.5" stroke="black" fill="Red"/>
  <circle cx="473.678" cy="563.368" r="4.6537" stroke-width="0.5" stroke="Red" fill="Red"/>
   </g>
   <g id="cell51">
  <circle cx="474.327" cy="575.036" r="8.41271" stroke-width="0.5" stroke="black" fill="Red"/>
  <circle cx="474.327" cy="575.036" r="5.05167" stroke-width="0.5" stroke="Red" fill="Red"/>
   </g>
   <g id="cell52">
  <circle cx="482.735" cy="585.132" r="6.83713" stroke-width="0.5" stroke="black" fill="Red"/>
  <circle cx="482.735" cy="585.132" r="4.12773" stroke-width="0.5" stroke="Red" fill="Red"/>
   </g>
   <g id="cell53">
  <circle cx="489.415" cy="407.613" r="6.99069" stroke-width="0.5" stroke="black" fill="Red"/>
  <circle cx="489.415" cy="407.613" r="4.23498" stroke-width="0.5" stroke="Red" fill="Red"/>
   </g>
   <g id="cell54">
  <circle cx="475.796" cy="424.46" r="8.41271" stroke-width="0.5" stroke="black" fill="Red"/>
  <circle cx="475.796" cy="424.46" r="5.05167" stroke-width="0.5" stroke="Red" fill="Red"/>
   </g>
   <g id="cell55">
  <circle cx="479.497" cy="447.152" r="7.97646" stroke-width="0.5" stroke="black" fill="Red"/>
  <circle cx="479.497" cy="447.152" r="4.83584" stroke-width="0.5" stroke="Red" fill="Red"/>
   </g>
   <g id="cell56">
  <circle cx="489.5" cy="454.44" r="8.09544" stroke-width="0.5" stroke="black" fill="blue"/>
  <circle cx="489.5" cy="454.44" r="4.90058" stroke-width="0.5" stroke="blue" fill="blue"/>
   </g>
   <g id="cell57">
  <circle cx="485.231" cy="471.831" r="8.41271" stroke-width="0.5" stroke="black" fill="Red"/>
  <circle cx="485.231" cy="471.831" r="5.05167" stroke-width="0.5" stroke="Red" fill="Red"/>
   </g>
   <g id="cell58">
  <circle cx="477.16" cy="483.726" r="8.41271" stroke-width="0.5" stroke="black" fill="blue"/>
  <circle cx="477.16" cy="483.726" r="5.05167" stroke-width="0.5" stroke="blue" fill="blue"/>
   </g>
   <g id="cell59">
  <circle cx="485.873" cy="495.92" r="7.67987" stroke-width="0.5" stroke="black" fill="Red"/>
  <circle cx="485.873" cy="495.92" r="4.66617" stroke-width="0.5" stroke="Red" fill="Red"/>
   </g>
   <g id="cell60">
  <circle cx="487.633" cy="517.652" r="8.41271" stroke-width="0.5" stroke="black" fill="Red"/>
  <circle cx="487.633" cy="517.652" r="5.05167" stroke-width="0.5" stroke="Red" fill="Red"/>
   </g>
   <g id="cell61">
  <circle cx="482.378" cy="530.423" r="8.41271" stroke-width="0.5" stroke="black" fill="Red"/>
  <circle cx="482.378" cy="530.423" r="5.05167" stroke-width="0.5" stroke="Red" fill="Red"/>
   </g>
   <g id="cell62">
  <circle cx="484.692" cy="550.094" r="8.41271" stroke-width="0.5" stroke="black" fill="Red"/>
  <circle cx="484.692" cy="550.094" r="5.05167" stroke-width="0.5" stroke="Red" fill="Red"/>
   </g>
   <g id="cell63">
  <circle cx="492.528" cy="561.885" r="6.75639" stroke-width="0.5" stroke="black" fill="Red"/>
  <circle cx="492.528" cy="561.885" r="4.06813" stroke-width="0.5" stroke="Red" fill="Red"/>
   </g>
   <g id="cell64">
  <circle cx="490.679" cy="580.187" r="6.99069" stroke-width="0.5" stroke="black" fill="blue"/>
  <circle cx="490.679" cy="580.187" r="4.23498" stroke-width="0.5" stroke="blue" fill="blue"/>
   </g>
   <g id="cell65">
  <circle cx="477.114" cy="594.859" r="7.54436" stroke-width="0.5" stroke="black" fill="Red"/>
  <circle cx="477.114" cy="594.859" r="4.58555" stroke-width="0.5" stroke="Red" fill="Red"/>
   </g>
   <g id="cell66">
  <circle cx="503.593" cy="405.623" r="8.41271" stroke-width="0.5" stroke="black" fill="Red"/>
  <circle cx="503.593" cy="405.623" r="5.05167" stroke-width="0.5" stroke="Red" fill="Red"/>
   </g>
   <g id="cell67">
  <circle cx="487.48" cy="418.516" r="8.41271" stroke-width="0.5" stroke="black" fill="Red"/>
  <circle cx="487.48" cy="418.516" r="5.05167" stroke-width="0.5" stroke="Red" fill="Red"/>
   </g>
   <g id="cell68">
  <circle cx="498.707" cy="424.905" r="6.69288" stroke-width="0.5" stroke="black" fill="Red"/>
  <circle cx="498.707" cy="424.905" r="4.02051" stroke-width="0.5" stroke="Red" fill="Red"/>
   </g>
   <g id="cell69">
  <circle cx="497.418" cy="445.215" r="7.11815" stroke-width="0.5" stroke="black" fill="Red"/>
  <circle cx="497.418" cy="445.215" r="4.31954" stroke-width="0.5" stroke="Red" fill="Red"/>
   </g>
   <g id="cell70">
  <circle cx="495.498" cy="463.447" r="8.41271" stroke-width="0.5" stroke="black" fill="blue"/>
  <circle cx="495.498" cy="463.447" r="5.05167" stroke-width="0.5" stroke="blue" fill="blue"/>
   </g>
   <g id="cell71">
  <circle cx="490.515" cy="483.297" r="8.41271" stroke-width="0.5" stroke="black" fill="Red"/>
  <circle cx="490.515" cy="483.297" r="5.05167" stroke-width="0.5" stroke="Red" fill="Red"/>
   </g>
   <g id="cell72">
  <circle cx="497.796" cy="493.56" r="8.41271" stroke-width="0.5" stroke="black" fill="Red"/>
  <circle cx="497.796" cy="493.56" r="5.05167" stroke-width="0.5" stroke="Red" fill="Red"/>
   </g>
   <g id="cell73">
  <circle cx="498.385" cy="514.156" r="8.41271" stroke-width="0.5" stroke="black" fill="Red"/>
  <circle cx="498.385" cy="514.156" r="5.05167" stroke-width="0.5" stroke="Red" fill="Red"/>
   </g>
   <g id="cell74">
  <circle cx="496.269" cy="528.288" r="8.41271" stroke-width="0.5" stroke="black" fill="Red"/>
  <circle cx="496.269" cy="528.288" r="5.05167" stroke-width="0.5" stroke="Red" fill="Red"/>
   </g>
   <g id="cell75">
  <circle cx="491.769" cy="540.183" r="8.41271" stroke-width="0.5" stroke="black" fill="Red"/>
  <circle cx="491.769" cy="540.183" r="5.05167" stroke-width="0.5" stroke="Red" fill="Red"/>
   </g>
   <g id="cell76">
  <circle cx="501.663" cy="546.776" r="7.0545" stroke-width="0.5" stroke="black" fill="Red"/>
  <circle cx="501.663" cy="546.776" r="4.27772" stroke-width="0.5" stroke="Red" fill="Red"/>
   </g>
   <g id="cell77">
  <circle cx="497.642" cy="571.194" r="8.04604" stroke-width="0.5" stroke="black" fill="Red"/>
  <circle cx="497.642" cy="571.194" r="4.87399" stroke-width="0.5" stroke="Red" fill="Red"/>
   </g>
   <g id="cell78">
  <circle cx="501.54" cy="584.153" r="8.41271" stroke-width="0.5" stroke="black" fill="yellow"/>
  <circle cx="501.54" cy="584.153" r="5.05167" stroke-width="0.5" stroke="yellow" fill="yellow"/>
   </g>
   <g id="cell79">
  <circle cx="503.494" cy="597.67" r="8.41271" stroke-width="0.5" stroke="black" fill="blue"/>
  <circle cx="503.494" cy="597.67" r="5.05167" stroke-width="0.5" stroke="blue" fill="blue"/>
   </g>
   <g id="cell80">
  <circle cx="516.514" cy="409.952" r="7.79564" stroke-width="0.5" stroke="black" fill="Red"/>
  <circle cx="516.514" cy="409.952" r="4.73359" stroke-width="0.5" stroke="Red" fill="Red"/>
   </g>
   <g id="cell81">
  <circle cx="516.997" cy="432.672" r="8.41271" stroke-width="0.5" stroke="black" fill="Red"/>
  <circle cx="516.997" cy="432.672" r="5.05167" stroke-width="0.5" stroke="Red" fill="Red"/>
   </g>
   <g id="cell82">
  <circle cx="510.275" cy="443.722" r="7.59183" stroke-width="0.5" stroke="black" fill="Red"/>
  <circle cx="510.275" cy="443.722" r="4.61399" stroke-width="0.5" stroke="Red" fill="Red"/>
   </g>
   <g id="cell83">
  <circle cx="503.78" cy="455.831" r="8.41271" stroke-width="0.5" stroke="black" fill="Red"/>
  <circle cx="503.78" cy="455.831" r="5.05167" stroke-width="0.5" stroke="Red" fill="Red"/>
   </g>
   <g id="cell84">
  <circle cx="509.338" cy="465.988" r="7.3599" stroke-width="0.5" stroke="black" fill="Red"/>
  <circle cx="509.338" cy="465.988" r="4.47294" stroke-width="0.5" stroke="Red" fill="Red"/>
   </g>
   <g id="cell85">
  <circle cx="499.756" cy="474.124" r="8.41271" stroke-width="0.5" stroke="black" fill="Red"/>
  <circle cx="499.756" cy="474.124" r="5.05167" stroke-width="0.5" stroke="Red" fill="Red"/>
   </g>
   <g id="cell86">
  <circle cx="506.494" cy="505.146" r="8.41271" stroke-width="0.5" stroke="black" fill="Red"/>
  <circle cx="506.494" cy="505.146" r="5.05167" stroke-width="0.5" stroke="Red" fill="Red"/>
   </g>
   <g id="cell87">
  <circle cx="513.855" cy="514.752" r="6.58338" stroke-width="0.5" stroke="black" fill="Red"/>
  <circle cx="513.855" cy="514.752" r="4.00563" stroke-width="0.5" stroke="Red" fill="Red"/>
   </g>
   <g id="cell88">
  <circle cx="507.115" cy="536.857" r="8.41271" stroke-width="0.5" stroke="black" fill="Red"/>
  <circle cx="507.115" cy="536.857" r="5.05167" stroke-width="0.5" stroke="Red" fill="Red"/>
   </g>
   <g id="cell89">
  <circle cx="511.195" cy="550.738" r="8.41271" stroke-width="0.5" stroke="black" fill="Red"/>
  <circle cx="511.195" cy="550.738" r="5.05167" stroke-width="0.5" stroke="Red" fill="Red"/>
   </g>
   <g id="cell90">
  <circle cx="517.983" cy="561.987" r="8.41271" stroke-width="0.5" stroke="black" fill="yellow"/>
  <circle cx="517.983" cy="561.987" r="5.05167" stroke-width="0.5" stroke="yellow" fill="yellow"/>
   </g>
   <g id="cell91">
  <circle cx="510.696" cy="573.091" r="8.41271" stroke-width="0.5" stroke="black" fill="Red"/>
  <circle cx="510.696" cy="573.091" r="5.05167" stroke-width="0.5" stroke="Red" fill="Red"/>
   </g>
   <g id="cell92">
  <circle cx="514.975" cy="586.807" r="8.41271" stroke-width="0.5" stroke="black" fill="Red"/>
  <circle cx="514.975" cy="586.807" r="5.05167" stroke-width="0.5" stroke="Red" fill="Red"/>
   </g>
   <g id="cell93">
  <circle cx="530.631" cy="409.069" r="8.41271" stroke-width="0.5" stroke="black" fill="blue"/>
  <circle cx="530.631" cy="409.069" r="5.05167" stroke-width="0.5" stroke="blue" fill="blue"/>
   </g>
   <g id="cell94">
  <circle cx="537.806" cy="422.065" r="8.08613" stroke-width="0.5" stroke="black" fill="Red"/>
  <circle cx="537.806" cy="422.065" r="4.8956" stroke-width="0.5" stroke="Red" fill="Red"/>
   </g>
   <g id="cell95">
  <circle cx="530.588" cy="432.779" r="8.41271" stroke-width="0.5" stroke="black" fill="Red"/>
  <circle cx="530.588" cy="432.779" r="5.05167" stroke-width="0.5" stroke="Red" fill="Red"/>
   </g>
   <g id="cell96">
  <circle cx="522.521" cy="443.558" r="7.84583" stroke-width="0.5" stroke="black" fill="blue"/>
  <circle cx="522.521" cy="443.558" r="4.77548" stroke-width="0.5" stroke="blue" fill="blue"/>
   </g>
   <g id="cell97">
  <circle cx="530.047" cy="457.29" r="8.41271" stroke-width="0.5" stroke="black" fill="Red"/>
  <circle cx="530.047" cy="457.29" r="5.05167" stroke-width="0.5" stroke="Red" fill="Red"/>
   </g>
   <g id="cell98">
  <circle cx="525.707" cy="489.175" r="7.671" stroke-width="0.5" stroke="black" fill="blue"/>
  <circle cx="525.707" cy="489.175" r="4.68029" stroke-width="0.5" stroke="blue" fill="blue"/>
   </g>
   <g id="cell99">
  <circle cx="530.214" cy="498.955" r="8.41271" stroke-width="0.5" stroke="black" fill="Red"/>
  <circle cx="530.214" cy="498.955" r="5.05167" stroke-width="0.5" stroke="Red" fill="Red"/>
   </g>
   <g id="cell100">
  <circle cx="518.343" cy="498.404" r="7.72056" stroke-width="0.5" stroke="black" fill="Red"/>
  <circle cx="518.343" cy="498.404" r="4.69003" stroke-width="0.5" stroke="Red" fill="Red"/>
   </g>
   <g id="cell101">
  <circle cx="517.491" cy="528.346" r="8.41271" stroke-width="0.5" stroke="black" fill="Red"/>
  <circle cx="517.491" cy="528.346" r="5.05167" stroke-width="0.5" stroke="Red" fill="Red"/>
   </g>
   <g id="cell102">
  <circle cx="527.522" cy="532.647" r="8.15353" stroke-width="0.5" stroke="black" fill="Red"/>
  <circle cx="527.522" cy="532.647" r="4.93122" stroke-width="0.5" stroke="Red" fill="Red"/>
   </g>
   <g id="cell103">
  <circle cx="526.473" cy="551.692" r="8.41271" stroke-width="0.5" stroke="black" fill="Red"/>
  <circle cx="526.473" cy="551.692" r="5.05167" stroke-width="0.5" stroke="Red" fill="Red"/>
   </g>
   <g id="cell104">
  <circle cx="531.138" cy="564.382" r="8.41271" stroke-width="0.5" stroke="black" fill="Red"/>
  <circle cx="531.138" cy="564.382" r="5.05167" stroke-width="0.5" stroke="Red" fill="Red"/>
   </g>
   <g id="cell105">
  <circle cx="523.97" cy="574.885" r="8.41271" stroke-width="0.5" stroke="black" fill="blue"/>
  <circle cx="523.97" cy="574.885" r="5.05167" stroke-width="0.5" stroke="blue" fill="blue"/>
   </g>
   <g id="cell106">
  <circle cx="544.809" cy="409.541" r="7.7401" stroke-width="0.5" stroke="black" fill="yellow"/>
  <circle cx="544.809" cy="409.541" r="4.70142" stroke-width="0.5" stroke="yellow" fill="yellow"/>
   </g>
   <g id="cell107">
  <circle cx="543.427" cy="435.266" r="8.41271" stroke-width="0.5" stroke="black" fill="blue"/>
  <circle cx="543.427" cy="435.266" r="5.05167" stroke-width="0.5" stroke="blue" fill="blue"/>
   </g>
   <g id="cell108">
  <circle cx="535.317" cy="445.938" r="8.41271" stroke-width="0.5" stroke="black" fill="Red"/>
  <circle cx="535.317" cy="445.938" r="5.05167" stroke-width="0.5" stroke="Red" fill="Red"/>
   </g>
   <g id="cell109">
  <circle cx="549.442" cy="465.675" r="8.41271" stroke-width="0.5" stroke="black" fill="Red"/>
  <circle cx="549.442" cy="465.675" r="5.05167" stroke-width="0.5" stroke="Red" fill="Red"/>
   </g>
   <g id="cell110">
  <circle cx="533.329" cy="481.842" r="8.41271" stroke-width="0.5" stroke="black" fill="Red"/>
  <circle cx="533.329" cy="481.842" r="5.05167" stroke-width="0.5" stroke="Red" fill="Red"/>
   </g>
   <g id="cell111">
  <circle cx="539.451" cy="490.942" r="6.86652" stroke-width="0.5" stroke="black" fill="Red"/>
  <circle cx="539.451" cy="490.942" r="4.14883" stroke-width="0.5" stroke="Red" fill="Red"/>
   </g>
   <g id="cell112">
  <circle cx="540.567" cy="505.267" r="8.41271" stroke-width="0.5" stroke="black" fill="Red"/>
  <circle cx="540.567" cy="505.267" r="5.05167" stroke-width="0.5" stroke="Red" fill="Red"/>
   </g>
   <g id="cell113">
  <circle cx="529.233" cy="512.647" r="8.41271" stroke-width="0.5" stroke="black" fill="Red"/>
  <circle cx="529.233" cy="512.647" r="5.05167" stroke-width="0.5" stroke="Red" fill="Red"/>
   </g>
   <g id="cell114">
  <circle cx="535.321" cy="524.18" r="8.41271" stroke-width="0.5" stroke="black" fill="blue"/>
  <circle cx="535.321" cy="524.18" r="5.05167" stroke-width="0.5" stroke="blue" fill="blue"/>
   </g>
   <g id="cell115">
  <circle cx="535.32" cy="541.374" r="8.41271" stroke-width="0.5" stroke="black" fill="Red"/>
  <circle cx="535.32" cy="541.374" r="5.05167" stroke-width="0.5" stroke="Red" fill="Red"/>
   </g>
   <g id="cell116">
  <circle cx="544.323" cy="565.758" r="7.41548" stroke-width="0.5" stroke="black" fill="blue"/>
  <circle cx="544.323" cy="565.758" r="4.50723" stroke-width="0.5" stroke="blue" fill="blue"/>
   </g>
   <g id="cell117">
  <circle cx="533.54" cy="582.889" r="6.69288" stroke-width="0.5" stroke="black" fill="Red"/>
  <circle cx="533.54" cy="582.889" r="4.02051" stroke-width="0.5" stroke="Red" fill="Red"/>
   </g>
   <g id="cell118">
  <circle cx="550.367" cy="423.902" r="8.41271" stroke-width="0.5" stroke="black" fill="yellow"/>
  <circle cx="550.367" cy="423.902" r="5.05167" stroke-width="0.5" stroke="yellow" fill="yellow"/>
   </g>
   <g id="cell119">
  <circle cx="559.2" cy="434.727" r="8.41271" stroke-width="0.5" stroke="black" fill="Red"/>
  <circle cx="559.2" cy="434.727" r="5.05167" stroke-width="0.5" stroke="Red" fill="Red"/>
   </g>
   <g id="cell120">
  <circle cx="557.45" cy="457.019" r="8.07654" stroke-width="0.5" stroke="black" fill="Red"/>
  <circle cx="557.45" cy="457.019" r="4.89046" stroke-width="0.5" stroke="Red" fill="Red"/>
   </g>
   <g id="cell121">
  <circle cx="558.234" cy="475.771" r="8.41271" stroke-width="0.5" stroke="black" fill="Red"/>
  <circle cx="558.234" cy="475.771" r="5.05167" stroke-width="0.5" stroke="Red" fill="Red"/>
   </g>
   <g id="cell122">
  <circle cx="544.149" cy="475.96" r="8.41271" stroke-width="0.5" stroke="black" fill="Red"/>
  <circle cx="544.149" cy="475.96" r="5.05167" stroke-width="0.5" stroke="Red" fill="Red"/>
   </g>
   <g id="cell123">
  <circle cx="550.095" cy="496.793" r="8.41271" stroke-width="0.5" stroke="black" fill="Red"/>
  <circle cx="550.095" cy="496.793" r="5.05167" stroke-width="0.5" stroke="Red" fill="Red"/>
   </g>
   <g id="cell124">
  <circle cx="555.406" cy="508.566" r="8.41271" stroke-width="0.5" stroke="black" fill="blue"/>
  <circle cx="555.406" cy="508.566" r="5.05167" stroke-width="0.5" stroke="blue" fill="blue"/>
   </g>
   <g id="cell125">
  <circle cx="544.41" cy="516.181" r="8.08613" stroke-width="0.5" stroke="black" fill="Red"/>
  <circle cx="544.41" cy="516.181" r="4.8956" stroke-width="0.5" stroke="Red" fill="Red"/>
   </g>
   <g id="cell126">
  <circle cx="544.985" cy="532.104" r="8.41271" stroke-width="0.5" stroke="black" fill="Red"/>
  <circle cx="544.985" cy="532.104" r="5.05167" stroke-width="0.5" stroke="Red" fill="Red"/>
   </g>
   <g id="cell127">
  <circle cx="549.851" cy="556.722" r="6.99069" stroke-width="0.5" stroke="black" fill="Red"/>
  <circle cx="549.851" cy="556.722" r="4.23498" stroke-width="0.5" stroke="Red" fill="Red"/>
   </g>
   <g id="cell128">
  <circle cx="558.424" cy="566.023" r="8.41271" stroke-width="0.5" stroke="black" fill="Red"/>
  <circle cx="558.424" cy="566.023" r="5.05167" stroke-width="0.5" stroke="Red" fill="Red"/>
   </g>
   <g id="cell129">
  <circle cx="580.61" cy="457.827" r="8.06667" stroke-width="0.5" stroke="black" fill="Red"/>
  <circle cx="580.61" cy="457.827" r="4.88515" stroke-width="0.5" stroke="Red" fill="Red"/>
   </g>
   <g id="cell130">
  <circle cx="566.392" cy="466.037" r="8.41271" stroke-width="0.5" stroke="black" fill="Red"/>
  <circle cx="566.392" cy="466.037" r="5.05167" stroke-width="0.5" stroke="Red" fill="Red"/>
   </g>
   <g id="cell131">
  <circle cx="570.466" cy="481.03" r="8.41271" stroke-width="0.5" stroke="black" fill="Red"/>
  <circle cx="570.466" cy="481.03" r="5.05167" stroke-width="0.5" stroke="Red" fill="Red"/>
   </g>
   <g id="cell132">
  <circle cx="561.224" cy="490.234" r="8.41271" stroke-width="0.5" stroke="black" fill="Red"/>
  <circle cx="561.224" cy="490.234" r="5.05167" stroke-width="0.5" stroke="Red" fill="Red"/>
   </g>
   <g id="cell133">
  <circle cx="566.581" cy="501.59" r="8.41271" stroke-width="0.5" stroke="black" fill="Red"/>
  <circle cx="566.581" cy="501.59" r="5.05167" stroke-width="0.5" stroke="Red" fill="Red"/>
   </g>
   <g id="cell134">
  <circle cx="567.742" cy="514.665" r="8.41271" stroke-width="0.5" stroke="black" fill="yellow"/>
  <circle cx="567.742" cy="514.665" r="5.05167" stroke-width="0.5" stroke="yellow" fill="yellow"/>
   </g>
   <g id="cell135">
  <circle cx="568.996" cy="529.555" r="8.41271" stroke-width="0.5" stroke="black" fill="yellow"/>
  <circle cx="568.996" cy="529.555" r="5.05167" stroke-width="0.5" stroke="yellow" fill="yellow"/>
   </g>
   <g id="cell136">
  <circle cx="557.13" cy="536.662" r="8.41271" stroke-width="0.5" stroke="black" fill="Red"/>
  <circle cx="557.13" cy="536.662" r="5.05167" stroke-width="0.5" stroke="Red" fill="Red"/>
   </g>
   <g id="cell137">
  <circle cx="569.03" cy="556.721" r="7.51976" stroke-width="0.5" stroke="black" fill="blue"/>
  <circle cx="569.03" cy="556.721" r="4.57072" stroke-width="0.5" stroke="blue" fill="blue"/>
   </g>
   <g id="cell138">
  <circle cx="578.362" cy="471.95" r="8.41271" stroke-width="0.5" stroke="black" fill="blue"/>
  <circle cx="578.362" cy="471.95" r="5.05167" stroke-width="0.5" stroke="blue" fill="blue"/>
   </g>
   <g id="cell139">
  <circle cx="584.908" cy="482.573" r="8.41271" stroke-width="0.5" stroke="black" fill="yellow"/>
  <circle cx="584.908" cy="482.573" r="5.05167" stroke-width="0.5" stroke="yellow" fill="yellow"/>
   </g>
   <g id="cell140">
  <circle cx="576.211" cy="491.843" r="8.18177" stroke-width="0.5" stroke="black" fill="Red"/>
  <circle cx="576.211" cy="491.843" r="4.94584" stroke-width="0.5" stroke="Red" fill="Red"/>
   </g>
   <g id="cell141">
  <circle cx="579.392" cy="505.847" r="8.41271" stroke-width="0.5" stroke="black" fill="yellow"/>
  <circle cx="579.392" cy="505.847" r="5.05167" stroke-width="0.5" stroke="yellow" fill="yellow"/>
   </g>
   <g id="cell142">
  <circle cx="579.2" cy="520.748" r="8.00101" stroke-width="0.5" stroke="black" fill="blue"/>
  <circle cx="579.2" cy="520.748" r="4.84939" stroke-width="0.5" stroke="blue" fill="blue"/>
   </g>
   <g id="cell143">
  <circle cx="570.769" cy="543.385" r="8.41271" stroke-width="0.5" stroke="black" fill="yellow"/>
  <circle cx="570.769" cy="543.385" r="5.05167" stroke-width="0.5" stroke="yellow" fill="yellow"/>
   </g>
   <g id="cell144">
  <circle cx="429.232" cy="429.389" r="7.66256" stroke-width="0.5" stroke="black" fill="blue"/>
  <circle cx="429.232" cy="429.389" r="4.67205" stroke-width="0.5" stroke="blue" fill="blue"/>
   </g>
   <g id="cell145">
  <circle cx="588.871" cy="494.921" r="7.14991" stroke-width="0.5" stroke="black" fill="yellow"/>
  <circle cx="588.871" cy="494.921" r="4.36599" stroke-width="0.5" stroke="yellow" fill="yellow"/>
   </g>
   <g id="cell146">
  <circle cx="472.649" cy="507.514" r="7.8712" stroke-width="0.5" stroke="black" fill="Red"/>
  <circle cx="472.649" cy="507.514" r="4.78944" stroke-width="0.5" stroke="Red" fill="Red"/>
   </g>
   <g id="cell147">
  <circle cx="542.523" cy="457.206" r="8.02865" stroke-width="0.5" stroke="black" fill="blue"/>
  <circle cx="542.523" cy="457.206" r="4.87372" stroke-width="0.5" stroke="blue" fill="blue"/>
   </g>
   <g id="cell148">
  <circle cx="520.136" cy="542.457" r="8.15353" stroke-width="0.5" stroke="black" fill="blue"/>
  <circle cx="520.136" cy="542.457" r="4.93122" stroke-width="0.5" stroke="blue" fill="blue"/>
   </g>
   <g id="cell149">
  <circle cx="534.317" cy="468.398" r="8.02865" stroke-width="0.5" stroke="black" fill="Red"/>
  <circle cx="534.317" cy="468.398" r="4.87372" stroke-width="0.5" stroke="Red" fill="Red"/>
   </g>
   <g id="cell150">
  <circle cx="441.253" cy="513.559" r="8.11327" stroke-width="0.5" stroke="black" fill="blue"/>
  <circle cx="441.253" cy="513.559" r="4.91006" stroke-width="0.5" stroke="blue" fill="blue"/>
   </g>
   <g id="cell151">
  <circle cx="448.258" cy="413.561" r="8.11327" stroke-width="0.5" stroke="black" fill="blue"/>
  <circle cx="448.258" cy="413.561" r="4.91006" stroke-width="0.5" stroke="blue" fill="blue"/>
   </g>
   <g id="cell152">
  <circle cx="479.708" cy="460.173" r="8.09544" stroke-width="0.5" stroke="black" fill="Red"/>
  <circle cx="479.708" cy="460.173" r="4.90058" stroke-width="0.5" stroke="Red" fill="Red"/>
   </g>
   <g id="cell153">
  <circle cx="524.557" cy="420.391" r="8.08613" stroke-width="0.5" stroke="black" fill="yellow"/>
  <circle cx="524.557" cy="420.391" r="4.8956" stroke-width="0.5" stroke="yellow" fill="yellow"/>
   </g>
   <g id="cell154">
  <circle cx="555.568" cy="522.726" r="8.08613" stroke-width="0.5" stroke="black" fill="Red"/>
  <circle cx="555.568" cy="522.726" r="4.8956" stroke-width="0.5" stroke="Red" fill="Red"/>
   </g>
   <g id="cell155">
  <circle cx="435.575" cy="419.007" r="7.92664" stroke-width="0.5" stroke="black" fill="Red"/>
  <circle cx="435.575" cy="419.007" r="4.82009" stroke-width="0.5" stroke="Red" fill="Red"/>
   </g>
   <g id="cell156">
  <circle cx="507.146" cy="522.707" r="8.07654" stroke-width="0.5" stroke="black" fill="blue"/>
  <circle cx="507.146" cy="522.707" r="4.89046" stroke-width="0.5" stroke="blue" fill="blue"/>
   </g>
   <g id="cell157">
  <circle cx="549.229" cy="447.11" r="8.07654" stroke-width="0.5" stroke="black" fill="Red"/>
  <circle cx="549.229" cy="447.11" r="4.89046" stroke-width="0.5" stroke="Red" fill="Red"/>
   </g>
   <g id="cell158">
  <circle cx="561.076" cy="445.764" r="7.07677" stroke-width="0.5" stroke="black" fill="Red"/>
  <circle cx="561.076" cy="445.764" r="4.34766" stroke-width="0.5" stroke="Red" fill="Red"/>
   </g>
   <g id="cell159">
  <circle cx="468.97" cy="530.533" r="8.05651" stroke-width="0.5" stroke="black" fill="Red"/>
  <circle cx="468.97" cy="530.533" r="4.87966" stroke-width="0.5" stroke="Red" fill="Red"/>
   </g>
   <g id="cell160">
  <circle cx="504.497" cy="561.581" r="8.04604" stroke-width="0.5" stroke="black" fill="blue"/>
  <circle cx="504.497" cy="561.581" r="4.87399" stroke-width="0.5" stroke="blue" fill="blue"/>
   </g>
   <g id="cell161">
  <circle cx="515.749" cy="485.36" r="7.62123" stroke-width="0.5" stroke="black" fill="Red"/>
  <circle cx="515.749" cy="485.36" r="4.65217" stroke-width="0.5" stroke="Red" fill="Red"/>
   </g>
   <g id="cell162">
  <circle cx="581.455" cy="533.082" r="6.49549" stroke-width="0.5" stroke="black" fill="yellow"/>
  <circle cx="581.455" cy="533.082" r="3.95296" stroke-width="0.5" stroke="yellow" fill="yellow"/>
   </g>
   <g id="cell163">
  <circle cx="463.987" cy="516.013" r="7.8712" stroke-width="0.5" stroke="black" fill="Red"/>
  <circle cx="463.987" cy="516.013" r="4.78944" stroke-width="0.5" stroke="Red" fill="Red"/>
   </g>
   <g id="cell164">
  <circle cx="423.874" cy="494.563" r="8.00101" stroke-width="0.5" stroke="black" fill="yellow"/>
  <circle cx="423.874" cy="494.563" r="4.84939" stroke-width="0.5" stroke="yellow" fill="yellow"/>
   </g>
   <g id="cell165">
  <circle cx="468.644" cy="440.741" r="7.97646" stroke-width="0.5" stroke="black" fill="Red"/>
  <circle cx="468.644" cy="440.741" r="4.83584" stroke-width="0.5" stroke="Red" fill="Red"/>
   </g>
   <g id="cell166">
  <circle cx="488.336" cy="430.799" r="7.97646" stroke-width="0.5" stroke="black" fill="Red"/>
  <circle cx="488.336" cy="430.799" r="4.83584" stroke-width="0.5" stroke="Red" fill="Red"/>
   </g>
   <g id="cell167">
  <circle cx="516.615" cy="454.634" r="7.84583" stroke-width="0.5" stroke="black" fill="blue"/>
  <circle cx="516.615" cy="454.634" r="4.77548" stroke-width="0.5" stroke="blue" fill="blue"/>
   </g>
   <g id="cell168">
  <circle cx="427.397" cy="529.275" r="6.50533" stroke-width="0.5" stroke="black" fill="Red"/>
  <circle cx="427.397" cy="529.275" r="3.99923" stroke-width="0.5" stroke="Red" fill="Red"/>
   </g>
   <g id="cell169">
  <circle cx="409.81" cy="458.763" r="6.59336" stroke-width="0.5" stroke="black" fill="blue"/>
  <circle cx="409.81" cy="458.763" r="4.02867" stroke-width="0.5" stroke="blue" fill="blue"/>
   </g>
   <g id="cell170">
  <circle cx="509.959" cy="494.136" r="7.06882" stroke-width="0.5" stroke="black" fill="Red"/>
  <circle cx="509.959" cy="494.136" r="4.34353" stroke-width="0.5" stroke="Red" fill="Red"/>
   </g>
   <g id="cell171">
  <circle cx="450.336" cy="585.514" r="7.87851" stroke-width="0.5" stroke="black" fill="Red"/>
  <circle cx="450.336" cy="585.514" r="4.78096" stroke-width="0.5" stroke="Red" fill="Red"/>
   </g>
   <g id="cell172">
  <circle cx="573.76" cy="442.754" r="7.6845" stroke-width="0.5" stroke="black" fill="blue"/>
  <circle cx="573.76" cy="442.754" r="4.68726" stroke-width="0.5" stroke="blue" fill="blue"/>
   </g>
   <g id="cell173">
  <circle cx="416.976" cy="521.451" r="7.62804" stroke-width="0.5" stroke="black" fill="blue"/>
  <circle cx="416.976" cy="521.451" r="4.65646" stroke-width="0.5" stroke="blue" fill="blue"/>
   </g>
   <g id="cell174">
  <circle cx="523.335" cy="475.13" r="7.62123" stroke-width="0.5" stroke="black" fill="Red"/>
  <circle cx="523.335" cy="475.13" r="4.65217" stroke-width="0.5" stroke="Red" fill="Red"/>
   </g>
   <g id="cell175">
  <circle cx="510.313" cy="420.819" r="7.79564" stroke-width="0.5" stroke="black" fill="blue"/>
  <circle cx="510.313" cy="420.819" r="4.73359" stroke-width="0.5" stroke="blue" fill="blue"/>
   </g>
   <g id="cell176">
  <circle cx="439.97" cy="434.835" r="7.66256" stroke-width="0.5" stroke="black" fill="yellow"/>
  <circle cx="439.97" cy="434.835" r="4.67205" stroke-width="0.5" stroke="yellow" fill="yellow"/>
   </g>
   <g id="cell177">
  <circle cx="559.079" cy="413.461" r="7.7401" stroke-width="0.5" stroke="black" fill="blue"/>
  <circle cx="559.079" cy="413.461" r="4.70142" stroke-width="0.5" stroke="blue" fill="blue"/>
   </g>
   <g id="cell178">
  <circle cx="522.109" cy="519.837" r="7.72056" stroke-width="0.5" stroke="black" fill="Red"/>
  <circle cx="522.109" cy="519.837" r="4.69003" stroke-width="0.5" stroke="Red" fill="Red"/>
   </g>
   <g id="cell179">
  <circle cx="450.103" cy="532.541" r="7.72056" stroke-width="0.5" stroke="black" fill="Red"/>
  <circle cx="450.103" cy="532.541" r="4.69003" stroke-width="0.5" stroke="Red" fill="Red"/>
   </g>
   <g id="cell180">
  <circle cx="453.308" cy="434.903" r="7.72056" stroke-width="0.5" stroke="black" fill="Red"/>
  <circle cx="453.308" cy="434.903" r="4.69003" stroke-width="0.5" stroke="Red" fill="Red"/>
   </g>
   <g id="cell181">
  <circle cx="483.571" cy="506.566" r="6.72308" stroke-width="0.5" stroke="black" fill="Red"/>
  <circle cx="483.571" cy="506.566" r="4.12247" stroke-width="0.5" stroke="Red" fill="Red"/>
   </g>
   <g id="cell182">
  <circle cx="472.492" cy="552.657" r="7.65871" stroke-width="0.5" stroke="black" fill="Red"/>
  <circle cx="472.492" cy="552.657" r="4.6537" stroke-width="0.5" stroke="Red" fill="Red"/>
   </g>
   <g id="cell183">
  <circle cx="464.671" cy="430.94" r="7.61469" stroke-width="0.5" stroke="black" fill="blue"/>
  <circle cx="464.671" cy="430.94" r="4.62762" stroke-width="0.5" stroke="blue" fill="blue"/>
   </g>
   <g id="cell184">
  <circle cx="505.427" cy="433.271" r="6.40465" stroke-width="0.5" stroke="black" fill="Red"/>
  <circle cx="505.427" cy="433.271" r="3.92284" stroke-width="0.5" stroke="Red" fill="Red"/>
   </g>
   <g id="cell185">
  <circle cx="490.836" cy="593.972" r="7.54436" stroke-width="0.5" stroke="black" fill="yellow"/>
  <circle cx="490.836" cy="593.972" r="4.58555" stroke-width="0.5" stroke="yellow" fill="yellow"/>
   </g>
   <g id="cell186">
  <circle cx="503.822" cy="484.726" r="7.06882" stroke-width="0.5" stroke="black" fill="blue"/>
  <circle cx="503.822" cy="484.726" r="4.34353" stroke-width="0.5" stroke="blue" fill="blue"/>
   </g>
   <g id="cell187">
  <circle cx="568.611" cy="452.902" r="7.07677" stroke-width="0.5" stroke="black" fill="Red"/>
  <circle cx="568.611" cy="452.902" r="4.34766" stroke-width="0.5" stroke="Red" fill="Red"/>
   </g>
   <g id="cell188">
  <circle cx="558.694" cy="549.253" r="7.51976" stroke-width="0.5" stroke="black" fill="Red"/>
  <circle cx="558.694" cy="549.253" r="4.57072" stroke-width="0.5" stroke="Red" fill="Red"/>
   </g>
   <g id="cell189">
  <circle cx="459.104" cy="525.502" r="7.49456" stroke-width="0.5" stroke="black" fill="Red"/>
  <circle cx="459.104" cy="525.502" r="4.55548" stroke-width="0.5" stroke="Red" fill="Red"/>
   </g>
   <g id="cell190">
  <circle cx="454.776" cy="511.062" r="6.84383" stroke-width="0.5" stroke="black" fill="Red"/>
  <circle cx="454.776" cy="511.062" r="4.19918" stroke-width="0.5" stroke="Red" fill="Red"/>
   </g>
   <g id="cell191">
  <circle cx="538.464" cy="553.817" r="7.41548" stroke-width="0.5" stroke="black" fill="Red"/>
  <circle cx="538.464" cy="553.817" r="4.50723" stroke-width="0.5" stroke="Red" fill="Red"/>
   </g>
   <g id="cell192">
  <circle cx="514.466" cy="474.242" r="5.17225" stroke-width="0.5" stroke="black" fill="Red"/>
  <circle cx="514.466" cy="474.242" r="3.17438" stroke-width="0.5" stroke="Red" fill="Red"/>
   </g>
   <g id="cell193">
  <circle cx="596.823" cy="484.449" r="7.14991" stroke-width="0.5" stroke="black" fill="blue"/>
  <circle cx="596.823" cy="484.449" r="4.36599" stroke-width="0.5" stroke="blue" fill="blue"/>
   </g>
   <g id="cell194">
  <circle cx="450.147" cy="572.123" r="7.30216" stroke-width="0.5" stroke="black" fill="Red"/>
  <circle cx="450.147" cy="572.123" r="4.43696" stroke-width="0.5" stroke="Red" fill="Red"/>
   </g>
   <g id="cell195">
  <circle cx="494.221" cy="504.545" r="6.72308" stroke-width="0.5" stroke="black" fill="blue"/>
  <circle cx="494.221" cy="504.545" r="4.12247" stroke-width="0.5" stroke="blue" fill="blue"/>
   </g>
   <g id="cell196">
  <circle cx="458.691" cy="411.265" r="7.21189" stroke-width="0.5" stroke="black" fill="Red"/>
  <circle cx="458.691" cy="411.265" r="4.37993" stroke-width="0.5" stroke="Red" fill="Red"/>
   </g>
   <g id="cell197">
  <circle cx="520.435" cy="465.017" r="6.51663" stroke-width="0.5" stroke="black" fill="blue"/>
  <circle cx="520.435" cy="465.017" r="3.99947" stroke-width="0.5" stroke="blue" fill="blue"/>
   </g>
   <g id="cell198">
  <circle cx="459.224" cy="537.351" r="6.71433" stroke-width="0.5" stroke="black" fill="blue"/>
  <circle cx="459.224" cy="537.351" r="4.11582" stroke-width="0.5" stroke="blue" fill="blue"/>
   </g>
   <g id="cell199">
  <circle cx="409.897" cy="542.507" r="6.87621" stroke-width="0.5" stroke="black" fill="blue"/>
  <circle cx="409.897" cy="542.507" r="4.20766" stroke-width="0.5" stroke="blue" fill="blue"/>
   </g>
   <g id="cell200">
  <circle cx="488.681" cy="441.84" r="7.11815" stroke-width="0.5" stroke="black" fill="Red"/>
  <circle cx="488.681" cy="441.84" r="4.31954" stroke-width="0.5" stroke="Red" fill="Red"/>
   </g>
   <g id="cell201">
  <circle cx="464.605" cy="464.495" r="7.11815" stroke-width="0.5" stroke="black" fill="blue"/>
  <circle cx="464.605" cy="464.495" r="4.31954" stroke-width="0.5" stroke="blue" fill="blue"/>
   </g>
   <g id="cell202">
  <circle cx="418.698" cy="534.135" r="6.50533" stroke-width="0.5" stroke="black" fill="Red"/>
  <circle cx="418.698" cy="534.135" r="3.99923" stroke-width="0.5" stroke="Red" fill="Red"/>
   </g>
   <g id="cell203">
  <circle cx="495.008" cy="553.434" r="7.0545" stroke-width="0.5" stroke="black" fill="Red"/>
  <circle cx="495.008" cy="553.434" r="4.27772" stroke-width="0.5" stroke="Red" fill="Red"/>
   </g>
   <g id="cell204">
  <circle cx="441.734" cy="478.985" r="7.02257" stroke-width="0.5" stroke="black" fill="blue"/>
  <circle cx="441.734" cy="478.985" r="4.25644" stroke-width="0.5" stroke="blue" fill="blue"/>
   </g>
   <g id="cell205">
  <circle cx="497.165" cy="434.991" r="6.40465" stroke-width="0.5" stroke="black" fill="blue"/>
  <circle cx="497.165" cy="434.991" r="3.92284" stroke-width="0.5" stroke="blue" fill="blue"/>
   </g>
   <g id="cell206">
  <circle cx="494.518" cy="397.306" r="6.99069" stroke-width="0.5" stroke="black" fill="blue"/>
  <circle cx="494.518" cy="397.306" r="4.23498" stroke-width="0.5" stroke="blue" fill="blue"/>
   </g>
   <g id="cell207">
  <circle cx="478.542" cy="540.917" r="6.99069" stroke-width="0.5" stroke="black" fill="blue"/>
  <circle cx="478.542" cy="540.917" r="4.23498" stroke-width="0.5" stroke="blue" fill="blue"/>
   </g>
   <g id="cell208">
  <circle cx="547.695" cy="544.835" r="6.99069" stroke-width="0.5" stroke="black" fill="blue"/>
  <circle cx="547.695" cy="544.835" r="4.23498" stroke-width="0.5" stroke="blue" fill="blue"/>
   </g>
   <g id="cell209">
  <circle cx="484.623" cy="570.428" r="6.99069" stroke-width="0.5" stroke="black" fill="blue"/>
  <circle cx="484.623" cy="570.428" r="4.23498" stroke-width="0.5" stroke="blue" fill="blue"/>
   </g>
   <g id="cell210">
  <circle cx="411.903" cy="448.024" r="6.59336" stroke-width="0.5" stroke="black" fill="yellow"/>
  <circle cx="411.903" cy="448.024" r="4.02867" stroke-width="0.5" stroke="yellow" fill="yellow"/>
   </g>
   <g id="cell211">
  <circle cx="432.161" cy="460.782" r="6.92764" stroke-width="0.5" stroke="black" fill="blue"/>
  <circle cx="432.161" cy="460.782" r="4.1918" stroke-width="0.5" stroke="blue" fill="blue"/>
   </g>
   <g id="cell212">
  <circle cx="455.929" cy="423.469" r="6.53721" stroke-width="0.5" stroke="black" fill="Red"/>
  <circle cx="455.929" cy="423.469" r="3.99771" stroke-width="0.5" stroke="Red" fill="Red"/>
   </g>
   <g id="cell213">
  <circle cx="548.053" cy="485.806" r="6.86652" stroke-width="0.5" stroke="black" fill="blue"/>
  <circle cx="548.053" cy="485.806" r="4.14883" stroke-width="0.5" stroke="blue" fill="blue"/>
   </g>
   <g id="cell214">
  <circle cx="519.002" cy="506.98" r="6.58338" stroke-width="0.5" stroke="black" fill="blue"/>
  <circle cx="519.002" cy="506.98" r="4.00563" stroke-width="0.5" stroke="blue" fill="blue"/>
   </g>
   <g id="cell215">
  <circle cx="471.894" cy="585.966" r="6.83713" stroke-width="0.5" stroke="black" fill="Red"/>
  <circle cx="471.894" cy="585.966" r="4.12773" stroke-width="0.5" stroke="Red" fill="Red"/>
   </g>
   <g id="cell216">
  <circle cx="583.061" cy="544.523" r="6.49549" stroke-width="0.5" stroke="black" fill="blue"/>
  <circle cx="583.061" cy="544.523" r="3.95296" stroke-width="0.5" stroke="blue" fill="blue"/>
   </g>
   <g id="cell217">
  <circle cx="483.081" cy="560.52" r="6.75639" stroke-width="0.5" stroke="black" fill="Red"/>
  <circle cx="483.081" cy="560.52" r="4.06813" stroke-width="0.5" stroke="Red" fill="Red"/>
   </g>
   <g id="cell218">
  <circle cx="500.992" cy="415.596" r="6.69288" stroke-width="0.5" stroke="black" fill="blue"/>
  <circle cx="500.992" cy="415.596" r="4.02051" stroke-width="0.5" stroke="blue" fill="blue"/>
   </g>
   <g id="cell219">
  <circle cx="537.4" cy="573.857" r="6.69288" stroke-width="0.5" stroke="black" fill="Red"/>
  <circle cx="537.4" cy="573.857" r="4.02051" stroke-width="0.5" stroke="Red" fill="Red"/>
   </g>
   <g id="cell220">
  <circle cx="508.519" cy="477.681" r="5.17225" stroke-width="0.5" stroke="black" fill="blue"/>
  <circle cx="508.519" cy="477.681" r="3.17438" stroke-width="0.5" stroke="blue" fill="blue"/>
   </g>
  </g>
 </g>
  <rect x="775" y="1035" width="200" height="10" stroke-width="2" stroke="rgb(255,255,255)" fill="rgb(0,0,0)"/>
  <text x="781.25" y="1028.75"
   font-family="Arial" font-size="25" fill="black" >
   200 &#956;m
  </text>
  <text x="25" y="1045"
   font-family="Arial" font-size="18.75" fill="black" >
   0 days, 0 hours, 3 minutes, and 15.4945 seconds
  </text>
  <rect x="0" y="70" width="1000" height="1000" stroke-width="2" stroke="rgb(0,0,0)" fill="none"/>
</svg>
