<?xml version="1.0" encoding="UTF-8" standalone="no"?>
<!-- Created with PhysiCell (http://PhysiCell.MathCancer.org/) -->
<svg 
 xmlns:dc="http://purl.org/dc/elements/1.1/" 
 xmlns:cc="http://creativecommons.org/ns#" 
 xmlns:rdf="http://www.w3.org/1999/02/22-rdf-syntax-ns#" 
 xmlns:svg="http://www.w3.org/2000/svg" 
 xmlns="http://www.w3.org/2000/svg" 
 version="1.1" 
 width="1000" 
 height="1070" 
 id="svg2">
  <rect x="0" y="0" width="1000" height="1070" stroke-width="2" stroke="white" fill="white"/>
  <text x="12.5" y="30"
   font-family="Arial" font-size="25" fill="black" >
   Current time: 0 days, 4 hours, and 25.00 minutes, z = 0.00 &#956;m
  </text>
  <text x="12.5" y="57.5"
   font-family="Arial" font-size="23.75" fill="black" >
   183 agents
  </text>
 <g id="tissue" 
    transform="translate(0,1070) scale(1,-1)">
  <g id="ECM">
  </g>
  <g id="cells">
   <g id="cell0">
  <circle cx="425.19" cy="448.006" r="8.41271" stroke-width="0.5" stroke="black" fill="yellow"/>
  <circle cx="425.19" cy="448.006" r="5.05167" stroke-width="0.5" stroke="yellow" fill="yellow"/>
   </g>
   <g id="cell1">
  <circle cx="425.247" cy="469.415" r="7.08639" stroke-width="0.5" stroke="black" fill="yellow"/>
  <circle cx="425.247" cy="469.415" r="4.29876" stroke-width="0.5" stroke="yellow" fill="yellow"/>
   </g>
   <g id="cell2">
  <circle cx="429.228" cy="482.707" r="8.41271" stroke-width="0.5" stroke="black" fill="blue"/>
  <circle cx="429.228" cy="482.707" r="5.05167" stroke-width="0.5" stroke="blue" fill="blue"/>
   </g>
   <g id="cell3">
  <circle cx="425.746" cy="496.538" r="7.30216" stroke-width="0.5" stroke="black" fill="Red"/>
  <circle cx="425.746" cy="496.538" r="4.43696" stroke-width="0.5" stroke="Red" fill="Red"/>
   </g>
   <g id="cell4">
  <circle cx="431.507" cy="507.795" r="8.41271" stroke-width="0.5" stroke="black" fill="Red"/>
  <circle cx="431.507" cy="507.795" r="5.05167" stroke-width="0.5" stroke="Red" fill="Red"/>
   </g>
   <g id="cell5">
  <circle cx="417.846" cy="524.793" r="7.21189" stroke-width="0.5" stroke="black" fill="blue"/>
  <circle cx="417.846" cy="524.793" r="4.37993" stroke-width="0.5" stroke="blue" fill="blue"/>
   </g>
   <g id="cell6">
  <circle cx="425.51" cy="538.487" r="8.41271" stroke-width="0.5" stroke="black" fill="Red"/>
  <circle cx="425.51" cy="538.487" r="5.05167" stroke-width="0.5" stroke="Red" fill="Red"/>
   </g>
   <g id="cell7">
  <circle cx="441.964" cy="446.418" r="7.77763" stroke-width="0.5" stroke="black" fill="yellow"/>
  <circle cx="441.964" cy="446.418" r="4.7232" stroke-width="0.5" stroke="yellow" fill="yellow"/>
   </g>
   <g id="cell8">
  <circle cx="433.904" cy="459.24" r="8.41271" stroke-width="0.5" stroke="black" fill="yellow"/>
  <circle cx="433.904" cy="459.24" r="5.05167" stroke-width="0.5" stroke="yellow" fill="yellow"/>
   </g>
   <g id="cell9">
  <circle cx="438.991" cy="471.163" r="8.41271" stroke-width="0.5" stroke="black" fill="Red"/>
  <circle cx="438.991" cy="471.163" r="5.05167" stroke-width="0.5" stroke="Red" fill="Red"/>
   </g>
   <g id="cell10">
  <circle cx="442.305" cy="484.002" r="8.41271" stroke-width="0.5" stroke="black" fill="Red"/>
  <circle cx="442.305" cy="484.002" r="5.05167" stroke-width="0.5" stroke="Red" fill="Red"/>
   </g>
   <g id="cell11">
  <circle cx="442.35" cy="502.807" r="8.41271" stroke-width="0.5" stroke="black" fill="Red"/>
  <circle cx="442.35" cy="502.807" r="5.05167" stroke-width="0.5" stroke="Red" fill="Red"/>
   </g>
   <g id="cell12">
  <circle cx="435.463" cy="519.722" r="7.59183" stroke-width="0.5" stroke="black" fill="Red"/>
  <circle cx="435.463" cy="519.722" r="4.61399" stroke-width="0.5" stroke="Red" fill="Red"/>
   </g>
   <g id="cell13">
  <circle cx="438.596" cy="533.575" r="8.41271" stroke-width="0.5" stroke="black" fill="Red"/>
  <circle cx="438.596" cy="533.575" r="5.05167" stroke-width="0.5" stroke="Red" fill="Red"/>
   </g>
   <g id="cell14">
  <circle cx="438.669" cy="546.987" r="8.41271" stroke-width="0.5" stroke="black" fill="yellow"/>
  <circle cx="438.669" cy="546.987" r="5.05167" stroke-width="0.5" stroke="yellow" fill="yellow"/>
   </g>
   <g id="cell15">
  <circle cx="441.658" cy="561.478" r="8.41271" stroke-width="0.5" stroke="black" fill="blue"/>
  <circle cx="441.658" cy="561.478" r="5.05167" stroke-width="0.5" stroke="blue" fill="blue"/>
   </g>
   <g id="cell16">
  <circle cx="456.321" cy="424.653" r="7.02237" stroke-width="0.5" stroke="black" fill="yellow"/>
  <circle cx="456.321" cy="424.653" r="4.306" stroke-width="0.5" stroke="yellow" fill="yellow"/>
   </g>
   <g id="cell17">
  <circle cx="452.323" cy="436.343" r="6.75639" stroke-width="0.5" stroke="black" fill="Red"/>
  <circle cx="452.323" cy="436.343" r="4.06813" stroke-width="0.5" stroke="Red" fill="Red"/>
   </g>
   <g id="cell18">
  <circle cx="447.602" cy="459.27" r="8.41271" stroke-width="0.5" stroke="black" fill="blue"/>
  <circle cx="447.602" cy="459.27" r="5.05167" stroke-width="0.5" stroke="blue" fill="blue"/>
   </g>
   <g id="cell19">
  <circle cx="451.798" cy="470.235" r="8.41271" stroke-width="0.5" stroke="black" fill="Red"/>
  <circle cx="451.798" cy="470.235" r="5.05167" stroke-width="0.5" stroke="Red" fill="Red"/>
   </g>
   <g id="cell20">
  <circle cx="454.997" cy="481.996" r="8.41271" stroke-width="0.5" stroke="black" fill="Red"/>
  <circle cx="454.997" cy="481.996" r="5.05167" stroke-width="0.5" stroke="Red" fill="Red"/>
   </g>
   <g id="cell21">
  <circle cx="450.839" cy="493.708" r="8.41271" stroke-width="0.5" stroke="black" fill="Red"/>
  <circle cx="450.839" cy="493.708" r="5.05167" stroke-width="0.5" stroke="Red" fill="Red"/>
   </g>
   <g id="cell22">
  <circle cx="454.56" cy="508.247" r="8.41271" stroke-width="0.5" stroke="black" fill="Red"/>
  <circle cx="454.56" cy="508.247" r="5.05167" stroke-width="0.5" stroke="Red" fill="Red"/>
   </g>
   <g id="cell23">
  <circle cx="448.904" cy="525.53" r="8.41271" stroke-width="0.5" stroke="black" fill="Red"/>
  <circle cx="448.904" cy="525.53" r="5.05167" stroke-width="0.5" stroke="Red" fill="Red"/>
   </g>
   <g id="cell24">
  <circle cx="452.618" cy="539.235" r="8.41271" stroke-width="0.5" stroke="black" fill="blue"/>
  <circle cx="452.618" cy="539.235" r="5.05167" stroke-width="0.5" stroke="blue" fill="blue"/>
   </g>
   <g id="cell25">
  <circle cx="451.032" cy="553.865" r="8.41271" stroke-width="0.5" stroke="black" fill="yellow"/>
  <circle cx="451.032" cy="553.865" r="5.05167" stroke-width="0.5" stroke="yellow" fill="yellow"/>
   </g>
   <g id="cell26">
  <circle cx="453.03" cy="568.583" r="8.41271" stroke-width="0.5" stroke="black" fill="yellow"/>
  <circle cx="453.03" cy="568.583" r="5.05167" stroke-width="0.5" stroke="yellow" fill="yellow"/>
   </g>
   <g id="cell27">
  <circle cx="464.696" cy="414.203" r="8.41271" stroke-width="0.5" stroke="black" fill="yellow"/>
  <circle cx="464.696" cy="414.203" r="5.05167" stroke-width="0.5" stroke="yellow" fill="yellow"/>
   </g>
   <g id="cell28">
  <circle cx="467.836" cy="427.984" r="8.41271" stroke-width="0.5" stroke="black" fill="Red"/>
  <circle cx="467.836" cy="427.984" r="5.05167" stroke-width="0.5" stroke="Red" fill="Red"/>
   </g>
   <g id="cell29">
  <circle cx="454.408" cy="447.677" r="7.24243" stroke-width="0.5" stroke="black" fill="Red"/>
  <circle cx="454.408" cy="447.677" r="4.39934" stroke-width="0.5" stroke="Red" fill="Red"/>
   </g>
   <g id="cell30">
  <circle cx="461.38" cy="458.53" r="8.41271" stroke-width="0.5" stroke="black" fill="Red"/>
  <circle cx="461.38" cy="458.53" r="5.05167" stroke-width="0.5" stroke="Red" fill="Red"/>
   </g>
   <g id="cell31">
  <circle cx="464.935" cy="472.044" r="8.41271" stroke-width="0.5" stroke="black" fill="blue"/>
  <circle cx="464.935" cy="472.044" r="5.05167" stroke-width="0.5" stroke="blue" fill="blue"/>
   </g>
   <g id="cell32">
  <circle cx="466.971" cy="486.663" r="8.41271" stroke-width="0.5" stroke="black" fill="Red"/>
  <circle cx="466.971" cy="486.663" r="5.05167" stroke-width="0.5" stroke="Red" fill="Red"/>
   </g>
   <g id="cell33">
  <circle cx="461.662" cy="497.888" r="8.41271" stroke-width="0.5" stroke="black" fill="Red"/>
  <circle cx="461.662" cy="497.888" r="5.05167" stroke-width="0.5" stroke="Red" fill="Red"/>
   </g>
   <g id="cell34">
  <circle cx="462.007" cy="519.62" r="8.41271" stroke-width="0.5" stroke="black" fill="Red"/>
  <circle cx="462.007" cy="519.62" r="5.05167" stroke-width="0.5" stroke="Red" fill="Red"/>
   </g>
   <g id="cell35">
  <circle cx="466.222" cy="536.23" r="6.75639" stroke-width="0.5" stroke="black" fill="Red"/>
  <circle cx="466.222" cy="536.23" r="4.06813" stroke-width="0.5" stroke="Red" fill="Red"/>
   </g>
   <g id="cell36">
  <circle cx="462.938" cy="547.192" r="8.41271" stroke-width="0.5" stroke="black" fill="Red"/>
  <circle cx="462.938" cy="547.192" r="5.05167" stroke-width="0.5" stroke="Red" fill="Red"/>
   </g>
   <g id="cell37">
  <circle cx="465.074" cy="561.535" r="8.41271" stroke-width="0.5" stroke="black" fill="Red"/>
  <circle cx="465.074" cy="561.535" r="5.05167" stroke-width="0.5" stroke="Red" fill="Red"/>
   </g>
   <g id="cell38">
  <circle cx="466.29" cy="575.345" r="8.41271" stroke-width="0.5" stroke="black" fill="yellow"/>
  <circle cx="466.29" cy="575.345" r="5.05167" stroke-width="0.5" stroke="yellow" fill="yellow"/>
   </g>
   <g id="cell39">
  <circle cx="466.584" cy="587.077" r="7.02257" stroke-width="0.5" stroke="black" fill="blue"/>
  <circle cx="466.584" cy="587.077" r="4.25644" stroke-width="0.5" stroke="blue" fill="blue"/>
   </g>
   <g id="cell40">
  <circle cx="475.74" cy="406.882" r="8.41271" stroke-width="0.5" stroke="black" fill="blue"/>
  <circle cx="475.74" cy="406.882" r="5.05167" stroke-width="0.5" stroke="blue" fill="blue"/>
   </g>
   <g id="cell41">
  <circle cx="477.628" cy="420.499" r="8.41271" stroke-width="0.5" stroke="black" fill="yellow"/>
  <circle cx="477.628" cy="420.499" r="5.05167" stroke-width="0.5" stroke="yellow" fill="yellow"/>
   </g>
   <g id="cell42">
  <circle cx="475.801" cy="437.485" r="8.41271" stroke-width="0.5" stroke="black" fill="Red"/>
  <circle cx="475.801" cy="437.485" r="5.05167" stroke-width="0.5" stroke="Red" fill="Red"/>
   </g>
   <g id="cell43">
  <circle cx="472.325" cy="451.672" r="8.41271" stroke-width="0.5" stroke="black" fill="Red"/>
  <circle cx="472.325" cy="451.672" r="5.05167" stroke-width="0.5" stroke="Red" fill="Red"/>
   </g>
   <g id="cell44">
  <circle cx="473.539" cy="464.722" r="8.41271" stroke-width="0.5" stroke="black" fill="Red"/>
  <circle cx="473.539" cy="464.722" r="5.05167" stroke-width="0.5" stroke="Red" fill="Red"/>
   </g>
   <g id="cell45">
  <circle cx="477.176" cy="477.491" r="8.41271" stroke-width="0.5" stroke="black" fill="Red"/>
  <circle cx="477.176" cy="477.491" r="5.05167" stroke-width="0.5" stroke="Red" fill="Red"/>
   </g>
   <g id="cell46">
  <circle cx="475.339" cy="495.201" r="8.41271" stroke-width="0.5" stroke="black" fill="Red"/>
  <circle cx="475.339" cy="495.201" r="5.05167" stroke-width="0.5" stroke="Red" fill="Red"/>
   </g>
   <g id="cell47">
  <circle cx="468.388" cy="507.247" r="7.75912" stroke-width="0.5" stroke="black" fill="Red"/>
  <circle cx="468.388" cy="507.247" r="4.71248" stroke-width="0.5" stroke="Red" fill="Red"/>
   </g>
   <g id="cell48">
  <circle cx="484.161" cy="522.843" r="7.44242" stroke-width="0.5" stroke="black" fill="Red"/>
  <circle cx="484.161" cy="522.843" r="4.52373" stroke-width="0.5" stroke="Red" fill="Red"/>
   </g>
   <g id="cell49">
  <circle cx="477.124" cy="540.507" r="8.41271" stroke-width="0.5" stroke="black" fill="Red"/>
  <circle cx="477.124" cy="540.507" r="5.05167" stroke-width="0.5" stroke="Red" fill="Red"/>
   </g>
   <g id="cell50">
  <circle cx="481.4" cy="553.725" r="6.69288" stroke-width="0.5" stroke="black" fill="Red"/>
  <circle cx="481.4" cy="553.725" r="4.02051" stroke-width="0.5" stroke="Red" fill="Red"/>
   </g>
   <g id="cell51">
  <circle cx="477.914" cy="567.378" r="8.41271" stroke-width="0.5" stroke="black" fill="Red"/>
  <circle cx="477.914" cy="567.378" r="5.05167" stroke-width="0.5" stroke="Red" fill="Red"/>
   </g>
   <g id="cell52">
  <circle cx="478.718" cy="582.619" r="8.41271" stroke-width="0.5" stroke="black" fill="yellow"/>
  <circle cx="478.718" cy="582.619" r="5.05167" stroke-width="0.5" stroke="yellow" fill="yellow"/>
   </g>
   <g id="cell53">
  <circle cx="490.177" cy="414.291" r="8.41271" stroke-width="0.5" stroke="black" fill="yellow"/>
  <circle cx="490.177" cy="414.291" r="5.05167" stroke-width="0.5" stroke="yellow" fill="yellow"/>
   </g>
   <g id="cell54">
  <circle cx="487.763" cy="428.094" r="8.41271" stroke-width="0.5" stroke="black" fill="Red"/>
  <circle cx="487.763" cy="428.094" r="5.05167" stroke-width="0.5" stroke="Red" fill="Red"/>
   </g>
   <g id="cell55">
  <circle cx="484.011" cy="448.747" r="7.24243" stroke-width="0.5" stroke="black" fill="Red"/>
  <circle cx="484.011" cy="448.747" r="4.39934" stroke-width="0.5" stroke="Red" fill="Red"/>
   </g>
   <g id="cell56">
  <circle cx="493.57" cy="459.013" r="7.54436" stroke-width="0.5" stroke="black" fill="blue"/>
  <circle cx="493.57" cy="459.013" r="4.58555" stroke-width="0.5" stroke="blue" fill="blue"/>
   </g>
   <g id="cell57">
  <circle cx="487.16" cy="470.843" r="8.41271" stroke-width="0.5" stroke="black" fill="Red"/>
  <circle cx="487.16" cy="470.843" r="5.05167" stroke-width="0.5" stroke="Red" fill="Red"/>
   </g>
   <g id="cell58">
  <circle cx="485.11" cy="487.76" r="8.41271" stroke-width="0.5" stroke="black" fill="blue"/>
  <circle cx="485.11" cy="487.76" r="5.05167" stroke-width="0.5" stroke="blue" fill="blue"/>
   </g>
   <g id="cell59">
  <circle cx="487.177" cy="499.54" r="6.71158" stroke-width="0.5" stroke="black" fill="Red"/>
  <circle cx="487.177" cy="499.54" r="4.03435" stroke-width="0.5" stroke="Red" fill="Red"/>
   </g>
   <g id="cell60">
  <circle cx="489.584" cy="511.641" r="8.41271" stroke-width="0.5" stroke="black" fill="Red"/>
  <circle cx="489.584" cy="511.641" r="5.05167" stroke-width="0.5" stroke="Red" fill="Red"/>
   </g>
   <g id="cell61">
  <circle cx="487.419" cy="533.3" r="8.41271" stroke-width="0.5" stroke="black" fill="Red"/>
  <circle cx="487.419" cy="533.3" r="5.05167" stroke-width="0.5" stroke="Red" fill="Red"/>
   </g>
   <g id="cell62">
  <circle cx="490.019" cy="545.08" r="8.41271" stroke-width="0.5" stroke="black" fill="blue"/>
  <circle cx="490.019" cy="545.08" r="5.05167" stroke-width="0.5" stroke="blue" fill="blue"/>
   </g>
   <g id="cell63">
  <circle cx="490.317" cy="560.923" r="8.41271" stroke-width="0.5" stroke="black" fill="Red"/>
  <circle cx="490.317" cy="560.923" r="5.05167" stroke-width="0.5" stroke="Red" fill="Red"/>
   </g>
   <g id="cell64">
  <circle cx="488.985" cy="575.32" r="8.41271" stroke-width="0.5" stroke="black" fill="Red"/>
  <circle cx="488.985" cy="575.32" r="5.05167" stroke-width="0.5" stroke="Red" fill="Red"/>
   </g>
   <g id="cell65">
  <circle cx="490.626" cy="588.279" r="8.41271" stroke-width="0.5" stroke="black" fill="yellow"/>
  <circle cx="490.626" cy="588.279" r="5.05167" stroke-width="0.5" stroke="yellow" fill="yellow"/>
   </g>
   <g id="cell66">
  <circle cx="504.699" cy="413.039" r="8.41271" stroke-width="0.5" stroke="black" fill="blue"/>
  <circle cx="504.699" cy="413.039" r="5.05167" stroke-width="0.5" stroke="blue" fill="blue"/>
   </g>
   <g id="cell67">
  <circle cx="499.742" cy="424.564" r="8.41271" stroke-width="0.5" stroke="black" fill="yellow"/>
  <circle cx="499.742" cy="424.564" r="5.05167" stroke-width="0.5" stroke="yellow" fill="yellow"/>
   </g>
   <g id="cell68">
  <circle cx="501.025" cy="436.265" r="8.41271" stroke-width="0.5" stroke="black" fill="Red"/>
  <circle cx="501.025" cy="436.265" r="5.05167" stroke-width="0.5" stroke="Red" fill="Red"/>
   </g>
   <g id="cell69">
  <circle cx="496.702" cy="448.763" r="8.41271" stroke-width="0.5" stroke="black" fill="Red"/>
  <circle cx="496.702" cy="448.763" r="5.05167" stroke-width="0.5" stroke="Red" fill="Red"/>
   </g>
   <g id="cell70">
  <circle cx="498.884" cy="467.548" r="8.41271" stroke-width="0.5" stroke="black" fill="blue"/>
  <circle cx="498.884" cy="467.548" r="5.05167" stroke-width="0.5" stroke="blue" fill="blue"/>
   </g>
   <g id="cell71">
  <circle cx="493.669" cy="480.069" r="8.41271" stroke-width="0.5" stroke="black" fill="Red"/>
  <circle cx="493.669" cy="480.069" r="5.05167" stroke-width="0.5" stroke="Red" fill="Red"/>
   </g>
   <g id="cell72">
  <circle cx="500.695" cy="490.476" r="8.41271" stroke-width="0.5" stroke="black" fill="Red"/>
  <circle cx="500.695" cy="490.476" r="5.05167" stroke-width="0.5" stroke="Red" fill="Red"/>
   </g>
   <g id="cell73">
  <circle cx="502.505" cy="508.228" r="8.41271" stroke-width="0.5" stroke="black" fill="Red"/>
  <circle cx="502.505" cy="508.228" r="5.05167" stroke-width="0.5" stroke="Red" fill="Red"/>
   </g>
   <g id="cell74">
  <circle cx="497.998" cy="523.057" r="8.41271" stroke-width="0.5" stroke="black" fill="Red"/>
  <circle cx="497.998" cy="523.057" r="5.05167" stroke-width="0.5" stroke="Red" fill="Red"/>
   </g>
   <g id="cell75">
  <circle cx="500.579" cy="536.223" r="8.41271" stroke-width="0.5" stroke="black" fill="Red"/>
  <circle cx="500.579" cy="536.223" r="5.05167" stroke-width="0.5" stroke="Red" fill="Red"/>
   </g>
   <g id="cell76">
  <circle cx="498.891" cy="552.819" r="8.41271" stroke-width="0.5" stroke="black" fill="Red"/>
  <circle cx="498.891" cy="552.819" r="5.05167" stroke-width="0.5" stroke="Red" fill="Red"/>
   </g>
   <g id="cell77">
  <circle cx="499.365" cy="567.847" r="7.41548" stroke-width="0.5" stroke="black" fill="blue"/>
  <circle cx="499.365" cy="567.847" r="4.50723" stroke-width="0.5" stroke="blue" fill="blue"/>
   </g>
   <g id="cell78">
  <circle cx="502.199" cy="579.368" r="8.41271" stroke-width="0.5" stroke="black" fill="yellow"/>
  <circle cx="502.199" cy="579.368" r="5.05167" stroke-width="0.5" stroke="yellow" fill="yellow"/>
   </g>
   <g id="cell79">
  <circle cx="503.171" cy="593.677" r="8.41271" stroke-width="0.5" stroke="black" fill="blue"/>
  <circle cx="503.171" cy="593.677" r="5.05167" stroke-width="0.5" stroke="blue" fill="blue"/>
   </g>
   <g id="cell80">
  <circle cx="517.527" cy="410.206" r="6.86652" stroke-width="0.5" stroke="black" fill="yellow"/>
  <circle cx="517.527" cy="410.206" r="4.14883" stroke-width="0.5" stroke="yellow" fill="yellow"/>
   </g>
   <g id="cell81">
  <circle cx="514.078" cy="431.81" r="8.41271" stroke-width="0.5" stroke="black" fill="Red"/>
  <circle cx="514.078" cy="431.81" r="5.05167" stroke-width="0.5" stroke="Red" fill="Red"/>
   </g>
   <g id="cell82">
  <circle cx="510.104" cy="444.661" r="8.41271" stroke-width="0.5" stroke="black" fill="Red"/>
  <circle cx="510.104" cy="444.661" r="5.05167" stroke-width="0.5" stroke="Red" fill="Red"/>
   </g>
   <g id="cell83">
  <circle cx="507.231" cy="457.305" r="8.41271" stroke-width="0.5" stroke="black" fill="Red"/>
  <circle cx="507.231" cy="457.305" r="5.05167" stroke-width="0.5" stroke="Red" fill="Red"/>
   </g>
   <g id="cell84">
  <circle cx="514.187" cy="468.037" r="8.41271" stroke-width="0.5" stroke="black" fill="Red"/>
  <circle cx="514.187" cy="468.037" r="5.05167" stroke-width="0.5" stroke="Red" fill="Red"/>
   </g>
   <g id="cell85">
  <circle cx="505.477" cy="476.794" r="8.41271" stroke-width="0.5" stroke="black" fill="Red"/>
  <circle cx="505.477" cy="476.794" r="5.05167" stroke-width="0.5" stroke="Red" fill="Red"/>
   </g>
   <g id="cell86">
  <circle cx="511.846" cy="497.159" r="8.41271" stroke-width="0.5" stroke="black" fill="Red"/>
  <circle cx="511.846" cy="497.159" r="5.05167" stroke-width="0.5" stroke="Red" fill="Red"/>
   </g>
   <g id="cell87">
  <circle cx="515.943" cy="507.883" r="7.49456" stroke-width="0.5" stroke="black" fill="Red"/>
  <circle cx="515.943" cy="507.883" r="4.55548" stroke-width="0.5" stroke="Red" fill="Red"/>
   </g>
   <g id="cell88">
  <circle cx="512.255" cy="530.887" r="8.41271" stroke-width="0.5" stroke="black" fill="Red"/>
  <circle cx="512.255" cy="530.887" r="5.05167" stroke-width="0.5" stroke="Red" fill="Red"/>
   </g>
   <g id="cell89">
  <circle cx="508.274" cy="545.694" r="8.41271" stroke-width="0.5" stroke="black" fill="Red"/>
  <circle cx="508.274" cy="545.694" r="5.05167" stroke-width="0.5" stroke="Red" fill="Red"/>
   </g>
   <g id="cell90">
  <circle cx="516.223" cy="554.679" r="8.41271" stroke-width="0.5" stroke="black" fill="Red"/>
  <circle cx="516.223" cy="554.679" r="5.05167" stroke-width="0.5" stroke="Red" fill="Red"/>
   </g>
   <g id="cell91">
  <circle cx="513.801" cy="571.123" r="8.41271" stroke-width="0.5" stroke="black" fill="Red"/>
  <circle cx="513.801" cy="571.123" r="5.05167" stroke-width="0.5" stroke="Red" fill="Red"/>
   </g>
   <g id="cell92">
  <circle cx="515.549" cy="585.769" r="8.41271" stroke-width="0.5" stroke="black" fill="yellow"/>
  <circle cx="515.549" cy="585.769" r="5.05167" stroke-width="0.5" stroke="yellow" fill="yellow"/>
   </g>
   <g id="cell93">
  <circle cx="529.858" cy="411.258" r="8.41271" stroke-width="0.5" stroke="black" fill="blue"/>
  <circle cx="529.858" cy="411.258" r="5.05167" stroke-width="0.5" stroke="blue" fill="blue"/>
   </g>
   <g id="cell94">
  <circle cx="537.784" cy="425.708" r="7.51976" stroke-width="0.5" stroke="black" fill="yellow"/>
  <circle cx="537.784" cy="425.708" r="4.57072" stroke-width="0.5" stroke="yellow" fill="yellow"/>
   </g>
   <g id="cell95">
  <circle cx="528.214" cy="433.156" r="8.41271" stroke-width="0.5" stroke="black" fill="Red"/>
  <circle cx="528.214" cy="433.156" r="5.05167" stroke-width="0.5" stroke="Red" fill="Red"/>
   </g>
   <g id="cell96">
  <circle cx="520.835" cy="442.964" r="6.8095" stroke-width="0.5" stroke="black" fill="blue"/>
  <circle cx="520.835" cy="442.964" r="4.17401" stroke-width="0.5" stroke="blue" fill="blue"/>
   </g>
   <g id="cell97">
  <circle cx="525.771" cy="461.803" r="8.41271" stroke-width="0.5" stroke="black" fill="Red"/>
  <circle cx="525.771" cy="461.803" r="5.05167" stroke-width="0.5" stroke="Red" fill="Red"/>
   </g>
   <g id="cell98">
  <circle cx="520.942" cy="487.426" r="6.30293" stroke-width="0.5" stroke="black" fill="blue"/>
  <circle cx="520.942" cy="487.426" r="3.86516" stroke-width="0.5" stroke="blue" fill="blue"/>
   </g>
   <g id="cell99">
  <circle cx="525.496" cy="496.639" r="8.41271" stroke-width="0.5" stroke="black" fill="Red"/>
  <circle cx="525.496" cy="496.639" r="5.05167" stroke-width="0.5" stroke="Red" fill="Red"/>
   </g>
   <g id="cell100">
  <circle cx="526.501" cy="506.544" r="6.75639" stroke-width="0.5" stroke="black" fill="Red"/>
  <circle cx="526.501" cy="506.544" r="4.06813" stroke-width="0.5" stroke="Red" fill="Red"/>
   </g>
   <g id="cell101">
  <circle cx="523.619" cy="526.876" r="8.41271" stroke-width="0.5" stroke="black" fill="Red"/>
  <circle cx="523.619" cy="526.876" r="5.05167" stroke-width="0.5" stroke="Red" fill="Red"/>
   </g>
   <g id="cell102">
  <circle cx="529.377" cy="536.778" r="7.70049" stroke-width="0.5" stroke="black" fill="Red"/>
  <circle cx="529.377" cy="536.778" r="4.67828" stroke-width="0.5" stroke="Red" fill="Red"/>
   </g>
   <g id="cell103">
  <circle cx="527.661" cy="549.52" r="8.41271" stroke-width="0.5" stroke="black" fill="Red"/>
  <circle cx="527.661" cy="549.52" r="5.05167" stroke-width="0.5" stroke="Red" fill="Red"/>
   </g>
   <g id="cell104">
  <circle cx="526.435" cy="563.584" r="8.41271" stroke-width="0.5" stroke="black" fill="Red"/>
  <circle cx="526.435" cy="563.584" r="5.05167" stroke-width="0.5" stroke="Red" fill="Red"/>
   </g>
   <g id="cell105">
  <circle cx="525.812" cy="576.848" r="8.41271" stroke-width="0.5" stroke="black" fill="blue"/>
  <circle cx="525.812" cy="576.848" r="5.05167" stroke-width="0.5" stroke="blue" fill="blue"/>
   </g>
   <g id="cell106">
  <circle cx="542.344" cy="415.414" r="6.78181" stroke-width="0.5" stroke="black" fill="Red"/>
  <circle cx="542.344" cy="415.414" r="4.08714" stroke-width="0.5" stroke="Red" fill="Red"/>
   </g>
   <g id="cell107">
  <circle cx="542.403" cy="436.981" r="8.41271" stroke-width="0.5" stroke="black" fill="Red"/>
  <circle cx="542.403" cy="436.981" r="5.05167" stroke-width="0.5" stroke="Red" fill="Red"/>
   </g>
   <g id="cell108">
  <circle cx="531.162" cy="448.007" r="8.41271" stroke-width="0.5" stroke="black" fill="yellow"/>
  <circle cx="531.162" cy="448.007" r="5.05167" stroke-width="0.5" stroke="yellow" fill="yellow"/>
   </g>
   <g id="cell109">
  <circle cx="548.027" cy="466.503" r="8.41271" stroke-width="0.5" stroke="black" fill="Red"/>
  <circle cx="548.027" cy="466.503" r="5.05167" stroke-width="0.5" stroke="Red" fill="Red"/>
   </g>
   <g id="cell110">
  <circle cx="529.748" cy="480.61" r="8.41271" stroke-width="0.5" stroke="black" fill="Red"/>
  <circle cx="529.748" cy="480.61" r="5.05167" stroke-width="0.5" stroke="Red" fill="Red"/>
   </g>
   <g id="cell111">
  <circle cx="537.003" cy="490.215" r="8.41271" stroke-width="0.5" stroke="black" fill="Red"/>
  <circle cx="537.003" cy="490.215" r="5.05167" stroke-width="0.5" stroke="Red" fill="Red"/>
   </g>
   <g id="cell112">
  <circle cx="538.554" cy="503.846" r="8.41271" stroke-width="0.5" stroke="black" fill="Red"/>
  <circle cx="538.554" cy="503.846" r="5.05167" stroke-width="0.5" stroke="Red" fill="Red"/>
   </g>
   <g id="cell113">
  <circle cx="531.749" cy="515.115" r="8.41271" stroke-width="0.5" stroke="black" fill="blue"/>
  <circle cx="531.749" cy="515.115" r="5.05167" stroke-width="0.5" stroke="blue" fill="blue"/>
   </g>
   <g id="cell114">
  <circle cx="537.247" cy="527.271" r="8.41271" stroke-width="0.5" stroke="black" fill="Red"/>
  <circle cx="537.247" cy="527.271" r="5.05167" stroke-width="0.5" stroke="Red" fill="Red"/>
   </g>
   <g id="cell115">
  <circle cx="539.577" cy="542.966" r="8.41271" stroke-width="0.5" stroke="black" fill="Red"/>
  <circle cx="539.577" cy="542.966" r="5.05167" stroke-width="0.5" stroke="Red" fill="Red"/>
   </g>
   <g id="cell116">
  <circle cx="539.149" cy="556.398" r="8.41271" stroke-width="0.5" stroke="black" fill="yellow"/>
  <circle cx="539.149" cy="556.398" r="5.05167" stroke-width="0.5" stroke="yellow" fill="yellow"/>
   </g>
   <g id="cell117">
  <circle cx="538.793" cy="569.969" r="8.41271" stroke-width="0.5" stroke="black" fill="Red"/>
  <circle cx="538.793" cy="569.969" r="5.05167" stroke-width="0.5" stroke="Red" fill="Red"/>
   </g>
   <g id="cell118">
  <circle cx="551.367" cy="425.103" r="8.41271" stroke-width="0.5" stroke="black" fill="Red"/>
  <circle cx="551.367" cy="425.103" r="5.05167" stroke-width="0.5" stroke="Red" fill="Red"/>
   </g>
   <g id="cell119">
  <circle cx="554.811" cy="439.754" r="8.41271" stroke-width="0.5" stroke="black" fill="yellow"/>
  <circle cx="554.811" cy="439.754" r="5.05167" stroke-width="0.5" stroke="yellow" fill="yellow"/>
   </g>
   <g id="cell120">
  <circle cx="553.048" cy="456.848" r="7.49456" stroke-width="0.5" stroke="black" fill="Red"/>
  <circle cx="553.048" cy="456.848" r="4.55548" stroke-width="0.5" stroke="Red" fill="Red"/>
   </g>
   <g id="cell121">
  <circle cx="557.699" cy="474.06" r="8.41271" stroke-width="0.5" stroke="black" fill="Red"/>
  <circle cx="557.699" cy="474.06" r="5.05167" stroke-width="0.5" stroke="Red" fill="Red"/>
   </g>
   <g id="cell122">
  <circle cx="545.931" cy="481.279" r="8.41271" stroke-width="0.5" stroke="black" fill="Red"/>
  <circle cx="545.931" cy="481.279" r="5.05167" stroke-width="0.5" stroke="Red" fill="Red"/>
   </g>
   <g id="cell123">
  <circle cx="549.9" cy="494.87" r="8.41271" stroke-width="0.5" stroke="black" fill="Red"/>
  <circle cx="549.9" cy="494.87" r="5.05167" stroke-width="0.5" stroke="Red" fill="Red"/>
   </g>
   <g id="cell124">
  <circle cx="551.175" cy="508.958" r="8.41271" stroke-width="0.5" stroke="black" fill="Red"/>
  <circle cx="551.175" cy="508.958" r="5.05167" stroke-width="0.5" stroke="Red" fill="Red"/>
   </g>
   <g id="cell125">
  <circle cx="544.289" cy="518.517" r="7.51976" stroke-width="0.5" stroke="black" fill="Red"/>
  <circle cx="544.289" cy="518.517" r="4.57072" stroke-width="0.5" stroke="Red" fill="Red"/>
   </g>
   <g id="cell126">
  <circle cx="547.702" cy="533.4" r="8.41271" stroke-width="0.5" stroke="black" fill="Red"/>
  <circle cx="547.702" cy="533.4" r="5.05167" stroke-width="0.5" stroke="Red" fill="Red"/>
   </g>
   <g id="cell127">
  <circle cx="550.83" cy="549.637" r="8.41271" stroke-width="0.5" stroke="black" fill="Red"/>
  <circle cx="550.83" cy="549.637" r="5.05167" stroke-width="0.5" stroke="Red" fill="Red"/>
   </g>
   <g id="cell128">
  <circle cx="551.779" cy="563.434" r="8.41271" stroke-width="0.5" stroke="black" fill="blue"/>
  <circle cx="551.779" cy="563.434" r="5.05167" stroke-width="0.5" stroke="blue" fill="blue"/>
   </g>
   <g id="cell129">
  <circle cx="571.999" cy="452.669" r="7.46878" stroke-width="0.5" stroke="black" fill="Red"/>
  <circle cx="571.999" cy="452.669" r="4.53982" stroke-width="0.5" stroke="Red" fill="Red"/>
   </g>
   <g id="cell130">
  <circle cx="563.521" cy="463.078" r="8.41271" stroke-width="0.5" stroke="black" fill="Red"/>
  <circle cx="563.521" cy="463.078" r="5.05167" stroke-width="0.5" stroke="Red" fill="Red"/>
   </g>
   <g id="cell131">
  <circle cx="569.905" cy="477.34" r="8.41271" stroke-width="0.5" stroke="black" fill="Red"/>
  <circle cx="569.905" cy="477.34" r="5.05167" stroke-width="0.5" stroke="Red" fill="Red"/>
   </g>
   <g id="cell132">
  <circle cx="560.169" cy="487.255" r="8.41271" stroke-width="0.5" stroke="black" fill="Red"/>
  <circle cx="560.169" cy="487.255" r="5.05167" stroke-width="0.5" stroke="Red" fill="Red"/>
   </g>
   <g id="cell133">
  <circle cx="562.85" cy="501.437" r="8.41271" stroke-width="0.5" stroke="black" fill="blue"/>
  <circle cx="562.85" cy="501.437" r="5.05167" stroke-width="0.5" stroke="blue" fill="blue"/>
   </g>
   <g id="cell134">
  <circle cx="565.691" cy="514.364" r="8.41271" stroke-width="0.5" stroke="black" fill="yellow"/>
  <circle cx="565.691" cy="514.364" r="5.05167" stroke-width="0.5" stroke="yellow" fill="yellow"/>
   </g>
   <g id="cell135">
  <circle cx="567.105" cy="528.551" r="8.41271" stroke-width="0.5" stroke="black" fill="yellow"/>
  <circle cx="567.105" cy="528.551" r="5.05167" stroke-width="0.5" stroke="yellow" fill="yellow"/>
   </g>
   <g id="cell136">
  <circle cx="558.423" cy="539.424" r="8.41271" stroke-width="0.5" stroke="black" fill="yellow"/>
  <circle cx="558.423" cy="539.424" r="5.05167" stroke-width="0.5" stroke="yellow" fill="yellow"/>
   </g>
   <g id="cell137">
  <circle cx="563.458" cy="554.802" r="8.41271" stroke-width="0.5" stroke="black" fill="Red"/>
  <circle cx="563.458" cy="554.802" r="5.05167" stroke-width="0.5" stroke="Red" fill="Red"/>
   </g>
   <g id="cell138">
  <circle cx="575.316" cy="466.859" r="8.41271" stroke-width="0.5" stroke="black" fill="blue"/>
  <circle cx="575.316" cy="466.859" r="5.05167" stroke-width="0.5" stroke="blue" fill="blue"/>
   </g>
   <g id="cell139">
  <circle cx="582.793" cy="480.842" r="8.41271" stroke-width="0.5" stroke="black" fill="Red"/>
  <circle cx="582.793" cy="480.842" r="5.05167" stroke-width="0.5" stroke="Red" fill="Red"/>
   </g>
   <g id="cell140">
  <circle cx="573.573" cy="491.136" r="7.77763" stroke-width="0.5" stroke="black" fill="yellow"/>
  <circle cx="573.573" cy="491.136" r="4.7232" stroke-width="0.5" stroke="yellow" fill="yellow"/>
   </g>
   <g id="cell141">
  <circle cx="576.824" cy="505.278" r="8.41271" stroke-width="0.5" stroke="black" fill="yellow"/>
  <circle cx="576.824" cy="505.278" r="5.05167" stroke-width="0.5" stroke="yellow" fill="yellow"/>
   </g>
   <g id="cell142">
  <circle cx="578.79" cy="518.731" r="7.30216" stroke-width="0.5" stroke="black" fill="blue"/>
  <circle cx="578.79" cy="518.731" r="4.43696" stroke-width="0.5" stroke="blue" fill="blue"/>
   </g>
   <g id="cell143">
  <circle cx="572.005" cy="543.736" r="8.41271" stroke-width="0.5" stroke="black" fill="blue"/>
  <circle cx="572.005" cy="543.736" r="5.05167" stroke-width="0.5" stroke="blue" fill="blue"/>
   </g>
   <g id="cell144">
  <circle cx="431.739" cy="438.928" r="6.39305" stroke-width="0.5" stroke="black" fill="blue"/>
  <circle cx="431.739" cy="438.928" r="3.90395" stroke-width="0.5" stroke="blue" fill="blue"/>
   </g>
   <g id="cell145">
  <circle cx="587.107" cy="495.375" r="7.77763" stroke-width="0.5" stroke="black" fill="blue"/>
  <circle cx="587.107" cy="495.375" r="4.7232" stroke-width="0.5" stroke="blue" fill="blue"/>
   </g>
   <g id="cell146">
  <circle cx="479.229" cy="506.071" r="6.87695" stroke-width="0.5" stroke="black" fill="blue"/>
  <circle cx="479.229" cy="506.071" r="4.21568" stroke-width="0.5" stroke="blue" fill="blue"/>
   </g>
   <g id="cell147">
  <circle cx="537.547" cy="459.71" r="7.32163" stroke-width="0.5" stroke="black" fill="Red"/>
  <circle cx="537.547" cy="459.71" r="4.48174" stroke-width="0.5" stroke="Red" fill="Red"/>
   </g>
   <g id="cell148">
  <circle cx="518.176" cy="539.899" r="7.70049" stroke-width="0.5" stroke="black" fill="blue"/>
  <circle cx="518.176" cy="539.899" r="4.67828" stroke-width="0.5" stroke="blue" fill="blue"/>
   </g>
   <g id="cell149">
  <circle cx="536.856" cy="472.124" r="7.32163" stroke-width="0.5" stroke="black" fill="blue"/>
  <circle cx="536.856" cy="472.124" r="4.48174" stroke-width="0.5" stroke="blue" fill="blue"/>
   </g>
   <g id="cell150">
  <circle cx="444.682" cy="515.311" r="7.59183" stroke-width="0.5" stroke="black" fill="blue"/>
  <circle cx="444.682" cy="515.311" r="4.61399" stroke-width="0.5" stroke="blue" fill="blue"/>
   </g>
   <g id="cell151">
  <circle cx="449.896" cy="413.557" r="7.59183" stroke-width="0.5" stroke="black" fill="blue"/>
  <circle cx="449.896" cy="413.557" r="4.61399" stroke-width="0.5" stroke="blue" fill="blue"/>
   </g>
   <g id="cell152">
  <circle cx="483.488" cy="460.499" r="7.54436" stroke-width="0.5" stroke="black" fill="blue"/>
  <circle cx="483.488" cy="460.499" r="4.58555" stroke-width="0.5" stroke="blue" fill="blue"/>
   </g>
   <g id="cell153">
  <circle cx="523.689" cy="421.77" r="7.51976" stroke-width="0.5" stroke="black" fill="yellow"/>
  <circle cx="523.689" cy="421.77" r="4.57072" stroke-width="0.5" stroke="yellow" fill="yellow"/>
   </g>
   <g id="cell154">
  <circle cx="555.32" cy="522.411" r="7.51976" stroke-width="0.5" stroke="black" fill="blue"/>
  <circle cx="555.32" cy="522.411" r="4.57072" stroke-width="0.5" stroke="blue" fill="blue"/>
   </g>
   <g id="cell155">
  <circle cx="443.828" cy="423.873" r="7.02237" stroke-width="0.5" stroke="black" fill="yellow"/>
  <circle cx="443.828" cy="423.873" r="4.306" stroke-width="0.5" stroke="yellow" fill="yellow"/>
   </g>
   <g id="cell156">
  <circle cx="509.678" cy="520.155" r="7.49456" stroke-width="0.5" stroke="black" fill="blue"/>
  <circle cx="509.678" cy="520.155" r="4.55548" stroke-width="0.5" stroke="blue" fill="blue"/>
   </g>
   <g id="cell157">
  <circle cx="544.752" cy="449.265" r="7.49456" stroke-width="0.5" stroke="black" fill="blue"/>
  <circle cx="544.752" cy="449.265" r="4.55548" stroke-width="0.5" stroke="blue" fill="blue"/>
   </g>
   <g id="cell158">
  <circle cx="560.671" cy="449.416" r="6.35739" stroke-width="0.5" stroke="black" fill="Red"/>
  <circle cx="560.671" cy="449.416" r="3.89672" stroke-width="0.5" stroke="Red" fill="Red"/>
   </g>
   <g id="cell159">
  <circle cx="472.999" cy="526.874" r="7.44242" stroke-width="0.5" stroke="black" fill="blue"/>
  <circle cx="472.999" cy="526.874" r="4.52373" stroke-width="0.5" stroke="blue" fill="blue"/>
   </g>
   <g id="cell160">
  <circle cx="506.563" cy="560.983" r="7.41548" stroke-width="0.5" stroke="black" fill="blue"/>
  <circle cx="506.563" cy="560.983" r="4.50723" stroke-width="0.5" stroke="blue" fill="blue"/>
   </g>
   <g id="cell161">
  <circle cx="518.841" cy="477.113" r="6.18263" stroke-width="0.5" stroke="black" fill="blue"/>
  <circle cx="518.841" cy="477.113" r="3.78724" stroke-width="0.5" stroke="blue" fill="blue"/>
   </g>
   <g id="cell162">
  <circle cx="581.289" cy="531.586" r="7.30216" stroke-width="0.5" stroke="black" fill="yellow"/>
  <circle cx="581.289" cy="531.586" r="4.43696" stroke-width="0.5" stroke="yellow" fill="yellow"/>
   </g>
   <g id="cell163">
  <circle cx="476.143" cy="516.674" r="6.87695" stroke-width="0.5" stroke="black" fill="Red"/>
  <circle cx="476.143" cy="516.674" r="4.21568" stroke-width="0.5" stroke="Red" fill="Red"/>
   </g>
   <g id="cell164">
  <circle cx="435.724" cy="493.955" r="7.30216" stroke-width="0.5" stroke="black" fill="Red"/>
  <circle cx="435.724" cy="493.955" r="4.43696" stroke-width="0.5" stroke="Red" fill="Red"/>
   </g>
   <g id="cell165">
  <circle cx="464.188" cy="444.172" r="7.24243" stroke-width="0.5" stroke="black" fill="blue"/>
  <circle cx="464.188" cy="444.172" r="4.39934" stroke-width="0.5" stroke="blue" fill="blue"/>
   </g>
   <g id="cell166">
  <circle cx="490.16" cy="439.462" r="7.24243" stroke-width="0.5" stroke="black" fill="blue"/>
  <circle cx="490.16" cy="439.462" r="4.39934" stroke-width="0.5" stroke="blue" fill="blue"/>
   </g>
   <g id="cell167">
  <circle cx="518.587" cy="453.639" r="6.8095" stroke-width="0.5" stroke="black" fill="Red"/>
  <circle cx="518.587" cy="453.639" r="4.17401" stroke-width="0.5" stroke="Red" fill="Red"/>
   </g>
   <g id="cell168">
  <circle cx="428.21" cy="527.561" r="6.18131" stroke-width="0.5" stroke="black" fill="Red"/>
  <circle cx="428.21" cy="527.561" r="3.78906" stroke-width="0.5" stroke="Red" fill="Red"/>
   </g>
   <g id="cell169">
  <circle cx="420.513" cy="459.073" r="7.08639" stroke-width="0.5" stroke="black" fill="blue"/>
  <circle cx="420.513" cy="459.073" r="4.29876" stroke-width="0.5" stroke="blue" fill="blue"/>
   </g>
   <g id="cell170">
  <circle cx="513.218" cy="484.585" r="6.30293" stroke-width="0.5" stroke="black" fill="blue"/>
  <circle cx="513.218" cy="484.585" r="3.86516" stroke-width="0.5" stroke="blue" fill="blue"/>
   </g>
   <g id="cell171">
  <circle cx="455.008" cy="582.628" r="7.02257" stroke-width="0.5" stroke="black" fill="Red"/>
  <circle cx="455.008" cy="582.628" r="4.25644" stroke-width="0.5" stroke="Red" fill="Red"/>
   </g>
   <g id="cell172">
  <circle cx="567.317" cy="442.025" r="6.35739" stroke-width="0.5" stroke="black" fill="blue"/>
  <circle cx="567.317" cy="442.025" r="3.89672" stroke-width="0.5" stroke="blue" fill="blue"/>
   </g>
   <g id="cell173">
  <circle cx="424.897" cy="517.469" r="6.18131" stroke-width="0.5" stroke="black" fill="Red"/>
  <circle cx="424.897" cy="517.469" r="3.78906" stroke-width="0.5" stroke="Red" fill="Red"/>
   </g>
   <g id="cell174">
  <circle cx="526.743" cy="471.345" r="6.18263" stroke-width="0.5" stroke="black" fill="Red"/>
  <circle cx="526.743" cy="471.345" r="3.78724" stroke-width="0.5" stroke="Red" fill="Red"/>
   </g>
   <g id="cell175">
  <circle cx="512.768" cy="420.649" r="6.86652" stroke-width="0.5" stroke="black" fill="Red"/>
  <circle cx="512.768" cy="420.649" r="4.14883" stroke-width="0.5" stroke="Red" fill="Red"/>
   </g>
   <g id="cell176">
  <circle cx="441.542" cy="434.597" r="6.39305" stroke-width="0.5" stroke="black" fill="yellow"/>
  <circle cx="441.542" cy="434.597" r="3.90395" stroke-width="0.5" stroke="yellow" fill="yellow"/>
   </g>
   <g id="cell177">
  <circle cx="553.372" cy="411.775" r="6.78181" stroke-width="0.5" stroke="black" fill="blue"/>
  <circle cx="553.372" cy="411.775" r="4.08714" stroke-width="0.5" stroke="blue" fill="blue"/>
   </g>
   <g id="cell178">
  <circle cx="519.572" cy="517.053" r="6.75639" stroke-width="0.5" stroke="black" fill="Red"/>
  <circle cx="519.572" cy="517.053" r="4.06813" stroke-width="0.5" stroke="Red" fill="Red"/>
   </g>
   <g id="cell179">
  <circle cx="459.723" cy="530.214" r="6.75639" stroke-width="0.5" stroke="black" fill="Red"/>
  <circle cx="459.723" cy="530.214" r="4.06813" stroke-width="0.5" stroke="Red" fill="Red"/>
   </g>
   <g id="cell180">
  <circle cx="461.178" cy="436.312" r="6.75639" stroke-width="0.5" stroke="black" fill="Red"/>
  <circle cx="461.178" cy="436.312" r="4.06813" stroke-width="0.5" stroke="Red" fill="Red"/>
   </g>
   <g id="cell181">
  <circle cx="496.809" cy="499.356" r="6.71158" stroke-width="0.5" stroke="black" fill="Red"/>
  <circle cx="496.809" cy="499.356" r="4.03435" stroke-width="0.5" stroke="Red" fill="Red"/>
   </g>
   <g id="cell182">
  <circle cx="472.26" cy="552.89" r="6.69288" stroke-width="0.5" stroke="black" fill="blue"/>
  <circle cx="472.26" cy="552.89" r="4.02051" stroke-width="0.5" stroke="blue" fill="blue"/>
   </g>
  </g>
 </g>
  <rect x="775" y="1035" width="200" height="10" stroke-width="2" stroke="rgb(255,255,255)" fill="rgb(0,0,0)"/>
  <text x="781.25" y="1028.75"
   font-family="Arial" font-size="25" fill="black" >
   200 &#956;m
  </text>
  <text x="25" y="1045"
   font-family="Arial" font-size="18.75" fill="black" >
   0 days, 0 hours, 1 minutes, and 36.1223 seconds
  </text>
  <rect x="0" y="70" width="1000" height="1000" stroke-width="2" stroke="rgb(0,0,0)" fill="none"/>
</svg>
