<?xml version="1.0" encoding="UTF-8" standalone="no"?>
<!-- Created with PhysiCell (http://PhysiCell.MathCancer.org/) -->
<svg 
 xmlns:dc="http://purl.org/dc/elements/1.1/" 
 xmlns:cc="http://creativecommons.org/ns#" 
 xmlns:rdf="http://www.w3.org/1999/02/22-rdf-syntax-ns#" 
 xmlns:svg="http://www.w3.org/2000/svg" 
 xmlns="http://www.w3.org/2000/svg" 
 version="1.1" 
 width="1000" 
 height="1070" 
 id="svg2">
  <rect x="0" y="0" width="1000" height="1070" stroke-width="2" stroke="white" fill="white"/>
  <text x="12.5" y="30"
   font-family="Arial" font-size="25" fill="black" >
   Current time: 0 days, 0 hours, and 55.00 minutes, z = 0.00 &#956;m
  </text>
  <text x="12.5" y="57.5"
   font-family="Arial" font-size="23.75" fill="black" >
   150 agents
  </text>
 <g id="tissue" 
    transform="translate(0,1070) scale(1,-1)">
  <g id="ECM">
  </g>
  <g id="cells">
   <g id="cell0">
  <circle cx="423.296" cy="456.171" r="8.41271" stroke-width="0.5" stroke="black" fill="blue"/>
  <circle cx="423.296" cy="456.171" r="5.05167" stroke-width="0.5" stroke="blue" fill="blue"/>
   </g>
   <g id="cell1">
  <circle cx="423.077" cy="469.617" r="8.41271" stroke-width="0.5" stroke="black" fill="Red"/>
  <circle cx="423.077" cy="469.617" r="5.05167" stroke-width="0.5" stroke="Red" fill="Red"/>
   </g>
   <g id="cell2">
  <circle cx="425.28" cy="483.72" r="8.41271" stroke-width="0.5" stroke="black" fill="blue"/>
  <circle cx="425.28" cy="483.72" r="5.05167" stroke-width="0.5" stroke="blue" fill="blue"/>
   </g>
   <g id="cell3">
  <circle cx="425.409" cy="496.428" r="8.41271" stroke-width="0.5" stroke="black" fill="Red"/>
  <circle cx="425.409" cy="496.428" r="5.05167" stroke-width="0.5" stroke="Red" fill="Red"/>
   </g>
   <g id="cell4">
  <circle cx="426.294" cy="508.845" r="8.41271" stroke-width="0.5" stroke="black" fill="blue"/>
  <circle cx="426.294" cy="508.845" r="5.05167" stroke-width="0.5" stroke="blue" fill="blue"/>
   </g>
   <g id="cell5">
  <circle cx="423.839" cy="522.77" r="8.41271" stroke-width="0.5" stroke="black" fill="yellow"/>
  <circle cx="423.839" cy="522.77" r="5.05167" stroke-width="0.5" stroke="yellow" fill="yellow"/>
   </g>
   <g id="cell6">
  <circle cx="426.04" cy="536.826" r="8.41271" stroke-width="0.5" stroke="black" fill="blue"/>
  <circle cx="426.04" cy="536.826" r="5.05167" stroke-width="0.5" stroke="blue" fill="blue"/>
   </g>
   <g id="cell7">
  <circle cx="435.195" cy="449.236" r="6.83713" stroke-width="0.5" stroke="black" fill="Red"/>
  <circle cx="435.195" cy="449.236" r="4.12773" stroke-width="0.5" stroke="Red" fill="Red"/>
   </g>
   <g id="cell8">
  <circle cx="435.531" cy="460.836" r="8.41271" stroke-width="0.5" stroke="black" fill="Red"/>
  <circle cx="435.531" cy="460.836" r="5.05167" stroke-width="0.5" stroke="Red" fill="Red"/>
   </g>
   <g id="cell9">
  <circle cx="436.866" cy="475.438" r="8.41271" stroke-width="0.5" stroke="black" fill="Red"/>
  <circle cx="436.866" cy="475.438" r="5.05167" stroke-width="0.5" stroke="Red" fill="Red"/>
   </g>
   <g id="cell10">
  <circle cx="437.121" cy="488.378" r="8.41271" stroke-width="0.5" stroke="black" fill="Red"/>
  <circle cx="437.121" cy="488.378" r="5.05167" stroke-width="0.5" stroke="Red" fill="Red"/>
   </g>
   <g id="cell11">
  <circle cx="437.996" cy="502.045" r="8.41271" stroke-width="0.5" stroke="black" fill="Red"/>
  <circle cx="437.996" cy="502.045" r="5.05167" stroke-width="0.5" stroke="Red" fill="Red"/>
   </g>
   <g id="cell12">
  <circle cx="437.976" cy="515.968" r="8.41271" stroke-width="0.5" stroke="black" fill="Red"/>
  <circle cx="437.976" cy="515.968" r="5.05167" stroke-width="0.5" stroke="Red" fill="Red"/>
   </g>
   <g id="cell13">
  <circle cx="438.753" cy="530.337" r="8.41271" stroke-width="0.5" stroke="black" fill="Red"/>
  <circle cx="438.753" cy="530.337" r="5.05167" stroke-width="0.5" stroke="Red" fill="Red"/>
   </g>
   <g id="cell14">
  <circle cx="437.089" cy="544.789" r="8.41271" stroke-width="0.5" stroke="black" fill="Red"/>
  <circle cx="437.089" cy="544.789" r="5.05167" stroke-width="0.5" stroke="Red" fill="Red"/>
   </g>
   <g id="cell15">
  <circle cx="439.341" cy="561.289" r="8.41271" stroke-width="0.5" stroke="black" fill="blue"/>
  <circle cx="439.341" cy="561.289" r="5.05167" stroke-width="0.5" stroke="blue" fill="blue"/>
   </g>
   <g id="cell16">
  <circle cx="449.575" cy="427.507" r="8.41271" stroke-width="0.5" stroke="black" fill="blue"/>
  <circle cx="449.575" cy="427.507" r="5.05167" stroke-width="0.5" stroke="blue" fill="blue"/>
   </g>
   <g id="cell17">
  <circle cx="450.431" cy="440.58" r="8.41271" stroke-width="0.5" stroke="black" fill="Red"/>
  <circle cx="450.431" cy="440.58" r="5.05167" stroke-width="0.5" stroke="Red" fill="Red"/>
   </g>
   <g id="cell18">
  <circle cx="447.547" cy="453.147" r="8.41271" stroke-width="0.5" stroke="black" fill="Red"/>
  <circle cx="447.547" cy="453.147" r="5.05167" stroke-width="0.5" stroke="Red" fill="Red"/>
   </g>
   <g id="cell19">
  <circle cx="448.35" cy="467.979" r="8.41271" stroke-width="0.5" stroke="black" fill="blue"/>
  <circle cx="448.35" cy="467.979" r="5.05167" stroke-width="0.5" stroke="blue" fill="blue"/>
   </g>
   <g id="cell20">
  <circle cx="449.016" cy="481.055" r="8.41271" stroke-width="0.5" stroke="black" fill="Red"/>
  <circle cx="449.016" cy="481.055" r="5.05167" stroke-width="0.5" stroke="Red" fill="Red"/>
   </g>
   <g id="cell21">
  <circle cx="450.042" cy="494.845" r="8.41271" stroke-width="0.5" stroke="black" fill="Red"/>
  <circle cx="450.042" cy="494.845" r="5.05167" stroke-width="0.5" stroke="Red" fill="Red"/>
   </g>
   <g id="cell22">
  <circle cx="450.936" cy="508.764" r="8.41271" stroke-width="0.5" stroke="black" fill="blue"/>
  <circle cx="450.936" cy="508.764" r="5.05167" stroke-width="0.5" stroke="blue" fill="blue"/>
   </g>
   <g id="cell23">
  <circle cx="451.162" cy="523.162" r="8.41271" stroke-width="0.5" stroke="black" fill="Red"/>
  <circle cx="451.162" cy="523.162" r="5.05167" stroke-width="0.5" stroke="Red" fill="Red"/>
   </g>
   <g id="cell24">
  <circle cx="450.235" cy="537.858" r="8.41271" stroke-width="0.5" stroke="black" fill="blue"/>
  <circle cx="450.235" cy="537.858" r="5.05167" stroke-width="0.5" stroke="blue" fill="blue"/>
   </g>
   <g id="cell25">
  <circle cx="450.4" cy="552.098" r="8.41271" stroke-width="0.5" stroke="black" fill="yellow"/>
  <circle cx="450.4" cy="552.098" r="5.05167" stroke-width="0.5" stroke="yellow" fill="yellow"/>
   </g>
   <g id="cell26">
  <circle cx="451.31" cy="565.506" r="8.41271" stroke-width="0.5" stroke="black" fill="Red"/>
  <circle cx="451.31" cy="565.506" r="5.05167" stroke-width="0.5" stroke="Red" fill="Red"/>
   </g>
   <g id="cell27">
  <circle cx="461.356" cy="419.342" r="8.41271" stroke-width="0.5" stroke="black" fill="yellow"/>
  <circle cx="461.356" cy="419.342" r="5.05167" stroke-width="0.5" stroke="yellow" fill="yellow"/>
   </g>
   <g id="cell28">
  <circle cx="462.526" cy="433.343" r="8.41271" stroke-width="0.5" stroke="black" fill="Red"/>
  <circle cx="462.526" cy="433.343" r="5.05167" stroke-width="0.5" stroke="Red" fill="Red"/>
   </g>
   <g id="cell29">
  <circle cx="461.775" cy="447.352" r="8.41271" stroke-width="0.5" stroke="black" fill="blue"/>
  <circle cx="461.775" cy="447.352" r="5.05167" stroke-width="0.5" stroke="blue" fill="blue"/>
   </g>
   <g id="cell30">
  <circle cx="459.35" cy="459.827" r="8.41271" stroke-width="0.5" stroke="black" fill="Red"/>
  <circle cx="459.35" cy="459.827" r="5.05167" stroke-width="0.5" stroke="Red" fill="Red"/>
   </g>
   <g id="cell31">
  <circle cx="462.414" cy="474.097" r="8.41271" stroke-width="0.5" stroke="black" fill="Red"/>
  <circle cx="462.414" cy="474.097" r="5.05167" stroke-width="0.5" stroke="Red" fill="Red"/>
   </g>
   <g id="cell32">
  <circle cx="462.235" cy="487.501" r="8.41271" stroke-width="0.5" stroke="black" fill="blue"/>
  <circle cx="462.235" cy="487.501" r="5.05167" stroke-width="0.5" stroke="blue" fill="blue"/>
   </g>
   <g id="cell33">
  <circle cx="461.845" cy="501.703" r="8.41271" stroke-width="0.5" stroke="black" fill="Red"/>
  <circle cx="461.845" cy="501.703" r="5.05167" stroke-width="0.5" stroke="Red" fill="Red"/>
   </g>
   <g id="cell34">
  <circle cx="463.892" cy="515.136" r="8.41271" stroke-width="0.5" stroke="black" fill="Red"/>
  <circle cx="463.892" cy="515.136" r="5.05167" stroke-width="0.5" stroke="Red" fill="Red"/>
   </g>
   <g id="cell35">
  <circle cx="462.886" cy="530.115" r="8.41271" stroke-width="0.5" stroke="black" fill="Red"/>
  <circle cx="462.886" cy="530.115" r="5.05167" stroke-width="0.5" stroke="Red" fill="Red"/>
   </g>
   <g id="cell36">
  <circle cx="463.673" cy="545.13" r="8.41271" stroke-width="0.5" stroke="black" fill="Red"/>
  <circle cx="463.673" cy="545.13" r="5.05167" stroke-width="0.5" stroke="Red" fill="Red"/>
   </g>
   <g id="cell37">
  <circle cx="464.617" cy="557.337" r="8.41271" stroke-width="0.5" stroke="black" fill="Red"/>
  <circle cx="464.617" cy="557.337" r="5.05167" stroke-width="0.5" stroke="Red" fill="Red"/>
   </g>
   <g id="cell38">
  <circle cx="464.361" cy="571.519" r="8.41271" stroke-width="0.5" stroke="black" fill="yellow"/>
  <circle cx="464.361" cy="571.519" r="5.05167" stroke-width="0.5" stroke="yellow" fill="yellow"/>
   </g>
   <g id="cell39">
  <circle cx="460.572" cy="584.344" r="8.41271" stroke-width="0.5" stroke="black" fill="blue"/>
  <circle cx="460.572" cy="584.344" r="5.05167" stroke-width="0.5" stroke="blue" fill="blue"/>
   </g>
   <g id="cell40">
  <circle cx="474.054" cy="411.331" r="8.41271" stroke-width="0.5" stroke="black" fill="blue"/>
  <circle cx="474.054" cy="411.331" r="5.05167" stroke-width="0.5" stroke="blue" fill="blue"/>
   </g>
   <g id="cell41">
  <circle cx="475.117" cy="425.34" r="8.41271" stroke-width="0.5" stroke="black" fill="yellow"/>
  <circle cx="475.117" cy="425.34" r="5.05167" stroke-width="0.5" stroke="yellow" fill="yellow"/>
   </g>
   <g id="cell42">
  <circle cx="474.371" cy="438.388" r="8.41271" stroke-width="0.5" stroke="black" fill="Red"/>
  <circle cx="474.371" cy="438.388" r="5.05167" stroke-width="0.5" stroke="Red" fill="Red"/>
   </g>
   <g id="cell43">
  <circle cx="475.329" cy="451.739" r="8.41271" stroke-width="0.5" stroke="black" fill="Red"/>
  <circle cx="475.329" cy="451.739" r="5.05167" stroke-width="0.5" stroke="Red" fill="Red"/>
   </g>
   <g id="cell44">
  <circle cx="475.302" cy="467.181" r="8.41271" stroke-width="0.5" stroke="black" fill="blue"/>
  <circle cx="475.302" cy="467.181" r="5.05167" stroke-width="0.5" stroke="blue" fill="blue"/>
   </g>
   <g id="cell45">
  <circle cx="474.236" cy="480.783" r="8.41271" stroke-width="0.5" stroke="black" fill="Red"/>
  <circle cx="474.236" cy="480.783" r="5.05167" stroke-width="0.5" stroke="Red" fill="Red"/>
   </g>
   <g id="cell46">
  <circle cx="474.368" cy="494.693" r="8.41271" stroke-width="0.5" stroke="black" fill="Red"/>
  <circle cx="474.368" cy="494.693" r="5.05167" stroke-width="0.5" stroke="Red" fill="Red"/>
   </g>
   <g id="cell47">
  <circle cx="473.684" cy="506.158" r="6.80881" stroke-width="0.5" stroke="black" fill="Red"/>
  <circle cx="473.684" cy="506.158" r="4.10709" stroke-width="0.5" stroke="Red" fill="Red"/>
   </g>
   <g id="cell48">
  <circle cx="476.125" cy="523.958" r="8.41271" stroke-width="0.5" stroke="black" fill="Red"/>
  <circle cx="476.125" cy="523.958" r="5.05167" stroke-width="0.5" stroke="Red" fill="Red"/>
   </g>
   <g id="cell49">
  <circle cx="476.551" cy="537.562" r="8.41271" stroke-width="0.5" stroke="black" fill="Red"/>
  <circle cx="476.551" cy="537.562" r="5.05167" stroke-width="0.5" stroke="Red" fill="Red"/>
   </g>
   <g id="cell50">
  <circle cx="476.657" cy="551.225" r="8.41271" stroke-width="0.5" stroke="black" fill="Red"/>
  <circle cx="476.657" cy="551.225" r="5.05167" stroke-width="0.5" stroke="Red" fill="Red"/>
   </g>
   <g id="cell51">
  <circle cx="477.075" cy="564.839" r="8.41271" stroke-width="0.5" stroke="black" fill="blue"/>
  <circle cx="477.075" cy="564.839" r="5.05167" stroke-width="0.5" stroke="blue" fill="blue"/>
   </g>
   <g id="cell52">
  <circle cx="475.086" cy="580.414" r="8.41271" stroke-width="0.5" stroke="black" fill="yellow"/>
  <circle cx="475.086" cy="580.414" r="5.05167" stroke-width="0.5" stroke="yellow" fill="yellow"/>
   </g>
   <g id="cell53">
  <circle cx="487.488" cy="416.558" r="8.41271" stroke-width="0.5" stroke="black" fill="yellow"/>
  <circle cx="487.488" cy="416.558" r="5.05167" stroke-width="0.5" stroke="yellow" fill="yellow"/>
   </g>
   <g id="cell54">
  <circle cx="488.757" cy="430.923" r="8.41271" stroke-width="0.5" stroke="black" fill="blue"/>
  <circle cx="488.757" cy="430.923" r="5.05167" stroke-width="0.5" stroke="blue" fill="blue"/>
   </g>
   <g id="cell55">
  <circle cx="488.49" cy="445.485" r="8.41271" stroke-width="0.5" stroke="black" fill="Red"/>
  <circle cx="488.49" cy="445.485" r="5.05167" stroke-width="0.5" stroke="Red" fill="Red"/>
   </g>
   <g id="cell56">
  <circle cx="487.608" cy="459.589" r="8.41271" stroke-width="0.5" stroke="black" fill="Red"/>
  <circle cx="487.608" cy="459.589" r="5.05167" stroke-width="0.5" stroke="Red" fill="Red"/>
   </g>
   <g id="cell57">
  <circle cx="487.297" cy="473.71" r="8.41271" stroke-width="0.5" stroke="black" fill="Red"/>
  <circle cx="487.297" cy="473.71" r="5.05167" stroke-width="0.5" stroke="Red" fill="Red"/>
   </g>
   <g id="cell58">
  <circle cx="486.911" cy="487.257" r="8.41271" stroke-width="0.5" stroke="black" fill="blue"/>
  <circle cx="486.911" cy="487.257" r="5.05167" stroke-width="0.5" stroke="blue" fill="blue"/>
   </g>
   <g id="cell59">
  <circle cx="487.154" cy="502.228" r="8.41271" stroke-width="0.5" stroke="black" fill="Red"/>
  <circle cx="487.154" cy="502.228" r="5.05167" stroke-width="0.5" stroke="Red" fill="Red"/>
   </g>
   <g id="cell60">
  <circle cx="490.419" cy="516.273" r="8.41271" stroke-width="0.5" stroke="black" fill="Red"/>
  <circle cx="490.419" cy="516.273" r="5.05167" stroke-width="0.5" stroke="Red" fill="Red"/>
   </g>
   <g id="cell61">
  <circle cx="489.653" cy="530.231" r="8.41271" stroke-width="0.5" stroke="black" fill="Red"/>
  <circle cx="489.653" cy="530.231" r="5.05167" stroke-width="0.5" stroke="Red" fill="Red"/>
   </g>
   <g id="cell62">
  <circle cx="489.782" cy="542.513" r="8.41271" stroke-width="0.5" stroke="black" fill="blue"/>
  <circle cx="489.782" cy="542.513" r="5.05167" stroke-width="0.5" stroke="blue" fill="blue"/>
   </g>
   <g id="cell63">
  <circle cx="489.449" cy="557.168" r="8.41271" stroke-width="0.5" stroke="black" fill="Red"/>
  <circle cx="489.449" cy="557.168" r="5.05167" stroke-width="0.5" stroke="Red" fill="Red"/>
   </g>
   <g id="cell64">
  <circle cx="489.057" cy="572.036" r="8.41271" stroke-width="0.5" stroke="black" fill="Red"/>
  <circle cx="489.057" cy="572.036" r="5.05167" stroke-width="0.5" stroke="Red" fill="Red"/>
   </g>
   <g id="cell65">
  <circle cx="488.999" cy="586.503" r="8.41271" stroke-width="0.5" stroke="black" fill="yellow"/>
  <circle cx="488.999" cy="586.503" r="5.05167" stroke-width="0.5" stroke="yellow" fill="yellow"/>
   </g>
   <g id="cell66">
  <circle cx="500.435" cy="411.496" r="8.41271" stroke-width="0.5" stroke="black" fill="blue"/>
  <circle cx="500.435" cy="411.496" r="5.05167" stroke-width="0.5" stroke="blue" fill="blue"/>
   </g>
   <g id="cell67">
  <circle cx="500.264" cy="424.738" r="8.41271" stroke-width="0.5" stroke="black" fill="yellow"/>
  <circle cx="500.264" cy="424.738" r="5.05167" stroke-width="0.5" stroke="yellow" fill="yellow"/>
   </g>
   <g id="cell68">
  <circle cx="501.055" cy="438.61" r="8.41271" stroke-width="0.5" stroke="black" fill="Red"/>
  <circle cx="501.055" cy="438.61" r="5.05167" stroke-width="0.5" stroke="Red" fill="Red"/>
   </g>
   <g id="cell69">
  <circle cx="500.67" cy="453.956" r="8.41271" stroke-width="0.5" stroke="black" fill="Red"/>
  <circle cx="500.67" cy="453.956" r="5.05167" stroke-width="0.5" stroke="Red" fill="Red"/>
   </g>
   <g id="cell70">
  <circle cx="501.146" cy="468.044" r="8.41271" stroke-width="0.5" stroke="black" fill="blue"/>
  <circle cx="501.146" cy="468.044" r="5.05167" stroke-width="0.5" stroke="blue" fill="blue"/>
   </g>
   <g id="cell71">
  <circle cx="499.085" cy="481.553" r="8.41271" stroke-width="0.5" stroke="black" fill="Red"/>
  <circle cx="499.085" cy="481.553" r="5.05167" stroke-width="0.5" stroke="Red" fill="Red"/>
   </g>
   <g id="cell72">
  <circle cx="499.663" cy="495.202" r="8.41271" stroke-width="0.5" stroke="black" fill="Red"/>
  <circle cx="499.663" cy="495.202" r="5.05167" stroke-width="0.5" stroke="Red" fill="Red"/>
   </g>
   <g id="cell73">
  <circle cx="501.888" cy="509.465" r="8.41271" stroke-width="0.5" stroke="black" fill="blue"/>
  <circle cx="501.888" cy="509.465" r="5.05167" stroke-width="0.5" stroke="blue" fill="blue"/>
   </g>
   <g id="cell74">
  <circle cx="502.542" cy="522.967" r="8.41271" stroke-width="0.5" stroke="black" fill="Red"/>
  <circle cx="502.542" cy="522.967" r="5.05167" stroke-width="0.5" stroke="Red" fill="Red"/>
   </g>
   <g id="cell75">
  <circle cx="502.957" cy="537.259" r="8.41271" stroke-width="0.5" stroke="black" fill="Red"/>
  <circle cx="502.957" cy="537.259" r="5.05167" stroke-width="0.5" stroke="Red" fill="Red"/>
   </g>
   <g id="cell76">
  <circle cx="503.096" cy="550.4" r="8.41271" stroke-width="0.5" stroke="black" fill="Red"/>
  <circle cx="503.096" cy="550.4" r="5.05167" stroke-width="0.5" stroke="Red" fill="Red"/>
   </g>
   <g id="cell77">
  <circle cx="501.804" cy="564.67" r="8.41271" stroke-width="0.5" stroke="black" fill="blue"/>
  <circle cx="501.804" cy="564.67" r="5.05167" stroke-width="0.5" stroke="blue" fill="blue"/>
   </g>
   <g id="cell78">
  <circle cx="501.757" cy="579.171" r="8.41271" stroke-width="0.5" stroke="black" fill="yellow"/>
  <circle cx="501.757" cy="579.171" r="5.05167" stroke-width="0.5" stroke="yellow" fill="yellow"/>
   </g>
   <g id="cell79">
  <circle cx="502.72" cy="594.787" r="8.41271" stroke-width="0.5" stroke="black" fill="blue"/>
  <circle cx="502.72" cy="594.787" r="5.05167" stroke-width="0.5" stroke="blue" fill="blue"/>
   </g>
   <g id="cell80">
  <circle cx="513.403" cy="417.33" r="8.41271" stroke-width="0.5" stroke="black" fill="yellow"/>
  <circle cx="513.403" cy="417.33" r="5.05167" stroke-width="0.5" stroke="yellow" fill="yellow"/>
   </g>
   <g id="cell81">
  <circle cx="513.6" cy="432.324" r="8.41271" stroke-width="0.5" stroke="black" fill="Red"/>
  <circle cx="513.6" cy="432.324" r="5.05167" stroke-width="0.5" stroke="Red" fill="Red"/>
   </g>
   <g id="cell82">
  <circle cx="513.215" cy="445.566" r="8.41271" stroke-width="0.5" stroke="black" fill="blue"/>
  <circle cx="513.215" cy="445.566" r="5.05167" stroke-width="0.5" stroke="blue" fill="blue"/>
   </g>
   <g id="cell83">
  <circle cx="515.244" cy="459.088" r="8.41271" stroke-width="0.5" stroke="black" fill="Red"/>
  <circle cx="515.244" cy="459.088" r="5.05167" stroke-width="0.5" stroke="Red" fill="Red"/>
   </g>
   <g id="cell84">
  <circle cx="514.216" cy="475.037" r="8.41271" stroke-width="0.5" stroke="black" fill="blue"/>
  <circle cx="514.216" cy="475.037" r="5.05167" stroke-width="0.5" stroke="blue" fill="blue"/>
   </g>
   <g id="cell85">
  <circle cx="513.014" cy="488.988" r="8.41271" stroke-width="0.5" stroke="black" fill="Red"/>
  <circle cx="513.014" cy="488.988" r="5.05167" stroke-width="0.5" stroke="Red" fill="Red"/>
   </g>
   <g id="cell86">
  <circle cx="515.341" cy="502.468" r="8.41271" stroke-width="0.5" stroke="black" fill="Red"/>
  <circle cx="515.341" cy="502.468" r="5.05167" stroke-width="0.5" stroke="Red" fill="Red"/>
   </g>
   <g id="cell87">
  <circle cx="514.797" cy="516.112" r="8.41271" stroke-width="0.5" stroke="black" fill="Red"/>
  <circle cx="514.797" cy="516.112" r="5.05167" stroke-width="0.5" stroke="Red" fill="Red"/>
   </g>
   <g id="cell88">
  <circle cx="515.315" cy="529.253" r="8.41271" stroke-width="0.5" stroke="black" fill="Red"/>
  <circle cx="515.315" cy="529.253" r="5.05167" stroke-width="0.5" stroke="Red" fill="Red"/>
   </g>
   <g id="cell89">
  <circle cx="515.104" cy="543.812" r="8.41271" stroke-width="0.5" stroke="black" fill="Red"/>
  <circle cx="515.104" cy="543.812" r="5.05167" stroke-width="0.5" stroke="Red" fill="Red"/>
   </g>
   <g id="cell90">
  <circle cx="515.675" cy="557.623" r="8.41271" stroke-width="0.5" stroke="black" fill="blue"/>
  <circle cx="515.675" cy="557.623" r="5.05167" stroke-width="0.5" stroke="blue" fill="blue"/>
   </g>
   <g id="cell91">
  <circle cx="515.306" cy="571.86" r="8.41271" stroke-width="0.5" stroke="black" fill="Red"/>
  <circle cx="515.306" cy="571.86" r="5.05167" stroke-width="0.5" stroke="Red" fill="Red"/>
   </g>
   <g id="cell92">
  <circle cx="514.773" cy="587.905" r="8.41271" stroke-width="0.5" stroke="black" fill="yellow"/>
  <circle cx="514.773" cy="587.905" r="5.05167" stroke-width="0.5" stroke="yellow" fill="yellow"/>
   </g>
   <g id="cell93">
  <circle cx="527.782" cy="411.263" r="8.41271" stroke-width="0.5" stroke="black" fill="blue"/>
  <circle cx="527.782" cy="411.263" r="5.05167" stroke-width="0.5" stroke="blue" fill="blue"/>
   </g>
   <g id="cell94">
  <circle cx="527.186" cy="425.562" r="8.41271" stroke-width="0.5" stroke="black" fill="yellow"/>
  <circle cx="527.186" cy="425.562" r="5.05167" stroke-width="0.5" stroke="yellow" fill="yellow"/>
   </g>
   <g id="cell95">
  <circle cx="526.332" cy="439.643" r="8.41271" stroke-width="0.5" stroke="black" fill="Red"/>
  <circle cx="526.332" cy="439.643" r="5.05167" stroke-width="0.5" stroke="Red" fill="Red"/>
   </g>
   <g id="cell96">
  <circle cx="524.161" cy="451.78" r="6.80881" stroke-width="0.5" stroke="black" fill="Red"/>
  <circle cx="524.161" cy="451.78" r="4.10709" stroke-width="0.5" stroke="Red" fill="Red"/>
   </g>
   <g id="cell97">
  <circle cx="525.961" cy="467.273" r="8.41271" stroke-width="0.5" stroke="black" fill="Red"/>
  <circle cx="525.961" cy="467.273" r="5.05167" stroke-width="0.5" stroke="Red" fill="Red"/>
   </g>
   <g id="cell98">
  <circle cx="527.869" cy="481.054" r="8.41271" stroke-width="0.5" stroke="black" fill="blue"/>
  <circle cx="527.869" cy="481.054" r="5.05167" stroke-width="0.5" stroke="blue" fill="blue"/>
   </g>
   <g id="cell99">
  <circle cx="528.659" cy="496.27" r="8.41271" stroke-width="0.5" stroke="black" fill="Red"/>
  <circle cx="528.659" cy="496.27" r="5.05167" stroke-width="0.5" stroke="Red" fill="Red"/>
   </g>
   <g id="cell100">
  <circle cx="527.918" cy="509.752" r="8.41271" stroke-width="0.5" stroke="black" fill="Red"/>
  <circle cx="527.918" cy="509.752" r="5.05167" stroke-width="0.5" stroke="Red" fill="Red"/>
   </g>
   <g id="cell101">
  <circle cx="528.265" cy="524.969" r="8.41271" stroke-width="0.5" stroke="black" fill="Red"/>
  <circle cx="528.265" cy="524.969" r="5.05167" stroke-width="0.5" stroke="Red" fill="Red"/>
   </g>
   <g id="cell102">
  <circle cx="534.424" cy="537.104" r="6.73287" stroke-width="0.5" stroke="black" fill="blue"/>
  <circle cx="534.424" cy="537.104" r="4.05039" stroke-width="0.5" stroke="blue" fill="blue"/>
   </g>
   <g id="cell103">
  <circle cx="529.226" cy="550.064" r="8.41271" stroke-width="0.5" stroke="black" fill="Red"/>
  <circle cx="529.226" cy="550.064" r="5.05167" stroke-width="0.5" stroke="Red" fill="Red"/>
   </g>
   <g id="cell104">
  <circle cx="527.784" cy="564.979" r="8.41271" stroke-width="0.5" stroke="black" fill="Red"/>
  <circle cx="527.784" cy="564.979" r="5.05167" stroke-width="0.5" stroke="Red" fill="Red"/>
   </g>
   <g id="cell105">
  <circle cx="526.301" cy="579.084" r="8.41271" stroke-width="0.5" stroke="black" fill="blue"/>
  <circle cx="526.301" cy="579.084" r="5.05167" stroke-width="0.5" stroke="blue" fill="blue"/>
   </g>
   <g id="cell106">
  <circle cx="540.421" cy="417.461" r="8.41271" stroke-width="0.5" stroke="black" fill="yellow"/>
  <circle cx="540.421" cy="417.461" r="5.05167" stroke-width="0.5" stroke="yellow" fill="yellow"/>
   </g>
   <g id="cell107">
  <circle cx="538.821" cy="432.796" r="8.41271" stroke-width="0.5" stroke="black" fill="Red"/>
  <circle cx="538.821" cy="432.796" r="5.05167" stroke-width="0.5" stroke="Red" fill="Red"/>
   </g>
   <g id="cell108">
  <circle cx="537.653" cy="448.562" r="8.41271" stroke-width="0.5" stroke="black" fill="Red"/>
  <circle cx="537.653" cy="448.562" r="5.05167" stroke-width="0.5" stroke="Red" fill="Red"/>
   </g>
   <g id="cell109">
  <circle cx="543.845" cy="461.522" r="8.41271" stroke-width="0.5" stroke="black" fill="Red"/>
  <circle cx="543.845" cy="461.522" r="5.05167" stroke-width="0.5" stroke="Red" fill="Red"/>
   </g>
   <g id="cell110">
  <circle cx="540.122" cy="474.201" r="8.41271" stroke-width="0.5" stroke="black" fill="Red"/>
  <circle cx="540.122" cy="474.201" r="5.05167" stroke-width="0.5" stroke="Red" fill="Red"/>
   </g>
   <g id="cell111">
  <circle cx="540.712" cy="488.451" r="8.41271" stroke-width="0.5" stroke="black" fill="Red"/>
  <circle cx="540.712" cy="488.451" r="5.05167" stroke-width="0.5" stroke="Red" fill="Red"/>
   </g>
   <g id="cell112">
  <circle cx="541.076" cy="502.3" r="8.41271" stroke-width="0.5" stroke="black" fill="Red"/>
  <circle cx="541.076" cy="502.3" r="5.05167" stroke-width="0.5" stroke="Red" fill="Red"/>
   </g>
   <g id="cell113">
  <circle cx="540.888" cy="516.088" r="8.41271" stroke-width="0.5" stroke="black" fill="Red"/>
  <circle cx="540.888" cy="516.088" r="5.05167" stroke-width="0.5" stroke="Red" fill="Red"/>
   </g>
   <g id="cell114">
  <circle cx="542.094" cy="529.658" r="8.41271" stroke-width="0.5" stroke="black" fill="Red"/>
  <circle cx="542.094" cy="529.658" r="5.05167" stroke-width="0.5" stroke="Red" fill="Red"/>
   </g>
   <g id="cell115">
  <circle cx="542.729" cy="544.833" r="8.41271" stroke-width="0.5" stroke="black" fill="blue"/>
  <circle cx="542.729" cy="544.833" r="5.05167" stroke-width="0.5" stroke="blue" fill="blue"/>
   </g>
   <g id="cell116">
  <circle cx="540.631" cy="558.472" r="8.41271" stroke-width="0.5" stroke="black" fill="Red"/>
  <circle cx="540.631" cy="558.472" r="5.05167" stroke-width="0.5" stroke="Red" fill="Red"/>
   </g>
   <g id="cell117">
  <circle cx="540.855" cy="572.748" r="8.41271" stroke-width="0.5" stroke="black" fill="blue"/>
  <circle cx="540.855" cy="572.748" r="5.05167" stroke-width="0.5" stroke="blue" fill="blue"/>
   </g>
   <g id="cell118">
  <circle cx="551.624" cy="427.031" r="8.41271" stroke-width="0.5" stroke="black" fill="blue"/>
  <circle cx="551.624" cy="427.031" r="5.05167" stroke-width="0.5" stroke="blue" fill="blue"/>
   </g>
   <g id="cell119">
  <circle cx="550.597" cy="440.686" r="8.41271" stroke-width="0.5" stroke="black" fill="yellow"/>
  <circle cx="550.597" cy="440.686" r="5.05167" stroke-width="0.5" stroke="yellow" fill="yellow"/>
   </g>
   <g id="cell120">
  <circle cx="554.661" cy="453.635" r="8.41271" stroke-width="0.5" stroke="black" fill="Red"/>
  <circle cx="554.661" cy="453.635" r="5.05167" stroke-width="0.5" stroke="Red" fill="Red"/>
   </g>
   <g id="cell121">
  <circle cx="555.421" cy="470.077" r="8.41271" stroke-width="0.5" stroke="black" fill="blue"/>
  <circle cx="555.421" cy="470.077" r="5.05167" stroke-width="0.5" stroke="blue" fill="blue"/>
   </g>
   <g id="cell122">
  <circle cx="553.255" cy="482.601" r="8.41271" stroke-width="0.5" stroke="black" fill="Red"/>
  <circle cx="553.255" cy="482.601" r="5.05167" stroke-width="0.5" stroke="Red" fill="Red"/>
   </g>
   <g id="cell123">
  <circle cx="554.021" cy="496.503" r="8.41271" stroke-width="0.5" stroke="black" fill="Red"/>
  <circle cx="554.021" cy="496.503" r="5.05167" stroke-width="0.5" stroke="Red" fill="Red"/>
   </g>
   <g id="cell124">
  <circle cx="553.096" cy="509.905" r="8.41271" stroke-width="0.5" stroke="black" fill="Red"/>
  <circle cx="553.096" cy="509.905" r="5.05167" stroke-width="0.5" stroke="Red" fill="Red"/>
   </g>
   <g id="cell125">
  <circle cx="554.977" cy="523.317" r="8.41271" stroke-width="0.5" stroke="black" fill="Red"/>
  <circle cx="554.977" cy="523.317" r="5.05167" stroke-width="0.5" stroke="Red" fill="Red"/>
   </g>
   <g id="cell126">
  <circle cx="554.401" cy="537.545" r="8.41271" stroke-width="0.5" stroke="black" fill="blue"/>
  <circle cx="554.401" cy="537.545" r="5.05167" stroke-width="0.5" stroke="blue" fill="blue"/>
   </g>
   <g id="cell127">
  <circle cx="553.129" cy="552.382" r="8.41271" stroke-width="0.5" stroke="black" fill="yellow"/>
  <circle cx="553.129" cy="552.382" r="5.05167" stroke-width="0.5" stroke="yellow" fill="yellow"/>
   </g>
   <g id="cell128">
  <circle cx="553.185" cy="565.999" r="8.41271" stroke-width="0.5" stroke="black" fill="yellow"/>
  <circle cx="553.185" cy="565.999" r="5.05167" stroke-width="0.5" stroke="yellow" fill="yellow"/>
   </g>
   <g id="cell129">
  <circle cx="566.296" cy="444.605" r="8.41271" stroke-width="0.5" stroke="black" fill="blue"/>
  <circle cx="566.296" cy="444.605" r="5.05167" stroke-width="0.5" stroke="blue" fill="blue"/>
   </g>
   <g id="cell130">
  <circle cx="567.31" cy="459.259" r="8.41271" stroke-width="0.5" stroke="black" fill="yellow"/>
  <circle cx="567.31" cy="459.259" r="5.05167" stroke-width="0.5" stroke="yellow" fill="yellow"/>
   </g>
   <g id="cell131">
  <circle cx="567.527" cy="474.149" r="8.41271" stroke-width="0.5" stroke="black" fill="yellow"/>
  <circle cx="567.527" cy="474.149" r="5.05167" stroke-width="0.5" stroke="yellow" fill="yellow"/>
   </g>
   <g id="cell132">
  <circle cx="567.184" cy="487.775" r="8.41271" stroke-width="0.5" stroke="black" fill="Red"/>
  <circle cx="567.184" cy="487.775" r="5.05167" stroke-width="0.5" stroke="Red" fill="Red"/>
   </g>
   <g id="cell133">
  <circle cx="567.271" cy="502.869" r="8.41271" stroke-width="0.5" stroke="black" fill="Red"/>
  <circle cx="567.271" cy="502.869" r="5.05167" stroke-width="0.5" stroke="Red" fill="Red"/>
   </g>
   <g id="cell134">
  <circle cx="567.132" cy="516.45" r="8.41271" stroke-width="0.5" stroke="black" fill="Red"/>
  <circle cx="567.132" cy="516.45" r="5.05167" stroke-width="0.5" stroke="Red" fill="Red"/>
   </g>
   <g id="cell135">
  <circle cx="567.564" cy="530.618" r="8.41271" stroke-width="0.5" stroke="black" fill="yellow"/>
  <circle cx="567.564" cy="530.618" r="5.05167" stroke-width="0.5" stroke="yellow" fill="yellow"/>
   </g>
   <g id="cell136">
  <circle cx="566.421" cy="544.627" r="8.41271" stroke-width="0.5" stroke="black" fill="yellow"/>
  <circle cx="566.421" cy="544.627" r="5.05167" stroke-width="0.5" stroke="yellow" fill="yellow"/>
   </g>
   <g id="cell137">
  <circle cx="565.737" cy="558.89" r="8.41271" stroke-width="0.5" stroke="black" fill="blue"/>
  <circle cx="565.737" cy="558.89" r="5.05167" stroke-width="0.5" stroke="blue" fill="blue"/>
   </g>
   <g id="cell138">
  <circle cx="581.273" cy="467.075" r="8.41271" stroke-width="0.5" stroke="black" fill="blue"/>
  <circle cx="581.273" cy="467.075" r="5.05167" stroke-width="0.5" stroke="blue" fill="blue"/>
   </g>
   <g id="cell139">
  <circle cx="580.279" cy="480.927" r="8.41271" stroke-width="0.5" stroke="black" fill="Red"/>
  <circle cx="580.279" cy="480.927" r="5.05167" stroke-width="0.5" stroke="Red" fill="Red"/>
   </g>
   <g id="cell140">
  <circle cx="578.339" cy="494.899" r="6.83713" stroke-width="0.5" stroke="black" fill="Red"/>
  <circle cx="578.339" cy="494.899" r="4.12773" stroke-width="0.5" stroke="Red" fill="Red"/>
   </g>
   <g id="cell141">
  <circle cx="580.539" cy="510.856" r="8.41271" stroke-width="0.5" stroke="black" fill="yellow"/>
  <circle cx="580.539" cy="510.856" r="5.05167" stroke-width="0.5" stroke="yellow" fill="yellow"/>
   </g>
   <g id="cell142">
  <circle cx="580.008" cy="525.159" r="8.41271" stroke-width="0.5" stroke="black" fill="Red"/>
  <circle cx="580.008" cy="525.159" r="5.05167" stroke-width="0.5" stroke="Red" fill="Red"/>
   </g>
   <g id="cell143">
  <circle cx="580.476" cy="539.764" r="8.41271" stroke-width="0.5" stroke="black" fill="blue"/>
  <circle cx="580.476" cy="539.764" r="5.05167" stroke-width="0.5" stroke="blue" fill="blue"/>
   </g>
   <g id="cell144">
  <circle cx="439.306" cy="438.75" r="6.83713" stroke-width="0.5" stroke="black" fill="Red"/>
  <circle cx="439.306" cy="438.75" r="4.12773" stroke-width="0.5" stroke="Red" fill="Red"/>
   </g>
   <g id="cell145">
  <circle cx="589.226" cy="501.632" r="6.83713" stroke-width="0.5" stroke="black" fill="blue"/>
  <circle cx="589.226" cy="501.632" r="4.12773" stroke-width="0.5" stroke="blue" fill="blue"/>
   </g>
   <g id="cell146">
  <circle cx="479.876" cy="513.72" r="6.80881" stroke-width="0.5" stroke="black" fill="blue"/>
  <circle cx="479.876" cy="513.72" r="4.10709" stroke-width="0.5" stroke="blue" fill="blue"/>
   </g>
   <g id="cell147">
  <circle cx="530.911" cy="456.997" r="5.48858" stroke-width="0.5" stroke="black" fill="blue"/>
  <circle cx="530.911" cy="456.997" r="3.32079" stroke-width="0.5" stroke="blue" fill="blue"/>
   </g>
   <g id="cell148">
  <circle cx="524.815" cy="536.106" r="6.73287" stroke-width="0.5" stroke="black" fill="blue"/>
  <circle cx="524.815" cy="536.106" r="4.05039" stroke-width="0.5" stroke="blue" fill="blue"/>
   </g>
   <g id="cell149">
  <circle cx="534.449" cy="462.874" r="5.48858" stroke-width="0.5" stroke="black" fill="blue"/>
  <circle cx="534.449" cy="462.874" r="3.32079" stroke-width="0.5" stroke="blue" fill="blue"/>
   </g>
  </g>
 </g>
  <rect x="775" y="1035" width="200" height="10" stroke-width="2" stroke="rgb(255,255,255)" fill="rgb(0,0,0)"/>
  <text x="781.25" y="1028.75"
   font-family="Arial" font-size="25" fill="black" >
   200 &#956;m
  </text>
  <text x="25" y="1045"
   font-family="Arial" font-size="18.75" fill="black" >
   0 days, 0 hours, 0 minutes, and 15.4464 seconds
  </text>
  <rect x="0" y="70" width="1000" height="1000" stroke-width="2" stroke="rgb(0,0,0)" fill="none"/>
</svg>
