<?xml version="1.0" encoding="UTF-8" standalone="no"?>
<!-- Created with PhysiCell (http://PhysiCell.MathCancer.org/) -->
<svg 
 xmlns:dc="http://purl.org/dc/elements/1.1/" 
 xmlns:cc="http://creativecommons.org/ns#" 
 xmlns:rdf="http://www.w3.org/1999/02/22-rdf-syntax-ns#" 
 xmlns:svg="http://www.w3.org/2000/svg" 
 xmlns="http://www.w3.org/2000/svg" 
 version="1.1" 
 width="1000" 
 height="1070" 
 id="svg2">
  <rect x="0" y="0" width="1000" height="1070" stroke-width="2" stroke="white" fill="white"/>
  <text x="12.5" y="30"
   font-family="Arial" font-size="25" fill="black" >
   Current time: 0 days, 0 hours, and 25.00 minutes, z = 0.00 &#956;m
  </text>
  <text x="12.5" y="57.5"
   font-family="Arial" font-size="23.75" fill="black" >
   148 agents
  </text>
 <g id="tissue" 
    transform="translate(0,1070) scale(1,-1)">
  <g id="ECM">
  </g>
  <g id="cells">
   <g id="cell0">
  <circle cx="421.407" cy="454.27" r="8.41271" stroke-width="0.5" stroke="black" fill="blue"/>
  <circle cx="421.407" cy="454.27" r="5.05167" stroke-width="0.5" stroke="blue" fill="blue"/>
   </g>
   <g id="cell1">
  <circle cx="421.747" cy="467.552" r="8.41271" stroke-width="0.5" stroke="black" fill="yellow"/>
  <circle cx="421.747" cy="467.552" r="5.05167" stroke-width="0.5" stroke="yellow" fill="yellow"/>
   </g>
   <g id="cell2">
  <circle cx="420.143" cy="481.269" r="8.41271" stroke-width="0.5" stroke="black" fill="blue"/>
  <circle cx="420.143" cy="481.269" r="5.05167" stroke-width="0.5" stroke="blue" fill="blue"/>
   </g>
   <g id="cell3">
  <circle cx="421.927" cy="495.548" r="8.41271" stroke-width="0.5" stroke="black" fill="blue"/>
  <circle cx="421.927" cy="495.548" r="5.05167" stroke-width="0.5" stroke="blue" fill="blue"/>
   </g>
   <g id="cell4">
  <circle cx="422.148" cy="509.818" r="8.41271" stroke-width="0.5" stroke="black" fill="blue"/>
  <circle cx="422.148" cy="509.818" r="5.05167" stroke-width="0.5" stroke="blue" fill="blue"/>
   </g>
   <g id="cell5">
  <circle cx="419.866" cy="523.806" r="8.41271" stroke-width="0.5" stroke="black" fill="Red"/>
  <circle cx="419.866" cy="523.806" r="5.05167" stroke-width="0.5" stroke="Red" fill="Red"/>
   </g>
   <g id="cell6">
  <circle cx="421.259" cy="537.876" r="8.41271" stroke-width="0.5" stroke="black" fill="blue"/>
  <circle cx="421.259" cy="537.876" r="5.05167" stroke-width="0.5" stroke="blue" fill="blue"/>
   </g>
   <g id="cell7">
  <circle cx="434.216" cy="448.587" r="6.71158" stroke-width="0.5" stroke="black" fill="yellow"/>
  <circle cx="434.216" cy="448.587" r="4.03435" stroke-width="0.5" stroke="yellow" fill="yellow"/>
   </g>
   <g id="cell8">
  <circle cx="433.731" cy="461.06" r="8.41271" stroke-width="0.5" stroke="black" fill="yellow"/>
  <circle cx="433.731" cy="461.06" r="5.05167" stroke-width="0.5" stroke="yellow" fill="yellow"/>
   </g>
   <g id="cell9">
  <circle cx="432.861" cy="476.022" r="8.41271" stroke-width="0.5" stroke="black" fill="Red"/>
  <circle cx="432.861" cy="476.022" r="5.05167" stroke-width="0.5" stroke="Red" fill="Red"/>
   </g>
   <g id="cell10">
  <circle cx="433.494" cy="488.258" r="8.41271" stroke-width="0.5" stroke="black" fill="Red"/>
  <circle cx="433.494" cy="488.258" r="5.05167" stroke-width="0.5" stroke="Red" fill="Red"/>
   </g>
   <g id="cell11">
  <circle cx="433.464" cy="501.841" r="8.41271" stroke-width="0.5" stroke="black" fill="Red"/>
  <circle cx="433.464" cy="501.841" r="5.05167" stroke-width="0.5" stroke="Red" fill="Red"/>
   </g>
   <g id="cell12">
  <circle cx="434.287" cy="516.851" r="8.41271" stroke-width="0.5" stroke="black" fill="Red"/>
  <circle cx="434.287" cy="516.851" r="5.05167" stroke-width="0.5" stroke="Red" fill="Red"/>
   </g>
   <g id="cell13">
  <circle cx="434.096" cy="531.763" r="8.41271" stroke-width="0.5" stroke="black" fill="yellow"/>
  <circle cx="434.096" cy="531.763" r="5.05167" stroke-width="0.5" stroke="yellow" fill="yellow"/>
   </g>
   <g id="cell14">
  <circle cx="435.815" cy="545.777" r="8.41271" stroke-width="0.5" stroke="black" fill="yellow"/>
  <circle cx="435.815" cy="545.777" r="5.05167" stroke-width="0.5" stroke="yellow" fill="yellow"/>
   </g>
   <g id="cell15">
  <circle cx="433.816" cy="559.252" r="8.41271" stroke-width="0.5" stroke="black" fill="blue"/>
  <circle cx="433.816" cy="559.252" r="5.05167" stroke-width="0.5" stroke="blue" fill="blue"/>
   </g>
   <g id="cell16">
  <circle cx="446.632" cy="426.529" r="8.41271" stroke-width="0.5" stroke="black" fill="blue"/>
  <circle cx="446.632" cy="426.529" r="5.05167" stroke-width="0.5" stroke="blue" fill="blue"/>
   </g>
   <g id="cell17">
  <circle cx="449.758" cy="439.331" r="8.41271" stroke-width="0.5" stroke="black" fill="yellow"/>
  <circle cx="449.758" cy="439.331" r="5.05167" stroke-width="0.5" stroke="yellow" fill="yellow"/>
   </g>
   <g id="cell18">
  <circle cx="446.366" cy="452.53" r="8.41271" stroke-width="0.5" stroke="black" fill="Red"/>
  <circle cx="446.366" cy="452.53" r="5.05167" stroke-width="0.5" stroke="Red" fill="Red"/>
   </g>
   <g id="cell19">
  <circle cx="445.889" cy="467.241" r="8.41271" stroke-width="0.5" stroke="black" fill="blue"/>
  <circle cx="445.889" cy="467.241" r="5.05167" stroke-width="0.5" stroke="blue" fill="blue"/>
   </g>
   <g id="cell20">
  <circle cx="445.648" cy="481.226" r="8.41271" stroke-width="0.5" stroke="black" fill="Red"/>
  <circle cx="445.648" cy="481.226" r="5.05167" stroke-width="0.5" stroke="Red" fill="Red"/>
   </g>
   <g id="cell21">
  <circle cx="445.758" cy="495.234" r="8.41271" stroke-width="0.5" stroke="black" fill="Red"/>
  <circle cx="445.758" cy="495.234" r="5.05167" stroke-width="0.5" stroke="Red" fill="Red"/>
   </g>
   <g id="cell22">
  <circle cx="445.767" cy="510.094" r="8.41271" stroke-width="0.5" stroke="black" fill="blue"/>
  <circle cx="445.767" cy="510.094" r="5.05167" stroke-width="0.5" stroke="blue" fill="blue"/>
   </g>
   <g id="cell23">
  <circle cx="447.409" cy="524.022" r="8.41271" stroke-width="0.5" stroke="black" fill="Red"/>
  <circle cx="447.409" cy="524.022" r="5.05167" stroke-width="0.5" stroke="Red" fill="Red"/>
   </g>
   <g id="cell24">
  <circle cx="448.156" cy="537.517" r="8.41271" stroke-width="0.5" stroke="black" fill="blue"/>
  <circle cx="448.156" cy="537.517" r="5.05167" stroke-width="0.5" stroke="blue" fill="blue"/>
   </g>
   <g id="cell25">
  <circle cx="447.997" cy="552.695" r="8.41271" stroke-width="0.5" stroke="black" fill="yellow"/>
  <circle cx="447.997" cy="552.695" r="5.05167" stroke-width="0.5" stroke="yellow" fill="yellow"/>
   </g>
   <g id="cell26">
  <circle cx="447.727" cy="566.327" r="8.41271" stroke-width="0.5" stroke="black" fill="Red"/>
  <circle cx="447.727" cy="566.327" r="5.05167" stroke-width="0.5" stroke="Red" fill="Red"/>
   </g>
   <g id="cell27">
  <circle cx="459.985" cy="416.13" r="8.41271" stroke-width="0.5" stroke="black" fill="yellow"/>
  <circle cx="459.985" cy="416.13" r="5.05167" stroke-width="0.5" stroke="yellow" fill="yellow"/>
   </g>
   <g id="cell28">
  <circle cx="461.071" cy="431.664" r="8.41271" stroke-width="0.5" stroke="black" fill="yellow"/>
  <circle cx="461.071" cy="431.664" r="5.05167" stroke-width="0.5" stroke="yellow" fill="yellow"/>
   </g>
   <g id="cell29">
  <circle cx="461.23" cy="446.908" r="8.41271" stroke-width="0.5" stroke="black" fill="blue"/>
  <circle cx="461.23" cy="446.908" r="5.05167" stroke-width="0.5" stroke="blue" fill="blue"/>
   </g>
   <g id="cell30">
  <circle cx="460.955" cy="461.439" r="8.41271" stroke-width="0.5" stroke="black" fill="Red"/>
  <circle cx="460.955" cy="461.439" r="5.05167" stroke-width="0.5" stroke="Red" fill="Red"/>
   </g>
   <g id="cell31">
  <circle cx="457.331" cy="473.925" r="8.41271" stroke-width="0.5" stroke="black" fill="Red"/>
  <circle cx="457.331" cy="473.925" r="5.05167" stroke-width="0.5" stroke="Red" fill="Red"/>
   </g>
   <g id="cell32">
  <circle cx="458.577" cy="487.329" r="8.41271" stroke-width="0.5" stroke="black" fill="Red"/>
  <circle cx="458.577" cy="487.329" r="5.05167" stroke-width="0.5" stroke="Red" fill="Red"/>
   </g>
   <g id="cell33">
  <circle cx="459.509" cy="501.553" r="8.41271" stroke-width="0.5" stroke="black" fill="Red"/>
  <circle cx="459.509" cy="501.553" r="5.05167" stroke-width="0.5" stroke="Red" fill="Red"/>
   </g>
   <g id="cell34">
  <circle cx="459.891" cy="516.118" r="8.41271" stroke-width="0.5" stroke="black" fill="Red"/>
  <circle cx="459.891" cy="516.118" r="5.05167" stroke-width="0.5" stroke="Red" fill="Red"/>
   </g>
   <g id="cell35">
  <circle cx="460.567" cy="530.501" r="8.41271" stroke-width="0.5" stroke="black" fill="Red"/>
  <circle cx="460.567" cy="530.501" r="5.05167" stroke-width="0.5" stroke="Red" fill="Red"/>
   </g>
   <g id="cell36">
  <circle cx="461.34" cy="544.63" r="8.41271" stroke-width="0.5" stroke="black" fill="blue"/>
  <circle cx="461.34" cy="544.63" r="5.05167" stroke-width="0.5" stroke="blue" fill="blue"/>
   </g>
   <g id="cell37">
  <circle cx="461.084" cy="559.13" r="8.41271" stroke-width="0.5" stroke="black" fill="Red"/>
  <circle cx="461.084" cy="559.13" r="5.05167" stroke-width="0.5" stroke="Red" fill="Red"/>
   </g>
   <g id="cell38">
  <circle cx="461.179" cy="573.955" r="8.41271" stroke-width="0.5" stroke="black" fill="yellow"/>
  <circle cx="461.179" cy="573.955" r="5.05167" stroke-width="0.5" stroke="yellow" fill="yellow"/>
   </g>
   <g id="cell39">
  <circle cx="457.71" cy="588.676" r="8.41271" stroke-width="0.5" stroke="black" fill="blue"/>
  <circle cx="457.71" cy="588.676" r="5.05167" stroke-width="0.5" stroke="blue" fill="blue"/>
   </g>
   <g id="cell40">
  <circle cx="473.757" cy="409.716" r="8.41271" stroke-width="0.5" stroke="black" fill="blue"/>
  <circle cx="473.757" cy="409.716" r="5.05167" stroke-width="0.5" stroke="blue" fill="blue"/>
   </g>
   <g id="cell41">
  <circle cx="473.934" cy="423.339" r="8.41271" stroke-width="0.5" stroke="black" fill="yellow"/>
  <circle cx="473.934" cy="423.339" r="5.05167" stroke-width="0.5" stroke="yellow" fill="yellow"/>
   </g>
   <g id="cell42">
  <circle cx="474.309" cy="438.362" r="8.41271" stroke-width="0.5" stroke="black" fill="Red"/>
  <circle cx="474.309" cy="438.362" r="5.05167" stroke-width="0.5" stroke="Red" fill="Red"/>
   </g>
   <g id="cell43">
  <circle cx="473.856" cy="452.722" r="8.41271" stroke-width="0.5" stroke="black" fill="Red"/>
  <circle cx="473.856" cy="452.722" r="5.05167" stroke-width="0.5" stroke="Red" fill="Red"/>
   </g>
   <g id="cell44">
  <circle cx="474.587" cy="466.427" r="8.41271" stroke-width="0.5" stroke="black" fill="blue"/>
  <circle cx="474.587" cy="466.427" r="5.05167" stroke-width="0.5" stroke="blue" fill="blue"/>
   </g>
   <g id="cell45">
  <circle cx="470.009" cy="477.691" r="8.41271" stroke-width="0.5" stroke="black" fill="Red"/>
  <circle cx="470.009" cy="477.691" r="5.05167" stroke-width="0.5" stroke="Red" fill="Red"/>
   </g>
   <g id="cell46">
  <circle cx="471.113" cy="491.27" r="8.41271" stroke-width="0.5" stroke="black" fill="Red"/>
  <circle cx="471.113" cy="491.27" r="5.05167" stroke-width="0.5" stroke="Red" fill="Red"/>
   </g>
   <g id="cell47">
  <circle cx="471.245" cy="502.908" r="6.69288" stroke-width="0.5" stroke="black" fill="blue"/>
  <circle cx="471.245" cy="502.908" r="4.02051" stroke-width="0.5" stroke="blue" fill="blue"/>
   </g>
   <g id="cell48">
  <circle cx="473.365" cy="523.977" r="8.41271" stroke-width="0.5" stroke="black" fill="Red"/>
  <circle cx="473.365" cy="523.977" r="5.05167" stroke-width="0.5" stroke="Red" fill="Red"/>
   </g>
   <g id="cell49">
  <circle cx="473.485" cy="538.099" r="8.41271" stroke-width="0.5" stroke="black" fill="Red"/>
  <circle cx="473.485" cy="538.099" r="5.05167" stroke-width="0.5" stroke="Red" fill="Red"/>
   </g>
   <g id="cell50">
  <circle cx="474.05" cy="551.903" r="8.41271" stroke-width="0.5" stroke="black" fill="Red"/>
  <circle cx="474.05" cy="551.903" r="5.05167" stroke-width="0.5" stroke="Red" fill="Red"/>
   </g>
   <g id="cell51">
  <circle cx="474.959" cy="566.637" r="8.41271" stroke-width="0.5" stroke="black" fill="blue"/>
  <circle cx="474.959" cy="566.637" r="5.05167" stroke-width="0.5" stroke="blue" fill="blue"/>
   </g>
   <g id="cell52">
  <circle cx="474.734" cy="581.857" r="8.41271" stroke-width="0.5" stroke="black" fill="Red"/>
  <circle cx="474.734" cy="581.857" r="5.05167" stroke-width="0.5" stroke="Red" fill="Red"/>
   </g>
   <g id="cell53">
  <circle cx="486.967" cy="416.238" r="8.41271" stroke-width="0.5" stroke="black" fill="yellow"/>
  <circle cx="486.967" cy="416.238" r="5.05167" stroke-width="0.5" stroke="yellow" fill="yellow"/>
   </g>
   <g id="cell54">
  <circle cx="487.362" cy="431.215" r="8.41271" stroke-width="0.5" stroke="black" fill="Red"/>
  <circle cx="487.362" cy="431.215" r="5.05167" stroke-width="0.5" stroke="Red" fill="Red"/>
   </g>
   <g id="cell55">
  <circle cx="486.927" cy="446" r="8.41271" stroke-width="0.5" stroke="black" fill="blue"/>
  <circle cx="486.927" cy="446" r="5.05167" stroke-width="0.5" stroke="blue" fill="blue"/>
   </g>
   <g id="cell56">
  <circle cx="485.963" cy="458.653" r="8.41271" stroke-width="0.5" stroke="black" fill="Red"/>
  <circle cx="485.963" cy="458.653" r="5.05167" stroke-width="0.5" stroke="Red" fill="Red"/>
   </g>
   <g id="cell57">
  <circle cx="487.852" cy="471.997" r="8.41271" stroke-width="0.5" stroke="black" fill="Red"/>
  <circle cx="487.852" cy="471.997" r="5.05167" stroke-width="0.5" stroke="Red" fill="Red"/>
   </g>
   <g id="cell58">
  <circle cx="485.554" cy="486.86" r="8.41271" stroke-width="0.5" stroke="black" fill="blue"/>
  <circle cx="485.554" cy="486.86" r="5.05167" stroke-width="0.5" stroke="blue" fill="blue"/>
   </g>
   <g id="cell59">
  <circle cx="484.214" cy="501.708" r="8.41271" stroke-width="0.5" stroke="black" fill="Red"/>
  <circle cx="484.214" cy="501.708" r="5.05167" stroke-width="0.5" stroke="Red" fill="Red"/>
   </g>
   <g id="cell60">
  <circle cx="487.108" cy="517.357" r="8.41271" stroke-width="0.5" stroke="black" fill="Red"/>
  <circle cx="487.108" cy="517.357" r="5.05167" stroke-width="0.5" stroke="Red" fill="Red"/>
   </g>
   <g id="cell61">
  <circle cx="487.192" cy="532.066" r="8.41271" stroke-width="0.5" stroke="black" fill="Red"/>
  <circle cx="487.192" cy="532.066" r="5.05167" stroke-width="0.5" stroke="Red" fill="Red"/>
   </g>
   <g id="cell62">
  <circle cx="486.155" cy="545.049" r="8.41271" stroke-width="0.5" stroke="black" fill="blue"/>
  <circle cx="486.155" cy="545.049" r="5.05167" stroke-width="0.5" stroke="blue" fill="blue"/>
   </g>
   <g id="cell63">
  <circle cx="487.231" cy="559.656" r="8.41271" stroke-width="0.5" stroke="black" fill="Red"/>
  <circle cx="487.231" cy="559.656" r="5.05167" stroke-width="0.5" stroke="Red" fill="Red"/>
   </g>
   <g id="cell64">
  <circle cx="487.974" cy="573.184" r="8.41271" stroke-width="0.5" stroke="black" fill="Red"/>
  <circle cx="487.974" cy="573.184" r="5.05167" stroke-width="0.5" stroke="Red" fill="Red"/>
   </g>
   <g id="cell65">
  <circle cx="488.807" cy="588.205" r="8.41271" stroke-width="0.5" stroke="black" fill="Red"/>
  <circle cx="488.807" cy="588.205" r="5.05167" stroke-width="0.5" stroke="Red" fill="Red"/>
   </g>
   <g id="cell66">
  <circle cx="499.437" cy="409.037" r="8.41271" stroke-width="0.5" stroke="black" fill="blue"/>
  <circle cx="499.437" cy="409.037" r="5.05167" stroke-width="0.5" stroke="blue" fill="blue"/>
   </g>
   <g id="cell67">
  <circle cx="500.75" cy="424.038" r="8.41271" stroke-width="0.5" stroke="black" fill="Red"/>
  <circle cx="500.75" cy="424.038" r="5.05167" stroke-width="0.5" stroke="Red" fill="Red"/>
   </g>
   <g id="cell68">
  <circle cx="501.731" cy="438.714" r="8.41271" stroke-width="0.5" stroke="black" fill="Red"/>
  <circle cx="501.731" cy="438.714" r="5.05167" stroke-width="0.5" stroke="Red" fill="Red"/>
   </g>
   <g id="cell69">
  <circle cx="501.481" cy="452.216" r="8.41271" stroke-width="0.5" stroke="black" fill="Red"/>
  <circle cx="501.481" cy="452.216" r="5.05167" stroke-width="0.5" stroke="Red" fill="Red"/>
   </g>
   <g id="cell70">
  <circle cx="504.142" cy="464.881" r="8.41271" stroke-width="0.5" stroke="black" fill="blue"/>
  <circle cx="504.142" cy="464.881" r="5.05167" stroke-width="0.5" stroke="blue" fill="blue"/>
   </g>
   <g id="cell71">
  <circle cx="500.419" cy="479.271" r="8.41271" stroke-width="0.5" stroke="black" fill="Red"/>
  <circle cx="500.419" cy="479.271" r="5.05167" stroke-width="0.5" stroke="Red" fill="Red"/>
   </g>
   <g id="cell72">
  <circle cx="500.802" cy="494.297" r="8.41271" stroke-width="0.5" stroke="black" fill="Red"/>
  <circle cx="500.802" cy="494.297" r="5.05167" stroke-width="0.5" stroke="Red" fill="Red"/>
   </g>
   <g id="cell73">
  <circle cx="500.313" cy="508.681" r="8.41271" stroke-width="0.5" stroke="black" fill="Red"/>
  <circle cx="500.313" cy="508.681" r="5.05167" stroke-width="0.5" stroke="Red" fill="Red"/>
   </g>
   <g id="cell74">
  <circle cx="500.923" cy="523.466" r="8.41271" stroke-width="0.5" stroke="black" fill="Red"/>
  <circle cx="500.923" cy="523.466" r="5.05167" stroke-width="0.5" stroke="Red" fill="Red"/>
   </g>
   <g id="cell75">
  <circle cx="500.147" cy="539.338" r="8.41271" stroke-width="0.5" stroke="black" fill="Red"/>
  <circle cx="500.147" cy="539.338" r="5.05167" stroke-width="0.5" stroke="Red" fill="Red"/>
   </g>
   <g id="cell76">
  <circle cx="500.229" cy="552.627" r="8.41271" stroke-width="0.5" stroke="black" fill="Red"/>
  <circle cx="500.229" cy="552.627" r="5.05167" stroke-width="0.5" stroke="Red" fill="Red"/>
   </g>
   <g id="cell77">
  <circle cx="501.285" cy="565.847" r="8.41271" stroke-width="0.5" stroke="black" fill="Red"/>
  <circle cx="501.285" cy="565.847" r="5.05167" stroke-width="0.5" stroke="Red" fill="Red"/>
   </g>
   <g id="cell78">
  <circle cx="501.24" cy="580.214" r="8.41271" stroke-width="0.5" stroke="black" fill="Red"/>
  <circle cx="501.24" cy="580.214" r="5.05167" stroke-width="0.5" stroke="Red" fill="Red"/>
   </g>
   <g id="cell79">
  <circle cx="500.303" cy="595.371" r="8.41271" stroke-width="0.5" stroke="black" fill="blue"/>
  <circle cx="500.303" cy="595.371" r="5.05167" stroke-width="0.5" stroke="blue" fill="blue"/>
   </g>
   <g id="cell80">
  <circle cx="513.279" cy="415.423" r="8.41271" stroke-width="0.5" stroke="black" fill="yellow"/>
  <circle cx="513.279" cy="415.423" r="5.05167" stroke-width="0.5" stroke="yellow" fill="yellow"/>
   </g>
   <g id="cell81">
  <circle cx="515.49" cy="429.452" r="8.41271" stroke-width="0.5" stroke="black" fill="Red"/>
  <circle cx="515.49" cy="429.452" r="5.05167" stroke-width="0.5" stroke="Red" fill="Red"/>
   </g>
   <g id="cell82">
  <circle cx="515.753" cy="444.593" r="8.41271" stroke-width="0.5" stroke="black" fill="blue"/>
  <circle cx="515.753" cy="444.593" r="5.05167" stroke-width="0.5" stroke="blue" fill="blue"/>
   </g>
   <g id="cell83">
  <circle cx="519.39" cy="458.631" r="8.41271" stroke-width="0.5" stroke="black" fill="Red"/>
  <circle cx="519.39" cy="458.631" r="5.05167" stroke-width="0.5" stroke="Red" fill="Red"/>
   </g>
   <g id="cell84">
  <circle cx="516.481" cy="473.839" r="8.41271" stroke-width="0.5" stroke="black" fill="Red"/>
  <circle cx="516.481" cy="473.839" r="5.05167" stroke-width="0.5" stroke="Red" fill="Red"/>
   </g>
   <g id="cell85">
  <circle cx="514.881" cy="487.076" r="8.41271" stroke-width="0.5" stroke="black" fill="Red"/>
  <circle cx="514.881" cy="487.076" r="5.05167" stroke-width="0.5" stroke="Red" fill="Red"/>
   </g>
   <g id="cell86">
  <circle cx="514.916" cy="501.682" r="8.41271" stroke-width="0.5" stroke="black" fill="blue"/>
  <circle cx="514.916" cy="501.682" r="5.05167" stroke-width="0.5" stroke="blue" fill="blue"/>
   </g>
   <g id="cell87">
  <circle cx="516.873" cy="517.475" r="8.41271" stroke-width="0.5" stroke="black" fill="Red"/>
  <circle cx="516.873" cy="517.475" r="5.05167" stroke-width="0.5" stroke="Red" fill="Red"/>
   </g>
   <g id="cell88">
  <circle cx="514.23" cy="531.32" r="8.41271" stroke-width="0.5" stroke="black" fill="blue"/>
  <circle cx="514.23" cy="531.32" r="5.05167" stroke-width="0.5" stroke="blue" fill="blue"/>
   </g>
   <g id="cell89">
  <circle cx="514.319" cy="545.611" r="8.41271" stroke-width="0.5" stroke="black" fill="Red"/>
  <circle cx="514.319" cy="545.611" r="5.05167" stroke-width="0.5" stroke="Red" fill="Red"/>
   </g>
   <g id="cell90">
  <circle cx="515.344" cy="559.694" r="8.41271" stroke-width="0.5" stroke="black" fill="blue"/>
  <circle cx="515.344" cy="559.694" r="5.05167" stroke-width="0.5" stroke="blue" fill="blue"/>
   </g>
   <g id="cell91">
  <circle cx="515.218" cy="573.412" r="8.41271" stroke-width="0.5" stroke="black" fill="Red"/>
  <circle cx="515.218" cy="573.412" r="5.05167" stroke-width="0.5" stroke="Red" fill="Red"/>
   </g>
   <g id="cell92">
  <circle cx="513.17" cy="586.993" r="8.41271" stroke-width="0.5" stroke="black" fill="Red"/>
  <circle cx="513.17" cy="586.993" r="5.05167" stroke-width="0.5" stroke="Red" fill="Red"/>
   </g>
   <g id="cell93">
  <circle cx="527.519" cy="412.403" r="8.41271" stroke-width="0.5" stroke="black" fill="blue"/>
  <circle cx="527.519" cy="412.403" r="5.05167" stroke-width="0.5" stroke="blue" fill="blue"/>
   </g>
   <g id="cell94">
  <circle cx="528.338" cy="424.174" r="8.41271" stroke-width="0.5" stroke="black" fill="Red"/>
  <circle cx="528.338" cy="424.174" r="5.05167" stroke-width="0.5" stroke="Red" fill="Red"/>
   </g>
   <g id="cell95">
  <circle cx="528.825" cy="436.969" r="8.41271" stroke-width="0.5" stroke="black" fill="Red"/>
  <circle cx="528.825" cy="436.969" r="5.05167" stroke-width="0.5" stroke="Red" fill="Red"/>
   </g>
   <g id="cell96">
  <circle cx="528.493" cy="448.616" r="6.69288" stroke-width="0.5" stroke="black" fill="Red"/>
  <circle cx="528.493" cy="448.616" r="4.02051" stroke-width="0.5" stroke="Red" fill="Red"/>
   </g>
   <g id="cell97">
  <circle cx="530.185" cy="467.399" r="8.41271" stroke-width="0.5" stroke="black" fill="Red"/>
  <circle cx="530.185" cy="467.399" r="5.05167" stroke-width="0.5" stroke="Red" fill="Red"/>
   </g>
   <g id="cell98">
  <circle cx="529.961" cy="481.168" r="8.41271" stroke-width="0.5" stroke="black" fill="Red"/>
  <circle cx="529.961" cy="481.168" r="5.05167" stroke-width="0.5" stroke="Red" fill="Red"/>
   </g>
   <g id="cell99">
  <circle cx="530.82" cy="495.926" r="8.41271" stroke-width="0.5" stroke="black" fill="Red"/>
  <circle cx="530.82" cy="495.926" r="5.05167" stroke-width="0.5" stroke="Red" fill="Red"/>
   </g>
   <g id="cell100">
  <circle cx="530.34" cy="509.703" r="8.41271" stroke-width="0.5" stroke="black" fill="Red"/>
  <circle cx="530.34" cy="509.703" r="5.05167" stroke-width="0.5" stroke="Red" fill="Red"/>
   </g>
   <g id="cell101">
  <circle cx="529.558" cy="524.828" r="8.41271" stroke-width="0.5" stroke="black" fill="Red"/>
  <circle cx="529.558" cy="524.828" r="5.05167" stroke-width="0.5" stroke="Red" fill="Red"/>
   </g>
   <g id="cell102">
  <circle cx="528.929" cy="539.059" r="8.41271" stroke-width="0.5" stroke="black" fill="Red"/>
  <circle cx="528.929" cy="539.059" r="5.05167" stroke-width="0.5" stroke="Red" fill="Red"/>
   </g>
   <g id="cell103">
  <circle cx="529.078" cy="552.585" r="8.41271" stroke-width="0.5" stroke="black" fill="Red"/>
  <circle cx="529.078" cy="552.585" r="5.05167" stroke-width="0.5" stroke="Red" fill="Red"/>
   </g>
   <g id="cell104">
  <circle cx="529.01" cy="565.873" r="8.41271" stroke-width="0.5" stroke="black" fill="Red"/>
  <circle cx="529.01" cy="565.873" r="5.05167" stroke-width="0.5" stroke="Red" fill="Red"/>
   </g>
   <g id="cell105">
  <circle cx="527.173" cy="579" r="8.41271" stroke-width="0.5" stroke="black" fill="blue"/>
  <circle cx="527.173" cy="579" r="5.05167" stroke-width="0.5" stroke="blue" fill="blue"/>
   </g>
   <g id="cell106">
  <circle cx="540.098" cy="415.845" r="8.41271" stroke-width="0.5" stroke="black" fill="yellow"/>
  <circle cx="540.098" cy="415.845" r="5.05167" stroke-width="0.5" stroke="yellow" fill="yellow"/>
   </g>
   <g id="cell107">
  <circle cx="541.787" cy="431.613" r="8.41271" stroke-width="0.5" stroke="black" fill="yellow"/>
  <circle cx="541.787" cy="431.613" r="5.05167" stroke-width="0.5" stroke="yellow" fill="yellow"/>
   </g>
   <g id="cell108">
  <circle cx="541.758" cy="446.035" r="8.41271" stroke-width="0.5" stroke="black" fill="Red"/>
  <circle cx="541.758" cy="446.035" r="5.05167" stroke-width="0.5" stroke="Red" fill="Red"/>
   </g>
   <g id="cell109">
  <circle cx="544.009" cy="460.319" r="8.41271" stroke-width="0.5" stroke="black" fill="Red"/>
  <circle cx="544.009" cy="460.319" r="5.05167" stroke-width="0.5" stroke="Red" fill="Red"/>
   </g>
   <g id="cell110">
  <circle cx="543.608" cy="473.865" r="8.41271" stroke-width="0.5" stroke="black" fill="blue"/>
  <circle cx="543.608" cy="473.865" r="5.05167" stroke-width="0.5" stroke="blue" fill="blue"/>
   </g>
   <g id="cell111">
  <circle cx="544.518" cy="488.621" r="8.41271" stroke-width="0.5" stroke="black" fill="Red"/>
  <circle cx="544.518" cy="488.621" r="5.05167" stroke-width="0.5" stroke="Red" fill="Red"/>
   </g>
   <g id="cell112">
  <circle cx="544.079" cy="503.148" r="8.41271" stroke-width="0.5" stroke="black" fill="Red"/>
  <circle cx="544.079" cy="503.148" r="5.05167" stroke-width="0.5" stroke="Red" fill="Red"/>
   </g>
   <g id="cell113">
  <circle cx="543.362" cy="518.169" r="8.41271" stroke-width="0.5" stroke="black" fill="Red"/>
  <circle cx="543.362" cy="518.169" r="5.05167" stroke-width="0.5" stroke="Red" fill="Red"/>
   </g>
   <g id="cell114">
  <circle cx="543.527" cy="531.906" r="8.41271" stroke-width="0.5" stroke="black" fill="Red"/>
  <circle cx="543.527" cy="531.906" r="5.05167" stroke-width="0.5" stroke="Red" fill="Red"/>
   </g>
   <g id="cell115">
  <circle cx="544.118" cy="546.585" r="8.41271" stroke-width="0.5" stroke="black" fill="Red"/>
  <circle cx="544.118" cy="546.585" r="5.05167" stroke-width="0.5" stroke="Red" fill="Red"/>
   </g>
   <g id="cell116">
  <circle cx="541.995" cy="559.606" r="8.41271" stroke-width="0.5" stroke="black" fill="Red"/>
  <circle cx="541.995" cy="559.606" r="5.05167" stroke-width="0.5" stroke="Red" fill="Red"/>
   </g>
   <g id="cell117">
  <circle cx="541.144" cy="572.325" r="8.41271" stroke-width="0.5" stroke="black" fill="blue"/>
  <circle cx="541.144" cy="572.325" r="5.05167" stroke-width="0.5" stroke="blue" fill="blue"/>
   </g>
   <g id="cell118">
  <circle cx="552.548" cy="423.952" r="8.41271" stroke-width="0.5" stroke="black" fill="blue"/>
  <circle cx="552.548" cy="423.952" r="5.05167" stroke-width="0.5" stroke="blue" fill="blue"/>
   </g>
   <g id="cell119">
  <circle cx="554.67" cy="438.774" r="8.41271" stroke-width="0.5" stroke="black" fill="yellow"/>
  <circle cx="554.67" cy="438.774" r="5.05167" stroke-width="0.5" stroke="yellow" fill="yellow"/>
   </g>
   <g id="cell120">
  <circle cx="555.73" cy="452.641" r="8.41271" stroke-width="0.5" stroke="black" fill="yellow"/>
  <circle cx="555.73" cy="452.641" r="5.05167" stroke-width="0.5" stroke="yellow" fill="yellow"/>
   </g>
   <g id="cell121">
  <circle cx="557.075" cy="466.467" r="8.41271" stroke-width="0.5" stroke="black" fill="Red"/>
  <circle cx="557.075" cy="466.467" r="5.05167" stroke-width="0.5" stroke="Red" fill="Red"/>
   </g>
   <g id="cell122">
  <circle cx="556.59" cy="481.38" r="8.41271" stroke-width="0.5" stroke="black" fill="Red"/>
  <circle cx="556.59" cy="481.38" r="5.05167" stroke-width="0.5" stroke="Red" fill="Red"/>
   </g>
   <g id="cell123">
  <circle cx="557.199" cy="497.077" r="8.41271" stroke-width="0.5" stroke="black" fill="Red"/>
  <circle cx="557.199" cy="497.077" r="5.05167" stroke-width="0.5" stroke="Red" fill="Red"/>
   </g>
   <g id="cell124">
  <circle cx="558.103" cy="511.094" r="8.41271" stroke-width="0.5" stroke="black" fill="blue"/>
  <circle cx="558.103" cy="511.094" r="5.05167" stroke-width="0.5" stroke="blue" fill="blue"/>
   </g>
   <g id="cell125">
  <circle cx="557.453" cy="525.154" r="8.41271" stroke-width="0.5" stroke="black" fill="Red"/>
  <circle cx="557.453" cy="525.154" r="5.05167" stroke-width="0.5" stroke="Red" fill="Red"/>
   </g>
   <g id="cell126">
  <circle cx="557.25" cy="539.699" r="8.41271" stroke-width="0.5" stroke="black" fill="blue"/>
  <circle cx="557.25" cy="539.699" r="5.05167" stroke-width="0.5" stroke="blue" fill="blue"/>
   </g>
   <g id="cell127">
  <circle cx="558.183" cy="553.006" r="8.41271" stroke-width="0.5" stroke="black" fill="yellow"/>
  <circle cx="558.183" cy="553.006" r="5.05167" stroke-width="0.5" stroke="yellow" fill="yellow"/>
   </g>
   <g id="cell128">
  <circle cx="555.726" cy="566.489" r="8.41271" stroke-width="0.5" stroke="black" fill="Red"/>
  <circle cx="555.726" cy="566.489" r="5.05167" stroke-width="0.5" stroke="Red" fill="Red"/>
   </g>
   <g id="cell129">
  <circle cx="567.32" cy="445.048" r="8.41271" stroke-width="0.5" stroke="black" fill="blue"/>
  <circle cx="567.32" cy="445.048" r="5.05167" stroke-width="0.5" stroke="blue" fill="blue"/>
   </g>
   <g id="cell130">
  <circle cx="570.076" cy="458.981" r="8.41271" stroke-width="0.5" stroke="black" fill="yellow"/>
  <circle cx="570.076" cy="458.981" r="5.05167" stroke-width="0.5" stroke="yellow" fill="yellow"/>
   </g>
   <g id="cell131">
  <circle cx="571.014" cy="474.04" r="8.41271" stroke-width="0.5" stroke="black" fill="yellow"/>
  <circle cx="571.014" cy="474.04" r="5.05167" stroke-width="0.5" stroke="yellow" fill="yellow"/>
   </g>
   <g id="cell132">
  <circle cx="570.103" cy="488.591" r="8.41271" stroke-width="0.5" stroke="black" fill="Red"/>
  <circle cx="570.103" cy="488.591" r="5.05167" stroke-width="0.5" stroke="Red" fill="Red"/>
   </g>
   <g id="cell133">
  <circle cx="571.927" cy="503.2" r="8.41271" stroke-width="0.5" stroke="black" fill="Red"/>
  <circle cx="571.927" cy="503.2" r="5.05167" stroke-width="0.5" stroke="Red" fill="Red"/>
   </g>
   <g id="cell134">
  <circle cx="571.035" cy="517.507" r="8.41271" stroke-width="0.5" stroke="black" fill="Red"/>
  <circle cx="571.035" cy="517.507" r="5.05167" stroke-width="0.5" stroke="Red" fill="Red"/>
   </g>
   <g id="cell135">
  <circle cx="569.934" cy="531.644" r="8.41271" stroke-width="0.5" stroke="black" fill="Red"/>
  <circle cx="569.934" cy="531.644" r="5.05167" stroke-width="0.5" stroke="Red" fill="Red"/>
   </g>
   <g id="cell136">
  <circle cx="570.6" cy="545.43" r="8.41271" stroke-width="0.5" stroke="black" fill="yellow"/>
  <circle cx="570.6" cy="545.43" r="5.05167" stroke-width="0.5" stroke="yellow" fill="yellow"/>
   </g>
   <g id="cell137">
  <circle cx="569.346" cy="559.86" r="8.41271" stroke-width="0.5" stroke="black" fill="blue"/>
  <circle cx="569.346" cy="559.86" r="5.05167" stroke-width="0.5" stroke="blue" fill="blue"/>
   </g>
   <g id="cell138">
  <circle cx="583.491" cy="462.705" r="8.41271" stroke-width="0.5" stroke="black" fill="blue"/>
  <circle cx="583.491" cy="462.705" r="5.05167" stroke-width="0.5" stroke="blue" fill="blue"/>
   </g>
   <g id="cell139">
  <circle cx="584.397" cy="479.652" r="8.41271" stroke-width="0.5" stroke="black" fill="Red"/>
  <circle cx="584.397" cy="479.652" r="5.05167" stroke-width="0.5" stroke="Red" fill="Red"/>
   </g>
   <g id="cell140">
  <circle cx="581.835" cy="492.587" r="6.71158" stroke-width="0.5" stroke="black" fill="blue"/>
  <circle cx="581.835" cy="492.587" r="4.03435" stroke-width="0.5" stroke="blue" fill="blue"/>
   </g>
   <g id="cell141">
  <circle cx="584.468" cy="511.539" r="8.41271" stroke-width="0.5" stroke="black" fill="Red"/>
  <circle cx="584.468" cy="511.539" r="5.05167" stroke-width="0.5" stroke="Red" fill="Red"/>
   </g>
   <g id="cell142">
  <circle cx="582.554" cy="525.327" r="8.41271" stroke-width="0.5" stroke="black" fill="Red"/>
  <circle cx="582.554" cy="525.327" r="5.05167" stroke-width="0.5" stroke="Red" fill="Red"/>
   </g>
   <g id="cell143">
  <circle cx="582.622" cy="538.92" r="8.41271" stroke-width="0.5" stroke="black" fill="blue"/>
  <circle cx="582.622" cy="538.92" r="5.05167" stroke-width="0.5" stroke="blue" fill="blue"/>
   </g>
   <g id="cell144">
  <circle cx="438.198" cy="438.765" r="6.71158" stroke-width="0.5" stroke="black" fill="Red"/>
  <circle cx="438.198" cy="438.765" r="4.03435" stroke-width="0.5" stroke="Red" fill="Red"/>
   </g>
   <g id="cell145">
  <circle cx="588.859" cy="500.851" r="6.71158" stroke-width="0.5" stroke="black" fill="blue"/>
  <circle cx="588.859" cy="500.851" r="4.03435" stroke-width="0.5" stroke="blue" fill="blue"/>
   </g>
   <g id="cell146">
  <circle cx="475.521" cy="511.951" r="6.69288" stroke-width="0.5" stroke="black" fill="blue"/>
  <circle cx="475.521" cy="511.951" r="4.02051" stroke-width="0.5" stroke="blue" fill="blue"/>
   </g>
   <g id="cell147">
  <circle cx="533.043" cy="456.613" r="6.69288" stroke-width="0.5" stroke="black" fill="blue"/>
  <circle cx="533.043" cy="456.613" r="4.02051" stroke-width="0.5" stroke="blue" fill="blue"/>
   </g>
  </g>
 </g>
  <rect x="775" y="1035" width="200" height="10" stroke-width="2" stroke="rgb(255,255,255)" fill="rgb(0,0,0)"/>
  <text x="781.25" y="1028.75"
   font-family="Arial" font-size="25" fill="black" >
   200 &#956;m
  </text>
  <text x="25" y="1045"
   font-family="Arial" font-size="18.75" fill="black" >
   0 days, 0 hours, 0 minutes, and 6.5435 seconds
  </text>
  <rect x="0" y="70" width="1000" height="1000" stroke-width="2" stroke="rgb(0,0,0)" fill="none"/>
</svg>
