<?xml version="1.0" encoding="UTF-8" standalone="no"?>
<!-- Created with PhysiCell (http://PhysiCell.MathCancer.org/) -->
<svg 
 xmlns:dc="http://purl.org/dc/elements/1.1/" 
 xmlns:cc="http://creativecommons.org/ns#" 
 xmlns:rdf="http://www.w3.org/1999/02/22-rdf-syntax-ns#" 
 xmlns:svg="http://www.w3.org/2000/svg" 
 xmlns="http://www.w3.org/2000/svg" 
 version="1.1" 
 width="1000" 
 height="1070" 
 id="svg2">
  <rect x="0" y="0" width="1000" height="1070" stroke-width="2" stroke="white" fill="white"/>
  <text x="12.5" y="30"
   font-family="Arial" font-size="25" fill="black" >
   Current time: 0 days, 5 hours, and 0.00 minutes, z = 0.00 &#956;m
  </text>
  <text x="12.5" y="57.5"
   font-family="Arial" font-size="23.75" fill="black" >
   189 agents
  </text>
 <g id="tissue" 
    transform="translate(0,1070) scale(1,-1)">
  <g id="ECM">
  </g>
  <g id="cells">
   <g id="cell0">
  <circle cx="427.568" cy="446.557" r="8.41271" stroke-width="0.5" stroke="black" fill="yellow"/>
  <circle cx="427.568" cy="446.557" r="5.05167" stroke-width="0.5" stroke="yellow" fill="yellow"/>
   </g>
   <g id="cell1">
  <circle cx="425.613" cy="471.165" r="7.24243" stroke-width="0.5" stroke="black" fill="yellow"/>
  <circle cx="425.613" cy="471.165" r="4.39934" stroke-width="0.5" stroke="yellow" fill="yellow"/>
   </g>
   <g id="cell2">
  <circle cx="430.069" cy="484.799" r="8.41271" stroke-width="0.5" stroke="black" fill="blue"/>
  <circle cx="430.069" cy="484.799" r="5.05167" stroke-width="0.5" stroke="blue" fill="blue"/>
   </g>
   <g id="cell3">
  <circle cx="424.369" cy="497.763" r="7.44242" stroke-width="0.5" stroke="black" fill="Red"/>
  <circle cx="424.369" cy="497.763" r="4.52373" stroke-width="0.5" stroke="Red" fill="Red"/>
   </g>
   <g id="cell4">
  <circle cx="429.158" cy="508.504" r="8.41271" stroke-width="0.5" stroke="black" fill="Red"/>
  <circle cx="429.158" cy="508.504" r="5.05167" stroke-width="0.5" stroke="Red" fill="Red"/>
   </g>
   <g id="cell5">
  <circle cx="416.271" cy="529.139" r="7.3599" stroke-width="0.5" stroke="black" fill="blue"/>
  <circle cx="416.271" cy="529.139" r="4.47294" stroke-width="0.5" stroke="blue" fill="blue"/>
   </g>
   <g id="cell6">
  <circle cx="425.555" cy="540.09" r="8.41271" stroke-width="0.5" stroke="black" fill="yellow"/>
  <circle cx="425.555" cy="540.09" r="5.05167" stroke-width="0.5" stroke="yellow" fill="yellow"/>
   </g>
   <g id="cell7">
  <circle cx="441.724" cy="446.749" r="7.86286" stroke-width="0.5" stroke="black" fill="Red"/>
  <circle cx="441.724" cy="446.749" r="4.77207" stroke-width="0.5" stroke="Red" fill="Red"/>
   </g>
   <g id="cell8">
  <circle cx="434.806" cy="460.793" r="8.41271" stroke-width="0.5" stroke="black" fill="yellow"/>
  <circle cx="434.806" cy="460.793" r="5.05167" stroke-width="0.5" stroke="yellow" fill="yellow"/>
   </g>
   <g id="cell9">
  <circle cx="439.335" cy="473.568" r="8.41271" stroke-width="0.5" stroke="black" fill="Red"/>
  <circle cx="439.335" cy="473.568" r="5.05167" stroke-width="0.5" stroke="Red" fill="Red"/>
   </g>
   <g id="cell10">
  <circle cx="443.051" cy="486.154" r="8.41271" stroke-width="0.5" stroke="black" fill="Red"/>
  <circle cx="443.051" cy="486.154" r="5.05167" stroke-width="0.5" stroke="Red" fill="Red"/>
   </g>
   <g id="cell11">
  <circle cx="440.171" cy="504.43" r="8.41271" stroke-width="0.5" stroke="black" fill="Red"/>
  <circle cx="440.171" cy="504.43" r="5.05167" stroke-width="0.5" stroke="Red" fill="Red"/>
   </g>
   <g id="cell12">
  <circle cx="434.997" cy="520.094" r="7.70049" stroke-width="0.5" stroke="black" fill="Red"/>
  <circle cx="434.997" cy="520.094" r="4.67828" stroke-width="0.5" stroke="Red" fill="Red"/>
   </g>
   <g id="cell13">
  <circle cx="438.575" cy="532.939" r="8.41271" stroke-width="0.5" stroke="black" fill="Red"/>
  <circle cx="438.575" cy="532.939" r="5.05167" stroke-width="0.5" stroke="Red" fill="Red"/>
   </g>
   <g id="cell14">
  <circle cx="437.847" cy="547.929" r="8.41271" stroke-width="0.5" stroke="black" fill="yellow"/>
  <circle cx="437.847" cy="547.929" r="5.05167" stroke-width="0.5" stroke="yellow" fill="yellow"/>
   </g>
   <g id="cell15">
  <circle cx="439.601" cy="563.874" r="8.41271" stroke-width="0.5" stroke="black" fill="blue"/>
  <circle cx="439.601" cy="563.874" r="5.05167" stroke-width="0.5" stroke="blue" fill="blue"/>
   </g>
   <g id="cell16">
  <circle cx="452.328" cy="426.78" r="7.21782" stroke-width="0.5" stroke="black" fill="Red"/>
  <circle cx="452.328" cy="426.78" r="4.42127" stroke-width="0.5" stroke="Red" fill="Red"/>
   </g>
   <g id="cell17">
  <circle cx="452.002" cy="438.831" r="6.89675" stroke-width="0.5" stroke="black" fill="Red"/>
  <circle cx="452.002" cy="438.831" r="4.17024" stroke-width="0.5" stroke="Red" fill="Red"/>
   </g>
   <g id="cell18">
  <circle cx="448.019" cy="459.278" r="8.41271" stroke-width="0.5" stroke="black" fill="blue"/>
  <circle cx="448.019" cy="459.278" r="5.05167" stroke-width="0.5" stroke="blue" fill="blue"/>
   </g>
   <g id="cell19">
  <circle cx="452.341" cy="470.474" r="8.41271" stroke-width="0.5" stroke="black" fill="blue"/>
  <circle cx="452.341" cy="470.474" r="5.05167" stroke-width="0.5" stroke="blue" fill="blue"/>
   </g>
   <g id="cell20">
  <circle cx="455.037" cy="482.26" r="8.41271" stroke-width="0.5" stroke="black" fill="Red"/>
  <circle cx="455.037" cy="482.26" r="5.05167" stroke-width="0.5" stroke="Red" fill="Red"/>
   </g>
   <g id="cell21">
  <circle cx="449.034" cy="496.999" r="8.41271" stroke-width="0.5" stroke="black" fill="Red"/>
  <circle cx="449.034" cy="496.999" r="5.05167" stroke-width="0.5" stroke="Red" fill="Red"/>
   </g>
   <g id="cell22">
  <circle cx="454.228" cy="508.136" r="8.41271" stroke-width="0.5" stroke="black" fill="Red"/>
  <circle cx="454.228" cy="508.136" r="5.05167" stroke-width="0.5" stroke="Red" fill="Red"/>
   </g>
   <g id="cell23">
  <circle cx="448.258" cy="524.191" r="8.41271" stroke-width="0.5" stroke="black" fill="Red"/>
  <circle cx="448.258" cy="524.191" r="5.05167" stroke-width="0.5" stroke="Red" fill="Red"/>
   </g>
   <g id="cell24">
  <circle cx="451.153" cy="540.221" r="8.41271" stroke-width="0.5" stroke="black" fill="Red"/>
  <circle cx="451.153" cy="540.221" r="5.05167" stroke-width="0.5" stroke="Red" fill="Red"/>
   </g>
   <g id="cell25">
  <circle cx="450.301" cy="554.585" r="8.41271" stroke-width="0.5" stroke="black" fill="yellow"/>
  <circle cx="450.301" cy="554.585" r="5.05167" stroke-width="0.5" stroke="yellow" fill="yellow"/>
   </g>
   <g id="cell26">
  <circle cx="452.78" cy="569.596" r="8.41271" stroke-width="0.5" stroke="black" fill="Red"/>
  <circle cx="452.78" cy="569.596" r="5.05167" stroke-width="0.5" stroke="Red" fill="Red"/>
   </g>
   <g id="cell27">
  <circle cx="463.863" cy="410.61" r="8.41271" stroke-width="0.5" stroke="black" fill="yellow"/>
  <circle cx="463.863" cy="410.61" r="5.05167" stroke-width="0.5" stroke="yellow" fill="yellow"/>
   </g>
   <g id="cell28">
  <circle cx="466.033" cy="423.874" r="8.41271" stroke-width="0.5" stroke="black" fill="Red"/>
  <circle cx="466.033" cy="423.874" r="5.05167" stroke-width="0.5" stroke="Red" fill="Red"/>
   </g>
   <g id="cell29">
  <circle cx="456.25" cy="449.171" r="7.38797" stroke-width="0.5" stroke="black" fill="Red"/>
  <circle cx="456.25" cy="449.171" r="4.49029" stroke-width="0.5" stroke="Red" fill="Red"/>
   </g>
   <g id="cell30">
  <circle cx="460.96" cy="459.5" r="8.41271" stroke-width="0.5" stroke="black" fill="Red"/>
  <circle cx="460.96" cy="459.5" r="5.05167" stroke-width="0.5" stroke="Red" fill="Red"/>
   </g>
   <g id="cell31">
  <circle cx="464.208" cy="470.915" r="8.41271" stroke-width="0.5" stroke="black" fill="Red"/>
  <circle cx="464.208" cy="470.915" r="5.05167" stroke-width="0.5" stroke="Red" fill="Red"/>
   </g>
   <g id="cell32">
  <circle cx="467.794" cy="481.936" r="8.41271" stroke-width="0.5" stroke="black" fill="Red"/>
  <circle cx="467.794" cy="481.936" r="5.05167" stroke-width="0.5" stroke="Red" fill="Red"/>
   </g>
   <g id="cell33">
  <circle cx="461.124" cy="494.861" r="8.41271" stroke-width="0.5" stroke="black" fill="blue"/>
  <circle cx="461.124" cy="494.861" r="5.05167" stroke-width="0.5" stroke="blue" fill="blue"/>
   </g>
   <g id="cell34">
  <circle cx="461.169" cy="519.708" r="8.41271" stroke-width="0.5" stroke="black" fill="Red"/>
  <circle cx="461.169" cy="519.708" r="5.05167" stroke-width="0.5" stroke="Red" fill="Red"/>
   </g>
   <g id="cell35">
  <circle cx="464.177" cy="536.597" r="6.89675" stroke-width="0.5" stroke="black" fill="blue"/>
  <circle cx="464.177" cy="536.597" r="4.17024" stroke-width="0.5" stroke="blue" fill="blue"/>
   </g>
   <g id="cell36">
  <circle cx="462.705" cy="547.382" r="8.41271" stroke-width="0.5" stroke="black" fill="Red"/>
  <circle cx="462.705" cy="547.382" r="5.05167" stroke-width="0.5" stroke="Red" fill="Red"/>
   </g>
   <g id="cell37">
  <circle cx="463.743" cy="559.898" r="8.41271" stroke-width="0.5" stroke="black" fill="Red"/>
  <circle cx="463.743" cy="559.898" r="5.05167" stroke-width="0.5" stroke="Red" fill="Red"/>
   </g>
   <g id="cell38">
  <circle cx="466.781" cy="574.266" r="8.41271" stroke-width="0.5" stroke="black" fill="yellow"/>
  <circle cx="466.781" cy="574.266" r="5.05167" stroke-width="0.5" stroke="yellow" fill="yellow"/>
   </g>
   <g id="cell39">
  <circle cx="466.162" cy="587.461" r="7.18097" stroke-width="0.5" stroke="black" fill="blue"/>
  <circle cx="466.162" cy="587.461" r="4.36015" stroke-width="0.5" stroke="blue" fill="blue"/>
   </g>
   <g id="cell40">
  <circle cx="475.358" cy="403.673" r="8.41271" stroke-width="0.5" stroke="black" fill="blue"/>
  <circle cx="475.358" cy="403.673" r="5.05167" stroke-width="0.5" stroke="blue" fill="blue"/>
   </g>
   <g id="cell41">
  <circle cx="477.352" cy="417.592" r="8.41271" stroke-width="0.5" stroke="black" fill="Red"/>
  <circle cx="477.352" cy="417.592" r="5.05167" stroke-width="0.5" stroke="Red" fill="Red"/>
   </g>
   <g id="cell42">
  <circle cx="477.449" cy="443.165" r="6.75639" stroke-width="0.5" stroke="black" fill="Red"/>
  <circle cx="477.449" cy="443.165" r="4.06813" stroke-width="0.5" stroke="Red" fill="Red"/>
   </g>
   <g id="cell43">
  <circle cx="471.276" cy="453.571" r="8.41271" stroke-width="0.5" stroke="black" fill="Red"/>
  <circle cx="471.276" cy="453.571" r="5.05167" stroke-width="0.5" stroke="Red" fill="Red"/>
   </g>
   <g id="cell44">
  <circle cx="474.766" cy="466.429" r="8.41271" stroke-width="0.5" stroke="black" fill="blue"/>
  <circle cx="474.766" cy="466.429" r="5.05167" stroke-width="0.5" stroke="blue" fill="blue"/>
   </g>
   <g id="cell45">
  <circle cx="479.342" cy="478.778" r="8.41271" stroke-width="0.5" stroke="black" fill="Red"/>
  <circle cx="479.342" cy="478.778" r="5.05167" stroke-width="0.5" stroke="Red" fill="Red"/>
   </g>
   <g id="cell46">
  <circle cx="474.117" cy="493.868" r="8.41271" stroke-width="0.5" stroke="black" fill="Red"/>
  <circle cx="474.117" cy="493.868" r="5.05167" stroke-width="0.5" stroke="Red" fill="Red"/>
   </g>
   <g id="cell47">
  <circle cx="466.635" cy="507.504" r="7.84675" stroke-width="0.5" stroke="black" fill="Red"/>
  <circle cx="466.635" cy="507.504" r="4.7629" stroke-width="0.5" stroke="Red" fill="Red"/>
   </g>
   <g id="cell48">
  <circle cx="482.91" cy="519.857" r="7.56839" stroke-width="0.5" stroke="black" fill="blue"/>
  <circle cx="482.91" cy="519.857" r="4.59998" stroke-width="0.5" stroke="blue" fill="blue"/>
   </g>
   <g id="cell49">
  <circle cx="475.509" cy="541.39" r="8.41271" stroke-width="0.5" stroke="black" fill="Red"/>
  <circle cx="475.509" cy="541.39" r="5.05167" stroke-width="0.5" stroke="Red" fill="Red"/>
   </g>
   <g id="cell50">
  <circle cx="482.066" cy="554.812" r="6.80881" stroke-width="0.5" stroke="black" fill="blue"/>
  <circle cx="482.066" cy="554.812" r="4.10709" stroke-width="0.5" stroke="blue" fill="blue"/>
   </g>
   <g id="cell51">
  <circle cx="476.127" cy="565.811" r="8.41271" stroke-width="0.5" stroke="black" fill="Red"/>
  <circle cx="476.127" cy="565.811" r="5.05167" stroke-width="0.5" stroke="Red" fill="Red"/>
   </g>
   <g id="cell52">
  <circle cx="478.666" cy="584.393" r="8.41271" stroke-width="0.5" stroke="black" fill="Red"/>
  <circle cx="478.666" cy="584.393" r="5.05167" stroke-width="0.5" stroke="Red" fill="Red"/>
   </g>
   <g id="cell53">
  <circle cx="489.963" cy="406.913" r="8.41271" stroke-width="0.5" stroke="black" fill="yellow"/>
  <circle cx="489.963" cy="406.913" r="5.05167" stroke-width="0.5" stroke="yellow" fill="yellow"/>
   </g>
   <g id="cell54">
  <circle cx="483.002" cy="430.96" r="8.41271" stroke-width="0.5" stroke="black" fill="Red"/>
  <circle cx="483.002" cy="430.96" r="5.05167" stroke-width="0.5" stroke="Red" fill="Red"/>
   </g>
   <g id="cell55">
  <circle cx="486.206" cy="447.084" r="7.38797" stroke-width="0.5" stroke="black" fill="Red"/>
  <circle cx="486.206" cy="447.084" r="4.49029" stroke-width="0.5" stroke="Red" fill="Red"/>
   </g>
   <g id="cell56">
  <circle cx="494.513" cy="459.077" r="7.65871" stroke-width="0.5" stroke="black" fill="blue"/>
  <circle cx="494.513" cy="459.077" r="4.6537" stroke-width="0.5" stroke="blue" fill="blue"/>
   </g>
   <g id="cell57">
  <circle cx="488.502" cy="469.395" r="8.41271" stroke-width="0.5" stroke="black" fill="Red"/>
  <circle cx="488.502" cy="469.395" r="5.05167" stroke-width="0.5" stroke="Red" fill="Red"/>
   </g>
   <g id="cell58">
  <circle cx="486.025" cy="488.675" r="8.41271" stroke-width="0.5" stroke="black" fill="Red"/>
  <circle cx="486.025" cy="488.675" r="5.05167" stroke-width="0.5" stroke="Red" fill="Red"/>
   </g>
   <g id="cell59">
  <circle cx="484.864" cy="499.175" r="6.83713" stroke-width="0.5" stroke="black" fill="Red"/>
  <circle cx="484.864" cy="499.175" r="4.12773" stroke-width="0.5" stroke="Red" fill="Red"/>
   </g>
   <g id="cell60">
  <circle cx="489.176" cy="511.399" r="8.41271" stroke-width="0.5" stroke="black" fill="Red"/>
  <circle cx="489.176" cy="511.399" r="5.05167" stroke-width="0.5" stroke="Red" fill="Red"/>
   </g>
   <g id="cell61">
  <circle cx="485.249" cy="530.78" r="8.41271" stroke-width="0.5" stroke="black" fill="Red"/>
  <circle cx="485.249" cy="530.78" r="5.05167" stroke-width="0.5" stroke="Red" fill="Red"/>
   </g>
   <g id="cell62">
  <circle cx="487.875" cy="544.328" r="8.41271" stroke-width="0.5" stroke="black" fill="Red"/>
  <circle cx="487.875" cy="544.328" r="5.05167" stroke-width="0.5" stroke="Red" fill="Red"/>
   </g>
   <g id="cell63">
  <circle cx="489.341" cy="561.3" r="8.41271" stroke-width="0.5" stroke="black" fill="Red"/>
  <circle cx="489.341" cy="561.3" r="5.05167" stroke-width="0.5" stroke="Red" fill="Red"/>
   </g>
   <g id="cell64">
  <circle cx="486.424" cy="574.742" r="8.41271" stroke-width="0.5" stroke="black" fill="blue"/>
  <circle cx="486.424" cy="574.742" r="5.05167" stroke-width="0.5" stroke="blue" fill="blue"/>
   </g>
   <g id="cell65">
  <circle cx="487.574" cy="594.235" r="6.69288" stroke-width="0.5" stroke="black" fill="Red"/>
  <circle cx="487.574" cy="594.235" r="4.02051" stroke-width="0.5" stroke="Red" fill="Red"/>
   </g>
   <g id="cell66">
  <circle cx="503.348" cy="413.237" r="8.41271" stroke-width="0.5" stroke="black" fill="blue"/>
  <circle cx="503.348" cy="413.237" r="5.05167" stroke-width="0.5" stroke="blue" fill="blue"/>
   </g>
   <g id="cell67">
  <circle cx="491.873" cy="420.107" r="8.41271" stroke-width="0.5" stroke="black" fill="Red"/>
  <circle cx="491.873" cy="420.107" r="5.05167" stroke-width="0.5" stroke="Red" fill="Red"/>
   </g>
   <g id="cell68">
  <circle cx="501.283" cy="428.935" r="8.41271" stroke-width="0.5" stroke="black" fill="Red"/>
  <circle cx="501.283" cy="428.935" r="5.05167" stroke-width="0.5" stroke="Red" fill="Red"/>
   </g>
   <g id="cell69">
  <circle cx="497.73" cy="447.723" r="8.41271" stroke-width="0.5" stroke="black" fill="Red"/>
  <circle cx="497.73" cy="447.723" r="5.05167" stroke-width="0.5" stroke="Red" fill="Red"/>
   </g>
   <g id="cell70">
  <circle cx="502.307" cy="466.482" r="8.41271" stroke-width="0.5" stroke="black" fill="blue"/>
  <circle cx="502.307" cy="466.482" r="5.05167" stroke-width="0.5" stroke="blue" fill="blue"/>
   </g>
   <g id="cell71">
  <circle cx="494.849" cy="478.388" r="8.41271" stroke-width="0.5" stroke="black" fill="Red"/>
  <circle cx="494.849" cy="478.388" r="5.05167" stroke-width="0.5" stroke="Red" fill="Red"/>
   </g>
   <g id="cell72">
  <circle cx="499.216" cy="491.901" r="8.41271" stroke-width="0.5" stroke="black" fill="Red"/>
  <circle cx="499.216" cy="491.901" r="5.05167" stroke-width="0.5" stroke="Red" fill="Red"/>
   </g>
   <g id="cell73">
  <circle cx="502.302" cy="509.74" r="8.41271" stroke-width="0.5" stroke="black" fill="Red"/>
  <circle cx="502.302" cy="509.74" r="5.05167" stroke-width="0.5" stroke="Red" fill="Red"/>
   </g>
   <g id="cell74">
  <circle cx="497.072" cy="523.792" r="8.41271" stroke-width="0.5" stroke="black" fill="Red"/>
  <circle cx="497.072" cy="523.792" r="5.05167" stroke-width="0.5" stroke="Red" fill="Red"/>
   </g>
   <g id="cell75">
  <circle cx="498.368" cy="536.449" r="8.41271" stroke-width="0.5" stroke="black" fill="Red"/>
  <circle cx="498.368" cy="536.449" r="5.05167" stroke-width="0.5" stroke="Red" fill="Red"/>
   </g>
   <g id="cell76">
  <circle cx="496.341" cy="551.955" r="8.41271" stroke-width="0.5" stroke="black" fill="Red"/>
  <circle cx="496.341" cy="551.955" r="5.05167" stroke-width="0.5" stroke="Red" fill="Red"/>
   </g>
   <g id="cell77">
  <circle cx="498.4" cy="569.348" r="7.54436" stroke-width="0.5" stroke="black" fill="Red"/>
  <circle cx="498.4" cy="569.348" r="4.58555" stroke-width="0.5" stroke="Red" fill="Red"/>
   </g>
   <g id="cell78">
  <circle cx="502.187" cy="579.83" r="8.41271" stroke-width="0.5" stroke="black" fill="Red"/>
  <circle cx="502.187" cy="579.83" r="5.05167" stroke-width="0.5" stroke="Red" fill="Red"/>
   </g>
   <g id="cell79">
  <circle cx="500.659" cy="592.921" r="8.41271" stroke-width="0.5" stroke="black" fill="blue"/>
  <circle cx="500.659" cy="592.921" r="5.05167" stroke-width="0.5" stroke="blue" fill="blue"/>
   </g>
   <g id="cell80">
  <circle cx="517.822" cy="411.126" r="7.02257" stroke-width="0.5" stroke="black" fill="yellow"/>
  <circle cx="517.822" cy="411.126" r="4.25644" stroke-width="0.5" stroke="yellow" fill="yellow"/>
   </g>
   <g id="cell81">
  <circle cx="515.167" cy="433.182" r="8.41271" stroke-width="0.5" stroke="black" fill="Red"/>
  <circle cx="515.167" cy="433.182" r="5.05167" stroke-width="0.5" stroke="Red" fill="Red"/>
   </g>
   <g id="cell82">
  <circle cx="510.733" cy="444.731" r="6.73287" stroke-width="0.5" stroke="black" fill="Red"/>
  <circle cx="510.733" cy="444.731" r="4.05039" stroke-width="0.5" stroke="Red" fill="Red"/>
   </g>
   <g id="cell83">
  <circle cx="508.222" cy="455.118" r="8.41271" stroke-width="0.5" stroke="black" fill="Red"/>
  <circle cx="508.222" cy="455.118" r="5.05167" stroke-width="0.5" stroke="Red" fill="Red"/>
   </g>
   <g id="cell84">
  <circle cx="516.204" cy="467.682" r="8.41271" stroke-width="0.5" stroke="black" fill="Red"/>
  <circle cx="516.204" cy="467.682" r="5.05167" stroke-width="0.5" stroke="Red" fill="Red"/>
   </g>
   <g id="cell85">
  <circle cx="507.137" cy="476.612" r="8.41271" stroke-width="0.5" stroke="black" fill="Red"/>
  <circle cx="507.137" cy="476.612" r="5.05167" stroke-width="0.5" stroke="Red" fill="Red"/>
   </g>
   <g id="cell86">
  <circle cx="511.605" cy="498.522" r="8.41271" stroke-width="0.5" stroke="black" fill="Red"/>
  <circle cx="511.605" cy="498.522" r="5.05167" stroke-width="0.5" stroke="Red" fill="Red"/>
   </g>
   <g id="cell87">
  <circle cx="514.618" cy="509.646" r="7.61469" stroke-width="0.5" stroke="black" fill="Red"/>
  <circle cx="514.618" cy="509.646" r="4.62762" stroke-width="0.5" stroke="Red" fill="Red"/>
   </g>
   <g id="cell88">
  <circle cx="509.967" cy="531.969" r="8.41271" stroke-width="0.5" stroke="black" fill="Red"/>
  <circle cx="509.967" cy="531.969" r="5.05167" stroke-width="0.5" stroke="Red" fill="Red"/>
   </g>
   <g id="cell89">
  <circle cx="505.867" cy="544.844" r="8.41271" stroke-width="0.5" stroke="black" fill="Red"/>
  <circle cx="505.867" cy="544.844" r="5.05167" stroke-width="0.5" stroke="Red" fill="Red"/>
   </g>
   <g id="cell90">
  <circle cx="514.437" cy="554.943" r="8.41271" stroke-width="0.5" stroke="black" fill="Red"/>
  <circle cx="514.437" cy="554.943" r="5.05167" stroke-width="0.5" stroke="Red" fill="Red"/>
   </g>
   <g id="cell91">
  <circle cx="512.82" cy="568.502" r="8.41271" stroke-width="0.5" stroke="black" fill="Red"/>
  <circle cx="512.82" cy="568.502" r="5.05167" stroke-width="0.5" stroke="Red" fill="Red"/>
   </g>
   <g id="cell92">
  <circle cx="513.504" cy="586.207" r="8.41271" stroke-width="0.5" stroke="black" fill="Red"/>
  <circle cx="513.504" cy="586.207" r="5.05167" stroke-width="0.5" stroke="Red" fill="Red"/>
   </g>
   <g id="cell93">
  <circle cx="531.879" cy="412.498" r="8.41271" stroke-width="0.5" stroke="black" fill="blue"/>
  <circle cx="531.879" cy="412.498" r="5.05167" stroke-width="0.5" stroke="blue" fill="blue"/>
   </g>
   <g id="cell94">
  <circle cx="537.589" cy="422.907" r="7.63698" stroke-width="0.5" stroke="black" fill="Red"/>
  <circle cx="537.589" cy="422.907" r="4.64085" stroke-width="0.5" stroke="Red" fill="Red"/>
   </g>
   <g id="cell95">
  <circle cx="529.055" cy="433.815" r="8.41271" stroke-width="0.5" stroke="black" fill="Red"/>
  <circle cx="529.055" cy="433.815" r="5.05167" stroke-width="0.5" stroke="Red" fill="Red"/>
   </g>
   <g id="cell96">
  <circle cx="521.814" cy="445.123" r="7.02791" stroke-width="0.5" stroke="black" fill="blue"/>
  <circle cx="521.814" cy="445.123" r="4.30579" stroke-width="0.5" stroke="blue" fill="blue"/>
   </g>
   <g id="cell97">
  <circle cx="527.725" cy="460.565" r="8.41271" stroke-width="0.5" stroke="black" fill="Red"/>
  <circle cx="527.725" cy="460.565" r="5.05167" stroke-width="0.5" stroke="Red" fill="Red"/>
   </g>
   <g id="cell98">
  <circle cx="520.035" cy="491.52" r="6.58635" stroke-width="0.5" stroke="black" fill="blue"/>
  <circle cx="520.035" cy="491.52" r="4.0416" stroke-width="0.5" stroke="blue" fill="blue"/>
   </g>
   <g id="cell99">
  <circle cx="528.386" cy="498.067" r="8.41271" stroke-width="0.5" stroke="black" fill="Red"/>
  <circle cx="528.386" cy="498.067" r="5.05167" stroke-width="0.5" stroke="Red" fill="Red"/>
   </g>
   <g id="cell100">
  <circle cx="523.468" cy="505.964" r="6.89675" stroke-width="0.5" stroke="black" fill="blue"/>
  <circle cx="523.468" cy="505.964" r="4.17024" stroke-width="0.5" stroke="blue" fill="blue"/>
   </g>
   <g id="cell101">
  <circle cx="521.207" cy="527.607" r="8.41271" stroke-width="0.5" stroke="black" fill="Red"/>
  <circle cx="521.207" cy="527.607" r="5.05167" stroke-width="0.5" stroke="Red" fill="Red"/>
   </g>
   <g id="cell102">
  <circle cx="531.112" cy="537.259" r="7.79564" stroke-width="0.5" stroke="black" fill="Red"/>
  <circle cx="531.112" cy="537.259" r="4.73359" stroke-width="0.5" stroke="Red" fill="Red"/>
   </g>
   <g id="cell103">
  <circle cx="528.414" cy="550.288" r="8.41271" stroke-width="0.5" stroke="black" fill="Red"/>
  <circle cx="528.414" cy="550.288" r="5.05167" stroke-width="0.5" stroke="Red" fill="Red"/>
   </g>
   <g id="cell104">
  <circle cx="525.943" cy="564.163" r="8.41271" stroke-width="0.5" stroke="black" fill="Red"/>
  <circle cx="525.943" cy="564.163" r="5.05167" stroke-width="0.5" stroke="Red" fill="Red"/>
   </g>
   <g id="cell105">
  <circle cx="524.257" cy="579.208" r="8.41271" stroke-width="0.5" stroke="black" fill="blue"/>
  <circle cx="524.257" cy="579.208" r="5.05167" stroke-width="0.5" stroke="blue" fill="blue"/>
   </g>
   <g id="cell106">
  <circle cx="544.643" cy="412.886" r="6.92764" stroke-width="0.5" stroke="black" fill="yellow"/>
  <circle cx="544.643" cy="412.886" r="4.1918" stroke-width="0.5" stroke="yellow" fill="yellow"/>
   </g>
   <g id="cell107">
  <circle cx="541.717" cy="436.146" r="8.41271" stroke-width="0.5" stroke="black" fill="Red"/>
  <circle cx="541.717" cy="436.146" r="5.05167" stroke-width="0.5" stroke="Red" fill="Red"/>
   </g>
   <g id="cell108">
  <circle cx="532.777" cy="447.283" r="8.41271" stroke-width="0.5" stroke="black" fill="Red"/>
  <circle cx="532.777" cy="447.283" r="5.05167" stroke-width="0.5" stroke="Red" fill="Red"/>
   </g>
   <g id="cell109">
  <circle cx="547.688" cy="467.336" r="8.41271" stroke-width="0.5" stroke="black" fill="Red"/>
  <circle cx="547.688" cy="467.336" r="5.05167" stroke-width="0.5" stroke="Red" fill="Red"/>
   </g>
   <g id="cell110">
  <circle cx="528.33" cy="483.6" r="8.41271" stroke-width="0.5" stroke="black" fill="Red"/>
  <circle cx="528.33" cy="483.6" r="5.05167" stroke-width="0.5" stroke="Red" fill="Red"/>
   </g>
   <g id="cell111">
  <circle cx="537.607" cy="490.464" r="8.41271" stroke-width="0.5" stroke="black" fill="Red"/>
  <circle cx="537.607" cy="490.464" r="5.05167" stroke-width="0.5" stroke="Red" fill="Red"/>
   </g>
   <g id="cell112">
  <circle cx="539.575" cy="505.178" r="8.41271" stroke-width="0.5" stroke="black" fill="Red"/>
  <circle cx="539.575" cy="505.178" r="5.05167" stroke-width="0.5" stroke="Red" fill="Red"/>
   </g>
   <g id="cell113">
  <circle cx="530.876" cy="513.642" r="8.41271" stroke-width="0.5" stroke="black" fill="Red"/>
  <circle cx="530.876" cy="513.642" r="5.05167" stroke-width="0.5" stroke="Red" fill="Red"/>
   </g>
   <g id="cell114">
  <circle cx="533.558" cy="524.565" r="8.41271" stroke-width="0.5" stroke="black" fill="Red"/>
  <circle cx="533.558" cy="524.565" r="5.05167" stroke-width="0.5" stroke="Red" fill="Red"/>
   </g>
   <g id="cell115">
  <circle cx="541.439" cy="542.927" r="8.41271" stroke-width="0.5" stroke="black" fill="blue"/>
  <circle cx="541.439" cy="542.927" r="5.05167" stroke-width="0.5" stroke="blue" fill="blue"/>
   </g>
   <g id="cell116">
  <circle cx="539.55" cy="557.538" r="8.41271" stroke-width="0.5" stroke="black" fill="Red"/>
  <circle cx="539.55" cy="557.538" r="5.05167" stroke-width="0.5" stroke="Red" fill="Red"/>
   </g>
   <g id="cell117">
  <circle cx="538.424" cy="571.652" r="8.41271" stroke-width="0.5" stroke="black" fill="Red"/>
  <circle cx="538.424" cy="571.652" r="5.05167" stroke-width="0.5" stroke="Red" fill="Red"/>
   </g>
   <g id="cell118">
  <circle cx="551.442" cy="424.725" r="8.41271" stroke-width="0.5" stroke="black" fill="yellow"/>
  <circle cx="551.442" cy="424.725" r="5.05167" stroke-width="0.5" stroke="yellow" fill="yellow"/>
   </g>
   <g id="cell119">
  <circle cx="555.38" cy="440.634" r="8.41271" stroke-width="0.5" stroke="black" fill="yellow"/>
  <circle cx="555.38" cy="440.634" r="5.05167" stroke-width="0.5" stroke="yellow" fill="yellow"/>
   </g>
   <g id="cell120">
  <circle cx="553.632" cy="457.168" r="7.61469" stroke-width="0.5" stroke="black" fill="Red"/>
  <circle cx="553.632" cy="457.168" r="4.62762" stroke-width="0.5" stroke="Red" fill="Red"/>
   </g>
   <g id="cell121">
  <circle cx="558.158" cy="473.416" r="8.41271" stroke-width="0.5" stroke="black" fill="Red"/>
  <circle cx="558.158" cy="473.416" r="5.05167" stroke-width="0.5" stroke="Red" fill="Red"/>
   </g>
   <g id="cell122">
  <circle cx="546.503" cy="481.142" r="8.41271" stroke-width="0.5" stroke="black" fill="Red"/>
  <circle cx="546.503" cy="481.142" r="5.05167" stroke-width="0.5" stroke="Red" fill="Red"/>
   </g>
   <g id="cell123">
  <circle cx="548.885" cy="495.31" r="8.41271" stroke-width="0.5" stroke="black" fill="Red"/>
  <circle cx="548.885" cy="495.31" r="5.05167" stroke-width="0.5" stroke="Red" fill="Red"/>
   </g>
   <g id="cell124">
  <circle cx="553.166" cy="509.496" r="8.41271" stroke-width="0.5" stroke="black" fill="Red"/>
  <circle cx="553.166" cy="509.496" r="5.05167" stroke-width="0.5" stroke="Red" fill="Red"/>
   </g>
   <g id="cell125">
  <circle cx="544.134" cy="517.211" r="7.63698" stroke-width="0.5" stroke="black" fill="blue"/>
  <circle cx="544.134" cy="517.211" r="4.64085" stroke-width="0.5" stroke="blue" fill="blue"/>
   </g>
   <g id="cell126">
  <circle cx="545.189" cy="531.456" r="8.41271" stroke-width="0.5" stroke="black" fill="Red"/>
  <circle cx="545.189" cy="531.456" r="5.05167" stroke-width="0.5" stroke="Red" fill="Red"/>
   </g>
   <g id="cell127">
  <circle cx="550.99" cy="549.551" r="8.41271" stroke-width="0.5" stroke="black" fill="Red"/>
  <circle cx="550.99" cy="549.551" r="5.05167" stroke-width="0.5" stroke="Red" fill="Red"/>
   </g>
   <g id="cell128">
  <circle cx="553.298" cy="563.29" r="8.41271" stroke-width="0.5" stroke="black" fill="blue"/>
  <circle cx="553.298" cy="563.29" r="5.05167" stroke-width="0.5" stroke="blue" fill="blue"/>
   </g>
   <g id="cell129">
  <circle cx="574.871" cy="454.817" r="7.59183" stroke-width="0.5" stroke="black" fill="Red"/>
  <circle cx="574.871" cy="454.817" r="4.61399" stroke-width="0.5" stroke="Red" fill="Red"/>
   </g>
   <g id="cell130">
  <circle cx="563.905" cy="462.416" r="8.41271" stroke-width="0.5" stroke="black" fill="Red"/>
  <circle cx="563.905" cy="462.416" r="5.05167" stroke-width="0.5" stroke="Red" fill="Red"/>
   </g>
   <g id="cell131">
  <circle cx="568.472" cy="478.345" r="8.41271" stroke-width="0.5" stroke="black" fill="Red"/>
  <circle cx="568.472" cy="478.345" r="5.05167" stroke-width="0.5" stroke="Red" fill="Red"/>
   </g>
   <g id="cell132">
  <circle cx="559.893" cy="487.973" r="8.41271" stroke-width="0.5" stroke="black" fill="Red"/>
  <circle cx="559.893" cy="487.973" r="5.05167" stroke-width="0.5" stroke="Red" fill="Red"/>
   </g>
   <g id="cell133">
  <circle cx="563.143" cy="499.977" r="8.41271" stroke-width="0.5" stroke="black" fill="blue"/>
  <circle cx="563.143" cy="499.977" r="5.05167" stroke-width="0.5" stroke="blue" fill="blue"/>
   </g>
   <g id="cell134">
  <circle cx="565.841" cy="514.776" r="8.41271" stroke-width="0.5" stroke="black" fill="Red"/>
  <circle cx="565.841" cy="514.776" r="5.05167" stroke-width="0.5" stroke="Red" fill="Red"/>
   </g>
   <g id="cell135">
  <circle cx="569.515" cy="527.973" r="8.41271" stroke-width="0.5" stroke="black" fill="Red"/>
  <circle cx="569.515" cy="527.973" r="5.05167" stroke-width="0.5" stroke="Red" fill="Red"/>
   </g>
   <g id="cell136">
  <circle cx="557.87" cy="537.361" r="8.41271" stroke-width="0.5" stroke="black" fill="Red"/>
  <circle cx="557.87" cy="537.361" r="5.05167" stroke-width="0.5" stroke="Red" fill="Red"/>
   </g>
   <g id="cell137">
  <circle cx="567.466" cy="558.377" r="6.67717" stroke-width="0.5" stroke="black" fill="Red"/>
  <circle cx="567.466" cy="558.377" r="4.00951" stroke-width="0.5" stroke="Red" fill="Red"/>
   </g>
   <g id="cell138">
  <circle cx="574.672" cy="468.239" r="8.41271" stroke-width="0.5" stroke="black" fill="blue"/>
  <circle cx="574.672" cy="468.239" r="5.05167" stroke-width="0.5" stroke="blue" fill="blue"/>
   </g>
   <g id="cell139">
  <circle cx="582.672" cy="479.946" r="8.41271" stroke-width="0.5" stroke="black" fill="Red"/>
  <circle cx="582.672" cy="479.946" r="5.05167" stroke-width="0.5" stroke="Red" fill="Red"/>
   </g>
   <g id="cell140">
  <circle cx="572.463" cy="491.066" r="7.86286" stroke-width="0.5" stroke="black" fill="Red"/>
  <circle cx="572.463" cy="491.066" r="4.77207" stroke-width="0.5" stroke="Red" fill="Red"/>
   </g>
   <g id="cell141">
  <circle cx="576.343" cy="504.835" r="8.41271" stroke-width="0.5" stroke="black" fill="yellow"/>
  <circle cx="576.343" cy="504.835" r="5.05167" stroke-width="0.5" stroke="yellow" fill="yellow"/>
   </g>
   <g id="cell142">
  <circle cx="578.855" cy="518.825" r="7.44242" stroke-width="0.5" stroke="black" fill="blue"/>
  <circle cx="578.855" cy="518.825" r="4.52373" stroke-width="0.5" stroke="blue" fill="blue"/>
   </g>
   <g id="cell143">
  <circle cx="571.426" cy="540.978" r="8.41271" stroke-width="0.5" stroke="black" fill="blue"/>
  <circle cx="571.426" cy="540.978" r="5.05167" stroke-width="0.5" stroke="blue" fill="blue"/>
   </g>
   <g id="cell144">
  <circle cx="431.298" cy="433.879" r="6.63192" stroke-width="0.5" stroke="black" fill="blue"/>
  <circle cx="431.298" cy="433.879" r="4.05701" stroke-width="0.5" stroke="blue" fill="blue"/>
   </g>
   <g id="cell145">
  <circle cx="585.623" cy="492.484" r="7.86286" stroke-width="0.5" stroke="black" fill="blue"/>
  <circle cx="585.623" cy="492.484" r="4.77207" stroke-width="0.5" stroke="blue" fill="blue"/>
   </g>
   <g id="cell146">
  <circle cx="477.732" cy="507.442" r="7.08801" stroke-width="0.5" stroke="black" fill="blue"/>
  <circle cx="477.732" cy="507.442" r="4.3422" stroke-width="0.5" stroke="blue" fill="blue"/>
   </g>
   <g id="cell147">
  <circle cx="539.468" cy="459.246" r="7.47473" stroke-width="0.5" stroke="black" fill="Red"/>
  <circle cx="539.468" cy="459.246" r="4.56983" stroke-width="0.5" stroke="Red" fill="Red"/>
   </g>
   <g id="cell148">
  <circle cx="518.942" cy="541.328" r="7.79564" stroke-width="0.5" stroke="black" fill="blue"/>
  <circle cx="518.942" cy="541.328" r="4.73359" stroke-width="0.5" stroke="blue" fill="blue"/>
   </g>
   <g id="cell149">
  <circle cx="536.059" cy="472.664" r="7.47473" stroke-width="0.5" stroke="black" fill="blue"/>
  <circle cx="536.059" cy="472.664" r="4.56983" stroke-width="0.5" stroke="blue" fill="blue"/>
   </g>
   <g id="cell150">
  <circle cx="444.05" cy="513.902" r="7.70049" stroke-width="0.5" stroke="black" fill="blue"/>
  <circle cx="444.05" cy="513.902" r="4.67828" stroke-width="0.5" stroke="blue" fill="blue"/>
   </g>
   <g id="cell151">
  <circle cx="450.916" cy="414.363" r="7.70049" stroke-width="0.5" stroke="black" fill="blue"/>
  <circle cx="450.916" cy="414.363" r="4.67828" stroke-width="0.5" stroke="blue" fill="blue"/>
   </g>
   <g id="cell152">
  <circle cx="483.924" cy="457.197" r="7.65871" stroke-width="0.5" stroke="black" fill="blue"/>
  <circle cx="483.924" cy="457.197" r="4.6537" stroke-width="0.5" stroke="blue" fill="blue"/>
   </g>
   <g id="cell153">
  <circle cx="523.345" cy="421.675" r="7.63698" stroke-width="0.5" stroke="black" fill="yellow"/>
  <circle cx="523.345" cy="421.675" r="4.64085" stroke-width="0.5" stroke="yellow" fill="yellow"/>
   </g>
   <g id="cell154">
  <circle cx="555.468" cy="523.188" r="7.63698" stroke-width="0.5" stroke="black" fill="blue"/>
  <circle cx="555.468" cy="523.188" r="4.64085" stroke-width="0.5" stroke="blue" fill="blue"/>
   </g>
   <g id="cell155">
  <circle cx="441.326" cy="423.046" r="7.21782" stroke-width="0.5" stroke="black" fill="yellow"/>
  <circle cx="441.326" cy="423.046" r="4.42127" stroke-width="0.5" stroke="yellow" fill="yellow"/>
   </g>
   <g id="cell156">
  <circle cx="508.477" cy="519.869" r="7.61469" stroke-width="0.5" stroke="black" fill="blue"/>
  <circle cx="508.477" cy="519.869" r="4.62762" stroke-width="0.5" stroke="blue" fill="blue"/>
   </g>
   <g id="cell157">
  <circle cx="544.728" cy="448.826" r="7.61469" stroke-width="0.5" stroke="black" fill="blue"/>
  <circle cx="544.728" cy="448.826" r="4.62762" stroke-width="0.5" stroke="blue" fill="blue"/>
   </g>
   <g id="cell158">
  <circle cx="559.044" cy="450.02" r="5.26189" stroke-width="0.5" stroke="black" fill="yellow"/>
  <circle cx="559.044" cy="450.02" r="3.22739" stroke-width="0.5" stroke="yellow" fill="yellow"/>
   </g>
   <g id="cell159">
  <circle cx="472.385" cy="528.079" r="7.56839" stroke-width="0.5" stroke="black" fill="Red"/>
  <circle cx="472.385" cy="528.079" r="4.59998" stroke-width="0.5" stroke="Red" fill="Red"/>
   </g>
   <g id="cell160">
  <circle cx="504.271" cy="558.89" r="7.54436" stroke-width="0.5" stroke="black" fill="blue"/>
  <circle cx="504.271" cy="558.89" r="4.58555" stroke-width="0.5" stroke="blue" fill="blue"/>
   </g>
   <g id="cell161">
  <circle cx="517.866" cy="479.099" r="6.47349" stroke-width="0.5" stroke="black" fill="Red"/>
  <circle cx="517.866" cy="479.099" r="3.97085" stroke-width="0.5" stroke="Red" fill="Red"/>
   </g>
   <g id="cell162">
  <circle cx="582.012" cy="531.868" r="7.44242" stroke-width="0.5" stroke="black" fill="Red"/>
  <circle cx="582.012" cy="531.868" r="4.52373" stroke-width="0.5" stroke="Red" fill="Red"/>
   </g>
   <g id="cell163">
  <circle cx="473.582" cy="516.838" r="7.08801" stroke-width="0.5" stroke="black" fill="Red"/>
  <circle cx="473.582" cy="516.838" r="4.3422" stroke-width="0.5" stroke="Red" fill="Red"/>
   </g>
   <g id="cell164">
  <circle cx="435.121" cy="495.444" r="7.44242" stroke-width="0.5" stroke="black" fill="Red"/>
  <circle cx="435.121" cy="495.444" r="4.52373" stroke-width="0.5" stroke="Red" fill="Red"/>
   </g>
   <g id="cell165">
  <circle cx="465.563" cy="443.816" r="7.38797" stroke-width="0.5" stroke="black" fill="blue"/>
  <circle cx="465.563" cy="443.816" r="4.49029" stroke-width="0.5" stroke="blue" fill="blue"/>
   </g>
   <g id="cell166">
  <circle cx="492.239" cy="436.921" r="7.38797" stroke-width="0.5" stroke="black" fill="blue"/>
  <circle cx="492.239" cy="436.921" r="4.49029" stroke-width="0.5" stroke="blue" fill="blue"/>
   </g>
   <g id="cell167">
  <circle cx="518.841" cy="454.708" r="7.02791" stroke-width="0.5" stroke="black" fill="Red"/>
  <circle cx="518.841" cy="454.708" r="4.30579" stroke-width="0.5" stroke="Red" fill="Red"/>
   </g>
   <g id="cell168">
  <circle cx="427.612" cy="527.635" r="6.47869" stroke-width="0.5" stroke="black" fill="Red"/>
  <circle cx="427.612" cy="527.635" r="3.97583" stroke-width="0.5" stroke="Red" fill="Red"/>
   </g>
   <g id="cell169">
  <circle cx="422.149" cy="458.89" r="7.24243" stroke-width="0.5" stroke="black" fill="blue"/>
  <circle cx="422.149" cy="458.89" r="4.39934" stroke-width="0.5" stroke="blue" fill="blue"/>
   </g>
   <g id="cell170">
  <circle cx="513.609" cy="486.871" r="5.22759" stroke-width="0.5" stroke="black" fill="Red"/>
  <circle cx="513.609" cy="486.871" r="3.20782" stroke-width="0.5" stroke="Red" fill="Red"/>
   </g>
   <g id="cell171">
  <circle cx="455.555" cy="582.282" r="7.18097" stroke-width="0.5" stroke="black" fill="Red"/>
  <circle cx="455.555" cy="582.282" r="4.36015" stroke-width="0.5" stroke="Red" fill="Red"/>
   </g>
   <g id="cell172">
  <circle cx="568.909" cy="441.345" r="6.62957" stroke-width="0.5" stroke="black" fill="blue"/>
  <circle cx="568.909" cy="441.345" r="4.06626" stroke-width="0.5" stroke="blue" fill="blue"/>
   </g>
   <g id="cell173">
  <circle cx="422.122" cy="519.356" r="6.47869" stroke-width="0.5" stroke="black" fill="Red"/>
  <circle cx="422.122" cy="519.356" r="3.97583" stroke-width="0.5" stroke="Red" fill="Red"/>
   </g>
   <g id="cell174">
  <circle cx="525.852" cy="472.705" r="6.47349" stroke-width="0.5" stroke="black" fill="blue"/>
  <circle cx="525.852" cy="472.705" r="3.97085" stroke-width="0.5" stroke="blue" fill="blue"/>
   </g>
   <g id="cell175">
  <circle cx="511.301" cy="420.836" r="7.02257" stroke-width="0.5" stroke="black" fill="Red"/>
  <circle cx="511.301" cy="420.836" r="4.25644" stroke-width="0.5" stroke="Red" fill="Red"/>
   </g>
   <g id="cell176">
  <circle cx="441.888" cy="434.103" r="6.63192" stroke-width="0.5" stroke="black" fill="yellow"/>
  <circle cx="441.888" cy="434.103" r="4.05701" stroke-width="0.5" stroke="yellow" fill="yellow"/>
   </g>
   <g id="cell177">
  <circle cx="556.655" cy="413.48" r="6.92764" stroke-width="0.5" stroke="black" fill="blue"/>
  <circle cx="556.655" cy="413.48" r="4.1918" stroke-width="0.5" stroke="blue" fill="blue"/>
   </g>
   <g id="cell178">
  <circle cx="520.694" cy="518.122" r="6.89675" stroke-width="0.5" stroke="black" fill="Red"/>
  <circle cx="520.694" cy="518.122" r="4.17024" stroke-width="0.5" stroke="Red" fill="Red"/>
   </g>
   <g id="cell179">
  <circle cx="457.592" cy="529.653" r="6.89675" stroke-width="0.5" stroke="black" fill="blue"/>
  <circle cx="457.592" cy="529.653" r="4.17024" stroke-width="0.5" stroke="blue" fill="blue"/>
   </g>
   <g id="cell180">
  <circle cx="460.478" cy="435.136" r="6.89675" stroke-width="0.5" stroke="black" fill="Red"/>
  <circle cx="460.478" cy="435.136" r="4.17024" stroke-width="0.5" stroke="Red" fill="Red"/>
   </g>
   <g id="cell181">
  <circle cx="495.251" cy="502.153" r="6.83713" stroke-width="0.5" stroke="black" fill="blue"/>
  <circle cx="495.251" cy="502.153" r="4.12773" stroke-width="0.5" stroke="blue" fill="blue"/>
   </g>
   <g id="cell182">
  <circle cx="473.178" cy="553.444" r="6.80881" stroke-width="0.5" stroke="black" fill="Red"/>
  <circle cx="473.178" cy="553.444" r="4.10709" stroke-width="0.5" stroke="Red" fill="Red"/>
   </g>
   <g id="cell183">
  <circle cx="471.308" cy="433.697" r="6.75639" stroke-width="0.5" stroke="black" fill="Red"/>
  <circle cx="471.308" cy="433.697" r="4.06813" stroke-width="0.5" stroke="Red" fill="Red"/>
   </g>
   <g id="cell184">
  <circle cx="503.59" cy="438.746" r="6.73287" stroke-width="0.5" stroke="black" fill="Red"/>
  <circle cx="503.59" cy="438.746" r="4.05039" stroke-width="0.5" stroke="Red" fill="Red"/>
   </g>
   <g id="cell185">
  <circle cx="491.78" cy="584.335" r="6.69288" stroke-width="0.5" stroke="black" fill="Red"/>
  <circle cx="491.78" cy="584.335" r="4.02051" stroke-width="0.5" stroke="Red" fill="Red"/>
   </g>
   <g id="cell186">
  <circle cx="506.448" cy="486.156" r="5.22759" stroke-width="0.5" stroke="black" fill="blue"/>
  <circle cx="506.448" cy="486.156" r="3.20782" stroke-width="0.5" stroke="blue" fill="blue"/>
   </g>
   <g id="cell187">
  <circle cx="566.137" cy="449.417" r="5.26189" stroke-width="0.5" stroke="black" fill="yellow"/>
  <circle cx="566.137" cy="449.417" r="3.22739" stroke-width="0.5" stroke="yellow" fill="yellow"/>
   </g>
   <g id="cell188">
  <circle cx="561.948" cy="550.265" r="6.67717" stroke-width="0.5" stroke="black" fill="Red"/>
  <circle cx="561.948" cy="550.265" r="4.00951" stroke-width="0.5" stroke="Red" fill="Red"/>
   </g>
  </g>
 </g>
  <rect x="775" y="1035" width="200" height="10" stroke-width="2" stroke="rgb(255,255,255)" fill="rgb(0,0,0)"/>
  <text x="781.25" y="1028.75"
   font-family="Arial" font-size="25" fill="black" >
   200 &#956;m
  </text>
  <text x="25" y="1045"
   font-family="Arial" font-size="18.75" fill="black" >
   0 days, 0 hours, 1 minutes, and 50.2123 seconds
  </text>
  <rect x="0" y="70" width="1000" height="1000" stroke-width="2" stroke="rgb(0,0,0)" fill="none"/>
</svg>
