<?xml version="1.0" encoding="UTF-8" standalone="no"?>
<!-- Created with PhysiCell (http://PhysiCell.MathCancer.org/) -->
<svg 
 xmlns:dc="http://purl.org/dc/elements/1.1/" 
 xmlns:cc="http://creativecommons.org/ns#" 
 xmlns:rdf="http://www.w3.org/1999/02/22-rdf-syntax-ns#" 
 xmlns:svg="http://www.w3.org/2000/svg" 
 xmlns="http://www.w3.org/2000/svg" 
 version="1.1" 
 width="1000" 
 height="1070" 
 id="svg2">
  <rect x="0" y="0" width="1000" height="1070" stroke-width="2" stroke="white" fill="white"/>
  <text x="12.5" y="30"
   font-family="Arial" font-size="25" fill="black" >
   Current time: 0 days, 5 hours, and 15.00 minutes, z = 0.00 &#956;m
  </text>
  <text x="12.5" y="57.5"
   font-family="Arial" font-size="23.75" fill="black" >
   190 agents
  </text>
 <g id="tissue" 
    transform="translate(0,1070) scale(1,-1)">
  <g id="ECM">
  </g>
  <g id="cells">
   <g id="cell0">
  <circle cx="427.294" cy="447.188" r="8.41271" stroke-width="0.5" stroke="black" fill="yellow"/>
  <circle cx="427.294" cy="447.188" r="5.05167" stroke-width="0.5" stroke="yellow" fill="yellow"/>
   </g>
   <g id="cell1">
  <circle cx="426.269" cy="470.793" r="7.33129" stroke-width="0.5" stroke="black" fill="Red"/>
  <circle cx="426.269" cy="470.793" r="4.45516" stroke-width="0.5" stroke="Red" fill="Red"/>
   </g>
   <g id="cell2">
  <circle cx="426.699" cy="483.502" r="8.41271" stroke-width="0.5" stroke="black" fill="blue"/>
  <circle cx="426.699" cy="483.502" r="5.05167" stroke-width="0.5" stroke="blue" fill="blue"/>
   </g>
   <g id="cell3">
  <circle cx="423.105" cy="497.08" r="7.51976" stroke-width="0.5" stroke="black" fill="Red"/>
  <circle cx="423.105" cy="497.08" r="4.57072" stroke-width="0.5" stroke="Red" fill="Red"/>
   </g>
   <g id="cell4">
  <circle cx="427.44" cy="509.569" r="8.41271" stroke-width="0.5" stroke="black" fill="Red"/>
  <circle cx="427.44" cy="509.569" r="5.05167" stroke-width="0.5" stroke="Red" fill="Red"/>
   </g>
   <g id="cell5">
  <circle cx="415.92" cy="529.039" r="7.44242" stroke-width="0.5" stroke="black" fill="blue"/>
  <circle cx="415.92" cy="529.039" r="4.52373" stroke-width="0.5" stroke="blue" fill="blue"/>
   </g>
   <g id="cell6">
  <circle cx="424.988" cy="539.17" r="8.41271" stroke-width="0.5" stroke="black" fill="Red"/>
  <circle cx="424.988" cy="539.17" r="5.05167" stroke-width="0.5" stroke="Red" fill="Red"/>
   </g>
   <g id="cell7">
  <circle cx="441.825" cy="446.781" r="7.90853" stroke-width="0.5" stroke="black" fill="yellow"/>
  <circle cx="441.825" cy="446.781" r="4.79791" stroke-width="0.5" stroke="yellow" fill="yellow"/>
   </g>
   <g id="cell8">
  <circle cx="434.416" cy="460.018" r="8.41271" stroke-width="0.5" stroke="black" fill="yellow"/>
  <circle cx="434.416" cy="460.018" r="5.05167" stroke-width="0.5" stroke="yellow" fill="yellow"/>
   </g>
   <g id="cell9">
  <circle cx="438.938" cy="473.419" r="8.41271" stroke-width="0.5" stroke="black" fill="Red"/>
  <circle cx="438.938" cy="473.419" r="5.05167" stroke-width="0.5" stroke="Red" fill="Red"/>
   </g>
   <g id="cell10">
  <circle cx="441.361" cy="485.637" r="8.41271" stroke-width="0.5" stroke="black" fill="Red"/>
  <circle cx="441.361" cy="485.637" r="5.05167" stroke-width="0.5" stroke="Red" fill="Red"/>
   </g>
   <g id="cell11">
  <circle cx="437.799" cy="503.798" r="8.41271" stroke-width="0.5" stroke="black" fill="Red"/>
  <circle cx="437.799" cy="503.798" r="5.05167" stroke-width="0.5" stroke="Red" fill="Red"/>
   </g>
   <g id="cell12">
  <circle cx="434.38" cy="519.236" r="7.75912" stroke-width="0.5" stroke="black" fill="Red"/>
  <circle cx="434.38" cy="519.236" r="4.71248" stroke-width="0.5" stroke="Red" fill="Red"/>
   </g>
   <g id="cell13">
  <circle cx="438.889" cy="532.997" r="8.41271" stroke-width="0.5" stroke="black" fill="Red"/>
  <circle cx="438.889" cy="532.997" r="5.05167" stroke-width="0.5" stroke="Red" fill="Red"/>
   </g>
   <g id="cell14">
  <circle cx="439.189" cy="547.403" r="8.41271" stroke-width="0.5" stroke="black" fill="yellow"/>
  <circle cx="439.189" cy="547.403" r="5.05167" stroke-width="0.5" stroke="yellow" fill="yellow"/>
   </g>
   <g id="cell15">
  <circle cx="440.404" cy="562.209" r="8.41271" stroke-width="0.5" stroke="black" fill="blue"/>
  <circle cx="440.404" cy="562.209" r="5.05167" stroke-width="0.5" stroke="blue" fill="blue"/>
   </g>
   <g id="cell16">
  <circle cx="451.888" cy="427.746" r="7.32163" stroke-width="0.5" stroke="black" fill="Red"/>
  <circle cx="451.888" cy="427.746" r="4.48174" stroke-width="0.5" stroke="Red" fill="Red"/>
   </g>
   <g id="cell17">
  <circle cx="451.007" cy="438.654" r="6.99069" stroke-width="0.5" stroke="black" fill="Red"/>
  <circle cx="451.007" cy="438.654" r="4.23498" stroke-width="0.5" stroke="Red" fill="Red"/>
   </g>
   <g id="cell18">
  <circle cx="447.455" cy="459.172" r="8.41271" stroke-width="0.5" stroke="black" fill="blue"/>
  <circle cx="447.455" cy="459.172" r="5.05167" stroke-width="0.5" stroke="blue" fill="blue"/>
   </g>
   <g id="cell19">
  <circle cx="450.526" cy="470.114" r="8.41271" stroke-width="0.5" stroke="black" fill="Red"/>
  <circle cx="450.526" cy="470.114" r="5.05167" stroke-width="0.5" stroke="Red" fill="Red"/>
   </g>
   <g id="cell20">
  <circle cx="453.236" cy="481.962" r="8.41271" stroke-width="0.5" stroke="black" fill="Red"/>
  <circle cx="453.236" cy="481.962" r="5.05167" stroke-width="0.5" stroke="Red" fill="Red"/>
   </g>
   <g id="cell21">
  <circle cx="446.722" cy="495.61" r="8.41271" stroke-width="0.5" stroke="black" fill="Red"/>
  <circle cx="446.722" cy="495.61" r="5.05167" stroke-width="0.5" stroke="Red" fill="Red"/>
   </g>
   <g id="cell22">
  <circle cx="454.21" cy="506.11" r="8.41271" stroke-width="0.5" stroke="black" fill="Red"/>
  <circle cx="454.21" cy="506.11" r="5.05167" stroke-width="0.5" stroke="Red" fill="Red"/>
   </g>
   <g id="cell23">
  <circle cx="445.275" cy="522.957" r="8.41271" stroke-width="0.5" stroke="black" fill="Red"/>
  <circle cx="445.275" cy="522.957" r="5.05167" stroke-width="0.5" stroke="Red" fill="Red"/>
   </g>
   <g id="cell24">
  <circle cx="450.639" cy="539.042" r="8.41271" stroke-width="0.5" stroke="black" fill="blue"/>
  <circle cx="450.639" cy="539.042" r="5.05167" stroke-width="0.5" stroke="blue" fill="blue"/>
   </g>
   <g id="cell25">
  <circle cx="451.026" cy="553.52" r="8.41271" stroke-width="0.5" stroke="black" fill="Red"/>
  <circle cx="451.026" cy="553.52" r="5.05167" stroke-width="0.5" stroke="Red" fill="Red"/>
   </g>
   <g id="cell26">
  <circle cx="452.927" cy="569.087" r="8.41271" stroke-width="0.5" stroke="black" fill="yellow"/>
  <circle cx="452.927" cy="569.087" r="5.05167" stroke-width="0.5" stroke="yellow" fill="yellow"/>
   </g>
   <g id="cell27">
  <circle cx="463.771" cy="408.764" r="8.41271" stroke-width="0.5" stroke="black" fill="Red"/>
  <circle cx="463.771" cy="408.764" r="5.05167" stroke-width="0.5" stroke="Red" fill="Red"/>
   </g>
   <g id="cell28">
  <circle cx="465.82" cy="423.245" r="8.41271" stroke-width="0.5" stroke="black" fill="Red"/>
  <circle cx="465.82" cy="423.245" r="5.05167" stroke-width="0.5" stroke="Red" fill="Red"/>
   </g>
   <g id="cell29">
  <circle cx="455.805" cy="448.604" r="7.46878" stroke-width="0.5" stroke="black" fill="Red"/>
  <circle cx="455.805" cy="448.604" r="4.53982" stroke-width="0.5" stroke="Red" fill="Red"/>
   </g>
   <g id="cell30">
  <circle cx="460.781" cy="458.786" r="8.41271" stroke-width="0.5" stroke="black" fill="Red"/>
  <circle cx="460.781" cy="458.786" r="5.05167" stroke-width="0.5" stroke="Red" fill="Red"/>
   </g>
   <g id="cell31">
  <circle cx="462.656" cy="470.623" r="8.41271" stroke-width="0.5" stroke="black" fill="Red"/>
  <circle cx="462.656" cy="470.623" r="5.05167" stroke-width="0.5" stroke="Red" fill="Red"/>
   </g>
   <g id="cell32">
  <circle cx="467.209" cy="482.278" r="8.41271" stroke-width="0.5" stroke="black" fill="Red"/>
  <circle cx="467.209" cy="482.278" r="5.05167" stroke-width="0.5" stroke="Red" fill="Red"/>
   </g>
   <g id="cell33">
  <circle cx="458.606" cy="494.538" r="8.41271" stroke-width="0.5" stroke="black" fill="blue"/>
  <circle cx="458.606" cy="494.538" r="5.05167" stroke-width="0.5" stroke="blue" fill="blue"/>
   </g>
   <g id="cell34">
  <circle cx="457.581" cy="517.37" r="6.71158" stroke-width="0.5" stroke="black" fill="Red"/>
  <circle cx="457.581" cy="517.37" r="4.03435" stroke-width="0.5" stroke="Red" fill="Red"/>
   </g>
   <g id="cell35">
  <circle cx="463.686" cy="535.602" r="6.99069" stroke-width="0.5" stroke="black" fill="blue"/>
  <circle cx="463.686" cy="535.602" r="4.23498" stroke-width="0.5" stroke="blue" fill="blue"/>
   </g>
   <g id="cell36">
  <circle cx="462.891" cy="547.865" r="8.41271" stroke-width="0.5" stroke="black" fill="Red"/>
  <circle cx="462.891" cy="547.865" r="5.05167" stroke-width="0.5" stroke="Red" fill="Red"/>
   </g>
   <g id="cell37">
  <circle cx="464.12" cy="560.456" r="8.41271" stroke-width="0.5" stroke="black" fill="blue"/>
  <circle cx="464.12" cy="560.456" r="5.05167" stroke-width="0.5" stroke="blue" fill="blue"/>
   </g>
   <g id="cell38">
  <circle cx="466.364" cy="574.989" r="8.41271" stroke-width="0.5" stroke="black" fill="yellow"/>
  <circle cx="466.364" cy="574.989" r="5.05167" stroke-width="0.5" stroke="yellow" fill="yellow"/>
   </g>
   <g id="cell39">
  <circle cx="466.182" cy="588.436" r="7.27253" stroke-width="0.5" stroke="black" fill="blue"/>
  <circle cx="466.182" cy="588.436" r="4.41835" stroke-width="0.5" stroke="blue" fill="blue"/>
   </g>
   <g id="cell40">
  <circle cx="476.032" cy="402.013" r="8.41271" stroke-width="0.5" stroke="black" fill="blue"/>
  <circle cx="476.032" cy="402.013" r="5.05167" stroke-width="0.5" stroke="blue" fill="blue"/>
   </g>
   <g id="cell41">
  <circle cx="477.482" cy="416.043" r="8.41271" stroke-width="0.5" stroke="black" fill="yellow"/>
  <circle cx="477.482" cy="416.043" r="5.05167" stroke-width="0.5" stroke="yellow" fill="yellow"/>
   </g>
   <g id="cell42">
  <circle cx="478.097" cy="441.64" r="6.83713" stroke-width="0.5" stroke="black" fill="Red"/>
  <circle cx="478.097" cy="441.64" r="4.12773" stroke-width="0.5" stroke="Red" fill="Red"/>
   </g>
   <g id="cell43">
  <circle cx="472.462" cy="454.119" r="8.41271" stroke-width="0.5" stroke="black" fill="Red"/>
  <circle cx="472.462" cy="454.119" r="5.05167" stroke-width="0.5" stroke="Red" fill="Red"/>
   </g>
   <g id="cell44">
  <circle cx="474.402" cy="466.275" r="8.41271" stroke-width="0.5" stroke="black" fill="blue"/>
  <circle cx="474.402" cy="466.275" r="5.05167" stroke-width="0.5" stroke="blue" fill="blue"/>
   </g>
   <g id="cell45">
  <circle cx="478.578" cy="477.573" r="8.41271" stroke-width="0.5" stroke="black" fill="blue"/>
  <circle cx="478.578" cy="477.573" r="5.05167" stroke-width="0.5" stroke="blue" fill="blue"/>
   </g>
   <g id="cell46">
  <circle cx="473.033" cy="494.002" r="8.41271" stroke-width="0.5" stroke="black" fill="Red"/>
  <circle cx="473.033" cy="494.002" r="5.05167" stroke-width="0.5" stroke="Red" fill="Red"/>
   </g>
   <g id="cell47">
  <circle cx="466.112" cy="506.828" r="7.89373" stroke-width="0.5" stroke="black" fill="Red"/>
  <circle cx="466.112" cy="506.828" r="4.78957" stroke-width="0.5" stroke="Red" fill="Red"/>
   </g>
   <g id="cell48">
  <circle cx="482.093" cy="520.281" r="7.63698" stroke-width="0.5" stroke="black" fill="Red"/>
  <circle cx="482.093" cy="520.281" r="4.64085" stroke-width="0.5" stroke="Red" fill="Red"/>
   </g>
   <g id="cell49">
  <circle cx="474.378" cy="541.259" r="8.41271" stroke-width="0.5" stroke="black" fill="Red"/>
  <circle cx="474.378" cy="541.259" r="5.05167" stroke-width="0.5" stroke="Red" fill="Red"/>
   </g>
   <g id="cell50">
  <circle cx="482.742" cy="555.526" r="6.89675" stroke-width="0.5" stroke="black" fill="blue"/>
  <circle cx="482.742" cy="555.526" r="4.17024" stroke-width="0.5" stroke="blue" fill="blue"/>
   </g>
   <g id="cell51">
  <circle cx="475.916" cy="567.046" r="8.41271" stroke-width="0.5" stroke="black" fill="Red"/>
  <circle cx="475.916" cy="567.046" r="5.05167" stroke-width="0.5" stroke="Red" fill="Red"/>
   </g>
   <g id="cell52">
  <circle cx="478.586" cy="583.819" r="8.41271" stroke-width="0.5" stroke="black" fill="yellow"/>
  <circle cx="478.586" cy="583.819" r="5.05167" stroke-width="0.5" stroke="yellow" fill="yellow"/>
   </g>
   <g id="cell53">
  <circle cx="489.352" cy="406.029" r="8.41271" stroke-width="0.5" stroke="black" fill="yellow"/>
  <circle cx="489.352" cy="406.029" r="5.05167" stroke-width="0.5" stroke="yellow" fill="yellow"/>
   </g>
   <g id="cell54">
  <circle cx="482.808" cy="429.539" r="8.41271" stroke-width="0.5" stroke="black" fill="Red"/>
  <circle cx="482.808" cy="429.539" r="5.05167" stroke-width="0.5" stroke="Red" fill="Red"/>
   </g>
   <g id="cell55">
  <circle cx="485.222" cy="447.675" r="7.46878" stroke-width="0.5" stroke="black" fill="Red"/>
  <circle cx="485.222" cy="447.675" r="4.53982" stroke-width="0.5" stroke="Red" fill="Red"/>
   </g>
   <g id="cell56">
  <circle cx="495.739" cy="458.026" r="7.72056" stroke-width="0.5" stroke="black" fill="blue"/>
  <circle cx="495.739" cy="458.026" r="4.69003" stroke-width="0.5" stroke="blue" fill="blue"/>
   </g>
   <g id="cell57">
  <circle cx="488.316" cy="469.533" r="8.41271" stroke-width="0.5" stroke="black" fill="Red"/>
  <circle cx="488.316" cy="469.533" r="5.05167" stroke-width="0.5" stroke="Red" fill="Red"/>
   </g>
   <g id="cell58">
  <circle cx="484.48" cy="488.062" r="8.41271" stroke-width="0.5" stroke="black" fill="Red"/>
  <circle cx="484.48" cy="488.062" r="5.05167" stroke-width="0.5" stroke="Red" fill="Red"/>
   </g>
   <g id="cell59">
  <circle cx="485.095" cy="498.805" r="6.92764" stroke-width="0.5" stroke="black" fill="Red"/>
  <circle cx="485.095" cy="498.805" r="4.1918" stroke-width="0.5" stroke="Red" fill="Red"/>
   </g>
   <g id="cell60">
  <circle cx="489.019" cy="512.698" r="8.41271" stroke-width="0.5" stroke="black" fill="Red"/>
  <circle cx="489.019" cy="512.698" r="5.05167" stroke-width="0.5" stroke="Red" fill="Red"/>
   </g>
   <g id="cell61">
  <circle cx="484.549" cy="530.829" r="8.41271" stroke-width="0.5" stroke="black" fill="blue"/>
  <circle cx="484.549" cy="530.829" r="5.05167" stroke-width="0.5" stroke="blue" fill="blue"/>
   </g>
   <g id="cell62">
  <circle cx="486.668" cy="544.553" r="8.41271" stroke-width="0.5" stroke="black" fill="Red"/>
  <circle cx="486.668" cy="544.553" r="5.05167" stroke-width="0.5" stroke="Red" fill="Red"/>
   </g>
   <g id="cell63">
  <circle cx="490.088" cy="561.735" r="8.41271" stroke-width="0.5" stroke="black" fill="Red"/>
  <circle cx="490.088" cy="561.735" r="5.05167" stroke-width="0.5" stroke="Red" fill="Red"/>
   </g>
   <g id="cell64">
  <circle cx="487.997" cy="573.966" r="8.41271" stroke-width="0.5" stroke="black" fill="blue"/>
  <circle cx="487.997" cy="573.966" r="5.05167" stroke-width="0.5" stroke="blue" fill="blue"/>
   </g>
   <g id="cell65">
  <circle cx="485.619" cy="595.384" r="6.75639" stroke-width="0.5" stroke="black" fill="Red"/>
  <circle cx="485.619" cy="595.384" r="4.06813" stroke-width="0.5" stroke="Red" fill="Red"/>
   </g>
   <g id="cell66">
  <circle cx="503.903" cy="411.116" r="8.41271" stroke-width="0.5" stroke="black" fill="blue"/>
  <circle cx="503.903" cy="411.116" r="5.05167" stroke-width="0.5" stroke="blue" fill="blue"/>
   </g>
   <g id="cell67">
  <circle cx="492.613" cy="419.383" r="8.41271" stroke-width="0.5" stroke="black" fill="yellow"/>
  <circle cx="492.613" cy="419.383" r="5.05167" stroke-width="0.5" stroke="yellow" fill="yellow"/>
   </g>
   <g id="cell68">
  <circle cx="499.46" cy="429.48" r="8.41271" stroke-width="0.5" stroke="black" fill="Red"/>
  <circle cx="499.46" cy="429.48" r="5.05167" stroke-width="0.5" stroke="Red" fill="Red"/>
   </g>
   <g id="cell69">
  <circle cx="497.611" cy="447.486" r="8.41271" stroke-width="0.5" stroke="black" fill="Red"/>
  <circle cx="497.611" cy="447.486" r="5.05167" stroke-width="0.5" stroke="Red" fill="Red"/>
   </g>
   <g id="cell70">
  <circle cx="501.094" cy="466.648" r="8.41271" stroke-width="0.5" stroke="black" fill="blue"/>
  <circle cx="501.094" cy="466.648" r="5.05167" stroke-width="0.5" stroke="blue" fill="blue"/>
   </g>
   <g id="cell71">
  <circle cx="494.493" cy="479.923" r="8.41271" stroke-width="0.5" stroke="black" fill="Red"/>
  <circle cx="494.493" cy="479.923" r="5.05167" stroke-width="0.5" stroke="Red" fill="Red"/>
   </g>
   <g id="cell72">
  <circle cx="497.217" cy="492.932" r="8.41271" stroke-width="0.5" stroke="black" fill="Red"/>
  <circle cx="497.217" cy="492.932" r="5.05167" stroke-width="0.5" stroke="Red" fill="Red"/>
   </g>
   <g id="cell73">
  <circle cx="502.781" cy="508.858" r="8.41271" stroke-width="0.5" stroke="black" fill="Red"/>
  <circle cx="502.781" cy="508.858" r="5.05167" stroke-width="0.5" stroke="Red" fill="Red"/>
   </g>
   <g id="cell74">
  <circle cx="496.218" cy="522.96" r="8.41271" stroke-width="0.5" stroke="black" fill="Red"/>
  <circle cx="496.218" cy="522.96" r="5.05167" stroke-width="0.5" stroke="Red" fill="Red"/>
   </g>
   <g id="cell75">
  <circle cx="496.733" cy="536.173" r="8.41271" stroke-width="0.5" stroke="black" fill="Red"/>
  <circle cx="496.733" cy="536.173" r="5.05167" stroke-width="0.5" stroke="Red" fill="Red"/>
   </g>
   <g id="cell76">
  <circle cx="496.654" cy="551.669" r="8.41271" stroke-width="0.5" stroke="black" fill="Red"/>
  <circle cx="496.654" cy="551.669" r="5.05167" stroke-width="0.5" stroke="Red" fill="Red"/>
   </g>
   <g id="cell77">
  <circle cx="500.578" cy="569.465" r="7.61469" stroke-width="0.5" stroke="black" fill="Red"/>
  <circle cx="500.578" cy="569.465" r="4.62762" stroke-width="0.5" stroke="Red" fill="Red"/>
   </g>
   <g id="cell78">
  <circle cx="501.762" cy="580.311" r="8.41271" stroke-width="0.5" stroke="black" fill="Red"/>
  <circle cx="501.762" cy="580.311" r="5.05167" stroke-width="0.5" stroke="Red" fill="Red"/>
   </g>
   <g id="cell79">
  <circle cx="501.582" cy="593.629" r="8.41271" stroke-width="0.5" stroke="black" fill="blue"/>
  <circle cx="501.582" cy="593.629" r="5.05167" stroke-width="0.5" stroke="blue" fill="blue"/>
   </g>
   <g id="cell80">
  <circle cx="517.104" cy="411.458" r="7.11815" stroke-width="0.5" stroke="black" fill="Red"/>
  <circle cx="517.104" cy="411.458" r="4.31954" stroke-width="0.5" stroke="Red" fill="Red"/>
   </g>
   <g id="cell81">
  <circle cx="514.286" cy="433.132" r="8.41271" stroke-width="0.5" stroke="black" fill="Red"/>
  <circle cx="514.286" cy="433.132" r="5.05167" stroke-width="0.5" stroke="Red" fill="Red"/>
   </g>
   <g id="cell82">
  <circle cx="511.273" cy="445.335" r="6.80881" stroke-width="0.5" stroke="black" fill="Red"/>
  <circle cx="511.273" cy="445.335" r="4.10709" stroke-width="0.5" stroke="Red" fill="Red"/>
   </g>
   <g id="cell83">
  <circle cx="508.249" cy="455.254" r="8.41271" stroke-width="0.5" stroke="black" fill="Red"/>
  <circle cx="508.249" cy="455.254" r="5.05167" stroke-width="0.5" stroke="Red" fill="Red"/>
   </g>
   <g id="cell84">
  <circle cx="514.437" cy="466.327" r="8.41271" stroke-width="0.5" stroke="black" fill="Red"/>
  <circle cx="514.437" cy="466.327" r="5.05167" stroke-width="0.5" stroke="Red" fill="Red"/>
   </g>
   <g id="cell85">
  <circle cx="505.887" cy="477.49" r="8.41271" stroke-width="0.5" stroke="black" fill="Red"/>
  <circle cx="505.887" cy="477.49" r="5.05167" stroke-width="0.5" stroke="Red" fill="Red"/>
   </g>
   <g id="cell86">
  <circle cx="509.552" cy="496.832" r="8.41271" stroke-width="0.5" stroke="black" fill="Red"/>
  <circle cx="509.552" cy="496.832" r="5.05167" stroke-width="0.5" stroke="Red" fill="Red"/>
   </g>
   <g id="cell87">
  <circle cx="514.593" cy="510.509" r="7.67987" stroke-width="0.5" stroke="black" fill="Red"/>
  <circle cx="514.593" cy="510.509" r="4.66617" stroke-width="0.5" stroke="Red" fill="Red"/>
   </g>
   <g id="cell88">
  <circle cx="509.237" cy="532.31" r="8.41271" stroke-width="0.5" stroke="black" fill="Red"/>
  <circle cx="509.237" cy="532.31" r="5.05167" stroke-width="0.5" stroke="Red" fill="Red"/>
   </g>
   <g id="cell89">
  <circle cx="506.848" cy="545.799" r="8.41271" stroke-width="0.5" stroke="black" fill="Red"/>
  <circle cx="506.848" cy="545.799" r="5.05167" stroke-width="0.5" stroke="Red" fill="Red"/>
   </g>
   <g id="cell90">
  <circle cx="515.814" cy="555.437" r="8.41271" stroke-width="0.5" stroke="black" fill="Red"/>
  <circle cx="515.814" cy="555.437" r="5.05167" stroke-width="0.5" stroke="Red" fill="Red"/>
   </g>
   <g id="cell91">
  <circle cx="514.355" cy="570.686" r="8.41271" stroke-width="0.5" stroke="black" fill="Red"/>
  <circle cx="514.355" cy="570.686" r="5.05167" stroke-width="0.5" stroke="Red" fill="Red"/>
   </g>
   <g id="cell92">
  <circle cx="514.137" cy="586.532" r="8.41271" stroke-width="0.5" stroke="black" fill="Red"/>
  <circle cx="514.137" cy="586.532" r="5.05167" stroke-width="0.5" stroke="Red" fill="Red"/>
   </g>
   <g id="cell93">
  <circle cx="530.146" cy="412.24" r="8.41271" stroke-width="0.5" stroke="black" fill="blue"/>
  <circle cx="530.146" cy="412.24" r="5.05167" stroke-width="0.5" stroke="blue" fill="blue"/>
   </g>
   <g id="cell94">
  <circle cx="536.108" cy="423.941" r="7.70049" stroke-width="0.5" stroke="black" fill="Red"/>
  <circle cx="536.108" cy="423.941" r="4.67828" stroke-width="0.5" stroke="Red" fill="Red"/>
   </g>
   <g id="cell95">
  <circle cx="528.459" cy="435.282" r="8.41271" stroke-width="0.5" stroke="black" fill="Red"/>
  <circle cx="528.459" cy="435.282" r="5.05167" stroke-width="0.5" stroke="Red" fill="Red"/>
   </g>
   <g id="cell96">
  <circle cx="520.932" cy="443.815" r="7.14567" stroke-width="0.5" stroke="black" fill="blue"/>
  <circle cx="520.932" cy="443.815" r="4.37586" stroke-width="0.5" stroke="blue" fill="blue"/>
   </g>
   <g id="cell97">
  <circle cx="529.536" cy="463.096" r="8.41271" stroke-width="0.5" stroke="black" fill="Red"/>
  <circle cx="529.536" cy="463.096" r="5.05167" stroke-width="0.5" stroke="Red" fill="Red"/>
   </g>
   <g id="cell98">
  <circle cx="520.541" cy="491.781" r="6.74135" stroke-width="0.5" stroke="black" fill="blue"/>
  <circle cx="520.541" cy="491.781" r="4.13636" stroke-width="0.5" stroke="blue" fill="blue"/>
   </g>
   <g id="cell99">
  <circle cx="532.051" cy="496.29" r="8.41271" stroke-width="0.5" stroke="black" fill="Red"/>
  <circle cx="532.051" cy="496.29" r="5.05167" stroke-width="0.5" stroke="Red" fill="Red"/>
   </g>
   <g id="cell100">
  <circle cx="521.382" cy="502.627" r="6.99069" stroke-width="0.5" stroke="black" fill="blue"/>
  <circle cx="521.382" cy="502.627" r="4.23498" stroke-width="0.5" stroke="blue" fill="blue"/>
   </g>
   <g id="cell101">
  <circle cx="521.521" cy="527.768" r="8.41271" stroke-width="0.5" stroke="black" fill="Red"/>
  <circle cx="521.521" cy="527.768" r="5.05167" stroke-width="0.5" stroke="Red" fill="Red"/>
   </g>
   <g id="cell102">
  <circle cx="531.1" cy="537.645" r="7.84675" stroke-width="0.5" stroke="black" fill="Red"/>
  <circle cx="531.1" cy="537.645" r="4.7629" stroke-width="0.5" stroke="Red" fill="Red"/>
   </g>
   <g id="cell103">
  <circle cx="528.686" cy="550.998" r="8.41271" stroke-width="0.5" stroke="black" fill="Red"/>
  <circle cx="528.686" cy="550.998" r="5.05167" stroke-width="0.5" stroke="Red" fill="Red"/>
   </g>
   <g id="cell104">
  <circle cx="528.187" cy="563.722" r="8.41271" stroke-width="0.5" stroke="black" fill="yellow"/>
  <circle cx="528.187" cy="563.722" r="5.05167" stroke-width="0.5" stroke="yellow" fill="yellow"/>
   </g>
   <g id="cell105">
  <circle cx="525.957" cy="577.53" r="8.41271" stroke-width="0.5" stroke="black" fill="blue"/>
  <circle cx="525.957" cy="577.53" r="5.05167" stroke-width="0.5" stroke="blue" fill="blue"/>
   </g>
   <g id="cell106">
  <circle cx="544.703" cy="413.913" r="7.02257" stroke-width="0.5" stroke="black" fill="yellow"/>
  <circle cx="544.703" cy="413.913" r="4.25644" stroke-width="0.5" stroke="yellow" fill="yellow"/>
   </g>
   <g id="cell107">
  <circle cx="541.655" cy="436.947" r="8.41271" stroke-width="0.5" stroke="black" fill="Red"/>
  <circle cx="541.655" cy="436.947" r="5.05167" stroke-width="0.5" stroke="Red" fill="Red"/>
   </g>
   <g id="cell108">
  <circle cx="532.779" cy="448.136" r="8.41271" stroke-width="0.5" stroke="black" fill="Red"/>
  <circle cx="532.779" cy="448.136" r="5.05167" stroke-width="0.5" stroke="Red" fill="Red"/>
   </g>
   <g id="cell109">
  <circle cx="547.678" cy="466.735" r="8.41271" stroke-width="0.5" stroke="black" fill="Red"/>
  <circle cx="547.678" cy="466.735" r="5.05167" stroke-width="0.5" stroke="Red" fill="Red"/>
   </g>
   <g id="cell110">
  <circle cx="527.852" cy="482.959" r="8.41271" stroke-width="0.5" stroke="black" fill="Red"/>
  <circle cx="527.852" cy="482.959" r="5.05167" stroke-width="0.5" stroke="Red" fill="Red"/>
   </g>
   <g id="cell111">
  <circle cx="540.131" cy="488.36" r="8.41271" stroke-width="0.5" stroke="black" fill="Red"/>
  <circle cx="540.131" cy="488.36" r="5.05167" stroke-width="0.5" stroke="Red" fill="Red"/>
   </g>
   <g id="cell112">
  <circle cx="540.183" cy="504.774" r="8.41271" stroke-width="0.5" stroke="black" fill="Red"/>
  <circle cx="540.183" cy="504.774" r="5.05167" stroke-width="0.5" stroke="Red" fill="Red"/>
   </g>
   <g id="cell113">
  <circle cx="528.686" cy="513.184" r="8.41271" stroke-width="0.5" stroke="black" fill="Red"/>
  <circle cx="528.686" cy="513.184" r="5.05167" stroke-width="0.5" stroke="Red" fill="Red"/>
   </g>
   <g id="cell114">
  <circle cx="533.93" cy="525.062" r="8.41271" stroke-width="0.5" stroke="black" fill="Red"/>
  <circle cx="533.93" cy="525.062" r="5.05167" stroke-width="0.5" stroke="Red" fill="Red"/>
   </g>
   <g id="cell115">
  <circle cx="540.924" cy="543.799" r="8.41271" stroke-width="0.5" stroke="black" fill="blue"/>
  <circle cx="540.924" cy="543.799" r="5.05167" stroke-width="0.5" stroke="blue" fill="blue"/>
   </g>
   <g id="cell116">
  <circle cx="540.78" cy="558.732" r="8.41271" stroke-width="0.5" stroke="black" fill="Red"/>
  <circle cx="540.78" cy="558.732" r="5.05167" stroke-width="0.5" stroke="Red" fill="Red"/>
   </g>
   <g id="cell117">
  <circle cx="540.188" cy="571.733" r="8.41271" stroke-width="0.5" stroke="black" fill="yellow"/>
  <circle cx="540.188" cy="571.733" r="5.05167" stroke-width="0.5" stroke="yellow" fill="yellow"/>
   </g>
   <g id="cell118">
  <circle cx="550.095" cy="425.36" r="8.41271" stroke-width="0.5" stroke="black" fill="yellow"/>
  <circle cx="550.095" cy="425.36" r="5.05167" stroke-width="0.5" stroke="yellow" fill="yellow"/>
   </g>
   <g id="cell119">
  <circle cx="556.376" cy="439.673" r="8.41271" stroke-width="0.5" stroke="black" fill="Red"/>
  <circle cx="556.376" cy="439.673" r="5.05167" stroke-width="0.5" stroke="Red" fill="Red"/>
   </g>
   <g id="cell120">
  <circle cx="553.767" cy="457.843" r="7.67987" stroke-width="0.5" stroke="black" fill="Red"/>
  <circle cx="553.767" cy="457.843" r="4.66617" stroke-width="0.5" stroke="Red" fill="Red"/>
   </g>
   <g id="cell121">
  <circle cx="558.364" cy="472.621" r="8.41271" stroke-width="0.5" stroke="black" fill="Red"/>
  <circle cx="558.364" cy="472.621" r="5.05167" stroke-width="0.5" stroke="Red" fill="Red"/>
   </g>
   <g id="cell122">
  <circle cx="547.505" cy="479.741" r="8.41271" stroke-width="0.5" stroke="black" fill="Red"/>
  <circle cx="547.505" cy="479.741" r="5.05167" stroke-width="0.5" stroke="Red" fill="Red"/>
   </g>
   <g id="cell123">
  <circle cx="549.689" cy="496.173" r="8.41271" stroke-width="0.5" stroke="black" fill="Red"/>
  <circle cx="549.689" cy="496.173" r="5.05167" stroke-width="0.5" stroke="Red" fill="Red"/>
   </g>
   <g id="cell124">
  <circle cx="552.7" cy="509.864" r="8.41271" stroke-width="0.5" stroke="black" fill="Red"/>
  <circle cx="552.7" cy="509.864" r="5.05167" stroke-width="0.5" stroke="Red" fill="Red"/>
   </g>
   <g id="cell125">
  <circle cx="543.33" cy="517.28" r="7.70049" stroke-width="0.5" stroke="black" fill="blue"/>
  <circle cx="543.33" cy="517.28" r="4.67828" stroke-width="0.5" stroke="blue" fill="blue"/>
   </g>
   <g id="cell126">
  <circle cx="545.403" cy="531.343" r="8.41271" stroke-width="0.5" stroke="black" fill="Red"/>
  <circle cx="545.403" cy="531.343" r="5.05167" stroke-width="0.5" stroke="Red" fill="Red"/>
   </g>
   <g id="cell127">
  <circle cx="551.596" cy="550.185" r="8.41271" stroke-width="0.5" stroke="black" fill="Red"/>
  <circle cx="551.596" cy="550.185" r="5.05167" stroke-width="0.5" stroke="Red" fill="Red"/>
   </g>
   <g id="cell128">
  <circle cx="555.832" cy="563.094" r="8.41271" stroke-width="0.5" stroke="black" fill="blue"/>
  <circle cx="555.832" cy="563.094" r="5.05167" stroke-width="0.5" stroke="blue" fill="blue"/>
   </g>
   <g id="cell129">
  <circle cx="575.626" cy="454.397" r="7.65871" stroke-width="0.5" stroke="black" fill="Red"/>
  <circle cx="575.626" cy="454.397" r="4.6537" stroke-width="0.5" stroke="Red" fill="Red"/>
   </g>
   <g id="cell130">
  <circle cx="565.483" cy="462.909" r="8.41271" stroke-width="0.5" stroke="black" fill="Red"/>
  <circle cx="565.483" cy="462.909" r="5.05167" stroke-width="0.5" stroke="Red" fill="Red"/>
   </g>
   <g id="cell131">
  <circle cx="568.791" cy="478.641" r="8.41271" stroke-width="0.5" stroke="black" fill="Red"/>
  <circle cx="568.791" cy="478.641" r="5.05167" stroke-width="0.5" stroke="Red" fill="Red"/>
   </g>
   <g id="cell132">
  <circle cx="558.783" cy="487.162" r="8.41271" stroke-width="0.5" stroke="black" fill="Red"/>
  <circle cx="558.783" cy="487.162" r="5.05167" stroke-width="0.5" stroke="Red" fill="Red"/>
   </g>
   <g id="cell133">
  <circle cx="562.608" cy="501.044" r="8.41271" stroke-width="0.5" stroke="black" fill="blue"/>
  <circle cx="562.608" cy="501.044" r="5.05167" stroke-width="0.5" stroke="blue" fill="blue"/>
   </g>
   <g id="cell134">
  <circle cx="566.033" cy="514.103" r="8.41271" stroke-width="0.5" stroke="black" fill="Red"/>
  <circle cx="566.033" cy="514.103" r="5.05167" stroke-width="0.5" stroke="Red" fill="Red"/>
   </g>
   <g id="cell135">
  <circle cx="568.732" cy="528.78" r="8.41271" stroke-width="0.5" stroke="black" fill="yellow"/>
  <circle cx="568.732" cy="528.78" r="5.05167" stroke-width="0.5" stroke="yellow" fill="yellow"/>
   </g>
   <g id="cell136">
  <circle cx="556.699" cy="537.748" r="8.41271" stroke-width="0.5" stroke="black" fill="Red"/>
  <circle cx="556.699" cy="537.748" r="5.05167" stroke-width="0.5" stroke="Red" fill="Red"/>
   </g>
   <g id="cell137">
  <circle cx="568.393" cy="557.802" r="6.73287" stroke-width="0.5" stroke="black" fill="Red"/>
  <circle cx="568.393" cy="557.802" r="4.05039" stroke-width="0.5" stroke="Red" fill="Red"/>
   </g>
   <g id="cell138">
  <circle cx="576.949" cy="468.405" r="8.41271" stroke-width="0.5" stroke="black" fill="blue"/>
  <circle cx="576.949" cy="468.405" r="5.05167" stroke-width="0.5" stroke="blue" fill="blue"/>
   </g>
   <g id="cell139">
  <circle cx="582.676" cy="480.931" r="8.41271" stroke-width="0.5" stroke="black" fill="yellow"/>
  <circle cx="582.676" cy="480.931" r="5.05167" stroke-width="0.5" stroke="yellow" fill="yellow"/>
   </g>
   <g id="cell140">
  <circle cx="572.899" cy="490.984" r="7.90853" stroke-width="0.5" stroke="black" fill="yellow"/>
  <circle cx="572.899" cy="490.984" r="4.79791" stroke-width="0.5" stroke="yellow" fill="yellow"/>
   </g>
   <g id="cell141">
  <circle cx="575.842" cy="504.529" r="8.41271" stroke-width="0.5" stroke="black" fill="Red"/>
  <circle cx="575.842" cy="504.529" r="5.05167" stroke-width="0.5" stroke="Red" fill="Red"/>
   </g>
   <g id="cell142">
  <circle cx="579.762" cy="517.291" r="7.51976" stroke-width="0.5" stroke="black" fill="blue"/>
  <circle cx="579.762" cy="517.291" r="4.57072" stroke-width="0.5" stroke="blue" fill="blue"/>
   </g>
   <g id="cell143">
  <circle cx="571.45" cy="542.541" r="8.41271" stroke-width="0.5" stroke="black" fill="blue"/>
  <circle cx="571.45" cy="542.541" r="5.05167" stroke-width="0.5" stroke="blue" fill="blue"/>
   </g>
   <g id="cell144">
  <circle cx="431.443" cy="433.955" r="6.76996" stroke-width="0.5" stroke="black" fill="blue"/>
  <circle cx="431.443" cy="433.955" r="4.14324" stroke-width="0.5" stroke="blue" fill="blue"/>
   </g>
   <g id="cell145">
  <circle cx="584.523" cy="495.153" r="7.90853" stroke-width="0.5" stroke="black" fill="blue"/>
  <circle cx="584.523" cy="495.153" r="4.79791" stroke-width="0.5" stroke="blue" fill="blue"/>
   </g>
   <g id="cell146">
  <circle cx="478.304" cy="507.44" r="7.20131" stroke-width="0.5" stroke="black" fill="blue"/>
  <circle cx="478.304" cy="507.44" r="4.40921" stroke-width="0.5" stroke="blue" fill="blue"/>
   </g>
   <g id="cell147">
  <circle cx="540.56" cy="457.327" r="7.55585" stroke-width="0.5" stroke="black" fill="Red"/>
  <circle cx="540.56" cy="457.327" r="4.61593" stroke-width="0.5" stroke="Red" fill="Red"/>
   </g>
   <g id="cell148">
  <circle cx="519.508" cy="542.586" r="7.84675" stroke-width="0.5" stroke="black" fill="blue"/>
  <circle cx="519.508" cy="542.586" r="4.7629" stroke-width="0.5" stroke="blue" fill="blue"/>
   </g>
   <g id="cell149">
  <circle cx="536.106" cy="472.795" r="7.55585" stroke-width="0.5" stroke="black" fill="blue"/>
  <circle cx="536.106" cy="472.795" r="4.61593" stroke-width="0.5" stroke="blue" fill="blue"/>
   </g>
   <g id="cell150">
  <circle cx="445.034" cy="511.683" r="7.75912" stroke-width="0.5" stroke="black" fill="blue"/>
  <circle cx="445.034" cy="511.683" r="4.71248" stroke-width="0.5" stroke="blue" fill="blue"/>
   </g>
   <g id="cell151">
  <circle cx="451.586" cy="415.426" r="7.75912" stroke-width="0.5" stroke="black" fill="blue"/>
  <circle cx="451.586" cy="415.426" r="4.71248" stroke-width="0.5" stroke="blue" fill="blue"/>
   </g>
   <g id="cell152">
  <circle cx="484.343" cy="457.854" r="7.72056" stroke-width="0.5" stroke="black" fill="Red"/>
  <circle cx="484.343" cy="457.854" r="4.69003" stroke-width="0.5" stroke="Red" fill="Red"/>
   </g>
   <g id="cell153">
  <circle cx="522.87" cy="423.599" r="7.70049" stroke-width="0.5" stroke="black" fill="Red"/>
  <circle cx="522.87" cy="423.599" r="4.67828" stroke-width="0.5" stroke="Red" fill="Red"/>
   </g>
   <g id="cell154">
  <circle cx="557.332" cy="523.849" r="7.70049" stroke-width="0.5" stroke="black" fill="blue"/>
  <circle cx="557.332" cy="523.849" r="4.67828" stroke-width="0.5" stroke="blue" fill="blue"/>
   </g>
   <g id="cell155">
  <circle cx="440.536" cy="422.254" r="7.32163" stroke-width="0.5" stroke="black" fill="Red"/>
  <circle cx="440.536" cy="422.254" r="4.48174" stroke-width="0.5" stroke="Red" fill="Red"/>
   </g>
   <g id="cell156">
  <circle cx="508.179" cy="520.534" r="7.67987" stroke-width="0.5" stroke="black" fill="blue"/>
  <circle cx="508.179" cy="520.534" r="4.66617" stroke-width="0.5" stroke="blue" fill="blue"/>
   </g>
   <g id="cell157">
  <circle cx="547.256" cy="447.353" r="7.67987" stroke-width="0.5" stroke="black" fill="blue"/>
  <circle cx="547.256" cy="447.353" r="4.66617" stroke-width="0.5" stroke="blue" fill="blue"/>
   </g>
   <g id="cell158">
  <circle cx="558.318" cy="449.639" r="5.4658" stroke-width="0.5" stroke="black" fill="Red"/>
  <circle cx="558.318" cy="449.639" r="3.35847" stroke-width="0.5" stroke="Red" fill="Red"/>
   </g>
   <g id="cell159">
  <circle cx="472.958" cy="528.33" r="7.63698" stroke-width="0.5" stroke="black" fill="Red"/>
  <circle cx="472.958" cy="528.33" r="4.64085" stroke-width="0.5" stroke="Red" fill="Red"/>
   </g>
   <g id="cell160">
  <circle cx="505" cy="559.612" r="7.61469" stroke-width="0.5" stroke="black" fill="blue"/>
  <circle cx="505" cy="559.612" r="4.62762" stroke-width="0.5" stroke="blue" fill="blue"/>
   </g>
   <g id="cell161">
  <circle cx="516.968" cy="479.822" r="6.63508" stroke-width="0.5" stroke="black" fill="Red"/>
  <circle cx="516.968" cy="479.822" r="4.07068" stroke-width="0.5" stroke="Red" fill="Red"/>
   </g>
   <g id="cell162">
  <circle cx="581.048" cy="531.324" r="7.51976" stroke-width="0.5" stroke="black" fill="Red"/>
  <circle cx="581.048" cy="531.324" r="4.57072" stroke-width="0.5" stroke="Red" fill="Red"/>
   </g>
   <g id="cell163">
  <circle cx="472.202" cy="516.457" r="7.20131" stroke-width="0.5" stroke="black" fill="Red"/>
  <circle cx="472.202" cy="516.457" r="4.40921" stroke-width="0.5" stroke="Red" fill="Red"/>
   </g>
   <g id="cell164">
  <circle cx="433.062" cy="493.95" r="7.51976" stroke-width="0.5" stroke="black" fill="Red"/>
  <circle cx="433.062" cy="493.95" r="4.57072" stroke-width="0.5" stroke="Red" fill="Red"/>
   </g>
   <g id="cell165">
  <circle cx="465.623" cy="444.422" r="7.46878" stroke-width="0.5" stroke="black" fill="blue"/>
  <circle cx="465.623" cy="444.422" r="4.53982" stroke-width="0.5" stroke="blue" fill="blue"/>
   </g>
   <g id="cell166">
  <circle cx="491.009" cy="437.753" r="7.46878" stroke-width="0.5" stroke="black" fill="blue"/>
  <circle cx="491.009" cy="437.753" r="4.53982" stroke-width="0.5" stroke="blue" fill="blue"/>
   </g>
   <g id="cell167">
  <circle cx="520.622" cy="454.48" r="7.14567" stroke-width="0.5" stroke="black" fill="Red"/>
  <circle cx="520.622" cy="454.48" r="4.37586" stroke-width="0.5" stroke="Red" fill="Red"/>
   </g>
   <g id="cell168">
  <circle cx="428.13" cy="528.094" r="6.6423" stroke-width="0.5" stroke="black" fill="Red"/>
  <circle cx="428.13" cy="528.094" r="4.07653" stroke-width="0.5" stroke="Red" fill="Red"/>
   </g>
   <g id="cell169">
  <circle cx="421.184" cy="460.595" r="7.33129" stroke-width="0.5" stroke="black" fill="blue"/>
  <circle cx="421.184" cy="460.595" r="4.45516" stroke-width="0.5" stroke="blue" fill="blue"/>
   </g>
   <g id="cell170">
  <circle cx="512.679" cy="486.881" r="5.43669" stroke-width="0.5" stroke="black" fill="Red"/>
  <circle cx="512.679" cy="486.881" r="3.34205" stroke-width="0.5" stroke="Red" fill="Red"/>
   </g>
   <g id="cell171">
  <circle cx="455.298" cy="582.68" r="7.27253" stroke-width="0.5" stroke="black" fill="Red"/>
  <circle cx="455.298" cy="582.68" r="4.41835" stroke-width="0.5" stroke="Red" fill="Red"/>
   </g>
   <g id="cell172">
  <circle cx="568.551" cy="442.426" r="6.7792" stroke-width="0.5" stroke="black" fill="blue"/>
  <circle cx="568.551" cy="442.426" r="4.15776" stroke-width="0.5" stroke="blue" fill="blue"/>
   </g>
   <g id="cell173">
  <circle cx="420.813" cy="519.47" r="6.6423" stroke-width="0.5" stroke="black" fill="Red"/>
  <circle cx="420.813" cy="519.47" r="4.07653" stroke-width="0.5" stroke="Red" fill="Red"/>
   </g>
   <g id="cell174">
  <circle cx="524.344" cy="472.249" r="6.63508" stroke-width="0.5" stroke="black" fill="blue"/>
  <circle cx="524.344" cy="472.249" r="4.07068" stroke-width="0.5" stroke="blue" fill="blue"/>
   </g>
   <g id="cell175">
  <circle cx="509.819" cy="421.363" r="7.11815" stroke-width="0.5" stroke="black" fill="Red"/>
  <circle cx="509.819" cy="421.363" r="4.31954" stroke-width="0.5" stroke="Red" fill="Red"/>
   </g>
   <g id="cell176">
  <circle cx="441.695" cy="434.694" r="6.76996" stroke-width="0.5" stroke="black" fill="Red"/>
  <circle cx="441.695" cy="434.694" r="4.14324" stroke-width="0.5" stroke="Red" fill="Red"/>
   </g>
   <g id="cell177">
  <circle cx="558.26" cy="414.227" r="7.02257" stroke-width="0.5" stroke="black" fill="blue"/>
  <circle cx="558.26" cy="414.227" r="4.25644" stroke-width="0.5" stroke="blue" fill="blue"/>
   </g>
   <g id="cell178">
  <circle cx="519.926" cy="518.124" r="6.99069" stroke-width="0.5" stroke="black" fill="Red"/>
  <circle cx="519.926" cy="518.124" r="4.23498" stroke-width="0.5" stroke="Red" fill="Red"/>
   </g>
   <g id="cell179">
  <circle cx="454.795" cy="528.685" r="6.99069" stroke-width="0.5" stroke="black" fill="blue"/>
  <circle cx="454.795" cy="528.685" r="4.23498" stroke-width="0.5" stroke="blue" fill="blue"/>
   </g>
   <g id="cell180">
  <circle cx="461.072" cy="435.034" r="6.99069" stroke-width="0.5" stroke="black" fill="Red"/>
  <circle cx="461.072" cy="435.034" r="4.23498" stroke-width="0.5" stroke="Red" fill="Red"/>
   </g>
   <g id="cell181">
  <circle cx="494.561" cy="502.184" r="6.92764" stroke-width="0.5" stroke="black" fill="blue"/>
  <circle cx="494.561" cy="502.184" r="4.1918" stroke-width="0.5" stroke="blue" fill="blue"/>
   </g>
   <g id="cell182">
  <circle cx="473.803" cy="553.213" r="6.89675" stroke-width="0.5" stroke="black" fill="Red"/>
  <circle cx="473.803" cy="553.213" r="4.17024" stroke-width="0.5" stroke="Red" fill="Red"/>
   </g>
   <g id="cell183">
  <circle cx="471.812" cy="433.585" r="6.83713" stroke-width="0.5" stroke="black" fill="blue"/>
  <circle cx="471.812" cy="433.585" r="4.12773" stroke-width="0.5" stroke="blue" fill="blue"/>
   </g>
   <g id="cell184">
  <circle cx="504.301" cy="438.567" r="6.80881" stroke-width="0.5" stroke="black" fill="Red"/>
  <circle cx="504.301" cy="438.567" r="4.10709" stroke-width="0.5" stroke="Red" fill="Red"/>
   </g>
   <g id="cell185">
  <circle cx="491.153" cy="585.922" r="6.75639" stroke-width="0.5" stroke="black" fill="Red"/>
  <circle cx="491.153" cy="585.922" r="4.06813" stroke-width="0.5" stroke="Red" fill="Red"/>
   </g>
   <g id="cell186">
  <circle cx="504.002" cy="487.003" r="5.43669" stroke-width="0.5" stroke="black" fill="blue"/>
  <circle cx="504.002" cy="487.003" r="3.34205" stroke-width="0.5" stroke="blue" fill="blue"/>
   </g>
   <g id="cell187">
  <circle cx="565.769" cy="452.039" r="5.4658" stroke-width="0.5" stroke="black" fill="Red"/>
  <circle cx="565.769" cy="452.039" r="3.35847" stroke-width="0.5" stroke="Red" fill="Red"/>
   </g>
   <g id="cell188">
  <circle cx="562.724" cy="549.628" r="6.73287" stroke-width="0.5" stroke="black" fill="yellow"/>
  <circle cx="562.724" cy="549.628" r="4.05039" stroke-width="0.5" stroke="yellow" fill="yellow"/>
   </g>
   <g id="cell189">
  <circle cx="464.01" cy="523.838" r="6.71158" stroke-width="0.5" stroke="black" fill="Red"/>
  <circle cx="464.01" cy="523.838" r="4.03435" stroke-width="0.5" stroke="Red" fill="Red"/>
   </g>
  </g>
 </g>
  <rect x="775" y="1035" width="200" height="10" stroke-width="2" stroke="rgb(255,255,255)" fill="rgb(0,0,0)"/>
  <text x="781.25" y="1028.75"
   font-family="Arial" font-size="25" fill="black" >
   200 &#956;m
  </text>
  <text x="25" y="1045"
   font-family="Arial" font-size="18.75" fill="black" >
   0 days, 0 hours, 1 minutes, and 56.9342 seconds
  </text>
  <rect x="0" y="70" width="1000" height="1000" stroke-width="2" stroke="rgb(0,0,0)" fill="none"/>
</svg>
