<?xml version="1.0" encoding="UTF-8" standalone="no"?>
<!-- Created with PhysiCell (http://PhysiCell.MathCancer.org/) -->
<svg 
 xmlns:dc="http://purl.org/dc/elements/1.1/" 
 xmlns:cc="http://creativecommons.org/ns#" 
 xmlns:rdf="http://www.w3.org/1999/02/22-rdf-syntax-ns#" 
 xmlns:svg="http://www.w3.org/2000/svg" 
 xmlns="http://www.w3.org/2000/svg" 
 version="1.1" 
 width="1000" 
 height="1070" 
 id="svg2">
  <rect x="0" y="0" width="1000" height="1070" stroke-width="2" stroke="white" fill="white"/>
  <text x="12.5" y="30"
   font-family="Arial" font-size="25" fill="black" >
   Current time: 0 days, 5 hours, and 45.00 minutes, z = 0.00 &#956;m
  </text>
  <text x="12.5" y="57.5"
   font-family="Arial" font-size="23.75" fill="black" >
   195 agents
  </text>
 <g id="tissue" 
    transform="translate(0,1070) scale(1,-1)">
  <g id="ECM">
  </g>
  <g id="cells">
   <g id="cell0">
  <circle cx="423.421" cy="446.956" r="8.41271" stroke-width="0.5" stroke="black" fill="yellow"/>
  <circle cx="423.421" cy="446.956" r="5.05167" stroke-width="0.5" stroke="yellow" fill="yellow"/>
   </g>
   <g id="cell1">
  <circle cx="424.738" cy="470.162" r="7.46878" stroke-width="0.5" stroke="black" fill="Red"/>
  <circle cx="424.738" cy="470.162" r="4.53982" stroke-width="0.5" stroke="Red" fill="Red"/>
   </g>
   <g id="cell2">
  <circle cx="426.684" cy="482.742" r="8.41271" stroke-width="0.5" stroke="black" fill="blue"/>
  <circle cx="426.684" cy="482.742" r="5.05167" stroke-width="0.5" stroke="blue" fill="blue"/>
   </g>
   <g id="cell3">
  <circle cx="421.637" cy="495.589" r="7.63698" stroke-width="0.5" stroke="black" fill="Red"/>
  <circle cx="421.637" cy="495.589" r="4.64085" stroke-width="0.5" stroke="Red" fill="Red"/>
   </g>
   <g id="cell4">
  <circle cx="426.359" cy="506.618" r="8.41271" stroke-width="0.5" stroke="black" fill="Red"/>
  <circle cx="426.359" cy="506.618" r="5.05167" stroke-width="0.5" stroke="Red" fill="Red"/>
   </g>
   <g id="cell5">
  <circle cx="414.931" cy="528.275" r="7.56839" stroke-width="0.5" stroke="black" fill="blue"/>
  <circle cx="414.931" cy="528.275" r="4.59998" stroke-width="0.5" stroke="blue" fill="blue"/>
   </g>
   <g id="cell6">
  <circle cx="424.417" cy="540.091" r="8.41271" stroke-width="0.5" stroke="black" fill="Red"/>
  <circle cx="424.417" cy="540.091" r="5.05167" stroke-width="0.5" stroke="Red" fill="Red"/>
   </g>
   <g id="cell7">
  <circle cx="438.607" cy="446.416" r="7.97646" stroke-width="0.5" stroke="black" fill="yellow"/>
  <circle cx="438.607" cy="446.416" r="4.83584" stroke-width="0.5" stroke="yellow" fill="yellow"/>
   </g>
   <g id="cell8">
  <circle cx="432.528" cy="459.16" r="8.41271" stroke-width="0.5" stroke="black" fill="Red"/>
  <circle cx="432.528" cy="459.16" r="5.05167" stroke-width="0.5" stroke="Red" fill="Red"/>
   </g>
   <g id="cell9">
  <circle cx="437.136" cy="472.985" r="8.41271" stroke-width="0.5" stroke="black" fill="Red"/>
  <circle cx="437.136" cy="472.985" r="5.05167" stroke-width="0.5" stroke="Red" fill="Red"/>
   </g>
   <g id="cell10">
  <circle cx="440.42" cy="485.5" r="8.41271" stroke-width="0.5" stroke="black" fill="Red"/>
  <circle cx="440.42" cy="485.5" r="5.05167" stroke-width="0.5" stroke="Red" fill="Red"/>
   </g>
   <g id="cell11">
  <circle cx="437.633" cy="503.706" r="8.41271" stroke-width="0.5" stroke="black" fill="Red"/>
  <circle cx="437.633" cy="503.706" r="5.05167" stroke-width="0.5" stroke="Red" fill="Red"/>
   </g>
   <g id="cell12">
  <circle cx="432.739" cy="517.687" r="7.84675" stroke-width="0.5" stroke="black" fill="Red"/>
  <circle cx="432.739" cy="517.687" r="4.7629" stroke-width="0.5" stroke="Red" fill="Red"/>
   </g>
   <g id="cell13">
  <circle cx="435.945" cy="533.837" r="8.41271" stroke-width="0.5" stroke="black" fill="Red"/>
  <circle cx="435.945" cy="533.837" r="5.05167" stroke-width="0.5" stroke="Red" fill="Red"/>
   </g>
   <g id="cell14">
  <circle cx="437.331" cy="546.759" r="8.41271" stroke-width="0.5" stroke="black" fill="Red"/>
  <circle cx="437.331" cy="546.759" r="5.05167" stroke-width="0.5" stroke="Red" fill="Red"/>
   </g>
   <g id="cell15">
  <circle cx="438.871" cy="559.615" r="8.41271" stroke-width="0.5" stroke="black" fill="blue"/>
  <circle cx="438.871" cy="559.615" r="5.05167" stroke-width="0.5" stroke="blue" fill="blue"/>
   </g>
   <g id="cell16">
  <circle cx="450.866" cy="426.752" r="7.47473" stroke-width="0.5" stroke="black" fill="Red"/>
  <circle cx="450.866" cy="426.752" r="4.56983" stroke-width="0.5" stroke="Red" fill="Red"/>
   </g>
   <g id="cell17">
  <circle cx="448.341" cy="439.191" r="7.1497" stroke-width="0.5" stroke="black" fill="Red"/>
  <circle cx="448.341" cy="439.191" r="4.34001" stroke-width="0.5" stroke="Red" fill="Red"/>
   </g>
   <g id="cell18">
  <circle cx="445.812" cy="457.546" r="8.41271" stroke-width="0.5" stroke="black" fill="blue"/>
  <circle cx="445.812" cy="457.546" r="5.05167" stroke-width="0.5" stroke="blue" fill="blue"/>
   </g>
   <g id="cell19">
  <circle cx="448.856" cy="470.571" r="8.41271" stroke-width="0.5" stroke="black" fill="Red"/>
  <circle cx="448.856" cy="470.571" r="5.05167" stroke-width="0.5" stroke="Red" fill="Red"/>
   </g>
   <g id="cell20">
  <circle cx="452.659" cy="482.194" r="8.41271" stroke-width="0.5" stroke="black" fill="Red"/>
  <circle cx="452.659" cy="482.194" r="5.05167" stroke-width="0.5" stroke="Red" fill="Red"/>
   </g>
   <g id="cell21">
  <circle cx="446.811" cy="495.388" r="8.41271" stroke-width="0.5" stroke="black" fill="Red"/>
  <circle cx="446.811" cy="495.388" r="5.05167" stroke-width="0.5" stroke="Red" fill="Red"/>
   </g>
   <g id="cell22">
  <circle cx="454.708" cy="505.574" r="8.41271" stroke-width="0.5" stroke="black" fill="Red"/>
  <circle cx="454.708" cy="505.574" r="5.05167" stroke-width="0.5" stroke="Red" fill="Red"/>
   </g>
   <g id="cell23">
  <circle cx="442.935" cy="522.932" r="8.41271" stroke-width="0.5" stroke="black" fill="Red"/>
  <circle cx="442.935" cy="522.932" r="5.05167" stroke-width="0.5" stroke="Red" fill="Red"/>
   </g>
   <g id="cell24">
  <circle cx="449.087" cy="538.924" r="8.41271" stroke-width="0.5" stroke="black" fill="Red"/>
  <circle cx="449.087" cy="538.924" r="5.05167" stroke-width="0.5" stroke="Red" fill="Red"/>
   </g>
   <g id="cell25">
  <circle cx="450.035" cy="554.213" r="8.41271" stroke-width="0.5" stroke="black" fill="yellow"/>
  <circle cx="450.035" cy="554.213" r="5.05167" stroke-width="0.5" stroke="yellow" fill="yellow"/>
   </g>
   <g id="cell26">
  <circle cx="446.939" cy="568.601" r="6.67717" stroke-width="0.5" stroke="black" fill="Red"/>
  <circle cx="446.939" cy="568.601" r="4.00951" stroke-width="0.5" stroke="Red" fill="Red"/>
   </g>
   <g id="cell27">
  <circle cx="465.056" cy="407.86" r="8.41271" stroke-width="0.5" stroke="black" fill="yellow"/>
  <circle cx="465.056" cy="407.86" r="5.05167" stroke-width="0.5" stroke="yellow" fill="yellow"/>
   </g>
   <g id="cell28">
  <circle cx="463.938" cy="422.477" r="8.41271" stroke-width="0.5" stroke="black" fill="yellow"/>
  <circle cx="463.938" cy="422.477" r="5.05167" stroke-width="0.5" stroke="yellow" fill="yellow"/>
   </g>
   <g id="cell29">
  <circle cx="455.744" cy="447.993" r="7.59183" stroke-width="0.5" stroke="black" fill="Red"/>
  <circle cx="455.744" cy="447.993" r="4.61399" stroke-width="0.5" stroke="Red" fill="Red"/>
   </g>
   <g id="cell30">
  <circle cx="458.826" cy="459.442" r="8.41271" stroke-width="0.5" stroke="black" fill="Red"/>
  <circle cx="458.826" cy="459.442" r="5.05167" stroke-width="0.5" stroke="Red" fill="Red"/>
   </g>
   <g id="cell31">
  <circle cx="461.27" cy="470.698" r="8.41271" stroke-width="0.5" stroke="black" fill="Red"/>
  <circle cx="461.27" cy="470.698" r="5.05167" stroke-width="0.5" stroke="Red" fill="Red"/>
   </g>
   <g id="cell32">
  <circle cx="464.909" cy="480.855" r="8.41271" stroke-width="0.5" stroke="black" fill="Red"/>
  <circle cx="464.909" cy="480.855" r="5.05167" stroke-width="0.5" stroke="Red" fill="Red"/>
   </g>
   <g id="cell33">
  <circle cx="459.855" cy="493.085" r="8.41271" stroke-width="0.5" stroke="black" fill="blue"/>
  <circle cx="459.855" cy="493.085" r="5.05167" stroke-width="0.5" stroke="blue" fill="blue"/>
   </g>
   <g id="cell34">
  <circle cx="453.091" cy="518.316" r="5.54538" stroke-width="0.5" stroke="black" fill="Red"/>
  <circle cx="453.091" cy="518.316" r="3.36222" stroke-width="0.5" stroke="Red" fill="Red"/>
   </g>
   <g id="cell35">
  <circle cx="461.366" cy="536.165" r="7.1497" stroke-width="0.5" stroke="black" fill="blue"/>
  <circle cx="461.366" cy="536.165" r="4.34001" stroke-width="0.5" stroke="blue" fill="blue"/>
   </g>
   <g id="cell36">
  <circle cx="461.575" cy="547.801" r="8.41271" stroke-width="0.5" stroke="black" fill="Red"/>
  <circle cx="461.575" cy="547.801" r="5.05167" stroke-width="0.5" stroke="Red" fill="Red"/>
   </g>
   <g id="cell37">
  <circle cx="462.158" cy="561.899" r="8.41271" stroke-width="0.5" stroke="black" fill="blue"/>
  <circle cx="462.158" cy="561.899" r="5.05167" stroke-width="0.5" stroke="blue" fill="blue"/>
   </g>
   <g id="cell38">
  <circle cx="465.887" cy="574.612" r="8.41271" stroke-width="0.5" stroke="black" fill="yellow"/>
  <circle cx="465.887" cy="574.612" r="5.05167" stroke-width="0.5" stroke="yellow" fill="yellow"/>
   </g>
   <g id="cell39">
  <circle cx="465.453" cy="587.77" r="7.41548" stroke-width="0.5" stroke="black" fill="blue"/>
  <circle cx="465.453" cy="587.77" r="4.50723" stroke-width="0.5" stroke="blue" fill="blue"/>
   </g>
   <g id="cell40">
  <circle cx="477.684" cy="400.807" r="8.41271" stroke-width="0.5" stroke="black" fill="blue"/>
  <circle cx="477.684" cy="400.807" r="5.05167" stroke-width="0.5" stroke="blue" fill="blue"/>
   </g>
   <g id="cell41">
  <circle cx="477.021" cy="414.899" r="8.41271" stroke-width="0.5" stroke="black" fill="yellow"/>
  <circle cx="477.021" cy="414.899" r="5.05167" stroke-width="0.5" stroke="yellow" fill="yellow"/>
   </g>
   <g id="cell42">
  <circle cx="478.102" cy="439.454" r="6.99069" stroke-width="0.5" stroke="black" fill="Red"/>
  <circle cx="478.102" cy="439.454" r="4.23498" stroke-width="0.5" stroke="Red" fill="Red"/>
   </g>
   <g id="cell43">
  <circle cx="469.758" cy="453.965" r="8.41271" stroke-width="0.5" stroke="black" fill="Red"/>
  <circle cx="469.758" cy="453.965" r="5.05167" stroke-width="0.5" stroke="Red" fill="Red"/>
   </g>
   <g id="cell44">
  <circle cx="472.165" cy="465.67" r="8.41271" stroke-width="0.5" stroke="black" fill="blue"/>
  <circle cx="472.165" cy="465.67" r="5.05167" stroke-width="0.5" stroke="blue" fill="blue"/>
   </g>
   <g id="cell45">
  <circle cx="476.077" cy="477.411" r="8.41271" stroke-width="0.5" stroke="black" fill="Red"/>
  <circle cx="476.077" cy="477.411" r="5.05167" stroke-width="0.5" stroke="Red" fill="Red"/>
   </g>
   <g id="cell46">
  <circle cx="472.825" cy="492.423" r="8.41271" stroke-width="0.5" stroke="black" fill="Red"/>
  <circle cx="472.825" cy="492.423" r="5.05167" stroke-width="0.5" stroke="Red" fill="Red"/>
   </g>
   <g id="cell47">
  <circle cx="466.947" cy="503.846" r="7.96365" stroke-width="0.5" stroke="black" fill="Red"/>
  <circle cx="466.947" cy="503.846" r="4.82873" stroke-width="0.5" stroke="Red" fill="Red"/>
   </g>
   <g id="cell48">
  <circle cx="478.554" cy="521.874" r="7.7401" stroke-width="0.5" stroke="black" fill="blue"/>
  <circle cx="478.554" cy="521.874" r="4.70142" stroke-width="0.5" stroke="blue" fill="blue"/>
   </g>
   <g id="cell49">
  <circle cx="473.555" cy="542.71" r="8.41271" stroke-width="0.5" stroke="black" fill="Red"/>
  <circle cx="473.555" cy="542.71" r="5.05167" stroke-width="0.5" stroke="Red" fill="Red"/>
   </g>
   <g id="cell50">
  <circle cx="482.354" cy="556.207" r="7.0545" stroke-width="0.5" stroke="black" fill="blue"/>
  <circle cx="482.354" cy="556.207" r="4.27772" stroke-width="0.5" stroke="blue" fill="blue"/>
   </g>
   <g id="cell51">
  <circle cx="477.027" cy="566.162" r="8.41271" stroke-width="0.5" stroke="black" fill="Red"/>
  <circle cx="477.027" cy="566.162" r="5.05167" stroke-width="0.5" stroke="Red" fill="Red"/>
   </g>
   <g id="cell52">
  <circle cx="478.168" cy="582.955" r="8.41271" stroke-width="0.5" stroke="black" fill="yellow"/>
  <circle cx="478.168" cy="582.955" r="5.05167" stroke-width="0.5" stroke="yellow" fill="yellow"/>
   </g>
   <g id="cell53">
  <circle cx="490.34" cy="406.477" r="8.41271" stroke-width="0.5" stroke="black" fill="yellow"/>
  <circle cx="490.34" cy="406.477" r="5.05167" stroke-width="0.5" stroke="yellow" fill="yellow"/>
   </g>
   <g id="cell54">
  <circle cx="479.744" cy="426.544" r="8.41271" stroke-width="0.5" stroke="black" fill="Red"/>
  <circle cx="479.744" cy="426.544" r="5.05167" stroke-width="0.5" stroke="Red" fill="Red"/>
   </g>
   <g id="cell55">
  <circle cx="480.977" cy="449.673" r="7.59183" stroke-width="0.5" stroke="black" fill="Red"/>
  <circle cx="480.977" cy="449.673" r="4.61399" stroke-width="0.5" stroke="Red" fill="Red"/>
   </g>
   <g id="cell56">
  <circle cx="491.305" cy="456.147" r="7.81315" stroke-width="0.5" stroke="black" fill="blue"/>
  <circle cx="491.305" cy="456.147" r="4.74367" stroke-width="0.5" stroke="blue" fill="blue"/>
   </g>
   <g id="cell57">
  <circle cx="486.631" cy="471.716" r="8.41271" stroke-width="0.5" stroke="black" fill="Red"/>
  <circle cx="486.631" cy="471.716" r="5.05167" stroke-width="0.5" stroke="Red" fill="Red"/>
   </g>
   <g id="cell58">
  <circle cx="484.463" cy="487.307" r="8.41271" stroke-width="0.5" stroke="black" fill="Red"/>
  <circle cx="484.463" cy="487.307" r="5.05167" stroke-width="0.5" stroke="Red" fill="Red"/>
   </g>
   <g id="cell59">
  <circle cx="482.913" cy="499.437" r="7.08639" stroke-width="0.5" stroke="black" fill="Red"/>
  <circle cx="482.913" cy="499.437" r="4.29876" stroke-width="0.5" stroke="Red" fill="Red"/>
   </g>
   <g id="cell60">
  <circle cx="487.805" cy="513.996" r="8.41271" stroke-width="0.5" stroke="black" fill="Red"/>
  <circle cx="487.805" cy="513.996" r="5.05167" stroke-width="0.5" stroke="Red" fill="Red"/>
   </g>
   <g id="cell61">
  <circle cx="485.16" cy="531.968" r="8.41271" stroke-width="0.5" stroke="black" fill="Red"/>
  <circle cx="485.16" cy="531.968" r="5.05167" stroke-width="0.5" stroke="Red" fill="Red"/>
   </g>
   <g id="cell62">
  <circle cx="485.371" cy="545.244" r="8.41271" stroke-width="0.5" stroke="black" fill="Red"/>
  <circle cx="485.371" cy="545.244" r="5.05167" stroke-width="0.5" stroke="Red" fill="Red"/>
   </g>
   <g id="cell63">
  <circle cx="492.306" cy="562.558" r="8.41271" stroke-width="0.5" stroke="black" fill="Red"/>
  <circle cx="492.306" cy="562.558" r="5.05167" stroke-width="0.5" stroke="Red" fill="Red"/>
   </g>
   <g id="cell64">
  <circle cx="488.422" cy="574.455" r="8.41271" stroke-width="0.5" stroke="black" fill="Red"/>
  <circle cx="488.422" cy="574.455" r="5.05167" stroke-width="0.5" stroke="Red" fill="Red"/>
   </g>
   <g id="cell65">
  <circle cx="489.243" cy="597.424" r="6.89675" stroke-width="0.5" stroke="black" fill="Red"/>
  <circle cx="489.243" cy="597.424" r="4.17024" stroke-width="0.5" stroke="Red" fill="Red"/>
   </g>
   <g id="cell66">
  <circle cx="502.272" cy="414.406" r="8.41271" stroke-width="0.5" stroke="black" fill="blue"/>
  <circle cx="502.272" cy="414.406" r="5.05167" stroke-width="0.5" stroke="blue" fill="blue"/>
   </g>
   <g id="cell67">
  <circle cx="490.332" cy="420.398" r="8.41271" stroke-width="0.5" stroke="black" fill="Red"/>
  <circle cx="490.332" cy="420.398" r="5.05167" stroke-width="0.5" stroke="Red" fill="Red"/>
   </g>
   <g id="cell68">
  <circle cx="499.109" cy="428.253" r="8.41271" stroke-width="0.5" stroke="black" fill="Red"/>
  <circle cx="499.109" cy="428.253" r="5.05167" stroke-width="0.5" stroke="Red" fill="Red"/>
   </g>
   <g id="cell69">
  <circle cx="492.757" cy="445.806" r="8.41271" stroke-width="0.5" stroke="black" fill="Red"/>
  <circle cx="492.757" cy="445.806" r="5.05167" stroke-width="0.5" stroke="Red" fill="Red"/>
   </g>
   <g id="cell70">
  <circle cx="496.962" cy="465.816" r="8.41271" stroke-width="0.5" stroke="black" fill="Red"/>
  <circle cx="496.962" cy="465.816" r="5.05167" stroke-width="0.5" stroke="Red" fill="Red"/>
   </g>
   <g id="cell71">
  <circle cx="495.078" cy="480.426" r="8.41271" stroke-width="0.5" stroke="black" fill="Red"/>
  <circle cx="495.078" cy="480.426" r="5.05167" stroke-width="0.5" stroke="Red" fill="Red"/>
   </g>
   <g id="cell72">
  <circle cx="495.937" cy="493.255" r="8.41271" stroke-width="0.5" stroke="black" fill="Red"/>
  <circle cx="495.937" cy="493.255" r="5.05167" stroke-width="0.5" stroke="Red" fill="Red"/>
   </g>
   <g id="cell73">
  <circle cx="500.685" cy="511.277" r="8.41271" stroke-width="0.5" stroke="black" fill="Red"/>
  <circle cx="500.685" cy="511.277" r="5.05167" stroke-width="0.5" stroke="Red" fill="Red"/>
   </g>
   <g id="cell74">
  <circle cx="496.439" cy="524.763" r="8.41271" stroke-width="0.5" stroke="black" fill="Red"/>
  <circle cx="496.439" cy="524.763" r="5.05167" stroke-width="0.5" stroke="Red" fill="Red"/>
   </g>
   <g id="cell75">
  <circle cx="497.982" cy="538.681" r="8.41271" stroke-width="0.5" stroke="black" fill="blue"/>
  <circle cx="497.982" cy="538.681" r="5.05167" stroke-width="0.5" stroke="blue" fill="blue"/>
   </g>
   <g id="cell76">
  <circle cx="496.125" cy="552.005" r="8.41271" stroke-width="0.5" stroke="black" fill="Red"/>
  <circle cx="496.125" cy="552.005" r="5.05167" stroke-width="0.5" stroke="Red" fill="Red"/>
   </g>
   <g id="cell77">
  <circle cx="502.958" cy="568.2" r="7.72056" stroke-width="0.5" stroke="black" fill="Red"/>
  <circle cx="502.958" cy="568.2" r="4.69003" stroke-width="0.5" stroke="Red" fill="Red"/>
   </g>
   <g id="cell78">
  <circle cx="500.29" cy="580.626" r="8.41271" stroke-width="0.5" stroke="black" fill="Red"/>
  <circle cx="500.29" cy="580.626" r="5.05167" stroke-width="0.5" stroke="Red" fill="Red"/>
   </g>
   <g id="cell79">
  <circle cx="501.219" cy="594.889" r="8.41271" stroke-width="0.5" stroke="black" fill="blue"/>
  <circle cx="501.219" cy="594.889" r="5.05167" stroke-width="0.5" stroke="blue" fill="blue"/>
   </g>
   <g id="cell80">
  <circle cx="516.467" cy="411.692" r="7.27253" stroke-width="0.5" stroke="black" fill="yellow"/>
  <circle cx="516.467" cy="411.692" r="4.41835" stroke-width="0.5" stroke="yellow" fill="yellow"/>
   </g>
   <g id="cell81">
  <circle cx="514.442" cy="434.265" r="8.41271" stroke-width="0.5" stroke="black" fill="Red"/>
  <circle cx="514.442" cy="434.265" r="5.05167" stroke-width="0.5" stroke="Red" fill="Red"/>
   </g>
   <g id="cell82">
  <circle cx="510.473" cy="445.492" r="6.95901" stroke-width="0.5" stroke="black" fill="Red"/>
  <circle cx="510.473" cy="445.492" r="4.21341" stroke-width="0.5" stroke="Red" fill="Red"/>
   </g>
   <g id="cell83">
  <circle cx="504.614" cy="454.346" r="8.41271" stroke-width="0.5" stroke="black" fill="Red"/>
  <circle cx="504.614" cy="454.346" r="5.05167" stroke-width="0.5" stroke="Red" fill="Red"/>
   </g>
   <g id="cell84">
  <circle cx="510.369" cy="464.824" r="6.71158" stroke-width="0.5" stroke="black" fill="Red"/>
  <circle cx="510.369" cy="464.824" r="4.03435" stroke-width="0.5" stroke="Red" fill="Red"/>
   </g>
   <g id="cell85">
  <circle cx="505.912" cy="474.665" r="8.41271" stroke-width="0.5" stroke="black" fill="Red"/>
  <circle cx="505.912" cy="474.665" r="5.05167" stroke-width="0.5" stroke="Red" fill="Red"/>
   </g>
   <g id="cell86">
  <circle cx="506.69" cy="498.751" r="8.41271" stroke-width="0.5" stroke="black" fill="Red"/>
  <circle cx="506.69" cy="498.751" r="5.05167" stroke-width="0.5" stroke="Red" fill="Red"/>
   </g>
   <g id="cell87">
  <circle cx="513.718" cy="510.484" r="7.77763" stroke-width="0.5" stroke="black" fill="Red"/>
  <circle cx="513.718" cy="510.484" r="4.7232" stroke-width="0.5" stroke="Red" fill="Red"/>
   </g>
   <g id="cell88">
  <circle cx="509.423" cy="532.775" r="8.41271" stroke-width="0.5" stroke="black" fill="Red"/>
  <circle cx="509.423" cy="532.775" r="5.05167" stroke-width="0.5" stroke="Red" fill="Red"/>
   </g>
   <g id="cell89">
  <circle cx="509.293" cy="547.099" r="8.41271" stroke-width="0.5" stroke="black" fill="Red"/>
  <circle cx="509.293" cy="547.099" r="5.05167" stroke-width="0.5" stroke="Red" fill="Red"/>
   </g>
   <g id="cell90">
  <circle cx="517.684" cy="557.883" r="8.41271" stroke-width="0.5" stroke="black" fill="Red"/>
  <circle cx="517.684" cy="557.883" r="5.05167" stroke-width="0.5" stroke="Red" fill="Red"/>
   </g>
   <g id="cell91">
  <circle cx="515.478" cy="572.492" r="8.41271" stroke-width="0.5" stroke="black" fill="yellow"/>
  <circle cx="515.478" cy="572.492" r="5.05167" stroke-width="0.5" stroke="yellow" fill="yellow"/>
   </g>
   <g id="cell92">
  <circle cx="513.004" cy="587.252" r="8.41271" stroke-width="0.5" stroke="black" fill="yellow"/>
  <circle cx="513.004" cy="587.252" r="5.05167" stroke-width="0.5" stroke="yellow" fill="yellow"/>
   </g>
   <g id="cell93">
  <circle cx="530.102" cy="410.17" r="8.41271" stroke-width="0.5" stroke="black" fill="blue"/>
  <circle cx="530.102" cy="410.17" r="5.05167" stroke-width="0.5" stroke="blue" fill="blue"/>
   </g>
   <g id="cell94">
  <circle cx="535.689" cy="424.341" r="7.79564" stroke-width="0.5" stroke="black" fill="yellow"/>
  <circle cx="535.689" cy="424.341" r="4.73359" stroke-width="0.5" stroke="yellow" fill="yellow"/>
   </g>
   <g id="cell95">
  <circle cx="528.214" cy="435.481" r="8.41271" stroke-width="0.5" stroke="black" fill="Red"/>
  <circle cx="528.214" cy="435.481" r="5.05167" stroke-width="0.5" stroke="Red" fill="Red"/>
   </g>
   <g id="cell96">
  <circle cx="520.864" cy="446.796" r="7.32102" stroke-width="0.5" stroke="black" fill="blue"/>
  <circle cx="520.864" cy="446.796" r="4.47885" stroke-width="0.5" stroke="blue" fill="blue"/>
   </g>
   <g id="cell97">
  <circle cx="528.025" cy="461.381" r="8.41271" stroke-width="0.5" stroke="black" fill="Red"/>
  <circle cx="528.025" cy="461.381" r="5.05167" stroke-width="0.5" stroke="Red" fill="Red"/>
   </g>
   <g id="cell98">
  <circle cx="523.339" cy="490.303" r="6.97369" stroke-width="0.5" stroke="black" fill="blue"/>
  <circle cx="523.339" cy="490.303" r="4.27634" stroke-width="0.5" stroke="blue" fill="blue"/>
   </g>
   <g id="cell99">
  <circle cx="531.859" cy="497.637" r="8.41271" stroke-width="0.5" stroke="black" fill="Red"/>
  <circle cx="531.859" cy="497.637" r="5.05167" stroke-width="0.5" stroke="Red" fill="Red"/>
   </g>
   <g id="cell100">
  <circle cx="519.32" cy="500.832" r="7.1497" stroke-width="0.5" stroke="black" fill="blue"/>
  <circle cx="519.32" cy="500.832" r="4.34001" stroke-width="0.5" stroke="blue" fill="blue"/>
   </g>
   <g id="cell101">
  <circle cx="520.753" cy="527.118" r="8.41271" stroke-width="0.5" stroke="black" fill="Red"/>
  <circle cx="520.753" cy="527.118" r="5.05167" stroke-width="0.5" stroke="Red" fill="Red"/>
   </g>
   <g id="cell102">
  <circle cx="528.532" cy="535.323" r="7.9229" stroke-width="0.5" stroke="black" fill="Red"/>
  <circle cx="528.532" cy="535.323" r="4.80599" stroke-width="0.5" stroke="Red" fill="Red"/>
   </g>
   <g id="cell103">
  <circle cx="528.396" cy="550.356" r="8.41271" stroke-width="0.5" stroke="black" fill="Red"/>
  <circle cx="528.396" cy="550.356" r="5.05167" stroke-width="0.5" stroke="Red" fill="Red"/>
   </g>
   <g id="cell104">
  <circle cx="528.61" cy="565.432" r="8.41271" stroke-width="0.5" stroke="black" fill="yellow"/>
  <circle cx="528.61" cy="565.432" r="5.05167" stroke-width="0.5" stroke="yellow" fill="yellow"/>
   </g>
   <g id="cell105">
  <circle cx="526.481" cy="581.516" r="8.41271" stroke-width="0.5" stroke="black" fill="blue"/>
  <circle cx="526.481" cy="581.516" r="5.05167" stroke-width="0.5" stroke="blue" fill="blue"/>
   </g>
   <g id="cell106">
  <circle cx="542.532" cy="413.911" r="7.18097" stroke-width="0.5" stroke="black" fill="yellow"/>
  <circle cx="542.532" cy="413.911" r="4.36015" stroke-width="0.5" stroke="yellow" fill="yellow"/>
   </g>
   <g id="cell107">
  <circle cx="541.391" cy="436.925" r="8.41271" stroke-width="0.5" stroke="black" fill="Red"/>
  <circle cx="541.391" cy="436.925" r="5.05167" stroke-width="0.5" stroke="Red" fill="Red"/>
   </g>
   <g id="cell108">
  <circle cx="532.563" cy="448.133" r="8.41271" stroke-width="0.5" stroke="black" fill="Red"/>
  <circle cx="532.563" cy="448.133" r="5.05167" stroke-width="0.5" stroke="Red" fill="Red"/>
   </g>
   <g id="cell109">
  <circle cx="549.138" cy="466.753" r="8.41271" stroke-width="0.5" stroke="black" fill="Red"/>
  <circle cx="549.138" cy="466.753" r="5.05167" stroke-width="0.5" stroke="Red" fill="Red"/>
   </g>
   <g id="cell110">
  <circle cx="529.379" cy="481.957" r="8.41271" stroke-width="0.5" stroke="black" fill="Red"/>
  <circle cx="529.379" cy="481.957" r="5.05167" stroke-width="0.5" stroke="Red" fill="Red"/>
   </g>
   <g id="cell111">
  <circle cx="539.703" cy="488.229" r="8.41271" stroke-width="0.5" stroke="black" fill="Red"/>
  <circle cx="539.703" cy="488.229" r="5.05167" stroke-width="0.5" stroke="Red" fill="Red"/>
   </g>
   <g id="cell112">
  <circle cx="540.938" cy="506.321" r="8.41271" stroke-width="0.5" stroke="black" fill="Red"/>
  <circle cx="540.938" cy="506.321" r="5.05167" stroke-width="0.5" stroke="Red" fill="Red"/>
   </g>
   <g id="cell113">
  <circle cx="529.272" cy="511.06" r="8.41271" stroke-width="0.5" stroke="black" fill="Red"/>
  <circle cx="529.272" cy="511.06" r="5.05167" stroke-width="0.5" stroke="Red" fill="Red"/>
   </g>
   <g id="cell114">
  <circle cx="533.463" cy="522.967" r="8.41271" stroke-width="0.5" stroke="black" fill="Red"/>
  <circle cx="533.463" cy="522.967" r="5.05167" stroke-width="0.5" stroke="Red" fill="Red"/>
   </g>
   <g id="cell115">
  <circle cx="537.956" cy="543.085" r="8.41271" stroke-width="0.5" stroke="black" fill="Red"/>
  <circle cx="537.956" cy="543.085" r="5.05167" stroke-width="0.5" stroke="Red" fill="Red"/>
   </g>
   <g id="cell116">
  <circle cx="545.805" cy="562.037" r="6.75639" stroke-width="0.5" stroke="black" fill="Red"/>
  <circle cx="545.805" cy="562.037" r="4.06813" stroke-width="0.5" stroke="Red" fill="Red"/>
   </g>
   <g id="cell117">
  <circle cx="541.346" cy="573.083" r="8.41271" stroke-width="0.5" stroke="black" fill="yellow"/>
  <circle cx="541.346" cy="573.083" r="5.05167" stroke-width="0.5" stroke="yellow" fill="yellow"/>
   </g>
   <g id="cell118">
  <circle cx="548.733" cy="425.473" r="8.41271" stroke-width="0.5" stroke="black" fill="Red"/>
  <circle cx="548.733" cy="425.473" r="5.05167" stroke-width="0.5" stroke="Red" fill="Red"/>
   </g>
   <g id="cell119">
  <circle cx="555.612" cy="438.967" r="8.41271" stroke-width="0.5" stroke="black" fill="Red"/>
  <circle cx="555.612" cy="438.967" r="5.05167" stroke-width="0.5" stroke="Red" fill="Red"/>
   </g>
   <g id="cell120">
  <circle cx="554.699" cy="456.803" r="7.77763" stroke-width="0.5" stroke="black" fill="Red"/>
  <circle cx="554.699" cy="456.803" r="4.7232" stroke-width="0.5" stroke="Red" fill="Red"/>
   </g>
   <g id="cell121">
  <circle cx="559.4" cy="473.676" r="8.41271" stroke-width="0.5" stroke="black" fill="Red"/>
  <circle cx="559.4" cy="473.676" r="5.05167" stroke-width="0.5" stroke="Red" fill="Red"/>
   </g>
   <g id="cell122">
  <circle cx="547.677" cy="479.107" r="8.41271" stroke-width="0.5" stroke="black" fill="blue"/>
  <circle cx="547.677" cy="479.107" r="5.05167" stroke-width="0.5" stroke="blue" fill="blue"/>
   </g>
   <g id="cell123">
  <circle cx="549.178" cy="497.137" r="8.41271" stroke-width="0.5" stroke="black" fill="Red"/>
  <circle cx="549.178" cy="497.137" r="5.05167" stroke-width="0.5" stroke="Red" fill="Red"/>
   </g>
   <g id="cell124">
  <circle cx="554.221" cy="510.397" r="8.41271" stroke-width="0.5" stroke="black" fill="Red"/>
  <circle cx="554.221" cy="510.397" r="5.05167" stroke-width="0.5" stroke="Red" fill="Red"/>
   </g>
   <g id="cell125">
  <circle cx="543.369" cy="518.27" r="7.79564" stroke-width="0.5" stroke="black" fill="blue"/>
  <circle cx="543.369" cy="518.27" r="4.73359" stroke-width="0.5" stroke="blue" fill="blue"/>
   </g>
   <g id="cell126">
  <circle cx="544.473" cy="531.754" r="8.41271" stroke-width="0.5" stroke="black" fill="Red"/>
  <circle cx="544.473" cy="531.754" r="5.05167" stroke-width="0.5" stroke="Red" fill="Red"/>
   </g>
   <g id="cell127">
  <circle cx="548.432" cy="550.028" r="8.41271" stroke-width="0.5" stroke="black" fill="Red"/>
  <circle cx="548.432" cy="550.028" r="5.05167" stroke-width="0.5" stroke="Red" fill="Red"/>
   </g>
   <g id="cell128">
  <circle cx="557.163" cy="561.799" r="8.41271" stroke-width="0.5" stroke="black" fill="blue"/>
  <circle cx="557.163" cy="561.799" r="5.05167" stroke-width="0.5" stroke="blue" fill="blue"/>
   </g>
   <g id="cell129">
  <circle cx="576.64" cy="454.853" r="7.75912" stroke-width="0.5" stroke="black" fill="Red"/>
  <circle cx="576.64" cy="454.853" r="4.71248" stroke-width="0.5" stroke="Red" fill="Red"/>
   </g>
   <g id="cell130">
  <circle cx="564.582" cy="462.729" r="8.41271" stroke-width="0.5" stroke="black" fill="Red"/>
  <circle cx="564.582" cy="462.729" r="5.05167" stroke-width="0.5" stroke="Red" fill="Red"/>
   </g>
   <g id="cell131">
  <circle cx="570.609" cy="478.856" r="8.41271" stroke-width="0.5" stroke="black" fill="Red"/>
  <circle cx="570.609" cy="478.856" r="5.05167" stroke-width="0.5" stroke="Red" fill="Red"/>
   </g>
   <g id="cell132">
  <circle cx="558.832" cy="488.08" r="8.41271" stroke-width="0.5" stroke="black" fill="Red"/>
  <circle cx="558.832" cy="488.08" r="5.05167" stroke-width="0.5" stroke="Red" fill="Red"/>
   </g>
   <g id="cell133">
  <circle cx="564.111" cy="500.235" r="8.41271" stroke-width="0.5" stroke="black" fill="blue"/>
  <circle cx="564.111" cy="500.235" r="5.05167" stroke-width="0.5" stroke="blue" fill="blue"/>
   </g>
   <g id="cell134">
  <circle cx="566.364" cy="514.548" r="8.41271" stroke-width="0.5" stroke="black" fill="Red"/>
  <circle cx="566.364" cy="514.548" r="5.05167" stroke-width="0.5" stroke="Red" fill="Red"/>
   </g>
   <g id="cell135">
  <circle cx="568.28" cy="529.301" r="8.41271" stroke-width="0.5" stroke="black" fill="yellow"/>
  <circle cx="568.28" cy="529.301" r="5.05167" stroke-width="0.5" stroke="yellow" fill="yellow"/>
   </g>
   <g id="cell136">
  <circle cx="556.707" cy="538.643" r="8.41271" stroke-width="0.5" stroke="black" fill="Red"/>
  <circle cx="556.707" cy="538.643" r="5.05167" stroke-width="0.5" stroke="Red" fill="Red"/>
   </g>
   <g id="cell137">
  <circle cx="568.427" cy="556.73" r="6.86652" stroke-width="0.5" stroke="black" fill="Red"/>
  <circle cx="568.427" cy="556.73" r="4.14883" stroke-width="0.5" stroke="Red" fill="Red"/>
   </g>
   <g id="cell138">
  <circle cx="575.829" cy="468.582" r="8.41271" stroke-width="0.5" stroke="black" fill="blue"/>
  <circle cx="575.829" cy="468.582" r="5.05167" stroke-width="0.5" stroke="blue" fill="blue"/>
   </g>
   <g id="cell139">
  <circle cx="584.675" cy="480.349" r="8.41271" stroke-width="0.5" stroke="black" fill="yellow"/>
  <circle cx="584.675" cy="480.349" r="5.05167" stroke-width="0.5" stroke="yellow" fill="yellow"/>
   </g>
   <g id="cell140">
  <circle cx="572.584" cy="491.109" r="7.97646" stroke-width="0.5" stroke="black" fill="Red"/>
  <circle cx="572.584" cy="491.109" r="4.83584" stroke-width="0.5" stroke="Red" fill="Red"/>
   </g>
   <g id="cell141">
  <circle cx="576.768" cy="505.249" r="8.41271" stroke-width="0.5" stroke="black" fill="yellow"/>
  <circle cx="576.768" cy="505.249" r="5.05167" stroke-width="0.5" stroke="yellow" fill="yellow"/>
   </g>
   <g id="cell142">
  <circle cx="578.875" cy="519.608" r="7.63698" stroke-width="0.5" stroke="black" fill="blue"/>
  <circle cx="578.875" cy="519.608" r="4.64085" stroke-width="0.5" stroke="blue" fill="blue"/>
   </g>
   <g id="cell143">
  <circle cx="570.267" cy="544.054" r="8.41271" stroke-width="0.5" stroke="black" fill="blue"/>
  <circle cx="570.267" cy="544.054" r="5.05167" stroke-width="0.5" stroke="blue" fill="blue"/>
   </g>
   <g id="cell144">
  <circle cx="428.767" cy="435.469" r="6.98425" stroke-width="0.5" stroke="black" fill="blue"/>
  <circle cx="428.767" cy="435.469" r="4.27453" stroke-width="0.5" stroke="blue" fill="blue"/>
   </g>
   <g id="cell145">
  <circle cx="582.031" cy="494.716" r="6.33092" stroke-width="0.5" stroke="black" fill="blue"/>
  <circle cx="582.031" cy="494.716" r="3.83821" stroke-width="0.5" stroke="blue" fill="blue"/>
   </g>
   <g id="cell146">
  <circle cx="476.583" cy="508.518" r="7.36955" stroke-width="0.5" stroke="black" fill="Red"/>
  <circle cx="476.583" cy="508.518" r="4.50747" stroke-width="0.5" stroke="Red" fill="Red"/>
   </g>
   <g id="cell147">
  <circle cx="540.319" cy="459.635" r="7.67537" stroke-width="0.5" stroke="black" fill="blue"/>
  <circle cx="540.319" cy="459.635" r="4.68302" stroke-width="0.5" stroke="blue" fill="blue"/>
   </g>
   <g id="cell148">
  <circle cx="519.369" cy="541.452" r="7.9229" stroke-width="0.5" stroke="black" fill="blue"/>
  <circle cx="519.369" cy="541.452" r="4.80599" stroke-width="0.5" stroke="blue" fill="blue"/>
   </g>
   <g id="cell149">
  <circle cx="537.377" cy="471.589" r="7.67537" stroke-width="0.5" stroke="black" fill="Red"/>
  <circle cx="537.377" cy="471.589" r="4.68302" stroke-width="0.5" stroke="Red" fill="Red"/>
   </g>
   <g id="cell150">
  <circle cx="445.094" cy="511.36" r="7.84675" stroke-width="0.5" stroke="black" fill="blue"/>
  <circle cx="445.094" cy="511.36" r="4.7629" stroke-width="0.5" stroke="blue" fill="blue"/>
   </g>
   <g id="cell151">
  <circle cx="453.082" cy="415.559" r="7.84675" stroke-width="0.5" stroke="black" fill="blue"/>
  <circle cx="453.082" cy="415.559" r="4.7629" stroke-width="0.5" stroke="blue" fill="blue"/>
   </g>
   <g id="cell152">
  <circle cx="481.814" cy="461.385" r="7.81315" stroke-width="0.5" stroke="black" fill="Red"/>
  <circle cx="481.814" cy="461.385" r="4.74367" stroke-width="0.5" stroke="Red" fill="Red"/>
   </g>
   <g id="cell153">
  <circle cx="522.801" cy="422.337" r="7.79564" stroke-width="0.5" stroke="black" fill="Red"/>
  <circle cx="522.801" cy="422.337" r="4.73359" stroke-width="0.5" stroke="Red" fill="Red"/>
   </g>
   <g id="cell154">
  <circle cx="555.407" cy="523.176" r="7.79564" stroke-width="0.5" stroke="black" fill="Red"/>
  <circle cx="555.407" cy="523.176" r="4.73359" stroke-width="0.5" stroke="Red" fill="Red"/>
   </g>
   <g id="cell155">
  <circle cx="440.675" cy="420.333" r="7.47473" stroke-width="0.5" stroke="black" fill="yellow"/>
  <circle cx="440.675" cy="420.333" r="4.56983" stroke-width="0.5" stroke="yellow" fill="yellow"/>
   </g>
   <g id="cell156">
  <circle cx="509.151" cy="521.424" r="7.77763" stroke-width="0.5" stroke="black" fill="blue"/>
  <circle cx="509.151" cy="521.424" r="4.7232" stroke-width="0.5" stroke="blue" fill="blue"/>
   </g>
   <g id="cell157">
  <circle cx="546.55" cy="450.209" r="7.77763" stroke-width="0.5" stroke="black" fill="blue"/>
  <circle cx="546.55" cy="450.209" r="4.7232" stroke-width="0.5" stroke="blue" fill="blue"/>
   </g>
   <g id="cell158">
  <circle cx="558.519" cy="448.404" r="5.8272" stroke-width="0.5" stroke="black" fill="Red"/>
  <circle cx="558.519" cy="448.404" r="3.59004" stroke-width="0.5" stroke="Red" fill="Red"/>
   </g>
   <g id="cell159">
  <circle cx="472.302" cy="531.663" r="7.7401" stroke-width="0.5" stroke="black" fill="Red"/>
  <circle cx="472.302" cy="531.663" r="4.70142" stroke-width="0.5" stroke="Red" fill="Red"/>
   </g>
   <g id="cell160">
  <circle cx="506.414" cy="558.362" r="7.72056" stroke-width="0.5" stroke="black" fill="blue"/>
  <circle cx="506.414" cy="558.362" r="4.69003" stroke-width="0.5" stroke="blue" fill="blue"/>
   </g>
   <g id="cell161">
  <circle cx="516.905" cy="480.627" r="6.87948" stroke-width="0.5" stroke="black" fill="Red"/>
  <circle cx="516.905" cy="480.627" r="4.21925" stroke-width="0.5" stroke="Red" fill="Red"/>
   </g>
   <g id="cell162">
  <circle cx="580.859" cy="533.758" r="7.63698" stroke-width="0.5" stroke="black" fill="Red"/>
  <circle cx="580.859" cy="533.758" r="4.64085" stroke-width="0.5" stroke="Red" fill="Red"/>
   </g>
   <g id="cell163">
  <circle cx="468.363" cy="517.327" r="7.36955" stroke-width="0.5" stroke="black" fill="Red"/>
  <circle cx="468.363" cy="517.327" r="4.50747" stroke-width="0.5" stroke="Red" fill="Red"/>
   </g>
   <g id="cell164">
  <circle cx="433.115" cy="493.769" r="7.63698" stroke-width="0.5" stroke="black" fill="Red"/>
  <circle cx="433.115" cy="493.769" r="4.64085" stroke-width="0.5" stroke="Red" fill="Red"/>
   </g>
   <g id="cell165">
  <circle cx="467.506" cy="443.287" r="7.59183" stroke-width="0.5" stroke="black" fill="Red"/>
  <circle cx="467.506" cy="443.287" r="4.61399" stroke-width="0.5" stroke="Red" fill="Red"/>
   </g>
   <g id="cell166">
  <circle cx="488.611" cy="435.756" r="7.59183" stroke-width="0.5" stroke="black" fill="blue"/>
  <circle cx="488.611" cy="435.756" r="4.61399" stroke-width="0.5" stroke="blue" fill="blue"/>
   </g>
   <g id="cell167">
  <circle cx="517.691" cy="457.995" r="7.32102" stroke-width="0.5" stroke="black" fill="Red"/>
  <circle cx="517.691" cy="457.995" r="4.47885" stroke-width="0.5" stroke="Red" fill="Red"/>
   </g>
   <g id="cell168">
  <circle cx="426.496" cy="527.169" r="6.88825" stroke-width="0.5" stroke="black" fill="Red"/>
  <circle cx="426.496" cy="527.169" r="4.2256" stroke-width="0.5" stroke="Red" fill="Red"/>
   </g>
   <g id="cell169">
  <circle cx="417.711" cy="459.633" r="7.46878" stroke-width="0.5" stroke="black" fill="blue"/>
  <circle cx="417.711" cy="459.633" r="4.53982" stroke-width="0.5" stroke="blue" fill="blue"/>
   </g>
   <g id="cell170">
  <circle cx="513.591" cy="490.374" r="5.80507" stroke-width="0.5" stroke="black" fill="Red"/>
  <circle cx="513.591" cy="490.374" r="3.57771" stroke-width="0.5" stroke="Red" fill="Red"/>
   </g>
   <g id="cell171">
  <circle cx="454.034" cy="582.507" r="7.41548" stroke-width="0.5" stroke="black" fill="yellow"/>
  <circle cx="454.034" cy="582.507" r="4.50723" stroke-width="0.5" stroke="yellow" fill="yellow"/>
   </g>
   <g id="cell172">
  <circle cx="569.177" cy="442.261" r="7.00434" stroke-width="0.5" stroke="black" fill="blue"/>
  <circle cx="569.177" cy="442.261" r="4.2934" stroke-width="0.5" stroke="blue" fill="blue"/>
   </g>
   <g id="cell173">
  <circle cx="420.267" cy="516.796" r="6.88825" stroke-width="0.5" stroke="black" fill="Red"/>
  <circle cx="420.267" cy="516.796" r="4.2256" stroke-width="0.5" stroke="Red" fill="Red"/>
   </g>
   <g id="cell174">
  <circle cx="525.306" cy="472.121" r="6.87948" stroke-width="0.5" stroke="black" fill="blue"/>
  <circle cx="525.306" cy="472.121" r="4.21925" stroke-width="0.5" stroke="blue" fill="blue"/>
   </g>
   <g id="cell175">
  <circle cx="510.766" cy="422.569" r="7.27253" stroke-width="0.5" stroke="black" fill="Red"/>
  <circle cx="510.766" cy="422.569" r="4.41835" stroke-width="0.5" stroke="Red" fill="Red"/>
   </g>
   <g id="cell176">
  <circle cx="439.503" cy="433.824" r="6.98425" stroke-width="0.5" stroke="black" fill="yellow"/>
  <circle cx="439.503" cy="433.824" r="4.27453" stroke-width="0.5" stroke="yellow" fill="yellow"/>
   </g>
   <g id="cell177">
  <circle cx="554.785" cy="413.679" r="7.18097" stroke-width="0.5" stroke="black" fill="blue"/>
  <circle cx="554.785" cy="413.679" r="4.36015" stroke-width="0.5" stroke="blue" fill="blue"/>
   </g>
   <g id="cell178">
  <circle cx="521.027" cy="517.092" r="7.1497" stroke-width="0.5" stroke="black" fill="Red"/>
  <circle cx="521.027" cy="517.092" r="4.34001" stroke-width="0.5" stroke="Red" fill="Red"/>
   </g>
   <g id="cell179">
  <circle cx="454.165" cy="528.061" r="7.1497" stroke-width="0.5" stroke="black" fill="Red"/>
  <circle cx="454.165" cy="528.061" r="4.34001" stroke-width="0.5" stroke="Red" fill="Red"/>
   </g>
   <g id="cell180">
  <circle cx="458.505" cy="435.448" r="7.1497" stroke-width="0.5" stroke="black" fill="Red"/>
  <circle cx="458.505" cy="435.448" r="4.34001" stroke-width="0.5" stroke="Red" fill="Red"/>
   </g>
   <g id="cell181">
  <circle cx="492.593" cy="503.477" r="7.08639" stroke-width="0.5" stroke="black" fill="blue"/>
  <circle cx="492.593" cy="503.477" r="4.29876" stroke-width="0.5" stroke="blue" fill="blue"/>
   </g>
   <g id="cell182">
  <circle cx="472.291" cy="554.811" r="7.0545" stroke-width="0.5" stroke="black" fill="Red"/>
  <circle cx="472.291" cy="554.811" r="4.27772" stroke-width="0.5" stroke="Red" fill="Red"/>
   </g>
   <g id="cell183">
  <circle cx="470.034" cy="431.238" r="6.99069" stroke-width="0.5" stroke="black" fill="blue"/>
  <circle cx="470.034" cy="431.238" r="4.23498" stroke-width="0.5" stroke="blue" fill="blue"/>
   </g>
   <g id="cell184">
  <circle cx="502.081" cy="439.517" r="6.95901" stroke-width="0.5" stroke="black" fill="blue"/>
  <circle cx="502.081" cy="439.517" r="4.21341" stroke-width="0.5" stroke="blue" fill="blue"/>
   </g>
   <g id="cell185">
  <circle cx="489.982" cy="586.862" r="6.89675" stroke-width="0.5" stroke="black" fill="Red"/>
  <circle cx="489.982" cy="586.862" r="4.17024" stroke-width="0.5" stroke="Red" fill="Red"/>
   </g>
   <g id="cell186">
  <circle cx="506.956" cy="486.165" r="5.80507" stroke-width="0.5" stroke="black" fill="blue"/>
  <circle cx="506.956" cy="486.165" r="3.57771" stroke-width="0.5" stroke="blue" fill="blue"/>
   </g>
   <g id="cell187">
  <circle cx="566.439" cy="451.906" r="5.8272" stroke-width="0.5" stroke="black" fill="Red"/>
  <circle cx="566.439" cy="451.906" r="3.59004" stroke-width="0.5" stroke="Red" fill="Red"/>
   </g>
   <g id="cell188">
  <circle cx="560.287" cy="550.075" r="6.86652" stroke-width="0.5" stroke="black" fill="Red"/>
  <circle cx="560.287" cy="550.075" r="4.14883" stroke-width="0.5" stroke="Red" fill="Red"/>
   </g>
   <g id="cell189">
  <circle cx="463.543" cy="525.01" r="6.83713" stroke-width="0.5" stroke="black" fill="Red"/>
  <circle cx="463.543" cy="525.01" r="4.12773" stroke-width="0.5" stroke="Red" fill="Red"/>
   </g>
   <g id="cell190">
  <circle cx="459.673" cy="514.786" r="5.54538" stroke-width="0.5" stroke="black" fill="Red"/>
  <circle cx="459.673" cy="514.786" r="3.36222" stroke-width="0.5" stroke="Red" fill="Red"/>
   </g>
   <g id="cell191">
  <circle cx="538.217" cy="556.099" r="6.75639" stroke-width="0.5" stroke="black" fill="blue"/>
  <circle cx="538.217" cy="556.099" r="4.06813" stroke-width="0.5" stroke="blue" fill="blue"/>
   </g>
   <g id="cell192">
  <circle cx="517.482" cy="469.325" r="6.71158" stroke-width="0.5" stroke="black" fill="blue"/>
  <circle cx="517.482" cy="469.325" r="4.03435" stroke-width="0.5" stroke="blue" fill="blue"/>
   </g>
   <g id="cell193">
  <circle cx="591.595" cy="492.762" r="6.33092" stroke-width="0.5" stroke="black" fill="blue"/>
  <circle cx="591.595" cy="492.762" r="3.83821" stroke-width="0.5" stroke="blue" fill="blue"/>
   </g>
   <g id="cell194">
  <circle cx="455.536" cy="570.631" r="6.67717" stroke-width="0.5" stroke="black" fill="blue"/>
  <circle cx="455.536" cy="570.631" r="4.00951" stroke-width="0.5" stroke="blue" fill="blue"/>
   </g>
  </g>
 </g>
  <rect x="775" y="1035" width="200" height="10" stroke-width="2" stroke="rgb(255,255,255)" fill="rgb(0,0,0)"/>
  <text x="781.25" y="1028.75"
   font-family="Arial" font-size="25" fill="black" >
   200 &#956;m
  </text>
  <text x="25" y="1045"
   font-family="Arial" font-size="18.75" fill="black" >
   0 days, 0 hours, 2 minutes, and 14.1564 seconds
  </text>
  <rect x="0" y="70" width="1000" height="1000" stroke-width="2" stroke="rgb(0,0,0)" fill="none"/>
</svg>
