<?xml version="1.0" encoding="UTF-8" standalone="no"?>
<!-- Created with PhysiCell (http://PhysiCell.MathCancer.org/) -->
<svg 
 xmlns:dc="http://purl.org/dc/elements/1.1/" 
 xmlns:cc="http://creativecommons.org/ns#" 
 xmlns:rdf="http://www.w3.org/1999/02/22-rdf-syntax-ns#" 
 xmlns:svg="http://www.w3.org/2000/svg" 
 xmlns="http://www.w3.org/2000/svg" 
 version="1.1" 
 width="1000" 
 height="1070" 
 id="svg2">
  <rect x="0" y="0" width="1000" height="1070" stroke-width="2" stroke="white" fill="white"/>
  <text x="12.5" y="30"
   font-family="Arial" font-size="25" fill="black" >
   Current time: 0 days, 1 hours, and 15.00 minutes, z = 0.00 &#956;m
  </text>
  <text x="12.5" y="57.5"
   font-family="Arial" font-size="23.75" fill="black" >
   152 agents
  </text>
 <g id="tissue" 
    transform="translate(0,1070) scale(1,-1)">
  <g id="ECM">
  </g>
  <g id="cells">
   <g id="cell0">
  <circle cx="423.399" cy="454.818" r="8.41271" stroke-width="0.5" stroke="black" fill="blue"/>
  <circle cx="423.399" cy="454.818" r="5.05167" stroke-width="0.5" stroke="blue" fill="blue"/>
   </g>
   <g id="cell1">
  <circle cx="424.094" cy="468.876" r="8.41271" stroke-width="0.5" stroke="black" fill="yellow"/>
  <circle cx="424.094" cy="468.876" r="5.05167" stroke-width="0.5" stroke="yellow" fill="yellow"/>
   </g>
   <g id="cell2">
  <circle cx="427.237" cy="481.889" r="8.41271" stroke-width="0.5" stroke="black" fill="blue"/>
  <circle cx="427.237" cy="481.889" r="5.05167" stroke-width="0.5" stroke="blue" fill="blue"/>
   </g>
   <g id="cell3">
  <circle cx="426.254" cy="495.916" r="8.41271" stroke-width="0.5" stroke="black" fill="Red"/>
  <circle cx="426.254" cy="495.916" r="5.05167" stroke-width="0.5" stroke="Red" fill="Red"/>
   </g>
   <g id="cell4">
  <circle cx="429.661" cy="509.508" r="8.41271" stroke-width="0.5" stroke="black" fill="blue"/>
  <circle cx="429.661" cy="509.508" r="5.05167" stroke-width="0.5" stroke="blue" fill="blue"/>
   </g>
   <g id="cell5">
  <circle cx="425.891" cy="522.392" r="8.41271" stroke-width="0.5" stroke="black" fill="yellow"/>
  <circle cx="425.891" cy="522.392" r="5.05167" stroke-width="0.5" stroke="yellow" fill="yellow"/>
   </g>
   <g id="cell6">
  <circle cx="425.85" cy="536.117" r="8.41271" stroke-width="0.5" stroke="black" fill="blue"/>
  <circle cx="425.85" cy="536.117" r="5.05167" stroke-width="0.5" stroke="blue" fill="blue"/>
   </g>
   <g id="cell7">
  <circle cx="435.329" cy="448.725" r="6.92764" stroke-width="0.5" stroke="black" fill="yellow"/>
  <circle cx="435.329" cy="448.725" r="4.1918" stroke-width="0.5" stroke="yellow" fill="yellow"/>
   </g>
   <g id="cell8">
  <circle cx="436.825" cy="461.448" r="8.41271" stroke-width="0.5" stroke="black" fill="Red"/>
  <circle cx="436.825" cy="461.448" r="5.05167" stroke-width="0.5" stroke="Red" fill="Red"/>
   </g>
   <g id="cell9">
  <circle cx="438.188" cy="474.507" r="8.41271" stroke-width="0.5" stroke="black" fill="Red"/>
  <circle cx="438.188" cy="474.507" r="5.05167" stroke-width="0.5" stroke="Red" fill="Red"/>
   </g>
   <g id="cell10">
  <circle cx="438.249" cy="488.601" r="8.41271" stroke-width="0.5" stroke="black" fill="Red"/>
  <circle cx="438.249" cy="488.601" r="5.05167" stroke-width="0.5" stroke="Red" fill="Red"/>
   </g>
   <g id="cell11">
  <circle cx="438.998" cy="501.673" r="8.41271" stroke-width="0.5" stroke="black" fill="Red"/>
  <circle cx="438.998" cy="501.673" r="5.05167" stroke-width="0.5" stroke="Red" fill="Red"/>
   </g>
   <g id="cell12">
  <circle cx="437.18" cy="519.848" r="6.69288" stroke-width="0.5" stroke="black" fill="Red"/>
  <circle cx="437.18" cy="519.848" r="4.02051" stroke-width="0.5" stroke="Red" fill="Red"/>
   </g>
   <g id="cell13">
  <circle cx="439.616" cy="530.909" r="8.41271" stroke-width="0.5" stroke="black" fill="yellow"/>
  <circle cx="439.616" cy="530.909" r="5.05167" stroke-width="0.5" stroke="yellow" fill="yellow"/>
   </g>
   <g id="cell14">
  <circle cx="439.395" cy="545.046" r="8.41271" stroke-width="0.5" stroke="black" fill="yellow"/>
  <circle cx="439.395" cy="545.046" r="5.05167" stroke-width="0.5" stroke="yellow" fill="yellow"/>
   </g>
   <g id="cell15">
  <circle cx="440.909" cy="560.106" r="8.41271" stroke-width="0.5" stroke="black" fill="blue"/>
  <circle cx="440.909" cy="560.106" r="5.05167" stroke-width="0.5" stroke="blue" fill="blue"/>
   </g>
   <g id="cell16">
  <circle cx="448.252" cy="428.524" r="6.69288" stroke-width="0.5" stroke="black" fill="Red"/>
  <circle cx="448.252" cy="428.524" r="4.02051" stroke-width="0.5" stroke="Red" fill="Red"/>
   </g>
   <g id="cell17">
  <circle cx="451.376" cy="439.612" r="8.41271" stroke-width="0.5" stroke="black" fill="Red"/>
  <circle cx="451.376" cy="439.612" r="5.05167" stroke-width="0.5" stroke="Red" fill="Red"/>
   </g>
   <g id="cell18">
  <circle cx="448.753" cy="452.348" r="8.41271" stroke-width="0.5" stroke="black" fill="Red"/>
  <circle cx="448.753" cy="452.348" r="5.05167" stroke-width="0.5" stroke="Red" fill="Red"/>
   </g>
   <g id="cell19">
  <circle cx="449.036" cy="468.137" r="8.41271" stroke-width="0.5" stroke="black" fill="blue"/>
  <circle cx="449.036" cy="468.137" r="5.05167" stroke-width="0.5" stroke="blue" fill="blue"/>
   </g>
   <g id="cell20">
  <circle cx="450.708" cy="481.238" r="8.41271" stroke-width="0.5" stroke="black" fill="Red"/>
  <circle cx="450.708" cy="481.238" r="5.05167" stroke-width="0.5" stroke="Red" fill="Red"/>
   </g>
   <g id="cell21">
  <circle cx="451.33" cy="494.696" r="8.41271" stroke-width="0.5" stroke="black" fill="Red"/>
  <circle cx="451.33" cy="494.696" r="5.05167" stroke-width="0.5" stroke="Red" fill="Red"/>
   </g>
   <g id="cell22">
  <circle cx="452.12" cy="508.874" r="8.41271" stroke-width="0.5" stroke="black" fill="blue"/>
  <circle cx="452.12" cy="508.874" r="5.05167" stroke-width="0.5" stroke="blue" fill="blue"/>
   </g>
   <g id="cell23">
  <circle cx="450.243" cy="522.511" r="8.41271" stroke-width="0.5" stroke="black" fill="Red"/>
  <circle cx="450.243" cy="522.511" r="5.05167" stroke-width="0.5" stroke="Red" fill="Red"/>
   </g>
   <g id="cell24">
  <circle cx="452.062" cy="536.677" r="8.41271" stroke-width="0.5" stroke="black" fill="blue"/>
  <circle cx="452.062" cy="536.677" r="5.05167" stroke-width="0.5" stroke="blue" fill="blue"/>
   </g>
   <g id="cell25">
  <circle cx="452.126" cy="551.903" r="8.41271" stroke-width="0.5" stroke="black" fill="yellow"/>
  <circle cx="452.126" cy="551.903" r="5.05167" stroke-width="0.5" stroke="yellow" fill="yellow"/>
   </g>
   <g id="cell26">
  <circle cx="452.047" cy="567.688" r="8.41271" stroke-width="0.5" stroke="black" fill="yellow"/>
  <circle cx="452.047" cy="567.688" r="5.05167" stroke-width="0.5" stroke="yellow" fill="yellow"/>
   </g>
   <g id="cell27">
  <circle cx="461.201" cy="418.9" r="8.41271" stroke-width="0.5" stroke="black" fill="yellow"/>
  <circle cx="461.201" cy="418.9" r="5.05167" stroke-width="0.5" stroke="yellow" fill="yellow"/>
   </g>
   <g id="cell28">
  <circle cx="462.244" cy="432.651" r="8.41271" stroke-width="0.5" stroke="black" fill="Red"/>
  <circle cx="462.244" cy="432.651" r="5.05167" stroke-width="0.5" stroke="Red" fill="Red"/>
   </g>
   <g id="cell29">
  <circle cx="462.038" cy="447.41" r="8.41271" stroke-width="0.5" stroke="black" fill="blue"/>
  <circle cx="462.038" cy="447.41" r="5.05167" stroke-width="0.5" stroke="blue" fill="blue"/>
   </g>
   <g id="cell30">
  <circle cx="461.545" cy="460.572" r="8.41271" stroke-width="0.5" stroke="black" fill="Red"/>
  <circle cx="461.545" cy="460.572" r="5.05167" stroke-width="0.5" stroke="Red" fill="Red"/>
   </g>
   <g id="cell31">
  <circle cx="462.533" cy="473.786" r="8.41271" stroke-width="0.5" stroke="black" fill="Red"/>
  <circle cx="462.533" cy="473.786" r="5.05167" stroke-width="0.5" stroke="Red" fill="Red"/>
   </g>
   <g id="cell32">
  <circle cx="463.331" cy="487.516" r="8.41271" stroke-width="0.5" stroke="black" fill="blue"/>
  <circle cx="463.331" cy="487.516" r="5.05167" stroke-width="0.5" stroke="blue" fill="blue"/>
   </g>
   <g id="cell33">
  <circle cx="461.878" cy="500.819" r="8.41271" stroke-width="0.5" stroke="black" fill="Red"/>
  <circle cx="461.878" cy="500.819" r="5.05167" stroke-width="0.5" stroke="Red" fill="Red"/>
   </g>
   <g id="cell34">
  <circle cx="464.423" cy="515.142" r="8.41271" stroke-width="0.5" stroke="black" fill="Red"/>
  <circle cx="464.423" cy="515.142" r="5.05167" stroke-width="0.5" stroke="Red" fill="Red"/>
   </g>
   <g id="cell35">
  <circle cx="462.936" cy="528.752" r="8.41271" stroke-width="0.5" stroke="black" fill="Red"/>
  <circle cx="462.936" cy="528.752" r="5.05167" stroke-width="0.5" stroke="Red" fill="Red"/>
   </g>
   <g id="cell36">
  <circle cx="464.47" cy="543.4" r="8.41271" stroke-width="0.5" stroke="black" fill="Red"/>
  <circle cx="464.47" cy="543.4" r="5.05167" stroke-width="0.5" stroke="Red" fill="Red"/>
   </g>
   <g id="cell37">
  <circle cx="464.24" cy="556.45" r="8.41271" stroke-width="0.5" stroke="black" fill="Red"/>
  <circle cx="464.24" cy="556.45" r="5.05167" stroke-width="0.5" stroke="Red" fill="Red"/>
   </g>
   <g id="cell38">
  <circle cx="464.936" cy="570.248" r="8.41271" stroke-width="0.5" stroke="black" fill="yellow"/>
  <circle cx="464.936" cy="570.248" r="5.05167" stroke-width="0.5" stroke="yellow" fill="yellow"/>
   </g>
   <g id="cell39">
  <circle cx="458.128" cy="583.626" r="8.41271" stroke-width="0.5" stroke="black" fill="blue"/>
  <circle cx="458.128" cy="583.626" r="5.05167" stroke-width="0.5" stroke="blue" fill="blue"/>
   </g>
   <g id="cell40">
  <circle cx="472.923" cy="411.762" r="8.41271" stroke-width="0.5" stroke="black" fill="blue"/>
  <circle cx="472.923" cy="411.762" r="5.05167" stroke-width="0.5" stroke="blue" fill="blue"/>
   </g>
   <g id="cell41">
  <circle cx="474.889" cy="425.727" r="8.41271" stroke-width="0.5" stroke="black" fill="Red"/>
  <circle cx="474.889" cy="425.727" r="5.05167" stroke-width="0.5" stroke="Red" fill="Red"/>
   </g>
   <g id="cell42">
  <circle cx="474.435" cy="439.964" r="8.41271" stroke-width="0.5" stroke="black" fill="Red"/>
  <circle cx="474.435" cy="439.964" r="5.05167" stroke-width="0.5" stroke="Red" fill="Red"/>
   </g>
   <g id="cell43">
  <circle cx="474.13" cy="454.209" r="8.41271" stroke-width="0.5" stroke="black" fill="Red"/>
  <circle cx="474.13" cy="454.209" r="5.05167" stroke-width="0.5" stroke="Red" fill="Red"/>
   </g>
   <g id="cell44">
  <circle cx="475.707" cy="467.265" r="8.41271" stroke-width="0.5" stroke="black" fill="blue"/>
  <circle cx="475.707" cy="467.265" r="5.05167" stroke-width="0.5" stroke="blue" fill="blue"/>
   </g>
   <g id="cell45">
  <circle cx="475.34" cy="481.007" r="8.41271" stroke-width="0.5" stroke="black" fill="Red"/>
  <circle cx="475.34" cy="481.007" r="5.05167" stroke-width="0.5" stroke="Red" fill="Red"/>
   </g>
   <g id="cell46">
  <circle cx="475.021" cy="495.475" r="8.41271" stroke-width="0.5" stroke="black" fill="Red"/>
  <circle cx="475.021" cy="495.475" r="5.05167" stroke-width="0.5" stroke="Red" fill="Red"/>
   </g>
   <g id="cell47">
  <circle cx="471.72" cy="506" r="6.89675" stroke-width="0.5" stroke="black" fill="blue"/>
  <circle cx="471.72" cy="506" r="4.17024" stroke-width="0.5" stroke="blue" fill="blue"/>
   </g>
   <g id="cell48">
  <circle cx="475.813" cy="521.787" r="8.41271" stroke-width="0.5" stroke="black" fill="Red"/>
  <circle cx="475.813" cy="521.787" r="5.05167" stroke-width="0.5" stroke="Red" fill="Red"/>
   </g>
   <g id="cell49">
  <circle cx="475.097" cy="535.778" r="8.41271" stroke-width="0.5" stroke="black" fill="Red"/>
  <circle cx="475.097" cy="535.778" r="5.05167" stroke-width="0.5" stroke="Red" fill="Red"/>
   </g>
   <g id="cell50">
  <circle cx="476.335" cy="550.353" r="8.41271" stroke-width="0.5" stroke="black" fill="Red"/>
  <circle cx="476.335" cy="550.353" r="5.05167" stroke-width="0.5" stroke="Red" fill="Red"/>
   </g>
   <g id="cell51">
  <circle cx="477.171" cy="564.054" r="8.41271" stroke-width="0.5" stroke="black" fill="Red"/>
  <circle cx="477.171" cy="564.054" r="5.05167" stroke-width="0.5" stroke="Red" fill="Red"/>
   </g>
   <g id="cell52">
  <circle cx="476.807" cy="577.951" r="8.41271" stroke-width="0.5" stroke="black" fill="Red"/>
  <circle cx="476.807" cy="577.951" r="5.05167" stroke-width="0.5" stroke="Red" fill="Red"/>
   </g>
   <g id="cell53">
  <circle cx="486.879" cy="417.653" r="8.41271" stroke-width="0.5" stroke="black" fill="yellow"/>
  <circle cx="486.879" cy="417.653" r="5.05167" stroke-width="0.5" stroke="yellow" fill="yellow"/>
   </g>
   <g id="cell54">
  <circle cx="487.491" cy="432.911" r="8.41271" stroke-width="0.5" stroke="black" fill="blue"/>
  <circle cx="487.491" cy="432.911" r="5.05167" stroke-width="0.5" stroke="blue" fill="blue"/>
   </g>
   <g id="cell55">
  <circle cx="487.705" cy="447.406" r="8.41271" stroke-width="0.5" stroke="black" fill="Red"/>
  <circle cx="487.705" cy="447.406" r="5.05167" stroke-width="0.5" stroke="Red" fill="Red"/>
   </g>
   <g id="cell56">
  <circle cx="488.029" cy="460.901" r="8.41271" stroke-width="0.5" stroke="black" fill="Red"/>
  <circle cx="488.029" cy="460.901" r="5.05167" stroke-width="0.5" stroke="Red" fill="Red"/>
   </g>
   <g id="cell57">
  <circle cx="488.141" cy="474.634" r="8.41271" stroke-width="0.5" stroke="black" fill="Red"/>
  <circle cx="488.141" cy="474.634" r="5.05167" stroke-width="0.5" stroke="Red" fill="Red"/>
   </g>
   <g id="cell58">
  <circle cx="487.819" cy="487.842" r="8.41271" stroke-width="0.5" stroke="black" fill="blue"/>
  <circle cx="487.819" cy="487.842" r="5.05167" stroke-width="0.5" stroke="blue" fill="blue"/>
   </g>
   <g id="cell59">
  <circle cx="487.928" cy="502.332" r="8.41271" stroke-width="0.5" stroke="black" fill="Red"/>
  <circle cx="487.928" cy="502.332" r="5.05167" stroke-width="0.5" stroke="Red" fill="Red"/>
   </g>
   <g id="cell60">
  <circle cx="489.177" cy="516.157" r="8.41271" stroke-width="0.5" stroke="black" fill="Red"/>
  <circle cx="489.177" cy="516.157" r="5.05167" stroke-width="0.5" stroke="Red" fill="Red"/>
   </g>
   <g id="cell61">
  <circle cx="487.79" cy="529.124" r="8.41271" stroke-width="0.5" stroke="black" fill="Red"/>
  <circle cx="487.79" cy="529.124" r="5.05167" stroke-width="0.5" stroke="Red" fill="Red"/>
   </g>
   <g id="cell62">
  <circle cx="488.78" cy="543.498" r="8.41271" stroke-width="0.5" stroke="black" fill="Red"/>
  <circle cx="488.78" cy="543.498" r="5.05167" stroke-width="0.5" stroke="Red" fill="Red"/>
   </g>
   <g id="cell63">
  <circle cx="489.05" cy="557.322" r="8.41271" stroke-width="0.5" stroke="black" fill="Red"/>
  <circle cx="489.05" cy="557.322" r="5.05167" stroke-width="0.5" stroke="Red" fill="Red"/>
   </g>
   <g id="cell64">
  <circle cx="490.081" cy="571.61" r="8.41271" stroke-width="0.5" stroke="black" fill="Red"/>
  <circle cx="490.081" cy="571.61" r="5.05167" stroke-width="0.5" stroke="Red" fill="Red"/>
   </g>
   <g id="cell65">
  <circle cx="490.184" cy="585.376" r="8.41271" stroke-width="0.5" stroke="black" fill="Red"/>
  <circle cx="490.184" cy="585.376" r="5.05167" stroke-width="0.5" stroke="Red" fill="Red"/>
   </g>
   <g id="cell66">
  <circle cx="501.831" cy="411.486" r="8.41271" stroke-width="0.5" stroke="black" fill="blue"/>
  <circle cx="501.831" cy="411.486" r="5.05167" stroke-width="0.5" stroke="blue" fill="blue"/>
   </g>
   <g id="cell67">
  <circle cx="500.401" cy="424.703" r="8.41271" stroke-width="0.5" stroke="black" fill="yellow"/>
  <circle cx="500.401" cy="424.703" r="5.05167" stroke-width="0.5" stroke="yellow" fill="yellow"/>
   </g>
   <g id="cell68">
  <circle cx="499.424" cy="438.5" r="8.41271" stroke-width="0.5" stroke="black" fill="Red"/>
  <circle cx="499.424" cy="438.5" r="5.05167" stroke-width="0.5" stroke="Red" fill="Red"/>
   </g>
   <g id="cell69">
  <circle cx="500.833" cy="454.291" r="8.41271" stroke-width="0.5" stroke="black" fill="blue"/>
  <circle cx="500.833" cy="454.291" r="5.05167" stroke-width="0.5" stroke="blue" fill="blue"/>
   </g>
   <g id="cell70">
  <circle cx="500.014" cy="468.546" r="8.41271" stroke-width="0.5" stroke="black" fill="blue"/>
  <circle cx="500.014" cy="468.546" r="5.05167" stroke-width="0.5" stroke="blue" fill="blue"/>
   </g>
   <g id="cell71">
  <circle cx="500.49" cy="482.377" r="8.41271" stroke-width="0.5" stroke="black" fill="Red"/>
  <circle cx="500.49" cy="482.377" r="5.05167" stroke-width="0.5" stroke="Red" fill="Red"/>
   </g>
   <g id="cell72">
  <circle cx="500.463" cy="496.529" r="8.41271" stroke-width="0.5" stroke="black" fill="Red"/>
  <circle cx="500.463" cy="496.529" r="5.05167" stroke-width="0.5" stroke="Red" fill="Red"/>
   </g>
   <g id="cell73">
  <circle cx="502.026" cy="509.886" r="8.41271" stroke-width="0.5" stroke="black" fill="blue"/>
  <circle cx="502.026" cy="509.886" r="5.05167" stroke-width="0.5" stroke="blue" fill="blue"/>
   </g>
   <g id="cell74">
  <circle cx="501.326" cy="523.131" r="8.41271" stroke-width="0.5" stroke="black" fill="Red"/>
  <circle cx="501.326" cy="523.131" r="5.05167" stroke-width="0.5" stroke="Red" fill="Red"/>
   </g>
   <g id="cell75">
  <circle cx="500.152" cy="536.142" r="8.41271" stroke-width="0.5" stroke="black" fill="Red"/>
  <circle cx="500.152" cy="536.142" r="5.05167" stroke-width="0.5" stroke="Red" fill="Red"/>
   </g>
   <g id="cell76">
  <circle cx="501.696" cy="550.522" r="8.41271" stroke-width="0.5" stroke="black" fill="Red"/>
  <circle cx="501.696" cy="550.522" r="5.05167" stroke-width="0.5" stroke="Red" fill="Red"/>
   </g>
   <g id="cell77">
  <circle cx="502.709" cy="563.957" r="8.41271" stroke-width="0.5" stroke="black" fill="Red"/>
  <circle cx="502.709" cy="563.957" r="5.05167" stroke-width="0.5" stroke="Red" fill="Red"/>
   </g>
   <g id="cell78">
  <circle cx="501.53" cy="578.944" r="8.41271" stroke-width="0.5" stroke="black" fill="yellow"/>
  <circle cx="501.53" cy="578.944" r="5.05167" stroke-width="0.5" stroke="yellow" fill="yellow"/>
   </g>
   <g id="cell79">
  <circle cx="502.93" cy="592.655" r="8.41271" stroke-width="0.5" stroke="black" fill="blue"/>
  <circle cx="502.93" cy="592.655" r="5.05167" stroke-width="0.5" stroke="blue" fill="blue"/>
   </g>
   <g id="cell80">
  <circle cx="514.242" cy="417.903" r="8.41271" stroke-width="0.5" stroke="black" fill="yellow"/>
  <circle cx="514.242" cy="417.903" r="5.05167" stroke-width="0.5" stroke="yellow" fill="yellow"/>
   </g>
   <g id="cell81">
  <circle cx="512.238" cy="432.058" r="8.41271" stroke-width="0.5" stroke="black" fill="Red"/>
  <circle cx="512.238" cy="432.058" r="5.05167" stroke-width="0.5" stroke="Red" fill="Red"/>
   </g>
   <g id="cell82">
  <circle cx="511.224" cy="445.382" r="8.41271" stroke-width="0.5" stroke="black" fill="Red"/>
  <circle cx="511.224" cy="445.382" r="5.05167" stroke-width="0.5" stroke="Red" fill="Red"/>
   </g>
   <g id="cell83">
  <circle cx="514.234" cy="459.835" r="8.41271" stroke-width="0.5" stroke="black" fill="Red"/>
  <circle cx="514.234" cy="459.835" r="5.05167" stroke-width="0.5" stroke="Red" fill="Red"/>
   </g>
   <g id="cell84">
  <circle cx="513.927" cy="475.029" r="8.41271" stroke-width="0.5" stroke="black" fill="blue"/>
  <circle cx="513.927" cy="475.029" r="5.05167" stroke-width="0.5" stroke="blue" fill="blue"/>
   </g>
   <g id="cell85">
  <circle cx="512.966" cy="489.229" r="8.41271" stroke-width="0.5" stroke="black" fill="Red"/>
  <circle cx="512.966" cy="489.229" r="5.05167" stroke-width="0.5" stroke="Red" fill="Red"/>
   </g>
   <g id="cell86">
  <circle cx="514.578" cy="502.06" r="8.41271" stroke-width="0.5" stroke="black" fill="Red"/>
  <circle cx="514.578" cy="502.06" r="5.05167" stroke-width="0.5" stroke="Red" fill="Red"/>
   </g>
   <g id="cell87">
  <circle cx="514.466" cy="516.515" r="8.41271" stroke-width="0.5" stroke="black" fill="Red"/>
  <circle cx="514.466" cy="516.515" r="5.05167" stroke-width="0.5" stroke="Red" fill="Red"/>
   </g>
   <g id="cell88">
  <circle cx="513.327" cy="530.644" r="8.41271" stroke-width="0.5" stroke="black" fill="Red"/>
  <circle cx="513.327" cy="530.644" r="5.05167" stroke-width="0.5" stroke="Red" fill="Red"/>
   </g>
   <g id="cell89">
  <circle cx="513.302" cy="544.036" r="8.41271" stroke-width="0.5" stroke="black" fill="Red"/>
  <circle cx="513.302" cy="544.036" r="5.05167" stroke-width="0.5" stroke="Red" fill="Red"/>
   </g>
   <g id="cell90">
  <circle cx="515.356" cy="557.234" r="8.41271" stroke-width="0.5" stroke="black" fill="blue"/>
  <circle cx="515.356" cy="557.234" r="5.05167" stroke-width="0.5" stroke="blue" fill="blue"/>
   </g>
   <g id="cell91">
  <circle cx="514.213" cy="571.556" r="8.41271" stroke-width="0.5" stroke="black" fill="Red"/>
  <circle cx="514.213" cy="571.556" r="5.05167" stroke-width="0.5" stroke="Red" fill="Red"/>
   </g>
   <g id="cell92">
  <circle cx="514.362" cy="585.382" r="8.41271" stroke-width="0.5" stroke="black" fill="Red"/>
  <circle cx="514.362" cy="585.382" r="5.05167" stroke-width="0.5" stroke="Red" fill="Red"/>
   </g>
   <g id="cell93">
  <circle cx="528.093" cy="412.596" r="8.41271" stroke-width="0.5" stroke="black" fill="blue"/>
  <circle cx="528.093" cy="412.596" r="5.05167" stroke-width="0.5" stroke="blue" fill="blue"/>
   </g>
   <g id="cell94">
  <circle cx="526.664" cy="426.367" r="8.41271" stroke-width="0.5" stroke="black" fill="yellow"/>
  <circle cx="526.664" cy="426.367" r="5.05167" stroke-width="0.5" stroke="yellow" fill="yellow"/>
   </g>
   <g id="cell95">
  <circle cx="525.884" cy="439.59" r="8.41271" stroke-width="0.5" stroke="black" fill="Red"/>
  <circle cx="525.884" cy="439.59" r="5.05167" stroke-width="0.5" stroke="Red" fill="Red"/>
   </g>
   <g id="cell96">
  <circle cx="523.632" cy="451.201" r="6.89675" stroke-width="0.5" stroke="black" fill="blue"/>
  <circle cx="523.632" cy="451.201" r="4.17024" stroke-width="0.5" stroke="blue" fill="blue"/>
   </g>
   <g id="cell97">
  <circle cx="525.586" cy="467.458" r="8.41271" stroke-width="0.5" stroke="black" fill="yellow"/>
  <circle cx="525.586" cy="467.458" r="5.05167" stroke-width="0.5" stroke="yellow" fill="yellow"/>
   </g>
   <g id="cell98">
  <circle cx="525.514" cy="481.286" r="8.41271" stroke-width="0.5" stroke="black" fill="blue"/>
  <circle cx="525.514" cy="481.286" r="5.05167" stroke-width="0.5" stroke="blue" fill="blue"/>
   </g>
   <g id="cell99">
  <circle cx="527.594" cy="496.204" r="8.41271" stroke-width="0.5" stroke="black" fill="Red"/>
  <circle cx="527.594" cy="496.204" r="5.05167" stroke-width="0.5" stroke="Red" fill="Red"/>
   </g>
   <g id="cell100">
  <circle cx="527.957" cy="510.318" r="8.41271" stroke-width="0.5" stroke="black" fill="blue"/>
  <circle cx="527.957" cy="510.318" r="5.05167" stroke-width="0.5" stroke="blue" fill="blue"/>
   </g>
   <g id="cell101">
  <circle cx="528.075" cy="524.526" r="8.41271" stroke-width="0.5" stroke="black" fill="Red"/>
  <circle cx="528.075" cy="524.526" r="5.05167" stroke-width="0.5" stroke="Red" fill="Red"/>
   </g>
   <g id="cell102">
  <circle cx="533.227" cy="536.806" r="6.80881" stroke-width="0.5" stroke="black" fill="blue"/>
  <circle cx="533.227" cy="536.806" r="4.10709" stroke-width="0.5" stroke="blue" fill="blue"/>
   </g>
   <g id="cell103">
  <circle cx="527.793" cy="549.219" r="8.41271" stroke-width="0.5" stroke="black" fill="Red"/>
  <circle cx="527.793" cy="549.219" r="5.05167" stroke-width="0.5" stroke="Red" fill="Red"/>
   </g>
   <g id="cell104">
  <circle cx="527.43" cy="563.895" r="8.41271" stroke-width="0.5" stroke="black" fill="Red"/>
  <circle cx="527.43" cy="563.895" r="5.05167" stroke-width="0.5" stroke="Red" fill="Red"/>
   </g>
   <g id="cell105">
  <circle cx="526.697" cy="577.584" r="8.41271" stroke-width="0.5" stroke="black" fill="blue"/>
  <circle cx="526.697" cy="577.584" r="5.05167" stroke-width="0.5" stroke="blue" fill="blue"/>
   </g>
   <g id="cell106">
  <circle cx="539.771" cy="420.105" r="8.41271" stroke-width="0.5" stroke="black" fill="yellow"/>
  <circle cx="539.771" cy="420.105" r="5.05167" stroke-width="0.5" stroke="yellow" fill="yellow"/>
   </g>
   <g id="cell107">
  <circle cx="539.457" cy="435.367" r="8.41271" stroke-width="0.5" stroke="black" fill="Red"/>
  <circle cx="539.457" cy="435.367" r="5.05167" stroke-width="0.5" stroke="Red" fill="Red"/>
   </g>
   <g id="cell108">
  <circle cx="536.396" cy="448.358" r="8.41271" stroke-width="0.5" stroke="black" fill="yellow"/>
  <circle cx="536.396" cy="448.358" r="5.05167" stroke-width="0.5" stroke="yellow" fill="yellow"/>
   </g>
   <g id="cell109">
  <circle cx="542.886" cy="459.901" r="8.41271" stroke-width="0.5" stroke="black" fill="Red"/>
  <circle cx="542.886" cy="459.901" r="5.05167" stroke-width="0.5" stroke="Red" fill="Red"/>
   </g>
   <g id="cell110">
  <circle cx="539.18" cy="474.639" r="8.41271" stroke-width="0.5" stroke="black" fill="Red"/>
  <circle cx="539.18" cy="474.639" r="5.05167" stroke-width="0.5" stroke="Red" fill="Red"/>
   </g>
   <g id="cell111">
  <circle cx="538.59" cy="488.397" r="8.41271" stroke-width="0.5" stroke="black" fill="Red"/>
  <circle cx="538.59" cy="488.397" r="5.05167" stroke-width="0.5" stroke="Red" fill="Red"/>
   </g>
   <g id="cell112">
  <circle cx="540.039" cy="502.423" r="8.41271" stroke-width="0.5" stroke="black" fill="Red"/>
  <circle cx="540.039" cy="502.423" r="5.05167" stroke-width="0.5" stroke="Red" fill="Red"/>
   </g>
   <g id="cell113">
  <circle cx="539.831" cy="515.1" r="8.41271" stroke-width="0.5" stroke="black" fill="Red"/>
  <circle cx="539.831" cy="515.1" r="5.05167" stroke-width="0.5" stroke="Red" fill="Red"/>
   </g>
   <g id="cell114">
  <circle cx="542.421" cy="529.658" r="8.41271" stroke-width="0.5" stroke="black" fill="Red"/>
  <circle cx="542.421" cy="529.658" r="5.05167" stroke-width="0.5" stroke="Red" fill="Red"/>
   </g>
   <g id="cell115">
  <circle cx="542.047" cy="544.988" r="8.41271" stroke-width="0.5" stroke="black" fill="Red"/>
  <circle cx="542.047" cy="544.988" r="5.05167" stroke-width="0.5" stroke="Red" fill="Red"/>
   </g>
   <g id="cell116">
  <circle cx="540.383" cy="558.988" r="8.41271" stroke-width="0.5" stroke="black" fill="Red"/>
  <circle cx="540.383" cy="558.988" r="5.05167" stroke-width="0.5" stroke="Red" fill="Red"/>
   </g>
   <g id="cell117">
  <circle cx="539.532" cy="572.386" r="8.41271" stroke-width="0.5" stroke="black" fill="blue"/>
  <circle cx="539.532" cy="572.386" r="5.05167" stroke-width="0.5" stroke="blue" fill="blue"/>
   </g>
   <g id="cell118">
  <circle cx="553.157" cy="427.911" r="8.41271" stroke-width="0.5" stroke="black" fill="blue"/>
  <circle cx="553.157" cy="427.911" r="5.05167" stroke-width="0.5" stroke="blue" fill="blue"/>
   </g>
   <g id="cell119">
  <circle cx="551.915" cy="441.905" r="8.41271" stroke-width="0.5" stroke="black" fill="yellow"/>
  <circle cx="551.915" cy="441.905" r="5.05167" stroke-width="0.5" stroke="yellow" fill="yellow"/>
   </g>
   <g id="cell120">
  <circle cx="554.906" cy="454.437" r="8.41271" stroke-width="0.5" stroke="black" fill="yellow"/>
  <circle cx="554.906" cy="454.437" r="5.05167" stroke-width="0.5" stroke="yellow" fill="yellow"/>
   </g>
   <g id="cell121">
  <circle cx="554.707" cy="468.736" r="8.41271" stroke-width="0.5" stroke="black" fill="blue"/>
  <circle cx="554.707" cy="468.736" r="5.05167" stroke-width="0.5" stroke="blue" fill="blue"/>
   </g>
   <g id="cell122">
  <circle cx="551.878" cy="482.222" r="8.41271" stroke-width="0.5" stroke="black" fill="Red"/>
  <circle cx="551.878" cy="482.222" r="5.05167" stroke-width="0.5" stroke="Red" fill="Red"/>
   </g>
   <g id="cell123">
  <circle cx="551.821" cy="496.131" r="8.41271" stroke-width="0.5" stroke="black" fill="Red"/>
  <circle cx="551.821" cy="496.131" r="5.05167" stroke-width="0.5" stroke="Red" fill="Red"/>
   </g>
   <g id="cell124">
  <circle cx="552.38" cy="510.061" r="8.41271" stroke-width="0.5" stroke="black" fill="Red"/>
  <circle cx="552.38" cy="510.061" r="5.05167" stroke-width="0.5" stroke="Red" fill="Red"/>
   </g>
   <g id="cell125">
  <circle cx="553.276" cy="523.42" r="8.41271" stroke-width="0.5" stroke="black" fill="Red"/>
  <circle cx="553.276" cy="523.42" r="5.05167" stroke-width="0.5" stroke="Red" fill="Red"/>
   </g>
   <g id="cell126">
  <circle cx="553.682" cy="538.057" r="8.41271" stroke-width="0.5" stroke="black" fill="blue"/>
  <circle cx="553.682" cy="538.057" r="5.05167" stroke-width="0.5" stroke="blue" fill="blue"/>
   </g>
   <g id="cell127">
  <circle cx="553.443" cy="552.143" r="8.41271" stroke-width="0.5" stroke="black" fill="Red"/>
  <circle cx="553.443" cy="552.143" r="5.05167" stroke-width="0.5" stroke="Red" fill="Red"/>
   </g>
   <g id="cell128">
  <circle cx="553.097" cy="566.509" r="8.41271" stroke-width="0.5" stroke="black" fill="yellow"/>
  <circle cx="553.097" cy="566.509" r="5.05167" stroke-width="0.5" stroke="yellow" fill="yellow"/>
   </g>
   <g id="cell129">
  <circle cx="566.834" cy="447.279" r="8.41271" stroke-width="0.5" stroke="black" fill="blue"/>
  <circle cx="566.834" cy="447.279" r="5.05167" stroke-width="0.5" stroke="blue" fill="blue"/>
   </g>
   <g id="cell130">
  <circle cx="566.755" cy="461.041" r="8.41271" stroke-width="0.5" stroke="black" fill="yellow"/>
  <circle cx="566.755" cy="461.041" r="5.05167" stroke-width="0.5" stroke="yellow" fill="yellow"/>
   </g>
   <g id="cell131">
  <circle cx="566.387" cy="475.149" r="8.41271" stroke-width="0.5" stroke="black" fill="yellow"/>
  <circle cx="566.387" cy="475.149" r="5.05167" stroke-width="0.5" stroke="yellow" fill="yellow"/>
   </g>
   <g id="cell132">
  <circle cx="564.59" cy="489.089" r="8.41271" stroke-width="0.5" stroke="black" fill="blue"/>
  <circle cx="564.59" cy="489.089" r="5.05167" stroke-width="0.5" stroke="blue" fill="blue"/>
   </g>
   <g id="cell133">
  <circle cx="565.691" cy="503.15" r="8.41271" stroke-width="0.5" stroke="black" fill="Red"/>
  <circle cx="565.691" cy="503.15" r="5.05167" stroke-width="0.5" stroke="Red" fill="Red"/>
   </g>
   <g id="cell134">
  <circle cx="565.21" cy="516.584" r="8.41271" stroke-width="0.5" stroke="black" fill="Red"/>
  <circle cx="565.21" cy="516.584" r="5.05167" stroke-width="0.5" stroke="Red" fill="Red"/>
   </g>
   <g id="cell135">
  <circle cx="565.486" cy="530.483" r="8.41271" stroke-width="0.5" stroke="black" fill="Red"/>
  <circle cx="565.486" cy="530.483" r="5.05167" stroke-width="0.5" stroke="Red" fill="Red"/>
   </g>
   <g id="cell136">
  <circle cx="566.476" cy="545.312" r="8.41271" stroke-width="0.5" stroke="black" fill="yellow"/>
  <circle cx="566.476" cy="545.312" r="5.05167" stroke-width="0.5" stroke="yellow" fill="yellow"/>
   </g>
   <g id="cell137">
  <circle cx="566.415" cy="559.584" r="8.41271" stroke-width="0.5" stroke="black" fill="blue"/>
  <circle cx="566.415" cy="559.584" r="5.05167" stroke-width="0.5" stroke="blue" fill="blue"/>
   </g>
   <g id="cell138">
  <circle cx="578.4" cy="466.905" r="8.41271" stroke-width="0.5" stroke="black" fill="blue"/>
  <circle cx="578.4" cy="466.905" r="5.05167" stroke-width="0.5" stroke="blue" fill="blue"/>
   </g>
   <g id="cell139">
  <circle cx="578.735" cy="483.202" r="8.41271" stroke-width="0.5" stroke="black" fill="yellow"/>
  <circle cx="578.735" cy="483.202" r="5.05167" stroke-width="0.5" stroke="yellow" fill="yellow"/>
   </g>
   <g id="cell140">
  <circle cx="575.5" cy="495.636" r="6.92764" stroke-width="0.5" stroke="black" fill="yellow"/>
  <circle cx="575.5" cy="495.636" r="4.1918" stroke-width="0.5" stroke="yellow" fill="yellow"/>
   </g>
   <g id="cell141">
  <circle cx="577.899" cy="509.772" r="8.41271" stroke-width="0.5" stroke="black" fill="Red"/>
  <circle cx="577.899" cy="509.772" r="5.05167" stroke-width="0.5" stroke="Red" fill="Red"/>
   </g>
   <g id="cell142">
  <circle cx="578.543" cy="523.468" r="8.41271" stroke-width="0.5" stroke="black" fill="yellow"/>
  <circle cx="578.543" cy="523.468" r="5.05167" stroke-width="0.5" stroke="yellow" fill="yellow"/>
   </g>
   <g id="cell143">
  <circle cx="577.534" cy="536.963" r="8.41271" stroke-width="0.5" stroke="black" fill="blue"/>
  <circle cx="577.534" cy="536.963" r="5.05167" stroke-width="0.5" stroke="blue" fill="blue"/>
   </g>
   <g id="cell144">
  <circle cx="439.763" cy="438.25" r="6.92764" stroke-width="0.5" stroke="black" fill="blue"/>
  <circle cx="439.763" cy="438.25" r="4.1918" stroke-width="0.5" stroke="blue" fill="blue"/>
   </g>
   <g id="cell145">
  <circle cx="586.87" cy="498.37" r="6.92764" stroke-width="0.5" stroke="black" fill="blue"/>
  <circle cx="586.87" cy="498.37" r="4.1918" stroke-width="0.5" stroke="blue" fill="blue"/>
   </g>
   <g id="cell146">
  <circle cx="479.47" cy="510.955" r="6.89675" stroke-width="0.5" stroke="black" fill="blue"/>
  <circle cx="479.47" cy="510.955" r="4.17024" stroke-width="0.5" stroke="blue" fill="blue"/>
   </g>
   <g id="cell147">
  <circle cx="530.618" cy="457.415" r="5.66683" stroke-width="0.5" stroke="black" fill="Red"/>
  <circle cx="530.618" cy="457.415" r="3.44866" stroke-width="0.5" stroke="Red" fill="Red"/>
   </g>
   <g id="cell148">
  <circle cx="522.747" cy="537.381" r="6.80881" stroke-width="0.5" stroke="black" fill="blue"/>
  <circle cx="522.747" cy="537.381" r="4.10709" stroke-width="0.5" stroke="blue" fill="blue"/>
   </g>
   <g id="cell149">
  <circle cx="535.579" cy="464.712" r="5.66683" stroke-width="0.5" stroke="black" fill="blue"/>
  <circle cx="535.579" cy="464.712" r="3.44866" stroke-width="0.5" stroke="blue" fill="blue"/>
   </g>
   <g id="cell150">
  <circle cx="441.606" cy="512.738" r="6.69288" stroke-width="0.5" stroke="black" fill="Red"/>
  <circle cx="441.606" cy="512.738" r="4.02051" stroke-width="0.5" stroke="Red" fill="Red"/>
   </g>
   <g id="cell151">
  <circle cx="447.992" cy="417.703" r="6.69288" stroke-width="0.5" stroke="black" fill="blue"/>
  <circle cx="447.992" cy="417.703" r="4.02051" stroke-width="0.5" stroke="blue" fill="blue"/>
   </g>
  </g>
 </g>
  <rect x="775" y="1035" width="200" height="10" stroke-width="2" stroke="rgb(255,255,255)" fill="rgb(0,0,0)"/>
  <text x="781.25" y="1028.75"
   font-family="Arial" font-size="25" fill="black" >
   200 &#956;m
  </text>
  <text x="25" y="1045"
   font-family="Arial" font-size="18.75" fill="black" >
   0 days, 0 hours, 0 minutes, and 20.8831 seconds
  </text>
  <rect x="0" y="70" width="1000" height="1000" stroke-width="2" stroke="rgb(0,0,0)" fill="none"/>
</svg>
