<?xml version="1.0" encoding="UTF-8" standalone="no"?>
<!-- Created with PhysiCell (http://PhysiCell.MathCancer.org/) -->
<svg 
 xmlns:dc="http://purl.org/dc/elements/1.1/" 
 xmlns:cc="http://creativecommons.org/ns#" 
 xmlns:rdf="http://www.w3.org/1999/02/22-rdf-syntax-ns#" 
 xmlns:svg="http://www.w3.org/2000/svg" 
 xmlns="http://www.w3.org/2000/svg" 
 version="1.1" 
 width="1000" 
 height="1070" 
 id="svg2">
  <rect x="0" y="0" width="1000" height="1070" stroke-width="2" stroke="white" fill="white"/>
  <text x="12.5" y="30"
   font-family="Arial" font-size="25" fill="black" >
   Current time: 0 days, 6 hours, and 40.00 minutes, z = 0.00 &#956;m
  </text>
  <text x="12.5" y="57.5"
   font-family="Arial" font-size="23.75" fill="black" >
   205 agents
  </text>
 <g id="tissue" 
    transform="translate(0,1070) scale(1,-1)">
  <g id="ECM">
  </g>
  <g id="cells">
   <g id="cell0">
  <circle cx="422.56" cy="445.54" r="8.41271" stroke-width="0.5" stroke="black" fill="Red"/>
  <circle cx="422.56" cy="445.54" r="5.05167" stroke-width="0.5" stroke="Red" fill="Red"/>
   </g>
   <g id="cell1">
  <circle cx="422.335" cy="469.863" r="7.67987" stroke-width="0.5" stroke="black" fill="Red"/>
  <circle cx="422.335" cy="469.863" r="4.66617" stroke-width="0.5" stroke="Red" fill="Red"/>
   </g>
   <g id="cell2">
  <circle cx="423.575" cy="482.544" r="8.41271" stroke-width="0.5" stroke="black" fill="blue"/>
  <circle cx="423.575" cy="482.544" r="5.05167" stroke-width="0.5" stroke="blue" fill="blue"/>
   </g>
   <g id="cell3">
  <circle cx="416.309" cy="495.016" r="7.81315" stroke-width="0.5" stroke="black" fill="blue"/>
  <circle cx="416.309" cy="495.016" r="4.74367" stroke-width="0.5" stroke="blue" fill="blue"/>
   </g>
   <g id="cell4">
  <circle cx="425.381" cy="507.215" r="8.41271" stroke-width="0.5" stroke="black" fill="Red"/>
  <circle cx="425.381" cy="507.215" r="5.05167" stroke-width="0.5" stroke="Red" fill="Red"/>
   </g>
   <g id="cell5">
  <circle cx="414.175" cy="528.94" r="6.28091" stroke-width="0.5" stroke="black" fill="yellow"/>
  <circle cx="414.175" cy="528.94" r="3.82755" stroke-width="0.5" stroke="yellow" fill="yellow"/>
   </g>
   <g id="cell6">
  <circle cx="425.222" cy="539.904" r="8.41271" stroke-width="0.5" stroke="black" fill="yellow"/>
  <circle cx="425.222" cy="539.904" r="5.05167" stroke-width="0.5" stroke="yellow" fill="yellow"/>
   </g>
   <g id="cell7">
  <circle cx="436.157" cy="445.234" r="8.07654" stroke-width="0.5" stroke="black" fill="yellow"/>
  <circle cx="436.157" cy="445.234" r="4.89046" stroke-width="0.5" stroke="yellow" fill="yellow"/>
   </g>
   <g id="cell8">
  <circle cx="429.721" cy="457.631" r="8.41271" stroke-width="0.5" stroke="black" fill="yellow"/>
  <circle cx="429.721" cy="457.631" r="5.05167" stroke-width="0.5" stroke="yellow" fill="yellow"/>
   </g>
   <g id="cell9">
  <circle cx="435.21" cy="470.961" r="8.41271" stroke-width="0.5" stroke="black" fill="Red"/>
  <circle cx="435.21" cy="470.961" r="5.05167" stroke-width="0.5" stroke="Red" fill="Red"/>
   </g>
   <g id="cell10">
  <circle cx="437.039" cy="484.271" r="8.41271" stroke-width="0.5" stroke="black" fill="Red"/>
  <circle cx="437.039" cy="484.271" r="5.05167" stroke-width="0.5" stroke="Red" fill="Red"/>
   </g>
   <g id="cell11">
  <circle cx="437.478" cy="503.008" r="8.41271" stroke-width="0.5" stroke="black" fill="blue"/>
  <circle cx="437.478" cy="503.008" r="5.05167" stroke-width="0.5" stroke="blue" fill="blue"/>
   </g>
   <g id="cell12">
  <circle cx="431.716" cy="519.163" r="7.97646" stroke-width="0.5" stroke="black" fill="Red"/>
  <circle cx="431.716" cy="519.163" r="4.83584" stroke-width="0.5" stroke="Red" fill="Red"/>
   </g>
   <g id="cell13">
  <circle cx="438.648" cy="537.21" r="8.41271" stroke-width="0.5" stroke="black" fill="blue"/>
  <circle cx="438.648" cy="537.21" r="5.05167" stroke-width="0.5" stroke="blue" fill="blue"/>
   </g>
   <g id="cell14">
  <circle cx="437.646" cy="550.356" r="8.41271" stroke-width="0.5" stroke="black" fill="Red"/>
  <circle cx="437.646" cy="550.356" r="5.05167" stroke-width="0.5" stroke="Red" fill="Red"/>
   </g>
   <g id="cell15">
  <circle cx="440.413" cy="564.712" r="8.41271" stroke-width="0.5" stroke="black" fill="blue"/>
  <circle cx="440.413" cy="564.712" r="5.05167" stroke-width="0.5" stroke="blue" fill="blue"/>
   </g>
   <g id="cell16">
  <circle cx="452.526" cy="425.719" r="7.69713" stroke-width="0.5" stroke="black" fill="Red"/>
  <circle cx="452.526" cy="425.719" r="4.69512" stroke-width="0.5" stroke="Red" fill="Red"/>
   </g>
   <g id="cell17">
  <circle cx="449.37" cy="447.113" r="7.41548" stroke-width="0.5" stroke="black" fill="blue"/>
  <circle cx="449.37" cy="447.113" r="4.50723" stroke-width="0.5" stroke="blue" fill="blue"/>
   </g>
   <g id="cell18">
  <circle cx="442.571" cy="457.386" r="8.41271" stroke-width="0.5" stroke="black" fill="Red"/>
  <circle cx="442.571" cy="457.386" r="5.05167" stroke-width="0.5" stroke="Red" fill="Red"/>
   </g>
   <g id="cell19">
  <circle cx="448.082" cy="468.2" r="8.41271" stroke-width="0.5" stroke="black" fill="blue"/>
  <circle cx="448.082" cy="468.2" r="5.05167" stroke-width="0.5" stroke="blue" fill="blue"/>
   </g>
   <g id="cell20">
  <circle cx="451.5" cy="485.02" r="6.67717" stroke-width="0.5" stroke="black" fill="Red"/>
  <circle cx="451.5" cy="485.02" r="4.00951" stroke-width="0.5" stroke="Red" fill="Red"/>
   </g>
   <g id="cell21">
  <circle cx="444.286" cy="493.463" r="8.41271" stroke-width="0.5" stroke="black" fill="Red"/>
  <circle cx="444.286" cy="493.463" r="5.05167" stroke-width="0.5" stroke="Red" fill="Red"/>
   </g>
   <g id="cell22">
  <circle cx="450.962" cy="504.439" r="8.41271" stroke-width="0.5" stroke="black" fill="Red"/>
  <circle cx="450.962" cy="504.439" r="5.05167" stroke-width="0.5" stroke="Red" fill="Red"/>
   </g>
   <g id="cell23">
  <circle cx="443.304" cy="526.623" r="8.41271" stroke-width="0.5" stroke="black" fill="Red"/>
  <circle cx="443.304" cy="526.623" r="5.05167" stroke-width="0.5" stroke="Red" fill="Red"/>
   </g>
   <g id="cell24">
  <circle cx="448.919" cy="543.168" r="8.41271" stroke-width="0.5" stroke="black" fill="Red"/>
  <circle cx="448.919" cy="543.168" r="5.05167" stroke-width="0.5" stroke="Red" fill="Red"/>
   </g>
   <g id="cell25">
  <circle cx="450.496" cy="557.273" r="8.41271" stroke-width="0.5" stroke="black" fill="Red"/>
  <circle cx="450.496" cy="557.273" r="5.05167" stroke-width="0.5" stroke="Red" fill="Red"/>
   </g>
   <g id="cell26">
  <circle cx="442.892" cy="576.538" r="6.89675" stroke-width="0.5" stroke="black" fill="Red"/>
  <circle cx="442.892" cy="576.538" r="4.17024" stroke-width="0.5" stroke="Red" fill="Red"/>
   </g>
   <g id="cell27">
  <circle cx="463.916" cy="402.602" r="8.41271" stroke-width="0.5" stroke="black" fill="yellow"/>
  <circle cx="463.916" cy="402.602" r="5.05167" stroke-width="0.5" stroke="yellow" fill="yellow"/>
   </g>
   <g id="cell28">
  <circle cx="463.242" cy="423.456" r="6.80881" stroke-width="0.5" stroke="black" fill="Red"/>
  <circle cx="463.242" cy="423.456" r="4.10709" stroke-width="0.5" stroke="Red" fill="Red"/>
   </g>
   <g id="cell29">
  <circle cx="460.143" cy="447.088" r="7.77763" stroke-width="0.5" stroke="black" fill="Red"/>
  <circle cx="460.143" cy="447.088" r="4.7232" stroke-width="0.5" stroke="Red" fill="Red"/>
   </g>
   <g id="cell30">
  <circle cx="455.713" cy="458.062" r="8.41271" stroke-width="0.5" stroke="black" fill="Red"/>
  <circle cx="455.713" cy="458.062" r="5.05167" stroke-width="0.5" stroke="Red" fill="Red"/>
   </g>
   <g id="cell31">
  <circle cx="460.522" cy="471.143" r="8.41271" stroke-width="0.5" stroke="black" fill="Red"/>
  <circle cx="460.522" cy="471.143" r="5.05167" stroke-width="0.5" stroke="Red" fill="Red"/>
   </g>
   <g id="cell32">
  <circle cx="461.942" cy="484.906" r="8.41271" stroke-width="0.5" stroke="black" fill="Red"/>
  <circle cx="461.942" cy="484.906" r="5.05167" stroke-width="0.5" stroke="Red" fill="Red"/>
   </g>
   <g id="cell33">
  <circle cx="458.074" cy="495.702" r="8.41271" stroke-width="0.5" stroke="black" fill="blue"/>
  <circle cx="458.074" cy="495.702" r="5.05167" stroke-width="0.5" stroke="blue" fill="blue"/>
   </g>
   <g id="cell34">
  <circle cx="452.052" cy="518.608" r="6.11768" stroke-width="0.5" stroke="black" fill="Red"/>
  <circle cx="452.052" cy="518.608" r="3.74909" stroke-width="0.5" stroke="Red" fill="Red"/>
   </g>
   <g id="cell35">
  <circle cx="459.382" cy="539.764" r="6.0194" stroke-width="0.5" stroke="black" fill="blue"/>
  <circle cx="459.382" cy="539.764" r="3.67227" stroke-width="0.5" stroke="blue" fill="blue"/>
   </g>
   <g id="cell36">
  <circle cx="461.072" cy="549.032" r="8.41271" stroke-width="0.5" stroke="black" fill="Red"/>
  <circle cx="461.072" cy="549.032" r="5.05167" stroke-width="0.5" stroke="Red" fill="Red"/>
   </g>
   <g id="cell37">
  <circle cx="463.752" cy="562.328" r="8.41271" stroke-width="0.5" stroke="black" fill="Red"/>
  <circle cx="463.752" cy="562.328" r="5.05167" stroke-width="0.5" stroke="Red" fill="Red"/>
   </g>
   <g id="cell38">
  <circle cx="463.479" cy="575.758" r="8.41271" stroke-width="0.5" stroke="black" fill="Red"/>
  <circle cx="463.479" cy="575.758" r="5.05167" stroke-width="0.5" stroke="Red" fill="Red"/>
   </g>
   <g id="cell39">
  <circle cx="464.323" cy="590.295" r="7.63698" stroke-width="0.5" stroke="black" fill="blue"/>
  <circle cx="464.323" cy="590.295" r="4.64085" stroke-width="0.5" stroke="blue" fill="blue"/>
   </g>
   <g id="cell40">
  <circle cx="477.414" cy="397.994" r="8.41271" stroke-width="0.5" stroke="black" fill="blue"/>
  <circle cx="477.414" cy="397.994" r="5.05167" stroke-width="0.5" stroke="blue" fill="blue"/>
   </g>
   <g id="cell41">
  <circle cx="476.486" cy="411.399" r="8.41271" stroke-width="0.5" stroke="black" fill="Red"/>
  <circle cx="476.486" cy="411.399" r="5.05167" stroke-width="0.5" stroke="Red" fill="Red"/>
   </g>
   <g id="cell42">
  <circle cx="479.238" cy="436.205" r="7.27253" stroke-width="0.5" stroke="black" fill="Red"/>
  <circle cx="479.238" cy="436.205" r="4.41835" stroke-width="0.5" stroke="Red" fill="Red"/>
   </g>
   <g id="cell43">
  <circle cx="470.728" cy="453.814" r="8.41271" stroke-width="0.5" stroke="black" fill="Red"/>
  <circle cx="470.728" cy="453.814" r="5.05167" stroke-width="0.5" stroke="Red" fill="Red"/>
   </g>
   <g id="cell44">
  <circle cx="474.123" cy="467.241" r="6.73287" stroke-width="0.5" stroke="black" fill="blue"/>
  <circle cx="474.123" cy="467.241" r="4.05039" stroke-width="0.5" stroke="blue" fill="blue"/>
   </g>
   <g id="cell45">
  <circle cx="471.773" cy="477.305" r="8.41271" stroke-width="0.5" stroke="black" fill="Red"/>
  <circle cx="471.773" cy="477.305" r="5.05167" stroke-width="0.5" stroke="Red" fill="Red"/>
   </g>
   <g id="cell46">
  <circle cx="471.238" cy="492.628" r="8.41271" stroke-width="0.5" stroke="black" fill="Red"/>
  <circle cx="471.238" cy="492.628" r="5.05167" stroke-width="0.5" stroke="Red" fill="Red"/>
   </g>
   <g id="cell47">
  <circle cx="465.505" cy="503.439" r="8.06667" stroke-width="0.5" stroke="black" fill="Red"/>
  <circle cx="465.505" cy="503.439" r="4.88515" stroke-width="0.5" stroke="Red" fill="Red"/>
   </g>
   <g id="cell48">
  <circle cx="475.109" cy="518.501" r="7.89373" stroke-width="0.5" stroke="black" fill="blue"/>
  <circle cx="475.109" cy="518.501" r="4.78957" stroke-width="0.5" stroke="blue" fill="blue"/>
   </g>
   <g id="cell49">
  <circle cx="472.126" cy="541.632" r="8.41271" stroke-width="0.5" stroke="black" fill="Red"/>
  <circle cx="472.126" cy="541.632" r="5.05167" stroke-width="0.5" stroke="Red" fill="Red"/>
   </g>
   <g id="cell50">
  <circle cx="481.15" cy="558.424" r="7.33129" stroke-width="0.5" stroke="black" fill="Red"/>
  <circle cx="481.15" cy="558.424" r="4.45516" stroke-width="0.5" stroke="Red" fill="Red"/>
   </g>
   <g id="cell51">
  <circle cx="475.248" cy="568.695" r="8.41271" stroke-width="0.5" stroke="black" fill="Red"/>
  <circle cx="475.248" cy="568.695" r="5.05167" stroke-width="0.5" stroke="Red" fill="Red"/>
   </g>
   <g id="cell52">
  <circle cx="475.602" cy="583.92" r="8.41271" stroke-width="0.5" stroke="black" fill="yellow"/>
  <circle cx="475.602" cy="583.92" r="5.05167" stroke-width="0.5" stroke="yellow" fill="yellow"/>
   </g>
   <g id="cell53">
  <circle cx="489.288" cy="404.082" r="8.41271" stroke-width="0.5" stroke="black" fill="yellow"/>
  <circle cx="489.288" cy="404.082" r="5.05167" stroke-width="0.5" stroke="yellow" fill="yellow"/>
   </g>
   <g id="cell54">
  <circle cx="475.422" cy="425.054" r="8.41271" stroke-width="0.5" stroke="black" fill="Red"/>
  <circle cx="475.422" cy="425.054" r="5.05167" stroke-width="0.5" stroke="Red" fill="Red"/>
   </g>
   <g id="cell55">
  <circle cx="483.208" cy="446.911" r="7.77763" stroke-width="0.5" stroke="black" fill="Red"/>
  <circle cx="483.208" cy="446.911" r="4.7232" stroke-width="0.5" stroke="Red" fill="Red"/>
   </g>
   <g id="cell56">
  <circle cx="491.388" cy="454.571" r="7.95045" stroke-width="0.5" stroke="black" fill="blue"/>
  <circle cx="491.388" cy="454.571" r="4.82139" stroke-width="0.5" stroke="blue" fill="blue"/>
   </g>
   <g id="cell57">
  <circle cx="485.764" cy="472.134" r="8.41271" stroke-width="0.5" stroke="black" fill="Red"/>
  <circle cx="485.764" cy="472.134" r="5.05167" stroke-width="0.5" stroke="Red" fill="Red"/>
   </g>
   <g id="cell58">
  <circle cx="481.489" cy="484.68" r="8.41271" stroke-width="0.5" stroke="black" fill="blue"/>
  <circle cx="481.489" cy="484.68" r="5.05167" stroke-width="0.5" stroke="blue" fill="blue"/>
   </g>
   <g id="cell59">
  <circle cx="482.953" cy="496.95" r="7.3599" stroke-width="0.5" stroke="black" fill="Red"/>
  <circle cx="482.953" cy="496.95" r="4.47294" stroke-width="0.5" stroke="Red" fill="Red"/>
   </g>
   <g id="cell60">
  <circle cx="487.396" cy="515.432" r="8.41271" stroke-width="0.5" stroke="black" fill="Red"/>
  <circle cx="487.396" cy="515.432" r="5.05167" stroke-width="0.5" stroke="Red" fill="Red"/>
   </g>
   <g id="cell61">
  <circle cx="482.896" cy="532.984" r="8.41271" stroke-width="0.5" stroke="black" fill="Red"/>
  <circle cx="482.896" cy="532.984" r="5.05167" stroke-width="0.5" stroke="Red" fill="Red"/>
   </g>
   <g id="cell62">
  <circle cx="486.114" cy="547.364" r="8.41271" stroke-width="0.5" stroke="black" fill="Red"/>
  <circle cx="486.114" cy="547.364" r="5.05167" stroke-width="0.5" stroke="Red" fill="Red"/>
   </g>
   <g id="cell63">
  <circle cx="491.559" cy="563.35" r="8.41271" stroke-width="0.5" stroke="black" fill="Red"/>
  <circle cx="491.559" cy="563.35" r="5.05167" stroke-width="0.5" stroke="Red" fill="Red"/>
   </g>
   <g id="cell64">
  <circle cx="487.111" cy="574.163" r="8.41271" stroke-width="0.5" stroke="black" fill="blue"/>
  <circle cx="487.111" cy="574.163" r="5.05167" stroke-width="0.5" stroke="blue" fill="blue"/>
   </g>
   <g id="cell65">
  <circle cx="483.835" cy="597.692" r="7.18097" stroke-width="0.5" stroke="black" fill="Red"/>
  <circle cx="483.835" cy="597.692" r="4.36015" stroke-width="0.5" stroke="Red" fill="Red"/>
   </g>
   <g id="cell66">
  <circle cx="502.206" cy="411.521" r="8.41271" stroke-width="0.5" stroke="black" fill="blue"/>
  <circle cx="502.206" cy="411.521" r="5.05167" stroke-width="0.5" stroke="blue" fill="blue"/>
   </g>
   <g id="cell67">
  <circle cx="488.814" cy="417.418" r="8.41271" stroke-width="0.5" stroke="black" fill="Red"/>
  <circle cx="488.814" cy="417.418" r="5.05167" stroke-width="0.5" stroke="Red" fill="Red"/>
   </g>
   <g id="cell68">
  <circle cx="499.997" cy="425.205" r="8.41271" stroke-width="0.5" stroke="black" fill="Red"/>
  <circle cx="499.997" cy="425.205" r="5.05167" stroke-width="0.5" stroke="Red" fill="Red"/>
   </g>
   <g id="cell69">
  <circle cx="499.043" cy="447.356" r="6.73287" stroke-width="0.5" stroke="black" fill="Red"/>
  <circle cx="499.043" cy="447.356" r="4.05039" stroke-width="0.5" stroke="Red" fill="Red"/>
   </g>
   <g id="cell70">
  <circle cx="496.981" cy="465.135" r="8.41271" stroke-width="0.5" stroke="black" fill="blue"/>
  <circle cx="496.981" cy="465.135" r="5.05167" stroke-width="0.5" stroke="blue" fill="blue"/>
   </g>
   <g id="cell71">
  <circle cx="492.665" cy="482.449" r="8.41271" stroke-width="0.5" stroke="black" fill="Red"/>
  <circle cx="492.665" cy="482.449" r="5.05167" stroke-width="0.5" stroke="Red" fill="Red"/>
   </g>
   <g id="cell72">
  <circle cx="494.022" cy="494.297" r="8.41271" stroke-width="0.5" stroke="black" fill="yellow"/>
  <circle cx="494.022" cy="494.297" r="5.05167" stroke-width="0.5" stroke="yellow" fill="yellow"/>
   </g>
   <g id="cell73">
  <circle cx="499.369" cy="512.766" r="8.41271" stroke-width="0.5" stroke="black" fill="Red"/>
  <circle cx="499.369" cy="512.766" r="5.05167" stroke-width="0.5" stroke="Red" fill="Red"/>
   </g>
   <g id="cell74">
  <circle cx="493.711" cy="525.464" r="8.41271" stroke-width="0.5" stroke="black" fill="Red"/>
  <circle cx="493.711" cy="525.464" r="5.05167" stroke-width="0.5" stroke="Red" fill="Red"/>
   </g>
   <g id="cell75">
  <circle cx="495.561" cy="537.71" r="8.41271" stroke-width="0.5" stroke="black" fill="Red"/>
  <circle cx="495.561" cy="537.71" r="5.05167" stroke-width="0.5" stroke="Red" fill="Red"/>
   </g>
   <g id="cell76">
  <circle cx="499.383" cy="547.185" r="6.69288" stroke-width="0.5" stroke="black" fill="Red"/>
  <circle cx="499.383" cy="547.185" r="4.02051" stroke-width="0.5" stroke="Red" fill="Red"/>
   </g>
   <g id="cell77">
  <circle cx="500.786" cy="571.079" r="7.87851" stroke-width="0.5" stroke="black" fill="Red"/>
  <circle cx="500.786" cy="571.079" r="4.78096" stroke-width="0.5" stroke="Red" fill="Red"/>
   </g>
   <g id="cell78">
  <circle cx="498.56" cy="582.323" r="8.41271" stroke-width="0.5" stroke="black" fill="yellow"/>
  <circle cx="498.56" cy="582.323" r="5.05167" stroke-width="0.5" stroke="yellow" fill="yellow"/>
   </g>
   <g id="cell79">
  <circle cx="497.93" cy="594.896" r="8.41271" stroke-width="0.5" stroke="black" fill="blue"/>
  <circle cx="497.93" cy="594.896" r="5.05167" stroke-width="0.5" stroke="blue" fill="blue"/>
   </g>
   <g id="cell80">
  <circle cx="516.36" cy="408.985" r="7.51976" stroke-width="0.5" stroke="black" fill="yellow"/>
  <circle cx="516.36" cy="408.985" r="4.57072" stroke-width="0.5" stroke="yellow" fill="yellow"/>
   </g>
   <g id="cell81">
  <circle cx="513.628" cy="432.824" r="8.41271" stroke-width="0.5" stroke="black" fill="Red"/>
  <circle cx="513.628" cy="432.824" r="5.05167" stroke-width="0.5" stroke="Red" fill="Red"/>
   </g>
   <g id="cell82">
  <circle cx="508.979" cy="444.069" r="7.24243" stroke-width="0.5" stroke="black" fill="blue"/>
  <circle cx="508.979" cy="444.069" r="4.39934" stroke-width="0.5" stroke="blue" fill="blue"/>
   </g>
   <g id="cell83">
  <circle cx="506.052" cy="455.331" r="8.41271" stroke-width="0.5" stroke="black" fill="Red"/>
  <circle cx="506.052" cy="455.331" r="5.05167" stroke-width="0.5" stroke="Red" fill="Red"/>
   </g>
   <g id="cell84">
  <circle cx="509.692" cy="465.628" r="6.95901" stroke-width="0.5" stroke="black" fill="Red"/>
  <circle cx="509.692" cy="465.628" r="4.21341" stroke-width="0.5" stroke="Red" fill="Red"/>
   </g>
   <g id="cell85">
  <circle cx="503.36" cy="476.399" r="8.41271" stroke-width="0.5" stroke="black" fill="yellow"/>
  <circle cx="503.36" cy="476.399" r="5.05167" stroke-width="0.5" stroke="yellow" fill="yellow"/>
   </g>
   <g id="cell86">
  <circle cx="507.472" cy="501.682" r="8.41271" stroke-width="0.5" stroke="black" fill="yellow"/>
  <circle cx="507.472" cy="501.682" r="5.05167" stroke-width="0.5" stroke="yellow" fill="yellow"/>
   </g>
   <g id="cell87">
  <circle cx="512.397" cy="513.396" r="7.9229" stroke-width="0.5" stroke="black" fill="Red"/>
  <circle cx="512.397" cy="513.396" r="4.80599" stroke-width="0.5" stroke="Red" fill="Red"/>
   </g>
   <g id="cell88">
  <circle cx="507.234" cy="536.382" r="8.41271" stroke-width="0.5" stroke="black" fill="Red"/>
  <circle cx="507.234" cy="536.382" r="5.05167" stroke-width="0.5" stroke="Red" fill="Red"/>
   </g>
   <g id="cell89">
  <circle cx="510.036" cy="549.296" r="8.41271" stroke-width="0.5" stroke="black" fill="Red"/>
  <circle cx="510.036" cy="549.296" r="5.05167" stroke-width="0.5" stroke="Red" fill="Red"/>
   </g>
   <g id="cell90">
  <circle cx="518.658" cy="557.466" r="8.41271" stroke-width="0.5" stroke="black" fill="Red"/>
  <circle cx="518.658" cy="557.466" r="5.05167" stroke-width="0.5" stroke="Red" fill="Red"/>
   </g>
   <g id="cell91">
  <circle cx="514.19" cy="571.029" r="8.41271" stroke-width="0.5" stroke="black" fill="yellow"/>
  <circle cx="514.19" cy="571.029" r="5.05167" stroke-width="0.5" stroke="yellow" fill="yellow"/>
   </g>
   <g id="cell92">
  <circle cx="512.135" cy="585.697" r="8.41271" stroke-width="0.5" stroke="black" fill="yellow"/>
  <circle cx="512.135" cy="585.697" r="5.05167" stroke-width="0.5" stroke="yellow" fill="yellow"/>
   </g>
   <g id="cell93">
  <circle cx="529.801" cy="412.01" r="8.41271" stroke-width="0.5" stroke="black" fill="blue"/>
  <circle cx="529.801" cy="412.01" r="5.05167" stroke-width="0.5" stroke="blue" fill="blue"/>
   </g>
   <g id="cell94">
  <circle cx="536.228" cy="423.736" r="7.93688" stroke-width="0.5" stroke="black" fill="Red"/>
  <circle cx="536.228" cy="423.736" r="4.81381" stroke-width="0.5" stroke="Red" fill="Red"/>
   </g>
   <g id="cell95">
  <circle cx="526.81" cy="434.281" r="8.41271" stroke-width="0.5" stroke="black" fill="Red"/>
  <circle cx="526.81" cy="434.281" r="5.05167" stroke-width="0.5" stroke="Red" fill="Red"/>
   </g>
   <g id="cell96">
  <circle cx="519.04" cy="444.353" r="7.57835" stroke-width="0.5" stroke="black" fill="blue"/>
  <circle cx="519.04" cy="444.353" r="4.62679" stroke-width="0.5" stroke="blue" fill="blue"/>
   </g>
   <g id="cell97">
  <circle cx="527.702" cy="463.798" r="8.41271" stroke-width="0.5" stroke="black" fill="Red"/>
  <circle cx="527.702" cy="463.798" r="5.05167" stroke-width="0.5" stroke="Red" fill="Red"/>
   </g>
   <g id="cell98">
  <circle cx="521.85" cy="492.854" r="7.31593" stroke-width="0.5" stroke="black" fill="blue"/>
  <circle cx="521.85" cy="492.854" r="4.47797" stroke-width="0.5" stroke="blue" fill="blue"/>
   </g>
   <g id="cell99">
  <circle cx="532.325" cy="498.537" r="8.41271" stroke-width="0.5" stroke="black" fill="Red"/>
  <circle cx="532.325" cy="498.537" r="5.05167" stroke-width="0.5" stroke="Red" fill="Red"/>
   </g>
   <g id="cell100">
  <circle cx="520.461" cy="504.912" r="7.41548" stroke-width="0.5" stroke="black" fill="Red"/>
  <circle cx="520.461" cy="504.912" r="4.50723" stroke-width="0.5" stroke="Red" fill="Red"/>
   </g>
   <g id="cell101">
  <circle cx="518.809" cy="529.003" r="8.41271" stroke-width="0.5" stroke="black" fill="Red"/>
  <circle cx="518.809" cy="529.003" r="5.05167" stroke-width="0.5" stroke="Red" fill="Red"/>
   </g>
   <g id="cell102">
  <circle cx="529.317" cy="536.281" r="8.03527" stroke-width="0.5" stroke="black" fill="Red"/>
  <circle cx="529.317" cy="536.281" r="4.86813" stroke-width="0.5" stroke="Red" fill="Red"/>
   </g>
   <g id="cell103">
  <circle cx="528.837" cy="550.617" r="8.41271" stroke-width="0.5" stroke="black" fill="Red"/>
  <circle cx="528.837" cy="550.617" r="5.05167" stroke-width="0.5" stroke="Red" fill="Red"/>
   </g>
   <g id="cell104">
  <circle cx="528.136" cy="566.094" r="8.41271" stroke-width="0.5" stroke="black" fill="Red"/>
  <circle cx="528.136" cy="566.094" r="5.05167" stroke-width="0.5" stroke="Red" fill="Red"/>
   </g>
   <g id="cell105">
  <circle cx="526.283" cy="580.265" r="8.41271" stroke-width="0.5" stroke="black" fill="blue"/>
  <circle cx="526.283" cy="580.265" r="5.05167" stroke-width="0.5" stroke="blue" fill="blue"/>
   </g>
   <g id="cell106">
  <circle cx="543.069" cy="412.416" r="7.44242" stroke-width="0.5" stroke="black" fill="yellow"/>
  <circle cx="543.069" cy="412.416" r="4.52373" stroke-width="0.5" stroke="yellow" fill="yellow"/>
   </g>
   <g id="cell107">
  <circle cx="540.571" cy="436.589" r="8.41271" stroke-width="0.5" stroke="black" fill="blue"/>
  <circle cx="540.571" cy="436.589" r="5.05167" stroke-width="0.5" stroke="blue" fill="blue"/>
   </g>
   <g id="cell108">
  <circle cx="531.757" cy="449.388" r="8.41271" stroke-width="0.5" stroke="black" fill="Red"/>
  <circle cx="531.757" cy="449.388" r="5.05167" stroke-width="0.5" stroke="Red" fill="Red"/>
   </g>
   <g id="cell109">
  <circle cx="549.5" cy="467.965" r="8.41271" stroke-width="0.5" stroke="black" fill="Red"/>
  <circle cx="549.5" cy="467.965" r="5.05167" stroke-width="0.5" stroke="Red" fill="Red"/>
   </g>
   <g id="cell110">
  <circle cx="530.328" cy="484.18" r="8.41271" stroke-width="0.5" stroke="black" fill="Red"/>
  <circle cx="530.328" cy="484.18" r="5.05167" stroke-width="0.5" stroke="Red" fill="Red"/>
   </g>
   <g id="cell111">
  <circle cx="541.687" cy="490.967" r="8.41271" stroke-width="0.5" stroke="black" fill="Red"/>
  <circle cx="541.687" cy="490.967" r="5.05167" stroke-width="0.5" stroke="Red" fill="Red"/>
   </g>
   <g id="cell112">
  <circle cx="542.652" cy="506.054" r="8.41271" stroke-width="0.5" stroke="black" fill="blue"/>
  <circle cx="542.652" cy="506.054" r="5.05167" stroke-width="0.5" stroke="blue" fill="blue"/>
   </g>
   <g id="cell113">
  <circle cx="530.744" cy="512.235" r="8.41271" stroke-width="0.5" stroke="black" fill="Red"/>
  <circle cx="530.744" cy="512.235" r="5.05167" stroke-width="0.5" stroke="Red" fill="Red"/>
   </g>
   <g id="cell114">
  <circle cx="532.441" cy="525.445" r="8.41271" stroke-width="0.5" stroke="black" fill="Red"/>
  <circle cx="532.441" cy="525.445" r="5.05167" stroke-width="0.5" stroke="Red" fill="Red"/>
   </g>
   <g id="cell115">
  <circle cx="538.463" cy="543.254" r="8.41271" stroke-width="0.5" stroke="black" fill="Red"/>
  <circle cx="538.463" cy="543.254" r="5.05167" stroke-width="0.5" stroke="Red" fill="Red"/>
   </g>
   <g id="cell116">
  <circle cx="545.773" cy="564.042" r="7.02257" stroke-width="0.5" stroke="black" fill="blue"/>
  <circle cx="545.773" cy="564.042" r="4.25644" stroke-width="0.5" stroke="blue" fill="blue"/>
   </g>
   <g id="cell117">
  <circle cx="538.708" cy="573.964" r="8.41271" stroke-width="0.5" stroke="black" fill="Red"/>
  <circle cx="538.708" cy="573.964" r="5.05167" stroke-width="0.5" stroke="Red" fill="Red"/>
   </g>
   <g id="cell118">
  <circle cx="549.28" cy="426.229" r="8.41271" stroke-width="0.5" stroke="black" fill="yellow"/>
  <circle cx="549.28" cy="426.229" r="5.05167" stroke-width="0.5" stroke="yellow" fill="yellow"/>
   </g>
   <g id="cell119">
  <circle cx="555.54" cy="439.993" r="8.41271" stroke-width="0.5" stroke="black" fill="yellow"/>
  <circle cx="555.54" cy="439.993" r="5.05167" stroke-width="0.5" stroke="yellow" fill="yellow"/>
   </g>
   <g id="cell120">
  <circle cx="553.186" cy="456.699" r="7.9229" stroke-width="0.5" stroke="black" fill="Red"/>
  <circle cx="553.186" cy="456.699" r="4.80599" stroke-width="0.5" stroke="Red" fill="Red"/>
   </g>
   <g id="cell121">
  <circle cx="560.745" cy="476.092" r="8.41271" stroke-width="0.5" stroke="black" fill="Red"/>
  <circle cx="560.745" cy="476.092" r="5.05167" stroke-width="0.5" stroke="Red" fill="Red"/>
   </g>
   <g id="cell122">
  <circle cx="547.925" cy="481.455" r="8.41271" stroke-width="0.5" stroke="black" fill="blue"/>
  <circle cx="547.925" cy="481.455" r="5.05167" stroke-width="0.5" stroke="blue" fill="blue"/>
   </g>
   <g id="cell123">
  <circle cx="551.564" cy="497.413" r="8.41271" stroke-width="0.5" stroke="black" fill="Red"/>
  <circle cx="551.564" cy="497.413" r="5.05167" stroke-width="0.5" stroke="Red" fill="Red"/>
   </g>
   <g id="cell124">
  <circle cx="555.039" cy="511.203" r="8.41271" stroke-width="0.5" stroke="black" fill="Red"/>
  <circle cx="555.039" cy="511.203" r="5.05167" stroke-width="0.5" stroke="Red" fill="Red"/>
   </g>
   <g id="cell125">
  <circle cx="543.596" cy="518.726" r="7.93688" stroke-width="0.5" stroke="black" fill="blue"/>
  <circle cx="543.596" cy="518.726" r="4.81381" stroke-width="0.5" stroke="blue" fill="blue"/>
   </g>
   <g id="cell126">
  <circle cx="543.992" cy="532.183" r="8.41271" stroke-width="0.5" stroke="black" fill="Red"/>
  <circle cx="543.992" cy="532.183" r="5.05167" stroke-width="0.5" stroke="Red" fill="Red"/>
   </g>
   <g id="cell127">
  <circle cx="547.51" cy="551.433" r="8.41271" stroke-width="0.5" stroke="black" fill="Red"/>
  <circle cx="547.51" cy="551.433" r="5.05167" stroke-width="0.5" stroke="Red" fill="Red"/>
   </g>
   <g id="cell128">
  <circle cx="558.518" cy="561.417" r="8.41271" stroke-width="0.5" stroke="black" fill="Red"/>
  <circle cx="558.518" cy="561.417" r="5.05167" stroke-width="0.5" stroke="Red" fill="Red"/>
   </g>
   <g id="cell129">
  <circle cx="577.422" cy="455.975" r="7.90853" stroke-width="0.5" stroke="black" fill="Red"/>
  <circle cx="577.422" cy="455.975" r="4.79791" stroke-width="0.5" stroke="Red" fill="Red"/>
   </g>
   <g id="cell130">
  <circle cx="563.343" cy="464.385" r="8.41271" stroke-width="0.5" stroke="black" fill="Red"/>
  <circle cx="563.343" cy="464.385" r="5.05167" stroke-width="0.5" stroke="Red" fill="Red"/>
   </g>
   <g id="cell131">
  <circle cx="571.719" cy="481.215" r="8.41271" stroke-width="0.5" stroke="black" fill="Red"/>
  <circle cx="571.719" cy="481.215" r="5.05167" stroke-width="0.5" stroke="Red" fill="Red"/>
   </g>
   <g id="cell132">
  <circle cx="561.252" cy="489.086" r="8.41271" stroke-width="0.5" stroke="black" fill="Red"/>
  <circle cx="561.252" cy="489.086" r="5.05167" stroke-width="0.5" stroke="Red" fill="Red"/>
   </g>
   <g id="cell133">
  <circle cx="565.155" cy="502.202" r="8.41271" stroke-width="0.5" stroke="black" fill="Red"/>
  <circle cx="565.155" cy="502.202" r="5.05167" stroke-width="0.5" stroke="Red" fill="Red"/>
   </g>
   <g id="cell134">
  <circle cx="567.106" cy="515.74" r="8.41271" stroke-width="0.5" stroke="black" fill="Red"/>
  <circle cx="567.106" cy="515.74" r="5.05167" stroke-width="0.5" stroke="Red" fill="Red"/>
   </g>
   <g id="cell135">
  <circle cx="567.239" cy="529.335" r="8.41271" stroke-width="0.5" stroke="black" fill="Red"/>
  <circle cx="567.239" cy="529.335" r="5.05167" stroke-width="0.5" stroke="Red" fill="Red"/>
   </g>
   <g id="cell136">
  <circle cx="555.08" cy="538.3" r="8.41271" stroke-width="0.5" stroke="black" fill="Red"/>
  <circle cx="555.08" cy="538.3" r="5.05167" stroke-width="0.5" stroke="Red" fill="Red"/>
   </g>
   <g id="cell137">
  <circle cx="572.28" cy="556.545" r="7.1497" stroke-width="0.5" stroke="black" fill="blue"/>
  <circle cx="572.28" cy="556.545" r="4.34001" stroke-width="0.5" stroke="blue" fill="blue"/>
   </g>
   <g id="cell138">
  <circle cx="575.071" cy="469.927" r="8.41271" stroke-width="0.5" stroke="black" fill="blue"/>
  <circle cx="575.071" cy="469.927" r="5.05167" stroke-width="0.5" stroke="blue" fill="blue"/>
   </g>
   <g id="cell139">
  <circle cx="585.576" cy="482.394" r="8.41271" stroke-width="0.5" stroke="black" fill="yellow"/>
  <circle cx="585.576" cy="482.394" r="5.05167" stroke-width="0.5" stroke="yellow" fill="yellow"/>
   </g>
   <g id="cell140">
  <circle cx="575.474" cy="493.011" r="8.07654" stroke-width="0.5" stroke="black" fill="blue"/>
  <circle cx="575.474" cy="493.011" r="4.89046" stroke-width="0.5" stroke="blue" fill="blue"/>
   </g>
   <g id="cell141">
  <circle cx="578.713" cy="507.047" r="8.41271" stroke-width="0.5" stroke="black" fill="Red"/>
  <circle cx="578.713" cy="507.047" r="5.05167" stroke-width="0.5" stroke="Red" fill="Red"/>
   </g>
   <g id="cell142">
  <circle cx="578.736" cy="520.603" r="7.81315" stroke-width="0.5" stroke="black" fill="blue"/>
  <circle cx="578.736" cy="520.603" r="4.74367" stroke-width="0.5" stroke="blue" fill="blue"/>
   </g>
   <g id="cell143">
  <circle cx="569.777" cy="543.151" r="8.41271" stroke-width="0.5" stroke="black" fill="Red"/>
  <circle cx="569.777" cy="543.151" r="5.05167" stroke-width="0.5" stroke="Red" fill="Red"/>
   </g>
   <g id="cell144">
  <circle cx="431.246" cy="434.056" r="7.31199" stroke-width="0.5" stroke="black" fill="blue"/>
  <circle cx="431.246" cy="434.056" r="4.47011" stroke-width="0.5" stroke="blue" fill="blue"/>
   </g>
   <g id="cell145">
  <circle cx="587.265" cy="495.789" r="6.64762" stroke-width="0.5" stroke="black" fill="yellow"/>
  <circle cx="587.265" cy="495.789" r="4.05007" stroke-width="0.5" stroke="yellow" fill="yellow"/>
   </g>
   <g id="cell146">
  <circle cx="476.895" cy="506.839" r="7.61575" stroke-width="0.5" stroke="black" fill="Red"/>
  <circle cx="476.895" cy="506.839" r="4.64823" stroke-width="0.5" stroke="Red" fill="Red"/>
   </g>
   <g id="cell147">
  <circle cx="539.498" cy="461.187" r="7.84903" stroke-width="0.5" stroke="black" fill="blue"/>
  <circle cx="539.498" cy="461.187" r="4.77842" stroke-width="0.5" stroke="blue" fill="blue"/>
   </g>
   <g id="cell148">
  <circle cx="519.056" cy="542.503" r="8.03527" stroke-width="0.5" stroke="black" fill="blue"/>
  <circle cx="519.056" cy="542.503" r="4.86813" stroke-width="0.5" stroke="blue" fill="blue"/>
   </g>
   <g id="cell149">
  <circle cx="537.237" cy="473.813" r="7.84903" stroke-width="0.5" stroke="black" fill="Red"/>
  <circle cx="537.237" cy="473.813" r="4.77842" stroke-width="0.5" stroke="Red" fill="Red"/>
   </g>
   <g id="cell150">
  <circle cx="441.983" cy="513.758" r="7.97646" stroke-width="0.5" stroke="black" fill="Red"/>
  <circle cx="441.983" cy="513.758" r="4.83584" stroke-width="0.5" stroke="Red" fill="Red"/>
   </g>
   <g id="cell151">
  <circle cx="451.055" cy="413.222" r="7.97646" stroke-width="0.5" stroke="black" fill="blue"/>
  <circle cx="451.055" cy="413.222" r="4.83584" stroke-width="0.5" stroke="blue" fill="blue"/>
   </g>
   <g id="cell152">
  <circle cx="481.068" cy="459.866" r="7.95045" stroke-width="0.5" stroke="black" fill="Red"/>
  <circle cx="481.068" cy="459.866" r="4.82139" stroke-width="0.5" stroke="Red" fill="Red"/>
   </g>
   <g id="cell153">
  <circle cx="522.516" cy="422.48" r="7.93688" stroke-width="0.5" stroke="black" fill="yellow"/>
  <circle cx="522.516" cy="422.48" r="4.81381" stroke-width="0.5" stroke="yellow" fill="yellow"/>
   </g>
   <g id="cell154">
  <circle cx="554.918" cy="524.615" r="7.93688" stroke-width="0.5" stroke="black" fill="blue"/>
  <circle cx="554.918" cy="524.615" r="4.81381" stroke-width="0.5" stroke="blue" fill="blue"/>
   </g>
   <g id="cell155">
  <circle cx="439.669" cy="422.533" r="7.69713" stroke-width="0.5" stroke="black" fill="Red"/>
  <circle cx="439.669" cy="422.533" r="4.69512" stroke-width="0.5" stroke="Red" fill="Red"/>
   </g>
   <g id="cell156">
  <circle cx="506.054" cy="524.569" r="7.9229" stroke-width="0.5" stroke="black" fill="blue"/>
  <circle cx="506.054" cy="524.569" r="4.80599" stroke-width="0.5" stroke="blue" fill="blue"/>
   </g>
   <g id="cell157">
  <circle cx="545.401" cy="449.525" r="7.9229" stroke-width="0.5" stroke="black" fill="Red"/>
  <circle cx="545.401" cy="449.525" r="4.80599" stroke-width="0.5" stroke="Red" fill="Red"/>
   </g>
   <g id="cell158">
  <circle cx="559.918" cy="449.94" r="6.42557" stroke-width="0.5" stroke="black" fill="Red"/>
  <circle cx="559.918" cy="449.94" r="3.96008" stroke-width="0.5" stroke="Red" fill="Red"/>
   </g>
   <g id="cell159">
  <circle cx="471.147" cy="528.771" r="7.89373" stroke-width="0.5" stroke="black" fill="Red"/>
  <circle cx="471.147" cy="528.771" r="4.78957" stroke-width="0.5" stroke="Red" fill="Red"/>
   </g>
   <g id="cell160">
  <circle cx="504.737" cy="559.686" r="7.87851" stroke-width="0.5" stroke="black" fill="blue"/>
  <circle cx="504.737" cy="559.686" r="4.78096" stroke-width="0.5" stroke="blue" fill="blue"/>
   </g>
   <g id="cell161">
  <circle cx="515.3" cy="483.188" r="7.24254" stroke-width="0.5" stroke="black" fill="yellow"/>
  <circle cx="515.3" cy="483.188" r="4.4348" stroke-width="0.5" stroke="yellow" fill="yellow"/>
   </g>
   <g id="cell162">
  <circle cx="580.749" cy="533.477" r="7.81315" stroke-width="0.5" stroke="black" fill="Red"/>
  <circle cx="580.749" cy="533.477" r="4.74367" stroke-width="0.5" stroke="Red" fill="Red"/>
   </g>
   <g id="cell163">
  <circle cx="465.584" cy="514.81" r="7.61575" stroke-width="0.5" stroke="black" fill="Red"/>
  <circle cx="465.584" cy="514.81" r="4.64823" stroke-width="0.5" stroke="Red" fill="Red"/>
   </g>
   <g id="cell164">
  <circle cx="429.266" cy="494.121" r="7.81315" stroke-width="0.5" stroke="black" fill="Red"/>
  <circle cx="429.266" cy="494.121" r="4.74367" stroke-width="0.5" stroke="Red" fill="Red"/>
   </g>
   <g id="cell165">
  <circle cx="471.17" cy="442.911" r="7.77763" stroke-width="0.5" stroke="black" fill="Red"/>
  <circle cx="471.17" cy="442.911" r="4.7232" stroke-width="0.5" stroke="Red" fill="Red"/>
   </g>
   <g id="cell166">
  <circle cx="487.872" cy="430.02" r="7.77763" stroke-width="0.5" stroke="black" fill="blue"/>
  <circle cx="487.872" cy="430.02" r="4.7232" stroke-width="0.5" stroke="blue" fill="blue"/>
   </g>
   <g id="cell167">
  <circle cx="518.195" cy="455.409" r="7.57835" stroke-width="0.5" stroke="black" fill="Red"/>
  <circle cx="518.195" cy="455.409" r="4.62679" stroke-width="0.5" stroke="Red" fill="Red"/>
   </g>
   <g id="cell168">
  <circle cx="431.224" cy="529.592" r="5.77647" stroke-width="0.5" stroke="black" fill="Red"/>
  <circle cx="431.224" cy="529.592" r="3.53875" stroke-width="0.5" stroke="Red" fill="Red"/>
   </g>
   <g id="cell169">
  <circle cx="416.225" cy="459.576" r="7.67987" stroke-width="0.5" stroke="black" fill="blue"/>
  <circle cx="416.225" cy="459.576" r="4.66617" stroke-width="0.5" stroke="blue" fill="blue"/>
   </g>
   <g id="cell170">
  <circle cx="511.968" cy="493.067" r="6.41155" stroke-width="0.5" stroke="black" fill="Red"/>
  <circle cx="511.968" cy="493.067" r="3.95246" stroke-width="0.5" stroke="Red" fill="Red"/>
   </g>
   <g id="cell171">
  <circle cx="452.621" cy="584.521" r="7.63698" stroke-width="0.5" stroke="black" fill="yellow"/>
  <circle cx="452.621" cy="584.521" r="4.64085" stroke-width="0.5" stroke="yellow" fill="yellow"/>
   </g>
   <g id="cell172">
  <circle cx="570.351" cy="445.081" r="7.33745" stroke-width="0.5" stroke="black" fill="blue"/>
  <circle cx="570.351" cy="445.081" r="4.48959" stroke-width="0.5" stroke="blue" fill="blue"/>
   </g>
   <g id="cell173">
  <circle cx="417.885" cy="517.209" r="7.25129" stroke-width="0.5" stroke="black" fill="blue"/>
  <circle cx="417.885" cy="517.209" r="4.44064" stroke-width="0.5" stroke="blue" fill="blue"/>
   </g>
   <g id="cell174">
  <circle cx="522.626" cy="473.565" r="7.24254" stroke-width="0.5" stroke="black" fill="blue"/>
  <circle cx="522.626" cy="473.565" r="4.4348" stroke-width="0.5" stroke="blue" fill="blue"/>
   </g>
   <g id="cell175">
  <circle cx="510.669" cy="420.158" r="7.51976" stroke-width="0.5" stroke="black" fill="Red"/>
  <circle cx="510.669" cy="420.158" r="4.57072" stroke-width="0.5" stroke="Red" fill="Red"/>
   </g>
   <g id="cell176">
  <circle cx="443.835" cy="435.177" r="7.31199" stroke-width="0.5" stroke="black" fill="yellow"/>
  <circle cx="443.835" cy="435.177" r="4.47011" stroke-width="0.5" stroke="yellow" fill="yellow"/>
   </g>
   <g id="cell177">
  <circle cx="555.565" cy="412.077" r="7.44242" stroke-width="0.5" stroke="black" fill="blue"/>
  <circle cx="555.565" cy="412.077" r="4.52373" stroke-width="0.5" stroke="blue" fill="blue"/>
   </g>
   <g id="cell178">
  <circle cx="521.553" cy="518.304" r="7.41548" stroke-width="0.5" stroke="black" fill="blue"/>
  <circle cx="521.553" cy="518.304" r="4.50723" stroke-width="0.5" stroke="blue" fill="blue"/>
   </g>
   <g id="cell179">
  <circle cx="453.146" cy="531.652" r="7.41548" stroke-width="0.5" stroke="black" fill="Red"/>
  <circle cx="453.146" cy="531.652" r="4.50723" stroke-width="0.5" stroke="Red" fill="Red"/>
   </g>
   <g id="cell180">
  <circle cx="456.483" cy="435.798" r="7.41548" stroke-width="0.5" stroke="black" fill="Red"/>
  <circle cx="456.483" cy="435.798" r="4.50723" stroke-width="0.5" stroke="Red" fill="Red"/>
   </g>
   <g id="cell181">
  <circle cx="488.38" cy="504.846" r="6.01194" stroke-width="0.5" stroke="black" fill="blue"/>
  <circle cx="488.38" cy="504.846" r="3.67079" stroke-width="0.5" stroke="blue" fill="blue"/>
   </g>
   <g id="cell182">
  <circle cx="471.886" cy="553.35" r="7.33129" stroke-width="0.5" stroke="black" fill="blue"/>
  <circle cx="471.886" cy="553.35" r="4.45516" stroke-width="0.5" stroke="blue" fill="blue"/>
   </g>
   <g id="cell183">
  <circle cx="467.124" cy="433.636" r="7.27253" stroke-width="0.5" stroke="black" fill="blue"/>
  <circle cx="467.124" cy="433.636" r="4.41835" stroke-width="0.5" stroke="blue" fill="blue"/>
   </g>
   <g id="cell184">
  <circle cx="501.117" cy="436.924" r="7.24243" stroke-width="0.5" stroke="black" fill="blue"/>
  <circle cx="501.117" cy="436.924" r="4.39934" stroke-width="0.5" stroke="blue" fill="blue"/>
   </g>
   <g id="cell185">
  <circle cx="487.794" cy="586.816" r="7.18097" stroke-width="0.5" stroke="black" fill="Red"/>
  <circle cx="487.794" cy="586.816" r="4.36015" stroke-width="0.5" stroke="Red" fill="Red"/>
   </g>
   <g id="cell186">
  <circle cx="503.639" cy="487.811" r="6.41155" stroke-width="0.5" stroke="black" fill="blue"/>
  <circle cx="503.639" cy="487.811" r="3.95246" stroke-width="0.5" stroke="blue" fill="blue"/>
   </g>
   <g id="cell187">
  <circle cx="567.456" cy="455.676" r="6.42557" stroke-width="0.5" stroke="black" fill="yellow"/>
  <circle cx="567.456" cy="455.676" r="3.96008" stroke-width="0.5" stroke="yellow" fill="yellow"/>
   </g>
   <g id="cell188">
  <circle cx="560.109" cy="550.318" r="7.1497" stroke-width="0.5" stroke="black" fill="yellow"/>
  <circle cx="560.109" cy="550.318" r="4.34001" stroke-width="0.5" stroke="yellow" fill="yellow"/>
   </g>
   <g id="cell189">
  <circle cx="460.65" cy="523.86" r="7.11815" stroke-width="0.5" stroke="black" fill="Red"/>
  <circle cx="460.65" cy="523.86" r="4.31954" stroke-width="0.5" stroke="Red" fill="Red"/>
   </g>
   <g id="cell190">
  <circle cx="457.528" cy="510.931" r="6.11768" stroke-width="0.5" stroke="black" fill="blue"/>
  <circle cx="457.528" cy="510.931" r="3.74909" stroke-width="0.5" stroke="blue" fill="blue"/>
   </g>
   <g id="cell191">
  <circle cx="536.639" cy="557.827" r="7.02257" stroke-width="0.5" stroke="black" fill="blue"/>
  <circle cx="536.639" cy="557.827" r="4.25644" stroke-width="0.5" stroke="blue" fill="blue"/>
   </g>
   <g id="cell192">
  <circle cx="513.959" cy="473.821" r="5.71298" stroke-width="0.5" stroke="black" fill="blue"/>
  <circle cx="513.959" cy="473.821" r="3.47997" stroke-width="0.5" stroke="blue" fill="blue"/>
   </g>
   <g id="cell193">
  <circle cx="599.146" cy="489.331" r="6.64762" stroke-width="0.5" stroke="black" fill="blue"/>
  <circle cx="599.146" cy="489.331" r="4.05007" stroke-width="0.5" stroke="blue" fill="blue"/>
   </g>
   <g id="cell194">
  <circle cx="452.722" cy="570.355" r="6.89675" stroke-width="0.5" stroke="black" fill="Red"/>
  <circle cx="452.722" cy="570.355" r="4.17024" stroke-width="0.5" stroke="Red" fill="Red"/>
   </g>
   <g id="cell195">
  <circle cx="497.186" cy="503.299" r="6.01194" stroke-width="0.5" stroke="black" fill="blue"/>
  <circle cx="497.186" cy="503.299" r="3.67079" stroke-width="0.5" stroke="blue" fill="blue"/>
   </g>
   <g id="cell196">
  <circle cx="465.084" cy="414.416" r="6.80881" stroke-width="0.5" stroke="black" fill="Red"/>
  <circle cx="465.084" cy="414.416" r="4.10709" stroke-width="0.5" stroke="Red" fill="Red"/>
   </g>
   <g id="cell197">
  <circle cx="517.455" cy="465.623" r="5.71298" stroke-width="0.5" stroke="black" fill="blue"/>
  <circle cx="517.455" cy="465.623" r="3.47997" stroke-width="0.5" stroke="blue" fill="blue"/>
   </g>
   <g id="cell198">
  <circle cx="463.385" cy="533.627" r="6.0194" stroke-width="0.5" stroke="black" fill="blue"/>
  <circle cx="463.385" cy="533.627" r="3.67227" stroke-width="0.5" stroke="blue" fill="blue"/>
   </g>
   <g id="cell199">
  <circle cx="411.985" cy="538.876" r="6.28091" stroke-width="0.5" stroke="black" fill="blue"/>
  <circle cx="411.985" cy="538.876" r="3.82755" stroke-width="0.5" stroke="blue" fill="blue"/>
   </g>
   <g id="cell200">
  <circle cx="491.569" cy="439.758" r="6.73287" stroke-width="0.5" stroke="black" fill="Red"/>
  <circle cx="491.569" cy="439.758" r="4.05039" stroke-width="0.5" stroke="Red" fill="Red"/>
   </g>
   <g id="cell201">
  <circle cx="466.119" cy="463.224" r="6.73287" stroke-width="0.5" stroke="black" fill="blue"/>
  <circle cx="466.119" cy="463.224" r="4.05039" stroke-width="0.5" stroke="blue" fill="blue"/>
   </g>
   <g id="cell202">
  <circle cx="423.093" cy="525.588" r="5.77647" stroke-width="0.5" stroke="black" fill="Red"/>
  <circle cx="423.093" cy="525.588" r="3.53875" stroke-width="0.5" stroke="Red" fill="Red"/>
   </g>
   <g id="cell203">
  <circle cx="495.224" cy="554.685" r="6.69288" stroke-width="0.5" stroke="black" fill="Red"/>
  <circle cx="495.224" cy="554.685" r="4.02051" stroke-width="0.5" stroke="Red" fill="Red"/>
   </g>
   <g id="cell204">
  <circle cx="447.957" cy="477.921" r="6.67717" stroke-width="0.5" stroke="black" fill="blue"/>
  <circle cx="447.957" cy="477.921" r="4.00951" stroke-width="0.5" stroke="blue" fill="blue"/>
   </g>
  </g>
 </g>
  <rect x="775" y="1035" width="200" height="10" stroke-width="2" stroke="rgb(255,255,255)" fill="rgb(0,0,0)"/>
  <text x="781.25" y="1028.75"
   font-family="Arial" font-size="25" fill="black" >
   200 &#956;m
  </text>
  <text x="25" y="1045"
   font-family="Arial" font-size="18.75" fill="black" >
   0 days, 0 hours, 2 minutes, and 40.1883 seconds
  </text>
  <rect x="0" y="70" width="1000" height="1000" stroke-width="2" stroke="rgb(0,0,0)" fill="none"/>
</svg>
