<?xml version="1.0" encoding="UTF-8" standalone="no"?>
<!-- Created with PhysiCell (http://PhysiCell.MathCancer.org/) -->
<svg 
 xmlns:dc="http://purl.org/dc/elements/1.1/" 
 xmlns:cc="http://creativecommons.org/ns#" 
 xmlns:rdf="http://www.w3.org/1999/02/22-rdf-syntax-ns#" 
 xmlns:svg="http://www.w3.org/2000/svg" 
 xmlns="http://www.w3.org/2000/svg" 
 version="1.1" 
 width="1000" 
 height="1070" 
 id="svg2">
  <rect x="0" y="0" width="1000" height="1070" stroke-width="2" stroke="white" fill="white"/>
  <text x="12.5" y="30"
   font-family="Arial" font-size="25" fill="black" >
   Current time: 0 days, 1 hours, and 30.00 minutes, z = 0.00 &#956;m
  </text>
  <text x="12.5" y="57.5"
   font-family="Arial" font-size="23.75" fill="black" >
   156 agents
  </text>
 <g id="tissue" 
    transform="translate(0,1070) scale(1,-1)">
  <g id="ECM">
  </g>
  <g id="cells">
   <g id="cell0">
  <circle cx="425.768" cy="451.993" r="8.41271" stroke-width="0.5" stroke="black" fill="blue"/>
  <circle cx="425.768" cy="451.993" r="5.05167" stroke-width="0.5" stroke="blue" fill="blue"/>
   </g>
   <g id="cell1">
  <circle cx="424.512" cy="466.792" r="8.41271" stroke-width="0.5" stroke="black" fill="yellow"/>
  <circle cx="424.512" cy="466.792" r="5.05167" stroke-width="0.5" stroke="yellow" fill="yellow"/>
   </g>
   <g id="cell2">
  <circle cx="426.447" cy="481.64" r="8.41271" stroke-width="0.5" stroke="black" fill="blue"/>
  <circle cx="426.447" cy="481.64" r="5.05167" stroke-width="0.5" stroke="blue" fill="blue"/>
   </g>
   <g id="cell3">
  <circle cx="425.673" cy="496.212" r="8.41271" stroke-width="0.5" stroke="black" fill="Red"/>
  <circle cx="425.673" cy="496.212" r="5.05167" stroke-width="0.5" stroke="Red" fill="Red"/>
   </g>
   <g id="cell4">
  <circle cx="428.499" cy="510.289" r="8.41271" stroke-width="0.5" stroke="black" fill="blue"/>
  <circle cx="428.499" cy="510.289" r="5.05167" stroke-width="0.5" stroke="blue" fill="blue"/>
   </g>
   <g id="cell5">
  <circle cx="424.48" cy="523.837" r="8.41271" stroke-width="0.5" stroke="black" fill="yellow"/>
  <circle cx="424.48" cy="523.837" r="5.05167" stroke-width="0.5" stroke="yellow" fill="yellow"/>
   </g>
   <g id="cell6">
  <circle cx="425.673" cy="537.684" r="8.41271" stroke-width="0.5" stroke="black" fill="blue"/>
  <circle cx="425.673" cy="537.684" r="5.05167" stroke-width="0.5" stroke="blue" fill="blue"/>
   </g>
   <g id="cell7">
  <circle cx="437.089" cy="447.629" r="6.99069" stroke-width="0.5" stroke="black" fill="Red"/>
  <circle cx="437.089" cy="447.629" r="4.23498" stroke-width="0.5" stroke="Red" fill="Red"/>
   </g>
   <g id="cell8">
  <circle cx="437.621" cy="459.778" r="8.41271" stroke-width="0.5" stroke="black" fill="Red"/>
  <circle cx="437.621" cy="459.778" r="5.05167" stroke-width="0.5" stroke="Red" fill="Red"/>
   </g>
   <g id="cell9">
  <circle cx="437.581" cy="473.978" r="8.41271" stroke-width="0.5" stroke="black" fill="yellow"/>
  <circle cx="437.581" cy="473.978" r="5.05167" stroke-width="0.5" stroke="yellow" fill="yellow"/>
   </g>
   <g id="cell10">
  <circle cx="437.705" cy="487.973" r="8.41271" stroke-width="0.5" stroke="black" fill="yellow"/>
  <circle cx="437.705" cy="487.973" r="5.05167" stroke-width="0.5" stroke="yellow" fill="yellow"/>
   </g>
   <g id="cell11">
  <circle cx="439.491" cy="501.486" r="8.41271" stroke-width="0.5" stroke="black" fill="yellow"/>
  <circle cx="439.491" cy="501.486" r="5.05167" stroke-width="0.5" stroke="yellow" fill="yellow"/>
   </g>
   <g id="cell12">
  <circle cx="435.924" cy="518.652" r="6.73287" stroke-width="0.5" stroke="black" fill="Red"/>
  <circle cx="435.924" cy="518.652" r="4.05039" stroke-width="0.5" stroke="Red" fill="Red"/>
   </g>
   <g id="cell13">
  <circle cx="438.278" cy="531.169" r="8.41271" stroke-width="0.5" stroke="black" fill="yellow"/>
  <circle cx="438.278" cy="531.169" r="5.05167" stroke-width="0.5" stroke="yellow" fill="yellow"/>
   </g>
   <g id="cell14">
  <circle cx="438.757" cy="546.14" r="8.41271" stroke-width="0.5" stroke="black" fill="yellow"/>
  <circle cx="438.757" cy="546.14" r="5.05167" stroke-width="0.5" stroke="yellow" fill="yellow"/>
   </g>
   <g id="cell15">
  <circle cx="441.468" cy="561.461" r="8.41271" stroke-width="0.5" stroke="black" fill="blue"/>
  <circle cx="441.468" cy="561.461" r="5.05167" stroke-width="0.5" stroke="blue" fill="blue"/>
   </g>
   <g id="cell16">
  <circle cx="452.944" cy="428.355" r="5.34389" stroke-width="0.5" stroke="black" fill="yellow"/>
  <circle cx="452.944" cy="428.355" r="3.2148" stroke-width="0.5" stroke="yellow" fill="yellow"/>
   </g>
   <g id="cell17">
  <circle cx="452.796" cy="439.772" r="8.41271" stroke-width="0.5" stroke="black" fill="Red"/>
  <circle cx="452.796" cy="439.772" r="5.05167" stroke-width="0.5" stroke="Red" fill="Red"/>
   </g>
   <g id="cell18">
  <circle cx="450.14" cy="452.951" r="8.41271" stroke-width="0.5" stroke="black" fill="Red"/>
  <circle cx="450.14" cy="452.951" r="5.05167" stroke-width="0.5" stroke="Red" fill="Red"/>
   </g>
   <g id="cell19">
  <circle cx="450.103" cy="467.396" r="8.41271" stroke-width="0.5" stroke="black" fill="blue"/>
  <circle cx="450.103" cy="467.396" r="5.05167" stroke-width="0.5" stroke="blue" fill="blue"/>
   </g>
   <g id="cell20">
  <circle cx="450.433" cy="481.006" r="8.41271" stroke-width="0.5" stroke="black" fill="Red"/>
  <circle cx="450.433" cy="481.006" r="5.05167" stroke-width="0.5" stroke="Red" fill="Red"/>
   </g>
   <g id="cell21">
  <circle cx="450.753" cy="494.495" r="8.41271" stroke-width="0.5" stroke="black" fill="blue"/>
  <circle cx="450.753" cy="494.495" r="5.05167" stroke-width="0.5" stroke="blue" fill="blue"/>
   </g>
   <g id="cell22">
  <circle cx="453.496" cy="507.643" r="8.41271" stroke-width="0.5" stroke="black" fill="blue"/>
  <circle cx="453.496" cy="507.643" r="5.05167" stroke-width="0.5" stroke="blue" fill="blue"/>
   </g>
   <g id="cell23">
  <circle cx="449.576" cy="521.338" r="8.41271" stroke-width="0.5" stroke="black" fill="Red"/>
  <circle cx="449.576" cy="521.338" r="5.05167" stroke-width="0.5" stroke="Red" fill="Red"/>
   </g>
   <g id="cell24">
  <circle cx="450.866" cy="537.618" r="8.41271" stroke-width="0.5" stroke="black" fill="blue"/>
  <circle cx="450.866" cy="537.618" r="5.05167" stroke-width="0.5" stroke="blue" fill="blue"/>
   </g>
   <g id="cell25">
  <circle cx="452.616" cy="552.46" r="8.41271" stroke-width="0.5" stroke="black" fill="yellow"/>
  <circle cx="452.616" cy="552.46" r="5.05167" stroke-width="0.5" stroke="yellow" fill="yellow"/>
   </g>
   <g id="cell26">
  <circle cx="453.041" cy="568.96" r="8.41271" stroke-width="0.5" stroke="black" fill="yellow"/>
  <circle cx="453.041" cy="568.96" r="5.05167" stroke-width="0.5" stroke="yellow" fill="yellow"/>
   </g>
   <g id="cell27">
  <circle cx="461.418" cy="419.714" r="8.41271" stroke-width="0.5" stroke="black" fill="yellow"/>
  <circle cx="461.418" cy="419.714" r="5.05167" stroke-width="0.5" stroke="yellow" fill="yellow"/>
   </g>
   <g id="cell28">
  <circle cx="463.512" cy="433.005" r="8.41271" stroke-width="0.5" stroke="black" fill="Red"/>
  <circle cx="463.512" cy="433.005" r="5.05167" stroke-width="0.5" stroke="Red" fill="Red"/>
   </g>
   <g id="cell29">
  <circle cx="464.013" cy="447.363" r="8.41271" stroke-width="0.5" stroke="black" fill="blue"/>
  <circle cx="464.013" cy="447.363" r="5.05167" stroke-width="0.5" stroke="blue" fill="blue"/>
   </g>
   <g id="cell30">
  <circle cx="462.727" cy="460.661" r="8.41271" stroke-width="0.5" stroke="black" fill="Red"/>
  <circle cx="462.727" cy="460.661" r="5.05167" stroke-width="0.5" stroke="Red" fill="Red"/>
   </g>
   <g id="cell31">
  <circle cx="462.316" cy="474.105" r="8.41271" stroke-width="0.5" stroke="black" fill="Red"/>
  <circle cx="462.316" cy="474.105" r="5.05167" stroke-width="0.5" stroke="Red" fill="Red"/>
   </g>
   <g id="cell32">
  <circle cx="463.792" cy="487.517" r="8.41271" stroke-width="0.5" stroke="black" fill="Red"/>
  <circle cx="463.792" cy="487.517" r="5.05167" stroke-width="0.5" stroke="Red" fill="Red"/>
   </g>
   <g id="cell33">
  <circle cx="463.338" cy="501.065" r="8.41271" stroke-width="0.5" stroke="black" fill="Red"/>
  <circle cx="463.338" cy="501.065" r="5.05167" stroke-width="0.5" stroke="Red" fill="Red"/>
   </g>
   <g id="cell34">
  <circle cx="463.569" cy="516.631" r="8.41271" stroke-width="0.5" stroke="black" fill="Red"/>
  <circle cx="463.569" cy="516.631" r="5.05167" stroke-width="0.5" stroke="Red" fill="Red"/>
   </g>
   <g id="cell35">
  <circle cx="461.493" cy="530.615" r="8.41271" stroke-width="0.5" stroke="black" fill="blue"/>
  <circle cx="461.493" cy="530.615" r="5.05167" stroke-width="0.5" stroke="blue" fill="blue"/>
   </g>
   <g id="cell36">
  <circle cx="463.358" cy="543.847" r="8.41271" stroke-width="0.5" stroke="black" fill="Red"/>
  <circle cx="463.358" cy="543.847" r="5.05167" stroke-width="0.5" stroke="Red" fill="Red"/>
   </g>
   <g id="cell37">
  <circle cx="464.523" cy="560.175" r="8.41271" stroke-width="0.5" stroke="black" fill="Red"/>
  <circle cx="464.523" cy="560.175" r="5.05167" stroke-width="0.5" stroke="Red" fill="Red"/>
   </g>
   <g id="cell38">
  <circle cx="467.18" cy="572.836" r="8.41271" stroke-width="0.5" stroke="black" fill="yellow"/>
  <circle cx="467.18" cy="572.836" r="5.05167" stroke-width="0.5" stroke="yellow" fill="yellow"/>
   </g>
   <g id="cell39">
  <circle cx="461.848" cy="583.776" r="8.41271" stroke-width="0.5" stroke="black" fill="blue"/>
  <circle cx="461.848" cy="583.776" r="5.05167" stroke-width="0.5" stroke="blue" fill="blue"/>
   </g>
   <g id="cell40">
  <circle cx="473.659" cy="412.931" r="8.41271" stroke-width="0.5" stroke="black" fill="blue"/>
  <circle cx="473.659" cy="412.931" r="5.05167" stroke-width="0.5" stroke="blue" fill="blue"/>
   </g>
   <g id="cell41">
  <circle cx="475.537" cy="426.649" r="8.41271" stroke-width="0.5" stroke="black" fill="Red"/>
  <circle cx="475.537" cy="426.649" r="5.05167" stroke-width="0.5" stroke="Red" fill="Red"/>
   </g>
   <g id="cell42">
  <circle cx="475.997" cy="440.822" r="8.41271" stroke-width="0.5" stroke="black" fill="Red"/>
  <circle cx="475.997" cy="440.822" r="5.05167" stroke-width="0.5" stroke="Red" fill="Red"/>
   </g>
   <g id="cell43">
  <circle cx="475.022" cy="454.586" r="8.41271" stroke-width="0.5" stroke="black" fill="Red"/>
  <circle cx="475.022" cy="454.586" r="5.05167" stroke-width="0.5" stroke="Red" fill="Red"/>
   </g>
   <g id="cell44">
  <circle cx="473.313" cy="469.307" r="8.41271" stroke-width="0.5" stroke="black" fill="blue"/>
  <circle cx="473.313" cy="469.307" r="5.05167" stroke-width="0.5" stroke="blue" fill="blue"/>
   </g>
   <g id="cell45">
  <circle cx="476.061" cy="483.24" r="8.41271" stroke-width="0.5" stroke="black" fill="Red"/>
  <circle cx="476.061" cy="483.24" r="5.05167" stroke-width="0.5" stroke="Red" fill="Red"/>
   </g>
   <g id="cell46">
  <circle cx="476.637" cy="496.955" r="8.41271" stroke-width="0.5" stroke="black" fill="Red"/>
  <circle cx="476.637" cy="496.955" r="5.05167" stroke-width="0.5" stroke="Red" fill="Red"/>
   </g>
   <g id="cell47">
  <circle cx="471.412" cy="508.324" r="6.95901" stroke-width="0.5" stroke="black" fill="Red"/>
  <circle cx="471.412" cy="508.324" r="4.21341" stroke-width="0.5" stroke="Red" fill="Red"/>
   </g>
   <g id="cell48">
  <circle cx="475.855" cy="522.533" r="8.41271" stroke-width="0.5" stroke="black" fill="Red"/>
  <circle cx="475.855" cy="522.533" r="5.05167" stroke-width="0.5" stroke="Red" fill="Red"/>
   </g>
   <g id="cell49">
  <circle cx="475.447" cy="536.907" r="8.41271" stroke-width="0.5" stroke="black" fill="Red"/>
  <circle cx="475.447" cy="536.907" r="5.05167" stroke-width="0.5" stroke="Red" fill="Red"/>
   </g>
   <g id="cell50">
  <circle cx="477.073" cy="551.148" r="8.41271" stroke-width="0.5" stroke="black" fill="Red"/>
  <circle cx="477.073" cy="551.148" r="5.05167" stroke-width="0.5" stroke="Red" fill="Red"/>
   </g>
   <g id="cell51">
  <circle cx="476.887" cy="565.059" r="8.41271" stroke-width="0.5" stroke="black" fill="Red"/>
  <circle cx="476.887" cy="565.059" r="5.05167" stroke-width="0.5" stroke="Red" fill="Red"/>
   </g>
   <g id="cell52">
  <circle cx="477.523" cy="580.408" r="8.41271" stroke-width="0.5" stroke="black" fill="yellow"/>
  <circle cx="477.523" cy="580.408" r="5.05167" stroke-width="0.5" stroke="yellow" fill="yellow"/>
   </g>
   <g id="cell53">
  <circle cx="487.599" cy="417.894" r="8.41271" stroke-width="0.5" stroke="black" fill="yellow"/>
  <circle cx="487.599" cy="417.894" r="5.05167" stroke-width="0.5" stroke="yellow" fill="yellow"/>
   </g>
   <g id="cell54">
  <circle cx="488.54" cy="432.779" r="8.41271" stroke-width="0.5" stroke="black" fill="blue"/>
  <circle cx="488.54" cy="432.779" r="5.05167" stroke-width="0.5" stroke="blue" fill="blue"/>
   </g>
   <g id="cell55">
  <circle cx="487.206" cy="449.696" r="8.41271" stroke-width="0.5" stroke="black" fill="Red"/>
  <circle cx="487.206" cy="449.696" r="5.05167" stroke-width="0.5" stroke="Red" fill="Red"/>
   </g>
   <g id="cell56">
  <circle cx="491.236" cy="462.059" r="6.69288" stroke-width="0.5" stroke="black" fill="Red"/>
  <circle cx="491.236" cy="462.059" r="4.02051" stroke-width="0.5" stroke="Red" fill="Red"/>
   </g>
   <g id="cell57">
  <circle cx="486.896" cy="474.722" r="8.41271" stroke-width="0.5" stroke="black" fill="Red"/>
  <circle cx="486.896" cy="474.722" r="5.05167" stroke-width="0.5" stroke="Red" fill="Red"/>
   </g>
   <g id="cell58">
  <circle cx="488.16" cy="488.843" r="8.41271" stroke-width="0.5" stroke="black" fill="blue"/>
  <circle cx="488.16" cy="488.843" r="5.05167" stroke-width="0.5" stroke="blue" fill="blue"/>
   </g>
   <g id="cell59">
  <circle cx="489.295" cy="503.046" r="8.41271" stroke-width="0.5" stroke="black" fill="Red"/>
  <circle cx="489.295" cy="503.046" r="5.05167" stroke-width="0.5" stroke="Red" fill="Red"/>
   </g>
   <g id="cell60">
  <circle cx="489.597" cy="516.418" r="8.41271" stroke-width="0.5" stroke="black" fill="Red"/>
  <circle cx="489.597" cy="516.418" r="5.05167" stroke-width="0.5" stroke="Red" fill="Red"/>
   </g>
   <g id="cell61">
  <circle cx="488.228" cy="529.489" r="8.41271" stroke-width="0.5" stroke="black" fill="blue"/>
  <circle cx="488.228" cy="529.489" r="5.05167" stroke-width="0.5" stroke="blue" fill="blue"/>
   </g>
   <g id="cell62">
  <circle cx="488.812" cy="543.238" r="8.41271" stroke-width="0.5" stroke="black" fill="Red"/>
  <circle cx="488.812" cy="543.238" r="5.05167" stroke-width="0.5" stroke="Red" fill="Red"/>
   </g>
   <g id="cell63">
  <circle cx="489.778" cy="558.001" r="8.41271" stroke-width="0.5" stroke="black" fill="Red"/>
  <circle cx="489.778" cy="558.001" r="5.05167" stroke-width="0.5" stroke="Red" fill="Red"/>
   </g>
   <g id="cell64">
  <circle cx="490.322" cy="570.643" r="8.41271" stroke-width="0.5" stroke="black" fill="Red"/>
  <circle cx="490.322" cy="570.643" r="5.05167" stroke-width="0.5" stroke="Red" fill="Red"/>
   </g>
   <g id="cell65">
  <circle cx="490.532" cy="585.692" r="8.41271" stroke-width="0.5" stroke="black" fill="Red"/>
  <circle cx="490.532" cy="585.692" r="5.05167" stroke-width="0.5" stroke="Red" fill="Red"/>
   </g>
   <g id="cell66">
  <circle cx="502.444" cy="409.081" r="8.41271" stroke-width="0.5" stroke="black" fill="blue"/>
  <circle cx="502.444" cy="409.081" r="5.05167" stroke-width="0.5" stroke="blue" fill="blue"/>
   </g>
   <g id="cell67">
  <circle cx="500.778" cy="424.976" r="8.41271" stroke-width="0.5" stroke="black" fill="yellow"/>
  <circle cx="500.778" cy="424.976" r="5.05167" stroke-width="0.5" stroke="yellow" fill="yellow"/>
   </g>
   <g id="cell68">
  <circle cx="499.135" cy="441.816" r="8.41271" stroke-width="0.5" stroke="black" fill="Red"/>
  <circle cx="499.135" cy="441.816" r="5.05167" stroke-width="0.5" stroke="Red" fill="Red"/>
   </g>
   <g id="cell69">
  <circle cx="499.967" cy="455.423" r="8.41271" stroke-width="0.5" stroke="black" fill="blue"/>
  <circle cx="499.967" cy="455.423" r="5.05167" stroke-width="0.5" stroke="blue" fill="blue"/>
   </g>
   <g id="cell70">
  <circle cx="500.862" cy="469.655" r="8.41271" stroke-width="0.5" stroke="black" fill="blue"/>
  <circle cx="500.862" cy="469.655" r="5.05167" stroke-width="0.5" stroke="blue" fill="blue"/>
   </g>
   <g id="cell71">
  <circle cx="500.202" cy="482.462" r="8.41271" stroke-width="0.5" stroke="black" fill="Red"/>
  <circle cx="500.202" cy="482.462" r="5.05167" stroke-width="0.5" stroke="Red" fill="Red"/>
   </g>
   <g id="cell72">
  <circle cx="501.493" cy="495.995" r="8.41271" stroke-width="0.5" stroke="black" fill="Red"/>
  <circle cx="501.493" cy="495.995" r="5.05167" stroke-width="0.5" stroke="Red" fill="Red"/>
   </g>
   <g id="cell73">
  <circle cx="502.061" cy="509.118" r="8.41271" stroke-width="0.5" stroke="black" fill="blue"/>
  <circle cx="502.061" cy="509.118" r="5.05167" stroke-width="0.5" stroke="blue" fill="blue"/>
   </g>
   <g id="cell74">
  <circle cx="501.726" cy="523.606" r="8.41271" stroke-width="0.5" stroke="black" fill="Red"/>
  <circle cx="501.726" cy="523.606" r="5.05167" stroke-width="0.5" stroke="Red" fill="Red"/>
   </g>
   <g id="cell75">
  <circle cx="500.534" cy="536.656" r="8.41271" stroke-width="0.5" stroke="black" fill="Red"/>
  <circle cx="500.534" cy="536.656" r="5.05167" stroke-width="0.5" stroke="Red" fill="Red"/>
   </g>
   <g id="cell76">
  <circle cx="500.687" cy="550.822" r="8.41271" stroke-width="0.5" stroke="black" fill="Red"/>
  <circle cx="500.687" cy="550.822" r="5.05167" stroke-width="0.5" stroke="Red" fill="Red"/>
   </g>
   <g id="cell77">
  <circle cx="502.448" cy="564.469" r="8.41271" stroke-width="0.5" stroke="black" fill="Red"/>
  <circle cx="502.448" cy="564.469" r="5.05167" stroke-width="0.5" stroke="Red" fill="Red"/>
   </g>
   <g id="cell78">
  <circle cx="502.31" cy="578.305" r="8.41271" stroke-width="0.5" stroke="black" fill="yellow"/>
  <circle cx="502.31" cy="578.305" r="5.05167" stroke-width="0.5" stroke="yellow" fill="yellow"/>
   </g>
   <g id="cell79">
  <circle cx="503.416" cy="591.388" r="8.41271" stroke-width="0.5" stroke="black" fill="blue"/>
  <circle cx="503.416" cy="591.388" r="5.05167" stroke-width="0.5" stroke="blue" fill="blue"/>
   </g>
   <g id="cell80">
  <circle cx="513.26" cy="417.158" r="8.41271" stroke-width="0.5" stroke="black" fill="yellow"/>
  <circle cx="513.26" cy="417.158" r="5.05167" stroke-width="0.5" stroke="yellow" fill="yellow"/>
   </g>
   <g id="cell81">
  <circle cx="510.875" cy="433.494" r="8.41271" stroke-width="0.5" stroke="black" fill="blue"/>
  <circle cx="510.875" cy="433.494" r="5.05167" stroke-width="0.5" stroke="blue" fill="blue"/>
   </g>
   <g id="cell82">
  <circle cx="511.352" cy="447.131" r="8.41271" stroke-width="0.5" stroke="black" fill="Red"/>
  <circle cx="511.352" cy="447.131" r="5.05167" stroke-width="0.5" stroke="Red" fill="Red"/>
   </g>
   <g id="cell83">
  <circle cx="513.052" cy="460.712" r="8.41271" stroke-width="0.5" stroke="black" fill="Red"/>
  <circle cx="513.052" cy="460.712" r="5.05167" stroke-width="0.5" stroke="Red" fill="Red"/>
   </g>
   <g id="cell84">
  <circle cx="512.861" cy="474.563" r="8.41271" stroke-width="0.5" stroke="black" fill="Red"/>
  <circle cx="512.861" cy="474.563" r="5.05167" stroke-width="0.5" stroke="Red" fill="Red"/>
   </g>
   <g id="cell85">
  <circle cx="513.595" cy="488.009" r="8.41271" stroke-width="0.5" stroke="black" fill="blue"/>
  <circle cx="513.595" cy="488.009" r="5.05167" stroke-width="0.5" stroke="blue" fill="blue"/>
   </g>
   <g id="cell86">
  <circle cx="514.644" cy="502.038" r="8.41271" stroke-width="0.5" stroke="black" fill="Red"/>
  <circle cx="514.644" cy="502.038" r="5.05167" stroke-width="0.5" stroke="Red" fill="Red"/>
   </g>
   <g id="cell87">
  <circle cx="514.64" cy="515.357" r="8.41271" stroke-width="0.5" stroke="black" fill="Red"/>
  <circle cx="514.64" cy="515.357" r="5.05167" stroke-width="0.5" stroke="Red" fill="Red"/>
   </g>
   <g id="cell88">
  <circle cx="512.881" cy="529.654" r="8.41271" stroke-width="0.5" stroke="black" fill="Red"/>
  <circle cx="512.881" cy="529.654" r="5.05167" stroke-width="0.5" stroke="Red" fill="Red"/>
   </g>
   <g id="cell89">
  <circle cx="512.649" cy="544.434" r="8.41271" stroke-width="0.5" stroke="black" fill="Red"/>
  <circle cx="512.649" cy="544.434" r="5.05167" stroke-width="0.5" stroke="Red" fill="Red"/>
   </g>
   <g id="cell90">
  <circle cx="514.923" cy="558.137" r="8.41271" stroke-width="0.5" stroke="black" fill="blue"/>
  <circle cx="514.923" cy="558.137" r="5.05167" stroke-width="0.5" stroke="blue" fill="blue"/>
   </g>
   <g id="cell91">
  <circle cx="514.553" cy="571.402" r="8.41271" stroke-width="0.5" stroke="black" fill="Red"/>
  <circle cx="514.553" cy="571.402" r="5.05167" stroke-width="0.5" stroke="Red" fill="Red"/>
   </g>
   <g id="cell92">
  <circle cx="515.629" cy="585.756" r="8.41271" stroke-width="0.5" stroke="black" fill="Red"/>
  <circle cx="515.629" cy="585.756" r="5.05167" stroke-width="0.5" stroke="Red" fill="Red"/>
   </g>
   <g id="cell93">
  <circle cx="527.874" cy="415.433" r="8.41271" stroke-width="0.5" stroke="black" fill="blue"/>
  <circle cx="527.874" cy="415.433" r="5.05167" stroke-width="0.5" stroke="blue" fill="blue"/>
   </g>
   <g id="cell94">
  <circle cx="530.598" cy="426.741" r="6.67717" stroke-width="0.5" stroke="black" fill="Red"/>
  <circle cx="530.598" cy="426.741" r="4.00951" stroke-width="0.5" stroke="Red" fill="Red"/>
   </g>
   <g id="cell95">
  <circle cx="524.458" cy="438.312" r="8.41271" stroke-width="0.5" stroke="black" fill="Red"/>
  <circle cx="524.458" cy="438.312" r="5.05167" stroke-width="0.5" stroke="Red" fill="Red"/>
   </g>
   <g id="cell96">
  <circle cx="522.67" cy="450.569" r="6.95901" stroke-width="0.5" stroke="black" fill="blue"/>
  <circle cx="522.67" cy="450.569" r="4.21341" stroke-width="0.5" stroke="blue" fill="blue"/>
   </g>
   <g id="cell97">
  <circle cx="523.738" cy="466.775" r="8.41271" stroke-width="0.5" stroke="black" fill="Red"/>
  <circle cx="523.738" cy="466.775" r="5.05167" stroke-width="0.5" stroke="Red" fill="Red"/>
   </g>
   <g id="cell98">
  <circle cx="526.349" cy="480.281" r="8.41271" stroke-width="0.5" stroke="black" fill="Red"/>
  <circle cx="526.349" cy="480.281" r="5.05167" stroke-width="0.5" stroke="Red" fill="Red"/>
   </g>
   <g id="cell99">
  <circle cx="526.476" cy="495.034" r="8.41271" stroke-width="0.5" stroke="black" fill="Red"/>
  <circle cx="526.476" cy="495.034" r="5.05167" stroke-width="0.5" stroke="Red" fill="Red"/>
   </g>
   <g id="cell100">
  <circle cx="526.707" cy="509.327" r="8.41271" stroke-width="0.5" stroke="black" fill="blue"/>
  <circle cx="526.707" cy="509.327" r="5.05167" stroke-width="0.5" stroke="blue" fill="blue"/>
   </g>
   <g id="cell101">
  <circle cx="526.845" cy="524.303" r="8.41271" stroke-width="0.5" stroke="black" fill="Red"/>
  <circle cx="526.845" cy="524.303" r="5.05167" stroke-width="0.5" stroke="Red" fill="Red"/>
   </g>
   <g id="cell102">
  <circle cx="531.423" cy="537.833" r="6.86652" stroke-width="0.5" stroke="black" fill="blue"/>
  <circle cx="531.423" cy="537.833" r="4.14883" stroke-width="0.5" stroke="blue" fill="blue"/>
   </g>
   <g id="cell103">
  <circle cx="526.977" cy="548.82" r="8.41271" stroke-width="0.5" stroke="black" fill="Red"/>
  <circle cx="526.977" cy="548.82" r="5.05167" stroke-width="0.5" stroke="Red" fill="Red"/>
   </g>
   <g id="cell104">
  <circle cx="526.486" cy="563.499" r="8.41271" stroke-width="0.5" stroke="black" fill="Red"/>
  <circle cx="526.486" cy="563.499" r="5.05167" stroke-width="0.5" stroke="Red" fill="Red"/>
   </g>
   <g id="cell105">
  <circle cx="526.697" cy="577.489" r="8.41271" stroke-width="0.5" stroke="black" fill="blue"/>
  <circle cx="526.697" cy="577.489" r="5.05167" stroke-width="0.5" stroke="blue" fill="blue"/>
   </g>
   <g id="cell106">
  <circle cx="541.001" cy="420.292" r="8.41271" stroke-width="0.5" stroke="black" fill="yellow"/>
  <circle cx="541.001" cy="420.292" r="5.05167" stroke-width="0.5" stroke="yellow" fill="yellow"/>
   </g>
   <g id="cell107">
  <circle cx="539.341" cy="434.667" r="8.41271" stroke-width="0.5" stroke="black" fill="yellow"/>
  <circle cx="539.341" cy="434.667" r="5.05167" stroke-width="0.5" stroke="yellow" fill="yellow"/>
   </g>
   <g id="cell108">
  <circle cx="536.581" cy="447.476" r="8.41271" stroke-width="0.5" stroke="black" fill="Red"/>
  <circle cx="536.581" cy="447.476" r="5.05167" stroke-width="0.5" stroke="Red" fill="Red"/>
   </g>
   <g id="cell109">
  <circle cx="542.049" cy="459.536" r="8.41271" stroke-width="0.5" stroke="black" fill="Red"/>
  <circle cx="542.049" cy="459.536" r="5.05167" stroke-width="0.5" stroke="Red" fill="Red"/>
   </g>
   <g id="cell110">
  <circle cx="539.553" cy="474.178" r="8.41271" stroke-width="0.5" stroke="black" fill="Red"/>
  <circle cx="539.553" cy="474.178" r="5.05167" stroke-width="0.5" stroke="Red" fill="Red"/>
   </g>
   <g id="cell111">
  <circle cx="538.09" cy="488.208" r="8.41271" stroke-width="0.5" stroke="black" fill="blue"/>
  <circle cx="538.09" cy="488.208" r="5.05167" stroke-width="0.5" stroke="blue" fill="blue"/>
   </g>
   <g id="cell112">
  <circle cx="539.333" cy="501.905" r="8.41271" stroke-width="0.5" stroke="black" fill="Red"/>
  <circle cx="539.333" cy="501.905" r="5.05167" stroke-width="0.5" stroke="Red" fill="Red"/>
   </g>
   <g id="cell113">
  <circle cx="538.687" cy="515.863" r="8.41271" stroke-width="0.5" stroke="black" fill="Red"/>
  <circle cx="538.687" cy="515.863" r="5.05167" stroke-width="0.5" stroke="Red" fill="Red"/>
   </g>
   <g id="cell114">
  <circle cx="541.445" cy="529.319" r="8.41271" stroke-width="0.5" stroke="black" fill="Red"/>
  <circle cx="541.445" cy="529.319" r="5.05167" stroke-width="0.5" stroke="Red" fill="Red"/>
   </g>
   <g id="cell115">
  <circle cx="541.104" cy="544.158" r="8.41271" stroke-width="0.5" stroke="black" fill="Red"/>
  <circle cx="541.104" cy="544.158" r="5.05167" stroke-width="0.5" stroke="Red" fill="Red"/>
   </g>
   <g id="cell116">
  <circle cx="539.354" cy="558.158" r="8.41271" stroke-width="0.5" stroke="black" fill="Red"/>
  <circle cx="539.354" cy="558.158" r="5.05167" stroke-width="0.5" stroke="Red" fill="Red"/>
   </g>
   <g id="cell117">
  <circle cx="537.528" cy="570.449" r="8.41271" stroke-width="0.5" stroke="black" fill="blue"/>
  <circle cx="537.528" cy="570.449" r="5.05167" stroke-width="0.5" stroke="blue" fill="blue"/>
   </g>
   <g id="cell118">
  <circle cx="552.505" cy="427.608" r="8.41271" stroke-width="0.5" stroke="black" fill="blue"/>
  <circle cx="552.505" cy="427.608" r="5.05167" stroke-width="0.5" stroke="blue" fill="blue"/>
   </g>
   <g id="cell119">
  <circle cx="551.928" cy="441.546" r="8.41271" stroke-width="0.5" stroke="black" fill="yellow"/>
  <circle cx="551.928" cy="441.546" r="5.05167" stroke-width="0.5" stroke="yellow" fill="yellow"/>
   </g>
   <g id="cell120">
  <circle cx="554.375" cy="453.833" r="8.41271" stroke-width="0.5" stroke="black" fill="yellow"/>
  <circle cx="554.375" cy="453.833" r="5.05167" stroke-width="0.5" stroke="yellow" fill="yellow"/>
   </g>
   <g id="cell121">
  <circle cx="552.806" cy="468.56" r="8.41271" stroke-width="0.5" stroke="black" fill="blue"/>
  <circle cx="552.806" cy="468.56" r="5.05167" stroke-width="0.5" stroke="blue" fill="blue"/>
   </g>
   <g id="cell122">
  <circle cx="552.597" cy="482.417" r="8.41271" stroke-width="0.5" stroke="black" fill="Red"/>
  <circle cx="552.597" cy="482.417" r="5.05167" stroke-width="0.5" stroke="Red" fill="Red"/>
   </g>
   <g id="cell123">
  <circle cx="551.632" cy="495.626" r="8.41271" stroke-width="0.5" stroke="black" fill="Red"/>
  <circle cx="551.632" cy="495.626" r="5.05167" stroke-width="0.5" stroke="Red" fill="Red"/>
   </g>
   <g id="cell124">
  <circle cx="551.045" cy="509.781" r="8.41271" stroke-width="0.5" stroke="black" fill="Red"/>
  <circle cx="551.045" cy="509.781" r="5.05167" stroke-width="0.5" stroke="Red" fill="Red"/>
   </g>
   <g id="cell125">
  <circle cx="549.145" cy="520.537" r="6.67717" stroke-width="0.5" stroke="black" fill="Red"/>
  <circle cx="549.145" cy="520.537" r="4.00951" stroke-width="0.5" stroke="Red" fill="Red"/>
   </g>
   <g id="cell126">
  <circle cx="554.019" cy="537.113" r="8.41271" stroke-width="0.5" stroke="black" fill="Red"/>
  <circle cx="554.019" cy="537.113" r="5.05167" stroke-width="0.5" stroke="Red" fill="Red"/>
   </g>
   <g id="cell127">
  <circle cx="552.922" cy="551.865" r="8.41271" stroke-width="0.5" stroke="black" fill="Red"/>
  <circle cx="552.922" cy="551.865" r="5.05167" stroke-width="0.5" stroke="Red" fill="Red"/>
   </g>
   <g id="cell128">
  <circle cx="551.056" cy="566.472" r="8.41271" stroke-width="0.5" stroke="black" fill="yellow"/>
  <circle cx="551.056" cy="566.472" r="5.05167" stroke-width="0.5" stroke="yellow" fill="yellow"/>
   </g>
   <g id="cell129">
  <circle cx="566.957" cy="446.388" r="8.41271" stroke-width="0.5" stroke="black" fill="blue"/>
  <circle cx="566.957" cy="446.388" r="5.05167" stroke-width="0.5" stroke="blue" fill="blue"/>
   </g>
   <g id="cell130">
  <circle cx="567.136" cy="460.598" r="8.41271" stroke-width="0.5" stroke="black" fill="yellow"/>
  <circle cx="567.136" cy="460.598" r="5.05167" stroke-width="0.5" stroke="yellow" fill="yellow"/>
   </g>
   <g id="cell131">
  <circle cx="565.977" cy="475.291" r="8.41271" stroke-width="0.5" stroke="black" fill="Red"/>
  <circle cx="565.977" cy="475.291" r="5.05167" stroke-width="0.5" stroke="Red" fill="Red"/>
   </g>
   <g id="cell132">
  <circle cx="564.486" cy="488.668" r="8.41271" stroke-width="0.5" stroke="black" fill="blue"/>
  <circle cx="564.486" cy="488.668" r="5.05167" stroke-width="0.5" stroke="blue" fill="blue"/>
   </g>
   <g id="cell133">
  <circle cx="564.278" cy="501.826" r="8.41271" stroke-width="0.5" stroke="black" fill="Red"/>
  <circle cx="564.278" cy="501.826" r="5.05167" stroke-width="0.5" stroke="Red" fill="Red"/>
   </g>
   <g id="cell134">
  <circle cx="563.184" cy="515.259" r="8.41271" stroke-width="0.5" stroke="black" fill="Red"/>
  <circle cx="563.184" cy="515.259" r="5.05167" stroke-width="0.5" stroke="Red" fill="Red"/>
   </g>
   <g id="cell135">
  <circle cx="567.266" cy="530.894" r="8.41271" stroke-width="0.5" stroke="black" fill="yellow"/>
  <circle cx="567.266" cy="530.894" r="5.05167" stroke-width="0.5" stroke="yellow" fill="yellow"/>
   </g>
   <g id="cell136">
  <circle cx="566.156" cy="545.448" r="8.41271" stroke-width="0.5" stroke="black" fill="yellow"/>
  <circle cx="566.156" cy="545.448" r="5.05167" stroke-width="0.5" stroke="yellow" fill="yellow"/>
   </g>
   <g id="cell137">
  <circle cx="563.642" cy="559.559" r="8.41271" stroke-width="0.5" stroke="black" fill="blue"/>
  <circle cx="563.642" cy="559.559" r="5.05167" stroke-width="0.5" stroke="blue" fill="blue"/>
   </g>
   <g id="cell138">
  <circle cx="579.999" cy="467.78" r="8.41271" stroke-width="0.5" stroke="black" fill="blue"/>
  <circle cx="579.999" cy="467.78" r="5.05167" stroke-width="0.5" stroke="blue" fill="blue"/>
   </g>
   <g id="cell139">
  <circle cx="579.346" cy="483.387" r="8.41271" stroke-width="0.5" stroke="black" fill="yellow"/>
  <circle cx="579.346" cy="483.387" r="5.05167" stroke-width="0.5" stroke="yellow" fill="yellow"/>
   </g>
   <g id="cell140">
  <circle cx="575.143" cy="495.406" r="6.99069" stroke-width="0.5" stroke="black" fill="yellow"/>
  <circle cx="575.143" cy="495.406" r="4.23498" stroke-width="0.5" stroke="yellow" fill="yellow"/>
   </g>
   <g id="cell141">
  <circle cx="577.024" cy="507.988" r="8.41271" stroke-width="0.5" stroke="black" fill="yellow"/>
  <circle cx="577.024" cy="507.988" r="5.05167" stroke-width="0.5" stroke="yellow" fill="yellow"/>
   </g>
   <g id="cell142">
  <circle cx="577.908" cy="522.659" r="8.41271" stroke-width="0.5" stroke="black" fill="Red"/>
  <circle cx="577.908" cy="522.659" r="5.05167" stroke-width="0.5" stroke="Red" fill="Red"/>
   </g>
   <g id="cell143">
  <circle cx="579.332" cy="536.231" r="8.41271" stroke-width="0.5" stroke="black" fill="blue"/>
  <circle cx="579.332" cy="536.231" r="5.05167" stroke-width="0.5" stroke="blue" fill="blue"/>
   </g>
   <g id="cell144">
  <circle cx="442.302" cy="436.722" r="6.99069" stroke-width="0.5" stroke="black" fill="blue"/>
  <circle cx="442.302" cy="436.722" r="4.23498" stroke-width="0.5" stroke="blue" fill="blue"/>
   </g>
   <g id="cell145">
  <circle cx="585.594" cy="497.096" r="6.99069" stroke-width="0.5" stroke="black" fill="blue"/>
  <circle cx="585.594" cy="497.096" r="4.23498" stroke-width="0.5" stroke="blue" fill="blue"/>
   </g>
   <g id="cell146">
  <circle cx="479.728" cy="510.822" r="6.95901" stroke-width="0.5" stroke="black" fill="blue"/>
  <circle cx="479.728" cy="510.822" r="4.21341" stroke-width="0.5" stroke="blue" fill="blue"/>
   </g>
   <g id="cell147">
  <circle cx="529.986" cy="456.636" r="5.79448" stroke-width="0.5" stroke="black" fill="Red"/>
  <circle cx="529.986" cy="456.636" r="3.53652" stroke-width="0.5" stroke="Red" fill="Red"/>
   </g>
   <g id="cell148">
  <circle cx="521.151" cy="536.589" r="6.86652" stroke-width="0.5" stroke="black" fill="blue"/>
  <circle cx="521.151" cy="536.589" r="4.14883" stroke-width="0.5" stroke="blue" fill="blue"/>
   </g>
   <g id="cell149">
  <circle cx="533.224" cy="464.717" r="5.79448" stroke-width="0.5" stroke="black" fill="blue"/>
  <circle cx="533.224" cy="464.717" r="3.53652" stroke-width="0.5" stroke="blue" fill="blue"/>
   </g>
   <g id="cell150">
  <circle cx="441.937" cy="512.045" r="6.73287" stroke-width="0.5" stroke="black" fill="Red"/>
  <circle cx="441.937" cy="512.045" r="4.05039" stroke-width="0.5" stroke="Red" fill="Red"/>
   </g>
   <g id="cell151">
  <circle cx="448.079" cy="418.444" r="6.73287" stroke-width="0.5" stroke="black" fill="blue"/>
  <circle cx="448.079" cy="418.444" r="4.05039" stroke-width="0.5" stroke="blue" fill="blue"/>
   </g>
   <g id="cell152">
  <circle cx="482.181" cy="463.174" r="6.69288" stroke-width="0.5" stroke="black" fill="blue"/>
  <circle cx="482.181" cy="463.174" r="4.02051" stroke-width="0.5" stroke="blue" fill="blue"/>
   </g>
   <g id="cell153">
  <circle cx="520.399" cy="427.108" r="6.67717" stroke-width="0.5" stroke="black" fill="Red"/>
  <circle cx="520.399" cy="427.108" r="4.00951" stroke-width="0.5" stroke="Red" fill="Red"/>
   </g>
   <g id="cell154">
  <circle cx="557.098" cy="525.037" r="6.67717" stroke-width="0.5" stroke="black" fill="blue"/>
  <circle cx="557.098" cy="525.037" r="4.00951" stroke-width="0.5" stroke="blue" fill="blue"/>
   </g>
   <g id="cell155">
  <circle cx="444.27" cy="427.102" r="5.34389" stroke-width="0.5" stroke="black" fill="yellow"/>
  <circle cx="444.27" cy="427.102" r="3.2148" stroke-width="0.5" stroke="yellow" fill="yellow"/>
   </g>
  </g>
 </g>
  <rect x="775" y="1035" width="200" height="10" stroke-width="2" stroke="rgb(255,255,255)" fill="rgb(0,0,0)"/>
  <text x="781.25" y="1028.75"
   font-family="Arial" font-size="25" fill="black" >
   200 &#956;m
  </text>
  <text x="25" y="1045"
   font-family="Arial" font-size="18.75" fill="black" >
   0 days, 0 hours, 0 minutes, and 26.4652 seconds
  </text>
  <rect x="0" y="70" width="1000" height="1000" stroke-width="2" stroke="rgb(0,0,0)" fill="none"/>
</svg>
