<?xml version="1.0" encoding="UTF-8" standalone="no"?>
<!-- Created with PhysiCell (http://PhysiCell.MathCancer.org/) -->
<svg 
 xmlns:dc="http://purl.org/dc/elements/1.1/" 
 xmlns:cc="http://creativecommons.org/ns#" 
 xmlns:rdf="http://www.w3.org/1999/02/22-rdf-syntax-ns#" 
 xmlns:svg="http://www.w3.org/2000/svg" 
 xmlns="http://www.w3.org/2000/svg" 
 version="1.1" 
 width="1000" 
 height="1070" 
 id="svg2">
  <rect x="0" y="0" width="1000" height="1070" stroke-width="2" stroke="white" fill="white"/>
  <text x="12.5" y="30"
   font-family="Arial" font-size="25" fill="black" >
   Current time: 0 days, 7 hours, and 5.00 minutes, z = 0.00 &#956;m
  </text>
  <text x="12.5" y="57.5"
   font-family="Arial" font-size="23.75" fill="black" >
   213 agents
  </text>
 <g id="tissue" 
    transform="translate(0,1070) scale(1,-1)">
  <g id="ECM">
  </g>
  <g id="cells">
   <g id="cell0">
  <circle cx="422.45" cy="440.962" r="8.41271" stroke-width="0.5" stroke="black" fill="Red"/>
  <circle cx="422.45" cy="440.962" r="5.05167" stroke-width="0.5" stroke="Red" fill="Red"/>
   </g>
   <g id="cell1">
  <circle cx="422.11" cy="468.275" r="7.75912" stroke-width="0.5" stroke="black" fill="yellow"/>
  <circle cx="422.11" cy="468.275" r="4.71248" stroke-width="0.5" stroke="yellow" fill="yellow"/>
   </g>
   <g id="cell2">
  <circle cx="423.76" cy="481.121" r="8.41271" stroke-width="0.5" stroke="black" fill="yellow"/>
  <circle cx="423.76" cy="481.121" r="5.05167" stroke-width="0.5" stroke="yellow" fill="yellow"/>
   </g>
   <g id="cell3">
  <circle cx="416.837" cy="494.185" r="7.87851" stroke-width="0.5" stroke="black" fill="blue"/>
  <circle cx="416.837" cy="494.185" r="4.78096" stroke-width="0.5" stroke="blue" fill="blue"/>
   </g>
   <g id="cell4">
  <circle cx="424.1" cy="506.835" r="8.41271" stroke-width="0.5" stroke="black" fill="yellow"/>
  <circle cx="424.1" cy="506.835" r="5.05167" stroke-width="0.5" stroke="yellow" fill="yellow"/>
   </g>
   <g id="cell5">
  <circle cx="409.809" cy="527.209" r="6.4664" stroke-width="0.5" stroke="black" fill="yellow"/>
  <circle cx="409.809" cy="527.209" r="3.94964" stroke-width="0.5" stroke="yellow" fill="yellow"/>
   </g>
   <g id="cell6">
  <circle cx="426.488" cy="542.073" r="8.41271" stroke-width="0.5" stroke="black" fill="yellow"/>
  <circle cx="426.488" cy="542.073" r="5.05167" stroke-width="0.5" stroke="yellow" fill="yellow"/>
   </g>
   <g id="cell7">
  <circle cx="434.785" cy="446.389" r="8.11327" stroke-width="0.5" stroke="black" fill="Red"/>
  <circle cx="434.785" cy="446.389" r="4.91006" stroke-width="0.5" stroke="Red" fill="Red"/>
   </g>
   <g id="cell8">
  <circle cx="425.899" cy="456.14" r="8.41271" stroke-width="0.5" stroke="black" fill="Red"/>
  <circle cx="425.899" cy="456.14" r="5.05167" stroke-width="0.5" stroke="Red" fill="Red"/>
   </g>
   <g id="cell9">
  <circle cx="434.607" cy="470.428" r="8.41271" stroke-width="0.5" stroke="black" fill="Red"/>
  <circle cx="434.607" cy="470.428" r="5.05167" stroke-width="0.5" stroke="Red" fill="Red"/>
   </g>
   <g id="cell10">
  <circle cx="436.365" cy="484.131" r="8.41271" stroke-width="0.5" stroke="black" fill="Red"/>
  <circle cx="436.365" cy="484.131" r="5.05167" stroke-width="0.5" stroke="Red" fill="Red"/>
   </g>
   <g id="cell11">
  <circle cx="437.848" cy="503.103" r="8.41271" stroke-width="0.5" stroke="black" fill="Red"/>
  <circle cx="437.848" cy="503.103" r="5.05167" stroke-width="0.5" stroke="Red" fill="Red"/>
   </g>
   <g id="cell12">
  <circle cx="431.163" cy="518.148" r="8.02418" stroke-width="0.5" stroke="black" fill="Red"/>
  <circle cx="431.163" cy="518.148" r="4.86209" stroke-width="0.5" stroke="Red" fill="Red"/>
   </g>
   <g id="cell13">
  <circle cx="438.881" cy="538.487" r="8.41271" stroke-width="0.5" stroke="black" fill="blue"/>
  <circle cx="438.881" cy="538.487" r="5.05167" stroke-width="0.5" stroke="blue" fill="blue"/>
   </g>
   <g id="cell14">
  <circle cx="436.302" cy="552.569" r="8.41271" stroke-width="0.5" stroke="black" fill="Red"/>
  <circle cx="436.302" cy="552.569" r="5.05167" stroke-width="0.5" stroke="Red" fill="Red"/>
   </g>
   <g id="cell15">
  <circle cx="439.781" cy="566.636" r="8.41271" stroke-width="0.5" stroke="black" fill="blue"/>
  <circle cx="439.781" cy="566.636" r="5.05167" stroke-width="0.5" stroke="blue" fill="blue"/>
   </g>
   <g id="cell16">
  <circle cx="447.613" cy="426.287" r="6.17321" stroke-width="0.5" stroke="black" fill="Red"/>
  <circle cx="447.613" cy="426.287" r="3.76182" stroke-width="0.5" stroke="Red" fill="Red"/>
   </g>
   <g id="cell17">
  <circle cx="447.066" cy="445.627" r="7.51976" stroke-width="0.5" stroke="black" fill="blue"/>
  <circle cx="447.066" cy="445.627" r="4.57072" stroke-width="0.5" stroke="blue" fill="blue"/>
   </g>
   <g id="cell18">
  <circle cx="445.601" cy="456.07" r="6.69288" stroke-width="0.5" stroke="black" fill="Red"/>
  <circle cx="445.601" cy="456.07" r="4.02051" stroke-width="0.5" stroke="Red" fill="Red"/>
   </g>
   <g id="cell19">
  <circle cx="446.302" cy="467.282" r="8.41271" stroke-width="0.5" stroke="black" fill="Red"/>
  <circle cx="446.302" cy="467.282" r="5.05167" stroke-width="0.5" stroke="Red" fill="Red"/>
   </g>
   <g id="cell20">
  <circle cx="452.696" cy="482.73" r="6.75639" stroke-width="0.5" stroke="black" fill="Red"/>
  <circle cx="452.696" cy="482.73" r="4.06813" stroke-width="0.5" stroke="Red" fill="Red"/>
   </g>
   <g id="cell21">
  <circle cx="445.598" cy="491.978" r="8.41271" stroke-width="0.5" stroke="black" fill="Red"/>
  <circle cx="445.598" cy="491.978" r="5.05167" stroke-width="0.5" stroke="Red" fill="Red"/>
   </g>
   <g id="cell22">
  <circle cx="450.611" cy="505.253" r="8.41271" stroke-width="0.5" stroke="black" fill="Red"/>
  <circle cx="450.611" cy="505.253" r="5.05167" stroke-width="0.5" stroke="Red" fill="Red"/>
   </g>
   <g id="cell23">
  <circle cx="441.745" cy="526.427" r="8.41271" stroke-width="0.5" stroke="black" fill="Red"/>
  <circle cx="441.745" cy="526.427" r="5.05167" stroke-width="0.5" stroke="Red" fill="Red"/>
   </g>
   <g id="cell24">
  <circle cx="449.313" cy="543.19" r="8.41271" stroke-width="0.5" stroke="black" fill="Red"/>
  <circle cx="449.313" cy="543.19" r="5.05167" stroke-width="0.5" stroke="Red" fill="Red"/>
   </g>
   <g id="cell25">
  <circle cx="448.602" cy="557.027" r="8.41271" stroke-width="0.5" stroke="black" fill="Red"/>
  <circle cx="448.602" cy="557.027" r="5.05167" stroke-width="0.5" stroke="Red" fill="Red"/>
   </g>
   <g id="cell26">
  <circle cx="443.484" cy="578.154" r="7.02257" stroke-width="0.5" stroke="black" fill="Red"/>
  <circle cx="443.484" cy="578.154" r="4.25644" stroke-width="0.5" stroke="Red" fill="Red"/>
   </g>
   <g id="cell27">
  <circle cx="464.788" cy="402.322" r="8.41271" stroke-width="0.5" stroke="black" fill="Red"/>
  <circle cx="464.788" cy="402.322" r="5.05167" stroke-width="0.5" stroke="Red" fill="Red"/>
   </g>
   <g id="cell28">
  <circle cx="464.817" cy="422.605" r="6.92764" stroke-width="0.5" stroke="black" fill="Red"/>
  <circle cx="464.817" cy="422.605" r="4.1918" stroke-width="0.5" stroke="Red" fill="Red"/>
   </g>
   <g id="cell29">
  <circle cx="459.35" cy="445.924" r="7.84675" stroke-width="0.5" stroke="black" fill="Red"/>
  <circle cx="459.35" cy="445.924" r="4.7629" stroke-width="0.5" stroke="Red" fill="Red"/>
   </g>
   <g id="cell30">
  <circle cx="456.173" cy="457.818" r="8.41271" stroke-width="0.5" stroke="black" fill="Red"/>
  <circle cx="456.173" cy="457.818" r="5.05167" stroke-width="0.5" stroke="Red" fill="Red"/>
   </g>
   <g id="cell31">
  <circle cx="458.493" cy="472.677" r="8.41271" stroke-width="0.5" stroke="black" fill="Red"/>
  <circle cx="458.493" cy="472.677" r="5.05167" stroke-width="0.5" stroke="Red" fill="Red"/>
   </g>
   <g id="cell32">
  <circle cx="463.786" cy="486.282" r="8.41271" stroke-width="0.5" stroke="black" fill="Red"/>
  <circle cx="463.786" cy="486.282" r="5.05167" stroke-width="0.5" stroke="Red" fill="Red"/>
   </g>
   <g id="cell33">
  <circle cx="456.607" cy="495.037" r="8.41271" stroke-width="0.5" stroke="black" fill="blue"/>
  <circle cx="456.607" cy="495.037" r="5.05167" stroke-width="0.5" stroke="blue" fill="blue"/>
   </g>
   <g id="cell34">
  <circle cx="451.191" cy="518.296" r="6.36382" stroke-width="0.5" stroke="black" fill="blue"/>
  <circle cx="451.191" cy="518.296" r="3.90484" stroke-width="0.5" stroke="blue" fill="blue"/>
   </g>
   <g id="cell35">
  <circle cx="461.43" cy="542.763" r="6.23987" stroke-width="0.5" stroke="black" fill="blue"/>
  <circle cx="461.43" cy="542.763" r="3.81736" stroke-width="0.5" stroke="blue" fill="blue"/>
   </g>
   <g id="cell36">
  <circle cx="459.441" cy="551.185" r="8.41271" stroke-width="0.5" stroke="black" fill="Red"/>
  <circle cx="459.441" cy="551.185" r="5.05167" stroke-width="0.5" stroke="Red" fill="Red"/>
   </g>
   <g id="cell37">
  <circle cx="463.415" cy="563.656" r="8.41271" stroke-width="0.5" stroke="black" fill="Red"/>
  <circle cx="463.415" cy="563.656" r="5.05167" stroke-width="0.5" stroke="Red" fill="Red"/>
   </g>
   <g id="cell38">
  <circle cx="463.607" cy="578.02" r="8.41271" stroke-width="0.5" stroke="black" fill="yellow"/>
  <circle cx="463.607" cy="578.02" r="5.05167" stroke-width="0.5" stroke="yellow" fill="yellow"/>
   </g>
   <g id="cell39">
  <circle cx="466.117" cy="592.696" r="7.72056" stroke-width="0.5" stroke="black" fill="blue"/>
  <circle cx="466.117" cy="592.696" r="4.69003" stroke-width="0.5" stroke="blue" fill="blue"/>
   </g>
   <g id="cell40">
  <circle cx="479.736" cy="400.425" r="8.41271" stroke-width="0.5" stroke="black" fill="blue"/>
  <circle cx="479.736" cy="400.425" r="5.05167" stroke-width="0.5" stroke="blue" fill="blue"/>
   </g>
   <g id="cell41">
  <circle cx="474.726" cy="412.42" r="8.41271" stroke-width="0.5" stroke="black" fill="Red"/>
  <circle cx="474.726" cy="412.42" r="5.05167" stroke-width="0.5" stroke="Red" fill="Red"/>
   </g>
   <g id="cell42">
  <circle cx="478.847" cy="435.749" r="7.38797" stroke-width="0.5" stroke="black" fill="Red"/>
  <circle cx="478.847" cy="435.749" r="4.49029" stroke-width="0.5" stroke="Red" fill="Red"/>
   </g>
   <g id="cell43">
  <circle cx="468.648" cy="454.833" r="8.41271" stroke-width="0.5" stroke="black" fill="Red"/>
  <circle cx="468.648" cy="454.833" r="5.05167" stroke-width="0.5" stroke="Red" fill="Red"/>
   </g>
   <g id="cell44">
  <circle cx="473.084" cy="467.536" r="6.83713" stroke-width="0.5" stroke="black" fill="Red"/>
  <circle cx="473.084" cy="467.536" r="4.12773" stroke-width="0.5" stroke="Red" fill="Red"/>
   </g>
   <g id="cell45">
  <circle cx="470.878" cy="476.736" r="8.41271" stroke-width="0.5" stroke="black" fill="Red"/>
  <circle cx="470.878" cy="476.736" r="5.05167" stroke-width="0.5" stroke="Red" fill="Red"/>
   </g>
   <g id="cell46">
  <circle cx="472.716" cy="494.922" r="8.41271" stroke-width="0.5" stroke="black" fill="Red"/>
  <circle cx="472.716" cy="494.922" r="5.05167" stroke-width="0.5" stroke="Red" fill="Red"/>
   </g>
   <g id="cell47">
  <circle cx="464.631" cy="503.54" r="8.10448" stroke-width="0.5" stroke="black" fill="Red"/>
  <circle cx="464.631" cy="503.54" r="4.90539" stroke-width="0.5" stroke="Red" fill="Red"/>
   </g>
   <g id="cell48">
  <circle cx="477.757" cy="521.565" r="7.95045" stroke-width="0.5" stroke="black" fill="blue"/>
  <circle cx="477.757" cy="521.565" r="4.82139" stroke-width="0.5" stroke="blue" fill="blue"/>
   </g>
   <g id="cell49">
  <circle cx="470.612" cy="540.977" r="6.73287" stroke-width="0.5" stroke="black" fill="Red"/>
  <circle cx="470.612" cy="540.977" r="4.05039" stroke-width="0.5" stroke="Red" fill="Red"/>
   </g>
   <g id="cell50">
  <circle cx="479.397" cy="560.154" r="7.44242" stroke-width="0.5" stroke="black" fill="Red"/>
  <circle cx="479.397" cy="560.154" r="4.52373" stroke-width="0.5" stroke="Red" fill="Red"/>
   </g>
   <g id="cell51">
  <circle cx="474.683" cy="570.786" r="8.41271" stroke-width="0.5" stroke="black" fill="Red"/>
  <circle cx="474.683" cy="570.786" r="5.05167" stroke-width="0.5" stroke="Red" fill="Red"/>
   </g>
   <g id="cell52">
  <circle cx="477.383" cy="584.411" r="8.41271" stroke-width="0.5" stroke="black" fill="yellow"/>
  <circle cx="477.383" cy="584.411" r="5.05167" stroke-width="0.5" stroke="yellow" fill="yellow"/>
   </g>
   <g id="cell53">
  <circle cx="487.849" cy="408.323" r="6.73287" stroke-width="0.5" stroke="black" fill="Red"/>
  <circle cx="487.849" cy="408.323" r="4.05039" stroke-width="0.5" stroke="Red" fill="Red"/>
   </g>
   <g id="cell54">
  <circle cx="474.504" cy="425.472" r="8.41271" stroke-width="0.5" stroke="black" fill="Red"/>
  <circle cx="474.504" cy="425.472" r="5.05167" stroke-width="0.5" stroke="Red" fill="Red"/>
   </g>
   <g id="cell55">
  <circle cx="481.187" cy="448.254" r="7.84675" stroke-width="0.5" stroke="black" fill="Red"/>
  <circle cx="481.187" cy="448.254" r="4.7629" stroke-width="0.5" stroke="Red" fill="Red"/>
   </g>
   <g id="cell56">
  <circle cx="491.893" cy="454.926" r="8.00101" stroke-width="0.5" stroke="black" fill="blue"/>
  <circle cx="491.893" cy="454.926" r="4.84939" stroke-width="0.5" stroke="blue" fill="blue"/>
   </g>
   <g id="cell57">
  <circle cx="484.792" cy="472.617" r="8.41271" stroke-width="0.5" stroke="black" fill="Red"/>
  <circle cx="484.792" cy="472.617" r="5.05167" stroke-width="0.5" stroke="Red" fill="Red"/>
   </g>
   <g id="cell58">
  <circle cx="478.728" cy="484.212" r="8.41271" stroke-width="0.5" stroke="black" fill="blue"/>
  <circle cx="478.728" cy="484.212" r="5.05167" stroke-width="0.5" stroke="blue" fill="blue"/>
   </g>
   <g id="cell59">
  <circle cx="485.108" cy="495.236" r="7.46878" stroke-width="0.5" stroke="black" fill="Red"/>
  <circle cx="485.108" cy="495.236" r="4.53982" stroke-width="0.5" stroke="Red" fill="Red"/>
   </g>
   <g id="cell60">
  <circle cx="486.965" cy="514.159" r="8.41271" stroke-width="0.5" stroke="black" fill="Red"/>
  <circle cx="486.965" cy="514.159" r="5.05167" stroke-width="0.5" stroke="Red" fill="Red"/>
   </g>
   <g id="cell61">
  <circle cx="482.465" cy="531.129" r="8.41271" stroke-width="0.5" stroke="black" fill="Red"/>
  <circle cx="482.465" cy="531.129" r="5.05167" stroke-width="0.5" stroke="Red" fill="Red"/>
   </g>
   <g id="cell62">
  <circle cx="483.816" cy="549.997" r="8.41271" stroke-width="0.5" stroke="black" fill="Red"/>
  <circle cx="483.816" cy="549.997" r="5.05167" stroke-width="0.5" stroke="Red" fill="Red"/>
   </g>
   <g id="cell63">
  <circle cx="490.935" cy="561.511" r="8.41271" stroke-width="0.5" stroke="black" fill="Red"/>
  <circle cx="490.935" cy="561.511" r="5.05167" stroke-width="0.5" stroke="Red" fill="Red"/>
   </g>
   <g id="cell64">
  <circle cx="487.856" cy="578.599" r="6.73287" stroke-width="0.5" stroke="black" fill="blue"/>
  <circle cx="487.856" cy="578.599" r="4.05039" stroke-width="0.5" stroke="blue" fill="blue"/>
   </g>
   <g id="cell65">
  <circle cx="483.99" cy="599.542" r="7.30216" stroke-width="0.5" stroke="black" fill="Red"/>
  <circle cx="483.99" cy="599.542" r="4.43696" stroke-width="0.5" stroke="Red" fill="Red"/>
   </g>
   <g id="cell66">
  <circle cx="499.433" cy="411.765" r="8.41271" stroke-width="0.5" stroke="black" fill="blue"/>
  <circle cx="499.433" cy="411.765" r="5.05167" stroke-width="0.5" stroke="blue" fill="blue"/>
   </g>
   <g id="cell67">
  <circle cx="486.272" cy="419.376" r="8.41271" stroke-width="0.5" stroke="black" fill="Red"/>
  <circle cx="486.272" cy="419.376" r="5.05167" stroke-width="0.5" stroke="Red" fill="Red"/>
   </g>
   <g id="cell68">
  <circle cx="498.532" cy="424.776" r="8.41271" stroke-width="0.5" stroke="black" fill="Red"/>
  <circle cx="498.532" cy="424.776" r="5.05167" stroke-width="0.5" stroke="Red" fill="Red"/>
   </g>
   <g id="cell69">
  <circle cx="498.13" cy="445.741" r="6.83713" stroke-width="0.5" stroke="black" fill="Red"/>
  <circle cx="498.13" cy="445.741" r="4.12773" stroke-width="0.5" stroke="Red" fill="Red"/>
   </g>
   <g id="cell70">
  <circle cx="494.579" cy="465.261" r="8.41271" stroke-width="0.5" stroke="black" fill="Red"/>
  <circle cx="494.579" cy="465.261" r="5.05167" stroke-width="0.5" stroke="Red" fill="Red"/>
   </g>
   <g id="cell71">
  <circle cx="491.115" cy="482.577" r="8.41271" stroke-width="0.5" stroke="black" fill="Red"/>
  <circle cx="491.115" cy="482.577" r="5.05167" stroke-width="0.5" stroke="Red" fill="Red"/>
   </g>
   <g id="cell72">
  <circle cx="496.496" cy="493.498" r="8.41271" stroke-width="0.5" stroke="black" fill="Red"/>
  <circle cx="496.496" cy="493.498" r="5.05167" stroke-width="0.5" stroke="Red" fill="Red"/>
   </g>
   <g id="cell73">
  <circle cx="499.892" cy="513.983" r="8.41271" stroke-width="0.5" stroke="black" fill="Red"/>
  <circle cx="499.892" cy="513.983" r="5.05167" stroke-width="0.5" stroke="Red" fill="Red"/>
   </g>
   <g id="cell74">
  <circle cx="494.175" cy="526.422" r="8.41271" stroke-width="0.5" stroke="black" fill="Red"/>
  <circle cx="494.175" cy="526.422" r="5.05167" stroke-width="0.5" stroke="Red" fill="Red"/>
   </g>
   <g id="cell75">
  <circle cx="492.578" cy="539.559" r="8.41271" stroke-width="0.5" stroke="black" fill="Red"/>
  <circle cx="492.578" cy="539.559" r="5.05167" stroke-width="0.5" stroke="Red" fill="Red"/>
   </g>
   <g id="cell76">
  <circle cx="501.217" cy="546.407" r="6.78181" stroke-width="0.5" stroke="black" fill="Red"/>
  <circle cx="501.217" cy="546.407" r="4.08714" stroke-width="0.5" stroke="Red" fill="Red"/>
   </g>
   <g id="cell77">
  <circle cx="499.718" cy="570.526" r="7.93688" stroke-width="0.5" stroke="black" fill="Red"/>
  <circle cx="499.718" cy="570.526" r="4.81381" stroke-width="0.5" stroke="Red" fill="Red"/>
   </g>
   <g id="cell78">
  <circle cx="499.983" cy="582.369" r="8.41271" stroke-width="0.5" stroke="black" fill="Red"/>
  <circle cx="499.983" cy="582.369" r="5.05167" stroke-width="0.5" stroke="Red" fill="Red"/>
   </g>
   <g id="cell79">
  <circle cx="501.718" cy="597.974" r="8.41271" stroke-width="0.5" stroke="black" fill="blue"/>
  <circle cx="501.718" cy="597.974" r="5.05167" stroke-width="0.5" stroke="blue" fill="blue"/>
   </g>
   <g id="cell80">
  <circle cx="515.414" cy="409.613" r="7.61469" stroke-width="0.5" stroke="black" fill="Red"/>
  <circle cx="515.414" cy="409.613" r="4.62762" stroke-width="0.5" stroke="Red" fill="Red"/>
   </g>
   <g id="cell81">
  <circle cx="514.739" cy="432.571" r="8.41271" stroke-width="0.5" stroke="black" fill="Red"/>
  <circle cx="514.739" cy="432.571" r="5.05167" stroke-width="0.5" stroke="Red" fill="Red"/>
   </g>
   <g id="cell82">
  <circle cx="508.492" cy="443.111" r="7.3599" stroke-width="0.5" stroke="black" fill="Red"/>
  <circle cx="508.492" cy="443.111" r="4.47294" stroke-width="0.5" stroke="Red" fill="Red"/>
   </g>
   <g id="cell83">
  <circle cx="504.078" cy="455.022" r="8.41271" stroke-width="0.5" stroke="black" fill="Red"/>
  <circle cx="504.078" cy="455.022" r="5.05167" stroke-width="0.5" stroke="Red" fill="Red"/>
   </g>
   <g id="cell84">
  <circle cx="507.191" cy="465.206" r="7.08639" stroke-width="0.5" stroke="black" fill="Red"/>
  <circle cx="507.191" cy="465.206" r="4.29876" stroke-width="0.5" stroke="Red" fill="Red"/>
   </g>
   <g id="cell85">
  <circle cx="500.809" cy="475.477" r="8.41271" stroke-width="0.5" stroke="black" fill="Red"/>
  <circle cx="500.809" cy="475.477" r="5.05167" stroke-width="0.5" stroke="Red" fill="Red"/>
   </g>
   <g id="cell86">
  <circle cx="506.13" cy="502.081" r="8.41271" stroke-width="0.5" stroke="black" fill="Red"/>
  <circle cx="506.13" cy="502.081" r="5.05167" stroke-width="0.5" stroke="Red" fill="Red"/>
   </g>
   <g id="cell87">
  <circle cx="512.17" cy="513.385" r="7.97646" stroke-width="0.5" stroke="black" fill="Red"/>
  <circle cx="512.17" cy="513.385" r="4.83584" stroke-width="0.5" stroke="Red" fill="Red"/>
   </g>
   <g id="cell88">
  <circle cx="505.671" cy="535.881" r="8.41271" stroke-width="0.5" stroke="black" fill="Red"/>
  <circle cx="505.671" cy="535.881" r="5.05167" stroke-width="0.5" stroke="Red" fill="Red"/>
   </g>
   <g id="cell89">
  <circle cx="512.053" cy="548.056" r="8.41271" stroke-width="0.5" stroke="black" fill="Red"/>
  <circle cx="512.053" cy="548.056" r="5.05167" stroke-width="0.5" stroke="Red" fill="Red"/>
   </g>
   <g id="cell90">
  <circle cx="516.266" cy="560.067" r="8.41271" stroke-width="0.5" stroke="black" fill="Red"/>
  <circle cx="516.266" cy="560.067" r="5.05167" stroke-width="0.5" stroke="Red" fill="Red"/>
   </g>
   <g id="cell91">
  <circle cx="512.631" cy="571.622" r="8.41271" stroke-width="0.5" stroke="black" fill="Red"/>
  <circle cx="512.631" cy="571.622" r="5.05167" stroke-width="0.5" stroke="Red" fill="Red"/>
   </g>
   <g id="cell92">
  <circle cx="512.162" cy="585.908" r="8.41271" stroke-width="0.5" stroke="black" fill="Red"/>
  <circle cx="512.162" cy="585.908" r="5.05167" stroke-width="0.5" stroke="Red" fill="Red"/>
   </g>
   <g id="cell93">
  <circle cx="530.295" cy="410.009" r="8.41271" stroke-width="0.5" stroke="black" fill="blue"/>
  <circle cx="530.295" cy="410.009" r="5.05167" stroke-width="0.5" stroke="blue" fill="blue"/>
   </g>
   <g id="cell94">
  <circle cx="536.147" cy="423.213" r="7.98892" stroke-width="0.5" stroke="black" fill="Red"/>
  <circle cx="536.147" cy="423.213" r="4.84272" stroke-width="0.5" stroke="Red" fill="Red"/>
   </g>
   <g id="cell95">
  <circle cx="527.574" cy="434.206" r="8.41271" stroke-width="0.5" stroke="black" fill="Red"/>
  <circle cx="527.574" cy="434.206" r="5.05167" stroke-width="0.5" stroke="Red" fill="Red"/>
   </g>
   <g id="cell96">
  <circle cx="520.261" cy="444.799" r="7.67216" stroke-width="0.5" stroke="black" fill="blue"/>
  <circle cx="520.261" cy="444.799" r="4.67961" stroke-width="0.5" stroke="blue" fill="blue"/>
   </g>
   <g id="cell97">
  <circle cx="526.577" cy="460.43" r="8.41271" stroke-width="0.5" stroke="black" fill="Red"/>
  <circle cx="526.577" cy="460.43" r="5.05167" stroke-width="0.5" stroke="Red" fill="Red"/>
   </g>
   <g id="cell98">
  <circle cx="521.208" cy="492.483" r="7.44064" stroke-width="0.5" stroke="black" fill="blue"/>
  <circle cx="521.208" cy="492.483" r="4.54993" stroke-width="0.5" stroke="blue" fill="blue"/>
   </g>
   <g id="cell99">
  <circle cx="531.728" cy="497.451" r="8.41271" stroke-width="0.5" stroke="black" fill="Red"/>
  <circle cx="531.728" cy="497.451" r="5.05167" stroke-width="0.5" stroke="Red" fill="Red"/>
   </g>
   <g id="cell100">
  <circle cx="518.356" cy="503.319" r="7.51976" stroke-width="0.5" stroke="black" fill="blue"/>
  <circle cx="518.356" cy="503.319" r="4.57072" stroke-width="0.5" stroke="blue" fill="blue"/>
   </g>
   <g id="cell101">
  <circle cx="517.05" cy="530.458" r="8.41271" stroke-width="0.5" stroke="black" fill="Red"/>
  <circle cx="517.05" cy="530.458" r="5.05167" stroke-width="0.5" stroke="Red" fill="Red"/>
   </g>
   <g id="cell102">
  <circle cx="530.236" cy="534.536" r="8.07654" stroke-width="0.5" stroke="black" fill="Red"/>
  <circle cx="530.236" cy="534.536" r="4.89046" stroke-width="0.5" stroke="Red" fill="Red"/>
   </g>
   <g id="cell103">
  <circle cx="526.742" cy="551.792" r="8.41271" stroke-width="0.5" stroke="black" fill="Red"/>
  <circle cx="526.742" cy="551.792" r="5.05167" stroke-width="0.5" stroke="Red" fill="Red"/>
   </g>
   <g id="cell104">
  <circle cx="527.695" cy="565.229" r="8.41271" stroke-width="0.5" stroke="black" fill="Red"/>
  <circle cx="527.695" cy="565.229" r="5.05167" stroke-width="0.5" stroke="Red" fill="Red"/>
   </g>
   <g id="cell105">
  <circle cx="523.047" cy="577.724" r="8.41271" stroke-width="0.5" stroke="black" fill="blue"/>
  <circle cx="523.047" cy="577.724" r="5.05167" stroke-width="0.5" stroke="blue" fill="blue"/>
   </g>
   <g id="cell106">
  <circle cx="545.299" cy="412.732" r="7.54436" stroke-width="0.5" stroke="black" fill="yellow"/>
  <circle cx="545.299" cy="412.732" r="4.58555" stroke-width="0.5" stroke="yellow" fill="yellow"/>
   </g>
   <g id="cell107">
  <circle cx="540.676" cy="437.065" r="8.41271" stroke-width="0.5" stroke="black" fill="blue"/>
  <circle cx="540.676" cy="437.065" r="5.05167" stroke-width="0.5" stroke="blue" fill="blue"/>
   </g>
   <g id="cell108">
  <circle cx="532.23" cy="447.918" r="8.41271" stroke-width="0.5" stroke="black" fill="Red"/>
  <circle cx="532.23" cy="447.918" r="5.05167" stroke-width="0.5" stroke="Red" fill="Red"/>
   </g>
   <g id="cell109">
  <circle cx="547.968" cy="468.016" r="8.41271" stroke-width="0.5" stroke="black" fill="Red"/>
  <circle cx="547.968" cy="468.016" r="5.05167" stroke-width="0.5" stroke="Red" fill="Red"/>
   </g>
   <g id="cell110">
  <circle cx="530.908" cy="484.143" r="8.41271" stroke-width="0.5" stroke="black" fill="Red"/>
  <circle cx="530.908" cy="484.143" r="5.05167" stroke-width="0.5" stroke="Red" fill="Red"/>
   </g>
   <g id="cell111">
  <circle cx="541.772" cy="491.372" r="8.41271" stroke-width="0.5" stroke="black" fill="Red"/>
  <circle cx="541.772" cy="491.372" r="5.05167" stroke-width="0.5" stroke="Red" fill="Red"/>
   </g>
   <g id="cell112">
  <circle cx="540.651" cy="506.815" r="8.41271" stroke-width="0.5" stroke="black" fill="Red"/>
  <circle cx="540.651" cy="506.815" r="5.05167" stroke-width="0.5" stroke="Red" fill="Red"/>
   </g>
   <g id="cell113">
  <circle cx="527.807" cy="509.477" r="8.41271" stroke-width="0.5" stroke="black" fill="Red"/>
  <circle cx="527.807" cy="509.477" r="5.05167" stroke-width="0.5" stroke="Red" fill="Red"/>
   </g>
   <g id="cell114">
  <circle cx="532.085" cy="522.373" r="8.41271" stroke-width="0.5" stroke="black" fill="Red"/>
  <circle cx="532.085" cy="522.373" r="5.05167" stroke-width="0.5" stroke="Red" fill="Red"/>
   </g>
   <g id="cell115">
  <circle cx="537.111" cy="543.717" r="8.41271" stroke-width="0.5" stroke="black" fill="Red"/>
  <circle cx="537.111" cy="543.717" r="5.05167" stroke-width="0.5" stroke="Red" fill="Red"/>
   </g>
   <g id="cell116">
  <circle cx="543.281" cy="566.503" r="7.1497" stroke-width="0.5" stroke="black" fill="blue"/>
  <circle cx="543.281" cy="566.503" r="4.34001" stroke-width="0.5" stroke="blue" fill="blue"/>
   </g>
   <g id="cell117">
  <circle cx="535.502" cy="575.5" r="8.41271" stroke-width="0.5" stroke="black" fill="Red"/>
  <circle cx="535.502" cy="575.5" r="5.05167" stroke-width="0.5" stroke="Red" fill="Red"/>
   </g>
   <g id="cell118">
  <circle cx="550.104" cy="425.352" r="8.41271" stroke-width="0.5" stroke="black" fill="yellow"/>
  <circle cx="550.104" cy="425.352" r="5.05167" stroke-width="0.5" stroke="yellow" fill="yellow"/>
   </g>
   <g id="cell119">
  <circle cx="555.434" cy="438.548" r="8.41271" stroke-width="0.5" stroke="black" fill="yellow"/>
  <circle cx="555.434" cy="438.548" r="5.05167" stroke-width="0.5" stroke="yellow" fill="yellow"/>
   </g>
   <g id="cell120">
  <circle cx="553.457" cy="458.397" r="7.97646" stroke-width="0.5" stroke="black" fill="Red"/>
  <circle cx="553.457" cy="458.397" r="4.83584" stroke-width="0.5" stroke="Red" fill="Red"/>
   </g>
   <g id="cell121">
  <circle cx="558.887" cy="474.529" r="8.41271" stroke-width="0.5" stroke="black" fill="Red"/>
  <circle cx="558.887" cy="474.529" r="5.05167" stroke-width="0.5" stroke="Red" fill="Red"/>
   </g>
   <g id="cell122">
  <circle cx="547.543" cy="481.528" r="8.41271" stroke-width="0.5" stroke="black" fill="blue"/>
  <circle cx="547.543" cy="481.528" r="5.05167" stroke-width="0.5" stroke="blue" fill="blue"/>
   </g>
   <g id="cell123">
  <circle cx="550.326" cy="499.139" r="8.41271" stroke-width="0.5" stroke="black" fill="Red"/>
  <circle cx="550.326" cy="499.139" r="5.05167" stroke-width="0.5" stroke="Red" fill="Red"/>
   </g>
   <g id="cell124">
  <circle cx="554.868" cy="511.122" r="8.41271" stroke-width="0.5" stroke="black" fill="blue"/>
  <circle cx="554.868" cy="511.122" r="5.05167" stroke-width="0.5" stroke="blue" fill="blue"/>
   </g>
   <g id="cell125">
  <circle cx="543.386" cy="517.438" r="7.98892" stroke-width="0.5" stroke="black" fill="blue"/>
  <circle cx="543.386" cy="517.438" r="4.84272" stroke-width="0.5" stroke="blue" fill="blue"/>
   </g>
   <g id="cell126">
  <circle cx="543.153" cy="532.353" r="8.41271" stroke-width="0.5" stroke="black" fill="Red"/>
  <circle cx="543.153" cy="532.353" r="5.05167" stroke-width="0.5" stroke="Red" fill="Red"/>
   </g>
   <g id="cell127">
  <circle cx="548.603" cy="555.476" r="6.73287" stroke-width="0.5" stroke="black" fill="Red"/>
  <circle cx="548.603" cy="555.476" r="4.05039" stroke-width="0.5" stroke="Red" fill="Red"/>
   </g>
   <g id="cell128">
  <circle cx="557.109" cy="564.47" r="8.41271" stroke-width="0.5" stroke="black" fill="Red"/>
  <circle cx="557.109" cy="564.47" r="5.05167" stroke-width="0.5" stroke="Red" fill="Red"/>
   </g>
   <g id="cell129">
  <circle cx="578.605" cy="454.398" r="7.96365" stroke-width="0.5" stroke="black" fill="yellow"/>
  <circle cx="578.605" cy="454.398" r="4.82873" stroke-width="0.5" stroke="yellow" fill="yellow"/>
   </g>
   <g id="cell130">
  <circle cx="564.822" cy="463.531" r="8.41271" stroke-width="0.5" stroke="black" fill="Red"/>
  <circle cx="564.822" cy="463.531" r="5.05167" stroke-width="0.5" stroke="Red" fill="Red"/>
   </g>
   <g id="cell131">
  <circle cx="571.688" cy="479.042" r="8.41271" stroke-width="0.5" stroke="black" fill="Red"/>
  <circle cx="571.688" cy="479.042" r="5.05167" stroke-width="0.5" stroke="Red" fill="Red"/>
   </g>
   <g id="cell132">
  <circle cx="559.454" cy="489.107" r="8.41271" stroke-width="0.5" stroke="black" fill="Red"/>
  <circle cx="559.454" cy="489.107" r="5.05167" stroke-width="0.5" stroke="Red" fill="Red"/>
   </g>
   <g id="cell133">
  <circle cx="565.262" cy="501.952" r="8.41271" stroke-width="0.5" stroke="black" fill="blue"/>
  <circle cx="565.262" cy="501.952" r="5.05167" stroke-width="0.5" stroke="blue" fill="blue"/>
   </g>
   <g id="cell134">
  <circle cx="568.366" cy="515.145" r="8.41271" stroke-width="0.5" stroke="black" fill="Red"/>
  <circle cx="568.366" cy="515.145" r="5.05167" stroke-width="0.5" stroke="Red" fill="Red"/>
   </g>
   <g id="cell135">
  <circle cx="567.169" cy="528.379" r="8.41271" stroke-width="0.5" stroke="black" fill="Red"/>
  <circle cx="567.169" cy="528.379" r="5.05167" stroke-width="0.5" stroke="Red" fill="Red"/>
   </g>
   <g id="cell136">
  <circle cx="555.308" cy="536.581" r="8.41271" stroke-width="0.5" stroke="black" fill="Red"/>
  <circle cx="555.308" cy="536.581" r="5.05167" stroke-width="0.5" stroke="Red" fill="Red"/>
   </g>
   <g id="cell137">
  <circle cx="568.717" cy="556.279" r="7.27253" stroke-width="0.5" stroke="black" fill="blue"/>
  <circle cx="568.717" cy="556.279" r="4.41835" stroke-width="0.5" stroke="blue" fill="blue"/>
   </g>
   <g id="cell138">
  <circle cx="577.173" cy="468.495" r="8.41271" stroke-width="0.5" stroke="black" fill="blue"/>
  <circle cx="577.173" cy="468.495" r="5.05167" stroke-width="0.5" stroke="blue" fill="blue"/>
   </g>
   <g id="cell139">
  <circle cx="584.312" cy="482.436" r="8.41271" stroke-width="0.5" stroke="black" fill="yellow"/>
  <circle cx="584.312" cy="482.436" r="5.05167" stroke-width="0.5" stroke="yellow" fill="yellow"/>
   </g>
   <g id="cell140">
  <circle cx="574.604" cy="491.969" r="8.11327" stroke-width="0.5" stroke="black" fill="Red"/>
  <circle cx="574.604" cy="491.969" r="4.91006" stroke-width="0.5" stroke="Red" fill="Red"/>
   </g>
   <g id="cell141">
  <circle cx="578.384" cy="506.469" r="8.41271" stroke-width="0.5" stroke="black" fill="Red"/>
  <circle cx="578.384" cy="506.469" r="5.05167" stroke-width="0.5" stroke="Red" fill="Red"/>
   </g>
   <g id="cell142">
  <circle cx="580.95" cy="521.689" r="7.87851" stroke-width="0.5" stroke="black" fill="blue"/>
  <circle cx="580.95" cy="521.689" r="4.78096" stroke-width="0.5" stroke="blue" fill="blue"/>
   </g>
   <g id="cell143">
  <circle cx="569.125" cy="542.636" r="8.41271" stroke-width="0.5" stroke="black" fill="Red"/>
  <circle cx="569.125" cy="542.636" r="5.05167" stroke-width="0.5" stroke="Red" fill="Red"/>
   </g>
   <g id="cell144">
  <circle cx="431.975" cy="431.001" r="7.43412" stroke-width="0.5" stroke="black" fill="blue"/>
  <circle cx="431.975" cy="431.001" r="4.54138" stroke-width="0.5" stroke="blue" fill="blue"/>
   </g>
   <g id="cell145">
  <circle cx="586.722" cy="495.853" r="6.80882" stroke-width="0.5" stroke="black" fill="Red"/>
  <circle cx="586.722" cy="495.853" r="4.15424" stroke-width="0.5" stroke="Red" fill="Red"/>
   </g>
   <g id="cell146">
  <circle cx="477.152" cy="506.797" r="7.70537" stroke-width="0.5" stroke="black" fill="Red"/>
  <circle cx="477.152" cy="506.797" r="4.69841" stroke-width="0.5" stroke="Red" fill="Red"/>
   </g>
   <g id="cell147">
  <circle cx="538.75" cy="458.892" r="7.91205" stroke-width="0.5" stroke="black" fill="blue"/>
  <circle cx="538.75" cy="458.892" r="4.81231" stroke-width="0.5" stroke="blue" fill="blue"/>
   </g>
   <g id="cell148">
  <circle cx="520.491" cy="541.594" r="8.07654" stroke-width="0.5" stroke="black" fill="blue"/>
  <circle cx="520.491" cy="541.594" r="4.89046" stroke-width="0.5" stroke="blue" fill="blue"/>
   </g>
   <g id="cell149">
  <circle cx="536.556" cy="472.845" r="7.91205" stroke-width="0.5" stroke="black" fill="Red"/>
  <circle cx="536.556" cy="472.845" r="4.81231" stroke-width="0.5" stroke="Red" fill="Red"/>
   </g>
   <g id="cell150">
  <circle cx="441.327" cy="513.708" r="8.02418" stroke-width="0.5" stroke="black" fill="Red"/>
  <circle cx="441.327" cy="513.708" r="4.86209" stroke-width="0.5" stroke="Red" fill="Red"/>
   </g>
   <g id="cell151">
  <circle cx="451.535" cy="415.288" r="8.02418" stroke-width="0.5" stroke="black" fill="blue"/>
  <circle cx="451.535" cy="415.288" r="4.86209" stroke-width="0.5" stroke="blue" fill="blue"/>
   </g>
   <g id="cell152">
  <circle cx="480.65" cy="460.673" r="8.00101" stroke-width="0.5" stroke="black" fill="Red"/>
  <circle cx="480.65" cy="460.673" r="4.84939" stroke-width="0.5" stroke="Red" fill="Red"/>
   </g>
   <g id="cell153">
  <circle cx="522.625" cy="421.724" r="7.98892" stroke-width="0.5" stroke="black" fill="Red"/>
  <circle cx="522.625" cy="421.724" r="4.84272" stroke-width="0.5" stroke="Red" fill="Red"/>
   </g>
   <g id="cell154">
  <circle cx="554.254" cy="524.081" r="7.98892" stroke-width="0.5" stroke="black" fill="Red"/>
  <circle cx="554.254" cy="524.081" r="4.84272" stroke-width="0.5" stroke="Red" fill="Red"/>
   </g>
   <g id="cell155">
  <circle cx="438.203" cy="421.243" r="7.77776" stroke-width="0.5" stroke="black" fill="Red"/>
  <circle cx="438.203" cy="421.243" r="4.73959" stroke-width="0.5" stroke="Red" fill="Red"/>
   </g>
   <g id="cell156">
  <circle cx="506.547" cy="523.361" r="7.97646" stroke-width="0.5" stroke="black" fill="blue"/>
  <circle cx="506.547" cy="523.361" r="4.83584" stroke-width="0.5" stroke="blue" fill="blue"/>
   </g>
   <g id="cell157">
  <circle cx="545.846" cy="448.507" r="7.97646" stroke-width="0.5" stroke="black" fill="Red"/>
  <circle cx="545.846" cy="448.507" r="4.83584" stroke-width="0.5" stroke="Red" fill="Red"/>
   </g>
   <g id="cell158">
  <circle cx="559.207" cy="449.077" r="6.65283" stroke-width="0.5" stroke="black" fill="Red"/>
  <circle cx="559.207" cy="449.077" r="4.09708" stroke-width="0.5" stroke="Red" fill="Red"/>
   </g>
   <g id="cell159">
  <circle cx="468.881" cy="529.624" r="7.95045" stroke-width="0.5" stroke="black" fill="Red"/>
  <circle cx="468.881" cy="529.624" r="4.82139" stroke-width="0.5" stroke="Red" fill="Red"/>
   </g>
   <g id="cell160">
  <circle cx="503.782" cy="559.362" r="7.93688" stroke-width="0.5" stroke="black" fill="blue"/>
  <circle cx="503.782" cy="559.362" r="4.81381" stroke-width="0.5" stroke="blue" fill="blue"/>
   </g>
   <g id="cell161">
  <circle cx="515.583" cy="482.388" r="7.3754" stroke-width="0.5" stroke="black" fill="Red"/>
  <circle cx="515.583" cy="482.388" r="4.51203" stroke-width="0.5" stroke="Red" fill="Red"/>
   </g>
   <g id="cell162">
  <circle cx="579.925" cy="534.059" r="7.87851" stroke-width="0.5" stroke="black" fill="Red"/>
  <circle cx="579.925" cy="534.059" r="4.78096" stroke-width="0.5" stroke="Red" fill="Red"/>
   </g>
   <g id="cell163">
  <circle cx="468.441" cy="516.035" r="7.70537" stroke-width="0.5" stroke="black" fill="Red"/>
  <circle cx="468.441" cy="516.035" r="4.69841" stroke-width="0.5" stroke="Red" fill="Red"/>
   </g>
   <g id="cell164">
  <circle cx="429.134" cy="494.019" r="7.87851" stroke-width="0.5" stroke="black" fill="Red"/>
  <circle cx="429.134" cy="494.019" r="4.78096" stroke-width="0.5" stroke="Red" fill="Red"/>
   </g>
   <g id="cell165">
  <circle cx="470.658" cy="442.477" r="7.84675" stroke-width="0.5" stroke="black" fill="Red"/>
  <circle cx="470.658" cy="442.477" r="4.7629" stroke-width="0.5" stroke="Red" fill="Red"/>
   </g>
   <g id="cell166">
  <circle cx="488.986" cy="431.899" r="7.84675" stroke-width="0.5" stroke="black" fill="Red"/>
  <circle cx="488.986" cy="431.899" r="4.7629" stroke-width="0.5" stroke="Red" fill="Red"/>
   </g>
   <g id="cell167">
  <circle cx="515.887" cy="454.436" r="7.67216" stroke-width="0.5" stroke="black" fill="Red"/>
  <circle cx="515.887" cy="454.436" r="4.67961" stroke-width="0.5" stroke="Red" fill="Red"/>
   </g>
   <g id="cell168">
  <circle cx="430.622" cy="530.022" r="5.99524" stroke-width="0.5" stroke="black" fill="Red"/>
  <circle cx="430.622" cy="530.022" r="3.67909" stroke-width="0.5" stroke="Red" fill="Red"/>
   </g>
   <g id="cell169">
  <circle cx="412.151" cy="460.856" r="6.19881" stroke-width="0.5" stroke="black" fill="blue"/>
  <circle cx="412.151" cy="460.856" r="3.76858" stroke-width="0.5" stroke="blue" fill="blue"/>
   </g>
   <g id="cell170">
  <circle cx="510.475" cy="492.942" r="6.64118" stroke-width="0.5" stroke="black" fill="Red"/>
  <circle cx="510.475" cy="492.942" r="4.09082" stroke-width="0.5" stroke="Red" fill="Red"/>
   </g>
   <g id="cell171">
  <circle cx="452.86" cy="585.509" r="7.72056" stroke-width="0.5" stroke="black" fill="yellow"/>
  <circle cx="452.86" cy="585.509" r="4.69003" stroke-width="0.5" stroke="yellow" fill="yellow"/>
   </g>
   <g id="cell172">
  <circle cx="571.051" cy="443.757" r="7.45919" stroke-width="0.5" stroke="black" fill="blue"/>
  <circle cx="571.051" cy="443.757" r="4.55982" stroke-width="0.5" stroke="blue" fill="blue"/>
   </g>
   <g id="cell173">
  <circle cx="418.894" cy="519.467" r="7.38364" stroke-width="0.5" stroke="black" fill="blue"/>
  <circle cx="418.894" cy="519.467" r="4.51741" stroke-width="0.5" stroke="blue" fill="blue"/>
   </g>
   <g id="cell174">
  <circle cx="523.087" cy="474.002" r="7.3754" stroke-width="0.5" stroke="black" fill="Red"/>
  <circle cx="523.087" cy="474.002" r="4.51203" stroke-width="0.5" stroke="Red" fill="Red"/>
   </g>
   <g id="cell175">
  <circle cx="509.629" cy="421.932" r="7.61469" stroke-width="0.5" stroke="black" fill="Red"/>
  <circle cx="509.629" cy="421.932" r="4.62762" stroke-width="0.5" stroke="Red" fill="Red"/>
   </g>
   <g id="cell176">
  <circle cx="442.061" cy="435.737" r="7.43412" stroke-width="0.5" stroke="black" fill="Red"/>
  <circle cx="442.061" cy="435.737" r="4.54138" stroke-width="0.5" stroke="Red" fill="Red"/>
   </g>
   <g id="cell177">
  <circle cx="559.643" cy="414.198" r="7.54436" stroke-width="0.5" stroke="black" fill="blue"/>
  <circle cx="559.643" cy="414.198" r="4.58555" stroke-width="0.5" stroke="blue" fill="blue"/>
   </g>
   <g id="cell178">
  <circle cx="520.858" cy="519.414" r="7.51976" stroke-width="0.5" stroke="black" fill="Red"/>
  <circle cx="520.858" cy="519.414" r="4.57072" stroke-width="0.5" stroke="Red" fill="Red"/>
   </g>
   <g id="cell179">
  <circle cx="451.442" cy="531.384" r="7.51976" stroke-width="0.5" stroke="black" fill="Red"/>
  <circle cx="451.442" cy="531.384" r="4.57072" stroke-width="0.5" stroke="Red" fill="Red"/>
   </g>
   <g id="cell180">
  <circle cx="454.802" cy="435.097" r="7.51976" stroke-width="0.5" stroke="black" fill="Red"/>
  <circle cx="454.802" cy="435.097" r="4.57072" stroke-width="0.5" stroke="Red" fill="Red"/>
   </g>
   <g id="cell181">
  <circle cx="487.233" cy="502.8" r="6.24101" stroke-width="0.5" stroke="black" fill="blue"/>
  <circle cx="487.233" cy="502.8" r="3.82061" stroke-width="0.5" stroke="blue" fill="blue"/>
   </g>
   <g id="cell182">
  <circle cx="470.952" cy="552.139" r="7.44242" stroke-width="0.5" stroke="black" fill="blue"/>
  <circle cx="470.952" cy="552.139" r="4.52373" stroke-width="0.5" stroke="blue" fill="blue"/>
   </g>
   <g id="cell183">
  <circle cx="465.323" cy="432.921" r="7.38797" stroke-width="0.5" stroke="black" fill="blue"/>
  <circle cx="465.323" cy="432.921" r="4.49029" stroke-width="0.5" stroke="blue" fill="blue"/>
   </g>
   <g id="cell184">
  <circle cx="504.569" cy="433.951" r="5.91404" stroke-width="0.5" stroke="black" fill="blue"/>
  <circle cx="504.569" cy="433.951" r="3.60138" stroke-width="0.5" stroke="blue" fill="blue"/>
   </g>
   <g id="cell185">
  <circle cx="490.097" cy="590.469" r="7.30216" stroke-width="0.5" stroke="black" fill="Red"/>
  <circle cx="490.097" cy="590.469" r="4.43696" stroke-width="0.5" stroke="Red" fill="Red"/>
   </g>
   <g id="cell186">
  <circle cx="504.563" cy="485.74" r="6.64118" stroke-width="0.5" stroke="black" fill="blue"/>
  <circle cx="504.563" cy="485.74" r="4.09082" stroke-width="0.5" stroke="blue" fill="blue"/>
   </g>
   <g id="cell187">
  <circle cx="568.294" cy="454.265" r="6.65283" stroke-width="0.5" stroke="black" fill="yellow"/>
  <circle cx="568.294" cy="454.265" r="4.09708" stroke-width="0.5" stroke="yellow" fill="yellow"/>
   </g>
   <g id="cell188">
  <circle cx="558.535" cy="550.175" r="7.27253" stroke-width="0.5" stroke="black" fill="yellow"/>
  <circle cx="558.535" cy="550.175" r="4.41835" stroke-width="0.5" stroke="yellow" fill="yellow"/>
   </g>
   <g id="cell189">
  <circle cx="459.806" cy="523.605" r="7.24243" stroke-width="0.5" stroke="black" fill="Red"/>
  <circle cx="459.806" cy="523.605" r="4.39934" stroke-width="0.5" stroke="Red" fill="Red"/>
   </g>
   <g id="cell190">
  <circle cx="459.051" cy="512.59" r="6.36382" stroke-width="0.5" stroke="black" fill="blue"/>
  <circle cx="459.051" cy="512.59" r="3.90484" stroke-width="0.5" stroke="blue" fill="blue"/>
   </g>
   <g id="cell191">
  <circle cx="537.428" cy="556.842" r="7.1497" stroke-width="0.5" stroke="black" fill="Red"/>
  <circle cx="537.428" cy="556.842" r="4.34001" stroke-width="0.5" stroke="Red" fill="Red"/>
   </g>
   <g id="cell192">
  <circle cx="511.728" cy="473.902" r="5.96931" stroke-width="0.5" stroke="black" fill="Red"/>
  <circle cx="511.728" cy="473.902" r="3.65237" stroke-width="0.5" stroke="Red" fill="Red"/>
   </g>
   <g id="cell193">
  <circle cx="595.411" cy="488.269" r="6.80882" stroke-width="0.5" stroke="black" fill="blue"/>
  <circle cx="595.411" cy="488.269" r="4.15424" stroke-width="0.5" stroke="blue" fill="blue"/>
   </g>
   <g id="cell194">
  <circle cx="452.619" cy="570.419" r="7.02257" stroke-width="0.5" stroke="black" fill="Red"/>
  <circle cx="452.619" cy="570.419" r="4.25644" stroke-width="0.5" stroke="Red" fill="Red"/>
   </g>
   <g id="cell195">
  <circle cx="495.177" cy="505.211" r="6.24101" stroke-width="0.5" stroke="black" fill="blue"/>
  <circle cx="495.177" cy="505.211" r="3.82061" stroke-width="0.5" stroke="blue" fill="blue"/>
   </g>
   <g id="cell196">
  <circle cx="462.899" cy="413.65" r="6.92764" stroke-width="0.5" stroke="black" fill="Red"/>
  <circle cx="462.899" cy="413.65" r="4.1918" stroke-width="0.5" stroke="Red" fill="Red"/>
   </g>
   <g id="cell197">
  <circle cx="516.1" cy="465.032" r="5.96931" stroke-width="0.5" stroke="black" fill="blue"/>
  <circle cx="516.1" cy="465.032" r="3.65237" stroke-width="0.5" stroke="blue" fill="blue"/>
   </g>
   <g id="cell198">
  <circle cx="460.531" cy="535.134" r="6.23987" stroke-width="0.5" stroke="black" fill="blue"/>
  <circle cx="460.531" cy="535.134" r="3.81736" stroke-width="0.5" stroke="blue" fill="blue"/>
   </g>
   <g id="cell199">
  <circle cx="413.013" cy="536.698" r="6.4664" stroke-width="0.5" stroke="black" fill="blue"/>
  <circle cx="413.013" cy="536.698" r="3.94964" stroke-width="0.5" stroke="blue" fill="blue"/>
   </g>
   <g id="cell200">
  <circle cx="488.899" cy="442.331" r="6.83713" stroke-width="0.5" stroke="black" fill="Red"/>
  <circle cx="488.899" cy="442.331" r="4.12773" stroke-width="0.5" stroke="Red" fill="Red"/>
   </g>
   <g id="cell201">
  <circle cx="464.479" cy="464.525" r="6.83713" stroke-width="0.5" stroke="black" fill="blue"/>
  <circle cx="464.479" cy="464.525" r="4.12773" stroke-width="0.5" stroke="blue" fill="blue"/>
   </g>
   <g id="cell202">
  <circle cx="421.484" cy="530.442" r="5.99524" stroke-width="0.5" stroke="black" fill="yellow"/>
  <circle cx="421.484" cy="530.442" r="3.67909" stroke-width="0.5" stroke="yellow" fill="yellow"/>
   </g>
   <g id="cell203">
  <circle cx="494.451" cy="551.974" r="6.78181" stroke-width="0.5" stroke="black" fill="Red"/>
  <circle cx="494.451" cy="551.974" r="4.08714" stroke-width="0.5" stroke="Red" fill="Red"/>
   </g>
   <g id="cell204">
  <circle cx="445.176" cy="478.147" r="6.75639" stroke-width="0.5" stroke="black" fill="blue"/>
  <circle cx="445.176" cy="478.147" r="4.06813" stroke-width="0.5" stroke="blue" fill="blue"/>
   </g>
   <g id="cell205">
  <circle cx="497.871" cy="437.87" r="5.91404" stroke-width="0.5" stroke="black" fill="blue"/>
  <circle cx="497.871" cy="437.87" r="3.60138" stroke-width="0.5" stroke="blue" fill="blue"/>
   </g>
   <g id="cell206">
  <circle cx="495.299" cy="399.823" r="6.73287" stroke-width="0.5" stroke="black" fill="Red"/>
  <circle cx="495.299" cy="399.823" r="4.05039" stroke-width="0.5" stroke="Red" fill="Red"/>
   </g>
   <g id="cell207">
  <circle cx="479.229" cy="540.46" r="6.73287" stroke-width="0.5" stroke="black" fill="Red"/>
  <circle cx="479.229" cy="540.46" r="4.05039" stroke-width="0.5" stroke="Red" fill="Red"/>
   </g>
   <g id="cell208">
  <circle cx="547.373" cy="546.222" r="6.73287" stroke-width="0.5" stroke="black" fill="blue"/>
  <circle cx="547.373" cy="546.222" r="4.05039" stroke-width="0.5" stroke="blue" fill="blue"/>
   </g>
   <g id="cell209">
  <circle cx="485.665" cy="569.945" r="6.73287" stroke-width="0.5" stroke="black" fill="blue"/>
  <circle cx="485.665" cy="569.945" r="4.05039" stroke-width="0.5" stroke="blue" fill="blue"/>
   </g>
   <g id="cell210">
  <circle cx="414.311" cy="451.393" r="6.19881" stroke-width="0.5" stroke="black" fill="Red"/>
  <circle cx="414.311" cy="451.393" r="3.76858" stroke-width="0.5" stroke="Red" fill="Red"/>
   </g>
   <g id="cell211">
  <circle cx="436.439" cy="459.063" r="6.69288" stroke-width="0.5" stroke="black" fill="blue"/>
  <circle cx="436.439" cy="459.063" r="4.02051" stroke-width="0.5" stroke="blue" fill="blue"/>
   </g>
   <g id="cell212">
  <circle cx="457.254" cy="424.652" r="6.17321" stroke-width="0.5" stroke="black" fill="Red"/>
  <circle cx="457.254" cy="424.652" r="3.76182" stroke-width="0.5" stroke="Red" fill="Red"/>
   </g>
  </g>
 </g>
  <rect x="775" y="1035" width="200" height="10" stroke-width="2" stroke="rgb(255,255,255)" fill="rgb(0,0,0)"/>
  <text x="781.25" y="1028.75"
   font-family="Arial" font-size="25" fill="black" >
   200 &#956;m
  </text>
  <text x="25" y="1045"
   font-family="Arial" font-size="18.75" fill="black" >
   0 days, 0 hours, 2 minutes, and 50.9109 seconds
  </text>
  <rect x="0" y="70" width="1000" height="1000" stroke-width="2" stroke="rgb(0,0,0)" fill="none"/>
</svg>
