<?xml version="1.0" encoding="UTF-8" standalone="no"?>
<!-- Created with PhysiCell (http://PhysiCell.MathCancer.org/) -->
<svg 
 xmlns:dc="http://purl.org/dc/elements/1.1/" 
 xmlns:cc="http://creativecommons.org/ns#" 
 xmlns:rdf="http://www.w3.org/1999/02/22-rdf-syntax-ns#" 
 xmlns:svg="http://www.w3.org/2000/svg" 
 xmlns="http://www.w3.org/2000/svg" 
 version="1.1" 
 width="1000" 
 height="1070" 
 id="svg2">
  <rect x="0" y="0" width="1000" height="1070" stroke-width="2" stroke="white" fill="white"/>
  <text x="12.5" y="30"
   font-family="Arial" font-size="25" fill="black" >
   Current time: 0 days, 5 hours, and 40.00 minutes, z = 0.00 &#956;m
  </text>
  <text x="12.5" y="57.5"
   font-family="Arial" font-size="23.75" fill="black" >
   193 agents
  </text>
 <g id="tissue" 
    transform="translate(0,1070) scale(1,-1)">
  <g id="ECM">
  </g>
  <g id="cells">
   <g id="cell0">
  <circle cx="424.436" cy="446.468" r="8.41271" stroke-width="0.5" stroke="black" fill="yellow"/>
  <circle cx="424.436" cy="446.468" r="5.05167" stroke-width="0.5" stroke="yellow" fill="yellow"/>
   </g>
   <g id="cell1">
  <circle cx="425.708" cy="469.3" r="7.44242" stroke-width="0.5" stroke="black" fill="yellow"/>
  <circle cx="425.708" cy="469.3" r="4.52373" stroke-width="0.5" stroke="yellow" fill="yellow"/>
   </g>
   <g id="cell2">
  <circle cx="426.684" cy="482.085" r="8.41271" stroke-width="0.5" stroke="black" fill="blue"/>
  <circle cx="426.684" cy="482.085" r="5.05167" stroke-width="0.5" stroke="blue" fill="blue"/>
   </g>
   <g id="cell3">
  <circle cx="422.139" cy="495.486" r="7.61469" stroke-width="0.5" stroke="black" fill="Red"/>
  <circle cx="422.139" cy="495.486" r="4.62762" stroke-width="0.5" stroke="Red" fill="Red"/>
   </g>
   <g id="cell4">
  <circle cx="427.122" cy="506.404" r="8.41271" stroke-width="0.5" stroke="black" fill="Red"/>
  <circle cx="427.122" cy="506.404" r="5.05167" stroke-width="0.5" stroke="Red" fill="Red"/>
   </g>
   <g id="cell5">
  <circle cx="414.258" cy="526.493" r="7.54436" stroke-width="0.5" stroke="black" fill="blue"/>
  <circle cx="414.258" cy="526.493" r="4.58555" stroke-width="0.5" stroke="blue" fill="blue"/>
   </g>
   <g id="cell6">
  <circle cx="424.305" cy="539.653" r="8.41271" stroke-width="0.5" stroke="black" fill="yellow"/>
  <circle cx="424.305" cy="539.653" r="5.05167" stroke-width="0.5" stroke="yellow" fill="yellow"/>
   </g>
   <g id="cell7">
  <circle cx="438.503" cy="445.814" r="7.96365" stroke-width="0.5" stroke="black" fill="yellow"/>
  <circle cx="438.503" cy="445.814" r="4.82873" stroke-width="0.5" stroke="yellow" fill="yellow"/>
   </g>
   <g id="cell8">
  <circle cx="432.907" cy="458.689" r="8.41271" stroke-width="0.5" stroke="black" fill="yellow"/>
  <circle cx="432.907" cy="458.689" r="5.05167" stroke-width="0.5" stroke="yellow" fill="yellow"/>
   </g>
   <g id="cell9">
  <circle cx="437.536" cy="471.833" r="8.41271" stroke-width="0.5" stroke="black" fill="Red"/>
  <circle cx="437.536" cy="471.833" r="5.05167" stroke-width="0.5" stroke="Red" fill="Red"/>
   </g>
   <g id="cell10">
  <circle cx="440.5" cy="484.494" r="8.41271" stroke-width="0.5" stroke="black" fill="Red"/>
  <circle cx="440.5" cy="484.494" r="5.05167" stroke-width="0.5" stroke="Red" fill="Red"/>
   </g>
   <g id="cell11">
  <circle cx="439.016" cy="503.691" r="8.41271" stroke-width="0.5" stroke="black" fill="Red"/>
  <circle cx="439.016" cy="503.691" r="5.05167" stroke-width="0.5" stroke="Red" fill="Red"/>
   </g>
   <g id="cell12">
  <circle cx="432.854" cy="516.921" r="7.83019" stroke-width="0.5" stroke="black" fill="Red"/>
  <circle cx="432.854" cy="516.921" r="4.75343" stroke-width="0.5" stroke="Red" fill="Red"/>
   </g>
   <g id="cell13">
  <circle cx="437.483" cy="534.349" r="8.41271" stroke-width="0.5" stroke="black" fill="Red"/>
  <circle cx="437.483" cy="534.349" r="5.05167" stroke-width="0.5" stroke="Red" fill="Red"/>
   </g>
   <g id="cell14">
  <circle cx="436.4" cy="547.86" r="8.41271" stroke-width="0.5" stroke="black" fill="Red"/>
  <circle cx="436.4" cy="547.86" r="5.05167" stroke-width="0.5" stroke="Red" fill="Red"/>
   </g>
   <g id="cell15">
  <circle cx="439.187" cy="561.431" r="8.41271" stroke-width="0.5" stroke="black" fill="blue"/>
  <circle cx="439.187" cy="561.431" r="5.05167" stroke-width="0.5" stroke="blue" fill="blue"/>
   </g>
   <g id="cell16">
  <circle cx="451.036" cy="426.963" r="7.44597" stroke-width="0.5" stroke="black" fill="Red"/>
  <circle cx="451.036" cy="426.963" r="4.55339" stroke-width="0.5" stroke="Red" fill="Red"/>
   </g>
   <g id="cell17">
  <circle cx="449.262" cy="439.747" r="7.11815" stroke-width="0.5" stroke="black" fill="Red"/>
  <circle cx="449.262" cy="439.747" r="4.31954" stroke-width="0.5" stroke="Red" fill="Red"/>
   </g>
   <g id="cell18">
  <circle cx="446.94" cy="458.226" r="8.41271" stroke-width="0.5" stroke="black" fill="blue"/>
  <circle cx="446.94" cy="458.226" r="5.05167" stroke-width="0.5" stroke="blue" fill="blue"/>
   </g>
   <g id="cell19">
  <circle cx="448.661" cy="470.92" r="8.41271" stroke-width="0.5" stroke="black" fill="Red"/>
  <circle cx="448.661" cy="470.92" r="5.05167" stroke-width="0.5" stroke="Red" fill="Red"/>
   </g>
   <g id="cell20">
  <circle cx="452.525" cy="482.385" r="8.41271" stroke-width="0.5" stroke="black" fill="blue"/>
  <circle cx="452.525" cy="482.385" r="5.05167" stroke-width="0.5" stroke="blue" fill="blue"/>
   </g>
   <g id="cell21">
  <circle cx="446.811" cy="494.842" r="8.41271" stroke-width="0.5" stroke="black" fill="Red"/>
  <circle cx="446.811" cy="494.842" r="5.05167" stroke-width="0.5" stroke="Red" fill="Red"/>
   </g>
   <g id="cell22">
  <circle cx="454.313" cy="505.314" r="8.41271" stroke-width="0.5" stroke="black" fill="Red"/>
  <circle cx="454.313" cy="505.314" r="5.05167" stroke-width="0.5" stroke="Red" fill="Red"/>
   </g>
   <g id="cell23">
  <circle cx="442.558" cy="523.698" r="8.41271" stroke-width="0.5" stroke="black" fill="Red"/>
  <circle cx="442.558" cy="523.698" r="5.05167" stroke-width="0.5" stroke="Red" fill="Red"/>
   </g>
   <g id="cell24">
  <circle cx="448.989" cy="539.13" r="8.41271" stroke-width="0.5" stroke="black" fill="Red"/>
  <circle cx="448.989" cy="539.13" r="5.05167" stroke-width="0.5" stroke="Red" fill="Red"/>
   </g>
   <g id="cell25">
  <circle cx="450.289" cy="553.392" r="8.41271" stroke-width="0.5" stroke="black" fill="Red"/>
  <circle cx="450.289" cy="553.392" r="5.05167" stroke-width="0.5" stroke="Red" fill="Red"/>
   </g>
   <g id="cell26">
  <circle cx="450.746" cy="569.025" r="8.41271" stroke-width="0.5" stroke="black" fill="yellow"/>
  <circle cx="450.746" cy="569.025" r="5.05167" stroke-width="0.5" stroke="yellow" fill="yellow"/>
   </g>
   <g id="cell27">
  <circle cx="463.785" cy="408.545" r="8.41271" stroke-width="0.5" stroke="black" fill="yellow"/>
  <circle cx="463.785" cy="408.545" r="5.05167" stroke-width="0.5" stroke="yellow" fill="yellow"/>
   </g>
   <g id="cell28">
  <circle cx="463.939" cy="422.862" r="8.41271" stroke-width="0.5" stroke="black" fill="yellow"/>
  <circle cx="463.939" cy="422.862" r="5.05167" stroke-width="0.5" stroke="yellow" fill="yellow"/>
   </g>
   <g id="cell29">
  <circle cx="456.139" cy="448.688" r="7.56839" stroke-width="0.5" stroke="black" fill="Red"/>
  <circle cx="456.139" cy="448.688" r="4.59998" stroke-width="0.5" stroke="Red" fill="Red"/>
   </g>
   <g id="cell30">
  <circle cx="459.618" cy="459.215" r="8.41271" stroke-width="0.5" stroke="black" fill="Red"/>
  <circle cx="459.618" cy="459.215" r="5.05167" stroke-width="0.5" stroke="Red" fill="Red"/>
   </g>
   <g id="cell31">
  <circle cx="460.414" cy="470.608" r="8.41271" stroke-width="0.5" stroke="black" fill="Red"/>
  <circle cx="460.414" cy="470.608" r="5.05167" stroke-width="0.5" stroke="Red" fill="Red"/>
   </g>
   <g id="cell32">
  <circle cx="465.619" cy="481.819" r="8.41271" stroke-width="0.5" stroke="black" fill="Red"/>
  <circle cx="465.619" cy="481.819" r="5.05167" stroke-width="0.5" stroke="Red" fill="Red"/>
   </g>
   <g id="cell33">
  <circle cx="459.483" cy="493.3" r="8.41271" stroke-width="0.5" stroke="black" fill="blue"/>
  <circle cx="459.483" cy="493.3" r="5.05167" stroke-width="0.5" stroke="blue" fill="blue"/>
   </g>
   <g id="cell34">
  <circle cx="454.006" cy="517.458" r="5.48858" stroke-width="0.5" stroke="black" fill="Red"/>
  <circle cx="454.006" cy="517.458" r="3.32079" stroke-width="0.5" stroke="Red" fill="Red"/>
   </g>
   <g id="cell35">
  <circle cx="461.981" cy="536.427" r="7.11815" stroke-width="0.5" stroke="black" fill="blue"/>
  <circle cx="461.981" cy="536.427" r="4.31954" stroke-width="0.5" stroke="blue" fill="blue"/>
   </g>
   <g id="cell36">
  <circle cx="461.836" cy="547.979" r="8.41271" stroke-width="0.5" stroke="black" fill="Red"/>
  <circle cx="461.836" cy="547.979" r="5.05167" stroke-width="0.5" stroke="Red" fill="Red"/>
   </g>
   <g id="cell37">
  <circle cx="461.678" cy="562.032" r="8.41271" stroke-width="0.5" stroke="black" fill="blue"/>
  <circle cx="461.678" cy="562.032" r="5.05167" stroke-width="0.5" stroke="blue" fill="blue"/>
   </g>
   <g id="cell38">
  <circle cx="465.111" cy="574.915" r="8.41271" stroke-width="0.5" stroke="black" fill="Red"/>
  <circle cx="465.111" cy="574.915" r="5.05167" stroke-width="0.5" stroke="Red" fill="Red"/>
   </g>
   <g id="cell39">
  <circle cx="465.255" cy="586.757" r="7.38797" stroke-width="0.5" stroke="black" fill="blue"/>
  <circle cx="465.255" cy="586.757" r="4.49029" stroke-width="0.5" stroke="blue" fill="blue"/>
   </g>
   <g id="cell40">
  <circle cx="477.455" cy="401.512" r="8.41271" stroke-width="0.5" stroke="black" fill="blue"/>
  <circle cx="477.455" cy="401.512" r="5.05167" stroke-width="0.5" stroke="blue" fill="blue"/>
   </g>
   <g id="cell41">
  <circle cx="477.678" cy="415.033" r="8.41271" stroke-width="0.5" stroke="black" fill="yellow"/>
  <circle cx="477.678" cy="415.033" r="5.05167" stroke-width="0.5" stroke="yellow" fill="yellow"/>
   </g>
   <g id="cell42">
  <circle cx="479.917" cy="440.149" r="6.95901" stroke-width="0.5" stroke="black" fill="Red"/>
  <circle cx="479.917" cy="440.149" r="4.21341" stroke-width="0.5" stroke="Red" fill="Red"/>
   </g>
   <g id="cell43">
  <circle cx="470.881" cy="455.285" r="8.41271" stroke-width="0.5" stroke="black" fill="Red"/>
  <circle cx="470.881" cy="455.285" r="5.05167" stroke-width="0.5" stroke="Red" fill="Red"/>
   </g>
   <g id="cell44">
  <circle cx="471.841" cy="467.118" r="8.41271" stroke-width="0.5" stroke="black" fill="blue"/>
  <circle cx="471.841" cy="467.118" r="5.05167" stroke-width="0.5" stroke="blue" fill="blue"/>
   </g>
   <g id="cell45">
  <circle cx="477.107" cy="478.095" r="8.41271" stroke-width="0.5" stroke="black" fill="Red"/>
  <circle cx="477.107" cy="478.095" r="5.05167" stroke-width="0.5" stroke="Red" fill="Red"/>
   </g>
   <g id="cell46">
  <circle cx="472.759" cy="492.683" r="8.41271" stroke-width="0.5" stroke="black" fill="Red"/>
  <circle cx="472.759" cy="492.683" r="5.05167" stroke-width="0.5" stroke="Red" fill="Red"/>
   </g>
   <g id="cell47">
  <circle cx="467.244" cy="504.478" r="7.95045" stroke-width="0.5" stroke="black" fill="Red"/>
  <circle cx="467.244" cy="504.478" r="4.82139" stroke-width="0.5" stroke="Red" fill="Red"/>
   </g>
   <g id="cell48">
  <circle cx="478.875" cy="521.086" r="7.72056" stroke-width="0.5" stroke="black" fill="blue"/>
  <circle cx="478.875" cy="521.086" r="4.69003" stroke-width="0.5" stroke="blue" fill="blue"/>
   </g>
   <g id="cell49">
  <circle cx="474.329" cy="542.993" r="8.41271" stroke-width="0.5" stroke="black" fill="Red"/>
  <circle cx="474.329" cy="542.993" r="5.05167" stroke-width="0.5" stroke="Red" fill="Red"/>
   </g>
   <g id="cell50">
  <circle cx="482.747" cy="555.123" r="7.02257" stroke-width="0.5" stroke="black" fill="blue"/>
  <circle cx="482.747" cy="555.123" r="4.25644" stroke-width="0.5" stroke="blue" fill="blue"/>
   </g>
   <g id="cell51">
  <circle cx="476.935" cy="566.772" r="8.41271" stroke-width="0.5" stroke="black" fill="Red"/>
  <circle cx="476.935" cy="566.772" r="5.05167" stroke-width="0.5" stroke="Red" fill="Red"/>
   </g>
   <g id="cell52">
  <circle cx="478.23" cy="583.837" r="8.41271" stroke-width="0.5" stroke="black" fill="yellow"/>
  <circle cx="478.23" cy="583.837" r="5.05167" stroke-width="0.5" stroke="yellow" fill="yellow"/>
   </g>
   <g id="cell53">
  <circle cx="490.242" cy="406.079" r="8.41271" stroke-width="0.5" stroke="black" fill="yellow"/>
  <circle cx="490.242" cy="406.079" r="5.05167" stroke-width="0.5" stroke="yellow" fill="yellow"/>
   </g>
   <g id="cell54">
  <circle cx="481.002" cy="427.964" r="8.41271" stroke-width="0.5" stroke="black" fill="Red"/>
  <circle cx="481.002" cy="427.964" r="5.05167" stroke-width="0.5" stroke="Red" fill="Red"/>
   </g>
   <g id="cell55">
  <circle cx="482.694" cy="449.597" r="7.56839" stroke-width="0.5" stroke="black" fill="Red"/>
  <circle cx="482.694" cy="449.597" r="4.59998" stroke-width="0.5" stroke="Red" fill="Red"/>
   </g>
   <g id="cell56">
  <circle cx="492.325" cy="456.727" r="7.79564" stroke-width="0.5" stroke="black" fill="blue"/>
  <circle cx="492.325" cy="456.727" r="4.73359" stroke-width="0.5" stroke="blue" fill="blue"/>
   </g>
   <g id="cell57">
  <circle cx="487.164" cy="471.525" r="8.41271" stroke-width="0.5" stroke="black" fill="Red"/>
  <circle cx="487.164" cy="471.525" r="5.05167" stroke-width="0.5" stroke="Red" fill="Red"/>
   </g>
   <g id="cell58">
  <circle cx="484.551" cy="488.225" r="8.41271" stroke-width="0.5" stroke="black" fill="Red"/>
  <circle cx="484.551" cy="488.225" r="5.05167" stroke-width="0.5" stroke="Red" fill="Red"/>
   </g>
   <g id="cell59">
  <circle cx="483.114" cy="499.68" r="7.0545" stroke-width="0.5" stroke="black" fill="Red"/>
  <circle cx="483.114" cy="499.68" r="4.27772" stroke-width="0.5" stroke="Red" fill="Red"/>
   </g>
   <g id="cell60">
  <circle cx="488.745" cy="513.747" r="8.41271" stroke-width="0.5" stroke="black" fill="Red"/>
  <circle cx="488.745" cy="513.747" r="5.05167" stroke-width="0.5" stroke="Red" fill="Red"/>
   </g>
   <g id="cell61">
  <circle cx="485.782" cy="531.842" r="8.41271" stroke-width="0.5" stroke="black" fill="blue"/>
  <circle cx="485.782" cy="531.842" r="5.05167" stroke-width="0.5" stroke="blue" fill="blue"/>
   </g>
   <g id="cell62">
  <circle cx="485.2" cy="544.509" r="8.41271" stroke-width="0.5" stroke="black" fill="Red"/>
  <circle cx="485.2" cy="544.509" r="5.05167" stroke-width="0.5" stroke="Red" fill="Red"/>
   </g>
   <g id="cell63">
  <circle cx="491.614" cy="562.433" r="8.41271" stroke-width="0.5" stroke="black" fill="Red"/>
  <circle cx="491.614" cy="562.433" r="5.05167" stroke-width="0.5" stroke="Red" fill="Red"/>
   </g>
   <g id="cell64">
  <circle cx="489.031" cy="573.196" r="8.41271" stroke-width="0.5" stroke="black" fill="blue"/>
  <circle cx="489.031" cy="573.196" r="5.05167" stroke-width="0.5" stroke="blue" fill="blue"/>
   </g>
   <g id="cell65">
  <circle cx="488.705" cy="596.998" r="6.86652" stroke-width="0.5" stroke="black" fill="Red"/>
  <circle cx="488.705" cy="596.998" r="4.14883" stroke-width="0.5" stroke="Red" fill="Red"/>
   </g>
   <g id="cell66">
  <circle cx="502.591" cy="412.125" r="8.41271" stroke-width="0.5" stroke="black" fill="blue"/>
  <circle cx="502.591" cy="412.125" r="5.05167" stroke-width="0.5" stroke="blue" fill="blue"/>
   </g>
   <g id="cell67">
  <circle cx="491.602" cy="420.837" r="8.41271" stroke-width="0.5" stroke="black" fill="Red"/>
  <circle cx="491.602" cy="420.837" r="5.05167" stroke-width="0.5" stroke="Red" fill="Red"/>
   </g>
   <g id="cell68">
  <circle cx="501.308" cy="429.87" r="8.41271" stroke-width="0.5" stroke="black" fill="Red"/>
  <circle cx="501.308" cy="429.87" r="5.05167" stroke-width="0.5" stroke="Red" fill="Red"/>
   </g>
   <g id="cell69">
  <circle cx="494.37" cy="445.868" r="8.41271" stroke-width="0.5" stroke="black" fill="Red"/>
  <circle cx="494.37" cy="445.868" r="5.05167" stroke-width="0.5" stroke="Red" fill="Red"/>
   </g>
   <g id="cell70">
  <circle cx="498.319" cy="465.384" r="8.41271" stroke-width="0.5" stroke="black" fill="Red"/>
  <circle cx="498.319" cy="465.384" r="5.05167" stroke-width="0.5" stroke="Red" fill="Red"/>
   </g>
   <g id="cell71">
  <circle cx="495.221" cy="480.349" r="8.41271" stroke-width="0.5" stroke="black" fill="Red"/>
  <circle cx="495.221" cy="480.349" r="5.05167" stroke-width="0.5" stroke="Red" fill="Red"/>
   </g>
   <g id="cell72">
  <circle cx="496.783" cy="492.411" r="8.41271" stroke-width="0.5" stroke="black" fill="Red"/>
  <circle cx="496.783" cy="492.411" r="5.05167" stroke-width="0.5" stroke="Red" fill="Red"/>
   </g>
   <g id="cell73">
  <circle cx="501.145" cy="510.476" r="8.41271" stroke-width="0.5" stroke="black" fill="Red"/>
  <circle cx="501.145" cy="510.476" r="5.05167" stroke-width="0.5" stroke="Red" fill="Red"/>
   </g>
   <g id="cell74">
  <circle cx="496.599" cy="524.306" r="8.41271" stroke-width="0.5" stroke="black" fill="Red"/>
  <circle cx="496.599" cy="524.306" r="5.05167" stroke-width="0.5" stroke="Red" fill="Red"/>
   </g>
   <g id="cell75">
  <circle cx="497.266" cy="537.967" r="8.41271" stroke-width="0.5" stroke="black" fill="Red"/>
  <circle cx="497.266" cy="537.967" r="5.05167" stroke-width="0.5" stroke="Red" fill="Red"/>
   </g>
   <g id="cell76">
  <circle cx="495.74" cy="551.316" r="8.41271" stroke-width="0.5" stroke="black" fill="Red"/>
  <circle cx="495.74" cy="551.316" r="5.05167" stroke-width="0.5" stroke="Red" fill="Red"/>
   </g>
   <g id="cell77">
  <circle cx="502.555" cy="568.258" r="7.70049" stroke-width="0.5" stroke="black" fill="Red"/>
  <circle cx="502.555" cy="568.258" r="4.67828" stroke-width="0.5" stroke="Red" fill="Red"/>
   </g>
   <g id="cell78">
  <circle cx="501.235" cy="580.193" r="8.41271" stroke-width="0.5" stroke="black" fill="Red"/>
  <circle cx="501.235" cy="580.193" r="5.05167" stroke-width="0.5" stroke="Red" fill="Red"/>
   </g>
   <g id="cell79">
  <circle cx="501.836" cy="595.956" r="8.41271" stroke-width="0.5" stroke="black" fill="blue"/>
  <circle cx="501.836" cy="595.956" r="5.05167" stroke-width="0.5" stroke="blue" fill="blue"/>
   </g>
   <g id="cell80">
  <circle cx="516.421" cy="411.339" r="7.24243" stroke-width="0.5" stroke="black" fill="Red"/>
  <circle cx="516.421" cy="411.339" r="4.39934" stroke-width="0.5" stroke="Red" fill="Red"/>
   </g>
   <g id="cell81">
  <circle cx="514.557" cy="433.409" r="8.41271" stroke-width="0.5" stroke="black" fill="Red"/>
  <circle cx="514.557" cy="433.409" r="5.05167" stroke-width="0.5" stroke="Red" fill="Red"/>
   </g>
   <g id="cell82">
  <circle cx="511.526" cy="445.404" r="6.92764" stroke-width="0.5" stroke="black" fill="Red"/>
  <circle cx="511.526" cy="445.404" r="4.1918" stroke-width="0.5" stroke="Red" fill="Red"/>
   </g>
   <g id="cell83">
  <circle cx="505.217" cy="454.214" r="8.41271" stroke-width="0.5" stroke="black" fill="Red"/>
  <circle cx="505.217" cy="454.214" r="5.05167" stroke-width="0.5" stroke="Red" fill="Red"/>
   </g>
   <g id="cell84">
  <circle cx="510.702" cy="464.39" r="6.69288" stroke-width="0.5" stroke="black" fill="Red"/>
  <circle cx="510.702" cy="464.39" r="4.02051" stroke-width="0.5" stroke="Red" fill="Red"/>
   </g>
   <g id="cell85">
  <circle cx="506.197" cy="475.044" r="8.41271" stroke-width="0.5" stroke="black" fill="Red"/>
  <circle cx="506.197" cy="475.044" r="5.05167" stroke-width="0.5" stroke="Red" fill="Red"/>
   </g>
   <g id="cell86">
  <circle cx="508.193" cy="499.034" r="8.41271" stroke-width="0.5" stroke="black" fill="Red"/>
  <circle cx="508.193" cy="499.034" r="5.05167" stroke-width="0.5" stroke="Red" fill="Red"/>
   </g>
   <g id="cell87">
  <circle cx="513.653" cy="511.072" r="7.75912" stroke-width="0.5" stroke="black" fill="Red"/>
  <circle cx="513.653" cy="511.072" r="4.71248" stroke-width="0.5" stroke="Red" fill="Red"/>
   </g>
   <g id="cell88">
  <circle cx="509.455" cy="534.049" r="8.41271" stroke-width="0.5" stroke="black" fill="Red"/>
  <circle cx="509.455" cy="534.049" r="5.05167" stroke-width="0.5" stroke="Red" fill="Red"/>
   </g>
   <g id="cell89">
  <circle cx="508.63" cy="547.194" r="8.41271" stroke-width="0.5" stroke="black" fill="Red"/>
  <circle cx="508.63" cy="547.194" r="5.05167" stroke-width="0.5" stroke="Red" fill="Red"/>
   </g>
   <g id="cell90">
  <circle cx="517.133" cy="557.828" r="8.41271" stroke-width="0.5" stroke="black" fill="Red"/>
  <circle cx="517.133" cy="557.828" r="5.05167" stroke-width="0.5" stroke="Red" fill="Red"/>
   </g>
   <g id="cell91">
  <circle cx="514.143" cy="571.492" r="8.41271" stroke-width="0.5" stroke="black" fill="Red"/>
  <circle cx="514.143" cy="571.492" r="5.05167" stroke-width="0.5" stroke="Red" fill="Red"/>
   </g>
   <g id="cell92">
  <circle cx="513.418" cy="586.783" r="8.41271" stroke-width="0.5" stroke="black" fill="Red"/>
  <circle cx="513.418" cy="586.783" r="5.05167" stroke-width="0.5" stroke="Red" fill="Red"/>
   </g>
   <g id="cell93">
  <circle cx="530.119" cy="410.45" r="8.41271" stroke-width="0.5" stroke="black" fill="blue"/>
  <circle cx="530.119" cy="410.45" r="5.05167" stroke-width="0.5" stroke="blue" fill="blue"/>
   </g>
   <g id="cell94">
  <circle cx="535.457" cy="423.136" r="7.77763" stroke-width="0.5" stroke="black" fill="Red"/>
  <circle cx="535.457" cy="423.136" r="4.7232" stroke-width="0.5" stroke="Red" fill="Red"/>
   </g>
   <g id="cell95">
  <circle cx="528.706" cy="434.955" r="8.41271" stroke-width="0.5" stroke="black" fill="Red"/>
  <circle cx="528.706" cy="434.955" r="5.05167" stroke-width="0.5" stroke="Red" fill="Red"/>
   </g>
   <g id="cell96">
  <circle cx="521.793" cy="446.062" r="7.28795" stroke-width="0.5" stroke="black" fill="blue"/>
  <circle cx="521.793" cy="446.062" r="4.45955" stroke-width="0.5" stroke="blue" fill="blue"/>
   </g>
   <g id="cell97">
  <circle cx="528.574" cy="461.233" r="8.41271" stroke-width="0.5" stroke="black" fill="Red"/>
  <circle cx="528.574" cy="461.233" r="5.05167" stroke-width="0.5" stroke="Red" fill="Red"/>
   </g>
   <g id="cell98">
  <circle cx="523.309" cy="490.64" r="6.92978" stroke-width="0.5" stroke="black" fill="blue"/>
  <circle cx="523.309" cy="490.64" r="4.25007" stroke-width="0.5" stroke="blue" fill="blue"/>
   </g>
   <g id="cell99">
  <circle cx="532.555" cy="497.889" r="8.41271" stroke-width="0.5" stroke="black" fill="Red"/>
  <circle cx="532.555" cy="497.889" r="5.05167" stroke-width="0.5" stroke="Red" fill="Red"/>
   </g>
   <g id="cell100">
  <circle cx="520.248" cy="500.455" r="7.11815" stroke-width="0.5" stroke="black" fill="blue"/>
  <circle cx="520.248" cy="500.455" r="4.31954" stroke-width="0.5" stroke="blue" fill="blue"/>
   </g>
   <g id="cell101">
  <circle cx="520.176" cy="528.011" r="8.41271" stroke-width="0.5" stroke="black" fill="Red"/>
  <circle cx="520.176" cy="528.011" r="5.05167" stroke-width="0.5" stroke="Red" fill="Red"/>
   </g>
   <g id="cell102">
  <circle cx="529.735" cy="535.213" r="7.90853" stroke-width="0.5" stroke="black" fill="Red"/>
  <circle cx="529.735" cy="535.213" r="4.79791" stroke-width="0.5" stroke="Red" fill="Red"/>
   </g>
   <g id="cell103">
  <circle cx="527.723" cy="550.191" r="8.41271" stroke-width="0.5" stroke="black" fill="Red"/>
  <circle cx="527.723" cy="550.191" r="5.05167" stroke-width="0.5" stroke="Red" fill="Red"/>
   </g>
   <g id="cell104">
  <circle cx="528.85" cy="565.687" r="8.41271" stroke-width="0.5" stroke="black" fill="yellow"/>
  <circle cx="528.85" cy="565.687" r="5.05167" stroke-width="0.5" stroke="yellow" fill="yellow"/>
   </g>
   <g id="cell105">
  <circle cx="527.201" cy="581.442" r="8.41271" stroke-width="0.5" stroke="black" fill="blue"/>
  <circle cx="527.201" cy="581.442" r="5.05167" stroke-width="0.5" stroke="blue" fill="blue"/>
   </g>
   <g id="cell106">
  <circle cx="543.241" cy="413.228" r="7.1497" stroke-width="0.5" stroke="black" fill="yellow"/>
  <circle cx="543.241" cy="413.228" r="4.34001" stroke-width="0.5" stroke="yellow" fill="yellow"/>
   </g>
   <g id="cell107">
  <circle cx="541.903" cy="436.878" r="8.41271" stroke-width="0.5" stroke="black" fill="blue"/>
  <circle cx="541.903" cy="436.878" r="5.05167" stroke-width="0.5" stroke="blue" fill="blue"/>
   </g>
   <g id="cell108">
  <circle cx="533.01" cy="448.22" r="8.41271" stroke-width="0.5" stroke="black" fill="Red"/>
  <circle cx="533.01" cy="448.22" r="5.05167" stroke-width="0.5" stroke="Red" fill="Red"/>
   </g>
   <g id="cell109">
  <circle cx="547.816" cy="466.453" r="8.41271" stroke-width="0.5" stroke="black" fill="Red"/>
  <circle cx="547.816" cy="466.453" r="5.05167" stroke-width="0.5" stroke="Red" fill="Red"/>
   </g>
   <g id="cell110">
  <circle cx="529.54" cy="482.139" r="8.41271" stroke-width="0.5" stroke="black" fill="Red"/>
  <circle cx="529.54" cy="482.139" r="5.05167" stroke-width="0.5" stroke="Red" fill="Red"/>
   </g>
   <g id="cell111">
  <circle cx="540.121" cy="488.533" r="8.41271" stroke-width="0.5" stroke="black" fill="Red"/>
  <circle cx="540.121" cy="488.533" r="5.05167" stroke-width="0.5" stroke="Red" fill="Red"/>
   </g>
   <g id="cell112">
  <circle cx="541.011" cy="507.242" r="8.41271" stroke-width="0.5" stroke="black" fill="Red"/>
  <circle cx="541.011" cy="507.242" r="5.05167" stroke-width="0.5" stroke="Red" fill="Red"/>
   </g>
   <g id="cell113">
  <circle cx="529.114" cy="510.234" r="8.41271" stroke-width="0.5" stroke="black" fill="Red"/>
  <circle cx="529.114" cy="510.234" r="5.05167" stroke-width="0.5" stroke="Red" fill="Red"/>
   </g>
   <g id="cell114">
  <circle cx="533.435" cy="522.959" r="8.41271" stroke-width="0.5" stroke="black" fill="Red"/>
  <circle cx="533.435" cy="522.959" r="5.05167" stroke-width="0.5" stroke="Red" fill="Red"/>
   </g>
   <g id="cell115">
  <circle cx="538.192" cy="542.606" r="8.41271" stroke-width="0.5" stroke="black" fill="Red"/>
  <circle cx="538.192" cy="542.606" r="5.05167" stroke-width="0.5" stroke="Red" fill="Red"/>
   </g>
   <g id="cell116">
  <circle cx="545.565" cy="562.051" r="6.73287" stroke-width="0.5" stroke="black" fill="Red"/>
  <circle cx="545.565" cy="562.051" r="4.05039" stroke-width="0.5" stroke="Red" fill="Red"/>
   </g>
   <g id="cell117">
  <circle cx="539.756" cy="573.075" r="8.41271" stroke-width="0.5" stroke="black" fill="Red"/>
  <circle cx="539.756" cy="573.075" r="5.05167" stroke-width="0.5" stroke="Red" fill="Red"/>
   </g>
   <g id="cell118">
  <circle cx="549.612" cy="425.922" r="8.41271" stroke-width="0.5" stroke="black" fill="Red"/>
  <circle cx="549.612" cy="425.922" r="5.05167" stroke-width="0.5" stroke="Red" fill="Red"/>
   </g>
   <g id="cell119">
  <circle cx="555.635" cy="438.68" r="8.41271" stroke-width="0.5" stroke="black" fill="Red"/>
  <circle cx="555.635" cy="438.68" r="5.05167" stroke-width="0.5" stroke="Red" fill="Red"/>
   </g>
   <g id="cell120">
  <circle cx="553.418" cy="457.032" r="7.75912" stroke-width="0.5" stroke="black" fill="Red"/>
  <circle cx="553.418" cy="457.032" r="4.71248" stroke-width="0.5" stroke="Red" fill="Red"/>
   </g>
   <g id="cell121">
  <circle cx="559.382" cy="472.989" r="8.41271" stroke-width="0.5" stroke="black" fill="Red"/>
  <circle cx="559.382" cy="472.989" r="5.05167" stroke-width="0.5" stroke="Red" fill="Red"/>
   </g>
   <g id="cell122">
  <circle cx="546.228" cy="478.891" r="8.41271" stroke-width="0.5" stroke="black" fill="blue"/>
  <circle cx="546.228" cy="478.891" r="5.05167" stroke-width="0.5" stroke="blue" fill="blue"/>
   </g>
   <g id="cell123">
  <circle cx="548.438" cy="495.797" r="8.41271" stroke-width="0.5" stroke="black" fill="Red"/>
  <circle cx="548.438" cy="495.797" r="5.05167" stroke-width="0.5" stroke="Red" fill="Red"/>
   </g>
   <g id="cell124">
  <circle cx="554.219" cy="510.027" r="8.41271" stroke-width="0.5" stroke="black" fill="Red"/>
  <circle cx="554.219" cy="510.027" r="5.05167" stroke-width="0.5" stroke="Red" fill="Red"/>
   </g>
   <g id="cell125">
  <circle cx="545.635" cy="519.028" r="7.77763" stroke-width="0.5" stroke="black" fill="blue"/>
  <circle cx="545.635" cy="519.028" r="4.7232" stroke-width="0.5" stroke="blue" fill="blue"/>
   </g>
   <g id="cell126">
  <circle cx="544.703" cy="532.14" r="8.41271" stroke-width="0.5" stroke="black" fill="Red"/>
  <circle cx="544.703" cy="532.14" r="5.05167" stroke-width="0.5" stroke="Red" fill="Red"/>
   </g>
   <g id="cell127">
  <circle cx="547.71" cy="549.958" r="8.41271" stroke-width="0.5" stroke="black" fill="Red"/>
  <circle cx="547.71" cy="549.958" r="5.05167" stroke-width="0.5" stroke="Red" fill="Red"/>
   </g>
   <g id="cell128">
  <circle cx="558.185" cy="561.679" r="8.41271" stroke-width="0.5" stroke="black" fill="blue"/>
  <circle cx="558.185" cy="561.679" r="5.05167" stroke-width="0.5" stroke="blue" fill="blue"/>
   </g>
   <g id="cell129">
  <circle cx="576.854" cy="454.934" r="7.7401" stroke-width="0.5" stroke="black" fill="Red"/>
  <circle cx="576.854" cy="454.934" r="4.70142" stroke-width="0.5" stroke="Red" fill="Red"/>
   </g>
   <g id="cell130">
  <circle cx="564.565" cy="461.455" r="8.41271" stroke-width="0.5" stroke="black" fill="Red"/>
  <circle cx="564.565" cy="461.455" r="5.05167" stroke-width="0.5" stroke="Red" fill="Red"/>
   </g>
   <g id="cell131">
  <circle cx="569.611" cy="480.321" r="8.41271" stroke-width="0.5" stroke="black" fill="Red"/>
  <circle cx="569.611" cy="480.321" r="5.05167" stroke-width="0.5" stroke="Red" fill="Red"/>
   </g>
   <g id="cell132">
  <circle cx="558.278" cy="488.127" r="8.41271" stroke-width="0.5" stroke="black" fill="Red"/>
  <circle cx="558.278" cy="488.127" r="5.05167" stroke-width="0.5" stroke="Red" fill="Red"/>
   </g>
   <g id="cell133">
  <circle cx="564.7" cy="500.077" r="8.41271" stroke-width="0.5" stroke="black" fill="blue"/>
  <circle cx="564.7" cy="500.077" r="5.05167" stroke-width="0.5" stroke="blue" fill="blue"/>
   </g>
   <g id="cell134">
  <circle cx="566.576" cy="515.236" r="8.41271" stroke-width="0.5" stroke="black" fill="yellow"/>
  <circle cx="566.576" cy="515.236" r="5.05167" stroke-width="0.5" stroke="yellow" fill="yellow"/>
   </g>
   <g id="cell135">
  <circle cx="568.56" cy="529.164" r="8.41271" stroke-width="0.5" stroke="black" fill="Red"/>
  <circle cx="568.56" cy="529.164" r="5.05167" stroke-width="0.5" stroke="Red" fill="Red"/>
   </g>
   <g id="cell136">
  <circle cx="556.641" cy="538.708" r="8.41271" stroke-width="0.5" stroke="black" fill="Red"/>
  <circle cx="556.641" cy="538.708" r="5.05167" stroke-width="0.5" stroke="Red" fill="Red"/>
   </g>
   <g id="cell137">
  <circle cx="568.673" cy="556.638" r="6.83713" stroke-width="0.5" stroke="black" fill="Red"/>
  <circle cx="568.673" cy="556.638" r="4.12773" stroke-width="0.5" stroke="Red" fill="Red"/>
   </g>
   <g id="cell138">
  <circle cx="575.487" cy="468.736" r="8.41271" stroke-width="0.5" stroke="black" fill="blue"/>
  <circle cx="575.487" cy="468.736" r="5.05167" stroke-width="0.5" stroke="blue" fill="blue"/>
   </g>
   <g id="cell139">
  <circle cx="583.594" cy="481.491" r="8.41271" stroke-width="0.5" stroke="black" fill="Red"/>
  <circle cx="583.594" cy="481.491" r="5.05167" stroke-width="0.5" stroke="Red" fill="Red"/>
   </g>
   <g id="cell140">
  <circle cx="573.865" cy="492.158" r="7.96365" stroke-width="0.5" stroke="black" fill="Red"/>
  <circle cx="573.865" cy="492.158" r="4.82873" stroke-width="0.5" stroke="Red" fill="Red"/>
   </g>
   <g id="cell141">
  <circle cx="577.775" cy="505.481" r="8.41271" stroke-width="0.5" stroke="black" fill="yellow"/>
  <circle cx="577.775" cy="505.481" r="5.05167" stroke-width="0.5" stroke="yellow" fill="yellow"/>
   </g>
   <g id="cell142">
  <circle cx="578.605" cy="518.869" r="7.61469" stroke-width="0.5" stroke="black" fill="blue"/>
  <circle cx="578.605" cy="518.869" r="4.62762" stroke-width="0.5" stroke="blue" fill="blue"/>
   </g>
   <g id="cell143">
  <circle cx="571.154" cy="543.306" r="8.41271" stroke-width="0.5" stroke="black" fill="blue"/>
  <circle cx="571.154" cy="543.306" r="5.05167" stroke-width="0.5" stroke="blue" fill="blue"/>
   </g>
   <g id="cell144">
  <circle cx="429.215" cy="434.408" r="6.94316" stroke-width="0.5" stroke="black" fill="blue"/>
  <circle cx="429.215" cy="434.408" r="4.24958" stroke-width="0.5" stroke="blue" fill="blue"/>
   </g>
   <g id="cell145">
  <circle cx="586.236" cy="494.035" r="7.96365" stroke-width="0.5" stroke="black" fill="blue"/>
  <circle cx="586.236" cy="494.035" r="4.82873" stroke-width="0.5" stroke="blue" fill="blue"/>
   </g>
   <g id="cell146">
  <circle cx="478.456" cy="508.521" r="7.33785" stroke-width="0.5" stroke="black" fill="blue"/>
  <circle cx="478.456" cy="508.521" r="4.48907" stroke-width="0.5" stroke="blue" fill="blue"/>
   </g>
   <g id="cell147">
  <circle cx="539.62" cy="458.505" r="7.65292" stroke-width="0.5" stroke="black" fill="blue"/>
  <circle cx="539.62" cy="458.505" r="4.6705" stroke-width="0.5" stroke="blue" fill="blue"/>
   </g>
   <g id="cell148">
  <circle cx="519.835" cy="540.923" r="7.90853" stroke-width="0.5" stroke="black" fill="blue"/>
  <circle cx="519.835" cy="540.923" r="4.79791" stroke-width="0.5" stroke="blue" fill="blue"/>
   </g>
   <g id="cell149">
  <circle cx="536.128" cy="472.036" r="7.65292" stroke-width="0.5" stroke="black" fill="Red"/>
  <circle cx="536.128" cy="472.036" r="4.6705" stroke-width="0.5" stroke="Red" fill="Red"/>
   </g>
   <g id="cell150">
  <circle cx="445.111" cy="512.496" r="7.83019" stroke-width="0.5" stroke="black" fill="blue"/>
  <circle cx="445.111" cy="512.496" r="4.75343" stroke-width="0.5" stroke="blue" fill="blue"/>
   </g>
   <g id="cell151">
  <circle cx="452.765" cy="414.972" r="7.83019" stroke-width="0.5" stroke="black" fill="blue"/>
  <circle cx="452.765" cy="414.972" r="4.75343" stroke-width="0.5" stroke="blue" fill="blue"/>
   </g>
   <g id="cell152">
  <circle cx="482.878" cy="461.971" r="7.79564" stroke-width="0.5" stroke="black" fill="Red"/>
  <circle cx="482.878" cy="461.971" r="4.73359" stroke-width="0.5" stroke="Red" fill="Red"/>
   </g>
   <g id="cell153">
  <circle cx="522.927" cy="422.058" r="7.77763" stroke-width="0.5" stroke="black" fill="Red"/>
  <circle cx="522.927" cy="422.058" r="4.7232" stroke-width="0.5" stroke="Red" fill="Red"/>
   </g>
   <g id="cell154">
  <circle cx="556.091" cy="525.405" r="7.77763" stroke-width="0.5" stroke="black" fill="blue"/>
  <circle cx="556.091" cy="525.405" r="4.7232" stroke-width="0.5" stroke="blue" fill="blue"/>
   </g>
   <g id="cell155">
  <circle cx="440.212" cy="420.28" r="7.44597" stroke-width="0.5" stroke="black" fill="yellow"/>
  <circle cx="440.212" cy="420.28" r="4.55339" stroke-width="0.5" stroke="yellow" fill="yellow"/>
   </g>
   <g id="cell156">
  <circle cx="508.631" cy="521.566" r="7.75912" stroke-width="0.5" stroke="black" fill="blue"/>
  <circle cx="508.631" cy="521.566" r="4.71248" stroke-width="0.5" stroke="blue" fill="blue"/>
   </g>
   <g id="cell157">
  <circle cx="545.785" cy="448.95" r="7.75912" stroke-width="0.5" stroke="black" fill="blue"/>
  <circle cx="545.785" cy="448.95" r="4.71248" stroke-width="0.5" stroke="blue" fill="blue"/>
   </g>
   <g id="cell158">
  <circle cx="557.395" cy="448.242" r="5.75507" stroke-width="0.5" stroke="black" fill="Red"/>
  <circle cx="557.395" cy="448.242" r="3.54434" stroke-width="0.5" stroke="Red" fill="Red"/>
   </g>
   <g id="cell159">
  <circle cx="473.132" cy="530.445" r="7.72056" stroke-width="0.5" stroke="black" fill="Red"/>
  <circle cx="473.132" cy="530.445" r="4.69003" stroke-width="0.5" stroke="Red" fill="Red"/>
   </g>
   <g id="cell160">
  <circle cx="505.478" cy="558.807" r="7.70049" stroke-width="0.5" stroke="black" fill="blue"/>
  <circle cx="505.478" cy="558.807" r="4.67828" stroke-width="0.5" stroke="blue" fill="blue"/>
   </g>
   <g id="cell161">
  <circle cx="517.361" cy="481.183" r="6.83313" stroke-width="0.5" stroke="black" fill="Red"/>
  <circle cx="517.361" cy="481.183" r="4.19128" stroke-width="0.5" stroke="Red" fill="Red"/>
   </g>
   <g id="cell162">
  <circle cx="580.52" cy="533.22" r="7.61469" stroke-width="0.5" stroke="black" fill="Red"/>
  <circle cx="580.52" cy="533.22" r="4.62762" stroke-width="0.5" stroke="Red" fill="Red"/>
   </g>
   <g id="cell163">
  <circle cx="469.074" cy="515.661" r="7.33785" stroke-width="0.5" stroke="black" fill="Red"/>
  <circle cx="469.074" cy="515.661" r="4.48907" stroke-width="0.5" stroke="Red" fill="Red"/>
   </g>
   <g id="cell164">
  <circle cx="433.029" cy="494.457" r="7.61469" stroke-width="0.5" stroke="black" fill="Red"/>
  <circle cx="433.029" cy="494.457" r="4.62762" stroke-width="0.5" stroke="Red" fill="Red"/>
   </g>
   <g id="cell165">
  <circle cx="467.478" cy="444.013" r="7.56839" stroke-width="0.5" stroke="black" fill="Red"/>
  <circle cx="467.478" cy="444.013" r="4.59998" stroke-width="0.5" stroke="Red" fill="Red"/>
   </g>
   <g id="cell166">
  <circle cx="490.913" cy="435.258" r="7.56839" stroke-width="0.5" stroke="black" fill="blue"/>
  <circle cx="490.913" cy="435.258" r="4.59998" stroke-width="0.5" stroke="blue" fill="blue"/>
   </g>
   <g id="cell167">
  <circle cx="518.955" cy="457.347" r="7.28795" stroke-width="0.5" stroke="black" fill="Red"/>
  <circle cx="518.955" cy="457.347" r="4.45955" stroke-width="0.5" stroke="Red" fill="Red"/>
   </g>
   <g id="cell168">
  <circle cx="426.757" cy="527.059" r="6.84172" stroke-width="0.5" stroke="black" fill="yellow"/>
  <circle cx="426.757" cy="527.059" r="4.19761" stroke-width="0.5" stroke="yellow" fill="yellow"/>
   </g>
   <g id="cell169">
  <circle cx="418.575" cy="458.733" r="7.44242" stroke-width="0.5" stroke="black" fill="blue"/>
  <circle cx="418.575" cy="458.733" r="4.52373" stroke-width="0.5" stroke="blue" fill="blue"/>
   </g>
   <g id="cell170">
  <circle cx="514.336" cy="489.723" r="5.73172" stroke-width="0.5" stroke="black" fill="Red"/>
  <circle cx="514.336" cy="489.723" r="3.5313" stroke-width="0.5" stroke="Red" fill="Red"/>
   </g>
   <g id="cell171">
  <circle cx="453.754" cy="582.865" r="7.38797" stroke-width="0.5" stroke="black" fill="Red"/>
  <circle cx="453.754" cy="582.865" r="4.49029" stroke-width="0.5" stroke="Red" fill="Red"/>
   </g>
   <g id="cell172">
  <circle cx="567.939" cy="442.743" r="6.96172" stroke-width="0.5" stroke="black" fill="blue"/>
  <circle cx="567.939" cy="442.743" r="4.2679" stroke-width="0.5" stroke="blue" fill="blue"/>
   </g>
   <g id="cell173">
  <circle cx="420.565" cy="516.657" r="6.84172" stroke-width="0.5" stroke="black" fill="yellow"/>
  <circle cx="420.565" cy="516.657" r="4.19761" stroke-width="0.5" stroke="yellow" fill="yellow"/>
   </g>
   <g id="cell174">
  <circle cx="525.19" cy="471.315" r="6.83313" stroke-width="0.5" stroke="black" fill="blue"/>
  <circle cx="525.19" cy="471.315" r="4.19128" stroke-width="0.5" stroke="blue" fill="blue"/>
   </g>
   <g id="cell175">
  <circle cx="510.406" cy="421.641" r="7.24243" stroke-width="0.5" stroke="black" fill="Red"/>
  <circle cx="510.406" cy="421.641" r="4.39934" stroke-width="0.5" stroke="Red" fill="Red"/>
   </g>
   <g id="cell176">
  <circle cx="440.038" cy="432.078" r="6.94316" stroke-width="0.5" stroke="black" fill="Red"/>
  <circle cx="440.038" cy="432.078" r="4.24958" stroke-width="0.5" stroke="Red" fill="Red"/>
   </g>
   <g id="cell177">
  <circle cx="555.655" cy="413.85" r="7.1497" stroke-width="0.5" stroke="black" fill="blue"/>
  <circle cx="555.655" cy="413.85" r="4.34001" stroke-width="0.5" stroke="blue" fill="blue"/>
   </g>
   <g id="cell178">
  <circle cx="521.395" cy="517.659" r="7.11815" stroke-width="0.5" stroke="black" fill="Red"/>
  <circle cx="521.395" cy="517.659" r="4.31954" stroke-width="0.5" stroke="Red" fill="Red"/>
   </g>
   <g id="cell179">
  <circle cx="453.047" cy="527.607" r="7.11815" stroke-width="0.5" stroke="black" fill="Red"/>
  <circle cx="453.047" cy="527.607" r="4.31954" stroke-width="0.5" stroke="Red" fill="Red"/>
   </g>
   <g id="cell180">
  <circle cx="459.084" cy="435.445" r="7.11815" stroke-width="0.5" stroke="black" fill="Red"/>
  <circle cx="459.084" cy="435.445" r="4.31954" stroke-width="0.5" stroke="Red" fill="Red"/>
   </g>
   <g id="cell181">
  <circle cx="493.016" cy="502.536" r="7.0545" stroke-width="0.5" stroke="black" fill="blue"/>
  <circle cx="493.016" cy="502.536" r="4.27772" stroke-width="0.5" stroke="blue" fill="blue"/>
   </g>
   <g id="cell182">
  <circle cx="472.26" cy="554.945" r="7.02257" stroke-width="0.5" stroke="black" fill="Red"/>
  <circle cx="472.26" cy="554.945" r="4.25644" stroke-width="0.5" stroke="Red" fill="Red"/>
   </g>
   <g id="cell183">
  <circle cx="470.21" cy="432.873" r="6.95901" stroke-width="0.5" stroke="black" fill="blue"/>
  <circle cx="470.21" cy="432.873" r="4.21341" stroke-width="0.5" stroke="blue" fill="blue"/>
   </g>
   <g id="cell184">
  <circle cx="503.294" cy="440.394" r="6.92764" stroke-width="0.5" stroke="black" fill="blue"/>
  <circle cx="503.294" cy="440.394" r="4.1918" stroke-width="0.5" stroke="blue" fill="blue"/>
   </g>
   <g id="cell185">
  <circle cx="491.014" cy="585.878" r="6.86652" stroke-width="0.5" stroke="black" fill="Red"/>
  <circle cx="491.014" cy="585.878" r="4.14883" stroke-width="0.5" stroke="Red" fill="Red"/>
   </g>
   <g id="cell186">
  <circle cx="506.399" cy="486.051" r="5.73172" stroke-width="0.5" stroke="black" fill="blue"/>
  <circle cx="506.399" cy="486.051" r="3.5313" stroke-width="0.5" stroke="blue" fill="blue"/>
   </g>
   <g id="cell187">
  <circle cx="564.84" cy="450.866" r="5.75507" stroke-width="0.5" stroke="black" fill="Red"/>
  <circle cx="564.84" cy="450.866" r="3.54434" stroke-width="0.5" stroke="Red" fill="Red"/>
   </g>
   <g id="cell188">
  <circle cx="560.093" cy="549.676" r="6.83713" stroke-width="0.5" stroke="black" fill="Red"/>
  <circle cx="560.093" cy="549.676" r="4.12773" stroke-width="0.5" stroke="Red" fill="Red"/>
   </g>
   <g id="cell189">
  <circle cx="464.139" cy="524.124" r="6.80881" stroke-width="0.5" stroke="black" fill="Red"/>
  <circle cx="464.139" cy="524.124" r="4.10709" stroke-width="0.5" stroke="Red" fill="Red"/>
   </g>
   <g id="cell190">
  <circle cx="460.356" cy="513.852" r="5.48858" stroke-width="0.5" stroke="black" fill="Red"/>
  <circle cx="460.356" cy="513.852" r="3.32079" stroke-width="0.5" stroke="Red" fill="Red"/>
   </g>
   <g id="cell191">
  <circle cx="537.262" cy="556.606" r="6.73287" stroke-width="0.5" stroke="black" fill="blue"/>
  <circle cx="537.262" cy="556.606" r="4.05039" stroke-width="0.5" stroke="blue" fill="blue"/>
   </g>
   <g id="cell192">
  <circle cx="517.193" cy="470.367" r="6.69288" stroke-width="0.5" stroke="black" fill="Red"/>
  <circle cx="517.193" cy="470.367" r="4.02051" stroke-width="0.5" stroke="Red" fill="Red"/>
   </g>
  </g>
 </g>
  <rect x="775" y="1035" width="200" height="10" stroke-width="2" stroke="rgb(255,255,255)" fill="rgb(0,0,0)"/>
  <text x="781.25" y="1028.75"
   font-family="Arial" font-size="25" fill="black" >
   200 &#956;m
  </text>
  <text x="25" y="1045"
   font-family="Arial" font-size="18.75" fill="black" >
   0 days, 0 hours, 2 minutes, and 11.2989 seconds
  </text>
  <rect x="0" y="70" width="1000" height="1000" stroke-width="2" stroke="rgb(0,0,0)" fill="none"/>
</svg>
