<?xml version="1.0" encoding="UTF-8" standalone="no"?>
<!-- Created with PhysiCell (http://PhysiCell.MathCancer.org/) -->
<svg 
 xmlns:dc="http://purl.org/dc/elements/1.1/" 
 xmlns:cc="http://creativecommons.org/ns#" 
 xmlns:rdf="http://www.w3.org/1999/02/22-rdf-syntax-ns#" 
 xmlns:svg="http://www.w3.org/2000/svg" 
 xmlns="http://www.w3.org/2000/svg" 
 version="1.1" 
 width="1000" 
 height="1070" 
 id="svg2">
  <rect x="0" y="0" width="1000" height="1070" stroke-width="2" stroke="white" fill="white"/>
  <text x="12.5" y="30"
   font-family="Arial" font-size="25" fill="black" >
   Current time: 0 days, 6 hours, and 0.00 minutes, z = 0.00 &#956;m
  </text>
  <text x="12.5" y="57.5"
   font-family="Arial" font-size="23.75" fill="black" >
   195 agents
  </text>
 <g id="tissue" 
    transform="translate(0,1070) scale(1,-1)">
  <g id="ECM">
  </g>
  <g id="cells">
   <g id="cell0">
  <circle cx="423.957" cy="446.448" r="8.41271" stroke-width="0.5" stroke="black" fill="Red"/>
  <circle cx="423.957" cy="446.448" r="5.05167" stroke-width="0.5" stroke="Red" fill="Red"/>
   </g>
   <g id="cell1">
  <circle cx="423.544" cy="468.945" r="7.51976" stroke-width="0.5" stroke="black" fill="yellow"/>
  <circle cx="423.544" cy="468.945" r="4.57072" stroke-width="0.5" stroke="yellow" fill="yellow"/>
   </g>
   <g id="cell2">
  <circle cx="426.48" cy="480.921" r="8.41271" stroke-width="0.5" stroke="black" fill="blue"/>
  <circle cx="426.48" cy="480.921" r="5.05167" stroke-width="0.5" stroke="blue" fill="blue"/>
   </g>
   <g id="cell3">
  <circle cx="421.474" cy="494.763" r="7.67987" stroke-width="0.5" stroke="black" fill="Red"/>
  <circle cx="421.474" cy="494.763" r="4.66617" stroke-width="0.5" stroke="Red" fill="Red"/>
   </g>
   <g id="cell4">
  <circle cx="423.893" cy="506.995" r="8.41271" stroke-width="0.5" stroke="black" fill="Red"/>
  <circle cx="423.893" cy="506.995" r="5.05167" stroke-width="0.5" stroke="Red" fill="Red"/>
   </g>
   <g id="cell5">
  <circle cx="416.803" cy="530.94" r="7.61469" stroke-width="0.5" stroke="black" fill="blue"/>
  <circle cx="416.803" cy="530.94" r="4.62762" stroke-width="0.5" stroke="blue" fill="blue"/>
   </g>
   <g id="cell6">
  <circle cx="425.355" cy="540.918" r="8.41271" stroke-width="0.5" stroke="black" fill="yellow"/>
  <circle cx="425.355" cy="540.918" r="5.05167" stroke-width="0.5" stroke="yellow" fill="yellow"/>
   </g>
   <g id="cell7">
  <circle cx="437.687" cy="445.986" r="8.00101" stroke-width="0.5" stroke="black" fill="Red"/>
  <circle cx="437.687" cy="445.986" r="4.84939" stroke-width="0.5" stroke="Red" fill="Red"/>
   </g>
   <g id="cell8">
  <circle cx="431.77" cy="458.183" r="8.41271" stroke-width="0.5" stroke="black" fill="yellow"/>
  <circle cx="431.77" cy="458.183" r="5.05167" stroke-width="0.5" stroke="yellow" fill="yellow"/>
   </g>
   <g id="cell9">
  <circle cx="436.522" cy="470.147" r="8.41271" stroke-width="0.5" stroke="black" fill="Red"/>
  <circle cx="436.522" cy="470.147" r="5.05167" stroke-width="0.5" stroke="Red" fill="Red"/>
   </g>
   <g id="cell10">
  <circle cx="438.847" cy="483.492" r="8.41271" stroke-width="0.5" stroke="black" fill="Red"/>
  <circle cx="438.847" cy="483.492" r="5.05167" stroke-width="0.5" stroke="Red" fill="Red"/>
   </g>
   <g id="cell11">
  <circle cx="436.659" cy="503.012" r="8.41271" stroke-width="0.5" stroke="black" fill="Red"/>
  <circle cx="436.659" cy="503.012" r="5.05167" stroke-width="0.5" stroke="Red" fill="Red"/>
   </g>
   <g id="cell12">
  <circle cx="431.838" cy="517.436" r="7.87851" stroke-width="0.5" stroke="black" fill="Red"/>
  <circle cx="431.838" cy="517.436" r="4.78096" stroke-width="0.5" stroke="Red" fill="Red"/>
   </g>
   <g id="cell13">
  <circle cx="437.444" cy="535.509" r="8.41271" stroke-width="0.5" stroke="black" fill="Red"/>
  <circle cx="437.444" cy="535.509" r="5.05167" stroke-width="0.5" stroke="Red" fill="Red"/>
   </g>
   <g id="cell14">
  <circle cx="437.342" cy="549.533" r="8.41271" stroke-width="0.5" stroke="black" fill="Red"/>
  <circle cx="437.342" cy="549.533" r="5.05167" stroke-width="0.5" stroke="Red" fill="Red"/>
   </g>
   <g id="cell15">
  <circle cx="439.956" cy="562.849" r="8.41271" stroke-width="0.5" stroke="black" fill="blue"/>
  <circle cx="439.956" cy="562.849" r="5.05167" stroke-width="0.5" stroke="blue" fill="blue"/>
   </g>
   <g id="cell16">
  <circle cx="450.689" cy="426.369" r="7.52964" stroke-width="0.5" stroke="black" fill="Red"/>
  <circle cx="450.689" cy="426.369" r="4.60108" stroke-width="0.5" stroke="Red" fill="Red"/>
   </g>
   <g id="cell17">
  <circle cx="448.849" cy="442.438" r="7.21189" stroke-width="0.5" stroke="black" fill="blue"/>
  <circle cx="448.849" cy="442.438" r="4.37993" stroke-width="0.5" stroke="blue" fill="blue"/>
   </g>
   <g id="cell18">
  <circle cx="445.415" cy="456.82" r="8.41271" stroke-width="0.5" stroke="black" fill="Red"/>
  <circle cx="445.415" cy="456.82" r="5.05167" stroke-width="0.5" stroke="Red" fill="Red"/>
   </g>
   <g id="cell19">
  <circle cx="447.67" cy="469.639" r="8.41271" stroke-width="0.5" stroke="black" fill="blue"/>
  <circle cx="447.67" cy="469.639" r="5.05167" stroke-width="0.5" stroke="blue" fill="blue"/>
   </g>
   <g id="cell20">
  <circle cx="451.253" cy="481.146" r="8.41271" stroke-width="0.5" stroke="black" fill="Red"/>
  <circle cx="451.253" cy="481.146" r="5.05167" stroke-width="0.5" stroke="Red" fill="Red"/>
   </g>
   <g id="cell21">
  <circle cx="445.737" cy="494.282" r="8.41271" stroke-width="0.5" stroke="black" fill="Red"/>
  <circle cx="445.737" cy="494.282" r="5.05167" stroke-width="0.5" stroke="Red" fill="Red"/>
   </g>
   <g id="cell22">
  <circle cx="452.959" cy="504.284" r="8.41271" stroke-width="0.5" stroke="black" fill="Red"/>
  <circle cx="452.959" cy="504.284" r="5.05167" stroke-width="0.5" stroke="Red" fill="Red"/>
   </g>
   <g id="cell23">
  <circle cx="441.455" cy="524.85" r="8.41271" stroke-width="0.5" stroke="black" fill="Red"/>
  <circle cx="441.455" cy="524.85" r="5.05167" stroke-width="0.5" stroke="Red" fill="Red"/>
   </g>
   <g id="cell24">
  <circle cx="448.907" cy="541.087" r="8.41271" stroke-width="0.5" stroke="black" fill="Red"/>
  <circle cx="448.907" cy="541.087" r="5.05167" stroke-width="0.5" stroke="Red" fill="Red"/>
   </g>
   <g id="cell25">
  <circle cx="450.422" cy="555.733" r="8.41271" stroke-width="0.5" stroke="black" fill="Red"/>
  <circle cx="450.422" cy="555.733" r="5.05167" stroke-width="0.5" stroke="Red" fill="Red"/>
   </g>
   <g id="cell26">
  <circle cx="445.813" cy="572.491" r="6.71158" stroke-width="0.5" stroke="black" fill="Red"/>
  <circle cx="445.813" cy="572.491" r="4.03435" stroke-width="0.5" stroke="Red" fill="Red"/>
   </g>
   <g id="cell27">
  <circle cx="463.915" cy="406.723" r="8.41271" stroke-width="0.5" stroke="black" fill="Red"/>
  <circle cx="463.915" cy="406.723" r="5.05167" stroke-width="0.5" stroke="Red" fill="Red"/>
   </g>
   <g id="cell28">
  <circle cx="464.227" cy="421.167" r="8.41271" stroke-width="0.5" stroke="black" fill="Red"/>
  <circle cx="464.227" cy="421.167" r="5.05167" stroke-width="0.5" stroke="Red" fill="Red"/>
   </g>
   <g id="cell29">
  <circle cx="457.598" cy="448.221" r="7.63698" stroke-width="0.5" stroke="black" fill="Red"/>
  <circle cx="457.598" cy="448.221" r="4.64085" stroke-width="0.5" stroke="Red" fill="Red"/>
   </g>
   <g id="cell30">
  <circle cx="459.226" cy="459.902" r="8.41271" stroke-width="0.5" stroke="black" fill="Red"/>
  <circle cx="459.226" cy="459.902" r="5.05167" stroke-width="0.5" stroke="Red" fill="Red"/>
   </g>
   <g id="cell31">
  <circle cx="460.682" cy="471.182" r="8.41271" stroke-width="0.5" stroke="black" fill="Red"/>
  <circle cx="460.682" cy="471.182" r="5.05167" stroke-width="0.5" stroke="Red" fill="Red"/>
   </g>
   <g id="cell32">
  <circle cx="465.025" cy="482.14" r="8.41271" stroke-width="0.5" stroke="black" fill="Red"/>
  <circle cx="465.025" cy="482.14" r="5.05167" stroke-width="0.5" stroke="Red" fill="Red"/>
   </g>
   <g id="cell33">
  <circle cx="459.424" cy="492.018" r="8.41271" stroke-width="0.5" stroke="black" fill="blue"/>
  <circle cx="459.424" cy="492.018" r="5.05167" stroke-width="0.5" stroke="blue" fill="blue"/>
   </g>
   <g id="cell34">
  <circle cx="452.543" cy="519.462" r="5.66683" stroke-width="0.5" stroke="black" fill="Red"/>
  <circle cx="452.543" cy="519.462" r="3.44866" stroke-width="0.5" stroke="Red" fill="Red"/>
   </g>
   <g id="cell35">
  <circle cx="462.025" cy="535.749" r="7.21189" stroke-width="0.5" stroke="black" fill="blue"/>
  <circle cx="462.025" cy="535.749" r="4.37993" stroke-width="0.5" stroke="blue" fill="blue"/>
   </g>
   <g id="cell36">
  <circle cx="461.468" cy="547.89" r="8.41271" stroke-width="0.5" stroke="black" fill="Red"/>
  <circle cx="461.468" cy="547.89" r="5.05167" stroke-width="0.5" stroke="Red" fill="Red"/>
   </g>
   <g id="cell37">
  <circle cx="464.421" cy="560.271" r="8.41271" stroke-width="0.5" stroke="black" fill="Red"/>
  <circle cx="464.421" cy="560.271" r="5.05167" stroke-width="0.5" stroke="Red" fill="Red"/>
   </g>
   <g id="cell38">
  <circle cx="465.748" cy="574.017" r="8.41271" stroke-width="0.5" stroke="black" fill="yellow"/>
  <circle cx="465.748" cy="574.017" r="5.05167" stroke-width="0.5" stroke="yellow" fill="yellow"/>
   </g>
   <g id="cell39">
  <circle cx="465.069" cy="587.286" r="7.46878" stroke-width="0.5" stroke="black" fill="blue"/>
  <circle cx="465.069" cy="587.286" r="4.53982" stroke-width="0.5" stroke="blue" fill="blue"/>
   </g>
   <g id="cell40">
  <circle cx="478.329" cy="399.984" r="8.41271" stroke-width="0.5" stroke="black" fill="blue"/>
  <circle cx="478.329" cy="399.984" r="5.05167" stroke-width="0.5" stroke="blue" fill="blue"/>
   </g>
   <g id="cell41">
  <circle cx="476.913" cy="413.996" r="8.41271" stroke-width="0.5" stroke="black" fill="yellow"/>
  <circle cx="476.913" cy="413.996" r="5.05167" stroke-width="0.5" stroke="yellow" fill="yellow"/>
   </g>
   <g id="cell42">
  <circle cx="479.692" cy="440.564" r="7.0545" stroke-width="0.5" stroke="black" fill="Red"/>
  <circle cx="479.692" cy="440.564" r="4.27772" stroke-width="0.5" stroke="Red" fill="Red"/>
   </g>
   <g id="cell43">
  <circle cx="470.327" cy="455.399" r="8.41271" stroke-width="0.5" stroke="black" fill="Red"/>
  <circle cx="470.327" cy="455.399" r="5.05167" stroke-width="0.5" stroke="Red" fill="Red"/>
   </g>
   <g id="cell44">
  <circle cx="472.783" cy="468.378" r="8.41271" stroke-width="0.5" stroke="black" fill="blue"/>
  <circle cx="472.783" cy="468.378" r="5.05167" stroke-width="0.5" stroke="blue" fill="blue"/>
   </g>
   <g id="cell45">
  <circle cx="475.333" cy="478.984" r="8.41271" stroke-width="0.5" stroke="black" fill="Red"/>
  <circle cx="475.333" cy="478.984" r="5.05167" stroke-width="0.5" stroke="Red" fill="Red"/>
   </g>
   <g id="cell46">
  <circle cx="472.264" cy="493.474" r="8.41271" stroke-width="0.5" stroke="black" fill="Red"/>
  <circle cx="472.264" cy="493.474" r="5.05167" stroke-width="0.5" stroke="Red" fill="Red"/>
   </g>
   <g id="cell47">
  <circle cx="465.905" cy="503.988" r="7.98892" stroke-width="0.5" stroke="black" fill="Red"/>
  <circle cx="465.905" cy="503.988" r="4.84272" stroke-width="0.5" stroke="Red" fill="Red"/>
   </g>
   <g id="cell48">
  <circle cx="476.537" cy="520.707" r="7.77763" stroke-width="0.5" stroke="black" fill="blue"/>
  <circle cx="476.537" cy="520.707" r="4.7232" stroke-width="0.5" stroke="blue" fill="blue"/>
   </g>
   <g id="cell49">
  <circle cx="472.659" cy="542.814" r="8.41271" stroke-width="0.5" stroke="black" fill="Red"/>
  <circle cx="472.659" cy="542.814" r="5.05167" stroke-width="0.5" stroke="Red" fill="Red"/>
   </g>
   <g id="cell50">
  <circle cx="482.455" cy="557.173" r="7.11815" stroke-width="0.5" stroke="black" fill="blue"/>
  <circle cx="482.455" cy="557.173" r="4.31954" stroke-width="0.5" stroke="blue" fill="blue"/>
   </g>
   <g id="cell51">
  <circle cx="477.054" cy="567.731" r="8.41271" stroke-width="0.5" stroke="black" fill="Red"/>
  <circle cx="477.054" cy="567.731" r="5.05167" stroke-width="0.5" stroke="Red" fill="Red"/>
   </g>
   <g id="cell52">
  <circle cx="477.781" cy="583.754" r="8.41271" stroke-width="0.5" stroke="black" fill="yellow"/>
  <circle cx="477.781" cy="583.754" r="5.05167" stroke-width="0.5" stroke="yellow" fill="yellow"/>
   </g>
   <g id="cell53">
  <circle cx="490.757" cy="406.187" r="8.41271" stroke-width="0.5" stroke="black" fill="yellow"/>
  <circle cx="490.757" cy="406.187" r="5.05167" stroke-width="0.5" stroke="yellow" fill="yellow"/>
   </g>
   <g id="cell54">
  <circle cx="478.912" cy="427.04" r="8.41271" stroke-width="0.5" stroke="black" fill="Red"/>
  <circle cx="478.912" cy="427.04" r="5.05167" stroke-width="0.5" stroke="Red" fill="Red"/>
   </g>
   <g id="cell55">
  <circle cx="480.51" cy="450.5" r="7.63698" stroke-width="0.5" stroke="black" fill="Red"/>
  <circle cx="480.51" cy="450.5" r="4.64085" stroke-width="0.5" stroke="Red" fill="Red"/>
   </g>
   <g id="cell56">
  <circle cx="492.79" cy="458.347" r="7.84675" stroke-width="0.5" stroke="black" fill="blue"/>
  <circle cx="492.79" cy="458.347" r="4.7629" stroke-width="0.5" stroke="blue" fill="blue"/>
   </g>
   <g id="cell57">
  <circle cx="486.974" cy="472.285" r="8.41271" stroke-width="0.5" stroke="black" fill="Red"/>
  <circle cx="486.974" cy="472.285" r="5.05167" stroke-width="0.5" stroke="Red" fill="Red"/>
   </g>
   <g id="cell58">
  <circle cx="483.416" cy="486.737" r="8.41271" stroke-width="0.5" stroke="black" fill="Red"/>
  <circle cx="483.416" cy="486.737" r="5.05167" stroke-width="0.5" stroke="Red" fill="Red"/>
   </g>
   <g id="cell59">
  <circle cx="484.455" cy="498.458" r="7.1497" stroke-width="0.5" stroke="black" fill="blue"/>
  <circle cx="484.455" cy="498.458" r="4.34001" stroke-width="0.5" stroke="blue" fill="blue"/>
   </g>
   <g id="cell60">
  <circle cx="488.617" cy="513.792" r="8.41271" stroke-width="0.5" stroke="black" fill="Red"/>
  <circle cx="488.617" cy="513.792" r="5.05167" stroke-width="0.5" stroke="Red" fill="Red"/>
   </g>
   <g id="cell61">
  <circle cx="484.526" cy="531.656" r="8.41271" stroke-width="0.5" stroke="black" fill="Red"/>
  <circle cx="484.526" cy="531.656" r="5.05167" stroke-width="0.5" stroke="Red" fill="Red"/>
   </g>
   <g id="cell62">
  <circle cx="484.609" cy="545.82" r="8.41271" stroke-width="0.5" stroke="black" fill="Red"/>
  <circle cx="484.609" cy="545.82" r="5.05167" stroke-width="0.5" stroke="Red" fill="Red"/>
   </g>
   <g id="cell63">
  <circle cx="491.865" cy="563.395" r="8.41271" stroke-width="0.5" stroke="black" fill="Red"/>
  <circle cx="491.865" cy="563.395" r="5.05167" stroke-width="0.5" stroke="Red" fill="Red"/>
   </g>
   <g id="cell64">
  <circle cx="488.047" cy="575.175" r="8.41271" stroke-width="0.5" stroke="black" fill="Red"/>
  <circle cx="488.047" cy="575.175" r="5.05167" stroke-width="0.5" stroke="Red" fill="Red"/>
   </g>
   <g id="cell65">
  <circle cx="487.844" cy="596.592" r="6.95901" stroke-width="0.5" stroke="black" fill="Red"/>
  <circle cx="487.844" cy="596.592" r="4.21341" stroke-width="0.5" stroke="Red" fill="Red"/>
   </g>
   <g id="cell66">
  <circle cx="502.529" cy="413.438" r="8.41271" stroke-width="0.5" stroke="black" fill="blue"/>
  <circle cx="502.529" cy="413.438" r="5.05167" stroke-width="0.5" stroke="blue" fill="blue"/>
   </g>
   <g id="cell67">
  <circle cx="489.179" cy="419.766" r="8.41271" stroke-width="0.5" stroke="black" fill="Red"/>
  <circle cx="489.179" cy="419.766" r="5.05167" stroke-width="0.5" stroke="Red" fill="Red"/>
   </g>
   <g id="cell68">
  <circle cx="499.446" cy="427.483" r="8.41271" stroke-width="0.5" stroke="black" fill="Red"/>
  <circle cx="499.446" cy="427.483" r="5.05167" stroke-width="0.5" stroke="Red" fill="Red"/>
   </g>
   <g id="cell69">
  <circle cx="492.564" cy="445.716" r="8.41271" stroke-width="0.5" stroke="black" fill="Red"/>
  <circle cx="492.564" cy="445.716" r="5.05167" stroke-width="0.5" stroke="Red" fill="Red"/>
   </g>
   <g id="cell70">
  <circle cx="498.831" cy="467.372" r="8.41271" stroke-width="0.5" stroke="black" fill="Red"/>
  <circle cx="498.831" cy="467.372" r="5.05167" stroke-width="0.5" stroke="Red" fill="Red"/>
   </g>
   <g id="cell71">
  <circle cx="493.873" cy="481.092" r="8.41271" stroke-width="0.5" stroke="black" fill="Red"/>
  <circle cx="493.873" cy="481.092" r="5.05167" stroke-width="0.5" stroke="Red" fill="Red"/>
   </g>
   <g id="cell72">
  <circle cx="496.941" cy="493.371" r="8.41271" stroke-width="0.5" stroke="black" fill="Red"/>
  <circle cx="496.941" cy="493.371" r="5.05167" stroke-width="0.5" stroke="Red" fill="Red"/>
   </g>
   <g id="cell73">
  <circle cx="502.156" cy="510.783" r="8.41271" stroke-width="0.5" stroke="black" fill="Red"/>
  <circle cx="502.156" cy="510.783" r="5.05167" stroke-width="0.5" stroke="Red" fill="Red"/>
   </g>
   <g id="cell74">
  <circle cx="496.042" cy="524.022" r="8.41271" stroke-width="0.5" stroke="black" fill="Red"/>
  <circle cx="496.042" cy="524.022" r="5.05167" stroke-width="0.5" stroke="Red" fill="Red"/>
   </g>
   <g id="cell75">
  <circle cx="496.993" cy="537.462" r="8.41271" stroke-width="0.5" stroke="black" fill="blue"/>
  <circle cx="496.993" cy="537.462" r="5.05167" stroke-width="0.5" stroke="blue" fill="blue"/>
   </g>
   <g id="cell76">
  <circle cx="495.162" cy="552.066" r="8.41271" stroke-width="0.5" stroke="black" fill="Red"/>
  <circle cx="495.162" cy="552.066" r="5.05167" stroke-width="0.5" stroke="Red" fill="Red"/>
   </g>
   <g id="cell77">
  <circle cx="501.303" cy="569.121" r="7.75912" stroke-width="0.5" stroke="black" fill="Red"/>
  <circle cx="501.303" cy="569.121" r="4.71248" stroke-width="0.5" stroke="Red" fill="Red"/>
   </g>
   <g id="cell78">
  <circle cx="501.856" cy="580.704" r="8.41271" stroke-width="0.5" stroke="black" fill="Red"/>
  <circle cx="501.856" cy="580.704" r="5.05167" stroke-width="0.5" stroke="Red" fill="Red"/>
   </g>
   <g id="cell79">
  <circle cx="502.402" cy="594.424" r="8.41271" stroke-width="0.5" stroke="black" fill="blue"/>
  <circle cx="502.402" cy="594.424" r="5.05167" stroke-width="0.5" stroke="blue" fill="blue"/>
   </g>
   <g id="cell80">
  <circle cx="516.224" cy="411.514" r="7.33129" stroke-width="0.5" stroke="black" fill="yellow"/>
  <circle cx="516.224" cy="411.514" r="4.45516" stroke-width="0.5" stroke="yellow" fill="yellow"/>
   </g>
   <g id="cell81">
  <circle cx="513.838" cy="433.66" r="8.41271" stroke-width="0.5" stroke="black" fill="Red"/>
  <circle cx="513.838" cy="433.66" r="5.05167" stroke-width="0.5" stroke="Red" fill="Red"/>
   </g>
   <g id="cell82">
  <circle cx="509.5" cy="444.51" r="7.02257" stroke-width="0.5" stroke="black" fill="blue"/>
  <circle cx="509.5" cy="444.51" r="4.25644" stroke-width="0.5" stroke="blue" fill="blue"/>
   </g>
   <g id="cell83">
  <circle cx="503.81" cy="453.528" r="8.41271" stroke-width="0.5" stroke="black" fill="Red"/>
  <circle cx="503.81" cy="453.528" r="5.05167" stroke-width="0.5" stroke="Red" fill="Red"/>
   </g>
   <g id="cell84">
  <circle cx="508.902" cy="463.987" r="6.75639" stroke-width="0.5" stroke="black" fill="blue"/>
  <circle cx="508.902" cy="463.987" r="4.06813" stroke-width="0.5" stroke="blue" fill="blue"/>
   </g>
   <g id="cell85">
  <circle cx="506.002" cy="476.645" r="8.41271" stroke-width="0.5" stroke="black" fill="Red"/>
  <circle cx="506.002" cy="476.645" r="5.05167" stroke-width="0.5" stroke="Red" fill="Red"/>
   </g>
   <g id="cell86">
  <circle cx="508.242" cy="499.592" r="8.41271" stroke-width="0.5" stroke="black" fill="Red"/>
  <circle cx="508.242" cy="499.592" r="5.05167" stroke-width="0.5" stroke="Red" fill="Red"/>
   </g>
   <g id="cell87">
  <circle cx="513.501" cy="511.123" r="7.81315" stroke-width="0.5" stroke="black" fill="Red"/>
  <circle cx="513.501" cy="511.123" r="4.74367" stroke-width="0.5" stroke="Red" fill="Red"/>
   </g>
   <g id="cell88">
  <circle cx="508.277" cy="533.754" r="8.41271" stroke-width="0.5" stroke="black" fill="Red"/>
  <circle cx="508.277" cy="533.754" r="5.05167" stroke-width="0.5" stroke="Red" fill="Red"/>
   </g>
   <g id="cell89">
  <circle cx="507.596" cy="547.201" r="8.41271" stroke-width="0.5" stroke="black" fill="Red"/>
  <circle cx="507.596" cy="547.201" r="5.05167" stroke-width="0.5" stroke="Red" fill="Red"/>
   </g>
   <g id="cell90">
  <circle cx="516.657" cy="557.724" r="8.41271" stroke-width="0.5" stroke="black" fill="Red"/>
  <circle cx="516.657" cy="557.724" r="5.05167" stroke-width="0.5" stroke="Red" fill="Red"/>
   </g>
   <g id="cell91">
  <circle cx="514.353" cy="571.584" r="8.41271" stroke-width="0.5" stroke="black" fill="yellow"/>
  <circle cx="514.353" cy="571.584" r="5.05167" stroke-width="0.5" stroke="yellow" fill="yellow"/>
   </g>
   <g id="cell92">
  <circle cx="513.216" cy="586.862" r="8.41271" stroke-width="0.5" stroke="black" fill="yellow"/>
  <circle cx="513.216" cy="586.862" r="5.05167" stroke-width="0.5" stroke="yellow" fill="yellow"/>
   </g>
   <g id="cell93">
  <circle cx="530.642" cy="412.511" r="8.41271" stroke-width="0.5" stroke="black" fill="blue"/>
  <circle cx="530.642" cy="412.511" r="5.05167" stroke-width="0.5" stroke="blue" fill="blue"/>
   </g>
   <g id="cell94">
  <circle cx="535.577" cy="425.163" r="7.83019" stroke-width="0.5" stroke="black" fill="Red"/>
  <circle cx="535.577" cy="425.163" r="4.75343" stroke-width="0.5" stroke="Red" fill="Red"/>
   </g>
   <g id="cell95">
  <circle cx="527.718" cy="435.551" r="8.41271" stroke-width="0.5" stroke="black" fill="Red"/>
  <circle cx="527.718" cy="435.551" r="5.05167" stroke-width="0.5" stroke="Red" fill="Red"/>
   </g>
   <g id="cell96">
  <circle cx="520.319" cy="445.898" r="7.38432" stroke-width="0.5" stroke="black" fill="blue"/>
  <circle cx="520.319" cy="445.898" r="4.51561" stroke-width="0.5" stroke="blue" fill="blue"/>
   </g>
   <g id="cell97">
  <circle cx="526.376" cy="461.227" r="8.41271" stroke-width="0.5" stroke="black" fill="Red"/>
  <circle cx="526.376" cy="461.227" r="5.05167" stroke-width="0.5" stroke="Red" fill="Red"/>
   </g>
   <g id="cell98">
  <circle cx="522.471" cy="493.207" r="7.05781" stroke-width="0.5" stroke="black" fill="blue"/>
  <circle cx="522.471" cy="493.207" r="4.32642" stroke-width="0.5" stroke="blue" fill="blue"/>
   </g>
   <g id="cell99">
  <circle cx="533.87" cy="497.896" r="8.41271" stroke-width="0.5" stroke="black" fill="Red"/>
  <circle cx="533.87" cy="497.896" r="5.05167" stroke-width="0.5" stroke="Red" fill="Red"/>
   </g>
   <g id="cell100">
  <circle cx="521.402" cy="503.336" r="7.21189" stroke-width="0.5" stroke="black" fill="blue"/>
  <circle cx="521.402" cy="503.336" r="4.37993" stroke-width="0.5" stroke="blue" fill="blue"/>
   </g>
   <g id="cell101">
  <circle cx="519.866" cy="527.296" r="8.41271" stroke-width="0.5" stroke="black" fill="Red"/>
  <circle cx="519.866" cy="527.296" r="5.05167" stroke-width="0.5" stroke="Red" fill="Red"/>
   </g>
   <g id="cell102">
  <circle cx="530.099" cy="535.579" r="7.95045" stroke-width="0.5" stroke="black" fill="Red"/>
  <circle cx="530.099" cy="535.579" r="4.82139" stroke-width="0.5" stroke="Red" fill="Red"/>
   </g>
   <g id="cell103">
  <circle cx="527.352" cy="550.587" r="8.41271" stroke-width="0.5" stroke="black" fill="Red"/>
  <circle cx="527.352" cy="550.587" r="5.05167" stroke-width="0.5" stroke="Red" fill="Red"/>
   </g>
   <g id="cell104">
  <circle cx="527.788" cy="566.07" r="8.41271" stroke-width="0.5" stroke="black" fill="yellow"/>
  <circle cx="527.788" cy="566.07" r="5.05167" stroke-width="0.5" stroke="yellow" fill="yellow"/>
   </g>
   <g id="cell105">
  <circle cx="524.784" cy="580.63" r="8.41271" stroke-width="0.5" stroke="black" fill="blue"/>
  <circle cx="524.784" cy="580.63" r="5.05167" stroke-width="0.5" stroke="blue" fill="blue"/>
   </g>
   <g id="cell106">
  <circle cx="543.86" cy="414.122" r="7.24243" stroke-width="0.5" stroke="black" fill="yellow"/>
  <circle cx="543.86" cy="414.122" r="4.39934" stroke-width="0.5" stroke="yellow" fill="yellow"/>
   </g>
   <g id="cell107">
  <circle cx="540.955" cy="438.907" r="8.41271" stroke-width="0.5" stroke="black" fill="Red"/>
  <circle cx="540.955" cy="438.907" r="5.05167" stroke-width="0.5" stroke="Red" fill="Red"/>
   </g>
   <g id="cell108">
  <circle cx="532.477" cy="448.597" r="8.41271" stroke-width="0.5" stroke="black" fill="Red"/>
  <circle cx="532.477" cy="448.597" r="5.05167" stroke-width="0.5" stroke="Red" fill="Red"/>
   </g>
   <g id="cell109">
  <circle cx="548" cy="466.103" r="8.41271" stroke-width="0.5" stroke="black" fill="Red"/>
  <circle cx="548" cy="466.103" r="5.05167" stroke-width="0.5" stroke="Red" fill="Red"/>
   </g>
   <g id="cell110">
  <circle cx="528.323" cy="484.235" r="8.41271" stroke-width="0.5" stroke="black" fill="Red"/>
  <circle cx="528.323" cy="484.235" r="5.05167" stroke-width="0.5" stroke="Red" fill="Red"/>
   </g>
   <g id="cell111">
  <circle cx="539.481" cy="486.068" r="8.41271" stroke-width="0.5" stroke="black" fill="Red"/>
  <circle cx="539.481" cy="486.068" r="5.05167" stroke-width="0.5" stroke="Red" fill="Red"/>
   </g>
   <g id="cell112">
  <circle cx="542.207" cy="507.895" r="8.41271" stroke-width="0.5" stroke="black" fill="Red"/>
  <circle cx="542.207" cy="507.895" r="5.05167" stroke-width="0.5" stroke="Red" fill="Red"/>
   </g>
   <g id="cell113">
  <circle cx="530.878" cy="511.15" r="8.41271" stroke-width="0.5" stroke="black" fill="Red"/>
  <circle cx="530.878" cy="511.15" r="5.05167" stroke-width="0.5" stroke="Red" fill="Red"/>
   </g>
   <g id="cell114">
  <circle cx="532.645" cy="524.139" r="8.41271" stroke-width="0.5" stroke="black" fill="Red"/>
  <circle cx="532.645" cy="524.139" r="5.05167" stroke-width="0.5" stroke="Red" fill="Red"/>
   </g>
   <g id="cell115">
  <circle cx="538.106" cy="543.855" r="8.41271" stroke-width="0.5" stroke="black" fill="Red"/>
  <circle cx="538.106" cy="543.855" r="5.05167" stroke-width="0.5" stroke="Red" fill="Red"/>
   </g>
   <g id="cell116">
  <circle cx="545.173" cy="563.273" r="6.80881" stroke-width="0.5" stroke="black" fill="Red"/>
  <circle cx="545.173" cy="563.273" r="4.10709" stroke-width="0.5" stroke="Red" fill="Red"/>
   </g>
   <g id="cell117">
  <circle cx="539.325" cy="573.48" r="8.41271" stroke-width="0.5" stroke="black" fill="yellow"/>
  <circle cx="539.325" cy="573.48" r="5.05167" stroke-width="0.5" stroke="yellow" fill="yellow"/>
   </g>
   <g id="cell118">
  <circle cx="549.565" cy="426.672" r="8.41271" stroke-width="0.5" stroke="black" fill="yellow"/>
  <circle cx="549.565" cy="426.672" r="5.05167" stroke-width="0.5" stroke="yellow" fill="yellow"/>
   </g>
   <g id="cell119">
  <circle cx="555.408" cy="439.376" r="8.41271" stroke-width="0.5" stroke="black" fill="yellow"/>
  <circle cx="555.408" cy="439.376" r="5.05167" stroke-width="0.5" stroke="yellow" fill="yellow"/>
   </g>
   <g id="cell120">
  <circle cx="554.616" cy="457.497" r="7.81315" stroke-width="0.5" stroke="black" fill="Red"/>
  <circle cx="554.616" cy="457.497" r="4.74367" stroke-width="0.5" stroke="Red" fill="Red"/>
   </g>
   <g id="cell121">
  <circle cx="559.885" cy="472.682" r="8.41271" stroke-width="0.5" stroke="black" fill="Red"/>
  <circle cx="559.885" cy="472.682" r="5.05167" stroke-width="0.5" stroke="Red" fill="Red"/>
   </g>
   <g id="cell122">
  <circle cx="548.213" cy="479.728" r="8.41271" stroke-width="0.5" stroke="black" fill="blue"/>
  <circle cx="548.213" cy="479.728" r="5.05167" stroke-width="0.5" stroke="blue" fill="blue"/>
   </g>
   <g id="cell123">
  <circle cx="548.752" cy="496.029" r="8.41271" stroke-width="0.5" stroke="black" fill="Red"/>
  <circle cx="548.752" cy="496.029" r="5.05167" stroke-width="0.5" stroke="Red" fill="Red"/>
   </g>
   <g id="cell124">
  <circle cx="554.142" cy="510.515" r="8.41271" stroke-width="0.5" stroke="black" fill="Red"/>
  <circle cx="554.142" cy="510.515" r="5.05167" stroke-width="0.5" stroke="Red" fill="Red"/>
   </g>
   <g id="cell125">
  <circle cx="544.037" cy="519.853" r="7.83019" stroke-width="0.5" stroke="black" fill="blue"/>
  <circle cx="544.037" cy="519.853" r="4.75343" stroke-width="0.5" stroke="blue" fill="blue"/>
   </g>
   <g id="cell126">
  <circle cx="544.434" cy="532.403" r="8.41271" stroke-width="0.5" stroke="black" fill="Red"/>
  <circle cx="544.434" cy="532.403" r="5.05167" stroke-width="0.5" stroke="Red" fill="Red"/>
   </g>
   <g id="cell127">
  <circle cx="547.452" cy="550.589" r="8.41271" stroke-width="0.5" stroke="black" fill="Red"/>
  <circle cx="547.452" cy="550.589" r="5.05167" stroke-width="0.5" stroke="Red" fill="Red"/>
   </g>
   <g id="cell128">
  <circle cx="558.311" cy="561.539" r="8.41271" stroke-width="0.5" stroke="black" fill="blue"/>
  <circle cx="558.311" cy="561.539" r="5.05167" stroke-width="0.5" stroke="blue" fill="blue"/>
   </g>
   <g id="cell129">
  <circle cx="577.246" cy="455.146" r="7.79564" stroke-width="0.5" stroke="black" fill="Red"/>
  <circle cx="577.246" cy="455.146" r="4.73359" stroke-width="0.5" stroke="Red" fill="Red"/>
   </g>
   <g id="cell130">
  <circle cx="565.202" cy="461.651" r="8.41271" stroke-width="0.5" stroke="black" fill="Red"/>
  <circle cx="565.202" cy="461.651" r="5.05167" stroke-width="0.5" stroke="Red" fill="Red"/>
   </g>
   <g id="cell131">
  <circle cx="571.418" cy="479.578" r="8.41271" stroke-width="0.5" stroke="black" fill="Red"/>
  <circle cx="571.418" cy="479.578" r="5.05167" stroke-width="0.5" stroke="Red" fill="Red"/>
   </g>
   <g id="cell132">
  <circle cx="559.499" cy="487.075" r="8.41271" stroke-width="0.5" stroke="black" fill="Red"/>
  <circle cx="559.499" cy="487.075" r="5.05167" stroke-width="0.5" stroke="Red" fill="Red"/>
   </g>
   <g id="cell133">
  <circle cx="562.755" cy="501.203" r="8.41271" stroke-width="0.5" stroke="black" fill="blue"/>
  <circle cx="562.755" cy="501.203" r="5.05167" stroke-width="0.5" stroke="blue" fill="blue"/>
   </g>
   <g id="cell134">
  <circle cx="566.474" cy="515.883" r="8.41271" stroke-width="0.5" stroke="black" fill="Red"/>
  <circle cx="566.474" cy="515.883" r="5.05167" stroke-width="0.5" stroke="Red" fill="Red"/>
   </g>
   <g id="cell135">
  <circle cx="568.897" cy="529.528" r="8.41271" stroke-width="0.5" stroke="black" fill="Red"/>
  <circle cx="568.897" cy="529.528" r="5.05167" stroke-width="0.5" stroke="Red" fill="Red"/>
   </g>
   <g id="cell136">
  <circle cx="556.034" cy="538.042" r="8.41271" stroke-width="0.5" stroke="black" fill="Red"/>
  <circle cx="556.034" cy="538.042" r="5.05167" stroke-width="0.5" stroke="Red" fill="Red"/>
   </g>
   <g id="cell137">
  <circle cx="568.888" cy="555.482" r="6.92764" stroke-width="0.5" stroke="black" fill="blue"/>
  <circle cx="568.888" cy="555.482" r="4.1918" stroke-width="0.5" stroke="blue" fill="blue"/>
   </g>
   <g id="cell138">
  <circle cx="575.021" cy="467.983" r="8.41271" stroke-width="0.5" stroke="black" fill="blue"/>
  <circle cx="575.021" cy="467.983" r="5.05167" stroke-width="0.5" stroke="blue" fill="blue"/>
   </g>
   <g id="cell139">
  <circle cx="583.553" cy="481.836" r="8.41271" stroke-width="0.5" stroke="black" fill="Red"/>
  <circle cx="583.553" cy="481.836" r="5.05167" stroke-width="0.5" stroke="Red" fill="Red"/>
   </g>
   <g id="cell140">
  <circle cx="572.09" cy="492.096" r="8.00101" stroke-width="0.5" stroke="black" fill="Red"/>
  <circle cx="572.09" cy="492.096" r="4.84939" stroke-width="0.5" stroke="Red" fill="Red"/>
   </g>
   <g id="cell141">
  <circle cx="576.558" cy="505.931" r="8.41271" stroke-width="0.5" stroke="black" fill="Red"/>
  <circle cx="576.558" cy="505.931" r="5.05167" stroke-width="0.5" stroke="Red" fill="Red"/>
   </g>
   <g id="cell142">
  <circle cx="579.815" cy="520.573" r="7.67987" stroke-width="0.5" stroke="black" fill="blue"/>
  <circle cx="579.815" cy="520.573" r="4.66617" stroke-width="0.5" stroke="blue" fill="blue"/>
   </g>
   <g id="cell143">
  <circle cx="570.082" cy="542.583" r="8.41271" stroke-width="0.5" stroke="black" fill="blue"/>
  <circle cx="570.082" cy="542.583" r="5.05167" stroke-width="0.5" stroke="blue" fill="blue"/>
   </g>
   <g id="cell144">
  <circle cx="431.053" cy="434.863" r="7.06363" stroke-width="0.5" stroke="black" fill="blue"/>
  <circle cx="431.053" cy="434.863" r="4.32247" stroke-width="0.5" stroke="blue" fill="blue"/>
   </g>
   <g id="cell145">
  <circle cx="582.89" cy="494.852" r="6.38842" stroke-width="0.5" stroke="black" fill="Red"/>
  <circle cx="582.89" cy="494.852" r="3.87572" stroke-width="0.5" stroke="Red" fill="Red"/>
   </g>
   <g id="cell146">
  <circle cx="477.51" cy="507.762" r="7.43017" stroke-width="0.5" stroke="black" fill="Red"/>
  <circle cx="477.51" cy="507.762" r="4.54248" stroke-width="0.5" stroke="Red" fill="Red"/>
   </g>
   <g id="cell147">
  <circle cx="539.385" cy="457.697" r="7.71823" stroke-width="0.5" stroke="black" fill="blue"/>
  <circle cx="539.385" cy="457.697" r="4.70681" stroke-width="0.5" stroke="blue" fill="blue"/>
   </g>
   <g id="cell148">
  <circle cx="519.045" cy="541.524" r="7.95045" stroke-width="0.5" stroke="black" fill="blue"/>
  <circle cx="519.045" cy="541.524" r="4.82139" stroke-width="0.5" stroke="blue" fill="blue"/>
   </g>
   <g id="cell149">
  <circle cx="535.86" cy="471.356" r="7.71823" stroke-width="0.5" stroke="black" fill="Red"/>
  <circle cx="535.86" cy="471.356" r="4.70681" stroke-width="0.5" stroke="Red" fill="Red"/>
   </g>
   <g id="cell150">
  <circle cx="444.768" cy="513.306" r="7.87851" stroke-width="0.5" stroke="black" fill="blue"/>
  <circle cx="444.768" cy="513.306" r="4.78096" stroke-width="0.5" stroke="blue" fill="blue"/>
   </g>
   <g id="cell151">
  <circle cx="451.048" cy="414.891" r="7.87851" stroke-width="0.5" stroke="black" fill="blue"/>
  <circle cx="451.048" cy="414.891" r="4.78096" stroke-width="0.5" stroke="blue" fill="blue"/>
   </g>
   <g id="cell152">
  <circle cx="482.335" cy="462.251" r="7.84675" stroke-width="0.5" stroke="black" fill="Red"/>
  <circle cx="482.335" cy="462.251" r="4.7629" stroke-width="0.5" stroke="Red" fill="Red"/>
   </g>
   <g id="cell153">
  <circle cx="522.627" cy="423.379" r="7.83019" stroke-width="0.5" stroke="black" fill="Red"/>
  <circle cx="522.627" cy="423.379" r="4.75343" stroke-width="0.5" stroke="Red" fill="Red"/>
   </g>
   <g id="cell154">
  <circle cx="555.86" cy="523.842" r="7.83019" stroke-width="0.5" stroke="black" fill="Red"/>
  <circle cx="555.86" cy="523.842" r="4.75343" stroke-width="0.5" stroke="Red" fill="Red"/>
   </g>
   <g id="cell155">
  <circle cx="438.903" cy="422.188" r="7.52964" stroke-width="0.5" stroke="black" fill="Red"/>
  <circle cx="438.903" cy="422.188" r="4.60108" stroke-width="0.5" stroke="Red" fill="Red"/>
   </g>
   <g id="cell156">
  <circle cx="508.645" cy="522.343" r="7.81315" stroke-width="0.5" stroke="black" fill="blue"/>
  <circle cx="508.645" cy="522.343" r="4.74367" stroke-width="0.5" stroke="blue" fill="blue"/>
   </g>
   <g id="cell157">
  <circle cx="547.024" cy="449.575" r="7.81315" stroke-width="0.5" stroke="black" fill="blue"/>
  <circle cx="547.024" cy="449.575" r="4.74367" stroke-width="0.5" stroke="blue" fill="blue"/>
   </g>
   <g id="cell158">
  <circle cx="559.176" cy="448.788" r="5.96908" stroke-width="0.5" stroke="black" fill="Red"/>
  <circle cx="559.176" cy="448.788" r="3.67917" stroke-width="0.5" stroke="Red" fill="Red"/>
   </g>
   <g id="cell159">
  <circle cx="471.201" cy="530.434" r="7.77763" stroke-width="0.5" stroke="black" fill="Red"/>
  <circle cx="471.201" cy="530.434" r="4.7232" stroke-width="0.5" stroke="Red" fill="Red"/>
   </g>
   <g id="cell160">
  <circle cx="506.481" cy="559.757" r="7.75912" stroke-width="0.5" stroke="black" fill="blue"/>
  <circle cx="506.481" cy="559.757" r="4.71248" stroke-width="0.5" stroke="blue" fill="blue"/>
   </g>
   <g id="cell161">
  <circle cx="516.708" cy="480.983" r="6.96845" stroke-width="0.5" stroke="black" fill="Red"/>
  <circle cx="516.708" cy="480.983" r="4.27264" stroke-width="0.5" stroke="Red" fill="Red"/>
   </g>
   <g id="cell162">
  <circle cx="581.015" cy="533.145" r="7.67987" stroke-width="0.5" stroke="black" fill="Red"/>
  <circle cx="581.015" cy="533.145" r="4.66617" stroke-width="0.5" stroke="Red" fill="Red"/>
   </g>
   <g id="cell163">
  <circle cx="467.532" cy="515.368" r="7.43017" stroke-width="0.5" stroke="black" fill="Red"/>
  <circle cx="467.532" cy="515.368" r="4.54248" stroke-width="0.5" stroke="Red" fill="Red"/>
   </g>
   <g id="cell164">
  <circle cx="432.257" cy="492.692" r="7.67987" stroke-width="0.5" stroke="black" fill="Red"/>
  <circle cx="432.257" cy="492.692" r="4.66617" stroke-width="0.5" stroke="Red" fill="Red"/>
   </g>
   <g id="cell165">
  <circle cx="468.316" cy="442.954" r="7.63698" stroke-width="0.5" stroke="black" fill="Red"/>
  <circle cx="468.316" cy="442.954" r="4.64085" stroke-width="0.5" stroke="Red" fill="Red"/>
   </g>
   <g id="cell166">
  <circle cx="488.76" cy="433.645" r="7.63698" stroke-width="0.5" stroke="black" fill="blue"/>
  <circle cx="488.76" cy="433.645" r="4.64085" stroke-width="0.5" stroke="blue" fill="blue"/>
   </g>
   <g id="cell167">
  <circle cx="516.165" cy="455.219" r="7.38432" stroke-width="0.5" stroke="black" fill="Red"/>
  <circle cx="516.165" cy="455.219" r="4.51561" stroke-width="0.5" stroke="Red" fill="Red"/>
   </g>
   <g id="cell168">
  <circle cx="427.754" cy="527.952" r="6.97743" stroke-width="0.5" stroke="black" fill="yellow"/>
  <circle cx="427.754" cy="527.952" r="4.27899" stroke-width="0.5" stroke="yellow" fill="yellow"/>
   </g>
   <g id="cell169">
  <circle cx="417.984" cy="458.961" r="7.51976" stroke-width="0.5" stroke="black" fill="blue"/>
  <circle cx="417.984" cy="458.961" r="4.57072" stroke-width="0.5" stroke="blue" fill="blue"/>
   </g>
   <g id="cell170">
  <circle cx="513.612" cy="490.288" r="5.94918" stroke-width="0.5" stroke="black" fill="Red"/>
  <circle cx="513.612" cy="490.288" r="3.66814" stroke-width="0.5" stroke="Red" fill="Red"/>
   </g>
   <g id="cell171">
  <circle cx="454.206" cy="580.926" r="7.46878" stroke-width="0.5" stroke="black" fill="yellow"/>
  <circle cx="454.206" cy="580.926" r="4.53982" stroke-width="0.5" stroke="yellow" fill="yellow"/>
   </g>
   <g id="cell172">
  <circle cx="568.56" cy="442.516" r="7.08606" stroke-width="0.5" stroke="black" fill="blue"/>
  <circle cx="568.56" cy="442.516" r="4.34205" stroke-width="0.5" stroke="blue" fill="blue"/>
   </g>
   <g id="cell173">
  <circle cx="419.141" cy="519.092" r="6.97743" stroke-width="0.5" stroke="black" fill="yellow"/>
  <circle cx="419.141" cy="519.092" r="4.27899" stroke-width="0.5" stroke="yellow" fill="yellow"/>
   </g>
   <g id="cell174">
  <circle cx="525.426" cy="473.255" r="6.96845" stroke-width="0.5" stroke="black" fill="blue"/>
  <circle cx="525.426" cy="473.255" r="4.27264" stroke-width="0.5" stroke="blue" fill="blue"/>
   </g>
   <g id="cell175">
  <circle cx="511.119" cy="421.95" r="7.33129" stroke-width="0.5" stroke="black" fill="Red"/>
  <circle cx="511.119" cy="421.95" r="4.45516" stroke-width="0.5" stroke="Red" fill="Red"/>
   </g>
   <g id="cell176">
  <circle cx="442.37" cy="433.837" r="7.06363" stroke-width="0.5" stroke="black" fill="Red"/>
  <circle cx="442.37" cy="433.837" r="4.32247" stroke-width="0.5" stroke="Red" fill="Red"/>
   </g>
   <g id="cell177">
  <circle cx="557.352" cy="415.919" r="7.24243" stroke-width="0.5" stroke="black" fill="blue"/>
  <circle cx="557.352" cy="415.919" r="4.39934" stroke-width="0.5" stroke="blue" fill="blue"/>
   </g>
   <g id="cell178">
  <circle cx="522.323" cy="516.314" r="7.21189" stroke-width="0.5" stroke="black" fill="Red"/>
  <circle cx="522.323" cy="516.314" r="4.37993" stroke-width="0.5" stroke="Red" fill="Red"/>
   </g>
   <g id="cell179">
  <circle cx="452.832" cy="529.51" r="7.21189" stroke-width="0.5" stroke="black" fill="Red"/>
  <circle cx="452.832" cy="529.51" r="4.37993" stroke-width="0.5" stroke="Red" fill="Red"/>
   </g>
   <g id="cell180">
  <circle cx="458.611" cy="434.851" r="7.21189" stroke-width="0.5" stroke="black" fill="Red"/>
  <circle cx="458.611" cy="434.851" r="4.37993" stroke-width="0.5" stroke="Red" fill="Red"/>
   </g>
   <g id="cell181">
  <circle cx="493.535" cy="503.662" r="7.1497" stroke-width="0.5" stroke="black" fill="blue"/>
  <circle cx="493.535" cy="503.662" r="4.34001" stroke-width="0.5" stroke="blue" fill="blue"/>
   </g>
   <g id="cell182">
  <circle cx="474.121" cy="554.274" r="7.11815" stroke-width="0.5" stroke="black" fill="blue"/>
  <circle cx="474.121" cy="554.274" r="4.31954" stroke-width="0.5" stroke="blue" fill="blue"/>
   </g>
   <g id="cell183">
  <circle cx="469.766" cy="432.425" r="7.0545" stroke-width="0.5" stroke="black" fill="blue"/>
  <circle cx="469.766" cy="432.425" r="4.27772" stroke-width="0.5" stroke="blue" fill="blue"/>
   </g>
   <g id="cell184">
  <circle cx="501.828" cy="438.578" r="7.02257" stroke-width="0.5" stroke="black" fill="blue"/>
  <circle cx="501.828" cy="438.578" r="4.25644" stroke-width="0.5" stroke="blue" fill="blue"/>
   </g>
   <g id="cell185">
  <circle cx="491.147" cy="586.178" r="6.95901" stroke-width="0.5" stroke="black" fill="Red"/>
  <circle cx="491.147" cy="586.178" r="4.21341" stroke-width="0.5" stroke="Red" fill="Red"/>
   </g>
   <g id="cell186">
  <circle cx="505.227" cy="487.517" r="5.94918" stroke-width="0.5" stroke="black" fill="blue"/>
  <circle cx="505.227" cy="487.517" r="3.66814" stroke-width="0.5" stroke="blue" fill="blue"/>
   </g>
   <g id="cell187">
  <circle cx="567.302" cy="451.93" r="5.96908" stroke-width="0.5" stroke="black" fill="Red"/>
  <circle cx="567.302" cy="451.93" r="3.67917" stroke-width="0.5" stroke="Red" fill="Red"/>
   </g>
   <g id="cell188">
  <circle cx="560.227" cy="549.832" r="6.92764" stroke-width="0.5" stroke="black" fill="Red"/>
  <circle cx="560.227" cy="549.832" r="4.1918" stroke-width="0.5" stroke="Red" fill="Red"/>
   </g>
   <g id="cell189">
  <circle cx="462.807" cy="524.164" r="6.89675" stroke-width="0.5" stroke="black" fill="Red"/>
  <circle cx="462.807" cy="524.164" r="4.17024" stroke-width="0.5" stroke="Red" fill="Red"/>
   </g>
   <g id="cell190">
  <circle cx="457.526" cy="513.41" r="5.66683" stroke-width="0.5" stroke="black" fill="blue"/>
  <circle cx="457.526" cy="513.41" r="3.44866" stroke-width="0.5" stroke="blue" fill="blue"/>
   </g>
   <g id="cell191">
  <circle cx="536.572" cy="557.802" r="6.80881" stroke-width="0.5" stroke="black" fill="blue"/>
  <circle cx="536.572" cy="557.802" r="4.10709" stroke-width="0.5" stroke="blue" fill="blue"/>
   </g>
   <g id="cell192">
  <circle cx="516.352" cy="469.689" r="6.75639" stroke-width="0.5" stroke="black" fill="Red"/>
  <circle cx="516.352" cy="469.689" r="4.06813" stroke-width="0.5" stroke="Red" fill="Red"/>
   </g>
   <g id="cell193">
  <circle cx="592.943" cy="490.51" r="6.38842" stroke-width="0.5" stroke="black" fill="blue"/>
  <circle cx="592.943" cy="490.51" r="3.87572" stroke-width="0.5" stroke="blue" fill="blue"/>
   </g>
   <g id="cell194">
  <circle cx="454.7" cy="568.128" r="6.71158" stroke-width="0.5" stroke="black" fill="Red"/>
  <circle cx="454.7" cy="568.128" r="4.03435" stroke-width="0.5" stroke="Red" fill="Red"/>
   </g>
  </g>
 </g>
  <rect x="775" y="1035" width="200" height="10" stroke-width="2" stroke="rgb(255,255,255)" fill="rgb(0,0,0)"/>
  <text x="781.25" y="1028.75"
   font-family="Arial" font-size="25" fill="black" >
   200 &#956;m
  </text>
  <text x="25" y="1045"
   font-family="Arial" font-size="18.75" fill="black" >
   0 days, 0 hours, 2 minutes, and 22.4851 seconds
  </text>
  <rect x="0" y="70" width="1000" height="1000" stroke-width="2" stroke="rgb(0,0,0)" fill="none"/>
</svg>
