<?xml version="1.0" encoding="UTF-8" standalone="no"?>
<!-- Created with PhysiCell (http://PhysiCell.MathCancer.org/) -->
<svg 
 xmlns:dc="http://purl.org/dc/elements/1.1/" 
 xmlns:cc="http://creativecommons.org/ns#" 
 xmlns:rdf="http://www.w3.org/1999/02/22-rdf-syntax-ns#" 
 xmlns:svg="http://www.w3.org/2000/svg" 
 xmlns="http://www.w3.org/2000/svg" 
 version="1.1" 
 width="1000" 
 height="1070" 
 id="svg2">
  <rect x="0" y="0" width="1000" height="1070" stroke-width="2" stroke="white" fill="white"/>
  <text x="12.5" y="30"
   font-family="Arial" font-size="25" fill="black" >
   Current time: 0 days, 5 hours, and 25.00 minutes, z = 0.00 &#956;m
  </text>
  <text x="12.5" y="57.5"
   font-family="Arial" font-size="23.75" fill="black" >
   192 agents
  </text>
 <g id="tissue" 
    transform="translate(0,1070) scale(1,-1)">
  <g id="ECM">
  </g>
  <g id="cells">
   <g id="cell0">
  <circle cx="427.021" cy="447.296" r="8.41271" stroke-width="0.5" stroke="black" fill="yellow"/>
  <circle cx="427.021" cy="447.296" r="5.05167" stroke-width="0.5" stroke="yellow" fill="yellow"/>
   </g>
   <g id="cell1">
  <circle cx="425.215" cy="471.724" r="7.38797" stroke-width="0.5" stroke="black" fill="yellow"/>
  <circle cx="425.215" cy="471.724" r="4.49029" stroke-width="0.5" stroke="yellow" fill="yellow"/>
   </g>
   <g id="cell2">
  <circle cx="428.033" cy="483.25" r="8.41271" stroke-width="0.5" stroke="black" fill="blue"/>
  <circle cx="428.033" cy="483.25" r="5.05167" stroke-width="0.5" stroke="blue" fill="blue"/>
   </g>
   <g id="cell3">
  <circle cx="422.368" cy="495.302" r="7.56839" stroke-width="0.5" stroke="black" fill="Red"/>
  <circle cx="422.368" cy="495.302" r="4.59998" stroke-width="0.5" stroke="Red" fill="Red"/>
   </g>
   <g id="cell4">
  <circle cx="426.278" cy="507.78" r="8.41271" stroke-width="0.5" stroke="black" fill="Red"/>
  <circle cx="426.278" cy="507.78" r="5.05167" stroke-width="0.5" stroke="Red" fill="Red"/>
   </g>
   <g id="cell5">
  <circle cx="416.38" cy="529.495" r="7.49456" stroke-width="0.5" stroke="black" fill="blue"/>
  <circle cx="416.38" cy="529.495" r="4.55548" stroke-width="0.5" stroke="blue" fill="blue"/>
   </g>
   <g id="cell6">
  <circle cx="425.473" cy="539.851" r="8.41271" stroke-width="0.5" stroke="black" fill="Red"/>
  <circle cx="425.473" cy="539.851" r="5.05167" stroke-width="0.5" stroke="Red" fill="Red"/>
   </g>
   <g id="cell7">
  <circle cx="441.088" cy="446.487" r="7.93688" stroke-width="0.5" stroke="black" fill="yellow"/>
  <circle cx="441.088" cy="446.487" r="4.81381" stroke-width="0.5" stroke="yellow" fill="yellow"/>
   </g>
   <g id="cell8">
  <circle cx="433.939" cy="459.518" r="8.41271" stroke-width="0.5" stroke="black" fill="yellow"/>
  <circle cx="433.939" cy="459.518" r="5.05167" stroke-width="0.5" stroke="yellow" fill="yellow"/>
   </g>
   <g id="cell9">
  <circle cx="438.441" cy="471.665" r="8.41271" stroke-width="0.5" stroke="black" fill="Red"/>
  <circle cx="438.441" cy="471.665" r="5.05167" stroke-width="0.5" stroke="Red" fill="Red"/>
   </g>
   <g id="cell10">
  <circle cx="440.61" cy="483.849" r="8.41271" stroke-width="0.5" stroke="black" fill="Red"/>
  <circle cx="440.61" cy="483.849" r="5.05167" stroke-width="0.5" stroke="Red" fill="Red"/>
   </g>
   <g id="cell11">
  <circle cx="437.637" cy="504.802" r="8.41271" stroke-width="0.5" stroke="black" fill="Red"/>
  <circle cx="437.637" cy="504.802" r="5.05167" stroke-width="0.5" stroke="Red" fill="Red"/>
   </g>
   <g id="cell12">
  <circle cx="433.406" cy="518.486" r="7.79564" stroke-width="0.5" stroke="black" fill="Red"/>
  <circle cx="433.406" cy="518.486" r="4.73359" stroke-width="0.5" stroke="Red" fill="Red"/>
   </g>
   <g id="cell13">
  <circle cx="437.09" cy="533.478" r="8.41271" stroke-width="0.5" stroke="black" fill="Red"/>
  <circle cx="437.09" cy="533.478" r="5.05167" stroke-width="0.5" stroke="Red" fill="Red"/>
   </g>
   <g id="cell14">
  <circle cx="438.006" cy="547.962" r="8.41271" stroke-width="0.5" stroke="black" fill="Red"/>
  <circle cx="438.006" cy="547.962" r="5.05167" stroke-width="0.5" stroke="Red" fill="Red"/>
   </g>
   <g id="cell15">
  <circle cx="440.856" cy="562.689" r="8.41271" stroke-width="0.5" stroke="black" fill="blue"/>
  <circle cx="440.856" cy="562.689" r="5.05167" stroke-width="0.5" stroke="blue" fill="blue"/>
   </g>
   <g id="cell16">
  <circle cx="451.282" cy="426.716" r="7.38572" stroke-width="0.5" stroke="black" fill="yellow"/>
  <circle cx="451.282" cy="426.716" r="4.51878" stroke-width="0.5" stroke="yellow" fill="yellow"/>
   </g>
   <g id="cell17">
  <circle cx="450.398" cy="439.14" r="7.0545" stroke-width="0.5" stroke="black" fill="Red"/>
  <circle cx="450.398" cy="439.14" r="4.27772" stroke-width="0.5" stroke="Red" fill="Red"/>
   </g>
   <g id="cell18">
  <circle cx="447.799" cy="459.22" r="8.41271" stroke-width="0.5" stroke="black" fill="blue"/>
  <circle cx="447.799" cy="459.22" r="5.05167" stroke-width="0.5" stroke="blue" fill="blue"/>
   </g>
   <g id="cell19">
  <circle cx="450.608" cy="470.409" r="8.41271" stroke-width="0.5" stroke="black" fill="Red"/>
  <circle cx="450.608" cy="470.409" r="5.05167" stroke-width="0.5" stroke="Red" fill="Red"/>
   </g>
   <g id="cell20">
  <circle cx="453.216" cy="481.835" r="8.41271" stroke-width="0.5" stroke="black" fill="blue"/>
  <circle cx="453.216" cy="481.835" r="5.05167" stroke-width="0.5" stroke="blue" fill="blue"/>
   </g>
   <g id="cell21">
  <circle cx="445.469" cy="495.384" r="8.41271" stroke-width="0.5" stroke="black" fill="Red"/>
  <circle cx="445.469" cy="495.384" r="5.05167" stroke-width="0.5" stroke="Red" fill="Red"/>
   </g>
   <g id="cell22">
  <circle cx="453.211" cy="505.911" r="8.41271" stroke-width="0.5" stroke="black" fill="Red"/>
  <circle cx="453.211" cy="505.911" r="5.05167" stroke-width="0.5" stroke="Red" fill="Red"/>
   </g>
   <g id="cell23">
  <circle cx="444.009" cy="523.752" r="8.41271" stroke-width="0.5" stroke="black" fill="Red"/>
  <circle cx="444.009" cy="523.752" r="5.05167" stroke-width="0.5" stroke="Red" fill="Red"/>
   </g>
   <g id="cell24">
  <circle cx="449.938" cy="539.271" r="8.41271" stroke-width="0.5" stroke="black" fill="Red"/>
  <circle cx="449.938" cy="539.271" r="5.05167" stroke-width="0.5" stroke="Red" fill="Red"/>
   </g>
   <g id="cell25">
  <circle cx="450.277" cy="554.494" r="8.41271" stroke-width="0.5" stroke="black" fill="yellow"/>
  <circle cx="450.277" cy="554.494" r="5.05167" stroke-width="0.5" stroke="yellow" fill="yellow"/>
   </g>
   <g id="cell26">
  <circle cx="451.517" cy="569.446" r="8.41271" stroke-width="0.5" stroke="black" fill="Red"/>
  <circle cx="451.517" cy="569.446" r="5.05167" stroke-width="0.5" stroke="Red" fill="Red"/>
   </g>
   <g id="cell27">
  <circle cx="464.142" cy="407.919" r="8.41271" stroke-width="0.5" stroke="black" fill="yellow"/>
  <circle cx="464.142" cy="407.919" r="5.05167" stroke-width="0.5" stroke="yellow" fill="yellow"/>
   </g>
   <g id="cell28">
  <circle cx="464.783" cy="422.322" r="8.41271" stroke-width="0.5" stroke="black" fill="Red"/>
  <circle cx="464.783" cy="422.322" r="5.05167" stroke-width="0.5" stroke="Red" fill="Red"/>
   </g>
   <g id="cell29">
  <circle cx="455.165" cy="448.112" r="7.51976" stroke-width="0.5" stroke="black" fill="Red"/>
  <circle cx="455.165" cy="448.112" r="4.57072" stroke-width="0.5" stroke="Red" fill="Red"/>
   </g>
   <g id="cell30">
  <circle cx="460.457" cy="458.334" r="8.41271" stroke-width="0.5" stroke="black" fill="Red"/>
  <circle cx="460.457" cy="458.334" r="5.05167" stroke-width="0.5" stroke="Red" fill="Red"/>
   </g>
   <g id="cell31">
  <circle cx="463.094" cy="469.79" r="8.41271" stroke-width="0.5" stroke="black" fill="Red"/>
  <circle cx="463.094" cy="469.79" r="5.05167" stroke-width="0.5" stroke="Red" fill="Red"/>
   </g>
   <g id="cell32">
  <circle cx="466.463" cy="481.54" r="8.41271" stroke-width="0.5" stroke="black" fill="Red"/>
  <circle cx="466.463" cy="481.54" r="5.05167" stroke-width="0.5" stroke="Red" fill="Red"/>
   </g>
   <g id="cell33">
  <circle cx="459.637" cy="493.111" r="8.41271" stroke-width="0.5" stroke="black" fill="blue"/>
  <circle cx="459.637" cy="493.111" r="5.05167" stroke-width="0.5" stroke="blue" fill="blue"/>
   </g>
   <g id="cell34">
  <circle cx="453.356" cy="517.731" r="5.38686" stroke-width="0.5" stroke="black" fill="Red"/>
  <circle cx="453.356" cy="517.731" r="3.24579" stroke-width="0.5" stroke="Red" fill="Red"/>
   </g>
   <g id="cell35">
  <circle cx="462.504" cy="534.911" r="7.0545" stroke-width="0.5" stroke="black" fill="blue"/>
  <circle cx="462.504" cy="534.911" r="4.27772" stroke-width="0.5" stroke="blue" fill="blue"/>
   </g>
   <g id="cell36">
  <circle cx="461.38" cy="547.298" r="8.41271" stroke-width="0.5" stroke="black" fill="Red"/>
  <circle cx="461.38" cy="547.298" r="5.05167" stroke-width="0.5" stroke="Red" fill="Red"/>
   </g>
   <g id="cell37">
  <circle cx="462.739" cy="560.817" r="8.41271" stroke-width="0.5" stroke="black" fill="blue"/>
  <circle cx="462.739" cy="560.817" r="5.05167" stroke-width="0.5" stroke="blue" fill="blue"/>
   </g>
   <g id="cell38">
  <circle cx="465.391" cy="574.453" r="8.41271" stroke-width="0.5" stroke="black" fill="yellow"/>
  <circle cx="465.391" cy="574.453" r="5.05167" stroke-width="0.5" stroke="yellow" fill="yellow"/>
   </g>
   <g id="cell39">
  <circle cx="463.874" cy="585.607" r="7.33129" stroke-width="0.5" stroke="black" fill="blue"/>
  <circle cx="463.874" cy="585.607" r="4.45516" stroke-width="0.5" stroke="blue" fill="blue"/>
   </g>
   <g id="cell40">
  <circle cx="475.152" cy="400.563" r="8.41271" stroke-width="0.5" stroke="black" fill="blue"/>
  <circle cx="475.152" cy="400.563" r="5.05167" stroke-width="0.5" stroke="blue" fill="blue"/>
   </g>
   <g id="cell41">
  <circle cx="478.085" cy="414.305" r="8.41271" stroke-width="0.5" stroke="black" fill="yellow"/>
  <circle cx="478.085" cy="414.305" r="5.05167" stroke-width="0.5" stroke="yellow" fill="yellow"/>
   </g>
   <g id="cell42">
  <circle cx="477.73" cy="440.143" r="6.89675" stroke-width="0.5" stroke="black" fill="Red"/>
  <circle cx="477.73" cy="440.143" r="4.17024" stroke-width="0.5" stroke="Red" fill="Red"/>
   </g>
   <g id="cell43">
  <circle cx="472.123" cy="454.247" r="8.41271" stroke-width="0.5" stroke="black" fill="Red"/>
  <circle cx="472.123" cy="454.247" r="5.05167" stroke-width="0.5" stroke="Red" fill="Red"/>
   </g>
   <g id="cell44">
  <circle cx="474.761" cy="467.17" r="8.41271" stroke-width="0.5" stroke="black" fill="blue"/>
  <circle cx="474.761" cy="467.17" r="5.05167" stroke-width="0.5" stroke="blue" fill="blue"/>
   </g>
   <g id="cell45">
  <circle cx="478.402" cy="478.625" r="8.41271" stroke-width="0.5" stroke="black" fill="blue"/>
  <circle cx="478.402" cy="478.625" r="5.05167" stroke-width="0.5" stroke="blue" fill="blue"/>
   </g>
   <g id="cell46">
  <circle cx="471.768" cy="494.051" r="8.41271" stroke-width="0.5" stroke="black" fill="Red"/>
  <circle cx="471.768" cy="494.051" r="5.05167" stroke-width="0.5" stroke="Red" fill="Red"/>
   </g>
   <g id="cell47">
  <circle cx="465.527" cy="506.334" r="7.9229" stroke-width="0.5" stroke="black" fill="Red"/>
  <circle cx="465.527" cy="506.334" r="4.80599" stroke-width="0.5" stroke="Red" fill="Red"/>
   </g>
   <g id="cell48">
  <circle cx="481.066" cy="519.216" r="7.67987" stroke-width="0.5" stroke="black" fill="Red"/>
  <circle cx="481.066" cy="519.216" r="4.66617" stroke-width="0.5" stroke="Red" fill="Red"/>
   </g>
   <g id="cell49">
  <circle cx="472.513" cy="540.659" r="8.41271" stroke-width="0.5" stroke="black" fill="Red"/>
  <circle cx="472.513" cy="540.659" r="5.05167" stroke-width="0.5" stroke="Red" fill="Red"/>
   </g>
   <g id="cell50">
  <circle cx="481.682" cy="555.158" r="6.95901" stroke-width="0.5" stroke="black" fill="blue"/>
  <circle cx="481.682" cy="555.158" r="4.21341" stroke-width="0.5" stroke="blue" fill="blue"/>
   </g>
   <g id="cell51">
  <circle cx="476.471" cy="566.478" r="8.41271" stroke-width="0.5" stroke="black" fill="Red"/>
  <circle cx="476.471" cy="566.478" r="5.05167" stroke-width="0.5" stroke="Red" fill="Red"/>
   </g>
   <g id="cell52">
  <circle cx="477.551" cy="583.542" r="8.41271" stroke-width="0.5" stroke="black" fill="yellow"/>
  <circle cx="477.551" cy="583.542" r="5.05167" stroke-width="0.5" stroke="yellow" fill="yellow"/>
   </g>
   <g id="cell53">
  <circle cx="489.541" cy="405.107" r="8.41271" stroke-width="0.5" stroke="black" fill="yellow"/>
  <circle cx="489.541" cy="405.107" r="5.05167" stroke-width="0.5" stroke="yellow" fill="yellow"/>
   </g>
   <g id="cell54">
  <circle cx="481.676" cy="427.839" r="8.41271" stroke-width="0.5" stroke="black" fill="Red"/>
  <circle cx="481.676" cy="427.839" r="5.05167" stroke-width="0.5" stroke="Red" fill="Red"/>
   </g>
   <g id="cell55">
  <circle cx="483.524" cy="447.748" r="7.51976" stroke-width="0.5" stroke="black" fill="Red"/>
  <circle cx="483.524" cy="447.748" r="4.57072" stroke-width="0.5" stroke="Red" fill="Red"/>
   </g>
   <g id="cell56">
  <circle cx="493.927" cy="457.319" r="7.75912" stroke-width="0.5" stroke="black" fill="blue"/>
  <circle cx="493.927" cy="457.319" r="4.71248" stroke-width="0.5" stroke="blue" fill="blue"/>
   </g>
   <g id="cell57">
  <circle cx="488.281" cy="470.587" r="8.41271" stroke-width="0.5" stroke="black" fill="Red"/>
  <circle cx="488.281" cy="470.587" r="5.05167" stroke-width="0.5" stroke="Red" fill="Red"/>
   </g>
   <g id="cell58">
  <circle cx="484.247" cy="488.836" r="8.41271" stroke-width="0.5" stroke="black" fill="Red"/>
  <circle cx="484.247" cy="488.836" r="5.05167" stroke-width="0.5" stroke="Red" fill="Red"/>
   </g>
   <g id="cell59">
  <circle cx="484.453" cy="499.66" r="6.99069" stroke-width="0.5" stroke="black" fill="Red"/>
  <circle cx="484.453" cy="499.66" r="4.23498" stroke-width="0.5" stroke="Red" fill="Red"/>
   </g>
   <g id="cell60">
  <circle cx="489.183" cy="511.932" r="8.41271" stroke-width="0.5" stroke="black" fill="Red"/>
  <circle cx="489.183" cy="511.932" r="5.05167" stroke-width="0.5" stroke="Red" fill="Red"/>
   </g>
   <g id="cell61">
  <circle cx="485.749" cy="530.45" r="8.41271" stroke-width="0.5" stroke="black" fill="blue"/>
  <circle cx="485.749" cy="530.45" r="5.05167" stroke-width="0.5" stroke="blue" fill="blue"/>
   </g>
   <g id="cell62">
  <circle cx="484.441" cy="544.172" r="8.41271" stroke-width="0.5" stroke="black" fill="Red"/>
  <circle cx="484.441" cy="544.172" r="5.05167" stroke-width="0.5" stroke="Red" fill="Red"/>
   </g>
   <g id="cell63">
  <circle cx="490.238" cy="562.653" r="8.41271" stroke-width="0.5" stroke="black" fill="Red"/>
  <circle cx="490.238" cy="562.653" r="5.05167" stroke-width="0.5" stroke="Red" fill="Red"/>
   </g>
   <g id="cell64">
  <circle cx="488.947" cy="575.428" r="8.41271" stroke-width="0.5" stroke="black" fill="blue"/>
  <circle cx="488.947" cy="575.428" r="5.05167" stroke-width="0.5" stroke="blue" fill="blue"/>
   </g>
   <g id="cell65">
  <circle cx="487.59" cy="595.749" r="6.80881" stroke-width="0.5" stroke="black" fill="Red"/>
  <circle cx="487.59" cy="595.749" r="4.10709" stroke-width="0.5" stroke="Red" fill="Red"/>
   </g>
   <g id="cell66">
  <circle cx="503.384" cy="409.555" r="8.41271" stroke-width="0.5" stroke="black" fill="blue"/>
  <circle cx="503.384" cy="409.555" r="5.05167" stroke-width="0.5" stroke="blue" fill="blue"/>
   </g>
   <g id="cell67">
  <circle cx="492.087" cy="418.419" r="8.41271" stroke-width="0.5" stroke="black" fill="Red"/>
  <circle cx="492.087" cy="418.419" r="5.05167" stroke-width="0.5" stroke="Red" fill="Red"/>
   </g>
   <g id="cell68">
  <circle cx="499.743" cy="428.602" r="8.41271" stroke-width="0.5" stroke="black" fill="Red"/>
  <circle cx="499.743" cy="428.602" r="5.05167" stroke-width="0.5" stroke="Red" fill="Red"/>
   </g>
   <g id="cell69">
  <circle cx="495.948" cy="447.222" r="8.41271" stroke-width="0.5" stroke="black" fill="Red"/>
  <circle cx="495.948" cy="447.222" r="5.05167" stroke-width="0.5" stroke="Red" fill="Red"/>
   </g>
   <g id="cell70">
  <circle cx="499.202" cy="467.033" r="8.41271" stroke-width="0.5" stroke="black" fill="blue"/>
  <circle cx="499.202" cy="467.033" r="5.05167" stroke-width="0.5" stroke="blue" fill="blue"/>
   </g>
   <g id="cell71">
  <circle cx="494.05" cy="481.181" r="8.41271" stroke-width="0.5" stroke="black" fill="Red"/>
  <circle cx="494.05" cy="481.181" r="5.05167" stroke-width="0.5" stroke="Red" fill="Red"/>
   </g>
   <g id="cell72">
  <circle cx="496.278" cy="492.513" r="8.41271" stroke-width="0.5" stroke="black" fill="Red"/>
  <circle cx="496.278" cy="492.513" r="5.05167" stroke-width="0.5" stroke="Red" fill="Red"/>
   </g>
   <g id="cell73">
  <circle cx="501.955" cy="510.288" r="8.41271" stroke-width="0.5" stroke="black" fill="Red"/>
  <circle cx="501.955" cy="510.288" r="5.05167" stroke-width="0.5" stroke="Red" fill="Red"/>
   </g>
   <g id="cell74">
  <circle cx="496.096" cy="523.37" r="8.41271" stroke-width="0.5" stroke="black" fill="Red"/>
  <circle cx="496.096" cy="523.37" r="5.05167" stroke-width="0.5" stroke="Red" fill="Red"/>
   </g>
   <g id="cell75">
  <circle cx="497.46" cy="537.332" r="8.41271" stroke-width="0.5" stroke="black" fill="Red"/>
  <circle cx="497.46" cy="537.332" r="5.05167" stroke-width="0.5" stroke="Red" fill="Red"/>
   </g>
   <g id="cell76">
  <circle cx="495.151" cy="550.784" r="8.41271" stroke-width="0.5" stroke="black" fill="Red"/>
  <circle cx="495.151" cy="550.784" r="5.05167" stroke-width="0.5" stroke="Red" fill="Red"/>
   </g>
   <g id="cell77">
  <circle cx="500.234" cy="568.909" r="7.65871" stroke-width="0.5" stroke="black" fill="blue"/>
  <circle cx="500.234" cy="568.909" r="4.6537" stroke-width="0.5" stroke="blue" fill="blue"/>
   </g>
   <g id="cell78">
  <circle cx="501.958" cy="581.064" r="8.41271" stroke-width="0.5" stroke="black" fill="Red"/>
  <circle cx="501.958" cy="581.064" r="5.05167" stroke-width="0.5" stroke="Red" fill="Red"/>
   </g>
   <g id="cell79">
  <circle cx="501.379" cy="595.023" r="8.41271" stroke-width="0.5" stroke="black" fill="blue"/>
  <circle cx="501.379" cy="595.023" r="5.05167" stroke-width="0.5" stroke="blue" fill="blue"/>
   </g>
   <g id="cell80">
  <circle cx="516.59" cy="411.695" r="7.18097" stroke-width="0.5" stroke="black" fill="Red"/>
  <circle cx="516.59" cy="411.695" r="4.36015" stroke-width="0.5" stroke="Red" fill="Red"/>
   </g>
   <g id="cell81">
  <circle cx="514.41" cy="433.49" r="8.41271" stroke-width="0.5" stroke="black" fill="Red"/>
  <circle cx="514.41" cy="433.49" r="5.05167" stroke-width="0.5" stroke="Red" fill="Red"/>
   </g>
   <g id="cell82">
  <circle cx="511.786" cy="445.819" r="6.86652" stroke-width="0.5" stroke="black" fill="Red"/>
  <circle cx="511.786" cy="445.819" r="4.14883" stroke-width="0.5" stroke="Red" fill="Red"/>
   </g>
   <g id="cell83">
  <circle cx="506.713" cy="455.238" r="8.41271" stroke-width="0.5" stroke="black" fill="Red"/>
  <circle cx="506.713" cy="455.238" r="5.05167" stroke-width="0.5" stroke="Red" fill="Red"/>
   </g>
   <g id="cell84">
  <circle cx="514.855" cy="466.411" r="8.41271" stroke-width="0.5" stroke="black" fill="Red"/>
  <circle cx="514.855" cy="466.411" r="5.05167" stroke-width="0.5" stroke="Red" fill="Red"/>
   </g>
   <g id="cell85">
  <circle cx="505.531" cy="476.898" r="8.41271" stroke-width="0.5" stroke="black" fill="Red"/>
  <circle cx="505.531" cy="476.898" r="5.05167" stroke-width="0.5" stroke="Red" fill="Red"/>
   </g>
   <g id="cell86">
  <circle cx="508.838" cy="497.962" r="8.41271" stroke-width="0.5" stroke="black" fill="Red"/>
  <circle cx="508.838" cy="497.962" r="5.05167" stroke-width="0.5" stroke="Red" fill="Red"/>
   </g>
   <g id="cell87">
  <circle cx="513.922" cy="510.538" r="7.72056" stroke-width="0.5" stroke="black" fill="Red"/>
  <circle cx="513.922" cy="510.538" r="4.69003" stroke-width="0.5" stroke="Red" fill="Red"/>
   </g>
   <g id="cell88">
  <circle cx="509.578" cy="533.706" r="8.41271" stroke-width="0.5" stroke="black" fill="Red"/>
  <circle cx="509.578" cy="533.706" r="5.05167" stroke-width="0.5" stroke="Red" fill="Red"/>
   </g>
   <g id="cell89">
  <circle cx="508.334" cy="546.847" r="8.41271" stroke-width="0.5" stroke="black" fill="Red"/>
  <circle cx="508.334" cy="546.847" r="5.05167" stroke-width="0.5" stroke="Red" fill="Red"/>
   </g>
   <g id="cell90">
  <circle cx="517.233" cy="555.701" r="8.41271" stroke-width="0.5" stroke="black" fill="Red"/>
  <circle cx="517.233" cy="555.701" r="5.05167" stroke-width="0.5" stroke="Red" fill="Red"/>
   </g>
   <g id="cell91">
  <circle cx="514.073" cy="571.948" r="8.41271" stroke-width="0.5" stroke="black" fill="Red"/>
  <circle cx="514.073" cy="571.948" r="5.05167" stroke-width="0.5" stroke="Red" fill="Red"/>
   </g>
   <g id="cell92">
  <circle cx="514.538" cy="586.579" r="8.41271" stroke-width="0.5" stroke="black" fill="Red"/>
  <circle cx="514.538" cy="586.579" r="5.05167" stroke-width="0.5" stroke="Red" fill="Red"/>
   </g>
   <g id="cell93">
  <circle cx="531.189" cy="411.143" r="8.41271" stroke-width="0.5" stroke="black" fill="blue"/>
  <circle cx="531.189" cy="411.143" r="5.05167" stroke-width="0.5" stroke="blue" fill="blue"/>
   </g>
   <g id="cell94">
  <circle cx="536.594" cy="422.96" r="7.7401" stroke-width="0.5" stroke="black" fill="yellow"/>
  <circle cx="536.594" cy="422.96" r="4.70142" stroke-width="0.5" stroke="yellow" fill="yellow"/>
   </g>
   <g id="cell95">
  <circle cx="528.066" cy="434.219" r="8.41271" stroke-width="0.5" stroke="black" fill="Red"/>
  <circle cx="528.066" cy="434.219" r="5.05167" stroke-width="0.5" stroke="Red" fill="Red"/>
   </g>
   <g id="cell96">
  <circle cx="521.941" cy="444.578" r="7.21886" stroke-width="0.5" stroke="black" fill="blue"/>
  <circle cx="521.941" cy="444.578" r="4.41904" stroke-width="0.5" stroke="blue" fill="blue"/>
   </g>
   <g id="cell97">
  <circle cx="530.171" cy="461.559" r="8.41271" stroke-width="0.5" stroke="black" fill="Red"/>
  <circle cx="530.171" cy="461.559" r="5.05167" stroke-width="0.5" stroke="Red" fill="Red"/>
   </g>
   <g id="cell98">
  <circle cx="521.492" cy="490.346" r="6.83815" stroke-width="0.5" stroke="black" fill="Red"/>
  <circle cx="521.492" cy="490.346" r="4.19497" stroke-width="0.5" stroke="Red" fill="Red"/>
   </g>
   <g id="cell99">
  <circle cx="531.356" cy="495.808" r="8.41271" stroke-width="0.5" stroke="black" fill="Red"/>
  <circle cx="531.356" cy="495.808" r="5.05167" stroke-width="0.5" stroke="Red" fill="Red"/>
   </g>
   <g id="cell100">
  <circle cx="520.645" cy="502.107" r="7.0545" stroke-width="0.5" stroke="black" fill="blue"/>
  <circle cx="520.645" cy="502.107" r="4.27772" stroke-width="0.5" stroke="blue" fill="blue"/>
   </g>
   <g id="cell101">
  <circle cx="521.442" cy="528.706" r="8.41271" stroke-width="0.5" stroke="black" fill="Red"/>
  <circle cx="521.442" cy="528.706" r="5.05167" stroke-width="0.5" stroke="Red" fill="Red"/>
   </g>
   <g id="cell102">
  <circle cx="530.362" cy="536.293" r="7.87851" stroke-width="0.5" stroke="black" fill="Red"/>
  <circle cx="530.362" cy="536.293" r="4.78096" stroke-width="0.5" stroke="Red" fill="Red"/>
   </g>
   <g id="cell103">
  <circle cx="529.616" cy="550.273" r="8.41271" stroke-width="0.5" stroke="black" fill="Red"/>
  <circle cx="529.616" cy="550.273" r="5.05167" stroke-width="0.5" stroke="Red" fill="Red"/>
   </g>
   <g id="cell104">
  <circle cx="529.219" cy="564.105" r="8.41271" stroke-width="0.5" stroke="black" fill="Red"/>
  <circle cx="529.219" cy="564.105" r="5.05167" stroke-width="0.5" stroke="Red" fill="Red"/>
   </g>
   <g id="cell105">
  <circle cx="528.301" cy="577.617" r="8.41271" stroke-width="0.5" stroke="black" fill="blue"/>
  <circle cx="528.301" cy="577.617" r="5.05167" stroke-width="0.5" stroke="blue" fill="blue"/>
   </g>
   <g id="cell106">
  <circle cx="544.421" cy="412.881" r="7.08639" stroke-width="0.5" stroke="black" fill="yellow"/>
  <circle cx="544.421" cy="412.881" r="4.29876" stroke-width="0.5" stroke="yellow" fill="yellow"/>
   </g>
   <g id="cell107">
  <circle cx="542.381" cy="435.583" r="8.41271" stroke-width="0.5" stroke="black" fill="Red"/>
  <circle cx="542.381" cy="435.583" r="5.05167" stroke-width="0.5" stroke="Red" fill="Red"/>
   </g>
   <g id="cell108">
  <circle cx="533.599" cy="448.216" r="8.41271" stroke-width="0.5" stroke="black" fill="Red"/>
  <circle cx="533.599" cy="448.216" r="5.05167" stroke-width="0.5" stroke="Red" fill="Red"/>
   </g>
   <g id="cell109">
  <circle cx="548.922" cy="466.902" r="8.41271" stroke-width="0.5" stroke="black" fill="Red"/>
  <circle cx="548.922" cy="466.902" r="5.05167" stroke-width="0.5" stroke="Red" fill="Red"/>
   </g>
   <g id="cell110">
  <circle cx="528.084" cy="481.672" r="8.41271" stroke-width="0.5" stroke="black" fill="Red"/>
  <circle cx="528.084" cy="481.672" r="5.05167" stroke-width="0.5" stroke="Red" fill="Red"/>
   </g>
   <g id="cell111">
  <circle cx="539.532" cy="487.757" r="8.41271" stroke-width="0.5" stroke="black" fill="Red"/>
  <circle cx="539.532" cy="487.757" r="5.05167" stroke-width="0.5" stroke="Red" fill="Red"/>
   </g>
   <g id="cell112">
  <circle cx="539.515" cy="505.251" r="8.41271" stroke-width="0.5" stroke="black" fill="Red"/>
  <circle cx="539.515" cy="505.251" r="5.05167" stroke-width="0.5" stroke="Red" fill="Red"/>
   </g>
   <g id="cell113">
  <circle cx="528.517" cy="510.557" r="8.41271" stroke-width="0.5" stroke="black" fill="Red"/>
  <circle cx="528.517" cy="510.557" r="5.05167" stroke-width="0.5" stroke="Red" fill="Red"/>
   </g>
   <g id="cell114">
  <circle cx="533.292" cy="522.658" r="8.41271" stroke-width="0.5" stroke="black" fill="Red"/>
  <circle cx="533.292" cy="522.658" r="5.05167" stroke-width="0.5" stroke="Red" fill="Red"/>
   </g>
   <g id="cell115">
  <circle cx="539.597" cy="541.956" r="8.41271" stroke-width="0.5" stroke="black" fill="Red"/>
  <circle cx="539.597" cy="541.956" r="5.05167" stroke-width="0.5" stroke="Red" fill="Red"/>
   </g>
   <g id="cell116">
  <circle cx="543.574" cy="561.372" r="6.69288" stroke-width="0.5" stroke="black" fill="Red"/>
  <circle cx="543.574" cy="561.372" r="4.02051" stroke-width="0.5" stroke="Red" fill="Red"/>
   </g>
   <g id="cell117">
  <circle cx="541.15" cy="571.598" r="8.41271" stroke-width="0.5" stroke="black" fill="Red"/>
  <circle cx="541.15" cy="571.598" r="5.05167" stroke-width="0.5" stroke="Red" fill="Red"/>
   </g>
   <g id="cell118">
  <circle cx="550.598" cy="425.24" r="8.41271" stroke-width="0.5" stroke="black" fill="yellow"/>
  <circle cx="550.598" cy="425.24" r="5.05167" stroke-width="0.5" stroke="yellow" fill="yellow"/>
   </g>
   <g id="cell119">
  <circle cx="556.543" cy="438.669" r="8.41271" stroke-width="0.5" stroke="black" fill="yellow"/>
  <circle cx="556.543" cy="438.669" r="5.05167" stroke-width="0.5" stroke="yellow" fill="yellow"/>
   </g>
   <g id="cell120">
  <circle cx="554.484" cy="457.271" r="7.72056" stroke-width="0.5" stroke="black" fill="Red"/>
  <circle cx="554.484" cy="457.271" r="4.69003" stroke-width="0.5" stroke="Red" fill="Red"/>
   </g>
   <g id="cell121">
  <circle cx="559.521" cy="472.904" r="8.41271" stroke-width="0.5" stroke="black" fill="Red"/>
  <circle cx="559.521" cy="472.904" r="5.05167" stroke-width="0.5" stroke="Red" fill="Red"/>
   </g>
   <g id="cell122">
  <circle cx="547.234" cy="479.777" r="8.41271" stroke-width="0.5" stroke="black" fill="blue"/>
  <circle cx="547.234" cy="479.777" r="5.05167" stroke-width="0.5" stroke="blue" fill="blue"/>
   </g>
   <g id="cell123">
  <circle cx="548.917" cy="496.427" r="8.41271" stroke-width="0.5" stroke="black" fill="Red"/>
  <circle cx="548.917" cy="496.427" r="5.05167" stroke-width="0.5" stroke="Red" fill="Red"/>
   </g>
   <g id="cell124">
  <circle cx="553.77" cy="509.871" r="8.41271" stroke-width="0.5" stroke="black" fill="Red"/>
  <circle cx="553.77" cy="509.871" r="5.05167" stroke-width="0.5" stroke="Red" fill="Red"/>
   </g>
   <g id="cell125">
  <circle cx="544.76" cy="517.475" r="7.7401" stroke-width="0.5" stroke="black" fill="blue"/>
  <circle cx="544.76" cy="517.475" r="4.70142" stroke-width="0.5" stroke="blue" fill="blue"/>
   </g>
   <g id="cell126">
  <circle cx="544.392" cy="531.477" r="8.41271" stroke-width="0.5" stroke="black" fill="Red"/>
  <circle cx="544.392" cy="531.477" r="5.05167" stroke-width="0.5" stroke="Red" fill="Red"/>
   </g>
   <g id="cell127">
  <circle cx="548.953" cy="549.275" r="8.41271" stroke-width="0.5" stroke="black" fill="Red"/>
  <circle cx="548.953" cy="549.275" r="5.05167" stroke-width="0.5" stroke="Red" fill="Red"/>
   </g>
   <g id="cell128">
  <circle cx="554.22" cy="560.903" r="8.41271" stroke-width="0.5" stroke="black" fill="blue"/>
  <circle cx="554.22" cy="560.903" r="5.05167" stroke-width="0.5" stroke="blue" fill="blue"/>
   </g>
   <g id="cell129">
  <circle cx="576.087" cy="453.972" r="7.70049" stroke-width="0.5" stroke="black" fill="Red"/>
  <circle cx="576.087" cy="453.972" r="4.67828" stroke-width="0.5" stroke="Red" fill="Red"/>
   </g>
   <g id="cell130">
  <circle cx="565.453" cy="461.8" r="8.41271" stroke-width="0.5" stroke="black" fill="Red"/>
  <circle cx="565.453" cy="461.8" r="5.05167" stroke-width="0.5" stroke="Red" fill="Red"/>
   </g>
   <g id="cell131">
  <circle cx="569.953" cy="479.556" r="8.41271" stroke-width="0.5" stroke="black" fill="Red"/>
  <circle cx="569.953" cy="479.556" r="5.05167" stroke-width="0.5" stroke="Red" fill="Red"/>
   </g>
   <g id="cell132">
  <circle cx="558.164" cy="486.963" r="8.41271" stroke-width="0.5" stroke="black" fill="Red"/>
  <circle cx="558.164" cy="486.963" r="5.05167" stroke-width="0.5" stroke="Red" fill="Red"/>
   </g>
   <g id="cell133">
  <circle cx="562.448" cy="499.84" r="8.41271" stroke-width="0.5" stroke="black" fill="blue"/>
  <circle cx="562.448" cy="499.84" r="5.05167" stroke-width="0.5" stroke="blue" fill="blue"/>
   </g>
   <g id="cell134">
  <circle cx="566.84" cy="514.841" r="8.41271" stroke-width="0.5" stroke="black" fill="yellow"/>
  <circle cx="566.84" cy="514.841" r="5.05167" stroke-width="0.5" stroke="yellow" fill="yellow"/>
   </g>
   <g id="cell135">
  <circle cx="568.692" cy="527.978" r="8.41271" stroke-width="0.5" stroke="black" fill="yellow"/>
  <circle cx="568.692" cy="527.978" r="5.05167" stroke-width="0.5" stroke="yellow" fill="yellow"/>
   </g>
   <g id="cell136">
  <circle cx="556.559" cy="538.016" r="8.41271" stroke-width="0.5" stroke="black" fill="Red"/>
  <circle cx="556.559" cy="538.016" r="5.05167" stroke-width="0.5" stroke="Red" fill="Red"/>
   </g>
   <g id="cell137">
  <circle cx="569.07" cy="556.303" r="6.78181" stroke-width="0.5" stroke="black" fill="Red"/>
  <circle cx="569.07" cy="556.303" r="4.08714" stroke-width="0.5" stroke="Red" fill="Red"/>
   </g>
   <g id="cell138">
  <circle cx="576.992" cy="467.843" r="8.41271" stroke-width="0.5" stroke="black" fill="blue"/>
  <circle cx="576.992" cy="467.843" r="5.05167" stroke-width="0.5" stroke="blue" fill="blue"/>
   </g>
   <g id="cell139">
  <circle cx="583.465" cy="482.151" r="8.41271" stroke-width="0.5" stroke="black" fill="yellow"/>
  <circle cx="583.465" cy="482.151" r="5.05167" stroke-width="0.5" stroke="yellow" fill="yellow"/>
   </g>
   <g id="cell140">
  <circle cx="572.969" cy="491.817" r="7.93688" stroke-width="0.5" stroke="black" fill="yellow"/>
  <circle cx="572.969" cy="491.817" r="4.81381" stroke-width="0.5" stroke="yellow" fill="yellow"/>
   </g>
   <g id="cell141">
  <circle cx="576.906" cy="506.273" r="8.41271" stroke-width="0.5" stroke="black" fill="yellow"/>
  <circle cx="576.906" cy="506.273" r="5.05167" stroke-width="0.5" stroke="yellow" fill="yellow"/>
   </g>
   <g id="cell142">
  <circle cx="581.106" cy="519.79" r="7.56839" stroke-width="0.5" stroke="black" fill="blue"/>
  <circle cx="581.106" cy="519.79" r="4.59998" stroke-width="0.5" stroke="blue" fill="blue"/>
   </g>
   <g id="cell143">
  <circle cx="570.638" cy="542.119" r="8.41271" stroke-width="0.5" stroke="black" fill="blue"/>
  <circle cx="570.638" cy="542.119" r="5.05167" stroke-width="0.5" stroke="blue" fill="blue"/>
   </g>
   <g id="cell144">
  <circle cx="429.799" cy="435.059" r="6.85827" stroke-width="0.5" stroke="black" fill="blue"/>
  <circle cx="429.799" cy="435.059" r="4.19769" stroke-width="0.5" stroke="blue" fill="blue"/>
   </g>
   <g id="cell145">
  <circle cx="586.225" cy="497.11" r="7.93688" stroke-width="0.5" stroke="black" fill="blue"/>
  <circle cx="586.225" cy="497.11" r="4.81381" stroke-width="0.5" stroke="blue" fill="blue"/>
   </g>
   <g id="cell146">
  <circle cx="477.379" cy="506.493" r="7.27158" stroke-width="0.5" stroke="black" fill="blue"/>
  <circle cx="477.379" cy="506.493" r="4.45044" stroke-width="0.5" stroke="blue" fill="blue"/>
   </g>
   <g id="cell147">
  <circle cx="541.357" cy="458.374" r="7.60589" stroke-width="0.5" stroke="black" fill="Red"/>
  <circle cx="541.357" cy="458.374" r="4.64414" stroke-width="0.5" stroke="Red" fill="Red"/>
   </g>
   <g id="cell148">
  <circle cx="520.088" cy="542.109" r="7.87851" stroke-width="0.5" stroke="black" fill="blue"/>
  <circle cx="520.088" cy="542.109" r="4.78096" stroke-width="0.5" stroke="blue" fill="blue"/>
   </g>
   <g id="cell149">
  <circle cx="537.143" cy="472.528" r="7.60589" stroke-width="0.5" stroke="black" fill="blue"/>
  <circle cx="537.143" cy="472.528" r="4.64414" stroke-width="0.5" stroke="blue" fill="blue"/>
   </g>
   <g id="cell150">
  <circle cx="445.156" cy="512.528" r="7.79564" stroke-width="0.5" stroke="black" fill="blue"/>
  <circle cx="445.156" cy="512.528" r="4.73359" stroke-width="0.5" stroke="blue" fill="blue"/>
   </g>
   <g id="cell151">
  <circle cx="452.511" cy="414.525" r="7.79564" stroke-width="0.5" stroke="black" fill="blue"/>
  <circle cx="452.511" cy="414.525" r="4.73359" stroke-width="0.5" stroke="blue" fill="blue"/>
   </g>
   <g id="cell152">
  <circle cx="484.043" cy="459.832" r="7.75912" stroke-width="0.5" stroke="black" fill="Red"/>
  <circle cx="484.043" cy="459.832" r="4.71248" stroke-width="0.5" stroke="Red" fill="Red"/>
   </g>
   <g id="cell153">
  <circle cx="523.04" cy="422.399" r="7.7401" stroke-width="0.5" stroke="black" fill="Red"/>
  <circle cx="523.04" cy="422.399" r="4.70142" stroke-width="0.5" stroke="Red" fill="Red"/>
   </g>
   <g id="cell154">
  <circle cx="555.716" cy="524.034" r="7.7401" stroke-width="0.5" stroke="black" fill="blue"/>
  <circle cx="555.716" cy="524.034" r="4.70142" stroke-width="0.5" stroke="blue" fill="blue"/>
   </g>
   <g id="cell155">
  <circle cx="439.432" cy="423.275" r="7.38572" stroke-width="0.5" stroke="black" fill="yellow"/>
  <circle cx="439.432" cy="423.275" r="4.51878" stroke-width="0.5" stroke="yellow" fill="yellow"/>
   </g>
   <g id="cell156">
  <circle cx="508.856" cy="522.007" r="7.72056" stroke-width="0.5" stroke="black" fill="blue"/>
  <circle cx="508.856" cy="522.007" r="4.69003" stroke-width="0.5" stroke="blue" fill="blue"/>
   </g>
   <g id="cell157">
  <circle cx="546.859" cy="448.116" r="7.72056" stroke-width="0.5" stroke="black" fill="blue"/>
  <circle cx="546.859" cy="448.116" r="4.69003" stroke-width="0.5" stroke="blue" fill="blue"/>
   </g>
   <g id="cell158">
  <circle cx="558.414" cy="448.414" r="5.60982" stroke-width="0.5" stroke="black" fill="Red"/>
  <circle cx="558.414" cy="448.414" r="3.45149" stroke-width="0.5" stroke="Red" fill="Red"/>
   </g>
   <g id="cell159">
  <circle cx="474.44" cy="529.244" r="7.67987" stroke-width="0.5" stroke="black" fill="Red"/>
  <circle cx="474.44" cy="529.244" r="4.66617" stroke-width="0.5" stroke="Red" fill="Red"/>
   </g>
   <g id="cell160">
  <circle cx="505.275" cy="559.789" r="7.65871" stroke-width="0.5" stroke="black" fill="blue"/>
  <circle cx="505.275" cy="559.789" r="4.6537" stroke-width="0.5" stroke="blue" fill="blue"/>
   </g>
   <g id="cell161">
  <circle cx="516.11" cy="478.589" r="6.73663" stroke-width="0.5" stroke="black" fill="Red"/>
  <circle cx="516.11" cy="478.589" r="4.13275" stroke-width="0.5" stroke="Red" fill="Red"/>
   </g>
   <g id="cell162">
  <circle cx="581.159" cy="533.328" r="7.56839" stroke-width="0.5" stroke="black" fill="yellow"/>
  <circle cx="581.159" cy="533.328" r="4.59998" stroke-width="0.5" stroke="yellow" fill="yellow"/>
   </g>
   <g id="cell163">
  <circle cx="471.327" cy="515.973" r="7.27158" stroke-width="0.5" stroke="black" fill="Red"/>
  <circle cx="471.327" cy="515.973" r="4.45044" stroke-width="0.5" stroke="Red" fill="Red"/>
   </g>
   <g id="cell164">
  <circle cx="433.136" cy="494.348" r="7.56839" stroke-width="0.5" stroke="black" fill="Red"/>
  <circle cx="433.136" cy="494.348" r="4.59998" stroke-width="0.5" stroke="Red" fill="Red"/>
   </g>
   <g id="cell165">
  <circle cx="466.633" cy="443.898" r="7.51976" stroke-width="0.5" stroke="black" fill="Red"/>
  <circle cx="466.633" cy="443.898" r="4.57072" stroke-width="0.5" stroke="Red" fill="Red"/>
   </g>
   <g id="cell166">
  <circle cx="490.941" cy="435.915" r="7.51976" stroke-width="0.5" stroke="black" fill="blue"/>
  <circle cx="490.941" cy="435.915" r="4.57072" stroke-width="0.5" stroke="blue" fill="blue"/>
   </g>
   <g id="cell167">
  <circle cx="520.157" cy="455.521" r="7.21886" stroke-width="0.5" stroke="black" fill="Red"/>
  <circle cx="520.157" cy="455.521" r="4.41904" stroke-width="0.5" stroke="Red" fill="Red"/>
   </g>
   <g id="cell168">
  <circle cx="427.349" cy="526.596" r="6.74469" stroke-width="0.5" stroke="black" fill="yellow"/>
  <circle cx="427.349" cy="526.596" r="4.13892" stroke-width="0.5" stroke="yellow" fill="yellow"/>
   </g>
   <g id="cell169">
  <circle cx="420.906" cy="461.028" r="7.38797" stroke-width="0.5" stroke="black" fill="blue"/>
  <circle cx="420.906" cy="461.028" r="4.49029" stroke-width="0.5" stroke="blue" fill="blue"/>
   </g>
   <g id="cell170">
  <circle cx="511.984" cy="487.421" r="5.58376" stroke-width="0.5" stroke="black" fill="Red"/>
  <circle cx="511.984" cy="487.421" r="3.43686" stroke-width="0.5" stroke="Red" fill="Red"/>
   </g>
   <g id="cell171">
  <circle cx="452.92" cy="582.856" r="7.33129" stroke-width="0.5" stroke="black" fill="Red"/>
  <circle cx="452.92" cy="582.856" r="4.45516" stroke-width="0.5" stroke="Red" fill="Red"/>
   </g>
   <g id="cell172">
  <circle cx="568.923" cy="444.283" r="6.87289" stroke-width="0.5" stroke="black" fill="blue"/>
  <circle cx="568.923" cy="444.283" r="4.21449" stroke-width="0.5" stroke="blue" fill="blue"/>
   </g>
   <g id="cell173">
  <circle cx="420.514" cy="518.431" r="6.74469" stroke-width="0.5" stroke="black" fill="Red"/>
  <circle cx="420.514" cy="518.431" r="4.13892" stroke-width="0.5" stroke="Red" fill="Red"/>
   </g>
   <g id="cell174">
  <circle cx="524.855" cy="470.975" r="6.73663" stroke-width="0.5" stroke="black" fill="blue"/>
  <circle cx="524.855" cy="470.975" r="4.13275" stroke-width="0.5" stroke="blue" fill="blue"/>
   </g>
   <g id="cell175">
  <circle cx="509.458" cy="421.135" r="7.18097" stroke-width="0.5" stroke="black" fill="Red"/>
  <circle cx="509.458" cy="421.135" r="4.36015" stroke-width="0.5" stroke="Red" fill="Red"/>
   </g>
   <g id="cell176">
  <circle cx="440.556" cy="433.818" r="6.85827" stroke-width="0.5" stroke="black" fill="Red"/>
  <circle cx="440.556" cy="433.818" r="4.19769" stroke-width="0.5" stroke="Red" fill="Red"/>
   </g>
   <g id="cell177">
  <circle cx="557.278" cy="415.328" r="7.08639" stroke-width="0.5" stroke="black" fill="blue"/>
  <circle cx="557.278" cy="415.328" r="4.29876" stroke-width="0.5" stroke="blue" fill="blue"/>
   </g>
   <g id="cell178">
  <circle cx="521.348" cy="518.56" r="7.0545" stroke-width="0.5" stroke="black" fill="Red"/>
  <circle cx="521.348" cy="518.56" r="4.27772" stroke-width="0.5" stroke="Red" fill="Red"/>
   </g>
   <g id="cell179">
  <circle cx="453.919" cy="527.568" r="7.0545" stroke-width="0.5" stroke="black" fill="Red"/>
  <circle cx="453.919" cy="527.568" r="4.27772" stroke-width="0.5" stroke="Red" fill="Red"/>
   </g>
   <g id="cell180">
  <circle cx="459.887" cy="435.709" r="7.0545" stroke-width="0.5" stroke="black" fill="Red"/>
  <circle cx="459.887" cy="435.709" r="4.27772" stroke-width="0.5" stroke="Red" fill="Red"/>
   </g>
   <g id="cell181">
  <circle cx="494.039" cy="501.859" r="6.99069" stroke-width="0.5" stroke="black" fill="blue"/>
  <circle cx="494.039" cy="501.859" r="4.23498" stroke-width="0.5" stroke="blue" fill="blue"/>
   </g>
   <g id="cell182">
  <circle cx="472.139" cy="553.999" r="6.95901" stroke-width="0.5" stroke="black" fill="Red"/>
  <circle cx="472.139" cy="553.999" r="4.21341" stroke-width="0.5" stroke="Red" fill="Red"/>
   </g>
   <g id="cell183">
  <circle cx="469.691" cy="432.879" r="6.89675" stroke-width="0.5" stroke="black" fill="blue"/>
  <circle cx="469.691" cy="432.879" r="4.17024" stroke-width="0.5" stroke="blue" fill="blue"/>
   </g>
   <g id="cell184">
  <circle cx="503.102" cy="439.794" r="6.86652" stroke-width="0.5" stroke="black" fill="blue"/>
  <circle cx="503.102" cy="439.794" r="4.14883" stroke-width="0.5" stroke="blue" fill="blue"/>
   </g>
   <g id="cell185">
  <circle cx="491.374" cy="586.49" r="6.80881" stroke-width="0.5" stroke="black" fill="Red"/>
  <circle cx="491.374" cy="586.49" r="4.10709" stroke-width="0.5" stroke="Red" fill="Red"/>
   </g>
   <g id="cell186">
  <circle cx="503.939" cy="487.001" r="5.58376" stroke-width="0.5" stroke="black" fill="blue"/>
  <circle cx="503.939" cy="487.001" r="3.43686" stroke-width="0.5" stroke="blue" fill="blue"/>
   </g>
   <g id="cell187">
  <circle cx="565.236" cy="452.197" r="5.60982" stroke-width="0.5" stroke="black" fill="Red"/>
  <circle cx="565.236" cy="452.197" r="3.45149" stroke-width="0.5" stroke="Red" fill="Red"/>
   </g>
   <g id="cell188">
  <circle cx="560.781" cy="550.164" r="6.78181" stroke-width="0.5" stroke="black" fill="Red"/>
  <circle cx="560.781" cy="550.164" r="4.08714" stroke-width="0.5" stroke="Red" fill="Red"/>
   </g>
   <g id="cell189">
  <circle cx="464.39" cy="524.683" r="6.75639" stroke-width="0.5" stroke="black" fill="Red"/>
  <circle cx="464.39" cy="524.683" r="4.06813" stroke-width="0.5" stroke="Red" fill="Red"/>
   </g>
   <g id="cell190">
  <circle cx="460.754" cy="516.429" r="5.38686" stroke-width="0.5" stroke="black" fill="Red"/>
  <circle cx="460.754" cy="516.429" r="3.24579" stroke-width="0.5" stroke="Red" fill="Red"/>
   </g>
   <g id="cell191">
  <circle cx="539.035" cy="555.174" r="6.69288" stroke-width="0.5" stroke="black" fill="Red"/>
  <circle cx="539.035" cy="555.174" r="4.02051" stroke-width="0.5" stroke="Red" fill="Red"/>
   </g>
  </g>
 </g>
  <rect x="775" y="1035" width="200" height="10" stroke-width="2" stroke="rgb(255,255,255)" fill="rgb(0,0,0)"/>
  <text x="781.25" y="1028.75"
   font-family="Arial" font-size="25" fill="black" >
   200 &#956;m
  </text>
  <text x="25" y="1045"
   font-family="Arial" font-size="18.75" fill="black" >
   0 days, 0 hours, 2 minutes, and 2.0615 seconds
  </text>
  <rect x="0" y="70" width="1000" height="1000" stroke-width="2" stroke="rgb(0,0,0)" fill="none"/>
</svg>
