<?xml version="1.0" encoding="UTF-8" standalone="no"?>
<!-- Created with PhysiCell (http://PhysiCell.MathCancer.org/) -->
<svg 
 xmlns:dc="http://purl.org/dc/elements/1.1/" 
 xmlns:cc="http://creativecommons.org/ns#" 
 xmlns:rdf="http://www.w3.org/1999/02/22-rdf-syntax-ns#" 
 xmlns:svg="http://www.w3.org/2000/svg" 
 xmlns="http://www.w3.org/2000/svg" 
 version="1.1" 
 width="1000" 
 height="1070" 
 id="svg2">
  <rect x="0" y="0" width="1000" height="1070" stroke-width="2" stroke="white" fill="white"/>
  <text x="12.5" y="30"
   font-family="Arial" font-size="25" fill="black" >
   Current time: 0 days, 1 hours, and 55.00 minutes, z = 0.00 &#956;m
  </text>
  <text x="12.5" y="57.5"
   font-family="Arial" font-size="23.75" fill="black" >
   161 agents
  </text>
 <g id="tissue" 
    transform="translate(0,1070) scale(1,-1)">
  <g id="ECM">
  </g>
  <g id="cells">
   <g id="cell0">
  <circle cx="427.52" cy="450.674" r="8.41271" stroke-width="0.5" stroke="black" fill="blue"/>
  <circle cx="427.52" cy="450.674" r="5.05167" stroke-width="0.5" stroke="blue" fill="blue"/>
   </g>
   <g id="cell1">
  <circle cx="426.006" cy="466.546" r="8.41271" stroke-width="0.5" stroke="black" fill="Red"/>
  <circle cx="426.006" cy="466.546" r="5.05167" stroke-width="0.5" stroke="Red" fill="Red"/>
   </g>
   <g id="cell2">
  <circle cx="427.237" cy="481.18" r="8.41271" stroke-width="0.5" stroke="black" fill="blue"/>
  <circle cx="427.237" cy="481.18" r="5.05167" stroke-width="0.5" stroke="blue" fill="blue"/>
   </g>
   <g id="cell3">
  <circle cx="428.402" cy="496.386" r="8.41271" stroke-width="0.5" stroke="black" fill="Red"/>
  <circle cx="428.402" cy="496.386" r="5.05167" stroke-width="0.5" stroke="Red" fill="Red"/>
   </g>
   <g id="cell4">
  <circle cx="430.879" cy="511.085" r="8.41271" stroke-width="0.5" stroke="black" fill="blue"/>
  <circle cx="430.879" cy="511.085" r="5.05167" stroke-width="0.5" stroke="blue" fill="blue"/>
   </g>
   <g id="cell5">
  <circle cx="424.29" cy="522.446" r="8.41271" stroke-width="0.5" stroke="black" fill="yellow"/>
  <circle cx="424.29" cy="522.446" r="5.05167" stroke-width="0.5" stroke="yellow" fill="yellow"/>
   </g>
   <g id="cell6">
  <circle cx="427.137" cy="535.165" r="8.41271" stroke-width="0.5" stroke="black" fill="blue"/>
  <circle cx="427.137" cy="535.165" r="5.05167" stroke-width="0.5" stroke="blue" fill="blue"/>
   </g>
   <g id="cell7">
  <circle cx="440.373" cy="447.591" r="7.1497" stroke-width="0.5" stroke="black" fill="Red"/>
  <circle cx="440.373" cy="447.591" r="4.34001" stroke-width="0.5" stroke="Red" fill="Red"/>
   </g>
   <g id="cell8">
  <circle cx="438.348" cy="459.499" r="8.41271" stroke-width="0.5" stroke="black" fill="Red"/>
  <circle cx="438.348" cy="459.499" r="5.05167" stroke-width="0.5" stroke="Red" fill="Red"/>
   </g>
   <g id="cell9">
  <circle cx="439.609" cy="473.997" r="8.41271" stroke-width="0.5" stroke="black" fill="Red"/>
  <circle cx="439.609" cy="473.997" r="5.05167" stroke-width="0.5" stroke="Red" fill="Red"/>
   </g>
   <g id="cell10">
  <circle cx="440.155" cy="487.717" r="8.41271" stroke-width="0.5" stroke="black" fill="Red"/>
  <circle cx="440.155" cy="487.717" r="5.05167" stroke-width="0.5" stroke="Red" fill="Red"/>
   </g>
   <g id="cell11">
  <circle cx="441.84" cy="502.629" r="8.41271" stroke-width="0.5" stroke="black" fill="Red"/>
  <circle cx="441.84" cy="502.629" r="5.05167" stroke-width="0.5" stroke="Red" fill="Red"/>
   </g>
   <g id="cell12">
  <circle cx="437.869" cy="520.629" r="6.86652" stroke-width="0.5" stroke="black" fill="yellow"/>
  <circle cx="437.869" cy="520.629" r="4.14883" stroke-width="0.5" stroke="yellow" fill="yellow"/>
   </g>
   <g id="cell13">
  <circle cx="440.178" cy="531.568" r="8.41271" stroke-width="0.5" stroke="black" fill="yellow"/>
  <circle cx="440.178" cy="531.568" r="5.05167" stroke-width="0.5" stroke="yellow" fill="yellow"/>
   </g>
   <g id="cell14">
  <circle cx="438.84" cy="546.102" r="8.41271" stroke-width="0.5" stroke="black" fill="yellow"/>
  <circle cx="438.84" cy="546.102" r="5.05167" stroke-width="0.5" stroke="yellow" fill="yellow"/>
   </g>
   <g id="cell15">
  <circle cx="439.874" cy="561.024" r="8.41271" stroke-width="0.5" stroke="black" fill="blue"/>
  <circle cx="439.874" cy="561.024" r="5.05167" stroke-width="0.5" stroke="blue" fill="blue"/>
   </g>
   <g id="cell16">
  <circle cx="453.614" cy="428.074" r="5.60504" stroke-width="0.5" stroke="black" fill="Red"/>
  <circle cx="453.614" cy="428.074" r="3.40505" stroke-width="0.5" stroke="Red" fill="Red"/>
   </g>
   <g id="cell17">
  <circle cx="450.102" cy="439.383" r="8.41271" stroke-width="0.5" stroke="black" fill="Red"/>
  <circle cx="450.102" cy="439.383" r="5.05167" stroke-width="0.5" stroke="Red" fill="Red"/>
   </g>
   <g id="cell18">
  <circle cx="450.379" cy="453.842" r="8.41271" stroke-width="0.5" stroke="black" fill="Red"/>
  <circle cx="450.379" cy="453.842" r="5.05167" stroke-width="0.5" stroke="Red" fill="Red"/>
   </g>
   <g id="cell19">
  <circle cx="451.932" cy="467.569" r="8.41271" stroke-width="0.5" stroke="black" fill="blue"/>
  <circle cx="451.932" cy="467.569" r="5.05167" stroke-width="0.5" stroke="blue" fill="blue"/>
   </g>
   <g id="cell20">
  <circle cx="452.456" cy="481.033" r="8.41271" stroke-width="0.5" stroke="black" fill="Red"/>
  <circle cx="452.456" cy="481.033" r="5.05167" stroke-width="0.5" stroke="Red" fill="Red"/>
   </g>
   <g id="cell21">
  <circle cx="452.853" cy="494.364" r="8.41271" stroke-width="0.5" stroke="black" fill="Red"/>
  <circle cx="452.853" cy="494.364" r="5.05167" stroke-width="0.5" stroke="Red" fill="Red"/>
   </g>
   <g id="cell22">
  <circle cx="454.984" cy="508.463" r="8.41271" stroke-width="0.5" stroke="black" fill="blue"/>
  <circle cx="454.984" cy="508.463" r="5.05167" stroke-width="0.5" stroke="blue" fill="blue"/>
   </g>
   <g id="cell23">
  <circle cx="451.741" cy="522.242" r="8.41271" stroke-width="0.5" stroke="black" fill="Red"/>
  <circle cx="451.741" cy="522.242" r="5.05167" stroke-width="0.5" stroke="Red" fill="Red"/>
   </g>
   <g id="cell24">
  <circle cx="452.331" cy="537.914" r="8.41271" stroke-width="0.5" stroke="black" fill="blue"/>
  <circle cx="452.331" cy="537.914" r="5.05167" stroke-width="0.5" stroke="blue" fill="blue"/>
   </g>
   <g id="cell25">
  <circle cx="452.246" cy="553.169" r="8.41271" stroke-width="0.5" stroke="black" fill="Red"/>
  <circle cx="452.246" cy="553.169" r="5.05167" stroke-width="0.5" stroke="Red" fill="Red"/>
   </g>
   <g id="cell26">
  <circle cx="452.542" cy="569.027" r="8.41271" stroke-width="0.5" stroke="black" fill="yellow"/>
  <circle cx="452.542" cy="569.027" r="5.05167" stroke-width="0.5" stroke="yellow" fill="yellow"/>
   </g>
   <g id="cell27">
  <circle cx="462.686" cy="420.818" r="8.41271" stroke-width="0.5" stroke="black" fill="yellow"/>
  <circle cx="462.686" cy="420.818" r="5.05167" stroke-width="0.5" stroke="yellow" fill="yellow"/>
   </g>
   <g id="cell28">
  <circle cx="463.339" cy="434.062" r="8.41271" stroke-width="0.5" stroke="black" fill="blue"/>
  <circle cx="463.339" cy="434.062" r="5.05167" stroke-width="0.5" stroke="blue" fill="blue"/>
   </g>
   <g id="cell29">
  <circle cx="462.809" cy="446.857" r="8.41271" stroke-width="0.5" stroke="black" fill="blue"/>
  <circle cx="462.809" cy="446.857" r="5.05167" stroke-width="0.5" stroke="blue" fill="blue"/>
   </g>
   <g id="cell30">
  <circle cx="464.161" cy="461.246" r="8.41271" stroke-width="0.5" stroke="black" fill="Red"/>
  <circle cx="464.161" cy="461.246" r="5.05167" stroke-width="0.5" stroke="Red" fill="Red"/>
   </g>
   <g id="cell31">
  <circle cx="463.481" cy="474.464" r="8.41271" stroke-width="0.5" stroke="black" fill="Red"/>
  <circle cx="463.481" cy="474.464" r="5.05167" stroke-width="0.5" stroke="Red" fill="Red"/>
   </g>
   <g id="cell32">
  <circle cx="465.096" cy="487.596" r="8.41271" stroke-width="0.5" stroke="black" fill="blue"/>
  <circle cx="465.096" cy="487.596" r="5.05167" stroke-width="0.5" stroke="blue" fill="blue"/>
   </g>
   <g id="cell33">
  <circle cx="464.619" cy="500.486" r="8.41271" stroke-width="0.5" stroke="black" fill="Red"/>
  <circle cx="464.619" cy="500.486" r="5.05167" stroke-width="0.5" stroke="Red" fill="Red"/>
   </g>
   <g id="cell34">
  <circle cx="465.185" cy="517.166" r="8.41271" stroke-width="0.5" stroke="black" fill="Red"/>
  <circle cx="465.185" cy="517.166" r="5.05167" stroke-width="0.5" stroke="Red" fill="Red"/>
   </g>
   <g id="cell35">
  <circle cx="462.085" cy="529.08" r="8.41271" stroke-width="0.5" stroke="black" fill="Red"/>
  <circle cx="462.085" cy="529.08" r="5.05167" stroke-width="0.5" stroke="Red" fill="Red"/>
   </g>
   <g id="cell36">
  <circle cx="465.844" cy="542.718" r="8.41271" stroke-width="0.5" stroke="black" fill="Red"/>
  <circle cx="465.844" cy="542.718" r="5.05167" stroke-width="0.5" stroke="Red" fill="Red"/>
   </g>
   <g id="cell37">
  <circle cx="465.209" cy="557.904" r="8.41271" stroke-width="0.5" stroke="black" fill="Red"/>
  <circle cx="465.209" cy="557.904" r="5.05167" stroke-width="0.5" stroke="Red" fill="Red"/>
   </g>
   <g id="cell38">
  <circle cx="466.322" cy="571.244" r="8.41271" stroke-width="0.5" stroke="black" fill="Red"/>
  <circle cx="466.322" cy="571.244" r="5.05167" stroke-width="0.5" stroke="Red" fill="Red"/>
   </g>
   <g id="cell39">
  <circle cx="461.642" cy="582.631" r="8.41271" stroke-width="0.5" stroke="black" fill="blue"/>
  <circle cx="461.642" cy="582.631" r="5.05167" stroke-width="0.5" stroke="blue" fill="blue"/>
   </g>
   <g id="cell40">
  <circle cx="473.909" cy="412.845" r="8.41271" stroke-width="0.5" stroke="black" fill="blue"/>
  <circle cx="473.909" cy="412.845" r="5.05167" stroke-width="0.5" stroke="blue" fill="blue"/>
   </g>
   <g id="cell41">
  <circle cx="476.352" cy="427.287" r="8.41271" stroke-width="0.5" stroke="black" fill="yellow"/>
  <circle cx="476.352" cy="427.287" r="5.05167" stroke-width="0.5" stroke="yellow" fill="yellow"/>
   </g>
   <g id="cell42">
  <circle cx="475.762" cy="440.614" r="8.41271" stroke-width="0.5" stroke="black" fill="Red"/>
  <circle cx="475.762" cy="440.614" r="5.05167" stroke-width="0.5" stroke="Red" fill="Red"/>
   </g>
   <g id="cell43">
  <circle cx="474.734" cy="453.096" r="8.41271" stroke-width="0.5" stroke="black" fill="Red"/>
  <circle cx="474.734" cy="453.096" r="5.05167" stroke-width="0.5" stroke="Red" fill="Red"/>
   </g>
   <g id="cell44">
  <circle cx="476.206" cy="467.175" r="8.41271" stroke-width="0.5" stroke="black" fill="Red"/>
  <circle cx="476.206" cy="467.175" r="5.05167" stroke-width="0.5" stroke="Red" fill="Red"/>
   </g>
   <g id="cell45">
  <circle cx="476.777" cy="481.489" r="8.41271" stroke-width="0.5" stroke="black" fill="blue"/>
  <circle cx="476.777" cy="481.489" r="5.05167" stroke-width="0.5" stroke="blue" fill="blue"/>
   </g>
   <g id="cell46">
  <circle cx="477.408" cy="496.926" r="8.41271" stroke-width="0.5" stroke="black" fill="Red"/>
  <circle cx="477.408" cy="496.926" r="5.05167" stroke-width="0.5" stroke="Red" fill="Red"/>
   </g>
   <g id="cell47">
  <circle cx="471.738" cy="508.696" r="7.11815" stroke-width="0.5" stroke="black" fill="Red"/>
  <circle cx="471.738" cy="508.696" r="4.31954" stroke-width="0.5" stroke="Red" fill="Red"/>
   </g>
   <g id="cell48">
  <circle cx="476.889" cy="520.955" r="6.71158" stroke-width="0.5" stroke="black" fill="Red"/>
  <circle cx="476.889" cy="520.955" r="4.03435" stroke-width="0.5" stroke="Red" fill="Red"/>
   </g>
   <g id="cell49">
  <circle cx="477.589" cy="537.898" r="8.41271" stroke-width="0.5" stroke="black" fill="Red"/>
  <circle cx="477.589" cy="537.898" r="5.05167" stroke-width="0.5" stroke="Red" fill="Red"/>
   </g>
   <g id="cell50">
  <circle cx="476.839" cy="551.296" r="8.41271" stroke-width="0.5" stroke="black" fill="Red"/>
  <circle cx="476.839" cy="551.296" r="5.05167" stroke-width="0.5" stroke="Red" fill="Red"/>
   </g>
   <g id="cell51">
  <circle cx="478.693" cy="565.05" r="8.41271" stroke-width="0.5" stroke="black" fill="blue"/>
  <circle cx="478.693" cy="565.05" r="5.05167" stroke-width="0.5" stroke="blue" fill="blue"/>
   </g>
   <g id="cell52">
  <circle cx="478.131" cy="578.563" r="8.41271" stroke-width="0.5" stroke="black" fill="yellow"/>
  <circle cx="478.131" cy="578.563" r="5.05167" stroke-width="0.5" stroke="yellow" fill="yellow"/>
   </g>
   <g id="cell53">
  <circle cx="487.323" cy="418.949" r="8.41271" stroke-width="0.5" stroke="black" fill="yellow"/>
  <circle cx="487.323" cy="418.949" r="5.05167" stroke-width="0.5" stroke="yellow" fill="yellow"/>
   </g>
   <g id="cell54">
  <circle cx="488.298" cy="435.508" r="8.41271" stroke-width="0.5" stroke="black" fill="blue"/>
  <circle cx="488.298" cy="435.508" r="5.05167" stroke-width="0.5" stroke="blue" fill="blue"/>
   </g>
   <g id="cell55">
  <circle cx="487.614" cy="448.638" r="8.41271" stroke-width="0.5" stroke="black" fill="Red"/>
  <circle cx="487.614" cy="448.638" r="5.05167" stroke-width="0.5" stroke="Red" fill="Red"/>
   </g>
   <g id="cell56">
  <circle cx="492.996" cy="464.42" r="6.80881" stroke-width="0.5" stroke="black" fill="blue"/>
  <circle cx="492.996" cy="464.42" r="4.10709" stroke-width="0.5" stroke="blue" fill="blue"/>
   </g>
   <g id="cell57">
  <circle cx="487.59" cy="474.565" r="8.41271" stroke-width="0.5" stroke="black" fill="Red"/>
  <circle cx="487.59" cy="474.565" r="5.05167" stroke-width="0.5" stroke="Red" fill="Red"/>
   </g>
   <g id="cell58">
  <circle cx="488.542" cy="488.378" r="8.41271" stroke-width="0.5" stroke="black" fill="blue"/>
  <circle cx="488.542" cy="488.378" r="5.05167" stroke-width="0.5" stroke="blue" fill="blue"/>
   </g>
   <g id="cell59">
  <circle cx="489.576" cy="503.649" r="8.41271" stroke-width="0.5" stroke="black" fill="Red"/>
  <circle cx="489.576" cy="503.649" r="5.05167" stroke-width="0.5" stroke="Red" fill="Red"/>
   </g>
   <g id="cell60">
  <circle cx="491.107" cy="517.364" r="8.41271" stroke-width="0.5" stroke="black" fill="Red"/>
  <circle cx="491.107" cy="517.364" r="5.05167" stroke-width="0.5" stroke="Red" fill="Red"/>
   </g>
   <g id="cell61">
  <circle cx="487.263" cy="529.121" r="8.41271" stroke-width="0.5" stroke="black" fill="Red"/>
  <circle cx="487.263" cy="529.121" r="5.05167" stroke-width="0.5" stroke="Red" fill="Red"/>
   </g>
   <g id="cell62">
  <circle cx="489.5" cy="544.149" r="8.41271" stroke-width="0.5" stroke="black" fill="blue"/>
  <circle cx="489.5" cy="544.149" r="5.05167" stroke-width="0.5" stroke="blue" fill="blue"/>
   </g>
   <g id="cell63">
  <circle cx="489.756" cy="556.778" r="8.41271" stroke-width="0.5" stroke="black" fill="Red"/>
  <circle cx="489.756" cy="556.778" r="5.05167" stroke-width="0.5" stroke="Red" fill="Red"/>
   </g>
   <g id="cell64">
  <circle cx="491.446" cy="570.065" r="8.41271" stroke-width="0.5" stroke="black" fill="Red"/>
  <circle cx="491.446" cy="570.065" r="5.05167" stroke-width="0.5" stroke="Red" fill="Red"/>
   </g>
   <g id="cell65">
  <circle cx="490.572" cy="584.394" r="8.41271" stroke-width="0.5" stroke="black" fill="Red"/>
  <circle cx="490.572" cy="584.394" r="5.05167" stroke-width="0.5" stroke="Red" fill="Red"/>
   </g>
   <g id="cell66">
  <circle cx="500.03" cy="412.966" r="8.41271" stroke-width="0.5" stroke="black" fill="blue"/>
  <circle cx="500.03" cy="412.966" r="5.05167" stroke-width="0.5" stroke="blue" fill="blue"/>
   </g>
   <g id="cell67">
  <circle cx="500.189" cy="427.209" r="8.41271" stroke-width="0.5" stroke="black" fill="yellow"/>
  <circle cx="500.189" cy="427.209" r="5.05167" stroke-width="0.5" stroke="yellow" fill="yellow"/>
   </g>
   <g id="cell68">
  <circle cx="500.698" cy="440.374" r="8.41271" stroke-width="0.5" stroke="black" fill="Red"/>
  <circle cx="500.698" cy="440.374" r="5.05167" stroke-width="0.5" stroke="Red" fill="Red"/>
   </g>
   <g id="cell69">
  <circle cx="500.452" cy="454.308" r="8.41271" stroke-width="0.5" stroke="black" fill="Red"/>
  <circle cx="500.452" cy="454.308" r="5.05167" stroke-width="0.5" stroke="Red" fill="Red"/>
   </g>
   <g id="cell70">
  <circle cx="501.403" cy="468.134" r="8.41271" stroke-width="0.5" stroke="black" fill="Red"/>
  <circle cx="501.403" cy="468.134" r="5.05167" stroke-width="0.5" stroke="Red" fill="Red"/>
   </g>
   <g id="cell71">
  <circle cx="499.763" cy="480.65" r="8.41271" stroke-width="0.5" stroke="black" fill="Red"/>
  <circle cx="499.763" cy="480.65" r="5.05167" stroke-width="0.5" stroke="Red" fill="Red"/>
   </g>
   <g id="cell72">
  <circle cx="500.575" cy="495.15" r="8.41271" stroke-width="0.5" stroke="black" fill="Red"/>
  <circle cx="500.575" cy="495.15" r="5.05167" stroke-width="0.5" stroke="Red" fill="Red"/>
   </g>
   <g id="cell73">
  <circle cx="502.044" cy="509.9" r="8.41271" stroke-width="0.5" stroke="black" fill="Red"/>
  <circle cx="502.044" cy="509.9" r="5.05167" stroke-width="0.5" stroke="Red" fill="Red"/>
   </g>
   <g id="cell74">
  <circle cx="503.774" cy="523.096" r="8.41271" stroke-width="0.5" stroke="black" fill="Red"/>
  <circle cx="503.774" cy="523.096" r="5.05167" stroke-width="0.5" stroke="Red" fill="Red"/>
   </g>
   <g id="cell75">
  <circle cx="500.416" cy="534.979" r="8.41271" stroke-width="0.5" stroke="black" fill="Red"/>
  <circle cx="500.416" cy="534.979" r="5.05167" stroke-width="0.5" stroke="Red" fill="Red"/>
   </g>
   <g id="cell76">
  <circle cx="501.323" cy="549.478" r="8.41271" stroke-width="0.5" stroke="black" fill="Red"/>
  <circle cx="501.323" cy="549.478" r="5.05167" stroke-width="0.5" stroke="Red" fill="Red"/>
   </g>
   <g id="cell77">
  <circle cx="504.887" cy="566.882" r="6.69288" stroke-width="0.5" stroke="black" fill="Red"/>
  <circle cx="504.887" cy="566.882" r="4.02051" stroke-width="0.5" stroke="Red" fill="Red"/>
   </g>
   <g id="cell78">
  <circle cx="502.619" cy="578.07" r="8.41271" stroke-width="0.5" stroke="black" fill="yellow"/>
  <circle cx="502.619" cy="578.07" r="5.05167" stroke-width="0.5" stroke="yellow" fill="yellow"/>
   </g>
   <g id="cell79">
  <circle cx="501.577" cy="592.022" r="8.41271" stroke-width="0.5" stroke="black" fill="blue"/>
  <circle cx="501.577" cy="592.022" r="5.05167" stroke-width="0.5" stroke="blue" fill="blue"/>
   </g>
   <g id="cell80">
  <circle cx="512.666" cy="416.787" r="8.41271" stroke-width="0.5" stroke="black" fill="yellow"/>
  <circle cx="512.666" cy="416.787" r="5.05167" stroke-width="0.5" stroke="yellow" fill="yellow"/>
   </g>
   <g id="cell81">
  <circle cx="512.292" cy="433.11" r="8.41271" stroke-width="0.5" stroke="black" fill="blue"/>
  <circle cx="512.292" cy="433.11" r="5.05167" stroke-width="0.5" stroke="blue" fill="blue"/>
   </g>
   <g id="cell82">
  <circle cx="513.574" cy="446.672" r="8.41271" stroke-width="0.5" stroke="black" fill="Red"/>
  <circle cx="513.574" cy="446.672" r="5.05167" stroke-width="0.5" stroke="Red" fill="Red"/>
   </g>
   <g id="cell83">
  <circle cx="513.11" cy="459.709" r="8.41271" stroke-width="0.5" stroke="black" fill="Red"/>
  <circle cx="513.11" cy="459.709" r="5.05167" stroke-width="0.5" stroke="Red" fill="Red"/>
   </g>
   <g id="cell84">
  <circle cx="513.024" cy="474.983" r="8.41271" stroke-width="0.5" stroke="black" fill="Red"/>
  <circle cx="513.024" cy="474.983" r="5.05167" stroke-width="0.5" stroke="Red" fill="Red"/>
   </g>
   <g id="cell85">
  <circle cx="511.723" cy="487.396" r="8.41271" stroke-width="0.5" stroke="black" fill="blue"/>
  <circle cx="511.723" cy="487.396" r="5.05167" stroke-width="0.5" stroke="blue" fill="blue"/>
   </g>
   <g id="cell86">
  <circle cx="513.198" cy="500.633" r="8.41271" stroke-width="0.5" stroke="black" fill="Red"/>
  <circle cx="513.198" cy="500.633" r="5.05167" stroke-width="0.5" stroke="Red" fill="Red"/>
   </g>
   <g id="cell87">
  <circle cx="513.372" cy="511.181" r="6.75639" stroke-width="0.5" stroke="black" fill="Red"/>
  <circle cx="513.372" cy="511.181" r="4.06813" stroke-width="0.5" stroke="Red" fill="Red"/>
   </g>
   <g id="cell88">
  <circle cx="514.194" cy="531.5" r="8.41271" stroke-width="0.5" stroke="black" fill="Red"/>
  <circle cx="514.194" cy="531.5" r="5.05167" stroke-width="0.5" stroke="Red" fill="Red"/>
   </g>
   <g id="cell89">
  <circle cx="512.434" cy="544.443" r="8.41271" stroke-width="0.5" stroke="black" fill="Red"/>
  <circle cx="512.434" cy="544.443" r="5.05167" stroke-width="0.5" stroke="Red" fill="Red"/>
   </g>
   <g id="cell90">
  <circle cx="514.025" cy="557.792" r="8.41271" stroke-width="0.5" stroke="black" fill="blue"/>
  <circle cx="514.025" cy="557.792" r="5.05167" stroke-width="0.5" stroke="blue" fill="blue"/>
   </g>
   <g id="cell91">
  <circle cx="514.854" cy="571.007" r="8.41271" stroke-width="0.5" stroke="black" fill="Red"/>
  <circle cx="514.854" cy="571.007" r="5.05167" stroke-width="0.5" stroke="Red" fill="Red"/>
   </g>
   <g id="cell92">
  <circle cx="515.404" cy="585.856" r="8.41271" stroke-width="0.5" stroke="black" fill="yellow"/>
  <circle cx="515.404" cy="585.856" r="5.05167" stroke-width="0.5" stroke="yellow" fill="yellow"/>
   </g>
   <g id="cell93">
  <circle cx="526.318" cy="415.68" r="8.41271" stroke-width="0.5" stroke="black" fill="blue"/>
  <circle cx="526.318" cy="415.68" r="5.05167" stroke-width="0.5" stroke="blue" fill="blue"/>
   </g>
   <g id="cell94">
  <circle cx="531.916" cy="426.591" r="6.78181" stroke-width="0.5" stroke="black" fill="Red"/>
  <circle cx="531.916" cy="426.591" r="4.08714" stroke-width="0.5" stroke="Red" fill="Red"/>
   </g>
   <g id="cell95">
  <circle cx="525.959" cy="438.955" r="8.41271" stroke-width="0.5" stroke="black" fill="Red"/>
  <circle cx="525.959" cy="438.955" r="5.05167" stroke-width="0.5" stroke="Red" fill="Red"/>
   </g>
   <g id="cell96">
  <circle cx="523.898" cy="452.569" r="7.11815" stroke-width="0.5" stroke="black" fill="blue"/>
  <circle cx="523.898" cy="452.569" r="4.31954" stroke-width="0.5" stroke="blue" fill="blue"/>
   </g>
   <g id="cell97">
  <circle cx="523.898" cy="467.313" r="8.41271" stroke-width="0.5" stroke="black" fill="yellow"/>
  <circle cx="523.898" cy="467.313" r="5.05167" stroke-width="0.5" stroke="yellow" fill="yellow"/>
   </g>
   <g id="cell98">
  <circle cx="527.249" cy="480.924" r="8.41271" stroke-width="0.5" stroke="black" fill="yellow"/>
  <circle cx="527.249" cy="480.924" r="5.05167" stroke-width="0.5" stroke="yellow" fill="yellow"/>
   </g>
   <g id="cell99">
  <circle cx="526.016" cy="494.979" r="8.41271" stroke-width="0.5" stroke="black" fill="Red"/>
  <circle cx="526.016" cy="494.979" r="5.05167" stroke-width="0.5" stroke="Red" fill="Red"/>
   </g>
   <g id="cell100">
  <circle cx="526.124" cy="509.869" r="8.41271" stroke-width="0.5" stroke="black" fill="Red"/>
  <circle cx="526.124" cy="509.869" r="5.05167" stroke-width="0.5" stroke="Red" fill="Red"/>
   </g>
   <g id="cell101">
  <circle cx="524.829" cy="524.074" r="8.41271" stroke-width="0.5" stroke="black" fill="Red"/>
  <circle cx="524.829" cy="524.074" r="5.05167" stroke-width="0.5" stroke="Red" fill="Red"/>
   </g>
   <g id="cell102">
  <circle cx="531.038" cy="532.302" r="7.02257" stroke-width="0.5" stroke="black" fill="Red"/>
  <circle cx="531.038" cy="532.302" r="4.25644" stroke-width="0.5" stroke="Red" fill="Red"/>
   </g>
   <g id="cell103">
  <circle cx="525.993" cy="550.354" r="8.41271" stroke-width="0.5" stroke="black" fill="Red"/>
  <circle cx="525.993" cy="550.354" r="5.05167" stroke-width="0.5" stroke="Red" fill="Red"/>
   </g>
   <g id="cell104">
  <circle cx="527.658" cy="564.076" r="8.41271" stroke-width="0.5" stroke="black" fill="Red"/>
  <circle cx="527.658" cy="564.076" r="5.05167" stroke-width="0.5" stroke="Red" fill="Red"/>
   </g>
   <g id="cell105">
  <circle cx="527.13" cy="577.719" r="8.41271" stroke-width="0.5" stroke="black" fill="blue"/>
  <circle cx="527.13" cy="577.719" r="5.05167" stroke-width="0.5" stroke="blue" fill="blue"/>
   </g>
   <g id="cell106">
  <circle cx="541.733" cy="419.629" r="8.41271" stroke-width="0.5" stroke="black" fill="yellow"/>
  <circle cx="541.733" cy="419.629" r="5.05167" stroke-width="0.5" stroke="yellow" fill="yellow"/>
   </g>
   <g id="cell107">
  <circle cx="539.624" cy="435.184" r="8.41271" stroke-width="0.5" stroke="black" fill="yellow"/>
  <circle cx="539.624" cy="435.184" r="5.05167" stroke-width="0.5" stroke="yellow" fill="yellow"/>
   </g>
   <g id="cell108">
  <circle cx="537.005" cy="449.233" r="8.41271" stroke-width="0.5" stroke="black" fill="Red"/>
  <circle cx="537.005" cy="449.233" r="5.05167" stroke-width="0.5" stroke="Red" fill="Red"/>
   </g>
   <g id="cell109">
  <circle cx="543.563" cy="463.273" r="8.41271" stroke-width="0.5" stroke="black" fill="yellow"/>
  <circle cx="543.563" cy="463.273" r="5.05167" stroke-width="0.5" stroke="yellow" fill="yellow"/>
   </g>
   <g id="cell110">
  <circle cx="541.687" cy="476.701" r="8.41271" stroke-width="0.5" stroke="black" fill="yellow"/>
  <circle cx="541.687" cy="476.701" r="5.05167" stroke-width="0.5" stroke="yellow" fill="yellow"/>
   </g>
   <g id="cell111">
  <circle cx="539.182" cy="489.229" r="8.41271" stroke-width="0.5" stroke="black" fill="blue"/>
  <circle cx="539.182" cy="489.229" r="5.05167" stroke-width="0.5" stroke="blue" fill="blue"/>
   </g>
   <g id="cell112">
  <circle cx="539.709" cy="502.738" r="8.41271" stroke-width="0.5" stroke="black" fill="Red"/>
  <circle cx="539.709" cy="502.738" r="5.05167" stroke-width="0.5" stroke="Red" fill="Red"/>
   </g>
   <g id="cell113">
  <circle cx="536.779" cy="516.506" r="8.41271" stroke-width="0.5" stroke="black" fill="Red"/>
  <circle cx="536.779" cy="516.506" r="5.05167" stroke-width="0.5" stroke="Red" fill="Red"/>
   </g>
   <g id="cell114">
  <circle cx="541.884" cy="529.59" r="8.41271" stroke-width="0.5" stroke="black" fill="Red"/>
  <circle cx="541.884" cy="529.59" r="5.05167" stroke-width="0.5" stroke="Red" fill="Red"/>
   </g>
   <g id="cell115">
  <circle cx="537.571" cy="542.501" r="8.41271" stroke-width="0.5" stroke="black" fill="Red"/>
  <circle cx="537.571" cy="542.501" r="5.05167" stroke-width="0.5" stroke="Red" fill="Red"/>
   </g>
   <g id="cell116">
  <circle cx="538.598" cy="556.475" r="8.41271" stroke-width="0.5" stroke="black" fill="Red"/>
  <circle cx="538.598" cy="556.475" r="5.05167" stroke-width="0.5" stroke="Red" fill="Red"/>
   </g>
   <g id="cell117">
  <circle cx="539.199" cy="571.52" r="8.41271" stroke-width="0.5" stroke="black" fill="blue"/>
  <circle cx="539.199" cy="571.52" r="5.05167" stroke-width="0.5" stroke="blue" fill="blue"/>
   </g>
   <g id="cell118">
  <circle cx="552.855" cy="428.999" r="8.41271" stroke-width="0.5" stroke="black" fill="blue"/>
  <circle cx="552.855" cy="428.999" r="5.05167" stroke-width="0.5" stroke="blue" fill="blue"/>
   </g>
   <g id="cell119">
  <circle cx="551.052" cy="442.59" r="8.41271" stroke-width="0.5" stroke="black" fill="Red"/>
  <circle cx="551.052" cy="442.59" r="5.05167" stroke-width="0.5" stroke="Red" fill="Red"/>
   </g>
   <g id="cell120">
  <circle cx="557.189" cy="455.323" r="6.75639" stroke-width="0.5" stroke="black" fill="Red"/>
  <circle cx="557.189" cy="455.323" r="4.06813" stroke-width="0.5" stroke="Red" fill="Red"/>
   </g>
   <g id="cell121">
  <circle cx="555.608" cy="465.762" r="8.41271" stroke-width="0.5" stroke="black" fill="Red"/>
  <circle cx="555.608" cy="465.762" r="5.05167" stroke-width="0.5" stroke="Red" fill="Red"/>
   </g>
   <g id="cell122">
  <circle cx="552.746" cy="480.588" r="8.41271" stroke-width="0.5" stroke="black" fill="Red"/>
  <circle cx="552.746" cy="480.588" r="5.05167" stroke-width="0.5" stroke="Red" fill="Red"/>
   </g>
   <g id="cell123">
  <circle cx="551.501" cy="494.369" r="8.41271" stroke-width="0.5" stroke="black" fill="Red"/>
  <circle cx="551.501" cy="494.369" r="5.05167" stroke-width="0.5" stroke="Red" fill="Red"/>
   </g>
   <g id="cell124">
  <circle cx="551.951" cy="508.983" r="8.41271" stroke-width="0.5" stroke="black" fill="Red"/>
  <circle cx="551.951" cy="508.983" r="5.05167" stroke-width="0.5" stroke="Red" fill="Red"/>
   </g>
   <g id="cell125">
  <circle cx="548.194" cy="519.1" r="6.78181" stroke-width="0.5" stroke="black" fill="Red"/>
  <circle cx="548.194" cy="519.1" r="4.08714" stroke-width="0.5" stroke="Red" fill="Red"/>
   </g>
   <g id="cell126">
  <circle cx="552.56" cy="536.254" r="8.41271" stroke-width="0.5" stroke="black" fill="Red"/>
  <circle cx="552.56" cy="536.254" r="5.05167" stroke-width="0.5" stroke="Red" fill="Red"/>
   </g>
   <g id="cell127">
  <circle cx="551.217" cy="550.25" r="8.41271" stroke-width="0.5" stroke="black" fill="yellow"/>
  <circle cx="551.217" cy="550.25" r="5.05167" stroke-width="0.5" stroke="yellow" fill="yellow"/>
   </g>
   <g id="cell128">
  <circle cx="550.775" cy="564.7" r="8.41271" stroke-width="0.5" stroke="black" fill="Red"/>
  <circle cx="550.775" cy="564.7" r="5.05167" stroke-width="0.5" stroke="Red" fill="Red"/>
   </g>
   <g id="cell129">
  <circle cx="573.682" cy="445.744" r="6.73287" stroke-width="0.5" stroke="black" fill="blue"/>
  <circle cx="573.682" cy="445.744" r="4.05039" stroke-width="0.5" stroke="blue" fill="blue"/>
   </g>
   <g id="cell130">
  <circle cx="569.36" cy="459.18" r="8.41271" stroke-width="0.5" stroke="black" fill="yellow"/>
  <circle cx="569.36" cy="459.18" r="5.05167" stroke-width="0.5" stroke="yellow" fill="yellow"/>
   </g>
   <g id="cell131">
  <circle cx="566.007" cy="474.449" r="8.41271" stroke-width="0.5" stroke="black" fill="Red"/>
  <circle cx="566.007" cy="474.449" r="5.05167" stroke-width="0.5" stroke="Red" fill="Red"/>
   </g>
   <g id="cell132">
  <circle cx="563.523" cy="487.753" r="8.41271" stroke-width="0.5" stroke="black" fill="blue"/>
  <circle cx="563.523" cy="487.753" r="5.05167" stroke-width="0.5" stroke="blue" fill="blue"/>
   </g>
   <g id="cell133">
  <circle cx="562.452" cy="501.369" r="8.41271" stroke-width="0.5" stroke="black" fill="Red"/>
  <circle cx="562.452" cy="501.369" r="5.05167" stroke-width="0.5" stroke="Red" fill="Red"/>
   </g>
   <g id="cell134">
  <circle cx="563.767" cy="516.303" r="8.41271" stroke-width="0.5" stroke="black" fill="Red"/>
  <circle cx="563.767" cy="516.303" r="5.05167" stroke-width="0.5" stroke="Red" fill="Red"/>
   </g>
   <g id="cell135">
  <circle cx="566.657" cy="530.072" r="8.41271" stroke-width="0.5" stroke="black" fill="yellow"/>
  <circle cx="566.657" cy="530.072" r="5.05167" stroke-width="0.5" stroke="yellow" fill="yellow"/>
   </g>
   <g id="cell136">
  <circle cx="565.076" cy="543.904" r="8.41271" stroke-width="0.5" stroke="black" fill="yellow"/>
  <circle cx="565.076" cy="543.904" r="5.05167" stroke-width="0.5" stroke="yellow" fill="yellow"/>
   </g>
   <g id="cell137">
  <circle cx="563.712" cy="558.018" r="8.41271" stroke-width="0.5" stroke="black" fill="blue"/>
  <circle cx="563.712" cy="558.018" r="5.05167" stroke-width="0.5" stroke="blue" fill="blue"/>
   </g>
   <g id="cell138">
  <circle cx="579.46" cy="470.362" r="8.41271" stroke-width="0.5" stroke="black" fill="blue"/>
  <circle cx="579.46" cy="470.362" r="5.05167" stroke-width="0.5" stroke="blue" fill="blue"/>
   </g>
   <g id="cell139">
  <circle cx="577.49" cy="484.269" r="8.41271" stroke-width="0.5" stroke="black" fill="yellow"/>
  <circle cx="577.49" cy="484.269" r="5.05167" stroke-width="0.5" stroke="yellow" fill="yellow"/>
   </g>
   <g id="cell140">
  <circle cx="572.511" cy="495.244" r="7.1497" stroke-width="0.5" stroke="black" fill="yellow"/>
  <circle cx="572.511" cy="495.244" r="4.34001" stroke-width="0.5" stroke="yellow" fill="yellow"/>
   </g>
   <g id="cell141">
  <circle cx="575.741" cy="507.581" r="8.41271" stroke-width="0.5" stroke="black" fill="Red"/>
  <circle cx="575.741" cy="507.581" r="5.05167" stroke-width="0.5" stroke="Red" fill="Red"/>
   </g>
   <g id="cell142">
  <circle cx="577.204" cy="521.635" r="8.41271" stroke-width="0.5" stroke="black" fill="yellow"/>
  <circle cx="577.204" cy="521.635" r="5.05167" stroke-width="0.5" stroke="yellow" fill="yellow"/>
   </g>
   <g id="cell143">
  <circle cx="579.162" cy="536.15" r="8.41271" stroke-width="0.5" stroke="black" fill="blue"/>
  <circle cx="579.162" cy="536.15" r="5.05167" stroke-width="0.5" stroke="blue" fill="blue"/>
   </g>
   <g id="cell144">
  <circle cx="438.296" cy="437.471" r="7.1497" stroke-width="0.5" stroke="black" fill="Red"/>
  <circle cx="438.296" cy="437.471" r="4.34001" stroke-width="0.5" stroke="Red" fill="Red"/>
   </g>
   <g id="cell145">
  <circle cx="583.465" cy="497.233" r="7.1497" stroke-width="0.5" stroke="black" fill="blue"/>
  <circle cx="583.465" cy="497.233" r="4.34001" stroke-width="0.5" stroke="blue" fill="blue"/>
   </g>
   <g id="cell146">
  <circle cx="479.277" cy="512.181" r="7.11815" stroke-width="0.5" stroke="black" fill="blue"/>
  <circle cx="479.277" cy="512.181" r="4.31954" stroke-width="0.5" stroke="blue" fill="blue"/>
   </g>
   <g id="cell147">
  <circle cx="532.252" cy="458.714" r="6.11768" stroke-width="0.5" stroke="black" fill="yellow"/>
  <circle cx="532.252" cy="458.714" r="3.74909" stroke-width="0.5" stroke="yellow" fill="yellow"/>
   </g>
   <g id="cell148">
  <circle cx="523.206" cy="539.064" r="7.02257" stroke-width="0.5" stroke="black" fill="blue"/>
  <circle cx="523.206" cy="539.064" r="4.25644" stroke-width="0.5" stroke="blue" fill="blue"/>
   </g>
   <g id="cell149">
  <circle cx="534.17" cy="468.877" r="6.11768" stroke-width="0.5" stroke="black" fill="blue"/>
  <circle cx="534.17" cy="468.877" r="3.74909" stroke-width="0.5" stroke="blue" fill="blue"/>
   </g>
   <g id="cell150">
  <circle cx="443.451" cy="512.594" r="6.86652" stroke-width="0.5" stroke="black" fill="Red"/>
  <circle cx="443.451" cy="512.594" r="4.14883" stroke-width="0.5" stroke="Red" fill="Red"/>
   </g>
   <g id="cell151">
  <circle cx="448.583" cy="417.94" r="6.86652" stroke-width="0.5" stroke="black" fill="blue"/>
  <circle cx="448.583" cy="417.94" r="4.14883" stroke-width="0.5" stroke="blue" fill="blue"/>
   </g>
   <g id="cell152">
  <circle cx="485.228" cy="460.154" r="6.80881" stroke-width="0.5" stroke="black" fill="Red"/>
  <circle cx="485.228" cy="460.154" r="4.10709" stroke-width="0.5" stroke="Red" fill="Red"/>
   </g>
   <g id="cell153">
  <circle cx="520.762" cy="426.388" r="6.78181" stroke-width="0.5" stroke="black" fill="Red"/>
  <circle cx="520.762" cy="426.388" r="4.08714" stroke-width="0.5" stroke="Red" fill="Red"/>
   </g>
   <g id="cell154">
  <circle cx="555.482" cy="524.818" r="6.78181" stroke-width="0.5" stroke="black" fill="blue"/>
  <circle cx="555.482" cy="524.818" r="4.08714" stroke-width="0.5" stroke="blue" fill="blue"/>
   </g>
   <g id="cell155">
  <circle cx="444.426" cy="428.197" r="5.60504" stroke-width="0.5" stroke="black" fill="yellow"/>
  <circle cx="444.426" cy="428.197" r="3.40505" stroke-width="0.5" stroke="yellow" fill="yellow"/>
   </g>
   <g id="cell156">
  <circle cx="514.254" cy="519.634" r="6.75639" stroke-width="0.5" stroke="black" fill="blue"/>
  <circle cx="514.254" cy="519.634" r="4.06813" stroke-width="0.5" stroke="blue" fill="blue"/>
   </g>
   <g id="cell157">
  <circle cx="548.837" cy="453.942" r="6.75639" stroke-width="0.5" stroke="black" fill="blue"/>
  <circle cx="548.837" cy="453.942" r="4.06813" stroke-width="0.5" stroke="blue" fill="blue"/>
   </g>
   <g id="cell158">
  <circle cx="562.443" cy="447.31" r="6.73287" stroke-width="0.5" stroke="black" fill="yellow"/>
  <circle cx="562.443" cy="447.31" r="4.05039" stroke-width="0.5" stroke="yellow" fill="yellow"/>
   </g>
   <g id="cell159">
  <circle cx="472.84" cy="528.937" r="6.71158" stroke-width="0.5" stroke="black" fill="Red"/>
  <circle cx="472.84" cy="528.937" r="4.03435" stroke-width="0.5" stroke="Red" fill="Red"/>
   </g>
   <g id="cell160">
  <circle cx="500.663" cy="559.625" r="6.69288" stroke-width="0.5" stroke="black" fill="blue"/>
  <circle cx="500.663" cy="559.625" r="4.02051" stroke-width="0.5" stroke="blue" fill="blue"/>
   </g>
  </g>
 </g>
  <rect x="775" y="1035" width="200" height="10" stroke-width="2" stroke="rgb(255,255,255)" fill="rgb(0,0,0)"/>
  <text x="781.25" y="1028.75"
   font-family="Arial" font-size="25" fill="black" >
   200 &#956;m
  </text>
  <text x="25" y="1045"
   font-family="Arial" font-size="18.75" fill="black" >
   0 days, 0 hours, 0 minutes, and 35.1722 seconds
  </text>
  <rect x="0" y="70" width="1000" height="1000" stroke-width="2" stroke="rgb(0,0,0)" fill="none"/>
</svg>
