<?xml version="1.0" encoding="UTF-8" standalone="no"?>
<!-- Created with PhysiCell (http://PhysiCell.MathCancer.org/) -->
<svg 
 xmlns:dc="http://purl.org/dc/elements/1.1/" 
 xmlns:cc="http://creativecommons.org/ns#" 
 xmlns:rdf="http://www.w3.org/1999/02/22-rdf-syntax-ns#" 
 xmlns:svg="http://www.w3.org/2000/svg" 
 xmlns="http://www.w3.org/2000/svg" 
 version="1.1" 
 width="1000" 
 height="1070" 
 id="svg2">
  <rect x="0" y="0" width="1000" height="1070" stroke-width="2" stroke="white" fill="white"/>
  <text x="12.5" y="30"
   font-family="Arial" font-size="25" fill="black" >
   Current time: 0 days, 6 hours, and 10.00 minutes, z = 0.00 &#956;m
  </text>
  <text x="12.5" y="57.5"
   font-family="Arial" font-size="23.75" fill="black" >
   200 agents
  </text>
 <g id="tissue" 
    transform="translate(0,1070) scale(1,-1)">
  <g id="ECM">
  </g>
  <g id="cells">
   <g id="cell0">
  <circle cx="422.284" cy="445.412" r="8.41271" stroke-width="0.5" stroke="black" fill="Red"/>
  <circle cx="422.284" cy="445.412" r="5.05167" stroke-width="0.5" stroke="Red" fill="Red"/>
   </g>
   <g id="cell1">
  <circle cx="424.394" cy="469.036" r="7.56839" stroke-width="0.5" stroke="black" fill="Red"/>
  <circle cx="424.394" cy="469.036" r="4.59998" stroke-width="0.5" stroke="Red" fill="Red"/>
   </g>
   <g id="cell2">
  <circle cx="425.017" cy="480.849" r="8.41271" stroke-width="0.5" stroke="black" fill="blue"/>
  <circle cx="425.017" cy="480.849" r="5.05167" stroke-width="0.5" stroke="blue" fill="blue"/>
   </g>
   <g id="cell3">
  <circle cx="420.05" cy="494.805" r="7.72056" stroke-width="0.5" stroke="black" fill="Red"/>
  <circle cx="420.05" cy="494.805" r="4.69003" stroke-width="0.5" stroke="Red" fill="Red"/>
   </g>
   <g id="cell4">
  <circle cx="424.413" cy="506.413" r="8.41271" stroke-width="0.5" stroke="black" fill="Red"/>
  <circle cx="424.413" cy="506.413" r="5.05167" stroke-width="0.5" stroke="Red" fill="Red"/>
   </g>
   <g id="cell5">
  <circle cx="415.884" cy="527.779" r="6.07872" stroke-width="0.5" stroke="black" fill="blue"/>
  <circle cx="415.884" cy="527.779" r="3.69364" stroke-width="0.5" stroke="blue" fill="blue"/>
   </g>
   <g id="cell6">
  <circle cx="425.723" cy="544" r="8.41271" stroke-width="0.5" stroke="black" fill="Red"/>
  <circle cx="425.723" cy="544" r="5.05167" stroke-width="0.5" stroke="Red" fill="Red"/>
   </g>
   <g id="cell7">
  <circle cx="436.339" cy="444.644" r="8.02418" stroke-width="0.5" stroke="black" fill="Red"/>
  <circle cx="436.339" cy="444.644" r="4.86209" stroke-width="0.5" stroke="Red" fill="Red"/>
   </g>
   <g id="cell8">
  <circle cx="432.844" cy="457.894" r="8.41271" stroke-width="0.5" stroke="black" fill="Red"/>
  <circle cx="432.844" cy="457.894" r="5.05167" stroke-width="0.5" stroke="Red" fill="Red"/>
   </g>
   <g id="cell9">
  <circle cx="437.43" cy="471.066" r="8.41271" stroke-width="0.5" stroke="black" fill="Red"/>
  <circle cx="437.43" cy="471.066" r="5.05167" stroke-width="0.5" stroke="Red" fill="Red"/>
   </g>
   <g id="cell10">
  <circle cx="438.806" cy="483.396" r="8.41271" stroke-width="0.5" stroke="black" fill="Red"/>
  <circle cx="438.806" cy="483.396" r="5.05167" stroke-width="0.5" stroke="Red" fill="Red"/>
   </g>
   <g id="cell11">
  <circle cx="436.004" cy="503.859" r="8.41271" stroke-width="0.5" stroke="black" fill="Red"/>
  <circle cx="436.004" cy="503.859" r="5.05167" stroke-width="0.5" stroke="Red" fill="Red"/>
   </g>
   <g id="cell12">
  <circle cx="432.4" cy="518.117" r="7.90853" stroke-width="0.5" stroke="black" fill="Red"/>
  <circle cx="432.4" cy="518.117" r="4.79791" stroke-width="0.5" stroke="Red" fill="Red"/>
   </g>
   <g id="cell13">
  <circle cx="437.43" cy="535.567" r="8.41271" stroke-width="0.5" stroke="black" fill="Red"/>
  <circle cx="437.43" cy="535.567" r="5.05167" stroke-width="0.5" stroke="Red" fill="Red"/>
   </g>
   <g id="cell14">
  <circle cx="437.977" cy="549.226" r="8.41271" stroke-width="0.5" stroke="black" fill="Red"/>
  <circle cx="437.977" cy="549.226" r="5.05167" stroke-width="0.5" stroke="Red" fill="Red"/>
   </g>
   <g id="cell15">
  <circle cx="438.047" cy="561.62" r="8.41271" stroke-width="0.5" stroke="black" fill="blue"/>
  <circle cx="438.047" cy="561.62" r="5.05167" stroke-width="0.5" stroke="blue" fill="blue"/>
   </g>
   <g id="cell16">
  <circle cx="452.67" cy="426.629" r="7.58126" stroke-width="0.5" stroke="black" fill="Red"/>
  <circle cx="452.67" cy="426.629" r="4.63027" stroke-width="0.5" stroke="Red" fill="Red"/>
   </g>
   <g id="cell17">
  <circle cx="447.483" cy="443.257" r="7.27253" stroke-width="0.5" stroke="black" fill="blue"/>
  <circle cx="447.483" cy="443.257" r="4.41835" stroke-width="0.5" stroke="blue" fill="blue"/>
   </g>
   <g id="cell18">
  <circle cx="446.227" cy="456.13" r="8.41271" stroke-width="0.5" stroke="black" fill="Red"/>
  <circle cx="446.227" cy="456.13" r="5.05167" stroke-width="0.5" stroke="Red" fill="Red"/>
   </g>
   <g id="cell19">
  <circle cx="448.546" cy="468.592" r="8.41271" stroke-width="0.5" stroke="black" fill="blue"/>
  <circle cx="448.546" cy="468.592" r="5.05167" stroke-width="0.5" stroke="blue" fill="blue"/>
   </g>
   <g id="cell20">
  <circle cx="451.176" cy="481.494" r="8.41271" stroke-width="0.5" stroke="black" fill="Red"/>
  <circle cx="451.176" cy="481.494" r="5.05167" stroke-width="0.5" stroke="Red" fill="Red"/>
   </g>
   <g id="cell21">
  <circle cx="445.355" cy="494.89" r="8.41271" stroke-width="0.5" stroke="black" fill="Red"/>
  <circle cx="445.355" cy="494.89" r="5.05167" stroke-width="0.5" stroke="Red" fill="Red"/>
   </g>
   <g id="cell22">
  <circle cx="454.415" cy="504.231" r="8.41271" stroke-width="0.5" stroke="black" fill="Red"/>
  <circle cx="454.415" cy="504.231" r="5.05167" stroke-width="0.5" stroke="Red" fill="Red"/>
   </g>
   <g id="cell23">
  <circle cx="442.137" cy="524.392" r="8.41271" stroke-width="0.5" stroke="black" fill="Red"/>
  <circle cx="442.137" cy="524.392" r="5.05167" stroke-width="0.5" stroke="Red" fill="Red"/>
   </g>
   <g id="cell24">
  <circle cx="448.71" cy="541.315" r="8.41271" stroke-width="0.5" stroke="black" fill="Red"/>
  <circle cx="448.71" cy="541.315" r="5.05167" stroke-width="0.5" stroke="Red" fill="Red"/>
   </g>
   <g id="cell25">
  <circle cx="450.544" cy="556.041" r="8.41271" stroke-width="0.5" stroke="black" fill="yellow"/>
  <circle cx="450.544" cy="556.041" r="5.05167" stroke-width="0.5" stroke="yellow" fill="yellow"/>
   </g>
   <g id="cell26">
  <circle cx="444.505" cy="571.983" r="6.75639" stroke-width="0.5" stroke="black" fill="Red"/>
  <circle cx="444.505" cy="571.983" r="4.06813" stroke-width="0.5" stroke="Red" fill="Red"/>
   </g>
   <g id="cell27">
  <circle cx="463.375" cy="403.965" r="8.41271" stroke-width="0.5" stroke="black" fill="Red"/>
  <circle cx="463.375" cy="403.965" r="5.05167" stroke-width="0.5" stroke="Red" fill="Red"/>
   </g>
   <g id="cell28">
  <circle cx="463.872" cy="425.109" r="6.69288" stroke-width="0.5" stroke="black" fill="Red"/>
  <circle cx="463.872" cy="425.109" r="4.02051" stroke-width="0.5" stroke="Red" fill="Red"/>
   </g>
   <g id="cell29">
  <circle cx="458.836" cy="447.018" r="7.67987" stroke-width="0.5" stroke="black" fill="Red"/>
  <circle cx="458.836" cy="447.018" r="4.66617" stroke-width="0.5" stroke="Red" fill="Red"/>
   </g>
   <g id="cell30">
  <circle cx="458.457" cy="458.492" r="8.41271" stroke-width="0.5" stroke="black" fill="Red"/>
  <circle cx="458.457" cy="458.492" r="5.05167" stroke-width="0.5" stroke="Red" fill="Red"/>
   </g>
   <g id="cell31">
  <circle cx="460.391" cy="469.406" r="8.41271" stroke-width="0.5" stroke="black" fill="Red"/>
  <circle cx="460.391" cy="469.406" r="5.05167" stroke-width="0.5" stroke="Red" fill="Red"/>
   </g>
   <g id="cell32">
  <circle cx="464.124" cy="481.327" r="8.41271" stroke-width="0.5" stroke="black" fill="Red"/>
  <circle cx="464.124" cy="481.327" r="5.05167" stroke-width="0.5" stroke="Red" fill="Red"/>
   </g>
   <g id="cell33">
  <circle cx="458.504" cy="492.278" r="8.41271" stroke-width="0.5" stroke="black" fill="blue"/>
  <circle cx="458.504" cy="492.278" r="5.05167" stroke-width="0.5" stroke="blue" fill="blue"/>
   </g>
   <g id="cell34">
  <circle cx="453.013" cy="519.354" r="5.79448" stroke-width="0.5" stroke="black" fill="Red"/>
  <circle cx="453.013" cy="519.354" r="3.53652" stroke-width="0.5" stroke="Red" fill="Red"/>
   </g>
   <g id="cell35">
  <circle cx="460.383" cy="535.922" r="5.77221" stroke-width="0.5" stroke="black" fill="blue"/>
  <circle cx="460.383" cy="535.922" r="3.50685" stroke-width="0.5" stroke="blue" fill="blue"/>
   </g>
   <g id="cell36">
  <circle cx="461.177" cy="547.556" r="8.41271" stroke-width="0.5" stroke="black" fill="Red"/>
  <circle cx="461.177" cy="547.556" r="5.05167" stroke-width="0.5" stroke="Red" fill="Red"/>
   </g>
   <g id="cell37">
  <circle cx="463.95" cy="560.442" r="8.41271" stroke-width="0.5" stroke="black" fill="Red"/>
  <circle cx="463.95" cy="560.442" r="5.05167" stroke-width="0.5" stroke="Red" fill="Red"/>
   </g>
   <g id="cell38">
  <circle cx="465.695" cy="574.308" r="8.41271" stroke-width="0.5" stroke="black" fill="yellow"/>
  <circle cx="465.695" cy="574.308" r="5.05167" stroke-width="0.5" stroke="yellow" fill="yellow"/>
   </g>
   <g id="cell39">
  <circle cx="463.174" cy="587.262" r="7.51976" stroke-width="0.5" stroke="black" fill="blue"/>
  <circle cx="463.174" cy="587.262" r="4.57072" stroke-width="0.5" stroke="blue" fill="blue"/>
   </g>
   <g id="cell40">
  <circle cx="476.501" cy="397.21" r="8.41271" stroke-width="0.5" stroke="black" fill="blue"/>
  <circle cx="476.501" cy="397.21" r="5.05167" stroke-width="0.5" stroke="blue" fill="blue"/>
   </g>
   <g id="cell41">
  <circle cx="476.698" cy="411.891" r="8.41271" stroke-width="0.5" stroke="black" fill="yellow"/>
  <circle cx="476.698" cy="411.891" r="5.05167" stroke-width="0.5" stroke="yellow" fill="yellow"/>
   </g>
   <g id="cell42">
  <circle cx="479.243" cy="438.823" r="7.11815" stroke-width="0.5" stroke="black" fill="Red"/>
  <circle cx="479.243" cy="438.823" r="4.31954" stroke-width="0.5" stroke="Red" fill="Red"/>
   </g>
   <g id="cell43">
  <circle cx="470.295" cy="454.462" r="8.41271" stroke-width="0.5" stroke="black" fill="Red"/>
  <circle cx="470.295" cy="454.462" r="5.05167" stroke-width="0.5" stroke="Red" fill="Red"/>
   </g>
   <g id="cell44">
  <circle cx="471.525" cy="466.005" r="8.41271" stroke-width="0.5" stroke="black" fill="blue"/>
  <circle cx="471.525" cy="466.005" r="5.05167" stroke-width="0.5" stroke="blue" fill="blue"/>
   </g>
   <g id="cell45">
  <circle cx="475.986" cy="477.049" r="8.41271" stroke-width="0.5" stroke="black" fill="Red"/>
  <circle cx="475.986" cy="477.049" r="5.05167" stroke-width="0.5" stroke="Red" fill="Red"/>
   </g>
   <g id="cell46">
  <circle cx="471.466" cy="494.2" r="8.41271" stroke-width="0.5" stroke="black" fill="Red"/>
  <circle cx="471.466" cy="494.2" r="5.05167" stroke-width="0.5" stroke="Red" fill="Red"/>
   </g>
   <g id="cell47">
  <circle cx="466.32" cy="503.944" r="8.01277" stroke-width="0.5" stroke="black" fill="Red"/>
  <circle cx="466.32" cy="503.944" r="4.85584" stroke-width="0.5" stroke="Red" fill="Red"/>
   </g>
   <g id="cell48">
  <circle cx="479.428" cy="521.943" r="7.81315" stroke-width="0.5" stroke="black" fill="blue"/>
  <circle cx="479.428" cy="521.943" r="4.74367" stroke-width="0.5" stroke="blue" fill="blue"/>
   </g>
   <g id="cell49">
  <circle cx="474.62" cy="544.484" r="8.41271" stroke-width="0.5" stroke="black" fill="Red"/>
  <circle cx="474.62" cy="544.484" r="5.05167" stroke-width="0.5" stroke="Red" fill="Red"/>
   </g>
   <g id="cell50">
  <circle cx="482.401" cy="557.796" r="7.18097" stroke-width="0.5" stroke="black" fill="blue"/>
  <circle cx="482.401" cy="557.796" r="4.36015" stroke-width="0.5" stroke="blue" fill="blue"/>
   </g>
   <g id="cell51">
  <circle cx="476.787" cy="568.054" r="8.41271" stroke-width="0.5" stroke="black" fill="Red"/>
  <circle cx="476.787" cy="568.054" r="5.05167" stroke-width="0.5" stroke="Red" fill="Red"/>
   </g>
   <g id="cell52">
  <circle cx="477.143" cy="584.425" r="8.41271" stroke-width="0.5" stroke="black" fill="yellow"/>
  <circle cx="477.143" cy="584.425" r="5.05167" stroke-width="0.5" stroke="yellow" fill="yellow"/>
   </g>
   <g id="cell53">
  <circle cx="490.866" cy="406.038" r="8.41271" stroke-width="0.5" stroke="black" fill="Red"/>
  <circle cx="490.866" cy="406.038" r="5.05167" stroke-width="0.5" stroke="Red" fill="Red"/>
   </g>
   <g id="cell54">
  <circle cx="477.081" cy="426.514" r="8.41271" stroke-width="0.5" stroke="black" fill="Red"/>
  <circle cx="477.081" cy="426.514" r="5.05167" stroke-width="0.5" stroke="Red" fill="Red"/>
   </g>
   <g id="cell55">
  <circle cx="481.594" cy="449.091" r="7.67987" stroke-width="0.5" stroke="black" fill="Red"/>
  <circle cx="481.594" cy="449.091" r="4.66617" stroke-width="0.5" stroke="Red" fill="Red"/>
   </g>
   <g id="cell56">
  <circle cx="492.066" cy="457.402" r="7.87851" stroke-width="0.5" stroke="black" fill="blue"/>
  <circle cx="492.066" cy="457.402" r="4.78096" stroke-width="0.5" stroke="blue" fill="blue"/>
   </g>
   <g id="cell57">
  <circle cx="487.298" cy="471.506" r="8.41271" stroke-width="0.5" stroke="black" fill="Red"/>
  <circle cx="487.298" cy="471.506" r="5.05167" stroke-width="0.5" stroke="Red" fill="Red"/>
   </g>
   <g id="cell58">
  <circle cx="482.824" cy="486.894" r="8.41271" stroke-width="0.5" stroke="black" fill="blue"/>
  <circle cx="482.824" cy="486.894" r="5.05167" stroke-width="0.5" stroke="blue" fill="blue"/>
   </g>
   <g id="cell59">
  <circle cx="483.626" cy="498.462" r="7.21189" stroke-width="0.5" stroke="black" fill="Red"/>
  <circle cx="483.626" cy="498.462" r="4.37993" stroke-width="0.5" stroke="Red" fill="Red"/>
   </g>
   <g id="cell60">
  <circle cx="488.091" cy="514.895" r="8.41271" stroke-width="0.5" stroke="black" fill="Red"/>
  <circle cx="488.091" cy="514.895" r="5.05167" stroke-width="0.5" stroke="Red" fill="Red"/>
   </g>
   <g id="cell61">
  <circle cx="483.482" cy="532.999" r="8.41271" stroke-width="0.5" stroke="black" fill="Red"/>
  <circle cx="483.482" cy="532.999" r="5.05167" stroke-width="0.5" stroke="Red" fill="Red"/>
   </g>
   <g id="cell62">
  <circle cx="485.754" cy="546.552" r="8.41271" stroke-width="0.5" stroke="black" fill="Red"/>
  <circle cx="485.754" cy="546.552" r="5.05167" stroke-width="0.5" stroke="Red" fill="Red"/>
   </g>
   <g id="cell63">
  <circle cx="491.63" cy="563.081" r="8.41271" stroke-width="0.5" stroke="black" fill="Red"/>
  <circle cx="491.63" cy="563.081" r="5.05167" stroke-width="0.5" stroke="Red" fill="Red"/>
   </g>
   <g id="cell64">
  <circle cx="487.486" cy="574.545" r="8.41271" stroke-width="0.5" stroke="black" fill="blue"/>
  <circle cx="487.486" cy="574.545" r="5.05167" stroke-width="0.5" stroke="blue" fill="blue"/>
   </g>
   <g id="cell65">
  <circle cx="485.283" cy="596.9" r="7.02257" stroke-width="0.5" stroke="black" fill="Red"/>
  <circle cx="485.283" cy="596.9" r="4.25644" stroke-width="0.5" stroke="Red" fill="Red"/>
   </g>
   <g id="cell66">
  <circle cx="501.404" cy="414.236" r="8.41271" stroke-width="0.5" stroke="black" fill="blue"/>
  <circle cx="501.404" cy="414.236" r="5.05167" stroke-width="0.5" stroke="blue" fill="blue"/>
   </g>
   <g id="cell67">
  <circle cx="488.712" cy="419.393" r="8.41271" stroke-width="0.5" stroke="black" fill="Red"/>
  <circle cx="488.712" cy="419.393" r="5.05167" stroke-width="0.5" stroke="Red" fill="Red"/>
   </g>
   <g id="cell68">
  <circle cx="499.771" cy="427.458" r="8.41271" stroke-width="0.5" stroke="black" fill="Red"/>
  <circle cx="499.771" cy="427.458" r="5.05167" stroke-width="0.5" stroke="Red" fill="Red"/>
   </g>
   <g id="cell69">
  <circle cx="494.028" cy="443.576" r="8.41271" stroke-width="0.5" stroke="black" fill="Red"/>
  <circle cx="494.028" cy="443.576" r="5.05167" stroke-width="0.5" stroke="Red" fill="Red"/>
   </g>
   <g id="cell70">
  <circle cx="498.725" cy="467.416" r="8.41271" stroke-width="0.5" stroke="black" fill="Red"/>
  <circle cx="498.725" cy="467.416" r="5.05167" stroke-width="0.5" stroke="Red" fill="Red"/>
   </g>
   <g id="cell71">
  <circle cx="493.924" cy="480.816" r="8.41271" stroke-width="0.5" stroke="black" fill="Red"/>
  <circle cx="493.924" cy="480.816" r="5.05167" stroke-width="0.5" stroke="Red" fill="Red"/>
   </g>
   <g id="cell72">
  <circle cx="495.552" cy="493.893" r="8.41271" stroke-width="0.5" stroke="black" fill="Red"/>
  <circle cx="495.552" cy="493.893" r="5.05167" stroke-width="0.5" stroke="Red" fill="Red"/>
   </g>
   <g id="cell73">
  <circle cx="500.356" cy="512.347" r="8.41271" stroke-width="0.5" stroke="black" fill="Red"/>
  <circle cx="500.356" cy="512.347" r="5.05167" stroke-width="0.5" stroke="Red" fill="Red"/>
   </g>
   <g id="cell74">
  <circle cx="495.111" cy="525.466" r="8.41271" stroke-width="0.5" stroke="black" fill="Red"/>
  <circle cx="495.111" cy="525.466" r="5.05167" stroke-width="0.5" stroke="Red" fill="Red"/>
   </g>
   <g id="cell75">
  <circle cx="496.72" cy="538.534" r="8.41271" stroke-width="0.5" stroke="black" fill="blue"/>
  <circle cx="496.72" cy="538.534" r="5.05167" stroke-width="0.5" stroke="blue" fill="blue"/>
   </g>
   <g id="cell76">
  <circle cx="496.452" cy="551.658" r="8.41271" stroke-width="0.5" stroke="black" fill="Red"/>
  <circle cx="496.452" cy="551.658" r="5.05167" stroke-width="0.5" stroke="Red" fill="Red"/>
   </g>
   <g id="cell77">
  <circle cx="501.139" cy="569.721" r="7.79564" stroke-width="0.5" stroke="black" fill="Red"/>
  <circle cx="501.139" cy="569.721" r="4.73359" stroke-width="0.5" stroke="Red" fill="Red"/>
   </g>
   <g id="cell78">
  <circle cx="500.206" cy="580.65" r="8.41271" stroke-width="0.5" stroke="black" fill="Red"/>
  <circle cx="500.206" cy="580.65" r="5.05167" stroke-width="0.5" stroke="Red" fill="Red"/>
   </g>
   <g id="cell79">
  <circle cx="497.965" cy="596.16" r="8.41271" stroke-width="0.5" stroke="black" fill="blue"/>
  <circle cx="497.965" cy="596.16" r="5.05167" stroke-width="0.5" stroke="blue" fill="blue"/>
   </g>
   <g id="cell80">
  <circle cx="516.297" cy="411.552" r="7.38797" stroke-width="0.5" stroke="black" fill="Red"/>
  <circle cx="516.297" cy="411.552" r="4.49029" stroke-width="0.5" stroke="Red" fill="Red"/>
   </g>
   <g id="cell81">
  <circle cx="514.093" cy="434.166" r="8.41271" stroke-width="0.5" stroke="black" fill="Red"/>
  <circle cx="514.093" cy="434.166" r="5.05167" stroke-width="0.5" stroke="Red" fill="Red"/>
   </g>
   <g id="cell82">
  <circle cx="509.849" cy="444.858" r="7.08639" stroke-width="0.5" stroke="black" fill="blue"/>
  <circle cx="509.849" cy="444.858" r="4.29876" stroke-width="0.5" stroke="blue" fill="blue"/>
   </g>
   <g id="cell83">
  <circle cx="504.128" cy="454.367" r="8.41271" stroke-width="0.5" stroke="black" fill="Red"/>
  <circle cx="504.128" cy="454.367" r="5.05167" stroke-width="0.5" stroke="Red" fill="Red"/>
   </g>
   <g id="cell84">
  <circle cx="508.996" cy="464.578" r="6.80881" stroke-width="0.5" stroke="black" fill="blue"/>
  <circle cx="508.996" cy="464.578" r="4.10709" stroke-width="0.5" stroke="blue" fill="blue"/>
   </g>
   <g id="cell85">
  <circle cx="505.738" cy="477.264" r="8.41271" stroke-width="0.5" stroke="black" fill="Red"/>
  <circle cx="505.738" cy="477.264" r="5.05167" stroke-width="0.5" stroke="Red" fill="Red"/>
   </g>
   <g id="cell86">
  <circle cx="508.26" cy="499.534" r="8.41271" stroke-width="0.5" stroke="black" fill="Red"/>
  <circle cx="508.26" cy="499.534" r="5.05167" stroke-width="0.5" stroke="Red" fill="Red"/>
   </g>
   <g id="cell87">
  <circle cx="513.382" cy="511.467" r="7.84675" stroke-width="0.5" stroke="black" fill="Red"/>
  <circle cx="513.382" cy="511.467" r="4.7629" stroke-width="0.5" stroke="Red" fill="Red"/>
   </g>
   <g id="cell88">
  <circle cx="507.957" cy="535.159" r="8.41271" stroke-width="0.5" stroke="black" fill="Red"/>
  <circle cx="507.957" cy="535.159" r="5.05167" stroke-width="0.5" stroke="Red" fill="Red"/>
   </g>
   <g id="cell89">
  <circle cx="508.292" cy="547.578" r="8.41271" stroke-width="0.5" stroke="black" fill="Red"/>
  <circle cx="508.292" cy="547.578" r="5.05167" stroke-width="0.5" stroke="Red" fill="Red"/>
   </g>
   <g id="cell90">
  <circle cx="516.434" cy="559.217" r="8.41271" stroke-width="0.5" stroke="black" fill="yellow"/>
  <circle cx="516.434" cy="559.217" r="5.05167" stroke-width="0.5" stroke="yellow" fill="yellow"/>
   </g>
   <g id="cell91">
  <circle cx="513.475" cy="572.129" r="8.41271" stroke-width="0.5" stroke="black" fill="Red"/>
  <circle cx="513.475" cy="572.129" r="5.05167" stroke-width="0.5" stroke="Red" fill="Red"/>
   </g>
   <g id="cell92">
  <circle cx="512.185" cy="586.688" r="8.41271" stroke-width="0.5" stroke="black" fill="Red"/>
  <circle cx="512.185" cy="586.688" r="5.05167" stroke-width="0.5" stroke="Red" fill="Red"/>
   </g>
   <g id="cell93">
  <circle cx="531.152" cy="413.006" r="8.41271" stroke-width="0.5" stroke="black" fill="blue"/>
  <circle cx="531.152" cy="413.006" r="5.05167" stroke-width="0.5" stroke="blue" fill="blue"/>
   </g>
   <g id="cell94">
  <circle cx="536.256" cy="425.166" r="7.86286" stroke-width="0.5" stroke="black" fill="Red"/>
  <circle cx="536.256" cy="425.166" r="4.77207" stroke-width="0.5" stroke="Red" fill="Red"/>
   </g>
   <g id="cell95">
  <circle cx="527.518" cy="435.019" r="8.41271" stroke-width="0.5" stroke="black" fill="Red"/>
  <circle cx="527.518" cy="435.019" r="5.05167" stroke-width="0.5" stroke="Red" fill="Red"/>
   </g>
   <g id="cell96">
  <circle cx="520.508" cy="446.176" r="7.44397" stroke-width="0.5" stroke="black" fill="blue"/>
  <circle cx="520.508" cy="446.176" r="4.55005" stroke-width="0.5" stroke="blue" fill="blue"/>
   </g>
   <g id="cell97">
  <circle cx="527.015" cy="461.637" r="8.41271" stroke-width="0.5" stroke="black" fill="Red"/>
  <circle cx="527.015" cy="461.637" r="5.05167" stroke-width="0.5" stroke="Red" fill="Red"/>
   </g>
   <g id="cell98">
  <circle cx="520.998" cy="494.335" r="7.13715" stroke-width="0.5" stroke="black" fill="blue"/>
  <circle cx="520.998" cy="494.335" r="4.37335" stroke-width="0.5" stroke="blue" fill="blue"/>
   </g>
   <g id="cell99">
  <circle cx="532.433" cy="498.534" r="8.41271" stroke-width="0.5" stroke="black" fill="Red"/>
  <circle cx="532.433" cy="498.534" r="5.05167" stroke-width="0.5" stroke="Red" fill="Red"/>
   </g>
   <g id="cell100">
  <circle cx="521.146" cy="504.418" r="7.27253" stroke-width="0.5" stroke="black" fill="blue"/>
  <circle cx="521.146" cy="504.418" r="4.41835" stroke-width="0.5" stroke="blue" fill="blue"/>
   </g>
   <g id="cell101">
  <circle cx="519.575" cy="527.352" r="8.41271" stroke-width="0.5" stroke="black" fill="Red"/>
  <circle cx="519.575" cy="527.352" r="5.05167" stroke-width="0.5" stroke="Red" fill="Red"/>
   </g>
   <g id="cell102">
  <circle cx="529.356" cy="536.175" r="7.97646" stroke-width="0.5" stroke="black" fill="Red"/>
  <circle cx="529.356" cy="536.175" r="4.83584" stroke-width="0.5" stroke="Red" fill="Red"/>
   </g>
   <g id="cell103">
  <circle cx="526.307" cy="550.795" r="8.41271" stroke-width="0.5" stroke="black" fill="Red"/>
  <circle cx="526.307" cy="550.795" r="5.05167" stroke-width="0.5" stroke="Red" fill="Red"/>
   </g>
   <g id="cell104">
  <circle cx="527.94" cy="565.128" r="8.41271" stroke-width="0.5" stroke="black" fill="Red"/>
  <circle cx="527.94" cy="565.128" r="5.05167" stroke-width="0.5" stroke="Red" fill="Red"/>
   </g>
   <g id="cell105">
  <circle cx="524.83" cy="577.519" r="8.41271" stroke-width="0.5" stroke="black" fill="blue"/>
  <circle cx="524.83" cy="577.519" r="5.05167" stroke-width="0.5" stroke="blue" fill="blue"/>
   </g>
   <g id="cell106">
  <circle cx="543.869" cy="413.731" r="7.30216" stroke-width="0.5" stroke="black" fill="Red"/>
  <circle cx="543.869" cy="413.731" r="4.43696" stroke-width="0.5" stroke="Red" fill="Red"/>
   </g>
   <g id="cell107">
  <circle cx="540.682" cy="437.1" r="8.41271" stroke-width="0.5" stroke="black" fill="blue"/>
  <circle cx="540.682" cy="437.1" r="5.05167" stroke-width="0.5" stroke="blue" fill="blue"/>
   </g>
   <g id="cell108">
  <circle cx="531.844" cy="448.552" r="8.41271" stroke-width="0.5" stroke="black" fill="Red"/>
  <circle cx="531.844" cy="448.552" r="5.05167" stroke-width="0.5" stroke="Red" fill="Red"/>
   </g>
   <g id="cell109">
  <circle cx="548.886" cy="467.017" r="8.41271" stroke-width="0.5" stroke="black" fill="Red"/>
  <circle cx="548.886" cy="467.017" r="5.05167" stroke-width="0.5" stroke="Red" fill="Red"/>
   </g>
   <g id="cell110">
  <circle cx="528.772" cy="484.366" r="8.41271" stroke-width="0.5" stroke="black" fill="Red"/>
  <circle cx="528.772" cy="484.366" r="5.05167" stroke-width="0.5" stroke="Red" fill="Red"/>
   </g>
   <g id="cell111">
  <circle cx="540.787" cy="488.254" r="8.41271" stroke-width="0.5" stroke="black" fill="Red"/>
  <circle cx="540.787" cy="488.254" r="5.05167" stroke-width="0.5" stroke="Red" fill="Red"/>
   </g>
   <g id="cell112">
  <circle cx="542.364" cy="505.864" r="8.41271" stroke-width="0.5" stroke="black" fill="Red"/>
  <circle cx="542.364" cy="505.864" r="5.05167" stroke-width="0.5" stroke="Red" fill="Red"/>
   </g>
   <g id="cell113">
  <circle cx="531.523" cy="512.323" r="8.41271" stroke-width="0.5" stroke="black" fill="Red"/>
  <circle cx="531.523" cy="512.323" r="5.05167" stroke-width="0.5" stroke="Red" fill="Red"/>
   </g>
   <g id="cell114">
  <circle cx="532.836" cy="524.862" r="8.41271" stroke-width="0.5" stroke="black" fill="Red"/>
  <circle cx="532.836" cy="524.862" r="5.05167" stroke-width="0.5" stroke="Red" fill="Red"/>
   </g>
   <g id="cell115">
  <circle cx="537.207" cy="543.884" r="8.41271" stroke-width="0.5" stroke="black" fill="Red"/>
  <circle cx="537.207" cy="543.884" r="5.05167" stroke-width="0.5" stroke="Red" fill="Red"/>
   </g>
   <g id="cell116">
  <circle cx="546.399" cy="563.416" r="6.86652" stroke-width="0.5" stroke="black" fill="Red"/>
  <circle cx="546.399" cy="563.416" r="4.14883" stroke-width="0.5" stroke="Red" fill="Red"/>
   </g>
   <g id="cell117">
  <circle cx="538.829" cy="573.141" r="8.41271" stroke-width="0.5" stroke="black" fill="Red"/>
  <circle cx="538.829" cy="573.141" r="5.05167" stroke-width="0.5" stroke="Red" fill="Red"/>
   </g>
   <g id="cell118">
  <circle cx="549.474" cy="426.021" r="8.41271" stroke-width="0.5" stroke="black" fill="yellow"/>
  <circle cx="549.474" cy="426.021" r="5.05167" stroke-width="0.5" stroke="yellow" fill="yellow"/>
   </g>
   <g id="cell119">
  <circle cx="555.521" cy="438.713" r="8.41271" stroke-width="0.5" stroke="black" fill="yellow"/>
  <circle cx="555.521" cy="438.713" r="5.05167" stroke-width="0.5" stroke="yellow" fill="yellow"/>
   </g>
   <g id="cell120">
  <circle cx="553.949" cy="457.49" r="7.84675" stroke-width="0.5" stroke="black" fill="Red"/>
  <circle cx="553.949" cy="457.49" r="4.7629" stroke-width="0.5" stroke="Red" fill="Red"/>
   </g>
   <g id="cell121">
  <circle cx="559.883" cy="474.23" r="8.41271" stroke-width="0.5" stroke="black" fill="Red"/>
  <circle cx="559.883" cy="474.23" r="5.05167" stroke-width="0.5" stroke="Red" fill="Red"/>
   </g>
   <g id="cell122">
  <circle cx="548.194" cy="479.245" r="8.41271" stroke-width="0.5" stroke="black" fill="blue"/>
  <circle cx="548.194" cy="479.245" r="5.05167" stroke-width="0.5" stroke="blue" fill="blue"/>
   </g>
   <g id="cell123">
  <circle cx="550.095" cy="496.231" r="8.41271" stroke-width="0.5" stroke="black" fill="Red"/>
  <circle cx="550.095" cy="496.231" r="5.05167" stroke-width="0.5" stroke="Red" fill="Red"/>
   </g>
   <g id="cell124">
  <circle cx="554.199" cy="511.312" r="8.41271" stroke-width="0.5" stroke="black" fill="Red"/>
  <circle cx="554.199" cy="511.312" r="5.05167" stroke-width="0.5" stroke="Red" fill="Red"/>
   </g>
   <g id="cell125">
  <circle cx="544.091" cy="518.469" r="7.86286" stroke-width="0.5" stroke="black" fill="blue"/>
  <circle cx="544.091" cy="518.469" r="4.77207" stroke-width="0.5" stroke="blue" fill="blue"/>
   </g>
   <g id="cell126">
  <circle cx="543.94" cy="532.502" r="8.41271" stroke-width="0.5" stroke="black" fill="Red"/>
  <circle cx="543.94" cy="532.502" r="5.05167" stroke-width="0.5" stroke="Red" fill="Red"/>
   </g>
   <g id="cell127">
  <circle cx="548.585" cy="549.771" r="8.41271" stroke-width="0.5" stroke="black" fill="Red"/>
  <circle cx="548.585" cy="549.771" r="5.05167" stroke-width="0.5" stroke="Red" fill="Red"/>
   </g>
   <g id="cell128">
  <circle cx="557.289" cy="561.257" r="8.41271" stroke-width="0.5" stroke="black" fill="blue"/>
  <circle cx="557.289" cy="561.257" r="5.05167" stroke-width="0.5" stroke="blue" fill="blue"/>
   </g>
   <g id="cell129">
  <circle cx="577.5" cy="454.076" r="7.83019" stroke-width="0.5" stroke="black" fill="Red"/>
  <circle cx="577.5" cy="454.076" r="4.75343" stroke-width="0.5" stroke="Red" fill="Red"/>
   </g>
   <g id="cell130">
  <circle cx="564.362" cy="462.517" r="8.41271" stroke-width="0.5" stroke="black" fill="Red"/>
  <circle cx="564.362" cy="462.517" r="5.05167" stroke-width="0.5" stroke="Red" fill="Red"/>
   </g>
   <g id="cell131">
  <circle cx="571.534" cy="478.581" r="8.41271" stroke-width="0.5" stroke="black" fill="Red"/>
  <circle cx="571.534" cy="478.581" r="5.05167" stroke-width="0.5" stroke="Red" fill="Red"/>
   </g>
   <g id="cell132">
  <circle cx="560.49" cy="487.536" r="8.41271" stroke-width="0.5" stroke="black" fill="Red"/>
  <circle cx="560.49" cy="487.536" r="5.05167" stroke-width="0.5" stroke="Red" fill="Red"/>
   </g>
   <g id="cell133">
  <circle cx="563.267" cy="501.791" r="8.41271" stroke-width="0.5" stroke="black" fill="blue"/>
  <circle cx="563.267" cy="501.791" r="5.05167" stroke-width="0.5" stroke="blue" fill="blue"/>
   </g>
   <g id="cell134">
  <circle cx="566.951" cy="515.728" r="8.41271" stroke-width="0.5" stroke="black" fill="Red"/>
  <circle cx="566.951" cy="515.728" r="5.05167" stroke-width="0.5" stroke="Red" fill="Red"/>
   </g>
   <g id="cell135">
  <circle cx="567.774" cy="529.06" r="8.41271" stroke-width="0.5" stroke="black" fill="Red"/>
  <circle cx="567.774" cy="529.06" r="5.05167" stroke-width="0.5" stroke="Red" fill="Red"/>
   </g>
   <g id="cell136">
  <circle cx="556.566" cy="538.104" r="8.41271" stroke-width="0.5" stroke="black" fill="Red"/>
  <circle cx="556.566" cy="538.104" r="5.05167" stroke-width="0.5" stroke="Red" fill="Red"/>
   </g>
   <g id="cell137">
  <circle cx="569.664" cy="555.34" r="6.99069" stroke-width="0.5" stroke="black" fill="blue"/>
  <circle cx="569.664" cy="555.34" r="4.23498" stroke-width="0.5" stroke="blue" fill="blue"/>
   </g>
   <g id="cell138">
  <circle cx="576.331" cy="467.334" r="8.41271" stroke-width="0.5" stroke="black" fill="blue"/>
  <circle cx="576.331" cy="467.334" r="5.05167" stroke-width="0.5" stroke="blue" fill="blue"/>
   </g>
   <g id="cell139">
  <circle cx="583.707" cy="481.468" r="8.41271" stroke-width="0.5" stroke="black" fill="yellow"/>
  <circle cx="583.707" cy="481.468" r="5.05167" stroke-width="0.5" stroke="yellow" fill="yellow"/>
   </g>
   <g id="cell140">
  <circle cx="573.564" cy="491.266" r="8.02418" stroke-width="0.5" stroke="black" fill="Red"/>
  <circle cx="573.564" cy="491.266" r="4.86209" stroke-width="0.5" stroke="Red" fill="Red"/>
   </g>
   <g id="cell141">
  <circle cx="577.031" cy="507.168" r="8.41271" stroke-width="0.5" stroke="black" fill="Red"/>
  <circle cx="577.031" cy="507.168" r="5.05167" stroke-width="0.5" stroke="Red" fill="Red"/>
   </g>
   <g id="cell142">
  <circle cx="579.043" cy="521.841" r="7.72056" stroke-width="0.5" stroke="black" fill="blue"/>
  <circle cx="579.043" cy="521.841" r="4.69003" stroke-width="0.5" stroke="blue" fill="blue"/>
   </g>
   <g id="cell143">
  <circle cx="570.847" cy="542.182" r="8.41271" stroke-width="0.5" stroke="black" fill="Red"/>
  <circle cx="570.847" cy="542.182" r="5.05167" stroke-width="0.5" stroke="Red" fill="Red"/>
   </g>
   <g id="cell144">
  <circle cx="431.208" cy="432.891" r="7.13925" stroke-width="0.5" stroke="black" fill="blue"/>
  <circle cx="431.208" cy="432.891" r="4.3678" stroke-width="0.5" stroke="blue" fill="blue"/>
   </g>
   <g id="cell145">
  <circle cx="584.045" cy="495.267" r="6.45572" stroke-width="0.5" stroke="black" fill="yellow"/>
  <circle cx="584.045" cy="495.267" r="3.92144" stroke-width="0.5" stroke="yellow" fill="yellow"/>
   </g>
   <g id="cell146">
  <circle cx="477.946" cy="507.525" r="7.48726" stroke-width="0.5" stroke="black" fill="Red"/>
  <circle cx="477.946" cy="507.525" r="4.57525" stroke-width="0.5" stroke="Red" fill="Red"/>
   </g>
   <g id="cell147">
  <circle cx="539.249" cy="459.64" r="7.75853" stroke-width="0.5" stroke="black" fill="blue"/>
  <circle cx="539.249" cy="459.64" r="4.72904" stroke-width="0.5" stroke="blue" fill="blue"/>
   </g>
   <g id="cell148">
  <circle cx="519.376" cy="541.964" r="7.97646" stroke-width="0.5" stroke="black" fill="blue"/>
  <circle cx="519.376" cy="541.964" r="4.83584" stroke-width="0.5" stroke="blue" fill="blue"/>
   </g>
   <g id="cell149">
  <circle cx="536.926" cy="473.503" r="7.75853" stroke-width="0.5" stroke="black" fill="Red"/>
  <circle cx="536.926" cy="473.503" r="4.72904" stroke-width="0.5" stroke="Red" fill="Red"/>
   </g>
   <g id="cell150">
  <circle cx="444.365" cy="510.717" r="7.90853" stroke-width="0.5" stroke="black" fill="blue"/>
  <circle cx="444.365" cy="510.717" r="4.79791" stroke-width="0.5" stroke="blue" fill="blue"/>
   </g>
   <g id="cell151">
  <circle cx="452.852" cy="414.51" r="7.90853" stroke-width="0.5" stroke="black" fill="blue"/>
  <circle cx="452.852" cy="414.51" r="4.79791" stroke-width="0.5" stroke="blue" fill="blue"/>
   </g>
   <g id="cell152">
  <circle cx="482.045" cy="461.39" r="7.87851" stroke-width="0.5" stroke="black" fill="Red"/>
  <circle cx="482.045" cy="461.39" r="4.78096" stroke-width="0.5" stroke="Red" fill="Red"/>
   </g>
   <g id="cell153">
  <circle cx="522.877" cy="423.2" r="7.86286" stroke-width="0.5" stroke="black" fill="Red"/>
  <circle cx="522.877" cy="423.2" r="4.77207" stroke-width="0.5" stroke="Red" fill="Red"/>
   </g>
   <g id="cell154">
  <circle cx="554.728" cy="524.474" r="7.86286" stroke-width="0.5" stroke="black" fill="blue"/>
  <circle cx="554.728" cy="524.474" r="4.77207" stroke-width="0.5" stroke="blue" fill="blue"/>
   </g>
   <g id="cell155">
  <circle cx="439.836" cy="420.883" r="7.58126" stroke-width="0.5" stroke="black" fill="Red"/>
  <circle cx="439.836" cy="420.883" r="4.63027" stroke-width="0.5" stroke="Red" fill="Red"/>
   </g>
   <g id="cell156">
  <circle cx="507.63" cy="522.27" r="7.84675" stroke-width="0.5" stroke="black" fill="blue"/>
  <circle cx="507.63" cy="522.27" r="4.7629" stroke-width="0.5" stroke="blue" fill="blue"/>
   </g>
   <g id="cell157">
  <circle cx="545.84" cy="449.476" r="7.84675" stroke-width="0.5" stroke="black" fill="Red"/>
  <circle cx="545.84" cy="449.476" r="4.7629" stroke-width="0.5" stroke="Red" fill="Red"/>
   </g>
   <g id="cell158">
  <circle cx="558.584" cy="448.872" r="6.10656" stroke-width="0.5" stroke="black" fill="Red"/>
  <circle cx="558.584" cy="448.872" r="3.76465" stroke-width="0.5" stroke="Red" fill="Red"/>
   </g>
   <g id="cell159">
  <circle cx="470.17" cy="529.717" r="7.81315" stroke-width="0.5" stroke="black" fill="Red"/>
  <circle cx="470.17" cy="529.717" r="4.74367" stroke-width="0.5" stroke="Red" fill="Red"/>
   </g>
   <g id="cell160">
  <circle cx="505.833" cy="559.947" r="7.79564" stroke-width="0.5" stroke="black" fill="blue"/>
  <circle cx="505.833" cy="559.947" r="4.73359" stroke-width="0.5" stroke="blue" fill="blue"/>
   </g>
   <g id="cell161">
  <circle cx="516.913" cy="482.298" r="7.05254" stroke-width="0.5" stroke="black" fill="Red"/>
  <circle cx="516.913" cy="482.298" r="4.32277" stroke-width="0.5" stroke="Red" fill="Red"/>
   </g>
   <g id="cell162">
  <circle cx="580.812" cy="533.63" r="7.72056" stroke-width="0.5" stroke="black" fill="Red"/>
  <circle cx="580.812" cy="533.63" r="4.69003" stroke-width="0.5" stroke="Red" fill="Red"/>
   </g>
   <g id="cell163">
  <circle cx="468.901" cy="516.678" r="7.48726" stroke-width="0.5" stroke="black" fill="Red"/>
  <circle cx="468.901" cy="516.678" r="4.57525" stroke-width="0.5" stroke="Red" fill="Red"/>
   </g>
   <g id="cell164">
  <circle cx="431.423" cy="493.175" r="7.72056" stroke-width="0.5" stroke="black" fill="Red"/>
  <circle cx="431.423" cy="493.175" r="4.69003" stroke-width="0.5" stroke="Red" fill="Red"/>
   </g>
   <g id="cell165">
  <circle cx="469.085" cy="443.65" r="7.67987" stroke-width="0.5" stroke="black" fill="Red"/>
  <circle cx="469.085" cy="443.65" r="4.66617" stroke-width="0.5" stroke="Red" fill="Red"/>
   </g>
   <g id="cell166">
  <circle cx="488.756" cy="433.051" r="7.67987" stroke-width="0.5" stroke="black" fill="blue"/>
  <circle cx="488.756" cy="433.051" r="4.66617" stroke-width="0.5" stroke="blue" fill="blue"/>
   </g>
   <g id="cell167">
  <circle cx="517.301" cy="455.328" r="7.44397" stroke-width="0.5" stroke="black" fill="Red"/>
  <circle cx="517.301" cy="455.328" r="4.55005" stroke-width="0.5" stroke="Red" fill="Red"/>
   </g>
   <g id="cell168">
  <circle cx="427.241" cy="528.509" r="7.06158" stroke-width="0.5" stroke="black" fill="yellow"/>
  <circle cx="427.241" cy="528.509" r="4.32904" stroke-width="0.5" stroke="yellow" fill="yellow"/>
   </g>
   <g id="cell169">
  <circle cx="417.617" cy="458.622" r="7.56839" stroke-width="0.5" stroke="black" fill="blue"/>
  <circle cx="417.617" cy="458.622" r="4.59998" stroke-width="0.5" stroke="blue" fill="blue"/>
   </g>
   <g id="cell170">
  <circle cx="513.908" cy="490.501" r="6.08863" stroke-width="0.5" stroke="black" fill="Red"/>
  <circle cx="513.908" cy="490.501" r="3.75476" stroke-width="0.5" stroke="Red" fill="Red"/>
   </g>
   <g id="cell171">
  <circle cx="453.06" cy="580.23" r="7.51976" stroke-width="0.5" stroke="black" fill="Red"/>
  <circle cx="453.06" cy="580.23" r="4.57072" stroke-width="0.5" stroke="Red" fill="Red"/>
   </g>
   <g id="cell172">
  <circle cx="567.862" cy="440.883" r="7.16324" stroke-width="0.5" stroke="black" fill="blue"/>
  <circle cx="567.862" cy="440.883" r="4.38768" stroke-width="0.5" stroke="blue" fill="blue"/>
   </g>
   <g id="cell173">
  <circle cx="420.572" cy="517.878" r="7.06158" stroke-width="0.5" stroke="black" fill="Red"/>
  <circle cx="420.572" cy="517.878" r="4.32904" stroke-width="0.5" stroke="Red" fill="Red"/>
   </g>
   <g id="cell174">
  <circle cx="524.539" cy="473.014" r="7.05254" stroke-width="0.5" stroke="black" fill="blue"/>
  <circle cx="524.539" cy="473.014" r="4.32277" stroke-width="0.5" stroke="blue" fill="blue"/>
   </g>
   <g id="cell175">
  <circle cx="510.836" cy="421.868" r="7.38797" stroke-width="0.5" stroke="black" fill="Red"/>
  <circle cx="510.836" cy="421.868" r="4.49029" stroke-width="0.5" stroke="Red" fill="Red"/>
   </g>
   <g id="cell176">
  <circle cx="442.542" cy="433.037" r="7.13925" stroke-width="0.5" stroke="black" fill="Red"/>
  <circle cx="442.542" cy="433.037" r="4.3678" stroke-width="0.5" stroke="Red" fill="Red"/>
   </g>
   <g id="cell177">
  <circle cx="556.067" cy="414.251" r="7.30216" stroke-width="0.5" stroke="black" fill="blue"/>
  <circle cx="556.067" cy="414.251" r="4.43696" stroke-width="0.5" stroke="blue" fill="blue"/>
   </g>
   <g id="cell178">
  <circle cx="522.292" cy="516.503" r="7.27253" stroke-width="0.5" stroke="black" fill="Red"/>
  <circle cx="522.292" cy="516.503" r="4.41835" stroke-width="0.5" stroke="Red" fill="Red"/>
   </g>
   <g id="cell179">
  <circle cx="452.116" cy="530.306" r="7.27253" stroke-width="0.5" stroke="black" fill="Red"/>
  <circle cx="452.116" cy="530.306" r="4.41835" stroke-width="0.5" stroke="Red" fill="Red"/>
   </g>
   <g id="cell180">
  <circle cx="457.716" cy="436.471" r="7.27253" stroke-width="0.5" stroke="black" fill="Red"/>
  <circle cx="457.716" cy="436.471" r="4.41835" stroke-width="0.5" stroke="Red" fill="Red"/>
   </g>
   <g id="cell181">
  <circle cx="490.348" cy="504.732" r="5.74543" stroke-width="0.5" stroke="black" fill="blue"/>
  <circle cx="490.348" cy="504.732" r="3.49096" stroke-width="0.5" stroke="blue" fill="blue"/>
   </g>
   <g id="cell182">
  <circle cx="472.707" cy="555.168" r="7.18097" stroke-width="0.5" stroke="black" fill="blue"/>
  <circle cx="472.707" cy="555.168" r="4.36015" stroke-width="0.5" stroke="blue" fill="blue"/>
   </g>
   <g id="cell183">
  <circle cx="468.095" cy="433.538" r="7.11815" stroke-width="0.5" stroke="black" fill="blue"/>
  <circle cx="468.095" cy="433.538" r="4.31954" stroke-width="0.5" stroke="blue" fill="blue"/>
   </g>
   <g id="cell184">
  <circle cx="502.123" cy="437.296" r="7.08639" stroke-width="0.5" stroke="black" fill="blue"/>
  <circle cx="502.123" cy="437.296" r="4.29876" stroke-width="0.5" stroke="blue" fill="blue"/>
   </g>
   <g id="cell185">
  <circle cx="490.065" cy="587.424" r="7.02257" stroke-width="0.5" stroke="black" fill="Red"/>
  <circle cx="490.065" cy="587.424" r="4.25644" stroke-width="0.5" stroke="Red" fill="Red"/>
   </g>
   <g id="cell186">
  <circle cx="505.885" cy="488.429" r="6.08863" stroke-width="0.5" stroke="black" fill="blue"/>
  <circle cx="505.885" cy="488.429" r="3.75476" stroke-width="0.5" stroke="blue" fill="blue"/>
   </g>
   <g id="cell187">
  <circle cx="567.396" cy="451.962" r="6.10656" stroke-width="0.5" stroke="black" fill="Red"/>
  <circle cx="567.396" cy="451.962" r="3.76465" stroke-width="0.5" stroke="Red" fill="Red"/>
   </g>
   <g id="cell188">
  <circle cx="560.949" cy="548.678" r="6.99069" stroke-width="0.5" stroke="black" fill="Red"/>
  <circle cx="560.949" cy="548.678" r="4.23498" stroke-width="0.5" stroke="Red" fill="Red"/>
   </g>
   <g id="cell189">
  <circle cx="461.693" cy="524.947" r="6.95901" stroke-width="0.5" stroke="black" fill="Red"/>
  <circle cx="461.693" cy="524.947" r="4.21341" stroke-width="0.5" stroke="Red" fill="Red"/>
   </g>
   <g id="cell190">
  <circle cx="459.204" cy="513.809" r="5.79448" stroke-width="0.5" stroke="black" fill="blue"/>
  <circle cx="459.204" cy="513.809" r="3.53652" stroke-width="0.5" stroke="blue" fill="blue"/>
   </g>
   <g id="cell191">
  <circle cx="537.424" cy="557.729" r="6.86652" stroke-width="0.5" stroke="black" fill="blue"/>
  <circle cx="537.424" cy="557.729" r="4.14883" stroke-width="0.5" stroke="blue" fill="blue"/>
   </g>
   <g id="cell192">
  <circle cx="515.605" cy="472.978" r="5.42809" stroke-width="0.5" stroke="black" fill="Red"/>
  <circle cx="515.605" cy="472.978" r="3.2764" stroke-width="0.5" stroke="Red" fill="Red"/>
   </g>
   <g id="cell193">
  <circle cx="593.912" cy="489.958" r="6.45572" stroke-width="0.5" stroke="black" fill="blue"/>
  <circle cx="593.912" cy="489.958" r="3.92144" stroke-width="0.5" stroke="blue" fill="blue"/>
   </g>
   <g id="cell194">
  <circle cx="453.534" cy="567.133" r="6.75639" stroke-width="0.5" stroke="black" fill="Red"/>
  <circle cx="453.534" cy="567.133" r="4.06813" stroke-width="0.5" stroke="Red" fill="Red"/>
   </g>
   <g id="cell195">
  <circle cx="498.239" cy="502.489" r="5.74543" stroke-width="0.5" stroke="black" fill="blue"/>
  <circle cx="498.239" cy="502.489" r="3.49096" stroke-width="0.5" stroke="blue" fill="blue"/>
   </g>
   <g id="cell196">
  <circle cx="464.617" cy="416.165" r="6.69288" stroke-width="0.5" stroke="black" fill="Red"/>
  <circle cx="464.617" cy="416.165" r="4.02051" stroke-width="0.5" stroke="Red" fill="Red"/>
   </g>
   <g id="cell197">
  <circle cx="517.236" cy="464.768" r="5.42809" stroke-width="0.5" stroke="black" fill="blue"/>
  <circle cx="517.236" cy="464.768" r="3.2764" stroke-width="0.5" stroke="blue" fill="blue"/>
   </g>
   <g id="cell198">
  <circle cx="467.365" cy="538.5" r="5.77221" stroke-width="0.5" stroke="black" fill="blue"/>
  <circle cx="467.365" cy="538.5" r="3.50685" stroke-width="0.5" stroke="blue" fill="blue"/>
   </g>
   <g id="cell199">
  <circle cx="417.237" cy="537.434" r="6.07872" stroke-width="0.5" stroke="black" fill="blue"/>
  <circle cx="417.237" cy="537.434" r="3.69364" stroke-width="0.5" stroke="blue" fill="blue"/>
   </g>
  </g>
 </g>
  <rect x="775" y="1035" width="200" height="10" stroke-width="2" stroke="rgb(255,255,255)" fill="rgb(0,0,0)"/>
  <text x="781.25" y="1028.75"
   font-family="Arial" font-size="25" fill="black" >
   200 &#956;m
  </text>
  <text x="25" y="1045"
   font-family="Arial" font-size="18.75" fill="black" >
   0 days, 0 hours, 2 minutes, and 27.7101 seconds
  </text>
  <rect x="0" y="70" width="1000" height="1000" stroke-width="2" stroke="rgb(0,0,0)" fill="none"/>
</svg>
