<?xml version="1.0" encoding="UTF-8" standalone="no"?>
<!-- Created with PhysiCell (http://PhysiCell.MathCancer.org/) -->
<svg 
 xmlns:dc="http://purl.org/dc/elements/1.1/" 
 xmlns:cc="http://creativecommons.org/ns#" 
 xmlns:rdf="http://www.w3.org/1999/02/22-rdf-syntax-ns#" 
 xmlns:svg="http://www.w3.org/2000/svg" 
 xmlns="http://www.w3.org/2000/svg" 
 version="1.1" 
 width="1000" 
 height="1070" 
 id="svg2">
  <rect x="0" y="0" width="1000" height="1070" stroke-width="2" stroke="white" fill="white"/>
  <text x="12.5" y="30"
   font-family="Arial" font-size="25" fill="black" >
   Current time: 0 days, 3 hours, and 40.00 minutes, z = 0.00 &#956;m
  </text>
  <text x="12.5" y="57.5"
   font-family="Arial" font-size="23.75" fill="black" >
   177 agents
  </text>
 <g id="tissue" 
    transform="translate(0,1070) scale(1,-1)">
  <g id="ECM">
  </g>
  <g id="cells">
   <g id="cell0">
  <circle cx="428.121" cy="447.164" r="8.41271" stroke-width="0.5" stroke="black" fill="Red"/>
  <circle cx="428.121" cy="447.164" r="5.05167" stroke-width="0.5" stroke="Red" fill="Red"/>
   </g>
   <g id="cell1">
  <circle cx="426.63" cy="467.819" r="6.83713" stroke-width="0.5" stroke="black" fill="yellow"/>
  <circle cx="426.63" cy="467.819" r="4.12773" stroke-width="0.5" stroke="yellow" fill="yellow"/>
   </g>
   <g id="cell2">
  <circle cx="426.561" cy="480.265" r="8.41271" stroke-width="0.5" stroke="black" fill="blue"/>
  <circle cx="426.561" cy="480.265" r="5.05167" stroke-width="0.5" stroke="blue" fill="blue"/>
   </g>
   <g id="cell3">
  <circle cx="425.714" cy="492.654" r="7.0545" stroke-width="0.5" stroke="black" fill="Red"/>
  <circle cx="425.714" cy="492.654" r="4.27772" stroke-width="0.5" stroke="Red" fill="Red"/>
   </g>
   <g id="cell4">
  <circle cx="431.664" cy="512.365" r="8.41271" stroke-width="0.5" stroke="black" fill="Red"/>
  <circle cx="431.664" cy="512.365" r="5.05167" stroke-width="0.5" stroke="Red" fill="Red"/>
   </g>
   <g id="cell5">
  <circle cx="417.796" cy="530.477" r="6.95901" stroke-width="0.5" stroke="black" fill="blue"/>
  <circle cx="417.796" cy="530.477" r="4.21341" stroke-width="0.5" stroke="blue" fill="blue"/>
   </g>
   <g id="cell6">
  <circle cx="427.241" cy="538.704" r="8.41271" stroke-width="0.5" stroke="black" fill="blue"/>
  <circle cx="427.241" cy="538.704" r="5.05167" stroke-width="0.5" stroke="blue" fill="blue"/>
   </g>
   <g id="cell7">
  <circle cx="442.214" cy="444.332" r="7.61469" stroke-width="0.5" stroke="black" fill="yellow"/>
  <circle cx="442.214" cy="444.332" r="4.62762" stroke-width="0.5" stroke="yellow" fill="yellow"/>
   </g>
   <g id="cell8">
  <circle cx="437.492" cy="459.983" r="8.41271" stroke-width="0.5" stroke="black" fill="yellow"/>
  <circle cx="437.492" cy="459.983" r="5.05167" stroke-width="0.5" stroke="yellow" fill="yellow"/>
   </g>
   <g id="cell9">
  <circle cx="439.039" cy="473.386" r="8.41271" stroke-width="0.5" stroke="black" fill="Red"/>
  <circle cx="439.039" cy="473.386" r="5.05167" stroke-width="0.5" stroke="Red" fill="Red"/>
   </g>
   <g id="cell10">
  <circle cx="437.653" cy="486.987" r="8.41271" stroke-width="0.5" stroke="black" fill="Red"/>
  <circle cx="437.653" cy="486.987" r="5.05167" stroke-width="0.5" stroke="Red" fill="Red"/>
   </g>
   <g id="cell11">
  <circle cx="443.226" cy="505.505" r="8.41271" stroke-width="0.5" stroke="black" fill="Red"/>
  <circle cx="443.226" cy="505.505" r="5.05167" stroke-width="0.5" stroke="Red" fill="Red"/>
   </g>
   <g id="cell12">
  <circle cx="436.152" cy="522.502" r="7.38797" stroke-width="0.5" stroke="black" fill="Red"/>
  <circle cx="436.152" cy="522.502" r="4.49029" stroke-width="0.5" stroke="Red" fill="Red"/>
   </g>
   <g id="cell13">
  <circle cx="440.813" cy="532.841" r="8.41271" stroke-width="0.5" stroke="black" fill="Red"/>
  <circle cx="440.813" cy="532.841" r="5.05167" stroke-width="0.5" stroke="Red" fill="Red"/>
   </g>
   <g id="cell14">
  <circle cx="438.73" cy="547.117" r="8.41271" stroke-width="0.5" stroke="black" fill="yellow"/>
  <circle cx="438.73" cy="547.117" r="5.05167" stroke-width="0.5" stroke="yellow" fill="yellow"/>
   </g>
   <g id="cell15">
  <circle cx="438.52" cy="561.294" r="8.41271" stroke-width="0.5" stroke="black" fill="blue"/>
  <circle cx="438.52" cy="561.294" r="5.05167" stroke-width="0.5" stroke="blue" fill="blue"/>
   </g>
   <g id="cell16">
  <circle cx="455.428" cy="425.462" r="6.64403" stroke-width="0.5" stroke="black" fill="yellow"/>
  <circle cx="455.428" cy="425.462" r="4.07797" stroke-width="0.5" stroke="yellow" fill="yellow"/>
   </g>
   <g id="cell17">
  <circle cx="452.785" cy="437.293" r="8.41271" stroke-width="0.5" stroke="black" fill="yellow"/>
  <circle cx="452.785" cy="437.293" r="5.05167" stroke-width="0.5" stroke="yellow" fill="yellow"/>
   </g>
   <g id="cell18">
  <circle cx="450.162" cy="454.738" r="8.41271" stroke-width="0.5" stroke="black" fill="Red"/>
  <circle cx="450.162" cy="454.738" r="5.05167" stroke-width="0.5" stroke="Red" fill="Red"/>
   </g>
   <g id="cell19">
  <circle cx="450.85" cy="466.899" r="8.41271" stroke-width="0.5" stroke="black" fill="blue"/>
  <circle cx="450.85" cy="466.899" r="5.05167" stroke-width="0.5" stroke="blue" fill="blue"/>
   </g>
   <g id="cell20">
  <circle cx="451.511" cy="481.643" r="8.41271" stroke-width="0.5" stroke="black" fill="Red"/>
  <circle cx="451.511" cy="481.643" r="5.05167" stroke-width="0.5" stroke="Red" fill="Red"/>
   </g>
   <g id="cell21">
  <circle cx="449.359" cy="494.291" r="8.41271" stroke-width="0.5" stroke="black" fill="Red"/>
  <circle cx="449.359" cy="494.291" r="5.05167" stroke-width="0.5" stroke="Red" fill="Red"/>
   </g>
   <g id="cell22">
  <circle cx="455.231" cy="509.746" r="8.41271" stroke-width="0.5" stroke="black" fill="Red"/>
  <circle cx="455.231" cy="509.746" r="5.05167" stroke-width="0.5" stroke="Red" fill="Red"/>
   </g>
   <g id="cell23">
  <circle cx="452.601" cy="526.644" r="8.41271" stroke-width="0.5" stroke="black" fill="Red"/>
  <circle cx="452.601" cy="526.644" r="5.05167" stroke-width="0.5" stroke="Red" fill="Red"/>
   </g>
   <g id="cell24">
  <circle cx="451.856" cy="540.66" r="8.41271" stroke-width="0.5" stroke="black" fill="blue"/>
  <circle cx="451.856" cy="540.66" r="5.05167" stroke-width="0.5" stroke="blue" fill="blue"/>
   </g>
   <g id="cell25">
  <circle cx="451.534" cy="554.567" r="8.41271" stroke-width="0.5" stroke="black" fill="yellow"/>
  <circle cx="451.534" cy="554.567" r="5.05167" stroke-width="0.5" stroke="yellow" fill="yellow"/>
   </g>
   <g id="cell26">
  <circle cx="451.064" cy="569.077" r="8.41271" stroke-width="0.5" stroke="black" fill="Red"/>
  <circle cx="451.064" cy="569.077" r="5.05167" stroke-width="0.5" stroke="Red" fill="Red"/>
   </g>
   <g id="cell27">
  <circle cx="464.091" cy="415.432" r="8.41271" stroke-width="0.5" stroke="black" fill="yellow"/>
  <circle cx="464.091" cy="415.432" r="5.05167" stroke-width="0.5" stroke="yellow" fill="yellow"/>
   </g>
   <g id="cell28">
  <circle cx="466.015" cy="431.064" r="8.41271" stroke-width="0.5" stroke="black" fill="Red"/>
  <circle cx="466.015" cy="431.064" r="5.05167" stroke-width="0.5" stroke="Red" fill="Red"/>
   </g>
   <g id="cell29">
  <circle cx="458.655" cy="448.419" r="6.99069" stroke-width="0.5" stroke="black" fill="Red"/>
  <circle cx="458.655" cy="448.419" r="4.23498" stroke-width="0.5" stroke="Red" fill="Red"/>
   </g>
   <g id="cell30">
  <circle cx="462.554" cy="460.216" r="8.41271" stroke-width="0.5" stroke="black" fill="Red"/>
  <circle cx="462.554" cy="460.216" r="5.05167" stroke-width="0.5" stroke="Red" fill="Red"/>
   </g>
   <g id="cell31">
  <circle cx="463.578" cy="474.186" r="8.41271" stroke-width="0.5" stroke="black" fill="Red"/>
  <circle cx="463.578" cy="474.186" r="5.05167" stroke-width="0.5" stroke="Red" fill="Red"/>
   </g>
   <g id="cell32">
  <circle cx="465.899" cy="486.921" r="8.41271" stroke-width="0.5" stroke="black" fill="blue"/>
  <circle cx="465.899" cy="486.921" r="5.05167" stroke-width="0.5" stroke="blue" fill="blue"/>
   </g>
   <g id="cell33">
  <circle cx="460.316" cy="497.927" r="8.41271" stroke-width="0.5" stroke="black" fill="blue"/>
  <circle cx="460.316" cy="497.927" r="5.05167" stroke-width="0.5" stroke="blue" fill="blue"/>
   </g>
   <g id="cell34">
  <circle cx="463.677" cy="520.147" r="8.41271" stroke-width="0.5" stroke="black" fill="Red"/>
  <circle cx="463.677" cy="520.147" r="5.05167" stroke-width="0.5" stroke="Red" fill="Red"/>
   </g>
   <g id="cell35">
  <circle cx="462.324" cy="533.786" r="8.41271" stroke-width="0.5" stroke="black" fill="Red"/>
  <circle cx="462.324" cy="533.786" r="5.05167" stroke-width="0.5" stroke="Red" fill="Red"/>
   </g>
   <g id="cell36">
  <circle cx="465.49" cy="545.128" r="8.41271" stroke-width="0.5" stroke="black" fill="Red"/>
  <circle cx="465.49" cy="545.128" r="5.05167" stroke-width="0.5" stroke="Red" fill="Red"/>
   </g>
   <g id="cell37">
  <circle cx="464.533" cy="559.502" r="8.41271" stroke-width="0.5" stroke="black" fill="Red"/>
  <circle cx="464.533" cy="559.502" r="5.05167" stroke-width="0.5" stroke="Red" fill="Red"/>
   </g>
   <g id="cell38">
  <circle cx="465.377" cy="573.632" r="8.41271" stroke-width="0.5" stroke="black" fill="yellow"/>
  <circle cx="465.377" cy="573.632" r="5.05167" stroke-width="0.5" stroke="yellow" fill="yellow"/>
   </g>
   <g id="cell39">
  <circle cx="465.514" cy="586.321" r="6.78181" stroke-width="0.5" stroke="black" fill="blue"/>
  <circle cx="465.514" cy="586.321" r="4.08714" stroke-width="0.5" stroke="blue" fill="blue"/>
   </g>
   <g id="cell40">
  <circle cx="477.633" cy="407.341" r="8.41271" stroke-width="0.5" stroke="black" fill="blue"/>
  <circle cx="477.633" cy="407.341" r="5.05167" stroke-width="0.5" stroke="blue" fill="blue"/>
   </g>
   <g id="cell41">
  <circle cx="475.703" cy="422.085" r="8.41271" stroke-width="0.5" stroke="black" fill="yellow"/>
  <circle cx="475.703" cy="422.085" r="5.05167" stroke-width="0.5" stroke="yellow" fill="yellow"/>
   </g>
   <g id="cell42">
  <circle cx="478.135" cy="437.598" r="8.41271" stroke-width="0.5" stroke="black" fill="Red"/>
  <circle cx="478.135" cy="437.598" r="5.05167" stroke-width="0.5" stroke="Red" fill="Red"/>
   </g>
   <g id="cell43">
  <circle cx="472.843" cy="452.57" r="8.41271" stroke-width="0.5" stroke="black" fill="Red"/>
  <circle cx="472.843" cy="452.57" r="5.05167" stroke-width="0.5" stroke="Red" fill="Red"/>
   </g>
   <g id="cell44">
  <circle cx="475.226" cy="465.865" r="8.41271" stroke-width="0.5" stroke="black" fill="Red"/>
  <circle cx="475.226" cy="465.865" r="5.05167" stroke-width="0.5" stroke="Red" fill="Red"/>
   </g>
   <g id="cell45">
  <circle cx="476.461" cy="480.606" r="8.41271" stroke-width="0.5" stroke="black" fill="Red"/>
  <circle cx="476.461" cy="480.606" r="5.05167" stroke-width="0.5" stroke="Red" fill="Red"/>
   </g>
   <g id="cell46">
  <circle cx="475.39" cy="496.547" r="8.41271" stroke-width="0.5" stroke="black" fill="yellow"/>
  <circle cx="475.39" cy="496.547" r="5.05167" stroke-width="0.5" stroke="yellow" fill="yellow"/>
   </g>
   <g id="cell47">
  <circle cx="468.436" cy="507.825" r="7.59183" stroke-width="0.5" stroke="black" fill="Red"/>
  <circle cx="468.436" cy="507.825" r="4.61399" stroke-width="0.5" stroke="Red" fill="Red"/>
   </g>
   <g id="cell48">
  <circle cx="481.522" cy="523.342" r="7.21189" stroke-width="0.5" stroke="black" fill="Red"/>
  <circle cx="481.522" cy="523.342" r="4.37993" stroke-width="0.5" stroke="Red" fill="Red"/>
   </g>
   <g id="cell49">
  <circle cx="477.124" cy="539.592" r="8.41271" stroke-width="0.5" stroke="black" fill="Red"/>
  <circle cx="477.124" cy="539.592" r="5.05167" stroke-width="0.5" stroke="Red" fill="Red"/>
   </g>
   <g id="cell50">
  <circle cx="477.153" cy="553.143" r="8.41271" stroke-width="0.5" stroke="black" fill="Red"/>
  <circle cx="477.153" cy="553.143" r="5.05167" stroke-width="0.5" stroke="Red" fill="Red"/>
   </g>
   <g id="cell51">
  <circle cx="478.728" cy="566.261" r="8.41271" stroke-width="0.5" stroke="black" fill="blue"/>
  <circle cx="478.728" cy="566.261" r="5.05167" stroke-width="0.5" stroke="blue" fill="blue"/>
   </g>
   <g id="cell52">
  <circle cx="477.757" cy="580.324" r="8.41271" stroke-width="0.5" stroke="black" fill="yellow"/>
  <circle cx="477.757" cy="580.324" r="5.05167" stroke-width="0.5" stroke="yellow" fill="yellow"/>
   </g>
   <g id="cell53">
  <circle cx="488.242" cy="415.357" r="8.41271" stroke-width="0.5" stroke="black" fill="yellow"/>
  <circle cx="488.242" cy="415.357" r="5.05167" stroke-width="0.5" stroke="yellow" fill="yellow"/>
   </g>
   <g id="cell54">
  <circle cx="488.659" cy="429.918" r="8.41271" stroke-width="0.5" stroke="black" fill="blue"/>
  <circle cx="488.659" cy="429.918" r="5.05167" stroke-width="0.5" stroke="blue" fill="blue"/>
   </g>
   <g id="cell55">
  <circle cx="484.74" cy="449.958" r="6.99069" stroke-width="0.5" stroke="black" fill="Red"/>
  <circle cx="484.74" cy="449.958" r="4.23498" stroke-width="0.5" stroke="Red" fill="Red"/>
   </g>
   <g id="cell56">
  <circle cx="493.597" cy="463.677" r="7.33129" stroke-width="0.5" stroke="black" fill="blue"/>
  <circle cx="493.597" cy="463.677" r="4.45516" stroke-width="0.5" stroke="blue" fill="blue"/>
   </g>
   <g id="cell57">
  <circle cx="486.557" cy="473.473" r="8.41271" stroke-width="0.5" stroke="black" fill="Red"/>
  <circle cx="486.557" cy="473.473" r="5.05167" stroke-width="0.5" stroke="Red" fill="Red"/>
   </g>
   <g id="cell58">
  <circle cx="487.961" cy="488.022" r="8.41271" stroke-width="0.5" stroke="black" fill="blue"/>
  <circle cx="487.961" cy="488.022" r="5.05167" stroke-width="0.5" stroke="blue" fill="blue"/>
   </g>
   <g id="cell59">
  <circle cx="488.705" cy="501.351" r="8.41271" stroke-width="0.5" stroke="black" fill="Red"/>
  <circle cx="488.705" cy="501.351" r="5.05167" stroke-width="0.5" stroke="Red" fill="Red"/>
   </g>
   <g id="cell60">
  <circle cx="489.448" cy="515.776" r="8.41271" stroke-width="0.5" stroke="black" fill="Red"/>
  <circle cx="489.448" cy="515.776" r="5.05167" stroke-width="0.5" stroke="Red" fill="Red"/>
   </g>
   <g id="cell61">
  <circle cx="488.945" cy="531.445" r="8.41271" stroke-width="0.5" stroke="black" fill="Red"/>
  <circle cx="488.945" cy="531.445" r="5.05167" stroke-width="0.5" stroke="Red" fill="Red"/>
   </g>
   <g id="cell62">
  <circle cx="488.36" cy="544.607" r="8.41271" stroke-width="0.5" stroke="black" fill="blue"/>
  <circle cx="488.36" cy="544.607" r="5.05167" stroke-width="0.5" stroke="blue" fill="blue"/>
   </g>
   <g id="cell63">
  <circle cx="489.655" cy="559.529" r="8.41271" stroke-width="0.5" stroke="black" fill="Red"/>
  <circle cx="489.655" cy="559.529" r="5.05167" stroke-width="0.5" stroke="Red" fill="Red"/>
   </g>
   <g id="cell64">
  <circle cx="489.434" cy="574.234" r="8.41271" stroke-width="0.5" stroke="black" fill="Red"/>
  <circle cx="489.434" cy="574.234" r="5.05167" stroke-width="0.5" stroke="Red" fill="Red"/>
   </g>
   <g id="cell65">
  <circle cx="489.177" cy="589.571" r="8.41271" stroke-width="0.5" stroke="black" fill="yellow"/>
  <circle cx="489.177" cy="589.571" r="5.05167" stroke-width="0.5" stroke="yellow" fill="yellow"/>
   </g>
   <g id="cell66">
  <circle cx="501.054" cy="411.218" r="8.41271" stroke-width="0.5" stroke="black" fill="blue"/>
  <circle cx="501.054" cy="411.218" r="5.05167" stroke-width="0.5" stroke="blue" fill="blue"/>
   </g>
   <g id="cell67">
  <circle cx="500.711" cy="424.059" r="8.41271" stroke-width="0.5" stroke="black" fill="yellow"/>
  <circle cx="500.711" cy="424.059" r="5.05167" stroke-width="0.5" stroke="yellow" fill="yellow"/>
   </g>
   <g id="cell68">
  <circle cx="501.813" cy="437.363" r="8.41271" stroke-width="0.5" stroke="black" fill="Red"/>
  <circle cx="501.813" cy="437.363" r="5.05167" stroke-width="0.5" stroke="Red" fill="Red"/>
   </g>
   <g id="cell69">
  <circle cx="497.183" cy="452.204" r="8.41271" stroke-width="0.5" stroke="black" fill="Red"/>
  <circle cx="497.183" cy="452.204" r="5.05167" stroke-width="0.5" stroke="Red" fill="Red"/>
   </g>
   <g id="cell70">
  <circle cx="500.752" cy="469.204" r="8.41271" stroke-width="0.5" stroke="black" fill="blue"/>
  <circle cx="500.752" cy="469.204" r="5.05167" stroke-width="0.5" stroke="blue" fill="blue"/>
   </g>
   <g id="cell71">
  <circle cx="496.937" cy="480.551" r="8.41271" stroke-width="0.5" stroke="black" fill="Red"/>
  <circle cx="496.937" cy="480.551" r="5.05167" stroke-width="0.5" stroke="Red" fill="Red"/>
   </g>
   <g id="cell72">
  <circle cx="500.534" cy="494.904" r="8.41271" stroke-width="0.5" stroke="black" fill="Red"/>
  <circle cx="500.534" cy="494.904" r="5.05167" stroke-width="0.5" stroke="Red" fill="Red"/>
   </g>
   <g id="cell73">
  <circle cx="501.257" cy="508.427" r="8.41271" stroke-width="0.5" stroke="black" fill="Red"/>
  <circle cx="501.257" cy="508.427" r="5.05167" stroke-width="0.5" stroke="Red" fill="Red"/>
   </g>
   <g id="cell74">
  <circle cx="499.157" cy="523.032" r="8.41271" stroke-width="0.5" stroke="black" fill="Red"/>
  <circle cx="499.157" cy="523.032" r="5.05167" stroke-width="0.5" stroke="Red" fill="Red"/>
   </g>
   <g id="cell75">
  <circle cx="500.091" cy="537.423" r="8.41271" stroke-width="0.5" stroke="black" fill="blue"/>
  <circle cx="500.091" cy="537.423" r="5.05167" stroke-width="0.5" stroke="blue" fill="blue"/>
   </g>
   <g id="cell76">
  <circle cx="499.443" cy="550.88" r="8.41271" stroke-width="0.5" stroke="black" fill="Red"/>
  <circle cx="499.443" cy="550.88" r="5.05167" stroke-width="0.5" stroke="Red" fill="Red"/>
   </g>
   <g id="cell77">
  <circle cx="499.418" cy="566.868" r="7.18097" stroke-width="0.5" stroke="black" fill="blue"/>
  <circle cx="499.418" cy="566.868" r="4.36015" stroke-width="0.5" stroke="blue" fill="blue"/>
   </g>
   <g id="cell78">
  <circle cx="501.372" cy="580.786" r="8.41271" stroke-width="0.5" stroke="black" fill="yellow"/>
  <circle cx="501.372" cy="580.786" r="5.05167" stroke-width="0.5" stroke="yellow" fill="yellow"/>
   </g>
   <g id="cell79">
  <circle cx="502.828" cy="596.379" r="8.41271" stroke-width="0.5" stroke="black" fill="blue"/>
  <circle cx="502.828" cy="596.379" r="5.05167" stroke-width="0.5" stroke="blue" fill="blue"/>
   </g>
   <g id="cell80">
  <circle cx="515.567" cy="411.789" r="6.67717" stroke-width="0.5" stroke="black" fill="yellow"/>
  <circle cx="515.567" cy="411.789" r="4.00951" stroke-width="0.5" stroke="yellow" fill="yellow"/>
   </g>
   <g id="cell81">
  <circle cx="515.138" cy="433.584" r="8.41271" stroke-width="0.5" stroke="black" fill="Red"/>
  <circle cx="515.138" cy="433.584" r="5.05167" stroke-width="0.5" stroke="Red" fill="Red"/>
   </g>
   <g id="cell82">
  <circle cx="509.661" cy="447.014" r="8.41271" stroke-width="0.5" stroke="black" fill="Red"/>
  <circle cx="509.661" cy="447.014" r="5.05167" stroke-width="0.5" stroke="Red" fill="Red"/>
   </g>
   <g id="cell83">
  <circle cx="509.291" cy="459.396" r="8.41271" stroke-width="0.5" stroke="black" fill="Red"/>
  <circle cx="509.291" cy="459.396" r="5.05167" stroke-width="0.5" stroke="Red" fill="Red"/>
   </g>
   <g id="cell84">
  <circle cx="513.141" cy="471.915" r="8.41271" stroke-width="0.5" stroke="black" fill="Red"/>
  <circle cx="513.141" cy="471.915" r="5.05167" stroke-width="0.5" stroke="Red" fill="Red"/>
   </g>
   <g id="cell85">
  <circle cx="507.689" cy="483.618" r="8.41271" stroke-width="0.5" stroke="black" fill="Red"/>
  <circle cx="507.689" cy="483.618" r="5.05167" stroke-width="0.5" stroke="Red" fill="Red"/>
   </g>
   <g id="cell86">
  <circle cx="512.574" cy="496.391" r="8.41271" stroke-width="0.5" stroke="black" fill="Red"/>
  <circle cx="512.574" cy="496.391" r="5.05167" stroke-width="0.5" stroke="Red" fill="Red"/>
   </g>
   <g id="cell87">
  <circle cx="511.61" cy="507.627" r="7.27253" stroke-width="0.5" stroke="black" fill="Red"/>
  <circle cx="511.61" cy="507.627" r="4.41835" stroke-width="0.5" stroke="Red" fill="Red"/>
   </g>
   <g id="cell88">
  <circle cx="512.152" cy="530.734" r="8.41271" stroke-width="0.5" stroke="black" fill="yellow"/>
  <circle cx="512.152" cy="530.734" r="5.05167" stroke-width="0.5" stroke="yellow" fill="yellow"/>
   </g>
   <g id="cell89">
  <circle cx="511.178" cy="545.431" r="8.41271" stroke-width="0.5" stroke="black" fill="Red"/>
  <circle cx="511.178" cy="545.431" r="5.05167" stroke-width="0.5" stroke="Red" fill="Red"/>
   </g>
   <g id="cell90">
  <circle cx="516.798" cy="556.069" r="8.41271" stroke-width="0.5" stroke="black" fill="Red"/>
  <circle cx="516.798" cy="556.069" r="5.05167" stroke-width="0.5" stroke="Red" fill="Red"/>
   </g>
   <g id="cell91">
  <circle cx="513.805" cy="570.769" r="8.41271" stroke-width="0.5" stroke="black" fill="Red"/>
  <circle cx="513.805" cy="570.769" r="5.05167" stroke-width="0.5" stroke="Red" fill="Red"/>
   </g>
   <g id="cell92">
  <circle cx="514.657" cy="586.419" r="8.41271" stroke-width="0.5" stroke="black" fill="yellow"/>
  <circle cx="514.657" cy="586.419" r="5.05167" stroke-width="0.5" stroke="yellow" fill="yellow"/>
   </g>
   <g id="cell93">
  <circle cx="529.116" cy="410.86" r="8.41271" stroke-width="0.5" stroke="black" fill="blue"/>
  <circle cx="529.116" cy="410.86" r="5.05167" stroke-width="0.5" stroke="blue" fill="blue"/>
   </g>
   <g id="cell94">
  <circle cx="536.755" cy="425" r="7.30216" stroke-width="0.5" stroke="black" fill="yellow"/>
  <circle cx="536.755" cy="425" r="4.43696" stroke-width="0.5" stroke="yellow" fill="yellow"/>
   </g>
   <g id="cell95">
  <circle cx="528.206" cy="435.41" r="8.41271" stroke-width="0.5" stroke="black" fill="Red"/>
  <circle cx="528.206" cy="435.41" r="5.05167" stroke-width="0.5" stroke="Red" fill="Red"/>
   </g>
   <g id="cell96">
  <circle cx="518.547" cy="443.19" r="6.40465" stroke-width="0.5" stroke="black" fill="blue"/>
  <circle cx="518.547" cy="443.19" r="3.92284" stroke-width="0.5" stroke="blue" fill="blue"/>
   </g>
   <g id="cell97">
  <circle cx="522.328" cy="462.995" r="8.41271" stroke-width="0.5" stroke="black" fill="Red"/>
  <circle cx="522.328" cy="462.995" r="5.05167" stroke-width="0.5" stroke="Red" fill="Red"/>
   </g>
   <g id="cell98">
  <circle cx="525.119" cy="487.639" r="5.80765" stroke-width="0.5" stroke="black" fill="Red"/>
  <circle cx="525.119" cy="487.639" r="3.54228" stroke-width="0.5" stroke="Red" fill="Red"/>
   </g>
   <g id="cell99">
  <circle cx="525.026" cy="497.685" r="8.41271" stroke-width="0.5" stroke="black" fill="Red"/>
  <circle cx="525.026" cy="497.685" r="5.05167" stroke-width="0.5" stroke="Red" fill="Red"/>
   </g>
   <g id="cell100">
  <circle cx="522.535" cy="509.04" r="8.41271" stroke-width="0.5" stroke="black" fill="Red"/>
  <circle cx="522.535" cy="509.04" r="5.05167" stroke-width="0.5" stroke="Red" fill="Red"/>
   </g>
   <g id="cell101">
  <circle cx="522.714" cy="521.532" r="8.41271" stroke-width="0.5" stroke="black" fill="Red"/>
  <circle cx="522.714" cy="521.532" r="5.05167" stroke-width="0.5" stroke="Red" fill="Red"/>
   </g>
   <g id="cell102">
  <circle cx="527.48" cy="532.636" r="7.51976" stroke-width="0.5" stroke="black" fill="Red"/>
  <circle cx="527.48" cy="532.636" r="4.57072" stroke-width="0.5" stroke="Red" fill="Red"/>
   </g>
   <g id="cell103">
  <circle cx="528.133" cy="550.83" r="8.41271" stroke-width="0.5" stroke="black" fill="Red"/>
  <circle cx="528.133" cy="550.83" r="5.05167" stroke-width="0.5" stroke="Red" fill="Red"/>
   </g>
   <g id="cell104">
  <circle cx="527.259" cy="565.862" r="8.41271" stroke-width="0.5" stroke="black" fill="yellow"/>
  <circle cx="527.259" cy="565.862" r="5.05167" stroke-width="0.5" stroke="yellow" fill="yellow"/>
   </g>
   <g id="cell105">
  <circle cx="527.317" cy="578.951" r="8.41271" stroke-width="0.5" stroke="black" fill="blue"/>
  <circle cx="527.317" cy="578.951" r="5.05167" stroke-width="0.5" stroke="blue" fill="blue"/>
   </g>
   <g id="cell106">
  <circle cx="544.34" cy="413.498" r="8.41271" stroke-width="0.5" stroke="black" fill="yellow"/>
  <circle cx="544.34" cy="413.498" r="5.05167" stroke-width="0.5" stroke="yellow" fill="yellow"/>
   </g>
   <g id="cell107">
  <circle cx="542.051" cy="439.446" r="8.41271" stroke-width="0.5" stroke="black" fill="yellow"/>
  <circle cx="542.051" cy="439.446" r="5.05167" stroke-width="0.5" stroke="yellow" fill="yellow"/>
   </g>
   <g id="cell108">
  <circle cx="528.906" cy="447.708" r="8.41271" stroke-width="0.5" stroke="black" fill="Red"/>
  <circle cx="528.906" cy="447.708" r="5.05167" stroke-width="0.5" stroke="Red" fill="Red"/>
   </g>
   <g id="cell109">
  <circle cx="544.747" cy="465.962" r="8.41271" stroke-width="0.5" stroke="black" fill="Red"/>
  <circle cx="544.747" cy="465.962" r="5.05167" stroke-width="0.5" stroke="Red" fill="Red"/>
   </g>
   <g id="cell110">
  <circle cx="530.58" cy="480.549" r="8.41271" stroke-width="0.5" stroke="black" fill="Red"/>
  <circle cx="530.58" cy="480.549" r="5.05167" stroke-width="0.5" stroke="Red" fill="Red"/>
   </g>
   <g id="cell111">
  <circle cx="536.226" cy="491.561" r="8.41271" stroke-width="0.5" stroke="black" fill="blue"/>
  <circle cx="536.226" cy="491.561" r="5.05167" stroke-width="0.5" stroke="blue" fill="blue"/>
   </g>
   <g id="cell112">
  <circle cx="537.217" cy="504.339" r="8.41271" stroke-width="0.5" stroke="black" fill="Red"/>
  <circle cx="537.217" cy="504.339" r="5.05167" stroke-width="0.5" stroke="Red" fill="Red"/>
   </g>
   <g id="cell113">
  <circle cx="534.183" cy="516.423" r="8.41271" stroke-width="0.5" stroke="black" fill="blue"/>
  <circle cx="534.183" cy="516.423" r="5.05167" stroke-width="0.5" stroke="blue" fill="blue"/>
   </g>
   <g id="cell114">
  <circle cx="538.477" cy="528.376" r="8.41271" stroke-width="0.5" stroke="black" fill="Red"/>
  <circle cx="538.477" cy="528.376" r="5.05167" stroke-width="0.5" stroke="Red" fill="Red"/>
   </g>
   <g id="cell115">
  <circle cx="537.682" cy="541.818" r="8.41271" stroke-width="0.5" stroke="black" fill="Red"/>
  <circle cx="537.682" cy="541.818" r="5.05167" stroke-width="0.5" stroke="Red" fill="Red"/>
   </g>
   <g id="cell116">
  <circle cx="539.509" cy="557.319" r="8.41271" stroke-width="0.5" stroke="black" fill="Red"/>
  <circle cx="539.509" cy="557.319" r="5.05167" stroke-width="0.5" stroke="Red" fill="Red"/>
   </g>
   <g id="cell117">
  <circle cx="540.8" cy="571.358" r="8.41271" stroke-width="0.5" stroke="black" fill="yellow"/>
  <circle cx="540.8" cy="571.358" r="5.05167" stroke-width="0.5" stroke="yellow" fill="yellow"/>
   </g>
   <g id="cell118">
  <circle cx="551.037" cy="429.371" r="8.41271" stroke-width="0.5" stroke="black" fill="blue"/>
  <circle cx="551.037" cy="429.371" r="5.05167" stroke-width="0.5" stroke="blue" fill="blue"/>
   </g>
   <g id="cell119">
  <circle cx="555.341" cy="442.973" r="8.41271" stroke-width="0.5" stroke="black" fill="yellow"/>
  <circle cx="555.341" cy="442.973" r="5.05167" stroke-width="0.5" stroke="yellow" fill="yellow"/>
   </g>
   <g id="cell120">
  <circle cx="553.473" cy="457.327" r="7.27253" stroke-width="0.5" stroke="black" fill="Red"/>
  <circle cx="553.473" cy="457.327" r="4.41835" stroke-width="0.5" stroke="Red" fill="Red"/>
   </g>
   <g id="cell121">
  <circle cx="554.93" cy="472.325" r="8.41271" stroke-width="0.5" stroke="black" fill="Red"/>
  <circle cx="554.93" cy="472.325" r="5.05167" stroke-width="0.5" stroke="Red" fill="Red"/>
   </g>
   <g id="cell122">
  <circle cx="543.565" cy="479.703" r="8.41271" stroke-width="0.5" stroke="black" fill="Red"/>
  <circle cx="543.565" cy="479.703" r="5.05167" stroke-width="0.5" stroke="Red" fill="Red"/>
   </g>
   <g id="cell123">
  <circle cx="548.398" cy="494.388" r="8.41271" stroke-width="0.5" stroke="black" fill="Red"/>
  <circle cx="548.398" cy="494.388" r="5.05167" stroke-width="0.5" stroke="Red" fill="Red"/>
   </g>
   <g id="cell124">
  <circle cx="550.385" cy="508.279" r="8.41271" stroke-width="0.5" stroke="black" fill="Red"/>
  <circle cx="550.385" cy="508.279" r="5.05167" stroke-width="0.5" stroke="Red" fill="Red"/>
   </g>
   <g id="cell125">
  <circle cx="545.819" cy="518.821" r="7.30216" stroke-width="0.5" stroke="black" fill="Red"/>
  <circle cx="545.819" cy="518.821" r="4.43696" stroke-width="0.5" stroke="Red" fill="Red"/>
   </g>
   <g id="cell126">
  <circle cx="550.529" cy="533.66" r="8.41271" stroke-width="0.5" stroke="black" fill="Red"/>
  <circle cx="550.529" cy="533.66" r="5.05167" stroke-width="0.5" stroke="Red" fill="Red"/>
   </g>
   <g id="cell127">
  <circle cx="550.281" cy="548.049" r="8.41271" stroke-width="0.5" stroke="black" fill="Red"/>
  <circle cx="550.281" cy="548.049" r="5.05167" stroke-width="0.5" stroke="Red" fill="Red"/>
   </g>
   <g id="cell128">
  <circle cx="553.17" cy="561.506" r="8.41271" stroke-width="0.5" stroke="black" fill="blue"/>
  <circle cx="553.17" cy="561.506" r="5.05167" stroke-width="0.5" stroke="blue" fill="blue"/>
   </g>
   <g id="cell129">
  <circle cx="572.232" cy="454.683" r="7.24243" stroke-width="0.5" stroke="black" fill="blue"/>
  <circle cx="572.232" cy="454.683" r="4.39934" stroke-width="0.5" stroke="blue" fill="blue"/>
   </g>
   <g id="cell130">
  <circle cx="563.757" cy="463.732" r="8.41271" stroke-width="0.5" stroke="black" fill="yellow"/>
  <circle cx="563.757" cy="463.732" r="5.05167" stroke-width="0.5" stroke="yellow" fill="yellow"/>
   </g>
   <g id="cell131">
  <circle cx="567.431" cy="476.877" r="8.41271" stroke-width="0.5" stroke="black" fill="blue"/>
  <circle cx="567.431" cy="476.877" r="5.05167" stroke-width="0.5" stroke="blue" fill="blue"/>
   </g>
   <g id="cell132">
  <circle cx="558.088" cy="485.497" r="8.41271" stroke-width="0.5" stroke="black" fill="Red"/>
  <circle cx="558.088" cy="485.497" r="5.05167" stroke-width="0.5" stroke="Red" fill="Red"/>
   </g>
   <g id="cell133">
  <circle cx="561.483" cy="499.585" r="8.41271" stroke-width="0.5" stroke="black" fill="blue"/>
  <circle cx="561.483" cy="499.585" r="5.05167" stroke-width="0.5" stroke="blue" fill="blue"/>
   </g>
   <g id="cell134">
  <circle cx="562.953" cy="514.046" r="8.41271" stroke-width="0.5" stroke="black" fill="Red"/>
  <circle cx="562.953" cy="514.046" r="5.05167" stroke-width="0.5" stroke="Red" fill="Red"/>
   </g>
   <g id="cell135">
  <circle cx="567.228" cy="528.513" r="8.41271" stroke-width="0.5" stroke="black" fill="Red"/>
  <circle cx="567.228" cy="528.513" r="5.05167" stroke-width="0.5" stroke="Red" fill="Red"/>
   </g>
   <g id="cell136">
  <circle cx="561.533" cy="540.124" r="8.41271" stroke-width="0.5" stroke="black" fill="Red"/>
  <circle cx="561.533" cy="540.124" r="5.05167" stroke-width="0.5" stroke="Red" fill="Red"/>
   </g>
   <g id="cell137">
  <circle cx="563.953" cy="553.108" r="8.41271" stroke-width="0.5" stroke="black" fill="Red"/>
  <circle cx="563.953" cy="553.108" r="5.05167" stroke-width="0.5" stroke="Red" fill="Red"/>
   </g>
   <g id="cell138">
  <circle cx="577.326" cy="467.492" r="8.41271" stroke-width="0.5" stroke="black" fill="Red"/>
  <circle cx="577.326" cy="467.492" r="5.05167" stroke-width="0.5" stroke="Red" fill="Red"/>
   </g>
   <g id="cell139">
  <circle cx="580.309" cy="480.448" r="8.41271" stroke-width="0.5" stroke="black" fill="Red"/>
  <circle cx="580.309" cy="480.448" r="5.05167" stroke-width="0.5" stroke="Red" fill="Red"/>
   </g>
   <g id="cell140">
  <circle cx="571.455" cy="490.293" r="7.61469" stroke-width="0.5" stroke="black" fill="Red"/>
  <circle cx="571.455" cy="490.293" r="4.62762" stroke-width="0.5" stroke="Red" fill="Red"/>
   </g>
   <g id="cell141">
  <circle cx="574.466" cy="504.104" r="8.41271" stroke-width="0.5" stroke="black" fill="Red"/>
  <circle cx="574.466" cy="504.104" r="5.05167" stroke-width="0.5" stroke="Red" fill="Red"/>
   </g>
   <g id="cell142">
  <circle cx="574.738" cy="519.412" r="7.0545" stroke-width="0.5" stroke="black" fill="blue"/>
  <circle cx="574.738" cy="519.412" r="4.27772" stroke-width="0.5" stroke="blue" fill="blue"/>
   </g>
   <g id="cell143">
  <circle cx="574.913" cy="542.119" r="8.41271" stroke-width="0.5" stroke="black" fill="blue"/>
  <circle cx="574.913" cy="542.119" r="5.05167" stroke-width="0.5" stroke="blue" fill="blue"/>
   </g>
   <g id="cell144">
  <circle cx="433.092" cy="437.435" r="6.04378" stroke-width="0.5" stroke="black" fill="blue"/>
  <circle cx="433.092" cy="437.435" r="3.67294" stroke-width="0.5" stroke="blue" fill="blue"/>
   </g>
   <g id="cell145">
  <circle cx="584.833" cy="493.461" r="7.61469" stroke-width="0.5" stroke="black" fill="blue"/>
  <circle cx="584.833" cy="493.461" r="4.62762" stroke-width="0.5" stroke="blue" fill="blue"/>
   </g>
   <g id="cell146">
  <circle cx="480.043" cy="509.023" r="6.48046" stroke-width="0.5" stroke="black" fill="blue"/>
  <circle cx="480.043" cy="509.023" r="3.97185" stroke-width="0.5" stroke="blue" fill="blue"/>
   </g>
   <g id="cell147">
  <circle cx="532.965" cy="458.242" r="7.02237" stroke-width="0.5" stroke="black" fill="Red"/>
  <circle cx="532.965" cy="458.242" r="4.306" stroke-width="0.5" stroke="Red" fill="Red"/>
   </g>
   <g id="cell148">
  <circle cx="522.337" cy="542.463" r="7.51976" stroke-width="0.5" stroke="black" fill="blue"/>
  <circle cx="522.337" cy="542.463" r="4.57072" stroke-width="0.5" stroke="blue" fill="blue"/>
   </g>
   <g id="cell149">
  <circle cx="533.737" cy="468.612" r="7.02237" stroke-width="0.5" stroke="black" fill="blue"/>
  <circle cx="533.737" cy="468.612" r="4.306" stroke-width="0.5" stroke="blue" fill="blue"/>
   </g>
   <g id="cell150">
  <circle cx="446.225" cy="517.447" r="7.38797" stroke-width="0.5" stroke="black" fill="blue"/>
  <circle cx="446.225" cy="517.447" r="4.49029" stroke-width="0.5" stroke="blue" fill="blue"/>
   </g>
   <g id="cell151">
  <circle cx="449.838" cy="415.573" r="7.38797" stroke-width="0.5" stroke="black" fill="blue"/>
  <circle cx="449.838" cy="415.573" r="4.49029" stroke-width="0.5" stroke="blue" fill="blue"/>
   </g>
   <g id="cell152">
  <circle cx="485.673" cy="459.896" r="7.33129" stroke-width="0.5" stroke="black" fill="blue"/>
  <circle cx="485.673" cy="459.896" r="4.45516" stroke-width="0.5" stroke="blue" fill="blue"/>
   </g>
   <g id="cell153">
  <circle cx="523.838" cy="422.779" r="7.30216" stroke-width="0.5" stroke="black" fill="yellow"/>
  <circle cx="523.838" cy="422.779" r="4.43696" stroke-width="0.5" stroke="yellow" fill="yellow"/>
   </g>
   <g id="cell154">
  <circle cx="555.589" cy="523.129" r="7.30216" stroke-width="0.5" stroke="black" fill="blue"/>
  <circle cx="555.589" cy="523.129" r="4.43696" stroke-width="0.5" stroke="blue" fill="blue"/>
   </g>
   <g id="cell155">
  <circle cx="445.6" cy="425.759" r="6.64403" stroke-width="0.5" stroke="black" fill="Red"/>
  <circle cx="445.6" cy="425.759" r="4.07797" stroke-width="0.5" stroke="Red" fill="Red"/>
   </g>
   <g id="cell156">
  <circle cx="511.172" cy="517.969" r="7.27253" stroke-width="0.5" stroke="black" fill="blue"/>
  <circle cx="511.172" cy="517.969" r="4.41835" stroke-width="0.5" stroke="blue" fill="blue"/>
   </g>
   <g id="cell157">
  <circle cx="542.82" cy="452.245" r="7.27253" stroke-width="0.5" stroke="black" fill="blue"/>
  <circle cx="542.82" cy="452.245" r="4.41835" stroke-width="0.5" stroke="blue" fill="blue"/>
   </g>
   <g id="cell158">
  <circle cx="562.481" cy="451.821" r="5.88829" stroke-width="0.5" stroke="black" fill="Red"/>
  <circle cx="562.481" cy="451.821" r="3.59121" stroke-width="0.5" stroke="Red" fill="Red"/>
   </g>
   <g id="cell159">
  <circle cx="472.544" cy="528.707" r="7.21189" stroke-width="0.5" stroke="black" fill="blue"/>
  <circle cx="472.544" cy="528.707" r="4.37993" stroke-width="0.5" stroke="blue" fill="blue"/>
   </g>
   <g id="cell160">
  <circle cx="505.986" cy="560.001" r="7.18097" stroke-width="0.5" stroke="black" fill="blue"/>
  <circle cx="505.986" cy="560.001" r="4.36015" stroke-width="0.5" stroke="blue" fill="blue"/>
   </g>
   <g id="cell161">
  <circle cx="520.48" cy="478.632" r="5.70255" stroke-width="0.5" stroke="black" fill="Red"/>
  <circle cx="520.48" cy="478.632" r="3.46737" stroke-width="0.5" stroke="Red" fill="Red"/>
   </g>
   <g id="cell162">
  <circle cx="580.718" cy="530.603" r="7.0545" stroke-width="0.5" stroke="black" fill="Red"/>
  <circle cx="580.718" cy="530.603" r="4.27772" stroke-width="0.5" stroke="Red" fill="Red"/>
   </g>
   <g id="cell163">
  <circle cx="474.511" cy="517.116" r="6.48046" stroke-width="0.5" stroke="black" fill="Red"/>
  <circle cx="474.511" cy="517.116" r="3.97185" stroke-width="0.5" stroke="Red" fill="Red"/>
   </g>
   <g id="cell164">
  <circle cx="434.785" cy="497.386" r="7.0545" stroke-width="0.5" stroke="black" fill="blue"/>
  <circle cx="434.785" cy="497.386" r="4.27772" stroke-width="0.5" stroke="blue" fill="blue"/>
   </g>
   <g id="cell165">
  <circle cx="465.743" cy="442.538" r="6.99069" stroke-width="0.5" stroke="black" fill="blue"/>
  <circle cx="465.743" cy="442.538" r="4.23498" stroke-width="0.5" stroke="blue" fill="blue"/>
   </g>
   <g id="cell166">
  <circle cx="490.601" cy="441.254" r="6.99069" stroke-width="0.5" stroke="black" fill="blue"/>
  <circle cx="490.601" cy="441.254" r="4.23498" stroke-width="0.5" stroke="blue" fill="blue"/>
   </g>
   <g id="cell167">
  <circle cx="519.53" cy="452.657" r="6.40465" stroke-width="0.5" stroke="black" fill="blue"/>
  <circle cx="519.53" cy="452.657" r="3.92284" stroke-width="0.5" stroke="blue" fill="blue"/>
   </g>
   <g id="cell168">
  <circle cx="429.256" cy="528.779" r="5.67452" stroke-width="0.5" stroke="black" fill="Red"/>
  <circle cx="429.256" cy="528.779" r="3.4527" stroke-width="0.5" stroke="Red" fill="Red"/>
   </g>
   <g id="cell169">
  <circle cx="421.382" cy="456.952" r="6.83713" stroke-width="0.5" stroke="black" fill="blue"/>
  <circle cx="421.382" cy="456.952" r="4.12773" stroke-width="0.5" stroke="blue" fill="blue"/>
   </g>
   <g id="cell170">
  <circle cx="517.333" cy="486.148" r="5.80765" stroke-width="0.5" stroke="black" fill="blue"/>
  <circle cx="517.333" cy="486.148" r="3.54228" stroke-width="0.5" stroke="blue" fill="blue"/>
   </g>
   <g id="cell171">
  <circle cx="454.291" cy="581.361" r="6.78181" stroke-width="0.5" stroke="black" fill="Red"/>
  <circle cx="454.291" cy="581.361" r="4.08714" stroke-width="0.5" stroke="Red" fill="Red"/>
   </g>
   <g id="cell172">
  <circle cx="568.316" cy="444.263" r="5.88829" stroke-width="0.5" stroke="black" fill="blue"/>
  <circle cx="568.316" cy="444.263" r="3.59121" stroke-width="0.5" stroke="blue" fill="blue"/>
   </g>
   <g id="cell173">
  <circle cx="424.524" cy="521.431" r="5.67452" stroke-width="0.5" stroke="black" fill="blue"/>
  <circle cx="424.524" cy="521.431" r="3.4527" stroke-width="0.5" stroke="blue" fill="blue"/>
   </g>
   <g id="cell174">
  <circle cx="525.236" cy="471.806" r="5.70255" stroke-width="0.5" stroke="black" fill="Red"/>
  <circle cx="525.236" cy="471.806" r="3.46737" stroke-width="0.5" stroke="Red" fill="Red"/>
   </g>
   <g id="cell175">
  <circle cx="512.559" cy="422.014" r="6.67717" stroke-width="0.5" stroke="black" fill="Red"/>
  <circle cx="512.559" cy="422.014" r="4.00951" stroke-width="0.5" stroke="Red" fill="Red"/>
   </g>
   <g id="cell176">
  <circle cx="438.229" cy="431.107" r="6.04378" stroke-width="0.5" stroke="black" fill="blue"/>
  <circle cx="438.229" cy="431.107" r="3.67294" stroke-width="0.5" stroke="blue" fill="blue"/>
   </g>
  </g>
 </g>
  <rect x="775" y="1035" width="200" height="10" stroke-width="2" stroke="rgb(255,255,255)" fill="rgb(0,0,0)"/>
  <text x="781.25" y="1028.75"
   font-family="Arial" font-size="25" fill="black" >
   200 &#956;m
  </text>
  <text x="25" y="1045"
   font-family="Arial" font-size="18.75" fill="black" >
   0 days, 0 hours, 1 minutes, and 18.6868 seconds
  </text>
  <rect x="0" y="70" width="1000" height="1000" stroke-width="2" stroke="rgb(0,0,0)" fill="none"/>
</svg>
