<?xml version="1.0" encoding="UTF-8" standalone="no"?>
<!-- Created with PhysiCell (http://PhysiCell.MathCancer.org/) -->
<svg 
 xmlns:dc="http://purl.org/dc/elements/1.1/" 
 xmlns:cc="http://creativecommons.org/ns#" 
 xmlns:rdf="http://www.w3.org/1999/02/22-rdf-syntax-ns#" 
 xmlns:svg="http://www.w3.org/2000/svg" 
 xmlns="http://www.w3.org/2000/svg" 
 version="1.1" 
 width="1000" 
 height="1070" 
 id="svg2">
  <rect x="0" y="0" width="1000" height="1070" stroke-width="2" stroke="white" fill="white"/>
  <text x="12.5" y="30"
   font-family="Arial" font-size="25" fill="black" >
   Current time: 0 days, 4 hours, and 55.00 minutes, z = 0.00 &#956;m
  </text>
  <text x="12.5" y="57.5"
   font-family="Arial" font-size="23.75" fill="black" >
   189 agents
  </text>
 <g id="tissue" 
    transform="translate(0,1070) scale(1,-1)">
  <g id="ECM">
  </g>
  <g id="cells">
   <g id="cell0">
  <circle cx="426.337" cy="447.151" r="8.41271" stroke-width="0.5" stroke="black" fill="yellow"/>
  <circle cx="426.337" cy="447.151" r="5.05167" stroke-width="0.5" stroke="yellow" fill="yellow"/>
   </g>
   <g id="cell1">
  <circle cx="425.762" cy="470.474" r="7.24243" stroke-width="0.5" stroke="black" fill="Red"/>
  <circle cx="425.762" cy="470.474" r="4.39934" stroke-width="0.5" stroke="Red" fill="Red"/>
   </g>
   <g id="cell2">
  <circle cx="428.914" cy="484.139" r="8.41271" stroke-width="0.5" stroke="black" fill="blue"/>
  <circle cx="428.914" cy="484.139" r="5.05167" stroke-width="0.5" stroke="blue" fill="blue"/>
   </g>
   <g id="cell3">
  <circle cx="424.793" cy="496.75" r="7.44242" stroke-width="0.5" stroke="black" fill="Red"/>
  <circle cx="424.793" cy="496.75" r="4.52373" stroke-width="0.5" stroke="Red" fill="Red"/>
   </g>
   <g id="cell4">
  <circle cx="428.836" cy="508.553" r="8.41271" stroke-width="0.5" stroke="black" fill="Red"/>
  <circle cx="428.836" cy="508.553" r="5.05167" stroke-width="0.5" stroke="Red" fill="Red"/>
   </g>
   <g id="cell5">
  <circle cx="416.662" cy="530.116" r="7.3599" stroke-width="0.5" stroke="black" fill="blue"/>
  <circle cx="416.662" cy="530.116" r="4.47294" stroke-width="0.5" stroke="blue" fill="blue"/>
   </g>
   <g id="cell6">
  <circle cx="426.312" cy="538.789" r="8.41271" stroke-width="0.5" stroke="black" fill="yellow"/>
  <circle cx="426.312" cy="538.789" r="5.05167" stroke-width="0.5" stroke="yellow" fill="yellow"/>
   </g>
   <g id="cell7">
  <circle cx="442.398" cy="445.647" r="7.86286" stroke-width="0.5" stroke="black" fill="Red"/>
  <circle cx="442.398" cy="445.647" r="4.77207" stroke-width="0.5" stroke="Red" fill="Red"/>
   </g>
   <g id="cell8">
  <circle cx="435.335" cy="459.848" r="8.41271" stroke-width="0.5" stroke="black" fill="yellow"/>
  <circle cx="435.335" cy="459.848" r="5.05167" stroke-width="0.5" stroke="yellow" fill="yellow"/>
   </g>
   <g id="cell9">
  <circle cx="438.416" cy="473.594" r="8.41271" stroke-width="0.5" stroke="black" fill="Red"/>
  <circle cx="438.416" cy="473.594" r="5.05167" stroke-width="0.5" stroke="Red" fill="Red"/>
   </g>
   <g id="cell10">
  <circle cx="443.017" cy="485.26" r="8.41271" stroke-width="0.5" stroke="black" fill="Red"/>
  <circle cx="443.017" cy="485.26" r="5.05167" stroke-width="0.5" stroke="Red" fill="Red"/>
   </g>
   <g id="cell11">
  <circle cx="440.52" cy="504.98" r="8.41271" stroke-width="0.5" stroke="black" fill="Red"/>
  <circle cx="440.52" cy="504.98" r="5.05167" stroke-width="0.5" stroke="Red" fill="Red"/>
   </g>
   <g id="cell12">
  <circle cx="434.593" cy="519.836" r="7.70049" stroke-width="0.5" stroke="black" fill="Red"/>
  <circle cx="434.593" cy="519.836" r="4.67828" stroke-width="0.5" stroke="Red" fill="Red"/>
   </g>
   <g id="cell13">
  <circle cx="439.512" cy="533.638" r="8.41271" stroke-width="0.5" stroke="black" fill="Red"/>
  <circle cx="439.512" cy="533.638" r="5.05167" stroke-width="0.5" stroke="Red" fill="Red"/>
   </g>
   <g id="cell14">
  <circle cx="437.654" cy="548.147" r="8.41271" stroke-width="0.5" stroke="black" fill="Red"/>
  <circle cx="437.654" cy="548.147" r="5.05167" stroke-width="0.5" stroke="Red" fill="Red"/>
   </g>
   <g id="cell15">
  <circle cx="439.44" cy="563.639" r="8.41271" stroke-width="0.5" stroke="black" fill="blue"/>
  <circle cx="439.44" cy="563.639" r="5.05167" stroke-width="0.5" stroke="blue" fill="blue"/>
   </g>
   <g id="cell16">
  <circle cx="453.307" cy="426.278" r="7.21782" stroke-width="0.5" stroke="black" fill="yellow"/>
  <circle cx="453.307" cy="426.278" r="4.42127" stroke-width="0.5" stroke="yellow" fill="yellow"/>
   </g>
   <g id="cell17">
  <circle cx="451.66" cy="438.882" r="6.89675" stroke-width="0.5" stroke="black" fill="Red"/>
  <circle cx="451.66" cy="438.882" r="4.17024" stroke-width="0.5" stroke="Red" fill="Red"/>
   </g>
   <g id="cell18">
  <circle cx="449.158" cy="458.522" r="8.41271" stroke-width="0.5" stroke="black" fill="blue"/>
  <circle cx="449.158" cy="458.522" r="5.05167" stroke-width="0.5" stroke="blue" fill="blue"/>
   </g>
   <g id="cell19">
  <circle cx="450.947" cy="470.597" r="8.41271" stroke-width="0.5" stroke="black" fill="blue"/>
  <circle cx="450.947" cy="470.597" r="5.05167" stroke-width="0.5" stroke="blue" fill="blue"/>
   </g>
   <g id="cell20">
  <circle cx="454.67" cy="482.293" r="8.41271" stroke-width="0.5" stroke="black" fill="Red"/>
  <circle cx="454.67" cy="482.293" r="5.05167" stroke-width="0.5" stroke="Red" fill="Red"/>
   </g>
   <g id="cell21">
  <circle cx="448.864" cy="495.561" r="8.41271" stroke-width="0.5" stroke="black" fill="Red"/>
  <circle cx="448.864" cy="495.561" r="5.05167" stroke-width="0.5" stroke="Red" fill="Red"/>
   </g>
   <g id="cell22">
  <circle cx="453.884" cy="507.427" r="8.41271" stroke-width="0.5" stroke="black" fill="Red"/>
  <circle cx="453.884" cy="507.427" r="5.05167" stroke-width="0.5" stroke="Red" fill="Red"/>
   </g>
   <g id="cell23">
  <circle cx="448.546" cy="525.454" r="8.41271" stroke-width="0.5" stroke="black" fill="Red"/>
  <circle cx="448.546" cy="525.454" r="5.05167" stroke-width="0.5" stroke="Red" fill="Red"/>
   </g>
   <g id="cell24">
  <circle cx="451.261" cy="539.963" r="8.41271" stroke-width="0.5" stroke="black" fill="Red"/>
  <circle cx="451.261" cy="539.963" r="5.05167" stroke-width="0.5" stroke="Red" fill="Red"/>
   </g>
   <g id="cell25">
  <circle cx="451.08" cy="553.58" r="8.41271" stroke-width="0.5" stroke="black" fill="Red"/>
  <circle cx="451.08" cy="553.58" r="5.05167" stroke-width="0.5" stroke="Red" fill="Red"/>
   </g>
   <g id="cell26">
  <circle cx="451.207" cy="568.775" r="8.41271" stroke-width="0.5" stroke="black" fill="Red"/>
  <circle cx="451.207" cy="568.775" r="5.05167" stroke-width="0.5" stroke="Red" fill="Red"/>
   </g>
   <g id="cell27">
  <circle cx="464.038" cy="410.545" r="8.41271" stroke-width="0.5" stroke="black" fill="Red"/>
  <circle cx="464.038" cy="410.545" r="5.05167" stroke-width="0.5" stroke="Red" fill="Red"/>
   </g>
   <g id="cell28">
  <circle cx="465.53" cy="424.877" r="8.41271" stroke-width="0.5" stroke="black" fill="yellow"/>
  <circle cx="465.53" cy="424.877" r="5.05167" stroke-width="0.5" stroke="yellow" fill="yellow"/>
   </g>
   <g id="cell29">
  <circle cx="456.313" cy="448.38" r="7.38797" stroke-width="0.5" stroke="black" fill="Red"/>
  <circle cx="456.313" cy="448.38" r="4.49029" stroke-width="0.5" stroke="Red" fill="Red"/>
   </g>
   <g id="cell30">
  <circle cx="461.156" cy="459.498" r="8.41271" stroke-width="0.5" stroke="black" fill="Red"/>
  <circle cx="461.156" cy="459.498" r="5.05167" stroke-width="0.5" stroke="Red" fill="Red"/>
   </g>
   <g id="cell31">
  <circle cx="463.505" cy="471.448" r="8.41271" stroke-width="0.5" stroke="black" fill="Red"/>
  <circle cx="463.505" cy="471.448" r="5.05167" stroke-width="0.5" stroke="Red" fill="Red"/>
   </g>
   <g id="cell32">
  <circle cx="469.185" cy="483.416" r="8.41271" stroke-width="0.5" stroke="black" fill="Red"/>
  <circle cx="469.185" cy="483.416" r="5.05167" stroke-width="0.5" stroke="Red" fill="Red"/>
   </g>
   <g id="cell33">
  <circle cx="460.583" cy="494.555" r="8.41271" stroke-width="0.5" stroke="black" fill="Red"/>
  <circle cx="460.583" cy="494.555" r="5.05167" stroke-width="0.5" stroke="Red" fill="Red"/>
   </g>
   <g id="cell34">
  <circle cx="460.792" cy="519.882" r="8.41271" stroke-width="0.5" stroke="black" fill="Red"/>
  <circle cx="460.792" cy="519.882" r="5.05167" stroke-width="0.5" stroke="Red" fill="Red"/>
   </g>
   <g id="cell35">
  <circle cx="465.5" cy="537.707" r="6.89675" stroke-width="0.5" stroke="black" fill="blue"/>
  <circle cx="465.5" cy="537.707" r="4.17024" stroke-width="0.5" stroke="blue" fill="blue"/>
   </g>
   <g id="cell36">
  <circle cx="463.01" cy="547.834" r="8.41271" stroke-width="0.5" stroke="black" fill="Red"/>
  <circle cx="463.01" cy="547.834" r="5.05167" stroke-width="0.5" stroke="Red" fill="Red"/>
   </g>
   <g id="cell37">
  <circle cx="463.52" cy="560.904" r="8.41271" stroke-width="0.5" stroke="black" fill="blue"/>
  <circle cx="463.52" cy="560.904" r="5.05167" stroke-width="0.5" stroke="blue" fill="blue"/>
   </g>
   <g id="cell38">
  <circle cx="465.443" cy="574.337" r="8.41271" stroke-width="0.5" stroke="black" fill="yellow"/>
  <circle cx="465.443" cy="574.337" r="5.05167" stroke-width="0.5" stroke="yellow" fill="yellow"/>
   </g>
   <g id="cell39">
  <circle cx="465.493" cy="587.281" r="7.18097" stroke-width="0.5" stroke="black" fill="blue"/>
  <circle cx="465.493" cy="587.281" r="4.36015" stroke-width="0.5" stroke="blue" fill="blue"/>
   </g>
   <g id="cell40">
  <circle cx="477.667" cy="404.323" r="8.41271" stroke-width="0.5" stroke="black" fill="blue"/>
  <circle cx="477.667" cy="404.323" r="5.05167" stroke-width="0.5" stroke="blue" fill="blue"/>
   </g>
   <g id="cell41">
  <circle cx="478.029" cy="417.659" r="8.41271" stroke-width="0.5" stroke="black" fill="yellow"/>
  <circle cx="478.029" cy="417.659" r="5.05167" stroke-width="0.5" stroke="yellow" fill="yellow"/>
   </g>
   <g id="cell42">
  <circle cx="478.372" cy="443.306" r="6.75639" stroke-width="0.5" stroke="black" fill="Red"/>
  <circle cx="478.372" cy="443.306" r="4.06813" stroke-width="0.5" stroke="Red" fill="Red"/>
   </g>
   <g id="cell43">
  <circle cx="471.979" cy="454.436" r="8.41271" stroke-width="0.5" stroke="black" fill="Red"/>
  <circle cx="471.979" cy="454.436" r="5.05167" stroke-width="0.5" stroke="Red" fill="Red"/>
   </g>
   <g id="cell44">
  <circle cx="474.115" cy="467.08" r="8.41271" stroke-width="0.5" stroke="black" fill="blue"/>
  <circle cx="474.115" cy="467.08" r="5.05167" stroke-width="0.5" stroke="blue" fill="blue"/>
   </g>
   <g id="cell45">
  <circle cx="479.937" cy="478.906" r="8.41271" stroke-width="0.5" stroke="black" fill="Red"/>
  <circle cx="479.937" cy="478.906" r="5.05167" stroke-width="0.5" stroke="Red" fill="Red"/>
   </g>
   <g id="cell46">
  <circle cx="474.383" cy="494.012" r="8.41271" stroke-width="0.5" stroke="black" fill="Red"/>
  <circle cx="474.383" cy="494.012" r="5.05167" stroke-width="0.5" stroke="Red" fill="Red"/>
   </g>
   <g id="cell47">
  <circle cx="465.92" cy="506.113" r="7.84675" stroke-width="0.5" stroke="black" fill="Red"/>
  <circle cx="465.92" cy="506.113" r="4.7629" stroke-width="0.5" stroke="Red" fill="Red"/>
   </g>
   <g id="cell48">
  <circle cx="482.997" cy="520.251" r="7.56839" stroke-width="0.5" stroke="black" fill="Red"/>
  <circle cx="482.997" cy="520.251" r="4.59998" stroke-width="0.5" stroke="Red" fill="Red"/>
   </g>
   <g id="cell49">
  <circle cx="475.871" cy="541.845" r="8.41271" stroke-width="0.5" stroke="black" fill="Red"/>
  <circle cx="475.871" cy="541.845" r="5.05167" stroke-width="0.5" stroke="Red" fill="Red"/>
   </g>
   <g id="cell50">
  <circle cx="481.945" cy="554.266" r="6.80881" stroke-width="0.5" stroke="black" fill="blue"/>
  <circle cx="481.945" cy="554.266" r="4.10709" stroke-width="0.5" stroke="blue" fill="blue"/>
   </g>
   <g id="cell51">
  <circle cx="476.075" cy="566.06" r="8.41271" stroke-width="0.5" stroke="black" fill="Red"/>
  <circle cx="476.075" cy="566.06" r="5.05167" stroke-width="0.5" stroke="Red" fill="Red"/>
   </g>
   <g id="cell52">
  <circle cx="477.872" cy="583.582" r="8.41271" stroke-width="0.5" stroke="black" fill="Red"/>
  <circle cx="477.872" cy="583.582" r="5.05167" stroke-width="0.5" stroke="Red" fill="Red"/>
   </g>
   <g id="cell53">
  <circle cx="490.475" cy="406.854" r="8.41271" stroke-width="0.5" stroke="black" fill="yellow"/>
  <circle cx="490.475" cy="406.854" r="5.05167" stroke-width="0.5" stroke="yellow" fill="yellow"/>
   </g>
   <g id="cell54">
  <circle cx="482.996" cy="430.665" r="8.41271" stroke-width="0.5" stroke="black" fill="Red"/>
  <circle cx="482.996" cy="430.665" r="5.05167" stroke-width="0.5" stroke="Red" fill="Red"/>
   </g>
   <g id="cell55">
  <circle cx="486.988" cy="446.816" r="7.38797" stroke-width="0.5" stroke="black" fill="Red"/>
  <circle cx="486.988" cy="446.816" r="4.49029" stroke-width="0.5" stroke="Red" fill="Red"/>
   </g>
   <g id="cell56">
  <circle cx="495.075" cy="458.294" r="7.65871" stroke-width="0.5" stroke="black" fill="Red"/>
  <circle cx="495.075" cy="458.294" r="4.6537" stroke-width="0.5" stroke="Red" fill="Red"/>
   </g>
   <g id="cell57">
  <circle cx="487.373" cy="468.956" r="8.41271" stroke-width="0.5" stroke="black" fill="Red"/>
  <circle cx="487.373" cy="468.956" r="5.05167" stroke-width="0.5" stroke="Red" fill="Red"/>
   </g>
   <g id="cell58">
  <circle cx="487.705" cy="488.472" r="8.41271" stroke-width="0.5" stroke="black" fill="Red"/>
  <circle cx="487.705" cy="488.472" r="5.05167" stroke-width="0.5" stroke="Red" fill="Red"/>
   </g>
   <g id="cell59">
  <circle cx="486.062" cy="499.839" r="6.83713" stroke-width="0.5" stroke="black" fill="Red"/>
  <circle cx="486.062" cy="499.839" r="4.12773" stroke-width="0.5" stroke="Red" fill="Red"/>
   </g>
   <g id="cell60">
  <circle cx="488.619" cy="511.447" r="8.41271" stroke-width="0.5" stroke="black" fill="Red"/>
  <circle cx="488.619" cy="511.447" r="5.05167" stroke-width="0.5" stroke="Red" fill="Red"/>
   </g>
   <g id="cell61">
  <circle cx="484.769" cy="531.032" r="8.41271" stroke-width="0.5" stroke="black" fill="Red"/>
  <circle cx="484.769" cy="531.032" r="5.05167" stroke-width="0.5" stroke="Red" fill="Red"/>
   </g>
   <g id="cell62">
  <circle cx="488.015" cy="545.152" r="8.41271" stroke-width="0.5" stroke="black" fill="Red"/>
  <circle cx="488.015" cy="545.152" r="5.05167" stroke-width="0.5" stroke="Red" fill="Red"/>
   </g>
   <g id="cell63">
  <circle cx="488.474" cy="562.271" r="8.41271" stroke-width="0.5" stroke="black" fill="Red"/>
  <circle cx="488.474" cy="562.271" r="5.05167" stroke-width="0.5" stroke="Red" fill="Red"/>
   </g>
   <g id="cell64">
  <circle cx="486.495" cy="573.649" r="8.41271" stroke-width="0.5" stroke="black" fill="blue"/>
  <circle cx="486.495" cy="573.649" r="5.05167" stroke-width="0.5" stroke="blue" fill="blue"/>
   </g>
   <g id="cell65">
  <circle cx="489.627" cy="594.883" r="6.69288" stroke-width="0.5" stroke="black" fill="Red"/>
  <circle cx="489.627" cy="594.883" r="4.02051" stroke-width="0.5" stroke="Red" fill="Red"/>
   </g>
   <g id="cell66">
  <circle cx="503.775" cy="412.559" r="8.41271" stroke-width="0.5" stroke="black" fill="blue"/>
  <circle cx="503.775" cy="412.559" r="5.05167" stroke-width="0.5" stroke="blue" fill="blue"/>
   </g>
   <g id="cell67">
  <circle cx="492.236" cy="421.251" r="8.41271" stroke-width="0.5" stroke="black" fill="yellow"/>
  <circle cx="492.236" cy="421.251" r="5.05167" stroke-width="0.5" stroke="yellow" fill="yellow"/>
   </g>
   <g id="cell68">
  <circle cx="501.614" cy="428.987" r="8.41271" stroke-width="0.5" stroke="black" fill="Red"/>
  <circle cx="501.614" cy="428.987" r="5.05167" stroke-width="0.5" stroke="Red" fill="Red"/>
   </g>
   <g id="cell69">
  <circle cx="497.739" cy="447.145" r="8.41271" stroke-width="0.5" stroke="black" fill="Red"/>
  <circle cx="497.739" cy="447.145" r="5.05167" stroke-width="0.5" stroke="Red" fill="Red"/>
   </g>
   <g id="cell70">
  <circle cx="501.961" cy="466.86" r="8.41271" stroke-width="0.5" stroke="black" fill="blue"/>
  <circle cx="501.961" cy="466.86" r="5.05167" stroke-width="0.5" stroke="blue" fill="blue"/>
   </g>
   <g id="cell71">
  <circle cx="494.609" cy="478.059" r="8.41271" stroke-width="0.5" stroke="black" fill="Red"/>
  <circle cx="494.609" cy="478.059" r="5.05167" stroke-width="0.5" stroke="Red" fill="Red"/>
   </g>
   <g id="cell72">
  <circle cx="500.123" cy="490.998" r="8.41271" stroke-width="0.5" stroke="black" fill="Red"/>
  <circle cx="500.123" cy="490.998" r="5.05167" stroke-width="0.5" stroke="Red" fill="Red"/>
   </g>
   <g id="cell73">
  <circle cx="501.921" cy="508.819" r="8.41271" stroke-width="0.5" stroke="black" fill="Red"/>
  <circle cx="501.921" cy="508.819" r="5.05167" stroke-width="0.5" stroke="Red" fill="Red"/>
   </g>
   <g id="cell74">
  <circle cx="496.158" cy="522.987" r="8.41271" stroke-width="0.5" stroke="black" fill="Red"/>
  <circle cx="496.158" cy="522.987" r="5.05167" stroke-width="0.5" stroke="Red" fill="Red"/>
   </g>
   <g id="cell75">
  <circle cx="496.735" cy="535.765" r="8.41271" stroke-width="0.5" stroke="black" fill="Red"/>
  <circle cx="496.735" cy="535.765" r="5.05167" stroke-width="0.5" stroke="Red" fill="Red"/>
   </g>
   <g id="cell76">
  <circle cx="497.298" cy="552.762" r="8.41271" stroke-width="0.5" stroke="black" fill="Red"/>
  <circle cx="497.298" cy="552.762" r="5.05167" stroke-width="0.5" stroke="Red" fill="Red"/>
   </g>
   <g id="cell77">
  <circle cx="497.89" cy="569.626" r="7.54436" stroke-width="0.5" stroke="black" fill="Red"/>
  <circle cx="497.89" cy="569.626" r="4.58555" stroke-width="0.5" stroke="Red" fill="Red"/>
   </g>
   <g id="cell78">
  <circle cx="502.517" cy="580.257" r="8.41271" stroke-width="0.5" stroke="black" fill="Red"/>
  <circle cx="502.517" cy="580.257" r="5.05167" stroke-width="0.5" stroke="Red" fill="Red"/>
   </g>
   <g id="cell79">
  <circle cx="502.685" cy="593.938" r="8.41271" stroke-width="0.5" stroke="black" fill="blue"/>
  <circle cx="502.685" cy="593.938" r="5.05167" stroke-width="0.5" stroke="blue" fill="blue"/>
   </g>
   <g id="cell80">
  <circle cx="517.647" cy="410.748" r="7.02257" stroke-width="0.5" stroke="black" fill="yellow"/>
  <circle cx="517.647" cy="410.748" r="4.25644" stroke-width="0.5" stroke="yellow" fill="yellow"/>
   </g>
   <g id="cell81">
  <circle cx="515.316" cy="432.805" r="8.41271" stroke-width="0.5" stroke="black" fill="Red"/>
  <circle cx="515.316" cy="432.805" r="5.05167" stroke-width="0.5" stroke="Red" fill="Red"/>
   </g>
   <g id="cell82">
  <circle cx="511.636" cy="444.91" r="6.73287" stroke-width="0.5" stroke="black" fill="Red"/>
  <circle cx="511.636" cy="444.91" r="4.05039" stroke-width="0.5" stroke="Red" fill="Red"/>
   </g>
   <g id="cell83">
  <circle cx="507.505" cy="454.749" r="8.41271" stroke-width="0.5" stroke="black" fill="Red"/>
  <circle cx="507.505" cy="454.749" r="5.05167" stroke-width="0.5" stroke="Red" fill="Red"/>
   </g>
   <g id="cell84">
  <circle cx="515.009" cy="466.679" r="8.41271" stroke-width="0.5" stroke="black" fill="Red"/>
  <circle cx="515.009" cy="466.679" r="5.05167" stroke-width="0.5" stroke="Red" fill="Red"/>
   </g>
   <g id="cell85">
  <circle cx="505.552" cy="477.346" r="8.41271" stroke-width="0.5" stroke="black" fill="Red"/>
  <circle cx="505.552" cy="477.346" r="5.05167" stroke-width="0.5" stroke="Red" fill="Red"/>
   </g>
   <g id="cell86">
  <circle cx="513.113" cy="498.984" r="8.41271" stroke-width="0.5" stroke="black" fill="Red"/>
  <circle cx="513.113" cy="498.984" r="5.05167" stroke-width="0.5" stroke="Red" fill="Red"/>
   </g>
   <g id="cell87">
  <circle cx="513.748" cy="510.063" r="7.61469" stroke-width="0.5" stroke="black" fill="Red"/>
  <circle cx="513.748" cy="510.063" r="4.62762" stroke-width="0.5" stroke="Red" fill="Red"/>
   </g>
   <g id="cell88">
  <circle cx="509.204" cy="531.674" r="8.41271" stroke-width="0.5" stroke="black" fill="Red"/>
  <circle cx="509.204" cy="531.674" r="5.05167" stroke-width="0.5" stroke="Red" fill="Red"/>
   </g>
   <g id="cell89">
  <circle cx="506.126" cy="544.699" r="8.41271" stroke-width="0.5" stroke="black" fill="Red"/>
  <circle cx="506.126" cy="544.699" r="5.05167" stroke-width="0.5" stroke="Red" fill="Red"/>
   </g>
   <g id="cell90">
  <circle cx="514.922" cy="554.439" r="8.41271" stroke-width="0.5" stroke="black" fill="Red"/>
  <circle cx="514.922" cy="554.439" r="5.05167" stroke-width="0.5" stroke="Red" fill="Red"/>
   </g>
   <g id="cell91">
  <circle cx="512.379" cy="571.318" r="8.41271" stroke-width="0.5" stroke="black" fill="yellow"/>
  <circle cx="512.379" cy="571.318" r="5.05167" stroke-width="0.5" stroke="yellow" fill="yellow"/>
   </g>
   <g id="cell92">
  <circle cx="514.428" cy="585.911" r="8.41271" stroke-width="0.5" stroke="black" fill="Red"/>
  <circle cx="514.428" cy="585.911" r="5.05167" stroke-width="0.5" stroke="Red" fill="Red"/>
   </g>
   <g id="cell93">
  <circle cx="530.482" cy="410.699" r="8.41271" stroke-width="0.5" stroke="black" fill="blue"/>
  <circle cx="530.482" cy="410.699" r="5.05167" stroke-width="0.5" stroke="blue" fill="blue"/>
   </g>
   <g id="cell94">
  <circle cx="537.459" cy="422.77" r="7.63698" stroke-width="0.5" stroke="black" fill="Red"/>
  <circle cx="537.459" cy="422.77" r="4.64085" stroke-width="0.5" stroke="Red" fill="Red"/>
   </g>
   <g id="cell95">
  <circle cx="527.828" cy="433.625" r="8.41271" stroke-width="0.5" stroke="black" fill="Red"/>
  <circle cx="527.828" cy="433.625" r="5.05167" stroke-width="0.5" stroke="Red" fill="Red"/>
   </g>
   <g id="cell96">
  <circle cx="520.839" cy="443.717" r="7.02791" stroke-width="0.5" stroke="black" fill="blue"/>
  <circle cx="520.839" cy="443.717" r="4.30579" stroke-width="0.5" stroke="blue" fill="blue"/>
   </g>
   <g id="cell97">
  <circle cx="528.129" cy="459.887" r="8.41271" stroke-width="0.5" stroke="black" fill="Red"/>
  <circle cx="528.129" cy="459.887" r="5.05167" stroke-width="0.5" stroke="Red" fill="Red"/>
   </g>
   <g id="cell98">
  <circle cx="521.558" cy="491.023" r="6.58635" stroke-width="0.5" stroke="black" fill="blue"/>
  <circle cx="521.558" cy="491.023" r="4.0416" stroke-width="0.5" stroke="blue" fill="blue"/>
   </g>
   <g id="cell99">
  <circle cx="527.565" cy="497.821" r="8.41271" stroke-width="0.5" stroke="black" fill="Red"/>
  <circle cx="527.565" cy="497.821" r="5.05167" stroke-width="0.5" stroke="Red" fill="Red"/>
   </g>
   <g id="cell100">
  <circle cx="523.058" cy="506.716" r="6.89675" stroke-width="0.5" stroke="black" fill="blue"/>
  <circle cx="523.058" cy="506.716" r="4.17024" stroke-width="0.5" stroke="blue" fill="blue"/>
   </g>
   <g id="cell101">
  <circle cx="521.881" cy="528.075" r="8.41271" stroke-width="0.5" stroke="black" fill="Red"/>
  <circle cx="521.881" cy="528.075" r="5.05167" stroke-width="0.5" stroke="Red" fill="Red"/>
   </g>
   <g id="cell102">
  <circle cx="531.738" cy="536.651" r="7.79564" stroke-width="0.5" stroke="black" fill="Red"/>
  <circle cx="531.738" cy="536.651" r="4.73359" stroke-width="0.5" stroke="Red" fill="Red"/>
   </g>
   <g id="cell103">
  <circle cx="528.479" cy="550.241" r="8.41271" stroke-width="0.5" stroke="black" fill="Red"/>
  <circle cx="528.479" cy="550.241" r="5.05167" stroke-width="0.5" stroke="Red" fill="Red"/>
   </g>
   <g id="cell104">
  <circle cx="524.491" cy="564.193" r="8.41271" stroke-width="0.5" stroke="black" fill="Red"/>
  <circle cx="524.491" cy="564.193" r="5.05167" stroke-width="0.5" stroke="Red" fill="Red"/>
   </g>
   <g id="cell105">
  <circle cx="524.803" cy="578.343" r="8.41271" stroke-width="0.5" stroke="black" fill="blue"/>
  <circle cx="524.803" cy="578.343" r="5.05167" stroke-width="0.5" stroke="blue" fill="blue"/>
   </g>
   <g id="cell106">
  <circle cx="544.019" cy="412.723" r="6.92764" stroke-width="0.5" stroke="black" fill="yellow"/>
  <circle cx="544.019" cy="412.723" r="4.1918" stroke-width="0.5" stroke="yellow" fill="yellow"/>
   </g>
   <g id="cell107">
  <circle cx="540.66" cy="436.769" r="8.41271" stroke-width="0.5" stroke="black" fill="Red"/>
  <circle cx="540.66" cy="436.769" r="5.05167" stroke-width="0.5" stroke="Red" fill="Red"/>
   </g>
   <g id="cell108">
  <circle cx="532.208" cy="446.935" r="8.41271" stroke-width="0.5" stroke="black" fill="Red"/>
  <circle cx="532.208" cy="446.935" r="5.05167" stroke-width="0.5" stroke="Red" fill="Red"/>
   </g>
   <g id="cell109">
  <circle cx="547.48" cy="467.335" r="8.41271" stroke-width="0.5" stroke="black" fill="Red"/>
  <circle cx="547.48" cy="467.335" r="5.05167" stroke-width="0.5" stroke="Red" fill="Red"/>
   </g>
   <g id="cell110">
  <circle cx="527.808" cy="482.685" r="8.41271" stroke-width="0.5" stroke="black" fill="Red"/>
  <circle cx="527.808" cy="482.685" r="5.05167" stroke-width="0.5" stroke="Red" fill="Red"/>
   </g>
   <g id="cell111">
  <circle cx="537.983" cy="490.663" r="8.41271" stroke-width="0.5" stroke="black" fill="Red"/>
  <circle cx="537.983" cy="490.663" r="5.05167" stroke-width="0.5" stroke="Red" fill="Red"/>
   </g>
   <g id="cell112">
  <circle cx="538.85" cy="504.203" r="8.41271" stroke-width="0.5" stroke="black" fill="Red"/>
  <circle cx="538.85" cy="504.203" r="5.05167" stroke-width="0.5" stroke="Red" fill="Red"/>
   </g>
   <g id="cell113">
  <circle cx="530.562" cy="514.915" r="8.41271" stroke-width="0.5" stroke="black" fill="Red"/>
  <circle cx="530.562" cy="514.915" r="5.05167" stroke-width="0.5" stroke="Red" fill="Red"/>
   </g>
   <g id="cell114">
  <circle cx="535.06" cy="525.686" r="8.41271" stroke-width="0.5" stroke="black" fill="Red"/>
  <circle cx="535.06" cy="525.686" r="5.05167" stroke-width="0.5" stroke="Red" fill="Red"/>
   </g>
   <g id="cell115">
  <circle cx="541.476" cy="543.095" r="8.41271" stroke-width="0.5" stroke="black" fill="blue"/>
  <circle cx="541.476" cy="543.095" r="5.05167" stroke-width="0.5" stroke="blue" fill="blue"/>
   </g>
   <g id="cell116">
  <circle cx="540.033" cy="557.05" r="8.41271" stroke-width="0.5" stroke="black" fill="yellow"/>
  <circle cx="540.033" cy="557.05" r="5.05167" stroke-width="0.5" stroke="yellow" fill="yellow"/>
   </g>
   <g id="cell117">
  <circle cx="538.391" cy="570.702" r="8.41271" stroke-width="0.5" stroke="black" fill="yellow"/>
  <circle cx="538.391" cy="570.702" r="5.05167" stroke-width="0.5" stroke="yellow" fill="yellow"/>
   </g>
   <g id="cell118">
  <circle cx="550.489" cy="425.556" r="8.41271" stroke-width="0.5" stroke="black" fill="yellow"/>
  <circle cx="550.489" cy="425.556" r="5.05167" stroke-width="0.5" stroke="yellow" fill="yellow"/>
   </g>
   <g id="cell119">
  <circle cx="554.731" cy="441.073" r="8.41271" stroke-width="0.5" stroke="black" fill="yellow"/>
  <circle cx="554.731" cy="441.073" r="5.05167" stroke-width="0.5" stroke="yellow" fill="yellow"/>
   </g>
   <g id="cell120">
  <circle cx="552.176" cy="457.451" r="7.61469" stroke-width="0.5" stroke="black" fill="Red"/>
  <circle cx="552.176" cy="457.451" r="4.62762" stroke-width="0.5" stroke="Red" fill="Red"/>
   </g>
   <g id="cell121">
  <circle cx="557.388" cy="474.331" r="8.41271" stroke-width="0.5" stroke="black" fill="Red"/>
  <circle cx="557.388" cy="474.331" r="5.05167" stroke-width="0.5" stroke="Red" fill="Red"/>
   </g>
   <g id="cell122">
  <circle cx="546.452" cy="481.333" r="8.41271" stroke-width="0.5" stroke="black" fill="Red"/>
  <circle cx="546.452" cy="481.333" r="5.05167" stroke-width="0.5" stroke="Red" fill="Red"/>
   </g>
   <g id="cell123">
  <circle cx="550.025" cy="495.928" r="8.41271" stroke-width="0.5" stroke="black" fill="blue"/>
  <circle cx="550.025" cy="495.928" r="5.05167" stroke-width="0.5" stroke="blue" fill="blue"/>
   </g>
   <g id="cell124">
  <circle cx="552.39" cy="508.917" r="8.41271" stroke-width="0.5" stroke="black" fill="Red"/>
  <circle cx="552.39" cy="508.917" r="5.05167" stroke-width="0.5" stroke="Red" fill="Red"/>
   </g>
   <g id="cell125">
  <circle cx="544.548" cy="517.511" r="7.63698" stroke-width="0.5" stroke="black" fill="blue"/>
  <circle cx="544.548" cy="517.511" r="4.64085" stroke-width="0.5" stroke="blue" fill="blue"/>
   </g>
   <g id="cell126">
  <circle cx="546.891" cy="530.801" r="8.41271" stroke-width="0.5" stroke="black" fill="Red"/>
  <circle cx="546.891" cy="530.801" r="5.05167" stroke-width="0.5" stroke="Red" fill="Red"/>
   </g>
   <g id="cell127">
  <circle cx="551.245" cy="548.815" r="8.41271" stroke-width="0.5" stroke="black" fill="yellow"/>
  <circle cx="551.245" cy="548.815" r="5.05167" stroke-width="0.5" stroke="yellow" fill="yellow"/>
   </g>
   <g id="cell128">
  <circle cx="552.57" cy="563.744" r="8.41271" stroke-width="0.5" stroke="black" fill="blue"/>
  <circle cx="552.57" cy="563.744" r="5.05167" stroke-width="0.5" stroke="blue" fill="blue"/>
   </g>
   <g id="cell129">
  <circle cx="573.594" cy="454.262" r="7.59183" stroke-width="0.5" stroke="black" fill="yellow"/>
  <circle cx="573.594" cy="454.262" r="4.61399" stroke-width="0.5" stroke="yellow" fill="yellow"/>
   </g>
   <g id="cell130">
  <circle cx="562.607" cy="462.784" r="8.41271" stroke-width="0.5" stroke="black" fill="Red"/>
  <circle cx="562.607" cy="462.784" r="5.05167" stroke-width="0.5" stroke="Red" fill="Red"/>
   </g>
   <g id="cell131">
  <circle cx="568.776" cy="477.89" r="8.41271" stroke-width="0.5" stroke="black" fill="Red"/>
  <circle cx="568.776" cy="477.89" r="5.05167" stroke-width="0.5" stroke="Red" fill="Red"/>
   </g>
   <g id="cell132">
  <circle cx="559.863" cy="487.037" r="8.41271" stroke-width="0.5" stroke="black" fill="Red"/>
  <circle cx="559.863" cy="487.037" r="5.05167" stroke-width="0.5" stroke="Red" fill="Red"/>
   </g>
   <g id="cell133">
  <circle cx="561.933" cy="500.851" r="8.41271" stroke-width="0.5" stroke="black" fill="blue"/>
  <circle cx="561.933" cy="500.851" r="5.05167" stroke-width="0.5" stroke="blue" fill="blue"/>
   </g>
   <g id="cell134">
  <circle cx="565.219" cy="513.764" r="8.41271" stroke-width="0.5" stroke="black" fill="yellow"/>
  <circle cx="565.219" cy="513.764" r="5.05167" stroke-width="0.5" stroke="yellow" fill="yellow"/>
   </g>
   <g id="cell135">
  <circle cx="568.306" cy="528.358" r="8.41271" stroke-width="0.5" stroke="black" fill="yellow"/>
  <circle cx="568.306" cy="528.358" r="5.05167" stroke-width="0.5" stroke="yellow" fill="yellow"/>
   </g>
   <g id="cell136">
  <circle cx="558.127" cy="537.393" r="8.41271" stroke-width="0.5" stroke="black" fill="Red"/>
  <circle cx="558.127" cy="537.393" r="5.05167" stroke-width="0.5" stroke="Red" fill="Red"/>
   </g>
   <g id="cell137">
  <circle cx="567.081" cy="558.334" r="6.67717" stroke-width="0.5" stroke="black" fill="yellow"/>
  <circle cx="567.081" cy="558.334" r="4.00951" stroke-width="0.5" stroke="yellow" fill="yellow"/>
   </g>
   <g id="cell138">
  <circle cx="574.904" cy="467.61" r="8.41271" stroke-width="0.5" stroke="black" fill="blue"/>
  <circle cx="574.904" cy="467.61" r="5.05167" stroke-width="0.5" stroke="blue" fill="blue"/>
   </g>
   <g id="cell139">
  <circle cx="582.688" cy="481.025" r="8.41271" stroke-width="0.5" stroke="black" fill="yellow"/>
  <circle cx="582.688" cy="481.025" r="5.05167" stroke-width="0.5" stroke="yellow" fill="yellow"/>
   </g>
   <g id="cell140">
  <circle cx="572.837" cy="491.985" r="7.86286" stroke-width="0.5" stroke="black" fill="yellow"/>
  <circle cx="572.837" cy="491.985" r="4.77207" stroke-width="0.5" stroke="yellow" fill="yellow"/>
   </g>
   <g id="cell141">
  <circle cx="576.508" cy="504.981" r="8.41271" stroke-width="0.5" stroke="black" fill="yellow"/>
  <circle cx="576.508" cy="504.981" r="5.05167" stroke-width="0.5" stroke="yellow" fill="yellow"/>
   </g>
   <g id="cell142">
  <circle cx="578.016" cy="518.061" r="7.44242" stroke-width="0.5" stroke="black" fill="blue"/>
  <circle cx="578.016" cy="518.061" r="4.52373" stroke-width="0.5" stroke="blue" fill="blue"/>
   </g>
   <g id="cell143">
  <circle cx="571.072" cy="541.991" r="8.41271" stroke-width="0.5" stroke="black" fill="blue"/>
  <circle cx="571.072" cy="541.991" r="5.05167" stroke-width="0.5" stroke="blue" fill="blue"/>
   </g>
   <g id="cell144">
  <circle cx="432.552" cy="436.006" r="6.63192" stroke-width="0.5" stroke="black" fill="blue"/>
  <circle cx="432.552" cy="436.006" r="4.05701" stroke-width="0.5" stroke="blue" fill="blue"/>
   </g>
   <g id="cell145">
  <circle cx="585.371" cy="494.481" r="7.86286" stroke-width="0.5" stroke="black" fill="blue"/>
  <circle cx="585.371" cy="494.481" r="4.77207" stroke-width="0.5" stroke="blue" fill="blue"/>
   </g>
   <g id="cell146">
  <circle cx="476.812" cy="506.417" r="7.08801" stroke-width="0.5" stroke="black" fill="blue"/>
  <circle cx="476.812" cy="506.417" r="4.3422" stroke-width="0.5" stroke="blue" fill="blue"/>
   </g>
   <g id="cell147">
  <circle cx="538.882" cy="459.848" r="7.47473" stroke-width="0.5" stroke="black" fill="Red"/>
  <circle cx="538.882" cy="459.848" r="4.56983" stroke-width="0.5" stroke="Red" fill="Red"/>
   </g>
   <g id="cell148">
  <circle cx="519.426" cy="541.355" r="7.79564" stroke-width="0.5" stroke="black" fill="blue"/>
  <circle cx="519.426" cy="541.355" r="4.73359" stroke-width="0.5" stroke="blue" fill="blue"/>
   </g>
   <g id="cell149">
  <circle cx="535.68" cy="472.666" r="7.47473" stroke-width="0.5" stroke="black" fill="blue"/>
  <circle cx="535.68" cy="472.666" r="4.56983" stroke-width="0.5" stroke="blue" fill="blue"/>
   </g>
   <g id="cell150">
  <circle cx="444.834" cy="514.356" r="7.70049" stroke-width="0.5" stroke="black" fill="blue"/>
  <circle cx="444.834" cy="514.356" r="4.67828" stroke-width="0.5" stroke="blue" fill="blue"/>
   </g>
   <g id="cell151">
  <circle cx="452.384" cy="414.679" r="7.70049" stroke-width="0.5" stroke="black" fill="blue"/>
  <circle cx="452.384" cy="414.679" r="4.67828" stroke-width="0.5" stroke="blue" fill="blue"/>
   </g>
   <g id="cell152">
  <circle cx="483.289" cy="457.467" r="7.65871" stroke-width="0.5" stroke="black" fill="blue"/>
  <circle cx="483.289" cy="457.467" r="4.6537" stroke-width="0.5" stroke="blue" fill="blue"/>
   </g>
   <g id="cell153">
  <circle cx="524.277" cy="422.055" r="7.63698" stroke-width="0.5" stroke="black" fill="Red"/>
  <circle cx="524.277" cy="422.055" r="4.64085" stroke-width="0.5" stroke="Red" fill="Red"/>
   </g>
   <g id="cell154">
  <circle cx="555.772" cy="523.106" r="7.63698" stroke-width="0.5" stroke="black" fill="blue"/>
  <circle cx="555.772" cy="523.106" r="4.64085" stroke-width="0.5" stroke="blue" fill="blue"/>
   </g>
   <g id="cell155">
  <circle cx="441.549" cy="422.577" r="7.21782" stroke-width="0.5" stroke="black" fill="yellow"/>
  <circle cx="441.549" cy="422.577" r="4.42127" stroke-width="0.5" stroke="yellow" fill="yellow"/>
   </g>
   <g id="cell156">
  <circle cx="508.662" cy="520.283" r="7.61469" stroke-width="0.5" stroke="black" fill="blue"/>
  <circle cx="508.662" cy="520.283" r="4.62762" stroke-width="0.5" stroke="blue" fill="blue"/>
   </g>
   <g id="cell157">
  <circle cx="544.604" cy="449.253" r="7.61469" stroke-width="0.5" stroke="black" fill="blue"/>
  <circle cx="544.604" cy="449.253" r="4.62762" stroke-width="0.5" stroke="blue" fill="blue"/>
   </g>
   <g id="cell158">
  <circle cx="559.332" cy="451.625" r="5.26189" stroke-width="0.5" stroke="black" fill="yellow"/>
  <circle cx="559.332" cy="451.625" r="3.22739" stroke-width="0.5" stroke="yellow" fill="yellow"/>
   </g>
   <g id="cell159">
  <circle cx="471.244" cy="528.629" r="7.56839" stroke-width="0.5" stroke="black" fill="blue"/>
  <circle cx="471.244" cy="528.629" r="4.59998" stroke-width="0.5" stroke="blue" fill="blue"/>
   </g>
   <g id="cell160">
  <circle cx="504.443" cy="561.98" r="7.54436" stroke-width="0.5" stroke="black" fill="blue"/>
  <circle cx="504.443" cy="561.98" r="4.58555" stroke-width="0.5" stroke="blue" fill="blue"/>
   </g>
   <g id="cell161">
  <circle cx="517.374" cy="479.089" r="6.47349" stroke-width="0.5" stroke="black" fill="blue"/>
  <circle cx="517.374" cy="479.089" r="3.97085" stroke-width="0.5" stroke="blue" fill="blue"/>
   </g>
   <g id="cell162">
  <circle cx="580.808" cy="531.666" r="7.44242" stroke-width="0.5" stroke="black" fill="yellow"/>
  <circle cx="580.808" cy="531.666" r="4.52373" stroke-width="0.5" stroke="yellow" fill="yellow"/>
   </g>
   <g id="cell163">
  <circle cx="473.225" cy="516.905" r="7.08801" stroke-width="0.5" stroke="black" fill="Red"/>
  <circle cx="473.225" cy="516.905" r="4.3422" stroke-width="0.5" stroke="Red" fill="Red"/>
   </g>
   <g id="cell164">
  <circle cx="435.775" cy="494.546" r="7.44242" stroke-width="0.5" stroke="black" fill="Red"/>
  <circle cx="435.775" cy="494.546" r="4.52373" stroke-width="0.5" stroke="Red" fill="Red"/>
   </g>
   <g id="cell165">
  <circle cx="466.112" cy="444.35" r="7.38797" stroke-width="0.5" stroke="black" fill="blue"/>
  <circle cx="466.112" cy="444.35" r="4.49029" stroke-width="0.5" stroke="blue" fill="blue"/>
   </g>
   <g id="cell166">
  <circle cx="492.887" cy="435.999" r="7.38797" stroke-width="0.5" stroke="black" fill="blue"/>
  <circle cx="492.887" cy="435.999" r="4.49029" stroke-width="0.5" stroke="blue" fill="blue"/>
   </g>
   <g id="cell167">
  <circle cx="519.299" cy="453.397" r="7.02791" stroke-width="0.5" stroke="black" fill="Red"/>
  <circle cx="519.299" cy="453.397" r="4.30579" stroke-width="0.5" stroke="Red" fill="Red"/>
   </g>
   <g id="cell168">
  <circle cx="427.887" cy="527.714" r="6.47869" stroke-width="0.5" stroke="black" fill="yellow"/>
  <circle cx="427.887" cy="527.714" r="3.97583" stroke-width="0.5" stroke="yellow" fill="yellow"/>
   </g>
   <g id="cell169">
  <circle cx="419.952" cy="459.461" r="7.24243" stroke-width="0.5" stroke="black" fill="blue"/>
  <circle cx="419.952" cy="459.461" r="4.39934" stroke-width="0.5" stroke="blue" fill="blue"/>
   </g>
   <g id="cell170">
  <circle cx="514.713" cy="488.255" r="5.22759" stroke-width="0.5" stroke="black" fill="Red"/>
  <circle cx="514.713" cy="488.255" r="3.20782" stroke-width="0.5" stroke="Red" fill="Red"/>
   </g>
   <g id="cell171">
  <circle cx="454.605" cy="581.991" r="7.18097" stroke-width="0.5" stroke="black" fill="Red"/>
  <circle cx="454.605" cy="581.991" r="4.36015" stroke-width="0.5" stroke="Red" fill="Red"/>
   </g>
   <g id="cell172">
  <circle cx="568.48" cy="439.212" r="6.62957" stroke-width="0.5" stroke="black" fill="blue"/>
  <circle cx="568.48" cy="439.212" r="4.06626" stroke-width="0.5" stroke="blue" fill="blue"/>
   </g>
   <g id="cell173">
  <circle cx="421.253" cy="518.456" r="6.47869" stroke-width="0.5" stroke="black" fill="Red"/>
  <circle cx="421.253" cy="518.456" r="3.97583" stroke-width="0.5" stroke="Red" fill="Red"/>
   </g>
   <g id="cell174">
  <circle cx="525.985" cy="471.285" r="6.47349" stroke-width="0.5" stroke="black" fill="Red"/>
  <circle cx="525.985" cy="471.285" r="3.97085" stroke-width="0.5" stroke="Red" fill="Red"/>
   </g>
   <g id="cell175">
  <circle cx="511.065" cy="421.837" r="7.02257" stroke-width="0.5" stroke="black" fill="Red"/>
  <circle cx="511.065" cy="421.837" r="4.25644" stroke-width="0.5" stroke="Red" fill="Red"/>
   </g>
   <g id="cell176">
  <circle cx="442.47" cy="433.344" r="6.63192" stroke-width="0.5" stroke="black" fill="yellow"/>
  <circle cx="442.47" cy="433.344" r="4.05701" stroke-width="0.5" stroke="yellow" fill="yellow"/>
   </g>
   <g id="cell177">
  <circle cx="555.663" cy="413.673" r="6.92764" stroke-width="0.5" stroke="black" fill="blue"/>
  <circle cx="555.663" cy="413.673" r="4.1918" stroke-width="0.5" stroke="blue" fill="blue"/>
   </g>
   <g id="cell178">
  <circle cx="519.912" cy="518.115" r="6.89675" stroke-width="0.5" stroke="black" fill="Red"/>
  <circle cx="519.912" cy="518.115" r="4.17024" stroke-width="0.5" stroke="Red" fill="Red"/>
   </g>
   <g id="cell179">
  <circle cx="459.646" cy="530.709" r="6.89675" stroke-width="0.5" stroke="black" fill="blue"/>
  <circle cx="459.646" cy="530.709" r="4.17024" stroke-width="0.5" stroke="blue" fill="blue"/>
   </g>
   <g id="cell180">
  <circle cx="460.883" cy="435.876" r="6.89675" stroke-width="0.5" stroke="black" fill="Red"/>
  <circle cx="460.883" cy="435.876" r="4.17024" stroke-width="0.5" stroke="Red" fill="Red"/>
   </g>
   <g id="cell181">
  <circle cx="495.903" cy="500.23" r="6.83713" stroke-width="0.5" stroke="black" fill="blue"/>
  <circle cx="495.903" cy="500.23" r="4.12773" stroke-width="0.5" stroke="blue" fill="blue"/>
   </g>
   <g id="cell182">
  <circle cx="472.99" cy="554.295" r="6.80881" stroke-width="0.5" stroke="black" fill="Red"/>
  <circle cx="472.99" cy="554.295" r="4.10709" stroke-width="0.5" stroke="Red" fill="Red"/>
   </g>
   <g id="cell183">
  <circle cx="471.837" cy="435.362" r="6.75639" stroke-width="0.5" stroke="black" fill="Red"/>
  <circle cx="471.837" cy="435.362" r="4.06813" stroke-width="0.5" stroke="Red" fill="Red"/>
   </g>
   <g id="cell184">
  <circle cx="505.098" cy="438.877" r="6.73287" stroke-width="0.5" stroke="black" fill="Red"/>
  <circle cx="505.098" cy="438.877" r="4.05039" stroke-width="0.5" stroke="Red" fill="Red"/>
   </g>
   <g id="cell185">
  <circle cx="492.033" cy="583.825" r="6.69288" stroke-width="0.5" stroke="black" fill="yellow"/>
  <circle cx="492.033" cy="583.825" r="4.02051" stroke-width="0.5" stroke="yellow" fill="yellow"/>
   </g>
   <g id="cell186">
  <circle cx="507.211" cy="485.54" r="5.22759" stroke-width="0.5" stroke="black" fill="blue"/>
  <circle cx="507.211" cy="485.54" r="3.20782" stroke-width="0.5" stroke="blue" fill="blue"/>
   </g>
   <g id="cell187">
  <circle cx="566.78" cy="448.342" r="5.26189" stroke-width="0.5" stroke="black" fill="Red"/>
  <circle cx="566.78" cy="448.342" r="3.22739" stroke-width="0.5" stroke="Red" fill="Red"/>
   </g>
   <g id="cell188">
  <circle cx="560.315" cy="551.277" r="6.67717" stroke-width="0.5" stroke="black" fill="Red"/>
  <circle cx="560.315" cy="551.277" r="4.00951" stroke-width="0.5" stroke="Red" fill="Red"/>
   </g>
  </g>
 </g>
  <rect x="775" y="1035" width="200" height="10" stroke-width="2" stroke="rgb(255,255,255)" fill="rgb(0,0,0)"/>
  <text x="781.25" y="1028.75"
   font-family="Arial" font-size="25" fill="black" >
   200 &#956;m
  </text>
  <text x="25" y="1045"
   font-family="Arial" font-size="18.75" fill="black" >
   0 days, 0 hours, 1 minutes, and 48.3404 seconds
  </text>
  <rect x="0" y="70" width="1000" height="1000" stroke-width="2" stroke="rgb(0,0,0)" fill="none"/>
</svg>
